<?xml version="1.0" standalone="no"?>
<svg xmlns:xlink="http://www.w3.org/1999/xlink" id="s2" class="track" xmlns="http://www.w3.org/2000/svg" preserveAspectRatio="xMinYMid meet" height="800px" width="600px" viewBox="-1200 -700 3000 3000">
            <path d="M -99.6835 -170.8043 L -100.2958 -164.8599 L -101.109 -156.9745 L -101.741 -150.8593 L -102.5807 -142.76 L -103.2324 -136.4905 L -104.097 -128.2015 L -104.7678 -121.7943 L -105.5518 -114.333 L -106.4539 -105.7892 L -107.3099 -97.6689 L -107.9972 -91.0217 L -108.871 -82.2422 L -109.5195 -75.4667 L -110.3607 -66.5365 L -111.0649 -59.1206 L -111.8868 -50.5891 L -112.6206 -43.0715 L -113.4726 -34.4073 L -114.172 -27.326 L -115.0446 -18.5391 L -115.7621 -11.3594 L -116.712 -1.9209 L -117.5005 5.9029 L -118.385 14.8367 L -119.1218 22.5435 L -119.9143 31.2108 L -120.5267 38.1505 L -121.3342 47.5893 L -121.8511 53.7887 L -122.5965 62.9292 L -123.1137 69.4292 L -123.7248 77.2981 L -124.2042 83.5983 L -124.782 91.2308 L -125.3529 98.7356 L -126.4367 112.983 L -126.9782 120.2746 L -127.5047 127.5421 L -128.4379 140.9795 L -129.206 153.1511 L -129.7986 164.4031 L -129.9389 169.8132 L -129.9069 175.111 L -129.7983 178.7498 L -129.5721 183.2996 L -129.3047 186.871 L -128.8477 190.9996 L -128.3883 194.0024 L -127.6896 197.5114 L -126.8437 200.8323 L -125.8274 204.0451 L -124.778 206.8179 L -123.3927 209.9512 L -121.8162 213.0411 L -119.9349 216.2681 L -118.238 218.8856 L -116.1386 221.8429 L -113.7204 224.9365 L -111.0995 227.9751 L -108.437 230.7489 L -105.3854 233.5348 L -102.3673 235.8928 L -99.8327 237.6027 L -96.3701 239.6351 L -92.7298 241.4861 L -88.9097 243.1613 L -85.8641 244.327 L -81.9534 245.6299 L -78.6472 246.5709 L -73.8921 247.675 L -70.3373 248.3201 L -65.5431 248.9582 L -61.7716 249.2816 L -57.0212 249.4866 L -53.0916 249.5169 L -48.182 249.4285 L -43.818 249.2954 L -38.4419 249.1157 L -34.28 248.9651 L -29.101 248.7571 L -24.8439 248.562 L -19.2207 248.2618 L -14.8736 247.998 L -9.0997 247.6182 L -4.5845 247.3061 L 1.4807 246.8827 L 6.2708 246.5632 L 12.7383 246.1837 L 19.023 245.8778 L 25.093 245.6228 L 30.8711 245.3977 L 37.6527 245.1381 L 43.2821 244.9188 L 50.7883 244.6009 L 57.0224 244.2687 L 64.4907 243.7004 L 71.3298 242.9388 L 77.9382 241.9323 L 83.1216 240.9245 L 89.6333 239.3208 L 94.0337 237.9873 L 99.9716 235.7897 L 105.2343 233.4084 L 110.2516 230.7819 L 115.4086 227.7723 L 124.8623 221.5846 L 133.1402 215.4063 L 140.4232 209.0332 L 142.9933 206.5079 L 149.7502 198.9463 L 153.5535 194.0506 L 157.2383 188.9572 L 160.0325 184.9411 L 163.2196 180.1681 L 165.9201 175.8996 L 169.1331 170.4769 L 172.4079 164.5163 L 175.3964 158.7788 L 178.4002 153.0566 L 181.5636 147.4508 L 184.2941 143.023 L 187.8455 137.724 L 191.1255 133.2075 L 195.3495 127.8483 L 198.5069 124.1647 L 202.956 119.4414 L 205.8678 116.642 L 211.0373 112.2154 L 216.447 108.2034 L 222.0409 104.5287 L 230.8426 99.3113 L 236.3702 96.2556 L 239.8748 94.4285 L 245.2285 91.8563 L 251.8105 89.0896 L 257.4212 87.0878 L 263.1381 85.4014 L 268.1673 84.2029 L 273.6405 83.1556 L 277.1806 82.5947 L 282.3145 81.9169 L 289.0569 81.2101 L 294.2264 80.7874 L 300.9789 80.4428 L 306.132 80.3881 L 312.8404 80.6197 L 316.3763 80.8839 L 322.6192 81.592 L 329.183 82.6841 L 335.2811 84.011 L 341.6965 85.6882 L 348.059 87.5722 L 353.2697 89.2443 L 359.194 91.298 L 365.0698 93.5268 L 370.8879 95.939 L 375.9347 98.1976 L 382.0166 101.1031 L 387.7098 103.9676 L 397.6624 109.1653 L 408.12 114.5525 L 414.0063 117.4384 L 418.8657 119.7275 L 425.3359 122.666 L 430.3863 124.8927 L 437.1287 127.7699 L 442.3964 129.9287 L 449.0146 132.5114 L 454.9202 134.6924 L 461.7873 137.0893 L 467.4464 138.9575 L 474.9523 141.296 L 480.7581 143.0065 L 487.9617 145.0246 L 494.3025 146.7104 L 501.5689 148.5367 L 507.9497 150.047 L 515.7296 151.7728 L 521.2391 152.9193 L 528.6113 154.3621 L 534.614 155.467 L 542.4832 156.8311 L 548.0522 157.7403 L 555.4856 158.8844 L 560.1353 159.5676 L 568.0449 160.6823 L 574.1 161.4936 L 582.0247 162.4924 L 589.4835 163.3651 L 596.9474 164.1797 L 604.8718 165.0012 L 612.3273 165.7402 L 618.8496 166.365 L 626.7603 167.1033 L 634.6691 167.8287 L 642.1046 168.4991 L 649.9968 169.1886 L 656.4978 169.737 L 664.3845 170.3757 L 670.8773 170.881 L 678.763 171.4754 L 684.7924 171.9268 L 691.7397 172.4489 L 703.7381 173.3753 L 711.2802 173.9812 L 718.3724 174.5721 L 723.8645 175.0449 L 729.7763 175.5661 L 734.6579 176.002 L 739.9694 176.4737 L 745.1058 176.9181 L 750.5004 177.3724 L 755.8306 177.7992 L 760.6513 178.1448 L 764.3343 178.3611 L 768.87 178.5352 L 773.0095 178.586 L 777.2979 178.5217 L 780.5075 178.3779 L 784.3617 178.0555 L 787.6278 177.6321 L 791.4414 176.938 L 794.4417 176.1933 L 797.6852 175.1273 L 800.1725 174.1007 L 803.0993 172.6409 L 805.4064 171.2939 L 808.3309 169.3157 L 810.4682 167.6432 L 813.2207 165.1261 L 815.1966 163.0029 L 817.2832 160.3917 L 819.2638 157.4231 L 820.7718 154.6594 L 821.965 151.9745 L 823.0061 149.0008 L 823.8855 145.5304 L 824.5375 141.3367 L 824.7792 137.698 L 824.7733 135.3236 L 824.5284 131.8747 L 823.495 126.3875 L 822.4734 123.1601 L 821.1077 119.8298 L 819.581 116.7642 L 817.735 113.5628 L 815.8276 110.5915 L 813.5045 107.3083 L 811.2696 104.4535 L 808.7245 101.498 L 806.1617 98.8113 L 803.247 96.0445 L 800.3043 93.5286 L 796.9563 90.9535 L 793.5885 88.5999 L 789.7847 86.134 L 785.7735 83.6626 L 781.5538 81.1629 L 776.8348 78.4881 L 774.3707 77.1439 L 769.8175 74.7596 L 765.9531 72.836 L 761.0043 70.4968 L 757.8172 69.0437 L 752.5831 66.7037 L 747.8636 64.6065 L 742.2987 62.1225 L 737.6348 60.0224 L 731.6924 57.3147 L 725.1294 54.2703 L 718.7332 51.231 L 711.7335 47.7859 L 704.9739 44.332 L 697.6071 40.4696 L 690.0496 36.4401 L 682.7772 32.5068 L 675.3603 28.4403 L 669.2303 25.041 L 661.5567 20.7544 L 657.1716 18.2977 L 649.2577 13.8534 L 642.7183 10.1732 L 634.5279 5.5646 L 627.7581 1.7656 L 618.2167 -3.5577 L 610.6576 -7.7559 L 604.0901 -11.3965 L 596.3341 -15.6935 L 587.349 -20.6814 L 579.9556 -24.7887 L 570.7562 -29.9106 L 562.6069 -34.4535 L 552.5961 -40.042 L 544.8611 -44.3686 L 535.2528 -49.7506 L 526.7687 -54.5196 L 516.3793 -60.3885 L 508.3543 -64.9386 L 502.139 -68.465 L 487.056 -77.034 L 469.8398 -86.8216 L 453.6478 -95.9959 L 438.5037 -104.5057 L 429.238 -109.6997 L 417.8704 -116.088 L 409.1199 -121.0155 L 397.5938 -127.5071 L 388.7114 -132.5076 L 377.7302 -138.6852 L 368.7405 -143.7369 L 357.6119 -149.9864 L 349.2142 -154.6993 L 337.9351 -161.0237 L 328.7526 -166.1723 L 317.3406 -172.5812 L 307.3682 -178.194 L 296.5928 -184.2723 L 274.928 -196.5184 L 253.7898 -208.4775 L 232.4803 -220.5494 L 220.6571 -227.2493 L 208.788 -233.9756 L 186.4092 -246.6212 L 164.6241 -258.8412 L 142.023 -271.5146 L 121.8009 -282.8846 L 111.4032 -288.7121 L 106.2351 -291.6002 L 95.2662 -297.7253 L 81.5933 -305.3988 L 68.876 -312.6024 L 61.9181 -316.5728 L 51.0382 -322.8241 L 40.5514 -328.9042 L 29.9172 -335.1247 L 19.7924 -341.0757 L 10.6033 -346.4584 L 2.6764 -351.073 L -6.8338 -356.5821 L -14.0234 -360.7404 L -22.7633 -365.8002 L -31.3814 -370.8092 L -39.8789 -375.7664 L -47.2227 -380.0554 L -56.0212 -385.1927 L -64.6912 -390.2458 L -72.6723 -394.8884 L -80.4878 -399.4258 L -86.6802 -403.0155 L -94.1135 -407.3163 L -105.8221 -414.1313 L -112.7827 -418.2299 L -119.9593 -422.4897 L -126.436 -426.3537 L -132.9435 -430.2442 L -138.6808 -433.6578 L -144.2794 -436.9236 L -148.2466 -439.1542 L -152.7538 -441.5291 L -156.1148 -443.1913 L -160.0218 -445.0502 L -162.5277 -446.1834 L -165.6349 -447.4698 L -168.4941 -448.4729 L -171.2843 -449.241 L -173.3184 -449.6448 L -175.7459 -449.948 L -177.805 -450.0476 L -180.0832 -449.9903 L -181.3229 -449.8831 L -183.4456 -449.5669 L -185.216 -449.1655 L -187.2912 -448.5138 L -189.1063 -447.7749 L -191.0686 -446.7878 L -192.526 -445.9066 L -194.3902 -444.5764 L -195.8865 -443.2796 L -197.3924 -441.617 L -199.5977 -438.28 L -201.3516 -434.0664 L -202.0117 -431.7127 L -202.5924 -428.8697 L -203.0425 -425.8545 L -203.4315 -422.9045 L -203.8238 -419.8994 L -204.2664 -416.7164 L -204.6858 -414.092 L -205.2373 -411.283 L -205.8794 -408.6833 L -206.8114 -405.7108 L -207.7629 -403.3092 L -209.1954 -400.4418 L -210.6919 -398.044 L -212.6814 -395.4416 L -214.5303 -393.4193 L -217.076 -391.071 L -219.9089 -388.9134 L -223.2103 -386.8582 L -225.918 -385.4573 L -229.4666 -383.9209 L -232.5372 -382.7999 L -236.8095 -381.4824 L -239.9922 -380.6768 L -244.4353 -379.8203 L -249.3921 -379.1914 L -254.2584 -378.8064 L -258.6661 -378.5638 L -264.1956 -378.2952 L -268.5512 -378.0941 L -274.412 -377.8391 L -279.3735 -377.613 L -285.1893 -377.3065 L -290.4208 -376.9823 L -296.5457 -376.5511 L -302.8249 -376.0567 L -309.6462 -375.4466 L -315.7699 -374.7938 L -322.3807 -373.935 L -327.8029 -373.0896 L -334.5384 -371.8649 L -340.0647 -370.7228 L -347.3872 -369.041 L -354.8366 -367.1772 L -366.4916 -364.0021 L -374.2639 -361.6697 L -382.1177 -359.0978 L -393.3461 -355.0594 L -400.9392 -352.1145 L -407.1803 -349.5659 L -414.9368 -346.2226 L -420.796 -343.5513 L -428.6463 -339.7586 L -436.5379 -335.695 L -444.464 -331.3631 L -452.9253 -326.4771 L -461.4333 -321.3151 L -467.9702 -317.1783 L -476.5528 -311.5172 L -484.6576 -305.9349 L -493.2947 -299.7547 L -501.9818 -293.3588 L -510.7135 -286.7672 L -518.4098 -280.8139 L -525.5436 -275.1743 L -533.6295 -268.6439 L -540.1635 -263.2572 L -548.7101 -256.0877 L -555.2757 -250.516 L -563.9169 -243.1325 L -570.5868 -237.4151 L -579.4129 -229.8637 L -586.7738 -223.5928 L -595.7935 -215.9194 L -602.748 -209.9755 L -611.3551 -202.5531 L -618.3748 -196.4282 L -627.0449 -188.7516 L -636.245 -180.4574 L -645.4891 -172.0164 L -652.6084 -165.4984 L -662.5317 -156.4358 L -669.748 -149.8529 L -678.6557 -141.6889 L -685.8916 -134.9949 L -695.3435 -126.1403 L -702.5631 -119.2957 L -711.991 -110.2518 L -720.85 -101.6435 L -730.2363 -92.387 L -737.3767 -85.2253 L -747.1903 -75.1832 L -754.2175 -67.8512 L -762.7893 -58.7789 L -770.2187 -50.8228 L -779.1592 -41.1514 L -785.9069 -33.7748 L -794.0593 -24.7534 L -800.5289 -17.4823 L -808.2521 -8.6448 L -816.1363 .5602 L -823.2757 9.0284 L -828.8848 15.7662 L -835.9585 24.3905 L -839.9779 29.3694 L -845.7932 36.7179 L -850.6221 42.985 L -856.6453 51.0378 L -861.0384 57.0662 L -866.2334 64.3043 L -871.198 71.3015 L -876.2466 78.4874 L -881.0798 85.4249 L -885.6471 92.0313 L -889.6422 97.8532 L -893.3387 103.3153 L -896.1571 107.5828 L -899.1728 112.3407 L -902.0678 117.2366 L -904.7592 122.2635 L -907.1407 127.2714 L -909.1898 132.1325 L -911.1506 137.471 L -912.4513 141.6405 L -913.786 146.9194 L -914.5955 151.3008 L -915.2143 157.1326 L -915.3252 162.0047 L -915.0228 167.632 L -914.4733 172.2518 L -913.3617 178.3404 L -912.3044 182.6385 L -910.3972 188.6604 L -908.4546 193.5293 L -905.6307 199.2892 L -902.9385 203.8744 L -899.4752 208.8914 L -896.1218 213.0676 L -891.9084 217.5321 L -887.9142 221.1513 L -882.7077 225.1473 L -877.1418 228.6378 L -871.968 231.2478 L -868.3966 232.7321 L -862.1298 234.7893 L -855.6732 236.2935 L -849.4603 237.2511 L -843.9432 237.7278 L -837.5947 237.8007 L -832.4442 237.4474 L -825.7854 236.3939 L -820.7763 235.1356 L -814.7232 233.0928 L -809.8768 231.12 L -803.9573 228.3951 L -797.7896 225.1738 L -792.1051 221.7892 L -786.3201 217.7874 L -781.2326 213.5979 L -777.418 209.8846 L -773.1521 204.9628 L -769.1322 199.3414 L -765.9592 194.0996 L -763.9697 190.4911 L -760.7383 184.182 L -758.3871 179.2045 L -755.4796 172.5257 L -752.9388 166.0398 L -750.5189 158.9428 L -748.8622 153.3841 L -746.907 145.9652 L -745.1223 138.3736 L -743.4706 131.0605 L -741.975 124.5129 L -740.1025 116.3535 L -738.2283 107.9583 L -735.1995 93.6477 L -731.9778 78.284 L -730.1419 69.5819 L -728.2703 60.7254 L -726.7094 53.4467 L -725.0819 46.1428 L -720.7008 28.8836 L -717.903 19.5459 L -716.316 14.6388 L -713.3518 5.9692 L -710.2161 -2.6281 L -706.8529 -11.1208 L -702.7272 -20.466 L -694.9839 -35.3255 L -686.18 -49.107 L -675.991 -62.0554 L -665.2687 -73.3913 L -658.9481 -79.4108 L -653.2918 -84.5376 L -642.8306 -93.162 L -630.6237 -101.3737 L -618.3571 -107.8766 L -611.4361 -111.0162 L -604.4223 -113.9142 L -591.981 -118.3659 L -578.5938 -122.1749 L -565.0533 -125.0448 L -553.5909 -126.7618 L -547.0352 -127.4794 L -543.0804 -127.833 L -538.1513 -128.1943 L -532.5114 -128.4803 L -527.1079 -128.5856 L -523.0357 -128.5279 L -518.7555 -128.3143 L -515.3639 -128.0062 L -511.8995 -127.5335 L -508.756 -126.9545 L -505.7065 -126.2539 L -503.2396 -125.5776 L -500.2207 -124.587 L -497.61 -123.5482 L -494.692 -122.1342 L -492.9147 -121.1216 L -490.1454 -119.2921 L -487.2943 -117.0581 L -484.8896 -114.8318 L -482.9204 -112.7116 L -480.5928 -109.7137 L -479.0316 -107.2619 L -477.2932 -103.8579 L -476.4236 -101.7409 L -474.9214 -97.02 L -474.0658 -93.1967 L -473.445 -88.9361 L -473.1483 -84.7588 L -473.1237 -80.4552 L -473.3053 -76.6075 L -473.7146 -72.1302 L -474.211 -68.1531 L -474.8559 -63.5515 L -475.3699 -59.7901 L -475.9291 -55.1688 L -476.2984 -51.2018 L -476.5474 -46.7011 L -476.5724 -42.815 L -476.3231 -38.4367 L -475.8633 -34.9605 L -474.9632 -30.8178 L -473.9658 -27.5563 L -472.3285 -23.3775 L -470.4653 -19.534 L -468.1653 -15.5839 L -465.5654 -11.7667 L -463.2179 -8.7274 L -460.3163 -5.3831 L -454.6924 .0891 L -447.9685 5.2971 L -444.3839 7.5865 L -440.4233 9.7652 L -436.0825 11.7692 L -431.8867 13.3452 L -428.4093 14.4226 L -423.8009 15.6263 L -420.2356 16.4221 L -415.5307 17.3176 L -411.9007 17.8839 L -407.1241 18.4143 L -403.4729 18.621 L -398.4546 18.5888 L -393.7771 18.1859 L -389.4459 17.4705 L -384.9143 16.3511 L -380.5144 14.8693 L -376.9742 13.3685 L -373.0313 11.3449 L -369.2138 9.0038 L -365.3019 6.1938 L -361.5247 3.0919 L -358.0852 -.0611 L -354.7596 -3.4245 L -351.954 -6.5384 L -349.0795 -10.0499 L -346.7246 -13.2358 L -344.0346 -17.3366 L -341.4704 -21.8992 L -339.2493 -26.6572 L -337.1082 -32.4947 L -335.2606 -39.4729 L -334.0579 -45.73 L -333.2525 -50.8698 L -332.4531 -56.4618 L -331.7283 -62.1857 L -330.7776 -72.2482 L -330.4756 -77.9524 L -330.3691 -83.0172 L -330.4168 -89.3064 L -330.6019 -95.3904 L -331.17 -106.8239 L -331.9922 -118.7944 L -333.0484 -131.7093 L -333.6784 -138.7998 L -334.3506 -146.4827 L -335.3177 -158.9908 L -335.7522 -166.5427 L -335.9871 -174.1338 L -335.948 -182.2045 L -335.5623 -190.2654 L -334.8163 -198.306 L -333.5169 -207.716 L -332.7724 -211.9143 L -331.1657 -219.247 L -329.5726 -225.0365 L -327.2362 -231.8958 L -324.4953 -238.3636 L -321.606 -244.071 L -318.9209 -248.7857 L -315.2964 -254.6285 L -312.6752 -258.5989 L -308.9061 -264.0045 L -305.9576 -267.9546 L -301.9661 -272.8508 L -299.5425 -275.5771 L -295.2774 -279.9305 L -291.6186 -283.2787 L -286.9538 -287.1483 L -283.2087 -290.0205 L -278.3992 -293.5087 L -274.344 -296.3225 L -268.8213 -299.918 L -264.4069 -302.557 L -258.3883 -305.8371 L -253.6076 -308.2102 L -247.9124 -310.7732 L -236.0792 -315.1493 L -226.6814 -317.7937 L -222.5431 -318.8015 L -211.7599 -321.3141 L -199.7537 -324.6728 L -194.3675 -326.3254 L -189.4654 -327.8044 L -172.8616 -332.6221 L -170.4312 -333.2643 L -163.4788 -334.8987 L -159.456 -335.6786 L -154.5145 -336.4295 L -150.2222 -336.8591 L -145.935 -337.0363 L -142.5307 -336.9795 L -138.74 -336.6918 L -135.7449 -336.2788 L -132.1643 -335.5463 L -129.1134 -334.7055 L -125.4695 -333.4348 L -122.7053 -332.2761 L -118.9423 -330.4026 L -115.6833 -328.4653 L -113.1154 -326.6955 L -110.4629 -324.5896 L -107.4334 -321.7597 L -104.8011 -318.8417 L -102.2578 -315.4924 L -99.9672 -311.8976 L -97.8927 -308.0498 L -96.1457 -304.2062 L -94.9842 -301.1848 L -93.6623 -296.9859 L -92.6169 -292.6071 L -91.7989 -287.7537 L -91.2643 -282.9905 L -90.9205 -278.0392 L -90.7321 -272.2505 L -90.6961 -267.2605 L -90.7542 -262.8324 L -90.983 -256.8928 L -91.2761 -252.2434 L -92.1689 -242.2675 L -92.8065 -236.1434 L -93.3939 -230.6484 L -94.0169 -224.6043 L -94.5465 -219.2238 L -95.2153 -212.3421 L -96.0357 -204.0895 L -96.7812 -196.763 L -97.4668 -190.1057 L -98.4204 -180.9389 L -99.195 -173.5671 z" stroke-width="28" stroke="black" fill="none" id="Track"/><path d="M -99.6835 -170.8043 L -100.2958 -164.8599 L -101.109 -156.9745 L -101.741 -150.8593 L -102.5807 -142.76 L -103.2324 -136.4905 L -104.097 -128.2015 L -104.7678 -121.7943 L -105.5518 -114.333 L -106.4539 -105.7892 L -107.3099 -97.6689 L -107.9972 -91.0217 L -108.871 -82.2422 L -109.5195 -75.4667 L -110.3607 -66.5365 L -111.0649 -59.1206 L -111.8868 -50.5891 L -112.6206 -43.0715 L -113.4726 -34.4073 L -114.172 -27.326 L -115.0446 -18.5391 L -115.7621 -11.3594 L -116.712 -1.9209 L -117.5005 5.9029 L -118.385 14.8367 L -119.1218 22.5435 L -119.9143 31.2108 L -120.5267 38.1505 L -121.3342 47.5893 L -121.8511 53.7887 L -122.5965 62.9292 L -123.1137 69.4292 L -123.7248 77.2981 L -124.2042 83.5983 L -124.782 91.2308 L -125.3529 98.7356 L -126.4367 112.983 L -126.9782 120.2746 L -127.5047 127.5421 L -128.4379 140.9795 L -129.206 153.1511 L -129.7986 164.4031 L -129.9389 169.8132 L -129.9069 175.111 L -129.7983 178.7498 L -129.5721 183.2996 L -129.3047 186.871 L -128.8477 190.9996 L -128.3883 194.0024 L -127.6896 197.5114 L -126.8437 200.8323 L -125.8274 204.0451 L -124.778 206.8179 L -123.3927 209.9512 L -121.8162 213.0411 L -119.9349 216.2681 L -118.238 218.8856 L -116.1386 221.8429 L -113.7204 224.9365 L -111.0995 227.9751 L -108.437 230.7489 L -105.3854 233.5348 L -102.3673 235.8928 L -99.8327 237.6027 L -96.3701 239.6351 L -92.7298 241.4861 L -88.9097 243.1613 L -85.8641 244.327 L -81.9534 245.6299 L -78.6472 246.5709 L -73.8921 247.675 L -70.3373 248.3201 L -65.5431 248.9582 L -61.7716 249.2816 L -57.0212 249.4866 L -53.0916 249.5169 L -48.182 249.4285 L -43.818 249.2954 L -38.4419 249.1157 L -34.28 248.9651 L -29.101 248.7571 L -24.8439 248.562 L -19.2207 248.2618 L -14.8736 247.998 L -9.0997 247.6182 L -4.5845 247.3061 L 1.4807 246.8827 L 6.2708 246.5632 L 12.7383 246.1837 L 19.023 245.8778 L 25.093 245.6228 L 30.8711 245.3977 L 37.6527 245.1381 L 43.2821 244.9188 L 50.7883 244.6009 L 57.0224 244.2687 L 64.4907 243.7004 L 71.3298 242.9388 L 77.9382 241.9323 L 83.1216 240.9245 L 89.6333 239.3208 L 94.0337 237.9873 L 99.9716 235.7897 L 105.2343 233.4084 L 110.2516 230.7819 L 115.4086 227.7723 L 124.8623 221.5846 L 133.1402 215.4063 L 140.4232 209.0332 L 142.9933 206.5079 L 149.7502 198.9463 L 153.5535 194.0506 L 157.2383 188.9572 L 160.0325 184.9411 L 163.2196 180.1681 L 165.9201 175.8996 L 169.1331 170.4769 L 172.4079 164.5163 L 175.3964 158.7788 L 178.4002 153.0566 L 181.5636 147.4508 L 184.2941 143.023 L 187.8455 137.724 L 191.1255 133.2075 L 195.3495 127.8483 L 198.5069 124.1647 L 202.956 119.4414 L 205.8678 116.642 L 211.0373 112.2154 L 216.447 108.2034 L 222.0409 104.5287 L 230.8426 99.3113 L 236.3702 96.2556 L 239.8748 94.4285 L 245.2285 91.8563 L 251.8105 89.0896 L 257.4212 87.0878 L 263.1381 85.4014 L 268.1673 84.2029 L 273.6405 83.1556 L 277.1806 82.5947 L 282.3145 81.9169 L 289.0569 81.2101 L 294.2264 80.7874 L 300.9789 80.4428 L 306.132 80.3881 L 312.8404 80.6197 L 316.3763 80.8839 L 322.6192 81.592 L 329.183 82.6841 L 335.2811 84.011 L 341.6965 85.6882 L 348.059 87.5722 L 353.2697 89.2443 L 359.194 91.298 L 365.0698 93.5268 L 370.8879 95.939 L 375.9347 98.1976 L 382.0166 101.1031 L 387.7098 103.9676 L 397.6624 109.1653 L 408.12 114.5525 L 414.0063 117.4384 L 418.8657 119.7275 L 425.3359 122.666 L 430.3863 124.8927 L 437.1287 127.7699 L 442.3964 129.9287 L 449.0146 132.5114 L 454.9202 134.6924 L 461.7873 137.0893 L 467.4464 138.9575 L 474.9523 141.296 L 480.7581 143.0065 L 487.9617 145.0246 L 494.3025 146.7104 L 501.5689 148.5367 L 507.9497 150.047 L 515.7296 151.7728 L 521.2391 152.9193 L 528.6113 154.3621 L 534.614 155.467 L 542.4832 156.8311 L 548.0522 157.7403 L 555.4856 158.8844 L 560.1353 159.5676 L 568.0449 160.6823 L 574.1 161.4936 L 582.0247 162.4924 L 589.4835 163.3651 L 596.9474 164.1797" stroke-width="12" stroke="#e73323" fill="none" id="S1"/><path d="M 603.0058 164.8113 L 610.4636 165.558 L 616.9862 166.1883 L 624.9007 166.9316 L 633.2752 167.7019 L 640.7104 168.3749 L 648.1394 169.0287 L 662.9926 170.2651 L 676.9086 171.3367 L 690.3509 172.3441 L 702.3681 173.2674 L 709.9817 173.8753 L 717.155 174.4691 L 728.6956 175.47 L 738.9931 176.3878 L 744.1488 176.8363 L 749.5523 177.2938 L 754.5852 177.7024 L 759.4727 178.0657 L 763.5037 178.3172 L 768.0815 178.5136 L 772.2416 178.5848 L 776.5489 178.5424 L 779.5259 178.4323 L 783.6483 178.1292 L 786.7056 177.7663 L 790.5597 177.1203 L 793.599 176.4238 L 797.0925 175.3444 L 799.6094 174.3499 L 802.5592 172.9313 L 804.8781 171.618 L 807.6539 169.8034 L 809.9849 168.0404 L 812.6298 165.706 L 814.6459 163.6252 L 816.9059 160.8967 L 818.1312 159.1932 L 820.4889 155.2223 L 821.6459 152.7507 L 822.8177 149.6034 L 823.7069 146.3548 L 824.2606 143.4478 L 824.6727 139.8449 L 824.5958 132.5199 L 823.655 127.0068 L 822.6853 123.7578 L 821.4536 120.6057 L 819.8841 117.3348 L 818.1873 114.311 L 816.1971 111.1465 L 814.0382 108.0319 L 811.7011 104.9846 L 809.1871 102.0121 L 806.6541 99.3081 L 803.9534 96.6884 L 800.8713 93.9934 L 797.5636 91.4008 L 794.2356 89.0375 L 790.4714 86.5681 L 786.4953 84.1002 L 782.3147 81.6061 L 777.9062 79.0842 L 775.2008 77.5925 L 770.9771 75.3546 L 766.8575 73.2781 L 761.9485 70.9342 L 753.5769 67.1461 L 743.3562 62.5961 L 732.8246 57.8338 L 726.6946 55.0019 L 719.9482 51.8153 L 712.9834 48.4115 L 706.2537 44.994 L 698.9208 41.1637 L 691.3959 37.1625 L 684.1523 33.2545 L 677.227 29.4687 L 671.1261 26.0955 L 663.4865 21.8348 L 658.6382 19.1202 L 650.7528 14.6944 L 644.2364 11.0277 L 636.0767 6.4351 L 629.3319 2.6471 L 620.3521 -2.3691 L 605.7408 -10.4824 L 589.6033 -19.4295 L 572.4908 -28.9446 L 554.3719 -39.0501 L 537.0621 -48.7362 L 518.2204 -59.346 L 497.7632 -70.9482 L 482.6214 -79.5549 L 476.249 -83.1776 L 465.9752 -89.0163 L 460.1542 -92.3177 L 449.0708 -98.5744 L 441.1771 -103.0072 L 431.902 -108.2051 L 420.5528 -114.5787 L 411.1437 -119.8758 L 400.3155 -125.9741 L 391.459 -130.9619 L 380.4833 -137.1364 L 370.8207 -142.5681 L 359.7044 -148.8121 L 340.0671 -159.8283 L 319.5089 -171.3621 L 298.7583 -183.0497 L 287.2163 -189.5686 L 277.8312 -194.8761 L 265.4755 -201.8658 L 256.717 -206.8211 L 244.9875 -213.4626 L 235.4284 -218.8789 L 222.8745 -225.9927 L 211.0166 -232.7126 L 199.1109 -239.4544 L 189.4015 -244.9359 L 176.6591 -252.0986 L 166.8815 -257.5768 L 154.0724 -264.7516 L 144.2804 -270.2466 L 131.5218 -277.4201 L 124.0455 -281.6238 L 101.8298 -294.0591 L 90.199 -300.5618 L 83.7364 -304.1916 L 71.6807 -311.0076 L 64.6868 -314.9905 L 53.0506 -321.6636 L 43.1314 -327.4031 L 31.7537 -334.0468 L 22.1319 -339.7002 L 12.3125 -345.4598 L 4.3719 -350.0878 L -5.1641 -355.6164 L -12.3699 -359.784 L -21.135 -364.8566 L -29.7764 -369.8747 L -38.2928 -374.8405 L -45.6518 -379.1382 L -54.4762 -384.2905 L -62.665 -389.0654 L -71.1867 -394.0253 L -79.0383 -398.5855 L -92.7383 -406.5204 L -104.4952 -413.3544 L -111.4937 -417.4683 L -118.2928 -421.4982 L -125.2461 -425.643 L -131.824 -429.575 L -137.6375 -433.0402 L -143.3289 -436.3766 L -147.0525 -438.4966 L -151.9399 -441.1135 L -155.3681 -442.8279 L -159.3691 -444.7459 L -161.9157 -445.9124 L -165.0713 -447.2495 L -167.9762 -448.3061 L -170.8045 -449.1259 L -172.7008 -449.5367 L -175.2953 -449.907 L -177.2234 -450.034 L -179.5224 -450.0208 L -183.0556 -449.6377 L -186.9278 -448.6425 L -188.742 -447.9364 L -190.5764 -447.0546 L -194.0538 -444.842 L -197.1236 -441.9418 L -198.4053 -440.2555 L -199.3873 -438.6653 L -200.4344 -436.5346 L -201.2029 -434.5181 L -201.8911 -432.1953 L -202.5012 -429.3851 L -202.9438 -426.5767 L -203.3589 -423.4644 L -203.7491 -420.463 L -204.1848 -417.2786 L -204.5583 -414.8419 L -205.1167 -411.844 L -205.6816 -409.4239 L -206.6179 -406.2687 L -207.5266 -403.8599 L -208.9044 -400.9697 L -210.2389 -398.7211 L -212.2838 -395.9209 L -214.0858 -393.8781 L -216.5767 -391.4976 L -219.3563 -389.3021 L -222.6091 -387.2017 L -225.0684 -385.8728 L -228.7824 -384.1949 L -231.8129 -383.0499 L -235.7777 -381.7765 L -239.1847 -380.8662 L -243.5854 -379.9607 L -248.2022 -379.3159 L -253.3306 -378.867 L -257.7104 -378.6123 L -263.2053 -378.3423 L -267.5344 -378.14 L -273.3642 -377.8844 L -278.3012 -377.6641 L -284.0835 -377.3688 L -288.9136 -377.081 L -295.3853 -376.6365 L -301.6361 -376.1544 L -308.4363 -375.5619 L -314.5387 -374.935 L -321.1363 -374.1108 L -326.5486 -373.2965 L -333.2699 -372.11 L -338.7848 -370.9978 L -346.0872 -369.352 L -350.4382 -368.2936 L -357.9423 -366.3628 L -361.9714 -365.2737 L -369.6803 -363.0691 L -377.4886 -360.6407 L -385.3767 -357.9674 L -399.5061 -352.6825 L -405.7348 -350.1671 L -413.4774 -346.8678 L -419.3292 -344.2326 L -427.1707 -340.4902 L -435.0571 -336.4764 L -442.9763 -332.195 L -451.4279 -327.3597 L -459.928 -322.2465 L -466.4586 -318.1481 L -475.0374 -312.5364 L -483.136 -307 L -491.2605 -301.2287 L -499.9334 -294.8813 L -508.6719 -288.3239 L -516.8749 -282.0128 L -532.1172 -269.8766 L -547.2007 -257.3622 L -562.3853 -244.4441 L -577.8463 -231.2012 L -593.6623 -217.7338 L -609.1986 -204.4209 L -625.4078 -190.2108 L -634.0745 -182.4266 L -643.3098 -174.0118 L -650.9594 -167.007 L -660.3181 -158.4549 L -668.0812 -151.3746 L -676.9824 -143.2279 L -684.2214 -136.546 L -693.678 -127.7101 L -700.8976 -120.881 L -710.3309 -111.8534 L -719.1918 -103.2637 L -728.5822 -94.0296 L -735.7326 -86.8847 L -745.0196 -77.4246 L -752.5994 -69.5488 L -761.1871 -60.4837 L -768.1031 -53.0964 L -777.0662 -43.425 L -783.8415 -36.0404 L -792.5458 -26.4388 L -799.0504 -19.1541 L -806.8255 -10.291 L -814.3095 -1.5879 L -821.9568 7.4562 L -827.6055 14.2222 L -834.7304 22.8821 L -838.3808 27.3826 L -844.6504 35.2581 L -849.5244 41.5457 L -855.6048 49.6293" stroke-width="12" stroke="#4fafdf" fill="none" id="S2"/><path d="M -859.034 54.3015 L -863.0148 59.8093 L -868.4331 67.3947 L -873.3035 74.2891 L -878.2642 81.3758 L -882.7267 87.8025 L -887.4328 94.6257 L -891.0583 99.9343 L -894.2239 104.6422 L -897.3962 109.5068 L -900.4822 114.5043 L -903.2234 119.326 L -905.7669 124.3091 L -908.0602 129.3803 L -910.0266 134.3033 L -911.8706 139.698 L -913.076 143.9312 L -914.256 149.2693 L -914.913 153.689 L -915.3157 159.5618 L -915.2625 164.1084 L -914.8017 169.762 L -914.0695 174.755 L -912.8623 180.4921 L -911.5785 185.1296 L -909.4678 191.1071 L -907.3545 195.9234 L -904.3278 201.5985 L -901.6893 205.7825 L -897.837 211.0071 L -894.5872 214.78 L -889.9454 219.3777 L -885.8141 222.8542 L -880.4565 226.6505 L -875.0977 229.7375 L -865.8425 233.6499 L -859.4889 235.4727 L -852.9697 236.7651 L -846.7095 237.5339 L -841.5666 237.818 L -835.2126 237.6858 L -829.6899 237.0956 L -823.4638 235.8613 L -818.4919 234.428 L -812.108 232.0599 L -807.2828 229.9685 L -801.4108 227.1157 L -795.279 223.7364 L -789.6833 220.195 L -784.3659 216.2648 L -775.4922 207.7779 L -771.6761 203.0238 L -767.8287 197.2744 L -765.3547 193.0259 L -762.6168 187.9204 L -759.641 181.9023 L -757.1697 176.4843 L -754.34 169.7132 L -751.9063 163.1428 L -748.0303 150.3498 L -746.1588 142.8603 L -744.5059 135.6498 L -743.0487 129.2047 L -741.3185 121.659 L -739.3275 112.9256 L -737.5751 104.9417 L -736.1727 98.3109 L -734.4363 89.9919 L -733.1055 83.6425 L -731.179 74.4974 L -729.3294 65.7258 L -727.436 56.8117 L -726.3408 51.7612 L -724.2994 42.7866 L -720.2276 27.2296 L -715.773 13.0087 L -712.7773 4.3501 L -709.3999 -4.7628 L -706.1908 -12.6978 L -701.0185 -24.0199 L -697.6854 -30.4842 L -693.3066 -38.1708 L -689.2335 -44.6429 L -684.2885 -51.719 L -679.7215 -57.6138 L -673.5558 -64.7974 L -668.9191 -69.7274 L -662.6799 -75.8985 L -656.6937 -81.4832 L -650.6221 -86.8609 L -646.7605 -90.0816 L -640.0368 -95.2215 L -634.7589 -98.8177 L -628.1144 -102.8204 L -622.6102 -105.7804 L -615.7729 -109.081 L -608.3788 -112.3148 L -601.771 -114.9347 L -595.9955 -117.0243 L -588.8537 -119.3466 L -583.0437 -121.0207 L -575.5033 -122.9123 L -569.3828 -124.2261 L -562.4747 -125.4877 L -556.5289 -126.3827 L -552.344 -126.9117 L -545.8363 -127.5926 L -541.9201 -127.9261 L -535.9738 -128.3233 L -530.2157 -128.5476 L -521.3833 -128.4655 L -514.0148 -127.8425 L -510.6979 -127.3291 L -507.6077 -126.7071 L -501.9139 -125.1673 L -496.3232 -122.9606 L -492.3891 -120.7984 L -489.4664 -118.7944 L -488.4552 -118.0147 L -486.3172 -116.1961 L -483.9633 -113.873 L -482.0635 -111.6809 L -479.8482 -108.5982 L -478.2738 -105.8871 L -476.1827 -101.0884 L -474.5712 -95.6086 L -473.7727 -91.4662 L -473.2808 -87.1266 L -473.1053 -82.8899 L -473.1572 -79.3625 L -473.4602 -74.6588 L -473.8454 -70.999 L -474.4491 -66.4332 L -475.0172 -62.3943 L -475.628 -57.7694 L -476.046 -54.0434 L -476.4158 -49.5076 L -476.5749 -45.588 L -476.503 -40.8889 L -476.2386 -37.6268 L -475.5692 -33.3886 L -474.6811 -29.8063 L -473.3359 -25.8264 L -471.5509 -21.6826 L -469.5573 -17.8912 L -467.1295 -13.9962 L -464.4146 -10.2348 L -461.9777 -7.2477 L -459.1684 -4.1669 L -456.5733 -1.6108 L -453.1841 1.3693 L -450.2827 3.6451 L -446.5503 6.2411 L -442.9135 8.4363 L -438.65 10.6308 L -434.5209 12.3958 L -430.288 13.862 L -426.789 14.8712 L -421.8856 16.0672 L -418.3045 16.8099 L -413.5796 17.6373 L -409.9368 18.1348 L -405.157 18.5487 L -401.5157 18.6549 L -396.5203 18.4676 L -391.873 17.9128 L -387.5728 17.0555 L -383.0946 15.7876 L -379.4937 14.466 L -375.4808 12.6471 L -371.3433 10.358 L -367.5857 7.8846 L -363.7314 4.9503 L -360.22 1.9331 L -356.8238 -1.2987 L -353.343 -4.962 L -350.7862 -7.9216 L -347.7946 -11.7482 L -345.517 -15.0069 L -343.0924 -18.9234 L -340.5133 -23.834 L -338.5515 -28.3833 L -336.8321 -33.3899 L -335.0601 -40.4005 L -333.7459 -47.6428 L -332.9173 -53.1568 L -332.1433 -58.8019 L -331.461 -64.5798 L -331.025 -69.0865 L -330.6425 -74.3758 L -330.4303 -79.3908 L -330.3677 -85.5833 L -330.4731 -91.57 L -330.6962 -97.7112 L -330.9639 -103.2178 L -331.3481 -109.6641 L -331.6847 -114.6074 L -332.2211 -121.7619 L -332.675 -127.3489 L -333.2811 -134.3526 L -333.9577 -141.9456 L -334.6185 -149.6906 L -334.9835 -154.3175 L -335.4984 -161.8135 L -335.8678 -169.3869 L -336.01 -177.4564 L -335.8326 -185.5263 L -335.2959 -193.5792 L -334.4767 -201.137 L -333.2801 -209.1209 L -332.1167 -215.1469 L -330.4635 -221.9391 L -328.6023 -228.0794 L -326.2547 -234.3673 L -323.3711 -240.6861 L -320.1798 -246.6274 L -317.4476 -251.2193 L -313.9906 -256.6288 L -311.1329 -260.855 L -307.3278 -266.1513 L -304.3348 -270.0101 L -297.8081 -277.4116 L -293.4665 -281.6281 L -290.0014 -284.6634 L -285.2435 -288.4814 L -281.4291 -291.3322 L -276.2324 -295.0268 L -272.1031 -297.8195 L -266.4653 -301.3525 L -261.9613 -303.9319 L -255.8328 -307.1306 L -251.3504 -309.2597 L -245.2006 -311.8936 L -240.0876 -313.8182 L -233.649 -315.8931 L -221.2979 -319.0933 L -215.8935 -320.3346 L -208.8976 -322.0402 L -203.6807 -323.4926 L -197.0454 -325.5039 L -193.2291 -326.6722 L -187.2318 -328.4696 L -169.4046 -333.5256 L -157.3782 -336.0238 L -152.5964 -336.6501 L -148.4316 -336.9657 L -144.9528 -337.0384 L -141.0968 -336.9 L -137.81 -336.582 L -134.1655 -335.9889 L -131.2864 -335.3251 L -127.6085 -334.2156 L -124.823 -333.1791 L -121.2316 -331.5856 L -117.709 -329.7061 L -114.289 -327.5345 L -112.3449 -326.115 L -109.1881 -323.4597 L -106.4202 -320.6934 L -103.7214 -317.4922 L -101.2866 -314.0425 L -99.0872 -310.3439 L -97.2135 -306.634 L -95.547 -302.7081 L -94.4569 -299.6324 L -93.2379 -295.3652 L -92.2454 -290.6359 L -91.5747 -285.9894 L -91.1138 -281.1554 L -90.8258 -275.8138 L -90.7051 -270.2708 L -90.7015 -266.2462 L -90.8271 -260.4074 L -91.0417 -255.8276 L -91.4746 -249.7039 L -92.4019 -239.9863 L -93.6449 -228.2512 L -94.7927 -216.6865 L -95.5244 -209.2015 L -96.3275 -201.2082 L -97.8514 -186.3966" stroke-width="12" stroke="#f7d347" fill="none" id="S3"/></svg>