<svg class="track" xmlns="http://www.w3.org/2000/svg" preserveAspectRatio="xMinYMid meet" height="250" width="500" viewBox="-990 -550 1 950">
  <path d="m-99.68-170.808-.608 5.944-.816 7.889-.631 6.113-.84 8.096-.655 6.271-.864 8.288-.672 6.408-.784 7.464-.904 8.544-.856 8.12-.689 6.648-.871 8.777-.648 6.776-.84 8.928-.704 7.416-.824 8.537-.736 7.519-.847 8.664-.696 7.08-.871 8.791-.712 7.176-.953 9.44-.792 7.824-.888 8.935-.736 7.704-.792 8.664-.608 6.943-.808 9.44-.52 6.2-.744 9.144-.52 6.504-.608 7.872-.48 6.296-.576 7.632-.569 7.505-1.087 14.248-.544 7.288-.528 7.264-.936 13.44-.768 12.168-.593 11.256-.144 5.407.032 5.296.104 3.641.223 4.553.271 3.576.456 4.128.464 3 .696 3.512.847 3.32 1.016 3.216 1.048 2.776 1.385 3.137 1.576 3.089 1.879 3.224 1.696 2.616 2.104 2.952 2.417 3.096 2.623 3.041 2.664 2.776 3.055 2.784 3.017 2.359 2.537 1.712 3.464 2.032 3.641 1.848 3.816 1.672 3.048 1.169 3.912 1.304 3.304.936 4.752 1.104 3.56.648 4.792.64 3.768.329 4.752.2 3.929.032 4.912-.088 4.361-.137 5.376-.176 4.16-.152 5.176-.209 4.256-.2 5.623-.295 4.344-.264 5.777-.384 4.512-.312 6.065-.424 4.792-.32 6.463-.384 6.288-.304 6.072-.257 5.777-.223 6.784-.264 5.633-.223 7.505-.32 6.232-.336 7.471-.569 6.84-.76 6.607-1.008 5.184-1.008 6.511-1.608 4.399-1.337 5.944-2.2 5.263-2.383 5.016-2.623 5.16-3.007 9.449-6.184 8.28-6.175 7.279-6.377 2.568-2.527 6.76-7.56 3.8-4.896 3.689-5.095 2.792-4.016 3.192-4.776 2.704-4.264 3.216-5.424 3.272-5.96 2.984-5.736 3.007-5.72 3.168-5.608 2.728-4.423 3.552-5.296 3.28-4.519 4.224-5.359 3.161-3.679 4.447-4.728 2.912-2.8 5.167-4.423 5.407-4.008 5.592-3.672 8.8-5.215 5.527-3.055 3.504-1.832 5.352-2.575 6.584-2.768 5.608-1.999 5.72-1.688 5.032-1.2 5.472-1.048 3.545-.559 5.136-.679 6.744-.704 5.167-.424 6.752-.344 5.152-.055 6.712.232 3.536.264 6.24.704 6.568 1.097 6.096 1.328 6.415 1.68 6.36 1.879 5.208 1.672 5.928 2.056 5.88 2.232 5.816 2.407 5.048 2.256 6.079 2.904 5.696 2.864 9.953 5.2 10.457 5.383L414 117.44l4.864 2.287 6.473 2.936 5.048 2.224 6.744 2.873 5.263 2.16 6.616 2.585 5.904 2.184 6.864 2.393 5.664 1.872 7.505 2.335 5.808 1.712 7.2 2.023 6.336 1.688 7.264 1.824 6.377 1.512 7.784 1.728 5.512 1.145 7.368 1.44 6 1.104 7.872 1.368 5.568.912 7.433 1.145 4.649.689 7.913 1.111 6.056.816 7.928 1.001 7.457.871 7.464.816 7.928.816 7.457.736 6.521.624 7.913.736 7.913.728 7.433.672 7.896.689 6.504.552 7.889.64 6.488.504 7.889.593 6.031.456 6.952.52 12 .928 7.543.608 7.087.593 5.496.473 5.912.52 4.88.432 5.311.473 5.136.449 5.393.456 5.328.424 4.824.344 3.679.216 4.536.176 4.136.048 4.288-.065 3.208-.144 3.857-.32 3.264-.424 3.816-.696 3-.744 3.248-1.063 2.489-1.025 2.928-1.456 2.304-1.344 2.921-1.975 2.136-1.672 2.752-2.52 1.975-2.128 2.088-2.616 1.975-2.969 1.512-2.76 1.193-2.688 1.039-2.976.88-3.473.655-4.192.24-3.641-.007-2.376-.24-3.449-1.032-5.489-1.025-3.232-1.368-3.329-1.528-3.065-1.848-3.2-1.903-2.969-2.321-3.28-2.232-2.856-2.544-2.952-2.568-2.688-2.912-2.768-2.945-2.52-3.344-2.575-3.368-2.352-3.8-2.465-4.008-2.472-4.216-2.503-4.72-2.671-2.465-1.344-4.553-2.383-3.864-1.92-4.952-2.335-3.185-1.448-5.232-2.335-4.72-2.095-5.568-2.479-4.663-2.104-5.944-2.712-6.559-3.048-6.392-3.041-7-3.44-6.76-3.456-7.368-3.864-7.56-4.032-7.272-3.929-7.416-4.064-6.127-3.401-7.673-4.288-4.385-2.455-7.913-4.447-6.545-3.679-8.192-4.608-6.768-3.8-9.545-5.321-7.56-4.2-6.568-3.641-7.76-4.296-8.983-4.992-7.392-4.104-9.2-5.119-8.152-4.543-10.008-5.592-7.736-4.327-9.607-5.383-8.479-4.768-10.392-5.873-8.024-4.553-6.216-3.528-15.08-8.568-17.215-9.792-16.192-9.175-15.144-8.512-9.264-5.191-11.368-6.384-8.752-4.928-11.527-6.488-8.88-5-10.985-6.175-8.992-5.048-11.128-6.248-8.4-4.712-11.28-6.329-9.184-5.143-11.416-6.408-9.976-5.616-10.776-6.079-21.665-12.247-21.136-11.96-21.312-12.072-11.825-6.704-11.873-6.728-22.375-12.648-21.785-12.223-22.601-12.672-20.224-11.368-10.399-5.825-5.167-2.888-10.968-6.127-13.672-7.673-12.72-7.2-6.96-3.968-10.88-6.248-10.488-6.079-10.632-6.216-10.128-5.952-9.192-5.383-7.928-4.615-9.511-5.512-7.192-4.16-8.743-5.056-8.616-5.008-8.496-4.96-7.344-4.288-8.8-5.136-8.671-5.048-7.985-4.639-7.817-4.536-6.192-3.593-7.433-4.296-11.712-6.816-6.96-4.096-7.176-4.256-6.48-3.864-6.504-3.888-5.736-3.416-5.599-3.264-3.968-2.232-4.505-2.376-3.36-1.663-3.905-1.865-2.503-1.128-3.113-1.288-2.856-1.001-2.792-.768-2.032-.408-2.424-.304-2.064-.104-2.28.055-1.24.104-2.128.32-1.768.401-2.08.655-1.817.736-1.96.984-1.456.88-1.865 1.328-1.496 1.296-1.504 1.663-2.208 3.336-1.752 4.216-.664 2.352-.576 2.84-.449 3.017-.392 2.952-.392 3.007-.44 3.185-.416 2.623-.552 2.808-.64 2.599-.936 2.969-.953 2.4-1.432 2.864-1.496 2.4-1.992 2.599-1.848 2.023-2.544 2.345-2.832 2.16-3.304 2.056-2.712 1.4-3.552 1.536-3.072 1.121-4.272 1.32-3.185.808-4.44.856-4.96.631-4.864.384-4.409.24-5.527.271-4.351.2-5.864.257-4.96.223-5.816.304-5.232.329-6.127.432-6.28.497-6.824.608-6.12.655-6.607.856-5.424.84-6.736 1.224-5.527 1.145-7.32 1.68-7.447 1.865-11.656 3.175-7.776 2.328-7.856 2.575-11.224 4.04-7.591 2.945-6.24 2.551-7.76 3.344-5.856 2.671-7.848 3.792-7.896 4.064-7.928 4.327-8.464 4.888-8.503 5.16-6.536 4.136-8.585 5.664-8.104 5.585-8.64 6.175-8.688 6.392-8.729 6.592-7.697 5.952-7.135 5.64-8.088 6.528-6.536 5.383-8.544 7.168-6.568 5.568-8.64 7.385-6.672 5.72-8.825 7.553-7.361 6.271-9.017 7.673-6.96 5.944-8.608 7.423-7.015 6.127-8.671 7.68-9.2 8.296-9.24 8.441-7.12 6.521-9.92 9.065-7.216 6.584-8.904 8.16-7.231 6.696-9.449 8.856-7.216 6.848-9.432 9.048-8.856 8.608-9.384 9.257-7.135 7.159-9.816 10.04-7.024 7.327-8.568 9.072-7.433 7.961-8.935 9.672-6.752 7.375-8.152 9.024-6.473 7.272-7.721 8.839-7.889 9.209-7.135 8.464-5.608 6.736-7.072 8.623-4.016 4.984-5.816 7.344-4.832 6.264-6.024 8.056-4.392 6.024-5.191 7.24-4.968 7-5.048 7.183-4.832 6.936-4.567 6.607-3.992 5.825-3.696 5.464-2.816 4.264-3.017 4.76-2.897 4.896-2.688 5.024-2.383 5.008-2.047 4.864-1.96 5.335-1.304 4.168-1.337 5.28-.808 4.385-.616 5.832-.112 4.872.304 5.623.552 4.625 1.111 6.088 1.056 4.296 1.903 6.024 1.944 4.872 2.825 5.76 2.696 4.584 3.464 5.016 3.353 4.176 4.216 4.464 3.992 3.624 5.208 3.992 5.568 3.488 5.176 2.609 3.576 1.488 6.264 2.056 6.456 1.504 6.216.953 5.52.473 6.344.072 5.152-.352 6.664-1.056 5.008-1.256 6.048-2.047 4.848-1.975 5.921-2.728 6.168-3.224 5.688-3.384 5.784-4 5.088-4.192 3.816-3.713 4.264-4.92 4.016-5.623 3.175-5.239 1.992-3.607 3.232-6.312 2.352-4.976 2.904-6.68 2.544-6.488 2.417-7.096 1.656-5.56 1.951-7.416 1.784-7.591 1.648-7.313 1.496-6.545 1.872-8.16 1.872-8.393 3.031-14.312 3.224-15.367 1.841-8.704 1.872-8.856 1.56-7.279 1.624-7.303 4.385-17.264 2.8-9.336 1.584-4.912 2.96-8.671 3.137-8.599 3.36-8.496 4.128-9.344 7.745-14.856 8.808-13.784 10.192-12.953 10.721-11.335 6.319-6.017 5.656-5.128 10.464-8.623 12.208-8.208 12.264-6.504 6.92-3.144 7.015-2.897 12.439-4.447 13.384-3.809 13.536-2.873 11.464-1.72 6.559-.712 3.952-.352 4.928-.36 5.64-.288 5.4-.104 4.072.055 4.28.216 3.392.304 3.464.473 3.144.576 3.048.696 2.465.679 3.024.992 2.609 1.039 2.921 1.416 1.776 1.016 2.768 1.832 2.849 2.232 2.4 2.224 1.968 2.119 2.328 3 1.56 2.448 1.736 3.401.871 2.119 1.504 4.72.856 3.824.616 4.256.295 4.176.024 4.304-.176 3.848-.408 4.481-.497 3.976-.648 4.601-.512 3.761-.559 4.625-.367 3.968-.247 4.505-.024 3.888.247 4.375.464 3.473.904 4.144.992 3.264 1.639 4.176 1.865 3.84 2.296 3.952 2.599 3.816 2.345 3.041 2.904 3.344 5.623 5.472 6.728 5.208 3.583 2.287 3.96 2.176 4.344 2.008 4.192 1.576 3.48 1.08 4.608 1.2 3.569.8 4.704.895 3.631.569 4.776.528 3.648.209 5.016-.032 4.68-.408 4.327-.712 4.536-1.121 4.399-1.48 3.545-1.504 3.944-2.023 3.816-2.345 3.912-2.808 3.776-3.103 3.44-3.151 3.329-3.36 2.808-3.113 2.873-3.512 2.352-3.185 2.688-4.096 2.568-4.56 2.224-4.76 2.143-5.839 1.848-6.976 1.2-6.257.808-5.136.8-5.592.72-5.729.953-10.063.304-5.704.104-5.064-.048-6.288-.184-6.079-.569-11.431-.824-11.969-1.056-12.912-.631-7.087-.672-7.688-.968-12.504-.432-7.553-.232-7.591.041-8.072.384-8.064.744-8.04 1.304-9.408.744-4.2 1.608-7.337 1.591-5.792 2.335-6.856 2.744-6.463 2.888-5.704 2.688-4.712 3.624-5.839 2.623-3.968 3.768-5.407 2.945-3.952 3.992-4.896 2.424-2.728 4.264-4.351 3.655-3.353 4.663-3.872 3.744-2.873 4.808-3.488 4.056-2.816 5.52-3.6 4.416-2.64 6.017-3.28 4.784-2.376 5.696-2.568 11.832-4.375 9.401-2.647 4.136-1.008 10.784-2.513 12.008-3.36 5.383-1.648 4.904-1.48 16.601-4.816 2.431-.64 6.952-1.632 4.024-.784 4.944-.752 4.296-.432 4.288-.176 3.401.055 3.792.288 2.993.408 3.583.728 3.055.84 3.648 1.272 2.76 1.159 3.761 1.872 3.256 1.936 2.568 1.768 2.656 2.104 3.031 2.832 2.632 2.921 2.544 3.353 2.287 3.593 2.08 3.848 1.744 3.84 1.159 3.024 1.32 4.2 1.048 4.375.816 4.856.535 4.768.344 4.952.192 5.792.032 4.992-.055 4.423-.232 5.944-.288 4.649-.895 9.976-.64 6.127-.584 5.496-.624 6.04-.528 5.376-.672 6.88-.816 8.256-.744 7.327-.689 6.655-.953 9.168-.776 7.368z" stroke-width="28" stroke="#000" fill="none"/>
  <path d="m-99.68-170.808-.608 5.944-.816 7.889-.631 6.113-.84 8.096-.655 6.271-.864 8.288-.672 6.408-.784 7.464-.904 8.544-.856 8.12-.689 6.648-.871 8.777-.648 6.776-.84 8.928-.704 7.416-.824 8.537-.736 7.519-.847 8.664-.696 7.08-.871 8.791-.712 7.176-.953 9.44-.792 7.824-.888 8.935-.736 7.704-.792 8.664-.608 6.943-.808 9.44-.52 6.2-.744 9.144-.52 6.504-.608 7.872-.48 6.296-.576 7.632-.569 7.505-1.087 14.248-.544 7.288-.528 7.264-.936 13.44-.768 12.168-.593 11.256-.144 5.407.032 5.296.104 3.641.223 4.553.271 3.576.456 4.128.464 3 .696 3.512.847 3.32 1.016 3.216 1.048 2.776 1.385 3.137 1.576 3.089 1.879 3.224 1.696 2.616 2.104 2.952 2.417 3.096 2.623 3.041 2.664 2.776 3.055 2.784 3.017 2.359 2.537 1.712 3.464 2.032 3.641 1.848 3.816 1.672 3.048 1.169 3.912 1.304 3.304.936 4.752 1.104 3.56.648 4.792.64 3.768.329 4.752.2 3.929.032 4.912-.088 4.361-.137 5.376-.176 4.16-.152 5.176-.209 4.256-.2 5.623-.295 4.344-.264 5.777-.384 4.512-.312 6.065-.424 4.792-.32 6.463-.384 6.288-.304 6.072-.257 5.777-.223 6.784-.264 5.633-.223 7.505-.32 6.232-.336 7.471-.569 6.84-.76 6.607-1.008 5.184-1.008 6.511-1.608 4.399-1.337 5.944-2.2 5.263-2.383 5.016-2.623 5.16-3.007 9.449-6.184 8.28-6.175 7.279-6.377 2.568-2.527 6.76-7.56 3.8-4.896 3.689-5.095 2.792-4.016 3.192-4.776 2.704-4.264 3.216-5.424 3.272-5.96 2.984-5.736 3.007-5.72 3.168-5.608 2.728-4.423 3.552-5.296 3.28-4.519 4.224-5.359 3.161-3.679 4.447-4.728 2.912-2.8 5.167-4.423 5.407-4.008 5.592-3.672 8.8-5.215 5.527-3.055 3.504-1.832 5.352-2.575 6.584-2.768 5.608-1.999 5.72-1.688 5.032-1.2 5.472-1.048 3.545-.559 5.136-.679 6.744-.704 5.167-.424 6.752-.344 5.152-.055 6.712.232 3.536.264 6.24.704 6.568 1.097 6.096 1.328 6.415 1.68 6.36 1.879 5.208 1.672 5.928 2.056 5.88 2.232 5.816 2.407 5.048 2.256 6.079 2.904 5.696 2.864 9.953 5.2 10.457 5.383L414 117.44l4.864 2.287 6.473 2.936 5.048 2.224 6.744 2.873 5.263 2.16 6.616 2.585 5.904 2.184 6.864 2.393 5.664 1.872 7.505 2.335 5.808 1.712 7.2 2.023 6.336 1.688 7.264 1.824 6.377 1.512 7.784 1.728 5.512 1.145 7.368 1.44 6 1.104 7.872 1.368 5.568.912 7.433 1.145 4.649.689 7.913 1.111 6.056.816 7.928 1.001 7.457.871 7.464.816" stroke-width="12" stroke="#e73323" fill="none"/>
  <path d="m603.007 164.815 7.457.744 6.521.631 7.92.744 8.376.768 7.433.672 7.433.655 14.856 1.232 13.92 1.073 13.44 1.008 12.016.928 7.615.608 7.176.593 11.537 1.001 10.296.919 5.152.449 5.4.456 5.032.408 4.888.36 4.032.257 4.577.2 4.16.072 4.304-.041 2.976-.112 4.12-.304 3.055-.36 3.857-.648 3.041-.696 3.488-1.08 2.52-.992 2.952-1.416 2.321-1.313 2.776-1.817 2.328-1.76 2.647-2.335 2.016-2.08 2.256-2.728 1.224-1.704 2.359-3.968 1.159-2.472 1.169-3.151.888-3.248.552-2.904.408-3.607-.072-7.327-.936-5.512-.968-3.248-1.232-3.151-1.567-3.272-1.696-3.024-1.992-3.168-2.16-3.113-2.335-3.048-2.513-2.969-2.537-2.704-2.704-2.623-3.091-2.696-3.304-2.592-3.329-2.359-3.768-2.465-3.976-2.465-4.176-2.496-4.409-2.52-2.704-1.488-4.224-2.24-4.12-2.08-4.912-2.345-8.368-3.785-10.224-4.553-10.536-4.76-6.127-2.832-6.744-3.185-6.967-3.401-6.728-3.416-7.327-3.833-7.529-4-7.24-3.905-6.928-3.785-6.096-3.377-7.639-4.264-4.848-2.712-7.889-4.423-6.521-3.665-8.16-4.591-6.744-3.785-8.983-5.016-14.616-8.112-16.136-8.952-17.112-9.521-18.12-10.104-17.312-9.688-18.84-10.608-20.456-11.599-15.144-8.608-6.367-3.624-10.272-5.839-5.825-3.304-11.08-6.257-7.896-4.433-9.271-5.2-11.352-6.377-9.408-5.296-10.832-6.096-8.856-4.992-10.976-6.175-9.665-5.431-11.12-6.24-19.639-11.016-20.561-11.537-20.753-11.688-11.544-6.521-9.384-5.304-12.352-6.991-8.76-4.96-11.729-6.64-9.559-5.417-12.552-7.111-11.856-6.72-11.904-6.744-9.712-5.479-12.744-7.159-9.776-5.479-12.808-7.176-9.792-5.496-12.761-7.176-7.471-4.2-22.216-12.432-11.633-6.504-6.463-3.631-12.056-6.816-6.991-3.984-11.633-6.672-9.92-5.744-11.376-6.64-9.624-5.656-9.824-5.76-7.944-4.632-9.536-5.527-7.207-4.168-8.768-5.071-8.64-5.016-8.52-4.968-7.361-4.296-8.825-5.152-8.192-4.776-8.52-4.96-7.848-4.56-13.697-7.937-11.76-6.832-7-4.112-6.8-4.032-6.952-4.144-6.576-3.929-5.816-3.464-5.696-3.336-3.728-2.119-4.888-2.616-3.425-1.712-4-1.92-2.551-1.169-3.151-1.337-2.904-1.056-2.825-.816-1.896-.408-2.592-.367-1.927-.128-2.296.017-3.536.384-3.872.992-1.817.704-1.832.88-3.48 2.216-3.072 2.897-1.28 1.688-.984 1.591-1.048 2.128-.768 2.016-.689 2.321-.608 2.808-.449 2.808-.416 3.113-.392 3-.432 3.185-.367 2.431-.559 3-.559 2.417-.936 3.151-.912 2.407-1.376 2.888-1.337 2.248-2.047 2.8-1.8 2.047-2.489 2.376-2.776 2.2-3.256 2.104-2.455 1.328-3.713 1.68-3.031 1.145-3.968 1.272-3.408.912-4.399.904-4.615.648-5.128.449-4.375.257-5.496.271-4.327.2-5.832.257-4.936.223-5.784.295-4.832.288-6.473.449-6.248.48-6.8.593-6.104.631-6.6.824-5.417.816-6.72 1.183-5.52 1.111-7.303 1.648-4.351 1.056-7.505 1.927-4.032 1.087-7.712 2.208-7.808 2.424-7.889 2.671-14.129 5.28-6.223 2.52-7.745 3.296-5.856 2.632-7.841 3.744-7.889 4.016-7.92 4.28-8.448 4.832-8.503 5.112-6.528 4.096-8.585 5.616-8.096 5.537-8.128 5.768-8.671 6.344-8.743 6.559-8.2 6.312-15.24 12.136-15.08 12.52-15.184 12.919-15.463 13.241-15.816 13.464-15.535 13.313-16.207 14.208-8.664 7.784-9.24 8.416-7.649 7-9.36 8.551-7.76 7.08-8.904 8.143-7.24 6.68-9.456 8.839-7.216 6.832-9.432 9.031-8.856 8.592-9.392 9.232-7.152 7.144-9.288 9.463-7.584 7.88-8.585 9.065-6.92 7.385-8.96 9.672-6.776 7.385-8.704 9.6-6.504 7.288-7.776 8.864-7.481 8.704L-822 7.481l-5.647 6.768-7.12 8.664-3.648 4.505-6.271 7.88-4.872 6.288-6.079 8.08" stroke-width="12" stroke="#4fafdf" fill="none"/>
  <path d="m-859.032 54.305-3.976 5.512-5.417 7.584-4.872 6.896-4.96 7.087-4.464 6.425-4.704 6.824-3.624 5.304-3.168 4.712-3.175 4.864-3.089 5-2.744 4.824-2.544 4.984-2.296 5.071-1.968 4.928-1.848 5.393-1.208 4.232-1.176 5.335-.655 4.416-.408 5.873.048 4.543.464 5.656.728 4.992 1.208 5.736 1.288 4.639 2.112 5.976 2.112 4.816 3.031 5.671 2.64 4.184 3.848 5.224 3.248 3.776 4.639 4.601 4.128 3.473 5.359 3.792 5.359 3.089 9.257 3.912 6.353 1.824 6.521 1.296 6.257.768 5.143.28 6.353-.137 5.52-.593 6.223-1.232 4.976-1.432 6.384-2.369 4.824-2.095 5.873-2.856 6.127-3.377 5.599-3.545 5.321-3.929 8.873-8.489 3.816-4.752 3.848-5.752 2.472-4.248 2.736-5.104 2.976-6.017 2.472-5.417 2.832-6.768 2.431-6.568 3.872-12.792 1.872-7.488 1.656-7.207 1.456-6.449 1.728-7.543 1.992-8.736 1.752-7.985 1.4-6.632 1.736-8.32 1.328-6.353 1.927-9.144 1.848-8.777 1.896-8.912 1.097-5.048 2.04-8.976 4.072-15.559 4.461-14.218 2.993-8.664 3.377-9.113 3.208-7.937 5.167-11.32 3.336-6.463 4.375-7.688 4.072-6.473 4.944-7.072 4.567-5.896 6.168-7.183 4.639-4.928 6.24-6.168 5.983-5.585 6.072-5.376 3.864-3.224 6.728-5.136 5.28-3.6 6.648-4 5.503-2.96 6.84-3.304 7.392-3.232 6.607-2.623 5.777-2.088 7.144-2.321 5.808-1.672 7.543-1.888 6.12-1.313 6.912-1.264 5.944-.895 4.184-.528 6.511-.679 3.912-.336 5.944-.401 5.76-.223 8.832.088 7.368.624 3.32.512 3.089.624 5.696 1.543 5.592 2.208 3.936 2.16 2.921 2.008 1.008.784 2.136 1.817 2.352 2.321 1.896 2.192 2.216 3.089 1.576 2.712 2.095 4.8 1.615 5.479.8 4.144.488 4.337.176 4.232-.048 3.528-.304 4.704-.384 3.665-.6 4.567-.569 4.04-.608 4.625-.416 3.728-.367 4.536-.161 3.92.072 4.704.264 3.264.672 4.24.888 3.583 1.344 3.976 1.784 4.144 1.992 3.792 2.424 3.896 2.712 3.761 2.431 2.984 2.808 3.079 2.599 2.561 3.39 2.978 2.897 2.272 3.737 2.599 3.641 2.192 4.264 2.192 4.128 1.768 4.232 1.464 3.504 1.008 4.904 1.193 3.583.744 4.728.824 3.641.497 4.784.416 3.641.104 5-.184 4.649-.559 4.296-.856 4.481-1.264 3.6-1.32 4.008-1.817 4.136-2.287 3.761-2.472 3.857-2.936 3.512-3.017 3.392-3.232 3.48-3.665 2.561-2.96 2.993-3.824 2.28-3.256 2.424-3.912 2.585-4.912 1.96-4.553 1.72-5.008 1.776-7.008 1.313-7.24.824-5.512.776-5.647.679-5.777.432-4.505.384-5.287.209-5.016.065-6.192-.104-5.992-.223-6.144-.271-5.503-.384-6.449-.336-4.944-.535-7.152-.456-5.585-.608-7-.679-7.591-.664-7.745-.36-4.625-.52-7.495-.367-7.577-.144-8.072.176-8.072.535-8.047.816-7.56 1.193-7.985 1.159-6.024 1.656-6.792 1.865-6.136 2.345-6.288 2.88-6.319 3.192-5.944 2.736-4.591 3.456-5.407 2.856-4.224 3.809-5.296 2.993-3.857 6.528-7.399 4.344-4.216 3.464-3.041 4.76-3.816 3.816-2.849 5.2-3.696 4.128-2.792 5.64-3.536 4.505-2.585 6.127-3.2 4.481-2.128 6.152-2.632 5.112-1.92 6.44-2.08 12.352-3.2 5.407-1.24 7-1.704 5.215-1.456 6.64-2.008 3.816-1.169 6-1.8 17.825-5.056 12.024-2.496 4.784-.624 4.16-.32 3.48-.072 3.857.137 3.288.32 3.648.593 2.88.664 3.679 1.111 2.784 1.039 3.593 1.591 3.528 1.879 3.416 2.176 1.944 1.416 3.161 2.656 2.768 2.768 2.696 3.2 2.431 3.449 2.2 3.704 1.872 3.713 1.663 3.929 1.087 3.079 1.217 4.264.992 4.728.672 4.649.464 4.832.288 5.345.12 5.544.007 4.024-.128 5.839-.216 4.584-.432 6.12-.928 9.72-1.24 11.736-1.145 11.568-.728 7.481-.808 7.992-1.528 14.808" stroke-width="12" stroke="#f7d347" fill="none"/>
</svg>
