<svg class="track" xmlns="http://www.w3.org/2000/svg" preserveAspectRatio="xMinYMid meet" height="300" width="600" viewBox="-690 -500 100 800">
  <path d="m479.556 14.747-10.84 7.95-9.755 7.176-8.549 6.317-9.308 6.953-8.116 6.069-11.568 8.648-9.687 7.239-18.996 14.186L381.3 87.82l-10.84 8.086-12.423 9.262-12.567 9.365-11.943 8.895-8.911 6.626-11.729 8.713-9.402 6.985-12.128 9-9.844 7.296-11.103 8.203-9.58 7.066-11.402 8.402-8.9 6.558-9.974 7.35-8.442 6.22-9.499 6.996-7.602 5.6-14.158 10.425-7.521 5.53-5.907 4.341-7.598 5.58-5.721 4.197-7.36 5.395-5.541 4.053-6.75 4.872-7.116 4.965-6.763 4.287-7.421 3.781-7.258 2.187-7.696.433-7.167-1.57-6.294-3.179-10.261-6.408-9.771-7.083-9.334-6.885-11.117-8.185-12.485-9.157-7.186-5.233-8.026-5.765-8.422-5.928-8.9-6.013-7.126-4.6-9.045-5.802-7.55-4.843-9.535-6.11-7.938-5.09-9.992-6.405-8.93-5.722-10.41-6.673-8.613-5.54-11.447-7.423-8.863-5.833-11.713-7.855-9.031-6.182-11.174-7.84-11.923-8.613-10.558-7.818-9.882-7.474-11.296-8.761-9.175-7.292-11.974-9.783-9.8-8.324-11.092-9.809-9.008-8.1-11.164-10.061-9.096-8.288-11.821-11.06-9.003-8.624-11.09-10.734-9.607-9.594-6.184-6.218-8.976-9.006-9.01-9.042-11.046-11.103-8.848-8.891-11.401-11.436-8.621-8.588-10.586-10.244-8.632-8.038-11.386-10.038-10.913-8.805-11.818-8.632-11.293-7.433-12.111-7.234-11.983-6.955-20.77-11.596-20.612-10.132-20.723-9.714-19.65-8.473-19.02-8.132-6.196-2.655-4.301-1.841-10.93-4.67-10.117-4.355-9.328-4.063-12.387-5.4-7.931-3.458-9.953-4.341-5.36-2.34-6.826-2.978-5.421-2.366-6.318-2.759-4.428-1.934-4.501-1.967-2.623-1.146-3.25-1.419-1.915-.838-1.392-.614-1.622-.734-1.337-.626-1.418-.729-1.055-.614-1.19-.76-.942-.666-.597-.493-.544-.498-1.174-1.27-.777-1.065-.247-.388-.595-1.079-.212-.455-.188-.445-.123-.321-.128-.356-.175-.54-.292-1.105-.26-1.54-.094-1.72.168-2.239.651-2.74.796-1.604 1.854-2.304 1.918-1.632 2.515-1.439 2.484-1.023 2.633-1.167 2.547-1.128 3.935-1.752 3.743-1.721 4.845-2.26 4.75-2.223 5.627-2.65 5.308-2.51 7.937-3.777 7.584-3.629 8.586-4.12 9.095-4.35 9.572-4.567 9.478-4.423 12.575-5.395 10.552-4.394 11.62-4.835 12.059-4.916 12.522-4.842 12.253-4.35 13.504-4.286 13.978-3.942 14.356-3.806 14.685-3.75 14.118-3.474 12.6-2.898 14.725-2.93 14.988-2.816 16.152-3.03 15.425-2.888 28.444-5.324 28.825-5.378 30.163-5.606 28.405-5.276 27.673-5.169 27.851-5.292 26.225-5.284 25.406-6.087 11.607-2.975 13.088-3.475 23.177-6.743 22.558-7.045 23.407-8.037 22.123-7.873 19.5-6.905 16.718-5.905 15.03-5.298 13.049-4.589 12.453-4.298 5.84-1.658 7.172-1.324 5.928-.322 6.655.66 11.368 4.419 8.534 7.656 5.75 10.095 2.513 10.722.127 5.245-.198 2.596-1.005 6.2-2.13 8.32-1.789 5.99-2.832 9.3-1.675 5.162-2.166 6.018-2.802 6.87-3.181 6.897-2.692 5.276-4.1 7.284-2.96 4.845-4.65 7.31-3.512 5.31-4.312 6.08-5.029 6.316-5.406 6.167-5.01 5.27-6.043 5.867-5.15 4.625-7.053 5.838-6.07 4.62-7.23 5.035-6.569 4.161-7.78 4.471-6.523 3.397-7.211 3.41-6.864 2.926-9.207 3.476-9.427 3.131-9.589 2.875-9.75 2.64-9.294 2.324-9.369 2.289-7.659 1.87-10.09 2.412-7.794 1.709-10.27 2.179-7.283 1.543-10.416 2.215-8.65 1.847-14.277 3.065-8.71 1.878-9.836 2.125-7.897 1.71-10.172 2.328-7.6 2.067-9.15 2.838-7.816 2.73-8.564 3.71-6.953 4.034-7.576 5.883-5.182 5.048-6.105 7.067-2.934 3.917-4.569 7.296-3.9 8.133-2.75 7.925-1.555 6.557-1.156 8.118-.415 7.082.213 8.522.671 6.413 1.425 7.227 2.057 6.484 5.101 10.285 1.54 2.39 4.845 6.36 3.094 3.497 5.067 5.426 7.442 7.517 6.746 6.106 5.919 4.894 4.542 3.743 6.077 5.007 5.118 4.219 5.969 4.921 5.312 4.384 6.176 5.095 5.068 4.18 6.587 5.441 5.005 4.133 6.5 5.36 5.317 4.383 6.407 5.278 10.063 8.285 11.112 8.925 11.008 7.862 11.423 5.75 6.802 2.345 6.048 1.462 7.408.899 6.505.179 13.217-.549 11.535-1.777L-23.457.933l4.891-2.77 5.7-3.775 5.202-3.81 4.92-4.178 4.449-4.685 3.924-5.14 3.056-4.786 3.212-5.72 2.46-4.812 2.776-6.146 2.078-5.161L21.707-57l1.967-5.859 2.423-7.227 1.884-5.609 2.515-7.437 2.185-6.179 2.887-7.539 2.422-5.77 3.585-7.467 2.875-5.171 4.347-6.69 5.047-6.286 5.956-6.318 4.822-4.686 6.57-6.01 6.38-5.6 6.553-5.578 5.515-4.429 11.207-8.078 7.605-4.813 4.406-2.606 8.548-4.725 7.266-3.678 8.55-3.935 7.124-2.996 8.892-3.633 9.046-3.686 10.104-4.113 8.861-3.613 10.812-4.415 10.738-4.395 12.824-5.26 10.255-4.217 13.936-5.744 11.018-4.544 13.997-5.755 10.804-4.412 16.578-6.723 11.913-4.814 14.429-5.83 13.292-5.37 14.819-5.987 10.295-4.159 14.378-5.806 10.828-4.37 13.14-5.3 11.328-4.572 12.765-5.15 12.525-5.155 22.345-9.835 11.509-4.978 12.086-4.8 11.764-4.591 8.998-3.71 9.89-4.124 6.814-2.837 6.538-2.723 4.715-1.932 5.265-1.676 4.068-.986 4.974-1.184 4.012-.933 4.936-.925 4.33-.586 4.628-.274 3.972.122 5.112.592 3.906.703 4.216 1.008 5.086 1.598 4.975 2.094 4.81 2.597 4.356 2.856 4.456 3.404 3.514 3.08 3.82 3.83 3.172 3.592 3.519 4.288 3.063 3.857 3.534 4.494 3.871 4.923 4.214 5.361 4.337 5.519 4.37 5.557 4.329 5.5 4.86 6.224 4.269 5.524 5.518 7.174 4.18 5.442 5.424 7.065 5.03 6.568 5.352 6.995 3.054 3.999 3.464 4.548 4.101 5.41 1.895 2.502 2.46 3.259 2.013 2.671 2.284 3.039 1.972 2.66 2.275 3.276 1.583 2.59 1.836 3.484 1.212 2.979 1.009 3.975.382 3.826-.13 3.586-.65 3.764-2.494 7.337-4.05 8.049-5.845 8.794-7.181 9.775-8.36 10.802-5.316 6.507-3 3.532-6.016 6.795-4.954 5.259-7.398 7.266-6.138 5.67-7.383 6.521-6.79 5.76-6.035 4.957-7.259 5.842-8.56 6.777-7.161 5.588-9.058 6.968-7.558 5.734-9.556 7.12-11.09 8.054-10.09 7.282-11.585 8.36-10.51 7.58-11.369 8.197-17.76 12.825-20.992 15.23z" stroke-width="28" stroke="#000" fill="none"/>
  <path d="m479.556 14.747-10.84 7.95-9.755 7.176-8.549 6.317-9.308 6.953-8.116 6.069-11.568 8.648-9.687 7.239-18.996 14.186L381.3 87.82l-10.84 8.086-12.423 9.262-12.567 9.365-11.943 8.895-8.911 6.626-11.729 8.713-9.402 6.985-12.128 9-9.844 7.296-11.103 8.203-9.58 7.066-11.402 8.402-8.9 6.558-9.974 7.35-8.442 6.22-9.499 6.996-7.602 5.6-14.158 10.425-7.521 5.53-5.907 4.341-7.598 5.58-5.721 4.197-7.36 5.395-5.541 4.053-6.75 4.872-7.116 4.965-6.763 4.287-7.421 3.781-7.258 2.187-7.696.433-7.167-1.57-6.294-3.179-10.261-6.408-9.771-7.083-9.334-6.885-11.117-8.185-12.485-9.157-7.186-5.233-8.026-5.765-8.422-5.928-8.9-6.013-7.126-4.6-9.045-5.802-7.55-4.843-9.535-6.11-7.938-5.09-9.992-6.405-8.93-5.722-10.41-6.673-8.613-5.54-11.447-7.423-8.863-5.833-11.713-7.855-9.031-6.182-11.174-7.84-11.923-8.613-10.558-7.818-9.882-7.474-11.296-8.761-9.175-7.292-11.974-9.783-9.8-8.324-11.092-9.809-9.008-8.1-11.164-10.061-9.096-8.288-11.821-11.06-9.003-8.624-11.09-10.734-9.607-9.594-6.184-6.218-8.976-9.006-9.01-9.042-11.046-11.103-8.848-8.891-11.401-11.436-8.621-8.588-10.586-10.244-8.632-8.038-11.386-10.038-10.913-8.805-11.818-8.632-11.293-7.433-12.111-7.234-11.983-6.955-20.77-11.596-20.612-10.132" stroke-width="12" stroke="#e73323" fill="none"/>
  <path d="m-479.56-163.755-9.33-4.4-11.25-5.007-8.508-3.647-10.943-4.68-8.855-3.784-22.769-9.742-10.172-4.364-9.37-4.075-13.098-5.71-8.126-3.543-8.435-3.679-5.826-2.542-6.51-2.84-5.512-2.406-6.445-2.814-4.667-2.038-5.296-2.314-3.054-1.335-2.43-1.06-1.568-.685-1.487-.65-1.85-.813-1.343-.602-1.56-.721-1.275-.63-1.335-.748-.993-.618-1.183-.805-.617-.49-.558-.498-.787-.79-.426-.484-.807-1.077-.806-1.35-.281-.581-.18-.412-.164-.415-.086-.238-.136-.397-.272-.916-.292-1.384-.173-1.708.043-1.934.46-2.713.822-2.16 1.776-2.389 1.48-1.398 2.311-1.553 2.46-1.084 2.604-1.132 2.372-1.052 3.692-1.635 3.285-1.489 4.881-2.268 4.203-1.964 5.747-2.699 4.72-2.227 9.023-4.284 7.945-3.8 8.49-4.072 8.462-4.052 9.459-4.515 9.964-4.695 20.938-8.946 11.472-4.778 11.192-4.615 13.064-5.175 11.311-4.174 13.306-4.436 13.786-4.066 14.21-3.84 14.553-3.772 14.874-3.718 11.603-2.777 15.495-3.285 14.892-2.815 15.123-2.838 16.298-3.053 15.545-2.911 11.78-2.205 15.857-2.965 12.967-2.417 17.728-3.305 13.589-2.524 16.28-3.017 12.283-2.283 14.922-2.78 12.889-2.408 15.446-2.897 11.66-2.217 15.047-2.933 11.357-2.279 14.608-3.203 10.987-2.678 11.676-2.968 13.992-3.641 12.147-3.363 10.376-3.04 13.382-4.062 10.096-3.162 12.248-4.01 10.549-3.654 12.656-4.505 9.585-3.41 12.076-4.283 8.953-3.171 9.222-3.26 7.458-2.634 8.675-3.06 6.543-2.308 8.043-2.829 5.508-1.937 7.094-2.494 5.387-1.878 5.811-1.836 7.14-1.658 7.622-.766 5.453.278 6.08 1.27 5.294 2.138 5.416 3.468 3.786 3.493 4.06 5.276 2.427 4.422 2.163 5.757 1.137 5.2.435 6-.101 2.611-.918 6.599-1.926 7.934-1.874 6.321-2.322 7.69-1.605 5.122-2.186 6.39-2.502 6.45-3.025 6.89-2.57 5.277-3.932 7.295-3.108 5.25-4.314 6.883-3.435 5.301-4.455 6.522-4.862 6.387-5.273 6.218-4.54 4.946-5.896 5.942-5.034 4.694-6.906 5.939-5.955 4.708-7.544 5.466L33.128-299l-8.145 4.884-6.437 3.494-13.393 6.33-9.105 3.641-9.34 3.259-9.525 2.975-9.686 2.736-9.83 2.522-9.343 2.29-9.412 2.297-7.693 1.87-10.157 2.298-7.84 1.667-9.693 2.054-7.93 1.684-11.106 2.368-11.784 2.528-8.706 1.874-10.512 2.269-7.94 1.717-9.645 2.117-7.688 1.92-9.816 2.886-7.338 2.427-8.764 3.383-7.236 3.646-7.974 5.462-5.453 4.822-6.413 6.863-8.032 10.937-4.312 7.983-3.308 8.324-3.289 14.624-.728 15.153 1.612 14.273 4.616 13.768 2.23 4.226 1.734 2.84 4.723 6.47 3.06 3.535 5.046 5.46 7.425 7.558 6.683 6.194 4.52 3.76 5.924 4.883 4.97 4.095 6.177 5.09 4.82 3.975 6.42 5.296 4.606 3.8 6.614 5.456 5.05 4.17 6.558 5.416 5.365 4.426" stroke-width="12" stroke="#4fafdf" fill="none"/>
  <path d="m-144.004-37.118 5.317 4.383 6.407 5.278 10.063 8.285 11.112 8.925 11.008 7.862 11.423 5.75 6.802 2.345 6.048 1.462 7.408.899 6.505.179 13.217-.549 11.535-1.777L-23.457.933l4.891-2.77 5.7-3.775 5.202-3.81 4.92-4.178 4.449-4.685 3.924-5.14 3.056-4.786 3.212-5.72 2.46-4.812 2.776-6.146 2.078-5.161L21.707-57l1.967-5.859 2.423-7.227 1.884-5.609 2.515-7.437 2.185-6.179 2.887-7.539 2.422-5.77 3.585-7.467 2.875-5.171 4.347-6.69 5.047-6.286 5.956-6.318 4.822-4.686 6.57-6.01 6.38-5.6 6.553-5.578 5.515-4.429 11.207-8.078 7.605-4.813 4.406-2.606 8.548-4.725 7.266-3.678 8.55-3.935 7.124-2.996 8.892-3.633 9.046-3.686 10.104-4.113 8.861-3.613 10.812-4.415 10.738-4.395 12.824-5.26 10.255-4.217 13.936-5.744 11.018-4.544 13.997-5.755 10.804-4.412 16.578-6.723 11.913-4.814 14.429-5.83 13.292-5.37 14.819-5.987 10.295-4.159 14.378-5.806 10.828-4.37 13.14-5.3 11.328-4.572 12.765-5.15 12.525-5.155 22.345-9.835 11.509-4.978 12.086-4.8 11.764-4.591 8.998-3.71 9.89-4.124 6.814-2.837 6.538-2.723 4.715-1.932 5.265-1.676 4.068-.986 4.974-1.184 4.012-.933 4.936-.925 4.33-.586 4.628-.274 3.972.122 5.112.592 3.906.703 4.216 1.008 5.086 1.598 4.975 2.094 4.81 2.597 4.356 2.856 4.456 3.404 3.514 3.08 3.82 3.83 3.172 3.592 3.519 4.288 3.063 3.857 3.534 4.494 3.871 4.923 4.214 5.361 4.337 5.519 4.37 5.557 4.329 5.5 4.86 6.224 4.269 5.524 5.518 7.174 4.18 5.442 5.424 7.065 5.03 6.568 5.352 6.995 3.054 3.999 3.464 4.548 4.101 5.41 1.895 2.502 2.46 3.259 2.013 2.671 2.284 3.039 1.972 2.66 2.275 3.276 1.583 2.59 1.836 3.484 1.212 2.979 1.009 3.975.382 3.826-.13 3.586-.65 3.764-2.494 7.337-4.05 8.049-5.845 8.794-7.181 9.775-8.36 10.802-5.316 6.507-3 3.532-6.016 6.795-4.954 5.259-7.398 7.266-6.138 5.67-7.383 6.521-6.79 5.76-6.035 4.957-7.259 5.842-8.56 6.777-7.161 5.588-9.058 6.968-7.558 5.734-9.556 7.12-11.09 8.054-10.09 7.282-11.585 8.36-10.51 7.58-11.369 8.197-17.76 12.825-20.992 15.23" stroke-width="12" stroke="#f7d347" fill="none"/>
</svg>
