<?xml version="1.0" standalone="no"?>
<svg xmlns:xlink="http://www.w3.org/1999/xlink" id="s2" class="track" xmlns="http://www.w3.org/2000/svg" preserveAspectRatio="xMinYMid meet" height="800px" width="600px" viewBox="-1200 -700 3000 3000">
            <path d="M 479.5557 14.7471 L 468.7162 22.6976 L 458.9613 29.8734 L 450.4124 36.1898 L 441.1042 43.1425 L 432.9881 49.2116 L 421.4196 57.8603 L 411.733 65.0986 L 392.7371 79.2846 L 381.2998 87.82 L 370.4602 95.9056 L 358.0371 105.1683 L 345.4702 114.5335 L 333.5267 123.4282 L 324.6156 130.0542 L 312.8872 138.767 L 303.4851 145.7521 L 291.3571 154.7527 L 281.513 162.0484 L 270.4101 170.2512 L 260.8291 177.3169 L 249.4279 185.7189 L 240.528 192.2774 L 230.5545 199.6275 L 222.1117 205.8467 L 212.6131 212.8433 L 205.0108 218.4439 L 190.8528 228.8684 L 183.332 234.3988 L 177.4251 238.7395 L 169.827 244.3183 L 164.1057 248.5157 L 156.7455 253.9113 L 151.2047 257.964 L 144.4559 262.8355 L 137.3387 267.8009 L 130.5756 272.088 L 123.1547 275.8691 L 115.8972 278.0563 L 108.201 278.489 L 101.0341 276.9181 L 94.7402 273.7401 L 84.4789 267.3319 L 74.7077 260.2494 L 65.3744 253.3639 L 54.2573 245.1794 L 41.7715 236.0224 L 34.5859 230.7888 L 26.5599 225.024 L 18.1381 219.0961 L 9.2384 213.0831 L 2.1118 208.4836 L -6.9333 202.6807 L -14.4827 197.8383 L -24.0181 191.7272 L -31.9561 186.6388 L -41.9477 180.2328 L -50.878 174.5111 L -61.2889 167.8376 L -69.9013 162.2982 L -81.3477 154.8755 L -90.2109 149.0415 L -101.9238 141.1866 L -110.9554 135.0047 L -122.1293 127.1651 L -134.0522 118.5519 L -144.61 110.7342 L -154.4925 103.26 L -165.7884 94.4986 L -174.9633 87.207 L -186.9373 77.4241 L -196.7365 69.1001 L -207.8291 59.2914 L -216.8372 51.1905 L -228.0012 41.1299 L -237.0973 32.8423 L -248.9184 21.7823 L -257.9207 13.1579 L -269.0118 2.424 L -278.6183 -7.1704 L -284.8021 -13.3881 L -293.7779 -22.3938 L -302.7874 -31.4359 L -313.8335 -42.5394 L -322.6823 -51.4304 L -334.0834 -62.8657 L -342.7043 -71.4537 L -353.2903 -81.6984 L -361.9216 -89.7357 L -373.3085 -99.774 L -384.2211 -108.5794 L -396.0392 -117.2112 L -407.3321 -124.6442 L -419.443 -131.8776 L -431.4258 -138.8331 L -452.1961 -150.4295 L -472.808 -160.5608 L -493.5311 -170.2747 L -513.1815 -178.7483 L -532.2014 -186.8799 L -538.3966 -189.5345 L -542.6984 -191.3761 L -553.6277 -196.0462 L -563.7452 -200.4008 L -573.0728 -204.4636 L -585.4602 -209.8643 L -593.3914 -213.3222 L -603.3439 -217.6632 L -608.7048 -220.0021 L -615.53 -222.9806 L -620.9513 -225.3472 L -627.2695 -228.1059 L -631.6967 -230.0399 L -636.1982 -232.0072 L -638.8214 -233.1526 L -642.0716 -234.5718 L -643.9859 -235.4095 L -645.378 -236.0235 L -647.0002 -236.7579 L -648.3374 -237.384 L -649.7547 -238.113 L -650.8103 -238.7269 L -651.9998 -239.4869 L -652.942 -240.1526 L -653.5395 -240.646 L -654.0826 -241.1442 L -655.2567 -242.4142 L -656.034 -243.4793 L -656.2806 -243.8675 L -656.8757 -244.9457 L -657.0883 -245.4009 L -657.2756 -245.8464 L -657.399 -246.1675 L -657.5265 -246.5226 L -657.7019 -247.0639 L -657.9939 -248.1682 L -658.2541 -249.7089 L -658.3482 -251.4282 L -658.1804 -253.6668 L -657.529 -256.4066 L -656.7326 -258.0109 L -654.8791 -260.3155 L -652.9613 -261.9472 L -650.4456 -263.3857 L -647.9619 -264.4091 L -645.3293 -265.5758 L -642.7819 -266.7036 L -638.8469 -268.4564 L -635.1043 -270.1771 L -630.2588 -272.4361 L -625.5095 -274.6604 L -619.8818 -277.3098 L -614.5743 -279.8192 L -606.6368 -283.5967 L -599.0532 -287.226 L -590.4668 -291.3453 L -581.3721 -295.6967 L -571.8 -300.2634 L -562.3219 -304.6861 L -549.7469 -310.0809 L -539.1954 -314.475 L -527.5743 -319.3096 L -515.516 -324.2255 L -502.9938 -329.0685 L -490.7411 -333.4183 L -477.2374 -337.7044 L -463.2585 -341.6462 L -448.9032 -345.4519 L -434.2177 -349.2029 L -420.1004 -352.6761 L -407.4994 -355.5743 L -392.7752 -358.5037 L -377.7866 -361.32 L -361.6347 -364.3493 L -346.2103 -367.2383 L -317.7662 -372.5622 L -288.9409 -377.9396 L -258.7778 -383.5455 L -230.3732 -388.8216 L -202.6999 -393.9909 L -174.8485 -399.2825 L -148.6236 -404.5674 L -123.2179 -410.6538 L -111.611 -413.6289 L -98.5234 -417.1044 L -75.3464 -423.8467 L -52.788 -430.8919 L -29.3812 -438.9292 L -7.2575 -446.8017 L 12.2423 -453.7071 L 28.9602 -459.6124 L 43.9905 -464.9097 L 57.039 -469.4988 L 69.4923 -473.7966 L 75.3319 -475.4547 L 82.5038 -476.779 L 88.4324 -477.101 L 95.0872 -476.4408 L 106.4549 -472.0222 L 114.9885 -464.3659 L 120.7387 -454.2712 L 123.2524 -443.5493 L 123.3794 -438.304 L 123.1815 -435.7075 L 122.1762 -429.508 L 120.0458 -421.1871 L 118.2571 -415.1973 L 115.425 -405.8983 L 113.7504 -400.7361 L 111.5838 -394.7177 L 108.7825 -387.8483 L 105.6005 -380.951 L 102.9094 -375.6755 L 98.8084 -368.3909 L 95.8487 -363.546 L 91.1982 -356.2368 L 87.6874 -350.9263 L 83.3752 -344.8464 L 78.3464 -338.5303 L 72.9402 -332.3634 L 67.9303 -327.0921 L 61.8869 -321.2262 L 56.7368 -316.6013 L 49.6844 -310.7632 L 43.6133 -306.1439 L 36.3845 -301.1084 L 29.8155 -296.9468 L 22.0343 -292.476 L 15.5117 -289.0787 L 8.3008 -285.6698 L 1.4369 -282.7431 L -7.7698 -279.2669 L -17.1973 -276.1356 L -26.7857 -273.2609 L -36.5356 -270.6209 L -45.8301 -268.2973 L -55.1986 -266.0083 L -62.8577 -264.1389 L -72.9474 -261.7261 L -80.7417 -260.0172 L -91.0113 -257.8384 L -98.2951 -256.2947 L -108.7115 -254.0805 L -117.3615 -252.233 L -131.6382 -249.1676 L -140.3481 -247.2902 L -150.1837 -245.165 L -158.0809 -243.4544 L -168.2528 -241.1275 L -175.8536 -239.0596 L -185.0034 -236.222 L -192.8188 -233.4929 L -201.383 -229.782 L -208.3357 -225.7477 L -215.9124 -219.8654 L -221.0942 -214.8166 L -227.199 -207.7495 L -230.1328 -203.8329 L -234.7017 -196.5373 L -238.602 -188.4036 L -241.3526 -180.4787 L -242.9069 -173.9216 L -244.0631 -165.8043 L -244.4783 -158.7219 L -244.2653 -150.2003 L -243.5935 -143.7865 L -242.1692 -136.5597 L -240.1122 -130.0763 L -235.0106 -119.7913 L -233.4706 -117.4005 L -228.6265 -111.0406 L -225.5324 -107.5438 L -220.465 -102.1182 L -213.0229 -94.6013 L -206.2772 -88.4951 L -200.3583 -83.6013 L -195.8162 -79.8583 L -189.7389 -74.8506 L -184.6208 -70.6323 L -178.6524 -65.7107 L -173.3398 -61.3274 L -167.1638 -56.2323 L -162.0957 -52.0511 L -155.5094 -46.6108 L -150.5036 -42.4782 L -144.004 -37.1176 L -138.6868 -32.7351 L -132.2798 -27.4574 L -122.2174 -19.1722 L -111.1054 -10.247 L -100.0967 -2.3847 L -88.6739 3.3649 L -81.8718 5.7102 L -75.8243 7.1715 L -68.4163 8.071 L -61.9107 8.2498 L -48.6939 7.7011 L -37.1595 5.9241 L -23.4558 .9329 L -18.5647 -1.8374 L -12.8648 -5.612 L -7.6628 -9.4214 L -2.7424 -13.6001 L 1.7059 -18.2852 L 5.6304 -23.4249 L 8.6862 -28.2109 L 11.898 -33.9312 L 14.3581 -38.7429 L 17.134 -44.8888 L 19.2118 -50.0501 L 21.7071 -56.9994 L 23.6736 -62.8588 L 26.0966 -70.0856 L 27.9813 -75.6947 L 30.4958 -83.132 L 32.6813 -89.3106 L 35.5679 -96.8497 L 37.9897 -102.6196 L 41.5748 -110.0867 L 44.4505 -115.2582 L 48.7966 -121.9471 L 53.8439 -128.2336 L 59.7998 -134.5521 L 64.6218 -139.2379 L 71.1917 -145.2471 L 77.5717 -150.8482 L 84.1255 -156.4259 L 89.64 -160.8546 L 100.8475 -168.9328 L 108.4516 -173.7457 L 112.8584 -176.3518 L 121.4057 -181.0772 L 128.672 -184.7548 L 137.2227 -188.6905 L 144.346 -191.686 L 153.2382 -195.319 L 162.2838 -199.0047 L 172.388 -203.1179 L 181.2492 -206.731 L 192.0612 -211.1464 L 202.7995 -215.541 L 215.6227 -220.8019 L 225.8778 -225.0184 L 239.8144 -230.7618 L 250.832 -235.3059 L 264.8286 -241.0613 L 275.6328 -245.4731 L 292.2112 -252.196 L 304.124 -257.0095 L 318.5529 -262.8403 L 331.8446 -268.2099 L 346.6637 -274.1972 L 356.9586 -278.3555 L 371.3369 -284.1622 L 382.1648 -288.5329 L 395.3058 -293.8328 L 406.6327 -298.4041 L 419.3977 -303.5541 L 431.9231 -308.7086 L 454.268 -318.5439 L 465.777 -323.5223 L 477.863 -328.3217 L 489.6271 -332.9134 L 498.6246 -336.6238 L 508.5158 -340.7467 L 515.3287 -343.5839 L 521.8671 -346.3065 L 526.5817 -348.2386 L 531.8466 -349.915 L 535.9147 -350.9013 L 540.889 -352.0853 L 544.9008 -353.0177 L 549.837 -353.9435 L 554.1675 -354.5291 L 558.7946 -354.8028 L 562.7668 -354.6811 L 567.8792 -354.089 L 571.7851 -353.3859 L 576.0009 -352.3777 L 581.0874 -350.7798 L 586.0619 -348.6862 L 590.8716 -346.0892 L 595.2283 -343.2326 L 599.6837 -339.829 L 603.1975 -336.7484 L 607.0177 -332.9197 L 610.1896 -329.3266 L 613.7086 -325.0388 L 616.7716 -321.1824 L 620.3064 -316.6881 L 624.1773 -311.7653 L 628.3909 -306.4037 L 632.7275 -300.8855 L 637.0979 -295.3284 L 641.4266 -289.8278 L 646.2879 -283.6037 L 650.5557 -278.0797 L 656.0736 -270.9062 L 660.2548 -265.4635 L 665.6776 -258.3988 L 670.7086 -251.831 L 676.0603 -244.8358 L 679.1135 -240.8371 L 682.5785 -236.2887 L 686.6795 -230.8797 L 688.5745 -228.3772 L 691.0337 -225.1183 L 693.0469 -222.4469 L 695.3311 -219.408 L 697.3026 -216.7483 L 699.5779 -213.4721 L 701.1608 -210.8828 L 702.9965 -207.3976 L 704.2088 -204.4193 L 705.2175 -200.4443 L 705.6003 -196.6176 L 705.4705 -193.032 L 704.82 -189.2683 L 702.3265 -181.9313 L 698.2765 -173.8825 L 692.4309 -165.0879 L 685.2498 -155.3126 L 676.8906 -144.5108 L 671.5736 -138.0041 L 668.5741 -134.4723 L 662.558 -127.6769 L 657.6037 -122.4185 L 650.2062 -115.152 L 644.0683 -109.4811 L 636.6847 -102.9607 L 629.8952 -97.2018 L 623.8604 -92.2439 L 616.601 -86.4023 L 608.0401 -79.6248 L 600.8799 -74.0368 L 591.8223 -67.0686 L 584.2643 -61.3351 L 574.7077 -54.2145 L 563.6176 -46.1607 L 553.5289 -38.8785 L 541.9428 -30.5187 L 531.4333 -22.9385 L 520.0641 -14.7417 L 502.3042 -1.9165 L 481.3121 13.3136 z" stroke-width="28" stroke="black" fill="none" id="Track"/><path d="M 479.5557 14.7471 L 468.7162 22.6976 L 458.9613 29.8734 L 450.4124 36.1898 L 441.1042 43.1425 L 432.9881 49.2116 L 421.4196 57.8603 L 411.733 65.0986 L 392.7371 79.2846 L 381.2998 87.82 L 370.4602 95.9056 L 358.0371 105.1683 L 345.4702 114.5335 L 333.5267 123.4282 L 324.6156 130.0542 L 312.8872 138.767 L 303.4851 145.7521 L 291.3571 154.7527 L 281.513 162.0484 L 270.4101 170.2512 L 260.8291 177.3169 L 249.4279 185.7189 L 240.528 192.2774 L 230.5545 199.6275 L 222.1117 205.8467 L 212.6131 212.8433 L 205.0108 218.4439 L 190.8528 228.8684 L 183.332 234.3988 L 177.4251 238.7395 L 169.827 244.3183 L 164.1057 248.5157 L 156.7455 253.9113 L 151.2047 257.964 L 144.4559 262.8355 L 137.3387 267.8009 L 130.5756 272.088 L 123.1547 275.8691 L 115.8972 278.0563 L 108.201 278.489 L 101.0341 276.9181 L 94.7402 273.7401 L 84.4789 267.3319 L 74.7077 260.2494 L 65.3744 253.3639 L 54.2573 245.1794 L 41.7715 236.0224 L 34.5859 230.7888 L 26.5599 225.024 L 18.1381 219.0961 L 9.2384 213.0831 L 2.1118 208.4836 L -6.9333 202.6807 L -14.4827 197.8383 L -24.0181 191.7272 L -31.9561 186.6388 L -41.9477 180.2328 L -50.878 174.5111 L -61.2889 167.8376 L -69.9013 162.2982 L -81.3477 154.8755 L -90.2109 149.0415 L -101.9238 141.1866 L -110.9554 135.0047 L -122.1293 127.1651 L -134.0522 118.5519 L -144.61 110.7342 L -154.4925 103.26 L -165.7884 94.4986 L -174.9633 87.207 L -186.9373 77.4241 L -196.7365 69.1001 L -207.8291 59.2914 L -216.8372 51.1905 L -228.0012 41.1299 L -237.0973 32.8423 L -248.9184 21.7823 L -257.9207 13.1579 L -269.0118 2.424 L -278.6183 -7.1704 L -284.8021 -13.3881 L -293.7779 -22.3938 L -302.7874 -31.4359 L -313.8335 -42.5394 L -322.6823 -51.4304 L -334.0834 -62.8657 L -342.7043 -71.4537 L -353.2903 -81.6984 L -361.9216 -89.7357 L -373.3085 -99.774 L -384.2211 -108.5794 L -396.0392 -117.2112 L -407.3321 -124.6442 L -419.443 -131.8776 L -431.4258 -138.8331 L -452.1961 -150.4295 L -472.808 -160.5608" stroke-width="12" stroke="#e73323" fill="none" id="S1"/><path d="M -479.5599 -163.7546 L -488.8907 -168.1554 L -500.1399 -173.1617 L -508.6483 -176.8088 L -519.5915 -181.4887 L -528.4462 -185.273 L -551.215 -195.0152 L -561.3866 -199.3793 L -570.7572 -203.454 L -583.855 -209.1645 L -591.9807 -212.7071 L -600.4159 -216.3859 L -606.2423 -218.9278 L -612.7515 -221.768 L -618.2642 -224.1741 L -624.7094 -226.988 L -629.3763 -229.0261 L -634.6724 -231.3402 L -637.7265 -232.6749 L -640.1556 -233.7349 L -641.7243 -234.4197 L -643.2106 -235.07 L -645.0618 -235.8834 L -646.404 -236.4849 L -647.9635 -237.2062 L -649.2391 -237.8357 L -650.5742 -238.5837 L -651.567 -239.2022 L -652.7497 -240.0075 L -653.3668 -240.4968 L -653.9252 -240.9951 L -654.7118 -241.785 L -655.1383 -242.2692 L -655.9449 -243.346 L -656.7506 -244.6958 L -657.0324 -245.2772 L -657.212 -245.6888 L -657.3759 -246.1041 L -657.4623 -246.3416 L -657.5985 -246.7388 L -657.8697 -247.6554 L -658.1618 -249.0394 L -658.3351 -250.7465 L -658.2919 -252.6806 L -657.8326 -255.3942 L -657.0103 -257.5534 L -655.2342 -259.9429 L -653.7539 -261.3412 L -651.443 -262.894 L -648.9824 -263.9785 L -646.3787 -265.1101 L -644.0069 -266.1621 L -640.3146 -267.7968 L -637.0303 -269.286 L -632.149 -271.5537 L -627.9461 -273.5184 L -622.1994 -276.2167 L -617.4791 -278.4443 L -608.4562 -282.7278 L -600.5114 -286.5274 L -592.0209 -290.5998 L -583.559 -294.652 L -574.1 -299.1668 L -564.1365 -303.8616 L -543.1977 -312.8081 L -531.7264 -317.5862 L -520.5337 -322.2009 L -507.4697 -327.3764 L -496.159 -331.5502 L -482.8528 -335.986 L -469.0671 -340.0522 L -454.8578 -343.8922 L -440.3037 -347.6638 L -425.4298 -351.3823 L -413.8267 -354.159 L -398.3319 -357.4436 L -383.4403 -360.259 L -368.3174 -363.0971 L -352.0187 -366.1503 L -336.4741 -369.0614 L -324.6949 -371.2657 L -308.8367 -374.2314 L -295.8703 -376.6482 L -278.1422 -379.953 L -264.5531 -382.4766 L -248.2733 -385.4943 L -235.9897 -387.7766 L -221.0677 -390.5565 L -208.1795 -392.9649 L -192.7331 -395.8616 L -181.0723 -398.0793 L -166.0259 -401.0119 L -154.6695 -403.2906 L -140.0608 -406.4942 L -129.0743 -409.1719 L -117.3981 -412.1402 L -103.4065 -415.7811 L -91.2593 -419.1436 L -80.8832 -422.1832 L -67.5012 -426.246 L -57.4055 -429.4083 L -45.1565 -433.4174 L -34.6082 -437.0718 L -21.9523 -441.5765 L -12.3674 -444.9871 L -.2909 -449.2701 L 8.6618 -452.4413 L 17.8839 -455.701 L 25.3416 -458.3354 L 34.0175 -461.3959 L 40.5602 -463.7026 L 48.6033 -466.5319 L 54.1108 -468.4689 L 61.2046 -470.9627 L 66.5924 -472.8408 L 72.4035 -474.6768 L 79.5423 -476.335 L 87.1646 -477.1013 L 92.6184 -476.8232 L 98.6978 -475.5525 L 103.9923 -473.4153 L 109.4085 -469.9475 L 113.1937 -466.4541 L 117.2541 -461.1781 L 119.6811 -456.7557 L 121.8439 -450.9989 L 122.9809 -445.7995 L 123.4157 -439.7983 L 123.3149 -437.1877 L 122.3972 -430.5893 L 120.471 -422.6551 L 118.5974 -416.3337 L 116.2754 -408.6449 L 114.6704 -403.522 L 112.4841 -397.1323 L 109.9823 -390.6811 L 106.9572 -383.7928 L 104.3863 -378.5152 L 100.4553 -371.2202 L 97.3466 -365.9696 L 93.0327 -359.0874 L 89.5978 -353.7858 L 85.1428 -347.2639 L 80.2807 -340.8769 L 75.0077 -334.6591 L 70.4684 -329.7132 L 64.572 -323.7705 L 59.5381 -319.0766 L 52.6323 -313.138 L 46.6769 -308.4304 L 39.1332 -302.9643 L 33.1284 -298.9988 L 24.9832 -294.1147 L 18.5463 -290.6212 L 5.1527 -284.2901 L -3.9524 -280.6499 L -13.2915 -277.391 L -22.8175 -274.4161 L -32.5033 -271.6802 L -42.3332 -269.1576 L -51.6763 -266.8684 L -61.088 -264.571 L -68.7813 -262.7013 L -78.9384 -260.4035 L -86.7771 -258.7356 L -96.471 -256.6816 L -104.4008 -254.9978 L -115.5075 -252.6298 L -127.2907 -250.1025 L -135.9969 -248.2285 L -146.5093 -245.9593 L -154.4482 -244.2421 L -164.0941 -242.1255 L -171.7819 -240.2042 L -181.5981 -237.3193 L -188.9364 -234.8924 L -197.7003 -231.5091 L -204.9357 -227.863 L -212.9096 -222.4006 L -218.3633 -217.5788 L -224.7761 -210.7158 L -232.8078 -199.7793 L -237.1199 -191.7961 L -240.428 -183.472 L -243.7166 -168.8481 L -244.445 -153.6949 L -242.8328 -139.4217 L -238.2172 -125.6543 L -235.9869 -121.4279 L -234.2529 -118.5882 L -229.53 -112.1182 L -226.4698 -108.5828 L -221.424 -103.1222 L -213.9989 -95.5655 L -207.316 -89.3715 L -202.7951 -85.6105 L -196.872 -80.7283 L -191.9023 -76.6333 L -185.7246 -71.5421 L -180.9047 -67.5683 L -174.4851 -62.2724 L -169.879 -58.4721 L -163.265 -53.0161 L -158.2143 -48.8454 L -151.6571 -43.4301 L -146.2924 -39.0044" stroke-width="12" stroke="#4fafdf" fill="none" id="S2"/><path d="M -144.004 -37.1176 L -138.6868 -32.7351 L -132.2798 -27.4574 L -122.2174 -19.1722 L -111.1054 -10.247 L -100.0967 -2.3847 L -88.6739 3.3649 L -81.8718 5.7102 L -75.8243 7.1715 L -68.4163 8.071 L -61.9107 8.2498 L -48.6939 7.7011 L -37.1595 5.9241 L -23.4558 .9329 L -18.5647 -1.8374 L -12.8648 -5.612 L -7.6628 -9.4214 L -2.7424 -13.6001 L 1.7059 -18.2852 L 5.6304 -23.4249 L 8.6862 -28.2109 L 11.898 -33.9312 L 14.3581 -38.7429 L 17.134 -44.8888 L 19.2118 -50.0501 L 21.7071 -56.9994 L 23.6736 -62.8588 L 26.0966 -70.0856 L 27.9813 -75.6947 L 30.4958 -83.132 L 32.6813 -89.3106 L 35.5679 -96.8497 L 37.9897 -102.6196 L 41.5748 -110.0867 L 44.4505 -115.2582 L 48.7966 -121.9471 L 53.8439 -128.2336 L 59.7998 -134.5521 L 64.6218 -139.2379 L 71.1917 -145.2471 L 77.5717 -150.8482 L 84.1255 -156.4259 L 89.64 -160.8546 L 100.8475 -168.9328 L 108.4516 -173.7457 L 112.8584 -176.3518 L 121.4057 -181.0772 L 128.672 -184.7548 L 137.2227 -188.6905 L 144.346 -191.686 L 153.2382 -195.319 L 162.2838 -199.0047 L 172.388 -203.1179 L 181.2492 -206.731 L 192.0612 -211.1464 L 202.7995 -215.541 L 215.6227 -220.8019 L 225.8778 -225.0184 L 239.8144 -230.7618 L 250.832 -235.3059 L 264.8286 -241.0613 L 275.6328 -245.4731 L 292.2112 -252.196 L 304.124 -257.0095 L 318.5529 -262.8403 L 331.8446 -268.2099 L 346.6637 -274.1972 L 356.9586 -278.3555 L 371.3369 -284.1622 L 382.1648 -288.5329 L 395.3058 -293.8328 L 406.6327 -298.4041 L 419.3977 -303.5541 L 431.9231 -308.7086 L 454.268 -318.5439 L 465.777 -323.5223 L 477.863 -328.3217 L 489.6271 -332.9134 L 498.6246 -336.6238 L 508.5158 -340.7467 L 515.3287 -343.5839 L 521.8671 -346.3065 L 526.5817 -348.2386 L 531.8466 -349.915 L 535.9147 -350.9013 L 540.889 -352.0853 L 544.9008 -353.0177 L 549.837 -353.9435 L 554.1675 -354.5291 L 558.7946 -354.8028 L 562.7668 -354.6811 L 567.8792 -354.089 L 571.7851 -353.3859 L 576.0009 -352.3777 L 581.0874 -350.7798 L 586.0619 -348.6862 L 590.8716 -346.0892 L 595.2283 -343.2326 L 599.6837 -339.829 L 603.1975 -336.7484 L 607.0177 -332.9197 L 610.1896 -329.3266 L 613.7086 -325.0388 L 616.7716 -321.1824 L 620.3064 -316.6881 L 624.1773 -311.7653 L 628.3909 -306.4037 L 632.7275 -300.8855 L 637.0979 -295.3284 L 641.4266 -289.8278 L 646.2879 -283.6037 L 650.5557 -278.0797 L 656.0736 -270.9062 L 660.2548 -265.4635 L 665.6776 -258.3988 L 670.7086 -251.831 L 676.0603 -244.8358 L 679.1135 -240.8371 L 682.5785 -236.2887 L 686.6795 -230.8797 L 688.5745 -228.3772 L 691.0337 -225.1183 L 693.0469 -222.4469 L 695.3311 -219.408 L 697.3026 -216.7483 L 699.5779 -213.4721 L 701.1608 -210.8828 L 702.9965 -207.3976 L 704.2088 -204.4193 L 705.2175 -200.4443 L 705.6003 -196.6176 L 705.4705 -193.032 L 704.82 -189.2683 L 702.3265 -181.9313 L 698.2765 -173.8825 L 692.4309 -165.0879 L 685.2498 -155.3126 L 676.8906 -144.5108 L 671.5736 -138.0041 L 668.5741 -134.4723 L 662.558 -127.6769 L 657.6037 -122.4185 L 650.2062 -115.152 L 644.0683 -109.4811 L 636.6847 -102.9607 L 629.8952 -97.2018 L 623.8604 -92.2439 L 616.601 -86.4023 L 608.0401 -79.6248 L 600.8799 -74.0368 L 591.8223 -67.0686 L 584.2643 -61.3351 L 574.7077 -54.2145 L 563.6176 -46.1607 L 553.5289 -38.8785 L 541.9428 -30.5187 L 531.4333 -22.9385 L 520.0641 -14.7417 L 502.3042 -1.9165 L 481.3121 13.3136" stroke-width="12" stroke="#f7d347" fill="none" id="S3"/></svg>