<?xml version="1.0" standalone="no"?>
<svg xmlns:xlink="http://www.w3.org/1999/xlink" id="s2" class="track" xmlns="http://www.w3.org/2000/svg" preserveAspectRatio="xMinYMid meet" height="800px" width="600px" viewBox="-1200 -700 3000 3000">
            <path d="M 684.5559 293.5584 L 690.8806 298.5062 L 698.5285 304.5113 L 703.9045 308.7506 L 711.0388 314.3965 L 716.8145 318.9806 L 723.9013 324.6126 L 730.0812 329.53 L 737.1171 335.1347 L 743.2531 340.0303 L 750.2442 345.6071 L 755.4752 349.7728 L 762.8664 355.6557 L 768.4962 360.1489 L 775.848 366.0377 L 781.4152 370.5035 L 788.2694 376.0004 L 795.5356 381.8242 L 802.3509 387.2821 L 807.8764 391.7038 L 814.6613 397.1315 L 820.5766 401.8615 L 827.6834 407.5408 L 833.4267 412.1262 L 839.8615 417.2604 L 845.3681 421.6518 L 851.4564 426.5023 L 856.5772 430.5782 L 862.1504 435.0075 L 867.635 439.3516 L 872.3117 443.0374 L 875.8941 445.8366 L 880.4953 449.3903 L 883.7345 451.862 L 888.2991 455.3111 L 891.7761 457.8873 L 896.3204 461.1215 L 899.8077 463.4467 L 904.4017 466.2441 L 907.9414 468.1769 L 912.6 470.4157 L 916.1844 471.8732 L 920.6245 473.3009 L 928.6348 474.6841 L 932.1121 474.8067 L 936.2784 474.6472 L 939.7898 474.2972 L 943.6349 473.6942 L 946.6277 473.0412 L 950.3767 471.9541 L 952.9209 471.0285 L 956.1803 469.59 L 958.72 468.2525 L 961.7335 466.3954 L 963.5787 465.1118 L 966.5157 462.8609 L 968.8946 460.8758 L 972.0041 458.0945 L 974.5804 455.6666 L 977.5392 452.7538 L 979.9475 450.276 L 982.8922 447.0794 L 985.9868 443.5122 L 989.0802 439.798 L 991.6361 436.6414 L 994.5598 432.9217 L 997.1207 429.5641 L 1000.0649 425.5987 L 1002.4802 422.2778 L 1005.6915 417.7857 L 1008.7899 413.418 L 1011.9765 408.9399 L 1015.465 404.0808 L 1018.8699 399.3815 L 1020.8312 396.6909 L 1024.8441 391.2006 L 1028.499 386.1992 L 1032.4618 380.7563 L 1035.5449 376.5025 L 1039.6365 370.8263 L 1043.7726 365.0145 L 1047.4619 359.7797 L 1050.4549 355.5329 L 1055.0285 349.0947 L 1058.4055 344.4037 L 1062.9042 338.2422 L 1066.388 333.5254 L 1070.969 327.3689 L 1074.7353 322.3318 L 1079.2829 316.2844 L 1082.4549 312.082 L 1086.6218 306.5832 L 1090.9509 300.8729 L 1098.3171 291.1236 L 1102.3351 285.7776 L 1105.7407 281.2323 L 1111.9363 272.9449 L 1117.2013 265.9415 L 1122.1151 259.4776 L 1126.4734 253.7784 L 1130.4626 248.4975 L 1134.0629 243.5669 L 1137.2 238.9012 L 1139.7381 234.6594 L 1140.7856 232.7116 L 1141.4606 231.3569 L 1142.4741 229.1009 L 1143.1404 227.3862 L 1143.8303 225.2692 L 1144.3082 223.4035 L 1144.7139 221.2526 L 1144.9014 219.8823 L 1145.1105 217.4978 L 1145.1625 216.1947 L 1145.0835 212.7214 L 1144.8089 210.2082 L 1144.3389 207.6663 L 1143.8019 205.6063 L 1142.9663 203.0605 L 1141.9363 200.503 L 1140.7124 197.9431 L 1139.5718 195.875 L 1137.8694 193.1912 L 1136.518 191.3199 L 1134.3795 188.6953 L 1132.9916 187.1491 L 1130.4097 184.4778 L 1128.0518 182.196 L 1125.0971 179.4693 L 1122.2839 176.9625 L 1118.7851 173.9467 L 1115.7117 171.383 L 1111.6486 168.0953 L 1108.1346 165.3099 L 1103.2888 161.5022 L 1099.4011 158.4489 L 1094.094 154.2693 L 1089.8706 150.9315 L 1084.4904 146.6651 L 1078.6016 141.9784 L 1072.9156 137.436 L 1068.2038 133.6643 L 1061.9116 128.645 L 1055.4944 123.5259 L 1049.3832 118.5992 L 1045.5333 115.471 L 1039.2903 110.3966 L 1034.1404 106.2334 L 1027.3012 100.7455 L 1022.4001 96.8415 L 1015.7744 91.6 L 1009.0425 86.317 L 1001.7853 80.6589 L 996.1631 76.2837 L 988.7366 70.4974 L 982.9956 66.0167 L 974.9778 59.7407 L 968.2253 54.4404 L 960.5068 48.3705 L 954.5525 43.6755 L 947.1626 37.8388 L 941.113 33.0519 L 933.6095 27.0993 L 926.5105 21.4809 L 918.3839 15.0841 L 912.1184 10.1689 L 904.3509 4.089 L 897.9999 -.878 L 890.1185 -7.0349 L 883.6969 -12.0509 L 875.7334 -18.2703 L 869.2294 -23.3461 L 861.1854 -29.6218 L 854.615 -34.7462 L 845.9836 -41.474 L 839.3506 -46.6384 L 830.6313 -53.4044 L 823.93 -58.5903 L 815.1429 -65.4018 L 808.4054 -70.6261 L 800.6014 -76.6664 L 791.718 -83.5199 L 783.8404 -89.576 L 776.9888 -94.8245 L 768.5182 -101.2929 L 763.2012 -105.3407 L 754.6518 -111.8281 L 747.1335 -117.5129 L 738.4888 -124.0204 L 729.2418 -130.9378 L 720.5008 -137.4683 L 711.1808 -144.4566 L 701.8434 -151.4948 L 693.025 -158.1633 L 683.627 -165.2847 L 674.1881 -172.4361 L 657.4204 -185.0951 L 648.4279 -191.8757 L 638.8345 -199.109 L 629.7726 -205.9394 L 621.2587 -212.3577 L 613.8719 -217.9245 L 604.3771 -225.0814 L 590.1543 -235.8001 L 582.8963 -241.269 L 575.7536 -246.6506 L 568.4851 -252.1258 L 562.3135 -256.7746 L 557.5781 -260.3409 L 551.9844 -264.5538 L 547.8064 -267.6982 L 542.7499 -271.5062 L 538.4221 -274.7641 L 533.5821 -278.4057 L 529.7352 -281.3023 L 525.1189 -284.7793 L 520.7048 -288.1022 L 516.4473 -291.3073 L 512.7984 -294.0532 L 509.3916 -296.6177 L 506.8872 -298.5009 L 503.915 -300.7227 L 502.1083 -302.0481 L 499.2845 -304.0504 L 496.8749 -305.6811 L 494.0176 -307.5039 L 491.8795 -308.7795 L 489.1407 -310.275 L 486.4558 -311.5756 L 484.1194 -312.576 L 481.941 -313.3925 L 479.2565 -314.2386 L 477.1667 -314.7619 L 474.391 -315.2529 L 472.2404 -315.4753 L 469.5594 -315.5637 L 467.1775 -315.4692 L 464.2299 -315.1302 L 462.1141 -314.739 L 459.0493 -313.9567 L 456.4546 -313.0935 L 453.4234 -311.8433 L 451.5 -310.9146 L 448.1979 -309.0798 L 445.6584 -307.4654 L 442.3344 -305.0819 L 439.7867 -303.0413 L 436.4536 -300.0852 L 434.0995 -297.7987 L 430.9524 -294.4945 L 427.7817 -290.9202 L 424.3399 -286.8716 L 421.8554 -283.8813 L 418.4871 -279.7272 L 415.0813 -275.3838 L 411.4308 -270.5499 L 407.9682 -265.7816 L 404.4989 -260.8113 L 401.6898 -256.6169 L 398.2465 -251.2612 L 395.4483 -246.7664 L 391.5353 -240.3692 L 389.3259 -236.7448 L 385.7174 -230.866 L 382.7057 -226.0405 L 378.6858 -219.7526 L 375.8239 -215.4012 L 372.0014 -209.7562 L 367.9788 -203.9784 L 364.4377 -198.9972 L 361.8117 -195.3856 L 359.0993 -191.7198 L 356.9021 -188.784 L 354.1262 -185.0996 L 351.9186 -182.1994 L 349.4748 -179.028 L 347.1065 -176.0098 L 344.6528 -172.9798 L 342.3726 -170.3114 L 339.9589 -167.6871 L 338.1162 -165.8279 L 335.8587 -163.7086 L 334.4546 -162.4795 L 332.2205 -160.6779 L 330.4226 -159.3844 L 328.0897 -157.9384 L 325.8932 -156.815 L 321.8594 -155.2149 L 319.2507 -154.4544 L 315.3217 -153.6881 L 312.5247 -153.4293 L 309.674 -153.4107 L 304.2515 -153.9896 L 298.527 -155.5061 L 295.26 -156.8018 L 291.5033 -158.6525 L 288.7359 -160.2319 L 285.0187 -162.5782 L 278.7454 -166.8907 L 271.4323 -172.2348 L 267.1544 -175.5057 L 262.4314 -179.233 L 257.5106 -183.2407 L 252.989 -187.0042 L 247.6422 -191.5106 L 242.0388 -196.2369 L 236.1732 -201.1559 L 230.4287 -205.9537 L 224.1166 -211.225 L 217.6152 -216.6649 L 210.9152 -222.2644 L 204.42 -227.6637 L 197.7335 -233.1789 L 192.1592 -237.7177 L 184.698 -243.6665 L 173.0774 -252.5352 L 158.9892 -262.4685 L 146.1526 -270.82 L 132.4291 -279.2152 L 125.1609 -283.5217 L 118.0674 -287.7087 L 106.2039 -294.6891 L 96.122 -300.5123 L 91.2046 -303.3003 L 85.8634 -306.2891 L 82.0568 -308.3686 L 76.8307 -311.0948 L 73.365 -312.784 L 68.5586 -314.9125 L 61.8208 -317.3558 L 54.5064 -319.151 L 48.2052 -319.9512 L 42.2627 -319.8767 L 39.1264 -319.4351 L 35.813 -318.6708 L 27.1078 -315.2096 L 24.1122 -313.3951 L 22.1457 -311.9688 L 19.4132 -309.6152 L 17.5843 -307.7629 L 15.4851 -305.3277 L 13.766 -303.0889 L 11.7253 -300.3149 L 8.3993 -296.1927 L 3.949 -291.9132 L 1.4753 -290.0345 L -1.502 -288.1408 L -4.4456 -286.617 L -7.5107 -285.3748 L -11.0766 -284.3302 L -14.5459 -283.7141 L -17.9297 -283.4675 L -21.4342 -283.563 L -25.2758 -284.0682 L -29.1907 -284.9921 L -32.943 -286.2154 L -37.0206 -287.8242 L -41.0016 -289.5354 L -44.374 -291.0049 L -48.7206 -292.8698 L -56.5657 -296.1805 L -65.96 -300.2724 L -75.777 -304.6725 L -86.8043 -309.7131 L -99.5959 -315.6489 L -112.0384 -321.4487 L -125.212 -327.5317 L -132.7892 -330.9865 L -140.5846 -334.5072 L -155.7788 -341.2854 L -171.1479 -348.0745 L -178.7975 -351.4193 L -186.5981 -354.7993 L -196.2632 -358.9556 L -205.54 -362.9211 L -223.3932 -370.4755 L -233.7549 -374.7813 L -243.6409 -378.8281 L -251.729 -382.1127 L -261.5955 -386.1174 L -269.9312 -389.5151 L -278.8817 -393.1683 L -286.1671 -396.1243 L -294.4305 -399.4336 L -300.3204 -401.766 L -307.0445 -404.4334 L -312.0821 -406.4557 L -317.8452 -408.8006 L -322.5766 -410.7456 L -327.9297 -412.9642 L -335.4503 -416.1165 L -342.7811 -419.3416 L -349.0227 -422.3922 L -354.7821 -425.7827 L -357.5948 -427.9026 L -360.1246 -430.3972 L -362.0051 -432.9577 L -363.4771 -435.8251 L -364.4882 -438.7261 L -365.1143 -441.4322 L -365.4369 -443.5986 L -365.6531 -446.4046 L -365.6572 -448.5406 L -365.4442 -451.1476 L -365.0581 -453.4239 L -364.3898 -456.0309 L -363.8472 -457.6728 L -362.7689 -460.317 L -361.6886 -462.4924 L -359.9731 -465.3909 L -358.3037 -467.8308 L -356.1368 -470.6747 L -354.1837 -473.0313 L -351.3884 -476.1821 L -348.9088 -478.8597 L -345.9038 -482.0335 L -343.3178 -484.7016 L -339.946 -488.0874 L -333.3145 -494.4993 L -326.38 -501.0199 L -318.1968 -508.6669 L -310.0917 -516.2358 L -301.2815 -524.4628 L -296.4532 -529.0058 L -291.3608 -533.8838 L -286.7462 -538.4075 L -282.2373 -542.9285 L -278.5493 -546.7139 L -275.2553 -550.1711 L -272.2674 -553.3696 L -269.6016 -556.2658 L -267.5568 -558.5145 L -265.1825 -561.1576 L -263.5053 -563.0451 L -261.536 -565.2841 L -260.0182 -567.0269 L -258.1476 -569.2001 L -256.8023 -570.7806 L -255.2542 -572.6458 L -254.0858 -574.1036 L -252.7459 -575.8515 L -251.4139 -577.6807 L -250.2171 -579.4288 L -248.7914 -581.6817 L -247.7162 -583.5462 L -247.0804 -584.7395 L -245.2337 -588.8399 L -244.7711 -590.133 L -244.1498 -592.2472 L -243.6477 -594.5779 L -243.3492 -596.5939 L -243.1001 -599.2195 L -242.9901 -601.3576 L -242.9427 -604.1359 L -242.9828 -606.516 L -243.1421 -609.8154 L -243.3382 -612.2621 L -243.762 -615.8771 L -244.3805 -619.6505 L -245.9714 -626.633 L -248.1091 -633.6955 L -249.6091 -637.8363 L -251.26 -641.7704 L -252.7322 -644.8616 L -254.1783 -647.6341 L -255.9998 -650.9627 L -257.8381 -654.486 L -259.4653 -658.0681 L -260.7896 -661.5296 L -261.9376 -665.3094 L -262.7609 -669.1756 L -263.2017 -672.8758 L -263.3054 -676.8542 L -263.0594 -680.6276 L -262.49 -684.3935 L -261.7709 -687.3931 L -259.5318 -693.2983 L -257.6633 -696.8138 L -256.045 -699.4103 L -253.738 -702.7401 L -251.8886 -705.2772 L -249.4842 -708.6675 L -247.7212 -711.3549 L -245.6757 -714.783 L -244.1381 -717.659 L -242.3749 -721.4799 L -241.2811 -724.4057 L -240.2682 -727.9913 L -239.7025 -731.0645 L -239.3964 -734.727 L -239.4187 -737.4724 L -239.7324 -740.98 L -240.1314 -743.3844 L -240.9228 -746.6962 L -241.9547 -749.9154 L -244.0846 -754.9449 L -245.6708 -757.9466 L -247.1455 -760.3884 L -249.3207 -763.5826 L -251.3093 -766.2145 L -253.7911 -769.2446 L -256.1533 -771.9513 L -259.2356 -775.3386 L -261.742 -778.0113 L -265.2049 -781.6082 L -267.9985 -784.4238 L -271.6232 -787.9336 L -275.7116 -791.69 L -280.0538 -795.4492 L -283.5441 -798.3123 L -288.338 -802.0758 L -292.1764 -804.9979 L -297.7433 -809.1819 L -301.9548 -812.3266 L -311.2079 -819.1994 L -317.0066 -823.4979 L -321.8771 -827.1061 L -328.0775 -831.6936 L -333.6771 -835.8177 L -340.6844 -840.9725 L -346.1931 -845.0377 L -353.5912 -850.5106 L -359.4027 -854.803 L -366.2869 -859.8592 L -374.8019 -866.0564 L -383.0924 -872.0281 L -389.5885 -876.6655 L -397.7733 -882.4559 L -406.1565 -888.3123 L -415.2769 -894.5825 L -424.0263 -900.5144 L -440.675 -911.5732 L -450.6968 -918.0227 L -460.1258 -923.8923 L -467.3209 -928.2113 L -476.7096 -933.6023 L -485.4465 -938.337 L -494.4941 -942.9296 L -502.7589 -946.848 L -511.2319 -950.5248 L -519.41 -953.6383 L -526.9665 -956.0921 L -536.8223 -958.7476 L -547.4921 -961.044 L -554.817 -962.3457 L -562.5098 -963.4414 L -573.2014 -964.4153 L -580.2186 -964.7447 L -584.5665 -964.8473 L -591.4804 -964.8679 L -598.7893 -964.7071 L -605.666 -964.3881 L -612.5532 -963.8928 L -619.896 -963.1446 L -624.2428 -962.5926 L -631.2417 -961.5301 L -633.8854 -961.0722 L -641.8883 -959.5238 L -647.7587 -958.2538 L -655.1261 -956.5623 L -661.2494 -955.1096 L -669.4559 -953.1005 L -675.8917 -951.4702 L -684.0059 -949.3355 L -691.263 -947.3197 L -699.7222 -944.8259 L -708.3496 -942.1232 L -717.6841 -939.023 L -724.9297 -936.4866 L -733.9594 -933.1496 L -749.4397 -926.9705 L -759.3208 -922.7188 L -768.6785 -918.4701 L -778.6878 -913.678 L -788.1401 -908.9147 L -796.4333 -904.5432 L -805.9282 -899.3154 L -813.6573 -894.8809 L -822.5814 -889.5546 L -832.6519 -883.2755 L -842.0196 -877.2231 L -851.7358 -870.8501 L -860.5414 -865.1308 L -869.5055 -859.4161 L -877.5349 -854.3764 L -883.7483 -850.4959 L -891.0399 -845.9252 L -897.1557 -842.0654 L -907.7745 -835.3771 L -914.1733 -831.4244 L -919.1225 -828.4154 L -924.1018 -825.4058 L -928.7147 -822.6411 L -932.8883 -820.1299 L -935.4182 -818.6015 L -939.3406 -816.1694 L -944.0533 -813.0398 L -949.6133 -808.7837 L -952.2698 -806.3309 L -954.6232 -803.6916 L -956.7256 -800.6816 L -958.448 -797.5251 L -959.8595 -794.2541 L -960.9739 -791.0716 L -962.0207 -787.5949 L -962.9115 -784.2254 L -963.4069 -782.0626 L -964.0935 -778.2841 L -964.5191 -774.5934 L -964.6968 -770.5421 L -964.6007 -766.5873 L -964.3185 -762.1863 L -964.0215 -758.2577 L -963.6649 -753.3204 L -963.3821 -748.9377 L -963.0434 -743.1427 L -962.7681 -738.0958 L -962.4028 -731.0365 L -962.1012 -724.8326 L -961.7372 -716.8547 L -961.4649 -710.4489 L -961.1182 -701.6992 L -960.8637 -694.7231 L -960.5627 -685.8009 L -960.3261 -678.2896 L -960.0248 -668.7376 L -959.68 -658.295 L -959.2765 -645.8434 L -958.9539 -635.2891 L -958.5174 -620.5578 L -958.34 -614.4872 L -958.1145 -606.7059 L -957.8327 -596.8342 L -957.632 -589.605 L -957.4072 -581.2212 L -957.2079 -573.4508 L -957.0125 -565.4307 L -956.8369 -557.9804 L -956.6586 -550.1737 L -956.5039 -543.0112 L -956.3604 -535.6305 L -956.2361 -528.8609 L -956.1362 -523.4712 L -956.0093 -517.0661 L -955.7963 -507.9177 L -955.6111 -502.3811 L -955.3638 -497.1744 L -955.0912 -492.9773 L -954.6224 -488.0009 L -954.1252 -484.2871 L -953.2768 -479.575 L -952.4071 -475.8845 L -951.2055 -471.9125 L -950.0708 -468.9708 L -948.4009 -465.5195 L -947.0003 -463.0985 L -945.7556 -461.1694 L -943.868 -458.5487 L -942.4013 -456.7272 L -940.2585 -454.3518 L -938.0687 -452.207 L -935.9417 -450.3855 L -933.4678 -448.521 L -929.6641 -446.08 L -924.7621 -443.5651 L -919.6925 -441.5519 L -913.8132 -439.8316 L -910.4288 -439.1124 L -906.6575 -438.5284 L -902.7304 -438.1412 L -898.6691 -437.9569 L -895.2332 -437.9554 L -891.2191 -438.0924 L -887.636 -438.3116 L -883.4647 -438.6524 L -880.0194 -438.9999 L -875.4348 -439.5413 L -871.8304 -440.0307 L -867.1646 -440.7395 L -861.8496 -441.6158 L -856.1638 -442.5834 L -850.4994 -443.5438 L -844.529 -444.5193 L -839.4521 -445.3054 L -832.5179 -446.2952 L -826.9933 -447.0072 L -819.9371 -447.815 L -814.0166 -448.406 L -806.5417 -449.0405 L -799.4233 -449.5271 L -791.3544 -449.9348 L -785.2468 -450.1403 L -777.83 -450.2636 L -771.443 -450.2553 L -763.8276 -450.0751 L -758.1101 -449.7826 L -750.7752 -449.1839 L -745.2806 -448.5564 L -738.247 -447.5151 L -734.5966 -446.8595 L -727.4501 -445.3427 L -722.4001 -444.0938 L -715.8853 -442.2971 L -709.3791 -440.337 L -705.4996 -439.1093 L -696.7277 -436.2139 L -689.7029 -433.7876 L -684.6192 -431.9754 L -677.2389 -429.2985 L -671.4528 -427.195 L -663.7005 -424.393 L -657.6397 -422.2177 L -649.5377 -419.3318 L -643.7018 -417.2683 L -635.2755 -414.3101 L -628.2003 -411.8467 L -619.4684 -408.832 L -612.7317 -406.5251 L -604.4642 -403.7201 L -597.3115 -401.3356 L -588.7275 -398.5638 L -582.7344 -396.6988 L -574.4101 -394.2084 L -566.499 -391.9975 L -553.507 -389.0428 L -540.7704 -387.2994 L -528.7191 -386.5055 L -522.839 -386.3165 L -515.96 -386.2752 L -511.0863 -386.3936 L -505.1433 -386.7145 L -499.2042 -387.2279 L -492.8841 -388.004 L -486.9245 -388.9746 L -480.9498 -390.1957 L -477.5717 -391.0006 L -471.494 -392.6295 L -465.2812 -394.4616 L -458.8939 -396.4412 L -451.8564 -398.6571 L -444.9698 -400.8037 L -439.1832 -402.529 L -431.3715 -404.6733 L -425.2298 -406.2017 L -417.0519 -408.0088 L -410.3167 -409.2493 L -402.7035 -410.3168 L -396.5987 -410.9063 L -389.1955 -411.3163 L -382.8236 -411.4274 L -375.665 -411.3349 L -369.9436 -411.1148 L -363.0177 -410.6778 L -356.2235 -410.0495 L -348.7343 -409.0886 L -342.172 -407.9859 L -334.8173 -406.4504 L -329.0155 -405.0331 L -321.8586 -403.0525 L -316.305 -401.3452 L -309.7855 -399.1608 L -302.2554 -396.4108 L -288.9914 -391.0864 L -281.3785 -387.8459 L -274.9979 -385.0875 L -266.8432 -381.5639 L -260.5796 -378.8778 L -251.9236 -375.1816 L -244.6815 -372.0793 L -235.5207 -368.1371 L -227.8825 -364.8356 L -218.2611 -360.6476 L -209.6772 -356.8757 L -199.0392 -352.1614 L -192.6675 -349.327 L -181.6432 -344.4196 L -173.7117 -340.8896 L -162.275 -335.7928 L -153.3789 -331.8014 L -142.2351 -326.7436 L -130.3253 -321.2558 L -118.3697 -315.6295 L -108.6526 -310.9242 L -97.0566 -305.1273 L -88.343 -300.6424 L -77.7863 -295.0673 L -66.7779 -289.0885 L -57.2344 -283.7582 L -46.6413 -277.631 L -36.3063 -271.3622 L -26.8186 -265.3326 L -16.9733 -258.8266 L -7.9143 -252.6155 L -.1593 -247.1092 L 9.0543 -240.3326 L 17.5388 -233.8955 L 26.4049 -227.0398 L 35.1779 -220.2203 L 43.9008 -213.4765 L 52.0686 -207.1899 L 60.2448 -200.8933 L 66.9585 -195.706 L 75.8523 -188.7873 L 82.7414 -183.3879 L 91.8765 -176.1961 L 98.9623 -170.6109 L 108.3679 -163.2007 L 115.6634 -157.4576 L 124.7678 -150.2966 L 132.8449 -143.9586 L 142.2128 -136.6482 L 149.9314 -130.6669 L 159.5604 -123.2359 L 169.9132 -115.2429 L 179.7581 -107.6183 L 190.3217 -99.4089 L 199.1326 -92.5399 L 209.2142 -84.6595 L 220.0558 -76.1655 L 229.7131 -68.5859 L 238.8308 -61.4187 L 248.7134 -53.6386 L 258.0413 -46.2843 L 269.5229 -37.2179 L 278.4217 -30.1801 L 289.5133 -21.3957 L 298.6401 -14.1569 L 310.7246 -4.5565 L 320.0816 2.8882 L 331.7264 12.1663 L 344.2564 22.1652 L 356.956 32.2906 L 366.7868 40.1074 L 379.7823 50.4315 L 390.5915 59.032 L 403.0604 68.9753 L 413.2786 77.1399 L 425.1686 86.6419 L 436.3734 95.5734 L 449.3008 105.8447 L 460.7112 114.9014 L 473.8419 125.3367 L 484.5598 133.8899 L 498.6342 145.1904 L 509.466 153.9128 L 523.7247 165.3813 L 534.7041 174.2066 L 549.1436 185.8346 L 559.3924 194.104 L 574.0152 205.8725 L 585.2953 214.8864 L 600.1725 226.7002 L 623.9986 245.6038 L 650.7428 266.8546 L 676.9092 287.5569 z" stroke-width="28" stroke="black" fill="none" id="Track"/><path d="M 684.5559 293.5584 L 690.8806 298.5062 L 698.5285 304.5113 L 703.9045 308.7506 L 711.0388 314.3965 L 716.8145 318.9806 L 723.9013 324.6126 L 730.0812 329.53 L 737.1171 335.1347 L 743.2531 340.0303 L 750.2442 345.6071 L 755.4752 349.7728 L 762.8664 355.6557 L 768.4962 360.1489 L 775.848 366.0377 L 781.4152 370.5035 L 788.2694 376.0004 L 795.5356 381.8242 L 802.3509 387.2821 L 807.8764 391.7038 L 814.6613 397.1315 L 820.5766 401.8615 L 827.6834 407.5408 L 833.4267 412.1262 L 839.8615 417.2604 L 845.3681 421.6518 L 851.4564 426.5023 L 856.5772 430.5782 L 862.1504 435.0075 L 867.635 439.3516 L 872.3117 443.0374 L 875.8941 445.8366 L 880.4953 449.3903 L 883.7345 451.862 L 888.2991 455.3111 L 891.7761 457.8873 L 896.3204 461.1215 L 899.8077 463.4467 L 904.4017 466.2441 L 907.9414 468.1769 L 912.6 470.4157 L 916.1844 471.8732 L 920.6245 473.3009 L 928.6348 474.6841 L 932.1121 474.8067 L 936.2784 474.6472 L 939.7898 474.2972 L 943.6349 473.6942 L 946.6277 473.0412 L 950.3767 471.9541 L 952.9209 471.0285 L 956.1803 469.59 L 958.72 468.2525 L 961.7335 466.3954 L 963.5787 465.1118 L 966.5157 462.8609 L 968.8946 460.8758 L 972.0041 458.0945 L 974.5804 455.6666 L 977.5392 452.7538 L 979.9475 450.276 L 982.8922 447.0794 L 985.9868 443.5122 L 989.0802 439.798 L 991.6361 436.6414 L 994.5598 432.9217 L 997.1207 429.5641 L 1000.0649 425.5987 L 1002.4802 422.2778 L 1005.6915 417.7857 L 1008.7899 413.418 L 1011.9765 408.9399 L 1015.465 404.0808 L 1018.8699 399.3815 L 1020.8312 396.6909 L 1024.8441 391.2006 L 1028.499 386.1992 L 1032.4618 380.7563 L 1035.5449 376.5025 L 1039.6365 370.8263 L 1043.7726 365.0145 L 1047.4619 359.7797 L 1050.4549 355.5329 L 1055.0285 349.0947 L 1058.4055 344.4037 L 1062.9042 338.2422 L 1066.388 333.5254 L 1070.969 327.3689 L 1074.7353 322.3318 L 1079.2829 316.2844 L 1082.4549 312.082 L 1086.6218 306.5832 L 1090.9509 300.8729 L 1098.3171 291.1236 L 1102.3351 285.7776 L 1105.7407 281.2323 L 1111.9363 272.9449 L 1117.2013 265.9415 L 1122.1151 259.4776 L 1126.4734 253.7784 L 1130.4626 248.4975 L 1134.0629 243.5669 L 1137.2 238.9012 L 1139.7381 234.6594 L 1140.7856 232.7116 L 1141.4606 231.3569 L 1142.4741 229.1009 L 1143.1404 227.3862 L 1143.8303 225.2692 L 1144.3082 223.4035 L 1144.7139 221.2526 L 1144.9014 219.8823 L 1145.1105 217.4978 L 1145.1625 216.1947 L 1145.0835 212.7214 L 1144.8089 210.2082 L 1144.3389 207.6663 L 1143.8019 205.6063 L 1142.9663 203.0605 L 1141.9363 200.503 L 1140.7124 197.9431 L 1139.5718 195.875 L 1137.8694 193.1912 L 1136.518 191.3199 L 1134.3795 188.6953 L 1132.9916 187.1491 L 1130.4097 184.4778 L 1128.0518 182.196 L 1125.0971 179.4693 L 1122.2839 176.9625 L 1118.7851 173.9467 L 1115.7117 171.383 L 1111.6486 168.0953 L 1108.1346 165.3099 L 1103.2888 161.5022 L 1099.4011 158.4489 L 1094.094 154.2693 L 1089.8706 150.9315 L 1084.4904 146.6651 L 1078.6016 141.9784 L 1072.9156 137.436 L 1068.2038 133.6643 L 1061.9116 128.645 L 1055.4944 123.5259 L 1049.3832 118.5992 L 1045.5333 115.471 L 1039.2903 110.3966 L 1034.1404 106.2334 L 1027.3012 100.7455 L 1022.4001 96.8415 L 1015.7744 91.6 L 1009.0425 86.317 L 1001.7853 80.6589 L 996.1631 76.2837 L 988.7366 70.4974 L 982.9956 66.0167 L 974.9778 59.7407 L 968.2253 54.4404 L 960.5068 48.3705 L 954.5525 43.6755 L 947.1626 37.8388 L 941.113 33.0519 L 933.6095 27.0993 L 926.5105 21.4809 L 918.3839 15.0841 L 912.1184 10.1689 L 904.3509 4.089 L 897.9999 -.878 L 890.1185 -7.0349 L 883.6969 -12.0509 L 875.7334 -18.2703 L 869.2294 -23.3461 L 861.1854 -29.6218 L 854.615 -34.7462 L 845.9836 -41.474 L 839.3506 -46.6384 L 830.6313 -53.4044 L 823.93 -58.5903 L 815.1429 -65.4018 L 808.4054 -70.6261 L 800.6014 -76.6664 L 791.718 -83.5199 L 783.8404 -89.576 L 776.9888 -94.8245 L 768.5182 -101.2929 L 763.2012 -105.3407 L 754.6518 -111.8281 L 747.1335 -117.5129 L 738.4888 -124.0204 L 729.2418 -130.9378 L 720.5008 -137.4683 L 711.1808 -144.4566 L 701.8434 -151.4948 L 693.025 -158.1633 L 683.627 -165.2847 L 674.1881 -172.4361 L 657.4204 -185.0951 L 648.4279 -191.8757 L 638.8345 -199.109 L 629.7726 -205.9394 L 621.2587 -212.3577 L 613.8719 -217.9245 L 604.3771 -225.0814 L 590.1543 -235.8001 L 582.8963 -241.269 L 575.7536 -246.6506 L 568.4851 -252.1258 L 562.3135 -256.7746 L 557.5781 -260.3409 L 551.9844 -264.5538 L 547.8064 -267.6982 L 542.7499 -271.5062 L 538.4221 -274.7641 L 533.5821 -278.4057 L 529.7352 -281.3023 L 525.1189 -284.7793 L 520.7048 -288.1022 L 516.4473 -291.3073 L 512.7984 -294.0532 L 509.3916 -296.6177 L 506.8872 -298.5009 L 503.915 -300.7227 L 502.1083 -302.0481 L 499.2845 -304.0504 L 496.8749 -305.6811 L 494.0176 -307.5039 L 491.8795 -308.7795 L 489.1407 -310.275 L 486.4558 -311.5756 L 484.1194 -312.576 L 481.941 -313.3925 L 479.2565 -314.2386 L 477.1667 -314.7619 L 474.391 -315.2529 L 472.2404 -315.4753 L 469.5594 -315.5637 L 467.1775 -315.4692 L 464.2299 -315.1302 L 462.1141 -314.739 L 459.0493 -313.9567 L 456.4546 -313.0935 L 453.4234 -311.8433 L 451.5 -310.9146 L 448.1979 -309.0798 L 445.6584 -307.4654 L 442.3344 -305.0819 L 439.7867 -303.0413 L 436.4536 -300.0852 L 434.0995 -297.7987 L 430.9524 -294.4945 L 427.7817 -290.9202 L 424.3399 -286.8716 L 421.8554 -283.8813 L 418.4871 -279.7272 L 415.0813 -275.3838 L 411.4308 -270.5499 L 407.9682 -265.7816 L 404.4989 -260.8113 L 401.6898 -256.6169 L 398.2465 -251.2612 L 395.4483 -246.7664 L 391.5353 -240.3692 L 389.3259 -236.7448 L 385.7174 -230.866 L 382.7057 -226.0405 L 378.6858 -219.7526 L 375.8239 -215.4012 L 372.0014 -209.7562 L 367.9788 -203.9784 L 364.4377 -198.9972 L 361.8117 -195.3856 L 359.0993 -191.7198 L 356.9021 -188.784 L 354.1262 -185.0996 L 351.9186 -182.1994 L 349.4748 -179.028 L 347.1065 -176.0098 L 344.6528 -172.9798 L 342.3726 -170.3114 L 339.9589 -167.6871 L 338.1162 -165.8279 L 335.8587 -163.7086 L 334.4546 -162.4795 L 332.2205 -160.6779 L 330.4226 -159.3844 L 328.0897 -157.9384 L 325.8932 -156.815 L 321.8594 -155.2149 L 319.2507 -154.4544 L 315.3217 -153.6881 L 312.5247 -153.4293 L 309.674 -153.4107 L 304.2515 -153.9896 L 298.527 -155.5061 L 295.26 -156.8018 L 291.5033 -158.6525 L 288.7359 -160.2319 L 285.0187 -162.5782 L 278.7454 -166.8907 L 271.4323 -172.2348 L 267.1544 -175.5057 L 262.4314 -179.233 L 257.5106 -183.2407 L 252.989 -187.0042 L 247.6422 -191.5106 L 242.0388 -196.2369 L 236.1732 -201.1559 L 230.4287 -205.9537 L 224.1166 -211.225 L 217.6152 -216.6649 L 210.9152 -222.2644 L 204.42 -227.6637 L 197.7335 -233.1789 L 192.1592 -237.7177 L 184.698 -243.6665 L 173.0774 -252.5352 L 158.9892 -262.4685 L 146.1526 -270.82 L 132.4291 -279.2152 L 125.1609 -283.5217 L 118.0674 -287.7087 L 106.2039 -294.6891 L 96.122 -300.5123" stroke-width="12" stroke="#e73323" fill="none" id="S1"/><path d="M 91.2046 -303.3003 L 85.8634 -306.2891 L 82.0568 -308.3686 L 76.8307 -311.0948 L 73.365 -312.784 L 68.5586 -314.9125 L 61.8208 -317.3558 L 54.5064 -319.151 L 48.2052 -319.9512 L 42.2627 -319.8767 L 39.1264 -319.4351 L 35.813 -318.6708 L 27.1078 -315.2096 L 24.1122 -313.3951 L 22.1457 -311.9688 L 19.4132 -309.6152 L 17.5843 -307.7629 L 15.4851 -305.3277 L 13.766 -303.0889 L 11.7253 -300.3149 L 8.3993 -296.1927 L 3.949 -291.9132 L 1.4753 -290.0345 L -1.502 -288.1408 L -4.4456 -286.617 L -7.5107 -285.3748 L -11.0766 -284.3302 L -14.5459 -283.7141 L -17.9297 -283.4675 L -21.4342 -283.563 L -25.2758 -284.0682 L -29.1907 -284.9921 L -32.943 -286.2154 L -37.0206 -287.8242 L -41.0016 -289.5354 L -44.374 -291.0049 L -48.7206 -292.8698 L -56.5657 -296.1805 L -65.96 -300.2724 L -75.777 -304.6725 L -86.8043 -309.7131 L -99.5959 -315.6489 L -112.0384 -321.4487 L -125.212 -327.5317 L -132.7892 -330.9865 L -140.5846 -334.5072 L -155.7788 -341.2854 L -171.1479 -348.0745 L -178.7975 -351.4193 L -186.5981 -354.7993 L -196.2632 -358.9556 L -205.54 -362.9211 L -223.3932 -370.4755 L -233.7549 -374.7813 L -243.6409 -378.8281 L -251.729 -382.1127 L -261.5955 -386.1174 L -269.9312 -389.5151 L -278.8817 -393.1683 L -286.1671 -396.1243 L -294.4305 -399.4336 L -300.3204 -401.766 L -307.0445 -404.4334 L -312.0821 -406.4557 L -317.8452 -408.8006 L -322.5766 -410.7456 L -327.9297 -412.9642 L -335.4503 -416.1165 L -342.7811 -419.3416 L -349.0227 -422.3922 L -354.7821 -425.7827 L -357.5948 -427.9026 L -360.1246 -430.3972 L -362.0051 -432.9577 L -363.4771 -435.8251 L -364.4882 -438.7261 L -365.1143 -441.4322 L -365.4369 -443.5986 L -365.6531 -446.4046 L -365.6572 -448.5406 L -365.4442 -451.1476 L -365.0581 -453.4239 L -364.3898 -456.0309 L -363.8472 -457.6728 L -362.7689 -460.317 L -361.6886 -462.4924 L -359.9731 -465.3909 L -358.3037 -467.8308 L -356.1368 -470.6747 L -354.1837 -473.0313 L -351.3884 -476.1821 L -348.9088 -478.8597 L -345.9038 -482.0335 L -343.3178 -484.7016 L -339.946 -488.0874 L -333.3145 -494.4993 L -326.38 -501.0199 L -318.1968 -508.6669 L -310.0917 -516.2358 L -301.2815 -524.4628 L -296.4532 -529.0058 L -291.3608 -533.8838 L -286.7462 -538.4075 L -282.2373 -542.9285 L -278.5493 -546.7139 L -275.2553 -550.1711 L -272.2674 -553.3696 L -269.6016 -556.2658 L -267.5568 -558.5145 L -265.1825 -561.1576 L -263.5053 -563.0451 L -261.536 -565.2841 L -260.0182 -567.0269 L -258.1476 -569.2001 L -256.8023 -570.7806 L -255.2542 -572.6458 L -254.0858 -574.1036 L -252.7459 -575.8515 L -251.4139 -577.6807 L -250.2171 -579.4288 L -248.7914 -581.6817 L -247.7162 -583.5462 L -247.0804 -584.7395 L -245.2337 -588.8399 L -244.7711 -590.133 L -244.1498 -592.2472 L -243.6477 -594.5779 L -243.3492 -596.5939 L -243.1001 -599.2195 L -242.9901 -601.3576 L -242.9427 -604.1359 L -242.9828 -606.516 L -243.1421 -609.8154 L -243.3382 -612.2621 L -243.762 -615.8771 L -244.3805 -619.6505 L -245.9714 -626.633 L -248.1091 -633.6955 L -249.6091 -637.8363 L -251.26 -641.7704 L -252.7322 -644.8616 L -254.1783 -647.6341 L -255.9998 -650.9627 L -257.8381 -654.486 L -259.4653 -658.0681 L -260.7896 -661.5296 L -261.9376 -665.3094 L -262.7609 -669.1756 L -263.2017 -672.8758 L -263.3054 -676.8542 L -263.0594 -680.6276 L -262.49 -684.3935 L -261.7709 -687.3931 L -259.5318 -693.2983 L -257.6633 -696.8138 L -256.045 -699.4103 L -253.738 -702.7401 L -251.8886 -705.2772 L -249.4842 -708.6675 L -247.7212 -711.3549 L -245.6757 -714.783 L -244.1381 -717.659 L -242.3749 -721.4799 L -241.2811 -724.4057 L -240.2682 -727.9913 L -239.7025 -731.0645 L -239.3964 -734.727 L -239.4187 -737.4724 L -239.7324 -740.98 L -240.1314 -743.3844 L -240.9228 -746.6962 L -241.9547 -749.9154 L -244.0846 -754.9449 L -245.6708 -757.9466 L -247.1455 -760.3884 L -249.3207 -763.5826 L -251.3093 -766.2145 L -253.7911 -769.2446 L -256.1533 -771.9513 L -259.2356 -775.3386 L -261.742 -778.0113 L -265.2049 -781.6082 L -267.9985 -784.4238 L -271.6232 -787.9336 L -275.7116 -791.69 L -280.0538 -795.4492 L -283.5441 -798.3123 L -288.338 -802.0758 L -292.1764 -804.9979 L -297.7433 -809.1819 L -301.9548 -812.3266 L -311.2079 -819.1994 L -317.0066 -823.4979 L -321.8771 -827.1061 L -328.0775 -831.6936 L -333.6771 -835.8177 L -340.6844 -840.9725 L -346.1931 -845.0377 L -353.5912 -850.5106 L -359.4027 -854.803 L -366.2869 -859.8592 L -374.8019 -866.0564 L -383.0924 -872.0281 L -389.5885 -876.6655 L -397.7733 -882.4559 L -406.1565 -888.3123 L -415.2769 -894.5825 L -424.0263 -900.5144 L -440.675 -911.5732 L -450.6968 -918.0227 L -460.1258 -923.8923 L -467.3209 -928.2113 L -476.7096 -933.6023 L -485.4465 -938.337 L -494.4941 -942.9296 L -502.7589 -946.848 L -511.2319 -950.5248 L -519.41 -953.6383 L -526.9665 -956.0921 L -536.8223 -958.7476 L -547.4921 -961.044 L -554.817 -962.3457 L -562.5098 -963.4414 L -573.2014 -964.4153 L -580.2186 -964.7447 L -584.5665 -964.8473 L -591.4804 -964.8679 L -598.7893 -964.7071 L -605.666 -964.3881 L -612.5532 -963.8928 L -619.896 -963.1446 L -624.2428 -962.5926 L -631.2417 -961.5301 L -633.8854 -961.0722 L -641.8883 -959.5238 L -647.7587 -958.2538 L -655.1261 -956.5623 L -661.2494 -955.1096 L -669.4559 -953.1005 L -675.8917 -951.4702 L -684.0059 -949.3355 L -691.263 -947.3197 L -699.7222 -944.8259 L -708.3496 -942.1232 L -717.6841 -939.023 L -724.9297 -936.4866 L -733.9594 -933.1496 L -749.4397 -926.9705 L -759.3208 -922.7188 L -768.6785 -918.4701 L -778.6878 -913.678 L -788.1401 -908.9147 L -796.4333 -904.5432 L -805.9282 -899.3154 L -813.6573 -894.8809 L -822.5814 -889.5546 L -832.6519 -883.2755 L -842.0196 -877.2231 L -851.7358 -870.8501 L -860.5414 -865.1308 L -869.5055 -859.4161 L -877.5349 -854.3764 L -883.7483 -850.4959 L -891.0399 -845.9252 L -897.1557 -842.0654 L -907.7745 -835.3771 L -914.1733 -831.4244 L -919.1225 -828.4154 L -924.1018 -825.4058 L -928.7147 -822.6411 L -932.8883 -820.1299 L -935.4182 -818.6015 L -939.3406 -816.1694 L -944.0533 -813.0398 L -949.6133 -808.7837 L -952.2698 -806.3309 L -954.6232 -803.6916 L -956.7256 -800.6816 L -958.448 -797.5251 L -959.8595 -794.2541 L -960.9739 -791.0716 L -962.0207 -787.5949 L -962.9115 -784.2254 L -963.4069 -782.0626 L -964.0935 -778.2841 L -964.5191 -774.5934 L -964.6968 -770.5421 L -964.6007 -766.5873 L -964.3185 -762.1863 L -964.0215 -758.2577 L -963.6649 -753.3204 L -963.3821 -748.9377 L -963.0434 -743.1427 L -962.7681 -738.0958 L -962.4028 -731.0365 L -962.1012 -724.8326 L -961.7372 -716.8547 L -961.4649 -710.4489 L -961.1182 -701.6992 L -960.8637 -694.7231 L -960.5627 -685.8009 L -960.3261 -678.2896 L -960.0248 -668.7376 L -959.68 -658.295 L -959.2765 -645.8434 L -958.9539 -635.2891 L -958.5174 -620.5578 L -958.34 -614.4872 L -958.1145 -606.7059 L -957.8327 -596.8342 L -957.632 -589.605 L -957.4072 -581.2212 L -957.2079 -573.4508 L -957.0125 -565.4307 L -956.8369 -557.9804 L -956.6586 -550.1737 L -956.5039 -543.0112 L -956.3604 -535.6305 L -956.2361 -528.8609 L -956.1362 -523.4712 L -956.0093 -517.0661 L -955.7963 -507.9177 L -955.6111 -502.3811 L -955.3638 -497.1744 L -955.0912 -492.9773" stroke-width="12" stroke="#4fafdf" fill="none" id="S2"/><path d="M -954.6224 -488.0009 L -954.1252 -484.2871 L -953.2768 -479.575 L -952.4071 -475.8845 L -951.2055 -471.9125 L -950.0708 -468.9708 L -948.4009 -465.5195 L -947.0003 -463.0985 L -945.7556 -461.1694 L -943.868 -458.5487 L -942.4013 -456.7272 L -940.2585 -454.3518 L -938.0687 -452.207 L -935.9417 -450.3855 L -933.4678 -448.521 L -929.6641 -446.08 L -924.7621 -443.5651 L -919.6925 -441.5519 L -913.8132 -439.8316 L -910.4288 -439.1124 L -906.6575 -438.5284 L -902.7304 -438.1412 L -898.6691 -437.9569 L -895.2332 -437.9554 L -891.2191 -438.0924 L -887.636 -438.3116 L -883.4647 -438.6524 L -880.0194 -438.9999 L -875.4348 -439.5413 L -871.8304 -440.0307 L -867.1646 -440.7395 L -861.8496 -441.6158 L -856.1638 -442.5834 L -850.4994 -443.5438 L -844.529 -444.5193 L -839.4521 -445.3054 L -832.5179 -446.2952 L -826.9933 -447.0072 L -819.9371 -447.815 L -814.0166 -448.406 L -806.5417 -449.0405 L -799.4233 -449.5271 L -791.3544 -449.9348 L -785.2468 -450.1403 L -777.83 -450.2636 L -771.443 -450.2553 L -763.8276 -450.0751 L -758.1101 -449.7826 L -750.7752 -449.1839 L -745.2806 -448.5564 L -738.247 -447.5151 L -734.5966 -446.8595 L -727.4501 -445.3427 L -722.4001 -444.0938 L -715.8853 -442.2971 L -709.3791 -440.337 L -705.4996 -439.1093 L -696.7277 -436.2139 L -689.7029 -433.7876 L -684.6192 -431.9754 L -677.2389 -429.2985 L -671.4528 -427.195 L -663.7005 -424.393 L -657.6397 -422.2177 L -649.5377 -419.3318 L -643.7018 -417.2683 L -635.2755 -414.3101 L -628.2003 -411.8467 L -619.4684 -408.832 L -612.7317 -406.5251 L -604.4642 -403.7201 L -597.3115 -401.3356 L -588.7275 -398.5638 L -582.7344 -396.6988 L -574.4101 -394.2084 L -566.499 -391.9975 L -553.507 -389.0428 L -540.7704 -387.2994 L -528.7191 -386.5055 L -522.839 -386.3165 L -515.96 -386.2752 L -511.0863 -386.3936 L -505.1433 -386.7145 L -499.2042 -387.2279 L -492.8841 -388.004 L -486.9245 -388.9746 L -480.9498 -390.1957 L -477.5717 -391.0006 L -471.494 -392.6295 L -465.2812 -394.4616 L -458.8939 -396.4412 L -451.8564 -398.6571 L -444.9698 -400.8037 L -439.1832 -402.529 L -431.3715 -404.6733 L -425.2298 -406.2017 L -417.0519 -408.0088 L -410.3167 -409.2493 L -402.7035 -410.3168 L -396.5987 -410.9063 L -389.1955 -411.3163 L -382.8236 -411.4274 L -375.665 -411.3349 L -369.9436 -411.1148 L -363.0177 -410.6778 L -356.2235 -410.0495 L -348.7343 -409.0886 L -342.172 -407.9859 L -334.8173 -406.4504 L -329.0155 -405.0331 L -321.8586 -403.0525 L -316.305 -401.3452 L -309.7855 -399.1608 L -302.2554 -396.4108 L -288.9914 -391.0864 L -281.3785 -387.8459 L -274.9979 -385.0875 L -266.8432 -381.5639 L -260.5796 -378.8778 L -251.9236 -375.1816 L -244.6815 -372.0793 L -235.5207 -368.1371 L -227.8825 -364.8356 L -218.2611 -360.6476 L -209.6772 -356.8757 L -199.0392 -352.1614 L -192.6675 -349.327 L -181.6432 -344.4196 L -173.7117 -340.8896 L -162.275 -335.7928 L -153.3789 -331.8014 L -142.2351 -326.7436 L -130.3253 -321.2558 L -118.3697 -315.6295 L -108.6526 -310.9242 L -97.0566 -305.1273 L -88.343 -300.6424 L -77.7863 -295.0673 L -66.7779 -289.0885 L -57.2344 -283.7582 L -46.6413 -277.631 L -36.3063 -271.3622 L -26.8186 -265.3326 L -16.9733 -258.8266 L -7.9143 -252.6155 L -.1593 -247.1092 L 9.0543 -240.3326 L 17.5388 -233.8955 L 26.4049 -227.0398 L 35.1779 -220.2203 L 43.9008 -213.4765 L 52.0686 -207.1899 L 60.2448 -200.8933 L 66.9585 -195.706 L 75.8523 -188.7873 L 82.7414 -183.3879 L 91.8765 -176.1961 L 98.9623 -170.6109 L 108.3679 -163.2007 L 115.6634 -157.4576 L 124.7678 -150.2966 L 132.8449 -143.9586 L 142.2128 -136.6482 L 149.9314 -130.6669 L 159.5604 -123.2359 L 169.9132 -115.2429 L 179.7581 -107.6183 L 190.3217 -99.4089 L 199.1326 -92.5399 L 209.2142 -84.6595 L 220.0558 -76.1655 L 229.7131 -68.5859 L 238.8308 -61.4187 L 248.7134 -53.6386 L 258.0413 -46.2843 L 269.5229 -37.2179 L 278.4217 -30.1801 L 289.5133 -21.3957 L 298.6401 -14.1569 L 310.7246 -4.5565 L 320.0816 2.8882 L 331.7264 12.1663 L 344.2564 22.1652 L 356.956 32.2906 L 366.7868 40.1074 L 379.7823 50.4315 L 390.5915 59.032 L 403.0604 68.9753 L 413.2786 77.1399 L 425.1686 86.6419 L 436.3734 95.5734 L 449.3008 105.8447 L 460.7112 114.9014 L 473.8419 125.3367 L 484.5598 133.8899 L 498.6342 145.1904 L 509.466 153.9128 L 523.7247 165.3813 L 534.7041 174.2066 L 549.1436 185.8346 L 559.3924 194.104 L 574.0152 205.8725 L 585.2953 214.8864 L 600.1725 226.7002 L 623.9986 245.6038 L 650.7428 266.8546 L 676.9092 287.5569" stroke-width="12" stroke="#f7d347" fill="none" id="S3"/></svg>