<svg class="track" xmlns="http://www.w3.org/2000/svg" preserveAspectRatio="xMinYMid meet" height="440" width="600" viewBox="-1000 -200 2200 1">
  <path d="m684.556 293.558 6.325 4.948 7.648 6.005 5.375 4.24 7.135 5.646 5.775 4.584 7.087 5.632 6.18 4.917 7.036 5.605 6.136 4.895 6.991 5.577 5.231 4.166 7.391 5.883 5.63 4.493 7.352 5.889 5.567 4.465L788.27 376l7.267 5.824 6.815 5.458 5.525 4.422 6.785 5.428 5.916 4.73 7.106 5.679 5.744 4.585 6.434 5.134 5.507 4.392 6.088 4.85 5.121 4.076 5.573 4.43 5.485 4.344 4.677 3.685 3.582 2.8 4.601 3.553 3.24 2.472 4.564 3.45 3.477 2.575 4.544 3.235 3.488 2.325 4.594 2.797 3.54 1.933 4.658 2.239 3.584 1.457 4.44 1.428 8.01 1.383 3.478.123 4.166-.16 3.512-.35 3.845-.603 2.993-.653 3.749-1.087 2.544-.925 3.26-1.439 2.539-1.337 3.014-1.858 1.845-1.283 2.937-2.251 2.379-1.985 3.11-2.781 2.575-2.428 2.96-2.913 2.408-2.478 2.944-3.197 3.095-3.567 3.093-3.714 2.556-3.157 2.924-3.72 2.56-3.357 2.945-3.965 2.415-3.321 3.212-4.492 3.098-4.368 3.187-4.478 3.488-4.86 3.405-4.698 1.961-2.691 4.013-5.49 3.655-5.002 3.963-5.443 3.083-4.253 4.091-5.677 4.137-5.812 3.689-5.234 2.993-4.247 4.573-6.438 3.378-4.691 4.498-6.162 3.484-4.717 4.581-6.156 3.766-5.037 4.548-6.048 3.172-4.202 4.167-5.499 4.329-5.71 7.366-9.75 4.018-5.345 3.406-4.546 6.195-8.287 5.265-7.003 4.914-6.464 4.358-5.7 3.99-5.28 3.6-4.931 3.137-4.666 2.538-4.242 1.048-1.947.675-1.355 1.013-2.256.666-1.715.69-2.117.478-1.865.406-2.151.187-1.37.21-2.385.051-1.303-.079-3.474-.274-2.513-.47-2.542-.537-2.06-.836-2.546-1.03-2.557-1.224-2.56-1.14-2.068-1.703-2.684-1.351-1.871-2.139-2.625-1.387-1.546-2.582-2.671-2.358-2.282-2.955-2.727-2.813-2.506-3.499-3.016-3.073-2.564-4.063-3.288-3.514-2.785-4.846-3.808-3.888-3.053-5.307-4.18-4.223-3.338-5.38-4.266-5.89-4.687-5.685-4.542-4.712-3.772-6.292-5.019-6.418-5.12-6.11-4.926-3.85-3.128-6.244-5.074-5.15-4.164-6.839-5.487-4.9-3.904-6.627-5.242-6.731-5.283-7.258-5.658-5.622-4.375-7.426-5.787-5.741-4.48-8.018-6.276-6.753-5.3-7.718-6.07-5.954-4.696-7.39-5.836-6.05-4.787-7.504-5.953-7.099-5.618-8.126-6.397-6.266-4.915-7.767-6.08L898-.878l-7.881-6.157-6.422-5.016-7.964-6.22-6.504-5.075-8.044-6.276-6.57-5.124-8.631-6.728-6.633-5.164-8.72-6.766-6.701-5.186-8.787-6.812-6.738-5.224-7.804-6.04-8.883-6.854-7.878-6.056-6.851-5.249-8.47-6.468-5.318-4.048-8.55-6.487-7.517-5.685-8.645-6.507-9.247-6.918-8.741-6.53-9.32-6.989-9.338-7.038-8.818-6.668-9.398-7.122-9.439-7.151-16.768-12.66-8.992-6.78-9.593-7.233-9.062-6.83-8.514-6.419-7.387-5.566-9.495-7.157-14.223-10.72-7.258-5.468-7.142-5.382-7.269-5.475-6.172-4.649-4.735-3.566-5.594-4.213-4.178-3.144-5.056-3.808-4.328-3.258-4.84-3.642-3.847-2.896-4.616-3.477-4.414-3.323-4.258-3.205-3.649-2.746-3.406-2.565-2.505-1.883-2.972-2.222-1.807-1.325-2.824-2.002-2.41-1.631-2.856-1.823-2.138-1.275-2.74-1.496-2.684-1.3-2.337-1.001-2.178-.816-2.684-.847-2.09-.523-2.776-.49-2.15-.223-2.682-.089-2.382.095-2.947.339-2.116.391-3.065.782-2.594.863-3.032 1.25-1.923.93-3.302 1.834-2.54 1.615-3.324 2.383-2.547 2.04-3.333 2.957-2.355 2.286-3.147 3.304-3.17 3.575-3.442 4.048-2.485 2.99-3.368 4.155-3.406 4.343-3.65 4.834-3.463 4.768-3.47 4.97-2.808 4.195-3.443 5.356-2.799 4.495-3.913 6.397-2.21 3.624-3.608 5.879-3.011 4.826-4.02 6.287-2.862 4.352-3.823 5.645-4.022 5.778-3.541 4.98-2.626 3.612-2.713 3.666-2.197 2.936-2.776 3.684-2.207 2.9-2.444 3.172-2.369 3.018-2.453 3.03-2.28 2.669-2.414 2.624-1.843 1.86-2.257 2.118-1.404 1.23-2.234 1.801-1.798 1.294-2.333 1.446-2.197 1.123-4.034 1.6-2.608.76-3.93.767-2.796.259-2.851.018-5.422-.579-5.725-1.516-3.267-1.296-3.757-1.85-2.767-1.58-3.717-2.346-6.274-4.313-7.313-5.344-4.278-3.27-4.723-3.728-4.92-4.008-4.522-3.763-5.347-4.507-5.603-4.726-5.866-4.919-5.744-4.798-6.312-5.271-6.502-5.44-6.7-5.6-6.495-5.399-6.686-5.515-5.575-4.539-7.461-5.949-11.62-8.868-14.089-9.934-12.836-8.351-13.724-8.395-7.268-4.307-7.094-4.187-11.863-6.98-10.082-5.823-4.917-2.788-5.342-2.99-3.806-2.079-5.226-2.726-3.466-1.689-4.806-2.129-6.738-2.443-7.315-1.795-6.3-.8-5.943.074-3.137.442-3.313.764-8.705 3.461-2.996 1.815-1.966 1.426-2.733 2.354-1.829 1.852-2.099 2.435-1.719 2.24-2.04 2.773-3.327 4.122-4.45 4.28-2.474 1.879-2.977 1.893-2.944 1.524-3.065 1.242-3.566 1.045-3.469.616-3.384.247-3.504-.096-3.842-.505-3.915-.924-3.752-1.223-4.078-1.61-3.98-1.71-3.373-1.47-4.347-1.865-7.845-3.31-9.394-4.092-9.817-4.4-11.027-5.041-12.792-5.936-12.442-5.8-13.174-6.083-7.577-3.454-7.796-3.521-15.194-6.778-15.369-6.79-7.65-3.344-7.8-3.38-9.665-4.157-9.277-3.965-17.853-7.555-10.362-4.305-9.886-4.047-8.088-3.285-9.867-4.004-8.335-3.398-8.95-3.653-7.286-2.956-8.264-3.31-5.89-2.332-6.724-2.667-5.037-2.023-5.763-2.345-4.732-1.945-5.353-2.218-7.52-3.152-7.331-3.226-6.242-3.05-5.76-3.39-2.812-2.12-2.53-2.495-1.88-2.56-1.472-2.868-1.011-2.901-.626-2.706-.323-2.167-.216-2.806-.004-2.136.213-2.607.386-2.276.668-2.607.543-1.642 1.078-2.644 1.08-2.175 1.716-2.899 1.67-2.44 2.166-2.844 1.953-2.356 2.796-3.151 2.48-2.678 3.004-3.173 2.586-2.669 3.372-3.385 6.632-6.412 6.934-6.52 8.183-7.648 8.105-7.569 8.81-8.227 4.829-4.543 5.092-4.878 4.615-4.524 4.509-4.52 3.688-3.786 3.294-3.457 2.988-3.199 2.665-2.896 2.045-2.249 2.375-2.643 1.677-1.887 1.969-2.24 1.518-1.742 1.87-2.173 1.346-1.58 1.548-1.866 1.168-1.458 1.34-1.747 1.332-1.83 1.197-1.748 1.426-2.253 1.075-1.864.636-1.193 1.846-4.1.463-1.294.621-2.114.502-2.33.299-2.017.249-2.625.11-2.139.047-2.778-.04-2.38-.16-3.3-.195-2.446-.424-3.615-.619-3.774-1.59-6.982-2.138-7.063-1.5-4.14-1.651-3.934-1.472-3.092-1.446-2.772-1.822-3.329-1.838-3.523-1.627-3.582-1.325-3.462-1.148-3.78-.823-3.866-.44-3.7-.104-3.978.246-3.774.569-3.765.72-3 2.238-5.905 1.869-3.516 1.618-2.596 2.307-3.33 1.85-2.537 2.404-3.39 1.763-2.688 2.045-3.428 1.538-2.876 1.763-3.82 1.094-2.927 1.013-3.585.566-3.073.306-3.663-.023-2.745-.313-3.508-.4-2.404-.79-3.312-1.033-3.22-2.13-5.029-1.586-3.002-1.475-2.441-2.175-3.195-1.988-2.632-2.482-3.03-2.362-2.706-3.083-3.388-2.506-2.672-3.463-3.597-2.793-2.816-3.625-3.51-4.089-3.756-4.342-3.76-3.49-2.862-4.794-3.764-3.838-2.922-5.567-4.184-4.212-3.145-9.253-6.872-5.799-4.299-4.87-3.608-6.2-4.588-5.6-4.124-7.007-5.154-5.51-4.066-7.397-5.473-5.812-4.292-6.884-5.056-8.515-6.197-8.29-5.972-6.497-4.637-8.184-5.79-8.383-5.857-9.12-6.27-8.75-5.932-16.649-11.06-10.022-6.449-9.429-5.87-7.195-4.318-9.389-5.391-8.737-4.735-9.047-4.593-8.265-3.918-8.473-3.677-8.178-3.113-7.557-2.454-9.855-2.656-10.67-2.296-7.325-1.302-7.693-1.095-10.691-.974-7.018-.33-4.347-.102-6.914-.02-7.31.16-6.876.319-6.887.495-7.343.748-4.347.552-6.999 1.063-2.643.458-8.003 1.548-5.87 1.27-7.368 1.692-6.123 1.452-8.207 2.01-6.436 1.63-8.114 2.135-7.257 2.015-8.46 2.494-8.627 2.703-9.334 3.1-7.246 2.536-9.03 3.337-15.48 6.18-9.88 4.251-9.358 4.249-10.01 4.792-9.452 4.763-8.293 4.372-9.495 5.228-7.73 4.434-8.923 5.326-10.07 6.28-9.369 6.052-9.716 6.373-8.805 5.72-8.964 5.714-8.03 5.04-6.213 3.88-7.292 4.57-6.116 3.86-10.619 6.689-6.398 3.953-4.95 3.009-4.979 3.01-4.613 2.764-4.173 2.511-2.53 1.529-3.923 2.432-4.712 3.13-5.56 4.255-2.657 2.453-2.353 2.64-2.103 3.01-1.722 3.156-1.412 3.27-1.114 3.183-1.047 3.477-.89 3.37-.496 2.162-.686 3.779-.426 3.69-.178 4.052.096 3.955.283 4.4.297 3.93.356 4.937.283 4.382.339 5.795.275 5.047.365 7.06.302 6.203.364 7.978.272 6.406.347 8.75.254 6.976.301 8.922.237 7.511.301 9.552.345 10.443.403 12.452.323 10.554.437 14.731.177 6.07.226 7.782.281 9.872.201 7.229.225 8.384.2 7.77.194 8.02.176 7.45.178 7.807.155 7.163.144 7.38.124 6.77.1 5.39.127 6.405.213 9.148.185 5.537.247 5.207.273 4.197.469 4.976.497 3.714.848 4.712.87 3.69 1.202 3.972 1.134 2.942 1.67 3.452 1.4 2.42 1.245 1.93 1.888 2.62 1.467 1.822 2.142 2.375 2.19 2.145 2.127 1.822 2.474 1.864 3.804 2.441 4.902 2.515 5.07 2.013 5.879 1.72 3.384.72 3.771.584 3.928.387 4.06.184 3.437.002 4.014-.137 3.583-.22 4.171-.34 3.446-.348 4.584-.541 3.605-.49 4.665-.709 5.315-.876 5.686-.967 5.665-.96 5.97-.976 5.077-.786 6.934-.99 5.525-.712 7.056-.808 5.92-.591 7.475-.635 7.119-.486 8.069-.408 6.107-.205 7.417-.124 6.387.009 7.615.18 5.718.292 7.335.6 5.494.627 7.034 1.04 3.65.656 7.147 1.517 5.05 1.25 6.515 1.796 6.506 1.96 3.88 1.228 8.771 2.895 7.025 2.426 5.084 1.813 7.38 2.677 5.786 2.103 7.752 2.802 6.061 2.175 8.102 2.886 5.836 2.064 8.427 2.958 7.075 2.463 8.732 3.015 6.736 2.307 8.268 2.805 7.153 2.384 8.584 2.772 5.993 1.865 8.324 2.49 7.911 2.212 12.992 2.954 12.737 1.744 12.05.793 5.881.19 6.879.04 4.874-.118 5.943-.32 5.939-.514 6.32-.776 5.96-.97 5.974-1.222 3.378-.805 6.078-1.629 6.213-1.832 6.387-1.98 7.038-2.215 6.886-2.147 5.787-1.725 7.811-2.144 6.142-1.529 8.178-1.807 6.735-1.24 7.613-1.068 6.105-.59 7.404-.41 6.371-.11 7.159.092 5.721.22 6.926.437 6.794.628 7.49.961 6.562 1.103 7.355 1.536 5.802 1.417 7.156 1.98 5.554 1.708 6.52 2.184 7.53 2.75 13.264 5.325 7.613 3.24 6.38 2.759 8.155 3.523 6.263 2.686 8.656 3.696 7.243 3.103 9.16 3.942 7.638 3.301 9.622 4.188 8.584 3.772 10.638 4.715 6.371 2.834 11.025 4.907 7.931 3.53 11.437 5.097 8.896 3.992 11.144 5.057 11.91 5.488 11.955 5.626 9.717 4.706 11.596 5.797 8.714 4.485 10.557 5.575 11.008 5.978 9.544 5.33 10.593 6.128 10.335 6.269 9.487 6.03 9.846 6.505 9.059 6.212 7.755 5.506 9.213 6.776 8.485 6.438 8.866 6.855 8.773 6.82 8.723 6.744 8.168 6.286 8.176 6.297 6.714 5.187 8.893 6.919 6.89 5.4 9.134 7.19 7.086 5.586 9.406 7.41 7.295 5.743 9.105 7.161 8.077 6.338 9.368 7.31 7.718 5.982 9.63 7.431 10.352 7.993 9.845 7.625 10.564 8.21 8.81 6.868 10.082 7.88 10.842 8.495 9.657 7.58 9.118 7.166 9.882 7.78 9.328 7.355 11.482 9.066 8.899 7.038 11.091 8.784 9.127 7.24 12.085 9.6 9.357 7.444 11.644 9.278 12.53 10 12.7 10.125 9.83 7.816 12.996 10.325 10.81 8.6 12.468 9.943 10.219 8.165 11.89 9.502 11.204 8.931 12.928 10.272 11.41 9.056 13.13 10.436 10.719 8.553 14.074 11.3 10.832 8.723 14.259 11.468 10.98 8.826 14.439 11.628 10.248 8.269 14.623 11.768 11.28 9.014 14.878 11.814 23.826 18.904 26.744 21.25 26.166 20.703z" stroke-width="28" stroke="#000" fill="none"/>
  <path d="m684.556 293.558 6.325 4.948 7.648 6.005 5.375 4.24 7.135 5.646 5.775 4.584 7.087 5.632 6.18 4.917 7.036 5.605 6.136 4.895 6.991 5.577 5.231 4.166 7.391 5.883 5.63 4.493 7.352 5.889 5.567 4.465L788.27 376l7.267 5.824 6.815 5.458 5.525 4.422 6.785 5.428 5.916 4.73 7.106 5.679 5.744 4.585 6.434 5.134 5.507 4.392 6.088 4.85 5.121 4.076 5.573 4.43 5.485 4.344 4.677 3.685 3.582 2.8 4.601 3.553 3.24 2.472 4.564 3.45 3.477 2.575 4.544 3.235 3.488 2.325 4.594 2.797 3.54 1.933 4.658 2.239 3.584 1.457 4.44 1.428 8.01 1.383 3.478.123 4.166-.16 3.512-.35 3.845-.603 2.993-.653 3.749-1.087 2.544-.925 3.26-1.439 2.539-1.337 3.014-1.858 1.845-1.283 2.937-2.251 2.379-1.985 3.11-2.781 2.575-2.428 2.96-2.913 2.408-2.478 2.944-3.197 3.095-3.567 3.093-3.714 2.556-3.157 2.924-3.72 2.56-3.357 2.945-3.965 2.415-3.321 3.212-4.492 3.098-4.368 3.187-4.478 3.488-4.86 3.405-4.698 1.961-2.691 4.013-5.49 3.655-5.002 3.963-5.443 3.083-4.253 4.091-5.677 4.137-5.812 3.689-5.234 2.993-4.247 4.573-6.438 3.378-4.691 4.498-6.162 3.484-4.717 4.581-6.156 3.766-5.037 4.548-6.048 3.172-4.202 4.167-5.499 4.329-5.71 7.366-9.75 4.018-5.345 3.406-4.546 6.195-8.287 5.265-7.003 4.914-6.464 4.358-5.7 3.99-5.28 3.6-4.931 3.137-4.666 2.538-4.242 1.048-1.947.675-1.355 1.013-2.256.666-1.715.69-2.117.478-1.865.406-2.151.187-1.37.21-2.385.051-1.303-.079-3.474-.274-2.513-.47-2.542-.537-2.06-.836-2.546-1.03-2.557-1.224-2.56-1.14-2.068-1.703-2.684-1.351-1.871-2.139-2.625-1.387-1.546-2.582-2.671-2.358-2.282-2.955-2.727-2.813-2.506-3.499-3.016-3.073-2.564-4.063-3.288-3.514-2.785-4.846-3.808-3.888-3.053-5.307-4.18-4.223-3.338-5.38-4.266-5.89-4.687-5.685-4.542-4.712-3.772-6.292-5.019-6.418-5.12-6.11-4.926-3.85-3.128-6.244-5.074-5.15-4.164-6.839-5.487-4.9-3.904-6.627-5.242-6.731-5.283-7.258-5.658-5.622-4.375-7.426-5.787-5.741-4.48-8.018-6.276-6.753-5.3-7.718-6.07-5.954-4.696-7.39-5.836-6.05-4.787-7.504-5.953-7.099-5.618-8.126-6.397-6.266-4.915-7.767-6.08L898-.878l-7.881-6.157-6.422-5.016-7.964-6.22-6.504-5.075-8.044-6.276-6.57-5.124-8.631-6.728-6.633-5.164-8.72-6.766-6.701-5.186-8.787-6.812-6.738-5.224-7.804-6.04-8.883-6.854-7.878-6.056-6.851-5.249-8.47-6.468-5.318-4.048-8.55-6.487-7.517-5.685-8.645-6.507-9.247-6.918-8.741-6.53-9.32-6.989-9.338-7.038-8.818-6.668-9.398-7.122-9.439-7.151-16.768-12.66-8.992-6.78-9.593-7.233-9.062-6.83-8.514-6.419-7.387-5.566-9.495-7.157-14.223-10.72-7.258-5.468-7.142-5.382-7.269-5.475-6.172-4.649-4.735-3.566-5.594-4.213-4.178-3.144-5.056-3.808-4.328-3.258-4.84-3.642-3.847-2.896-4.616-3.477-4.414-3.323-4.258-3.205-3.649-2.746-3.406-2.565-2.505-1.883-2.972-2.222-1.807-1.325-2.824-2.002-2.41-1.631-2.856-1.823-2.138-1.275-2.74-1.496-2.684-1.3-2.337-1.001-2.178-.816-2.684-.847-2.09-.523-2.776-.49-2.15-.223-2.682-.089-2.382.095-2.947.339-2.116.391-3.065.782-2.594.863-3.032 1.25-1.923.93-3.302 1.834-2.54 1.615-3.324 2.383-2.547 2.04-3.333 2.957-2.355 2.286-3.147 3.304-3.17 3.575-3.442 4.048-2.485 2.99-3.368 4.155-3.406 4.343-3.65 4.834-3.463 4.768-3.47 4.97-2.808 4.195-3.443 5.356-2.799 4.495-3.913 6.397-2.21 3.624-3.608 5.879-3.011 4.826-4.02 6.287-2.862 4.352-3.823 5.645-4.022 5.778-3.541 4.98-2.626 3.612-2.713 3.666-2.197 2.936-2.776 3.684-2.207 2.9-2.444 3.172-2.369 3.018-2.453 3.03-2.28 2.669-2.414 2.624-1.843 1.86-2.257 2.118-1.404 1.23-2.234 1.801-1.798 1.294-2.333 1.446-2.197 1.123-4.034 1.6-2.608.76-3.93.767-2.796.259-2.851.018-5.422-.579-5.725-1.516-3.267-1.296-3.757-1.85-2.767-1.58-3.717-2.346-6.274-4.313-7.313-5.344-4.278-3.27-4.723-3.728-4.92-4.008-4.522-3.763-5.347-4.507-5.603-4.726-5.866-4.919-5.744-4.798-6.312-5.271-6.502-5.44-6.7-5.6-6.495-5.399-6.686-5.515-5.575-4.539-7.461-5.949-11.62-8.868-14.089-9.934-12.836-8.351-13.724-8.395-7.268-4.307-7.094-4.187-11.863-6.98-10.082-5.823" stroke-width="12" stroke="#e73323" fill="none"/>
  <path d="m91.205-303.3-5.342-2.99-3.806-2.079-5.226-2.726-3.466-1.689-4.806-2.129-6.738-2.443-7.315-1.795-6.3-.8-5.943.074-3.137.442-3.313.764-8.705 3.461-2.996 1.815-1.966 1.426-2.733 2.354-1.829 1.852-2.099 2.435-1.719 2.24-2.04 2.773-3.327 4.122-4.45 4.28-2.474 1.879-2.977 1.893-2.944 1.524-3.065 1.242-3.566 1.045-3.469.616-3.384.247-3.504-.096-3.842-.505-3.915-.924-3.752-1.223-4.078-1.61-3.98-1.71-3.373-1.47-4.347-1.865-7.845-3.31-9.394-4.092-9.817-4.4-11.027-5.041-12.792-5.936-12.442-5.8-13.174-6.083-7.577-3.454-7.796-3.521-15.194-6.778-15.369-6.79-7.65-3.344-7.8-3.38-9.665-4.157-9.277-3.965-17.853-7.555-10.362-4.305-9.886-4.047-8.088-3.285-9.867-4.004-8.335-3.398-8.95-3.653-7.286-2.956-8.264-3.31-5.89-2.332-6.724-2.667-5.037-2.023-5.763-2.345-4.732-1.945-5.353-2.218-7.52-3.152-7.331-3.226-6.242-3.05-5.76-3.39-2.812-2.12-2.53-2.495-1.88-2.56-1.472-2.868-1.011-2.901-.626-2.706-.323-2.167-.216-2.806-.004-2.136.213-2.607.386-2.276.668-2.607.543-1.642 1.078-2.644 1.08-2.175 1.716-2.899 1.67-2.44 2.166-2.844 1.953-2.356 2.796-3.151 2.48-2.678 3.004-3.173 2.586-2.669 3.372-3.385 6.632-6.412 6.934-6.52 8.183-7.648 8.105-7.569 8.81-8.227 4.829-4.543 5.092-4.878 4.615-4.524 4.509-4.52 3.688-3.786 3.294-3.457 2.988-3.199 2.665-2.896 2.045-2.249 2.375-2.643 1.677-1.887 1.969-2.24 1.518-1.742 1.87-2.173 1.346-1.58 1.548-1.866 1.168-1.458 1.34-1.747 1.332-1.83 1.197-1.748 1.426-2.253 1.075-1.864.636-1.193 1.846-4.1.463-1.294.621-2.114.502-2.33.299-2.017.249-2.625.11-2.139.047-2.778-.04-2.38-.16-3.3-.195-2.446-.424-3.615-.619-3.774-1.59-6.982-2.138-7.063-1.5-4.14-1.651-3.934-1.472-3.092-1.446-2.772-1.822-3.329-1.838-3.523-1.627-3.582-1.325-3.462-1.148-3.78-.823-3.866-.44-3.7-.104-3.978.246-3.774.569-3.765.72-3 2.238-5.905 1.869-3.516 1.618-2.596 2.307-3.33 1.85-2.537 2.404-3.39 1.763-2.688 2.045-3.428 1.538-2.876 1.763-3.82 1.094-2.927 1.013-3.585.566-3.073.306-3.663-.023-2.745-.313-3.508-.4-2.404-.79-3.312-1.033-3.22-2.13-5.029-1.586-3.002-1.475-2.441-2.175-3.195-1.988-2.632-2.482-3.03-2.362-2.706-3.083-3.388-2.506-2.672-3.463-3.597-2.793-2.816-3.625-3.51-4.089-3.756-4.342-3.76-3.49-2.862-4.794-3.764-3.838-2.922-5.567-4.184-4.212-3.145-9.253-6.872-5.799-4.299-4.87-3.608-6.2-4.588-5.6-4.124-7.007-5.154-5.51-4.066-7.397-5.473-5.812-4.292-6.884-5.056-8.515-6.197-8.29-5.972-6.497-4.637-8.184-5.79-8.383-5.857-9.12-6.27-8.75-5.932-16.649-11.06-10.022-6.449-9.429-5.87-7.195-4.318-9.389-5.391-8.737-4.735-9.047-4.593-8.265-3.918-8.473-3.677-8.178-3.113-7.557-2.454-9.855-2.656-10.67-2.296-7.325-1.302-7.693-1.095-10.691-.974-7.018-.33-4.347-.102-6.914-.02-7.31.16-6.876.319-6.887.495-7.343.748-4.347.552-6.999 1.063-2.643.458-8.003 1.548-5.87 1.27-7.368 1.692-6.123 1.452-8.207 2.01-6.436 1.63-8.114 2.135-7.257 2.015-8.46 2.494-8.627 2.703-9.334 3.1-7.246 2.536-9.03 3.337-15.48 6.18-9.88 4.251-9.358 4.249-10.01 4.792-9.452 4.763-8.293 4.372-9.495 5.228-7.73 4.434-8.923 5.326-10.07 6.28-9.369 6.052-9.716 6.373-8.805 5.72-8.964 5.714-8.03 5.04-6.213 3.88-7.292 4.57-6.116 3.86-10.619 6.689-6.398 3.953-4.95 3.009-4.979 3.01-4.613 2.764-4.173 2.511-2.53 1.529-3.923 2.432-4.712 3.13-5.56 4.255-2.657 2.453-2.353 2.64-2.103 3.01-1.722 3.156-1.412 3.27-1.114 3.183-1.047 3.477-.89 3.37-.496 2.162-.686 3.779-.426 3.69-.178 4.052.096 3.955.283 4.4.297 3.93.356 4.937.283 4.382.339 5.795.275 5.047.365 7.06.302 6.203.364 7.978.272 6.406.347 8.75.254 6.976.301 8.922.237 7.511.301 9.552.345 10.443.403 12.452.323 10.554.437 14.731.177 6.07.226 7.782.281 9.872.201 7.229.225 8.384.2 7.77.194 8.02.176 7.45.178 7.807.155 7.163.144 7.38.124 6.77.1 5.39.127 6.405.213 9.148.185 5.537.247 5.207.273 4.197" stroke-width="12" stroke="#4fafdf" fill="none"/>
  <path d="m-954.622-488 .497 3.713.848 4.712.87 3.69 1.202 3.972 1.134 2.942 1.67 3.452 1.4 2.42 1.245 1.93 1.888 2.62 1.467 1.822 2.142 2.375 2.19 2.145 2.127 1.822 2.474 1.864 3.804 2.441 4.902 2.515 5.07 2.013 5.879 1.72 3.384.72 3.771.584 3.928.387 4.06.184 3.437.002 4.014-.137 3.583-.22 4.171-.34 3.446-.348 4.584-.541 3.605-.49 4.665-.709 5.315-.876 5.686-.967 5.665-.96 5.97-.976 5.077-.786 6.934-.99 5.525-.712 7.056-.808 5.92-.591 7.475-.635 7.119-.486 8.069-.408 6.107-.205 7.417-.124 6.387.009 7.615.18 5.718.292 7.335.6 5.494.627 7.034 1.04 3.65.656 7.147 1.517 5.05 1.25 6.515 1.796 6.506 1.96 3.88 1.228 8.771 2.895 7.025 2.426 5.084 1.813 7.38 2.677 5.786 2.103 7.752 2.802 6.061 2.175 8.102 2.886 5.836 2.064 8.427 2.958 7.075 2.463 8.732 3.015 6.736 2.307 8.268 2.805 7.153 2.384 8.584 2.772 5.993 1.865 8.324 2.49 7.911 2.212 12.992 2.954 12.737 1.744 12.05.793 5.881.19 6.879.04 4.874-.118 5.943-.32 5.939-.514 6.32-.776 5.96-.97 5.974-1.222 3.378-.805 6.078-1.629 6.213-1.832 6.387-1.98 7.038-2.215 6.886-2.147 5.787-1.725 7.811-2.144 6.142-1.529 8.178-1.807 6.735-1.24 7.613-1.068 6.105-.59 7.404-.41 6.371-.11 7.159.092 5.721.22 6.926.437 6.794.628 7.49.961 6.562 1.103 7.355 1.536 5.802 1.417 7.156 1.98 5.554 1.708 6.52 2.184 7.53 2.75 13.264 5.325 7.613 3.24 6.38 2.759 8.155 3.523 6.263 2.686 8.656 3.696 7.243 3.103 9.16 3.942 7.638 3.301 9.622 4.188 8.584 3.772 10.638 4.715 6.371 2.834 11.025 4.907 7.931 3.53 11.437 5.097 8.896 3.992 11.144 5.057 11.91 5.488 11.955 5.626 9.717 4.706 11.596 5.797 8.714 4.485 10.557 5.575 11.008 5.978 9.544 5.33 10.593 6.128 10.335 6.269 9.487 6.03 9.846 6.505 9.059 6.212 7.755 5.506 9.213 6.776 8.485 6.438 8.866 6.855 8.773 6.82 8.723 6.744 8.168 6.286 8.176 6.297 6.714 5.187 8.893 6.919 6.89 5.4 9.134 7.19 7.086 5.586 9.406 7.41 7.295 5.743 9.105 7.161 8.077 6.338 9.368 7.31 7.718 5.982 9.63 7.431 10.352 7.993 9.845 7.625 10.564 8.21 8.81 6.868 10.082 7.88 10.842 8.495 9.657 7.58 9.118 7.166 9.882 7.78 9.328 7.355 11.482 9.066 8.899 7.038 11.091 8.784 9.127 7.24 12.085 9.6 9.357 7.444 11.644 9.278 12.53 10 12.7 10.125 9.83 7.816 12.996 10.325 10.81 8.6 12.468 9.943 10.219 8.165 11.89 9.502 11.204 8.931 12.928 10.272 11.41 9.056 13.13 10.436 10.719 8.553 14.074 11.3 10.832 8.723 14.259 11.468 10.98 8.826 14.439 11.628 10.248 8.269 14.623 11.768 11.28 9.014 14.878 11.814 23.826 18.904 26.744 21.25 26.166 20.703" stroke-width="12" stroke="#f7d347" fill="none"/>
</svg>
