<svg class="track" xmlns="http://www.w3.org/2000/svg" preserveAspectRatio="xMinYMid meet" height="300" width="450" viewBox="-800 -580 1 800"><path d="m-397.749-505.195-12.223 2.848-10.846 2.524-10.814 2.556-9.433 2.285-12.1 3.01-10.73 2.74-11.391 2.96-11.387 2.99-18.762 4.931-19.51 5.13-15.535 4.096-11.504 3.035-13.45 3.549-10.608 2.798-10.958 2.892-9.881 2.615-5.974 1.587-24.964 6.87-8.534 2.686-7.535 2.653-7.035 2.792-6.843 3.117-5.822 3.07-8.966 5.905-4.03 3.409-3.285 3.272-2.905 3.35-2.53 3.42-1.9 3.04-1.809 3.511-1.277 3.092-1.12 3.548-.653 2.878-.552 3.765-.233 3.144-.011 3.659.261 3.187.728 3.964 1.008 3.42 1.322 3.353 1.398 2.927 1.862 3.379 1.873 3 4.986 6.677 2.985 3.378 3.319 3.555 3.27 3.679 3.077 3.908 2.18 3.153 2.581 4.349 2.147 4.326 1.877 4.561 1.306 3.86 1.423 5.532.701 4.081.5 5.436.092 4.234-.24 5.278-.428 4.008-.872 5.405-.713 3.412-1.586 6.208-1.371 4.534-2.07 6.025-2.441 6.483-2.3 5.88-1.91 4.874-2.208 5.738-1.847 5.071-2.05 6.314-1.553 5.577-1.584 6.84-.96 5.262-.878 6.516-.682 12.75.385 9.61 1.709 13.234 2.676 11.644 1.985 6.464 2.685 7.278 5.849 12.607 7.175 12.196 4.302 6.29 4.886 6.486 8.603 10.357 9.935 10.564 11.184 9.89 11.523 8.066 11.113 6.404 10.787 5.621 6.807 3.32 5.23 2.401 6.483 2.778 6.98 2.763 12.694 4.487 13.704 4.116 12.905 3.294 7.581 1.846 6.785 1.68 8.502 2.14 8.796 2.201 8.546 2.102 9.35 2.267 7.33 1.766 9.238 2.205 15.504 3.63 18.601 4.277 19.259 4.55 19.152 4.729 19.51 5.028 11.577 3.048 11.683 3.078 9.705 2.547 11.878 3.101 11.276 2.93 11.347 2.936 12.148 3.144 12.222 3.175 11.544 3.01 12.24 3.202 7.893 2.07 11.431 3.005 11.34 2.99 11.19 2.96 8.97 2.377 11.568 3.073 11.462 3.053 11.361 3.033 10.6 2.834 11.172 2.987 11.091 2.943 11.007 2.894 10.829 2.85 8.691 2.301 10.259 2.732 7.602 2.037 8.992 2.42 5.384 1.451 5.17 1.391 7.828 2.093 7.725 2.04 11.072 2.894 8.587 2.226 5.378 1.383 2.057.522 4.733 1.166 2.421.561 2.93.63 3.958.731 4.175.587 3.873.34 3.572.116 4.266-.164 3.203-.356 4.117-.74 3.82-.92 4.003-1.177 3.006-1.044 3.637-1.45 2.255-.996 3.822-1.873 2.896-1.598 2.856-1.743 3.203-2.19 3.448-2.704 2.517-2.216 3.149-3.064 3.004-3.227 2.868-3.398 2.715-3.58 2.407-3.529 2.397-3.91 3.503-6.809 3.052-7.83 2.466-8.639.936-4.074 1.092-5.07 1.075-5.199.976-5.017.911-5.136.816-5.247.565-4.33.534-5.7.201-4.34-.01-5.341-.22-4.715-.515-5.825-.606-4.876-.855-5.643-.83-4.642-1.296-6.194-.967-4.046-1.186-4.48-3.436-11.04-3.93-10.431-2.647-6.148-3.078-6.459-3.147-6.002-3.39-5.922-7.003-10.847-6.995-9.469-7.266-8.922-5.017-5.717-3.98-4.279-5.385-5.405-4.278-3.959-5.486-4.632-4.663-3.568-6.002-4.173-6.256-4.01-6.833-4.292-4.059-2.627-6.543-4.403-6.637-4.59-6.774-4.68-5.616-3.843-7.467-5.06-5.32-3.577-7.606-5.062-4.518-2.976-7.296-4.77-7.864-5.118-7.508-4.869-5.707-3.69-7.71-4.995-6.823-4.459-8.367-5.536-6.458-4.324-9.028-6.112-6.587-4.494-8.7-5.965-6.703-4.616-8.735-6.046-8.56-5.962-8.831-6.192-6.232-4.396-7.471-5.313-6.208-4.474-6.588-4.876-6.33-4.994-5.373-4.646-5.337-5.04-4.983-5.171-4.278-4.959-3.374-4.419-3.59-5.487-2.788-5.021-2.834-5.941-2.536-6.225-2.186-6.486-1.423-5.12-1.531-6.881-1.106-7.08-.72-12.866 1.006-13.12 1.255-7.012 1.763-6.961 2.438-7.285 3.02-7.12 3.367-6.513 4.118-6.679 4.662-6.392 5.167-6.08 5.263-5.438 5.622-5.153 4.827-3.935 6.24-4.473 4.026-2.544 6.557-3.597 5.79-2.637 7.066-2.62 5-1.549 7.065-1.942 4.147-1.081 6.643-1.729 7.096-1.795 6.751-1.555 7.266-1.48 7.347-1.304 6.835-1.046 6.677-.87 5.236-.58 6.245-.56 3.923-.25 4.658-.134 4.532.077 6.94.642 3.879.76 2.778.79 3.185 1.198 2.45 1.146 3.095 1.749 2.44 1.654 2.605 2.129 1.79 1.762 2.126 2.557 1.584 2.403 1.588 3.124 1.051 2.744.957 3.542.477 2.856.269 3.887-.097 3.321-.52 4.158-.775 3.487-1.277 4.006-1.435 3.499-2.06 4.244-2.257 4.296-2.29 4.426-2.07 4.336-1.471 3.363-1.88 4.79-1.308 3.865-1.28 4.592-.912 4.483-.518 4.11-.2 4.48.143 3.839.353 3.238 1.143 5.463 1.073 3.284 1.07 2.565 1.797 3.445 1.543 2.427 2.2 2.901 2.198 2.433 3.016 2.765 2.564 1.928 3.665 2.211 3.964 1.768 4.185 1.253 4.105.743 4.5.331 4.64-.117 7.881-1.13 8.561-2.517 8.594-3.642 8.301-4.522 8.435-5.762 8.333-6.843 4.2-3.784 3.969-3.715 4.585-4.462 4.059-4.087 5.012-5.148 4.57-4.635 9.761-9.242 10.495-8.872 11.034-8.157 9.91-6.205 10.71-5.662 10.751-4.829 6.507-2.528 6.113-2.066 6.368-1.782 5.997-1.263 5.052-.651 4.456-.254 3.565-.029 4.117.152 2.765.233 5.572.957 3.11.948 2.876 1.229 2.918 1.653 2.176 1.541 2.576 2.247 1.914 2.077 2.083 2.917 1.348 2.543 1.252 3.41.64 2.945.29 3.482-.162 3.647-.564 3.577-.83 3.207-1.335 3.728-1.884 3.975-2.378 3.933-2.869 3.84-3.114 3.51-3.69 3.659-3.984 3.705-3.96 3.6-4.433 3.923-4.405 3.743-4.067 3.293-4.878 3.755-5.357 3.972-5.289 3.933-5.069 3.955-3.963 3.33-3.494 3.16-4.043 3.99-3.947 4.38-2.954 3.728-3.058 4.39-2.973 4.871-2.744 5.096-1.948 4.048-2.34 5.478-1.622 4.328-1.87 5.831-1.221 4.585-1.222 5.78-.922 6.29-.482 6.04-.1 5.36.282 6.579.646 6.239 1.072 6.672 1.361 6.295 1.695 6.286 1.506 4.69 2.47 6.577 1.983 4.585 3.36 6.781 2.715 4.809 3.88 6.168 3.2 4.619 4.464 5.9 3.334 4.055 4.976 5.57 4.955 5.017 5.222 4.758 4.444 3.634 6.091 4.414 5.223 3.353 6.537 3.782 6.27 3.386 6.65 3.63 6.2 3.553 5.03 3.002 6.627 4.088 5.131 3.228 5.993 3.799 5.578 3.546 6.218 3.954 5.975 3.78 5.659 3.538 4.365 2.685 5.421 3.282 5.411 3.239 4.816 2.856 3.56 2.088 4.423 2.531 2.421 1.333 3.926 2.016 3.595 1.604 3.506 1.3 3.409.99 3.5.733 2.584.354 3.1.204 2.532-.003 3.198-.206 3.309-.448 3.39-.721 3.658-1.083 3.675-1.415 3.44-1.65 3.596-2.089 3.52-2.424 3.424-2.76 3.296-3.098 1.863-1.984 3.033-3.669 2.702-3.819 2.683-4.418 2.364-4.47 2.214-4.735 2.201-5.287 2.072-5.519 2.095-6.057 1.445-4.502 1.78-6.076 1.338-5.154 1.355-6.06.949-5.06 1.048-6.795.675-5.363.712-7.199.407-5.67.321-7.149.046-10.575-.301-8.008-.507-7.173-.801-7.746-.862-6.358-1.284-7.897-1.285-6.966-1.634-8.031-1.928-8.6-3.877-15.325-2.305-8.245-2.497-8.288-2.885-8.84-3.124-8.873-2.557-6.803-3.36-8.38-2.917-6.803-4.333-9.404-3.084-6.247-4.642-8.82-4.942-8.726-5.23-8.53-5.544-8.218-5.536-7.414-5.093-6.231-6.092-6.879-5.132-5.438-6.954-6.94-5.082-4.795-6.59-5.83-7.822-6.326-8.191-5.996-8.021-5.346-8.84-5.342-9.16-4.945-8.89-4.288-9.136-3.937-7.584-2.955-10.102-3.601-10.891-3.582-9.842-2.974-10.626-2.905-6.332-1.609-10.897-2.624-11.066-2.568-8.576-1.97-11.356-2.592-11.515-2.555-17.937-3.743-11.937-2.367-9.945-1.916-11.49-2.138-10.158-1.809-12.475-2.073-5.177-.804-12.643-1.798-6.738-.847-5.17-.59-12.59-1.198-26.444-1.4-9.494-.174-11.678.016-12.42.215-21.975.744-22.027 1.518-11.753 1.144-11.77 1.307-22.1 2.808-22.098 3.588-21.31 4.27-19.131 4.303-11.825 2.863-10.408 2.596-11.227 2.814-9.8 2.44-12.172 2.994-10.752 2.628-13.194 3.238-13.35 3.286-13.542 3.316-12.96 3.148z" stroke-width="28" stroke="#000" fill="none"/><path d="m-397.749-505.195-12.223 2.848-10.846 2.524-10.814 2.556-9.433 2.285-12.1 3.01-10.73 2.74-11.391 2.96-11.387 2.99-18.762 4.931-19.51 5.13-15.535 4.096-11.504 3.035-13.45 3.549-10.608 2.798-10.958 2.892-9.881 2.615-5.974 1.587-24.964 6.87-8.534 2.686-7.535 2.653-7.035 2.792-6.843 3.117-5.822 3.07-8.966 5.905-4.03 3.409-3.285 3.272-2.905 3.35-2.53 3.42-1.9 3.04-1.809 3.511-1.277 3.092-1.12 3.548-.653 2.878-.552 3.765-.233 3.144-.011 3.659.261 3.187.728 3.964 1.008 3.42 1.322 3.353 1.398 2.927 1.862 3.379 1.873 3 4.986 6.677 2.985 3.378 3.319 3.555 3.27 3.679 3.077 3.908 2.18 3.153 2.581 4.349 2.147 4.326 1.877 4.561 1.306 3.86 1.423 5.532.701 4.081.5 5.436.092 4.234-.24 5.278-.428 4.008-.872 5.405-.713 3.412-1.586 6.208-1.371 4.534-2.07 6.025-2.441 6.483-2.3 5.88-1.91 4.874-2.208 5.738-1.847 5.071-2.05 6.314-1.553 5.577-1.584 6.84-.96 5.262-.878 6.516-.682 12.75.385 9.61 1.709 13.234 2.676 11.644 1.985 6.464 2.685 7.278 5.849 12.607 7.175 12.196 4.302 6.29 4.886 6.486 8.603 10.357 9.935 10.564 11.184 9.89 11.523 8.066 11.113 6.404 10.787 5.621 6.807 3.32 5.23 2.401 6.483 2.778 6.98 2.763 12.694 4.487 13.704 4.116 12.905 3.294 7.581 1.846 6.785 1.68 8.502 2.14 8.796 2.201 8.546 2.102 9.35 2.267 7.33 1.766 9.238 2.205 15.504 3.63 18.601 4.277 19.259 4.55 19.152 4.729 19.51 5.028 11.577 3.048 11.683 3.078 9.705 2.547 11.878 3.101 11.276 2.93 11.347 2.936 12.148 3.144 12.222 3.175 11.544 3.01 12.24 3.202 7.893 2.07 11.431 3.005 11.34 2.99 11.19 2.96 8.97 2.377 11.568 3.073 11.462 3.053" stroke-width="12" stroke="#e73323" fill="none"/><path d="m-165.733 54.442 11.299 3.02 11.206 2.998 11.118 2.96 10.395 2.74 10.925 2.872 8.796 2.322 10.397 2.76 7.715 2.062 9.176 2.465 7.674 2.068 4.72 1.272 8.443 2.26 7.392 1.958 7.27 1.907 4.013 1.046 6.703 1.742 2.085.54 5.512 1.42 6.916 1.738 2.705.64 1.873.419 4.24.85 3.933.631 4.15.46 3.336.195 4.3-.024 3.477-.276 3.902-.591 4.082-.89 3.788-1.036 3.265-1.055 3.434-1.292 2.26-.946 3.832-1.78 3.132-1.641 3.317-1.948 2.81-1.843 3.319-2.46 5.783-5.139 3.06-3.163 2.926-3.323 2.779-3.506 2.47-3.462 2.467-3.843L72.82 55.8l1.613-3.173 1.795-4.045 1.4-3.673 1.421-4.34 1.097-3.912 1.178-4.896.906-4.142 1.082-5.145 1.056-5.279.939-5.092.855-5.205 1.236-10 .382-9.685-.525-10.136-1.311-10.46-2.033-11.095-2.03-8.49-1.703-6.022-1.565-4.957-2.296-6.55-1.48-3.87-2.56-6.17-2.797-6.106-3.042-6.037-3.284-5.958-3.753-6.233-3.052-4.693-3.973-5.681-3.127-4.203-4.342-5.539-2.808-3.425-4.646-5.419-4.221-4.658-4.993-5.17-4.2-4.047-5.375-4.748-4.562-3.661-6.25-4.534-6.172-4.057-6.777-4.25-4.047-2.574-6.519-4.313-6.595-4.531-6.718-4.654-5.572-3.827-6.98-4.75-5.747-3.877-7.128-4.768-6.299-4.165-5.453-3.573-7.814-5.093-7.463-4.847-13.81-8.937-14.64-9.584-15.418-10.34-15.73-10.736-6.685-4.596-8.764-6.053-8.13-5.649-8.924-6.24-6.777-4.768-7.566-5.36-5.918-4.237-6.832-4.981-6.622-5.058-5.926-4.937-5.46-4.998-4.826-4.822-4.725-5.23-7.106-9.498-3.122-5.27-2.783-5.49-2.659-6.11-2.338-6.381-1.536-5.047-1.689-6.796-1.29-7.003-.855-7.608-.255-5.592.131-6.96.474-5.692 1.118-7.456 1.57-6.985 2.233-7.333 2.634-6.765 3.358-7.002 3.923-6.772 4.195-6.123 4.966-6.21 5.1-5.558 5.466-5.281 4.703-4.065 6.104-4.66 3.963-2.686 6.505-3.86 5.77-2.873 7.05-2.872 5.415-1.806 6.658-1.918 5.81-1.533 4.98-1.296 7.073-1.824 7.137-1.717 7.234-1.542 6.894-1.292 7.32-1.19 6.736-.935 5.34-.634 6.152-.61 4.486-.344 4.886-.217 4.38-.006 4.64.226 2.462.246 3.988.638 3.08.753 3.084 1.033 2.503 1.06 3.146 1.632 2.493 1.557 2.7 2.02 2.025 1.824 2.242 2.47 1.585 2.168 1.735 3.029 1.166 2.668 1.105 3.45.634 3.007.4 3.6.049 3.268-.336 4.106-.616 3.464-1.178 4.25-1.21 3.255-1.93 4.242-2.195 4.266-2.298 4.363-2.115 4.261-2.002 4.433-1.503 3.677-1.694 4.728-1.147 3.813-1.066 4.528-.692 4.414-.326 4.285.025 4.14.239 3.056 1.01 5.793.975 3.344 2.555 5.895 3.623 5.582 4.79 5.164 6.186 4.512 3.633 1.837 4.1 1.464 4.04.925 4.443.526 4.583.062 4.435-.335 3.667-.551 4.556-1.04 3.997-1.22 4.57-1.696 3.728-1.603 4.883-2.392 3.72-2.057 4.54-2.812 3.65-2.521 4.733-3.615 3.607-2.988 4.462-3.933 3.663-3.372 4.85-4.642 3.749-3.723 5.263-5.376 4.505-4.612 5.006-4.957 4.248-4.005 5.796-5.163 4.922-4.13 6.053-4.762 4.627-3.388 6.035-4.067 4.243-2.623 5.678-3.227 4.622-2.42 6.185-2.987 4.457-1.986 6.454-2.63 6.522-2.343 6.05-1.835 6.196-1.493 5.632-.913 4.674-.38 7.617-.025 6.647.607 2.746.523 2.394.646 3.146 1.182 2.785 1.422 2.703 1.768 2.293 1.86 2.442 2.47 1.823 2.358 2.856 5.664.851 3.098.439 3.216.022 3.58-.427 3.744-.634 2.951-1.238 3.936-1.6 3.743-2.174 3.958-2.668 3.883-3.142 3.77-3.339 3.462-3.879 3.67-4.118 3.776-4.089 3.661-4.58 3.962-3.688 3.052-5.08 3.995-6.266 4.682-5.317 3.937-4.82 3.71-4.02 3.308-2.745 2.41-4.421 4.188-4.08 4.327-3.692 4.486-2.557 3.532-2.89 4.502-2.836 5.005-4.458 9.373-3.692 10.014-2.756 10.604-1.012 5.868-.676 6.368-.225 4.95.103 6.547.53 6.614.868 6.266 1.3 6.684 1.462 5.902 1.51 5.095 2.184 6.22 2.03 4.996 3.016 6.45 2.585 4.849 3.73 6.224 3.095 4.665 4.335 5.967 3.523 4.448 4.87 5.644 4.857 5.105 5.12 4.86 4.362 3.735 5.621 4.294 5.134 3.477 6.457 3.904 6.625 3.65 6.67 3.596 6.218 3.5 6.187 3.647 5.051 3.087" stroke-width="12" stroke="#4fafdf" fill="none"/><path d="m185.044-166.22 5.159 3.259 6.403 4.066 5.52 3.51 6.127 3.89 5.486 3.459 5.538 3.44 4.592 2.803 5.3 3.191 4.99 2.978 8.51 4.993 6.617 3.653 3.651 1.788 3.563 1.49 3.683 1.248 3.363.859 5.988.866 5.457.031 3.24-.293 3.345-.547 3.626-.891 3.67-1.217 3.457-1.456 3.635-1.887 3.566-2.228 3.484-2.562 3.18-2.717 5.247-5.491 2.8-3.599 2.637-3.945 2.618-4.543 2.447-4.867 2.15-4.841 2.144-5.387 2.032-5.604 2.055-6.138 1.41-4.569 1.714-6.156 1.184-4.846 1.352-6.519.877-5.123.968-6.885.615-5.428.63-7.308.317-5.292.247-7.673-.113-10.67-.387-7.588-.648-7.692-.667-5.832-1.214-8.339-1.103-6.435-1.524-7.987-1.7-8.055-2.121-9.132-1.803-7.148-2.066-7.703-2.375-8.266-2.743-8.818-2.984-8.854-3.028-8.363-2.625-6.804-3.679-8.902-3.012-6.8-4.21-8.868-3.435-6.758-4.769-8.792-4.756-8.16-5.661-8.918-5.683-8.07-10.5-12.973-11.393-12.178-12.216-11.623-7.162-6.116-7.977-6.191-8.336-5.862-8.148-5.217-8.973-5.18-8.73-4.51-9.554-4.405-8.655-3.562-8.241-3.081-10.172-3.503-10.348-3.305-10.523-3.058-8.8-2.33-8.27-2.05-10.318-2.44-20.41-4.697-10.745-2.434-12.262-2.674-18.042-3.695-21.995-4.245-21.763-3.88-10.31-1.661-4.445-.675-12.652-1.754-12.641-1.462-12.574-1.111-5.156-.353-21.258-.891-10.95-.125-12.412.11-12.429.27-9.522.303-12.467.59-9.542.642-12.489 1.075-11.025 1.146-12.511 1.438-9.578 1.2-11.795 1.644-10.313 1.645-11.772 2.127-10.286 2.051-11.755 2.508-6.617 1.48-12.538 2.942-9.623 2.363-11.92 2.985-21.103 5.255-23.786 5.825-13.253 3.258-13.426 3.3-12.825 3.13-13.87 3.361-10.788 2.612" stroke-width="12" stroke="#f7d347" fill="none"/></svg>