<?xml version="1.0" standalone="no"?>
<svg xmlns:xlink="http://www.w3.org/1999/xlink" id="s2" class="track" xmlns="http://www.w3.org/2000/svg" preserveAspectRatio="xMinYMid meet" height="800px" width="600px" viewBox="-1200 -700 3000 3000">
            <path d="M -397.7486 -505.1949 L -409.9716 -502.3469 L -420.8179 -499.8233 L -431.6322 -497.2667 L -441.0647 -494.9823 L -453.1646 -491.9712 L -463.8955 -489.2313 L -475.286 -486.2725 L -486.6732 -483.2825 L -505.4348 -478.3507 L -524.9453 -473.2207 L -540.4802 -469.1248 L -551.9841 -466.0897 L -565.4348 -462.5412 L -576.042 -459.743 L -586.9997 -456.8511 L -596.8815 -454.2359 L -602.8549 -452.6495 L -627.8193 -445.7784 L -636.3531 -443.0932 L -643.8882 -440.4403 L -650.9227 -437.6482 L -657.766 -434.5308 L -663.5878 -431.461 L -672.5538 -425.5558 L -676.5841 -422.1472 L -679.8686 -418.8745 L -682.7745 -415.5241 L -685.3041 -412.1044 L -687.2032 -409.0649 L -689.0125 -405.554 L -690.2903 -402.4624 L -691.4094 -398.9141 L -692.0631 -396.0355 L -692.6151 -392.2705 L -692.8476 -389.1265 L -692.8594 -385.4681 L -692.5978 -382.2807 L -691.8702 -378.3171 L -690.8619 -374.8979 L -689.5397 -371.5435 L -688.1416 -368.6167 L -686.2802 -365.238 L -684.4073 -362.2384 L -679.4211 -355.5608 L -676.4359 -352.183 L -673.1172 -348.6276 L -669.8477 -344.949 L -666.7698 -341.0408 L -664.5901 -337.8878 L -662.0087 -333.5395 L -659.8622 -329.2126 L -657.9852 -324.652 L -656.6788 -320.7916 L -655.2563 -315.2603 L -654.5547 -311.1786 L -654.0542 -305.7433 L -653.9628 -301.5086 L -654.2034 -296.231 L -654.6305 -292.2227 L -655.5032 -286.818 L -656.2162 -283.4058 L -657.8024 -277.1979 L -659.1735 -272.6642 L -661.2427 -266.6389 L -663.6844 -260.1558 L -665.9838 -254.276 L -667.8945 -249.4019 L -670.1019 -243.6641 L -671.9493 -238.5927 L -673.9997 -232.2793 L -675.5519 -226.7024 L -677.1359 -219.8625 L -678.0959 -214.6003 L -678.9742 -208.0838 L -679.656 -195.3348 L -679.2709 -185.7242 L -677.5623 -172.4901 L -674.886 -160.8465 L -672.9014 -154.3822 L -670.216 -147.1045 L -664.3673 -134.4971 L -657.1915 -122.3012 L -652.89 -116.0112 L -648.004 -109.5249 L -639.4013 -99.1678 L -629.4658 -88.6038 L -618.2822 -78.714 L -606.7591 -70.6483 L -595.6458 -64.2443 L -584.8591 -58.6225 L -578.0525 -55.3023 L -572.8217 -52.9016 L -566.3389 -50.1242 L -559.3593 -47.3608 L -546.6647 -42.8742 L -532.9613 -38.7578 L -520.0556 -35.4641 L -512.4749 -33.6182 L -505.6898 -31.9381 L -497.188 -29.7987 L -488.3919 -27.5969 L -479.8458 -25.4951 L -470.4954 -23.2278 L -463.1667 -21.4625 L -453.9279 -19.2566 L -438.4236 -15.6277 L -419.8225 -11.3495 L -400.5641 -6.7999 L -381.4117 -2.0712 L -361.9016 2.9571 L -350.3255 6.0055 L -338.6419 9.0832 L -328.9368 11.6298 L -317.0588 14.7311 L -305.7832 17.6605 L -294.4356 20.5971 L -282.2879 23.7411 L -270.0661 26.9157 L -258.5218 29.9259 L -246.2812 33.1281 L -238.3886 35.1981 L -226.9579 38.2034 L -215.6174 41.1938 L -204.4275 44.1526 L -195.4589 46.5295 L -183.8903 49.6029 L -172.4281 52.6557 L -161.0667 55.6887 L -150.4662 58.5235 L -139.2949 61.5099 L -128.204 64.4525 L -117.197 67.3467 L -106.3683 70.1974 L -97.6769 72.498 L -87.4182 75.2299 L -79.816 77.2667 L -70.8237 79.687 L -65.4396 81.1385 L -60.27 82.5295 L -52.4416 84.6216 L -44.7166 86.6623 L -33.6448 89.5556 L -25.0576 91.7822 L -19.68 93.1647 L -17.6232 93.6867 L -12.8896 94.8532 L -10.4689 95.4143 L -7.5389 96.0432 L -3.5806 96.775 L .5941 97.362 L 4.4669 97.7023 L 8.0389 97.8179 L 12.3054 97.6543 L 15.5082 97.298 L 19.6247 96.5576 L 23.4454 95.6387 L 27.4479 94.4606 L 30.4545 93.4173 L 34.0908 91.9679 L 36.3458 90.9711 L 40.1684 89.0979 L 43.0636 87.5002 L 45.9197 85.7568 L 49.1234 83.5672 L 52.5714 80.8625 L 55.088 78.6469 L 58.2368 75.5835 L 61.2407 72.3558 L 64.1093 68.9583 L 66.8236 65.3781 L 69.2309 61.849 L 71.6276 57.9395 L 75.1306 51.1302 L 78.1832 43.3003 L 80.6488 34.6611 L 81.5852 30.5875 L 82.6769 25.5166 L 83.752 20.3181 L 84.7278 15.301 L 85.6393 10.1647 L 86.4549 4.9181 L 87.0201 .5884 L 87.5542 -5.1118 L 87.7554 -9.4524 L 87.7444 -14.7933 L 87.5254 -19.5084 L 87.0097 -25.3329 L 86.4042 -30.2087 L 85.5489 -35.8518 L 84.7191 -40.494 L 83.4233 -46.6883 L 82.456 -50.7344 L 81.2705 -55.2142 L 77.8337 -66.2541 L 73.9045 -76.6851 L 71.2565 -82.833 L 68.1793 -89.2919 L 65.0317 -95.2943 L 61.6418 -101.2163 L 54.6386 -112.0628 L 47.6435 -121.5318 L 40.3778 -130.4539 L 35.3606 -136.1706 L 31.3806 -140.4497 L 25.9962 -145.8554 L 21.7183 -149.8139 L 16.2317 -154.4455 L 11.569 -158.0137 L 5.5673 -162.1875 L -.6893 -166.1979 L -7.5216 -170.4889 L -11.581 -173.1163 L -18.1235 -177.5186 L -24.7612 -182.1095 L -31.5352 -186.7893 L -37.1515 -190.6317 L -44.6178 -195.6927 L -49.9385 -199.2689 L -57.5436 -204.331 L -62.0615 -207.307 L -69.358 -212.077 L -77.2223 -217.195 L -84.7295 -222.0635 L -90.4367 -225.7543 L -98.1469 -230.7494 L -104.9701 -235.2077 L -113.3372 -240.7435 L -119.7951 -245.0683 L -128.8226 -251.1803 L -135.4104 -255.6745 L -144.1101 -261.6389 L -150.8134 -266.2554 L -159.5483 -272.3015 L -168.1082 -278.2627 L -176.9394 -284.455 L -183.1707 -288.8511 L -190.6422 -294.1643 L -196.8497 -298.6381 L -203.4382 -303.514 L -209.7685 -308.5077 L -215.1413 -313.1541 L -220.4777 -318.1934 L -225.461 -323.3652 L -229.7394 -328.3235 L -233.1135 -332.7428 L -236.7039 -338.2299 L -239.491 -343.2511 L -242.3254 -349.1921 L -244.8611 -355.4169 L -247.0473 -361.9034 L -248.4695 -367.0224 L -250.0013 -373.9043 L -251.1068 -380.9848 L -251.8272 -393.8499 L -250.8213 -406.9698 L -249.5658 -413.9822 L -247.8034 -420.9433 L -245.3649 -428.2281 L -242.3443 -435.3475 L -238.9784 -441.8606 L -234.8601 -448.5396 L -230.1981 -454.9316 L -225.0309 -461.0128 L -219.7676 -466.45 L -214.1462 -471.6026 L -209.319 -475.5382 L -203.0787 -480.0106 L -199.0534 -482.5551 L -192.4957 -486.1517 L -186.7062 -488.7893 L -179.6402 -491.4088 L -174.6405 -492.9579 L -167.5749 -494.9 L -163.4279 -495.9813 L -156.7846 -497.7096 L -149.6893 -499.5046 L -142.938 -501.0604 L -135.6718 -502.5396 L -128.3246 -503.8437 L -121.4901 -504.8904 L -114.8133 -505.7603 L -109.5769 -506.3395 L -103.3323 -506.9003 L -99.4087 -507.1501 L -94.7514 -507.2838 L -90.2185 -507.2075 L -83.2792 -506.5652 L -79.4002 -505.8047 L -76.6224 -505.0153 L -73.437 -503.8166 L -70.9878 -502.6708 L -67.8916 -500.922 L -65.4525 -499.2681 L -62.8471 -497.1391 L -61.0568 -495.3769 L -58.931 -492.8204 L -57.3471 -490.417 L -55.7591 -487.2934 L -54.7079 -484.5488 L -53.7509 -481.0067 L -53.2735 -478.1512 L -53.005 -474.2637 L -53.1019 -470.9426 L -53.6215 -466.7853 L -54.3966 -463.2979 L -55.6741 -459.2919 L -57.109 -455.793 L -59.1685 -451.5493 L -61.4262 -447.253 L -63.7163 -442.8266 L -65.7867 -438.4906 L -67.2571 -435.1282 L -69.1371 -430.3387 L -70.4453 -426.4734 L -71.7251 -421.8806 L -72.6365 -417.3979 L -73.1553 -413.288 L -73.3559 -408.8075 L -73.2121 -404.969 L -72.859 -401.7312 L -71.716 -396.2684 L -70.643 -392.9838 L -69.5731 -390.4185 L -67.7764 -386.9739 L -66.2325 -384.5471 L -64.0339 -381.6457 L -61.8354 -379.2132 L -58.8188 -376.4481 L -56.255 -374.5201 L -52.5905 -372.3089 L -48.626 -370.5415 L -44.4412 -369.288 L -40.3362 -368.545 L -35.8363 -368.2138 L -31.1957 -368.3313 L -23.3148 -369.4602 L -14.7538 -371.9778 L -6.1596 -375.6203 L 2.1412 -380.1416 L 10.5763 -385.9044 L 18.9089 -392.7472 L 23.1097 -396.5305 L 27.0776 -400.2464 L 31.6635 -404.7084 L 35.7218 -408.7955 L 40.7339 -413.9426 L 45.304 -418.5783 L 55.0652 -427.82 L 65.5599 -436.6923 L 76.5938 -444.8489 L 86.5048 -451.0539 L 97.2139 -456.7158 L 107.9654 -461.545 L 114.4717 -464.0729 L 120.585 -466.1394 L 126.9527 -467.9207 L 132.9501 -469.1841 L 138.0023 -469.8353 L 142.4581 -470.0894 L 146.0233 -470.1178 L 150.1396 -469.9662 L 152.9045 -469.7327 L 158.4773 -468.7762 L 161.5876 -467.8283 L 164.463 -466.5992 L 167.3809 -464.9456 L 169.5566 -463.4047 L 172.1327 -461.1577 L 174.0471 -459.0815 L 176.1301 -456.1641 L 177.478 -453.6207 L 178.7305 -450.2106 L 179.3707 -447.2656 L 179.6604 -443.7838 L 179.4979 -440.1367 L 178.9335 -436.5605 L 178.1046 -433.3532 L 176.7694 -429.6248 L 174.8853 -425.6498 L 172.5072 -421.7169 L 169.6384 -417.8763 L 166.5245 -414.3679 L 162.8342 -410.7081 L 158.8503 -407.0035 L 154.8898 -403.4032 L 150.4568 -399.4796 L 146.0518 -395.7371 L 141.9846 -392.4443 L 137.1071 -388.6892 L 131.7497 -384.7168 L 126.4612 -380.7843 L 121.3924 -376.8292 L 117.4292 -373.4993 L 113.935 -370.3398 L 109.8921 -366.3499 L 105.9452 -361.9681 L 102.9913 -358.2407 L 99.9334 -353.8508 L 96.9598 -348.9796 L 94.2158 -343.8835 L 92.2678 -339.8355 L 89.9281 -334.3579 L 88.3058 -330.0301 L 86.4351 -324.1989 L 85.215 -319.6136 L 83.9929 -313.8336 L 83.0714 -307.5437 L 82.5888 -301.5036 L 82.4884 -296.1447 L 82.771 -289.5652 L 83.4174 -283.3262 L 84.489 -276.6537 L 85.8501 -270.3592 L 87.5454 -264.0729 L 89.0512 -259.3833 L 91.5213 -252.8059 L 93.5042 -248.2207 L 96.8637 -241.4397 L 99.5788 -236.6311 L 103.4597 -230.4632 L 106.6586 -225.8444 L 111.1229 -219.9443 L 114.4565 -215.8893 L 119.4331 -210.319 L 124.3881 -205.3018 L 129.6101 -200.5443 L 134.0544 -196.9102 L 140.1453 -192.496 L 145.3678 -189.1434 L 151.9049 -185.3614 L 158.1741 -181.9746 L 164.8242 -178.3447 L 171.0242 -174.7915 L 176.0556 -171.79 L 182.6824 -167.7019 L 187.8133 -164.4735 L 193.8055 -160.6751 L 199.3839 -157.1287 L 205.6021 -153.1754 L 211.5773 -149.3941 L 217.2357 -145.8568 L 221.6013 -143.1717 L 227.0224 -139.8895 L 232.4332 -136.6513 L 237.2486 -133.7949 L 240.8085 -131.7071 L 245.2324 -129.1757 L 247.6531 -127.8428 L 251.5787 -125.827 L 255.1741 -124.2231 L 258.6799 -122.9229 L 262.089 -121.9329 L 265.5893 -121.1997 L 268.1733 -120.8464 L 271.2732 -120.6418 L 273.8047 -120.6451 L 277.0027 -120.8512 L 280.3118 -121.2987 L 283.7014 -122.0204 L 287.3595 -123.1033 L 291.0347 -124.5177 L 294.4744 -126.1671 L 298.0708 -128.257 L 301.5901 -130.6808 L 305.0147 -133.4403 L 308.3109 -136.5391 L 310.1739 -138.5232 L 313.2071 -142.1917 L 315.9088 -146.0107 L 318.5916 -150.4288 L 320.9556 -154.8991 L 323.1701 -159.6337 L 325.3712 -164.9211 L 327.4429 -170.4397 L 329.5382 -176.4973 L 330.9825 -180.9994 L 332.7625 -187.0745 L 334.1009 -192.2287 L 335.4556 -198.2898 L 336.4047 -203.3486 L 337.4531 -210.1443 L 338.128 -215.5072 L 338.8398 -222.7056 L 339.2465 -228.3755 L 339.5685 -235.525 L 339.6144 -246.0995 L 339.313 -254.1076 L 338.806 -261.2812 L 338.005 -269.027 L 337.1434 -275.3852 L 335.8587 -283.2819 L 334.5737 -290.2478 L 332.9401 -298.2791 L 331.0125 -306.8787 L 327.1352 -322.2038 L 324.8299 -330.4491 L 322.3327 -338.7372 L 319.448 -347.577 L 316.3235 -356.4501 L 313.7674 -363.2533 L 310.4072 -371.6321 L 307.4896 -378.4361 L 303.1572 -387.8396 L 300.0729 -394.0868 L 295.4306 -402.9069 L 290.4891 -411.6334 L 285.2597 -420.1622 L 279.7147 -428.3813 L 274.1791 -435.7949 L 269.0855 -442.026 L 262.9938 -448.905 L 257.8616 -454.3427 L 250.9078 -461.2825 L 245.8255 -466.0783 L 239.2359 -471.9086 L 231.4136 -478.2341 L 223.2227 -484.23 L 215.2018 -489.576 L 206.3614 -494.918 L 197.2014 -499.8626 L 188.3112 -504.151 L 179.1763 -508.0876 L 171.592 -511.043 L 161.4896 -514.6443 L 150.599 -518.2264 L 140.7568 -521.2001 L 130.1306 -524.1055 L 123.7992 -525.7136 L 112.9016 -528.3376 L 101.8365 -530.9062 L 93.2605 -532.8769 L 81.9039 -535.4677 L 70.389 -538.0226 L 52.4524 -541.7665 L 40.5149 -544.1334 L 30.5705 -546.0486 L 19.0809 -548.1865 L 8.9223 -549.9959 L -3.5525 -552.069 L -8.7304 -552.8728 L -21.3729 -554.6708 L -28.111 -555.5179 L -33.2806 -556.1086 L -45.8713 -557.306 L -72.3152 -558.7062 L -81.8091 -558.8799 L -93.4868 -558.8638 L -105.9067 -558.6486 L -127.882 -557.9046 L -149.9086 -556.3874 L -161.662 -555.2429 L -173.4315 -553.9363 L -195.5327 -551.1282 L -217.63 -547.54 L -238.9409 -543.2704 L -258.0711 -538.9666 L -269.8962 -536.1039 L -280.3044 -533.5081 L -291.5305 -530.6937 L -301.3318 -528.2535 L -313.5026 -525.2603 L -324.2545 -522.6316 L -337.4487 -519.3936 L -350.7987 -516.1078 L -364.3408 -512.7917 L -377.3007 -509.6441 z" stroke-width="28" stroke="black" fill="none" id="Track"/><path d="M -397.7486 -505.1949 L -409.9716 -502.3469 L -420.8179 -499.8233 L -431.6322 -497.2667 L -441.0647 -494.9823 L -453.1646 -491.9712 L -463.8955 -489.2313 L -475.286 -486.2725 L -486.6732 -483.2825 L -505.4348 -478.3507 L -524.9453 -473.2207 L -540.4802 -469.1248 L -551.9841 -466.0897 L -565.4348 -462.5412 L -576.042 -459.743 L -586.9997 -456.8511 L -596.8815 -454.2359 L -602.8549 -452.6495 L -627.8193 -445.7784 L -636.3531 -443.0932 L -643.8882 -440.4403 L -650.9227 -437.6482 L -657.766 -434.5308 L -663.5878 -431.461 L -672.5538 -425.5558 L -676.5841 -422.1472 L -679.8686 -418.8745 L -682.7745 -415.5241 L -685.3041 -412.1044 L -687.2032 -409.0649 L -689.0125 -405.554 L -690.2903 -402.4624 L -691.4094 -398.9141 L -692.0631 -396.0355 L -692.6151 -392.2705 L -692.8476 -389.1265 L -692.8594 -385.4681 L -692.5978 -382.2807 L -691.8702 -378.3171 L -690.8619 -374.8979 L -689.5397 -371.5435 L -688.1416 -368.6167 L -686.2802 -365.238 L -684.4073 -362.2384 L -679.4211 -355.5608 L -676.4359 -352.183 L -673.1172 -348.6276 L -669.8477 -344.949 L -666.7698 -341.0408 L -664.5901 -337.8878 L -662.0087 -333.5395 L -659.8622 -329.2126 L -657.9852 -324.652 L -656.6788 -320.7916 L -655.2563 -315.2603 L -654.5547 -311.1786 L -654.0542 -305.7433 L -653.9628 -301.5086 L -654.2034 -296.231 L -654.6305 -292.2227 L -655.5032 -286.818 L -656.2162 -283.4058 L -657.8024 -277.1979 L -659.1735 -272.6642 L -661.2427 -266.6389 L -663.6844 -260.1558 L -665.9838 -254.276 L -667.8945 -249.4019 L -670.1019 -243.6641 L -671.9493 -238.5927 L -673.9997 -232.2793 L -675.5519 -226.7024 L -677.1359 -219.8625 L -678.0959 -214.6003 L -678.9742 -208.0838 L -679.656 -195.3348 L -679.2709 -185.7242 L -677.5623 -172.4901 L -674.886 -160.8465 L -672.9014 -154.3822 L -670.216 -147.1045 L -664.3673 -134.4971 L -657.1915 -122.3012 L -652.89 -116.0112 L -648.004 -109.5249 L -639.4013 -99.1678 L -629.4658 -88.6038 L -618.2822 -78.714 L -606.7591 -70.6483 L -595.6458 -64.2443 L -584.8591 -58.6225 L -578.0525 -55.3023 L -572.8217 -52.9016 L -566.3389 -50.1242 L -559.3593 -47.3608 L -546.6647 -42.8742 L -532.9613 -38.7578 L -520.0556 -35.4641 L -512.4749 -33.6182 L -505.6898 -31.9381 L -497.188 -29.7987 L -488.3919 -27.5969 L -479.8458 -25.4951 L -470.4954 -23.2278 L -463.1667 -21.4625 L -453.9279 -19.2566 L -438.4236 -15.6277 L -419.8225 -11.3495 L -400.5641 -6.7999 L -381.4117 -2.0712 L -361.9016 2.9571 L -350.3255 6.0055 L -338.6419 9.0832 L -328.9368 11.6298 L -317.0588 14.7311 L -305.7832 17.6605 L -294.4356 20.5971 L -282.2879 23.7411 L -270.0661 26.9157 L -258.5218 29.9259 L -246.2812 33.1281 L -238.3886 35.1981 L -226.9579 38.2034 L -215.6174 41.1938 L -204.4275 44.1526 L -195.4589 46.5295 L -183.8903 49.6029 L -172.4281 52.6557" stroke-width="12" stroke="#e73323" fill="none" id="S1"/><path d="M -165.7327 54.4423 L -154.4343 57.462 L -143.228 60.4596 L -132.11 63.4202 L -121.7152 66.1599 L -110.7896 69.0317 L -101.994 71.3537 L -91.597 74.1148 L -83.8818 76.1761 L -74.7061 78.641 L -67.0319 80.7092 L -62.3123 81.9806 L -53.8692 84.2419 L -46.4766 86.1993 L -39.2066 88.1058 L -35.1941 89.1523 L -28.4912 90.8935 L -26.4055 91.4336 L -20.8941 92.8543 L -13.978 94.5916 L -11.2725 95.2316 L -9.4002 95.6509 L -5.1592 96.5016 L -1.2268 97.1325 L 2.9223 97.5914 L 6.2586 97.7868 L 10.5595 97.7631 L 14.0363 97.487 L 17.938 96.8955 L 22.0195 96.0053 L 25.8082 94.97 L 29.0733 93.9146 L 32.5071 92.6234 L 34.7675 91.6767 L 38.5987 89.8977 L 41.7313 88.256 L 45.0476 86.3078 L 47.8574 84.4653 L 51.1767 82.0052 L 56.9601 76.866 L 60.0199 73.7032 L 62.9458 70.38 L 65.725 66.874 L 68.1954 63.4117 L 70.6618 59.5685 L 72.8202 55.8014 L 74.4327 52.6284 L 76.2281 48.5826 L 77.6289 44.9101 L 79.0493 40.5706 L 80.1462 36.6581 L 81.3239 31.7621 L 82.2297 27.6198 L 83.3119 22.4746 L 84.368 17.196 L 85.307 12.1037 L 86.1619 6.8986 L 87.3981 -3.1019 L 87.7797 -12.786 L 87.2547 -22.9221 L 85.9435 -33.3818 L 83.9113 -44.4772 L 81.8803 -52.9675 L 80.1779 -58.9892 L 78.6133 -63.9456 L 76.317 -70.4968 L 74.8368 -74.3664 L 72.2769 -80.5354 L 69.4798 -86.6416 L 66.4379 -92.6791 L 63.1543 -98.6366 L 59.4015 -104.8704 L 56.3488 -109.5627 L 52.3764 -115.2441 L 49.2492 -119.4472 L 44.9071 -124.9856 L 42.0987 -128.4113 L 37.4532 -133.8297 L 33.232 -138.488 L 28.2392 -143.6581 L 24.0392 -147.705 L 18.6636 -152.4527 L 14.1025 -156.114 L 7.8514 -160.6477 L 1.6798 -164.7051 L -5.0973 -168.9552 L -9.1437 -171.5289 L -15.6627 -175.8417 L -22.2579 -180.3731 L -28.9763 -185.027 L -34.5475 -188.8543 L -41.5283 -193.6046 L -47.2745 -197.4813 L -54.4031 -202.2487 L -60.7018 -206.4138 L -66.1552 -209.987 L -73.9692 -215.0801 L -81.4324 -219.9274 L -95.2427 -228.8643 L -109.8822 -238.4483 L -125.2996 -248.7872 L -141.0295 -259.5235 L -147.715 -264.1195 L -156.4787 -270.1727 L -164.6099 -275.8217 L -173.5328 -282.0613 L -180.3095 -286.8297 L -187.8762 -292.1903 L -193.7936 -296.4267 L -200.6263 -301.4081 L -207.248 -306.4664 L -213.1736 -311.4033 L -218.6335 -316.4008 L -223.4599 -321.2233 L -228.1851 -326.4537 L -235.2909 -335.9514 L -238.4131 -341.2215 L -241.1957 -346.7104 L -243.8547 -352.8201 L -246.1931 -359.2025 L -247.7292 -364.249 L -249.418 -371.0447 L -250.7079 -378.0477 L -251.5628 -385.6557 L -251.8175 -391.2477 L -251.687 -398.2081 L -251.2127 -403.9 L -250.0953 -411.3562 L -248.5247 -418.3412 L -246.2922 -425.6741 L -243.658 -432.4388 L -240.2996 -439.441 L -236.3766 -446.2132 L -232.1822 -452.3361 L -227.2158 -458.5467 L -222.116 -464.1042 L -216.6501 -469.3853 L -211.9471 -473.4502 L -205.843 -478.1103 L -201.8797 -480.7956 L -195.375 -484.6557 L -189.6042 -487.5291 L -182.5548 -490.4005 L -177.1403 -492.2073 L -170.4821 -494.125 L -164.672 -495.6576 L -159.6924 -496.9539 L -152.6192 -498.7778 L -145.4816 -500.4951 L -138.2482 -502.0374 L -131.3538 -503.3288 L -124.0338 -504.5195 L -117.2985 -505.4536 L -111.9578 -506.0876 L -105.8059 -506.6972 L -101.3202 -507.0415 L -96.4338 -507.2588 L -92.054 -507.2647 L -87.4144 -507.0388 L -84.9519 -506.7929 L -80.9637 -506.1546 L -77.8841 -505.4021 L -74.7999 -504.3689 L -72.2974 -503.3082 L -69.1513 -501.6768 L -66.658 -500.1198 L -63.9571 -498.1003 L -61.9328 -496.2756 L -59.6906 -493.8055 L -58.1065 -491.6375 L -56.3715 -488.609 L -55.2051 -485.9408 L -54.1003 -482.4915 L -53.4656 -479.4836 L -53.0652 -475.884 L -53.017 -472.6158 L -53.3527 -468.5105 L -53.9688 -465.0465 L -55.1468 -460.7958 L -56.3573 -457.5411 L -58.2869 -453.2988 L -60.4824 -449.0332 L -62.78 -444.6702 L -64.8947 -440.409 L -66.8973 -435.9764 L -68.4002 -432.299 L -70.0944 -427.5712 L -71.2406 -423.7585 L -72.3068 -419.2299 L -72.9986 -414.8164 L -73.3249 -410.5314 L -73.2996 -406.3915 L -73.0611 -403.3352 L -72.0504 -397.5416 L -71.0761 -394.1975 L -68.5214 -388.3025 L -64.8978 -382.7211 L -60.1073 -377.5574 L -53.9215 -373.0448 L -50.2886 -371.2076 L -46.1886 -369.7444 L -42.1497 -368.8193 L -37.7062 -368.293 L -33.1226 -368.2314 L -28.6882 -368.5657 L -25.021 -369.117 L -20.4649 -370.1577 L -16.4684 -371.3772 L -11.8981 -373.0729 L -8.1697 -374.676 L -3.2875 -377.068 L .433 -379.1247 L 4.9739 -381.9365 L 8.6235 -384.458 L 13.3562 -388.073 L 16.9633 -391.0611 L 21.4247 -394.9935 L 25.088 -398.3663 L 29.9375 -403.0083 L 33.6866 -406.7313 L 38.9496 -412.1074 L 43.4546 -416.7194 L 48.461 -421.6765 L 52.7094 -425.681 L 58.5051 -430.844 L 63.4271 -434.9735 L 69.4797 -439.7359 L 74.1073 -443.1241 L 80.1416 -447.1915 L 84.3855 -449.8138 L 90.0634 -453.0412 L 94.6854 -455.4615 L 100.8704 -458.4478 L 105.3273 -460.4337 L 111.7806 -463.0649 L 118.3032 -465.4066 L 124.3533 -467.2417 L 130.5494 -468.7345 L 136.1808 -469.648 L 140.8552 -470.0287 L 148.4724 -470.0531 L 155.1186 -469.4459 L 157.8655 -468.9227 L 160.2595 -468.2775 L 163.4051 -467.0948 L 166.1905 -465.6735 L 168.8932 -463.9054 L 171.1856 -462.0452 L 173.6279 -459.5747 L 175.4513 -457.2169 L 178.3068 -451.5531 L 179.158 -448.4553 L 179.5968 -445.2386 L 179.619 -441.6582 L 179.1922 -437.9151 L 178.5583 -434.9638 L 177.3195 -431.0278 L 175.7203 -427.2852 L 173.5464 -423.327 L 170.8784 -419.4444 L 167.736 -415.6736 L 164.397 -412.212 L 160.5182 -408.5424 L 156.3996 -404.7664 L 152.3111 -401.1048 L 147.7316 -397.1434 L 144.0431 -394.0908 L 138.9624 -390.096 L 132.697 -385.4143 L 127.3801 -381.4767 L 122.5601 -377.7662 L 118.5407 -374.4585 L 115.7946 -372.0497 L 111.3736 -367.8607 L 107.2949 -363.5338 L 103.6015 -359.0482 L 101.0453 -355.5156 L 98.1556 -351.0139 L 95.3187 -346.0087 L 90.8613 -336.6358 L 87.169 -326.6225 L 84.4128 -316.0181 L 83.4013 -310.1498 L 82.7249 -303.7815 L 82.5002 -298.8319 L 82.6027 -292.2848 L 83.133 -285.6714 L 84.0008 -279.4054 L 85.3008 -272.7206 L 86.7626 -266.8189 L 88.2724 -261.7239 L 90.4575 -255.5032 L 92.4871 -250.5083 L 95.5027 -244.0585 L 98.0883 -239.2094 L 101.8189 -232.9855 L 104.9127 -228.3198 L 109.2476 -222.3526 L 112.7708 -217.9053 L 117.6415 -212.2608 L 122.4977 -207.1563 L 127.6185 -202.296 L 131.9796 -198.5606 L 137.6013 -194.2667 L 142.7347 -190.7899 L 149.1922 -186.8862 L 155.8171 -183.2366 L 162.4862 -179.6401 L 168.7046 -176.1407 L 174.8921 -172.4929 L 179.9434 -169.4065" stroke-width="12" stroke="#4fafdf" fill="none" id="S2"/><path d="M 185.0442 -166.2203 L 190.2029 -162.961 L 196.6064 -158.8953 L 202.1262 -155.3842 L 208.2529 -151.4944 L 213.7386 -148.0365 L 219.2771 -144.596 L 223.8692 -141.7927 L 229.1683 -138.6017 L 234.1596 -135.6241 L 242.6695 -130.6309 L 249.2862 -126.9778 L 252.9374 -125.1898 L 256.4996 -123.6998 L 260.1831 -122.4525 L 263.5458 -121.5933 L 269.5341 -120.7274 L 274.9908 -120.6957 L 278.2313 -120.9892 L 281.5759 -121.5358 L 285.2024 -122.4272 L 288.8722 -123.6443 L 292.3293 -125.1 L 295.9635 -126.9865 L 299.5301 -129.2147 L 303.0139 -131.7767 L 306.1938 -134.4942 L 311.4409 -139.985 L 314.2403 -143.5839 L 316.8778 -147.5293 L 319.4956 -152.0721 L 321.9427 -156.9394 L 324.0939 -161.7805 L 326.2366 -167.167 L 328.2687 -172.7707 L 330.3241 -178.9085 L 331.7332 -183.4776 L 333.448 -189.6344 L 334.6322 -194.4799 L 335.9837 -200.9989 L 336.8613 -206.1221 L 337.8289 -213.0075 L 338.4441 -218.4353 L 339.0743 -225.7426 L 339.3914 -231.0347 L 339.638 -238.7078 L 339.5245 -249.3776 L 339.1377 -256.9658 L 338.4901 -264.6582 L 337.8227 -270.4895 L 336.6087 -278.8286 L 335.5063 -285.2636 L 333.9816 -293.2508 L 332.2826 -301.3058 L 330.1606 -310.4375 L 328.3584 -317.5862 L 326.2918 -325.289 L 323.9167 -333.5554 L 321.1744 -342.3731 L 318.1899 -351.2268 L 315.1621 -359.5897 L 312.5368 -366.3938 L 308.858 -375.2958 L 305.8465 -382.0953 L 301.6354 -390.9643 L 298.201 -397.7221 L 293.4322 -406.5137 L 288.6762 -414.6743 L 283.015 -423.5916 L 277.3323 -431.6615 L 266.8312 -444.635 L 255.4392 -456.8126 L 243.2232 -468.4355 L 236.0609 -474.5522 L 228.0837 -480.7433 L 219.748 -486.6051 L 211.6004 -491.8219 L 202.6271 -497.0027 L 193.8963 -501.512 L 184.3433 -505.9167 L 175.6877 -509.4787 L 167.447 -512.56 L 157.2749 -516.0631 L 146.9272 -519.368 L 136.404 -522.4263 L 127.6035 -524.7567 L 119.3343 -526.8068 L 109.0161 -529.2458 L 88.6056 -533.9433 L 77.8605 -536.3768 L 65.5986 -539.0506 L 47.5569 -542.7463 L 25.5618 -546.9905 L 3.7991 -550.8702 L -6.5102 -552.5324 L -10.9563 -553.2073 L -23.6076 -554.9611 L -36.249 -556.4227 L -48.8227 -557.5344 L -53.9792 -557.8867 L -75.2372 -558.7783 L -86.1877 -558.903 L -98.5989 -558.7938 L -111.0277 -558.5228 L -120.5504 -558.2202 L -133.0171 -557.6299 L -142.5593 -556.9884 L -155.0477 -555.9131 L -166.0735 -554.7672 L -178.584 -553.3294 L -188.1622 -552.1296 L -199.9568 -550.4848 L -210.2697 -548.8404 L -222.0421 -546.7126 L -232.3276 -544.6616 L -244.083 -542.1545 L -250.6999 -540.6744 L -263.2379 -537.732 L -272.8612 -535.3686 L -284.7814 -532.3841 L -305.8842 -527.1295 L -329.6699 -521.3045 L -342.9229 -518.046 L -356.3489 -514.7455 L -369.174 -511.6151 L -383.0438 -508.2545 L -393.8317 -505.6429" stroke-width="12" stroke="#f7d347" fill="none" id="S3"/></svg>