<?xml version="1.0" standalone="no"?>
<svg xmlns:xlink="http://www.w3.org/1999/xlink" id="s2" class="track" xmlns="http://www.w3.org/2000/svg" preserveAspectRatio="xMinYMid meet" height="800px" width="600px" viewBox="-1200 -700 3000 3000">
            <path d="M 321.1435 157.3271 L 309.7634 157.3159 L 290.6067 157.2615 L 280.2864 157.2132 L 269.2689 157.1508 L 258.8246 157.105 L 246.9987 157.0991 L 238.4076 157.123 L 228.4408 157.1726 L 220.4254 157.229 L 208.3368 157.3269 L 199.5562 157.383 L 187.9982 157.4231 L 179.7923 157.4408 L 168.7618 157.4563 L 157.5962 157.4504 L 146.3022 157.4165 L 136.9875 157.3788 L 125.3895 157.3428 L 115.1092 157.3371 L 101.7091 157.3745 L 92.664 157.4254 L 80.4767 157.5187 L 69.6928 157.6158 L 56.4341 157.7382 L 46.1732 157.8276 L 32.5618 157.9345 L 21.1835 158.0131 L 7.1667 158.0967 L -3.7048 158.1518 L -18.1142 158.2127 L -32.6544 158.2621 L -47.2201 158.308 L -60.9443 158.368 L -74.6575 158.4623 L -86.6612 158.5781 L -101.2383 158.7463 L -111.5261 158.8517 L -126.1002 158.9412 L -133.8115 158.9693 L -147.5203 159.0411 L -162.0813 159.1982 L -175.8048 159.403 L -186.1267 159.5616 L -200.771 159.7574 L -212.8317 159.867 L -226.5918 159.9096 L -237.739 159.8918 L -253.0503 159.8765 L -267.2501 159.9377 L -280.9843 160.0493 L -294.0329 160.181 L -315.4513 160.3871 L -334.7649 160.4881 L -352.5995 160.6262 L -366.8597 160.8185 L -375.2889 160.9502 L -381.4872 161.0403 L -389.3935 161.1238 L -395.8733 161.1626 L -403.77 161.1943 L -410.7412 161.2244 L -417.6159 161.2611 L -425.6107 161.3137 L -432.0118 161.3638 L -438.5072 161.4215 L -443.8566 161.471 L -449.5195 161.508 L -453.4253 161.5154 L -458.457 161.4942 L -461.969 161.4369 L -465.7107 161.3075 L -469.8089 161.0606 L -473.3858 160.7555 L -476.3146 160.4443 L -480.166 159.9202 L -483.7858 159.2452 L -487.4101 158.365 L -490.3613 157.4776 L -494.1856 156.0747 L -497.0798 154.8116 L -500.8222 152.9108 L -503.8486 151.1274 L -507.2121 148.8383 L -510.0419 146.6164 L -512.9323 144.0091 L -515.8382 140.9698 L -518.5386 137.6812 L -521.1498 133.9324 L -523.4842 129.9427 L -525.4346 125.9859 L -527.2664 121.5721 L -528.8439 116.9518 L -530.9266 108.6563 L -532.4766 100.0199 L -534.0727 90.9294 L -535.8762 82.0986 L -538.3483 72.7256 L -541.5993 64.3379 L -543.834 59.9791 L -546.5338 55.5717 L -549.3696 51.5941 L -552.6684 47.5296 L -556.2307 43.5856 L -559.7965 39.9634 L -562.6079 37.3179 L -566.7737 33.7386 L -570.3597 31.0166 L -574.6325 28.1941 L -577.9567 26.2812 L -582.8414 23.8582 L -586.7322 22.1939 L -591.6783 20.3149 L -597.1179 18.4403 L -602.7336 16.6034 L -608.1586 14.8672 L -614.0628 13.0344 L -619.7318 11.3283 L -625.8158 9.4581 L -631.8973 7.4255 L -637.926 5.1541 L -643.5247 2.7632 L -649.3391 -.0942 L -654.9556 -3.3447 L -665.0556 -10.8678 L -668.7239 -14.2207 L -673.071 -18.5469 L -676.4845 -22.192 L -680.7858 -27.1309 L -683.9417 -31.0309 L -687.866 -36.306 L -690.8783 -40.8138 L -693.8466 -45.8167 L -696.3392 -50.6451 L -698.7013 -55.9638 L -700.5148 -60.6771 L -702.3634 -66.2069 L -703.7656 -71.0713 L -705.2335 -77.1353 L -706.1946 -82.12 L -707.0654 -88.3096 L -707.5992 -94.5478 L -707.8015 -100.8172 L -707.7234 -105.9223 L -707.3333 -112.2073 L -706.9324 -116.128 L -705.9931 -122.7788 L -705.0481 -127.8384 L -703.5046 -134.4082 L -701.9611 -139.7619 L -699.8817 -145.7929 L -697.4621 -151.7037 L -694.7043 -157.4807 L -691.4242 -163.4579 L -687.8137 -169.2691 L -684.1572 -174.5989 L -680.0286 -180.1184 L -675.924 -185.1775 L -671.3314 -190.3948 L -666.4818 -195.4124 L -662.2801 -199.3529 L -657.2359 -203.6036 L -651.6042 -207.7975 L -646.0865 -211.4659 L -641.4818 -214.2913 L -635.6961 -217.6084 L -630.9122 -220.1879 L -624.5524 -223.4084 L -619.9877 -225.5624 L -613.799 -228.2652 L -608.2499 -230.4973 L -601.6808 -232.9316 L -594.8576 -235.2199 L -587.7905 -237.3274 L -581.872 -238.8943 L -573.9233 -240.7393 L -567.6844 -241.9953 L -560.3272 -243.2789 L -551.793 -244.532 L -544.0967 -245.474 L -535.1998 -246.3737 L -526.6762 -247.0621 L -519.6687 -247.4977 L -510.4255 -247.8925 L -502.7455 -248.0849 L -493.8993 -248.1879 L -486.6588 -248.2024 L -477.1219 -248.1477 L -469.7817 -248.0687 L -461.2578 -247.9699 L -451.5355 -247.8805 L -442.3334 -247.8148 L -434.8144 -247.7619 L -425.5049 -247.7016 L -417.3099 -247.6802 L -408.491 -247.7156 L -400.813 -247.8018 L -391.3256 -247.9819 L -384.1864 -248.1711 L -374.6452 -248.4788 L -366.9302 -248.7248 L -357.2673 -248.9358 L -350.3588 -248.9811 L -342.4705 -248.9263 L -330.7609 -248.7239 L -324.8332 -248.5806 L -319.4755 -248.3746 L -309.6804 -247.6111 L -299.7317 -246.0349 L -290.1104 -243.4399 L -280.5516 -239.4864 L -276.0598 -237.0626 L -271.2649 -233.999 L -266.8414 -230.6468 L -262.8191 -227.0487 L -259.9877 -224.1318 L -256.6761 -220.1862 L -254.4645 -217.109 L -252.1035 -213.274 L -250.4493 -210.1332 L -248.6016 -205.9929 L -247.2951 -202.5149 L -245.9713 -198.2067 L -245.1778 -194.8478 L -244.5122 -190.9084 L -244.1332 -187.1604 L -243.995 -182.5381 L -244.1969 -177.8343 L -244.7149 -173.0535 L -245.4894 -168.5115 L -246.5649 -163.9537 L -247.6688 -160.2517 L -249.2973 -155.7134 L -250.8349 -152.0493 L -252.1539 -149.255 L -253.5913 -146.4896 L -255.1458 -143.7571 L -258.0545 -139.2013 L -260.5034 -135.8097 L -263.7653 -131.7436 L -266.1543 -129.0213 L -269.595 -125.4167 L -273.487 -121.7291 L -277.8557 -118.0143 L -282.4544 -114.5482 L -287.5716 -111.1871 L -291.4082 -108.9618 L -296.8854 -106.1439 L -301.2667 -104.1579 L -306.7236 -101.9878 L -312.3074 -100.0768 L -317.6656 -98.4961 L -323.448 -97.034 L -329.3173 -95.8033 L -334.9038 -94.9171 L -340.5431 -94.3389 L -346.2214 -94.0781 L -351.2061 -94.0793 L -357.2728 -94.2597 L -361.9138 -94.4615 L -367.6367 -94.7516 L -372.2912 -95.046 L -378.0281 -95.5096 L -382.707 -95.9612 L -388.888 -96.6158 L -392.5718 -97.0191 L -398.9713 -97.7184 L -407.9338 -98.6852 L -414.3749 -99.3805 L -433.0189 -101.3354 L -445.4162 -102.3996 L -451.4416 -102.8099 L -457.6446 -103.1436 L -468.5456 -103.4787 L -477.996 -103.4998 L -486.9552 -103.3355 L -495.4442 -102.9787 L -499.9858 -102.6468 L -504.3963 -102.1961 L -508.8836 -101.5748 L -512.8053 -100.8669 L -515.7526 -100.2155 L -519.2704 -99.3007 L -522.1271 -98.4514 L -525.6305 -97.2463 L -529.2965 -95.7401 L -532.5904 -94.0868 L -537.3065 -91.0522 L -541.1577 -87.7708 L -543.4432 -85.2656 L -544.9684 -83.2279 L -546.5474 -80.7235 L -547.698 -78.6015 L -548.9716 -75.8571 L -549.8665 -73.523 L -550.7493 -70.5326 L -551.2892 -67.8361 L -551.6379 -64.4836 L -551.6915 -61.8528 L -551.4781 -58.1014 L -551.113 -55.317 L -550.4092 -51.8197 L -549.5507 -48.7253 L -548.2732 -45.223 L -546.893 -42.2411 L -545.0325 -38.9405 L -543.1909 -36.1123 L -540.8783 -32.9152 L -539.0062 -30.5431 L -536.1488 -27.2333 L -534.1633 -25.1421 L -530.8839 -22.0201 L -528.1966 -19.7143 L -524.6823 -16.9291 L -517.5871 -11.6755 L -514.3413 -9.3563 L -510.4594 -6.6624 L -501.9809 -1.0553 L -497.3565 1.8846 L -492.2403 5.0759 L -488.5114 7.3796 L -483.0691 10.7145 L -478.7672 13.3246 L -473.6514 16.403 L -468.734 19.3475 L -463.3137 22.5929 L -452.7724 28.8243 L -442.2654 34.8157 L -435.5513 38.522 L -430.3577 41.3224 L -423.4903 44.9079 L -418.1972 47.5584 L -410.8272 51.0688 L -405.4785 53.4859 L -398.4629 56.5074 L -393.0508 58.733 L -385.9254 61.5093 L -380.4378 63.5173 L -373.6472 65.8385 L -368.1054 67.595 L -361.2606 69.5824 L -355.2495 71.1607 L -347.936 72.8836 L -342.776 73.9682 L -335.9614 75.2312 L -330.5678 76.101 L -323.6696 77.0526 L -318.8444 77.6232 L -312.4806 78.2768 L -306.1602 78.8314 L -299.12 79.3626 L -294.4807 79.6714 L -288.3942 80.0148 L -282.0797 80.283 L -275.975 80.4647 L -270.5212 80.5754 L -262.0468 80.6541 L -254.4308 80.5895 L -250.9204 80.5014 L -247.9273 80.3881 L -245.4345 80.2564 L -242.3112 80.0318 L -240.0286 79.8154 L -237.1341 79.4633 L -232.8152 78.7623 L -229.9642 78.1537 L -226.8391 77.3221 L -223.6417 76.2812 L -220.375 75.0088 L -217.2485 73.5815 L -213.9194 71.8179 L -211.1979 70.1712 L -207.9394 67.928 L -205.503 66.0342 L -202.4126 63.3223 L -200.1581 61.0684 L -197.3634 57.9031 L -195.3436 55.3201 L -192.8643 51.7372 L -191.105 48.8453 L -189.2374 45.3454 L -187.7597 42.1702 L -186.122 38.0677 L -184.9183 34.5761 L -183.484 29.8071 L -182.4037 25.6923 L -181.3386 21.0808 L -180.507 16.9157 L -179.6852 11.9244 L -179.0387 7.092 L -178.4148 1.7408 L -177.8106 -3.405 L -176.9696 -9.4459 L -176.1188 -14.4378 L -174.6864 -21.5084 L -173.5712 -26.2906 L -171.8373 -32.6598 L -169.6473 -39.363 L -167.0863 -45.9698 L -164.8905 -50.9473 L -161.9519 -57.0037 L -158.7979 -63.0466 L -155.0156 -69.8787 L -152.1117 -74.8244 L -148.103 -81.2999 L -144.8911 -86.278 L -140.5243 -92.847 L -136.2658 -99.1048 L -132.1633 -105.0418 L -128.5365 -110.2381 L -123.7056 -117.1027 L -119.9752 -122.3842 L -115.3952 -128.8838 L -110.8627 -135.3526 L -106.3878 -141.7487 L -102.5417 -147.2532 L -98.2731 -153.383 L -94.9529 -158.1455 L -91.101 -163.6052 L -87.9346 -167.9756 L -84.474 -172.5874 L -81.7306 -176.0965 L -78.3574 -180.1838 L -76.214 -182.6448 L -72.4795 -186.7046 L -69.5431 -189.6955 L -65.8175 -193.2113 L -62.4437 -196.1192 L -58.2022 -199.4205 L -54.5868 -201.9275 L -50.0612 -204.7121 L -46.5219 -206.6755 L -42.0976 -208.9312 L -37.8847 -210.9148 L -32.7403 -213.1175 L -28.0843 -214.8665 L -23.0454 -216.4833 L -18.2216 -217.7572 L -13.324 -218.784 L -9.2914 -219.4445 L -4.2652 -220.0913 L -.1324 -220.5124 L 5.3357 -220.9289 L 8.2612 -221.0653 L 13.8259 -221.1125 L 19.1117 -220.8888 L 25.0903 -220.2985 L 29.4201 -219.667 L 34.7612 -218.6904 L 39.1061 -217.7369 L 44.4549 -216.3957 L 48.4656 -215.2724 L 54.1385 -213.4934 L 58.4567 -211.9638 L 64.0719 -209.7212 L 68.3644 -207.8175 L 73.9867 -205.1032 L 78.2969 -202.8744 L 83.9356 -199.772 L 88.2604 -197.2681 L 93.2716 -194.2858 L 98.9768 -190.7993 L 104.7193 -187.209 L 109.1547 -184.421 L 115.0217 -180.7564 L 120.9599 -177.0667 L 126.5747 -173.5439 L 132.5641 -169.7008 L 138.2717 -166.0319 L 144.0854 -162.3572 L 149.2589 -159.1238 L 155.2479 -155.3569 L 160.1933 -152.2013 L 166.8448 -147.9152 L 173.7734 -143.4337 L 180.5294 -139.0531 L 186.0607 -135.4705 L 193.3072 -130.7853 L 198.8535 -127.1931 L 206.3653 -122.3149 L 211.901 -118.7165 L 220.0809 -113.4158 L 225.0751 -110.1936 L 233.86 -104.5454 L 240.8153 -100.0841 L 249.6398 -94.4207 L 257.5559 -89.3242 L 266.6801 -83.4308 L 276.3858 -77.1504 L 286.0973 -70.8762 L 291.8164 -67.1914 L 303.2412 -59.8613 L 310.6319 -55.149 L 320.7791 -48.7162 L 327.4201 -44.5327 L 335.9801 -39.1928 L 344.1482 -34.1597 L 351.9331 -29.4005 L 358.077 -25.6501 L 365.9484 -20.8347 L 371.842 -17.2218 L 378.891 -12.9012 L 383.1422 -10.3029 L 390.0668 -6.0883 L 398.9224 -.7339 L 405.2786 3.0831 L 410.0868 5.9576 L 415.9543 9.4513 L 421.7616 12.9022 L 427.8315 16.5047 L 433.3422 19.739 L 438.8698 22.8829 L 444.0432 25.6713 L 448.8644 28.0979 L 453.3356 30.1638 L 456.5019 31.4682 L 460.3687 32.8358 L 463.5475 33.7822 L 467.2475 34.684 L 470.5283 35.2927 L 474.2963 35.7601 L 476.6427 35.9213 L 480.3369 35.9402 L 483.8937 35.6556 L 487.5213 35.0223 L 490.8665 34.1368 L 494.2164 32.9998 L 496.9341 31.8913 L 500.4026 30.1808 L 501.8012 29.3864 L 503.5754 28.2842 L 506.8387 25.9546 L 509.2362 23.9567 L 512.1975 21.0811 L 514.1255 18.8854 L 516.5927 15.5534 L 518.849 11.7806 L 520.6278 8.0176 L 522.0089 4.3017 L 522.7295 1.8936 L 523.4973 -1.3236 L 524.2174 -5.6692 L 524.4732 -8.2828 L 524.5849 -12.7864 L 524.3696 -16.5313 L 523.7359 -21.0997 L 522.9857 -24.5825 L 521.6663 -29.1029 L 520.5268 -32.2721 L 518.7782 -36.4935 L 517.2018 -39.9315 L 514.9382 -44.4393 L 512.4241 -48.9267 L 509.6161 -53.306 L 507.4342 -56.2776 L 504.2573 -60.0478 L 500.5489 -63.8126 L 496.5369 -67.3685 L 492.2571 -70.7223 L 487.9962 -73.7133 L 483.7923 -76.433 L 475.6918 -81.26 L 466.1425 -86.3504 L 455.7109 -91.1446 L 449.3242 -93.7465 L 443.2335 -96.0947 L 432.6487 -100.393 L 422.1828 -105.671 L 416.4578 -109.2063 L 411.1394 -113.0109 L 406.5523 -116.7753 L 402.3923 -120.677 L 399.3457 -123.9185 L 395.8541 -128.1858 L 393.5582 -131.4394 L 391.135 -135.4272 L 389.5779 -138.408 L 387.6771 -142.6888 L 386.3637 -146.2797 L 385.1567 -150.4403 L 383.8295 -158.0706 L 383.7123 -165.7099 L 384.7215 -173.0329 L 385.8237 -177.4347 L 387.1986 -181.516 L 389.1473 -185.9974 L 391.2457 -189.865 L 393.8496 -193.8179 L 396.6479 -197.3621 L 398.9566 -199.8923 L 402.5175 -203.2806 L 405.2307 -205.523 L 409.0835 -208.2825 L 412.6585 -210.4465 L 416.9547 -212.6303 L 421.7384 -214.6296 L 426.7208 -216.3093 L 430.6482 -217.3711 L 435.9217 -218.4463 L 441.0076 -219.1164 L 446.1844 -219.4464 L 451.7625 -219.4381 L 457.0712 -219.1068 L 461.7568 -218.572 L 467.1512 -217.7009 L 471.5606 -216.8162 L 477.3681 -215.4815 L 481.8412 -214.3776 L 487.7236 -212.8131 L 492.5712 -211.3902 L 498.1094 -209.6193 L 502.6067 -208.0855 L 508.1395 -206.1028 L 511.6038 -204.8224 L 517.1729 -202.7526 L 521.7294 -201.0957 L 527.7447 -198.9749 L 533.4489 -197.017 L 538.8232 -195.1908 L 543.4907 -193.6176 L 549.9442 -191.4343 L 554.3791 -189.9252 L 559.3809 -188.1637 L 562.9004 -186.8636 L 567.6388 -185.0349 L 570.9721 -183.6764 L 574.907 -181.9658 L 577.5994 -180.7082 L 580.5805 -179.2156 L 583.5717 -177.5862 L 586.1831 -176.0263 L 588.4186 -174.5671 L 591.1185 -172.6164 L 593.2509 -170.8875 L 595.7417 -168.5733 L 597.6349 -166.55 L 599.9193 -163.7212 L 601.5195 -161.4188 L 603.3283 -158.4269 L 604.691 -155.8793 L 606.3744 -152.4101 L 607.5652 -149.6535 L 609.0138 -145.6887 L 609.8669 -142.7223 L 610.669 -138.974 L 611.1303 -135.8608 L 611.5146 -131.6974 L 611.6641 -128.4444 L 611.6761 -124.1154 L 611.5006 -120.4982 L 611.1119 -116.5881 L 610.6039 -113.1789 L 609.6927 -108.706 L 609.0382 -106.0741 L 607.8554 -101.8587 L 605.5503 -94.1765 L 603.377 -86.3973 L 601.3632 -78.2364 L 599.8303 -70.6355 L 598.8598 -63.8637 L 598.4704 -57.71 L 598.8452 -51.6094 L 599.4374 -48.6473 L 600.2197 -46.0385 L 600.9439 -44.156 L 602 -41.8986 L 603.0789 -39.9995 L 604.4933 -37.9438 L 605.7825 -36.3744 L 607.5333 -34.5586 L 609.2007 -33.0681 L 611.0921 -31.62 L 613.3668 -30.1696 L 615.6221 -28.9725 L 617.5236 -28.0599 L 619.9336 -26.956 L 621.9334 -26.0628 L 624.559 -24.8755 L 626.5536 -23.9319 L 628.9666 -22.6985 L 630.8687 -21.6034 L 633.2579 -20.0291 L 636.0239 -17.8272 L 638.1031 -15.8211 L 639.2621 -14.5409 L 640.3618 -13.1968 L 641.7998 -11.2013 L 643.3146 -8.739 L 644.7966 -5.8999 L 646.1579 -2.7841 L 647.0997 -.2022 L 648.186 3.4674 L 649.0887 7.4786 L 649.7754 11.5553 L 650.2352 15.0597 L 650.7062 19.8822 L 651.0498 24.9147 L 651.2398 30.0824 L 651.2644 35.6601 L 650.9709 42.9054 L 650.5437 48.0219 L 650.0749 52.2278 L 649.3043 57.8011 L 648.4119 63.1346 L 647.2623 68.8573 L 646.2177 73.2501 L 644.7057 78.6507 L 642.7752 84.3147 L 640.4773 89.8411 L 637.9791 94.872 L 632.7906 103.6222 L 626.9297 111.9617 L 620.1178 120.0446 L 612.1368 127.6655 L 603.8788 134.0873 L 594.5359 139.9854 L 589.2264 142.8354 L 583.7052 145.5141 L 573.2045 150.0148 L 561.2951 154.1584 L 554.4714 155.9832 L 547.4543 157.3952 L 540.7391 158.2719 L 533.964 158.6905 L 528.4271 158.7492 L 521.1543 158.631 L 515.5505 158.5301 L 508.5971 158.4695 L 502.8926 158.4618 L 495.312 158.4713 L 489.3352 158.4756 L 481.1358 158.4669 L 474.0976 158.4449 L 465.9847 158.3907 L 459.3853 158.3123 L 450.7576 158.1601 L 445.6724 158.0574 L 436.7095 157.8897 L 428.9646 157.7672 L 419.7204 157.6397 L 411.3053 157.5376 L 401.3245 157.4433 L 392.2872 157.3903 L 381.6526 157.3562 L 371.4142 157.3346 L 359.4757 157.3142 L 347.1868 157.2989 L 334.5636 157.2904 z" stroke-width="28" stroke="black" fill="none" id="Track"/><path d="M 321.1435 157.3271 L 309.7634 157.3159 L 290.6067 157.2615 L 280.2864 157.2132 L 269.2689 157.1508 L 258.8246 157.105 L 246.9987 157.0991 L 238.4076 157.123 L 228.4408 157.1726 L 220.4254 157.229 L 208.3368 157.3269 L 199.5562 157.383 L 187.9982 157.4231 L 179.7923 157.4408 L 168.7618 157.4563 L 157.5962 157.4504 L 146.3022 157.4165 L 136.9875 157.3788 L 125.3895 157.3428 L 115.1092 157.3371 L 101.7091 157.3745 L 92.664 157.4254 L 80.4767 157.5187 L 69.6928 157.6158 L 56.4341 157.7382 L 46.1732 157.8276 L 32.5618 157.9345 L 21.1835 158.0131 L 7.1667 158.0967 L -3.7048 158.1518 L -18.1142 158.2127 L -32.6544 158.2621 L -47.2201 158.308 L -60.9443 158.368 L -74.6575 158.4623 L -86.6612 158.5781 L -101.2383 158.7463 L -111.5261 158.8517 L -126.1002 158.9412 L -133.8115 158.9693 L -147.5203 159.0411 L -162.0813 159.1982 L -175.8048 159.403 L -186.1267 159.5616 L -200.771 159.7574 L -212.8317 159.867 L -226.5918 159.9096 L -237.739 159.8918 L -253.0503 159.8765 L -267.2501 159.9377 L -280.9843 160.0493 L -294.0329 160.181 L -315.4513 160.3871 L -334.7649 160.4881 L -352.5995 160.6262 L -366.8597 160.8185 L -375.2889 160.9502 L -381.4872 161.0403 L -389.3935 161.1238 L -395.8733 161.1626 L -403.77 161.1943 L -410.7412 161.2244 L -417.6159 161.2611 L -425.6107 161.3137 L -432.0118 161.3638 L -438.5072 161.4215 L -443.8566 161.471 L -449.5195 161.508 L -453.4253 161.5154 L -458.457 161.4942 L -461.969 161.4369 L -465.7107 161.3075 L -469.8089 161.0606 L -473.3858 160.7555 L -476.3146 160.4443 L -480.166 159.9202 L -483.7858 159.2452 L -487.4101 158.365 L -490.3613 157.4776 L -494.1856 156.0747 L -497.0798 154.8116 L -500.8222 152.9108 L -503.8486 151.1274 L -507.2121 148.8383 L -510.0419 146.6164 L -512.9323 144.0091 L -515.8382 140.9698 L -518.5386 137.6812 L -521.1498 133.9324 L -523.4842 129.9427 L -525.4346 125.9859 L -527.2664 121.5721 L -528.8439 116.9518 L -530.9266 108.6563 L -532.4766 100.0199 L -534.0727 90.9294 L -535.8762 82.0986 L -538.3483 72.7256 L -541.5993 64.3379 L -543.834 59.9791 L -546.5338 55.5717 L -549.3696 51.5941 L -552.6684 47.5296 L -556.2307 43.5856 L -559.7965 39.9634 L -562.6079 37.3179 L -566.7737 33.7386 L -570.3597 31.0166 L -574.6325 28.1941 L -577.9567 26.2812 L -582.8414 23.8582 L -586.7322 22.1939 L -591.6783 20.3149 L -597.1179 18.4403 L -602.7336 16.6034 L -608.1586 14.8672 L -614.0628 13.0344 L -619.7318 11.3283 L -625.8158 9.4581 L -631.8973 7.4255 L -637.926 5.1541 L -643.5247 2.7632 L -649.3391 -.0942 L -654.9556 -3.3447 L -665.0556 -10.8678 L -668.7239 -14.2207 L -673.071 -18.5469 L -676.4845 -22.192 L -680.7858 -27.1309 L -683.9417 -31.0309 L -687.866 -36.306 L -690.8783 -40.8138 L -693.8466 -45.8167 L -696.3392 -50.6451 L -698.7013 -55.9638 L -700.5148 -60.6771 L -702.3634 -66.2069 L -703.7656 -71.0713 L -705.2335 -77.1353 L -706.1946 -82.12 L -707.0654 -88.3096 L -707.5992 -94.5478 L -707.8015 -100.8172 L -707.7234 -105.9223 L -707.3333 -112.2073 L -706.9324 -116.128 L -705.9931 -122.7788 L -705.0481 -127.8384 L -703.5046 -134.4082 L -701.9611 -139.7619 L -699.8817 -145.7929 L -697.4621 -151.7037 L -694.7043 -157.4807 L -691.4242 -163.4579 L -687.8137 -169.2691 L -684.1572 -174.5989 L -680.0286 -180.1184 L -675.924 -185.1775 L -671.3314 -190.3948 L -666.4818 -195.4124 L -662.2801 -199.3529 L -657.2359 -203.6036 L -651.6042 -207.7975 L -646.0865 -211.4659 L -641.4818 -214.2913 L -635.6961 -217.6084 L -630.9122 -220.1879 L -624.5524 -223.4084 L -619.9877 -225.5624 L -613.799 -228.2652 L -608.2499 -230.4973 L -601.6808 -232.9316 L -594.8576 -235.2199 L -587.7905 -237.3274 L -581.872 -238.8943 L -573.9233 -240.7393 L -567.6844 -241.9953 L -560.3272 -243.2789 L -551.793 -244.532 L -544.0967 -245.474 L -535.1998 -246.3737 L -526.6762 -247.0621 L -519.6687 -247.4977 L -510.4255 -247.8925 L -502.7455 -248.0849 L -493.8993 -248.1879 L -486.6588 -248.2024 L -477.1219 -248.1477 L -469.7817 -248.0687 L -461.2578 -247.9699 L -451.5355 -247.8805 L -442.3334 -247.8148 L -434.8144 -247.7619 L -425.5049 -247.7016 L -417.3099 -247.6802 L -408.491 -247.7156 L -400.813 -247.8018 L -391.3256 -247.9819 L -384.1864 -248.1711 L -374.6452 -248.4788 L -366.9302 -248.7248 L -357.2673 -248.9358 L -350.3588 -248.9811" stroke-width="12" stroke="#e73323" fill="none" id="S1"/><path d="M -347.3178 -248.9719 L -339.2323 -248.8788 L -334.8423 -248.8021 L -328.4532 -248.6741 L -322.447 -248.5016 L -317.1976 -248.2485 L -312.962 -247.9367 L -307.3699 -247.3302 L -303.0605 -246.6728 L -297.3989 -245.5154 L -293.0764 -244.3731 L -287.8284 -242.632 L -283.664 -240.9426 L -278.7293 -238.5509 L -274.0454 -235.8399 L -269.3949 -232.6504 L -265.1412 -229.1972 L -261.2659 -225.4922 L -258.567 -222.5212 L -255.4514 -218.5348 L -253.3846 -215.4362 L -251.1844 -211.5841 L -249.6498 -208.437 L -247.9259 -204.2631 L -246.7131 -200.7538 L -245.5808 -196.664 L -244.8797 -193.2831 L -244.2931 -189.0417 L -244.0441 -185.5382 L -244.0382 -180.6108 L -244.3731 -175.8738 L -244.9713 -171.3534 L -245.8566 -166.8024 L -248.2458 -158.5453 L -252.7151 -148.1448 L -256.3032 -141.866 L -261.696 -134.2706 L -267.7354 -127.3212 L -271.0278 -124.0143 L -275.2586 -120.1713 L -279.7215 -116.555 L -284.4157 -113.2011 L -288.4464 -110.6596 L -293.5144 -107.8314 L -297.8139 -105.7039 L -303.4961 -103.2325 L -308.6806 -101.2847 L -314.6411 -99.3598 L -320.0358 -97.8679 L -325.8558 -96.4959 L -331.405 -95.4365 L -337.365 -94.6254 L -343.0228 -94.1862 L -353.3458 -94.1265 L -364.0588 -94.5634 L -374.4398 -95.2061 L -385.2431 -96.2239 L -394.062 -97.1825 L -400.1239 -97.8433 L -402.8235 -98.1348 L -409.5306 -98.8571 L -415.5999 -99.5132 L -419.3 -99.9149 L -423.4417 -100.3615 L -429.2702 -100.9677 L -435.9298 -101.607 L -440.9045 -102.0424 L -447.8464 -102.5748 L -453.7979 -102.9479 L -460.2783 -103.255 L -465.031 -103.4075 L -470.5918 -103.5034 L -475.1853 -103.5168 L -480.1225 -103.4753 L -484.0004 -103.408 L -489.0199 -103.2725 L -492.8361 -103.1191 L -497.1615 -102.8671 L -501.6569 -102.4922 L -506.2741 -101.958 L -510.3946 -101.3225 L -514.1884 -100.5745 L -517.0736 -99.8886 L -520.5895 -98.9214 L -523.6625 -97.9471 L -526.9351 -96.7434 L -530.5553 -95.1475 L -533.7705 -93.4077 L -535.6689 -92.2062 L -538.3607 -90.2432 L -541.6171 -87.309 L -545.588 -82.2953 L -547.0905 -79.7568 L -548.1951 -77.5884 L -549.4026 -74.7915 L -550.2279 -72.4158 L -551.0476 -69.1922 L -551.4728 -66.4657 L -551.6891 -63.0741 L -551.6477 -60.4088 L -551.3039 -56.6086 L -550.8827 -54.0132 L -550.0093 -50.2743 L -549.1095 -47.4045 L -547.6136 -43.7203 L -546.2281 -40.9911 L -544.1339 -37.5215 L -542.3493 -34.9106 L -539.9575 -31.7266 L -537.8592 -29.1714 L -534.8983 -25.8972 L -532.8447 -23.8399 L -529.6633 -20.9489 L -526.9052 -18.6677 L -523.7718 -16.235 L -520.0154 -13.4422 L -515.8532 -10.4295 L -512.8049 -8.2795 L -508.8656 -5.5814 L -505.0586 -3.0527 L -500.2669 .0422 L -495.2741 3.189 L -490.3873 6.2225 L -486.6148 8.5459 L -481.0992 11.9124 L -476.7389 14.5482 L -471.2098 17.8653 L -466.5845 20.6348 L -461.1006 23.9141 L -456.215 26.809 L -450.0687 30.3898 L -445.7921 32.8326 L -439.9061 36.1282 L -434.3577 39.1712 L -427.5405 42.8117 L -421.8658 45.7326 L -415.3365 48.9462 L -409.5926 51.6363 L -402.5922 54.7482 L -397.217 57.0281 L -390.1247 59.8954 L -384.6601 61.9826 L -377.8947 64.4081 L -372.3704 66.2542 L -365.1145 68.4888 L -359.5453 70.0483 L -352.2404 71.8952 L -346.6451 73.1655 L -339.7796 74.5466 L -327.7158 76.515 L -316.0613 77.9216 L -310.1045 78.4955 L -303.4118 79.0481 L -297.9561 79.4432 L -292.1847 79.8099 L -285.7748 80.1374 L -279.5362 80.3668 L -273.5472 80.5196 L -268.5697 80.6039 L -264.8708 80.6414 L -260.4758 80.6537 L -257.1873 80.632 L -253.182 80.5627 L -249.7081 80.4607 L -246.7651 80.3312 L -244.1301 80.1718 L -241.0716 79.9203 L -238.8314 79.6805 L -236.1123 79.3177 L -234.563 79.0746 L -231.754 78.5513 L -228.8729 77.8834 L -225.5303 76.9198 L -222.3054 75.7868 L -219.2066 74.5001 L -215.8759 72.8862 L -210.0401 69.4099 L -204.3971 65.1074 L -198.9856 59.793 L -194.4474 54.0819 L -190.3377 47.4664 L -188.5392 43.8976 L -187.1231 40.6568 L -185.4611 36.2046 L -184.3106 32.642 L -182.9323 27.7695 L -181.9667 23.8732 L -180.8781 18.8573 L -180.1595 14.9405 L -179.3506 9.5289 L -178.7846 4.9713 L -178.122 -.8147 L -177.5202 -5.6485 L -176.5324 -12.117 L -175.5952 -17.1693 L -174.1462 -23.8966 L -172.9566 -28.6846 L -170.9796 -35.4293 L -168.7858 -41.7073 L -165.9278 -48.6582 L -163.8171 -53.2235 L -160.5961 -59.6445 L -157.3579 -65.6998 L -150.4884 -77.4895 L -143.1151 -88.9728 L -138.9428 -95.1848 L -134.6352 -101.4734 L -126.84 -112.6545 L -118.2539 -124.8231 L -113.6895 -131.3149 L -109.1772 -137.7616 L -100.9211 -149.5785 L -93.2329 -160.5978 L -86.6204 -169.7488 L -80.4706 -177.6548 L -74.6903 -184.3348 L -71.1343 -188.0979 L -67.9298 -191.2575 L -64.1441 -194.6858 L -60.7166 -197.5105 L -56.4075 -200.6997 L -52.7397 -203.106 L -48.4355 -205.6343 L -44.5955 -207.6822 L -40.4195 -209.7387 L -35.8961 -211.7983 L -31.0051 -213.7974 L -26.0196 -215.5646 L -21.246 -216.9896 L -16.089 -218.2367 L -12.3967 -218.9494 L -7.4147 -219.7057 L -2.9987 -220.2298 L 2.1108 -220.7041 L 10.5456 -221.1189 L 15.8032 -221.0606 L 21.4344 -220.7019 L 26.0884 -220.1666 L 31.4216 -219.3262 L 36.0978 -218.4114 L 41.4465 -217.1716 L 50.803 -214.5681 L 60.7724 -211.0737 L 70.6776 -206.729 L 80.6177 -201.6209 L 90.262 -196.0861 L 95.6163 -192.8644 L 101.3373 -189.3301 L 105.7386 -186.5679 L 111.5593 -182.9149 L 117.1125 -179.4569 L 123.0624 -175.755 L 129.039 -171.9716 L 134.694 -168.3271 L 140.8019 -164.4232 L 146.6632 -160.7456 L 151.4963 -157.7221 L 157.5193 -153.9129 L 162.9053 -150.4568 L 169.6597 -146.096 L 176.2945 -141.7996 L 183.081 -137.3993 L 189.0448 -133.5408 L 196.2912 -128.8539 L 201.9003 -125.2159 L 209.1091 -120.5311 L 215.222 -116.5608 L 223.5615 -111.1691 L 228.1332 -108.2252 L 237.0448 -102.5017 L 244.0909 -97.9833 L 253.5803 -91.886 L 260.9761 -87.1175 L 270.6765 -80.845 L 279.814 -74.9339 L 294.1031 -65.7207 L 299.2462 -62.4189 L 306.6587 -57.6793 L 314.5906 -52.6341 L 324.121 -46.6075 L 330.705 -42.4754 L 339.0877 -37.271 L 347.1062 -32.3489 L 354.7817 -27.662 L 361.3405 -23.6555 L 369.1372 -18.8805 L 374.9584 -15.3106 L 381.4581 -11.3313 L 385.6299 -8.7861 L 392.8101 -4.4253 L 401.5515 .8474 L 406.392 3.7495 L 412.6617 7.4931" stroke-width="12" stroke="#4fafdf" fill="none" id="S2"/><path d="M 418.5013 10.9645 L 424.2815 14.4 L 430.2716 17.9443 L 435.6622 21.0752 L 441.0437 24.0755 L 446.0708 26.7135 L 450.7485 28.9942 L 458.1152 32.0697 L 464.9269 34.1447 L 471.939 35.4968 L 478.0397 35.9633 L 481.6895 35.8699 L 485.4029 35.4352 L 488.9884 34.667 L 492.33 33.67 L 498.3754 31.2234 L 501.2034 29.7337 L 502.3957 29.0291 L 504.7414 27.4991 L 507.4005 25.5099 L 510.483 22.8065 L 512.6935 20.5456 L 515.1792 17.543 L 517.1265 14.7357 L 519.1874 11.1303 L 520.908 7.3339 L 522.9236 1.1595 L 523.8331 -3.0943 L 524.5684 -10.1286 L 524.1576 -18.4105 L 522.4872 -26.4505 L 519.7906 -34.1188 L 516.2985 -41.787 L 514.0812 -46.0296 L 511.3061 -50.7494 L 509.0862 -54.0597 L 506.0823 -57.9551 L 502.7708 -61.6256 L 498.9308 -65.3006 L 494.8051 -68.7748 L 490.4211 -72.0472 L 486.3393 -74.8076 L 482.0525 -77.5098 L 478.7761 -79.4761 L 473.4717 -82.5039 L 469.5399 -84.6176 L 463.6999 -87.5428 L 459.0275 -89.7031 L 453.0964 -92.2342 L 447.0453 -94.6334 L 440.9458 -96.9762 L 436.0188 -98.9482 L 430.0587 -101.5768 L 425.3491 -103.9282 L 419.7845 -107.0881 L 414.2128 -110.7449 L 409.0816 -114.6391 L 404.6784 -118.4676 L 400.9393 -122.1756 L 397.839 -125.6756 L 394.7557 -129.6889 L 392.5985 -132.9392 L 390.332 -136.9152 L 388.7556 -140.1581 L 386.9911 -144.4773 L 385.7962 -148.0934 L 384.7878 -152.0112 L 384.1537 -155.4313 L 383.689 -159.918 L 383.6181 -163.3437 L 383.8391 -167.2848 L 384.284 -170.6867 L 385.1317 -174.8512 L 386.3009 -178.9751 L 387.9055 -183.2751 L 389.8938 -187.4622 L 392.1211 -191.2804 L 394.8598 -195.1687 L 397.7798 -198.6402 L 400.3831 -201.317 L 403.8535 -204.4178 L 406.8833 -206.7651 L 410.8483 -209.3941 L 414.2442 -211.3012 L 418.899 -213.4928 L 423.7666 -215.3597 L 432.8012 -217.8576 L 437.8167 -218.7375 L 443.2632 -219.3019 L 448.4727 -219.4867 L 454.079 -219.3311 L 458.406 -218.9768 L 463.7756 -218.2767 L 468.1662 -217.5094 L 473.9458 -216.2868 L 478.3979 -215.2317 L 484.2606 -213.7527 L 489.1081 -212.4193 L 494.9949 -210.6329 L 499.147 -209.2727 L 504.6815 -207.3538 L 514.0341 -203.9165 L 524.2 -200.2153 L 529.8834 -198.2381 L 535.5948 -196.2856 L 546.0103 -192.7662 L 556.6287 -189.1442 L 564.8933 -186.1062 L 572.6504 -182.9629 L 578.754 -180.1434 L 581.8164 -178.5603 L 584.6196 -176.9776 L 589.438 -173.8561 L 594.3608 -169.9 L 596.6308 -167.6549 L 598.4666 -165.5746 L 600.6737 -162.6732 L 602.2175 -160.3161 L 604.0711 -157.0675 L 605.2971 -154.6725 L 606.9378 -151.148 L 608.1595 -148.1323 L 609.4301 -144.3286 L 610.1998 -141.3279 L 610.9368 -137.3055 L 611.2924 -134.4027 L 611.6098 -129.9534 L 611.6954 -126.6722 L 611.6109 -122.3125 L 611.3699 -118.937 L 610.8588 -114.7546 L 610.2619 -111.3394 L 609.2426 -106.8637 L 608.6108 -104.4935 L 607.3834 -100.2746 L 606.3418 -96.8343 L 605.0076 -92.3082 L 604.0296 -88.8228 L 602.8827 -84.5029 L 601.9364 -80.6952 L 600.9407 -76.3228 L 600.2387 -72.8697 L 599.5572 -69.0013 L 599.112 -65.9595 L 598.7162 -62.4102 L 598.5319 -59.7423 L 598.4743 -56.2964 L 598.6175 -53.5113 L 599.0616 -50.3424 L 599.6936 -47.6953 L 600.5388 -45.1649 L 601.3839 -43.1588 L 602.5207 -40.9389 L 603.587 -39.2124 L 605.172 -37.0873 L 606.5264 -35.5669 L 608.3534 -33.7993 L 609.9447 -32.469 L 612.0116 -30.9984 L 614.2005 -29.7057 L 616.4923 -28.5482 L 618.4198 -27.6439 L 621.0069 -26.4756 L 623.0144 -25.5781 L 625.4821 -24.4451 L 627.6179 -23.4051 L 629.8514 -22.2047 L 631.8656 -20.9757 L 634.2053 -19.3273 L 636.401 -17.4886 L 638.5727 -15.3177 L 639.5988 -14.1443 L 641.0935 -12.2178 L 642.3833 -10.3008 L 643.9388 -7.6007 L 645.3728 -4.652 L 646.6042 -1.615 L 647.5024 1.0534 L 648.5267 4.8443 L 649.3631 8.9763 L 649.9987 13.1523 L 650.4445 17.0131 L 650.8644 21.9344 L 651.1466 27.0281 L 651.2624 31.3149 L 651.2477 36.5984 L 650.8317 44.8156 L 649.8235 54.1809 L 648.9889 59.7936 L 647.9657 65.4854 L 647.0347 69.8706 L 645.6821 75.2777 L 643.9545 80.9946 L 642.0058 86.2865 L 639.578 91.7467 L 636.9669 96.7159 L 634.658 100.6493 L 631.6335 105.3829 L 628.8217 109.4219 L 625.4133 113.9024 L 622.4831 117.4203 L 618.3975 121.8346 L 614.812 125.291 L 610.213 129.2779 L 606.5212 132.1693 L 601.7738 135.5311 L 597.7416 138.1031 L 592.2398 141.2557 L 587.1805 143.8581 L 581.5854 146.4798 L 576.5292 148.6655 L 570.5809 151.0247 L 565.6068 152.7918 L 558.5124 154.9541 L 551.6039 156.6194 L 544.5259 157.8361 L 537.7791 158.5081 L 530.9854 158.7479 L 525.4383 158.7131 L 518.5527 158.5795 L 512.9507 158.4993 L 505.5327 158.4619 L 499.7945 158.4651 L 492.1187 158.4746 L 486.0183 158.4741 L 477.6335 158.4579 L 470.5534 158.4266 L 462.4331 158.353 L 455.8335 158.2557 L 447.7117 158.0985 L 442.0407 157.9861 L 432.8781 157.8267 L 425.5429 157.7182 L 415.5518 157.5871 L 407.6057 157.4986 L 396.8399 157.4133 L 388.3322 157.3752 L 377.591 157.347 L 366.5396 157.3256 L 354.4558 157.3071 L 342.0303 157.2946 L 330.0284 157.2889" stroke-width="12" stroke="#f7d347" fill="none" id="S3"/></svg>