<?xml version="1.0" standalone="no"?>
<svg xmlns:xlink="http://www.w3.org/1999/xlink" id="s2" class="track" xmlns="http://www.w3.org/2000/svg" width="800" height="400" viewBox="-1000 -1000 2000 2000">
        <path d="M 524.4341 159.6693 L 522.7446 159.6363 L 520.5058 159.5655 L 518.8268 159.4933 L 516.5613 159.3726 L 514.9165 159.2704 L 513.2485 159.1566 L 511.0242 158.993 L 509.3593 158.8655 L 507.6975 158.7369 L 506.0355 158.6091 L 504.3788 158.4841 L 502.1689 158.3246 L 500.5163 158.2124 L 498.8648 158.1078 L 497.2144 158.0123 L 495.015 157.8998 L 493.3525 157.8265 L 491.1849 157.7459 L 489.5433 157.6955 L 487.3608 157.6412 L 485.7272 157.6091 L 484.0918 157.5834 L 482.4648 157.5636 L 480.8351 157.5488 L 479.2086 157.5384 L 477.5817 157.5317 L 475.9538 157.528 L 474.3252 157.527 L 472.6956 157.528 L 471.0627 157.5309 L 469.4297 157.5347 L 467.2463 157.5425 L 465.6076 157.5494 L 463.9624 157.5572 L 461.77 157.5685 L 460.1232 157.577 L 458.4722 157.5856 L 456.2625 157.5961 L 454.6027 157.6034 L 452.9378 157.6099 L 450.7109 157.6175 L 449.0329 157.6224 L 446.7948 157.6277 L 445.1097 157.631 L 443.4177 157.6336 L 441.7217 157.6359 L 439.4562 157.6385 L 437.7486 157.64 L 436.0415 157.6407 L 434.3286 157.6402 L 432.6128 157.6387 L 430.8908 157.6356 L 429.169 157.6314 L 427.4403 157.6252 L 425.7085 157.6172 L 423.399 157.6035 L 421.6641 157.5912 L 419.923 157.5767 L 418.1789 157.5601 L 416.4345 157.5414 L 414.1042 157.5142 L 412.3511 157.4918 L 410.5977 157.4686 L 408.2541 157.4377 L 406.4703 157.415 L 404.1393 157.3864 L 402.3685 157.3662 L 400.0076 157.3411 L 398.233 157.3244 L 396.4518 157.3092 L 394.6736 157.2959 L 392.8876 157.2837 L 390.5059 157.269 L 388.7138 157.2596 L 386.9201 157.2512 L 385.1245 157.2436 L 383.3232 157.2373 L 381.5206 157.2319 L 379.7159 157.2274 L 377.906 157.2238 L 375.492 157.2206 L 373.6745 157.2195 L 371.2523 157.2195 L 369.4294 157.2207 L 367.6026 157.2228 L 365.7793 157.2261 L 363.338 157.232 L 361.5056 157.2371 L 359.0559 157.2451 L 357.2173 157.2517 L 355.374 157.2585 L 353.5285 157.2652 L 351.0651 157.2742 L 349.2117 157.2805 L 346.7404 157.2888 L 344.8851 157.2945 L 343.0235 157.2999 L 341.1612 157.3049 L 339.2976 157.3095 L 337.4288 157.3135 L 335.5607 157.3168 L 333.0615 157.3206 L 331.1866 157.323 L 329.311 157.3247 L 327.43 157.326 L 324.9188 157.3272 L 323.0314 157.3273 L 321.1435 157.3271 L 318.6239 157.3261 L 316.7248 157.325 L 314.1999 157.3223 L 312.2986 157.32 L 309.7634 157.3159 L 307.8582 157.3125 L 305.9484 157.3088 L 303.4049 157.3032 L 301.4904 157.2983 L 298.9365 157.291 L 297.0147 157.2849 L 294.4562 157.2762 L 292.5313 157.2692 L 290.6067 157.2615 L 288.679 157.2535 L 286.1035 157.2421 L 284.1703 157.233 L 282.2333 157.2234 L 280.2864 157.2132 L 277.7096 157.1993 L 275.7643 157.1886 L 273.8198 157.1775 L 271.222 157.1621 L 269.2689 157.1508 L 266.6659 157.137 L 264.7069 157.1271 L 262.7511 157.1187 L 260.7901 157.1112 L 258.8246 157.105 L 256.1996 157.0991 L 254.2354 157.0967 L 251.6089 157.0954 L 249.6341 157.0959 L 246.9987 157.0991 L 245.0185 157.103 L 242.3776 157.1095 L 240.3928 157.1159 L 238.4076 157.123 L 236.4189 157.131 L 234.4272 157.1402 L 232.4338 157.1498 L 230.4394 157.1609 L 228.4408 157.1726 L 226.4418 157.1855 L 224.4372 157.1992 L 222.4344 157.2137 L 220.4254 157.229 L 217.7398 157.2503 L 215.723 157.2668 L 213.0487 157.289 L 211.0299 157.3056 L 208.3368 157.3269 L 206.317 157.3419 L 204.2898 157.3558 L 202.259 157.3684 L 199.5562 157.383 L 197.5228 157.3925 L 194.8075 157.4033 L 192.7688 157.4101 L 190.7298 157.4161 L 187.9982 157.4231 L 185.9554 157.4278 L 183.9038 157.4324 L 181.849 157.4367 L 179.7923 157.4408 L 177.7294 157.4446 L 175.6667 157.4481 L 172.9081 157.4521 L 170.8363 157.4545 L 168.7618 157.4563 L 166.6751 157.4572 L 164.5936 157.4573 L 161.8058 157.4559 L 159.7092 157.4537 L 157.5962 157.4504 L 154.7991 157.4443 L 152.681 157.4386 L 150.5615 157.4319 L 148.4328 157.4245 L 146.3022 157.4165 L 144.1664 157.4081 L 142.0183 157.3994 L 139.8728 157.3905 L 136.9875 157.3788 L 134.8321 157.3705 L 131.9408 157.3603 L 129.7635 157.3535 L 127.5837 157.3476 L 125.3895 157.3428 L 122.4673 157.3382 L 120.2636 157.3363 L 117.2795 157.3359 L 115.1092 157.3371 L 112.1451 157.3412 L 109.9142 157.3458 L 106.945 157.3541 L 104.7002 157.362 L 101.7091 157.3745 L 99.4545 157.3854 L 97.196 157.3975 L 94.9351 157.4109 L 92.664 157.4254 L 90.3904 157.4409 L 88.1052 157.4575 L 85.8173 157.4749 L 82.7753 157.4994 L 80.4767 157.5187 L 77.4095 157.5455 L 75.1013 157.5662 L 72.7408 157.5877 L 69.6928 157.6158 L 67.3659 157.6375 L 65.0327 157.6592 L 61.9156 157.6882 L 59.5716 157.7098 L 56.4341 157.7382 L 54.08 157.7593 L 50.9249 157.787 L 48.5527 157.8075 L 46.1732 157.8276 L 42.9916 157.8538 L 40.5942 157.8731 L 37.3907 157.8982 L 34.9738 157.9166 L 32.5618 157.9345 L 29.3279 157.9578 L 26.891 157.9749 L 24.4519 157.9915 L 21.1835 158.0131 L 18.7294 158.0288 L 15.4392 158.0491 L 12.9666 158.0639 L 9.6544 158.0829 L 7.1667 158.0967 L 3.8355 158.1144 L 1.3299 158.1273 L -1.1833 158.1397 L -3.7048 158.1518 L -7.0759 158.1672 L -9.6118 158.1784 L -12.1545 158.1891 L -15.553 158.2028 L -18.1142 158.2127 L -21.5277 158.2253 L -24.1001 158.2343 L -27.5149 158.2458 L -30.0859 158.2541 L -32.6544 158.2621 L -35.2255 158.27 L -38.6516 158.2804 L -41.2215 158.2883 L -44.6505 158.2992 L -47.2201 158.308 L -49.7924 158.3173 L -53.2255 158.331 L -55.7944 158.3422 L -58.3665 158.3545 L -60.9443 158.368 L -63.5109 158.3827 L -66.0832 158.3987 L -69.5121 158.4222 L -72.0851 158.4416 L -74.6575 158.4623 L -78.0867 158.4922 L -80.6606 158.5164 L -83.2329 158.5419 L -86.6612 158.5781 L -89.2392 158.6068 L -92.6626 158.6462 L -95.2359 158.6764 L -97.8091 158.7066 L -101.2383 158.7463 L -103.8107 158.7752 L -106.381 158.8025 L -108.9533 158.8281 L -111.5261 158.8517 L -114.1017 158.873 L -117.5262 158.8976 L -120.1006 158.9132 L -123.5276 158.9304 L -126.1002 158.9412 L -128.6706 158.951 L -131.2404 158.9601 L -133.8115 158.9693 L -137.2392 158.9824 L -139.8108 158.9936 L -142.3798 159.0068 L -144.9498 159.0225 L -147.5203 159.0411 L -150.9458 159.0702 L -153.5168 159.0954 L -156.0874 159.1233 L -159.5131 159.1646 L -162.0813 159.1982 L -164.652 159.2338 L -167.221 159.2711 L -169.7935 159.3098 L -173.2264 159.3628 L -175.8048 159.403 L -178.3846 159.4434 L -180.9626 159.4834 L -183.5435 159.5229 L -186.1267 159.5616 L -189.5694 159.6117 L -192.157 159.648 L -194.7394 159.6827 L -198.1814 159.7266 L -200.771 159.7574 L -204.2157 159.7947 L -206.8005 159.8199 L -210.246 159.8488 L -212.8317 159.867 L -215.4101 159.882 L -217.9944 159.8936 L -220.5758 159.9021 L -223.1584 159.9073 L -226.5918 159.9096 L -229.167 159.9085 L -231.7432 159.9051 L -235.1705 159.898 L -237.739 159.8918 L -241.1588 159.8837 L -243.7189 159.8785 L -247.1213 159.8741 L -249.6694 159.8734 L -253.0503 159.8765 L -255.579 159.8818 L -258.9348 159.8929 L -261.4414 159.9039 L -263.9389 159.9171 L -267.2501 159.9377 L -269.7224 159.9549 L -272.9838 159.9799 L -275.409 159.9999 L -278.6104 160.0277 L -280.9843 160.0493 L -283.3372 160.0715 L -286.4374 160.1019 L -288.7412 160.1253 L -291.0198 160.1489 L -294.0329 160.181 L -296.2728 160.205 L -299.2134 160.2364 L -301.4025 160.2596 L -304.2857 160.2893 L -306.4231 160.3105 L -309.241 160.3368 L -311.3331 160.3551 L -313.4016 160.3718 L -315.4513 160.3871 L -318.1486 160.4052 L -320.1484 160.4174 L -322.7847 160.4319 L -324.7323 160.4417 L -326.6612 160.4508 L -328.5674 160.4594 L -331.0725 160.4707 L -332.9299 160.4792 L -334.7649 160.4881 L -337.1734 160.5007 L -338.9571 160.5109 L -340.7198 160.5219 L -343.0395 160.5379 L -344.7653 160.5511 L -347.0321 160.5702 L -348.7175 160.5858 L -350.39 160.6024 L -352.5995 160.6262 L -354.2354 160.645 L -356.3983 160.6715 L -358.0051 160.6922 L -359.5985 160.7135 L -361.7026 160.7427 L -363.2663 160.7651 L -364.8162 160.7879 L -366.8597 160.8185 L -368.3814 160.8419 L -370.3833 160.8729 L -371.8692 160.8963 L -373.8306 160.9273 L -375.2889 160.9502 L -376.739 160.9726 L -378.6487 161.001 L -380.0734 161.0213 L -381.4872 161.0403 L -383.3623 161.0638 L -384.7614 161.0799 L -386.6181 161.0993 L -388.0056 161.1121 L -389.3935 161.1238 L -390.7818 161.1341 L -392.6318 161.146 L -394.0213 161.1535 L -395.8733 161.1626 L -397.2663 161.1688 L -399.1212 161.1764 L -400.5155 161.1818 L -401.9076 161.1871 L -403.77 161.1943 L -405.1645 161.1999 L -406.5592 161.2056 L -407.954 161.2116 L -409.3489 161.2179 L -410.7412 161.2244 L -412.1293 161.2312 L -413.5118 161.2383 L -414.887 161.2457 L -416.2561 161.2532 L -417.6159 161.2611 L -419.419 161.272 L -420.7607 161.2805 L -422.5379 161.2921 L -423.862 161.3012 L -425.6107 161.3137 L -426.9122 161.3233 L -428.2026 161.3331 L -429.4826 161.3431 L -430.753 161.3534 L -432.0118 161.3638 L -433.2565 161.3743 L -434.9003 161.3886 L -436.1165 161.3995 L -437.3175 161.4105 L -438.5072 161.4215 L -440.0685 161.4363 L -441.2233 161.4472 L -442.3635 161.4578 L -443.8566 161.471 L -444.9576 161.48 L -446.0412 161.4881 L -447.1061 161.4953 L -448.1529 161.5014 L -449.5195 161.508 L -450.523 161.5115 L -451.5092 161.5139 L -452.4766 161.5152 L -453.4253 161.5154 L -454.6607 161.514 L -455.5667 161.5116 L -456.7463 161.5068 L -457.6104 161.5014 L -458.457 161.4942 L -459.2906 161.4848 L -460.1075 161.4733 L -460.9136 161.4594 L -461.969 161.4369 L -462.7451 161.4167 L -463.5094 161.3936 L -464.2584 161.3677 L -464.9928 161.3389 L -465.7107 161.3075 L -466.6483 161.2612 L -467.3386 161.2232 L -468.2424 161.1686 L -468.917 161.1241 L -469.8089 161.0606 L -470.4796 161.0096 L -471.1487 160.9557 L -471.8184 160.8991 L -472.49 160.8395 L -473.3858 160.7555 L -474.0607 160.689 L -474.96 160.5959 L -475.6372 160.5218 L -476.3146 160.4443 L -476.9944 160.3629 L -477.8994 160.2486 L -478.5799 160.1567 L -479.4863 160.0256 L -480.166 159.9202 L -480.8462 159.8081 L -481.5259 159.6895 L -482.4299 159.5211 L -483.1072 159.3869 L -483.7858 159.2452 L -484.4629 159.0968 L -485.1424 158.9405 L -486.0478 158.721 L -486.7293 158.5469 L -487.4101 158.365 L -488.092 158.1744 L -489.0009 157.9069 L -489.6808 157.6968 L -490.3613 157.4776 L -491.0388 157.2505 L -491.9421 156.9335 L -492.6164 156.6863 L -493.2894 156.4302 L -494.1856 156.0747 L -494.8555 155.798 L -495.747 155.4152 L -496.4139 155.118 L -497.0798 154.8116 L -497.9661 154.3895 L -498.6279 154.063 L -499.5077 153.6142 L -500.1661 153.2668 L -500.8222 152.9108 L -501.693 152.4222 L -502.3436 152.0446 L -503.206 151.5266 L -503.8486 151.1274 L -504.7002 150.5802 L -505.3344 150.1589 L -505.9654 149.7276 L -506.5907 149.2879 L -507.2121 148.8383 L -507.8292 148.3789 L -508.6419 147.7531 L -509.2459 147.272 L -510.0419 146.6164 L -510.6325 146.1133 L -511.2163 145.6016 L -511.7942 145.0802 L -512.3669 144.5488 L -512.9323 144.0091 L -513.4919 143.4593 L -514.0451 142.8999 L -514.5908 142.3319 L -515.3087 141.559 L -515.8382 140.9698 L -516.3616 140.3707 L -516.8768 139.7643 L -517.3846 139.149 L -517.8848 138.5252 L -518.5386 137.6812 L -519.0198 137.0377 L -519.6475 136.1682 L -520.1084 135.5065 L -520.7094 134.6121 L -521.1498 133.9324 L -521.7238 133.014 L -522.1446 132.3164 L -522.5563 131.6123 L -523.0921 130.6632 L -523.4842 129.9427 L -523.8676 129.2156 L -524.2427 128.4812 L -524.7299 127.4922 L -525.0863 126.7419 L -525.4346 125.9859 L -525.8885 124.9651 L -526.2191 124.1936 L -526.542 123.4156 L -526.9613 122.3662 L -527.2664 121.5721 L -527.5635 120.7715 L -527.8531 119.9633 L -528.2261 118.8777 L -528.4964 118.0559 L -528.8439 116.9518 L -529.0946 116.1169 L -529.3373 115.2746 L -529.5709 114.4285 L -529.7964 113.5759 L -530.084 112.4323 L -530.2907 111.5681 L -530.5544 110.4092 L -530.7441 109.533 L -530.9266 108.6563 L -531.1036 107.7745 L -531.3318 106.5927 L -531.4974 105.7049 L -531.6592 104.8129 L -531.8173 103.9189 L -531.9722 103.0233 L -532.1249 102.1237 L -532.3259 100.9237 L -532.4766 100.0199 L -532.6275 99.1152 L -532.8314 97.9081 L -532.986 96.9997 L -533.142 96.0913 L -533.3535 94.8791 L -533.5155 93.9663 L -533.7348 92.7518 L -533.9023 91.8417 L -534.0727 90.9294 L -534.246 90.0162 L -534.4216 89.104 L -534.6003 88.1904 L -534.8426 86.9731 L -535.0283 86.059 L -535.2173 85.1455 L -535.4101 84.2317 L -535.6735 83.0127 L -535.8762 82.0986 L -536.1539 80.8804 L -536.3682 79.9676 L -536.5887 79.0548 L -536.8927 77.841 L -537.1296 76.9318 L -537.4581 75.724 L -537.7146 74.8205 L -538.0704 73.6213 L -538.3483 72.7256 L -538.6372 71.8321 L -539.0375 70.6529 L -539.3517 69.7709 L -539.676 68.8974 L -540.0121 68.0288 L -540.3595 67.1666 L -540.7188 66.3094 L -541.2147 65.1782 L -541.5993 64.3379 L -541.9944 63.5054 L -542.4014 62.6783 L -542.9596 61.5897 L -543.3909 60.7817 L -543.834 59.9791 L -544.439 58.9238 L -544.9055 58.1396 L -545.3815 57.3632 L -546.0336 56.3348 L -546.5338 55.5717 L -547.0445 54.8138 L -547.5651 54.0618 L -548.2743 53.0677 L -548.8168 52.3289 L -549.3696 51.5941 L -550.1198 50.624 L -550.693 49.9023 L -551.4712 48.9477 L -552.0652 48.2371 L -552.6684 47.5296 L -553.4861 46.5912 L -554.1067 45.8932 L -554.7354 45.1976 L -555.5853 44.2744 L -556.2307 43.5856 L -556.8842 42.8985 L -557.7656 41.9883 L -558.435 41.3098 L -559.1121 40.6348 L -559.7965 39.9634 L -560.4889 39.2953 L -561.1874 38.6323 L -561.894 37.9727 L -562.6079 37.3179 L -563.5691 36.4546 L -564.2986 35.8139 L -565.2796 34.9727 L -566.0228 34.3516 L -566.7737 33.7386 L -567.7833 32.938 L -568.5486 32.3492 L -569.5801 31.5798 L -570.3597 31.0166 L -571.4113 30.2815 L -572.2066 29.7436 L -573.009 29.216 L -573.8184 28.699 L -574.6325 28.1941 L -575.4546 27.6992 L -576.2821 27.2159 L -577.1174 26.7424 L -577.9567 26.2812 L -579.086 25.6825 L -579.9407 25.2456 L -580.8015 24.819 L -581.9602 24.265 L -582.8414 23.8582 L -583.7285 23.4607 L -584.9217 22.9437 L -585.8244 22.5649 L -586.7322 22.1939 L -587.646 21.8299 L -588.5682 21.471 L -589.8032 21.0026 L -590.738 20.6566 L -591.6783 20.3149 L -592.9416 19.8655 L -593.8951 19.5328 L -594.8556 19.2027 L -595.821 18.8751 L -597.1179 18.4403 L -598.0983 18.1152 L -599.4109 17.6835 L -600.4009 17.36 L -601.3988 17.0358 L -602.7336 16.6034 L -603.7405 16.2788 L -604.7532 15.953 L -606.1102 15.5186 L -607.1334 15.1924 L -608.1586 14.8672 L -609.5355 14.4337 L -610.5733 14.1087 L -611.6163 13.785 L -613.0124 13.3554 L -614.0628 13.0344 L -615.118 12.7143 L -616.1781 12.3944 L -617.5959 11.9688 L -618.6626 11.6493 L -619.7318 11.3283 L -621.1604 10.8982 L -622.2351 10.5719 L -623.666 10.1326 L -624.742 9.7971 L -625.8158 9.4581 L -627.2487 8.9976 L -628.3235 8.6454 L -629.3975 8.2877 L -630.8266 7.8 L -631.8973 7.4255 L -632.9657 7.0435 L -634.3877 6.5219 L -635.4512 6.1214 L -636.5129 5.7128 L -637.926 5.1541 L -638.9803 4.7262 L -640.0348 4.2885 L -641.0842 3.8426 L -642.132 3.3869 L -643.5247 2.7632 L -644.5616 2.2849 L -645.9381 1.6302 L -646.9645 1.1268 L -648.3257 .4369 L -649.3391 -.0942 L -650.3472 -.6379 L -651.6805 -1.3823 L -652.6723 -1.9558 L -653.6564 -2.5422 L -654.9556 -3.3447 L -655.9221 -3.9633 L -657.1945 -4.807 L -658.1397 -5.4561 L -659.3847 -6.3422 L -660.3061 -7.0217 L -661.2193 -7.716 L -662.4196 -8.6612 L -663.3083 -9.3852 L -664.1868 -10.1209 L -665.0556 -10.8678 L -665.9167 -11.6267 L -667.0486 -12.6514 L -667.8906 -13.4325 L -668.7239 -14.2207 L -669.5515 -15.0173 L -670.3735 -15.8215 L -671.1901 -16.6326 L -672.2677 -17.7214 L -673.071 -18.5469 L -673.8679 -19.3776 L -674.6601 -20.2155 L -675.7067 -21.3413 L -676.4845 -22.192 L -677.2576 -23.0499 L -678.2781 -24.2018 L -679.0375 -25.0739 L -679.7901 -25.9508 L -680.7858 -27.1309 L -681.5235 -28.02 L -682.2562 -28.9164 L -683.2237 -30.1209 L -683.9417 -31.0309 L -684.6526 -31.9466 L -685.5884 -33.1769 L -686.2819 -34.1082 L -686.9666 -35.0457 L -687.866 -36.306 L -688.5305 -37.2602 L -689.4001 -38.5416 L -690.0411 -39.5118 L -690.8783 -40.8138 L -691.4953 -41.8011 L -692.0998 -42.793 L -692.6946 -43.7947 L -693.2764 -44.802 L -693.8466 -45.8167 L -694.4045 -46.839 L -695.128 -48.212 L -695.6554 -49.2494 L -696.3392 -50.6451 L -696.6721 -51.3462 L -697.321 -52.756 L -697.7937 -53.8215 L -698.2534 -54.89 L -698.7013 -55.9638 L -699.2814 -57.4053 L -699.7032 -58.4917 L -700.114 -59.5815 L -700.5148 -60.6771 L -700.9047 -61.7752 L -701.2846 -62.878 L -701.6542 -63.9842 L -702.014 -65.0943 L -702.3634 -66.2069 L -702.8149 -67.6985 L -703.1412 -68.8181 L -703.4585 -69.9438 L -703.7656 -71.0713 L -704.0628 -72.202 L -704.4434 -73.7134 L -704.7178 -74.8528 L -704.9808 -75.9914 L -705.2335 -77.1353 L -705.5526 -78.6635 L -705.7786 -79.8129 L -705.9926 -80.9655 L -706.1946 -82.12 L -706.4446 -83.6617 L -706.6176 -84.8191 L -706.7791 -85.9822 L -706.9283 -87.1443 L -707.0654 -88.3096 L -707.1908 -89.4761 L -707.3395 -91.0327 L -707.4376 -92.2029 L -707.5242 -93.3748 L -707.5992 -94.5478 L -707.6623 -95.7205 L -707.7285 -97.2874 L -707.7645 -98.4631 L -707.7888 -99.6394 L -707.8015 -100.8172 L -707.8005 -102.3865 L -707.7862 -103.5647 L -707.7605 -104.7443 L -707.7234 -105.9223 L -707.6746 -107.1045 L -707.6147 -108.2806 L -707.5431 -109.4614 L -707.4308 -111.0279 L -707.3333 -112.2073 L -707.2252 -113.3832 L -707.0647 -114.9522 L -706.9324 -116.128 L -706.7899 -117.3036 L -706.5846 -118.8698 L -706.4191 -120.043 L -706.2436 -121.2154 L -705.9931 -122.7788 L -705.7933 -123.948 L -705.5823 -125.1178 L -705.2844 -126.6736 L -705.0481 -127.8384 L -704.7159 -129.3908 L -704.4547 -130.5517 L -704.0893 -132.0977 L -703.8027 -133.2535 L -703.5046 -134.4082 L -703.0891 -135.9449 L -702.7644 -137.093 L -702.4277 -138.2395 L -701.9611 -139.7619 L -701.5974 -140.9001 L -701.2212 -142.0361 L -700.7015 -143.5436 L -700.2979 -144.6696 L -699.8817 -145.7929 L -699.4544 -146.9097 L -699.0147 -148.0234 L -698.5628 -149.1328 L -698.0989 -150.2382 L -697.4621 -151.7037 L -696.9707 -152.7969 L -696.4671 -153.8863 L -695.9511 -154.9716 L -695.4252 -156.0486 L -694.7043 -157.4807 L -694.1511 -158.5476 L -693.3968 -159.9609 L -692.8172 -161.0168 L -692.0283 -162.4151 L -691.4242 -163.4579 L -690.8089 -164.4966 L -689.9746 -165.8703 L -689.3365 -166.8965 L -688.6898 -167.9166 L -687.8137 -169.2691 L -687.1461 -170.2785 L -686.4697 -171.2835 L -685.5557 -172.6153 L -684.8609 -173.6087 L -684.1572 -174.5989 L -683.2082 -175.9103 L -682.4866 -176.8895 L -681.7579 -177.8636 L -680.7745 -179.1554 L -680.0286 -180.1184 L -679.2744 -181.0781 L -678.2587 -182.3485 L -677.4866 -183.2976 L -676.7085 -184.2404 L -675.924 -185.1775 L -675.1312 -186.111 L -674.0625 -187.3477 L -673.2525 -188.2685 L -672.4338 -189.1844 L -671.3314 -190.3948 L -670.4954 -191.2953 L -669.3671 -192.4871 L -668.5121 -193.3725 L -667.3577 -194.5434 L -666.4818 -195.4124 L -665.3028 -196.5564 L -664.4068 -197.4057 L -663.1974 -198.5245 L -662.2801 -199.3529 L -661.3543 -200.1709 L -660.4189 -200.9801 L -659.1579 -202.043 L -658.2006 -202.8291 L -657.2359 -203.6036 L -656.2629 -204.3675 L -654.9498 -205.3709 L -653.9561 -206.1102 L -652.9526 -206.8405 L -651.6042 -207.7975 L -650.5842 -208.504 L -649.2119 -209.4327 L -648.1759 -210.1182 L -647.1338 -210.796 L -646.0865 -211.4659 L -645.0325 -212.1291 L -643.9722 -212.7861 L -642.5532 -213.6499 L -641.4818 -214.2913 L -640.4065 -214.926 L -638.9664 -215.7621 L -637.88 -216.3834 L -636.7913 -216.998 L -635.6961 -217.6084 L -634.5984 -218.2123 L -633.1281 -219.0099 L -632.0219 -219.6016 L -630.9122 -220.1879 L -629.4256 -220.9622 L -628.3078 -221.536 L -626.8101 -222.2932 L -625.6836 -222.8536 L -624.5524 -223.4084 L -623.4166 -223.9573 L -622.2775 -224.4991 L -621.1346 -225.0343 L -619.9877 -225.5624 L -618.8381 -226.0829 L -617.6836 -226.5969 L -616.1369 -227.2723 L -614.9712 -227.7715 L -613.799 -228.2652 L -612.2307 -228.9133 L -611.0449 -229.394 L -609.4532 -230.0274 L -608.2499 -230.4973 L -607.0374 -230.9631 L -605.8169 -231.4245 L -604.5856 -231.8825 L -602.9303 -232.4857 L -601.6808 -232.9316 L -600.4201 -233.3731 L -599.1512 -233.8089 L -597.4459 -234.3812 L -596.1572 -234.8033 L -594.8576 -235.2199 L -593.5508 -235.6296 L -591.7972 -236.1651 L -590.4687 -236.5599 L -589.1353 -236.9467 L -587.7905 -237.3274 L -586.4371 -237.7011 L -584.6241 -238.1873 L -583.2519 -238.5443 L -581.872 -238.8943 L -580.024 -239.3486 L -578.6293 -239.6813 L -577.2283 -240.0064 L -575.8151 -240.3256 L -573.9233 -240.7393 L -572.4945 -241.0413 L -571.0585 -241.3363 L -569.1362 -241.7174 L -567.6844 -241.9953 L -566.2268 -242.2659 L -564.761 -242.5298 L -563.2901 -242.7863 L -561.8109 -243.0363 L -560.3272 -243.2789 L -558.8315 -243.5156 L -556.838 -243.8196 L -555.3312 -244.0406 L -553.8161 -244.2557 L -551.793 -244.532 L -550.265 -244.7324 L -548.7317 -244.9266 L -547.1937 -245.1147 L -545.6469 -245.2974 L -544.0967 -245.474 L -542.0191 -245.7012 L -540.4558 -245.865 L -538.3601 -246.0754 L -536.7833 -246.2271 L -535.1998 -246.3737 L -533.0788 -246.5608 L -531.4877 -246.6944 L -529.8877 -246.8227 L -528.2836 -246.9454 L -526.6762 -247.0621 L -524.5278 -247.2083 L -522.9109 -247.3112 L -521.2915 -247.4075 L -519.6687 -247.4977 L -518.0459 -247.5813 L -515.8738 -247.6836 L -514.2433 -247.7531 L -512.0629 -247.8364 L -510.4255 -247.8925 L -508.2363 -247.9587 L -506.5931 -248.0024 L -504.3955 -248.0527 L -502.7455 -248.0849 L -501.0919 -248.1125 L -499.4368 -248.1359 L -497.778 -248.1556 L -495.5616 -248.1763 L -493.8993 -248.1879 L -492.2332 -248.1961 L -490.5631 -248.2014 L -488.3344 -248.204 L -486.6588 -248.2024 L -484.9819 -248.1983 L -482.7168 -248.1885 L -481.0584 -248.1787 L -479.3735 -248.1667 L -477.1219 -248.1477 L -475.4311 -248.1315 L -473.7386 -248.1137 L -471.4789 -248.0884 L -469.7817 -248.0687 L -468.0812 -248.0487 L -466.3744 -248.0282 L -464.6744 -248.0085 L -462.9668 -247.9891 L -461.2578 -247.9699 L -458.9764 -247.9465 L -457.2632 -247.9296 L -455.5471 -247.914 L -453.258 -247.8944 L -451.5355 -247.8805 L -449.2427 -247.8633 L -447.5163 -247.8509 L -445.7892 -247.8389 L -444.0641 -247.8268 L -442.3334 -247.8148 L -440.6006 -247.8026 L -438.8651 -247.7904 L -436.5543 -247.7743 L -434.8144 -247.7619 L -433.0718 -247.7495 L -431.3293 -247.7373 L -429.5843 -247.7253 L -427.8362 -247.7142 L -425.5049 -247.7016 L -423.7516 -247.6936 L -421.414 -247.6857 L -419.6557 -247.6818 L -417.3099 -247.6802 L -415.5517 -247.6821 L -413.7886 -247.6864 L -412.0224 -247.6932 L -410.2537 -247.7031 L -408.491 -247.7156 L -406.7201 -247.7309 L -404.3604 -247.7553 L -402.5848 -247.7772 L -400.813 -247.8018 L -399.0352 -247.8293 L -397.2602 -247.8595 L -394.8826 -247.9047 L -393.1081 -247.9419 L -391.3256 -247.9819 L -389.5445 -248.0247 L -387.7594 -248.0707 L -385.975 -248.1196 L -384.1864 -248.1711 L -381.8052 -248.2436 L -380.0175 -248.3004 L -378.2255 -248.3589 L -376.4369 -248.4186 L -374.6452 -248.4788 L -372.856 -248.5387 L -371.0691 -248.5974 L -368.6973 -248.6722 L -366.9302 -248.7248 L -365.1778 -248.7735 L -362.8733 -248.8313 L -361.1639 -248.869 L -358.9231 -248.9109 L -357.2673 -248.9358 L -355.6339 -248.9552 L -353.493 -248.9723 L -351.9128 -248.9791 L -350.3588 -248.9811 L -348.8257 -248.9786 L -347.3178 -248.9719 L -345.3494 -248.9576 L -343.897 -248.9433 L -342.4705 -248.9263 L -340.6032 -248.9003 L -339.2323 -248.8788 L -337.4401 -248.8485 L -336.1284 -248.8253 L -334.8423 -248.8021 L -333.5843 -248.7789 L -332.3545 -248.7555 L -330.7609 -248.7239 L -329.5951 -248.6994 L -328.4532 -248.6741 L -326.9729 -248.6388 L -325.8915 -248.6106 L -324.8332 -248.5806 L -323.4592 -248.5372 L -322.447 -248.5016 L -321.4473 -248.4631 L -320.4571 -248.4208 L -319.4755 -248.3746 L -318.1732 -248.3059 L -317.1976 -248.2485 L -316.2241 -248.1861 L -315.2473 -248.1181 L -314.2696 -248.0446 L -312.962 -247.9367 L -311.9793 -247.8477 L -310.9948 -247.7514 L -309.6804 -247.6111 L -308.6913 -247.4964 L -307.3699 -247.3302 L -306.378 -247.195 L -305.3843 -247.05 L -304.3894 -246.8951 L -303.0605 -246.6728 L -302.0619 -246.4937 L -300.7319 -246.239 L -299.7317 -246.0349 L -298.7328 -245.8202 L -297.3989 -245.5154 L -296.3999 -245.273 L -295.3996 -245.0176 L -294.4033 -244.7501 L -293.0764 -244.3731 L -292.0847 -244.0754 L -291.0964 -243.7644 L -290.1104 -243.4399 L -288.8039 -242.9872 L -287.8284 -242.632 L -286.8555 -242.2628 L -285.8909 -241.8817 L -284.6126 -241.3529 L -283.664 -240.9426 L -282.7205 -240.5194 L -281.4761 -239.9371 L -280.5516 -239.4864 L -279.6366 -239.0246 L -278.7293 -238.5509 L -277.83 -238.0657 L -276.9412 -237.5701 L -276.0598 -237.0626 L -274.9017 -236.3706 L -274.0454 -235.8399 L -273.1989 -235.299 L -272.3621 -234.7478 L -271.2649 -233.999 L -270.4549 -233.4263 L -269.3949 -232.6504 L -268.6128 -232.0573 L -267.8452 -231.4578 L -266.8414 -230.6468 L -266.1049 -230.0309 L -265.1412 -229.1972 L -264.4313 -228.5619 L -263.502 -227.7018 L -262.8191 -227.0487 L -262.1451 -226.3856 L -261.2659 -225.4922 L -260.6206 -224.8149 L -259.9877 -224.1318 L -259.1663 -223.2143 L -258.567 -222.5212 L -257.7917 -221.5924 L -257.2261 -220.8903 L -256.6761 -220.1862 L -255.9669 -219.2448 L -255.4514 -218.5348 L -254.95 -217.8217 L -254.4645 -217.109 L -253.8379 -216.1538 L -253.3846 -215.4362 L -252.9445 -214.7167 L -252.5169 -213.9947 L -252.1035 -213.274 L -251.5701 -212.3089 L -251.1844 -211.5841 L -250.8107 -210.8586 L -250.4493 -210.1332 L -250.0991 -209.4066 L -249.6498 -208.437 L -249.3243 -207.7065 L -248.9055 -206.7294 L -248.6016 -205.9929 L -248.2098 -205.0061 L -247.9259 -204.2631 L -247.5602 -203.2673 L -247.2951 -202.5149 L -247.0401 -201.7635 L -246.7131 -200.7538 L -246.479 -199.9935 L -246.1822 -198.9748 L -245.9713 -198.2067 L -245.7709 -197.4368 L -245.5808 -196.664 L -245.3436 -195.6289 L -245.1778 -194.8478 L -245.0237 -194.0682 L -244.8797 -193.2831 L -244.7465 -192.4946 L -244.6241 -191.7039 L -244.5122 -190.9084 L -244.4111 -190.1112 L -244.2931 -189.0417 L -244.2173 -188.2377 L -244.1332 -187.1604 L -244.083 -186.3498 L -244.0441 -185.5382 L -244.0092 -184.4507 L -243.996 -183.6322 L -243.995 -182.5381 L -244.0066 -181.7132 L -244.0382 -180.6108 L -244.0741 -179.7804 L -244.1376 -178.6702 L -244.1969 -177.8343 L -244.2661 -176.9951 L -244.3731 -175.8738 L -244.4645 -175.0298 L -244.5655 -174.1839 L -244.7149 -173.0535 L -244.8381 -172.2048 L -244.9713 -171.3534 L -245.1646 -170.2176 L -245.3218 -169.3649 L -245.4894 -168.5115 L -245.6676 -167.6573 L -245.8566 -166.8024 L -246.0564 -165.9473 L -246.2669 -165.0931 L -246.5649 -163.9537 L -246.8016 -163.0987 L -247.0492 -162.2441 L -247.3959 -161.1058 L -247.6688 -160.2517 L -247.9517 -159.3993 L -248.2458 -158.5453 L -248.5489 -157.6958 L -248.9696 -156.5628 L -249.2973 -155.7134 L -249.6351 -154.865 L -249.983 -154.0184 L -250.3414 -153.1725 L -250.8349 -152.0493 L -251.218 -151.2082 L -251.7457 -150.0903 L -252.1539 -149.255 L -252.7151 -148.1448 L -253.1477 -147.3161 L -253.5913 -146.4896 L -254.1993 -145.392 L -254.6672 -144.5731 L -255.1458 -143.7571 L -255.8019 -142.6715 L -256.3032 -141.866 L -256.8163 -141.0619 L -257.5163 -139.9966 L -258.0545 -139.2013 L -258.6031 -138.4105 L -259.1623 -137.6241 L -259.7298 -136.8446 L -260.5034 -135.8097 L -261.0948 -135.0383 L -261.696 -134.2706 L -262.511 -133.2548 L -263.1342 -132.4964 L -263.7653 -131.7436 L -264.6205 -130.7466 L -265.2724 -130.0038 L -266.1543 -129.0213 L -266.8257 -128.29 L -267.7354 -127.3212 L -268.1943 -126.842 L -268.8901 -126.1271 L -269.595 -125.4167 L -270.3076 -124.7124 L -271.0278 -124.0143 L -272.0021 -123.0913 L -272.7408 -122.407 L -273.487 -121.7291 L -274.494 -120.8348 L -275.2586 -120.1713 L -276.0285 -119.5165 L -276.8067 -118.8678 L -277.8557 -118.0143 L -278.6507 -117.3834 L -279.7215 -116.555 L -280.5348 -115.9418 L -281.6265 -115.14 L -282.4544 -114.5482 L -283.5703 -113.7724 L -284.4157 -113.2011 L -285.5514 -112.4554 L -286.4125 -111.906 L -287.5716 -111.1871 L -288.4464 -110.6596 L -289.3278 -110.1404 L -290.5143 -109.4604 L -291.4082 -108.9618 L -292.6079 -108.3105 L -293.5144 -107.8314 L -294.7327 -107.2048 L -295.6533 -106.744 L -296.8854 -106.1439 L -297.8139 -105.7039 L -299.0619 -105.1289 L -300.0057 -104.7063 L -301.2667 -104.1579 L -302.219 -103.7558 L -303.4961 -103.2325 L -304.461 -102.8489 L -305.7498 -102.352 L -306.7236 -101.9878 L -307.7003 -101.6322 L -308.6806 -101.2847 L -309.9948 -100.8333 L -310.9847 -100.5037 L -312.3074 -100.0768 L -313.3055 -99.7646 L -314.6411 -99.3598 L -315.6463 -99.0647 L -316.6541 -98.777 L -317.6656 -98.4961 L -318.6794 -98.2224 L -320.0358 -97.8679 L -321.0577 -97.6095 L -322.0796 -97.3586 L -323.448 -97.034 L -324.4798 -96.7981 L -325.8558 -96.4959 L -326.8907 -96.2784 L -327.9297 -96.0688 L -329.3173 -95.8033 L -330.3609 -95.6148 L -331.405 -95.4365 L -332.8029 -95.2144 L -333.8527 -95.0603 L -334.9038 -94.9171 L -335.9586 -94.7846 L -337.365 -94.6254 L -338.4243 -94.5186 L -339.4824 -94.4232 L -340.5431 -94.3389 L -341.6055 -94.266 L -343.0228 -94.1862 L -344.0881 -94.1393 L -345.1531 -94.1034 L -346.2214 -94.0781 L -347.6443 -94.0597 L -348.7116 -94.0565 L -350.1381 -94.0648 L -351.2061 -94.0793 L -352.2772 -94.1002 L -353.3458 -94.1265 L -354.7743 -94.1688 L -355.8435 -94.2054 L -357.2728 -94.2597 L -358.3424 -94.3035 L -359.4143 -94.3497 L -360.4854 -94.397 L -361.9138 -94.4615 L -362.9883 -94.5118 L -364.0588 -94.5634 L -365.132 -94.6172 L -366.5618 -94.6922 L -367.6367 -94.7516 L -368.71 -94.8136 L -370.1424 -94.9017 L -371.2155 -94.9719 L -372.2912 -95.046 L -373.3653 -95.1239 L -374.4398 -95.2061 L -375.516 -95.2925 L -376.9491 -95.414 L -378.0281 -95.5096 L -379.4635 -95.6422 L -380.5439 -95.7459 L -381.6237 -95.8522 L -382.707 -95.9612 L -383.7914 -96.0721 L -385.2431 -96.2239 L -386.3309 -96.3394 L -387.7896 -96.4963 L -388.888 -96.6158 L -389.9877 -96.7359 L -391.462 -96.8973 L -392.5718 -97.0191 L -394.062 -97.1825 L -395.1851 -97.3057 L -396.6921 -97.4703 L -397.83 -97.5944 L -398.9713 -97.7184 L -400.1239 -97.8433 L -401.6607 -98.0094 L -402.8235 -98.1348 L -403.9937 -98.261 L -405.5616 -98.4299 L -406.7453 -98.5573 L -407.9338 -98.6852 L -409.5306 -98.8571 L -410.7318 -98.9867 L -411.9419 -99.1173 L -413.1546 -99.2484 L -414.3749 -99.3805 L -415.5999 -99.5132 L -416.8276 -99.6465 L -418.0624 -99.7806 L -419.3 -99.9149 L -420.952 -100.0942 L -422.1973 -100.2282 L -423.4417 -100.3615 L -424.6905 -100.4943 L -426.3546 -100.6688 L -427.6049 -100.7982 L -429.2702 -100.9677 L -430.5197 -101.0924 L -431.7699 -101.2149 L -433.0189 -101.3354 L -434.2672 -101.4532 L -435.9298 -101.607 L -437.1772 -101.7196 L -438.4209 -101.83 L -439.6632 -101.9374 L -440.9045 -102.0424 L -442.5508 -102.1773 L -443.7827 -102.2748 L -445.4162 -102.3996 L -446.6332 -102.4889 L -447.8464 -102.5748 L -449.0511 -102.6568 L -450.2512 -102.7354 L -451.4416 -102.8099 L -452.6229 -102.8807 L -453.7979 -102.9479 L -455.3478 -103.0313 L -456.5004 -103.0894 L -457.6446 -103.1436 L -458.7794 -103.1939 L -460.2783 -103.255 L -461.3923 -103.2964 L -462.4974 -103.3341 L -463.9526 -103.3785 L -465.031 -103.4075 L -466.099 -103.433 L -467.1544 -103.4549 L -468.5456 -103.4787 L -469.5746 -103.4926 L -470.5918 -103.5034 L -471.5995 -103.5111 L -472.9215 -103.517 L -473.9002 -103.5185 L -475.1853 -103.5168 L -476.1336 -103.5131 L -477.0724 -103.5073 L -477.996 -103.4998 L -479.2165 -103.4869 L -480.1225 -103.4753 L -481.0245 -103.4623 L -482.2188 -103.4425 L -483.1112 -103.426 L -484.0004 -103.408 L -485.1837 -103.3814 L -486.0701 -103.3596 L -486.9552 -103.3355 L -487.841 -103.3099 L -489.0199 -103.2725 L -489.9037 -103.2417 L -490.7857 -103.2084 L -491.9612 -103.1593 L -492.8361 -103.1191 L -493.7095 -103.0757 L -494.5797 -103.029 L -495.4442 -102.9787 L -496.3046 -102.9248 L -497.1615 -102.8671 L -498.2969 -102.7845 L -499.1442 -102.7177 L -499.9858 -102.6468 L -500.8242 -102.5716 L -501.6569 -102.4922 L -502.4845 -102.4086 L -503.5809 -102.2902 L -504.3963 -102.1961 L -505.4739 -102.0633 L -506.2741 -101.958 L -507.068 -101.848 L -508.1127 -101.6946 L -508.8836 -101.5748 L -509.6455 -101.4506 L -510.3946 -101.3225 L -511.3761 -101.145 L -512.0967 -101.0077 L -512.8053 -100.8669 L -513.5036 -100.7223 L -514.1884 -100.5745 L -515.0882 -100.3716 L -515.7526 -100.2155 L -516.4139 -100.0544 L -517.0736 -99.8886 L -517.7325 -99.7181 L -518.3917 -99.5424 L -519.2704 -99.3007 L -519.9296 -99.1137 L -520.5895 -98.9214 L -521.4685 -98.6567 L -522.1271 -98.4514 L -522.7862 -98.2394 L -523.6625 -97.9471 L -524.3202 -97.7199 L -524.9759 -97.4866 L -525.6305 -97.2463 L -526.2846 -96.9984 L -526.9351 -96.7434 L -527.7998 -96.3908 L -528.4436 -96.1176 L -529.2965 -95.7401 L -529.9289 -95.448 L -530.5553 -95.1475 L -531.1734 -94.8394 L -531.785 -94.5226 L -532.5904 -94.0868 L -533.1833 -93.7518 L -533.7705 -93.4077 L -534.3487 -93.0566 L -535.1084 -92.5757 L -535.6689 -92.2062 L -536.2219 -91.8294 L -536.7687 -91.4441 L -537.3065 -91.0522 L -537.8381 -90.6514 L -538.3607 -90.2432 L -538.8759 -89.8259 L -539.3821 -89.4004 L -540.0429 -88.8201 L -540.5283 -88.3748 L -541.1577 -87.7708 L -541.6171 -87.309 L -542.0651 -86.8402 L -542.6362 -86.2136 L -543.048 -85.7397 L -543.4432 -85.2656 L -543.8219 -84.792 L -544.1836 -84.3204 L -544.642 -83.6941 L -544.9684 -83.2279 L -545.2831 -82.7622 L -545.588 -82.2953 L -545.9812 -81.6706 L -546.2675 -81.1989 L -546.5474 -80.7235 L -546.822 -80.2421 L -547.0905 -79.7568 L -547.3547 -79.2647 L -547.698 -78.6015 L -547.9491 -78.0978 L -548.1951 -77.5884 L -548.5135 -76.9029 L -548.7459 -76.3821 L -548.9716 -75.8571 L -549.1907 -75.3268 L -549.4026 -74.7915 L -549.6731 -74.0698 L -549.8665 -73.523 L -550.0515 -72.9714 L -550.2279 -72.4158 L -550.3955 -71.8554 L -550.604 -71.1029 L -550.7493 -70.5326 L -550.9266 -69.769 L -551.0476 -69.1922 L -551.1584 -68.6124 L -551.2892 -67.8361 L -551.3751 -67.2495 L -551.4728 -66.4657 L -551.5341 -65.8739 L -551.6 -65.0812 L -551.6379 -64.4836 L -551.6662 -63.8821 L -551.6891 -63.0741 L -551.695 -62.4657 L -551.6915 -61.8528 L -551.6726 -61.0297 L -551.6477 -60.4088 L -551.6003 -59.5759 L -551.5542 -58.9464 L -551.4781 -58.1014 L -551.4098 -57.4637 L -551.3039 -56.6086 L -551.2132 -55.9635 L -551.113 -55.317 L -551.0028 -54.6661 L -550.8827 -54.0132 L -550.7068 -53.1386 L -550.5632 -52.4802 L -550.4092 -51.8197 L -550.1877 -50.937 L -550.0093 -50.2743 L -549.8201 -49.6102 L -549.5507 -48.7253 L -549.3355 -48.0631 L -549.1095 -47.4045 L -548.7899 -46.5277 L -548.5371 -45.8734 L -548.2732 -45.223 L -547.9038 -44.3619 L -547.6136 -43.7203 L -547.3124 -43.0838 L -546.893 -42.2411 L -546.5653 -41.6132 L -546.2281 -40.9911 L -545.7623 -40.1658 L -545.4023 -39.5522 L -545.0325 -38.9405 L -544.525 -38.1285 L -544.1339 -37.5215 L -543.6011 -36.7164 L -543.1909 -36.1123 L -542.7741 -35.5111 L -542.3493 -34.9106 L -541.9161 -34.3099 L -541.4766 -33.712 L -540.8783 -32.9152 L -540.4217 -32.3204 L -539.9575 -31.7266 L -539.4853 -31.1337 L -539.0062 -30.5431 L -538.5192 -29.9536 L -537.8592 -29.1714 L -537.3546 -28.586 L -536.6714 -27.8114 L -536.1488 -27.2333 L -535.4402 -26.468 L -534.8983 -25.8972 L -534.1633 -25.1421 L -533.5937 -24.5715 L -532.8447 -23.8399 L -532.2659 -23.2889 L -531.4823 -22.5618 L -530.8839 -22.0201 L -530.2784 -21.4834 L -529.6633 -20.9489 L -528.8317 -20.2424 L -528.1966 -19.7143 L -527.5553 -19.1906 L -526.9052 -18.6677 L -526.2468 -18.1455 L -525.3575 -17.4503 L -524.6823 -16.9291 L -523.7718 -16.235 L -523.0802 -15.7134 L -522.149 -15.0173 L -521.444 -14.4941 L -520.7327 -13.9691 L -520.0154 -13.4422 L -519.2933 -12.9143 L -518.322 -12.2076 L -517.5871 -11.6755 L -516.8473 -11.1421 L -515.8532 -10.4295 L -515.0992 -9.8927 L -514.3413 -9.3563 L -513.5765 -8.8185 L -512.8049 -8.2795 L -512.0293 -7.7411 L -511.2475 -7.2021 L -510.4594 -6.6624 L -509.6659 -6.1225 L -508.8656 -5.5814 L -507.7906 -4.8603 L -506.9771 -4.3184 L -505.8825 -3.5943 L -505.0586 -3.0527 L -503.9487 -2.3281 L -503.1091 -1.7832 L -501.9809 -1.0553 L -501.1288 -.5085 L -500.2669 .0422 L -499.1128 .7758 L -498.2382 1.3291 L -497.3565 1.8846 L -496.4687 2.4418 L -495.2741 3.189 L -494.3714 3.7518 L -493.4625 4.3173 L -492.2403 5.0759 L -491.3183 5.6468 L -490.3873 6.2225 L -489.4537 6.7988 L -488.5114 7.3796 L -487.5655 7.9619 L -486.6148 8.5459 L -485.3339 9.3311 L -484.3678 9.9221 L -483.0691 10.7145 L -482.0869 11.3124 L -481.0992 11.9124 L -480.1037 12.516 L -478.7672 13.3246 L -477.7563 13.9349 L -476.7389 14.5482 L -475.7144 15.1646 L -474.6847 15.7832 L -473.6514 16.403 L -472.6064 17.0291 L -471.2098 17.8653 L -470.1525 18.4983 L -468.734 19.3475 L -467.6611 19.9898 L -466.5845 20.6348 L -465.5005 21.2839 L -464.4097 21.9372 L -463.3137 22.5929 L -462.2096 23.2526 L -461.1006 23.9141 L -459.984 24.5789 L -458.4838 25.4692 L -457.3533 26.1379 L -456.215 26.809 L -455.0732 27.4799 L -453.924 28.1527 L -452.7724 28.8243 L -451.2317 29.7184 L -450.0687 30.3898 L -448.5181 31.2806 L -447.3503 31.9475 L -445.7921 32.8326 L -444.6191 33.4954 L -443.4446 34.1556 L -442.2654 34.8157 L -441.0879 35.4722 L -439.9061 36.1282 L -438.3264 37.0006 L -437.1379 37.654 L -435.5513 38.522 L -434.3577 39.1712 L -433.1594 39.82 L -431.5614 40.6794 L -430.3577 41.3224 L -428.7496 42.1754 L -427.5405 42.8117 L -426.3254 43.4464 L -424.7087 44.2832 L -423.4903 44.9079 L -421.8658 45.7326 L -420.6449 46.346 L -419.4211 46.9551 L -418.1972 47.5584 L -416.563 48.3551 L -415.3365 48.9462 L -413.6992 49.726 L -412.4663 50.3064 L -410.8272 51.0688 L -409.5926 51.6363 L -407.95 52.3822 L -406.7155 52.9363 L -405.4785 53.4859 L -403.8296 54.2105 L -402.5922 54.7482 L -401.3552 55.281 L -400.1146 55.8101 L -398.4629 56.5074 L -397.217 57.0281 L -395.5535 57.7155 L -394.3032 58.2264 L -393.0508 58.733 L -391.3808 59.4001 L -390.1247 59.8954 L -388.8675 60.3855 L -387.1873 61.0313 L -385.9254 61.5093 L -384.6601 61.9826 L -382.9745 62.6035 L -381.7062 63.0635 L -380.4378 63.5173 L -379.1659 63.966 L -377.8947 64.4081 L -376.623 64.8439 L -374.9234 65.4163 L -373.6472 65.8385 L -372.3704 66.2542 L -371.0905 66.6645 L -369.3861 67.2004 L -368.1054 67.595 L -366.8243 67.9826 L -365.1145 68.4888 L -363.8313 68.8603 L -362.5464 69.225 L -361.2606 69.5824 L -359.5453 70.0483 L -358.2582 70.3896 L -356.97 70.7243 L -355.2495 71.1607 L -353.9624 71.4793 L -352.2404 71.8952 L -350.95 72.1992 L -349.2262 72.595 L -347.936 72.8836 L -346.6451 73.1655 L -345.3537 73.4405 L -344.0644 73.708 L -342.776 73.9682 L -341.49 74.2208 L -339.7796 74.5466 L -338.5017 74.7823 L -337.2288 75.0104 L -335.9614 75.2312 L -334.7046 75.4441 L -333.0391 75.7167 L -331.8006 75.9123 L -330.5678 76.101 L -328.9355 76.3418 L -327.7158 76.515 L -326.4964 76.683 L -324.8785 76.898 L -323.6696 77.0526 L -322.4614 77.2025 L -321.2571 77.3472 L -319.6552 77.5326 L -318.8444 77.6232 L -317.2563 77.7959 L -316.0613 77.9216 L -314.8654 78.0437 L -313.6736 78.1619 L -312.4806 78.2768 L -311.2934 78.3878 L -310.1045 78.4955 L -308.5253 78.6339 L -307.3418 78.734 L -306.1602 78.8314 L -304.5894 78.9569 L -303.4118 79.0481 L -301.8486 79.1656 L -300.6766 79.2516 L -299.12 79.3626 L -297.9561 79.4432 L -296.7954 79.5217 L -295.6373 79.5978 L -294.4807 79.6714 L -293.3323 79.7419 L -292.1847 79.8099 L -291.0424 79.875 L -289.5268 79.9569 L -288.3942 80.0148 L -286.8952 80.0869 L -285.7748 80.1374 L -284.6589 80.1847 L -283.181 80.2428 L -282.0797 80.283 L -280.9832 80.3206 L -279.5362 80.3668 L -278.4571 80.3988 L -277.0328 80.4379 L -275.975 80.4647 L -274.9268 80.4895 L -273.5472 80.5196 L -272.5261 80.54 L -271.5167 80.5586 L -270.5212 80.5754 L -269.5384 80.5905 L -268.5697 80.6039 L -267.6158 80.6157 L -266.6818 80.6258 L -265.766 80.6344 L -264.8708 80.6414 L -263.9981 80.6469 L -262.8677 80.652 L -262.0468 80.6541 L -261.2489 80.6546 L -260.4758 80.6537 L -259.4825 80.6503 L -258.7665 80.6462 L -257.8493 80.6388 L -257.1873 80.632 L -256.3283 80.6211 L -255.6914 80.6117 L -255.0592 80.6011 L -254.4308 80.5895 L -253.804 80.5767 L -253.182 80.5627 L -252.3557 80.5423 L -251.7384 80.5256 L -250.9204 80.5014 L -250.3123 80.4817 L -249.7081 80.4607 L -249.1091 80.4382 L -248.5154 80.414 L -247.9273 80.3881 L -247.3439 80.3605 L -246.7651 80.3312 L -246.0023 80.2896 L -245.4345 80.2564 L -244.6868 80.2094 L -244.1301 80.1718 L -243.3962 80.1185 L -242.8506 80.0761 L -242.3112 80.0318 L -241.599 79.9694 L -241.0716 79.9203 L -240.5483 79.869 L -240.0286 79.8154 L -239.3432 79.7401 L -238.8314 79.6805 L -238.3224 79.6186 L -237.6441 79.5318 L -237.1341 79.4633 L -236.6246 79.3921 L -236.1123 79.3177 L -235.5986 79.2403 L -235.0821 79.1593 L -234.563 79.0746 L -234.0418 78.9859 L -233.3426 78.8611 L -232.8152 78.7623 L -232.2863 78.6593 L -231.754 78.5513 L -231.2202 78.4385 L -230.6833 78.3201 L -229.9642 78.1537 L -229.4207 78.0217 L -228.8729 77.8834 L -228.1383 77.6894 L -227.583 77.5363 L -226.8391 77.3221 L -226.2798 77.1542 L -225.5303 76.9198 L -224.966 76.7363 L -224.3995 76.5458 L -223.6417 76.2812 L -223.0701 76.0741 L -222.3054 75.7868 L -221.7281 75.5622 L -220.9566 75.2513 L -220.375 75.0088 L -219.7918 74.7585 L -219.2066 74.5001 L -218.6196 74.2336 L -217.8366 73.8663 L -217.2485 73.5815 L -216.6599 73.2886 L -215.8759 72.8862 L -215.2883 72.5751 L -214.5059 72.1479 L -213.9194 71.8179 L -213.3345 71.4803 L -212.5556 71.0169 L -211.9713 70.6591 L -211.1979 70.1712 L -210.618 69.7947 L -210.0401 69.4099 L -209.2728 68.8841 L -208.7001 68.4801 L -207.9394 67.928 L -207.3725 67.5048 L -206.8084 67.0733 L -206.2461 66.6328 L -205.503 66.0342 L -204.948 65.5746 L -204.3971 65.1074 L -203.6683 64.4714 L -203.1267 63.9845 L -202.4126 63.3223 L -201.8829 62.8158 L -201.1843 62.1265 L -200.669 61.6019 L -200.1581 61.0684 L -199.6528 60.5274 L -198.9856 59.793 L -198.493 59.2353 L -198.0047 58.6688 L -197.3634 57.9031 L -196.8877 57.3188 L -196.263 56.5294 L -195.8001 55.9278 L -195.3436 55.3201 L -194.8922 54.7041 L -194.4474 54.0819 L -193.8621 53.2396 L -193.4303 52.6001 L -192.8643 51.7372 L -192.4471 51.0817 L -192.0359 50.4185 L -191.6319 49.7485 L -191.105 48.8453 L -190.7176 48.1589 L -190.3377 47.4664 L -189.9643 46.7666 L -189.5975 46.0596 L -189.2374 45.3454 L -188.8848 44.6251 L -188.5392 43.8976 L -188.1999 43.1615 L -187.7597 42.1702 L -187.4379 41.4174 L -187.1231 40.6568 L -186.815 39.8882 L -186.5137 39.1128 L -186.122 38.0677 L -185.8344 37.2725 L -185.4611 36.2046 L -185.1876 35.3955 L -184.9183 34.5761 L -184.5683 33.4766 L -184.3106 32.642 L -183.9745 31.5185 L -183.7274 30.6675 L -183.484 29.8071 L -183.1664 28.6495 L -182.9323 27.7695 L -182.6278 26.5887 L -182.4037 25.6923 L -182.1833 24.7864 L -181.9667 23.8732 L -181.7535 22.951 L -181.5442 22.0207 L -181.3386 21.0808 L -181.0721 19.8166 L -180.8781 18.8573 L -180.6892 17.8886 L -180.507 16.9157 L -180.33 15.9309 L -180.1595 14.9405 L -179.9954 13.943 L -179.8371 12.9359 L -179.6852 11.9244 L -179.5383 10.9012 L -179.3506 9.5289 L -179.2146 8.4897 L -179.0387 7.092 L -178.9106 6.0361 L -178.7846 4.9713 L -178.6607 3.9021 L -178.5377 2.8243 L -178.4148 1.7408 L -178.2489 .283 L -178.122 -.8147 L -177.9916 -1.9198 L -177.8106 -3.405 L -177.6688 -4.523 L -177.5202 -5.6485 L -177.311 -7.1563 L -177.1451 -8.2935 L -176.9696 -9.4459 L -176.7264 -10.9638 L -176.5324 -12.117 L -176.3296 -13.2758 L -176.1188 -14.4378 L -175.8249 -15.9957 L -175.5952 -17.1693 L -175.2771 -18.7393 L -175.0292 -19.9235 L -174.6864 -21.5084 L -174.4205 -22.7004 L -174.1462 -23.8966 L -173.8634 -25.0931 L -173.5712 -26.2906 L -173.2688 -27.489 L -172.9566 -28.6846 L -172.6331 -29.8816 L -172.1855 -31.4715 L -171.8373 -32.6598 L -171.3539 -34.2464 L -170.9796 -35.4293 L -170.593 -36.6133 L -170.1958 -37.7926 L -169.6473 -39.363 L -169.222 -40.5381 L -168.7858 -41.7073 L -168.1853 -43.263 L -167.7216 -44.4255 L -167.0863 -45.9698 L -166.5968 -47.1243 L -165.9278 -48.6582 L -165.4146 -49.803 L -164.8905 -50.9473 L -164.358 -52.0871 L -163.8171 -53.2235 L -163.0817 -54.7376 L -162.5211 -55.8704 L -161.9519 -57.0037 L -161.3757 -58.1354 L -160.5961 -59.6445 L -160.0033 -60.7775 L -159.4035 -61.9123 L -158.7979 -63.0466 L -157.979 -64.5632 L -157.3579 -65.6998 L -156.518 -67.218 L -155.8789 -68.3586 L -155.0156 -69.8787 L -154.3581 -71.0208 L -153.6934 -72.1617 L -152.7942 -73.684 L -152.1117 -74.8244 L -151.4212 -75.9658 L -150.4884 -77.4895 L -149.7812 -78.6313 L -148.8269 -80.1554 L -148.103 -81.2999 L -147.1264 -82.8294 L -146.3879 -83.9765 L -145.643 -85.1257 L -144.8911 -86.278 L -144.1339 -87.4313 L -143.1151 -88.9728 L -142.3446 -90.1316 L -141.5683 -91.2933 L -140.5243 -92.847 L -139.736 -94.0145 L -138.9428 -95.1848 L -137.8774 -96.75 L -137.0733 -97.9266 L -136.2658 -99.1048 L -135.4525 -100.2877 L -134.6352 -101.4734 L -133.816 -102.6592 L -132.9921 -103.8483 L -132.1633 -105.0418 L -131.3192 -106.2551 L -130.2188 -107.8327 L -129.378 -109.0361 L -128.5365 -110.2381 L -127.6894 -111.4456 L -126.84 -112.6545 L -125.7044 -114.2682 L -124.8485 -115.4831 L -123.7056 -117.1027 L -122.8463 -118.3198 L -121.6978 -119.9456 L -120.8374 -121.1635 L -119.9752 -122.3842 L -119.1147 -123.603 L -118.2539 -124.8231 L -117.3952 -126.0409 L -116.2511 -127.6663 L -115.3952 -128.8838 L -114.5419 -130.099 L -113.6895 -131.3149 L -112.8383 -132.5299 L -111.7068 -134.1462 L -110.8627 -135.3526 L -110.0186 -136.559 L -109.1772 -137.7616 L -108.0563 -139.3635 L -107.2214 -140.5569 L -106.3878 -141.7487 L -105.5567 -142.937 L -104.4558 -144.5119 L -103.6327 -145.6901 L -102.5417 -147.2532 L -101.7296 -148.4179 L -100.9211 -149.5785 L -99.8537 -151.1119 L -99.0612 -152.2508 L -98.2731 -153.383 L -97.4923 -154.5045 L -96.4673 -155.9757 L -95.7066 -157.0664 L -94.9529 -158.1455 L -94.2099 -159.2071 L -93.2329 -160.5978 L -92.5124 -161.6188 L -91.8014 -162.622 L -91.101 -163.6052 L -90.1802 -164.8894 L -89.4983 -165.8336 L -88.6006 -167.0675 L -87.9346 -167.9756 L -87.2749 -168.869 L -86.6204 -169.7488 L -85.9707 -170.6157 L -85.1134 -171.7496 L -84.474 -172.5874 L -83.8372 -173.415 L -82.993 -174.5002 L -82.3615 -175.3028 L -81.7306 -176.0965 L -81.1006 -176.8802 L -80.4706 -177.6548 L -79.628 -178.6758 L -78.9943 -179.4326 L -78.3574 -180.1838 L -77.505 -181.1746 L -76.8619 -181.9115 L -76.214 -182.6448 L -75.3461 -183.6132 L -74.6903 -184.3348 L -74.0311 -185.0515 L -73.3689 -185.763 L -72.4795 -186.7046 L -71.8075 -187.4054 L -71.1343 -188.0979 L -70.228 -189.0147 L -69.5431 -189.6955 L -68.8552 -190.3688 L -67.9298 -191.2575 L -67.2306 -191.9157 L -66.5264 -192.5672 L -65.8175 -193.2113 L -64.865 -194.0585 L -64.1441 -194.6858 L -63.175 -195.5105 L -62.4437 -196.1192 L -61.4604 -196.9192 L -60.7166 -197.5105 L -59.9689 -198.093 L -58.9631 -198.8572 L -58.2022 -199.4205 L -57.1808 -200.1571 L -56.4075 -200.6997 L -55.3706 -201.4073 L -54.5868 -201.9275 L -53.798 -202.4386 L -52.7397 -203.106 L -51.9398 -203.5977 L -51.1375 -204.0803 L -50.0612 -204.7121 L -49.2489 -205.1775 L -48.4355 -205.6343 L -47.3437 -206.2338 L -46.5219 -206.6755 L -45.6982 -207.1109 L -44.5955 -207.6822 L -43.7652 -208.1041 L -42.9327 -208.5204 L -42.0976 -208.9312 L -41.2595 -209.3374 L -40.4195 -209.7387 L -39.5766 -210.1355 L -38.7314 -210.5277 L -37.8847 -210.9148 L -36.7495 -211.4238 L -35.8961 -211.7983 L -34.7541 -212.2877 L -33.8936 -212.6476 L -32.7403 -213.1175 L -31.875 -213.4607 L -31.0051 -213.7974 L -29.8406 -214.2349 L -28.9628 -214.5548 L -28.0843 -214.8665 L -26.9069 -215.2706 L -26.0196 -215.5646 L -25.1316 -215.8496 L -23.9419 -216.2172 L -23.0454 -216.4833 L -22.1469 -216.7408 L -21.246 -216.9896 L -20.3411 -217.2301 L -19.1331 -217.5367 L -18.2216 -217.7572 L -17.0048 -218.037 L -16.089 -218.2367 L -15.1703 -218.4278 L -14.2483 -218.6102 L -13.324 -218.784 L -12.3967 -218.9494 L -11.1585 -219.1572 L -10.2262 -219.3043 L -9.2914 -219.4445 L -8.3521 -219.5785 L -7.4147 -219.7057 L -6.4723 -219.8277 L -5.2126 -219.9818 L -4.2652 -220.0913 L -2.9987 -220.2298 L -2.0457 -220.3283 L -1.0896 -220.4226 L -.1324 -220.5124 L 1.1486 -220.6252 L 2.1108 -220.7041 L 3.3978 -220.8016 L 4.3663 -220.8684 L 5.3357 -220.9289 L 6.3077 -220.9823 L 7.2833 -221.028 L 8.2612 -221.0653 L 9.2381 -221.094 L 10.5456 -221.1189 L 11.5261 -221.1275 L 12.8389 -221.1249 L 13.8259 -221.1125 L 14.8133 -221.0911 L 15.8032 -221.0606 L 16.7932 -221.0206 L 18.1165 -220.9521 L 19.1117 -220.8888 L 20.4365 -220.7889 L 21.4344 -220.7019 L 22.7627 -220.5704 L 23.7617 -220.4601 L 25.0903 -220.2985 L 26.0884 -220.1666 L 27.0874 -220.026 L 28.42 -219.8261 L 29.4201 -219.667 L 30.4206 -219.5003 L 31.4216 -219.3262 L 32.4237 -219.1445 L 33.7594 -218.8904 L 34.7612 -218.6904 L 36.0978 -218.4114 L 37.0995 -218.1936 L 38.1039 -217.9683 L 39.1061 -217.7369 L 40.4423 -217.4184 L 41.4465 -217.1716 L 42.4486 -216.9193 L 43.4518 -216.6605 L 44.4549 -216.3957 L 45.4575 -216.1248 L 46.4622 -215.8468 L 47.4632 -215.5632 L 48.4656 -215.2724 L 49.4684 -214.9748 L 50.803 -214.5681 L 51.805 -214.2543 L 52.8054 -213.9333 L 54.1385 -213.4934 L 55.1365 -213.1544 L 56.4658 -212.6895 L 57.461 -212.3312 L 58.4567 -211.9638 L 59.7795 -211.4614 L 60.7724 -211.0737 L 62.0924 -210.5444 L 63.084 -210.1364 L 64.0719 -209.7212 L 65.0623 -209.2961 L 66.3821 -208.7162 L 67.373 -208.2711 L 68.3644 -207.8175 L 69.6856 -207.2012 L 70.6776 -206.729 L 71.6692 -206.2495 L 72.994 -205.5986 L 73.9867 -205.1032 L 74.9825 -204.5999 L 76.3074 -203.9196 L 77.3014 -203.4008 L 78.2969 -202.8744 L 79.6215 -202.163 L 80.6177 -201.6209 L 81.6112 -201.0743 L 82.9396 -200.3341 L 83.9356 -199.772 L 84.9323 -199.2033 L 85.9299 -198.6283 L 86.9451 -198.0382 L 88.2604 -197.2681 L 89.2599 -196.6793 L 90.262 -196.0861 L 91.2656 -195.4888 L 92.2668 -194.8899 L 93.2716 -194.2858 L 94.6107 -193.476 L 95.6163 -192.8644 L 96.6238 -192.2488 L 97.9674 -191.4232 L 98.9768 -190.7993 L 99.9865 -190.1724 L 101.3373 -189.3301 L 102.3488 -188.6973 L 103.3643 -188.0606 L 104.7193 -187.209 L 105.7386 -186.5679 L 106.7617 -185.9245 L 107.7853 -185.281 L 109.1547 -184.421 L 110.1838 -183.7758 L 111.5593 -182.9149 L 112.5953 -182.2678 L 113.6329 -181.621 L 115.0217 -180.7564 L 116.0659 -180.1071 L 117.1125 -179.4569 L 118.51 -178.5893 L 119.5598 -177.9374 L 120.9599 -177.0667 L 122.0114 -176.4114 L 123.0624 -175.755 L 124.1158 -175.0954 L 125.5205 -174.2111 L 126.5747 -173.5439 L 127.9839 -172.6469 L 129.039 -171.9716 L 130.0928 -171.2943 L 131.151 -170.6125 L 132.5641 -169.7008 L 133.6279 -169.0144 L 134.694 -168.3271 L 135.7639 -167.6387 L 137.1945 -166.7207 L 138.2717 -166.0319 L 139.3541 -165.3419 L 140.8019 -164.4232 L 141.8918 -163.7349 L 142.9868 -163.046 L 144.0854 -162.3572 L 145.1872 -161.6679 L 146.6632 -160.7456 L 147.7746 -160.0513 L 149.2589 -159.1238 L 150.3759 -158.4245 L 151.4963 -157.7221 L 152.6207 -157.0155 L 154.118 -156.0717 L 155.2479 -155.3569 L 156.3803 -154.6381 L 157.5193 -153.9129 L 159.0419 -152.9397 L 160.1933 -152.2013 L 161.3512 -151.4573 L 162.9053 -150.4568 L 164.0776 -149.7012 L 165.6543 -148.6839 L 166.8448 -147.9152 L 168.4467 -146.8802 L 169.6597 -146.096 L 171.2908 -145.041 L 172.5261 -144.2414 L 173.7734 -143.4337 L 175.0306 -142.6191 L 176.2945 -141.7996 L 177.9838 -140.704 L 178.853 -140.1402 L 180.5294 -139.0531 L 181.8043 -138.2266 L 183.081 -137.3993 L 184.7825 -136.2975 L 186.0607 -135.4705 L 187.3408 -134.6424 L 189.0448 -133.5408 L 190.325 -132.7133 L 192.0287 -131.6121 L 193.3072 -130.7853 L 195.0134 -129.6813 L 196.2912 -128.8539 L 197.57 -128.0253 L 198.8535 -127.1931 L 200.5859 -126.0691 L 201.9003 -125.2159 L 203.6693 -124.0668 L 205.0113 -123.1948 L 206.3653 -122.3149 L 207.7338 -121.4253 L 209.1091 -120.5311 L 210.4988 -119.6277 L 211.901 -118.7165 L 213.7921 -117.4884 L 215.222 -116.5608 L 216.6649 -115.6256 L 218.6104 -114.3664 L 220.0809 -113.4158 L 221.5651 -112.4571 L 223.5615 -111.1691 L 225.0751 -110.1936 L 226.5966 -109.2139 L 228.1332 -108.2252 L 230.1956 -106.8992 L 231.7579 -105.8954 L 233.86 -104.5454 L 235.4436 -103.529 L 237.0448 -102.5017 L 238.6525 -101.4708 L 240.8153 -100.0841 L 242.4498 -99.036 L 244.0909 -97.9833 L 246.2982 -96.5669 L 247.9627 -95.4982 L 249.6398 -94.4207 L 251.8869 -92.9758 L 253.5803 -91.886 L 255.2823 -90.79 L 257.5559 -89.3242 L 259.2643 -88.2222 L 260.9761 -87.1175 L 263.2546 -85.6449 L 264.9682 -84.5375 L 266.6801 -83.4308 L 268.3942 -82.3217 L 270.6765 -80.845 L 272.3888 -79.7371 L 274.1049 -78.6266 L 276.3858 -77.1504 L 278.0998 -76.0423 L 279.814 -74.9339 L 282.0992 -73.4573 L 283.8151 -72.349 L 286.0973 -70.8762 L 287.8132 -69.7697 L 290.0993 -68.2971 L 291.8164 -67.1914 L 294.1031 -65.7207 L 295.8184 -64.6186 L 297.5341 -63.5169 L 299.2462 -62.4189 L 301.5315 -60.9547 L 303.2412 -59.8613 L 304.9514 -58.7689 L 306.6587 -57.6793 L 308.9291 -56.2328 L 310.6319 -55.149 L 312.8946 -53.7109 L 314.5906 -52.6341 L 316.8458 -51.2046 L 318.5363 -50.1343 L 320.7791 -48.7162 L 322.4538 -47.6586 L 324.121 -46.6075 L 325.7752 -45.5663 L 327.4201 -44.5327 L 329.0547 -43.5079 L 330.705 -42.4754 L 332.8149 -41.1592 L 334.4037 -40.171 L 335.9801 -39.1928 L 337.5392 -38.2275 L 339.0877 -37.271 L 341.1289 -36.0136 L 342.6453 -35.0816 L 344.1482 -34.1597 L 345.633 -33.2502 L 347.1062 -32.3489 L 349.0538 -31.1586 L 350.4959 -30.2779 L 351.9331 -29.4005 L 353.8353 -28.2397 L 354.7817 -27.662 L 356.1986 -26.797 L 358.077 -25.6501 L 359.4823 -24.7915 L 361.3405 -23.6555 L 362.7309 -22.8049 L 364.1153 -21.9576 L 365.9484 -20.8347 L 367.3201 -19.9943 L 369.1372 -18.8805 L 370.4946 -18.0482 L 371.842 -17.2218 L 373.6285 -16.1261 L 374.9584 -15.3106 L 376.2789 -14.501 L 377.5897 -13.698 L 378.891 -12.9012 L 380.18 -12.1126 L 381.4581 -11.3313 L 383.1422 -10.3029 L 384.3944 -9.539 L 385.6299 -8.7861 L 387.2633 -7.7918 L 388.4718 -7.0569 L 390.0668 -6.0883 L 391.2487 -5.3713 L 392.8101 -4.4253 L 393.97 -3.7233 L 395.5065 -2.7944 L 396.6516 -2.1031 L 397.7886 -1.4172 L 398.9224 -.7339 L 400.4267 .1712 L 401.5515 .8474 L 402.674 1.5215 L 404.1634 2.4148 L 405.2786 3.0831 L 406.392 3.7495 L 407.5026 4.4142 L 408.9811 5.2977 L 410.0868 5.9576 L 411.1905 6.6162 L 412.6617 7.4931 L 413.7607 8.1472 L 414.8563 8.7988 L 415.9543 9.4513 L 417.0462 10.1004 L 418.5013 10.9645 L 419.5902 11.6113 L 420.6763 12.2571 L 421.7616 12.9022 L 422.8427 13.5448 L 424.2815 14.4 L 425.3529 15.036 L 426.4213 15.6696 L 427.8315 16.5047 L 428.8824 17.1258 L 430.2716 17.9443 L 431.3037 18.5502 L 432.3276 19.1488 L 433.3422 19.739 L 434.6744 20.5088 L 435.6622 21.0752 L 436.6374 21.6303 L 437.9214 22.354 L 438.8698 22.8829 L 440.1187 23.5715 L 441.0437 24.0755 L 441.955 24.5666 L 443.1555 25.2054 L 444.0432 25.6713 L 445.2081 26.2739 L 446.0708 26.7135 L 446.9213 27.1415 L 448.0396 27.6956 L 448.8644 28.0979 L 449.6788 28.4893 L 450.7485 28.9942 L 451.5379 29.3592 L 452.5731 29.8275 L 453.3356 30.1638 L 454.335 30.5922 L 455.0695 30.8976 L 455.7915 31.1894 L 456.5019 31.4682 L 457.2003 31.7341 L 458.1152 32.0697 L 458.7933 32.309 L 459.4694 32.54 L 460.3687 32.8358 L 461.0462 33.0503 L 461.9518 33.326 L 462.6335 33.5256 L 463.5475 33.7822 L 464.2364 33.9671 L 464.9269 34.1447 L 465.6203 34.3152 L 466.5485 34.531 L 467.2475 34.684 L 468.1829 34.8762 L 468.8856 35.0111 L 469.5896 35.1376 L 470.5283 35.2927 L 471.2335 35.3991 L 471.939 35.4968 L 472.8809 35.6137 L 473.5882 35.6912 L 474.2963 35.7601 L 475.2354 35.8376 L 475.9401 35.8845 L 476.6427 35.9213 L 477.3424 35.9475 L 478.0397 35.9633 L 478.9639 35.9681 L 479.653 35.9592 L 480.3369 35.9402 L 481.017 35.9106 L 481.6895 35.8699 L 482.5789 35.7986 L 483.239 35.7324 L 483.8937 35.6556 L 484.7602 35.5365 L 485.4029 35.4352 L 486.2549 35.2837 L 486.8893 35.1581 L 487.5213 35.0223 L 488.1523 34.8761 L 488.9884 34.667 L 489.6148 34.4992 L 490.2411 34.3223 L 490.8665 34.1368 L 491.4933 33.9425 L 492.33 33.67 L 492.9579 33.4554 L 493.5869 33.232 L 494.2164 32.9998 L 494.8466 32.7588 L 495.6844 32.424 L 496.3107 32.1623 L 496.9341 31.8913 L 497.7588 31.5162 L 498.3754 31.2234 L 499.1912 30.8189 L 499.7978 30.5051 L 500.4026 30.1808 L 501.2034 29.7337 L 501.8012 29.3864 L 502.3957 29.0291 L 502.9868 28.6619 L 503.5754 28.2842 L 504.1607 27.8963 L 504.7414 27.4991 L 505.5108 26.9529 L 506.0827 26.5318 L 506.8387 25.9546 L 507.4005 25.5099 L 507.9568 25.0558 L 508.6914 24.4343 L 509.2362 23.9567 L 509.7747 23.4699 L 510.483 22.8065 L 511.007 22.298 L 511.5214 21.7831 L 512.1975 21.0811 L 512.6935 20.5456 L 513.1805 20.0009 L 513.658 19.4473 L 514.1255 18.8854 L 514.7339 18.1237 L 515.1792 17.543 L 515.6143 16.9554 L 516.1803 16.1588 L 516.5927 15.5534 L 517.1265 14.7357 L 517.5154 14.1138 L 518.0169 13.2757 L 518.3809 12.6388 L 518.849 11.7806 L 519.1874 11.1303 L 519.622 10.2535 L 519.9358 9.5891 L 520.2394 8.9189 L 520.6278 8.0176 L 520.908 7.3339 L 521.1783 6.6441 L 521.439 5.9482 L 521.6899 5.2463 L 522.0089 4.3017 L 522.237 3.5853 L 522.4548 2.864 L 522.7295 1.8936 L 522.9236 1.1595 L 523.1079 .4183 L 523.3368 -.5726 L 523.4973 -1.3236 L 523.6477 -2.0786 L 523.8331 -3.0943 L 523.9605 -3.8623 L 524.1145 -4.8922 L 524.2174 -5.6692 L 524.3365 -6.7109 L 524.4112 -7.4954 L 524.4732 -8.2828 L 524.5224 -9.072 L 524.5684 -10.1286 L 524.5882 -10.9243 L 524.5948 -11.9868 L 524.5849 -12.7864 L 524.552 -13.8527 L 524.5123 -14.6545 L 524.4394 -15.7256 L 524.3696 -16.5313 L 524.2568 -17.6053 L 524.1576 -18.4105 L 524.0055 -19.4866 L 523.8771 -20.2922 L 523.7359 -21.0997 L 523.583 -21.9045 L 523.4178 -22.7096 L 523.179 -23.7804 L 522.9857 -24.5825 L 522.7799 -25.3848 L 522.4872 -26.4505 L 522.2543 -27.2468 L 522.0096 -28.0431 L 521.6663 -29.1029 L 521.3966 -29.8962 L 521.1163 -30.6897 L 520.8264 -31.4813 L 520.5268 -32.2721 L 520.2171 -33.064 L 519.7906 -34.1188 L 519.461 -34.9095 L 519.1233 -35.7013 L 518.7782 -36.4935 L 518.3075 -37.5492 L 517.9457 -38.3429 L 517.5775 -39.1363 L 517.2018 -39.9315 L 516.8193 -40.7269 L 516.2985 -41.787 L 515.8992 -42.5824 L 515.4922 -43.3786 L 514.9382 -44.4393 L 514.5136 -45.2346 L 514.0812 -46.0296 L 513.4924 -47.0864 L 513.0406 -47.8768 L 512.4241 -48.9267 L 511.9511 -49.7105 L 511.3061 -50.7494 L 510.8112 -51.523 L 510.3055 -52.2918 L 509.6161 -53.306 L 509.0862 -54.0597 L 508.5455 -54.8071 L 507.9952 -55.546 L 507.4342 -56.2776 L 506.6689 -57.2415 L 506.0823 -57.9551 L 505.4846 -58.6609 L 504.8754 -59.3595 L 504.2573 -60.0478 L 503.4152 -60.9545 L 502.7708 -61.6256 L 502.1154 -62.29 L 501.2268 -63.1644 L 500.5489 -63.8126 L 499.8619 -64.4542 L 498.9308 -65.3006 L 498.2226 -65.9283 L 497.5051 -66.5502 L 496.5369 -67.3685 L 495.8002 -67.9755 L 494.8051 -68.7748 L 494.0504 -69.366 L 493.03 -70.1457 L 492.2571 -70.7223 L 491.4751 -71.294 L 490.4211 -72.0472 L 489.6201 -72.6072 L 488.8118 -73.1624 L 487.9962 -73.7133 L 487.1721 -74.2615 L 486.3393 -74.8076 L 485.4988 -75.351 L 484.6494 -75.893 L 483.7923 -76.433 L 482.9267 -76.9719 L 482.0525 -77.5098 L 480.8751 -78.2252 L 479.9811 -78.7618 L 478.7761 -79.4761 L 477.8612 -80.0118 L 476.9379 -80.5468 L 475.6918 -81.26 L 474.7462 -81.7941 L 473.4717 -82.5039 L 472.5037 -83.035 L 471.5254 -83.5647 L 470.5379 -84.0921 L 469.5399 -84.6176 L 468.1946 -85.3142 L 467.1735 -85.8337 L 466.1425 -86.3504 L 464.7526 -87.0342 L 463.6999 -87.5428 L 462.6352 -88.0489 L 461.2044 -88.7161 L 460.12 -89.212 L 459.0275 -89.7031 L 457.9293 -90.1884 L 456.8231 -90.6691 L 455.7109 -91.1446 L 454.2207 -91.7702 L 453.0964 -92.2342 L 451.5906 -92.8456 L 450.4589 -93.2981 L 449.3242 -93.7465 L 448.1849 -94.192 L 447.0453 -94.6334 L 445.9022 -95.0733 L 444.7581 -95.5114 L 443.2335 -96.0947 L 442.0898 -96.5338 L 440.9458 -96.9762 L 439.4252 -97.5714 L 438.2852 -98.0245 L 437.1513 -98.4825 L 436.0188 -98.9482 L 434.8904 -99.4214 L 433.7665 -99.9029 L 432.6487 -100.393 L 431.5345 -100.8936 L 430.0587 -101.5768 L 428.9596 -102.1015 L 427.8666 -102.6374 L 426.4238 -103.3673 L 425.3491 -103.9282 L 424.2845 -104.4988 L 423.2293 -105.0793 L 422.1828 -105.671 L 420.8057 -106.4739 L 419.7845 -107.0881 L 418.7733 -107.7125 L 417.7729 -108.3467 L 416.4578 -109.2063 L 415.4867 -109.8603 L 414.2128 -110.7449 L 413.2735 -111.4172 L 412.0449 -112.3231 L 411.1394 -113.0109 L 410.2484 -113.7044 L 409.0816 -114.6391 L 408.2232 -115.3466 L 407.381 -116.0578 L 406.5523 -116.7753 L 405.739 -117.4975 L 404.6784 -118.4676 L 403.8998 -119.2011 L 403.1395 -119.936 L 402.3923 -120.677 L 401.6622 -121.4199 L 400.9393 -122.1756 L 400.0205 -123.1671 L 399.3457 -123.9185 L 398.6883 -124.6712 L 397.839 -125.6756 L 397.2226 -126.4293 L 396.4299 -127.4319 L 395.8541 -128.1858 L 395.2976 -128.9361 L 394.7557 -129.6889 L 394.2319 -130.4393 L 393.5582 -131.4394 L 393.0711 -132.189 L 392.5985 -132.9392 L 391.9941 -133.9348 L 391.5574 -134.6814 L 391.135 -135.4272 L 390.7272 -136.1707 L 390.332 -136.9152 L 389.9494 -137.6601 L 389.5779 -138.408 L 389.1011 -139.4059 L 388.7556 -140.1581 L 388.3105 -141.1667 L 387.9888 -141.9262 L 387.6771 -142.6888 L 387.278 -143.709 L 386.9911 -144.4773 L 386.625 -145.5066 L 386.3637 -146.2797 L 386.1131 -147.0557 L 385.7962 -148.0934 L 385.5717 -148.8737 L 385.3585 -149.6561 L 385.1567 -150.4403 L 384.9666 -151.2248 L 384.7878 -152.0112 L 384.6208 -152.7991 L 384.4659 -153.5877 L 384.3237 -154.3769 L 384.1537 -155.4313 L 384.0413 -156.223 L 383.9418 -157.0151 L 383.8295 -158.0706 L 383.7605 -158.8629 L 383.689 -159.918 L 383.6507 -160.7098 L 383.6256 -161.5012 L 383.6126 -162.554 L 383.6181 -163.3437 L 383.6366 -164.1339 L 383.6681 -164.9219 L 383.7123 -165.7099 L 383.7693 -166.4975 L 383.8391 -167.2848 L 383.9515 -168.3328 L 384.0504 -169.1192 L 384.1613 -169.9037 L 384.284 -170.6867 L 384.4184 -171.4693 L 384.5644 -172.252 L 384.7215 -173.0329 L 384.8898 -173.8127 L 385.1317 -174.8512 L 385.3261 -175.6281 L 385.5317 -176.4038 L 385.8237 -177.4347 L 386.0564 -178.2057 L 386.3009 -178.9751 L 386.6444 -179.9951 L 386.9157 -180.7571 L 387.1986 -181.516 L 387.5949 -182.5244 L 387.9055 -183.2751 L 388.3383 -184.2707 L 388.6769 -185.013 L 389.1473 -185.9974 L 389.5149 -186.7327 L 389.8938 -187.4622 L 390.285 -188.1879 L 390.6884 -188.9095 L 391.2457 -189.865 L 391.6769 -190.5744 L 392.1211 -191.2804 L 392.7313 -192.2121 L 393.2028 -192.9043 L 393.8496 -193.8179 L 394.3494 -194.4971 L 394.8598 -195.1687 L 395.3827 -195.8346 L 396.0981 -196.7121 L 396.6479 -197.3621 L 397.2082 -198.0045 L 397.7798 -198.6402 L 398.3625 -199.2694 L 398.9566 -199.8923 L 399.7641 -200.7106 L 400.3831 -201.317 L 401.2223 -202.1118 L 401.8661 -202.7013 L 402.5175 -203.2806 L 403.1812 -203.8539 L 403.8535 -204.4178 L 404.5369 -204.9744 L 405.2307 -205.523 L 406.168 -206.2384 L 406.8833 -206.7651 L 407.6063 -207.2807 L 408.3413 -207.7876 L 409.0835 -208.2825 L 410.0863 -208.925 L 410.8483 -209.3941 L 411.6185 -209.8522 L 412.6585 -210.4465 L 413.4474 -210.8793 L 414.2442 -211.3012 L 415.3186 -211.8469 L 416.1323 -212.2435 L 416.9547 -212.6303 L 418.0613 -213.1299 L 418.899 -213.4928 L 419.7426 -213.8452 L 420.8798 -214.3004 L 421.7384 -214.6296 L 422.8946 -215.0539 L 423.7666 -215.3597 L 424.9416 -215.7531 L 425.8289 -216.0364 L 426.7208 -216.3093 L 427.9189 -216.6573 L 428.8226 -216.9057 L 429.7323 -217.1438 L 430.6482 -217.3711 L 431.568 -217.587 L 432.8012 -217.8576 L 433.7324 -218.0476 L 434.6676 -218.2261 L 435.9217 -218.4463 L 436.8673 -218.5978 L 437.8167 -218.7375 L 439.0889 -218.9052 L 440.0468 -219.0168 L 441.0076 -219.1164 L 442.2941 -219.2303 L 443.2632 -219.3019 L 444.2335 -219.3616 L 445.2075 -219.4098 L 446.1844 -219.4464 L 447.4899 -219.4771 L 448.4727 -219.4867 L 449.4565 -219.4851 L 450.772 -219.4656 L 451.7625 -219.4381 L 452.7536 -219.3996 L 454.079 -219.3311 L 455.0731 -219.2671 L 456.0708 -219.1923 L 457.0712 -219.1068 L 458.406 -218.9768 L 459.4094 -218.8671 L 460.4152 -218.7472 L 461.7568 -218.572 L 462.7657 -218.4291 L 463.7756 -218.2767 L 464.7888 -218.1144 L 465.7997 -217.9433 L 467.1512 -217.7009 L 468.1662 -217.5094 L 469.1829 -217.3099 L 470.5399 -217.0323 L 471.5606 -216.8162 L 472.923 -216.5183 L 473.9458 -216.2868 L 474.9708 -216.0496 L 475.997 -215.8088 L 477.3681 -215.4815 L 478.3979 -215.2317 L 479.7735 -214.8938 L 480.8075 -214.6375 L 481.8412 -214.3776 L 483.2232 -214.0235 L 484.2606 -213.7527 L 485.2985 -213.4777 L 486.6837 -213.1019 L 487.7236 -212.8131 L 489.1081 -212.4193 L 490.147 -212.1177 L 491.5312 -211.706 L 492.5712 -211.3902 L 493.6092 -211.0697 L 494.9949 -210.6329 L 496.0327 -210.2998 L 497.0707 -209.9619 L 498.1094 -209.6193 L 499.147 -209.2727 L 500.1857 -208.9212 L 501.2221 -208.5661 L 502.6067 -208.0855 L 503.643 -207.7215 L 504.6815 -207.3538 L 506.0656 -206.8575 L 507.1018 -206.4815 L 508.1395 -206.1028 L 509.1791 -205.7212 L 510.5645 -205.2087 L 511.6038 -204.8224 L 512.9913 -204.3049 L 514.0341 -203.9165 L 515.0787 -203.5279 L 516.1234 -203.1403 L 517.1729 -202.7526 L 518.5687 -202.2402 L 519.6199 -201.8568 L 520.6734 -201.4754 L 521.7294 -201.0957 L 522.7862 -200.7176 L 524.2 -200.2153 L 525.261 -199.8407 L 526.681 -199.3439 L 527.7447 -198.9749 L 528.813 -198.6064 L 529.8834 -198.2381 L 531.3064 -197.7502 L 532.377 -197.3837 L 533.4489 -197.017 L 534.5211 -196.6516 L 535.5948 -196.2856 L 536.6683 -195.9201 L 537.7445 -195.5555 L 538.8232 -195.1908 L 540.2563 -194.7072 L 541.3322 -194.3451 L 542.4115 -193.9812 L 543.4907 -193.6176 L 544.9286 -193.1319 L 546.0103 -192.7662 L 547.4478 -192.2793 L 548.5267 -191.9142 L 549.9442 -191.4343 L 550.9949 -191.0784 L 552.0297 -190.7273 L 553.0486 -190.3806 L 554.3791 -189.9252 L 555.358 -189.5871 L 556.6287 -189.1442 L 557.5613 -188.8158 L 558.4773 -188.4894 L 559.3809 -188.1637 L 560.2733 -187.8386 L 561.1576 -187.5134 L 562.0322 -187.1887 L 562.9004 -186.8636 L 564.0447 -186.4306 L 564.8933 -186.1062 L 565.7325 -185.7826 L 566.8307 -185.3543 L 567.6388 -185.0349 L 568.6948 -184.6122 L 569.47 -184.2976 L 570.2282 -183.986 L 570.9721 -183.6764 L 571.702 -183.3687 L 572.6504 -182.9629 L 573.3452 -182.6608 L 574.0239 -182.3617 L 574.907 -181.9658 L 575.5529 -181.6713 L 576.3896 -181.2832 L 577.0016 -180.9944 L 577.5994 -180.7082 L 578.1827 -180.4249 L 578.754 -180.1434 L 579.3137 -179.8637 L 580.0427 -179.4934 L 580.5805 -179.2156 L 581.1125 -178.9364 L 581.8164 -178.5603 L 582.343 -178.2733 L 582.8699 -177.982 L 583.5717 -177.5862 L 584.096 -177.2844 L 584.6196 -176.9776 L 585.1415 -176.6655 L 585.663 -176.3483 L 586.1831 -176.0263 L 586.7011 -175.6994 L 587.3903 -175.2542 L 587.9051 -174.9138 L 588.4186 -174.5671 L 588.9294 -174.2145 L 589.438 -173.8561 L 589.9451 -173.4915 L 590.4499 -173.1207 L 591.1185 -172.6164 L 591.6174 -172.2296 L 592.1123 -171.8357 L 592.766 -171.299 L 593.2509 -170.8875 L 593.7302 -170.4691 L 594.3608 -169.9 L 594.8269 -169.4649 L 595.287 -169.0229 L 595.7417 -168.5733 L 596.1887 -168.1182 L 596.6308 -167.6549 L 597.2086 -167.0283 L 597.6349 -166.55 L 598.0551 -166.0644 L 598.4666 -165.5746 L 599.0058 -164.9101 L 599.4023 -164.4042 L 599.9193 -163.7212 L 600.3001 -163.2001 L 600.6737 -162.6732 L 601.04 -162.1405 L 601.5195 -161.4188 L 601.8713 -160.8709 L 602.2175 -160.3161 L 602.6687 -159.569 L 603.0011 -159.001 L 603.3283 -158.4269 L 603.7558 -157.654 L 604.0711 -157.0675 L 604.3827 -156.4757 L 604.691 -155.8793 L 604.9957 -155.2782 L 605.2971 -154.6725 L 605.6947 -153.8569 L 605.9887 -153.2403 L 606.3744 -152.4101 L 606.6586 -151.7816 L 606.9378 -151.148 L 607.3003 -150.2978 L 607.5652 -149.6535 L 607.9091 -148.7872 L 608.1595 -148.1323 L 608.4827 -147.2512 L 608.7159 -146.5849 L 609.0138 -145.6887 L 609.2268 -145.0104 L 609.4301 -144.3286 L 609.6236 -143.6426 L 609.8669 -142.7223 L 610.0385 -142.0257 L 610.1998 -141.3279 L 610.4 -140.3914 L 610.539 -139.685 L 610.669 -138.974 L 610.8277 -138.0235 L 610.9368 -137.3055 L 611.0375 -136.5851 L 611.1303 -135.8608 L 611.2152 -135.1334 L 611.2924 -134.4027 L 611.3841 -133.4229 L 611.4445 -132.6866 L 611.5146 -131.6974 L 611.5597 -130.9517 L 611.6098 -129.9534 L 611.6402 -129.2003 L 611.6641 -128.4444 L 611.6861 -127.4331 L 611.6954 -126.6722 L 611.6981 -125.9063 L 611.6907 -124.8839 L 611.6761 -124.1154 L 611.6535 -123.3439 L 611.6109 -122.3125 L 611.5692 -121.5373 L 611.5006 -120.4982 L 611.4396 -119.7199 L 611.3699 -118.937 L 611.2923 -118.1565 L 611.2063 -117.3734 L 611.1119 -116.5881 L 611.0091 -115.8031 L 610.8588 -114.7546 L 610.7359 -113.9676 L 610.6039 -113.1789 L 610.463 -112.39 L 610.2619 -111.3394 L 610.1007 -110.5495 L 609.9312 -109.7594 L 609.6927 -108.706 L 609.5046 -107.9161 L 609.2426 -106.8637 L 609.0382 -106.0741 L 608.8275 -105.2848 L 608.6108 -104.4935 L 608.3894 -103.7044 L 608.0862 -102.6491 L 607.8554 -101.8587 L 607.6207 -101.0671 L 607.3834 -100.2746 L 607.1431 -99.4805 L 606.9029 -98.6885 L 606.6625 -97.8951 L 606.3418 -96.8343 L 606.1037 -96.0391 L 605.7863 -94.975 L 605.5503 -94.1765 L 605.2386 -93.1091 L 605.0076 -92.3082 L 604.778 -91.5051 L 604.5504 -90.701 L 604.3219 -89.8848 L 604.0296 -88.8228 L 603.8098 -88.0155 L 603.5924 -87.2059 L 603.377 -86.3973 L 603.163 -85.5847 L 602.8827 -84.5029 L 602.6747 -83.6883 L 602.4021 -82.6015 L 602.1999 -81.7833 L 601.9364 -80.6952 L 601.7419 -79.8765 L 601.5508 -79.0565 L 601.3632 -78.2364 L 601.179 -77.4154 L 600.9407 -76.3228 L 600.7678 -75.5076 L 600.6007 -74.7009 L 600.3893 -73.6458 L 600.2387 -72.8697 L 600.0955 -72.1094 L 599.9594 -71.3645 L 599.8303 -70.6355 L 599.6696 -69.6906 L 599.5572 -69.0013 L 599.4514 -68.3273 L 599.3199 -67.4512 L 599.2277 -66.8073 L 599.112 -65.9595 L 599.0307 -65.3286 L 598.9539 -64.6986 L 598.8598 -63.8637 L 598.7945 -63.2386 L 598.7162 -62.4102 L 598.6638 -61.7906 L 598.617 -61.1735 L 598.5643 -60.3542 L 598.5319 -59.7423 L 598.4983 -58.9284 L 598.4809 -58.3182 L 598.4704 -57.71 L 598.4677 -56.9018 L 598.4743 -56.2964 L 598.4952 -55.4948 L 598.5207 -54.8947 L 598.5695 -54.1012 L 598.6175 -53.5113 L 598.6962 -52.7394 L 598.7663 -52.1688 L 598.8452 -51.6094 L 598.9635 -50.8781 L 599.0616 -50.3424 L 599.1668 -49.8191 L 599.3173 -49.1421 L 599.4374 -48.6473 L 599.5626 -48.1667 L 599.6936 -47.6953 L 599.8765 -47.0808 L 600.0196 -46.6305 L 600.2197 -46.0385 L 600.376 -45.6003 L 600.5388 -45.1649 L 600.7083 -44.7308 L 600.9439 -44.156 L 601.1281 -43.7273 L 601.3839 -43.1588 L 601.5825 -42.7361 L 601.7884 -42.3153 L 602 -41.8986 L 602.2931 -41.3478 L 602.5207 -40.9389 L 602.7556 -40.5333 L 603.0789 -39.9995 L 603.3293 -39.6039 L 603.587 -39.2124 L 603.8508 -38.8265 L 604.2135 -38.3189 L 604.4933 -37.9438 L 604.8767 -37.451 L 605.172 -37.0873 L 605.4738 -36.7286 L 605.7825 -36.3744 L 606.203 -35.9106 L 606.5264 -35.5669 L 606.8565 -35.2264 L 607.1915 -34.8909 L 607.5333 -34.5586 L 607.881 -34.2302 L 608.3534 -33.7993 L 608.7135 -33.482 L 609.2007 -33.0681 L 609.5706 -32.7653 L 609.9447 -32.469 L 610.3226 -32.1797 L 610.7055 -31.8967 L 611.0921 -31.62 L 611.4831 -31.3494 L 612.0116 -30.9984 L 612.4135 -30.7421 L 612.8191 -30.4926 L 613.3668 -30.1696 L 613.7828 -29.934 L 614.2005 -29.7057 L 614.6234 -29.4808 L 615.1913 -29.1882 L 615.6221 -28.9725 L 616.0554 -28.7596 L 616.4923 -28.5482 L 616.9319 -28.3382 L 617.5236 -28.0599 L 617.9698 -27.8519 L 618.4198 -27.6439 L 618.8716 -27.4374 L 619.4767 -27.1618 L 619.9336 -26.956 L 620.3921 -26.7502 L 621.0069 -26.4756 L 621.4696 -26.269 L 621.9334 -26.0628 L 622.5505 -25.7868 L 623.0144 -25.5781 L 623.632 -25.2988 L 624.0962 -25.0878 L 624.559 -24.8755 L 625.0205 -24.661 L 625.4821 -24.4451 L 625.942 -24.2264 L 626.5536 -23.9319 L 627.0109 -23.7081 L 627.6179 -23.4051 L 628.0701 -23.1736 L 628.5194 -22.938 L 628.9666 -22.6985 L 629.4115 -22.4536 L 629.8514 -22.2047 L 630.4349 -21.8648 L 630.8687 -21.6034 L 631.4415 -21.2481 L 631.8656 -20.9757 L 632.288 -20.6979 L 632.7071 -20.4145 L 633.2579 -20.0291 L 633.6669 -19.7322 L 634.2053 -19.3273 L 634.6031 -19.017 L 635.1276 -18.5932 L 635.5152 -18.2687 L 636.0239 -17.8272 L 636.401 -17.4886 L 636.8961 -17.0276 L 637.2636 -16.6725 L 637.7456 -16.1907 L 638.1031 -15.8211 L 638.5727 -15.3177 L 638.92 -14.9324 L 639.2621 -14.5409 L 639.5988 -14.1443 L 640.0394 -13.6063 L 640.3618 -13.1968 L 640.7832 -12.6417 L 641.0935 -12.2178 L 641.3989 -11.7875 L 641.7998 -11.2013 L 642.0938 -10.7547 L 642.3833 -10.3008 L 642.6686 -9.8395 L 643.0412 -9.2142 L 643.3146 -8.739 L 643.5846 -8.256 L 643.9388 -7.6007 L 644.2 -7.1009 L 644.5431 -6.4203 L 644.7966 -5.8999 L 645.1285 -5.1925 L 645.3728 -4.652 L 645.6134 -4.102 L 645.9275 -3.3548 L 646.1579 -2.7841 L 646.3833 -2.2045 L 646.6042 -1.615 L 646.82 -1.0159 L 647.0997 -.2022 L 647.3036 .4204 L 647.5024 1.0534 L 647.7592 1.9139 L 647.946 2.5733 L 648.186 3.4674 L 648.3595 4.151 L 648.5267 4.8443 L 648.7407 5.7868 L 648.8937 6.5045 L 649.0887 7.4786 L 649.2284 8.2217 L 649.3631 8.9763 L 649.492 9.7374 L 649.6165 10.5104 L 649.7754 11.5553 L 649.8894 12.3493 L 649.9987 13.1523 L 650.1371 14.2358 L 650.2352 15.0597 L 650.3579 16.169 L 650.4445 17.0131 L 650.527 17.8637 L 650.6316 19.012 L 650.7062 19.8822 L 650.7994 21.0515 L 650.8644 21.9344 L 650.9447 23.12 L 650.9996 24.0165 L 651.0498 24.9147 L 651.1084 26.1191 L 651.1466 27.0281 L 651.1801 27.9402 L 651.2175 29.1619 L 651.2398 30.0824 L 651.2624 31.3149 L 651.2733 32.2411 L 651.2794 33.4801 L 651.2769 34.4138 L 651.2644 35.6601 L 651.2477 36.5984 L 651.2155 37.8521 L 651.1835 38.7963 L 651.1453 39.7387 L 651.1006 40.6866 L 651.0493 41.6357 L 650.9709 42.9054 L 650.9045 43.8593 L 650.8317 44.8156 L 650.7241 46.0968 L 650.6366 47.0574 L 650.5437 48.0219 L 650.4446 48.9905 L 650.3041 50.2818 L 650.1923 51.2532 L 650.0749 52.2278 L 649.9516 53.2051 L 649.8235 54.1809 L 649.6439 55.4881 L 649.5023 56.4772 L 649.3043 57.8011 L 649.1493 58.7959 L 648.9889 59.7936 L 648.7659 61.1291 L 648.5921 62.131 L 648.4119 63.1346 L 648.1614 64.4763 L 647.9657 65.4854 L 647.6942 66.8321 L 647.4819 67.8449 L 647.2623 68.8573 L 647.0347 69.8706 L 646.7187 71.2228 L 646.4722 72.2369 L 646.2177 73.2501 L 645.9542 74.264 L 645.6821 75.2777 L 645.305 76.6276 L 645.0107 77.6391 L 644.7057 78.6507 L 644.2839 79.9913 L 643.9545 80.9946 L 643.6139 81.9951 L 643.1421 83.3237 L 642.7752 84.3147 L 642.3966 85.3021 L 642.0058 86.2865 L 641.469 87.5857 L 641.0519 88.5558 L 640.4773 89.8411 L 640.0331 90.7978 L 639.578 91.7467 L 638.9523 93.0055 L 638.4711 93.9411 L 637.9791 94.872 L 637.4774 95.7971 L 636.9669 96.7159 L 636.272 97.9348 L 635.7413 98.8441 L 635.2037 99.7481 L 634.658 100.6493 L 634.1062 101.5453 L 633.3591 102.7347 L 632.7906 103.6222 L 632.2146 104.5063 L 631.6335 105.3829 L 630.8459 106.5476 L 630.2462 107.4168 L 629.4365 108.5667 L 628.8217 109.4219 L 628.1985 110.2735 L 627.5681 111.1199 L 626.9297 111.9617 L 626.069 113.0734 L 625.4133 113.9024 L 624.7512 114.7239 L 624.08 115.5404 L 623.1741 116.6175 L 622.4831 117.4203 L 621.5478 118.4813 L 620.8379 119.2662 L 620.1178 120.0446 L 619.1396 121.0741 L 618.3975 121.8346 L 617.3929 122.8379 L 616.6281 123.5826 L 615.595 124.5643 L 614.812 125.291 L 614.0189 126.0119 L 612.9489 126.9615 L 612.1368 127.6655 L 611.3183 128.3609 L 610.213 129.2779 L 609.3729 129.9587 L 608.2438 130.8521 L 607.3865 131.5144 L 606.5212 132.1693 L 605.6496 132.8155 L 604.7673 133.4558 L 603.8788 134.0873 L 602.9752 134.716 L 601.7738 135.5311 L 600.8578 136.1371 L 599.9325 136.736 L 598.6865 137.5221 L 597.7416 138.1031 L 596.4703 138.8656 L 595.5072 139.429 L 594.5359 139.9854 L 593.5578 140.5341 L 592.2398 141.2557 L 591.2439 141.788 L 590.2388 142.3149 L 589.2264 142.8354 L 588.2059 143.3503 L 587.1805 143.8581 L 586.1463 144.3611 L 585.1051 144.8586 L 583.7052 145.5141 L 582.6492 145.999 L 581.5854 146.4798 L 580.5136 146.9566 L 579.0743 147.5852 L 577.9894 148.0505 L 576.5292 148.6655 L 575.4297 149.1198 L 574.3216 149.5697 L 573.2045 150.0148 L 571.7108 150.596 L 570.5809 151.0247 L 569.4441 151.4459 L 568.3 151.8597 L 566.7621 152.3993 L 565.6068 152.7918 L 564.0493 153.3036 L 562.8752 153.676 L 561.2951 154.1584 L 560.109 154.506 L 558.5124 154.9541 L 557.3078 155.2768 L 555.6921 155.6885 L 554.4714 155.9832 L 553.2462 156.2648 L 551.6039 156.6194 L 550.3642 156.8694 L 548.705 157.1798 L 547.4543 157.3952 L 545.7825 157.6579 L 544.5259 157.8361 L 543.2648 157.9981 L 542.0026 158.1433 L 540.7391 158.2719 L 539.0488 158.4176 L 537.7791 158.5081 L 536.5098 158.5835 L 535.2374 158.6441 L 533.964 158.6905 L 532.2605 158.7316 L 530.9854 158.7479 L 529.7079 158.7534 L 528.4271 158.7492 L 526.7214 158.7322 L 525.4383 158.7131 L 524.1558 158.6908 L 522.4418 158.6574 L 521.1543 158.631 L 519.8648 158.6051 L 518.5527 158.5795 L 516.8465 158.5499 L 515.5505 158.5301 L 514.2504 158.5136 L 512.9507 158.4993 L 511.6475 158.4878 L 509.9058 158.476 L 508.5971 158.4695 L 507.2851 158.4651 L 505.5327 158.4619 L 504.2149 158.4613 L 502.8926 158.4618 L 501.1258 158.4633 L 499.7945 158.4651 L 498.4602 158.4669 L 496.6681 158.4694 L 495.312 158.4713 L 493.9429 158.473 L 492.1187 158.4746 L 490.7341 158.4754 L 489.3352 158.4756 L 487.4489 158.4751 L 486.0183 158.4741 L 484.5707 158.4726 L 482.6182 158.4698 L 481.1358 158.4669 L 479.6364 158.4635 L 477.6335 158.4579 L 476.1209 158.4529 L 474.0976 158.4449 L 472.5787 158.4379 L 470.5534 158.4266 L 469.0318 158.4163 L 467.5073 158.4043 L 465.9847 158.3907 L 464.4627 158.3756 L 462.4331 158.353 L 460.9087 158.3335 L 459.3853 158.3123 L 457.355 158.2809 L 455.8335 158.2557 L 454.3099 158.2286 L 452.2781 158.1902 L 450.7576 158.1601 L 449.2329 158.1296 L 447.7117 158.0985 L 445.6724 158.0574 L 444.126 158.0266 L 442.0407 157.9861 L 440.4467 157.9561 L 438.3243 157.9178 L 436.7095 157.8897 L 434.5301 157.8533 L 432.8781 157.8267 L 431.209 157.8008 L 428.9646 157.7672 L 427.2619 157.7425 L 425.5429 157.7182 L 423.8141 157.6943 L 421.487 157.6629 L 419.7204 157.6397 L 417.349 157.6094 L 415.5518 157.5871 L 413.7404 157.5654 L 411.3053 157.5376 L 409.4613 157.5177 L 407.6057 157.4986 L 405.7313 157.4806 L 403.2224 157.4586 L 401.3245 157.4433 L 399.4108 157.4295 L 396.8399 157.4133 L 394.8977 157.4026 L 392.2872 157.3903 L 390.3157 157.3823 L 388.3322 157.3752 L 386.3382 157.3688 L 384.334 157.3631 L 381.6526 157.3562 L 379.6265 157.3514 L 377.591 157.347 L 375.5428 157.3427 L 373.4827 157.3386 L 371.4142 157.3346 L 369.3274 157.3306 L 366.5396 157.3256 L 364.4341 157.322 L 361.6077 157.3175 L 359.4757 157.3142 L 357.3313 157.3111 L 354.4558 157.3071 L 352.2901 157.3044 L 349.3772 157.3011 L 347.1868 157.2989 L 344.9828 157.2969 L 342.0303 157.2946 L 339.8027 157.2931 L 336.8166 157.2914 L 334.5636 157.2904 L 332.3009 157.2896 L 330.0284 157.2889 L 326.986 157.2884 L 324.6891 157.2883 L 322.3836 157.2884 L 319.2962 157.2889 L 316.9648 157.2895 L 313.8476 157.2907 L 311.4975 157.2918 L 308.3457 157.2937 L 305.9743 157.2954 L 303.5483 157.2973 L 300.4004 157.3002 L 297.9976 157.3026 L 294.7811 157.3062 L 292.3629 157.3091 L 289.9367 157.3122 L 287.5086 157.3155 L 284.2707 157.3205 L 281.8438 157.3247 L 279.4104 157.329 L 276.999 157.3336 L 273.78 157.3403 L 271.3689 157.3459 L 268.9687 157.3516 L 266.5699 157.3578 L 263.3773 157.3668 L 260.9529 157.3742 L 257.81 157.3846 L 255.424 157.3931 L 252.2723 157.4048 L 249.9056 157.4141 L 247.5431 157.4239 L 245.1878 157.4339 L 242.8367 157.4443 L 239.7099 157.4586 L 237.3749 157.4694 L 235.0406 157.4807 L 231.9378 157.4959 L 229.6175 157.5076 L 227.303 157.5196 L 224.9906 157.5318 L 222.6875 157.5441" stroke-width="28" stroke="grey" fill="none" id="Track"/></svg>