<?xml version="1.0" standalone="no"?>
<svg xmlns:xlink="http://www.w3.org/1999/xlink" id="s2" class="track" xmlns="http://www.w3.org/2000/svg" preserveAspectRatio="xMinYMid meet" height="800px" width="600px" viewBox="-1200 -700 3000 3000">
            <path d="M -440.0359 182.6246 L -440.0294 171.0371 L -440.0285 159.2929 L -440.0211 147.3882 L -440.0252 135.3552 L -440.0684 123.1696 L -440.1312 114.4775 L -440.2616 102.0621 L -440.4033 90.2468 L -440.5327 77.5322 L -440.7699 42.8654 L -440.981 18.1664 L -441.2044 -6.3902 L -441.2842 -14.7284 L -441.425 -29.0486 L -441.5823 -44.4402 L -441.7314 -58.1594 L -442.0362 -83.9099 L -442.3488 -108.8126 L -442.6919 -134.3837 L -443.0502 -158.6227 L -443.4601 -184.0132 L -443.8054 -208.077 L -443.9686 -221.4538 L -444.1029 -233.6999 L -444.2252 -246.2576 L -444.3173 -256.9557 L -444.3878 -265.9337 L -444.5085 -277.2346 L -444.675 -286.1896 L -444.9419 -296.2031 L -445.1918 -304.8703 L -445.4266 -314.668 L -445.5632 -322.5475 L -445.7276 -332.6971 L -445.9273 -341.9833 L -446.1438 -351.3528 L -446.2813 -359.5921 L -446.3229 -367.7359 L -446.2661 -374.7717 L -446.1103 -381.4817 L -445.4448 -392.0018 L -444.9224 -395.8975 L -444.3844 -398.7455 L -443.5458 -402.0635 L -442.7024 -404.5951 L -441.3812 -407.6917 L -440.0116 -410.2907 L -438.3485 -412.9613 L -436.2049 -415.824 L -434.0477 -418.1982 L -431.3408 -420.622 L -428.5231 -422.6537 L -426.1964 -424.0334 L -423.1247 -425.5196 L -419.6158 -426.8134 L -412.869 -428.1432 L -406.4455 -428.0128 L -399.9433 -426.6738 L -396.3393 -425.4686 L -393.4063 -424.209 L -389.7878 -422.2587 L -386.8545 -420.3299 L -383.2307 -417.5534 L -379.7673 -414.6057 L -375.4816 -410.6963 L -371.6035 -406.8603 L -364.8414 -399.018 L -358.7137 -389.9441 L -352.895 -379.801 L -349.9507 -374.3902 L -346.6436 -367.9699 L -341.4355 -356.6896 L -336.1598 -343.6916 L -331.2508 -329.8172 L -327.5618 -317.5897 L -325.9145 -311.518 L -324.2428 -304.8036 L -322.2652 -295.7959 L -321.0391 -289.3371 L -319.6339 -280.5548 L -318.529 -271.6593 L -317.7023 -262.1614 L -317.2722 -254.8963 L -316.9141 -245.9713 L -316.6983 -238.1841 L -316.5325 -229.8501 L -316.4356 -222.6409 L -316.3703 -213.1286 L -316.3687 -205.158 L -316.4253 -195.8316 L -316.5291 -187.4461 L -316.695 -176.9667 L -316.8247 -168.7494 L -316.9913 -158.3949 L -317.1964 -145.271 L -317.3321 -134.3166 L -317.4106 -123.8998 L -317.4275 -114.6858 L -317.38 -105.5761 L -317.2904 -97.6402 L -317.1997 -89.7967 L -317.1477 -81.4072 L -317.114 -74.5075 L -317.0147 -67.7837 L -316.7416 -61.2659 L -316.35 -56.1539 L -315.6616 -50.0661 L -314.7046 -43.8387 L -313.5756 -38.2922 L -312.2062 -33.1131 L -310.47 -28.0208 L -308.4258 -23.2303 L -306.1085 -18.6976 L -301.4354 -11.338 L -298.4453 -7.5821 L -295.2032 -4.1835 L -291.7124 -1.1983 L -288.893 .7726 L -285.2765 2.8149 L -281.306 4.5413 L -277.5191 5.8682 L -273.4856 7.0518 L -266.8333 8.4015 L -259.7761 8.8397 L -252.9564 8.0254 L -246.5842 6.2642 L -243.0949 4.9756 L -239.4251 3.3508 L -236.4349 1.798 L -233.0552 -.2325 L -229.7301 -2.5451 L -226.2863 -5.3125 L -223.153 -8.2027 L -220.1393 -11.3523 L -217.7806 -14.0963 L -214.8294 -17.9264 L -212.512 -21.2634 L -209.8335 -25.5317 L -208.3373 -28.1497 L -205.9793 -32.7971 L -203.9032 -37.6862 L -202.9259 -40.3676 L -201.0078 -46.5279 L -199.5021 -51.957 L -198.0141 -57.2089 L -196.3715 -62.6188 L -194.8101 -67.5023 L -193.1581 -72.5187 L -191.05 -78.6809 L -189.0967 -84.0163 L -187.1489 -88.8579 L -184.5439 -94.5098 L -181.6147 -99.8571 L -178.7474 -104.2826 L -175.8438 -108.1609 L -172.049 -112.6111 L -168.7291 -116.1161 L -161.094 -123.2428 L -156.7588 -126.8543 L -153.1168 -129.7167 L -148.1863 -133.3457 L -143.9569 -136.177 L -140.8303 -138.0857 L -137.94 -139.7145 L -132.618 -142.3788 L -128.1282 -144.308 L -122.4012 -146.4225 L -116.0925 -148.434 L -110.3375 -150.089 L -105.213 -151.4626 L -98.7419 -153.075 L -83.1611 -156.4885 L -77.0597 -157.6768 L -69.9543 -158.9572 L -63.6131 -160.0077 L -57.1395 -161.0119 L -51.0032 -161.965 L -42.8125 -163.3219 L -33.9399 -164.9114 L -25.8715 -166.4329 L -18.6676 -167.8336 L -9.734 -169.6252 L -2.7677 -171.0727 L 5.9599 -172.9548 L 13.7502 -174.688 L 20.5559 -176.2203 L 29.8167 -178.2947 L 39.8875 -180.5058 L 47.725 -182.1894 L 58.1444 -184.3858 L 66.2433 -186.072 L 76.3561 -188.1849 L 84.0417 -189.8076 L 94.4239 -192.005 L 106.2927 -194.4891 L 117.6649 -196.782 L 126.443 -198.4488 L 137.9388 -200.4737 L 145.9868 -201.7705 L 156.6075 -203.3169 L 167.7212 -204.716 L 177.8965 -205.796 L 185.8998 -206.5148 L 196.0205 -207.2597 L 204.0439 -207.7353 L 211.3146 -208.0926 L 220.6479 -208.4794 L 229.7857 -208.8182 L 238.6812 -209.147 L 246.7087 -209.4553 L 254.2429 -209.7725 L 259.9425 -210.0865 L 266.7196 -210.6572 L 271.4102 -211.2604 L 276.2743 -212.0965 L 281.6865 -213.276 L 287.2507 -214.7923 L 291.9807 -216.3855 L 295.911 -217.9957 L 300.8014 -220.3995 L 305.2145 -222.8748 L 309.7801 -225.6797 L 314.2746 -228.652 L 318.7274 -231.8107 L 323.1308 -235.1766 L 326.4543 -237.904 L 330.7365 -241.6851 L 333.9438 -244.7513 L 338.0199 -249.0061 L 341.0368 -252.4427 L 344.8533 -257.155 L 347.8766 -261.2262 L 351.1974 -266.0801 L 353.7973 -270.1815 L 357.0973 -275.7558 L 359.4 -279.836 L 362.4937 -285.4589 L 365.6625 -291.2787 L 368.9561 -297.2805 L 371.523 -301.8885 L 375.2977 -308.5724 L 378.2882 -313.806 L 382.0861 -320.3805 L 385.2435 -325.7624 L 389.1853 -332.257 L 392.479 -337.3729 L 396.9571 -343.7363 L 400.7649 -348.5743 L 405.2129 -353.5596 L 408.8883 -357.1532 L 413.5351 -361.0998 L 418.6565 -364.8315 L 423.6156 -367.9467 L 427.0896 -369.862 L 430.2825 -371.4352 L 440.2387 -375.1347 L 444.4031 -376.1004 L 449.7843 -376.8286 L 454.151 -377.0097 L 459.0672 -376.8262 L 463.0305 -376.4089 L 468.435 -375.4755 L 472.3109 -374.544 L 477.3101 -372.9941 L 481.341 -371.441 L 486.0945 -369.2117 L 489.5876 -367.2423 L 493.9294 -364.3282 L 497.0568 -361.8505 L 500.6605 -358.5255 L 504.2254 -354.7135 L 507.3529 -350.9101 L 510.4036 -346.6487 L 513.1381 -342.1668 L 515.5416 -337.4737 L 519.1571 -328.6898 L 522.9985 -315.8496 L 525.9707 -297.028 L 526.3083 -292.2125 L 526.5585 -286.1991 L 526.6277 -274.6561 L 526.4214 -267.9454 L 526.0303 -261.121 L 525.5021 -254.5911 L 524.7711 -247.5434 L 523.9451 -240.7873 L 522.8917 -232.9992 L 521.7989 -225.42 L 520.6997 -218.0476 L 519.5055 -209.918 L 518.4184 -201.9717 L 517.3574 -193.7368 L 516.4042 -186.3048 L 515.2404 -177.5627 L 514.2564 -170.2945 L 513.006 -160.7889 L 511.3528 -147.6175 L 509.5738 -133.7368 L 508.6188 -126.9674 L 507.6764 -120.8231 L 506.9496 -116.5301 L 506.004 -111.8274 L 505.0921 -108.239 L 503.8184 -104.3012 L 502.5736 -101.233 L 500.8119 -97.702 L 499.1324 -94.8969 L 496.9423 -91.7776 L 494.1706 -88.5161 L 491.4518 -85.9204 L 488.3096 -83.4855 L 484.9436 -81.4065 L 481.7976 -79.8745 L 478.7181 -78.6611 L 475.7592 -77.6691 L 472.0097 -76.5402 L 468.6319 -75.6007 L 464.6648 -74.5466 L 461.373 -73.6543 L 457.2988 -72.4234 L 453.022 -70.8658 L 449.0566 -69.1094 L 445.1854 -67.0528 L 441.2144 -64.529 L 437.6224 -61.8258 L 431.2882 -55.8989 L 425.136 -48.8921 L 418.8712 -40.8976 L 412.738 -32.4547 L 405.9697 -22.7666 L 401.7418 -16.7488 L 397.5737 -10.8762 L 389.7943 .0532 L 382.012 11.0731 L 374.8298 21.4499 L 368.7579 31.3385 L 366.2233 36.4641 L 364.3844 41.0957 L 363.2218 44.7589 L 362.0842 49.253 L 361.3611 52.9028 L 360.6687 57.6819 L 360.3284 61.342 L 360.143 65.8456 L 360.2022 69.777 L 360.5599 74.5398 L 361.096 78.4779 L 361.9194 82.7229 L 363.0997 87.2818 L 364.8284 92.4342 L 366.5932 96.7357 L 368.9557 101.6148 L 371.0293 105.3334 L 373.714 109.5874 L 376.4825 113.5305 L 379.6491 117.7913 L 383.3699 122.7853 L 386.9158 127.7296 L 390.3789 132.8743 L 393.6908 138.4171 L 395.8779 142.7026 L 398.2026 148.3624 L 399.53 152.7089 L 400.5091 157.3752 L 401.1405 163.0241 L 401.3843 168.3193 L 401.3673 173.5746 L 400.9714 179.0971 L 400.3731 183.2528 L 399.1576 188.5539 L 397.8761 192.5013 L 395.7414 197.5396 L 393.9509 201.0387 L 391.2292 205.6925 L 388.1337 210.3572 L 384.4059 215.2841 L 380.1863 220.1382 L 375.4478 224.8429 L 370.5038 229.0638 L 364.768 233.3046 L 358.9962 237.0866 L 354.0614 240.0047 L 344.0495 245.2854 L 337.3527 248.5049 L 330.0197 251.8801 L 322.9593 255.1388 L 315.3364 258.8049 L 307.6004 262.7164 L 300.2139 266.6095 L 292.2694 270.9602 L 284.8371 275.2497 L 277.2317 280.045 L 270.0631 285.1629 L 263.4032 290.6382 L 257.3071 296.4601 L 253.0359 301.1219 L 247.9606 307.4414 L 244.4532 312.4181 L 240.2726 319.0838 L 236.645 325.4935 L 230.4793 337.8129 L 227.5009 344.5905 L 224.5275 351.9486 L 221.7705 359.4393 L 219.2798 367.0708 L 217.1573 374.3798 L 215.1433 381.7896 L 212.8302 390.209 L 210.4732 398.1924 L 208.0859 405.6409 L 205.3857 413.3218 L 202.8432 419.8001 L 199.509 427.154 L 196.2122 433.2834 L 192.3322 439.3195 L 188.0517 444.8647 L 183.7148 449.6963 L 179.1203 454.1868 L 171.1558 460.7643 L 161.2868 467.3579 L 150.7672 472.9671 L 139.9109 477.2916 L 127.8935 480.4563 L 114.685 482.3591 L 101.7293 483.2115 L 94.3571 483.4141 L 86.8182 483.4225 L 78.7038 483.203 L 70.4076 482.7411 L 61.9546 482.0381 L 53.3096 481.175 L 44.954 480.3404 L 36.8776 479.5871 L 29.1035 478.8961 L 20.4766 478.1476 L 12.1442 477.4466 L 2.2856 476.6811 L -7.9172 475.9666 L -18.4481 475.3008 L -27.2414 474.7958 L -38.8996 474.1992 L -50.2347 473.684 L -62.6144 473.1273 L -72.3108 472.6609 L -85.1872 472.0233 L -95.7655 471.516 L -107.5683 470.978 L -116.7339 470.5859 L -127.3848 470.17 L -135.5222 469.8833 L -143.7583 469.6153 L -150.9108 469.3873 L -159.6475 469.0785 L -165.9014 468.8239 L -173.5754 468.4917 L -178.6764 468.2727 L -185.0331 468.0102 L -189.8247 467.8112 L -195.2737 467.5336 L -199.3774 467.2519 L -204.5659 466.7771 L -208.4349 466.3162 L -213.35 465.5189 L -216.979 464.7003 L -221.506 463.2803 L -224.7616 461.8962 L -228.4836 459.8469 L -231.4571 457.7761 L -234.5082 455.1323 L -236.8587 452.6086 L -239.2406 449.5121 L -241.1134 446.6535 L -243.0371 443.2288 L -244.4186 440.3314 L -246.0348 436.1454 L -247.0712 432.7431 L -248.029 428.6637 L -248.6407 425.1716 L -249.2087 420.3657 L -249.4473 416.5075 L -249.4787 411.2346 L -249.3139 407.04 L -248.9235 401.3525 L -248.5264 396.8648 L -247.9055 391.2068 L -247.2196 386.4941 L -246.0709 380.6096 L -244.4649 374.2797 L -242.6567 368.2603 L -241.0777 363.2846 L -237.9612 352.9743 L -236.1636 346.3577 L -234.7713 340.8388 L -233.2337 334.2996 L -231.5438 326.3795 L -230.2436 319.4192 L -228.2788 305.4684 L -227.7419 300.1395 L -227.2558 293.8772 L -227.0008 289.0746 L -226.8426 282.8522 L -226.8511 278.8916 L -227.0025 273.3819 L -227.2303 269.2428 L -227.6758 264.2461 L -228.0982 260.8813 L -228.6833 257.2831 L -230.9218 248.4755 L -234.0876 241.3748 L -237.8791 235.7473 L -240.1895 232.9301 L -242.6308 230.2293 L -247.4992 225.6696 L -252.5174 222.1388 L -257.8666 219.4491 L -260.955 218.3477 L -264.321 217.5065 L -267.7589 217.0108 L -271.0626 216.8605 L -274.4079 217.0251 L -277.7637 217.5143 L -280.2713 218.0991 L -285.8347 220.1148 L -289.0317 221.7649 L -291.7376 223.465 L -294.7117 225.6952 L -297.7198 228.3745 L -300.569 231.3516 L -302.6254 233.8319 L -305.1262 237.3297 L -306.874 240.1928 L -308.9191 244.171 L -310.5731 248.1489 L -312.0429 252.6135 L -313.2136 257.018 L -314.2636 261.612 L -315.28 266.7026 L -316.1509 272.0039 L -316.7385 277.1739 L -316.9649 287.1258 L -316.6641 291.4236 L -316.1383 295.714 L -315.2678 301.0142 L -314.5379 305.0332 L -313.5077 310.8501 L -312.556 316.8553 L -311.7966 322.3093 L -311.1947 327.1524 L -310.5047 333.2451 L -309.9554 338.2676 L -309.2748 344.4483 L -308.5486 351.0045 L -307.5344 362.4996 L -307.3484 373.8568 L -308.4343 384.8252 L -309.6663 390.3904 L -311.4768 396.0637 L -313.1403 400.2693 L -315.6214 405.637 L -318.4662 410.8113 L -321.4822 415.4324 L -325.0115 419.9637 L -328.6245 423.8549 L -332.4911 427.387 L -336.5859 430.5549 L -340.3362 433.0284 L -345.0778 435.6774 L -349.1195 437.544 L -353.8709 439.2691 L -359.3368 440.6272 L -364.2518 441.3004 L -368.8816 441.5072 L -378.1262 440.716 L -387.6177 438.2427 L -391.2697 436.8475 L -395.5091 434.8989 L -400.3254 432.2276 L -403.9068 429.8992 L -408.6071 426.352 L -412.3429 423.1042 L -416.8203 418.6883 L -420.3333 414.7835 L -424.627 409.2836 L -427.3951 405.1259 L -430.8374 398.9405 L -432.6202 395.1133 L -435.0831 388.7647 L -437.1938 381.753 L -438.7618 374.9378 L -439.5675 370.5779 L -440.6697 363.0069 L -441.7015 352.4381 L -442.2017 342.5084 L -442.2947 334.7551 L -442.2235 328.3572 L -441.9915 319.8046 L -441.756 311.0316 L -441.6592 301.9894 L -441.6295 294.3266 L -441.4932 285.3304 L -441.2061 276.6491 L -440.834 266.558 L -440.6335 258.0267 L -440.5382 248.0499 L -440.5001 239.7727 L -440.4386 229.3836 L -440.3971 220.7903 L -440.4013 210.0304 L -440.4449 201.2091 L -440.5044 190.3325 z" stroke-width="28" stroke="black" fill="none" id="Track"/><path d="M -440.0359 182.6246 L -440.0294 171.0371 L -440.0285 159.2929 L -440.0211 147.3882 L -440.0252 135.3552 L -440.0684 123.1696 L -440.1312 114.4775 L -440.2616 102.0621 L -440.4033 90.2468 L -440.5327 77.5322 L -440.7699 42.8654 L -440.981 18.1664 L -441.2044 -6.3902 L -441.2842 -14.7284 L -441.425 -29.0486 L -441.5823 -44.4402 L -441.7314 -58.1594 L -442.0362 -83.9099 L -442.3488 -108.8126 L -442.6919 -134.3837 L -443.0502 -158.6227 L -443.4601 -184.0132 L -443.8054 -208.077 L -443.9686 -221.4538 L -444.1029 -233.6999 L -444.2252 -246.2576 L -444.3173 -256.9557 L -444.3878 -265.9337 L -444.5085 -277.2346 L -444.675 -286.1896 L -444.9419 -296.2031 L -445.1918 -304.8703 L -445.4266 -314.668 L -445.5632 -322.5475 L -445.7276 -332.6971 L -445.9273 -341.9833 L -446.1438 -351.3528 L -446.2813 -359.5921 L -446.3229 -367.7359 L -446.2661 -374.7717 L -446.1103 -381.4817 L -445.4448 -392.0018 L -444.9224 -395.8975 L -444.3844 -398.7455 L -443.5458 -402.0635 L -442.7024 -404.5951 L -441.3812 -407.6917 L -440.0116 -410.2907 L -438.3485 -412.9613 L -436.2049 -415.824 L -434.0477 -418.1982 L -431.3408 -420.622 L -428.5231 -422.6537 L -426.1964 -424.0334 L -423.1247 -425.5196 L -419.6158 -426.8134 L -412.869 -428.1432 L -406.4455 -428.0128 L -399.9433 -426.6738 L -396.3393 -425.4686 L -393.4063 -424.209 L -389.7878 -422.2587 L -386.8545 -420.3299 L -383.2307 -417.5534 L -379.7673 -414.6057 L -375.4816 -410.6963 L -371.6035 -406.8603 L -364.8414 -399.018 L -358.7137 -389.9441 L -352.895 -379.801 L -349.9507 -374.3902 L -346.6436 -367.9699 L -341.4355 -356.6896 L -336.1598 -343.6916 L -331.2508 -329.8172 L -327.5618 -317.5897 L -325.9145 -311.518 L -324.2428 -304.8036 L -322.2652 -295.7959 L -321.0391 -289.3371 L -319.6339 -280.5548 L -318.529 -271.6593 L -317.7023 -262.1614 L -317.2722 -254.8963 L -316.9141 -245.9713 L -316.6983 -238.1841 L -316.5325 -229.8501 L -316.4356 -222.6409 L -316.3703 -213.1286 L -316.3687 -205.158 L -316.4253 -195.8316 L -316.5291 -187.4461 L -316.695 -176.9667 L -316.8247 -168.7494 L -316.9913 -158.3949 L -317.1964 -145.271 L -317.3321 -134.3166 L -317.4106 -123.8998 L -317.4275 -114.6858 L -317.38 -105.5761 L -317.2904 -97.6402 L -317.1997 -89.7967 L -317.1477 -81.4072 L -317.114 -74.5075 L -317.0147 -67.7837 L -316.7416 -61.2659 L -316.35 -56.1539 L -315.6616 -50.0661 L -314.7046 -43.8387 L -313.5756 -38.2922 L -312.2062 -33.1131 L -310.47 -28.0208 L -308.4258 -23.2303 L -306.1085 -18.6976 L -301.4354 -11.338 L -298.4453 -7.5821 L -295.2032 -4.1835 L -291.7124 -1.1983 L -288.893 .7726 L -285.2765 2.8149 L -281.306 4.5413 L -277.5191 5.8682 L -273.4856 7.0518 L -266.8333 8.4015 L -259.7761 8.8397 L -252.9564 8.0254 L -246.5842 6.2642 L -243.0949 4.9756 L -239.4251 3.3508 L -236.4349 1.798 L -233.0552 -.2325 L -229.7301 -2.5451 L -226.2863 -5.3125 L -223.153 -8.2027 L -220.1393 -11.3523 L -217.7806 -14.0963 L -214.8294 -17.9264 L -212.512 -21.2634 L -209.8335 -25.5317 L -208.3373 -28.1497 L -205.9793 -32.7971 L -203.9032 -37.6862 L -202.9259 -40.3676 L -201.0078 -46.5279 L -199.5021 -51.957 L -198.0141 -57.2089 L -196.3715 -62.6188 L -194.8101 -67.5023 L -193.1581 -72.5187 L -191.05 -78.6809 L -189.0967 -84.0163 L -187.1489 -88.8579 L -184.5439 -94.5098 L -181.6147 -99.8571 L -178.7474 -104.2826 L -175.8438 -108.1609 L -172.049 -112.6111 L -168.7291 -116.1161 L -161.094 -123.2428 L -156.7588 -126.8543 L -153.1168 -129.7167 L -148.1863 -133.3457 L -143.9569 -136.177 L -140.8303 -138.0857 L -137.94 -139.7145 L -132.618 -142.3788 L -128.1282 -144.308 L -122.4012 -146.4225 L -116.0925 -148.434 L -110.3375 -150.089 L -105.213 -151.4626 L -98.7419 -153.075 L -83.1611 -156.4885 L -77.0597 -157.6768 L -69.9543 -158.9572 L -63.6131 -160.0077 L -57.1395 -161.0119 L -51.0032 -161.965 L -42.8125 -163.3219 L -33.9399 -164.9114 L -25.8715 -166.4329 L -18.6676 -167.8336 L -9.734 -169.6252 L -2.7677 -171.0727 L 5.9599 -172.9548 L 13.7502 -174.688 L 20.5559 -176.2203 L 29.8167 -178.2947 L 39.8875 -180.5058 L 47.725 -182.1894 L 58.1444 -184.3858 L 66.2433 -186.072 L 76.3561 -188.1849 L 84.0417 -189.8076 L 94.4239 -192.005 L 106.2927 -194.4891 L 117.6649 -196.782 L 126.443 -198.4488 L 137.9388 -200.4737 L 145.9868 -201.7705 L 156.6075 -203.3169 L 167.7212 -204.716 L 177.8965 -205.796" stroke-width="12" stroke="#e73323" fill="none" id="S1"/><path d="M 185.8998 -206.5148 L 196.0205 -207.2597 L 204.0439 -207.7353 L 211.3146 -208.0926 L 220.6479 -208.4794 L 229.7857 -208.8182 L 238.6812 -209.147 L 246.7087 -209.4553 L 254.2429 -209.7725 L 259.9425 -210.0865 L 266.7196 -210.6572 L 271.4102 -211.2604 L 276.2743 -212.0965 L 281.6865 -213.276 L 287.2507 -214.7923 L 291.9807 -216.3855 L 295.911 -217.9957 L 300.8014 -220.3995 L 305.2145 -222.8748 L 309.7801 -225.6797 L 314.2746 -228.652 L 318.7274 -231.8107 L 323.1308 -235.1766 L 326.4543 -237.904 L 330.7365 -241.6851 L 333.9438 -244.7513 L 338.0199 -249.0061 L 341.0368 -252.4427 L 344.8533 -257.155 L 347.8766 -261.2262 L 351.1974 -266.0801 L 353.7973 -270.1815 L 357.0973 -275.7558 L 359.4 -279.836 L 362.4937 -285.4589 L 365.6625 -291.2787 L 368.9561 -297.2805 L 371.523 -301.8885 L 375.2977 -308.5724 L 378.2882 -313.806 L 382.0861 -320.3805 L 385.2435 -325.7624 L 389.1853 -332.257 L 392.479 -337.3729 L 396.9571 -343.7363 L 400.7649 -348.5743 L 405.2129 -353.5596 L 408.8883 -357.1532 L 413.5351 -361.0998 L 418.6565 -364.8315 L 423.6156 -367.9467 L 427.0896 -369.862 L 430.2825 -371.4352 L 440.2387 -375.1347 L 444.4031 -376.1004 L 449.7843 -376.8286 L 454.151 -377.0097 L 459.0672 -376.8262 L 463.0305 -376.4089 L 468.435 -375.4755 L 472.3109 -374.544 L 477.3101 -372.9941 L 481.341 -371.441 L 486.0945 -369.2117 L 489.5876 -367.2423 L 493.9294 -364.3282 L 497.0568 -361.8505 L 500.6605 -358.5255 L 504.2254 -354.7135 L 507.3529 -350.9101 L 510.4036 -346.6487 L 513.1381 -342.1668 L 515.5416 -337.4737 L 519.1571 -328.6898 L 522.9985 -315.8496 L 525.9707 -297.028 L 526.3083 -292.2125 L 526.5585 -286.1991 L 526.6277 -274.6561 L 526.4214 -267.9454 L 526.0303 -261.121 L 525.5021 -254.5911 L 524.7711 -247.5434 L 523.9451 -240.7873 L 522.8917 -232.9992 L 521.7989 -225.42 L 520.6997 -218.0476 L 519.5055 -209.918 L 518.4184 -201.9717 L 517.3574 -193.7368 L 516.4042 -186.3048 L 515.2404 -177.5627 L 514.2564 -170.2945 L 513.006 -160.7889 L 511.3528 -147.6175 L 509.5738 -133.7368 L 508.6188 -126.9674 L 507.6764 -120.8231 L 506.9496 -116.5301 L 506.004 -111.8274 L 505.0921 -108.239 L 503.8184 -104.3012 L 502.5736 -101.233 L 500.8119 -97.702 L 499.1324 -94.8969 L 496.9423 -91.7776 L 494.1706 -88.5161 L 491.4518 -85.9204 L 488.3096 -83.4855 L 484.9436 -81.4065 L 481.7976 -79.8745 L 478.7181 -78.6611 L 475.7592 -77.6691 L 472.0097 -76.5402 L 468.6319 -75.6007 L 464.6648 -74.5466 L 461.373 -73.6543 L 457.2988 -72.4234 L 453.022 -70.8658 L 449.0566 -69.1094 L 445.1854 -67.0528 L 441.2144 -64.529 L 437.6224 -61.8258 L 431.2882 -55.8989 L 425.136 -48.8921 L 418.8712 -40.8976 L 412.738 -32.4547 L 405.9697 -22.7666 L 401.7418 -16.7488 L 397.5737 -10.8762 L 389.7943 .0532 L 382.012 11.0731 L 374.8298 21.4499 L 368.7579 31.3385 L 366.2233 36.4641 L 364.3844 41.0957 L 363.2218 44.7589 L 362.0842 49.253 L 361.3611 52.9028 L 360.6687 57.6819 L 360.3284 61.342 L 360.143 65.8456 L 360.2022 69.777 L 360.5599 74.5398 L 361.096 78.4779 L 361.9194 82.7229 L 363.0997 87.2818 L 364.8284 92.4342 L 366.5932 96.7357 L 368.9557 101.6148 L 371.0293 105.3334 L 373.714 109.5874 L 376.4825 113.5305 L 379.6491 117.7913 L 383.3699 122.7853 L 386.9158 127.7296 L 390.3789 132.8743 L 393.6908 138.4171 L 395.8779 142.7026 L 398.2026 148.3624 L 399.53 152.7089 L 400.5091 157.3752 L 401.1405 163.0241 L 401.3843 168.3193 L 401.3673 173.5746 L 400.9714 179.0971 L 400.3731 183.2528 L 399.1576 188.5539 L 397.8761 192.5013 L 395.7414 197.5396 L 393.9509 201.0387 L 391.2292 205.6925 L 388.1337 210.3572 L 384.4059 215.2841 L 380.1863 220.1382 L 375.4478 224.8429 L 370.5038 229.0638 L 364.768 233.3046 L 358.9962 237.0866 L 354.0614 240.0047 L 344.0495 245.2854 L 337.3527 248.5049 L 330.0197 251.8801 L 322.9593 255.1388 L 315.3364 258.8049 L 307.6004 262.7164 L 300.2139 266.6095 L 292.2694 270.9602 L 284.8371 275.2497 L 277.2317 280.045 L 270.0631 285.1629 L 263.4032 290.6382 L 257.3071 296.4601 L 253.0359 301.1219 L 247.9606 307.4414 L 244.4532 312.4181 L 240.2726 319.0838 L 236.645 325.4935 L 230.4793 337.8129 L 227.5009 344.5905 L 224.5275 351.9486 L 221.7705 359.4393 L 219.2798 367.0708 L 217.1573 374.3798 L 215.1433 381.7896 L 212.8302 390.209 L 210.4732 398.1924 L 208.0859 405.6409 L 205.3857 413.3218 L 202.8432 419.8001 L 199.509 427.154 L 196.2122 433.2834 L 192.3322 439.3195 L 188.0517 444.8647 L 183.7148 449.6963 L 179.1203 454.1868 L 171.1558 460.7643 L 161.2868 467.3579 L 150.7672 472.9671 L 139.9109 477.2916 L 127.8935 480.4563 L 114.685 482.3591 L 101.7293 483.2115 L 94.3571 483.4141 L 86.8182 483.4225 L 78.7038 483.203 L 70.4076 482.7411 L 61.9546 482.0381 L 53.3096 481.175 L 44.954 480.3404 L 36.8776 479.5871" stroke-width="12" stroke="#4fafdf" fill="none" id="S2"/><path d="M 34.6864 479.3899 L 27.4039 478.7475 L 18.1237 477.9462 L 10.3219 477.2992 L .399 476.5431 L -10.5157 475.796 L -20.4581 475.1813 L -29.927 474.6509 L -41.7058 474.0678 L -53.1125 473.5567 L -75.3272 472.5115 L -98.0102 471.4113 L -118.8234 470.5007 L -137.9329 469.803 L -146.0085 469.5443 L -152.5002 469.3348 L -161.608 469.0013 L -167.7537 468.7446 L -174.8772 468.4354 L -179.9078 468.2208 L -186.168 467.9644 L -190.8851 467.7632 L -196.2422 467.4739 L -200.3041 467.1773 L -205.4656 466.6792 L -209.6054 466.1522 L -214.4784 465.2889 L -218.069 464.4046 L -222.2737 462.9842 L -225.4851 461.5397 L -229.3599 459.2806 L -232.0587 457.3016 L -235.2093 454.4306 L -237.3275 452.0435 L -239.7934 448.7103 L -241.4918 446.0232 L -243.3716 442.569 L -244.8065 439.4195 L -246.2733 435.4265 L -247.2688 431.9954 L -248.2329 427.6061 L -248.7984 424.0666 L -249.2797 419.4895 L -249.4762 415.5947 L -249.4533 410.2793 L -249.2575 406.0518 L -248.8388 400.3284 L -248.3879 395.468 L -247.7649 390.1278 L -247.0317 385.399 L -245.8149 379.4988 L -244.144 373.1558 L -242.2974 367.1205 L -240.7104 362.1226 L -239.1348 357.002 L -237.6174 351.7515 L -235.839 345.1026 L -234.4571 339.5429 L -232.8407 332.5383 L -231.2846 325.0686 L -229.9567 317.7176 L -228.943 310.9115 L -228.1437 304.2231 L -227.6359 298.9361 L -227.186 292.745 L -226.9465 287.6493 L -226.8368 281.8541 L -226.8724 277.5859 L -227.0458 272.4208 L -227.299 268.2975 L -227.818 263.0168 L -228.91 256.1031 L -229.7677 252.3442 L -231.1997 247.6863 L -232.5131 244.4686 L -234.4466 240.7509 L -236.0998 238.1658 L -238.3028 235.2082 L -240.6368 232.4157 L -243.2613 229.5757 L -245.1891 227.6947 L -248.0051 225.2617 L -250.23 223.6111 L -253.0545 221.823 L -255.4261 220.552 L -258.6305 219.1467 L -261.7401 218.1187 L -264.9229 217.3939 L -268.3742 216.9591 L -271.6878 216.8671 L -275.248 217.1166 L -278.3919 217.6429 L -281.1038 218.3362 L -283.9983 219.3347 L -286.441 220.3989 L -289.813 222.2261 L -292.3057 223.8607 L -295.2543 226.1458 L -298.2351 228.8788 L -301.0535 231.9083 L -303.2339 234.629 L -305.5429 237.9763 L -307.3805 241.1053 L -309.2501 244.9001 L -310.853 248.9201 L -312.2754 253.4249 L -313.4173 257.863 L -314.5121 262.7915 L -315.4473 267.6237 L -316.2818 272.9618 L -316.8391 278.4892 L -317.0209 282.8063 L -316.9172 288.1187 L -315.9895 296.7091 L -314.2912 306.3885 L -313.3329 311.8951 L -312.3983 317.9332 L -311.0188 328.663 L -309.8287 339.4258 L -309.1458 345.6071 L -308.4259 352.1594 L -307.9045 357.5321 L -307.4509 364.0228 L -307.2963 368.9597 L -307.4113 375.3476 L -307.7822 380.1409 L -308.6964 386.2377 L -309.9515 391.4101 L -311.8411 397.0417 L -313.5538 401.2287 L -316.0957 406.5652 L -319.0071 411.6988 L -322.0812 416.2622 L -325.6687 420.721 L -329.3322 424.5459 L -333.2434 428.0098 L -337.6443 431.2912 L -341.1594 433.5242 L -345.9343 436.1034 L -349.999 437.9017 L -355.0765 439.626 L -360.2553 440.7909 L -365.1761 441.3738 L -370.118 441.4944 L -374.1295 441.2573 L -379.3529 440.4889 L -383.3381 439.5603 L -388.5321 437.9173 L -396.4152 434.4347 L -405.0915 429.0595 L -409.4769 425.6305 L -413.1923 422.311 L -417.6437 417.8112 L -421.3812 413.5268 L -425.3385 408.2692 L -428.2457 403.7191 L -431.3909 397.8067 L -434.2143 391.1779 L -436.3848 384.6734 L -438.2165 377.5163 L -439.0168 373.6376 L -440.2527 366.1503 L -441.1359 358.9125 L -441.4428 355.692 L -441.9929 347.738 L -442.2358 341.0691 L -442.1916 326.8609 L -441.9437 318.274 L -441.7277 309.4555 L -441.6519 299.8222 L -441.6164 292.6624 L -441.4469 283.6135 L -441.115 274.3074 L -440.78 264.7454 L -440.6069 256.1754 L -440.5288 246.1535 L -440.4903 237.842 L -440.4228 226.7553 L -440.3928 218.7823 L -440.4093 207.9796 L -440.4568 199.1705 L -440.5119 188.2916" stroke-width="12" stroke="#f7d347" fill="none" id="S3"/></svg>