<?xml version="1.0" standalone="no"?>
<svg xmlns:xlink="http://www.w3.org/1999/xlink" id="s2" class="track" xmlns="http://www.w3.org/2000/svg" width="800" height="600" viewBox="-800 -1000 2000 2000">
        <path d="M -440.0359 182.6246 L -440.033 180.5949 L -440.0306 177.8777 L -440.0298 175.8306 L -440.0293 173.0935 L -440.0294 171.0371 L -440.0295 168.961 L -440.0295 166.2178 L -440.0293 164.1451 L -440.0291 161.3754 L -440.0285 159.2929 L -440.0277 157.2052 L -440.0266 155.1027 L -440.0246 152.3095 L -440.0231 150.2104 L -440.0211 147.3882 L -440.0201 145.2835 L -440.0197 143.1593 L -440.0201 140.3236 L -440.0215 138.1951 L -440.0252 135.3552 L -440.0296 133.2029 L -440.0374 130.3544 L -440.0449 128.2072 L -440.054 126.0476 L -440.0684 123.1696 L -440.0814 121.0066 L -440.0964 118.8353 L -440.1129 116.6643 L -440.1312 114.4775 L -440.1577 111.5761 L -440.1796 109.3864 L -440.2029 107.1951 L -440.2275 104.9922 L -440.2616 102.0621 L -440.288 99.8527 L -440.3148 97.6347 L -440.3507 94.6953 L -440.3773 92.4706 L -440.4033 90.2468 L -440.4368 87.2713 L -440.4609 85.0322 L -440.4839 82.7848 L -440.5056 80.5405 L -440.5327 77.5322 L -440.5516 75.2573 L -440.5748 72.2294 L -440.5908 69.9466 L -440.6058 67.6639 L -440.6249 64.6012 L -440.6386 62.3098 L -440.6523 60.0011 L -440.6663 57.6839 L -440.6807 55.3628 L -440.6957 53.0253 L -440.7115 50.6954 L -440.7281 48.3511 L -440.7515 45.23 L -440.7699 42.8654 L -440.7952 39.7235 L -440.8146 37.3548 L -440.8413 34.1743 L -440.8616 31.7979 L -440.8823 29.4025 L -440.9032 27.005 L -440.9313 23.8029 L -440.9526 21.3724 L -440.981 18.1664 L -441.0024 15.7394 L -441.0241 13.2941 L -441.053 10.0455 L -441.0751 7.6012 L -441.1047 4.3351 L -441.1273 1.87 L -441.1501 -.6016 L -441.181 -3.9045 L -441.2044 -6.3902 L -441.236 -9.7091 L -441.26 -12.2141 L -441.2842 -14.7284 L -441.3166 -18.066 L -441.3415 -20.6152 L -441.3744 -23.9648 L -441.3995 -26.4985 L -441.425 -29.0486 L -441.4507 -31.6106 L -441.4765 -34.1642 L -441.5026 -36.7286 L -441.5291 -39.2922 L -441.5556 -41.8684 L -441.5823 -44.4402 L -441.6094 -47.0097 L -441.637 -49.5852 L -441.6741 -53.0075 L -441.7025 -55.5837 L -441.7314 -58.1594 L -441.7603 -60.7325 L -441.7895 -63.306 L -441.8194 -65.884 L -441.8492 -68.459 L -441.8895 -71.8927 L -441.9204 -74.4703 L -441.9624 -77.9022 L -441.994 -80.4762 L -442.0362 -83.9099 L -442.068 -86.4903 L -442.1001 -89.0697 L -442.132 -91.6403 L -442.1642 -94.2158 L -442.1962 -96.7927 L -442.2287 -99.3686 L -442.272 -102.8036 L -442.3048 -105.3805 L -442.3488 -108.8126 L -442.3821 -111.3859 L -442.4159 -113.9618 L -442.4611 -117.3862 L -442.4952 -119.9505 L -442.5407 -123.3645 L -442.5751 -125.9166 L -442.6214 -129.3117 L -442.6565 -131.8494 L -442.6919 -134.3837 L -442.7396 -137.7615 L -442.7757 -140.2776 L -442.8121 -142.7981 L -442.8487 -145.3076 L -442.898 -148.649 L -442.9354 -151.1506 L -442.9733 -153.6483 L -443.0116 -156.1365 L -443.0502 -158.6227 L -443.1025 -161.9289 L -443.1421 -164.4048 L -443.182 -166.8735 L -443.2356 -170.1555 L -443.2758 -172.6141 L -443.3292 -175.8822 L -443.3689 -178.3266 L -443.4083 -180.7694 L -443.4601 -184.0132 L -443.4984 -186.4456 L -443.548 -189.6719 L -443.5843 -192.0904 L -443.6198 -194.5033 L -443.6657 -197.708 L -443.6993 -200.1128 L -443.7427 -203.3025 L -443.7744 -205.6932 L -443.8054 -208.077 L -443.8456 -211.2464 L -443.8751 -213.6176 L -443.9132 -216.7592 L -443.9412 -219.11 L -443.9686 -221.4538 L -443.9951 -223.7738 L -444.0296 -226.8589 L -444.0548 -229.1551 L -444.0792 -231.4338 L -444.1029 -233.6999 L -444.1335 -236.6961 L -444.1557 -238.9263 L -444.1843 -241.8772 L -444.205 -244.0739 L -444.2252 -246.2576 L -444.2448 -248.4264 L -444.2637 -250.5787 L -444.2821 -252.7198 L -444.2999 -254.8445 L -444.3173 -256.9557 L -444.3341 -259.0527 L -444.3504 -261.1353 L -444.3716 -263.8862 L -444.3878 -265.9337 L -444.4108 -268.6382 L -444.4297 -270.6477 L -444.4504 -272.6415 L -444.4819 -275.2806 L -444.5085 -277.2346 L -444.5488 -279.8233 L -444.5827 -281.7493 L -444.6332 -284.2925 L -444.675 -286.1896 L -444.7201 -288.0776 L -444.7683 -289.9615 L -444.8185 -291.8405 L -444.8881 -294.3358 L -444.9419 -296.2031 L -445.0142 -298.6896 L -445.0686 -300.5483 L -445.1401 -303.0243 L -445.1918 -304.8703 L -445.2416 -306.7159 L -445.3045 -309.1712 L -445.3481 -311.0057 L -445.3888 -312.8389 L -445.4266 -314.668 L -445.4616 -316.4951 L -445.5048 -318.9244 L -445.5347 -320.7375 L -445.5632 -322.5475 L -445.6005 -324.9569 L -445.6283 -326.7538 L -445.6662 -329.1429 L -445.6961 -330.9237 L -445.7276 -332.6971 L -445.7614 -334.4636 L -445.7972 -336.2142 L -445.835 -337.9608 L -445.8873 -340.2711 L -445.9273 -341.9833 L -445.9811 -344.2431 L -446.0209 -345.9173 L -446.0597 -347.5723 L -446.1091 -349.7463 L -446.1438 -351.3528 L -446.176 -352.9401 L -446.2055 -354.5074 L -446.2402 -356.5685 L -446.2624 -358.0894 L -446.2813 -359.5921 L -446.3011 -361.5684 L -446.3119 -363.0263 L -446.3192 -364.4643 L -446.3236 -366.3471 L -446.3229 -367.7359 L -446.319 -369.1016 L -446.3118 -370.448 L -446.3015 -371.7726 L -446.2832 -373.5026 L -446.2661 -374.7717 L -446.2462 -376.017 L -446.2148 -377.6344 L -446.1873 -378.8189 L -446.1566 -379.9773 L -446.1103 -381.4817 L -446.0714 -382.5795 L -446.0136 -384.0025 L -445.9658 -385.0332 L -445.9136 -386.0373 L -445.8367 -387.333 L -445.7737 -388.2694 L -445.7057 -389.1794 L -445.6078 -390.3458 L -445.5272 -391.2028 L -445.4448 -392.0018 L -445.3567 -392.7868 L -445.2643 -393.5431 L -445.134 -394.5124 L -445.0307 -395.2136 L -444.9224 -395.8975 L -444.8086 -396.5687 L -444.6475 -397.4486 L -444.519 -398.101 L -444.3844 -398.7455 L -444.2427 -399.384 L -444.0943 -400.0151 L -443.8851 -400.8446 L -443.7193 -401.4581 L -443.5458 -402.0635 L -443.3018 -402.8588 L -443.1096 -403.4461 L -442.9097 -404.0246 L -442.7024 -404.5951 L -442.4874 -405.1578 L -442.189 -405.8948 L -441.956 -406.4403 L -441.7145 -406.9813 L -441.3812 -407.6917 L -441.1217 -408.22 L -440.8551 -408.7436 L -440.5813 -409.2631 L -440.3002 -409.7785 L -440.0116 -410.2907 L -439.7161 -410.7986 L -439.3104 -411.4708 L -438.9973 -411.9714 L -438.6772 -412.4676 L -438.3485 -412.9613 L -437.8984 -413.6119 L -437.5509 -414.095 L -437.0743 -414.7317 L -436.7074 -415.2029 L -436.2049 -415.824 L -435.8192 -416.2825 L -435.4244 -416.7358 L -434.8852 -417.33 L -434.4702 -417.7681 L -434.0477 -418.1982 L -433.4716 -418.7602 L -433.0294 -419.1736 L -432.428 -419.7122 L -431.967 -420.1076 L -431.3408 -420.622 L -430.8617 -420.9991 L -430.2116 -421.4892 L -429.7143 -421.8478 L -429.2092 -422.1984 L -428.5231 -422.6537 L -427.9994 -422.9856 L -427.4676 -423.3095 L -426.9278 -423.6254 L -426.1964 -424.0334 L -425.6371 -424.3307 L -424.881 -424.7132 L -424.3037 -424.9906 L -423.7181 -425.2595 L -423.1247 -425.5196 L -422.5233 -425.7707 L -421.7091 -426.0908 L -421.0898 -426.3196 L -420.2519 -426.609 L -419.6158 -426.8134 L -418.7586 -427.0676 L -418.1104 -427.2435 L -417.4588 -427.4057 L -416.5887 -427.6 L -415.9338 -427.7295 L -415.0605 -427.8795 L -414.4041 -427.9755 L -413.5273 -428.0811 L -412.869 -428.1432 L -411.9892 -428.2036 L -411.3274 -428.2322 L -410.6659 -428.2464 L -410.0016 -428.2462 L -409.338 -428.2319 L -408.6728 -428.2035 L -408.0051 -428.1616 L -407.1151 -428.0852 L -406.4455 -428.0128 L -405.7756 -427.9276 L -404.8812 -427.7939 L -404.2099 -427.6786 L -403.5375 -427.5506 L -402.6416 -427.3617 L -401.968 -427.2065 L -401.2938 -427.0401 L -400.6186 -426.8624 L -399.9433 -426.6738 L -399.2675 -426.4737 L -398.5921 -426.2623 L -397.9154 -426.0387 L -397.2401 -425.8031 L -396.3393 -425.4686 L -395.6632 -425.2019 L -394.987 -424.9212 L -394.0838 -424.5241 L -393.4063 -424.209 L -392.7281 -423.8782 L -392.0499 -423.5319 L -391.3714 -423.1693 L -390.6921 -422.7899 L -389.7878 -422.2587 L -389.1104 -421.841 L -388.2078 -421.2584 L -387.5313 -420.8023 L -386.8545 -420.3299 L -386.1772 -419.8417 L -385.4989 -419.3376 L -384.5947 -418.6437 L -383.9138 -418.1056 L -383.2307 -417.5534 L -382.5458 -416.9887 L -381.8575 -416.4111 L -381.1654 -415.8213 L -380.4693 -415.2199 L -379.7673 -414.6057 L -378.8281 -413.7725 L -378.1167 -413.1333 L -377.1636 -412.2652 L -376.4449 -411.601 L -375.4816 -410.6963 L -374.7558 -410.0033 L -374.0298 -409.2997 L -373.3005 -408.5817 L -372.5728 -407.8528 L -371.6035 -406.8603 L -370.8777 -406.099 L -369.9164 -405.0651 L -369.1984 -404.2726 L -368.4869 -403.4686 L -367.7828 -402.6537 L -366.8576 -401.5522 L -366.1753 -400.716 L -365.5027 -399.8705 L -364.8414 -399.018 L -364.1891 -398.1554 L -363.3365 -396.993 L -362.7105 -396.1128 L -362.0944 -395.2232 L -361.2849 -394.02 L -360.6832 -393.1007 L -360.0865 -392.1668 L -359.4961 -391.2229 L -358.7137 -389.9441 L -358.1314 -388.9744 L -357.5508 -387.994 L -356.7768 -386.6682 L -356.1973 -385.664 L -355.6178 -384.6511 L -354.8434 -383.2858 L -354.2602 -382.2498 L -353.6758 -381.2055 L -352.895 -379.801 L -352.3078 -378.7376 L -351.7179 -377.6625 L -351.1294 -376.5821 L -350.54 -375.491 L -349.9507 -374.3902 L -349.1668 -372.9086 L -348.5807 -371.7862 L -347.9964 -370.6534 L -347.2212 -369.1266 L -346.6436 -367.9699 L -346.0691 -366.8023 L -345.4995 -365.6265 L -344.9324 -364.4382 L -344.3691 -363.2395 L -343.8108 -362.0329 L -343.0731 -360.41 L -342.5241 -359.1805 L -341.978 -357.9395 L -341.4355 -356.6896 L -340.8961 -355.4303 L -340.3552 -354.1514 L -339.6487 -352.457 L -339.1181 -351.1669 L -338.5898 -349.8674 L -337.8896 -348.1222 L -337.3669 -346.802 L -336.6756 -345.0315 L -336.1598 -343.6916 L -335.6477 -342.3439 L -334.9705 -340.5329 L -334.4681 -339.1659 L -333.9697 -337.7883 L -333.3139 -335.9391 L -332.8283 -334.5413 L -332.3482 -333.1337 L -331.8731 -331.7149 L -331.2508 -329.8172 L -330.7891 -328.38 L -330.3331 -326.9353 L -329.8823 -325.4819 L -329.4358 -324.0175 L -328.85 -322.0578 L -328.4156 -320.5761 L -327.9861 -319.0863 L -327.5618 -317.5897 L -327.1418 -316.0827 L -326.7274 -314.5696 L -326.318 -313.0474 L -325.9145 -311.518 L -325.3864 -309.4662 L -324.9986 -307.9204 L -324.6169 -306.3649 L -324.2428 -304.8036 L -323.8763 -303.2351 L -323.3992 -301.131 L -323.0508 -299.5456 L -322.7106 -297.9532 L -322.2652 -295.7959 L -322.0542 -294.7434 L -321.6361 -292.5887 L -321.333 -290.9655 L -321.0391 -289.3371 L -320.7543 -287.7014 L -320.4787 -286.0581 L -320.2136 -284.414 L -319.8753 -282.2113 L -319.6339 -280.5548 L -319.4028 -278.8926 L -319.1117 -276.6729 L -318.9061 -275.0032 L -318.7118 -273.3318 L -318.529 -271.6593 L -318.3576 -269.9845 L -318.1978 -268.3108 L -318.0016 -266.0743 L -317.8669 -264.3979 L -317.7023 -262.1614 L -317.5894 -260.4854 L -317.4851 -258.8076 L -317.3875 -257.1067 L -317.2722 -254.8963 L -317.1927 -253.2186 L -317.1198 -251.5464 L -317.0525 -249.8734 L -316.9901 -248.1977 L -316.9141 -245.9713 L -316.8617 -244.2994 L -316.7975 -242.076 L -316.753 -240.4044 L -316.6983 -238.1841 L -316.6602 -236.5161 L -316.6248 -234.8508 L -316.5917 -233.1858 L -316.5609 -231.5187 L -316.5325 -229.8501 L -316.4982 -227.6398 L -316.4751 -225.9745 L -316.4542 -224.3074 L -316.4356 -222.6409 L -316.414 -220.4128 L -316.4003 -218.7404 L -316.3854 -216.5016 L -316.3767 -214.8186 L -316.3703 -213.1286 L -316.3651 -210.8678 L -316.3637 -209.1608 L -316.3644 -207.4513 L -316.3687 -205.158 L -316.3745 -203.4276 L -316.3825 -201.6856 L -316.3927 -199.9421 L -316.4098 -197.601 L -316.4253 -195.8316 L -316.4498 -193.4597 L -316.471 -191.668 L -316.5029 -189.2604 L -316.5291 -187.4461 L -316.5569 -185.6168 L -316.5955 -183.1668 L -316.6252 -181.3145 L -316.665 -178.8368 L -316.695 -176.9667 L -316.725 -175.0836 L -316.7549 -173.1945 L -316.7948 -170.6588 L -316.8247 -168.7494 L -316.855 -166.8276 L -316.8857 -164.8932 L -316.9274 -162.3049 L -316.9592 -160.3541 L -316.9913 -158.3949 L -317.0234 -156.4293 L -317.0553 -154.4591 L -317.0973 -151.8334 L -317.1281 -149.8609 L -317.1581 -147.8907 L -317.1964 -145.271 L -317.2238 -143.3114 L -317.2581 -140.7125 L -317.2824 -138.7596 L -317.3118 -136.2178 L -317.3321 -134.3166 L -317.3562 -131.8097 L -317.3721 -129.9519 L -317.3859 -128.1116 L -317.3978 -126.2923 L -317.4106 -123.8998 L -317.418 -122.1262 L -317.4236 -120.3739 L -317.428 -118.0694 L -317.4288 -116.3672 L -317.4275 -114.6858 L -317.4239 -113.0256 L -317.4158 -110.8503 L -317.4072 -109.2419 L -317.3929 -107.1326 L -317.38 -105.5761 L -317.3654 -104.0381 L -317.3437 -102.0291 L -317.3263 -100.5432 L -317.3024 -98.6004 L -317.2904 -97.6402 L -317.2666 -95.7479 L -317.2493 -94.3469 L -317.2276 -92.5074 L -317.2129 -91.1454 L -317.1997 -89.7967 L -317.1879 -88.4514 L -317.1749 -86.6801 L -317.1667 -85.3512 L -317.1597 -84.0324 L -317.1535 -82.7166 L -317.1477 -81.4072 L -317.1421 -80.1024 L -317.1366 -78.8046 L -317.1288 -77.0822 L -317.1221 -75.7955 L -317.114 -74.5075 L -317.0999 -72.8048 L -317.0856 -71.5509 L -317.067 -70.289 L -317.0436 -69.0315 L -317.0147 -67.7837 L -316.9795 -66.5434 L -316.9215 -64.9003 L -316.8694 -63.6804 L -316.8095 -62.4687 L -316.7416 -61.2659 L -316.6653 -60.0721 L -316.5804 -58.8854 L -316.4544 -57.3199 L -316.35 -56.1539 L -316.1981 -54.6121 L -316.0749 -53.4651 L -315.9442 -52.3239 L -315.8065 -51.1922 L -315.6616 -50.0661 L -315.5094 -48.9447 L -315.2964 -47.4669 L -315.1278 -46.3669 L -314.9513 -45.2744 L -314.7046 -43.8387 L -314.51 -42.7716 L -314.2385 -41.3686 L -314.0975 -40.6754 L -313.8792 -39.6456 L -313.5756 -38.2922 L -313.338 -37.292 L -313.0919 -36.3054 L -312.8366 -35.3313 L -312.4826 -34.0556 L -312.2062 -33.1131 L -311.8243 -31.8794 L -311.527 -30.9686 L -311.2211 -30.0717 L -310.7985 -28.8933 L -310.47 -28.0208 L -310.0158 -26.8692 L -309.6645 -26.0166 L -309.1807 -24.8907 L -308.8079 -24.057 L -308.4258 -23.2303 L -307.9035 -22.1409 L -307.5021 -21.3329 L -307.0929 -20.5331 L -306.5353 -19.4786 L -306.1085 -18.6976 L -305.674 -17.9234 L -305.0838 -16.905 L -304.6328 -16.1512 L -304.174 -15.4049 L -303.7079 -14.6667 L -303.0755 -13.6959 L -302.5927 -12.9778 L -301.9371 -12.0349 L -301.4354 -11.338 L -300.9264 -10.652 L -300.235 -9.7523 L -299.7071 -9.0888 L -299.172 -8.4364 L -298.4453 -7.5821 L -297.892 -6.9555 L -297.3298 -6.3394 L -296.5686 -5.5369 L -295.9884 -4.9486 L -295.2032 -4.1835 L -294.6043 -3.624 L -293.7945 -2.8995 L -293.1788 -2.3728 L -292.5557 -1.8604 L -291.7124 -1.1983 L -291.0727 -.7193 L -290.41 -.2433 L -289.5537 .3424 L -288.893 .7726 L -288.226 1.1883 L -287.5531 1.5892 L -286.8761 1.9744 L -285.9644 2.4652 L -285.2765 2.8149 L -284.5832 3.1502 L -283.6524 3.5754 L -282.9519 3.8784 L -282.2481 4.1697 L -281.306 4.5413 L -280.598 4.8081 L -279.8875 5.0663 L -279.1782 5.3153 L -278.2303 5.636 L -277.5191 5.8682 L -276.8078 6.0935 L -275.8587 6.3837 L -275.147 6.5933 L -274.1981 6.8608 L -273.4856 7.0518 L -272.7735 7.234 L -272.0607 7.4075 L -271.3483 7.5719 L -270.6342 7.7276 L -269.685 7.9205 L -268.9726 8.0546 L -268.2589 8.1797 L -267.5438 8.2958 L -266.8333 8.4015 L -265.8879 8.5266 L -265.1777 8.6083 L -264.4677 8.6789 L -263.5242 8.755 L -262.8168 8.7981 L -262.1126 8.8287 L -261.4094 8.8468 L -260.7066 8.8522 L -259.7761 8.8397 L -259.0793 8.8154 L -258.1569 8.763 L -257.4673 8.7087 L -256.7807 8.6413 L -255.8706 8.5313 L -255.1925 8.4342 L -254.5177 8.3247 L -253.623 8.1607 L -252.9564 8.0254 L -252.291 7.8798 L -251.6277 7.7247 L -250.7438 7.5038 L -250.0865 7.3294 L -249.4283 7.1467 L -248.7703 6.9559 L -248.1133 6.7572 L -247.2394 6.4807 L -246.5842 6.2642 L -245.9291 6.0397 L -245.0565 5.7283 L -244.4026 5.4856 L -243.7491 5.235 L -243.0949 4.9756 L -242.2297 4.6189 L -241.579 4.34 L -240.9324 4.0539 L -240.0695 3.6576 L -239.4251 3.3508 L -238.5682 2.9279 L -237.9262 2.5996 L -237.2868 2.2627 L -236.4349 1.798 L -235.7974 1.4381 L -235.1623 1.0692 L -234.3177 .5618 L -233.6855 .1696 L -233.0552 -.2325 L -232.427 -.6445 L -231.8014 -1.0661 L -231.1769 -1.4982 L -230.3489 -2.0894 L -229.7301 -2.5451 L -229.1147 -3.0103 L -228.2994 -3.6459 L -227.6914 -4.1344 L -226.8867 -4.8007 L -226.2863 -5.3125 L -225.6895 -5.8342 L -225.0977 -6.3645 L -224.3146 -7.0867 L -223.7324 -7.6393 L -223.153 -8.2027 L -222.5791 -8.774 L -221.8205 -9.5494 L -221.2556 -10.142 L -220.6957 -10.7423 L -220.1393 -11.3523 L -219.4046 -12.1788 L -218.8586 -12.8093 L -218.3168 -13.4489 L -217.7806 -14.0963 L -217.0728 -14.9733 L -216.5478 -15.6408 L -216.0267 -16.3176 L -215.3401 -17.2309 L -214.8294 -17.9264 L -214.3248 -18.6271 L -213.6587 -19.5737 L -213.1636 -20.2938 L -212.512 -21.2634 L -212.0277 -22.0004 L -211.3902 -22.9932 L -210.9174 -23.7466 L -210.2949 -24.7615 L -209.8335 -25.5317 L -209.3779 -26.3079 L -208.7784 -27.3561 L -208.3373 -28.1497 L -207.9021 -28.9532 L -207.3359 -30.0324 L -206.9186 -30.854 L -206.377 -31.9576 L -205.9793 -32.7971 L -205.4644 -33.925 L -205.0887 -34.7803 L -204.7214 -35.6448 L -204.3645 -36.5144 L -203.9032 -37.6862 L -203.5684 -38.5728 L -203.2426 -39.4673 L -202.9259 -40.3676 L -202.6179 -41.2745 L -202.2199 -42.4938 L -201.9305 -43.4149 L -201.5544 -44.6532 L -201.2786 -45.589 L -201.0078 -46.5279 L -200.7396 -47.4748 L -200.3861 -48.7431 L -200.1216 -49.7018 L -199.8575 -50.6635 L -199.5021 -51.957 L -199.2322 -52.9332 L -198.8673 -54.2384 L -198.5886 -55.2219 L -198.3042 -56.2123 L -198.0141 -57.2089 L -197.7189 -58.2084 L -197.316 -59.552 L -197.0068 -60.5682 L -196.6922 -61.5896 L -196.3715 -62.6188 L -195.9361 -63.999 L -195.6032 -65.0435 L -195.2662 -66.0929 L -194.8101 -67.5023 L -194.4629 -68.5672 L -193.9941 -69.9958 L -193.6383 -71.0735 L -193.1581 -72.5187 L -192.7932 -73.6086 L -192.3027 -75.06 L -191.9302 -76.1503 L -191.555 -77.2373 L -191.05 -78.6809 L -190.6673 -79.7588 L -190.2815 -80.8306 L -189.891 -81.8985 L -189.4965 -82.9599 L -189.0967 -84.0163 L -188.5551 -85.4148 L -188.1399 -86.4603 L -187.58 -87.8318 L -187.1489 -88.8579 L -186.5631 -90.2109 L -186.1129 -91.2176 L -185.4983 -92.547 L -185.026 -93.5333 L -184.5439 -94.5098 L -183.8852 -95.7973 L -183.3784 -96.7527 L -182.861 -97.698 L -182.3343 -98.6301 L -181.6147 -99.8571 L -181.0618 -100.7656 L -180.4995 -101.6612 L -179.9256 -102.5469 L -179.3422 -103.4197 L -178.7474 -104.2826 L -177.9398 -105.4136 L -177.3224 -106.2494 L -176.484 -107.3479 L -175.8438 -108.1609 L -174.9759 -109.2308 L -174.3151 -110.0227 L -173.6444 -110.8083 L -172.7387 -111.8424 L -172.049 -112.6111 L -171.1176 -113.6255 L -170.4104 -114.3787 L -169.6935 -115.1283 L -168.7291 -116.1161 L -167.9958 -116.8522 L -167.0085 -117.8242 L -166.2593 -118.5479 L -165.5032 -119.2668 L -164.4856 -120.2169 L -163.7139 -120.9241 L -162.9366 -121.625 L -162.1509 -122.3221 L -161.094 -123.2428 L -160.2937 -123.9285 L -159.4879 -124.6096 L -158.404 -125.5123 L -157.5832 -126.1858 L -156.7588 -126.8543 L -155.9274 -127.5205 L -154.8107 -128.4034 L -153.9675 -129.0611 L -153.1168 -129.7167 L -151.9749 -130.584 L -151.1115 -131.2298 L -149.9502 -132.0837 L -149.0721 -132.7175 L -148.1863 -133.3457 L -147.2908 -133.9688 L -146.0909 -134.784 L -145.1821 -135.3862 L -143.9569 -136.177 L -143.028 -136.7604 L -141.7782 -137.5235 L -140.8303 -138.0857 L -139.8757 -138.6377 L -138.9127 -139.1806 L -137.94 -139.7145 L -136.6314 -140.41 L -135.6409 -140.9186 L -134.6416 -141.4166 L -133.6344 -141.9032 L -132.618 -142.3788 L -131.5955 -142.8421 L -130.5534 -143.2993 L -129.1765 -143.8811 L -128.1282 -144.308 L -127.0704 -144.7254 L -126.0056 -145.1326 L -124.9342 -145.5296 L -123.4914 -146.0456 L -122.4012 -146.4225 L -120.9395 -146.9123 L -119.8322 -147.2728 L -118.7195 -147.6269 L -117.5981 -147.9762 L -116.0925 -148.434 L -114.9549 -148.7723 L -113.8093 -149.1068 L -112.6598 -149.4369 L -111.5009 -149.7647 L -110.3375 -150.089 L -109.1663 -150.4105 L -107.5932 -150.8352 L -106.4069 -151.1502 L -105.213 -151.4626 L -104.0142 -151.7715 L -102.8067 -152.0779 L -101.5936 -152.3809 L -100.3764 -152.6801 L -98.7419 -153.075 L -97.5099 -153.3676 L -95.8578 -153.7531 L -94.6115 -154.039 L -92.9399 -154.4158 L -91.6838 -154.6944 L -90.421 -154.9706 L -88.7267 -155.3352 L -87.4503 -155.6056 L -86.1687 -155.8734 L -84.4539 -156.2265 L -83.1611 -156.4885 L -81.861 -156.7485 L -80.1242 -157.0901 L -78.8137 -157.3435 L -77.0597 -157.6768 L -75.7391 -157.9233 L -74.4125 -158.1669 L -72.638 -158.4868 L -71.2995 -158.7234 L -69.9543 -158.9572 L -68.1567 -159.2636 L -66.7988 -159.4905 L -64.9828 -159.7879 L -63.6131 -160.0077 L -62.2375 -160.2251 L -60.3947 -160.5119 L -59.0022 -160.7263 L -57.1395 -161.0119 L -55.733 -161.2277 L -54.3223 -161.4453 L -52.9031 -161.6658 L -51.0032 -161.965 L -49.5731 -162.1937 L -47.6543 -162.5058 L -46.2089 -162.7452 L -44.2726 -163.0716 L -42.8125 -163.3219 L -40.8604 -163.6619 L -39.3903 -163.9217 L -37.4153 -164.276 L -35.9318 -164.5454 L -33.9399 -164.9114 L -32.4421 -165.1893 L -30.9363 -165.471 L -29.4236 -165.7561 L -27.3982 -166.1408 L -25.8715 -166.4329 L -23.8267 -166.8268 L -22.286 -167.1255 L -20.2224 -167.5283 L -18.6676 -167.8336 L -17.1046 -168.1424 L -15.0129 -168.5586 L -13.4355 -168.8747 L -11.8545 -169.1938 L -9.734 -169.6252 L -8.1363 -169.9529 L -6.5341 -170.2842 L -4.9233 -170.6197 L -2.7677 -171.0727 L -1.1447 -171.4169 L .4846 -171.7652 L 2.6659 -172.2356 L 4.3113 -172.5935 L 5.9599 -172.9548 L 8.172 -173.443 L 9.8366 -173.8127 L 11.5103 -174.1861 L 13.7502 -174.688 L 15.4402 -175.0678 L 17.1393 -175.4504 L 18.8426 -175.8342 L 20.5559 -176.2203 L 22.8496 -176.7364 L 24.5808 -177.1252 L 26.3183 -177.5145 L 28.0628 -177.9042 L 29.8167 -178.2947 L 32.1647 -178.8152 L 33.938 -179.2063 L 36.3082 -179.7265 L 38.0941 -180.1162 L 39.8875 -180.5058 L 41.6834 -180.8942 L 44.0919 -181.4127 L 45.9026 -181.8006 L 47.725 -182.1894 L 50.1558 -182.7058 L 51.9911 -183.094 L 54.4448 -183.6108 L 56.2915 -183.9982 L 58.1444 -184.3858 L 60.0047 -184.7739 L 62.4916 -185.2917 L 64.3653 -185.6814 L 66.2433 -186.072 L 68.1277 -186.4641 L 70.0172 -186.8578 L 71.9127 -187.2535 L 74.4475 -187.7841 L 76.3561 -188.1849 L 78.2699 -188.5878 L 80.1875 -188.9923 L 82.1106 -189.3988 L 84.0417 -189.8076 L 85.9762 -190.2174 L 87.9154 -190.6283 L 89.8626 -191.0407 L 92.4634 -191.5909 L 94.4239 -192.005 L 97.0421 -192.5569 L 99.015 -192.9718 L 101.6528 -193.5248 L 103.6369 -193.9387 L 106.2927 -194.4891 L 108.2842 -194.8987 L 110.9545 -195.4433 L 112.9599 -195.8484 L 115.6455 -196.3845 L 117.6649 -196.782 L 120.3603 -197.3048 L 122.3881 -197.6915 L 124.413 -198.0723 L 126.443 -198.4488 L 128.4759 -198.8205 L 131.1815 -199.3067 L 133.2126 -199.6647 L 135.2389 -200.0158 L 137.9388 -200.4737 L 139.9562 -200.8083 L 141.9717 -201.1363 L 143.9816 -201.4569 L 145.9868 -201.7705 L 147.9892 -202.0769 L 149.9854 -202.3756 L 151.9768 -202.6667 L 154.6285 -203.0437 L 156.6075 -203.3169 L 159.2393 -203.6691 L 161.2082 -203.9242 L 163.1742 -204.1716 L 165.147 -204.4125 L 167.7212 -204.716 L 169.6541 -204.9359 L 172.2129 -205.2163 L 174.1202 -205.4173 L 176.0144 -205.6104 L 177.8965 -205.796 L 180.3829 -206.0317 L 182.2342 -206.1999 L 184.0739 -206.3611 L 185.8998 -206.5148 L 188.3192 -206.709 L 190.1202 -206.8469 L 191.9062 -206.9779 L 194.2686 -207.143 L 196.0205 -207.2597 L 197.7614 -207.371 L 200.0641 -207.5112 L 201.7859 -207.6109 L 204.0439 -207.7353 L 205.7343 -207.8239 L 207.9731 -207.9358 L 209.6448 -208.0157 L 211.3146 -208.0926 L 213.526 -208.1903 L 215.1802 -208.2607 L 217.3719 -208.3506 L 219.0132 -208.4158 L 220.6479 -208.4794 L 222.8129 -208.5619 L 224.4334 -208.6223 L 226.0442 -208.6816 L 228.1873 -208.7599 L 229.7857 -208.8182 L 231.9116 -208.8958 L 233.4859 -208.9536 L 235.0565 -209.0115 L 236.6181 -209.0696 L 238.6812 -209.147 L 240.2157 -209.2051 L 241.7379 -209.2631 L 243.2455 -209.321 L 245.2365 -209.398 L 246.7087 -209.4553 L 248.1618 -209.5124 L 249.599 -209.57 L 251.0156 -209.6287 L 252.4122 -209.689 L 254.2429 -209.7725 L 255.5945 -209.8384 L 257.364 -209.9316 L 258.6618 -210.0064 L 259.9425 -210.0865 L 261.6117 -210.2017 L 262.8353 -210.2954 L 264.034 -210.3958 L 265.5843 -210.5401 L 266.7196 -210.6572 L 267.8321 -210.7823 L 269.2831 -210.9618 L 270.3501 -211.1063 L 271.4102 -211.2604 L 272.8118 -211.48 L 273.8561 -211.6552 L 274.8979 -211.8393 L 276.2743 -212.0965 L 277.3015 -212.2992 L 278.3235 -212.5104 L 279.6765 -212.8053 L 280.6847 -213.0365 L 281.6865 -213.276 L 282.683 -213.5241 L 283.6721 -213.7803 L 284.9833 -214.1352 L 285.9592 -214.411 L 287.2507 -214.7923 L 288.2118 -215.0895 L 289.1659 -215.3973 L 290.1114 -215.7154 L 291.0497 -216.0448 L 291.9807 -216.3855 L 292.9019 -216.7373 L 293.8149 -217.1009 L 294.7199 -217.4769 L 295.911 -217.9957 L 296.7931 -218.3976 L 297.9556 -218.9503 L 298.8173 -219.3758 L 299.673 -219.8102 L 300.8014 -220.3995 L 301.6399 -220.8489 L 302.4752 -221.3065 L 303.5766 -221.9249 L 304.3976 -222.3967 L 305.2145 -222.8748 L 306.028 -223.3585 L 307.1062 -224.0106 L 307.9115 -224.5056 L 308.9803 -225.1727 L 309.7801 -225.6797 L 310.576 -226.1907 L 311.6354 -226.8811 L 312.429 -227.4059 L 313.4834 -228.1134 L 314.2746 -228.652 L 315.0619 -229.1947 L 315.8505 -229.7449 L 316.8989 -230.4869 L 317.6832 -231.0499 L 318.7274 -231.8107 L 319.5081 -232.3884 L 320.5475 -233.1699 L 321.3245 -233.7637 L 322.3579 -234.5663 L 323.1308 -235.1766 L 323.9007 -235.7934 L 324.9251 -236.6278 L 325.6904 -237.2619 L 326.4543 -237.904 L 327.4689 -238.7713 L 328.2277 -239.431 L 329.2347 -240.3218 L 329.9862 -240.9986 L 330.7365 -241.6851 L 331.7307 -242.6122 L 332.4716 -243.3165 L 333.2097 -244.0298 L 333.9438 -244.7513 L 334.6751 -245.4827 L 335.3997 -246.2207 L 336.3597 -247.2194 L 337.0745 -247.9793 L 338.0199 -249.0061 L 338.723 -249.7855 L 339.4213 -250.5728 L 340.3486 -251.6377 L 341.0368 -252.4427 L 341.7215 -253.256 L 342.4019 -254.0771 L 343.3005 -255.1828 L 343.9703 -256.0238 L 344.8533 -257.155 L 345.5102 -258.013 L 346.3785 -259.1696 L 347.0234 -260.0453 L 347.8766 -261.2262 L 348.5093 -262.1189 L 349.1379 -263.0205 L 349.7617 -263.9299 L 350.585 -265.1531 L 351.1974 -266.0801 L 351.8052 -267.0145 L 352.4074 -267.955 L 353.0064 -268.905 L 353.7973 -270.1815 L 354.387 -271.1494 L 355.1659 -272.4486 L 355.7474 -273.4319 L 356.3272 -274.4231 L 357.0973 -275.7558 L 357.674 -276.7653 L 358.2488 -277.7802 L 358.8236 -278.8033 L 359.4 -279.836 L 359.9757 -280.8734 L 360.5536 -281.9197 L 361.3267 -283.3261 L 361.9088 -284.3887 L 362.4937 -285.4589 L 363.2763 -286.8945 L 363.8672 -287.9799 L 364.4627 -289.0746 L 365.0602 -290.1729 L 365.6625 -291.2787 L 366.2701 -292.3921 L 366.8813 -293.5099 L 367.4983 -294.6353 L 368.1196 -295.7652 L 368.9561 -297.2805 L 369.5904 -298.4248 L 370.2294 -299.5737 L 370.8736 -300.7282 L 371.523 -301.8885 L 372.3974 -303.4456 L 373.0581 -304.6183 L 373.9479 -306.193 L 374.6199 -307.3789 L 375.2977 -308.5724 L 376.2078 -310.1706 L 376.8962 -311.3762 L 377.5895 -312.5878 L 378.2882 -313.806 L 378.9908 -315.0284 L 379.6975 -316.2551 L 380.6475 -317.8997 L 381.3657 -319.1397 L 382.0861 -320.3805 L 382.8114 -321.626 L 383.7813 -323.2839 L 384.5119 -324.5257 L 385.2435 -325.7624 L 385.9771 -326.9947 L 386.7125 -328.2203 L 387.4507 -329.4399 L 388.1921 -330.6528 L 389.1853 -332.257 L 389.9365 -333.4529 L 390.9461 -335.0339 L 391.7095 -336.2085 L 392.479 -337.3729 L 393.516 -338.91 L 394.3009 -340.0484 L 395.0925 -341.1742 L 396.154 -342.6483 L 396.9571 -343.7363 L 398.0352 -345.1598 L 398.8502 -346.2076 L 399.942 -347.5735 L 400.7649 -348.5743 L 401.5928 -349.5564 L 402.4234 -350.5164 L 403.257 -351.455 L 404.0946 -352.373 L 405.2129 -353.5596 L 406.0562 -354.425 L 406.9007 -355.2667 L 408.0356 -356.3596 L 408.8883 -357.1532 L 409.7461 -357.9286 L 410.9007 -358.9372 L 411.7725 -359.6735 L 412.6513 -360.3947 L 413.5351 -361.0998 L 414.427 -361.7917 L 415.3233 -362.4682 L 416.5283 -363.3496 L 417.4378 -363.9942 L 418.6565 -364.8315 L 419.5767 -365.4443 L 420.5036 -366.0454 L 421.7413 -366.8227 L 422.6752 -367.3908 L 423.6156 -367.9467 L 424.8703 -368.6635 L 425.8172 -369.1856 L 427.0896 -369.862 L 428.045 -370.3514 L 429.002 -370.8256 L 430.2825 -371.4352 L 431.2424 -371.8732 L 432.2065 -372.2962 L 433.1682 -372.7012 L 434.1309 -373.0894 L 435.4177 -373.581 L 436.3807 -373.928 L 437.3457 -374.2575 L 438.3099 -374.5684 L 439.2753 -374.8612 L 440.2387 -375.1347 L 441.2034 -375.3899 L 442.166 -375.6257 L 443.4442 -375.9094 L 444.4031 -376.1004 L 445.3588 -376.2722 L 446.6299 -376.472 L 447.5804 -376.6001 L 448.5263 -376.7098 L 449.7843 -376.8286 L 450.7256 -376.8973 L 451.9757 -376.9627 L 452.9112 -376.993 L 454.151 -377.0097 L 455.0792 -377.005 L 456.0045 -376.9862 L 456.9272 -376.9536 L 458.1531 -376.8893 L 459.0672 -376.8262 L 459.9806 -376.7505 L 461.1961 -376.6306 L 462.105 -376.5268 L 463.0305 -376.4089 L 464.223 -376.2388 L 465.1259 -376.0964 L 466.3304 -375.8885 L 467.2321 -375.7193 L 468.435 -375.4755 L 469.3311 -375.2802 L 470.2278 -375.0728 L 471.123 -374.8537 L 472.3109 -374.544 L 473.2023 -374.297 L 474.3811 -373.951 L 475.2631 -373.6776 L 476.4347 -373.2948 L 477.3101 -372.9941 L 478.4703 -372.5759 L 479.3362 -372.2487 L 480.1993 -371.9098 L 481.341 -371.441 L 482.1942 -371.075 L 483.3219 -370.5693 L 484.1622 -370.1757 L 484.994 -369.7709 L 486.0945 -369.2117 L 486.9134 -368.7774 L 487.9914 -368.1804 L 488.7933 -367.7175 L 489.5876 -367.2423 L 490.6319 -366.5915 L 491.4082 -366.088 L 492.1742 -365.5739 L 493.1828 -364.87 L 493.9294 -364.3282 L 494.9117 -363.5873 L 495.6354 -363.0201 L 496.3508 -362.4411 L 497.0568 -361.8505 L 497.9823 -361.0471 L 498.666 -360.4316 L 499.3392 -359.8065 L 500.0036 -359.1713 L 500.6605 -358.5255 L 501.5218 -357.6522 L 502.1578 -356.9879 L 502.7871 -356.3145 L 503.6136 -355.4051 L 504.2254 -354.7135 L 504.8283 -354.0159 L 505.4241 -353.3107 L 506.0125 -352.5982 L 506.7836 -351.6388 L 507.3529 -350.9101 L 507.913 -350.1746 L 508.6452 -349.1834 L 509.184 -348.4312 L 509.7127 -347.6727 L 510.4036 -346.6487 L 510.909 -345.8749 L 511.4054 -345.0925 L 512.0519 -344.0385 L 512.5242 -343.2411 L 513.1381 -342.1668 L 513.586 -341.354 L 514.1669 -340.2603 L 514.5904 -339.432 L 515.0044 -338.5964 L 515.5416 -337.4737 L 515.9342 -336.625 L 516.4454 -335.4837 L 516.8208 -334.6192 L 517.3097 -333.4584 L 517.6686 -332.5809 L 518.022 -331.6952 L 518.4839 -330.5028 L 518.8233 -329.6003 L 519.1571 -328.6898 L 519.592 -327.4665 L 519.9113 -326.5395 L 520.3274 -325.2917 L 520.6317 -324.3481 L 520.9298 -323.396 L 521.2214 -322.4368 L 521.6003 -321.147 L 521.8768 -320.1712 L 522.2361 -318.8568 L 522.4974 -317.8628 L 522.7516 -316.8603 L 522.9985 -315.8496 L 523.3146 -314.4924 L 523.5419 -313.4668 L 523.7615 -312.4324 L 523.9725 -311.3917 L 524.1753 -310.3447 L 524.4332 -308.9388 L 524.617 -307.8777 L 524.7927 -306.8092 L 525.0127 -305.379 L 525.1672 -304.3029 L 525.3125 -303.2223 L 525.492 -301.7744 L 525.6159 -300.6854 L 525.7313 -299.5921 L 525.8387 -298.4959 L 525.9707 -297.028 L 526.061 -295.9216 L 526.1435 -294.8139 L 526.2189 -293.6998 L 526.3083 -292.2125 L 526.3679 -291.0921 L 526.421 -289.9687 L 526.4686 -288.8412 L 526.5237 -287.3333 L 526.5585 -286.1991 L 526.5884 -285.0601 L 526.6132 -283.9189 L 526.6386 -282.3901 L 526.6517 -281.2412 L 526.6612 -279.7015 L 526.6622 -278.544 L 526.658 -277.3811 L 526.6444 -275.8267 L 526.6277 -274.6561 L 526.5964 -273.0862 L 526.5661 -271.9071 L 526.5298 -270.7223 L 526.4717 -269.1375 L 526.4214 -267.9454 L 526.3655 -266.7492 L 526.2821 -265.1495 L 526.2126 -263.9434 L 526.1379 -262.7375 L 526.0303 -261.121 L 525.9434 -259.9055 L 525.8509 -258.6834 L 525.7189 -257.0521 L 525.6134 -255.8238 L 525.5021 -254.5911 L 525.3854 -253.3557 L 525.2217 -251.7045 L 525.0922 -250.4596 L 524.9579 -249.2133 L 524.7711 -247.5434 L 524.6253 -246.2867 L 524.424 -244.6033 L 524.2682 -243.3361 L 524.1086 -242.0644 L 523.9451 -240.7873 L 523.7212 -239.0747 L 523.5498 -237.7869 L 523.3154 -236.0554 L 523.136 -234.7508 L 522.8917 -232.9992 L 522.7049 -231.6777 L 522.4521 -229.9075 L 522.2589 -228.5687 L 521.9978 -226.7761 L 521.7989 -225.42 L 521.5979 -224.0583 L 521.3944 -222.6873 L 521.1882 -221.3065 L 520.9102 -219.4515 L 520.6997 -218.0476 L 520.4184 -216.1647 L 520.2065 -214.738 L 519.9955 -213.3052 L 519.7149 -211.3774 L 519.5055 -209.918 L 519.2979 -208.4509 L 519.092 -206.9724 L 518.8207 -204.9857 L 518.6187 -203.484 L 518.4184 -201.9717 L 518.2186 -200.4489 L 517.9539 -198.4052 L 517.7552 -196.8573 L 517.5569 -195.3036 L 517.3574 -193.7368 L 517.0896 -191.635 L 516.8869 -190.0479 L 516.6814 -188.4466 L 516.4042 -186.3048 L 516.1922 -184.6817 L 515.9054 -182.5106 L 515.6865 -180.87 L 515.4645 -179.2194 L 515.2404 -177.5627 L 515.0144 -175.8967 L 514.7871 -174.2212 L 514.4835 -171.9799 L 514.2564 -170.2945 L 513.9555 -168.044 L 513.732 -166.359 L 513.5106 -164.6762 L 513.2203 -162.4485 L 513.006 -160.7889 L 512.7954 -159.1446 L 512.5883 -157.5156 L 512.3845 -155.9015 L 512.1844 -154.3069 L 511.9228 -152.2109 L 511.73 -150.6591 L 511.5403 -149.1295 L 511.3528 -147.6175 L 511.1068 -145.6383 L 510.9248 -144.1797 L 510.6843 -142.2644 L 510.5053 -140.8511 L 510.3279 -139.4626 L 510.1517 -138.0977 L 509.9189 -136.3189 L 509.746 -135.0163 L 509.5738 -133.7368 L 509.3467 -132.0756 L 509.1773 -130.8581 L 509.009 -129.6643 L 508.8416 -128.4954 L 508.6188 -126.9674 L 508.4518 -125.8423 L 508.2853 -124.7357 L 508.0635 -123.2852 L 507.8974 -122.2173 L 507.6764 -120.8231 L 507.51 -119.7977 L 507.2875 -118.463 L 507.1194 -117.4861 L 506.9496 -116.5301 L 506.7784 -115.5979 L 506.605 -114.6895 L 506.4284 -113.8021 L 506.1882 -112.6579 L 506.004 -111.8274 L 505.7523 -110.7544 L 505.5592 -109.9769 L 505.2951 -108.9709 L 505.0921 -108.239 L 504.813 -107.2861 L 504.5963 -106.5845 L 504.3721 -105.8912 L 504.0609 -104.9776 L 503.8184 -104.3012 L 503.481 -103.4076 L 503.2189 -102.7476 L 502.9477 -102.0929 L 502.5736 -101.233 L 502.2831 -100.5958 L 501.9841 -99.9652 L 501.5721 -99.1344 L 501.2521 -98.5167 L 500.8119 -97.702 L 500.4701 -97.0948 L 499.9996 -96.2914 L 499.6343 -95.6911 L 499.1324 -94.8969 L 498.7435 -94.3036 L 498.2093 -93.5178 L 497.7959 -92.9312 L 497.3746 -92.3524 L 496.9423 -91.7776 L 496.3526 -91.0243 L 495.9005 -90.4697 L 495.2842 -89.7442 L 494.8117 -89.2105 L 494.1706 -88.5161 L 493.6799 -88.007 L 493.1794 -87.5073 L 492.6714 -87.0193 L 491.9798 -86.3842 L 491.4518 -85.9204 L 490.9149 -85.4664 L 490.1875 -84.8778 L 489.633 -84.4478 L 489.0707 -84.0284 L 488.3096 -83.4855 L 487.7308 -83.0918 L 486.9488 -82.5846 L 486.355 -82.218 L 485.5529 -81.7468 L 484.9436 -81.4065 L 484.3274 -81.0778 L 483.7062 -80.7614 L 483.0761 -80.455 L 482.4399 -80.1595 L 481.7976 -79.8745 L 480.9303 -79.5089 L 480.2626 -79.2408 L 479.387 -78.9057 L 478.7181 -78.6611 L 478.0422 -78.4226 L 477.3625 -78.1909 L 476.4488 -77.8897 L 475.7592 -77.6691 L 475.0647 -77.4515 L 474.3662 -77.2369 L 473.4287 -76.9549 L 472.722 -76.7467 L 472.0097 -76.5402 L 471.0539 -76.2681 L 470.3313 -76.066 L 469.6053 -75.8657 L 468.6319 -75.6007 L 467.8965 -75.4027 L 466.9101 -75.1396 L 466.1654 -74.9424 L 465.4169 -74.745 L 464.6648 -74.5466 L 463.9092 -74.3462 L 462.898 -74.0748 L 462.1362 -73.8666 L 461.373 -73.6543 L 460.6085 -73.4372 L 459.5882 -73.1388 L 458.8238 -72.9075 L 458.0593 -72.6687 L 457.2988 -72.4234 L 456.5389 -72.1694 L 455.7811 -71.9068 L 454.7735 -71.5427 L 454.0218 -71.2593 L 453.022 -70.8658 L 452.2736 -70.5587 L 451.5271 -70.2415 L 450.5363 -69.803 L 449.7957 -69.4618 L 449.0566 -69.1094 L 448.323 -68.7474 L 447.5918 -68.3742 L 446.6238 -67.8602 L 445.9024 -67.462 L 445.1854 -67.0528 L 444.2372 -66.4907 L 443.5316 -66.0564 L 442.8311 -65.6113 L 442.1347 -65.1547 L 441.2144 -64.529 L 440.5289 -64.0459 L 439.8498 -63.5526 L 438.9518 -62.8769 L 438.284 -62.3568 L 437.6224 -61.8258 L 436.7489 -61.1004 L 436.1006 -60.5433 L 435.4573 -59.974 L 434.8195 -59.3933 L 433.9783 -58.6027 L 433.3518 -57.9962 L 432.7291 -57.379 L 432.1098 -56.7515 L 431.2882 -55.8989 L 430.6726 -55.2456 L 430.0595 -54.5832 L 429.4449 -53.9079 L 428.6275 -52.9929 L 428.0127 -52.2928 L 427.1931 -51.3442 L 426.577 -50.6202 L 425.7547 -49.6398 L 425.136 -48.8921 L 424.518 -48.1369 L 423.8985 -47.3715 L 423.2766 -46.5952 L 422.4465 -45.5475 L 421.8208 -44.7497 L 420.9836 -43.6711 L 420.3536 -42.8518 L 419.7201 -42.0212 L 418.8712 -40.8976 L 418.2297 -40.0409 L 417.5854 -39.1742 L 416.7197 -37.9995 L 416.0657 -37.1042 L 415.4082 -36.1975 L 414.7472 -35.2798 L 414.0817 -34.3497 L 413.4123 -33.4083 L 412.738 -32.4547 L 411.8325 -31.1682 L 411.1473 -30.1906 L 410.228 -28.8748 L 409.5329 -27.8776 L 408.8314 -26.8708 L 408.1255 -25.8576 L 407.4122 -24.8338 L 406.6941 -23.8039 L 405.9697 -22.7666 L 405.2384 -21.7211 L 404.5014 -20.6691 L 403.5091 -19.2561 L 402.755 -18.1845 L 401.7418 -16.7488 L 400.9745 -15.6639 L 399.9412 -14.206 L 399.1576 -13.1024 L 398.3691 -11.9936 L 397.5737 -10.8762 L 396.7747 -9.7545 L 395.7033 -8.251 L 394.8958 -7.118 L 394.0892 -5.986 L 393.2814 -4.8517 L 392.4726 -3.7154 L 391.6661 -2.5817 L 390.5942 -1.0735 L 389.7943 .0532 L 388.7335 1.5493 L 387.9418 2.6668 L 386.894 4.148 L 386.1112 5.2554 L 385.3331 6.3576 L 384.3022 7.8191 L 383.5343 8.9093 L 382.77 9.9952 L 382.012 11.0731 L 381.2582 12.146 L 380.5096 13.2124 L 379.5215 14.622 L 378.7898 15.6688 L 378.0664 16.7083 L 377.1167 18.0826 L 376.4173 19.1025 L 375.5018 20.4501 L 374.8298 21.4499 L 373.9547 22.7696 L 373.3125 23.7514 L 372.686 24.7232 L 371.8734 26.009 L 371.2835 26.9645 L 370.523 28.2281 L 369.9724 29.1692 L 369.2665 30.4131 L 368.7579 31.3385 L 368.1078 32.5629 L 367.6416 33.4738 L 367.1939 34.3785 L 366.6261 35.5752 L 366.2233 36.4641 L 365.8381 37.3493 L 365.4733 38.2233 L 365.1259 39.0932 L 364.6909 40.2413 L 364.3844 41.0957 L 364.0938 41.9444 L 363.8168 42.792 L 363.4686 43.9167 L 363.2218 44.7589 L 362.9858 45.6028 L 362.6883 46.7258 L 362.477 47.5687 L 362.2758 48.411 L 362.0842 49.253 L 361.8431 50.3772 L 361.6735 51.218 L 361.5129 52.0597 L 361.3611 52.9028 L 361.2184 53.745 L 361.0417 54.8699 L 360.9194 55.7142 L 360.7704 56.8382 L 360.6687 57.6819 L 360.5756 58.527 L 360.4914 59.3705 L 360.3925 60.4969 L 360.3284 61.342 L 360.2735 62.1868 L 360.2278 63.0317 L 360.1915 63.8759 L 360.1576 65.0017 L 360.143 65.8456 L 360.1386 66.9703 L 360.1464 67.8141 L 360.1719 68.935 L 360.2022 69.777 L 360.2579 70.8972 L 360.3111 71.7383 L 360.3974 72.8584 L 360.4737 73.699 L 360.5599 74.5398 L 360.6905 75.6619 L 360.8003 76.5057 L 360.9626 77.6325 L 361.096 78.4779 L 361.2398 79.3245 L 361.394 80.1728 L 361.5586 81.0217 L 361.7335 81.8708 L 361.9194 82.7229 L 362.1162 83.5764 L 362.3955 84.7136 L 362.6185 85.5682 L 362.8532 86.4245 L 363.0997 87.2818 L 363.4466 88.4249 L 363.7211 89.2842 L 364.105 90.4283 L 364.4074 91.2882 L 364.8284 92.4342 L 365.1574 93.293 L 365.4988 94.1536 L 365.8517 95.0137 L 366.2167 95.875 L 366.5932 96.7357 L 367.114 97.8837 L 367.5192 98.746 L 367.9356 99.6065 L 368.5105 100.7546 L 368.9557 101.6148 L 369.4133 102.4742 L 369.8838 103.3338 L 370.5294 104.4763 L 371.0293 105.3334 L 371.5412 106.1879 L 372.0652 107.04 L 372.6027 107.8914 L 373.1519 108.7398 L 373.714 109.5874 L 374.4817 110.7153 L 375.0706 111.5603 L 375.871 112.6854 L 376.4825 113.5305 L 377.1015 114.3758 L 377.7287 115.2242 L 378.363 116.0757 L 379.0032 116.9308 L 379.6491 117.7913 L 380.2978 118.6555 L 381.1696 119.819 L 381.8272 120.7 L 382.7077 121.8863 L 383.3699 122.7853 L 384.0343 123.6941 L 384.6987 124.6103 L 385.3638 125.5355 L 386.2515 126.7841 L 386.9158 127.7296 L 387.7989 129.0033 L 388.4564 129.966 L 389.1073 130.9332 L 389.7491 131.9034 L 390.3789 132.8743 L 390.9974 133.8489 L 391.7991 135.1485 L 392.3848 136.1273 L 393.1416 137.4345 L 393.6908 138.4171 L 394.2237 139.4018 L 394.7411 140.3907 L 395.4024 141.7096 L 395.8779 142.7026 L 396.3343 143.6969 L 396.9125 145.0259 L 397.3231 146.0249 L 397.7135 147.0251 L 398.2026 148.3624 L 398.5439 149.3635 L 398.967 150.7015 L 399.2592 151.7049 L 399.53 152.7089 L 399.8568 154.0438 L 400.0775 155.046 L 400.3379 156.3769 L 400.5091 157.3752 L 400.6603 158.3725 L 400.8326 159.7018 L 400.9419 160.6991 L 401.036 161.6973 L 401.1405 163.0241 L 401.2056 164.019 L 401.2609 165.0131 L 401.3211 166.3368 L 401.3567 167.3291 L 401.3843 168.3193 L 401.4079 169.6363 L 401.4144 170.6231 L 401.4102 171.6098 L 401.3947 172.5937 L 401.3673 173.5746 L 401.3115 174.8811 L 401.2547 175.8575 L 401.1848 176.8356 L 401.0717 178.1282 L 400.9714 179.0971 L 400.8572 180.0631 L 400.6833 181.3442 L 400.5356 182.301 L 400.3731 183.2528 L 400.1955 184.2001 L 399.9345 185.4559 L 399.7203 186.3909 L 399.4897 187.3222 L 399.1576 188.5539 L 398.8891 189.4738 L 398.5057 190.6908 L 398.199 191.5986 L 397.8761 192.5013 L 397.4192 193.6988 L 397.0584 194.5899 L 396.6813 195.4783 L 396.2881 196.3645 L 395.7414 197.5396 L 395.3144 198.4175 L 394.8737 199.2924 L 394.4191 200.1661 L 393.9509 201.0387 L 393.4692 201.9105 L 392.9737 202.7831 L 392.2933 203.9456 L 391.7673 204.8191 L 391.2292 205.6925 L 390.6773 206.5679 L 390.1124 207.4435 L 389.5334 208.3202 L 388.7431 209.4842 L 388.1337 210.3572 L 387.5101 211.2296 L 386.6562 212.3913 L 385.9987 213.2608 L 385.0987 214.418 L 384.4059 215.2841 L 383.4582 216.4356 L 382.73 217.2951 L 381.9851 218.1529 L 381.225 219.0064 L 380.1863 220.1382 L 379.3881 220.9817 L 378.2982 222.0986 L 377.463 222.9285 L 376.6102 223.7535 L 375.4478 224.8429 L 374.5561 225.6523 L 373.6491 226.4528 L 372.7222 227.2481 L 371.7814 228.0325 L 370.5038 229.0638 L 369.5237 229.8307 L 368.196 230.839 L 367.1821 231.5877 L 365.812 232.5728 L 364.768 233.3046 L 363.7118 234.029 L 362.6409 234.7486 L 361.5622 235.4582 L 360.4702 236.1613 L 358.9962 237.0866 L 357.8752 237.7737 L 356.745 238.452 L 355.2192 239.3446 L 354.0614 240.0047 L 352.8927 240.6574 L 351.7144 241.3033 L 350.5265 241.9443 L 349.3284 242.581 L 347.7207 243.4227 L 346.5043 244.049 L 345.281 244.6696 L 344.0495 245.2854 L 342.8084 245.8976 L 341.1452 246.7059 L 339.8897 247.3075 L 338.6242 247.9077 L 337.3527 248.5049 L 335.646 249.2991 L 334.3583 249.8938 L 333.0648 250.4879 L 331.7617 251.0844 L 330.0197 251.8801 L 328.7053 252.4814 L 327.3871 253.0858 L 326.0596 253.6974 L 324.2924 254.516 L 322.9593 255.1388 L 321.1741 255.9805 L 319.8337 256.619 L 318.4889 257.2656 L 316.691 258.1394 L 315.3364 258.8049 L 313.9806 259.4769 L 312.1658 260.3855 L 310.8004 261.0761 L 308.9743 262.0085 L 307.6004 262.7164 L 306.2244 263.4306 L 304.8429 264.1529 L 302.9967 265.126 L 301.606 265.8649 L 300.2139 266.6095 L 298.35 267.614 L 296.9506 268.3742 L 295.5468 269.1424 L 294.1412 269.9176 L 292.2694 270.9602 L 290.8644 271.7512 L 288.998 272.8143 L 287.6038 273.6191 L 286.2156 274.4312 L 284.8371 275.2497 L 283.4662 276.0769 L 281.659 277.19 L 280.3162 278.0355 L 278.9842 278.8912 L 277.2317 280.045 L 275.9333 280.9224 L 274.2235 282.1095 L 272.9566 283.0136 L 271.2934 284.2342 L 270.0631 285.1629 L 268.8493 286.1023 L 267.2548 287.3735 L 266.0795 288.3397 L 264.92 289.3182 L 263.4032 290.6382 L 262.2849 291.6418 L 260.823 292.9949 L 259.7455 294.0239 L 258.3399 295.4095 L 257.3071 296.4601 L 256.2892 297.5234 L 254.9654 298.9499 L 253.9926 300.0307 L 253.0359 301.1219 L 252.0973 302.221 L 250.8756 303.6966 L 249.9812 304.8108 L 249.1027 305.9346 L 247.9606 307.4414 L 247.1237 308.5795 L 246.0337 310.1073 L 245.236 311.2592 L 244.4532 312.4181 L 243.6863 313.5811 L 242.6835 315.1429 L 241.9469 316.3194 L 240.9826 317.8963 L 240.2726 319.0838 L 239.5724 320.2765 L 238.8815 321.4745 L 238.1997 322.6771 L 237.306 324.2836 L 236.645 325.4935 L 235.9917 326.7078 L 235.1334 328.3326 L 234.5004 329.554 L 233.8745 330.7814 L 233.0531 332.4228 L 232.4463 333.6583 L 231.8467 334.8993 L 231.0601 336.5604 L 230.4793 337.8129 L 229.9058 339.0724 L 229.153 340.7592 L 228.5957 342.0315 L 228.0454 343.3079 L 227.5009 344.5905 L 226.9624 345.8781 L 226.2538 347.6023 L 225.7275 348.9045 L 225.2091 350.2062 L 224.5275 351.9486 L 224.0235 353.2615 L 223.527 354.5771 L 222.8757 356.3394 L 222.3966 357.665 L 221.7705 359.4393 L 221.3102 360.7767 L 220.71 362.5667 L 220.2713 363.9113 L 219.8401 365.2644 L 219.2798 367.0708 L 218.8679 368.4334 L 218.4633 369.7994 L 217.9341 371.6256 L 217.5428 373.0028 L 217.1573 374.3798 L 216.6487 376.2237 L 216.2706 377.6108 L 215.8947 378.9996 L 215.519 380.3946 L 215.1433 381.7896 L 214.6398 383.6558 L 214.2597 385.0571 L 213.747 386.9278 L 213.3557 388.3387 L 212.8302 390.209 L 212.4279 391.6189 L 212.0162 393.0409 L 211.4672 394.9058 L 211.0453 396.3146 L 210.4732 398.1924 L 210.0373 399.599 L 209.5962 401.0009 L 209.1492 402.4 L 208.5454 404.2557 L 208.0859 405.6409 L 207.4645 407.4776 L 206.9932 408.843 L 206.5167 410.1995 L 206.0357 411.5443 L 205.3857 413.3218 L 204.8913 414.6418 L 204.3905 415.9495 L 203.8828 417.2446 L 203.3666 418.5297 L 202.8432 419.8001 L 202.132 421.4746 L 201.5882 422.7156 L 200.8473 424.3525 L 200.2812 425.5615 L 199.509 427.154 L 198.915 428.3361 L 198.1075 429.8857 L 197.488 431.0321 L 196.8557 432.166 L 196.2122 433.2834 L 195.5559 434.3866 L 194.6628 435.8311 L 193.9778 436.8966 L 193.0459 438.2917 L 192.3322 439.3195 L 191.3599 440.6665 L 190.6148 441.6608 L 189.859 442.6382 L 188.8348 443.9179 L 188.0517 444.8647 L 187.2599 445.7962 L 186.4579 446.7156 L 185.6439 447.6258 L 184.5486 448.8159 L 183.7148 449.6963 L 182.8726 450.5641 L 182.0201 451.4214 L 180.8728 452.5429 L 180.0005 453.3714 L 179.1203 454.1868 L 177.9332 455.2552 L 177.0337 456.0423 L 176.125 456.8188 L 174.9043 457.8342 L 173.9791 458.5831 L 173.0446 459.3221 L 172.1045 460.0485 L 171.1558 460.7643 L 170.1993 461.4698 L 168.9128 462.3941 L 167.9385 463.0759 L 166.6334 463.9654 L 165.6437 464.623 L 164.6498 465.2695 L 163.6481 465.9074 L 162.3042 466.7419 L 161.2868 467.3579 L 160.2657 467.9629 L 159.2372 468.5589 L 158.2023 469.1455 L 156.8121 469.9128 L 155.7614 470.4769 L 154.3514 471.2123 L 153.2842 471.752 L 151.8518 472.4535 L 150.7672 472.9671 L 149.6764 473.4686 L 148.5795 473.9577 L 147.1043 474.5916 L 145.9886 475.0528 L 144.8648 475.5015 L 143.3571 476.0784 L 142.2154 476.4964 L 141.0659 476.9011 L 139.9109 477.2916 L 138.3546 477.7926 L 137.1794 478.1519 L 135.9959 478.4975 L 134.4017 478.9379 L 133.2004 479.2512 L 131.9898 479.5514 L 130.3609 479.9314 L 129.133 480.2001 L 127.8935 480.4563 L 126.2303 480.7767 L 124.9764 481.0011 L 123.7125 481.2129 L 122.4395 481.412 L 120.7392 481.6568 L 119.4509 481.8273 L 117.7283 482.0366 L 116.4286 482.1814 L 114.685 482.3591 L 113.3705 482.4816 L 111.6073 482.6314 L 110.2786 482.7339 L 108.9444 482.8281 L 107.604 482.9147 L 105.808 483.019 L 104.4531 483.0896 L 103.0947 483.1537 L 101.7293 483.2115 L 100.3591 483.2635 L 98.984 483.3092 L 97.1406 483.3601 L 95.7529 483.3906 L 94.3571 483.4141 L 92.9602 483.4308 L 91.5567 483.4405 L 89.6765 483.4427 L 88.2636 483.4365 L 86.8182 483.4225 L 84.9419 483.3927 L 83.5118 483.3613 L 82.0748 483.3224 L 80.1524 483.2591 L 78.7038 483.203 L 77.2512 483.1394 L 75.3061 483.0428 L 73.843 482.9615 L 71.8829 482.8406 L 70.4076 482.7411 L 68.4345 482.5962 L 66.9457 482.4786 L 65.4563 482.3541 L 63.4576 482.1775 L 61.9546 482.0381 L 59.9379 481.8445 L 58.418 481.6945 L 56.3845 481.4895 L 54.8518 481.333 L 53.3096 481.175 L 51.7597 481.0166 L 50.2036 480.8587 L 48.6384 480.7017 L 47.0649 480.546 L 44.954 480.3404 L 43.3582 480.1875 L 41.7545 480.0361 L 40.1388 479.8856 L 38.5137 479.736 L 36.8776 479.5871 L 34.6864 479.3899 L 33.0238 479.2418 L 30.7931 479.0446 L 29.1035 478.8961 L 27.4039 478.7475 L 25.6913 478.5983 L 23.9624 478.4483 L 22.2281 478.2983 L 20.4766 478.1476 L 18.1237 477.9462 L 16.3437 477.7953 L 14.5518 477.6452 L 12.1442 477.4466 L 10.3219 477.2992 L 8.4897 477.1537 L 6.642 477.0097 L 4.1617 476.8208 L 2.2856 476.6811 L .399 476.5431 L -1.4984 476.4072 L -4.0501 476.2286 L -5.9741 476.097 L -7.9172 475.9666 L -10.5157 475.796 L -12.4797 475.6698 L -14.4585 475.5451 L -16.4459 475.4222 L -18.4481 475.3008 L -20.4581 475.1813 L -23.1525 475.025 L -25.1798 474.9102 L -27.2414 474.7958 L -29.927 474.6509 L -31.978 474.5432 L -34.7335 474.4028 L -36.8113 474.2999 L -38.8996 474.1992 L -41.7058 474.0678 L -43.8187 473.9709 L -45.9445 473.8749 L -48.0834 473.7794 L -50.2347 473.684 L -53.1125 473.5567 L -55.2874 473.4601 L -57.4742 473.3622 L -60.4067 473.2292 L -62.6144 473.1273 L -64.8368 473.023 L -67.8122 472.8809 L -70.0575 472.7716 L -72.3108 472.6609 L -75.3272 472.5115 L -77.5952 472.3988 L -79.8705 472.2857 L -82.9069 472.1353 L -85.1872 472.0233 L -87.4753 471.9118 L -90.4943 471.7662 L -92.7588 471.658 L -95.7655 471.516 L -98.0102 471.4113 L -100.2459 471.308 L -102.4639 471.2067 L -105.3951 471.0745 L -107.5683 470.978 L -109.7212 470.8835 L -112.5566 470.7612 L -114.6554 470.6723 L -116.7339 470.5859 L -118.8234 470.5007 L -121.4806 470.3949 L -123.4742 470.3173 L -125.4411 470.2424 L -127.3848 470.17 L -129.3019 470.1 L -131.1923 470.0326 L -133.6819 469.9459 L -135.5222 469.8833 L -137.9329 469.803 L -139.711 469.7448 L -142.0403 469.6699 L -143.7583 469.6153 L -146.0085 469.5443 L -147.6665 469.4917 L -149.3003 469.4395 L -150.9108 469.3873 L -152.5002 469.3348 L -154.5846 469.2639 L -156.1253 469.2096 L -158.151 469.1354 L -159.6475 469.0785 L -161.608 469.0013 L -163.0594 468.9425 L -164.9611 468.8636 L -165.9014 468.8239 L -167.7537 468.7446 L -169.1263 468.6852 L -170.499 468.6255 L -172.2606 468.5489 L -173.5754 468.4917 L -174.8772 468.4354 L -176.1619 468.38 L -177.4291 468.3257 L -178.6764 468.2727 L -179.9078 468.2208 L -181.1204 468.1702 L -182.3147 468.1208 L -183.88 468.0568 L -185.0331 468.0102 L -186.168 467.9644 L -187.2872 467.9188 L -188.7479 467.8579 L -189.8247 467.8112 L -190.8851 467.7632 L -191.9275 467.7136 L -193.2896 467.6446 L -194.2891 467.5905 L -195.2737 467.5336 L -196.2422 467.4739 L -197.1951 467.4112 L -198.1357 467.3453 L -199.3774 467.2519 L -200.3041 467.1773 L -201.5317 467.0721 L -202.4465 466.9886 L -203.3592 466.9006 L -204.5659 466.7771 L -205.4656 466.6792 L -206.3621 466.5766 L -207.5487 466.4319 L -208.4349 466.3162 L -209.6054 466.1522 L -210.4788 466.0203 L -211.3472 465.8802 L -212.4949 465.6801 L -213.35 465.5189 L -214.4784 465.2889 L -215.3189 465.1039 L -216.1549 464.9073 L -216.979 464.7003 L -218.069 464.4046 L -218.8758 464.1682 L -219.6768 463.9175 L -220.466 463.6539 L -221.506 463.2803 L -222.2737 462.9842 L -223.0327 462.6737 L -223.7814 462.3493 L -224.7616 461.8962 L -225.4851 461.5397 L -226.1961 461.1707 L -226.8959 460.7884 L -227.811 460.2586 L -228.4836 459.8469 L -229.3599 459.2806 L -230.0056 458.8406 L -230.8423 458.2402 L -231.4571 457.7761 L -232.0587 457.3016 L -232.8406 456.6527 L -233.409 456.1563 L -233.9656 455.6488 L -234.5082 455.1323 L -235.2093 454.4306 L -235.7184 453.8948 L -236.3785 453.1653 L -236.8587 452.6086 L -237.3275 452.0435 L -237.7847 451.4715 L -238.2325 450.8915 L -238.8145 450.1078 L -239.2406 449.5121 L -239.7934 448.7103 L -240.2 448.0989 L -240.5966 447.4839 L -241.1134 446.6535 L -241.4918 446.0232 L -241.862 445.3876 L -242.2242 444.7462 L -242.5782 444.0996 L -243.0371 443.2288 L -243.3716 442.569 L -243.8034 441.681 L -244.1162 441.0085 L -244.4186 440.3314 L -244.8065 439.4195 L -245.0863 438.7288 L -245.445 437.7979 L -245.7036 437.0935 L -246.0348 436.1454 L -246.2733 435.4265 L -246.5768 434.4608 L -246.7948 433.7279 L -247.0712 432.7431 L -247.2688 431.9954 L -247.4583 431.239 L -247.6972 430.2205 L -247.8671 429.4459 L -248.029 428.6637 L -248.2329 427.6061 L -248.3765 426.8039 L -248.5125 425.9924 L -248.6407 425.1716 L -248.7984 424.0666 L -248.9073 423.2267 L -249.0395 422.0937 L -249.1286 421.2335 L -249.2087 420.3657 L -249.2797 419.4895 L -249.3598 418.3065 L -249.4085 417.4116 L -249.4473 416.5075 L -249.4762 415.5947 L -249.4987 414.3662 L -249.5038 413.4363 L -249.4956 412.1843 L -249.4787 411.2346 L -249.4533 410.2793 L -249.4199 409.3159 L -249.364 408.0197 L -249.3139 407.04 L -249.2575 406.0518 L -249.195 405.0535 L -249.104 403.7203 L -249.0296 402.7083 L -248.9235 401.3525 L -248.8388 400.3284 L -248.7195 398.9525 L -248.6252 397.9127 L -248.5264 396.8648 L -248.3879 395.468 L -248.2777 394.4114 L -248.1609 393.3494 L -248.0371 392.2807 L -247.9055 391.2068 L -247.7649 390.1278 L -247.5615 388.6792 L -247.3967 387.5912 L -247.2196 386.4941 L -247.0317 385.399 L -246.7619 383.9321 L -246.5443 382.8263 L -246.3145 381.7207 L -246.0709 380.6096 L -245.8149 379.4988 L -245.5466 378.385 L -245.1706 376.8961 L -244.8754 375.7765 L -244.4649 374.2797 L -244.144 373.1558 L -243.8138 372.033 L -243.4743 370.9053 L -243.128 369.7743 L -242.6567 368.2603 L -242.2974 367.1205 L -241.9339 365.9755 L -241.4457 364.4426 L -241.0777 363.2846 L -240.7104 362.1226 L -240.343 360.9509 L -239.9778 359.7743 L -239.6145 358.5899 L -239.1348 357.002 L -238.7782 355.8011 L -238.309 354.1913 L -237.9612 352.9743 L -237.6174 351.7515 L -237.2757 350.5163 L -236.8278 348.8672 L -236.4944 347.6173 L -236.1636 346.3577 L -235.839 345.1026 L -235.5151 343.8309 L -235.1947 342.5544 L -234.7713 340.8388 L -234.4571 339.5429 L -234.1463 338.242 L -233.8383 336.9333 L -233.5339 335.6183 L -233.2337 334.2996 L -232.8407 332.5383 L -232.5519 331.2164 L -232.1754 329.4533 L -231.9005 328.1347 L -231.5438 326.3795 L -231.2846 325.0686 L -230.9504 323.3282 L -230.7077 322.0245 L -230.3968 320.2981 L -230.2436 319.4192 L -229.9567 317.7176 L -229.7489 316.4331 L -229.5492 315.1513 L -229.2962 313.4508 L -228.943 310.9115 L -228.7779 309.6492 L -228.5686 307.9687 L -228.4204 306.7171 L -228.2788 305.4684 L -228.1437 304.2231 L -228.0152 302.9862 L -227.8936 301.7595 L -227.7419 300.1395 L -227.6359 298.9361 L -227.5371 297.7482 L -227.4156 296.1804 L -227.3324 295.0231 L -227.2558 293.8772 L -227.186 292.745 L -227.1035 291.2585 L -227.0489 290.1583 L -227.0008 289.0746 L -226.9465 287.6493 L -226.9131 286.5977 L -226.8782 285.2171 L -226.859 284.1959 L -226.8426 282.8522 L -226.8368 281.8541 L -226.8363 280.8629 L -226.8411 279.8749 L -226.8511 278.8916 L -226.8724 277.5859 L -226.8941 276.6087 L -226.9308 275.314 L -226.9642 274.3448 L -227.0025 273.3819 L -227.0458 272.4208 L -227.0945 271.4621 L -227.1495 270.493 L -227.2303 269.2428 L -227.299 268.2975 L -227.4012 267.0427 L -227.4857 266.1075 L -227.5773 265.1747 L -227.6758 264.2461 L -227.818 263.0168 L -227.9331 262.0975 L -228.0982 260.8813 L -228.2315 259.9736 L -228.3733 259.0713 L -228.5238 258.1746 L -228.6833 257.2831 L -228.91 256.1031 L -229.091 255.2244 L -229.282 254.3513 L -229.4834 253.4851 L -229.7677 252.3442 L -229.9948 251.4942 L -230.3146 250.377 L -230.5672 249.5538 L -230.9218 248.4755 L -231.1997 247.6863 L -231.4883 246.9126 L -231.7862 246.1575 L -232.1959 245.1802 L -232.5131 244.4686 L -232.8377 243.7755 L -233.2809 242.8778 L -233.6223 242.2229 L -234.0876 241.3748 L -234.4466 240.7509 L -234.8156 240.1359 L -235.1907 239.5356 L -235.7057 238.746 L -236.0998 238.1658 L -236.5011 237.5939 L -236.9085 237.0308 L -237.4599 236.2926 L -237.8791 235.7473 L -238.3028 235.2082 L -238.7306 234.675 L -239.163 234.1464 L -239.6007 233.6215 L -240.1895 232.9301 L -240.6368 232.4157 L -241.0888 231.9049 L -241.6991 231.2292 L -242.1628 230.7265 L -242.6308 230.2293 L -243.2613 229.5757 L -243.7381 229.0943 L -244.2189 228.6197 L -244.7028 228.1529 L -245.1891 227.6947 L -245.8414 227.0968 L -246.3349 226.6576 L -246.8314 226.2278 L -247.4992 225.6696 L -248.0051 225.2617 L -248.5126 224.8648 L -249.0244 224.4771 L -249.711 223.9758 L -250.23 223.6111 L -250.752 223.256 L -251.2779 222.9101 L -251.8121 222.5702 L -252.5174 222.1388 L -253.0545 221.823 L -253.7768 221.4151 L -254.323 221.1189 L -254.8725 220.8313 L -255.4261 220.552 L -255.9834 220.2815 L -256.7319 219.9356 L -257.2968 219.6877 L -257.8666 219.4491 L -258.6305 219.1467 L -259.2072 218.9316 L -259.7868 218.7266 L -260.3694 218.5319 L -260.955 218.3477 L -261.7401 218.1187 L -262.3311 217.9597 L -262.9253 217.8112 L -263.7207 217.63 L -264.321 217.5065 L -264.9229 217.3939 L -265.727 217.2608 L -266.333 217.1734 L -266.9425 217.0965 L -267.7589 217.0108 L -268.3742 216.9591 L -268.9909 216.9181 L -269.6104 216.8881 L -270.2314 216.8689 L -271.0626 216.8605 L -271.6878 216.8671 L -272.3143 216.8848 L -273.1504 216.9258 L -273.7795 216.9698 L -274.4079 217.0251 L -275.248 217.1166 L -275.8768 217.1986 L -276.5062 217.2922 L -277.1361 217.3975 L -277.7637 217.5143 L -278.3919 217.6429 L -279.0196 217.7833 L -279.6458 217.9353 L -280.2713 218.0991 L -281.1038 218.3362 L -281.7263 218.5278 L -282.5548 218.8023 L -283.1798 219.0243 L -283.9983 219.3347 L -284.614 219.5832 L -285.2256 219.843 L -285.8347 220.1148 L -286.441 220.3989 L -287.0437 220.6946 L -287.8431 221.1072 L -288.4384 221.4299 L -289.0317 221.7649 L -289.813 222.2261 L -290.3954 222.5851 L -290.974 222.9552 L -291.7376 223.465 L -292.3057 223.8607 L -292.8678 224.2661 L -293.4266 224.6831 L -293.9813 225.1108 L -294.7117 225.6952 L -295.2543 226.1458 L -295.9698 226.7615 L -296.5006 227.2345 L -297.0258 227.7165 L -297.7198 228.3745 L -298.2351 228.8788 L -298.9131 229.5645 L -299.4162 230.09 L -300.0792 230.8054 L -300.569 231.3516 L -301.0535 231.9083 L -301.5327 232.4751 L -302.1607 233.2436 L -302.6254 233.8319 L -303.2339 234.629 L -303.6826 235.2376 L -304.1241 235.8547 L -304.7019 236.6921 L -305.1262 237.3297 L -305.5429 237.9763 L -306.0861 238.8513 L -306.4842 239.5178 L -306.874 240.1928 L -307.3805 241.1053 L -307.7507 241.8 L -308.2296 242.7371 L -308.5791 243.4504 L -308.9191 244.171 L -309.2501 244.9001 L -309.5714 245.6363 L -309.8835 246.3815 L -310.1866 247.1365 L -310.5731 248.1489 L -310.853 248.9201 L -311.2121 249.9598 L -311.4711 250.7478 L -311.7217 251.5432 L -312.0429 252.6135 L -312.2754 253.4249 L -312.5009 254.2424 L -312.7207 255.0675 L -312.9349 255.8985 L -313.2136 257.018 L -313.4173 257.863 L -313.6182 258.7177 L -313.8806 259.8664 L -314.0736 260.7354 L -314.2636 261.612 L -314.5121 262.7915 L -314.6946 263.6822 L -314.8741 264.581 L -315.0508 265.4869 L -315.28 266.7026 L -315.4473 267.6237 L -315.6621 268.8601 L -315.8164 269.7952 L -315.9648 270.7388 L -316.1509 272.0039 L -316.2818 272.9618 L -316.4421 274.2459 L -316.5514 275.2186 L -316.6502 276.1932 L -316.7385 277.1739 L -316.8391 278.4892 L -316.9012 279.4808 L -316.9515 280.4768 L -316.9896 281.4748 L -317.0209 282.8063 L -317.0296 283.8053 L -317.0254 284.803 L -316.9995 286.1321 L -316.9649 287.1258 L -316.9172 288.1187 L -316.8562 289.1134 L -316.7824 290.1021 L -316.6641 291.4236 L -316.5611 292.4133 L -316.4062 293.7327 L -316.2773 294.7231 L -316.1383 295.714 L -315.9895 296.7091 L -315.7804 298.0267 L -315.6147 299.0208 L -315.4437 300.0159 L -315.2678 301.0142 L -315.0887 302.014 L -314.9065 303.018 L -314.7227 304.0233 L -314.5379 305.0332 L -314.2912 306.3885 L -314.1077 307.4079 L -313.9255 308.4337 L -313.685 309.8121 L -313.5077 310.8501 L -313.3329 311.8951 L -313.1043 313.2989 L -312.9364 314.3571 L -312.7713 315.4235 L -312.556 316.8553 L -312.3983 317.9332 L -312.2434 319.0185 L -312.0916 320.1097 L -311.9427 321.2066 L -311.7966 322.3093 L -311.6061 323.7879 L -311.4664 324.904 L -311.3291 326.0265 L -311.1947 327.1524 L -311.0188 328.663 L -310.8888 329.8016 L -310.7601 330.9446 L -310.6321 332.0933 L -310.5047 333.2451 L -310.3777 334.401 L -310.2508 335.5614 L -310.0822 337.1062 L -309.9554 338.2676 L -309.8287 339.4258 L -309.7016 340.5848 L -309.5737 341.7456 L -309.446 342.9036 L -309.2748 344.4483 L -309.1458 345.6071 L -308.9737 347.1491 L -308.8449 348.3058 L -308.7168 349.4642 L -308.5486 351.0045 L -308.4259 352.1594 L -308.2673 353.6982 L -308.1527 354.8503 L -308.0073 356.3835 L -307.9045 357.5321 L -307.8072 358.6817 L -307.6881 360.2091 L -307.6072 361.3546 L -307.5344 362.4996 L -307.4509 364.0228 L -307.3989 365.1637 L -307.3564 366.3049 L -307.3152 367.8221 L -307.2963 368.9597 L -307.2885 370.0927 L -307.2923 371.2248 L -307.316 372.7301 L -307.3484 373.8568 L -307.4113 375.3476 L -307.4739 376.4634 L -307.5499 377.5734 L -307.6731 379.0459 L -307.7822 380.1409 L -307.9067 381.234 L -308.0464 382.3194 L -308.2571 383.755 L -308.4343 384.8252 L -308.6964 386.2377 L -308.9131 387.2885 L -309.1471 388.3311 L -309.3983 389.3652 L -309.6663 390.3904 L -309.9515 391.4101 L -310.3548 392.7528 L -310.6754 393.7543 L -311.0094 394.7468 L -311.4768 396.0637 L -311.8411 397.0417 L -312.2183 398.0166 L -312.607 398.987 L -313.1403 400.2693 L -313.5538 401.2287 L -314.12 402.4984 L -314.5577 403.4464 L -315.0066 404.3901 L -315.6214 405.637 L -316.0957 406.5652 L -316.7471 407.7946 L -317.2488 408.7079 L -317.7627 409.6145 L -318.4662 410.8113 L -319.0071 411.6988 L -319.7473 412.8698 L -320.3146 413.7353 L -320.893 414.5896 L -321.4822 415.4324 L -322.0812 416.2622 L -322.8956 417.3487 L -323.5178 418.1477 L -324.3653 419.1948 L -325.0115 419.9637 L -325.6687 420.721 L -326.3354 421.4655 L -327.238 422.4371 L -327.9274 423.153 L -328.6245 423.8549 L -329.3322 424.5459 L -330.2864 425.4446 L -331.0126 426.1045 L -331.7485 426.7528 L -332.4911 427.387 L -333.2434 428.0098 L -334.0022 428.6186 L -334.7692 429.2149 L -335.8024 429.9892 L -336.5859 430.5549 L -337.6443 431.2912 L -338.4435 431.8265 L -339.522 432.5223 L -340.3362 433.0284 L -341.1594 433.5242 L -342.2655 434.1663 L -343.1018 434.6337 L -343.9453 435.0895 L -345.0778 435.6774 L -345.9343 436.1034 L -347.0843 436.6498 L -347.952 437.0424 L -349.1195 437.544 L -349.999 437.9017 L -350.8869 438.245 L -352.0742 438.6765 L -352.9695 438.9809 L -353.8709 439.2691 L -355.0765 439.626 L -355.9835 439.873 L -357.1991 440.1751 L -358.1145 440.381 L -359.3368 440.6272 L -360.2553 440.7909 L -361.1756 440.9369 L -362.4043 441.1046 L -363.3264 441.2106 L -364.2518 441.3004 L -365.1761 441.3738 L -366.1014 441.4312 L -367.0285 441.4726 L -367.9549 441.4979 L -368.8816 441.5072 L -370.118 441.4944 L -371.0447 441.4663 L -371.9708 441.4223 L -372.896 441.3623 L -374.1295 441.2573 L -375.0521 441.1597 L -375.9758 441.0455 L -377.2045 440.8681 L -378.1262 440.716 L -379.3529 440.4889 L -380.2747 440.2998 L -381.4995 440.0246 L -382.4184 439.8002 L -383.3381 439.5603 L -384.5622 439.2175 L -385.4799 438.9429 L -386.3967 438.653 L -387.6177 438.2427 L -388.5321 437.9173 L -389.4468 437.576 L -390.3572 437.2201 L -391.2697 436.8475 L -392.4832 436.3265 L -393.3932 435.9166 L -394.3008 435.4912 L -395.5091 434.8989 L -396.4152 434.4347 L -397.621 433.7899 L -398.5241 433.2863 L -399.426 432.7652 L -400.3254 432.2276 L -401.2238 431.6721 L -402.1217 431.098 L -403.0163 430.5071 L -403.9068 429.8992 L -405.0915 429.0595 L -405.9756 428.4093 L -406.8573 427.7405 L -407.734 427.0551 L -408.6071 426.352 L -409.4769 425.6305 L -410.3417 424.8925 L -411.4879 423.8818 L -412.3429 423.1042 L -413.1923 422.311 L -414.0383 421.5006 L -414.88 420.6738 L -415.994 419.5477 L -416.8203 418.6883 L -417.6437 417.8112 L -418.7301 416.6198 L -419.536 415.709 L -420.3333 414.7835 L -421.3812 413.5268 L -422.1527 412.5694 L -422.9113 411.5986 L -423.9023 410.2829 L -424.627 409.2836 L -425.3385 408.2692 L -426.0356 407.2414 L -426.7168 406.2005 L -427.3951 405.1259 L -428.2457 403.7191 L -428.8701 402.6397 L -429.4809 401.5422 L -430.2672 400.0633 L -430.8374 398.9405 L -431.3909 397.8067 L -432.1041 396.2757 L -432.6202 395.1133 L -433.2797 393.5534 L -433.756 392.3688 L -434.2143 391.1779 L -434.6566 389.9767 L -435.0831 388.7647 L -435.625 387.1403 L -436.0135 385.9091 L -436.3848 384.6734 L -436.8569 383.0101 L -437.1938 381.753 L -437.5166 380.4886 L -437.9251 378.7952 L -438.2165 377.5163 L -438.4955 376.2285 L -438.7618 374.9378 L -439.0168 373.6376 L -439.3389 371.8934 L -439.5675 370.5779 L -439.7846 369.2584 L -439.9917 367.9315 L -440.2527 366.1503 L -440.4373 364.8076 L -440.6697 363.0069 L -440.8338 361.6478 L -440.9892 360.2848 L -441.1359 358.9125 L -441.3174 357.0769 L -441.4428 355.692 L -441.5961 353.8367 L -441.7015 352.4381 L -441.8292 350.5637 L -441.9149 349.1559 L -441.9929 347.738 L -442.0837 345.846 L -442.1412 344.4182 L -442.2017 342.5084 L -442.2358 341.0691 L -442.2686 339.1423 L -442.2845 337.6866 L -442.2932 336.2283 L -442.2947 334.7551 L -442.2859 332.8073 L -442.2713 331.3292 L -442.2503 329.8462 L -442.2235 328.3572 L -442.1916 326.8609 L -442.1421 324.8589 L -442.0999 323.3508 L -442.0547 321.8364 L -441.9915 319.8046 L -441.9437 318.274 L -441.883 316.2228 L -441.8408 314.6738 L -441.7895 312.5968 L -441.756 311.0316 L -441.7277 309.4555 L -441.6983 307.3407 L -441.6821 305.7481 L -441.6669 303.6058 L -441.6592 301.9894 L -441.6519 299.8222 L -441.6471 298.1859 L -441.6412 296.5395 L -441.6295 294.3266 L -441.6164 292.6624 L -441.5984 290.9859 L -441.5745 289.2935 L -441.5327 287.0384 L -441.4932 285.3304 L -441.4469 283.6135 L -441.3944 281.8885 L -441.3361 280.1528 L -441.2729 278.4078 L -441.2061 276.6491 L -441.115 274.3074 L -441.0461 272.5322 L -440.9783 270.7442 L -440.8932 268.3594 L -440.834 266.558 L -440.78 264.7454 L -440.7176 262.3153 L -440.6778 260.4826 L -440.6335 258.0267 L -440.6069 256.1754 L -440.585 254.3121 L -440.5675 252.4443 L -440.5492 249.9381 L -440.5382 248.0499 L -440.5288 246.1535 L -440.5202 244.2483 L -440.5118 242.334 L -440.5001 239.7727 L -440.4903 237.842 L -440.4796 235.9026 L -440.4636 233.3065 L -440.4511 231.3511 L -440.4386 229.3836 L -440.4228 226.7553 L -440.4125 224.7752 L -440.4037 222.7862 L -440.3971 220.7903 L -440.3928 218.7823 L -440.3909 216.768 L -440.3921 214.0869 L -440.3958 212.0591 L -440.4013 210.0304 L -440.4093 207.9796 L -440.422 205.2851 L -440.4332 203.2482 L -440.4449 201.2091 L -440.4568 199.1705 L -440.4689 197.1316 L -440.4846 194.4109 L -440.4949 192.3723 L -440.5044 190.3325 L -440.5119 188.2916 L -440.5194 185.572 L -440.5225 183.5318" stroke-width="28" stroke="grey" fill="none" id="Track"/></svg>