<svg class="track" xmlns="http://www.w3.org/2000/svg" preserveAspectRatio="xMinYMid meet" height="400" width="400" viewBox="-500 -500 1 1200">
  <path d="m-440.036 182.625.007-11.588v-11.744l.008-11.905-.004-12.033-.043-12.185-.063-8.692-.13-12.416-.142-11.815-.13-12.715-.237-34.667-.211-24.699-.223-24.556-.08-8.338-.141-14.32-.157-15.392-.15-13.72-.304-25.75-.313-24.903-.343-25.57-.358-24.24-.41-25.39-.345-24.064-.164-13.377-.134-12.246-.122-12.558-.092-10.698-.07-8.978-.122-11.3-.166-8.956-.267-10.013-.25-8.667-.235-9.798-.136-7.88-.165-10.15-.2-9.285-.216-9.37-.137-8.24-.042-8.143.057-7.036.156-6.71.665-10.52.523-3.895.538-2.849.838-3.317.844-2.532 1.32-3.097 1.37-2.599 1.663-2.67 2.144-2.863 2.157-2.374 2.707-2.424 2.818-2.032 2.327-1.38 3.071-1.486 3.51-1.293 6.746-1.33 6.424.13 6.502 1.34 3.604 1.204 2.933 1.26 3.618 1.95 2.934 1.93 3.623 2.776 3.464 2.947 4.285 3.91 3.879 3.836 6.762 7.842 6.127 9.074 5.819 10.143 2.944 5.41 3.307 6.421 5.209 11.28 5.275 12.998 4.91 13.875 3.688 12.227 1.648 6.072 1.671 6.714 1.978 9.008 1.226 6.459 1.405 8.782 1.105 8.896.827 9.498.43 7.265.358 8.925.216 7.787.165 8.334.097 7.21.066 9.511.001 7.971-.056 9.326-.104 8.386-.166 10.48-.13 8.217-.166 10.354-.205 13.124-.136 10.954-.079 10.417-.017 9.214.048 9.11.09 7.936.09 7.843.052 8.39.034 6.9.1 6.723.272 6.518.392 5.112.688 6.088.957 6.227 1.13 5.547 1.369 5.179 1.736 5.092 2.044 4.79 2.317 4.533 4.674 7.36 2.99 3.756 3.242 3.398 3.49 2.986 2.82 1.97 3.616 2.043 3.971 1.726 3.787 1.327 4.033 1.184 6.653 1.35 7.057.438 6.82-.815 6.372-1.76 3.49-1.29 3.669-1.624 2.99-1.553 3.38-2.03 3.325-2.313 3.444-2.768 3.133-2.89 3.014-3.15 2.358-2.743 2.952-3.83 2.317-3.337 2.679-4.269 1.496-2.618 2.358-4.647 2.076-4.89.977-2.68 1.918-6.16 1.506-5.43 1.488-5.252 1.643-5.41 1.56-4.883 1.653-5.017 2.108-6.162 1.953-5.335 1.948-4.842 2.605-5.652 2.93-5.347 2.867-4.426 2.903-3.878 3.795-4.45 3.32-3.505 7.635-7.127 4.335-3.611 3.642-2.863 4.93-3.629 4.23-2.831 3.127-1.909 2.89-1.628 5.322-2.665 4.49-1.929 5.727-2.115 6.308-2.011 5.755-1.655 5.125-1.374 6.471-1.612 15.58-3.413 6.102-1.189 7.106-1.28 6.34-1.05 6.474-1.005 6.137-.953 8.19-1.357 8.873-1.59 8.068-1.52 7.204-1.402 8.934-1.791 6.966-1.448 8.728-1.882 7.79-1.733 6.806-1.532 9.26-2.075 10.072-2.21 7.837-1.684 10.42-2.197 8.098-1.686 10.113-2.113 7.686-1.623 10.382-2.197 11.869-2.484 11.372-2.293 8.778-1.667 11.496-2.025 8.048-1.297 10.62-1.546 11.114-1.399 10.175-1.08 8.004-.719 10.12-.745 8.024-.475 7.27-.358 9.334-.386 9.138-.34 8.895-.328 8.028-.308 7.534-.317 5.7-.315 6.777-.57 4.69-.603 4.864-.837 5.413-1.179 5.564-1.516 4.73-1.594 3.93-1.61 4.89-2.403 4.413-2.476 4.566-2.805 4.495-2.972 4.452-3.159 4.404-3.366 3.323-2.727 4.282-3.781 3.208-3.066 4.076-4.255 3.017-3.437 3.816-4.712 3.024-4.071 3.32-4.854 2.6-4.102 3.3-5.574 2.303-4.08 3.094-5.623 3.168-5.82 3.294-6.002 2.567-4.608 3.775-6.683 2.99-5.234 3.798-6.575 3.157-5.381 3.942-6.495 3.294-5.116 4.478-6.363 3.808-4.838 4.448-4.986 3.675-3.593 4.647-3.947 5.121-3.731 4.96-3.116 3.474-1.915 3.193-1.573 9.956-3.7 4.164-.965 5.381-.729 4.367-.18 4.916.183 3.964.417 5.404.933 3.876.932 5 1.55 4.03 1.553 4.753 2.23 3.494 1.969 4.341 2.914 3.128 2.477 3.603 3.325 3.565 3.813 3.128 3.803 3.05 4.261 2.735 4.482 2.404 4.693 3.615 8.784 3.841 12.84 2.973 18.822.337 4.816.25 6.013.07 11.543-.207 6.71-.39 6.825-.529 6.53-.73 7.048-.827 6.756-1.053 7.788-1.093 7.579-1.1 7.372-1.193 8.13-1.088 7.946-1.06 8.235-.954 7.432-1.164 8.742-.984 7.268-1.25 9.506-1.653 13.171-1.78 13.881-.954 6.77-.943 6.144-.726 4.293-.946 4.703-.912 3.588-1.274 3.938-1.244 3.068-1.762 3.531-1.68 2.805-2.19 3.12-2.771 3.26-2.72 2.597-3.141 2.434-3.366 2.08-3.146 1.532-3.08 1.213-2.959.992-3.75 1.129-3.377.94-3.967 1.053-3.292.893-4.074 1.23-4.277 1.558-3.965 1.757-3.872 2.056-3.97 2.524-3.593 2.703-6.334 5.927-6.152 7.007-6.265 7.994-6.133 8.443-6.768 9.688-4.228 6.018-4.168 5.873-7.78 10.93-7.782 11.02-7.182 10.376-6.072 9.889-2.535 5.125-1.839 4.632-1.162 3.663-1.138 4.494-.723 3.65-.692 4.779-.34 3.66-.186 4.504.06 3.931.357 4.763.536 3.938.823 4.245 1.18 4.559 1.73 5.152 1.764 4.302 2.363 4.879 2.073 3.718 2.685 4.254 2.769 3.944 3.166 4.26 3.72 4.994 3.547 4.945 3.463 5.144 3.312 5.543 2.187 4.286 2.325 5.66 1.327 4.346.98 4.666.63 5.65.244 5.294-.017 5.256-.396 5.522-.598 4.156-1.215 5.3-1.282 3.948-2.135 5.039-1.79 3.499-2.722 4.654-3.095 4.664-3.728 4.927-4.22 4.854-4.738 4.705-4.944 4.22-5.736 4.242-5.772 3.782-4.935 2.918-10.011 5.28-6.697 3.22-7.333 3.375-7.06 3.259-7.624 3.666-7.736 3.911-7.386 3.894-7.945 4.35-7.432 4.29-7.605 4.795-7.169 5.118-6.66 5.475-6.096 5.822-4.271 4.662-5.075 6.32-3.508 4.976-4.18 6.666-3.628 6.41-6.166 12.319-2.978 6.778-2.974 7.358-2.756 7.49-2.491 7.632-2.123 7.309-2.014 7.41-2.313 8.419-2.357 7.983-2.387 7.449-2.7 7.68-2.543 6.48-3.334 7.353-3.297 6.13-3.88 6.036-4.28 5.545-4.337 4.831-4.595 4.49-7.964 6.578-9.87 6.594-10.519 5.61-10.856 4.324-12.017 3.164-13.209 1.903-12.956.853-7.372.202-7.539.009-8.114-.22-8.296-.462-8.453-.703-8.645-.863-8.356-.835-8.076-.753-7.774-.69-8.627-.75-8.333-.7-9.858-.766-10.203-.714-10.531-.666-8.793-.505-11.659-.597-11.335-.515-12.38-.557-9.696-.466-12.876-.638-10.579-.507-11.802-.538-9.166-.392-10.65-.416-8.138-.287-8.236-.268-7.153-.228-8.737-.308-6.253-.255-7.674-.332-5.101-.22-6.357-.262-4.792-.199-5.449-.277-4.103-.282-5.189-.475-3.869-.46-4.915-.798-3.629-.819-4.527-1.42-3.256-1.384-3.722-2.05-2.973-2.07-3.051-2.644-2.35-2.523-2.383-3.097-1.872-2.858-1.924-3.425-1.382-2.898-1.616-4.186-1.036-3.402-.958-4.08-.612-3.491-.568-4.806-.238-3.858-.032-5.273.165-4.195.39-5.688.398-4.487.62-5.658.686-4.713 1.15-5.884 1.605-6.33 1.808-6.02 1.58-4.975 3.116-10.31 1.797-6.617 1.393-5.52 1.537-6.538 1.69-7.92 1.3-6.96 1.965-13.952.537-5.329.486-6.262.255-4.802.158-6.223-.008-3.96-.151-5.51-.228-4.14-.446-4.996-.422-3.365-.585-3.598-2.239-8.808-3.166-7.1-3.791-5.628-2.31-2.817-2.442-2.7-4.868-4.56-5.018-3.531-5.35-2.69-3.088-1.101-3.366-.842-3.438-.495-3.304-.15-3.345.164-3.356.49-2.507.584-5.564 2.016-3.197 1.65-2.706 1.7-2.974 2.23-3.008 2.68-2.849 2.977-2.056 2.48-2.501 3.498-1.748 2.863-2.045 3.978-1.654 3.978-1.47 4.464-1.17 4.405-1.05 4.594-1.017 5.09-.87 5.302-.589 5.17-.226 9.952.3 4.298.527 4.29.87 5.3.73 4.02 1.03 5.816.952 6.005.76 5.454.601 4.843.69 6.093.55 5.023.68 6.18.726 6.557 1.015 11.495.186 11.357-1.086 10.968-1.232 5.565-1.81 5.674-1.664 4.205-2.481 5.368-2.845 5.174-3.016 4.621-3.53 4.532-3.613 3.89-3.866 3.533-4.095 3.168-3.75 2.473-4.742 2.65-4.042 1.866-4.75 1.725-5.467 1.358-4.915.673-4.63.207-9.244-.791-9.492-2.473-3.652-1.395-4.24-1.95-4.815-2.67-3.582-2.329-4.7-3.547-3.736-3.248-4.477-4.416-3.513-3.904-4.294-5.5-2.768-4.158-3.442-6.185-1.783-3.828-2.463-6.348-2.11-7.012-1.569-6.815-.805-4.36-1.103-7.571-1.031-10.569-.5-9.93-.094-7.753.072-6.398.232-8.552.235-8.773.097-9.043.03-7.662.136-8.997.287-8.68.372-10.092.2-8.531.096-9.977.038-8.277.061-10.39.042-8.593-.004-10.76-.044-8.82-.06-10.877z" stroke-width="28" stroke="#000" fill="none"/>
  <path d="m-440.036 182.625.007-11.588v-11.744l.008-11.905-.004-12.033-.043-12.185-.063-8.692-.13-12.416-.142-11.815-.13-12.715-.237-34.667-.211-24.699-.223-24.556-.08-8.338-.141-14.32-.157-15.392-.15-13.72-.304-25.75-.313-24.903-.343-25.57-.358-24.24-.41-25.39-.345-24.064-.164-13.377-.134-12.246-.122-12.558-.092-10.698-.07-8.978-.122-11.3-.166-8.956-.267-10.013-.25-8.667-.235-9.798-.136-7.88-.165-10.15-.2-9.285-.216-9.37-.137-8.24-.042-8.143.057-7.036.156-6.71.665-10.52.523-3.895.538-2.849.838-3.317.844-2.532 1.32-3.097 1.37-2.599 1.663-2.67 2.144-2.863 2.157-2.374 2.707-2.424 2.818-2.032 2.327-1.38 3.071-1.486 3.51-1.293 6.746-1.33 6.424.13 6.502 1.34 3.604 1.204 2.933 1.26 3.618 1.95 2.934 1.93 3.623 2.776 3.464 2.947 4.285 3.91 3.879 3.836 6.762 7.842 6.127 9.074 5.819 10.143 2.944 5.41 3.307 6.421 5.209 11.28 5.275 12.998 4.91 13.875 3.688 12.227 1.648 6.072 1.671 6.714 1.978 9.008 1.226 6.459 1.405 8.782 1.105 8.896.827 9.498.43 7.265.358 8.925.216 7.787.165 8.334.097 7.21.066 9.511.001 7.971-.056 9.326-.104 8.386-.166 10.48-.13 8.217-.166 10.354-.205 13.124-.136 10.954-.079 10.417-.017 9.214.048 9.11.09 7.936.09 7.843.052 8.39.034 6.9.1 6.723.272 6.518.392 5.112.688 6.088.957 6.227 1.13 5.547 1.369 5.179 1.736 5.092 2.044 4.79 2.317 4.533 4.674 7.36 2.99 3.756 3.242 3.398 3.49 2.986 2.82 1.97 3.616 2.043 3.971 1.726 3.787 1.327 4.033 1.184 6.653 1.35 7.057.438 6.82-.815 6.372-1.76 3.49-1.29 3.669-1.624 2.99-1.553 3.38-2.03 3.325-2.313 3.444-2.768 3.133-2.89 3.014-3.15 2.358-2.743 2.952-3.83 2.317-3.337 2.679-4.269 1.496-2.618 2.358-4.647 2.076-4.89.977-2.68 1.918-6.16 1.506-5.43 1.488-5.252 1.643-5.41 1.56-4.883 1.653-5.017 2.108-6.162 1.953-5.335 1.948-4.842 2.605-5.652 2.93-5.347 2.867-4.426 2.903-3.878 3.795-4.45 3.32-3.505 7.635-7.127 4.335-3.611 3.642-2.863 4.93-3.629 4.23-2.831 3.127-1.909 2.89-1.628 5.322-2.665 4.49-1.929 5.727-2.115 6.308-2.011 5.755-1.655 5.125-1.374 6.471-1.612 15.58-3.413 6.102-1.189 7.106-1.28 6.34-1.05 6.474-1.005 6.137-.953 8.19-1.357 8.873-1.59 8.068-1.52 7.204-1.402 8.934-1.791 6.966-1.448 8.728-1.882 7.79-1.733 6.806-1.532 9.26-2.075 10.072-2.21 7.837-1.684 10.42-2.197 8.098-1.686 10.113-2.113 7.686-1.623 10.382-2.197 11.869-2.484 11.372-2.293 8.778-1.667 11.496-2.025 8.048-1.297 10.62-1.546 11.114-1.399 10.175-1.08" stroke-width="12" stroke="#e73323" fill="none"/>
  <path d="m185.9-206.515 10.12-.745 8.024-.475 7.27-.358 9.334-.386 9.138-.34 8.895-.328 8.028-.308 7.534-.317 5.7-.315 6.777-.57 4.69-.603 4.864-.837 5.413-1.179 5.564-1.516 4.73-1.594 3.93-1.61 4.89-2.403 4.413-2.476 4.566-2.805 4.495-2.972 4.452-3.159 4.404-3.366 3.323-2.727 4.282-3.781 3.208-3.066 4.076-4.255 3.017-3.437 3.816-4.712 3.024-4.071 3.32-4.854 2.6-4.102 3.3-5.574 2.303-4.08 3.094-5.623 3.168-5.82 3.294-6.002 2.567-4.608 3.775-6.683 2.99-5.234 3.798-6.575 3.157-5.381 3.942-6.495 3.294-5.116 4.478-6.363 3.808-4.838 4.448-4.986 3.675-3.593 4.647-3.947 5.121-3.731 4.96-3.116 3.474-1.915 3.193-1.573 9.956-3.7 4.164-.965 5.381-.729 4.367-.18 4.916.183 3.964.417 5.404.933 3.876.932 5 1.55 4.03 1.553 4.753 2.23 3.494 1.969 4.341 2.914 3.128 2.477 3.603 3.325 3.565 3.813 3.128 3.803 3.05 4.261 2.735 4.482 2.404 4.693 3.615 8.784 3.841 12.84 2.973 18.822.337 4.816.25 6.013.07 11.543-.207 6.71-.39 6.825-.529 6.53-.73 7.048-.827 6.756-1.053 7.788-1.093 7.579-1.1 7.372-1.193 8.13-1.088 7.946-1.06 8.235-.954 7.432-1.164 8.742-.984 7.268-1.25 9.506-1.653 13.171-1.78 13.881-.954 6.77-.943 6.144-.726 4.293-.946 4.703-.912 3.588-1.274 3.938-1.244 3.068-1.762 3.531-1.68 2.805-2.19 3.12-2.771 3.26-2.72 2.597-3.141 2.434-3.366 2.08-3.146 1.532-3.08 1.213-2.959.992-3.75 1.129-3.377.94-3.967 1.053-3.292.893-4.074 1.23-4.277 1.558-3.965 1.757-3.872 2.056-3.97 2.524-3.593 2.703-6.334 5.927-6.152 7.007-6.265 7.994-6.133 8.443-6.768 9.688-4.228 6.018-4.168 5.873-7.78 10.93-7.782 11.02-7.182 10.376-6.072 9.889-2.535 5.125-1.839 4.632-1.162 3.663-1.138 4.494-.723 3.65-.692 4.779-.34 3.66-.186 4.504.06 3.931.357 4.763.536 3.938.823 4.245 1.18 4.559 1.73 5.152 1.764 4.302 2.363 4.879 2.073 3.718 2.685 4.254 2.769 3.944 3.166 4.26 3.72 4.994 3.547 4.945 3.463 5.144 3.312 5.543 2.187 4.286 2.325 5.66 1.327 4.346.98 4.666.63 5.65.244 5.294-.017 5.256-.396 5.522-.598 4.156-1.215 5.3-1.282 3.948-2.135 5.039-1.79 3.499-2.722 4.654-3.095 4.664-3.728 4.927-4.22 4.854-4.738 4.705-4.944 4.22-5.736 4.242-5.772 3.782-4.935 2.918-10.011 5.28-6.697 3.22-7.333 3.375-7.06 3.259-7.624 3.666-7.736 3.911-7.386 3.894-7.945 4.35-7.432 4.29-7.605 4.795-7.169 5.118-6.66 5.475-6.096 5.822-4.271 4.662-5.075 6.32-3.508 4.976-4.18 6.666-3.628 6.41-6.166 12.319-2.978 6.778-2.974 7.358-2.756 7.49-2.491 7.632-2.123 7.309-2.014 7.41-2.313 8.419-2.357 7.983-2.387 7.449-2.7 7.68-2.543 6.48-3.334 7.353-3.297 6.13-3.88 6.036-4.28 5.545-4.337 4.831-4.595 4.49-7.964 6.578-9.87 6.594-10.519 5.61-10.856 4.324-12.017 3.164-13.209 1.903-12.956.853-7.372.202-7.539.009-8.114-.22-8.296-.462-8.453-.703-8.645-.863-8.356-.835-8.076-.753" stroke-width="12" stroke="#4fafdf" fill="none"/>
  <path d="m34.686 479.39-7.282-.642-9.28-.802-7.802-.647-9.923-.756-10.915-.747-9.942-.615-9.469-.53-11.779-.583-11.406-.511-22.215-1.046-22.683-1.1-20.813-.91-19.11-.698-8.076-.259-6.491-.21-9.108-.333-6.146-.256-7.123-.31-5.03-.214-6.261-.257-4.717-.2-5.357-.29-4.062-.297-5.162-.498-4.14-.527-4.872-.863-3.591-.884-4.205-1.42-3.211-1.445-3.875-2.26-2.699-1.978-3.15-2.871-2.118-2.387-2.466-3.334-1.699-2.687-1.88-3.454-1.434-3.15-1.467-3.993-.996-3.43-.964-4.39-.565-3.54-.482-4.576-.196-3.895.023-5.316.196-4.227.418-5.724.451-4.86.623-5.34.733-4.729 1.217-5.9 1.671-6.343 1.847-6.036 1.587-4.997 1.575-5.121 1.518-5.25 1.778-6.65 1.382-5.56 1.616-7.004 1.556-7.47 1.328-7.35 1.014-6.807.8-6.688.507-5.287.45-6.191.24-5.096.11-5.795-.036-4.268-.174-5.165-.253-4.123-.519-5.281-1.092-6.914-.858-3.759-1.432-4.658-1.313-3.217-1.934-3.718-1.653-2.585-2.203-2.958-2.334-2.792-2.624-2.84-1.928-1.881-2.816-2.433-2.225-1.65-2.825-1.789-2.371-1.271-3.204-1.405-3.11-1.028-3.183-.725-3.451-.435-3.314-.092-3.56.25-3.144.526-2.712.693-2.894.999-2.443 1.064-3.372 1.827-2.493 1.635-2.948 2.285-2.981 2.733-2.818 3.03-2.18 2.72-2.31 3.347-1.837 3.13-1.87 3.794-1.603 4.02-1.422 4.505-1.142 4.438-1.095 4.928-.935 4.833-.835 5.338-.557 5.527-.182 4.317.104 5.313.927 8.59 1.699 9.68.958 5.506.935 6.038 1.38 10.73 1.19 10.763.682 6.181.72 6.552.522 5.373.453 6.49.155 4.938-.115 6.388-.371 4.793-.914 6.097-1.255 5.172-1.89 5.632-1.713 4.187-2.542 5.336-2.911 5.134-3.074 4.563-3.588 4.459-3.663 3.825-3.911 3.464-4.401 3.281-3.515 2.233-4.775 2.58-4.065 1.798-5.077 1.724-5.18 1.165-4.92.583-4.942.12-4.012-.237-5.223-.768-3.985-.929-5.194-1.643-7.883-3.482-8.676-5.375-4.386-3.43-3.715-3.319-4.452-4.5-3.737-4.284-3.958-5.258-2.907-4.55-3.145-5.912-2.823-6.63-2.17-6.504-1.832-7.157-.8-3.878-1.237-7.488-.883-7.237-.307-3.221-.55-7.954-.243-6.669.044-14.208.248-8.587.216-8.819.076-9.633.036-7.16.17-9.048.331-9.307.335-9.562.173-8.57.078-10.022.039-8.311.067-11.087.03-7.973-.016-10.802-.048-8.81-.055-10.878" stroke-width="12" stroke="#f7d347" fill="none"/>
</svg>
