<?xml version="1.0" standalone="no"?>
<svg xmlns:xlink="http://www.w3.org/1999/xlink" id="s2" class="track" xmlns="http://www.w3.org/2000/svg" preserveAspectRatio="xMinYMid meet" height="800px" width="600px" viewBox="-1200 -700 3000 3000">
            <path d="M 470.4665 -350.797 L 463.3644 -350.5252 L 454.6019 -350.2734 L 449.1203 -350.1538 L 439.7834 -350.0074 L 432.0836 -349.9275 L 422.6738 -349.8575 L 417.0776 -349.8263 L 407.4722 -349.7694 L 399.4528 -349.704 L 390.1427 -349.621 L 382.4568 -349.5771 L 372.2642 -349.5752 L 364.3395 -349.6097 L 353.8089 -349.6744 L 345.0143 -349.7405 L 334.8326 -349.8388 L 326.4783 -349.9424 L 315.4772 -350.1287 L 307.6926 -350.311 L 296.6604 -350.649 L 288.2135 -350.9688 L 277.157 -351.4635 L 266.7175 -352.0174 L 255.6456 -352.7199 L 246.5091 -353.4014 L 236.7103 -354.2367 L 228.8607 -354.9838 L 218.4084 -356.0872 L 209.9074 -357.0721 L 198.7906 -358.4638 L 188.3251 -359.8717 L 177.2033 -361.4688 L 168.6912 -362.761 L 158.2281 -364.4332 L 147.1087 -366.3104 L 135.981 -368.2714 L 125.4936 -370.1114 L 114.3257 -371.9712 L 103.1312 -373.7676 L 92.5891 -375.5128 L 82.0445 -377.3445 L 73.4674 -378.8489 L 62.2367 -380.7763 L 51.0011 -382.6826 L 40.4216 -384.4763 L 31.7958 -385.912 L 21.2004 -387.6139 L 11.9046 -389.0434 L 1.2874 -390.6048 L -7.9562 -391.9219 L -18.4649 -393.4111 L -26.9643 -394.6095 L -38.0044 -396.1122 L -46.4104 -397.1807 L -57.9913 -398.4883 L -65.6794 -399.2141 L -75.881 -399.9749 L -86.6604 -400.5454 L -97.3716 -400.9053 L -106.1583 -401.0724 L -115.5159 -401.1438 L -126.1214 -401.1011 L -136.7645 -400.9272 L -145.5477 -400.6814 L -156.917 -400.226 L -165.8124 -399.7767 L -176.6818 -399.1388 L -187.6363 -398.4113 L -198.0231 -397.6577 L -209.1318 -396.8125 L -220.2492 -395.955 L -231.2252 -395.1182 L -241.8247 -394.32 L -251.9177 -393.5403 L -259.2103 -392.9378 L -268.1038 -392.1319 L -275.8988 -391.361 L -283.3797 -390.5996 L -289.2423 -390.0115 L -294.0925 -389.5308 L -303.5033 -388.5211 L -315.5184 -386.9677 L -327.9265 -385.1265 L -334.5847 -384.0468 L -342.0327 -382.7524 L -347.3229 -381.7689 L -353.7451 -380.4929 L -364.9164 -378.0772 L -371.0966 -376.6372 L -376.4249 -375.3336 L -381.4516 -374.0479 L -385.5858 -372.9497 L -388.8649 -372.0504 L -392.3063 -371.0733 L -394.9294 -370.2963 L -398.0689 -369.3193 L -400.5517 -368.4945 L -403.7006 -367.3534 L -406.0322 -366.4296 L -408.9972 -365.1537 L -411.3912 -364.0403 L -414.0818 -362.6946 L -416.235 -361.5253 L -419.044 -359.8561 L -421.7177 -358.107 L -424.767 -355.9057 L -426.9877 -354.1529 L -429.8824 -351.6354 L -432.0537 -349.5268 L -434.7534 -346.5341 L -436.8242 -343.861 L -439.2053 -340.3554 L -440.9849 -337.4912 L -443.1584 -333.744 L -444.7732 -330.7731 L -446.9139 -326.6091 L -448.6348 -323.0795 L -450.8296 -318.3655 L -452.8402 -313.9132 L -454.8797 -309.5034 L -456.6194 -305.9705 L -459.071 -301.4389 L -461.2874 -297.7959 L -464.2291 -293.4518 L -466.6828 -290.1806 L -470.1487 -285.9613 L -473.0228 -282.8029 L -477.0741 -278.7573 L -480.3978 -275.7373 L -484.7531 -272.1459 L -488.8083 -269.1442 L -493.7186 -265.9179 L -497.9192 -263.4703 L -503.7239 -260.4223 L -508.3704 -258.1493 L -514.6971 -255.2084 L -519.665 -252.9928 L -525.8073 -250.3372 L -531.0992 -248.0794 L -536.9895 -245.4979 L -541.9678 -243.165 L -547.7531 -240.1828 L -552.2978 -237.5939 L -557.5603 -234.2894 L -561.4121 -231.6293 L -565.9807 -228.1727 L -571.1778 -223.7717 L -575.3774 -219.7861 L -578.6697 -216.3285 L -582.7893 -211.5209 L -585.1264 -208.5389 L -588.7349 -203.5407 L -592.1818 -198.2588 L -595.4706 -192.6955 L -599.5972 -184.9883 L -603.4266 -177.2536 L -606.5698 -170.3808 L -608.6816 -165.3585 L -611.5099 -157.981 L -613.1036 -153.5175 L -615.7828 -145.7276 L -617.8843 -139.6236 L -620.5743 -132.0045 L -622.8176 -125.8148 L -625.6934 -118.0651 L -628.3347 -111.0865 L -631.4832 -102.8674 L -634.9338 -93.8653 L -638.4946 -84.5731 L -642.1827 -75.0124 L -645.7698 -65.7866 L -649.4635 -56.3434 L -658.8644 -32.4976 L -665.1826 -16.7772 L -668.7734 -7.9633 L -672.8931 2.1131 L -676.4957 10.92 L -680.8764 21.6197 L -684.2269 29.8015 L -688.3519 39.8699 L -691.968 48.6879 L -696.3074 59.2673 L -699.768 67.7005 L -703.7271 77.2945 L -706.3358 83.5247 L -709.7822 91.5989 L -712.2103 97.2032 L -716.4243 106.9171 L -719.0584 113.1219 L -720.5725 116.8121 L -722.3486 121.308 L -724.158 126.118 L -727.9477 137.2809 L -729.3941 142.2085 L -729.9436 144.2495 L -731.0888 148.9427 L -732.4835 156.0276 L -733.1674 161.07 L -733.535 165.8397 L -733.6266 170.9678 L -733.4273 176.142 L -732.9382 182.0214 L -732.3656 187.0606 L -731.8064 191.1973 L -730.9678 196.6444 L -730.1709 201.1571 L -729.1277 206.3248 L -728.1041 210.8496 L -726.8547 216.0049 L -725.7833 220.4799 L -724.691 225.5506 L -723.9354 229.9459 L -723.14 238.6039 L -723.1476 243.4688 L -723.4053 247.3711 L -724.0252 252.1143 L -724.8286 256.2207 L -726.1006 261.1694 L -727.2913 264.9137 L -729.158 269.7218 L -730.8224 273.3136 L -733.2977 277.8827 L -735.4026 281.2935 L -738.403 285.6692 L -740.8885 288.9491 L -744.17 292.9012 L -747.2297 296.2799 L -750.9363 300.0523 L -754.0751 303.0643 L -758.2978 306.955 L -761.3478 309.6759 L -765.7667 313.4949 L -769.2322 316.3849 L -773.6096 319.8944 L -778.1359 323.3753 L -782.8478 326.8815 L -786.827 329.781 L -791.9359 333.4209 L -797.9662 337.5982 L -803.5558 341.3992 L -809.708 345.554 L -815.6834 349.5882 L -821.789 353.7387 L -828.4235 358.2977 L -832.3873 361.0425 L -838.7692 365.4946 L -848.9896 372.7774 L -857.9532 379.473 L -862.2435 382.8112 L -868.0425 387.4606 L -875.9788 394.0662 L -883.7116 400.7712 L -887.7361 404.3306 L -891.6123 407.8163 L -894.7554 410.7096 L -897.7057 413.5167 L -899.6532 415.4359 L -902.3846 418.2496 L -904.0799 420.0956 L -906.187 422.5453 L -907.8944 424.6909 L -909.6132 427.0213 L -911.4296 429.7225 L -913.1035 432.5078 L -914.4531 435.0518 L -915.8098 438.03 L -916.7079 440.3856 L -917.6125 443.3716 L -918.0604 445.2813 L -918.6086 448.6096 L -918.832 451.1896 L -918.8398 454.5505 L -918.623 457.0996 L -918.0938 460.2013 L -917.4517 462.6891 L -916.3265 465.8794 L -914.9766 468.786 L -913.3501 471.5738 L -911.7087 473.8933 L -909.4456 476.5454 L -907.0447 478.8861 L -904.3724 481.0699 L -901.4136 483.0906 L -897.9584 485.037 L -894.8809 486.4527 L -891.1265 487.8418 L -887.9094 488.8031 L -883.5045 489.8821 L -880.8116 490.4416 L -876.3449 491.2129 L -872.2842 491.736 L -867.5095 492.1045 L -863.3093 492.1546 L -858.4904 491.9137 L -854.2119 491.5368 L -849.2268 491.0211 L -845.0964 490.584 L -839.5888 489.9899 L -835.2845 489.4868 L -829.8508 488.7721 L -824.9826 488.0507 L -819.285 487.1127 L -814.1711 486.1979 L -808.1317 485.0522 L -803.0103 484.0485 L -796.3596 482.7299 L -788.8043 481.2269 L -780.7366 479.6345 L -774.2951 478.3911 L -765.4807 476.746 L -756.217 475.0922 L -747.0966 473.5331 L -736.9971 471.8586 L -727.7537 470.3529 L -718.8577 468.9312 L -708.3748 467.3137 L -699.0274 465.931 L -688.2756 464.4009 L -679.5302 463.189 L -668.1569 461.6226 L -659.559 460.4234 L -647.8623 458.7796 L -637.0326 457.292 L -627.0403 455.9849 L -620.8796 455.2231 L -610.5872 454.0547 L -604.619 453.4497 L -594.6379 452.5742 L -587.7054 452.0758 L -578.5762 451.555 L -570.6282 451.2155 L -561.523 450.9492 L -553.5358 450.8363 L -543.7681 450.8863 L -536.2579 451.0786 L -526.3522 451.5154 L -516.9211 452.1023 L -507.3796 452.9008 L -498.9706 453.7966 L -488.6572 455.136 L -480.0973 456.4448 L -470.2238 458.1513 L -461.5246 459.8121 L -451.5336 461.873 L -443.3946 463.6346 L -432.9367 465.9288 L -425.2572 467.5685 L -410.9509 470.3701 L -403.1078 471.7886 L -397.2167 472.8385 L -390.6335 474.0116 L -384.7114 475.0677 L -380.0621 475.8791 L -376.4152 476.4731 L -372.1004 477.0887 L -368.5559 477.5107 L -363.855 477.9436 L -360.2004 478.1653 L -355.3531 478.2908 L -351.3161 478.2332 L -346.6625 477.9679 L -342.8632 477.5735 L -337.8837 476.7879 L -334.099 475.9524 L -329.2386 474.5331 L -325.5853 473.1947 L -321.1536 471.2746 L -317.6027 469.5246 L -313.2983 467.1679 L -308.8248 464.4351 L -304.4638 461.4675 L -300.7164 458.6591 L -293.76 452.7299 L -286.9736 445.8578 L -280.762 438.2131 L -277.705 433.8455 L -274.6597 429.0319 L -272.2875 424.9488 L -269.518 419.8852 L -267.3226 415.6458 L -264.9091 410.7085 L -263.0482 406.6203 L -260.9113 401.4765 L -259.1877 396.8468 L -256.2963 387.838 L -254.8663 382.75 L -253.2269 376.3343 L -252.0574 371.2442 L -250.6626 364.3474 L -249.7142 358.8889 L -248.6429 351.5034 L -247.9627 345.6732 L -247.2706 337.8123 L -246.8821 331.1419 L -246.65 322.8286 L -246.655 316.812 L -246.9125 308.1144 L -247.3535 300.7832 L -248.125 292.2478 L -248.968 285.1817 L -250.3603 275.7778 L -251.6486 268.4636 L -253.6056 258.7529 L -255.4081 250.6246 L -257.7831 240.5916 L -259.7057 232.8058 L -262.3023 222.4946 L -264.3044 214.5453 L -266.8846 204.2174 L -268.9138 196.0163 L -271.0648 187.252 L -272.6591 180.7221 L -274.5375 173.013 L -275.812 167.7321 L -277.1759 161.8247 L -278.2001 157.0503 L -279.2254 151.8643 L -279.9812 147.7585 L -280.8831 142.4953 L -281.493 138.5417 L -282.1342 133.7281 L -282.6641 128.6451 L -283.0831 120.6194 L -283.0618 115.5163 L -282.9102 111.216 L -282.5436 105.8549 L -282.0522 101.3414 L -281.2086 95.7453 L -280.1125 90.0086 L -278.7541 84.1392 L -277.0838 78.1645 L -275.4583 73.1983 L -273.1817 67.1264 L -271.2416 62.4565 L -268.4804 56.3721 L -266.2035 51.7917 L -263.2068 46.2773 L -260.637 41.8987 L -257.3516 36.6504 L -253.7354 31.2683 L -250.2 26.443 L -248.1396 23.8506 L -243.8687 19.0138 L -239.6063 14.9158 L -235.3791 11.5752 L -230.3833 8.5395 L -225.5038 6.4456 L -221.7384 5.2892 L -217.1369 4.2219 L -212.6042 3.4759 L -208.1635 3.0375 L -204.5834 2.9144 L -199.9206 3.104 L -196.6323 3.466 L -191.9859 4.2742 L -188.4375 5.0993 L -183.5327 6.4922 L -179.9704 7.6234 L -175.5002 9.0851 L -171.7741 10.2705 L -166.7744 11.7617 L -163.1523 12.7593 L -157.8668 14.1013 L -153.3628 15.1561 L -147.6836 16.3661 L -142.7968 17.289 L -136.5765 18.3326 L -131.5857 19.076 L -124.713 19.9766 L -119.1895 20.6063 L -111.6294 21.3684 L -105.6075 21.9094 L -97.4712 22.5455 L -91.0642 22.9635 L -82.4611 23.4079 L -75.7107 23.653 L -66.6855 23.7974 L -59.6427 23.7519 L -50.2541 23.5055 L -42.9262 23.2065 L -27.271 22.4237 L -17.708 21.9304 L -9.7749 21.5306 L .836 21.0205 L 9.1458 20.6288 L 20.2734 20.0902 L 28.9771 19.6765 L 40.4829 19.1749 L 50.6686 18.7649 L 62.1929 18.2832 L 73.6636 17.7622 L 84.3193 17.2509 L 92.8193 16.8279 L 102.4641 16.3317 L 113.1674 15.7635 L 131.1205 14.8733 L 140.0758 14.5122 L 149.2651 14.1807 L 157.6487 13.8506 L 165.7993 13.4984 L 174.2948 13.1404 L 182.1669 12.8504 L 188.4086 12.6604 L 195.7599 12.4729 L 201.4282 12.3424 L 208.8506 12.18 L 214.0107 12.0771 L 219.4513 11.9835 L 229.1614 11.9128 L 239.4025 12.0993 L 248.2783 12.6506 L 255.4747 13.6379 L 262.4953 15.4775 L 268.3834 18.0116 L 271.4822 19.8318 L 274.3134 21.8491 L 276.7592 23.8701 L 279.3317 26.199 L 281.2701 28.0213 L 283.6307 30.2371 L 285.4637 31.9086 L 287.9245 34.0393 L 290.022 35.7007 L 292.3455 37.3112 L 294.4307 38.5308 L 297.2466 39.8512 L 299.9625 40.8313 L 302.7544 41.6645 L 305.6767 42.388 L 308.96 42.9972 L 312.4373 43.3841 L 319.0837 43.282 L 325.8253 42.1206 L 329.5708 41.1481 L 333.4257 39.9602 L 337.6635 38.488 L 341.7913 36.9627 L 345.2556 35.6438 L 349.9434 33.8066 L 353.6479 32.3044 L 358.3414 30.3328 L 362.2802 28.6189 L 367.6009 26.2235 L 371.8331 24.2692 L 377.5818 21.5844 L 382.1651 19.4423 L 388.0407 16.7036 L 393.3746 14.2204 L 399.6775 11.2882 L 404.5616 9.0134 L 409.9919 6.462 L 416.8654 3.1746 L 422.5789 .3888 L 430.2633 -3.4156 L 436.7615 -6.6791 L 445.3032 -11.055 L 453.0698 -15.1453 L 461.4607 -19.7062 L 469.4835 -24.2121 L 476.0774 -28.0104 L 484.8132 -33.1603 L 491.5576 -37.2412 L 499.8872 -42.4399 L 506.6337 -46.8075 L 515.4219 -52.7122 L 522.1241 -57.3736 L 530.8647 -63.6447 L 537.5391 -68.5571 L 546.2542 -75.1156 L 556.4896 -83.023 L 561.5952 -87.0538 L 570.2397 -94.022 L 578.3422 -100.7191 L 583.3834 -104.9715 L 591.3906 -111.9029 L 598.3152 -118.1208 L 606.0594 -125.3526 L 612.7225 -131.8067 L 620.6912 -139.7611 L 628.1136 -147.3337 L 635.5284 -154.9721 L 643.4206 -163.1024 L 650.9182 -170.7577 L 658.9609 -178.8682 L 667.0786 -186.9446 L 673.8089 -193.5581 L 681.9505 -201.459 L 688.6667 -207.8795 L 701.1417 -219.5044 L 709.845 -227.2796 L 716.1965 -232.716 L 724.1027 -239.179 L 731.1086 -244.5978 L 739.2397 -250.5106 L 745.9208 -255.0814 L 754.7516 -260.7771 L 761.4622 -264.883 L 770.056 -269.8478 L 776.4897 -273.3079 L 783.2786 -276.7018 L 788.9601 -279.3734 L 796.2784 -282.7113 L 803.251 -285.9113 L 810.2953 -289.1328 L 815.4351 -291.4045 L 821.8209 -294.1099 L 827.8317 -296.5862 L 833.5069 -298.9272 L 838.6418 -301.0766 L 843.9335 -303.3152 L 848.452 -305.2195 L 856.9733 -308.7677 L 865.5818 -312.3659 L 874.2305 -316.1015 L 882.1049 -319.6422 L 888.9891 -323.0669 L 895.7491 -327.0226 L 901.207 -330.9328 L 906.0927 -335.5649 L 907.9377 -337.7422 L 909.7548 -340.1712 L 911.5087 -342.8541 L 913.2576 -345.9788 L 914.6765 -348.9835 L 915.8712 -352.0326 L 917.4412 -357.8245 L 917.9692 -361.1651 L 918.2667 -364.5609 L 918.345 -367.8174 L 918.21 -371.3398 L 917.8409 -374.9133 L 917.2512 -378.5358 L 916.6623 -381.3592 L 915.7853 -384.9001 L 914.6929 -388.723 L 913.6175 -392.1552 L 912.5261 -395.4042 L 910.2744 -401.5258 L 908.6247 -405.5569 L 907.3696 -408.4095 L 905.3511 -412.6922 L 903.8025 -415.7866 L 901.7957 -419.593 L 900.0904 -422.6706 L 897.913 -426.4071 L 896.0949 -429.3616 L 893.6385 -433.0826 L 891.0585 -436.604 L 888.5084 -439.7159 L 886.3414 -442.0705 L 883.5479 -444.7392 L 881.1718 -446.7283 L 878.1315 -448.9885 L 875.5852 -450.7087 L 872.1498 -452.8139 L 869.2244 -454.4038 L 865.5506 -456.1436 L 863.3301 -457.0462 L 859.6947 -458.2889 L 856.4386 -459.1672 L 852.6104 -459.9264 L 849.1757 -460.397 L 845.1521 -460.7438 L 841.7988 -460.8847 L 837.5693 -460.8906 L 832.9579 -460.6837 L 828.2193 -460.2352 L 825.3642 -459.8501 L 820.7142 -459.0125 L 815.6813 -457.8204 L 810.8677 -456.4363 L 807.2101 -455.2461 L 801.9523 -453.3896 L 797.8677 -451.8564 L 792.7637 -449.8454 L 787.5504 -447.697 L 782.1725 -445.386 L 776.5756 -442.9073 L 770.697 -440.2904 L 765.2758 -437.9067 L 758.7056 -435.0605 L 753.0727 -432.6529 L 748.1285 -430.5625 L 743.9545 -428.8134 L 737.7298 -426.2288 L 729.2391 -422.7114 L 721.9636 -419.6827 L 713.3405 -416.0881 L 704.3866 -412.3818 L 695.7231 -408.8443 L 687.4319 -405.5084 L 677.7015 -401.6542 L 669.5999 -398.4925 L 658.7995 -394.3431 L 650.4281 -391.176 L 640.0812 -387.3209 L 629.7715 -383.5609 L 620.7784 -380.3777 L 609.9077 -376.6786 L 590.834 -370.5878 L 571.8647 -365.0816 L 561.7828 -362.4663 L 551.0624 -360.0088 L 542.258 -358.2762 L 532.2001 -356.5704 L 523.4398 -355.2674 L 512.8025 -353.8782 L 504.6495 -352.9691 L 494.6217 -352.0544 L 485.7972 -351.4256 L 474.9695 -350.8377 z" stroke-width="28" stroke="black" fill="none" id="Track"/><path d="M 470.4665 -350.797 L 463.3644 -350.5252 L 454.6019 -350.2734 L 449.1203 -350.1538 L 439.7834 -350.0074 L 432.0836 -349.9275 L 422.6738 -349.8575 L 417.0776 -349.8263 L 407.4722 -349.7694 L 399.4528 -349.704 L 390.1427 -349.621 L 382.4568 -349.5771 L 372.2642 -349.5752 L 364.3395 -349.6097 L 353.8089 -349.6744 L 345.0143 -349.7405 L 334.8326 -349.8388 L 326.4783 -349.9424 L 315.4772 -350.1287 L 307.6926 -350.311 L 296.6604 -350.649 L 288.2135 -350.9688 L 277.157 -351.4635 L 266.7175 -352.0174 L 255.6456 -352.7199 L 246.5091 -353.4014 L 236.7103 -354.2367 L 228.8607 -354.9838 L 218.4084 -356.0872 L 209.9074 -357.0721 L 198.7906 -358.4638 L 188.3251 -359.8717 L 177.2033 -361.4688 L 168.6912 -362.761 L 158.2281 -364.4332 L 147.1087 -366.3104 L 135.981 -368.2714 L 125.4936 -370.1114 L 114.3257 -371.9712 L 103.1312 -373.7676 L 92.5891 -375.5128 L 82.0445 -377.3445 L 73.4674 -378.8489 L 62.2367 -380.7763 L 51.0011 -382.6826 L 40.4216 -384.4763 L 31.7958 -385.912 L 21.2004 -387.6139 L 11.9046 -389.0434 L 1.2874 -390.6048 L -7.9562 -391.9219 L -18.4649 -393.4111 L -26.9643 -394.6095 L -38.0044 -396.1122 L -46.4104 -397.1807 L -57.9913 -398.4883 L -65.6794 -399.2141 L -75.881 -399.9749 L -86.6604 -400.5454 L -97.3716 -400.9053 L -106.1583 -401.0724 L -115.5159 -401.1438 L -126.1214 -401.1011 L -136.7645 -400.9272 L -145.5477 -400.6814 L -156.917 -400.226 L -165.8124 -399.7767 L -176.6818 -399.1388 L -187.6363 -398.4113 L -198.0231 -397.6577 L -209.1318 -396.8125 L -220.2492 -395.955 L -231.2252 -395.1182 L -241.8247 -394.32 L -251.9177 -393.5403 L -259.2103 -392.9378 L -268.1038 -392.1319 L -275.8988 -391.361 L -283.3797 -390.5996 L -289.2423 -390.0115 L -294.0925 -389.5308 L -303.5033 -388.5211 L -315.5184 -386.9677 L -327.9265 -385.1265 L -334.5847 -384.0468 L -342.0327 -382.7524 L -347.3229 -381.7689 L -353.7451 -380.4929 L -364.9164 -378.0772 L -371.0966 -376.6372 L -376.4249 -375.3336 L -381.4516 -374.0479 L -385.5858 -372.9497 L -388.8649 -372.0504 L -392.3063 -371.0733 L -394.9294 -370.2963 L -398.0689 -369.3193 L -400.5517 -368.4945 L -403.7006 -367.3534 L -406.0322 -366.4296 L -408.9972 -365.1537 L -411.3912 -364.0403 L -414.0818 -362.6946 L -416.235 -361.5253 L -419.044 -359.8561 L -421.7177 -358.107 L -424.767 -355.9057 L -426.9877 -354.1529 L -429.8824 -351.6354 L -432.0537 -349.5268 L -434.7534 -346.5341 L -436.8242 -343.861 L -439.2053 -340.3554 L -440.9849 -337.4912 L -443.1584 -333.744 L -444.7732 -330.7731 L -446.9139 -326.6091 L -448.6348 -323.0795 L -450.8296 -318.3655 L -452.8402 -313.9132 L -454.8797 -309.5034 L -456.6194 -305.9705 L -459.071 -301.4389 L -461.2874 -297.7959 L -464.2291 -293.4518 L -466.6828 -290.1806 L -470.1487 -285.9613 L -473.0228 -282.8029 L -477.0741 -278.7573 L -480.3978 -275.7373 L -484.7531 -272.1459 L -488.8083 -269.1442 L -493.7186 -265.9179 L -497.9192 -263.4703 L -503.7239 -260.4223 L -508.3704 -258.1493 L -514.6971 -255.2084 L -519.665 -252.9928 L -525.8073 -250.3372 L -531.0992 -248.0794 L -536.9895 -245.4979 L -541.9678 -243.165 L -547.7531 -240.1828 L -552.2978 -237.5939 L -557.5603 -234.2894 L -561.4121 -231.6293 L -565.9807 -228.1727 L -571.1778 -223.7717 L -575.3774 -219.7861 L -578.6697 -216.3285 L -582.7893 -211.5209 L -585.1264 -208.5389 L -588.7349 -203.5407 L -592.1818 -198.2588 L -595.4706 -192.6955 L -599.5972 -184.9883 L -603.4266 -177.2536 L -606.5698 -170.3808 L -608.6816 -165.3585 L -611.5099 -157.981 L -613.1036 -153.5175 L -615.7828 -145.7276 L -617.8843 -139.6236 L -620.5743 -132.0045 L -622.8176 -125.8148 L -625.6934 -118.0651 L -628.3347 -111.0865 L -631.4832 -102.8674 L -634.9338 -93.8653 L -638.4946 -84.5731 L -642.1827 -75.0124 L -645.7698 -65.7866 L -649.4635 -56.3434 L -658.8644 -32.4976 L -665.1826 -16.7772 L -668.7734 -7.9633 L -672.8931 2.1131 L -676.4957 10.92 L -680.8764 21.6197 L -684.2269 29.8015 L -688.3519 39.8699 L -691.968 48.6879 L -696.3074 59.2673 L -699.768 67.7005 L -703.7271 77.2945 L -706.3358 83.5247 L -709.7822 91.5989 L -712.2103 97.2032 L -716.4243 106.9171 L -719.0584 113.1219 L -720.5725 116.8121 L -722.3486 121.308 L -724.158 126.118 L -727.9477 137.2809 L -729.3941 142.2085 L -729.9436 144.2495 L -731.0888 148.9427 L -732.4835 156.0276 L -733.1674 161.07 L -733.535 165.8397 L -733.6266 170.9678 L -733.4273 176.142 L -732.9382 182.0214 L -732.3656 187.0606 L -731.8064 191.1973 L -730.9678 196.6444 L -730.1709 201.1571 L -729.1277 206.3248 L -728.1041 210.8496 L -726.8547 216.0049 L -725.7833 220.4799 L -724.691 225.5506 L -723.9354 229.9459 L -723.14 238.6039 L -723.1476 243.4688 L -723.4053 247.3711 L -724.0252 252.1143 L -724.8286 256.2207 L -726.1006 261.1694 L -727.2913 264.9137 L -729.158 269.7218 L -730.8224 273.3136 L -733.2977 277.8827 L -735.4026 281.2935 L -738.403 285.6692 L -740.8885 288.9491 L -744.17 292.9012 L -747.2297 296.2799 L -750.9363 300.0523 L -754.0751 303.0643 L -758.2978 306.955 L -761.3478 309.6759 L -765.7667 313.4949 L -769.2322 316.3849 L -773.6096 319.8944 L -778.1359 323.3753 L -782.8478 326.8815 L -786.827 329.781 L -791.9359 333.4209 L -797.9662 337.5982 L -803.5558 341.3992 L -809.708 345.554 L -815.6834 349.5882 L -821.789 353.7387 L -828.4235 358.2977 L -832.3873 361.0425 L -838.7692 365.4946" stroke-width="12" stroke="#e73323" fill="none" id="S1"/><path d="M -841.554 367.4548 L -845.4965 370.2565 L -851.6567 374.7325 L -856.8615 378.6375 L -867.0458 386.6508 L -871.2536 390.0988 L -875.1249 393.3413 L -879.5186 397.1083 L -882.9365 400.0905 L -887.004 403.6794 L -890.7474 407.0322 L -894.2038 410.1956 L -897.2042 413.032 L -901.798 417.631 L -905.8053 422.0863 L -909.2778 426.5521 L -911.0156 429.0805 L -912.7225 431.8446 L -914.1938 434.5354 L -915.5071 437.3187 L -916.5132 439.8363 L -917.4599 442.8034 L -918.5049 447.8204 L -918.8676 453.7639 L -918.2527 459.4317 L -916.6204 465.1362 L -915.3401 468.0695 L -913.6761 471.0609 L -912.077 473.4067 L -910.0047 475.9373 L -907.6697 478.3152 L -904.8945 480.6732 L -901.9905 482.7244 L -898.7989 484.6003 L -895.7798 486.0676 L -891.8485 487.5996 L -888.6644 488.593 L -884.298 489.7039 L -881.6274 490.2794 L -877.1978 491.0812 L -873.4542 491.6029 L -868.4099 492.0587 L -864.5056 492.1682 L -859.399 491.978 L -855.1341 491.626 L -850.4835 491.1537 L -846.056 490.6856 L -840.5678 490.0982 L -836.6214 489.6484 L -830.8806 488.9149 L -826.0346 488.2131 L -820.3659 487.2978 L -815.6475 486.468 L -809.2856 485.2753 L -804.2123 484.2855 L -797.6393 482.9843 L -790.1758 481.4996 L -782.1992 479.9211 L -775.8033 478.6792 L -767.0679 477.037 L -758.4375 475.4814 L -748.836 473.8261 L -738.8023 472.1552 L -729.6277 470.6563 L -721.415 469.336 L -710.3709 467.6159 L -701.7048 466.3217 L -690.2932 464.6837 L -681.551 463.4674 L -670.1549 461.8985 L -661.5313 460.6997 L -650.4366 459.1399 L -639.5603 457.634 L -628.9023 456.2224 L -616.6216 454.722 L -596.9693 452.7625 L -589.431 452.1911 L -580.2747 451.6409 L -572.8977 451.3022 L -563.2418 450.9892 L -555.8199 450.8556 L -545.4969 450.8611 L -538.0011 451.0222 L -528.1139 451.4244 L -518.6984 451.9778 L -509.1743 452.7329 L -501.3687 453.5234 L -490.4889 454.8783 L -482.5449 456.0535 L -472.0779 457.8159 L -464.0081 459.3238 L -453.3983 461.4784 L -445.2806 463.2216 L -434.7594 465.5314 L -426.9986 467.203 L -417.5478 469.1243 L -412.9209 470.005 L -404.433 471.5515 L -398.8565 472.5467 L -392.1265 473.7452 L -385.7057 474.8909 L -380.949 475.7271 L -377.2355 476.3447 L -372.9111 476.9814 L -369.3811 477.4194 L -364.6917 477.8782 L -361.0481 478.1234 L -356.2131 478.2835 L -352.4675 478.2654 L -347.8291 478.056 L -343.7416 477.6795 L -339.0498 477.002 L -335.254 476.231 L -330.0896 474.8113 L -326.4243 473.5224 L -321.9778 471.6546 L -318.4191 469.9426 L -314.0982 467.6252 L -309.6058 464.9343 L -305.4792 462.1864 L -301.458 459.235 L -297.5526 456.085 L -294.4649 453.377 L -290.5319 449.6198 L -287.6278 446.5803 L -284.2065 442.6365 L -281.3531 439.0078 L -278.265 434.6788 L -275.1829 429.8939 L -270.0005 420.789 L -265.3524 411.6413 L -261.2988 402.4525 L -257.6973 392.4118 L -256.6123 388.9044 L -255.268 384.2234 L -253.6017 377.8653 L -252.3201 372.4337 L -250.8966 365.5838 L -249.9219 360.1541 L -248.8767 353.264 L -248.1085 347.0314 L -247.4121 339.6815 L -246.9757 333.0673 L -246.6801 324.8065 L -246.6402 318.3301 L -246.8456 309.6644 L -247.2056 302.8948 L -247.9578 293.8626 L -248.7562 286.8222 L -250.0032 278.0085 L -251.3333 270.1654 L -253.2396 260.4819 L -255.0094 252.3759 L -257.2112 242.9551 L -259.2554 234.6119 L -261.6915 224.9143 L -263.8423 216.3837 L -266.4353 206.0241 L -268.3483 198.3089 L -270.6771 188.8364 L -272.3035 182.1795 L -274.2228 174.3057 L -275.5316 168.9061 L -276.936 162.8943 L -277.9209 158.388 L -278.9806 153.1428 L -279.8121 148.6988 L -280.6805 143.7233 L -281.3588 139.4514 L -282.0239 134.6289 L -282.5549 129.8382 L -282.9385 124.7755 L -283.0583 121.8076 L -283.079 116.4249 L -282.9658 112.4528 L -282.6506 107.129 L -282.2117 102.6384 L -281.3764 96.7439 L -280.3236 91.0308 L -279.1003 85.5314 L -277.4042 79.2301 L -275.8274 74.2694 L -273.746 68.5597 L -271.7031 63.5356 L -269.1529 57.7979 L -266.7419 52.8417 L -263.9742 47.6417 L -261.2404 42.9026 L -257.9772 37.6231 L -254.383 32.2006 L -250.8737 27.3268 L -244.8382 20.0482 L -240.3762 15.6021 L -236.1888 12.159 L -231.5113 9.1418 L -226.6609 6.873 L -222.8973 5.612 L -217.9954 4.3959 L -213.4508 3.5928 L -208.9933 3.0973 L -205.4072 2.9222 L -201.0175 3.0245 L -197.455 3.3582 L -192.8047 4.1083 L -189.2557 4.8943 L -184.6207 6.1626 L -181.0677 7.2679 L -176.3475 8.8096 L -172.64 10 L -167.9622 11.4189 L -164.0666 12.5143 L -158.8129 13.87 L -154.6663 14.8587 L -149.0449 16.0901 L -144.212 17.0317 L -138.0666 18.0951 L -132.7571 18.9084 L -126.3653 19.7728 L -120.4845 20.4649 L -112.9913 21.2382 L -107.0168 21.7879 L -99.4108 22.4044 L -93.053 22.8417 L -84.5074 23.3145 L -77.281 23.6052 L -68.2952 23.7886 L -61.2796 23.7744 L -52.4833 23.5799 L -44.6339 23.2825 L -34.8885 22.8165 L -29.0413 22.5155 L -19.5179 22.0231 L -11.6181 21.6223 L -1.6831 21.1391 L 7.2114 20.7207 L 18.287 20.1868 L 26.9564 19.7705 L 38.448 19.2593 L 48.6324 18.8465 L 60.1611 18.3712 L 71.6469 17.8563 L 81.6712 17.38" stroke-width="12" stroke="#4fafdf" fill="none" id="S2"/><path d="M 86.2887 17.154 L 96.696 16.6306 L 106.8975 16.0974 L 116.8777 15.5678 L 125.3151 15.1415 L 135.0829 14.7054 L 143.8949 14.3737 L 152.4467 14.0611 L 160.7251 13.7194 L 169.3121 13.347 L 177.2662 13.0246 L 185.5506 12.7432 L 191.6785 12.5733 L 198.8461 12.401 L 204.3699 12.2766 L 211.2448 12.1309 L 216.7474 12.0274 L 220.5983 11.9672 L 225.4935 11.9193 L 231.6585 11.9267 L 236.1352 11.9996 L 241.5951 12.1933 L 245.4643 12.4215 L 249.9041 12.8158 L 253.268 13.2576 L 257.1263 13.9785 L 260.3071 14.787 L 263.7751 15.9383 L 266.6351 17.1429 L 269.6925 18.7344 L 272.6787 20.6422 L 275.2532 22.5946 L 277.7775 24.776 L 280.3038 27.1089 L 282.2367 28.9343 L 284.6122 31.1391 L 286.4673 32.7962 L 288.9643 34.8848 L 290.9419 36.3693 L 293.4578 37.9887 L 295.5786 39.112 L 298.2572 40.2429 L 301.1727 41.2085 L 304.0126 41.9963 L 307.0029 42.6599 L 310.3751 43.1904 L 313.907 43.4576 L 316.687 43.4477 L 320.628 43.1001 L 323.5392 42.6137 L 327.2174 41.7816 L 331.0016 40.7275 L 335.1526 39.3778 L 339.4527 37.8336 L 343.6438 36.2614 L 347.165 34.9035 L 351.6449 33.1225 L 355.3889 31.5821 L 360.1429 29.5556 L 364.4405 27.6563 L 369.5337 25.3355 L 374.1655 23.1815 L 379.6809 20.6028 L 384.704 18.258 L 390.6848 15.4726 L 395.7091 13.134 L 402.1033 10.1597 L 405.8038 8.4325 L 412.5418 5.2509 L 418.6019 2.3325 L 425.7179 -1.1583 L 432.1015 -4.334 L 440.0539 -8.3526 L 448.6846 -12.8212 L 456.5078 -16.9954 L 464.9525 -21.6503 L 473.0234 -26.2416 L 479.6627 -30.1071 L 488.441 -35.3427 L 495.2002 -39.4903 L 503.5154 -44.7706 L 510.263 -49.2172 L 518.5225 -54.8514 L 525.7256 -59.9324 L 533.9473 -65.9008 L 540.6281 -70.8639 L 549.8614 -77.8763 L 563.1304 -88.2785 L 571.7612 -95.2679 L 580.3617 -102.4141 L 586.397 -107.5512 L 594.8608 -114.9906 L 601.2417 -120.8184 L 609.3987 -128.5621 L 615.5482 -134.6009 L 623.477 -142.5894 L 630.8948 -150.194 L 638.77 -158.3162 L 646.224 -165.9749 L 654.2205 -174.1015 L 662.3009 -182.2041 L 668.9946 -188.8349 L 677.1517 -196.8157 L 683.8665 -203.3006 L 691.5359 -210.5913 L 704.5176 -222.5609 L 719.1484 -235.1702 L 734.1415 -246.8508 L 749.5525 -257.4678 L 765.024 -266.9841 L 779.9035 -275.0461 L 786.1385 -278.0619 L 791.7433 -280.6478 L 798.9346 -283.9251 L 806.1948 -287.2662 L 812.6975 -290.2055 L 818.1099 -292.5522 L 824.3379 -295.1509 L 830.197 -297.558 L 835.7769 -299.874 L 840.843 -302.006 L 845.7548 -304.0855 L 850.527 -306.0869 L 854.3505 -307.6779 L 859.0056 -309.613 L 862.7367 -311.1677 L 867.5579 -313.2058 L 871.4736 -314.895 L 875.8577 -316.8201 L 879.3 -318.3576 L 883.5922 -320.3436 L 886.7018 -321.8731 L 890.5397 -323.9131 L 893.5185 -325.6354 L 896.9247 -327.7929 L 899.3928 -329.5279 L 902.2558 -331.8083 L 904.5676 -333.9539 L 906.9642 -336.5604 L 908.4741 -338.4274 L 910.48 -341.2353 L 912.2593 -344.1306 L 915.1525 -350.1223 L 916.2558 -353.1836 L 916.9666 -355.6899 L 917.6871 -359.1929 L 918.1191 -362.5568 L 918.319 -365.7748 L 918.3171 -369.2605 L 918.0867 -372.8046 L 917.6238 -376.3962 L 917.0827 -379.3993 L 916.3519 -382.6786 L 915.3542 -386.4644 L 914.2745 -390.0895 L 913.3904 -392.8488 L 912.0342 -396.8078 L 909.6126 -403.185 L 906.6031 -410.074 L 902.9367 -417.4536 L 899.1469 -424.3148 L 897.0787 -427.7809 L 895.097 -430.9155 L 892.5933 -434.5576 L 889.957 -437.9921 L 885.136 -443.2699 L 879.8556 -447.7386 L 874.1857 -451.5966 L 867.942 -455.045 L 864.8879 -456.4244 L 861.7513 -457.6209 L 858.0768 -458.7526 L 854.7769 -459.5312 L 850.9041 -460.1826 L 847.6807 -460.5496 L 843.3553 -460.8352 L 839.9625 -460.9099 L 835.6863 -460.8339 L 831.023 -460.5285 L 824.5004 -459.7146 L 819.8353 -458.8244 L 814.7829 -457.5797 L 809.0439 -455.8552 L 805.0574 -454.5038 L 800.0742 -452.6936 L 795.9647 -451.1177 L 790.8243 -449.0573 L 785.5568 -446.8506 L 779.7569 -444.3223 L 774.407 -441.94 L 762.8608 -436.8553 L 746.7492 -429.9829 L 742.5397 -428.2238 L 734.7759 -425.0066 L 727.7017 -422.0726 L 718.7671 -418.3495 L 710.0175 -414.7079 L 700.9428 -410.9692 L 693.3735 -407.894 L 683.8062 -404.0648 L 675.8446 -400.9257 L 665.179 -396.785 L 656.872 -393.6102 L 645.9064 -389.4824 L 635.5703 -385.6637 L 625.2738 -381.9558 L 616.9321 -379.0497 L 605.4467 -375.2086 L 596.5374 -372.3557 L 586.4019 -369.2462 L 577.5396 -366.659 L 568.0835 -364.0707 L 557.3737 -361.4105 L 546.6613 -359.1117 L 538.4924 -357.6071 L 527.8256 -355.9012 L 519.056 -354.6688 L 509.0447 -353.4412 L 500.2761 -352.5426 L 490.2191 -351.7216 L 483.8965 -351.3091 L 473.0476 -350.7508" stroke-width="12" stroke="#f7d347" fill="none" id="S3"/></svg>