<svg class="track" xmlns="http://www.w3.org/2000/svg" preserveAspectRatio="xMinYMid meet" height="320" width="600" viewBox="-1000 -500 1 1100">
  <path d="m470.466-350.797-7.102.272-8.762.252-5.482.12-9.337.146-7.7.08-9.41.07-5.595.03-9.606.058-8.02.065-9.31.083-7.685.044-10.193.002-7.925-.035-10.53-.064-8.795-.067-10.181-.098-8.355-.103-11-.187-7.785-.182-11.033-.338-8.447-.32-11.056-.495-10.44-.553-11.071-.703-9.137-.681-9.799-.836-7.85-.747-10.452-1.103-8.5-.985-11.117-1.392-10.466-1.408-11.122-1.597-8.512-1.292-10.463-1.672-11.12-1.877-11.127-1.961-10.487-1.84-11.168-1.86-11.195-1.797-10.542-1.745-10.544-1.832-8.578-1.504-11.23-1.927L51-382.683l-10.58-1.793-8.625-1.436-10.596-1.702-9.295-1.43-10.618-1.56-9.243-1.318-10.509-1.49-8.5-1.198-11.04-1.502-8.405-1.069-11.581-1.307-7.688-.726-10.202-.76-10.78-.571-10.71-.36-8.787-.167-9.358-.072-10.605.043-10.644.174-8.783.246-11.369.455-8.895.45-10.87.637-10.954.728-10.387.753-11.109.846-11.117.857-10.976.837-10.6.798-10.093.78-7.292.602-8.894.806-7.795.771-7.48.761-5.863.589-4.85.48-9.411 1.01-12.015 1.553-12.409 1.841-6.658 1.08-7.448 1.295-5.29.983-6.422 1.276-11.171 2.416-6.18 1.44-5.329 1.303-5.027 1.286-4.134 1.098-3.279.9-3.441.977-2.623.777-3.14.977-2.483.825-3.149 1.14-2.331.924-2.965 1.276-2.394 1.114-2.69 1.345-2.154 1.17-2.809 1.669-2.674 1.749-3.049 2.201-2.22 1.753-2.895 2.518-2.172 2.108-2.7 2.993-2.07 2.673-2.381 3.506-1.78 2.864-2.173 3.747-1.615 2.97-2.14 4.165-1.722 3.53-2.195 4.714-2.01 4.452-2.04 4.41-1.74 3.532-2.451 4.532-2.216 3.643-2.942 4.344-2.454 3.271-3.466 4.22-2.874 3.158-4.051 4.046-3.324 3.02-4.355 3.591-4.055 3.002-4.91 3.226-4.201 2.448-5.805 3.048-4.646 2.273-6.327 2.94-4.968 2.216-6.142 2.656-5.292 2.258-5.89 2.581-4.979 2.333-5.785 2.982-4.545 2.59-5.262 3.304-3.852 2.66-4.569 3.456-5.197 4.401-4.2 3.986-3.292 3.458-4.12 4.807-2.336 2.982-3.609 4.998-3.447 5.282-3.289 5.563-4.126 7.708-3.83 7.734-3.143 6.873-2.112 5.023-2.828 7.377-1.594 4.463-2.679 7.79-2.101 6.104-2.69 7.62-2.244 6.19-2.875 7.749-2.642 6.978-3.148 8.22-3.45 9.002-3.562 9.292-3.688 9.56-3.587 9.226-3.693 9.444-9.401 23.845-6.319 15.72-3.59 8.815-4.12 10.076-3.603 8.807-4.38 10.7-3.35 8.181-4.126 10.069-3.616 8.818-4.34 10.58-3.46 8.433-3.96 9.594-2.608 6.23-3.446 8.074-2.428 5.604-4.214 9.714-2.634 6.205-1.514 3.69-1.777 4.496-1.809 4.81-3.79 11.163-1.446 4.927-.55 2.042-1.145 4.693-1.394 7.085-.684 5.042-.368 4.77-.092 5.128.2 5.174.489 5.88.572 5.039.56 4.136.838 5.447.797 4.513 1.043 5.168 1.024 4.525 1.25 5.155 1.07 4.475 1.093 5.07.756 4.396.795 8.658-.008 4.865-.257 3.902-.62 4.743-.804 4.107-1.272 4.948-1.19 3.745-1.867 4.808-1.664 3.592-2.476 4.569-2.105 3.41-3 4.376-2.486 3.28-3.281 3.952-3.06 3.379-3.706 3.772-3.14 3.012-4.222 3.891-3.05 2.72-4.419 3.82-3.465 2.89-4.378 3.51-4.526 3.48-4.712 3.507-3.979 2.899-5.109 3.64-6.03 4.177-5.59 3.801-6.152 4.155-5.975 4.034-6.106 4.15-6.635 4.56-3.963 2.745-6.382 4.452-10.22 7.282-8.964 6.696-4.29 3.338-5.8 4.65-7.936 6.605-7.733 6.705-4.024 3.56-3.876 3.485-3.143 2.894-2.95 2.807-1.948 1.919-2.732 2.814-1.695 1.846-2.107 2.45-1.707 2.145-1.72 2.33-1.816 2.702-1.674 2.785-1.35 2.544-1.356 2.978-.898 2.356-.904 2.986-.448 1.91-.549 3.328-.223 2.58-.008 3.36.217 2.55.53 3.101.641 2.488 1.125 3.19 1.35 2.907 1.627 2.788 1.641 2.32 2.263 2.651 2.401 2.341 2.673 2.184 2.958 2.02 3.456 1.947 3.077 1.416 3.755 1.389 3.217.961 4.404 1.08 2.693.559 4.467.77 4.06.524 4.775.368 4.2.05 4.82-.24 4.278-.377 4.985-.516 4.13-.437 5.508-.594 4.305-.503 5.433-.715 4.868-.721 5.698-.938 5.114-.915 6.04-1.146 5.12-1.004 6.651-1.318 7.556-1.503 8.067-1.592 6.442-1.244 8.814-1.645 9.264-1.654 9.12-1.559 10.1-1.674 9.243-1.506 8.896-1.422 10.483-1.617 9.348-1.383 10.751-1.53 8.746-1.212 11.373-1.566 8.598-1.2 11.697-1.643 10.83-1.488 9.992-1.307 6.16-.762 10.293-1.168 5.968-.605 9.981-.876 6.933-.498 9.129-.521 7.948-.34 9.105-.266 7.987-.113 9.768.05 7.51.193 9.906.436 9.43.587 9.542.799 8.41.896 10.313 1.339 8.56 1.309 9.873 1.706 8.7 1.661 9.99 2.061 8.14 1.762 10.457 2.294 7.68 1.64 14.306 2.801 7.843 1.419 5.891 1.05 6.583 1.173 5.923 1.056 4.649.811 3.647.594 4.315.616 3.544.422 4.701.433 3.655.221 4.847.126 4.037-.058 4.653-.265 3.8-.394 4.98-.786 3.784-.836 4.86-1.419 3.654-1.338 4.431-1.92 3.551-1.75 4.305-2.357 4.473-2.733 4.361-2.968 3.748-2.808 6.956-5.93 6.786-6.871 6.212-7.645 3.057-4.368 3.045-4.813 2.373-4.083 2.769-5.064 2.195-4.24 2.414-4.936 1.86-4.089 2.138-5.144 1.723-4.63 2.892-9.008 1.43-5.088 1.64-6.416 1.169-5.09 1.394-6.897.949-5.458 1.071-7.386.68-5.83.692-7.86.389-6.671.232-8.313-.005-6.017-.257-8.698-.441-7.33-.772-8.536-.843-7.066-1.392-9.404-1.289-7.314-1.957-9.711-1.802-8.128-2.375-10.033-1.923-7.786-2.596-10.311-2.002-7.95-2.58-10.328-2.03-8.2-2.15-8.765-1.595-6.53-1.879-7.709-1.274-5.28-1.364-5.908-1.024-4.775-1.025-5.186-.756-4.106-.902-5.263-.61-3.953-.641-4.814-.53-5.083-.42-8.026.022-5.103.152-4.3.366-5.361.492-4.514.843-5.596 1.096-5.736 1.359-5.87 1.67-5.974 1.626-4.967 2.276-6.072 1.94-4.67 2.762-6.084 2.276-4.58 2.997-5.515 2.57-4.378 3.285-5.249 3.617-5.382 3.535-4.825 2.06-2.592 4.271-4.837 4.263-4.098 4.227-3.34 4.996-3.037 4.88-2.093 3.765-1.157 4.601-1.067 4.533-.746 4.44-.438 3.58-.124 4.663.19 3.289.362 4.646.808 3.548.825 4.905 1.393 3.563 1.131 4.47 1.462 3.726 1.185 5 1.492 3.622.997 5.285 1.342 4.504 1.055 5.68 1.21 4.886.923 6.22 1.044 4.991.743 6.873.9 5.523.63 7.56.762 6.022.541 8.137.637 6.407.418 8.603.444 6.75.245 9.025.144 7.043-.045 9.389-.246 7.328-.3 15.655-.782 9.563-.494 7.933-.4 10.611-.51 8.31-.391 11.127-.539 8.704-.413 11.506-.502 10.186-.41 11.524-.482 11.47-.52 10.656-.512 8.5-.423 9.645-.496 10.703-.569 17.953-.89 8.956-.36 9.19-.332 8.383-.33 8.15-.353 8.496-.358 7.872-.29 6.242-.19 7.35-.187 5.67-.13 7.422-.163 5.16-.103 5.44-.094 9.71-.07 10.242.186 8.875.552 7.197.987 7.02 1.84 5.888 2.534 3.1 1.82 2.83 2.017 2.446 2.021 2.573 2.329 1.938 1.822 2.36 2.216 1.834 1.672 2.46 2.13 2.098 1.662 2.324 1.61 2.085 1.22 2.816 1.32 2.715.98 2.792.833 2.923.724 3.283.61 3.477.386 6.647-.102 6.741-1.161 3.746-.973 3.855-1.188 4.238-1.472 4.127-1.525 3.465-1.32 4.687-1.836 3.705-1.503 4.693-1.971 3.94-1.714 5.32-2.395 4.232-1.955 5.749-2.685 4.583-2.142 5.876-2.738 5.334-2.484 6.303-2.932 4.884-2.275 5.43-2.551 6.873-3.287L422.58.389l7.684-3.805 6.499-3.263 8.541-4.376 7.767-4.09 8.39-4.561 8.024-4.506 6.593-3.798 8.736-5.15 6.745-4.081 8.33-5.199 6.746-4.367 8.788-5.905 6.702-4.662 8.74-6.27 6.675-4.913 8.715-6.559 10.236-7.907 5.105-4.03 8.645-6.969 8.102-6.697 5.041-4.253 8.008-6.93 6.924-6.219 7.744-7.232 6.663-6.454 7.97-7.954 7.422-7.573 7.414-7.638 7.893-8.13 7.497-7.656 8.043-8.11 8.118-8.077 6.73-6.613 8.142-7.901 6.716-6.42 12.475-11.625 8.703-7.776 6.351-5.436 7.907-6.463 7.006-5.419 8.13-5.913 6.682-4.57 8.83-5.696 6.711-4.106 8.594-4.965 6.434-3.46 6.789-3.394 5.681-2.671 7.318-3.338 6.973-3.2 7.044-3.222 5.14-2.272 6.386-2.705 6.01-2.476 5.676-2.341 5.135-2.15 5.291-2.238 4.519-1.904 8.521-3.549 8.609-3.598 8.649-3.736 7.874-3.54 6.884-3.425 6.76-3.956 5.458-3.91 4.886-4.632 1.845-2.177 1.817-2.43 1.754-2.682 1.749-3.125 1.418-3.005 1.195-3.049 1.57-5.791.528-3.341.298-3.396.078-3.256-.135-3.523-.37-3.573-.589-3.623-.589-2.823-.877-3.541-1.092-3.823-1.076-3.432-1.09-3.25-2.253-6.12-1.65-4.032-1.254-2.852-2.019-4.283-1.548-3.095-2.007-3.806-1.706-3.078-2.177-3.736-1.818-2.955-2.457-3.72-2.58-3.522-2.55-3.112-2.167-2.354-2.793-2.67-2.376-1.988-3.04-2.26-2.547-1.72-3.435-2.106-2.926-1.59-3.673-1.74-2.22-.902-3.636-1.243-3.256-.878-3.829-.76-3.434-.47-4.024-.347-3.353-.14-4.23-.007-4.611.207-4.739.449-2.855.385-4.65.838-5.033 1.192-4.813 1.384-3.658 1.19-5.258 1.856-4.084 1.534-5.104 2.01-5.214 2.149-5.377 2.311-5.597 2.479-5.879 2.617-5.421 2.383-6.57 2.846-5.633 2.408-4.944 2.09-4.174 1.75-6.225 2.584-8.49 3.518-7.276 3.028-8.624 3.595-8.953 3.706-8.664 3.538-8.291 3.336-9.73 3.854-8.102 3.161-10.8 4.15-8.372 3.167-10.347 3.855-10.31 3.76-8.993 3.183-10.87 3.7-19.074 6.09-18.97 5.506-10.081 2.616-10.72 2.457-8.805 1.733-10.058 1.706-8.76 1.303-10.638 1.389-8.153.909-10.027.915-8.825.628-10.828.588z" stroke-width="28" stroke="#000" fill="none"/>
  <path d="m470.466-350.797-7.102.272-8.762.252-5.482.12-9.337.146-7.7.08-9.41.07-5.595.03-9.606.058-8.02.065-9.31.083-7.685.044-10.193.002-7.925-.035-10.53-.064-8.795-.067-10.181-.098-8.355-.103-11-.187-7.785-.182-11.033-.338-8.447-.32-11.056-.495-10.44-.553-11.071-.703-9.137-.681-9.799-.836-7.85-.747-10.452-1.103-8.5-.985-11.117-1.392-10.466-1.408-11.122-1.597-8.512-1.292-10.463-1.672-11.12-1.877-11.127-1.961-10.487-1.84-11.168-1.86-11.195-1.797-10.542-1.745-10.544-1.832-8.578-1.504-11.23-1.927L51-382.683l-10.58-1.793-8.625-1.436-10.596-1.702-9.295-1.43-10.618-1.56-9.243-1.318-10.509-1.49-8.5-1.198-11.04-1.502-8.405-1.069-11.581-1.307-7.688-.726-10.202-.76-10.78-.571-10.71-.36-8.787-.167-9.358-.072-10.605.043-10.644.174-8.783.246-11.369.455-8.895.45-10.87.637-10.954.728-10.387.753-11.109.846-11.117.857-10.976.837-10.6.798-10.093.78-7.292.602-8.894.806-7.795.771-7.48.761-5.863.589-4.85.48-9.411 1.01-12.015 1.553-12.409 1.841-6.658 1.08-7.448 1.295-5.29.983-6.422 1.276-11.171 2.416-6.18 1.44-5.329 1.303-5.027 1.286-4.134 1.098-3.279.9-3.441.977-2.623.777-3.14.977-2.483.825-3.149 1.14-2.331.924-2.965 1.276-2.394 1.114-2.69 1.345-2.154 1.17-2.809 1.669-2.674 1.749-3.049 2.201-2.22 1.753-2.895 2.518-2.172 2.108-2.7 2.993-2.07 2.673-2.381 3.506-1.78 2.864-2.173 3.747-1.615 2.97-2.14 4.165-1.722 3.53-2.195 4.714-2.01 4.452-2.04 4.41-1.74 3.532-2.451 4.532-2.216 3.643-2.942 4.344-2.454 3.271-3.466 4.22-2.874 3.158-4.051 4.046-3.324 3.02-4.355 3.591-4.055 3.002-4.91 3.226-4.201 2.448-5.805 3.048-4.646 2.273-6.327 2.94-4.968 2.216-6.142 2.656-5.292 2.258-5.89 2.581-4.979 2.333-5.785 2.982-4.545 2.59-5.262 3.304-3.852 2.66-4.569 3.456-5.197 4.401-4.2 3.986-3.292 3.458-4.12 4.807-2.336 2.982-3.609 4.998-3.447 5.282-3.289 5.563-4.126 7.708-3.83 7.734-3.143 6.873-2.112 5.023-2.828 7.377-1.594 4.463-2.679 7.79-2.101 6.104-2.69 7.62-2.244 6.19-2.875 7.749-2.642 6.978-3.148 8.22-3.45 9.002-3.562 9.292-3.688 9.56-3.587 9.226-3.693 9.444-9.401 23.845-6.319 15.72-3.59 8.815-4.12 10.076-3.603 8.807-4.38 10.7-3.35 8.181-4.126 10.069-3.616 8.818-4.34 10.58-3.46 8.433-3.96 9.594-2.608 6.23-3.446 8.074-2.428 5.604-4.214 9.714-2.634 6.205-1.514 3.69-1.777 4.496-1.809 4.81-3.79 11.163-1.446 4.927-.55 2.042-1.145 4.693-1.394 7.085-.684 5.042-.368 4.77-.092 5.128.2 5.174.489 5.88.572 5.039.56 4.136.838 5.447.797 4.513 1.043 5.168 1.024 4.525 1.25 5.155 1.07 4.475 1.093 5.07.756 4.396.795 8.658-.008 4.865-.257 3.902-.62 4.743-.804 4.107-1.272 4.948-1.19 3.745-1.867 4.808-1.664 3.592-2.476 4.569-2.105 3.41-3 4.376-2.486 3.28-3.281 3.952-3.06 3.379-3.706 3.772-3.14 3.012-4.222 3.891-3.05 2.72-4.419 3.82-3.465 2.89-4.378 3.51-4.526 3.48-4.712 3.507-3.979 2.899-5.109 3.64-6.03 4.177-5.59 3.801-6.152 4.155-5.975 4.034-6.106 4.15-6.635 4.56-3.963 2.745-6.382 4.452" stroke-width="12" stroke="#e73323" fill="none"/>
  <path d="m-841.554 367.455-3.942 2.802-6.16 4.476-5.206 3.904-10.184 8.014-4.208 3.448-3.87 3.242-4.395 3.767-3.418 2.983-4.067 3.588-3.743 3.353-3.457 3.164-3 2.836-4.594 4.599-4.007 4.455-3.473 4.466-1.738 2.528-1.707 2.765-1.47 2.69-1.314 2.784-1.006 2.517-.947 2.967-1.045 5.017-.363 5.944.615 5.668 1.633 5.704 1.28 2.933 1.664 2.992 1.599 2.346 2.072 2.53 2.335 2.378 2.775 2.358 2.904 2.051 3.192 1.876 3.02 1.468 3.93 1.532 3.185.993 4.366 1.11 2.67.576 4.43.802 3.744.522 5.044.456 3.904.11 5.107-.191 4.265-.352 4.65-.472 4.428-.468 5.488-.588 3.947-.45 5.74-.733 4.846-.702 5.67-.915 4.717-.83 6.362-1.193 5.074-.99 6.573-1.3 7.463-1.485 7.977-1.579 6.396-1.242 8.735-1.642 8.63-1.556 9.602-1.655 10.034-1.67 9.174-1.5 8.213-1.32 11.044-1.72 8.666-1.294 11.412-1.638 8.742-1.217 11.396-1.568 8.624-1.2 11.094-1.56 10.877-1.505 10.658-1.412 12.28-1.5 19.653-1.96 7.538-.57 9.156-.551 7.377-.339 9.656-.313 7.422-.133 10.323.005 7.496.161 9.887.402 9.416.554 9.524.755 7.805.79 10.88 1.355 7.944 1.175 10.467 1.763 8.07 1.508 10.61 2.154 8.117 1.744 10.522 2.31 7.76 1.671 9.451 1.921 4.627.881 8.488 1.546 5.577.996 6.73 1.198 6.42 1.146 4.757.836 3.714.618 4.324.636 3.53.438 4.69.46 3.643.244 4.835.16 3.746-.018 4.638-.209 4.087-.376 4.692-.678 3.796-.771 5.164-1.42 3.666-1.289 4.446-1.867 3.559-1.712 4.32-2.318 4.493-2.69 4.127-2.749 4.021-2.951 3.905-3.15 3.088-2.708 3.933-3.757 2.904-3.04 3.421-3.943 2.854-3.63 3.088-4.328 3.082-4.785 5.183-9.105 4.648-9.148 4.053-9.189 3.602-10.04 1.085-3.508 1.344-4.68 1.666-6.359 1.282-5.431 1.423-6.85.975-5.43 1.045-6.89.769-6.233.696-7.35.436-6.614.296-8.26.04-6.477-.206-8.666-.36-6.77-.752-9.031-.798-7.04-1.247-8.814-1.33-7.844-1.907-9.683-1.77-8.106-2.201-9.42-2.044-8.344-2.437-9.698-2.15-8.53-2.593-10.36-1.913-7.715-2.33-9.473-1.625-6.657-1.92-7.873-1.309-5.4-1.404-6.012-.985-4.506-1.06-5.245-.831-4.444-.868-4.976-.679-4.272-.665-4.822-.53-4.79-.385-5.064-.12-2.967-.02-5.383.113-3.972.315-5.324.44-4.49.835-5.895 1.052-5.713 1.224-5.5 1.696-6.3 1.577-4.962 2.081-5.71 2.043-5.023 2.55-5.738 2.411-4.956 2.768-5.2 2.734-4.74 3.263-5.279 3.594-5.422 3.51-4.874 6.035-7.279 4.462-4.446 4.187-3.443 4.678-3.017 4.85-2.269 3.764-1.261 4.902-1.216 4.544-.803 4.458-.496 3.586-.175 4.39.103 3.562.333 4.65.75 3.55.786 4.634 1.269 3.553 1.105 4.72 1.542 3.708 1.19 4.678 1.419 3.895 1.095 5.254 1.356 4.147.989 5.621 1.231 4.833.942 6.145 1.063 5.31.813 6.392.865 5.88.692 7.494.773 5.974.55 7.606.616 6.358.438 8.546.473 7.226.29 8.986.184 7.015-.015 8.797-.194 7.85-.297 9.745-.466 5.847-.302 9.523-.492 7.9-.4 9.935-.484 8.894-.418 11.076-.534 8.67-.417 11.491-.51 10.184-.414 11.53-.475 11.485-.515 10.024-.476" stroke-width="12" stroke="#4fafdf" fill="none"/>
  <path d="m86.289 17.154 10.407-.523 10.201-.534 9.98-.53 8.438-.425 9.768-.437 8.812-.331 8.552-.313 8.278-.342 8.587-.372 7.954-.322 8.285-.282 6.128-.17 7.167-.172 5.524-.124 6.875-.146 5.502-.104 3.851-.06 4.895-.048 6.166.008 4.476.073 5.46.193 3.87.229 4.44.394 3.363.442 3.858.72 3.181.809 3.468 1.151 2.86 1.205 3.058 1.591 2.986 1.908 2.574 1.953 2.524 2.181 2.527 2.333 1.933 1.825 2.375 2.205 1.855 1.657 2.497 2.089 1.978 1.484 2.516 1.62 2.12 1.123 2.68 1.13 2.915.967 2.84.787 2.99.664 3.372.53 3.532.268 2.78-.01 3.941-.348 2.911-.486 3.678-.832 3.785-1.054 4.15-1.35 4.3-1.544 4.192-1.573 3.521-1.358 4.48-1.78 3.744-1.54 4.754-2.027 4.298-1.9 5.093-2.32 4.632-2.154 5.515-2.58 5.023-2.344 5.98-2.785 5.025-2.339 6.394-2.974 3.7-1.728 6.739-3.181 6.06-2.919 7.116-3.49 6.383-3.176 7.953-4.019 8.63-4.468 7.824-4.174 8.445-4.655 8.07-4.592 6.64-3.865 8.778-5.236 6.76-4.147 8.314-5.28 6.748-4.447 8.26-5.634 7.203-5.081 8.221-5.969 6.681-4.963 9.233-7.012 13.27-10.402 8.63-6.99 8.6-7.146 6.036-5.137 8.464-7.44 6.38-5.827 8.158-7.744 6.15-6.039 7.928-7.988 7.418-7.605 7.875-8.122 7.454-7.659 7.996-8.126 8.08-8.103 6.695-6.63 8.157-7.982 6.714-6.485 7.67-7.29 12.982-11.97 14.63-12.61 14.993-11.68 15.412-10.617 15.471-9.516 14.88-8.062 6.235-3.016 5.604-2.586 7.192-3.277 7.26-3.341 6.502-2.94 5.413-2.346 6.228-2.599 5.859-2.407 5.58-2.316 5.066-2.132 4.912-2.08 4.772-2 3.823-1.592 4.656-1.935 3.73-1.555 4.822-2.038 3.916-1.689 4.384-1.925 3.442-1.538 4.292-1.986 3.11-1.53 3.838-2.04 2.979-1.721 3.406-2.158 2.468-1.735 2.863-2.28 2.312-2.146 2.396-2.606 1.51-1.867 2.006-2.808 1.78-2.896 2.893-5.991 1.103-3.062.71-2.506.721-3.503.432-3.364.2-3.218-.002-3.486-.23-3.544-.463-3.591-.541-3.003-.731-3.28-.998-3.785-1.08-3.625-.884-2.76-1.356-3.959-2.421-6.377-3.01-6.889-3.666-7.38-3.79-6.86-2.068-3.467-1.982-3.135-2.504-3.642-2.636-3.434-4.821-5.278-5.28-4.469-5.67-3.858-6.244-3.448-3.054-1.38-3.137-1.196-3.674-1.132-3.3-.778-3.873-.652-3.223-.367-4.326-.285-3.393-.075-4.276.076-4.663.305-6.523.814-4.665.89-5.052 1.245-5.74 1.725-3.986 1.351-4.983 1.81-4.11 1.576-5.14 2.06-5.267 2.207-5.8 2.529-5.35 2.382-11.546 5.085-16.112 6.872-4.21 1.76-7.763 3.216-7.074 2.934-8.935 3.724-8.75 3.641-9.074 3.739-7.57 3.075-9.567 3.83-7.961 3.138-10.666 4.141-8.307 3.175-10.966 4.128-10.336 3.818-10.296 3.708-8.342 2.906-11.485 3.841-8.91 2.853-10.135 3.11-8.862 2.587-9.457 2.588-10.71 2.66-10.712 2.3-8.169 1.504-10.666 1.706-8.77 1.232-10.011 1.228-8.769.898-10.057.821-6.322.413-10.85.558" stroke-width="12" stroke="#f7d347" fill="none"/>
</svg>
