<?xml version="1.0" standalone="no"?>
<svg xmlns:xlink="http://www.w3.org/1999/xlink" id="s2" class="track" xmlns="http://www.w3.org/2000/svg" width="800" height="600" viewBox="-600 -1000 2000 2000">
        <path d="M 470.4665 -350.797 L 468.8307 -350.7282 L 467.1857 -350.6629 L 465.0056 -350.5821 L 463.3644 -350.5252 L 461.7166 -350.4715 L 459.535 -350.4051 L 457.889 -350.3585 L 456.2391 -350.3144 L 454.6019 -350.2734 L 452.4103 -350.2224 L 450.7663 -350.1869 L 449.1203 -350.1538 L 447.4743 -350.123 L 445.2673 -350.0853 L 443.6276 -350.0596 L 441.9811 -350.036 L 439.7834 -350.0074 L 438.1271 -349.9875 L 435.9324 -349.9637 L 434.2858 -349.9476 L 432.0836 -349.9275 L 430.4294 -349.9133 L 428.7724 -349.9001 L 426.5627 -349.8836 L 424.8987 -349.8717 L 422.6738 -349.8575 L 421.001 -349.8473 L 418.7588 -349.8351 L 417.0776 -349.8263 L 414.8327 -349.8145 L 413.1276 -349.8053 L 410.8801 -349.7918 L 409.179 -349.7812 L 407.4722 -349.7694 L 405.1938 -349.7527 L 403.4698 -349.739 L 401.1822 -349.7196 L 399.4528 -349.704 L 397.713 -349.6879 L 395.9819 -349.6718 L 394.2354 -349.6556 L 391.9013 -349.6354 L 390.1427 -349.621 L 388.3741 -349.6079 L 386.6031 -349.5965 L 384.2424 -349.584 L 382.4568 -349.5771 L 380.0784 -349.5709 L 378.2844 -349.5687 L 376.4776 -349.5683 L 374.0706 -349.5711 L 372.2642 -349.5752 L 370.4382 -349.5812 L 368.0125 -349.5912 L 366.1811 -349.5999 L 364.3395 -349.6097 L 362.4958 -349.62 L 360.0286 -349.6345 L 358.1718 -349.6462 L 355.69 -349.6619 L 353.8089 -349.6744 L 351.3215 -349.692 L 349.4387 -349.7057 L 347.5436 -349.7203 L 345.0143 -349.7405 L 343.1205 -349.7567 L 340.5894 -349.7798 L 338.6783 -349.7985 L 336.7587 -349.818 L 334.8326 -349.8388 L 332.2729 -349.868 L 330.3379 -349.8917 L 328.4177 -349.9161 L 326.4783 -349.9424 L 323.8899 -349.98 L 321.9558 -350.0104 L 320.0125 -350.0431 L 318.0721 -350.0779 L 315.4772 -350.1287 L 313.5305 -350.17 L 311.5793 -350.2143 L 309.6311 -350.2614 L 307.6926 -350.311 L 305.0984 -350.382 L 303.1482 -350.4388 L 300.5466 -350.5193 L 298.6096 -350.5826 L 296.6604 -350.649 L 294.0692 -350.7416 L 292.121 -350.8143 L 290.1651 -350.8904 L 288.2135 -350.9688 L 286.2716 -351.0494 L 283.6709 -351.1615 L 281.7058 -351.2494 L 279.7536 -351.3394 L 277.157 -351.4635 L 275.2038 -351.56 L 273.2537 -351.6596 L 271.3015 -351.7625 L 268.6879 -351.9054 L 266.7175 -352.0174 L 264.1216 -352.1705 L 262.1738 -352.2899 L 259.5625 -352.4564 L 257.6064 -352.5859 L 255.6456 -352.7199 L 253.0272 -352.9056 L 251.0731 -353.0492 L 248.4666 -353.2474 L 246.5091 -353.4014 L 244.5488 -353.5598 L 242.5896 -353.7225 L 240.6295 -353.8896 L 238.6664 -354.0613 L 236.7103 -354.2367 L 234.7469 -354.4171 L 232.7797 -354.6021 L 230.8166 -354.7911 L 228.8607 -354.9838 L 226.2453 -355.2482 L 224.2921 -355.4508 L 222.3293 -355.6588 L 220.3684 -355.8709 L 218.4084 -356.0872 L 216.437 -356.3089 L 214.4843 -356.5326 L 211.8674 -356.8385 L 209.9074 -357.0721 L 207.2927 -357.3893 L 205.3291 -357.6317 L 202.7065 -357.9608 L 200.7527 -358.2101 L 198.7906 -358.4638 L 196.821 -358.7217 L 194.8665 -358.9808 L 192.9028 -359.2444 L 190.2863 -359.6007 L 188.3251 -359.8717 L 186.3634 -360.1459 L 183.7311 -360.5188 L 181.7831 -360.7986 L 179.8131 -361.0847 L 177.2033 -361.4688 L 175.2392 -361.7617 L 172.6226 -362.1567 L 170.6597 -362.4568 L 168.6912 -362.761 L 166.7342 -363.0667 L 164.7715 -363.3766 L 162.8098 -363.6895 L 160.1861 -364.1133 L 158.2281 -364.4332 L 155.6004 -364.8676 L 153.649 -365.1939 L 151.6878 -365.5249 L 149.7239 -365.8597 L 147.1087 -366.3104 L 145.1448 -366.6519 L 143.1836 -366.9956 L 140.5652 -367.4579 L 138.6018 -367.806 L 135.981 -368.2714 L 134.0168 -368.62 L 131.3965 -369.0834 L 129.4356 -369.4277 L 127.4641 -369.7713 L 125.4936 -370.1114 L 122.8735 -370.5582 L 120.9 -370.8904 L 118.2745 -371.3265 L 116.3027 -371.65 L 114.3257 -371.9712 L 111.6944 -372.3951 L 109.721 -372.7108 L 107.7432 -373.0272 L 105.1088 -373.4496 L 103.1312 -373.7676 L 101.1548 -374.0877 L 99.1789 -374.4107 L 97.1996 -374.7375 L 94.5657 -375.1781 L 92.5891 -375.5128 L 90.6119 -375.851 L 88.6329 -376.1925 L 86.6597 -376.5355 L 84.0235 -376.9968 L 82.0445 -377.3445 L 80.0664 -377.6926 L 77.4313 -378.1559 L 75.4535 -378.5022 L 73.4674 -378.8489 L 70.8341 -379.3054 L 68.8513 -379.6471 L 66.2129 -380.0991 L 64.2296 -380.4374 L 62.2367 -380.7763 L 59.5782 -381.227 L 57.623 -381.5585 L 54.9791 -382.0068 L 52.9868 -382.3452 L 51.0011 -382.6826 L 48.3512 -383.1331 L 46.3797 -383.4676 L 44.3941 -383.8045 L 42.4048 -384.1417 L 40.4216 -384.4763 L 38.4374 -384.8099 L 35.7836 -385.2533 L 34.4401 -385.4763 L 31.7958 -385.912 L 29.8166 -386.2354 L 27.8211 -386.5591 L 25.1814 -386.9831 L 23.19 -387.3 L 21.2004 -387.6139 L 19.2081 -387.9252 L 16.5406 -388.3378 L 14.5582 -388.6414 L 11.9046 -389.0434 L 9.9137 -389.3418 L 7.9181 -389.6383 L 5.2659 -390.028 L 3.2805 -390.3169 L 1.2874 -390.6048 L -.6953 -390.8894 L -3.3456 -391.2677 L -5.3232 -391.5485 L -7.9562 -391.9219 L -9.9339 -392.2021 L -11.9058 -392.4814 L -13.8894 -392.7624 L -16.5079 -393.1337 L -18.4649 -393.4111 L -20.4324 -393.6898 L -22.4025 -393.9684 L -25.0101 -394.3356 L -26.9643 -394.6095 L -29.5613 -394.9704 L -31.5126 -395.2391 L -33.4606 -395.5044 L -35.4091 -395.7672 L -38.0044 -396.1122 L -39.9483 -396.3664 L -41.8866 -396.6158 L -44.4711 -396.9417 L -46.4104 -397.1807 L -48.9974 -397.4916 L -50.9273 -397.7171 L -53.4941 -398.0079 L -55.4233 -398.2187 L -57.9913 -398.4883 L -59.9165 -398.682 L -61.8394 -398.8677 L -63.7673 -399.0457 L -65.6794 -399.2141 L -67.5968 -399.3746 L -70.1617 -399.5764 L -72.0615 -399.7165 L -73.9768 -399.8499 L -75.881 -399.9749 L -78.423 -400.1298 L -80.3269 -400.2372 L -82.2284 -400.3375 L -84.1325 -400.4313 L -86.6604 -400.5454 L -88.5536 -400.623 L -90.4449 -400.6943 L -92.9688 -400.78 L -94.8552 -400.8374 L -97.3716 -400.9053 L -99.2553 -400.95 L -101.7631 -401.0018 L -103.6496 -401.0351 L -106.1583 -401.0724 L -108.0269 -401.095 L -110.527 -401.1188 L -111.7748 -401.1278 L -113.6493 -401.1379 L -115.5159 -401.1438 L -118.0054 -401.1453 L -119.8782 -401.1417 L -122.3764 -401.1308 L -124.244 -401.118 L -126.1214 -401.1011 L -128.6184 -401.0723 L -130.4884 -401.0459 L -132.3712 -401.0151 L -134.8705 -400.9679 L -136.7645 -400.9272 L -139.258 -400.8669 L -141.1409 -400.8165 L -143.6573 -400.7422 L -145.5477 -400.6814 L -148.0655 -400.5935 L -149.9668 -400.5222 L -152.487 -400.421 L -154.3852 -400.3401 L -156.917 -400.226 L -158.8293 -400.1355 L -161.3621 -400.0103 L -163.2709 -399.9122 L -165.8124 -399.7767 L -167.7336 -399.6707 L -169.6497 -399.562 L -172.1972 -399.4129 L -174.1283 -399.2967 L -176.6818 -399.1388 L -178.6121 -399.0164 L -181.1818 -398.8496 L -183.1166 -398.7211 L -185.6962 -398.5457 L -187.6363 -398.4113 L -189.582 -398.2742 L -192.1704 -398.0885 L -194.1191 -397.9466 L -196.0669 -397.8032 L -198.0231 -397.6577 L -199.974 -397.5115 L -201.9315 -397.3635 L -204.5408 -397.1651 L -206.502 -397.0147 L -209.1318 -396.8125 L -211.0816 -396.6626 L -213.6991 -396.4604 L -215.6806 -396.3075 L -218.284 -396.1063 L -220.2492 -395.955 L -222.8494 -395.7554 L -224.8092 -395.6055 L -227.3839 -395.4095 L -229.3024 -395.2637 L -231.2252 -395.1182 L -233.7523 -394.9272 L -235.6376 -394.7856 L -238.1257 -394.5984 L -239.9825 -394.4587 L -241.8247 -394.32 L -244.2448 -394.1365 L -246.0402 -393.9988 L -248.4123 -393.8157 L -250.1733 -393.678 L -251.9177 -393.5403 L -254.2005 -393.3562 L -255.8896 -393.2176 L -257.5623 -393.0779 L -259.2103 -392.9378 L -260.8318 -392.7971 L -262.4392 -392.6551 L -264.5381 -392.4651 L -266.0814 -392.3225 L -268.1038 -392.1319 L -269.5988 -391.9883 L -271.5601 -391.7965 L -273.0171 -391.6515 L -274.4631 -391.506 L -275.8988 -391.361 L -277.3228 -391.2164 L -279.2088 -391.0244 L -280.6039 -390.8823 L -281.9941 -390.7407 L -283.3797 -390.5996 L -285.1941 -390.416 L -286.5507 -390.2798 L -287.9031 -390.1446 L -289.2423 -390.0115 L -291.0203 -389.8359 L -292.3428 -389.7052 L -294.0925 -389.5308 L -295.3997 -389.399 L -296.6984 -389.2661 L -297.9892 -389.1314 L -299.2723 -388.9948 L -300.5481 -388.856 L -301.817 -388.7145 L -303.5033 -388.5211 L -304.7528 -388.3737 L -306.0033 -388.2227 L -307.253 -388.0683 L -308.9077 -387.8584 L -310.1488 -387.6972 L -311.3866 -387.5336 L -312.6259 -387.3669 L -313.8636 -387.1976 L -315.5184 -386.9677 L -316.7542 -386.7933 L -317.989 -386.6169 L -319.6374 -386.3786 L -320.8761 -386.1974 L -322.1185 -386.0136 L -323.7749 -385.7655 L -325.019 -385.5765 L -326.2642 -385.3852 L -327.9265 -385.1265 L -329.174 -384.9296 L -330.4224 -384.7302 L -331.6726 -384.528 L -333.3367 -384.2546 L -334.5847 -384.0468 L -336.2464 -383.7664 L -337.4908 -383.5532 L -339.144 -383.266 L -340.3835 -383.0475 L -342.0327 -382.7524 L -343.2561 -382.5302 L -344.8872 -382.2291 L -346.1068 -382.0002 L -347.3229 -381.7689 L -348.5338 -381.5351 L -350.1444 -381.2191 L -351.3496 -380.9789 L -352.5488 -380.737 L -353.7451 -380.4929 L -354.9283 -380.2489 L -356.1071 -380.0029 L -357.2809 -379.7553 L -358.4489 -379.5058 L -359.9873 -379.1732 L -361.1391 -378.9211 L -362.659 -378.585 L -363.7921 -378.3316 L -364.9164 -378.0772 L -366.4095 -377.7359 L -367.5136 -377.481 L -368.967 -377.1417 L -370.043 -376.8877 L -371.0966 -376.6372 L -372.1358 -376.3877 L -373.1616 -376.1392 L -374.4895 -375.8142 L -375.4662 -375.5727 L -376.4249 -375.3336 L -377.6677 -375.0207 L -378.5776 -374.7896 L -379.7572 -374.4873 L -380.6132 -374.2661 L -381.4516 -374.0479 L -382.265 -373.8347 L -383.3202 -373.5561 L -384.0909 -373.3511 L -384.8461 -373.1488 L -385.5858 -372.9497 L -386.5504 -372.6881 L -387.2621 -372.4935 L -388.1846 -372.2394 L -388.8649 -372.0504 L -389.7527 -371.8018 L -390.4071 -371.6173 L -391.0497 -371.4347 L -391.6827 -371.2535 L -392.3063 -371.0733 L -393.1239 -370.8349 L -393.7301 -370.6557 L -394.3311 -370.4765 L -394.9294 -370.2963 L -395.5258 -370.1152 L -396.1176 -369.9336 L -396.708 -369.7505 L -397.4873 -369.5052 L -398.0689 -369.3193 L -398.6481 -369.1315 L -399.4137 -368.8794 L -399.9849 -368.6879 L -400.5517 -368.4945 L -401.3047 -368.2323 L -401.8635 -368.0336 L -402.4185 -367.8324 L -402.9703 -367.6288 L -403.7006 -367.3534 L -404.2455 -367.1439 L -404.7862 -366.9319 L -405.4995 -366.6467 L -406.0322 -366.4296 L -406.5626 -366.2098 L -407.2632 -365.9139 L -407.7861 -365.6886 L -408.4812 -365.3839 L -408.9972 -365.1537 L -409.5152 -364.9192 L -410.1994 -364.6039 L -410.7123 -364.3637 L -411.3912 -364.0403 L -411.9004 -363.7938 L -412.4098 -363.5436 L -413.0792 -363.209 L -413.5811 -362.9537 L -414.0818 -362.6946 L -414.5812 -362.4315 L -415.0821 -362.1629 L -415.7408 -361.802 L -416.235 -361.5253 L -416.7297 -361.2434 L -417.2256 -360.9556 L -417.8842 -360.5656 L -418.3806 -360.2656 L -419.044 -359.8561 L -419.541 -359.5428 L -420.041 -359.2226 L -420.5429 -358.8954 L -421.2153 -358.4481 L -421.7177 -358.107 L -422.3914 -357.6402 L -422.8988 -357.2816 L -423.5786 -356.791 L -424.0869 -356.4169 L -424.767 -355.9057 L -425.2783 -355.5139 L -425.7929 -355.1125 L -426.4745 -354.5698 L -426.9877 -354.1529 L -427.6713 -353.5851 L -428.1835 -353.1491 L -428.6952 -352.7047 L -429.3745 -352.0994 L -429.8824 -351.6354 L -430.3885 -351.163 L -430.8923 -350.6817 L -431.5597 -350.0262 L -432.0537 -349.5268 L -432.5446 -349.0175 L -433.0297 -348.5 L -433.667 -347.7976 L -434.1384 -347.2603 L -434.7534 -346.5341 L -435.2076 -345.9782 L -435.8045 -345.2213 L -436.2437 -344.6457 L -436.8242 -343.861 L -437.2526 -343.2634 L -437.8169 -342.4529 L -438.2366 -341.8338 L -438.6533 -341.2058 L -439.2053 -340.3554 L -439.6177 -339.7077 L -440.0279 -339.054 L -440.4415 -338.3857 L -440.9849 -337.4912 L -441.3936 -336.8077 L -441.938 -335.8818 L -442.3456 -335.1783 L -442.7523 -334.4654 L -443.1584 -333.744 L -443.5633 -333.0138 L -443.9671 -332.2749 L -444.3704 -331.5283 L -444.7732 -330.7731 L -445.1763 -330.0092 L -445.5783 -329.2381 L -445.9801 -328.4574 L -446.514 -327.4066 L -446.9139 -326.6091 L -447.3128 -325.8044 L -447.7113 -324.9926 L -448.2395 -323.9037 L -448.6348 -323.0795 L -449.1569 -321.9789 L -449.5471 -321.1478 L -449.9347 -320.3142 L -450.3194 -319.4807 L -450.8296 -318.3655 L -451.2094 -317.5301 L -451.7128 -316.4153 L -452.0883 -315.5808 L -452.4642 -314.7467 L -452.8402 -313.9132 L -453.2172 -313.0826 L -453.5965 -312.2516 L -454.1048 -311.1502 L -454.4906 -310.3248 L -454.8797 -309.5034 L -455.2758 -308.6794 L -455.8058 -307.5958 L -456.2106 -306.7814 L -456.6194 -305.9705 L -457.0346 -305.1605 L -457.5976 -304.0886 L -458.0299 -303.2881 L -458.6189 -302.2294 L -459.071 -301.4389 L -459.6872 -300.3888 L -460.1564 -299.6089 L -460.7963 -298.5713 L -461.2874 -297.7959 L -461.7868 -297.0251 L -462.4655 -295.9984 L -462.9852 -295.2306 L -463.6892 -294.2131 L -464.2291 -293.4518 L -464.78 -292.6932 L -465.3402 -291.9384 L -465.9109 -291.184 L -466.6828 -290.1806 L -467.2703 -289.43 L -467.8686 -288.679 L -468.6795 -287.6858 L -469.3016 -286.9445 L -470.1487 -285.9613 L -470.7955 -285.228 L -471.6759 -284.2513 L -472.3428 -283.5272 L -473.0228 -282.8029 L -473.7139 -282.0808 L -474.6499 -281.125 L -475.3702 -280.406 L -476.3355 -279.4632 L -477.0741 -278.7573 L -477.8274 -278.0508 L -478.8395 -277.122 L -479.6122 -276.4286 L -480.3978 -275.7373 L -481.1927 -275.0517 L -482.0013 -274.3684 L -483.0848 -273.4747 L -483.9148 -272.8065 L -484.7531 -272.1459 L -485.888 -271.2737 L -486.7521 -270.6265 L -487.6272 -269.9858 L -488.8083 -269.1442 L -489.7071 -268.5214 L -490.618 -267.9052 L -491.8413 -267.1011 L -492.7733 -266.5062 L -493.7186 -265.9179 L -494.9863 -265.1518 L -495.9528 -264.5844 L -496.9294 -264.0246 L -497.9192 -263.4703 L -498.918 -262.923 L -499.9269 -262.3813 L -501.2926 -261.6635 L -502.3268 -261.1304 L -503.7239 -260.4223 L -504.7811 -259.8947 L -506.2031 -259.1953 L -507.2821 -258.6717 L -508.3704 -258.1493 L -509.4691 -257.6276 L -510.9448 -256.9347 L -512.0625 -256.4151 L -513.5638 -255.7247 L -514.6971 -255.2084 L -515.837 -254.6935 L -516.9829 -254.1801 L -518.1338 -253.6683 L -519.665 -252.9928 L -520.8193 -252.4879 L -521.9775 -251.9843 L -523.5114 -251.3215 L -524.6599 -250.8281 L -525.8073 -250.3372 L -527.3304 -249.6876 L -528.4681 -249.2031 L -529.975 -248.5603 L -531.0992 -248.0794 L -532.2183 -247.5979 L -533.3316 -247.1158 L -534.4397 -246.6319 L -535.9009 -245.986 L -536.9895 -245.4979 L -538.4328 -244.84 L -539.5061 -244.3417 L -540.9141 -243.6747 L -541.9678 -243.165 L -543.3517 -242.481 L -544.3827 -241.9599 L -545.7424 -241.2569 L -546.7527 -240.7224 L -547.7531 -240.1828 L -549.0709 -239.4557 L -550.0499 -238.9032 L -551.0195 -238.3456 L -552.2978 -237.5939 L -553.2469 -237.0235 L -554.4975 -236.2555 L -555.4269 -235.6721 L -556.6508 -234.8864 L -557.5603 -234.2894 L -558.4615 -233.6864 L -559.6509 -232.8728 L -560.5346 -232.2547 L -561.4121 -231.6293 L -562.2822 -230.9974 L -563.1472 -230.3572 L -564.2887 -229.4938 L -565.1392 -228.8363 L -565.9807 -228.1727 L -566.8172 -227.5002 L -567.6464 -226.8206 L -568.4702 -226.132 L -569.5598 -225.2006 L -570.3699 -224.4922 L -571.1778 -223.7717 L -572.2453 -222.7983 L -573.031 -222.0652 L -573.8193 -221.315 L -574.6008 -220.5561 L -575.3774 -219.7861 L -576.1484 -219.0054 L -577.1652 -217.9491 L -577.9199 -217.1452 L -578.6697 -216.3285 L -579.6556 -215.2279 L -580.3895 -214.3886 L -581.1161 -213.5402 L -582.0765 -212.3926 L -582.7893 -211.5209 L -583.4974 -210.6377 L -584.4324 -209.4447 L -585.1264 -208.5389 L -585.8158 -207.6227 L -586.5007 -206.6948 L -587.1771 -205.7608 L -588.0709 -204.4991 L -588.7349 -203.5407 L -589.6132 -202.2439 L -590.2626 -201.2644 L -590.9081 -200.2724 L -591.7618 -198.9309 L -592.1818 -198.2588 L -592.814 -197.2309 L -593.4362 -196.2007 L -594.2553 -194.8141 L -594.8661 -193.7587 L -595.4706 -192.6955 L -596.2681 -191.2639 L -596.8628 -190.1762 L -597.4546 -189.0793 L -598.2358 -187.6078 L -598.8208 -186.491 L -599.5972 -184.9883 L -600.1792 -183.8479 L -600.9468 -182.3252 L -601.522 -181.1689 L -602.2869 -179.6139 L -602.8572 -178.4393 L -603.4266 -177.2536 L -603.9925 -176.0594 L -604.7379 -174.4594 L -605.2949 -173.2428 L -605.8441 -172.0235 L -606.5698 -170.3808 L -607.1088 -169.1352 L -607.6383 -167.8892 L -608.1639 -166.6278 L -608.6816 -165.3585 L -609.3626 -163.6492 L -609.8656 -162.3598 L -610.5297 -160.6213 L -611.0209 -159.3087 L -611.5099 -157.981 L -612.1511 -156.2072 L -612.6281 -154.8682 L -613.1036 -153.5175 L -613.5764 -152.1591 L -614.2053 -150.3382 L -614.6777 -148.9611 L -615.1494 -147.5812 L -615.7828 -145.7276 L -616.2615 -144.3288 L -616.7427 -142.9263 L -617.23 -141.5126 L -617.8843 -139.6236 L -618.3813 -138.1989 L -618.8828 -136.7696 L -619.5548 -134.8658 L -620.0629 -133.4362 L -620.5743 -132.0045 L -621.0875 -130.5773 L -621.6042 -129.1446 L -622.296 -127.241 L -622.8176 -125.8148 L -623.345 -124.3789 L -624.0556 -122.4552 L -624.5968 -120.9984 L -625.1454 -119.5282 L -625.6934 -118.0651 L -626.4357 -116.0924 L -627.0011 -114.5963 L -627.7614 -112.5923 L -628.3347 -111.0865 L -628.9159 -109.5648 L -629.5009 -108.0363 L -630.2878 -105.984 L -630.8826 -104.4331 L -631.4832 -102.8674 L -632.283 -100.7816 L -632.8893 -99.2005 L -633.4987 -97.6099 L -634.1119 -96.0101 L -634.9338 -93.8653 L -635.5558 -92.2387 L -636.3857 -90.0716 L -637.0138 -88.4314 L -637.6459 -86.7836 L -638.4946 -84.5731 L -639.1362 -82.9051 L -639.7816 -81.2294 L -640.6482 -78.9818 L -641.303 -77.2866 L -642.1827 -75.0124 L -642.8467 -73.2997 L -643.5155 -71.5768 L -644.187 -69.8494 L -645.0894 -67.531 L -645.7698 -65.7866 L -646.4548 -64.0317 L -647.1433 -62.2697 L -647.8388 -60.4913 L -648.763 -58.1309 L -649.4635 -56.3434 L -650.1679 -54.5482 L -650.8743 -52.7474 L -651.5833 -50.9423 L -652.2967 -49.1274 L -653.2537 -46.6956 L -653.974 -44.8667 L -654.6976 -43.0307 L -655.4269 -41.1806 L -656.3977 -38.7203 L -657.1359 -36.855 L -658.1235 -34.3629 L -658.8644 -32.4976 L -659.8615 -29.9932 L -660.6135 -28.1111 L -661.3711 -26.2208 L -662.1279 -24.3357 L -662.889 -22.4464 L -663.6534 -20.554 L -664.416 -18.6686 L -665.1826 -16.7772 L -666.207 -14.257 L -666.9745 -12.3699 L -668.0019 -9.8514 L -668.7734 -7.9633 L -669.5458 -6.0726 L -670.5738 -3.557 L -671.3463 -1.6692 L -672.1177 .2176 L -672.8931 2.1131 L -673.9205 4.6242 L -674.6929 6.5137 L -675.7252 9.0376 L -676.4957 10.92 L -677.5269 13.4378 L -678.2994 15.3265 L -679.0786 17.229 L -680.103 19.7312 L -680.8764 21.6197 L -681.6489 23.5067 L -682.4222 25.3957 L -683.4534 27.9146 L -684.2269 29.8015 L -685.0013 31.691 L -685.7786 33.5871 L -686.805 36.0943 L -687.5784 37.9806 L -688.3519 39.8699 L -689.3831 42.3854 L -690.1585 44.2759 L -691.1917 46.7953 L -691.968 48.6879 L -692.9908 51.183 L -693.7604 53.0588 L -694.5319 54.9394 L -695.5455 57.4098 L -696.3074 59.2673 L -697.3086 61.7078 L -698.0543 63.5256 L -699.0389 65.9247 L -699.768 67.7005 L -700.7263 70.0321 L -701.4349 71.7533 L -702.1348 73.4497 L -703.0513 75.6657 L -703.7271 77.2945 L -704.3935 78.8952 L -705.05 80.4664 L -705.6978 82.0103 L -706.3358 83.5247 L -707.1733 85.5031 L -707.7908 86.9549 L -708.399 88.379 L -708.9983 89.7773 L -709.7822 91.5989 L -710.3588 92.9338 L -710.926 94.244 L -711.4816 95.5255 L -712.2103 97.2032 L -712.7377 98.4167 L -713.2582 99.6131 L -713.7658 100.7806 L -714.2629 101.9242 L -714.907 103.4079 L -715.3767 104.4916 L -715.983 105.8936 L -716.4243 106.9171 L -716.8534 107.9158 L -717.4059 109.2071 L -717.8071 110.1496 L -718.1951 111.0652 L -718.6939 112.2499 L -719.0584 113.1219 L -719.4162 113.9842 L -719.7687 114.839 L -720.1155 115.6866 L -720.5725 116.8121 L -720.9123 117.6562 L -721.2471 118.4964 L -721.5806 119.3389 L -722.0214 120.4645 L -722.3486 121.308 L -722.7808 122.4363 L -723.1021 123.2829 L -723.5271 124.415 L -723.8435 125.2644 L -724.158 126.118 L -724.5705 127.2526 L -724.8763 128.1042 L -725.2821 129.246 L -725.4807 129.8133 L -725.877 130.956 L -726.1693 131.8128 L -726.4599 132.6731 L -726.7469 133.5337 L -727.1245 134.6852 L -727.4022 135.5466 L -727.6763 136.4113 L -727.9477 137.2809 L -728.3005 138.4342 L -728.5606 139.302 L -728.8171 140.174 L -729.1498 141.3338 L -729.3941 142.2085 L -729.7114 143.3737 L -729.9436 144.2495 L -730.1703 145.1272 L -730.3922 146.0065 L -730.6086 146.8891 L -730.8865 148.06 L -731.0888 148.9427 L -731.3488 150.1195 L -731.5369 151.0025 L -731.7195 151.8888 L -731.9526 153.0693 L -732.1206 153.9567 L -732.333 155.1385 L -732.4835 156.0276 L -732.6709 157.2142 L -732.8007 158.1016 L -732.9217 158.9915 L -733.0685 160.1795 L -733.1674 161.07 L -733.2568 161.9621 L -733.3366 162.8526 L -733.4076 163.7522 L -733.4865 164.9403 L -733.535 165.8397 L -733.574 166.741 L -733.6107 167.9409 L -733.6268 168.8461 L -733.6332 170.0545 L -733.6266 170.9678 L -733.6038 172.176 L -733.5766 173.0877 L -733.5408 174.0083 L -733.4974 174.9169 L -733.4273 176.142 L -733.3665 177.061 L -733.2986 177.9851 L -733.2241 178.9118 L -733.1441 179.8423 L -733.059 180.7745 L -732.9382 182.0214 L -732.8418 182.9623 L -732.7054 184.2174 L -732.5972 185.1632 L -732.4839 186.1114 L -732.3656 187.0606 L -732.2015 188.3309 L -732.074 189.2836 L -731.9421 190.2388 L -731.8064 191.1973 L -731.6205 192.4739 L -731.4761 193.4342 L -731.2781 194.7157 L -731.1246 195.6815 L -730.9678 196.6444 L -730.752 197.9303 L -730.5837 198.898 L -730.3513 200.1877 L -730.1709 201.1571 L -729.9861 202.1249 L -729.796 203.0948 L -729.5352 204.3868 L -729.334 205.3558 L -729.1277 206.3248 L -728.9161 207.2955 L -728.6274 208.5878 L -728.4058 209.5579 L -728.1041 210.8496 L -727.874 211.821 L -727.5635 213.1091 L -727.3282 214.0759 L -727.0919 215.0402 L -726.8547 216.0049 L -726.5425 217.2868 L -726.3108 218.2472 L -726.082 219.2065 L -725.7833 220.4799 L -725.565 221.4341 L -725.3518 222.3863 L -725.0775 223.6538 L -724.88 224.6039 L -724.691 225.5506 L -724.4529 226.8103 L -724.2855 227.7538 L -724.1284 228.6945 L -723.9354 229.9459 L -723.8032 230.8825 L -723.644 232.127 L -723.5374 233.0588 L -723.4129 234.2966 L -723.3325 235.2248 L -723.2441 236.4554 L -723.1915 237.3772 L -723.14 238.6039 L -723.1154 239.5204 L -723.1012 240.7436 L -723.1046 241.6511 L -723.1201 242.5606 L -723.1476 243.4688 L -723.1872 244.3727 L -723.2387 245.2751 L -723.3022 246.1747 L -723.4053 247.3711 L -723.4962 248.2638 L -723.5989 249.1557 L -723.7134 250.0462 L -723.8841 251.2305 L -724.0252 252.1143 L -724.2308 253.2895 L -724.3982 254.1718 L -724.5762 255.0528 L -724.8286 256.2207 L -725.0297 257.0964 L -725.2412 257.9719 L -725.5383 259.1367 L -725.7727 260.0085 L -726.1006 261.1694 L -726.3577 262.0368 L -726.6257 262.9046 L -726.999 264.0552 L -727.2913 264.9137 L -727.5952 265.7712 L -728.0167 266.9069 L -728.3474 267.7589 L -728.8029 268.8824 L -729.158 269.7218 L -729.5241 270.5579 L -730.031 271.6701 L -730.4199 272.491 L -730.8224 273.3136 L -731.3746 274.4012 L -731.8012 275.2122 L -732.386 276.2858 L -732.8369 277.0865 L -733.2977 277.8827 L -733.7682 278.6752 L -734.4102 279.7268 L -734.9015 280.5109 L -735.4026 281.2935 L -736.0833 282.331 L -736.6042 283.1065 L -737.1335 283.8786 L -737.8533 284.9041 L -738.403 285.6692 L -738.962 286.4316 L -739.7209 287.4431 L -740.2996 288.1969 L -740.8885 288.9491 L -741.485 289.6969 L -742.0909 290.4421 L -742.705 291.1838 L -743.537 292.1679 L -744.17 292.9012 L -744.8111 293.6316 L -745.6789 294.6006 L -746.3391 295.3234 L -747.2297 296.2799 L -747.9079 296.9941 L -748.5937 297.7046 L -749.5203 298.6467 L -750.2242 299.3498 L -750.9363 300.0523 L -751.8902 300.9812 L -752.613 301.677 L -753.3407 302.3705 L -754.0751 303.0643 L -754.8107 303.7527 L -755.8007 304.6717 L -756.5449 305.3574 L -757.2953 306.0444 L -758.2978 306.955 L -759.0543 307.6364 L -759.8154 308.3175 L -760.579 308.9962 L -761.3478 309.6759 L -762.3769 310.5778 L -763.1531 311.2531 L -763.9326 311.9269 L -764.7167 312.6002 L -765.7667 313.4949 L -766.559 314.1639 L -767.3563 314.8323 L -768.4249 315.7204 L -769.2322 316.3849 L -770.0422 317.0461 L -771.1299 317.9254 L -771.9528 318.5843 L -772.777 319.2391 L -773.6096 319.8944 L -774.7245 320.7648 L -775.567 321.4171 L -776.4167 322.0699 L -777.274 322.7229 L -778.1359 323.3753 L -779.2952 324.2469 L -780.174 324.9034 L -781.0574 325.5598 L -781.9488 326.2191 L -782.8478 326.8815 L -783.7529 327.5453 L -784.6659 328.2126 L -785.5877 328.8835 L -786.827 329.781 L -787.7701 330.4602 L -789.0317 331.3637 L -789.9913 332.047 L -790.9592 332.7327 L -791.9359 333.4209 L -793.2496 334.3409 L -794.2448 335.0339 L -795.5848 335.9619 L -796.5992 336.6607 L -797.9662 337.5982 L -798.9977 338.3032 L -800.0372 339.0117 L -801.0842 339.7236 L -802.4926 340.679 L -803.5558 341.3992 L -804.6289 342.1252 L -806.0637 343.0949 L -807.1492 343.8278 L -808.6098 344.8134 L -809.708 345.554 L -810.8156 346.3007 L -812.2999 347.302 L -813.4199 348.058 L -814.5466 348.8191 L -815.6834 349.5882 L -817.1905 350.6091 L -818.3344 351.3855 L -819.4807 352.165 L -820.6329 352.9499 L -821.789 353.7387 L -822.9509 354.5334 L -824.1154 355.3316 L -825.6756 356.4035 L -826.8547 357.2152 L -828.4235 358.2977 L -829.6177 359.1229 L -831.2007 360.2195 L -832.3873 361.0425 L -833.5817 361.8731 L -834.7815 362.7083 L -836.3752 363.8201 L -837.5715 364.6562 L -838.7692 365.4946 L -840.362 366.614 L -841.554 367.4548 L -842.7446 368.2966 L -844.3193 369.4157 L -845.4965 370.2565 L -846.6675 371.0972 L -847.8317 371.9371 L -848.9896 372.7774 L -850.5187 373.8951 L -851.6567 374.7325 L -853.1633 375.8499 L -854.2808 376.6858 L -855.7601 377.8005 L -856.8615 378.6375 L -857.9532 379.473 L -859.0361 380.3075 L -860.1152 381.1441 L -861.1848 381.9791 L -862.2435 382.8112 L -863.6368 383.9146 L -864.6734 384.7411 L -866.0363 385.8351 L -867.0458 386.6508 L -868.0425 387.4606 L -869.0289 388.2663 L -870.3108 389.3195 L -871.2536 390.0988 L -872.1768 390.8657 L -873.0821 391.6215 L -874.2605 392.6111 L -875.1249 393.3413 L -875.9788 394.0662 L -877.0919 395.0164 L -877.9055 395.7149 L -878.7161 396.4136 L -879.5186 397.1083 L -880.3164 397.8012 L -881.109 398.4914 L -882.1557 399.4061 L -882.9365 400.0905 L -883.7116 400.7712 L -884.7397 401.6762 L -885.5027 402.3497 L -886.2587 403.0185 L -887.004 403.6794 L -887.7361 404.3306 L -888.4565 404.9733 L -889.1608 405.6037 L -890.0768 406.4269 L -890.7474 407.0322 L -891.6123 407.8163 L -892.2412 408.3894 L -892.8525 408.9486 L -893.4443 409.4928 L -894.2038 410.1956 L -894.7554 410.7096 L -895.4728 411.3829 L -895.9999 411.8809 L -896.5214 412.3774 L -897.2042 413.032 L -897.7057 413.5167 L -898.202 414.0004 L -898.6914 414.4808 L -899.1758 414.9599 L -899.6532 415.4359 L -900.2798 416.0674 L -900.7426 416.5388 L -901.3493 417.1636 L -901.798 417.631 L -902.3846 418.2496 L -902.8177 418.7129 L -903.2445 419.1743 L -903.665 419.6351 L -904.0799 420.0956 L -904.4882 420.5556 L -905.0234 421.1679 L -905.4175 421.6273 L -905.8053 422.0863 L -906.187 422.5453 L -906.687 423.1576 L -907.0549 423.6161 L -907.418 424.076 L -907.8944 424.6909 L -908.2464 425.1535 L -908.595 425.6185 L -908.9378 426.0833 L -909.2778 426.5521 L -909.6132 427.0213 L -910.0538 427.6507 L -910.3785 428.125 L -910.699 428.6013 L -911.0156 429.0805 L -911.4296 429.7225 L -911.7352 430.2069 L -912.0362 430.6944 L -912.4313 431.3494 L -912.7225 431.8446 L -913.1035 432.5078 L -913.384 433.0099 L -913.6592 433.5142 L -913.9288 434.0224 L -914.1938 434.5354 L -914.4531 435.0518 L -914.7874 435.7402 L -915.0331 436.2629 L -915.2727 436.7886 L -915.5071 437.3187 L -915.8098 438.03 L -916.0294 438.5678 L -916.242 439.1098 L -916.5132 439.8363 L -916.7079 440.3856 L -916.9559 441.1253 L -917.1317 441.6809 L -917.2997 442.2401 L -917.4599 442.8034 L -917.6125 443.3716 L -917.7562 443.9394 L -917.9356 444.7044 L -918.0604 445.2813 L -918.2143 446.0566 L -918.3198 446.6418 L -918.4166 447.2291 L -918.5049 447.8204 L -918.6086 448.6096 L -918.6757 449.2046 L -918.7508 449.9982 L -918.7963 450.5939 L -918.832 451.1896 L -918.8575 451.7854 L -918.8726 452.3796 L -918.8766 453.1706 L -918.8676 453.7639 L -918.8398 454.5505 L -918.8068 455.1409 L -918.7632 455.7342 L -918.7101 456.317 L -918.623 457.0996 L -918.5458 457.6831 L -918.4584 458.2666 L -918.3608 458.8496 L -918.2527 459.4317 L -918.0938 460.2013 L -917.9624 460.7789 L -917.821 461.3545 L -917.6697 461.927 L -917.4517 462.6891 L -917.2766 463.2582 L -917.0275 464.0128 L -916.8284 464.5774 L -916.6204 465.1362 L -916.3265 465.8794 L -916.095 466.4318 L -915.8534 466.9811 L -915.6013 467.5281 L -915.3401 468.0695 L -914.9766 468.786 L -914.6922 469.3188 L -914.2974 470.0235 L -913.9907 470.5459 L -913.6761 471.0609 L -913.3501 471.5738 L -912.902 472.248 L -912.5544 472.7484 L -912.077 473.4067 L -911.7087 473.8933 L -911.3307 474.3749 L -910.813 475.007 L -910.4136 475.4747 L -910.0047 475.9373 L -909.4456 476.5454 L -909.0154 476.9959 L -908.5764 477.4409 L -908.1274 477.881 L -907.6697 478.3152 L -907.0447 478.8861 L -906.5641 479.3086 L -906.0746 479.7248 L -905.575 480.1355 L -904.8945 480.6732 L -904.3724 481.0699 L -903.84 481.4611 L -903.1148 481.9734 L -902.5586 482.3513 L -901.9905 482.7244 L -901.4136 483.0906 L -900.6299 483.5682 L -900.0285 483.9199 L -899.4197 484.263 L -898.7989 484.6003 L -897.9584 485.037 L -897.3154 485.3561 L -896.4421 485.7692 L -895.7798 486.0676 L -894.8809 486.4527 L -894.1952 486.7318 L -893.5005 487.0022 L -892.5625 487.3491 L -891.8485 487.5996 L -891.1265 487.8418 L -890.396 488.0762 L -889.4114 488.3763 L -888.6644 488.593 L -887.9094 488.8031 L -886.8931 489.0731 L -886.1212 489.269 L -885.085 489.5208 L -884.298 489.7039 L -883.5045 489.8821 L -882.7015 490.0561 L -881.6274 490.2794 L -880.8116 490.4416 L -879.9893 490.5988 L -879.1593 490.7504 L -878.0421 490.9435 L -877.1978 491.0812 L -876.3449 491.2129 L -875.1994 491.3778 L -874.3324 491.4936 L -873.4542 491.6029 L -872.2842 491.736 L -871.3963 491.8266 L -870.2063 491.9331 L -869.3098 492.0013 L -868.4099 492.0587 L -867.5095 492.1045 L -866.3093 492.1466 L -865.4089 492.1638 L -864.5056 492.1682 L -863.3093 492.1546 L -862.4095 492.1307 L -861.5092 492.096 L -860.6058 492.0515 L -859.399 491.978 L -858.4904 491.9137 L -857.2748 491.8178 L -856.3583 491.7388 L -855.1341 491.626 L -854.2119 491.5368 L -853.2842 491.4441 L -852.3537 491.3491 L -851.4211 491.2523 L -850.4835 491.1537 L -849.2268 491.0211 L -848.2799 490.921 L -847.3287 490.8204 L -846.056 490.6856 L -845.0964 490.584 L -844.1332 490.4816 L -842.8445 490.344 L -841.8713 490.2399 L -840.5678 490.0982 L -839.5888 489.9899 L -838.6042 489.8791 L -837.6133 489.7652 L -836.6214 489.6484 L -835.2845 489.4868 L -834.2755 489.3612 L -833.2618 489.2317 L -832.2457 489.0988 L -830.8806 488.9149 L -829.8508 488.7721 L -828.4703 488.5753 L -827.4302 488.423 L -826.0346 488.2131 L -824.9826 488.0507 L -823.9241 487.884 L -822.8604 487.7127 L -821.4407 487.4787 L -820.3659 487.2978 L -819.285 487.1127 L -817.839 486.8604 L -816.7444 486.6658 L -815.6475 486.468 L -814.1711 486.1979 L -813.0578 485.9913 L -811.5604 485.71 L -810.4277 485.4945 L -809.2856 485.2753 L -808.1317 485.0522 L -806.5807 484.7499 L -805.4032 484.5194 L -804.2123 484.2855 L -803.0103 484.0485 L -801.7922 483.8079 L -800.5634 483.5646 L -799.3185 483.3177 L -797.6393 482.9843 L -796.3596 482.7299 L -795.0616 482.472 L -793.3105 482.1235 L -791.9744 481.8575 L -790.1758 481.4996 L -788.8043 481.2269 L -787.4172 480.9517 L -785.543 480.5803 L -784.1196 480.2991 L -782.1992 479.9211 L -780.7366 479.6345 L -778.7792 479.2536 L -777.2971 478.9665 L -775.8033 478.6792 L -774.2951 478.3911 L -772.7709 478.1016 L -770.7201 477.7153 L -769.1568 477.4238 L -767.0679 477.037 L -765.4807 476.746 L -763.8775 476.4545 L -762.2621 476.1625 L -760.0845 475.7729 L -758.4375 475.4814 L -756.217 475.0922 L -754.5372 474.8007 L -752.8408 474.5082 L -751.1359 474.2162 L -748.836 473.8261 L -747.0966 473.5331 L -745.3461 473.2399 L -742.9871 472.8466 L -741.2057 472.5517 L -738.8023 472.1552 L -736.9971 471.8586 L -735.174 471.5603 L -733.3374 471.2603 L -731.4879 470.9588 L -729.6277 470.6563 L -727.7537 470.3529 L -725.8685 470.0489 L -723.3372 469.6426 L -721.415 469.336 L -718.8577 468.9312 L -716.9182 468.626 L -714.3135 468.2207 L -712.3499 467.9182 L -710.3709 467.6159 L -708.3748 467.3137 L -705.7129 466.9143 L -703.718 466.618 L -701.7048 466.3217 L -699.0274 465.931 L -697.0059 465.6389 L -694.3262 465.2549 L -692.309 464.9683 L -690.2932 464.6837 L -688.2756 464.4009 L -686.257 464.1194 L -684.2346 463.8385 L -681.551 463.4674 L -679.5302 463.189 L -676.8493 462.8204 L -674.8366 462.5435 L -672.8277 462.2671 L -670.1549 461.8985 L -668.1569 461.6226 L -666.1625 461.3457 L -664.1699 461.0679 L -661.5313 460.6997 L -659.559 460.4234 L -656.9402 460.0551 L -654.9798 459.7788 L -652.3744 459.4121 L -650.4366 459.1399 L -647.8623 458.7796 L -645.9307 458.5103 L -643.3781 458.1569 L -641.4528 457.8922 L -639.5603 457.634 L -637.0326 457.292 L -635.1462 457.0394 L -633.2629 456.7899 L -630.7675 456.4633 L -628.9023 456.2224 L -627.0403 455.9849 L -625.1805 455.7508 L -622.7188 455.4463 L -620.8796 455.2231 L -618.4448 454.9337 L -616.6216 454.722 L -614.8008 454.5152 L -612.3904 454.2485 L -610.5872 454.0547 L -608.7885 453.8663 L -606.4042 453.6246 L -604.619 453.4497 L -602.8442 453.281 L -601.0687 453.1178 L -598.725 452.9109 L -596.9693 452.7625 L -594.6379 452.5742 L -592.8955 452.4401 L -591.1595 452.3123 L -589.431 452.1911 L -587.7054 452.0758 L -585.9868 451.9663 L -584.2661 451.8621 L -582.5596 451.7641 L -580.2747 451.6409 L -578.5762 451.555 L -576.3059 451.4476 L -574.6028 451.3727 L -572.8977 451.3022 L -570.6282 451.2155 L -568.926 451.1558 L -567.2189 451.1004 L -565.5084 451.0494 L -563.2418 450.9892 L -561.523 450.9492 L -559.2487 450.9044 L -557.5348 450.8771 L -555.8199 450.8556 L -553.5358 450.8363 L -551.819 450.8293 L -549.5246 450.8301 L -547.7941 450.8388 L -545.4969 450.8611 L -543.7681 450.8863 L -542.0445 450.9185 L -540.3051 450.9583 L -538.0011 451.0222 L -536.2579 451.0786 L -533.9456 451.1635 L -532.1992 451.2348 L -529.8681 451.3392 L -528.1139 451.4244 L -526.3522 451.5154 L -524.0093 451.645 L -522.2434 451.7494 L -520.4737 451.8603 L -518.6984 451.9778 L -516.9211 452.1023 L -514.5461 452.2799 L -512.76 452.4225 L -510.9724 452.5731 L -509.1743 452.7329 L -507.3796 452.9008 L -504.9899 453.1373 L -503.1869 453.3254 L -501.3687 453.5234 L -498.9706 453.7966 L -497.1475 454.0136 L -494.7396 454.3129 L -492.9184 454.5493 L -490.4889 454.8783 L -488.6572 455.136 L -486.2153 455.492 L -484.3861 455.7679 L -482.5449 456.0535 L -480.0973 456.4448 L -478.2524 456.7483 L -475.79 457.1646 L -473.9397 457.4858 L -472.0779 457.8159 L -470.2238 458.1513 L -468.3524 458.4965 L -465.8773 458.9634 L -464.0081 459.3238 L -461.5246 459.8121 L -459.6428 460.1891 L -457.1496 460.6974 L -455.8763 460.9605 L -453.3983 461.4784 L -451.5336 461.873 L -449.6586 462.2736 L -447.1559 462.8136 L -445.2806 463.2216 L -443.3946 463.6346 L -440.9184 464.1786 L -439.0577 464.588 L -437.1952 464.9975 L -434.7594 465.5314 L -432.9367 465.9288 L -430.5377 466.448 L -428.7589 466.8294 L -426.9986 467.203 L -425.2572 467.5685 L -422.9957 468.0363 L -421.3247 468.3763 L -419.1491 468.8108 L -417.5478 469.1243 L -415.978 469.427 L -414.4368 469.7202 L -412.9209 470.005 L -410.9509 470.3701 L -409.5066 470.6349 L -407.6218 470.9775 L -406.2391 471.2271 L -404.433 471.5515 L -403.1078 471.7886 L -401.801 472.022 L -400.1078 472.3239 L -398.8565 472.5467 L -397.2167 472.8385 L -396.0111 473.0532 L -394.8212 473.2651 L -393.2682 473.5417 L -392.1265 473.7452 L -390.6335 474.0116 L -389.5392 474.2068 L -388.1117 474.4617 L -387.0653 474.6485 L -385.7057 474.8909 L -384.7114 475.0677 L -383.7377 475.24 L -382.7858 475.4075 L -381.8571 475.5698 L -380.949 475.7271 L -380.0621 475.8791 L -379.1942 476.0254 L -378.0658 476.2115 L -377.2355 476.3447 L -376.4152 476.4731 L -375.6061 476.5966 L -374.528 476.7556 L -373.7209 476.8703 L -372.9111 476.9814 L -372.1004 477.0887 L -371.2879 477.1923 L -370.4715 477.2923 L -369.3811 477.4194 L -368.5559 477.5107 L -367.4604 477.6251 L -366.6335 477.7063 L -365.8031 477.7831 L -364.6917 477.8782 L -363.855 477.9436 L -363.0147 478.0039 L -362.1712 478.0589 L -361.0481 478.1234 L -360.2004 478.1653 L -359.0669 478.2124 L -358.2129 478.2408 L -357.3563 478.2634 L -356.2131 478.2835 L -355.3531 478.2908 L -354.4893 478.2914 L -353.3391 478.2813 L -352.4675 478.2654 L -351.3161 478.2332 L -350.4464 478.2005 L -349.5754 478.1602 L -348.7026 478.1122 L -347.8291 478.056 L -346.6625 477.9679 L -345.7875 477.8917 L -344.9066 477.8062 L -343.7416 477.6795 L -342.8632 477.5735 L -341.9848 477.4582 L -341.1044 477.3331 L -339.9336 477.1514 L -339.0498 477.002 L -337.8837 476.7879 L -337.0067 476.6138 L -336.1322 476.4287 L -335.254 476.231 L -334.099 475.9524 L -333.2344 475.7294 L -332.0825 475.4129 L -331.2241 475.1623 L -330.0896 474.8113 L -329.2386 474.5331 L -328.3918 474.2436 L -327.2662 473.8391 L -326.4243 473.5224 L -325.5853 473.1947 L -324.7464 472.8552 L -323.6361 472.3882 L -322.8075 472.0269 L -321.9778 471.6546 L -321.1536 471.2746 L -320.3312 470.8853 L -319.2372 470.3522 L -318.4191 469.9426 L -317.6027 469.5246 L -316.7903 469.0992 L -315.7101 468.5198 L -314.9022 468.0757 L -314.0982 467.6252 L -313.2983 467.1679 L -312.2356 466.5461 L -311.4393 466.0692 L -310.3907 465.4264 L -309.6058 464.9343 L -308.8248 464.4351 L -307.7884 463.7577 L -307.0146 463.2408 L -306.2457 462.7177 L -305.4792 462.1864 L -304.4638 461.4675 L -303.7068 460.9203 L -302.953 460.3654 L -302.2038 459.804 L -301.458 459.235 L -300.7164 458.6591 L -299.735 457.8813 L -299.0035 457.2896 L -298.2762 456.691 L -297.5526 456.085 L -296.5958 455.2674 L -295.8822 454.6451 L -295.1707 454.0139 L -294.4649 453.377 L -293.76 452.7299 L -292.8301 451.8592 L -292.1357 451.1959 L -291.446 450.5258 L -290.5319 449.6198 L -289.8525 448.9318 L -289.1784 448.2357 L -288.5093 447.5309 L -287.6278 446.5803 L -286.9736 445.8578 L -286.1096 444.8813 L -285.4696 444.1412 L -284.8344 443.3919 L -284.2065 442.6365 L -283.3781 441.6165 L -282.7636 440.8428 L -282.1546 440.0608 L -281.3531 439.0078 L -280.762 438.2131 L -279.9799 437.1375 L -279.4017 436.324 L -278.8298 435.5037 L -278.265 434.6788 L -277.705 433.8455 L -276.9715 432.7306 L -276.4261 431.8838 L -275.7116 430.7499 L -275.1829 429.8939 L -274.6597 429.0319 L -274.1419 428.1641 L -273.4613 427.0024 L -272.952 426.1186 L -272.2875 424.9488 L -271.7913 424.0635 L -271.1358 422.8793 L -270.644 421.9797 L -270.0005 420.789 L -269.518 419.8852 L -268.8846 418.6844 L -268.4099 417.7732 L -267.7865 416.5603 L -267.3226 415.6458 L -266.8609 414.7253 L -266.2514 413.4944 L -265.8008 412.5714 L -265.3524 411.6413 L -264.9091 410.7085 L -264.3254 409.4583 L -263.8939 408.5161 L -263.4685 407.5708 L -263.0482 406.6203 L -262.4977 405.3473 L -262.0916 404.3866 L -261.692 403.4219 L -261.2988 402.4525 L -260.9113 401.4765 L -260.4054 400.1685 L -260.0328 399.179 L -259.5457 397.8509 L -259.1877 396.8468 L -258.8347 395.8341 L -258.4868 394.8137 L -258.0326 393.4469 L -257.6973 392.4118 L -257.2574 391.0191 L -256.9331 389.9668 L -256.6123 388.9044 L -256.2963 387.838 L -255.8804 386.4032 L -255.5721 385.3157 L -255.268 384.2234 L -254.8663 382.75 L -254.5696 381.6386 L -254.2733 380.5085 L -253.8884 379.0085 L -253.6017 377.8653 L -253.2269 376.3343 L -252.9501 375.1747 L -252.6768 374.0038 L -252.3201 372.4337 L -252.0574 371.2442 L -251.7149 369.6468 L -251.4636 368.4386 L -251.2173 367.2217 L -250.8966 365.5838 L -250.6626 364.3474 L -250.4342 363.1021 L -250.2105 361.8431 L -249.9219 360.1541 L -249.7142 358.8889 L -249.5106 357.604 L -249.3133 356.3124 L -249.06 354.5779 L -248.8767 353.264 L -248.6429 351.5034 L -248.4752 350.1738 L -248.2613 348.3846 L -248.1085 347.0314 L -247.9627 345.6732 L -247.8237 344.3042 L -247.6496 342.4686 L -247.5272 341.079 L -247.4121 339.6815 L -247.2706 337.8123 L -247.1731 336.3989 L -247.055 334.4999 L -246.9757 333.0673 L -246.8821 331.1419 L -246.8217 329.6953 L -246.7694 328.2379 L -246.7127 326.2819 L -246.6801 324.8065 L -246.65 322.8286 L -246.6378 321.3327 L -246.6345 319.8327 L -246.6402 318.3301 L -246.655 316.812 L -246.6788 315.2974 L -246.7251 313.2617 L -246.7708 311.7174 L -246.8456 309.6644 L -246.9125 308.1144 L -247.0167 306.0348 L -247.1062 304.4689 L -247.2056 302.8948 L -247.3535 300.7832 L -247.4753 299.2014 L -247.6543 297.0735 L -247.8007 295.4727 L -247.9578 293.8626 L -248.125 292.2478 L -248.3031 290.6207 L -248.5547 288.4574 L -248.7562 286.8222 L -248.968 285.1817 L -249.1903 283.5332 L -249.5023 281.3295 L -249.7476 279.6733 L -250.0032 278.0085 L -250.3603 275.7778 L -250.6398 274.1007 L -251.0294 271.8541 L -251.3333 270.1654 L -251.6486 268.4636 L -251.9716 266.7675 L -252.4198 264.4845 L -252.7663 262.7683 L -253.2396 260.4819 L -253.6056 258.7529 L -254.1044 256.4442 L -254.4879 254.7029 L -255.0094 252.3759 L -255.4081 250.6246 L -255.8134 248.8669 L -256.2255 247.1015 L -256.7831 244.7435 L -257.2112 242.9551 L -257.7831 240.5916 L -258.2224 238.7935 L -258.8087 236.4126 L -259.2554 234.6119 L -259.7057 232.8058 L -260.3126 230.3837 L -260.7681 228.5733 L -261.2266 226.7551 L -261.6915 224.9143 L -262.3023 222.4946 L -262.7652 220.6609 L -263.3819 218.2143 L -263.8423 216.3837 L -264.3044 214.5453 L -264.9179 212.101 L -265.3763 210.2695 L -265.9833 207.8381 L -266.4353 206.0241 L -266.8846 204.2174 L -267.3297 202.4245 L -267.9146 200.0632 L -268.3483 198.3089 L -268.9138 196.0163 L -269.3326 194.3151 L -269.7454 192.6359 L -270.2835 190.4429 L -270.6771 188.8364 L -271.0648 187.252 L -271.4449 185.6961 L -271.9405 183.6667 L -272.3035 182.1795 L -272.6591 180.7221 L -273.0078 179.2927 L -273.461 177.4329 L -273.7927 176.0718 L -274.2228 174.3057 L -274.5375 173.013 L -274.8445 171.7497 L -275.2427 170.1061 L -275.5316 168.9061 L -275.812 167.7321 L -276.1737 166.201 L -276.4358 165.0776 L -276.6896 163.977 L -276.936 162.8943 L -277.1759 161.8247 L -277.4077 160.7748 L -277.7058 159.3989 L -277.9209 158.388 L -278.2001 157.0503 L -278.4024 156.0612 L -278.5992 155.0833 L -278.7919 154.1104 L -278.9806 153.1428 L -279.2254 151.8643 L -279.4052 150.9098 L -279.5815 149.9606 L -279.8121 148.6988 L -279.9812 147.7585 L -280.1475 146.821 L -280.3647 145.5775 L -280.5242 144.6493 L -280.6805 143.7233 L -280.8831 142.4953 L -281.0303 141.5799 L -281.1741 140.6639 L -281.3588 139.4514 L -281.493 138.5417 L -281.6227 137.6365 L -281.7893 136.431 L -281.909 135.5292 L -282.0239 134.6289 L -282.1342 133.7281 L -282.2395 132.8298 L -282.34 131.9315 L -282.4663 130.7338 L -282.5549 129.8382 L -282.6641 128.6451 L -282.7387 127.7523 L -282.8279 126.5605 L -282.8867 125.6675 L -282.9385 124.7755 L -282.9963 123.5891 L -283.0311 122.6974 L -283.0583 121.8076 L -283.0831 120.6194 L -283.0935 119.725 L -283.0974 118.5309 L -283.0933 117.6305 L -283.079 116.4249 L -283.0618 115.5163 L -283.0306 114.2984 L -283.001 113.3789 L -282.9658 112.4528 L -282.9102 111.216 L -282.8612 110.2794 L -282.786 109.0253 L -282.7217 108.0785 L -282.6506 107.129 L -282.5436 105.8549 L -282.4534 104.8885 L -282.3214 103.6084 L -282.2117 102.6384 L -282.0522 101.3414 L -281.9215 100.3574 L -281.7365 99.0541 L -281.5874 98.066 L -281.3764 96.7439 L -281.2086 95.7453 L -280.9731 94.41 L -280.787 93.401 L -280.5938 92.3898 L -280.3236 91.0308 L -280.1125 90.0086 L -279.8186 88.6391 L -279.5883 87.6072 L -279.3486 86.5702 L -279.1003 85.5314 L -278.7541 84.1392 L -278.4818 83.0865 L -278.1063 81.6898 L -277.812 80.6363 L -277.4042 79.2301 L -277.0838 78.1645 L -276.6447 76.7547 L -276.3019 75.6918 L -275.8274 74.2694 L -275.4583 73.1983 L -274.9517 71.7736 L -274.5594 70.7025 L -274.1584 69.6338 L -273.746 68.5597 L -273.1817 67.1264 L -272.7477 66.0494 L -272.3057 64.973 L -271.7031 63.5356 L -271.2416 62.4565 L -270.7708 61.3745 L -270.2937 60.2975 L -269.6476 58.8691 L -269.1529 57.7979 L -268.4804 56.3721 L -267.9683 55.3092 L -267.4476 54.2484 L -266.7419 52.8417 L -266.2035 51.7917 L -265.6573 50.7464 L -265.1042 49.7075 L -264.5426 48.6717 L -263.9742 47.6417 L -263.2068 46.2773 L -262.6231 45.2583 L -262.0298 44.2379 L -261.2404 42.9026 L -260.637 41.8987 L -260.0312 40.9039 L -259.42 39.9135 L -258.5983 38.601 L -257.9772 37.6231 L -257.3516 36.6504 L -256.5127 35.3647 L -255.8776 34.406 L -255.2361 33.4504 L -254.383 32.2006 L -253.7354 31.2683 L -253.0824 30.3431 L -252.4256 29.4274 L -251.5409 28.2191 L -250.8737 27.3268 L -250.2 26.443 L -249.5169 25.5649 L -248.8357 24.7076 L -248.1396 23.8506 L -247.2132 22.7403 L -246.5079 21.9177 L -245.554 20.8362 L -244.8382 20.0482 L -243.8687 19.0138 L -243.1311 18.2521 L -242.1411 17.2646 L -241.3898 16.5417 L -240.3762 15.6021 L -239.6063 14.9158 L -238.8311 14.2489 L -238.0477 13.5997 L -237.2534 12.9669 L -236.1888 12.159 L -235.3791 11.5752 L -234.2902 10.8312 L -233.4627 10.2971 L -232.3536 9.6225 L -231.5113 9.1418 L -230.3833 8.5395 L -229.5322 8.1161 L -228.3827 7.5852 L -227.5242 7.2182 L -226.6609 6.873 L -225.5038 6.4456 L -224.6357 6.1497 L -223.7658 5.8721 L -222.8973 5.612 L -221.7384 5.2892 L -220.8728 5.0633 L -220.0077 4.849 L -219.1435 4.6465 L -217.9954 4.3959 L -217.1369 4.2219 L -216.2806 4.0589 L -215.428 3.9066 L -214.5789 3.7652 L -213.4508 3.5928 L -212.6042 3.4759 L -211.4918 3.3391 L -210.6566 3.2484 L -209.8234 3.1677 L -208.9933 3.0973 L -208.1635 3.0375 L -207.3354 2.9889 L -206.509 2.9521 L -205.4072 2.9222 L -204.5834 2.9144 L -203.7614 2.9191 L -202.663 2.9449 L -201.8408 2.9786 L -201.0175 3.0245 L -199.9206 3.104 L -199.0979 3.1772 L -198.2766 3.2619 L -197.455 3.3582 L -196.6323 3.466 L -195.5331 3.627 L -194.7187 3.7588 L -193.6238 3.952 L -192.8047 4.1083 L -191.9859 4.2742 L -191.1668 4.4497 L -190.3477 4.6342 L -189.2557 4.8943 L -188.4375 5.0993 L -187.346 5.3862 L -186.5289 5.6106 L -185.4397 5.9212 L -184.6207 6.1626 L -183.5327 6.4922 L -182.7146 6.7456 L -181.8935 7.0041 L -181.0677 7.2679 L -179.9704 7.6234 L -179.1408 7.8946 L -178.306 8.1684 L -177.1903 8.5342 L -176.3475 8.8096 L -175.5002 9.0851 L -174.648 9.3605 L -173.7876 9.6365 L -172.64 10 L -171.7741 10.2705 L -170.9013 10.5397 L -170.0262 10.8059 L -168.8519 11.1573 L -167.9622 11.4189 L -166.7744 11.7617 L -165.8781 12.0154 L -164.9742 12.2667 L -164.0666 12.5143 L -163.1523 12.7593 L -162.2333 13.0014 L -160.9998 13.3208 L -160.067 13.5577 L -158.8129 13.87 L -157.8668 14.1013 L -156.5963 14.4066 L -155.6351 14.6335 L -154.6663 14.8587 L -153.3628 15.1561 L -152.3801 15.3757 L -151.0569 15.6653 L -150.0535 15.8796 L -149.0449 16.0901 L -147.6836 16.3661 L -146.654 16.569 L -145.2659 16.835 L -144.212 17.0317 L -142.7968 17.289 L -141.7225 17.4793 L -140.2762 17.7287 L -139.177 17.9131 L -138.0666 18.0951 L -136.5765 18.3326 L -135.4437 18.5082 L -134.3011 18.6812 L -132.7571 18.9084 L -131.5857 19.076 L -130.0054 19.2956 L -128.8034 19.4575 L -127.5914 19.6165 L -126.3653 19.7728 L -124.713 19.9766 L -123.4581 20.1262 L -122.1913 20.273 L -120.4845 20.4649 L -119.1895 20.6063 L -117.4433 20.7914 L -116.1186 20.928 L -114.339 21.1065 L -112.9913 21.2382 L -111.6294 21.3684 L -109.7978 21.5389 L -108.4117 21.6646 L -107.0168 21.7879 L -105.6075 21.9094 L -104.192 22.0282 L -102.2896 22.1826 L -100.8536 22.2951 L -99.4108 22.4044 L -97.4712 22.5455 L -96.0046 22.6477 L -94.5352 22.7463 L -93.053 22.8417 L -91.0642 22.9635 L -89.5661 23.0505 L -87.5543 23.161 L -86.0321 23.2397 L -84.5074 23.3145 L -82.4611 23.4079 L -80.9158 23.4728 L -78.8441 23.5519 L -77.281 23.6052 L -75.7107 23.653 L -74.1283 23.6947 L -72.0206 23.7398 L -70.4257 23.7656 L -68.2952 23.7886 L -66.6855 23.7974 L -65.071 23.799 L -62.9086 23.7898 L -61.2796 23.7744 L -59.6427 23.7519 L -58.0035 23.7226 L -55.8023 23.6733 L -54.1474 23.6295 L -52.4833 23.5799 L -50.2541 23.5055 L -48.5721 23.4438 L -46.3297 23.3546 L -44.6339 23.2825 L -42.9262 23.2065 L -40.6517 23.1008 L -38.9287 23.0179 L -37.1962 22.9326 L -34.8885 22.8165 L -33.1419 22.7273 L -31.3902 22.6371 L -29.0413 22.5155 L -27.271 22.4237 L -25.4858 22.3312 L -23.1159 22.2085 L -21.3206 22.1159 L -19.5179 22.0231 L -17.708 21.9304 L -15.282 21.8068 L -13.4543 21.7144 L -11.6181 21.6223 L -9.7749 21.5306 L -7.9224 21.4393 L -6.0598 21.3485 L -3.5676 21.2286 L -1.6831 21.1391 L .836 21.0205 L 2.7367 20.9313 L 5.2877 20.8115 L 7.2114 20.7207 L 9.1458 20.6288 L 11.7365 20.5045 L 13.6931 20.41 L 16.3125 20.2829 L 18.287 20.1868 L 20.2734 20.0902 L 22.2699 19.9936 L 24.9405 19.8657 L 26.9564 19.7705 L 28.9771 19.6765 L 31.6775 19.5534 L 33.7059 19.463 L 35.7395 19.3743 L 38.448 19.2593 L 40.4829 19.1749 L 42.5166 19.0919 L 44.5527 19.0097 L 46.5931 18.928 L 48.6324 18.8465 L 50.6686 18.7649 L 53.3751 18.6552 L 55.4084 18.5716 L 57.4475 18.4866 L 60.1611 18.3712 L 62.1929 18.2832 L 64.8998 18.1637 L 66.9536 18.0715 L 69.6273 17.9496 L 71.6469 17.8563 L 73.6636 17.7622 L 75.6726 17.6676 L 77.6795 17.5721 L 79.6852 17.476 L 81.6712 17.38 L 84.3193 17.2509 L 86.2887 17.154 L 88.256 17.0566 L 90.2267 16.9583 L 92.8193 16.8279 L 94.7604 16.7295 L 96.696 16.6306 L 98.624 16.5314 L 101.1925 16.3982 L 102.4641 16.3317 L 104.3719 16.2313 L 106.8975 16.0974 L 108.7927 15.9965 L 110.6697 15.8964 L 113.1674 15.7635 L 115.0285 15.665 L 116.8777 15.5678 L 119.3256 15.4407 L 121.1416 15.348 L 123.5396 15.2281 L 125.3151 15.1415 L 127.6638 15.0301 L 129.3991 14.9503 L 131.1205 14.8733 L 133.3981 14.7752 L 135.0829 14.7054 L 136.7583 14.6384 L 138.4237 14.5741 L 140.0758 14.5122 L 142.2657 14.4323 L 143.8949 14.3737 L 145.5172 14.3157 L 147.6646 14.2388 L 149.2651 14.1807 L 150.8561 14.1217 L 152.4467 14.0611 L 154.5343 13.9788 L 156.094 13.9152 L 157.6487 13.8506 L 159.188 13.7854 L 160.7251 13.7194 L 162.7602 13.631 L 164.2813 13.5646 L 165.7993 13.4984 L 167.8085 13.4114 L 169.3121 13.347 L 171.3135 13.2626 L 172.8056 13.2008 L 174.2948 13.1404 L 175.7819 13.0816 L 177.2662 13.0246 L 178.7423 12.9697 L 180.7021 12.9001 L 182.1669 12.8504 L 184.1087 12.7875 L 185.5506 12.7432 L 186.9852 12.7008 L 188.4086 12.6604 L 189.8178 12.622 L 191.6785 12.5733 L 193.0498 12.5387 L 194.4115 12.5052 L 195.7599 12.4729 L 197.093 12.4415 L 198.8461 12.401 L 200.1435 12.3714 L 201.4282 12.3424 L 203.1209 12.3044 L 204.3699 12.2766 L 206.0211 12.2403 L 207.2399 12.2141 L 208.8506 12.18 L 210.0504 12.1551 L 211.2448 12.1309 L 212.8273 12.0997 L 214.0107 12.0771 L 215.5778 12.0482 L 216.7474 12.0274 L 217.9094 12.0077 L 219.4513 11.9835 L 220.5983 11.9672 L 221.7388 11.9527 L 222.8761 11.9401 L 224.3757 11.9267 L 225.4935 11.9193 L 226.6016 11.9143 L 228.0694 11.9117 L 229.1614 11.9128 L 230.5948 11.9187 L 231.6585 11.9267 L 232.712 11.9379 L 233.7549 11.9525 L 235.1228 11.9771 L 236.1352 11.9996 L 237.461 12.0348 L 238.4399 12.0653 L 239.4025 12.0993 L 240.3518 12.137 L 241.5951 12.1933 L 242.5103 12.2398 L 243.4128 12.2899 L 244.594 12.3625 L 245.4643 12.4215 L 246.3231 12.4848 L 247.4483 12.5763 L 248.2783 12.6506 L 249.0974 12.7304 L 249.9041 12.8158 L 250.6985 12.9071 L 251.4832 13.0047 L 252.5099 13.1447 L 253.268 13.2576 L 254.0151 13.3773 L 254.7506 13.5041 L 255.4747 13.6379 L 256.4238 13.8275 L 257.1263 13.9785 L 258.0473 14.1907 L 258.732 14.3596 L 259.6397 14.5991 L 260.3071 14.787 L 260.9709 14.9841 L 261.6295 15.1902 L 262.4953 15.4775 L 263.1383 15.7034 L 263.7751 15.9383 L 264.6078 16.2629 L 265.2251 16.517 L 266.0358 16.8691 L 266.6351 17.1429 L 267.2259 17.4246 L 267.8102 17.7149 L 268.3834 18.0116 L 269.1372 18.4199 L 269.6925 18.7344 L 270.4197 19.1644 L 270.955 19.4947 L 271.4822 19.8318 L 272.1713 20.2909 L 272.6787 20.6422 L 273.179 20.9993 L 273.67 21.3601 L 274.3134 21.8491 L 274.7869 22.2199 L 275.2532 22.5946 L 275.7133 22.9738 L 276.3167 23.4857 L 276.7592 23.8701 L 277.3432 24.3863 L 277.7775 24.776 L 278.3465 25.2923 L 278.7702 25.6802 L 279.3317 26.199 L 279.7497 26.5887 L 280.3038 27.1089 L 280.7188 27.5001 L 281.2701 28.0213 L 281.6841 28.4128 L 282.2367 28.9343 L 282.6526 29.3253 L 283.0706 29.7162 L 283.6307 30.2371 L 284.049 30.6231 L 284.6122 31.1391 L 285.0367 31.5243 L 285.4637 31.9086 L 286.0351 32.4169 L 286.4673 32.7962 L 287.049 33.2995 L 287.4837 33.6697 L 287.9245 34.0393 L 288.3693 34.4059 L 288.9643 34.8848 L 289.4154 35.2386 L 290.022 35.7007 L 290.4799 36.0386 L 290.9419 36.3693 L 291.4057 36.6911 L 291.8737 37.0054 L 292.3455 37.3112 L 292.819 37.6072 L 293.4578 37.9887 L 293.9414 38.2639 L 294.4307 38.5308 L 295.0837 38.8691 L 295.5786 39.112 L 296.0768 39.3453 L 296.744 39.6412 L 297.2466 39.8512 L 297.7509 40.0514 L 298.2572 40.2429 L 298.7669 40.4275 L 299.278 40.6048 L 299.9625 40.8313 L 300.4784 40.9953 L 301.1727 41.2085 L 301.6968 41.3643 L 302.2243 41.5164 L 302.7544 41.6645 L 303.2918 41.8096 L 304.0126 41.9963 L 304.561 42.1316 L 305.1152 42.2622 L 305.6767 42.388 L 306.4297 42.5467 L 307.0029 42.6599 L 307.7775 42.8025 L 308.365 42.9027 L 308.96 42.9972 L 309.7632 43.1126 L 310.3751 43.1904 L 311.1925 43.2798 L 311.8132 43.3366 L 312.4373 43.3841 L 313.0642 43.4221 L 313.907 43.4576 L 314.5422 43.4725 L 315.1819 43.4773 L 316.0392 43.4675 L 316.687 43.4477 L 317.5542 43.4044 L 318.2089 43.3592 L 319.0837 43.282 L 319.7439 43.2112 L 320.628 43.1001 L 321.2951 43.0044 L 322.1885 42.8612 L 322.8626 42.7422 L 323.5392 42.6137 L 324.2213 42.4756 L 325.1339 42.2786 L 325.8253 42.1206 L 326.5188 41.9551 L 327.2174 41.7816 L 327.9198 41.6004 L 328.6252 41.4116 L 329.5708 41.1481 L 330.2835 40.9419 L 331.0016 40.7275 L 331.724 40.5055 L 332.6935 40.1985 L 333.4257 39.9602 L 334.4088 39.632 L 335.1526 39.3778 L 335.9008 39.1173 L 336.9051 38.7612 L 337.6635 38.488 L 338.4275 38.2101 L 339.4527 37.8336 L 340.2293 37.5463 L 341.0073 37.2565 L 341.7913 36.9627 L 342.5883 36.6622 L 343.6438 36.2614 L 344.4477 35.9542 L 345.2556 35.6438 L 346.0694 35.3295 L 347.165 34.9035 L 347.9917 34.5797 L 349.1037 34.1407 L 349.9434 33.8066 L 350.7891 33.4677 L 351.6449 33.1225 L 352.783 32.6594 L 353.6479 32.3044 L 354.5155 31.9458 L 355.3889 31.5821 L 356.5627 31.089 L 357.4495 30.7134 L 358.3414 30.3328 L 359.2401 29.9464 L 360.1429 29.5556 L 361.3566 29.0256 L 362.2802 28.6189 L 363.5078 28.0738 L 364.4405 27.6563 L 365.3839 27.2313 L 366.6471 26.6585 L 367.6009 26.2235 L 368.5622 25.7829 L 369.5337 25.3355 L 370.839 24.7313 L 371.8331 24.2692 L 372.8279 23.8057 L 374.1655 23.1815 L 375.1808 22.7071 L 376.2043 22.2287 L 377.5818 21.5844 L 378.6253 21.0964 L 379.6809 20.6028 L 381.092 19.9434 L 382.1651 19.4423 L 383.2465 18.9376 L 384.704 18.258 L 385.8062 17.7443 L 386.9189 17.226 L 388.0407 16.7036 L 389.174 16.176 L 390.6848 15.4726 L 391.8309 14.9389 L 393.3746 14.2204 L 394.5355 13.6801 L 395.7091 13.134 L 397.2864 12.4003 L 398.4778 11.8462 L 399.6775 11.2882 L 400.8878 10.7254 L 402.1033 10.1597 L 403.3294 9.5885 L 404.5616 9.0134 L 405.8038 8.4325 L 407.0493 7.8486 L 408.305 7.2582 L 409.9919 6.462 L 411.2617 5.8601 L 412.5418 5.2509 L 413.8321 4.6344 L 415.5519 3.8085 L 416.8654 3.1746 L 418.6019 2.3325 L 419.9202 1.6905 L 421.2461 1.0424 L 422.5789 .3888 L 424.3657 -.4905 L 425.7179 -1.1583 L 427.5237 -2.0528 L 428.889 -2.7311 L 430.2633 -3.4156 L 432.1015 -4.334 L 433.4895 -5.0299 L 435.3487 -5.9654 L 436.7615 -6.6791 L 438.633 -7.6285 L 440.0539 -8.3526 L 441.9509 -9.324 L 443.3896 -10.0646 L 445.3032 -11.055 L 446.7498 -11.8079 L 448.6846 -12.8212 L 450.1405 -13.5885 L 451.6031 -14.3636 L 453.0698 -15.1453 L 455.0314 -16.1978 L 456.5078 -16.9954 L 457.9947 -17.8035 L 459.9724 -18.8859 L 461.4607 -19.7062 L 462.9546 -20.5346 L 464.9525 -21.6503 L 466.457 -22.4962 L 467.9658 -23.3493 L 469.4835 -24.2121 L 471.5008 -25.3658 L 473.0234 -26.2416 L 474.5508 -27.1242 L 476.0774 -28.0104 L 478.1224 -29.2036 L 479.6627 -30.1071 L 481.7181 -31.3195 L 483.2677 -32.2388 L 484.8132 -33.1603 L 486.3751 -34.0965 L 488.441 -35.3427 L 490.0005 -36.2897 L 491.5576 -37.2412 L 493.128 -38.2067 L 495.2002 -39.4903 L 496.7603 -40.4647 L 498.3217 -41.4474 L 499.8872 -42.4399 L 501.4436 -43.4345 L 503.5154 -44.7706 L 505.0746 -45.7853 L 506.6337 -46.8075 L 508.7006 -48.1747 L 510.263 -49.2172 L 511.8194 -50.2632 L 513.8702 -51.6526 L 515.4219 -52.7122 L 516.9796 -53.7831 L 518.5225 -54.8514 L 520.5772 -56.2857 L 522.1241 -57.3736 L 523.6787 -58.4739 L 525.7256 -59.9324 L 527.2672 -61.039 L 529.3423 -62.5382 L 530.8647 -63.6447 L 532.4254 -64.7843 L 533.9473 -65.9008 L 535.5029 -67.048 L 537.5391 -68.5571 L 539.0767 -69.7028 L 540.6281 -70.8639 L 542.6721 -72.4006 L 544.2069 -73.5604 L 546.2542 -75.1156 L 547.7911 -76.2891 L 549.8614 -77.8763 L 551.378 -79.0454 L 552.9305 -80.2475 L 554.9637 -81.83 L 556.4896 -83.023 L 558.0276 -84.2314 L 560.0737 -85.8466 L 561.5952 -87.0538 L 563.1304 -88.2785 L 565.1611 -89.9072 L 566.6865 -91.1365 L 568.2217 -92.3793 L 570.2397 -94.022 L 571.7612 -95.2679 L 573.2824 -96.5185 L 575.3098 -98.1939 L 576.8298 -99.4567 L 578.3422 -100.7191 L 580.3617 -102.4141 L 581.3863 -103.2782 L 583.3834 -104.9715 L 584.8923 -106.2595 L 586.397 -107.5512 L 587.9132 -108.862 L 589.8956 -110.5891 L 591.3906 -111.9029 L 593.38 -113.6661 L 594.8608 -114.9906 L 596.3395 -116.3234 L 598.3152 -118.1208 L 599.7667 -119.4532 L 601.2417 -120.8184 L 603.1708 -122.6201 L 604.6115 -123.9778 L 606.0594 -125.3526 L 607.9734 -127.1862 L 609.3987 -128.5621 L 610.8276 -129.9509 L 612.7225 -131.8067 L 614.1334 -133.1979 L 615.5482 -134.6009 L 617.4227 -136.4715 L 618.827 -137.8804 L 620.6912 -139.7611 L 622.0819 -141.171 L 623.477 -142.5894 L 625.3403 -144.4909 L 626.2698 -145.4422 L 628.1136 -147.3337 L 629.5027 -148.7611 L 630.8948 -150.194 L 632.7463 -152.1024 L 634.1379 -153.5375 L 635.5284 -154.9721 L 637.3843 -156.8863 L 638.77 -158.3162 L 640.1636 -159.7525 L 641.5651 -161.1951 L 643.4206 -163.1024 L 644.821 -164.5386 L 646.224 -165.9749 L 647.6361 -167.4175 L 649.5071 -169.3238 L 650.9182 -170.7577 L 652.8083 -172.6735 L 654.2205 -174.1015 L 656.1142 -176.0102 L 657.5341 -177.4379 L 658.9609 -178.8682 L 660.3911 -180.299 L 662.3009 -182.2041 L 663.7335 -183.6292 L 665.6381 -185.5195 L 667.0786 -186.9446 L 668.9946 -188.8349 L 670.435 -190.2527 L 672.352 -192.1336 L 673.8089 -193.5581 L 675.7142 -195.4166 L 677.1517 -196.8157 L 678.6019 -198.2231 L 680.515 -200.0743 L 681.9505 -201.459 L 683.8665 -203.3006 L 685.3025 -204.6763 L 686.7429 -206.0513 L 688.6667 -207.8795 L 690.0994 -209.2363 L 691.5359 -210.5913 L 693.4617 -212.3997 L 694.8943 -213.7378 L 696.8163 -215.5254 L 698.256 -216.8566 L 699.697 -218.1825 L 701.1417 -219.5044 L 703.0684 -221.2542 L 704.5176 -222.5609 L 706.4495 -224.2878 L 707.9047 -225.5766 L 709.845 -227.2796 L 711.3073 -228.5499 L 713.2602 -230.2288 L 714.7261 -231.4763 L 716.1965 -232.716 L 717.6697 -233.9469 L 719.1484 -235.1702 L 720.629 -236.3828 L 722.119 -237.5908 L 724.1027 -239.179 L 725.6028 -240.3645 L 727.6031 -241.924 L 729.0962 -243.0724 L 731.1086 -244.5978 L 732.6219 -245.7291 L 734.1415 -246.8508 L 736.1721 -248.3269 L 737.701 -249.4222 L 739.2397 -250.5106 L 740.7709 -251.5802 L 742.3103 -252.6421 L 743.8622 -253.6991 L 745.9208 -255.0814 L 747.4716 -256.1084 L 749.5525 -257.4678 L 751.1123 -258.4736 L 753.191 -259.7961 L 754.7516 -260.7771 L 756.3073 -261.7453 L 757.8641 -262.7044 L 759.9234 -263.958 L 761.4622 -264.883 L 763.4999 -266.092 L 765.024 -266.9841 L 766.5409 -267.8609 L 768.0594 -268.7271 L 770.056 -269.8478 L 771.5511 -270.6729 L 773.5341 -271.748 L 775.0151 -272.536 L 776.4897 -273.3079 L 778.4481 -274.3132 L 779.9035 -275.0461 L 781.3564 -275.7661 L 783.2786 -276.7018 L 784.7119 -277.3878 L 786.1385 -278.0619 L 787.5514 -278.7219 L 788.9601 -279.3734 L 790.356 -280.0142 L 791.7433 -280.6478 L 793.5723 -281.4803 L 794.931 -282.0981 L 796.2784 -282.7113 L 797.6125 -283.3201 L 798.9346 -283.9251 L 800.6779 -284.7257 L 801.9717 -285.3215 L 803.251 -285.9113 L 804.9402 -286.6896 L 806.1948 -287.2662 L 807.438 -287.8358 L 808.6702 -288.3974 L 810.2953 -289.1328 L 811.5 -289.673 L 812.6975 -290.2055 L 814.2684 -290.8965 L 815.4351 -291.4045 L 816.5909 -291.9033 L 818.1099 -292.5522 L 819.2364 -293.0287 L 820.7197 -293.6511 L 821.8209 -294.1099 L 823.2651 -294.7083 L 824.3379 -295.1509 L 825.7491 -295.7315 L 826.7958 -296.1612 L 827.8317 -296.5862 L 829.1869 -297.1425 L 830.197 -297.558 L 831.198 -297.9707 L 832.5234 -298.5189 L 833.5069 -298.9272 L 834.4838 -299.334 L 835.7769 -299.874 L 836.7365 -300.2758 L 837.6953 -300.6782 L 838.6418 -301.0766 L 839.5883 -301.4757 L 840.843 -302.006 L 841.7781 -302.4016 L 843.0134 -302.9251 L 843.9335 -303.3152 L 844.8467 -303.7018 L 845.7548 -304.0855 L 846.6593 -304.4669 L 847.5558 -304.8439 L 848.452 -305.2195 L 849.3427 -305.5924 L 850.527 -306.0869 L 851.4138 -306.4565 L 852.2988 -306.825 L 853.4722 -307.3131 L 854.3505 -307.6779 L 855.2263 -308.0422 L 856.1003 -308.405 L 856.9733 -308.7677 L 857.8464 -309.1306 L 859.0056 -309.613 L 859.8657 -309.9709 L 861.0181 -310.4499 L 861.8781 -310.8088 L 862.7367 -311.1677 L 863.8779 -311.6472 L 864.7312 -312.0066 L 865.5818 -312.3659 L 866.7142 -312.8459 L 867.5579 -313.2058 L 868.6819 -313.6875 L 869.5228 -314.0498 L 870.3619 -314.4126 L 871.4736 -314.895 L 872.3063 -315.258 L 873.1347 -315.6201 L 874.2305 -316.1015 L 875.0478 -316.4617 L 875.8577 -316.8201 L 876.6721 -317.1816 L 877.7269 -317.6517 L 878.5163 -318.0051 L 879.3 -318.3576 L 880.3314 -318.8253 L 881.0957 -319.175 L 882.1049 -319.6422 L 882.8534 -319.9928 L 883.5922 -320.3436 L 884.3239 -320.6946 L 885.048 -321.0472 L 885.9985 -321.5181 L 886.7018 -321.8731 L 887.6273 -322.3489 L 888.3125 -322.7073 L 888.9891 -323.0669 L 889.8796 -323.549 L 890.5397 -323.9131 L 891.4066 -324.4002 L 892.0494 -324.7688 L 892.8939 -325.2627 L 893.5185 -325.6354 L 894.34 -326.136 L 894.9489 -326.5144 L 895.7491 -327.0226 L 896.3401 -327.406 L 896.9247 -327.7929 L 897.6964 -328.3167 L 898.268 -328.7152 L 898.8333 -329.1187 L 899.3928 -329.5279 L 899.9453 -329.9426 L 900.671 -330.5045 L 901.207 -330.9328 L 901.7352 -331.3672 L 902.2558 -331.8083 L 902.9411 -332.4104 L 903.4352 -332.8613 L 904.0876 -333.4804 L 904.5676 -333.9539 L 905.1879 -334.5897 L 905.6454 -335.0757 L 906.0927 -335.5649 L 906.5327 -336.0605 L 906.9642 -336.5604 L 907.5254 -337.2323 L 907.9377 -337.7422 L 908.4741 -338.4274 L 908.8674 -338.9464 L 909.2535 -339.4697 L 909.7548 -340.1712 L 910.1212 -340.7013 L 910.48 -341.2353 L 910.8307 -341.7717 L 911.174 -342.312 L 911.5087 -342.8541 L 911.8358 -343.3997 L 912.2593 -344.1306 L 912.5678 -344.6819 L 912.8688 -345.2366 L 913.2576 -345.9788 L 913.5397 -346.5374 L 914.082 -347.6628 L 914.4269 -348.4166 L 914.6765 -348.9835 L 914.9184 -349.5519 L 915.1525 -350.1223 L 915.3779 -350.6935 L 915.5954 -351.2678 L 915.8712 -352.0326 L 916.0679 -352.6075 L 916.2558 -353.1836 L 916.4922 -353.9529 L 916.6591 -354.5305 L 916.8175 -355.1103 L 916.9666 -355.6899 L 917.152 -356.4648 L 917.2816 -357.0473 L 917.4412 -357.8245 L 917.5521 -358.412 L 917.6871 -359.1929 L 917.7802 -359.7826 L 917.8931 -360.5723 L 917.9692 -361.1651 L 918.0385 -361.7618 L 918.1191 -362.5568 L 918.1716 -363.1558 L 918.217 -363.7568 L 918.2667 -364.5609 L 918.2961 -365.1664 L 918.319 -365.7748 L 918.3387 -366.5889 L 918.3453 -367.2029 L 918.345 -367.8174 L 918.3339 -368.6417 L 918.3171 -369.2605 L 918.2839 -370.0894 L 918.2506 -370.7143 L 918.21 -371.3398 L 918.1446 -372.1757 L 918.0867 -372.8046 L 918.0216 -373.4347 L 917.9232 -374.2776 L 917.8409 -374.9133 L 917.7212 -375.759 L 917.6238 -376.3962 L 917.4833 -377.2485 L 917.3705 -377.8905 L 917.2512 -378.5358 L 917.0827 -379.3993 L 916.9485 -380.0507 L 916.8084 -380.7035 L 916.6623 -381.3592 L 916.5102 -382.0174 L 916.3519 -382.6786 L 916.1329 -383.5632 L 915.962 -384.2292 L 915.7853 -384.9001 L 915.5427 -385.7917 L 915.3542 -386.4644 L 915.1606 -387.1411 L 914.9631 -387.8165 L 914.6929 -388.723 L 914.4858 -389.4048 L 914.2745 -390.0895 L 914.0591 -390.7767 L 913.8405 -391.465 L 913.6175 -392.1552 L 913.3904 -392.8488 L 913.0823 -393.7741 L 912.846 -394.472 L 912.5261 -395.4042 L 912.2819 -396.1049 L 912.0342 -396.8078 L 911.6967 -397.7476 L 911.4396 -398.4537 L 911.1776 -399.1617 L 910.9118 -399.8692 L 910.5497 -400.8169 L 910.2744 -401.5258 L 909.8996 -402.4736 L 909.6126 -403.185 L 909.3212 -403.8972 L 909.0262 -404.6072 L 908.6247 -405.5569 L 908.3181 -406.2698 L 908.0065 -406.9827 L 907.6899 -407.6966 L 907.3696 -408.4095 L 906.9346 -409.3601 L 906.6031 -410.074 L 906.1542 -411.0257 L 905.8126 -411.7395 L 905.3511 -412.6922 L 905.0005 -413.406 L 904.527 -414.3583 L 904.1667 -415.0727 L 903.8025 -415.7866 L 903.4343 -416.5009 L 902.9367 -417.4536 L 902.5595 -418.1674 L 902.1795 -418.8801 L 901.7957 -419.593 L 901.2776 -420.5424 L 900.8855 -421.2529 L 900.4888 -421.9643 L 900.0904 -422.6706 L 899.5533 -423.6117 L 899.1469 -424.3148 L 898.7378 -425.0147 L 898.3267 -425.7126 L 897.913 -426.4071 L 897.4969 -427.0955 L 897.0787 -427.7809 L 896.5185 -428.6863 L 896.0949 -429.3616 L 895.6683 -430.0321 L 895.097 -430.9155 L 894.6634 -431.5726 L 894.0801 -432.4393 L 893.6385 -433.0826 L 893.044 -433.9296 L 892.5933 -434.5576 L 892.1372 -435.1792 L 891.5229 -435.9986 L 891.0585 -436.604 L 890.4306 -437.4032 L 889.957 -437.9921 L 889.4781 -438.5748 L 888.9957 -439.149 L 888.5084 -439.7159 L 888.0154 -440.275 L 887.5189 -440.824 L 886.8496 -441.5419 L 886.3414 -442.0705 L 885.8278 -442.5908 L 885.136 -443.2699 L 884.6121 -443.768 L 884.0817 -444.2588 L 883.5479 -444.7392 L 882.8268 -445.3677 L 882.2808 -445.829 L 881.7291 -446.2825 L 881.1718 -446.7283 L 880.4225 -447.3102 L 879.8556 -447.7386 L 879.2842 -448.1613 L 878.7083 -448.5783 L 878.1315 -448.9885 L 877.3544 -449.5286 L 876.7675 -449.9273 L 876.1786 -450.3201 L 875.5852 -450.7087 L 874.9884 -451.0924 L 874.1857 -451.5966 L 873.5792 -451.9688 L 872.7648 -452.4561 L 872.1498 -452.8139 L 871.324 -453.2814 L 870.699 -453.6251 L 869.859 -454.0742 L 869.2244 -454.4038 L 868.5855 -454.7275 L 867.942 -455.045 L 867.0789 -455.4568 L 866.4269 -455.7564 L 865.5506 -456.1436 L 864.8879 -456.4244 L 864.2228 -456.6965 L 863.3301 -457.0462 L 862.6556 -457.2985 L 861.7513 -457.6209 L 861.0707 -457.852 L 860.3852 -458.0746 L 859.6947 -458.2889 L 858.774 -458.5593 L 858.0768 -458.7526 L 857.3729 -458.9377 L 856.4386 -459.1672 L 855.7289 -459.3295 L 854.7769 -459.5312 L 854.0585 -459.6715 L 853.3356 -459.8032 L 852.6104 -459.9264 L 851.8803 -460.0417 L 850.9041 -460.1826 L 850.164 -460.2795 L 849.1757 -460.397 L 848.4306 -460.4767 L 847.6807 -460.5496 L 846.6739 -460.6362 L 845.9153 -460.6934 L 845.1521 -460.7438 L 844.3837 -460.7876 L 843.3553 -460.8352 L 842.5798 -460.8632 L 841.7988 -460.8847 L 840.752 -460.9033 L 839.9625 -460.9099 L 839.1699 -460.9099 L 838.371 -460.9035 L 837.5693 -460.8906 L 836.7656 -460.871 L 835.6863 -460.8339 L 834.8719 -460.7976 L 834.0546 -460.7539 L 832.9579 -460.6837 L 832.1318 -460.6223 L 831.023 -460.5285 L 830.1841 -460.4492 L 829.064 -460.3321 L 828.2193 -460.2352 L 827.3671 -460.13 L 826.2255 -459.9763 L 825.3642 -459.8501 L 824.5004 -459.7146 L 823.6305 -459.5691 L 822.7564 -459.4135 L 821.5923 -459.1913 L 820.7142 -459.0125 L 819.8353 -458.8244 L 818.9497 -458.6259 L 817.7659 -458.3471 L 816.8685 -458.1259 L 815.6813 -457.8204 L 814.7829 -457.5797 L 813.8791 -457.3293 L 812.6802 -456.9843 L 811.775 -456.7146 L 810.8677 -456.4363 L 809.9568 -456.1494 L 809.0439 -455.8552 L 808.1293 -455.5542 L 807.2101 -455.2461 L 806.2888 -454.9319 L 805.0574 -454.5038 L 804.1292 -454.1756 L 802.8865 -453.7299 L 801.9523 -453.3896 L 801.0148 -453.0442 L 800.0742 -452.6936 L 799.1298 -452.3378 L 797.8677 -451.8564 L 796.9162 -451.4889 L 795.9647 -451.1177 L 794.6876 -450.6145 L 793.7286 -450.2327 L 792.7637 -449.8454 L 791.7963 -449.4539 L 790.8243 -449.0573 L 789.8463 -448.6549 L 788.5386 -448.1114 L 787.5504 -447.697 L 786.5571 -447.2768 L 785.5568 -446.8506 L 784.5496 -446.4182 L 783.196 -445.8325 L 782.1725 -445.386 L 780.7937 -444.7803 L 779.7569 -444.3223 L 778.7047 -443.8556 L 777.6447 -443.3839 L 776.5756 -442.9073 L 775.4974 -442.4263 L 774.407 -441.94 L 772.939 -441.286 L 771.8221 -440.7895 L 770.697 -440.2904 L 769.1765 -439.6183 L 768.021 -439.1094 L 766.853 -438.5968 L 765.2758 -437.9067 L 764.0742 -437.3827 L 762.8608 -436.8553 L 761.2183 -436.1438 L 759.9694 -435.6046 L 758.7056 -435.0605 L 756.9961 -434.3268 L 755.6992 -433.772 L 754.392 -433.2144 L 753.0727 -432.6529 L 751.2911 -431.8972 L 749.9448 -431.3279 L 748.1285 -430.5625 L 746.7492 -429.9829 L 745.3597 -429.4007 L 743.9545 -428.8134 L 742.5397 -428.2238 L 740.6276 -427.4292 L 739.1863 -426.8317 L 737.7298 -426.2288 L 736.258 -425.6198 L 734.7759 -425.0066 L 732.7806 -424.1804 L 731.2709 -423.5546 L 729.2391 -422.7114 L 727.7017 -422.0726 L 725.6325 -421.2116 L 724.0672 -420.5597 L 721.9636 -419.6827 L 720.3726 -419.0192 L 718.7671 -418.3495 L 717.1534 -417.6765 L 715.5259 -416.9981 L 713.3405 -416.0881 L 711.6848 -415.3997 L 710.0175 -414.7079 L 707.7812 -413.7818 L 706.0909 -413.0836 L 704.3866 -412.3818 L 702.6702 -411.6767 L 700.9428 -410.9692 L 699.2079 -410.2609 L 697.4709 -409.5538 L 695.7231 -408.8443 L 693.3735 -407.894 L 691.5963 -407.1777 L 689.2263 -406.2262 L 687.4319 -405.5084 L 685.6279 -404.7889 L 683.8062 -404.0648 L 681.377 -403.1026 L 679.5462 -402.3802 L 677.7015 -401.6542 L 675.8446 -400.9257 L 673.9738 -400.1942 L 671.4807 -399.2226 L 669.5999 -398.4925 L 667.7036 -397.7586 L 665.179 -396.785 L 663.2708 -396.0521 L 660.7184 -395.075 L 658.7995 -394.3431 L 656.872 -393.6102 L 654.9345 -392.8758 L 652.3621 -391.9041 L 650.4281 -391.176 L 647.843 -390.206 L 645.9064 -389.4824 L 643.9659 -388.7599 L 642.0177 -388.037 L 640.0812 -387.3209 L 638.1476 -386.6085 L 635.5703 -385.6637 L 633.6348 -384.9583 L 631.6953 -384.2548 L 629.7715 -383.5609 L 627.1999 -382.64 L 625.2738 -381.9558 L 622.7013 -381.0494 L 620.7784 -380.3777 L 618.8585 -379.7121 L 616.9321 -379.0497 L 614.3663 -378.1756 L 612.4653 -377.5337 L 609.9077 -376.6786 L 607.9888 -376.043 L 605.4467 -375.2086 L 603.5334 -374.5865 L 600.9885 -373.7672 L 599.0726 -373.1564 L 596.5374 -372.3557 L 594.6392 -371.7623 L 592.7291 -371.1703 L 590.834 -370.5878 L 588.9265 -370.0067 L 586.4019 -369.2462 L 584.5015 -368.68 L 581.9741 -367.9364 L 580.0728 -367.3843 L 577.5396 -366.659 L 575.6577 -366.1284 L 573.7622 -365.6014 L 571.8647 -365.0816 L 569.9722 -364.5713 L 568.0835 -364.0707 L 566.1851 -363.5763 L 564.2897 -363.092 L 561.7828 -362.4663 L 559.8864 -362.0049 L 557.3737 -361.4105 L 555.4837 -360.9767 L 553.596 -360.5552 L 551.0624 -360.0088 L 549.1838 -359.6179 L 546.6613 -359.1117 L 544.7726 -358.746 L 542.258 -358.2762 L 540.3791 -357.9374 L 538.4924 -357.6071 L 536.608 -357.2866 L 534.0934 -356.8725 L 532.2001 -356.5704 L 529.6927 -356.1821 L 527.8256 -355.9012 L 525.3138 -355.5339 L 523.4398 -355.2674 L 521.5521 -355.0055 L 519.056 -354.6688 L 517.183 -354.4241 L 515.3054 -354.1855 L 512.8025 -353.8782 L 510.9246 -353.6561 L 509.0447 -353.4412 L 506.5427 -353.1671 L 504.6495 -352.9691 L 502.7726 -352.7807 L 500.2761 -352.5426 L 498.3913 -352.3721 L 496.5133 -352.21 L 494.6217 -352.0544 L 492.7397 -351.9073 L 490.2191 -351.7216 L 488.3219 -351.5901 L 485.7972 -351.4256 L 483.8965 -351.3091 L 481.3665 -351.1634 L 479.4547 -351.0599 L 477.5307 -350.9612 L 474.9695 -350.8377 L 473.0476 -350.7508" stroke-width="28" stroke="grey" fill="none" id="Track"/></svg>