<?xml version="1.0" standalone="no"?>
<svg xmlns:xlink="http://www.w3.org/1999/xlink" id="s2" class="track" xmlns="http://www.w3.org/2000/svg" width="800" height="600" viewBox="-1000 -1000 2000 2000">
        <path d="M 614.5738 -547.2215 L 612.9727 -545.4462 L 611.7756 -544.1172 L 610.5714 -542.7791 L 609.3719 -541.4447 L 608.1649 -540.1011 L 606.5632 -538.3167 L 605.356 -536.9705 L 603.7486 -535.1766 L 602.5407 -533.8274 L 601.3323 -532.4767 L 600.1215 -531.123 L 598.9065 -529.7644 L 597.2953 -527.9614 L 596.0806 -526.6025 L 594.8654 -525.2424 L 593.2424 -523.4265 L 592.0223 -522.0615 L 590.3969 -520.2433 L 589.1737 -518.8757 L 587.543 -517.0527 L 586.3162 -515.6816 L 585.09 -514.3113 L 583.8623 -512.9394 L 582.2227 -511.1074 L 580.9913 -509.7317 L 579.7582 -508.3539 L 578.1132 -506.5156 L 576.8771 -505.1343 L 575.2238 -503.2873 L 573.9903 -501.9101 L 572.7501 -500.5254 L 571.0951 -498.6793 L 569.8504 -497.2921 L 568.6056 -495.9052 L 567.3457 -494.5031 L 565.6931 -492.6657 L 564.446 -491.2808 L 563.1937 -489.8913 L 561.9396 -488.5008 L 560.6803 -487.1058 L 558.9962 -485.2413 L 557.7533 -483.8672 L 556.4913 -482.4727 L 555.2269 -481.0765 L 553.5478 -479.2238 L 552.2825 -477.8283 L 551.0172 -476.4339 L 549.3142 -474.5579 L 548.0586 -473.1759 L 546.7891 -471.779 L 545.5173 -470.38 L 543.8208 -468.5141 L 542.5456 -467.1114 L 540.8466 -465.2427 L 539.5658 -463.8331 L 537.8707 -461.9667 L 536.5934 -460.5588 L 535.3156 -459.149 L 534.0353 -457.7355 L 532.3351 -455.8562 L 531.058 -454.4431 L 529.7776 -453.025 L 528.0767 -451.139 L 526.7996 -449.7221 L 525.5193 -448.3005 L 523.8145 -446.4069 L 522.535 -444.985 L 521.2514 -443.5579 L 519.5449 -441.6602 L 518.262 -440.2331 L 516.9734 -438.799 L 515.2687 -436.9019 L 513.9758 -435.4626 L 512.2715 -433.5652 L 510.9866 -432.1344 L 509.7014 -430.7032 L 507.9912 -428.7987 L 506.7057 -427.3679 L 505.4232 -425.9408 L 504.1339 -424.5063 L 502.4347 -422.6166 L 501.1544 -421.1936 L 499.8773 -419.7746 L 498.1766 -417.8859 L 496.9032 -416.4724 L 495.207 -414.59 L 493.9311 -413.1745 L 492.2443 -411.3033 L 490.99 -409.912 L 489.7302 -408.5143 L 488.4757 -407.1223 L 487.2194 -405.7279 L 485.5587 -403.8842 L 484.3088 -402.4963 L 483.0744 -401.1251 L 481.4285 -399.2962 L 480.1979 -397.9281 L 478.971 -396.5637 L 477.7472 -395.2023 L 476.5185 -393.8349 L 474.9079 -392.0419 L 474.0938 -391.1354 L 472.4878 -389.3468 L 471.2856 -388.0074 L 470.0821 -386.6663 L 468.4897 -384.8917 L 467.2987 -383.5643 L 466.1087 -382.2378 L 464.9231 -380.9163 L 463.3441 -379.1561 L 462.1726 -377.8501 L 460.9991 -376.5417 L 459.8277 -375.2356 L 458.2731 -373.5024 L 457.1092 -372.2048 L 455.9447 -370.9066 L 454.4036 -369.1882 L 453.2464 -367.8983 L 452.0918 -366.6112 L 450.5529 -364.8956 L 449.3883 -363.5972 L 447.8712 -361.9059 L 446.7215 -360.6239 L 445.1938 -358.9203 L 444.046 -357.6406 L 442.8874 -356.349 L 441.3702 -354.6584 L 440.2246 -353.3825 L 438.6937 -351.6785 L 437.5478 -350.4036 L 436.0181 -348.7034 L 434.8707 -347.4291 L 433.7077 -346.1387 L 432.1859 -344.4525 L 431.0372 -343.1812 L 429.8832 -341.9053 L 428.727 -340.628 L 427.184 -338.9254 L 426.0236 -337.6462 L 424.4748 -335.941 L 423.3091 -334.659 L 422.1428 -333.3776 L 420.5802 -331.6624 L 419.4058 -330.3743 L 418.2312 -329.0865 L 416.6569 -327.3617 L 415.4735 -326.0658 L 414.2899 -324.7703 L 413.0947 -323.4625 L 411.5117 -321.7309 L 410.3242 -320.4326 L 409.1267 -319.1236 L 407.9315 -317.8176 L 406.33 -316.0678 L 405.1264 -314.7527 L 403.5206 -312.9979 L 402.3105 -311.6753 L 400.702 -309.9169 L 399.4924 -308.594 L 398.281 -307.2689 L 397.0658 -305.9391 L 395.4506 -304.1708 L 394.238 -302.8423 L 392.6252 -301.0738 L 391.4188 -299.7492 L 389.8119 -297.9825 L 388.6093 -296.658 L 387.0072 -294.8902 L 385.8222 -293.58 L 384.6319 -292.2615 L 383.4455 -290.9446 L 381.8615 -289.1822 L 380.6882 -287.8737 L 379.13 -286.1319 L 377.9624 -284.8237 L 376.4107 -283.0815 L 375.2472 -281.7725 L 373.7102 -280.0403 L 372.5631 -278.7457 L 371.4149 -277.4485 L 369.8913 -275.7252 L 368.751 -274.4342 L 367.2399 -272.7223 L 366.1091 -271.4404 L 364.6046 -269.7343 L 363.4802 -268.4588 L 361.9838 -266.7607 L 360.8655 -265.4914 L 359.7498 -264.2248 L 358.6347 -262.9586 L 357.1525 -261.2756 L 356.0436 -260.0161 L 354.9365 -258.7586 L 353.8175 -257.4873 L 352.3615 -255.8331 L 351.2617 -254.5833 L 350.1623 -253.3339 L 348.702 -251.674 L 347.609 -250.4314 L 346.519 -249.1921 L 345.433 -247.9573 L 343.9989 -246.3263 L 342.9321 -245.1129 L 341.8754 -243.9108 L 340.8273 -242.7184 L 339.7907 -241.539 L 338.4279 -239.9884 L 337.4164 -238.8374 L 336.4204 -237.7041 L 335.4349 -236.5827 L 334.1384 -235.1073 L 333.1833 -234.0205 L 332.2415 -232.9489 L 331.3103 -231.8894 L 330.3936 -230.8465 L 329.4927 -229.8215 L 328.3124 -228.4788 L 327.4437 -227.4906 L 326.5894 -226.519 L 325.749 -225.5633 L 324.9242 -224.6254 L 323.852 -223.4064 L 323.0656 -222.5124 L 322.0471 -221.3549 L 321.3018 -220.5083 L 320.337 -219.4125 L 319.632 -218.6122 L 318.7202 -217.5773 L 318.055 -216.8224 L 317.4037 -216.0832 L 316.7684 -215.3622 L 316.1487 -214.6587 L 315.5405 -213.968 L 314.9427 -213.2887 L 314.1568 -212.3947 L 313.5756 -211.7325 L 312.8109 -210.859 L 312.2483 -210.2142 L 311.692 -209.5744 L 311.1442 -208.9422 L 310.6047 -208.317 L 309.8981 -207.4936 L 309.3782 -206.8839 L 308.8664 -206.2801 L 308.1965 -205.4844 L 307.703 -204.8939 L 307.217 -204.3078 L 306.7372 -203.7243 L 306.2637 -203.1434 L 305.6385 -202.3683 L 305.1743 -201.7868 L 304.7145 -201.2055 L 304.2586 -200.6236 L 303.8057 -200.0399 L 303.2092 -199.2617 L 302.7666 -198.6771 L 302.3273 -198.0907 L 301.7477 -197.3072 L 301.3174 -196.7183 L 300.7488 -195.9296 L 300.3259 -195.3351 L 299.7684 -194.5388 L 299.3541 -193.9373 L 298.944 -193.3331 L 298.4041 -192.5227 L 298.0043 -191.9111 L 297.6094 -191.296 L 297.2207 -190.6789 L 296.8375 -190.0581 L 296.4606 -189.4347 L 295.9689 -188.6006 L 295.609 -187.9741 L 295.2564 -187.3462 L 294.9117 -186.7179 L 294.5747 -186.0885 L 294.1375 -185.2472 L 293.8197 -184.6164 L 293.409 -183.7732 L 293.1114 -183.1407 L 292.8225 -182.507 L 292.5423 -181.8725 L 292.2708 -181.2369 L 291.9232 -180.39 L 291.6723 -179.7532 L 291.4306 -179.1169 L 291.1979 -178.4804 L 290.9742 -177.8431 L 290.6905 -176.9942 L 290.4882 -176.3572 L 290.2944 -175.7189 L 290.1099 -175.0823 L 289.8772 -174.2316 L 289.7125 -173.5927 L 289.5561 -172.9527 L 289.4081 -172.3121 L 289.2232 -171.4551 L 289.0941 -170.8111 L 288.9728 -170.1654 L 288.8591 -169.5176 L 288.7191 -168.6522 L 288.6228 -168.0017 L 288.5059 -167.1312 L 288.4272 -166.4785 L 288.3343 -165.6046 L 288.2747 -164.9483 L 288.2244 -164.2914 L 288.1729 -163.4153 L 288.1464 -162.7592 L 288.1307 -162.1034 L 288.1264 -161.4493 L 288.134 -160.7964 L 288.1539 -160.1447 L 288.1863 -159.4937 L 288.2314 -158.8465 L 288.2897 -158.2001 L 288.3871 -157.3448 L 288.4758 -156.7058 L 288.5779 -156.0707 L 288.7345 -155.2323 L 288.8678 -154.6077 L 289.0143 -153.9876 L 289.1736 -153.3744 L 289.3458 -152.7687 L 289.5969 -151.9678 L 289.8 -151.3737 L 290.0897 -150.5899 L 290.3203 -150.0089 L 290.562 -149.4326 L 290.8136 -148.8609 L 291.0739 -148.2948 L 291.4336 -147.5458 L 291.7117 -146.9884 L 292.0907 -146.2508 L 292.3805 -145.7001 L 292.7731 -144.967 L 293.0702 -144.4198 L 293.4717 -143.6894 L 293.7766 -143.1411 L 294.1882 -142.4088 L 294.501 -141.8576 L 294.8172 -141.3051 L 295.2437 -140.5662 L 295.5673 -140.0099 L 296.0037 -139.2641 L 296.3336 -138.7031 L 296.6665 -138.1383 L 297.1144 -137.382 L 297.4527 -136.8107 L 297.7917 -136.2355 L 298.2447 -135.464 L 298.586 -134.8794 L 298.9262 -134.2928 L 299.2682 -133.6992 L 299.6092 -133.1027 L 300.0606 -132.3044 L 300.3987 -131.6985 L 300.8433 -130.8893 L 301.1718 -130.2804 L 301.4951 -129.6703 L 301.8121 -129.0603 L 302.2248 -128.2456 L 302.526 -127.6332 L 302.9156 -126.8148 L 303.1982 -126.1999 L 303.4723 -125.5828 L 303.8226 -124.7589 L 304.0746 -124.1374 L 304.316 -123.5147 L 304.5461 -122.8902 L 304.8345 -122.0532 L 305.0356 -121.4236 L 305.2228 -120.7922 L 305.396 -120.1586 L 305.5545 -119.5248 L 305.7434 -118.6767 L 305.8676 -118.039 L 306.0091 -117.1888 L 306.097 -116.5493 L 306.169 -115.9105 L 306.2402 -115.0576 L 306.2749 -114.4178 L 306.2937 -113.778 L 306.2968 -113.1388 L 306.2841 -112.4985 L 306.2556 -111.859 L 306.1931 -111.0052 L 306.1276 -110.3641 L 306.0461 -109.7215 L 305.9486 -109.0774 L 305.7942 -108.2148 L 305.6608 -107.5652 L 305.5126 -106.9117 L 305.351 -106.257 L 305.1759 -105.599 L 304.9879 -104.9394 L 304.7172 -104.0591 L 304.4989 -103.3977 L 304.1868 -102.5151 L 303.9369 -101.8541 L 303.6727 -101.1929 L 303.2982 -100.315 L 302.9997 -99.6594 L 302.6852 -99.0063 L 302.2421 -98.1443 L 301.8905 -97.5027 L 301.5238 -96.869 L 301.1411 -96.2419 L 300.7422 -95.6222 L 300.1872 -94.8116 L 299.7528 -94.2147 L 299.3024 -93.6271 L 298.6823 -92.8645 L 298.1995 -92.3039 L 297.7022 -91.7532 L 297.0172 -91.0347 L 296.4861 -90.5063 L 295.9408 -89.9875 L 295.1927 -89.3112 L 294.6151 -88.814 L 293.8261 -88.1656 L 293.2198 -87.6884 L 292.603 -87.2191 L 291.9744 -86.7556 L 291.1222 -86.1478 L 290.4709 -85.6979 L 289.8092 -85.2526 L 288.9152 -84.6686 L 288.2321 -84.2356 L 287.5396 -83.8083 L 286.8382 -83.388 L 285.8853 -82.837 L 285.1601 -82.4335 L 284.4242 -82.0374 L 283.6782 -81.6497 L 282.9229 -81.2712 L 282.1561 -80.9011 L 281.3786 -80.5401 L 280.5919 -80.1893 L 279.7934 -79.8477 L 278.7159 -79.4091 L 277.8959 -79.0912 L 277.0677 -78.7832 L 276.2279 -78.4837 L 275.0953 -78.0986 L 274.2368 -77.8208 L 273.3682 -77.5516 L 272.1983 -77.2071 L 271.309 -76.9581 L 270.4131 -76.7171 L 269.2067 -76.4076 L 268.2936 -76.1837 L 267.3718 -75.9659 L 266.4426 -75.7546 L 265.1903 -75.4822 L 264.2433 -75.285 L 263.2886 -75.0935 L 262.0025 -74.8463 L 261.031 -74.6674 L 259.723 -74.4364 L 258.7336 -74.2681 L 257.7365 -74.1035 L 256.3991 -73.8896 L 255.3861 -73.7323 L 254.0251 -73.5267 L 252.9959 -73.3749 L 251.6136 -73.1757 L 250.5693 -73.028 L 249.5175 -72.8812 L 248.4594 -72.735 L 247.3944 -72.589 L 246.3224 -72.4429 L 245.2436 -72.2964 L 243.7951 -72.1005 L 242.7036 -71.953 L 241.6035 -71.8043 L 240.4972 -71.6542 L 239.3834 -71.5021 L 238.2638 -71.3478 L 237.1383 -71.1907 L 235.6271 -70.9764 L 234.4871 -70.8119 L 233.341 -70.6434 L 232.1677 -70.4674 L 230.644 -70.2327 L 229.4764 -70.0477 L 228.3084 -69.8581 L 227.1331 -69.6625 L 225.5592 -69.3926 L 224.3713 -69.1827 L 222.7849 -68.8936 L 221.5891 -68.6686 L 220.3898 -68.4364 L 219.1882 -68.197 L 217.5853 -67.8667 L 216.3828 -67.6102 L 215.1772 -67.3453 L 213.9702 -67.0724 L 212.3609 -66.6961 L 211.1508 -66.4034 L 209.5386 -65.9994 L 208.3279 -65.6852 L 207.1157 -65.3608 L 205.9025 -65.0262 L 204.6907 -64.6817 L 203.4793 -64.3268 L 202.2684 -63.9613 L 201.055 -63.5841 L 199.845 -63.1968 L 198.2308 -62.6625 L 197.0217 -62.249 L 195.8129 -61.824 L 194.2026 -61.2398 L 192.9928 -60.7871 L 191.7876 -60.3242 L 190.1788 -59.6875 L 188.9754 -59.1974 L 187.7758 -58.6972 L 186.5763 -58.1856 L 184.9789 -57.4871 L 183.7833 -56.9516 L 182.1893 -56.2214 L 180.9979 -55.6637 L 179.806 -55.096 L 178.6138 -54.519 L 177.4235 -53.9341 L 176.2351 -53.3417 L 175.046 -52.7407 L 173.8574 -52.132 L 172.6698 -51.5158 L 171.4828 -50.892 L 169.9003 -50.0478 L 168.7176 -49.4072 L 167.1389 -48.5388 L 165.9582 -47.8792 L 164.7772 -47.2105 L 163.2053 -46.3063 L 162.0297 -45.619 L 160.8535 -44.9222 L 159.6822 -44.219 L 158.5105 -43.5064 L 156.9515 -42.544 L 155.7841 -41.8129 L 154.6177 -41.0736 L 153.454 -40.3277 L 152.2878 -39.572 L 151.1076 -38.7989 L 149.573 -37.7821 L 148.4089 -37.0022 L 146.8532 -35.9491 L 145.684 -35.1496 L 144.1234 -34.0721 L 142.9476 -33.2528 L 141.3797 -32.1503 L 140.1974 -31.3115 L 139.0099 -30.4627 L 137.4339 -29.3264 L 136.2443 -28.4613 L 134.6509 -27.2927 L 133.4525 -26.4065 L 132.2526 -25.5136 L 130.6439 -24.3078 L 129.4378 -23.3976 L 128.2265 -22.4782 L 126.6044 -21.2393 L 125.3856 -20.303 L 123.7497 -19.0402 L 122.5221 -18.0883 L 121.2874 -17.1278 L 120.0464 -16.1596 L 118.3876 -14.8613 L 117.1373 -13.8802 L 115.8817 -12.8936 L 114.1989 -11.5696 L 112.9277 -10.5686 L 111.2266 -9.2288 L 109.9421 -8.2172 L 108.6298 -7.1839 L 106.9238 -5.8412 L 105.6159 -4.8123 L 104.305 -3.7811 L 102.5522 -2.4019 L 101.2272 -1.3589 L 99.8978 -.3119 L 97.2231 1.7975 L 95.426 3.2175 L 94.0753 4.2863 L 92.718 5.3618 L 90.8979 6.806 L 89.5311 7.892 L 87.6969 9.3511 L 86.3169 10.4499 L 84.9309 11.5539 L 83.0729 13.0344 L 81.6753 14.1482 L 80.27 15.2683 L 78.3892 16.7674 L 76.9715 17.8974 L 75.5505 19.0296 L 74.1228 20.167 L 72.2089 21.6909 L 70.7688 22.8369 L 68.8404 24.3703 L 67.3852 25.5265 L 65.9009 26.7049 L 63.9737 28.2337 L 62.5016 29.4006 L 61.0242 30.571 L 59.0473 32.1362 L 57.554 33.3179 L 55.5637 34.8921 L 54.0656 36.0767 L 52.5621 37.2653 L 51.0573 38.4546 L 49.0502 40.0406 L 47.5449 41.23 L 46.0407 42.4183 L 44.5383 43.6051 L 42.538 45.1848 L 41.0479 46.3614 L 39.5582 47.5375 L 38.0747 48.7086 L 36.5949 49.8765 L 35.1174 51.0426 L 33.6441 52.2055 L 31.6892 53.7491 L 30.2282 54.9033 L 28.286 56.4387 L 26.8304 57.59 L 24.9103 59.1095 L 23.4774 60.2439 L 22.0491 61.3753 L 20.1682 62.866 L 18.7663 63.9776 L 16.9165 65.4446 L 15.5417 66.535 L 14.1798 67.6152 L 12.8283 68.687 L 11.0519 70.0956 L 9.7332 71.141 L 8.4239 72.1787 L 6.7069 73.5389 L 5.437 74.5441 L 4.1783 75.5396 L 2.9324 76.5239 L 1.2944 77.8162 L .0839 78.7695 L -1.1141 79.7114 L -2.2974 80.6401 L -3.8531 81.8581 L -5.0036 82.7565 L -6.1385 83.6409 L -7.6299 84.8 L -8.7314 85.6538 L -10.1751 86.77 L -11.24 87.5912 L -12.2903 88.3997 L -13.3243 89.1942 L -14.3427 89.9753 L -15.6742 90.9948 L -16.6549 91.7444 L -17.9371 92.723 L -18.8795 93.4413 L -19.8095 94.1494 L -21.0151 95.0663 L -21.9051 95.7427 L -23.0588 96.6191 L -23.9069 97.2633 L -24.7395 97.8958 L -25.5548 98.5155 L -26.3535 99.1231 L -27.1355 99.719 L -28.1516 100.4953 L -28.895 101.0652 L -29.621 101.624 L -30.3311 102.173 L -31.025 102.712 L -31.7054 103.2437 L -32.5911 103.9411 L -33.2421 104.4584 L -33.8846 104.9731 L -34.7245 105.6529 L -35.3466 106.1618 L -35.9598 106.6687 L -36.5666 107.1758 L -37.3661 107.853 L -37.9592 108.3631 L -38.7403 109.0459 L -39.321 109.5623 L -39.8942 110.0798 L -40.4624 110.6008 L -41.212 111.3007 L -41.7663 111.8283 L -42.3152 112.3597 L -43.036 113.0715 L -43.5702 113.6096 L -44.0987 114.1514 L -44.794 114.8797 L -45.3083 115.4307 L -45.8164 115.986 L -46.4838 116.7324 L -46.9778 117.2982 L -47.4646 117.8673 L -48.1042 118.6336 L -48.5766 119.2141 L -49.0411 119.7986 L -49.4985 120.3891 L -50.0951 121.185 L -50.5312 121.7882 L -50.9586 122.3986 L -51.3754 123.0139 L -51.9154 123.8434 L -52.3088 124.4732 L -52.6911 125.108 L -53.1841 125.9637 L -53.5411 126.6124 L -53.9998 127.4854 L -54.3317 128.1475 L -54.7581 129.0379 L -55.0675 129.7132 L -55.3681 130.3939 L -55.7568 131.3119 L -56.0392 132.0059 L -56.3148 132.7067 L -56.5832 133.4131 L -56.9295 134.3624 L -57.1816 135.0821 L -57.5072 136.0493 L -57.6694 136.5482 L -57.9743 137.519 L -58.1988 138.2628 L -58.4163 139.009 L -58.6281 139.7617 L -58.8335 140.519 L -59.0978 141.5375 L -59.2884 142.306 L -59.4721 143.0789 L -59.7068 144.1202 L -59.8739 144.9042 L -60.0341 145.6953 L -60.1869 146.4915 L -60.3322 147.292 L -60.5146 148.3673 L -60.643 149.1813 L -60.764 150.001 L -60.8773 150.8243 L -60.9833 151.6542 L -61.1127 152.768 L -61.2011 153.611 L -61.2821 154.4582 L -61.3564 155.3136 L -61.4447 156.4597 L -61.5037 157.3267 L -61.5567 158.2012 L -61.6037 159.0803 L -61.658 160.2641 L -61.693 161.158 L -61.7239 162.0605 L -61.7509 162.9698 L -61.7822 164.1934 L -61.8033 165.119 L -61.8303 166.3666 L -61.8511 167.312 L -61.8811 168.5851 L -61.9058 169.5474 L -61.9431 170.8477 L -61.9745 171.827 L -62.0098 172.8175 L -62.063 174.151 L -62.108 175.1594 L -62.1756 176.518 L -62.2329 177.5461 L -62.2964 178.582 L -62.3665 179.626 L -62.4706 181.0288 L -62.5571 182.0901 L -62.6511 183.1583 L -62.7528 184.2333 L -62.8626 185.3162 L -63.022 186.7694 L -63.1524 187.8693 L -63.2918 188.9723 L -63.4411 190.0836 L -63.6003 191.2002 L -63.7698 192.3242 L -64.0124 193.8309 L -64.2074 194.9674 L -64.4144 196.1087 L -64.6334 197.253 L -64.945 198.7844 L -65.1936 199.9361 L -65.455 201.089 L -65.7292 202.2406 L -66.1168 203.7783 L -66.4243 204.9311 L -66.857 206.462 L -67.1997 207.6066 L -67.5587 208.7477 L -68.0616 210.2591 L -68.458 211.3862 L -68.8709 212.5058 L -69.3012 213.6194 L -69.9006 215.0905 L -70.3699 216.185 L -70.8561 217.2721 L -71.3598 218.3537 L -72.0542 219.7793 L -72.5943 220.8424 L -73.3374 222.2484 L -73.9111 223.294 L -74.4994 224.3339 L -75.3056 225.7118 L -75.9242 226.7365 L -76.5549 227.7557 L -77.4143 229.1068 L -78.0715 230.1135 L -78.7395 231.1151 L -79.417 232.1106 L -80.1068 233.1042 L -80.8038 234.0892 L -81.5108 235.07 L -82.2283 236.0475 L -82.9536 237.0181 L -83.9365 238.3068 L -84.6834 239.2664 L -85.4397 240.221 L -86.2054 241.1703 L -87.2406 242.4262 L -88.0288 243.3613 L -89.0938 244.5966 L -89.9043 245.5149 L -91.0033 246.7307 L -91.8332 247.6269 L -92.9599 248.8136 L -93.8178 249.6935 L -94.6856 250.5622 L -95.5657 251.4211 L -96.7547 252.5465 L -97.6598 253.3763 L -98.5748 254.1921 L -99.5021 254.9953 L -100.4395 255.7841 L -101.3874 256.5584 L -102.6676 257.5679 L -103.6403 258.308 L -104.9536 259.272 L -105.9501 259.9776 L -107.2932 260.8949 L -108.3127 261.5661 L -109.3408 262.2218 L -110.3811 262.8642 L -111.7753 263.6926 L -112.8343 264.2977 L -114.2586 265.0804 L -115.3381 265.6511 L -116.7879 266.3891 L -117.8844 266.9269 L -118.9888 267.4519 L -120.4715 268.1323 L -121.5913 268.6287 L -122.7181 269.1145 L -123.8489 269.589 L -124.9871 270.0542 L -126.1304 270.5095 L -127.6613 271.1015 L -128.8183 271.536 L -130.3632 272.0988 L -131.5291 272.5105 L -132.7019 272.9132 L -134.2702 273.434 L -135.4518 273.813 L -136.6375 274.1816 L -138.2264 274.657 L -139.424 275.0015 L -140.6252 275.3351 L -142.2336 275.7629 L -143.4456 276.0711 L -144.6594 276.3673 L -145.879 276.6523 L -147.1032 276.9255 L -148.3501 277.1903 L -149.9722 277.5144 L -151.2055 277.7454 L -152.4441 277.964 L -154.101 278.2348 L -155.3465 278.4222 L -157.0094 278.65 L -158.2606 278.8047 L -159.5118 278.9448 L -160.7655 279.0704 L -162.4359 279.2153 L -163.6911 279.3076 L -164.9438 279.3859 L -166.6144 279.4697 L -167.8683 279.5182 L -169.1191 279.5554 L -170.3709 279.5828 L -171.6236 279.6018 L -172.8737 279.6137 L -174.5417 279.6209 L -175.791 279.6227 L -177.041 279.6237 L -178.7062 279.6275 L -179.9534 279.6343 L -181.2021 279.6465 L -182.4485 279.6656 L -183.6957 279.6928 L -184.9405 279.729 L -186.1847 279.775 L -187.8423 279.8523 L -189.0833 279.9221 L -190.3236 280.0018 L -191.563 280.0913 L -193.2144 280.2253 L -194.4509 280.3366 L -195.6856 280.4574 L -196.9205 280.588 L -198.5623 280.777 L -199.7925 280.9298 L -201.0224 281.0913 L -202.2503 281.2609 L -203.8858 281.4993 L -205.1096 281.6868 L -206.7404 281.9485 L -207.9627 282.1532 L -209.1831 282.3644 L -210.8121 282.6562 L -212.0276 282.8809 L -213.244 283.1119 L -214.4601 283.349 L -215.675 283.5924 L -216.8854 283.842 L -218.0967 284.0995 L -219.3036 284.3648 L -220.5104 284.6395 L -221.7134 284.9237 L -222.9154 285.2186 L -224.5089 285.6274 L -225.6993 285.9469 L -227.2823 286.3916 L -228.4645 286.7389 L -230.0354 287.2212 L -231.2066 287.5971 L -232.3743 287.9869 L -233.9211 288.528 L -235.0741 288.9504 L -236.2201 289.3871 L -237.738 289.9925 L -238.8656 290.4631 L -239.9857 290.949 L -241.4647 291.6196 L -242.5632 292.14 L -243.6542 292.6763 L -245.0912 293.4124 L -246.1564 293.9801 L -247.2144 294.5625 L -248.2632 295.158 L -249.6471 295.9706 L -250.6767 296.594 L -251.6955 297.2263 L -252.7091 297.8698 L -253.7152 298.522 L -254.7148 299.1822 L -255.7115 299.8513 L -257.0329 300.7537 L -258.0209 301.4389 L -259.0079 302.1316 L -259.9934 302.8308 L -260.9747 303.5343 L -262.2843 304.484 L -263.2642 305.2023 L -264.2447 305.9279 L -265.2234 306.6591 L -266.2024 307.3977 L -267.1812 308.1435 L -268.4829 309.1472 L -269.4582 309.9085 L -270.4337 310.6787 L -271.7293 311.717 L -272.6967 312.505 L -273.6753 313.3149 L -274.9425 314.3846 L -275.8956 315.2065 L -276.8445 316.0406 L -277.7889 316.8873 L -278.7233 317.7424 L -279.652 318.6105 L -280.5717 319.4894 L -281.4801 320.3779 L -282.6738 321.5798 L -283.5542 322.4937 L -284.4209 323.419 L -285.5516 324.6679 L -286.3806 325.6167 L -287.1939 326.5769 L -287.989 327.5458 L -289.0225 328.8532 L -289.7784 329.8464 L -290.515 330.8471 L -291.4703 332.1971 L -292.1656 333.2195 L -293.0654 334.596 L -293.7208 335.6387 L -294.3593 336.6878 L -294.9822 337.7438 L -295.7913 339.1636 L -296.3823 340.2355 L -297.1508 341.6742 L -297.713 342.7584 L -298.4472 344.2139 L -298.9852 345.3094 L -299.515 346.4116 L -300.0341 347.5151 L -300.5455 348.6251 L -301.2141 350.1102 L -301.7069 351.2291 L -302.1932 352.3523 L -302.8324 353.8579 L -303.3041 354.9899 L -303.7702 356.126 L -304.2309 357.2665 L -304.8364 358.7926 L -305.284 359.9421 L -305.7252 361.0933 L -306.3043 362.6359 L -306.7301 363.7955 L -307.2873 365.3485 L -307.6967 366.5184 L -308.0976 367.6904 L -308.4909 368.8669 L -308.8762 370.0466 L -309.3787 371.6266 L -309.7465 372.8157 L -310.2248 374.4068 L -310.575 375.6066 L -310.9171 376.8093 L -311.2519 378.0173 L -311.5786 379.2275 L -312.0031 380.8469 L -312.3139 382.0662 L -312.6189 383.2892 L -312.9191 384.5164 L -313.3134 386.1558 L -313.6062 387.3888 L -313.8988 388.6235 L -314.1922 389.8597 L -314.4885 391.0991 L -314.7882 392.3398 L -315.0925 393.5809 L -315.4024 394.823 L -315.719 396.0653 L -316.1534 397.7213 L -316.4899 398.964 L -316.8362 400.2062 L -317.1918 401.4428 L -317.685 403.0939 L -318.0686 404.3279 L -318.4653 405.5606 L -318.8737 406.7848 L -319.2963 408.0067 L -319.8799 409.6242 L -320.3346 410.8319 L -320.8036 412.0335 L -321.4514 413.6238 L -321.9557 414.8098 L -322.476 415.9889 L -323.0107 417.1586 L -323.7481 418.7099 L -324.3176 419.8635 L -325.1003 421.3906 L -325.7048 422.527 L -326.5332 424.0289 L -327.1715 425.1463 L -327.8235 426.2555 L -328.4908 427.3598 L -329.3999 428.8168 L -330.0982 429.9023 L -330.8095 430.9807 L -331.5342 432.0534 L -332.5191 433.4723 L -333.2719 434.5287 L -334.0382 435.5802 L -335.0771 436.9685 L -335.8719 438.0025 L -336.9502 439.3678 L -337.7739 440.3828 L -338.6106 441.39 L -339.4588 442.3876 L -340.3194 443.3764 L -341.1928 444.3572 L -342.3744 445.6493 L -343.2762 446.6095 L -344.1881 447.559 L -345.1124 448.5002 L -346.0487 449.4324 L -347.3133 450.6595 L -348.2753 451.5696 L -349.2482 452.4704 L -350.2306 453.3614 L -351.5566 454.5354 L -352.5627 455.4052 L -353.5785 456.2663 L -354.6033 457.1187 L -355.6356 457.9616 L -356.6783 458.7982 L -358.0809 459.9014 L -359.1421 460.7203 L -360.5677 461.8 L -361.6442 462.6006 L -362.7286 463.3951 L -363.8206 464.1834 L -364.9184 464.9648 L -366.3902 465.997 L -367.5007 466.765 L -368.6133 467.5254 L -369.7296 468.2794 L -371.2236 469.2749 L -372.3452 470.0123 L -373.8457 470.9855 L -374.972 471.7061 L -376.1021 472.4207 L -377.2329 473.1267 L -378.3655 473.8246 L -379.4993 474.5135 L -381.0145 475.4164 L -382.1542 476.081 L -383.6795 476.9482 L -384.8274 477.5837 L -385.978 478.2062 L -387.1316 478.8154 L -388.6742 479.6054 L -389.8361 480.1822 L -391.0001 480.7437 L -392.1674 481.2891 L -393.34 481.8187 L -394.9061 482.4971 L -396.0841 482.9859 L -397.6598 483.6116 L -398.8434 484.0607 L -400.4245 484.6329 L -401.613 485.0423 L -403.1985 485.5624 L -404.3896 485.9347 L -405.981 486.4091 L -407.1734 486.7482 L -408.3663 487.0745 L -409.5605 487.3891 L -410.7544 487.6923 L -411.9498 487.9851 L -413.1446 488.2678 L -414.7386 488.6296 L -415.9322 488.8887 L -417.1278 489.1381 L -418.7189 489.4544 L -419.9115 489.6797 L -421.504 489.9647 L -422.697 490.1662 L -424.2893 490.4181 L -425.4823 490.5938 L -427.0721 490.8088 L -428.2649 490.9553 L -429.4572 491.0885 L -430.6483 491.2077 L -432.2372 491.3445 L -433.4307 491.4299 L -435.0128 491.5194 L -436.1991 491.5681 L -437.3828 491.6002 L -438.5644 491.6155 L -439.7433 491.6137 L -440.9196 491.5946 L -442.0896 491.5582 L -443.2565 491.5046 L -444.4211 491.4332 L -445.9677 491.3112 L -447.1221 491.2 L -448.2742 491.0724 L -449.4236 490.9288 L -450.949 490.7138 L -452.0903 490.535 L -453.2274 490.3419 L -454.7398 490.0626 L -455.8708 489.8375 L -457.3724 489.5185 L -458.4972 489.2655 L -459.6174 489.0023 L -460.737 488.7288 L -461.8543 488.4461 L -463.3401 488.0553 L -464.453 487.7525 L -465.935 487.3362 L -467.0418 487.0159 L -468.5185 486.5762 L -469.6209 486.2387 L -470.7251 485.8928 L -471.8242 485.5404 L -473.2842 485.0591 L -474.3775 484.6876 L -475.4685 484.3065 L -476.555 483.9159 L -477.6382 483.5144 L -478.7163 483.1021 L -480.148 482.5342 L -481.2173 482.0943 L -482.2795 481.6436 L -483.3381 481.1802 L -484.3942 480.704 L -485.7889 480.0528 L -486.8311 479.5495 L -487.867 479.0343 L -488.8976 478.5069 L -489.9213 477.968 L -491.2759 477.2322 L -492.285 476.6677 L -493.2892 476.0929 L -494.6194 475.3139 L -495.6117 474.7214 L -496.6024 474.1216 L -497.9172 473.3164 L -498.9026 472.7083 L -500.2141 471.8958 L -501.1985 471.2864 L -502.185 470.6786 L -503.5019 469.8738 L -504.4922 469.2743 L -505.8161 468.4832 L -506.8139 467.8957 L -507.8134 467.3152 L -508.8177 466.7414 L -509.8248 466.1756 L -511.1726 465.4336 L -512.1889 464.8862 L -513.2077 464.348 L -514.2304 463.8185 L -515.6002 463.1264 L -516.6309 462.6192 L -518.0136 461.9575 L -519.0537 461.4744 L -520.0988 461.002 L -521.4986 460.3899 L -522.5526 459.9448 L -523.6124 459.5107 L -524.676 459.0886 L -525.7413 458.6793 L -526.8127 458.2821 L -527.898 457.8951 L -529.3244 457.411 L -530.4088 457.0615 L -531.496 456.727 L -532.5886 456.4063 L -534.0463 456.0017 L -535.1453 455.7138 L -536.2464 455.4397 L -537.3514 455.1787 L -538.8321 454.8503 L -539.9416 454.6196 L -541.054 454.401 L -542.1721 454.1937 L -543.6637 453.9358 L -544.787 453.7549 L -545.9133 453.5853 L -547.0413 453.4266 L -548.1732 453.2784 L -549.3085 453.1409 L -550.825 452.9743 L -551.9665 452.8616 L -553.1132 452.7589 L -554.2613 452.6668 L -555.4144 452.5847 L -556.5702 452.5131 L -557.7276 452.452 L -558.8906 452.4011 L -560.4455 452.3492 L -561.6149 452.322 L -562.7898 452.3048 L -563.9666 452.2976 L -565.148 452.3007 L -566.7285 452.3208 L -567.9174 452.3483 L -569.11 452.3868 L -570.3045 452.4364 L -571.9015 452.5202 L -573.1026 452.5964 L -574.7092 452.7162 L -575.9151 452.8196 L -577.5268 452.9761 L -578.7394 453.1075 L -579.9521 453.2508 L -581.181 453.4082 L -582.7904 453.6331 L -584.0088 453.8178 L -585.2295 454.0157 L -586.8577 454.2997 L -588.08 454.5283 L -589.3041 454.7707 L -590.5265 455.0263 L -591.7515 455.2964 L -592.9756 455.5802 L -594.1998 455.8782 L -595.4213 456.1898 L -596.6457 456.5162 L -598.2746 456.9719 L -599.4956 457.329 L -600.7262 457.7018 L -602.3462 458.211 L -603.567 458.6074 L -605.1989 459.1518 L -606.4251 459.5701 L -608.0639 460.1385 L -609.2982 460.5718 L -610.5373 461.01 L -612.1944 461.5977 L -613.4434 462.0398 L -615.1158 462.6289 L -616.3789 463.0703 L -618.0687 463.6548 L -619.3459 464.0917 L -621.0562 464.6705 L -622.346 465.1024 L -623.6436 465.533 L -624.9446 465.9611 L -626.2542 466.3883 L -628.011 466.9555 L -629.3345 467.3787 L -631.111 467.9422 L -632.4518 468.3644 L -633.7975 468.7861 L -635.1556 469.2102 L -636.9655 469.7732 L -638.3364 470.1987 L -639.7101 470.6246 L -641.5551 471.1962 L -642.9461 471.6274 L -644.3473 472.0621 L -645.7564 472.4995 L -647.175 472.9404 L -648.5999 473.3837 L -650.035 473.8307 L -651.4799 474.2813 L -652.9383 474.7367 L -654.3978 475.193 L -656.3647 475.8088 L -657.8514 476.2749 L -659.8447 476.9008 L -661.3546 477.3756 L -663.3806 478.0136 L -664.9105 478.496 L -666.4528 478.983 L -668.003 479.473 L -670.0847 480.132 L -671.6576 480.6306 L -673.2383 481.1322 L -674.8309 481.6382 L -676.4331 482.1479 L -678.5807 482.8321 L -680.2057 483.3505 L -681.8361 483.8714 L -683.4794 484.3972 L -685.679 485.1028 L -687.3401 485.6372 L -689.5691 486.3565 L -691.2525 486.9015 L -692.9395 487.4498 L -694.6394 488.0046 L -696.3432 488.5634 L -698.0548 489.1281 L -699.7733 489.6984 L -701.5052 490.2771 L -703.254 490.8656 L -705.5488 491.6446 L -707.2914 492.2416 L -709.6237 493.048 L -711.3762 493.6595 L -713.1324 494.2772 L -715.4796 495.1101 L -717.2393 495.7402 L -719.0087 496.3787 L -721.3688 497.2381 L -723.1411 497.8892 L -724.922 498.5486 L -727.2935 499.4345 L -729.0826 500.1088 L -731.4652 501.015 L -733.2578 501.7029 L -735.6517 502.6298 L -737.4528 503.3334 L -739.2542 504.0426 L -741.6592 504.9978 L -743.4727 505.7244 L -745.2898 506.4579 L -747.6975 507.4383 L -749.5152 508.1849 L -751.3343 508.9376 L -753.1548 509.697 L -754.9786 510.464 L -756.822 511.2459 L -759.2371 512.2806 L -761.0641 513.0715 L -762.8978 513.8728 L -765.3394 514.9513 L -767.1661 515.7669 L -769.0008 516.5932 L -770.8346 517.4264 L -772.6713 518.2683 L -774.5101 519.1183 L -776.9591 520.2615 L -778.7998 521.1288 L -780.643 522.004 L -782.486 522.8857 L -784.9723 524.0851 L -786.7879 524.9681 L -789.25 526.1749 L -791.0986 527.0875 L -792.9511 528.0078 L -795.4212 529.2432 L -797.2743 530.1761 L -799.1323 531.1166 L -800.9898 532.0618 L -802.8513 533.0139 L -804.7112 533.97 L -806.5748 534.9329 L -808.4398 535.9012 L -810.303 536.8734 L -812.1703 537.8524 L -814.0407 538.8379 L -816.5316 540.1577 L -818.4046 541.1558 L -820.9005 542.4928 L -822.7746 543.5016 L -824.6521 544.5159 L -826.5282 545.5331 L -829.0367 546.8981 L -830.9171 547.9252 L -833.4224 549.2989 L -835.3066 550.3362 L -837.1937 551.3787 L -839.0798 552.4244 L -841.5826 553.8183 L -843.4653 554.8719 L -845.973 556.2824 L -847.8597 557.3492 L -850.3475 558.7635 L -852.2163 559.8316 L -854.0786 560.9005 L -855.9387 561.9727 L -857.79 563.0441 L -859.6343 564.1154 L -861.4748 565.1883 L -863.3125 566.2631 L -865.7528 567.6953 L -867.617 568.7932 L -869.3933 569.8422 L -871.8044 571.2702 L -873.607 572.3407 L -876.0042 573.7684 L -877.7971 574.8389 L -879.5848 575.9087 L -881.9601 577.3336 L -883.7362 578.4018 L -885.5113 579.4716 L -887.864 580.8929 L -889.6237 581.9584 L -891.962 583.377 L -893.7119 584.4399 L -895.4613 585.5035 L -897.7797 586.9138 L -899.5179 587.9713 L -901.8225 589.3729 L -903.5469 590.4211 L -905.2637 591.4643 L -907.5684 592.8638 L -909.2285 593.8713 L -911.4687 595.2301 L -913.136 596.2411 L -914.7954 597.2469 L -916.4403 598.2437 L -918.0742 599.2338 L -919.6975 600.2173 L -921.306 601.1918 L -922.9078 602.1624 L -924.492 603.1223 L -926.0648 604.0754 L -927.6271 605.0222 L -929.1786 605.9627 L -930.7145 606.8938 L -932.243 607.8208 L -934.2644 609.0473 L -935.7666 609.9595 L -937.751 611.1656 L -939.2253 612.0626 L -941.1703 613.2478 L -942.6182 614.1313 L -944.5194 615.2937 L -945.9312 616.1585 L -947.3335 617.0191 L -948.7187 617.8707 L -950.5511 618.9996 L -951.9105 619.8388 L -953.7005 620.946 L -955.0342 621.7728 L -956.3524 622.5916 L -958.1029 623.6812 L -959.4095 624.4963 L -960.7138 625.3113 L -962.0121 626.1238 L -963.3071 626.9355 L -965.0255 628.0145 L -966.3094 628.822 L -967.5895 629.6283 L -968.8661 630.4333 L -970.5617 631.5043 L -971.8313 632.3075 L -973.5205 633.3777 L -974.7865 634.181 L -976.0567 634.988 L -977.7457 636.0626 L -979.0327 636.8824 L -980.7126 637.9531 L -981.9886 638.7664 L -983.2663 639.5803 L -984.5527 640.3993 L -986.2599 641.4847 L -987.5471 642.3021 L -989.271 643.3954 L -990.5668 644.2162 L -991.8634 645.0368 L -993.1648 645.8598 L -994.4685 646.6838 L -996.2133 647.7863 L -997.5221 648.6132 L -998.8373 649.4441 L -1000.1532 650.2757 L -1001.4714 651.1091 L -1003.2328 652.2238 L -1004.5556 653.0616 L -1005.8813 653.9022 L -1007.217 654.7499 L -1008.9825 655.8718 L -1010.3119 656.7176 L -1011.6411 657.5638 L -1012.9718 658.4113 L -1014.7403 659.5378 L -1016.064 660.3809 L -1017.3834 661.2207 L -1018.6998 662.0582 L -1020.0156 662.8942 L -1021.3261 663.7259 L -1022.632 664.5538 L -1024.3712 665.6545 L -1025.67 666.4752 L -1026.9666 667.2932 L -1028.2606 668.1083 L -1029.9741 669.1858 L -1031.25 669.9869 L -1032.5161 670.7806 L -1033.77 671.5658 L -1035.0129 672.3434 L -1036.6489 673.3661 L -1037.8624 674.1242 L -1039.0639 674.8746 L -1040.6385 675.8579 L -1041.8026 676.585 L -1042.9553 677.3055 L -1044.0971 678.02 L -1045.594 678.9586 L -1046.6987 679.6525 L -1047.7855 680.3366 L -1048.8577 681.013 L -1050.259 681.8997 L -1051.2947 682.5571 L -1052.3072 683.2018 L -1053.6387 684.0525 L -1054.6179 684.6803 L -1055.9003 685.5057 L -1056.8517 686.1201 L -1057.7989 686.7335 L -1059.0492 687.5454 L -1059.9835 688.1537 L -1060.9294 688.7707 L -1062.1436 689.5645 L -1063.061 690.1655 L -1063.9737 690.7644 L -1064.8802 691.3603 L -1065.7797 691.9523 L -1066.6731 692.5412 L -1067.5603 693.1266 L -1068.7237 693.8961 L -1069.5899 694.4701 L -1070.7225 695.2224 L -1071.5632 695.7822 L -1072.3952 696.3373 L -1073.218 696.8877 L -1074.0309 697.4329 L -1075.1039 698.1554 L -1075.6347 698.5143 L -1076.6927 699.2326 L -1077.479 699.7691 L -1078.5203 700.4836 L -1079.2961 701.0189 L -1080.0661 701.5531 L -1081.0863 702.2662 L -1081.8445 702.8006 L -1082.5987 703.336 L -1083.5967 704.051 L -1084.3368 704.5863 L -1085.0747 705.1245 L -1086.0463 705.8401 L -1086.7688 706.3778 L -1087.4861 706.9167 L -1088.1966 707.4561 L -1088.9015 707.9968 L -1089.8331 708.7202 L -1090.5265 709.2653 L -1091.2129 709.8108 L -1091.8936 710.3581 L -1092.5663 710.9055 L -1093.4555 711.6388 L -1094.1143 712.1904 L -1094.7675 712.7441 L -1095.4143 713.2996 L -1096.0557 713.858 L -1096.9007 714.6054 L -1097.5271 715.169 L -1098.1497 715.7367 L -1098.7672 716.3072 L -1099.5861 717.0761 L -1100.1922 717.6552 L -1100.7966 718.2411 L -1101.5945 719.027 L -1102.1886 719.623 L -1102.7795 720.2246 L -1103.3651 720.8313 L -1103.9475 721.4437 L -1104.7164 722.2683 L -1105.2888 722.8939 L -1106.0466 723.7377 L -1106.6105 724.3781 L -1107.1689 725.0243 L -1107.9078 725.8968 L -1108.4534 726.5572 L -1108.9962 727.2264 L -1109.533 727.9022 L -1110.0651 728.5859 L -1110.7652 729.5084 L -1111.2831 730.2091 L -1111.9642 731.1543 L -1112.4643 731.8701 L -1112.9576 732.5939 L -1113.5981 733.5666 L -1114.0661 734.3015 L -1114.5228 735.0411 L -1115.1139 736.0341 L -1115.5414 736.7812 L -1115.9565 737.5324 L -1116.3599 738.2873 L -1116.8797 739.2998 L -1117.2566 740.065 L -1117.7405 741.0904 L -1118.0914 741.8645 L -1118.4314 742.6425 L -1118.8701 743.6861 L -1119.1883 744.4743 L -1119.5963 745.5277 L -1119.8919 746.3231 L -1120.1784 747.1222 L -1120.4563 747.9262 L -1120.7262 748.7344 L -1121.0713 749.8179 L -1121.32 750.6349 L -1121.559 751.4555 L -1121.7891 752.2797 L -1122.0118 753.1073 L -1122.2239 753.9391 L -1122.4905 755.0519 L -1122.6797 755.89 L -1122.8586 756.7319 L -1123.0275 757.5777 L -1123.1843 758.4256 L -1123.3758 759.5585 L -1123.5074 760.4122 L -1123.6276 761.2681 L -1123.7371 762.1252 L -1123.8642 763.2699 L -1123.946 764.1291 L -1124.0165 764.9898 L -1124.0755 765.8525 L -1124.1233 766.714 L -1124.1684 767.8652 L -1124.1892 768.7291 L -1124.1988 769.5952 L -1124.1945 770.7496 L -1124.1774 771.6143 L -1124.1485 772.4812 L -1124.1077 773.3477 L -1124.0542 774.2116 L -1123.9881 775.0767 L -1123.909 775.9404 L -1123.7827 777.0891 L -1123.6724 777.9488 L -1123.549 778.8067 L -1123.3632 779.9464 L -1123.2078 780.8 L -1122.9798 781.9316 L -1122.7926 782.7772 L -1122.5909 783.6202 L -1122.3751 784.4597 L -1122.0653 785.5722 L -1121.816 786.404 L -1121.4621 787.5047 L -1121.181 788.3253 L -1120.8856 789.1434 L -1120.5765 789.9583 L -1120.1436 791.038 L -1119.8024 791.8442 L -1119.4483 792.6458 L -1118.9548 793.7097 L -1118.5698 794.5022 L -1118.1707 795.2914 L -1117.7584 796.0772 L -1117.1894 797.1181 L -1116.7477 797.8943 L -1116.1389 798.9228 L -1115.6681 799.6885 L -1115.1837 800.4511 L -1114.5191 801.4593 L -1114.0057 802.2103 L -1113.48 802.9566 L -1112.7607 803.9422 L -1112.2071 804.6748 L -1111.6403 805.4019 L -1110.8663 806.3608 L -1110.2724 807.072 L -1109.4623 808.0087 L -1108.8412 808.7022 L -1107.995 809.6137 L -1107.3483 810.2855 L -1106.6781 810.9591 L -1105.7953 811.8141 L -1105.1121 812.451 L -1104.4168 813.0786 L -1103.473 813.8974 L -1102.7531 814.4984 L -1102.022 815.0884 L -1101.28 815.6672 L -1100.5278 816.2339 L -1099.5094 816.9715 L -1098.734 817.5101 L -1097.6863 818.2088 L -1096.8883 818.7191 L -1095.8115 819.3792 L -1094.9921 819.8609 L -1093.8877 820.4844 L -1093.0498 820.9386 L -1091.9203 821.5276 L -1091.067 821.9553 L -1089.917 822.5088 L -1089.0451 822.9109 L -1087.8739 823.4299 L -1086.9868 823.8073 L -1085.7957 824.2939 L -1084.8958 824.6469 L -1083.6856 825.102 L -1082.77 825.4321 L -1081.8478 825.752 L -1080.9205 826.0618 L -1079.6752 826.4594 L -1078.7351 826.7464 L -1077.7874 827.0236 L -1076.5165 827.3764 L -1075.5552 827.6289 L -1074.5881 827.8716 L -1073.6163 828.1034 L -1072.6386 828.3242 L -1071.6546 828.5334 L -1070.3365 828.795 L -1069.3402 828.9775 L -1068.3416 829.1472 L -1067.0014 829.3538 L -1065.9923 829.4931 L -1064.9792 829.6187 L -1063.625 829.7636 L -1062.6082 829.8557 L -1061.5886 829.9332 L -1060.5655 829.9955 L -1059.5436 830.0428 L -1058.5184 830.0757 L -1057.4917 830.0931 L -1056.4638 830.096 L -1055.4352 830.0847 L -1054.0634 830.0464 L -1053.0321 830 L -1052.0009 829.9393 L -1050.9686 829.8634 L -1049.9368 829.773 L -1048.9061 829.6677 L -1047.8746 829.5478 L -1046.5003 829.3653 L -1045.4723 829.2124 L -1044.1011 828.9861 L -1043.0742 828.8 L -1041.7054 828.5299 L -1040.6814 828.3114 L -1039.3186 827.9987 L -1038.2959 827.7471 L -1036.9366 827.3906 L -1035.919 827.1075 L -1034.5648 826.7096 L -1033.5507 826.3959 L -1032.2051 825.9594 L -1031.1948 825.6164 L -1030.1903 825.2626 L -1028.8507 824.7708 L -1027.8494 824.3892 L -1026.8489 823.9961 L -1025.5171 823.4549 L -1024.5217 823.0371 L -1023.5285 822.609 L -1022.5363 822.1698 L -1021.2169 821.5683 L -1020.232 821.1059 L -1018.9207 820.4717 L -1017.9399 819.9831 L -1016.9645 819.485 L -1015.9895 818.9745 L -1015.0185 818.4533 L -1014.053 817.9223 L -1012.7679 817.1951 L -1011.8125 816.639 L -1010.86 816.0712 L -1009.9095 815.491 L -1008.9666 814.9015 L -1007.7162 814.0985 L -1006.7837 813.4832 L -1005.5467 812.6453 L -1004.6261 812.0054 L -1003.4048 811.1343 L -1002.4979 810.4706 L -1001.5935 809.7948 L -1000.3974 808.8783 L -999.5067 808.1789 L -998.6219 807.4692 L -997.7413 806.7484 L -996.8682 806.0185 L -996.0009 805.2785 L -995.1411 804.5294 L -994.0023 803.5135 L -993.1554 802.7394 L -992.0374 801.6935 L -991.2051 800.8967 L -990.3818 800.0923 L -989.2913 799.002 L -988.4833 798.1751 L -987.4164 797.0579 L -986.624 796.2088 L -985.5801 795.0639 L -984.8049 794.1938 L -984.0376 793.3159 L -983.2763 792.4275 L -982.5233 791.531 L -981.7781 790.6265 L -980.7953 789.4048 L -980.0676 788.4792 L -979.3484 787.5452 L -978.6382 786.6034 L -977.9351 785.6526 L -977.0093 784.3732 L -976.3224 783.4029 L -975.6409 782.4232 L -974.7433 781.1067 L -974.0774 780.1117 L -973.193 778.7684 L -972.5372 777.752 L -971.8862 776.7273 L -971.2392 775.6951 L -970.3798 774.3046 L -969.738 773.2527 L -968.8845 771.8379 L -968.2479 770.7694 L -967.4011 769.3338 L -966.7658 768.2467 L -965.9218 766.7906 L -965.2897 765.69 L -964.6609 764.5838 L -964.0297 763.4667 L -963.3946 762.3297 L -962.5709 760.8422 L -961.9474 759.7035 L -961.3271 758.5574 L -960.512 757.0316 L -959.9035 755.8786 L -959.2998 754.7229 L -958.5035 753.1763 L -957.9148 752.0162 L -957.3289 750.8514 L -956.7454 749.6816 L -956.166 748.5094 L -955.5888 747.3333 L -954.823 745.7612 L -954.2505 744.577 L -953.6777 743.3895 L -953.1049 742.1998 L -952.5326 741.0107 L -951.9574 739.8179 L -951.3809 738.6251 L -950.6058 737.0339 L -950.0218 735.8401 L -949.4329 734.6453 L -948.8406 733.4524 L -948.2419 732.259 L -947.6388 731.0653 L -946.8286 729.4796 L -946.2129 728.2889 L -945.5893 727.0955 L -944.9614 725.9059 L -944.1199 724.3294 L -943.4796 723.1455 L -942.6164 721.5677 L -941.9617 720.3861 L -941.0804 718.8149 L -940.4099 717.6363 L -939.7344 716.4627 L -939.0502 715.2884 L -938.3602 714.1182 L -937.6633 712.9504 L -936.7217 711.3975 L -936.0066 710.2377 L -935.2821 709.0789 L -934.3056 707.5426 L -933.5637 706.3939 L -932.812 705.2469 L -932.0543 704.106 L -931.2893 702.9684 L -930.255 701.4559 L -929.472 700.3277 L -928.6788 699.2016 L -927.8785 698.0814 L -927.0698 696.9651 L -926.2515 695.8526 L -925.1478 694.3775 L -924.31 693.2781 L -923.463 692.1831 L -922.3204 690.732 L -921.4525 689.6505 L -920.5776 688.5751 L -919.6916 687.5028 L -918.7979 686.4368 L -917.8969 685.3758 L -916.9868 684.3194 L -916.0701 683.2683 L -915.1439 682.2201 L -914.2131 681.1784 L -913.2722 680.1374 L -912.011 678.7593 L -911.0552 677.7283 L -910.0926 676.7002 L -908.8027 675.3377 L -907.8261 674.3187 L -906.8432 673.3037 L -905.8549 672.2933 L -904.8597 671.2865 L -903.8592 670.2846 L -902.5114 668.9518 L -901.497 667.9591 L -900.4756 666.9689 L -899.4485 665.9823 L -898.4154 664.9993 L -897.3764 664.0194 L -896.3332 663.044 L -894.9324 661.7476 L -893.8635 660.7685 L -892.4579 659.4946 L -891.3911 658.5378 L -890.3163 657.583 L -889.2333 656.6307 L -888.1455 655.6835 L -887.0387 654.7293 L -885.5873 653.4932 L -884.4813 652.5628 L -883.3646 651.6337 L -881.8731 650.4084 L -880.7455 649.4938 L -879.2324 648.2825 L -878.0894 647.3794 L -876.5576 646.185 L -875.4009 645.2954 L -873.848 644.1186 L -872.679 643.2457 L -871.5018 642.3783 L -870.3184 641.518 L -868.7303 640.3818 L -867.5342 639.5396 L -866.3283 638.7024 L -865.1144 637.8714 L -863.9026 637.0533 L -862.6756 636.2371 L -861.0387 635.1661 L -859.8021 634.3704 L -858.1453 633.322 L -856.8927 632.5425 L -855.2163 631.5164 L -853.9544 630.7567 L -852.6846 630.003 L -851.4085 629.2562 L -850.1288 628.5179 L -848.4131 627.5442 L -847.1237 626.8245 L -845.8245 626.1099 L -844.5223 625.4044 L -842.7764 624.4752 L -841.4597 623.787 L -840.1417 623.109 L -838.3709 622.2152 L -837.0393 621.5562 L -835.6996 620.904 L -833.9083 620.0496 L -832.5566 619.4181 L -831.2035 618.797 L -829.8416 618.1831 L -828.0191 617.3789 L -826.649 616.7872 L -824.8104 616.0108 L -823.4254 615.4389 L -822.0402 614.878 L -820.1823 614.1429 L -818.7847 613.6027 L -817.381 613.0711 L -815.5057 612.3779 L -814.0922 611.868 L -812.6536 611.36 L -810.7788 610.714 L -809.3521 610.2347 L -807.9229 609.7649 L -806.4887 609.3036 L -804.5727 608.7024 L -803.1293 608.261 L -801.1989 607.6858 L -799.7493 607.2649 L -798.294 606.8519 L -796.3508 606.315 L -794.8849 605.9207 L -793.4209 605.5365 L -791.9524 605.1601 L -790.4794 604.7915 L -788.5096 604.3127 L -787.032 603.9637 L -785.5499 603.6221 L -784.0628 603.2878 L -782.0782 602.8547 L -780.5846 602.5382 L -779.0894 602.2294 L -777.094 601.8295 L -775.5927 601.5379 L -774.0891 601.2536 L -772.08 600.8856 L -770.569 600.6179 L -768.5504 600.2725 L -767.0378 600.0233 L -765.5199 599.7812 L -763.9997 599.5468 L -761.9687 599.2462 L -760.4438 599.0301 L -758.4055 598.7538 L -756.8729 598.5554 L -754.8291 598.3025 L -753.2922 598.1207 L -751.2407 597.8888 L -749.7014 597.7226 L -748.1581 597.5617 L -746.615 597.4062 L -745.0698 597.2554 L -743.5239 597.1088 L -741.9761 596.9655 L -739.9084 596.7774 L -738.3529 596.6369 L -736.2883 596.4491 L -734.7376 596.3061 L -733.1833 596.1603 L -731.6297 596.0112 L -730.0742 595.8579 L -728.0008 595.6464 L -726.4448 595.4818 L -724.371 595.2538 L -722.814 595.0757 L -721.2562 594.8911 L -719.7016 594.7001 L -718.143 594.5012 L -716.0717 594.2248 L -714.5168 594.0076 L -712.9633 593.782 L -710.8957 593.4672 L -709.346 593.2199 L -707.2842 592.8748 L -705.7405 592.6038 L -704.1965 592.3218 L -702.1442 591.9293 L -700.6086 591.6219 L -699.0746 591.3031 L -697.0358 590.8617 L -695.5081 590.5176 L -693.985 590.1636 L -692.4645 589.7991 L -690.9464 589.4245 L -688.9019 588.9028 L -687.4172 588.5115 L -685.4056 587.9636 L -683.903 587.5407 L -682.4014 587.1065 L -680.9056 586.6618 L -679.4141 586.2061 L -677.4321 585.5823 L -675.9484 585.1014 L -674.4722 584.6114 L -672.9941 584.1091 L -671.5246 583.5986 L -669.5698 582.9023 L -668.1082 582.3695 L -666.6503 581.8281 L -664.7158 581.0949 L -663.2712 580.5365 L -661.8274 579.9694 L -660.3957 579.3984 L -658.966 578.82 L -657.0673 578.0403 L -655.6477 577.4489 L -654.2335 576.8533 L -652.8237 576.2534 L -651.4179 575.6495 L -649.5498 574.8395 L -648.1534 574.2293 L -646.7622 573.6183 L -645.371 573.0045 L -643.523 572.1859 L -642.1383 571.5708 L -640.2966 570.7513 L -638.9215 570.1389 L -637.5474 569.5266 L -636.1777 568.916 L -634.8109 568.3063 L -632.9931 567.4935 L -631.6406 566.8863 L -630.2876 566.2758 L -628.4974 565.4622 L -627.1555 564.8473 L -625.3835 564.0287 L -624.054 563.4108 L -622.2998 562.5944 L -620.984 561.9844 L -619.6674 561.3796 L -618.3558 560.7861 L -616.6066 560.015 L -615.2922 559.4553 L -613.5315 558.7377 L -612.2184 558.2292 L -610.8973 557.7422 L -609.576 557.281 L -607.8133 556.7076 L -606.4899 556.3091 L -604.7349 555.823 L -603.4303 555.4919 L -601.7161 555.0953 L -600.4497 554.8312 L -598.7845 554.5233 L -597.5563 554.3256 L -596.3462 554.1558 L -595.1513 554.0131 L -593.9784 553.8979 L -592.8227 553.809 L -591.6857 553.7465 L -590.2018 553.7036 L -589.1124 553.7013 L -588.0421 553.7247 L -586.6519 553.7941 L -585.6333 553.8745 L -584.6384 553.9785 L -583.6651 554.1058 L -582.403 554.3107 L -581.4846 554.4897 L -580.2954 554.7606 L -579.4306 554.9866 L -578.5876 555.2316 L -577.7709 555.4932 L -576.9767 555.7716 L -576.204 556.0667 L -575.4531 556.3775 L -574.7218 556.704 L -574.0072 557.0464 L -573.0827 557.5226 L -572.4063 557.8924 L -571.7409 558.2705 L -571.0876 558.652 L -570.442 559.0361 L -569.5903 559.5481 L -568.9579 559.9286 L -568.3312 560.3051 L -567.4973 560.7983 L -566.8723 561.1618 L -566.2441 561.5203 L -565.4083 561.9852 L -564.778 562.3263 L -564.1465 562.6596 L -563.3013 563.0925 L -562.6668 563.4084 L -562.0312 563.7171 L -561.1808 564.1196 L -560.5429 564.4137 L -559.903 564.7029 L -559.2606 564.9879 L -558.6173 565.2681 L -557.9718 565.5453 L -557.324 565.8197 L -556.4593 566.1837 L -555.8079 566.4565 L -555.1569 566.7305 L -554.289 567.1008 L -553.6382 567.3825 L -552.7739 567.7642 L -552.125 568.0562 L -551.4776 568.3512 L -550.6147 568.7522 L -549.9672 569.0592 L -549.3216 569.3703 L -548.4581 569.7942 L -547.8097 570.1185 L -547.1609 570.4473 L -546.2908 570.8938 L -545.6351 571.2346 L -544.9789 571.5801 L -544.3189 571.9303 L -543.6563 572.2862 L -542.7693 572.7679 L -542.1008 573.1349 L -541.4292 573.5071 L -540.5295 574.0106 L -539.8491 574.3943 L -538.9411 574.9123 L -538.256 575.3078 L -537.3385 575.8423 L -536.6457 576.2494 L -535.9499 576.6615 L -535.0195 577.2183 L -534.3169 577.6423 L -533.612 578.0702 L -532.903 578.5034 L -531.952 579.0878 L -531.2365 579.53 L -530.515 579.9773 L -529.5472 580.578 L -528.8175 581.0317 L -528.0828 581.4877 L -527.3409 581.9451 L -526.3439 582.5557 L -525.5894 583.014 L -524.8291 583.4723 L -523.8078 584.0813 L -523.033 584.537 L -522.2522 584.99 L -521.4635 585.441 L -520.6689 585.8879 L -519.8679 586.3309 L -518.794 586.9125 L -517.9809 587.3431 L -517.1637 587.7674 L -516.0651 588.3247 L -515.236 588.7353 L -514.1231 589.2736 L -513.282 589.6702 L -512.4372 590.0604 L -511.5878 590.444 L -510.4457 590.9459 L -509.5854 591.3131 L -508.7184 591.6732 L -507.8463 592.0255 L -506.9702 592.3695 L -506.0879 592.7056 L -505.2011 593.0333 L -504.0119 593.4566 L -503.114 593.7639 L -502.2116 594.0623 L -500.9981 594.447 L -500.0845 594.7236 L -499.1645 594.9903 L -498.2396 595.2467 L -496.9997 595.5714 L -496.0632 595.8025 L -495.1233 596.0223 L -494.1764 596.2318 L -492.907 596.4949 L -491.9515 596.6803 L -490.6678 596.913 L -489.6986 597.0768 L -488.4009 597.2808 L -487.4215 597.4237 L -486.4362 597.5583 L -485.4474 597.6844 L -484.4534 597.8022 L -483.118 597.9466 L -482.1132 598.045 L -481.1018 598.1353 L -480.0852 598.2172 L -479.0645 598.2904 L -478.0392 598.3551 L -476.6632 598.4277 L -475.6278 598.4718 L -474.5867 598.507 L -473.5389 598.5333 L -472.1389 598.554 L -471.084 598.5588 L -470.0231 598.5544 L -468.6037 598.5338 L -467.5335 598.5076 L -466.4604 598.472 L -465.0226 598.4102 L -463.9386 598.353 L -462.8523 598.2867 L -461.3972 598.1839 L -460.3028 598.0962 L -459.2029 597.9988 L -457.7316 597.8546 L -456.6256 597.7356 L -455.5156 597.6072 L -454.4008 597.4693 L -453.2845 597.3226 L -451.7882 597.1127 L -450.6661 596.9454 L -449.54 596.7691 L -448.0289 596.5196 L -446.9018 596.3238 L -445.7651 596.1179 L -444.2509 595.8294 L -443.1116 595.6006 L -441.9712 595.3609 L -440.8296 595.1101 L -439.3074 594.7578 L -438.1658 594.4798 L -437.0258 594.1896 L -435.8878 593.8871 L -434.7542 593.5726 L -433.6247 593.2451 L -432.1283 592.7881 L -431.0119 592.429 L -429.5356 591.9294 L -428.4382 591.5391 L -427.3486 591.1353 L -425.9086 590.5767 L -424.8431 590.1313 L -423.7923 589.67 L -422.7507 589.1967 L -421.3789 588.54 L -420.3573 588.039 L -419.3427 587.5314 L -418.333 587.0167 L -416.9959 586.321 L -415.9978 585.7927 L -415.005 585.2603 L -413.6881 584.544 L -412.7034 584.0015 L -411.3962 583.2731 L -410.4199 582.7239 L -409.4452 582.172 L -408.4723 581.6179 L -407.1788 580.8762 L -406.2084 580.3167 L -404.9195 579.5694 L -403.9529 579.0054 L -402.6695 578.2516 L -401.707 577.6824 L -400.4252 576.919 L -399.4665 576.3433 L -398.502 575.7599 L -397.2314 574.984 L -396.2752 574.3946 L -394.9986 573.5997 L -394.0435 572.999 L -393.0859 572.3914 L -392.1254 571.7765 L -390.8492 570.9509 L -389.8909 570.3246 L -388.9297 569.6906 L -387.9691 569.0516 L -386.6872 568.1898 L -385.7217 567.534 L -384.758 566.8735 L -383.7897 566.2036 L -382.5044 565.3048 L -381.5383 564.6219 L -380.2492 563.7004 L -379.2829 563.0019 L -378.3163 562.2963 L -377.0275 561.3442 L -376.371 560.8544 L -375.0953 559.8922 L -374.1311 559.156 L -372.846 558.1625 L -371.8824 557.4082 L -370.9209 556.6471 L -369.9606 555.8789 L -369.0003 555.1023 L -368.0418 554.319 L -367.0847 553.5285 L -366.1275 552.7295 L -364.8551 551.6549 L -363.9011 550.8396 L -362.9484 550.0171 L -361.9974 549.1878 L -361.0473 548.3513 L -359.7835 547.2249 L -358.8364 546.3707 L -357.8917 545.5099 L -356.6363 544.352 L -355.6941 543.4727 L -354.7558 542.5881 L -353.8188 541.6956 L -352.571 540.4935 L -351.6375 539.5836 L -350.7063 538.6671 L -349.4661 537.4335 L -348.5377 536.5006 L -347.6088 535.5592 L -346.684 534.6141 L -345.7573 533.6598 L -344.5217 532.3762 L -343.6005 531.4114 L -342.3685 530.1109 L -341.4451 529.1285 L -340.2118 527.8067 L -339.2892 526.8105 L -338.0575 525.4708 L -337.1327 524.4568 L -335.9018 523.0968 L -334.9773 522.0673 L -334.0533 521.0308 L -332.8207 519.6371 L -331.8966 518.5838 L -330.9733 517.5237 L -329.7404 516.0967 L -328.8168 515.0196 L -327.892 513.9339 L -326.6588 512.4766 L -325.7316 511.3737 L -324.4947 509.8932 L -323.5649 508.7739 L -322.6346 507.6488 L -321.7019 506.5159 L -320.7513 505.357 L -319.5218 503.8519 L -318.5837 502.6988 L -317.6443 501.5407 L -316.3871 499.9855 L -315.4421 498.8127 L -314.1768 497.2367 L -313.2276 496.0499 L -312.2743 494.8544 L -311.3203 493.6537 L -310.3639 492.4455 L -309.406 491.2309 L -308.4463 490.0095 L -307.1643 488.3706 L -306.1991 487.1316 L -305.2318 485.8859 L -303.9409 484.2183 L -302.968 482.9582 L -301.994 481.6945 L -300.6868 479.9959 L -299.7036 478.7163 L -298.3886 477.0045 L -297.3946 475.71 L -296.3994 474.4141 L -295.0665 472.6783 L -294.062 471.3703 L -293.0525 470.0567 L -292.0387 468.7382 L -290.6762 466.9678 L -289.6578 465.645 L -288.6297 464.3112 L -287.5961 462.9711 L -286.5591 461.6271 L -285.1733 459.8329 L -284.1271 458.4796 L -283.0714 457.115 L -281.6701 455.3049 L -280.6148 453.9429 L -279.1981 452.1161 L -278.1318 450.7421 L -277.0637 449.3664 L -275.9926 447.9882 L -274.9205 446.6095 L -273.8463 445.229 L -272.7746 443.8527 L -271.3445 442.0184 L -270.2731 440.646 L -269.202 439.2756 L -268.1295 437.9053 L -267.059 436.5398 L -265.6319 434.7233 L -264.5606 433.364 L -263.1355 431.5619 L -262.0652 430.2134 L -260.9937 428.8682 L -259.9251 427.5317 L -258.4981 425.7546 L -257.4281 424.4283 L -256.3581 423.1077 L -255.2873 421.7922 L -254.2141 420.4807 L -252.7843 418.7441 L -251.7112 417.4493 L -250.6356 416.1592 L -249.5603 414.8773 L -248.4828 413.6012 L -247.4017 412.3302 L -245.9598 410.6501 L -244.8751 409.398 L -243.7878 408.1534 L -242.6988 406.9175 L -241.241 405.2803 L -240.1455 404.0627 L -238.68 402.4502 L -237.5755 401.247 L -236.4709 400.0539 L -235.3579 398.8615 L -233.8827 397.2956 L -232.7708 396.1256 L -231.6542 394.9591 L -230.164 393.4152 L -229.0447 392.2659 L -227.9187 391.1187 L -226.7947 389.9825 L -225.6664 388.8511 L -224.5324 387.7234 L -223.0176 386.2319 L -221.8745 385.1181 L -220.7289 384.0117 L -219.5778 382.9103 L -218.4176 381.8109 L -217.2557 380.7205 L -215.6925 379.2702 L -214.5129 378.1883 L -212.9303 376.7536 L -211.7333 375.6808 L -210.1268 374.2574 L -208.9127 373.1939 L -207.6877 372.131 L -206.044 370.7206 L -204.8018 369.666 L -203.1325 368.2634 L -201.8694 367.2128 L -200.5956 366.1623 L -198.8915 364.7707 L -197.6003 363.7268 L -195.869 362.3416 L -194.5591 361.3043 L -192.8001 359.9264 L -191.471 358.8967 L -190.1334 357.8704 L -188.7881 356.8484 L -187.4315 355.828 L -186.0463 354.7968 L -184.2417 353.4692 L -182.8604 352.4648 L -181.4694 351.4638 L -179.6061 350.1388 L -178.1985 349.1498 L -176.3121 347.8402 L -174.8907 346.8651 L -172.9842 345.5726 L -171.5484 344.6102 L -169.6286 343.3377 L -168.1864 342.3924 L -166.7402 341.4533 L -165.2919 340.5217 L -163.8451 339.5996 L -161.9134 338.381 L -160.4606 337.4735 L -158.5291 336.2781 L -157.0795 335.3886 L -155.1464 334.212 L -153.6964 333.336 L -151.7672 332.1777 L -150.3203 331.3134 L -148.3958 330.1683 L -146.9534 329.3124 L -145.5146 328.4588 L -144.08 327.6073 L -142.6475 326.755 L -140.7464 325.6193 L -139.325 324.7658 L -137.9085 323.9103 L -136.0286 322.7664 L -134.6238 321.9043 L -133.2234 321.0383 L -131.3702 319.8815 L -129.9846 319.0085 L -128.6035 318.1316 L -126.7742 316.9601 L -125.4059 316.077 L -124.043 315.1916 L -122.6826 314.3025 L -121.3288 313.4127 L -119.9805 312.5218 L -118.1878 311.3304 L -116.8463 310.4339 L -115.5085 309.5361 L -113.7262 308.334 L -112.3977 307.4338 L -111.0701 306.5309 L -109.3007 305.3234 L -107.9767 304.417 L -106.653 303.5088 L -105.3289 302.5985 L -104.0107 301.6909 L -102.2519 300.478 L -100.9329 299.5673 L -99.1777 298.3535 L -97.8629 297.4418 L -96.5484 296.5273 L -94.8033 295.3073 L -93.4972 294.389 L -92.1952 293.4682 L -90.4656 292.2351 L -89.1754 291.3072 L -87.4628 290.0636 L -86.1844 289.1261 L -84.4894 287.8701 L -83.224 286.9226 L -81.5455 285.6526 L -80.2925 284.6944 L -78.6342 283.4129 L -77.3922 282.4431 L -75.7548 281.1513 L -74.5318 280.1764 L -73.3098 279.194 L -71.6987 277.8856 L -70.4924 276.8961 L -69.2923 275.9032 L -68.0808 274.8922 L -66.9107 273.9073 L -65.7279 272.903 L -64.5498 271.8938 L -63.3793 270.882 L -62.2141 269.8649 L -61.0562 268.8444 L -59.8927 267.8088 L -58.3763 266.4436 L -57.2378 265.4074 L -55.7285 264.018 L -54.6026 262.9699 L -53.4833 261.9181 L -52.3687 260.8609 L -51.2592 259.7988 L -50.1521 258.7294 L -48.6907 257.3035 L -47.598 256.2269 L -46.5094 255.1453 L -45.4245 254.0586 L -43.9798 252.5982 L -42.9023 251.4991 L -41.8245 250.3913 L -40.7497 249.2782 L -39.65 248.1308 L -38.2486 246.6562 L -37.1805 245.5227 L -35.7606 244.0027 L -34.6939 242.8508 L -33.278 241.3078 L -32.2157 240.1395 L -31.1566 238.9651 L -29.751 237.3914 L -28.6959 236.1985 L -27.6472 235.0028 L -26.5963 233.7941 L -25.5432 232.5725 L -24.1568 230.9476 L -23.1152 229.7144 L -22.0754 228.4723 L -20.6919 226.8025 L -19.6586 225.5423 L -18.6271 224.2731 L -17.5973 222.9945 L -16.5699 221.7071 L -15.2066 219.9796 L -14.1893 218.6763 L -13.1718 217.3597 L -11.8236 215.595 L -10.8168 214.2614 L -9.8148 212.9203 L -8.814 211.5668 L -7.8218 210.2106 L -6.8328 208.8441 L -5.5218 207.0099 L -4.5445 205.6254 L -3.5713 204.2322 L -2.2812 202.3636 L -1.3235 200.9602 L -.3693 199.5486 L .8944 197.6589 L 1.8358 196.2363 L 3.0779 194.3391 L 4.0013 192.914 L 4.9176 191.4874 L 5.8266 190.0602 L 7.0246 188.1612 L 7.9151 186.7366 L 9.0908 184.8388 L 9.9652 183.4148 L 11.1169 181.5232 L 11.9744 180.1033 L 12.8247 178.6853 L 13.6675 177.2701 L 14.5049 175.8541 L 15.6108 173.9703 L 16.4338 172.5586 L 17.2504 171.15 L 18.0617 169.7437 L 19.1363 167.8705 L 19.9376 166.4677 L 20.7334 165.0702 L 21.7896 163.2114 L 22.5787 161.8214 L 23.3676 160.4329 L 24.4151 158.5934 L 25.202 157.2165 L 25.9879 155.8468 L 27.0374 154.0284 L 27.8271 152.669 L 28.8801 150.8698 L 29.6727 149.5257 L 30.4669 148.1879 L 31.5299 146.4118 L 32.3279 145.0891 L 33.3967 143.3313 L 34.1986 142.0225 L 35.0031 140.7172 L 35.8188 139.4016 L 36.8877 137.6887 L 37.6982 136.3977 L 38.5116 135.1083 L 39.5967 133.3976 L 40.4136 132.1164 L 41.506 130.4116 L 42.3276 129.1357 L 43.4273 127.4364 L 44.2556 126.1629 L 45.0994 124.8716 L 46.1983 123.1989 L 47.038 121.9277 L 47.881 120.658 L 48.7291 119.3872 L 49.8653 117.6959 L 50.725 116.4247 L 51.8728 114.7391 L 52.7413 113.4729 L 53.6159 112.2057 L 54.494 110.9413 L 55.3797 109.6741 L 56.2689 108.4097 L 57.4609 106.727 L 58.3612 105.4654 L 59.5717 103.7821 L 60.4843 102.5232 L 61.4034 101.2644 L 62.3286 100.0063 L 63.2593 98.7503 L 64.196 97.4964 L 65.4558 95.8265 L 66.4073 94.5782 L 67.3666 93.3312 L 68.3313 92.0889 L 69.6297 90.4356 L 70.6112 89.2 L 71.599 87.969 L 72.93 86.3304 L 73.9354 85.1083 L 74.9497 83.8894 L 75.9705 82.6769 L 77.0001 81.4683 L 78.0372 80.2657 L 79.4308 78.6729 L 80.4833 77.4875 L 81.5439 76.308 L 82.6108 75.1364 L 83.6843 73.9721 L 85.1251 72.4312 L 86.2136 71.2832 L 87.3095 70.1408 L 88.7753 68.6329 L 89.8823 67.5087 L 90.9966 66.3892 L 92.4862 64.9108 L 93.6107 63.8074 L 94.7372 62.7128 L 95.8695 61.6228 L 97.3874 60.1773 L 98.5274 59.103 L 100.0546 57.6785 L 101.2061 56.6151 L 102.358 55.5603 L 103.5165 54.5081 L 104.6768 53.4629 L 106.2296 52.0774 L 107.3978 51.0446 L 108.5701 50.0165 L 109.7447 48.9946 L 110.9223 47.9779 L 112.1052 46.9646 L 113.686 45.6226 L 114.8753 44.6221 L 116.0697 43.6247 L 117.6666 42.3026 L 118.8647 41.3188 L 120.0681 40.3377 L 121.2769 39.3589 L 122.4852 38.3873 L 123.698 37.4186 L 124.9161 36.4521 L 126.5389 35.1744 L 127.7632 34.2177 L 129.3931 32.9536 L 130.6221 32.0075 L 131.8553 31.0643 L 133.4978 29.8174 L 134.7362 28.8842 L 135.9735 27.9579 L 137.6288 26.7278 L 138.8754 25.8083 L 140.1229 24.8941 L 141.3733 23.9835 L 142.6279 23.0759 L 143.8832 22.1736 L 145.5628 20.9754 L 146.8265 20.0809 L 148.5158 18.8942 L 149.7864 18.0086 L 151.4848 16.8341 L 152.7622 15.9576 L 154.4724 14.7935 L 155.756 13.9268 L 157.4753 12.775 L 158.7693 11.9152 L 160.0656 11.0596 L 161.3641 10.2087 L 162.6681 9.3602 L 164.4107 8.2362 L 165.7238 7.3968 L 167.0398 6.5621 L 168.7977 5.4575 L 170.1258 4.6308 L 171.4501 3.813 L 172.7801 2.9984 L 174.5616 1.9175 L 175.9024 1.1116 L 177.6951 .0441 L 179.0416 -.7502 L 180.394 -1.5417 L 181.749 -2.3284 L 183.1074 -3.1108 L 184.4702 -3.8895 L 186.2905 -4.9201 L 187.6595 -5.6879 L 190.8692 -7.4641 L 192.2506 -8.2182 L 193.6349 -8.9679 L 195.4855 -9.9604 L 196.8788 -10.7006 L 198.2741 -11.4357 L 199.6715 -12.1658 L 201.5424 -13.1337 L 202.9476 -13.8537 L 204.8267 -14.8069 L 206.2413 -15.5174 L 207.6566 -16.2219 L 209.0781 -16.9233 L 210.9763 -17.8499 L 212.4039 -18.539 L 213.8352 -19.2229 L 215.2695 -19.9013 L 217.1881 -20.7975 L 218.629 -21.462 L 220.0761 -22.1216 L 221.5244 -22.7741 L 222.9795 -23.4217 L 224.4334 -24.0609 L 225.8942 -24.6953 L 227.3557 -25.3221 L 229.3094 -26.1476 L 230.78 -26.7597 L 232.25 -27.3637 L 234.2166 -28.1593 L 235.6943 -28.7479 L 237.6582 -29.5182 L 239.134 -30.0884 L 240.6104 -30.6515 L 242.5771 -31.3905 L 244.0513 -31.9363 L 246.0128 -32.6519 L 247.4827 -33.1806 L 248.9471 -33.701 L 250.4073 -34.2139 L 252.3463 -34.8858 L 253.7847 -35.3778 L 255.6909 -36.0216 L 257.1041 -36.4928 L 258.5055 -36.9551 L 259.8955 -37.4088 L 261.2683 -37.852 L 262.6255 -38.2858 L 264.4093 -38.8495 L 265.7224 -39.2601 L 267.0143 -39.6608 L 268.7058 -40.1805 L 269.9487 -40.559 L 271.5716 -41.0495 L 272.763 -41.4078 L 273.9284 -41.7578 L 275.0722 -42.1018 L 276.1876 -42.4386 L 277.2779 -42.7697 L 278.706 -43.2071 L 279.7237 -43.5224 L 280.7315 -43.8386 L 282.0258 -44.2519 L 282.9712 -44.5595 L 284.195 -44.9659 L 285.0916 -45.27 L 285.9769 -45.5758 L 286.8503 -45.8829 L 287.717 -46.1929 L 288.8652 -46.6115 L 289.7207 -46.9292 L 290.5729 -47.2503 L 291.4199 -47.574 L 292.2631 -47.9009 L 293.3817 -48.3416 L 294.2144 -48.6749 L 295.0448 -49.0118 L 295.8704 -49.3512 L 296.6908 -49.6929 L 297.5094 -50.0383 L 298.3226 -50.3859 L 299.4015 -50.8546 L 300.2052 -51.2096 L 301.0052 -51.5682 L 301.801 -51.9301 L 302.8546 -52.4175 L 303.6411 -52.7882 L 304.4228 -53.1631 L 305.458 -53.6705 L 306.2288 -54.057 L 307.2496 -54.5809 L 308.0087 -54.9797 L 309.0127 -55.52 L 309.7612 -55.9327 L 310.7476 -56.49 L 311.4828 -56.9155 L 312.2117 -57.3463 L 313.1755 -57.9298 L 313.8914 -58.3736 L 314.6025 -58.8234 L 315.3086 -59.2791 L 316.0101 -59.7407 L 316.705 -60.2071 L 317.3967 -60.6804 L 318.311 -61.3199 L 318.9937 -61.8079 L 319.8923 -62.464 L 320.5633 -62.9637 L 321.2309 -63.4694 L 322.115 -64.1518 L 322.7722 -64.6687 L 323.4262 -65.1912 L 324.078 -65.72 L 324.9411 -66.4327 L 325.5829 -66.9723 L 326.2227 -67.5185 L 326.8575 -68.0697 L 327.6966 -68.8136 L 328.3215 -69.3798 L 328.9396 -69.9507 L 329.553 -70.5286 L 330.1593 -71.1114 L 330.7602 -71.7008 L 331.3551 -72.2964 L 331.9424 -72.897 L 332.5247 -73.5048 L 333.1009 -74.1191 L 333.6684 -74.7368 L 334.4269 -75.5827 L 334.9735 -76.2073 L 335.5241 -76.8492 L 336.2472 -77.7129 L 336.7843 -78.3695 L 337.317 -79.0334 L 338.0176 -79.9253 L 338.5393 -80.6028 L 339.2284 -81.5147 L 339.7413 -82.2055 L 340.2505 -82.9017 L 340.9251 -83.8396 L 341.4271 -84.5483 L 341.9266 -85.2632 L 342.4235 -85.9837 L 342.9178 -86.7095 L 343.4098 -87.4403 L 344.0638 -88.4245 L 344.5512 -89.1675 L 345.1995 -90.1685 L 345.683 -90.9249 L 346.164 -91.6868 L 346.6427 -92.4554 L 347.2754 -93.4884 L 347.7466 -94.2709 L 348.3685 -95.3232 L 348.83 -96.1193 L 349.4392 -97.1925 L 349.8889 -98.0031 L 350.3329 -98.8203 L 350.7716 -99.645 L 351.3465 -100.7542 L 351.7696 -101.593 L 352.3234 -102.7213 L 352.7313 -103.5762 L 353.2632 -104.7233 L 353.654 -105.5908 L 354.1643 -106.7584 L 354.5378 -107.6394 L 354.9042 -108.5281 L 355.3783 -109.7188 L 355.723 -110.6174 L 356.1678 -111.8226 L 356.4892 -112.7301 L 356.8012 -113.6439 L 357.1017 -114.5587 L 357.3927 -115.4792 L 357.7659 -116.7131 L 358.035 -117.6416 L 358.2967 -118.5761 L 358.6346 -119.8271 L 358.8811 -120.7703 L 359.2028 -122.0346 L 359.4391 -122.9865 L 359.6733 -123.9438 L 359.9823 -125.2251 L 360.2135 -126.1919 L 360.4447 -127.1617 L 360.6782 -128.1386 L 360.9127 -129.114 L 361.2304 -130.4225 L 361.4729 -131.4092 L 361.8022 -132.7302 L 362.0544 -133.726 L 362.3981 -135.0603 L 362.6608 -136.0619 L 363.0196 -137.4054 L 363.2948 -138.4179 L 363.5744 -139.4342 L 363.8625 -140.4671 L 364.2475 -141.8196 L 364.5456 -142.8442 L 364.8513 -143.8733 L 365.1645 -144.9065 L 365.5912 -146.2862 L 365.9186 -147.3261 L 366.3633 -148.7152 L 366.7045 -149.7613 L 367.0516 -150.8095 L 367.4048 -151.8612 L 367.884 -153.2668 L 368.2495 -154.3232 L 368.7464 -155.7358 L 369.1263 -156.7968 L 369.5132 -157.8596 L 370.0389 -159.2739 L 370.4417 -160.335 L 370.8516 -161.3941 L 371.4104 -162.8038 L 371.838 -163.8557 L 372.4219 -165.255 L 372.869 -166.2991 L 373.4782 -167.6855 L 373.9448 -168.7198 L 374.4212 -169.7521 L 374.9051 -170.777 L 375.3985 -171.7978 L 376.0707 -173.1521 L 376.5853 -174.1611 L 377.11 -175.1671 L 377.8236 -176.4995 L 378.3692 -177.4921 L 378.9259 -178.4831 L 379.6797 -179.7906 L 380.2579 -180.7682 L 380.8481 -181.7433 L 381.6455 -183.0249 L 382.2582 -183.9825 L 383.0914 -185.2489 L 383.7284 -186.1908 L 384.376 -187.1266 L 385.0337 -188.0558 L 385.9267 -189.2849 L 386.6082 -190.199 L 387.5332 -191.4092 L 388.2386 -192.3099 L 389.1927 -193.5006 L 389.9187 -194.3876 L 390.6537 -195.271 L 391.646 -196.4424 L 392.3976 -197.3147 L 393.4124 -198.4742 L 394.1814 -199.3399 L 395.2167 -200.4895 L 396.0009 -201.3487 L 396.7915 -202.2055 L 397.5999 -203.0724 L 398.6587 -204.1945 L 399.4685 -205.0427 L 400.2837 -205.8882 L 401.1059 -206.7325 L 401.9325 -207.5729 L 402.7654 -208.4116 L 403.605 -209.2489 L 404.4483 -210.0816 L 405.2985 -210.9123 L 406.1543 -211.7396 L 407.0159 -212.5634 L 407.8843 -213.3844 L 408.7593 -214.2022 L 409.9333 -215.2839 L 410.8216 -216.0897 L 412.0157 -217.1548 L 412.9188 -217.9461 L 413.827 -218.7295 L 415.048 -219.7622 L 415.9707 -220.5272 L 416.9007 -221.2846 L 417.8371 -222.0337 L 419.0928 -223.0172 L 420.0442 -223.7463 L 421.0004 -224.4655 L 422.2875 -225.4118 L 423.2582 -226.1091 L 424.237 -226.798 L 425.5529 -227.7025 L 426.5463 -228.3691 L 427.5469 -229.0266 L 428.5576 -229.6767 L 429.9031 -230.5207 L 430.925 -231.1454 L 432.2968 -231.9626 L 433.3338 -232.564 L 434.725 -233.3487 L 435.7755 -233.9243 L 437.1864 -234.6749 L 438.2493 -235.2241 L 439.6756 -235.9402 L 440.7518 -236.4659 L 442.1926 -237.1519 L 443.2791 -237.6568 L 444.7506 -238.3254 L 445.8266 -238.804 L 446.9254 -239.2846 L 448.0272 -239.7591 L 449.1335 -240.2286 L 450.2442 -240.6936 L 451.3576 -241.1537 L 452.4786 -241.6114 L 453.9688 -242.2119 L 455.0943 -242.6598 L 456.5996 -243.2517 L 457.7335 -243.6922 L 458.8684 -244.129 L 460.0053 -244.5622 L 461.53 -245.1372 L 462.6755 -245.5642 L 463.8252 -245.9888 L 464.9782 -246.4107 L 466.5184 -246.9677 L 467.6813 -247.3837 L 469.2312 -247.9315 L 470.4005 -248.3399 L 471.574 -248.7449 L 472.7715 -249.1527 L 474.3271 -249.6741 L 475.515 -250.0658 L 476.7069 -250.4526 L 477.9029 -250.8341 L 479.5043 -251.3339 L 480.3094 -251.5801 L 481.5188 -251.9429 L 482.7332 -252.2985 L 483.9529 -252.6463 L 485.1756 -252.9855 L 486.8159 -253.4257 L 488.0519 -253.7459 L 489.7057 -254.1587 L 490.9504 -254.4579 L 492.2021 -254.7489 L 493.8751 -255.1227 L 495.1361 -255.3937 L 496.4019 -255.6563 L 498.0965 -255.9936 L 499.3702 -256.2366 L 500.6486 -256.4716 L 501.9313 -256.6992 L 503.2201 -256.92 L 504.9421 -257.203 L 506.2391 -257.4078 L 507.5449 -257.6069 L 509.2805 -257.8607 L 510.5907 -258.0445 L 512.344 -258.2811 L 513.6631 -258.4514 L 514.9877 -258.6161 L 516.76 -258.8276 L 518.0937 -258.9801 L 519.4332 -259.1269 L 520.7769 -259.2682 L 522.5776 -259.4481 L 523.9301 -259.5762 L 525.2892 -259.6988 L 526.6557 -259.8164 L 528.4825 -259.9648 L 529.8578 -260.0703 L 531.2407 -260.171 L 533.0906 -260.2979 L 534.4832 -260.3878 L 536.3512 -260.502 L 537.7555 -260.5835 L 539.6394 -260.6875 L 541.06 -260.762 L 542.4864 -260.8339 L 543.9233 -260.9035 L 545.8403 -260.9919 L 547.288 -261.0555 L 549.2314 -261.1369 L 550.6973 -261.1953 L 552.1703 -261.2514 L 554.1473 -261.3227 L 555.6372 -261.3732 L 557.1368 -261.4216 L 558.642 -261.4673 L 560.66 -261.5247 L 562.1811 -261.5649 L 563.7121 -261.603 L 565.7632 -261.6508 L 567.3105 -261.6851 L 568.8666 -261.7182 L 570.9502 -261.761 L 572.52 -261.7926 L 574.6273 -261.8344 L 576.2141 -261.8659 L 577.8101 -261.8978 L 579.9474 -261.9413 L 581.5579 -261.9747 L 583.1775 -262.0088 L 584.7988 -262.0436 L 586.4294 -262.0795 L 588.6109 -262.1284 L 590.2531 -262.1665 L 592.4504 -262.2186 L 594.1039 -262.2588 L 596.3023 -262.3134 L 597.9549 -262.3554 L 600.1583 -262.414 L 601.8088 -262.4596 L 604.0054 -262.5242 L 605.649 -262.5758 L 607.2875 -262.6303 L 608.9242 -262.6878 L 610.5542 -262.7485 L 612.7217 -262.8352 L 614.3442 -262.9042 L 615.9596 -262.9774 L 617.5717 -263.0543 L 619.7142 -263.1628 L 621.3156 -263.2485 L 622.9123 -263.3385 L 625.0327 -263.4649 L 626.6169 -263.5646 L 628.7226 -263.7047 L 630.2982 -263.8155 L 632.392 -263.9706 L 633.954 -264.0922 L 636.0328 -264.2632 L 637.5859 -264.3974 L 639.1354 -264.5377 L 640.6797 -264.6833 L 642.7317 -264.8869 L 644.2659 -265.0464 L 645.8004 -265.2128 L 647.8326 -265.4428 L 649.3529 -265.6222 L 651.3777 -265.8709 L 652.8891 -266.0637 L 654.3981 -266.2625 L 655.902 -266.4663 L 657.906 -266.7472 L 659.4013 -266.9639 L 660.8969 -267.186 L 662.3902 -267.414 L 663.878 -267.6475 L 665.8579 -267.9682 L 667.3378 -268.2155 L 669.3056 -268.5552 L 670.7798 -268.8183 L 672.248 -269.0877 L 674.2024 -269.4585 L 675.6632 -269.7447 L 677.1199 -270.038 L 678.5743 -270.3393 L 680.5068 -270.7533 L 681.9539 -271.073 L 683.3948 -271.3994 L 685.3125 -271.8454 L 686.7504 -272.1888 L 688.6576 -272.655 L 690.0884 -273.0127 L 691.5168 -273.3765 L 692.9426 -273.7456 L 694.8418 -274.2467 L 696.263 -274.6285 L 697.6854 -275.0164 L 699.1079 -275.4099 L 700.5285 -275.8087 L 701.9495 -276.2135 L 703.3692 -276.6238 L 704.7897 -277.0408 L 706.6814 -277.6062 L 708.1017 -278.0384 L 709.5189 -278.4763 L 710.9384 -278.9221 L 712.8237 -279.5257 L 714.2403 -279.9885 L 715.6544 -280.4585 L 717.5385 -281.0975 L 718.9529 -281.5868 L 720.8309 -282.2495 L 722.2411 -282.757 L 723.6464 -283.2712 L 725.0508 -283.7938 L 726.4549 -284.3247 L 727.8713 -284.8689 L 729.721 -285.5919 L 731.117 -286.1467 L 732.9786 -286.8988 L 734.3732 -287.4709 L 735.7654 -288.0493 L 737.621 -288.8313 L 739.0103 -289.425 L 740.3979 -290.0248 L 741.7844 -290.631 L 743.1711 -291.2441 L 744.5536 -291.862 L 745.9372 -292.4872 L 747.3193 -293.1186 L 748.6984 -293.7553 L 750.0784 -294.3993 L 751.454 -295.0481 L 752.829 -295.7036 L 754.2014 -296.3653 L 756.0313 -297.2591 L 757.3996 -297.9365 L 759.2215 -298.8505 L 760.5874 -299.545 L 761.9472 -300.2444 L 763.7597 -301.1891 L 765.1153 -301.9049 L 766.4685 -302.6274 L 767.8193 -303.3567 L 769.1679 -304.0931 L 770.5129 -304.8358 L 771.8556 -305.5855 L 773.1969 -306.3427 L 774.5396 -307.1089 L 776.3153 -308.135 L 777.6479 -308.9147 L 779.4186 -309.9637 L 780.7479 -310.761 L 782.0692 -311.5618 L 783.3911 -312.3718 L 785.1429 -313.4587 L 786.4543 -314.2826 L 787.7628 -315.1137 L 789.0659 -315.9505 L 790.7992 -317.0772 L 792.0954 -317.9299 L 793.3878 -318.7889 L 795.105 -319.9436 L 796.3892 -320.8169 L 797.6697 -321.6957 L 798.9472 -322.5805 L 800.2215 -323.4711 L 801.4924 -324.3675 L 803.1798 -325.5697 L 804.4433 -326.479 L 805.7004 -327.3914 L 806.9577 -328.3114 L 808.2094 -329.2352 L 809.8754 -330.4765 L 811.1212 -331.4144 L 812.7734 -332.6719 L 814.0093 -333.6233 L 815.2383 -334.5785 L 816.8733 -335.8638 L 818.0943 -336.835 L 819.3084 -337.8102 L 820.5194 -338.7928 L 822.1243 -340.1101 L 823.3232 -341.1057 L 824.5183 -342.1081 L 825.7051 -343.1131 L 826.8911 -344.1269 L 828.0707 -345.1441 L 829.2462 -346.1666 L 830.8025 -347.5337 L 831.9676 -348.5666 L 833.1281 -349.6033 L 834.2856 -350.6454 L 835.4389 -351.6907 L 836.97 -353.0901 L 838.1141 -354.1437 L 839.637 -355.5555 L 840.7746 -356.6174 L 841.9112 -357.6838 L 843.0443 -358.7526 L 844.1766 -359.8266 L 845.6833 -361.2637 L 846.8055 -362.3396 L 847.9324 -363.4248 L 849.4252 -364.8704 L 850.5442 -365.9596 L 852.0338 -367.4167 L 853.151 -368.5148 L 854.2616 -369.6114 L 855.3724 -370.7128 L 856.4821 -371.818 L 857.9576 -373.2957 L 859.0617 -374.4071 L 860.166 -375.5238 L 861.6289 -377.0115 L 862.7273 -378.1343 L 864.1873 -379.6349 L 865.2783 -380.7627 L 866.7316 -382.2728 L 867.8192 -383.4086 L 868.905 -384.5475 L 869.9893 -385.689 L 871.4317 -387.2142 L 872.5117 -388.361 L 873.592 -389.5114 L 874.6709 -390.6642 L 876.1062 -392.2036 L 877.1822 -393.3613 L 878.2578 -394.5218 L 879.6908 -396.0711 L 880.7654 -397.2353 L 881.8397 -398.4006 L 882.9141 -399.567 L 884.3474 -401.1242 L 885.4234 -402.2938 L 886.4983 -403.4633 L 887.9337 -405.0259 L 889.0087 -406.1971 L 890.0856 -407.3709 L 891.1643 -408.5475 L 892.2433 -409.7254 L 893.6796 -411.295 L 894.7574 -412.475 L 895.8338 -413.6555 L 897.2701 -415.2343 L 898.3447 -416.4199 L 899.777 -418.0055 L 900.8489 -419.1978 L 901.9187 -420.3935 L 903.3435 -421.9961 L 904.4041 -423.1981 L 905.4644 -424.4074 L 906.5214 -425.6216 L 907.5733 -426.8387 L 908.6229 -428.0617 L 910.0142 -429.6968 L 911.056 -430.9315 L 912.0916 -432.1669 L 913.1219 -433.4054 L 914.4937 -435.0665 L 915.5193 -436.3176 L 916.541 -437.5713 L 917.8985 -439.2493 L 918.911 -440.5093 L 919.9224 -441.7751 L 920.9304 -443.0437 L 921.9359 -444.3159 L 923.2732 -446.0192 L 924.2704 -447.2974 L 925.2653 -448.5805 L 926.2606 -449.8722 L 927.247 -451.1598 L 928.5602 -452.885 L 929.5432 -454.1863 L 930.5223 -455.4904 L 931.5015 -456.8023 L 932.8043 -458.5595 L 933.7791 -459.8843 L 934.7559 -461.2195 L 936.0587 -463.0121 L 937.0359 -464.3661 L 938.0119 -465.7264 L 938.9876 -467.095 L 939.9646 -468.4731 L 941.2676 -470.3235 L 942.2452 -471.72 L 943.2239 -473.1264 L 944.2027 -474.5404 L 945.1801 -475.9615 L 946.1576 -477.3898 L 947.1391 -478.8304 L 948.4432 -480.7573 L 949.4238 -482.215 L 950.4008 -483.6776 L 951.3788 -485.1504 L 952.3568 -486.6322 L 953.3316 -488.1209 L 954.6299 -490.1182 L 955.6029 -491.6272 L 956.5738 -493.1434 L 957.8669 -495.1796 L 958.8355 -496.7167 L 959.8007 -498.2598 L 960.7676 -499.8155 L 962.0515 -501.8964 L 963.0154 -503.4692 L 963.976 -505.0475 L 965.258 -507.1668 L 966.2184 -508.765 L 967.1749 -510.3669 L 968.1337 -511.9797 L 969.0904 -513.6 L 970.3624 -515.7689 L 971.3146 -517.4048 L 972.585 -519.599 L 973.2186 -520.7007 L 974.17 -522.3614 L 975.432 -524.5796 L 976.3789 -526.2559 L 977.6387 -528.4997 L 978.5815 -530.1917 L 979.522 -531.8908 L 980.4622 -533.597 L 981.7104 -535.8805 L 982.6459 -537.6025 L 983.8876 -539.9089 L 984.8184 -541.6474 L 985.7476 -543.3939 L 986.9796 -545.7286 L 987.9012 -547.488 L 988.8221 -549.2562 L 990.0455 -551.6216 L 990.96 -553.4049 L 991.8707 -555.1945 L 992.778 -556.9903 L 993.6798 -558.7916 L 994.5822 -560.6036 L 995.4776 -562.4199 L 996.3699 -564.2452 L 997.2563 -566.075 L 998.4268 -568.5202 L 999.2989 -570.3614 L 1000.451 -572.8228 L 1001.3054 -574.6712 L 1002.1581 -576.5333 L 1003.2758 -579.0006 L 1004.1115 -580.8657 L 1005.2131 -583.351 L 1006.0314 -585.2184 L 1007.1126 -587.7148 L 1007.9164 -589.5897 L 1008.7186 -591.4736 L 1009.771 -593.9711 L 1010.5565 -595.8528 L 1011.3363 -597.7366 L 1012.1108 -599.6216 L 1013.1321 -602.1314 L 1013.892 -604.0146 L 1014.6451 -605.8954 L 1015.6342 -608.3911 L 1016.3683 -610.2613 L 1017.336 -612.7497 L 1018.0541 -614.6131 L 1018.9989 -617.09 L 1019.6995 -618.9467 L 1020.3907 -620.7968 L 1021.0769 -622.6473 L 1021.7548 -624.4924 L 1022.4249 -626.334 L 1023.3039 -628.777 L 1023.9537 -630.604 L 1024.5956 -632.4265 L 1025.2253 -634.2324 L 1026.0523 -636.6323 L 1026.662 -638.4227 L 1027.4595 -640.7939 L 1028.0459 -642.5607 L 1028.8134 -644.9028 L 1029.3785 -646.6505 L 1029.935 -648.3906 L 1030.4848 -650.131 L 1031.0277 -651.8662 L 1031.7406 -654.1767 L 1032.2677 -655.9082 L 1032.7883 -657.6394 L 1033.4754 -659.9474 L 1033.9842 -661.6781 L 1034.4879 -663.4117 L 1035.1534 -665.7242 L 1035.6473 -667.4648 L 1036.1364 -669.2036 L 1036.7845 -671.5293 L 1037.2684 -673.2772 L 1037.7477 -675.0289 L 1038.2236 -676.7828 L 1038.6975 -678.5439 L 1039.1708 -680.3063 L 1039.6403 -682.0751 L 1040.2642 -684.4359 L 1040.7286 -686.2097 L 1041.1916 -687.9898 L 1041.6517 -689.7729 L 1042.111 -691.5593 L 1042.5684 -693.3493 L 1043.0252 -695.1478 L 1043.4767 -696.9439 L 1043.9263 -698.7472 L 1044.373 -700.5516 L 1044.9643 -702.9649 L 1045.4045 -704.7807 L 1045.8479 -706.6238 L 1046.4199 -709.0354 L 1046.8466 -710.8548 L 1047.2702 -712.683 L 1047.8276 -715.1238 L 1048.2406 -716.9553 L 1048.781 -719.3916 L 1049.18 -721.2154 L 1049.5724 -723.0333 L 1049.9612 -724.8584 L 1050.458 -727.2303 L 1050.8274 -729.0251 L 1051.2985 -731.3597 L 1051.6432 -733.1062 L 1051.9784 -734.8394 L 1052.4088 -737.1237 L 1052.7199 -738.8205 L 1053.0229 -740.5174 L 1053.4029 -742.7139 L 1053.6772 -744.3511 L 1054.0267 -746.5086 L 1054.2763 -748.1047 L 1054.5934 -750.2064 L 1054.8194 -751.7595 L 1055.0364 -753.2961 L 1055.2447 -754.8121 L 1055.5093 -756.8004 L 1055.6986 -758.2674 L 1055.8806 -759.7132 L 1056.1127 -761.6085 L 1056.2795 -763.0073 L 1056.4967 -764.869 L 1056.6487 -766.2016 L 1056.7999 -767.5468 L 1056.9962 -769.324 L 1057.1406 -770.6526 L 1057.3313 -772.4152 L 1057.4728 -773.7338 L 1057.614 -775.0517 L 1057.755 -776.366 L 1057.9433 -778.118 L 1058.085 -779.4312 L 1058.2261 -780.7415 L 1058.3685 -782.0534 L 1058.5115 -783.3643 L 1058.7036 -785.1137 L 1058.8475 -786.4268 L 1058.9918 -787.7395 L 1059.1382 -789.0561 L 1059.3333 -790.8081 L 1059.4792 -792.1257 L 1059.6257 -793.4461 L 1059.7738 -794.7678 L 1059.9217 -796.0937 L 1060.0697 -797.4193 L 1060.267 -799.1909 L 1060.4117 -800.5222 L 1060.6056 -802.2981 L 1060.7516 -803.6351 L 1060.8969 -804.9732 L 1061.091 -806.7607 L 1061.2351 -808.1048 L 1061.3799 -809.4518 L 1061.5713 -811.2491 L 1061.7153 -812.6013 L 1061.9066 -814.4027 L 1062.05 -815.756 L 1062.238 -817.5514 L 1062.3781 -818.8942 L 1062.5632 -820.6724 L 1062.6997 -821.9947 L 1062.834 -823.3093 L 1062.967 -824.608 L 1063.0987 -825.8968 L 1063.2283 -827.1721 L 1063.3983 -828.8487 L 1063.5233 -830.0921 L 1063.6869 -831.7231 L 1063.8072 -832.9312 L 1063.9254 -834.1253 L 1064.0806 -835.6925 L 1064.1944 -836.8515 L 1064.3068 -837.9967 L 1064.453 -839.5017 L 1064.5602 -840.6164 L 1064.7008 -842.0794 L 1064.8046 -843.159 L 1064.9375 -844.5716 L 1065.0337 -845.6132 L 1065.1257 -846.6396 L 1065.243 -847.9831 L 1065.3261 -848.9758 L 1065.4271 -850.2696 L 1065.496 -851.2245 L 1065.5777 -852.4735 L 1065.6306 -853.3904 L 1065.6767 -854.2941 L 1065.7271 -855.4727 L 1065.7574 -856.3412 L 1065.787 -857.4798 L 1065.8027 -858.322 L 1065.8112 -859.1562 L 1065.8129 -860.2559 L 1065.809 -861.0753 L 1065.7996 -861.8896 L 1065.7803 -862.97 L 1065.7593 -863.7751 L 1065.7338 -864.5771 L 1065.6915 -865.6416 L 1065.6531 -866.4347 L 1065.5946 -867.4852 L 1065.5446 -868.271 L 1065.47 -869.3136 L 1065.4079 -870.093 L 1065.3162 -871.1251 L 1065.241 -871.8973 L 1065.1604 -872.6657 L 1065.0733 -873.4299 L 1064.9482 -874.4453 L 1064.847 -875.2032 L 1064.7033 -876.2082 L 1064.5879 -876.9583 L 1064.4251 -877.9544 L 1064.2964 -878.6979 L 1064.1139 -879.6844 L 1063.9698 -880.4211 L 1063.7674 -881.398 L 1063.6076 -882.1279 L 1063.4412 -882.8561 L 1063.21 -883.823 L 1063.0288 -884.5446 L 1062.7768 -885.5036 L 1062.579 -886.2201 L 1062.3039 -887.1708 L 1062.0881 -887.8789 L 1061.8638 -888.5836 L 1061.5509 -889.5171 L 1061.3074 -890.2109 L 1060.9683 -891.1288 L 1060.7045 -891.8118 L 1060.4319 -892.49 L 1060.1506 -893.1621 L 1059.8604 -893.8301 L 1059.5619 -894.492 L 1059.2544 -895.1482 L 1058.8304 -896.0138 L 1058.5025 -896.655 L 1058.1653 -897.2909 L 1057.7026 -898.1259 L 1057.3455 -898.745 L 1056.9799 -899.357 L 1056.4789 -900.1622 L 1056.0929 -900.7586 L 1055.6991 -901.3471 L 1055.1612 -902.1216 L 1054.7481 -902.694 L 1054.1855 -903.4463 L 1053.7532 -904.0031 L 1053.1663 -904.7333 L 1052.7166 -905.273 L 1052.2589 -905.8058 L 1051.7943 -906.3306 L 1051.163 -907.019 L 1050.6807 -907.5269 L 1050.0277 -908.1912 L 1049.5292 -908.6809 L 1049.0241 -909.1629 L 1048.3392 -909.793 L 1047.8182 -910.2563 L 1047.1143 -910.8608 L 1046.5784 -911.3049 L 1045.8551 -911.8847 L 1045.3059 -912.3091 L 1044.7496 -912.7257 L 1044.1881 -913.1334 L 1043.6213 -913.532 L 1042.8568 -914.0487 L 1042.2761 -914.4255 L 1041.6899 -914.7932 L 1040.9009 -915.2686 L 1040.304 -915.6137 L 1039.5008 -916.0569 L 1038.8913 -916.3772 L 1038.0718 -916.7867 L 1037.4515 -917.0808 L 1036.8262 -917.3641 L 1035.9877 -917.7238 L 1035.3537 -917.9815 L 1034.7165 -918.2273 L 1034.0743 -918.4623 L 1033.2153 -918.7577 L 1032.5667 -918.9656 L 1031.9148 -919.1619 L 1031.0411 -919.4061 L 1030.3827 -919.5756 L 1029.7231 -919.7338 L 1029.0592 -919.88 L 1028.388 -920.016 L 1027.5084 -920.1762 L 1026.8407 -920.2846 L 1026.1718 -920.381 L 1025.2803 -920.491 L 1024.609 -920.5601 L 1023.9375 -920.6176 L 1023.0396 -920.6765 L 1022.3646 -920.7079 L 1021.463 -920.7328 L 1020.7854 -920.7396 L 1020.1049 -920.7367 L 1019.4249 -920.7236 L 1018.7426 -920.701 L 1018.059 -920.6694 L 1017.1467 -920.6123 L 1016.4588 -920.5587 L 1015.5387 -920.4727 L 1014.848 -920.3981 L 1014.1542 -920.314 L 1013.4591 -920.2211 L 1012.5284 -920.0821 L 1011.8279 -919.9674 L 1010.8913 -919.7995 L 1010.1862 -919.6621 L 1009.4777 -919.5147 L 1008.7716 -919.3589 L 1008.0628 -919.1928 L 1007.1167 -918.9554 L 1006.4079 -918.7652 L 1005.6971 -918.5628 L 1004.7557 -918.2776 L 1004.0516 -918.0507 L 1003.3475 -917.8122 L 1002.4127 -917.4782 L 1001.7103 -917.2143 L 1001.0106 -916.941 L 1000.0751 -916.5593 L 999.3746 -916.2616 L 998.6721 -915.953 L 997.9723 -915.6359 L 997.0376 -915.1971 L 996.3365 -914.8569 L 995.4013 -914.3882 L 994.7012 -914.0267 L 993.7657 -913.5293 L 993.0647 -913.1457 L 992.1302 -912.6198 L 991.4308 -912.2152 L 990.4961 -911.6596 L 989.7958 -911.2321 L 989.0965 -910.7953 L 988.3965 -910.3483 L 987.697 -909.892 L 986.7652 -909.2693 L 986.0667 -908.7915 L 985.367 -908.3035 L 984.6683 -907.8068 L 983.9688 -907.3002 L 983.2688 -906.7842 L 982.5707 -906.2603 L 981.6385 -905.5474 L 980.9384 -905.0022 L 980.2378 -904.4486 L 979.3028 -903.6979 L 978.5875 -903.1147 L 977.6633 -902.351 L 976.9589 -901.7622 L 976.2521 -901.1659 L 975.5418 -900.5623 L 974.8309 -899.9537 L 973.8792 -899.1322 L 973.1638 -898.5099 L 972.4426 -897.8792 L 971.4784 -897.0299 L 970.7526 -896.3865 L 970.0219 -895.7351 L 969.0422 -894.8561 L 968.3022 -894.1883 L 967.5578 -893.5127 L 966.5606 -892.6018 L 965.8081 -891.91 L 964.7993 -890.9766 L 964.0388 -890.2687 L 963.0163 -889.3116 L 962.2458 -888.5862 L 961.2117 -887.6071 L 960.4302 -886.8638 L 959.3823 -885.8623 L 958.5897 -885.1016 L 957.7919 -884.3334 L 956.9906 -883.5588 L 955.9136 -882.5141 L 955.1004 -881.722 L 954.2802 -880.9216 L 953.1807 -879.8456 L 952.3479 -879.029 L 951.5096 -878.2056 L 950.6657 -877.3754 L 949.5329 -876.2593 L 948.676 -875.4138 L 947.8127 -874.5614 L 946.6499 -873.4128 L 945.7746 -872.5482 L 944.889 -871.674 L 943.9976 -870.7945 L 942.7981 -869.6117 L 941.8893 -868.717 L 940.6665 -867.5143 L 939.7396 -866.604 L 938.8055 -865.6875 L 937.55 -864.4574 L 936.5976 -863.5258 L 935.3171 -862.2757 L 934.3482 -861.3318 L 933.3704 -860.3808 L 932.384 -859.4239 L 931.0576 -858.1417 L 930.052 -857.172 L 928.7012 -855.8735 L 927.679 -854.8937 L 926.3056 -853.5821 L 925.2676 -852.5931 L 923.8682 -851.2648 L 922.8134 -850.2662 L 921.392 -848.9246 L 920.3172 -847.9133 L 918.8762 -846.5589 L 917.7841 -845.5354 L 916.6873 -844.5093 L 915.5835 -843.4778 L 914.0993 -842.0932 L 912.9786 -841.0497 L 911.8508 -840.0007 L 910.7142 -838.9449 L 909.192 -837.5316 L 908.0416 -836.4648 L 906.8823 -835.3911 L 905.7212 -834.3152 L 904.5523 -833.2319 L 903.3782 -832.1434 L 902.1972 -831.0476 L 901.0113 -829.9468 L 899.4228 -828.4694 L 898.223 -827.3525 L 897.0189 -826.23 L 895.8093 -825.1011 L 894.5963 -823.9669 L 893.3753 -822.8244 L 891.7414 -821.2928 L 890.5082 -820.136 L 888.8557 -818.5849 L 887.6096 -817.4142 L 886.361 -816.2408 L 885.1047 -815.0604 L 883.4215 -813.4799 L 882.1499 -812.2868 L 880.8735 -811.0901 L 879.5913 -809.8892 L 877.8725 -808.2812 L 876.5773 -807.0705 L 875.2774 -805.8571 L 873.537 -804.2349 L 872.2251 -803.0135 L 870.9088 -801.7895 L 869.1423 -800.1504 L 867.8127 -798.9182 L 866.032 -797.2699 L 864.6879 -796.0276 L 862.8894 -794.3668 L 861.5383 -793.1198 L 859.7276 -791.4504 L 858.36 -790.1902 L 856.5332 -788.5075 L 855.1535 -787.2369 L 853.7736 -785.9664 L 851.9281 -784.2683 L 850.5365 -782.9879 L 849.1433 -781.7057 L 847.7439 -780.4186 L 846.3386 -779.1259 L 844.4606 -777.3991 L 843.0464 -776.0987 L 841.1531 -774.3584 L 839.7283 -773.0489 L 837.8221 -771.2976 L 836.3881 -769.9803 L 834.9467 -768.6563 L 833.5053 -767.3325 L 832.0565 -766.0022 L 830.6041 -764.6689 L 829.1493 -763.3332 L 827.6872 -761.9907 L 826.223 -760.6461 L 824.2657 -758.8477 L 822.7909 -757.4921 L 821.3159 -756.1359 L 819.3382 -754.3163 L 817.8261 -752.9241 L 815.861 -751.1129 L 814.3705 -749.7377 L 812.8702 -748.3519 L 811.3706 -746.9649 L 809.3656 -745.1074 L 807.8554 -743.7068 L 806.344 -742.3031 L 804.3232 -740.4231 L 802.8072 -739.0099 L 800.7795 -737.1149 L 799.256 -735.6873 L 797.7303 -734.2538 L 796.2023 -732.8137 L 794.6748 -731.3696 L 792.6332 -729.4324 L 791.1037 -727.9762 L 789.5698 -726.512 L 788.0345 -725.0422 L 786.4976 -723.5675 L 784.4467 -721.5944 L 782.9046 -720.1083 L 781.3596 -718.6176 L 779.8126 -717.1233 L 778.2632 -715.626 L 776.1901 -713.622 L 774.6315 -712.1155 L 773.0686 -710.6047 L 771.4958 -709.0839 L 769.4127 -707.0692 L 767.8383 -705.5454 L 765.7387 -703.5112 L 764.1594 -701.9791 L 762.5771 -700.4418 L 760.9941 -698.9012 L 759.4074 -697.3545 L 757.2911 -695.2868 L 755.7013 -693.7299 L 754.1089 -692.1679 L 751.9819 -690.0771 L 750.3861 -688.5055 L 748.786 -686.9273 L 746.6479 -684.8158 L 745.0426 -683.2291 L 742.9015 -681.1123 L 741.2894 -679.5186 L 739.6691 -677.9168 L 737.5121 -675.7842 L 735.8869 -674.1774 L 733.7209 -672.0358 L 732.0889 -670.4218 L 730.4561 -668.806 L 728.2754 -666.6462 L 726.6366 -665.021 L 724.4495 -662.8484 L 722.8057 -661.213 L 720.6136 -659.0276 L 718.9676 -657.3831 L 717.3186 -655.7318 L 715.6709 -654.0779 L 713.4724 -651.8651 L 711.8205 -650.1971 L 710.1695 -648.5258 L 708.518 -646.8492 L 706.3151 -644.606 L 704.6617 -642.9176 L 702.4546 -640.6573 L 700.7994 -638.9577 L 699.1421 -637.2525 L 696.8998 -634.9406 L 695.2694 -633.2569 L 693.059 -630.9715 L 691.3949 -629.2496 L 689.7258 -627.5216 L 688.0571 -625.7935 L 685.8283 -623.4849 L 684.1547 -621.751 L 681.9163 -619.4311 L 680.2379 -617.6905 L 677.9949 -615.3624 L 676.3125 -613.6138 L 674.6293 -611.8621 L 672.9421 -610.1037 L 670.6946 -607.7562 L 669.0066 -605.9885 L 667.3194 -604.2172 L 665.6303 -602.4398 L 663.3816 -600.0659 L 661.6941 -598.2784 L 659.446 -595.8894 L 657.7608 -594.0925 L 656.0735 -592.2885 L 653.8273 -589.8795 L 652.1395 -588.0641 L 650.456 -586.2495 L 648.2074 -583.82 L 646.5174 -581.9897 L 644.8346 -580.1638 L 643.1452 -578.3285 L 640.8947 -575.8808 L 639.2056 -574.0427 L 637.5052 -572.1918 L 635.2543 -569.7419 L 633.555 -567.893 L 631.8543 -566.0432 L 630.1509 -564.1909 L 628.4452 -562.3367 L 626.1732 -559.8673 L 624.463 -558.0084 L 622.1801 -555.5266 L 620.4699 -553.6663 L 618.1815 -551.1752 L 616.4677 -549.3077 L 614.7519 -547.4358" stroke-width="28" stroke="grey" fill="none" id="Track"/></svg>