<svg class="track" xmlns="http://www.w3.org/2000/svg" preserveAspectRatio="xMinYMid meet" height="480" width="600" viewBox="-1200 -1000 1 1900"><path d="m614.574-547.221-6.41 7.12-5.623 6.274-6.46 7.225-5.684 6.359-6.535 7.304-5.749 6.423-7.018 7.837-5.402 6.013-6.697 7.425-5.448 6.017-5.49 6.048-5.512 6.065-7.23 7.962-5.538 6.124-7.243 8.04-5.562 6.186-7.272 8.096-5.567 6.197-7.23 8.034-5.914 6.56-6.681 7.416-5.338 5.932-6.483 7.217-6.38 7.11-6.28 7.001-5.424 6.048-6.533 7.282-6.5 7.248-6.5 7.229-4.988 5.524-6.574 7.246-5.078 5.572-6.72 7.356-6.385 6.978-6.845 7.484-6.862 7.52-12.289 13.617-11.89 13.41-6.375 7.23-5.928 6.733-4.775 5.425-6.163 7.008-4.208 4.787-5.653 6.432-4.645 5.286-4.569 5.196-4.587 5.213-3.569 4.05-2.611 2.967-3.013 3.453-2.278 2.662-2.602 3.137-2.005 2.52-2.511 3.316-1.98 2.768-2.159 3.243-2 3.322-1.79 3.358-1.548 3.38-1.297 3.393-.864 2.76-.887 3.628-.504 2.803-.444 3.704-.144 2.845.1 3.257.504 3.614.862 3.264.965 2.535 1.529 3.182 1.38 2.562 1.773 3.123 1.87 3.184 1.812 3.09 1.917 3.403 1.683 3.256 1.549 3.496 1.148 3.345.786 3.603.266 2.771-.082 3.413-.399 2.79-.806 3.276-2.746 6.795-5.225 7.11-1.824 1.723-3.219 2.555-6.089 3.919-2.207 1.187-5.782 2.559-3.66 1.27-9.046 2.339-5.467 1.046-4.337.704-5.868.85-5.723.782-5.531.752-4.923.705-6.208.98-5.544.994-6.412 1.324L209.54-66l-4.848 1.317-11.698 3.895-11.995 5.123-11.098 5.616-11.39 6.542-6.222 3.934-5.435 3.623-6.656 4.637-6.745 4.905-6.848 5.168-6.558 5.08-7.118 5.59-7.312 5.757-5.718 4.5-7.18 5.674-7.787 6.192-7.96 6.343-8.13 6.473-7.817 6.201-8.462 6.694-8.024 6.34-7.943 6.272-6.367 5.026-8.179 6.472-7.87 6.24-7.472 5.924-5.413 4.277-6.298 4.94-5.171 4.014-5.5 4.225-4.134 3.154-4.93 3.747-3.413 2.6-3.553 2.748-3.642 2.918-3.393 2.884-3.026 2.782-3.028 3.052-2.67 2.987-2.631 3.318-2.214 3.288-2.023 3.675-1.707 3.858-1.468 4.043-1.121 3.713-.844 3.317-.86 4.213-.545 3.532-.48 4.49-.301 4.95-.145 4.855-.14 5.729-.233 5.67-.475 6.64-.64 5.814-.916 5.995-.987 4.97-1.663 6.525-1.601 4.924-2.398 5.886-2.481 4.976-3.218 5.508-2.862 4.355-3.537 4.907-8.05 9.713-4.562 4.69-4.873 4.363-4.515 3.488-5.427 3.592-6.407 3.525-5.93 2.726-4.943 1.986-5.04 1.812-5.525 1.744-6.433 1.71-5.313 1.147-7.037 1.136-5.427.565-6.683.34-5.423.066-6.66.026-10.361.444-7 .686-5.323.722-6.926 1.157-4.863.936-6.038 1.332-5.57 1.468-6.638 2.136-6.065 2.421-6.17 3.031-5.54 3.246-9.279 6.308-5.227 3.864-5.527 4.319-5.115 4.324-4.636 4.337-4.072 4.29-4.226 5.178-3.287 4.75-3.317 5.64-2.603 5.073-2.722 5.92-2.063 4.897-2.534 6.51-1.794 5.054-2.127 6.717-1.778 6.44-1.603 6.542-1.182 4.95-1.365 5.382-3.727 11.903-2.596 6.365-3.229 6.538-3.695 6.29-3.872 5.712-4.502 5.854-4.6 5.266-3.675 3.783-5.508 5.103-4.079 3.427-6.008 4.639-5.857 4.164-6.345 4.22-5.653 3.529-6.479 3.692-5.022 2.538-6.66 2.868-5.538 1.95-6.363 1.827-5.178 1.24-6.765 1.336-5.568.844-6.359.62-6.312.185-6.225-.303-4.981-.597-6.423-1.195-4.482-1.073-6.665-1.87-4.765-1.517-5.432-1.957-5.678-2.398-5.527-2.736-4.698-2.654-5.595-3.418-4.278-2.622-5.333-3.098-9.229-4.702-4.558-1.963-5.712-2.1-5.821-1.697-5.909-1.313-4.86-.816-6.053-.723-4.603-.349-6.22-.208-5.127.043-6.792.368-6.472.692-6.899 1.12-4.896 1.052-6.52 1.749-5.703 1.823-6.995 2.446-5.875 2.057-6.876 2.306-6.166 1.981-5.855 1.831-5.98 1.854-7.089 2.204-6.33 1.978-8.545 2.687-8.328 2.636-8.598 2.74-5.504 1.765-7.3 2.368-8.614 2.86-9.878 3.412-8.237 2.961-10.096 3.777-7.79 3.028-10.26 4.142-9.722 4.096-9.764 4.312-7.958 3.668-9.829 4.707-8.633 4.275-7.43 3.77-9.32 4.84-10.604 5.649-10.647 5.797-10.043 5.573-8.751 4.96-9.259 5.356-7.918 4.654-10.192 6.067-8.279 4.984-9.916 6.02-9.788 5.95-8.872 5.38-6.468 3.92-7.807 4.73-8.51 5.17-8.108 4.956-6.368 3.927-7.013 4.365-6.875 4.317-7.197 4.553-7.203 4.585-9.874 6.27-4.35 2.75-5.258 3.323-5.746 3.64-7.523 4.789-5.276 3.356-6.95 4.4-6.804 4.272-6.869 4.292-6.06 3.795-10.153 6.467-8.928 5.832-8.25 5.48-4.49 3.052-5.817 4.102-3.86 2.87-3.697 2.902-2.873 2.386-3.383 2.993-2.647 2.504-2.568 2.59-3.245 3.547-2.923 3.524-2.931 3.968-2.65 4.164-2.143 4.031-1.931 4.41-1.538 4.26-2.133 7.997-1.158 8.258-.182 4.605.091 3.753.436 4.6.692 3.984 1.164 4.472 1.24 3.554 2.006 4.544 1.822 3.392 2.742 4.316 2.366 3.192 3.645 4.212 3.578 3.465 7.529 5.64 4.968 2.809 4.933 2.28 4.217 1.624 4.983 1.592 4.17 1.08 5.275 1.043 5.734.709 4.09.22 4.455-.03 5.157-.378 4.805-.682 5.805-1.239 4.745-1.351 5.702-2.007 3.327-1.352 5.601-2.565 6.153-3.277 5.052-3.097 4.311-2.964 4.783-3.665 4.62-3.956 4.71-4.511 3.712-3.938 3.802-4.438 3.843-4.973 3.858-5.541 3.697-5.807 3.614-6.058 3.371-5.917 3.491-6.451 3.159-6.197 2.495-5.105 2.87-5.952 3.138-6.366 3.28-6.353 3.882-7.091 3.417-5.865 3.357-5.407 4.051-6.087 3.185-4.49 4.75-6.234 4.423-5.356 4.625-5.239 4.47-4.8 4.943-5.052 5.444-5.286 5.957-5.504 4.313-3.812 6.272-5.275 5.315-4.223 6.24-4.667 5.204-3.647 6.969-4.549 5.46-3.319 6.86-3.893 5.683-3.001 7.585-3.69 5.908-2.632 7.864-3.184 6.131-2.243 8.081-2.658 6.279-1.85 7.815-2.06 8.4-1.937 7.99-1.601 15.684-2.5 5.113-.633 9.768-1.012 8.786-.803 8.293-.824 8.302-.98 8.797-1.282 7.202-1.29 8.159-1.766 6.568-1.653 8.003-2.305 6.42-2.097 8.278-3.014 5.75-2.275 7.548-3.17 7.895-3.464 7.345-3.27 5.89-2.64 7.988-3.682 7.008-3.139 13.576-4.36 6.565-1.082 6.039-.312 4.474.278 5.207 1.008 3.227 1.08 3.798 1.825 3.448 2.037 3.55 2.056 3.377 1.732 3.414 1.551 2.81 1.188 3.682 1.6 2.803 1.314 3.687 1.865 2.866 1.533 3.828 2.144 2.991 1.75 3.998 2.426 3.135 1.944 3.988 2.44 3.365 1.969 4.3 2.326 3.882 1.903 4.564 2.003 3.517 1.36 5.117 1.69 4.02 1.08 5.396 1.11 4.232.645 5.334.577 4.439.293 5.579.13 6.061-.148 5.82-.411 5.918-.676 6.383-1 6.072-1.213 6.076-1.537 5.218-1.644 5.744-2.259 4.45-2.139 5.654-2.987 4.243-2.372 5.492-3.167 4.486-2.662 5.423-3.344 4.153-2.674 5.133-3.452 4.509-3.173 5.154-3.808 4.174-3.245 4.793-3.918 5.08-4.378 5.354-4.878 4.057-3.89 4.953-4.969 4.316-4.503 5.235-5.654 5.236-5.873 5.238-6.107 4.957-5.961 9.428-11.662 9.306-11.896 9.916-12.901 9.98-12.942 10.297-13.262 5.716-7.313 4.994-6.327 5.707-7.105 4.647-5.659 5.751-6.799 9.49-10.596 4.816-5.095 5.988-6.108 6.088-5.94 6.648-6.157 5.242-4.623 7.092-5.969 7.796-6.236 6.754-5.13 6.44-4.657 8.058-5.529 7.703-5.01 8.699-5.388 8.193-4.9 7.628-4.546 7.955-4.885 7.327-4.69 7.197-4.757 5.776-3.903 7.06-4.84 6.147-4.25 7.397-5.206 5.977-4.365 7.097-5.427 5.693-4.557 5.971-4.983 4.672-4.059 6.453-5.874 4.45-4.24 6.173-6.132 5.731-5.942 6.033-6.517 5.62-6.345 5.904-6.992 5.485-6.822 9.685-12.97 8.6-12.67 3.947-6.179 4.95-8.058 3.636-6.133 3.525-6.1 4.232-7.437 3.67-6.405 4.492-7.616 3.473-5.695 4.594-7.32 3.83-5.96 4.454-6.779 3.992-5.919 4.396-6.33 4.215-5.886 4.972-6.697L70.61 89.2l5.36-6.523 4.512-5.19 5.73-6.204 4.784-4.894 4.873-4.766 5.336-5.008 6.192-5.57 6.288-5.422 6.382-5.285 4.848-3.886 6.94-5.388 5.773-4.336 6.254-4.554 5.903-4.165 7.69-5.234 5.192-3.415 7.458-4.73 5.776-3.518 7.205-4.223 13.772-7.59 6.069-3.153 8.028-3.996 7.653-3.612 5.804-2.599 6.347-2.699 8.354-3.328 6.879-2.564 7.772-2.726 6.11-2.03 7.12-2.253 5.748-1.747 5.943-1.8 4.265-1.352 4.746-1.633 4.546-1.708 4.428-1.792 3.514-1.517 4.218-1.953 3.586-1.817 4.203-2.366 3.097-1.933 3.685-2.529 3.121-2.344 2.826-2.28 5.82-5.269 2.907-3.036 2.58-2.976 2.98-3.802 1.697-2.325 1.993-2.87 2.281-3.459 2.548-4.102 2.142-3.732 2.434-4.718 1.841-4.037 2.004-5.065 1.225-3.656 1.488-5.291 1.101-4.455 1.248-5.198 1.168-4.637 1.464-5.407 1.302-4.44 1.888-5.903 1.694-4.926 2.106-5.658 2.017-4.905 2.53-5.499 2.425-4.702 3.024-5.243 2.88-4.448 3.805-5.218 4.113-5.033 4.355-4.907 4.283-4.54 4.164-4.193 3.436-3.302 5.035-4.562 4.918-4.088 5.421-4.075 5.3-3.568 6.167-3.672 4.95-2.591 5.076-2.385 5.493-2.369 6.356-2.558 6.075-2.312 6.556-2.368 6.284-2.134 4.794-1.514 6.507-1.846 5.386-1.323 7.168-1.488 6.87-1.17 7.423-1.044 5.77-.676 7.223-.69 7.827-.57 8.003-.447 8.211-.361 7.945-.272 7.121-.184 17.414-.358 9.273-.21 9.359-.24 7.115-.229 8.648-.366 9.045-.51 9.416-.7 6.699-.623 8.646-.984 6.528-.876 7.952-1.221 6.39-1.12 8.259-1.665 8.15-1.902 7.606-1.974 7.106-1.995 7.57-2.298 12.707-4.35 6.075-2.32 7.9-3.24 5.55-2.412 6.907-3.155 5.953-2.86 7.729-3.93 5.408-2.904 7.147-4.042 7.076-4.237 7.408-4.705 5.59-3.74 6.79-4.753 5.03-3.665 7.03-5.344 5.28-4.214 6.372-5.334 6.237-5.476 6.509-5.952 4.54-4.272 6.367-6.133 4.828-4.753 6.257-6.298 5.103-5.262 5.78-6.088 4.67-5 5.732-6.206 5.02-5.459 5.746-6.269 7.169-7.903 3.555-4 5.61-6.499 5.505-6.62 5.411-6.727 5.33-6.828 4.262-5.618 5.537-7.522 3.906-5.461 5.215-7.488 4.244-6.254 5.206-7.903 4.206-6.599 5.14-8.33 4.158-6.933 5.085-8.72 5.362-9.492 7.167-13.202 5.212-10.01 2.72-5.388 3.576-7.283 4.902-10.458 3.873-8.685 4.526-10.635 3.335-8.162 4.162-10.598 3.7-9.88 3.471-9.74 2.82-8.328 2.983-9.305 4.62-15.599 2.1-7.564 3.444-12.96 1.833-7.159 2.38-9.633 1.865-7.902 2.302-10.35 1.727-8.327 1.724-9.157 1.253-7.588 1.233-8.695.77-6.207.862-7.646.614-5.713.756-6.998.627-5.692.784-7.038.83-7.541 1.298-12.121.784-7.553.564-5.54.683-6.843.48-4.924.565-6.024.37-4.585.261-5.116.056-3.915-.08-4.321-.188-3.694-.385-4.395-.572-4.292-.618-3.463-.941-4.124-.94-3.334-1.384-3.933-1.143-2.68-1.86-3.634-1.61-2.633-1.907-2.687-4.656-5.235-5.34-4.452-6.738-3.948-3.377-1.381-7.902-1.919-3.807-.327-2.94-.016-3.886.251-3.01.39-3.757.724-4.016 1.081-3.745 1.337-3.973 1.744-3.272 1.668-3.27 1.87-6.527 4.359-3.731 2.851-3.28 2.687-3.794 3.252-3.142 2.775-4.214 3.825-3.562 3.324-4.454 4.253-4.611 4.487-4.505 4.432-4.678 4.62-5.192 5.106-5.436 5.307-5.691 5.487-6.287 5.97-4.705 4.415-5.973 5.564-9.703 8.998-5.202 4.846-6.953 6.516-5.434 5.105-6.845 6.41-5.668 5.28-8.02 7.423-6.356 5.86-7.39 6.801-6.097 5.607-8.1 7.443-5.797 5.323-7.833 7.197-6.946 6.398-8.026 7.435-13.71 12.87-14.37 13.807-15.687 15.184-15.93 15.626-16.19 16.01-16.985 16.94L696.9-634.94l-16.662 17.25-16.856 17.625-16.865 18.076-16.366 17.8z" stroke-width="28" stroke="#000" fill="none"/><path d="m614.574-547.221-6.41 7.12-5.623 6.274-6.46 7.225-5.684 6.359-6.535 7.304-5.749 6.423-7.018 7.837-5.402 6.013-6.697 7.425-5.448 6.017-5.49 6.048-5.512 6.065-7.23 7.962-5.538 6.124-7.243 8.04-5.562 6.186-7.272 8.096-5.567 6.197-7.23 8.034-5.914 6.56-6.681 7.416-5.338 5.932-6.483 7.217-6.38 7.11-6.28 7.001-5.424 6.048-6.533 7.282-6.5 7.248-6.5 7.229-4.988 5.524-6.574 7.246-5.078 5.572-6.72 7.356-6.385 6.978-6.845 7.484-6.862 7.52-12.289 13.617-11.89 13.41-6.375 7.23-5.928 6.733-4.775 5.425-6.163 7.008-4.208 4.787-5.653 6.432-4.645 5.286-4.569 5.196-4.587 5.213-3.569 4.05-2.611 2.967-3.013 3.453-2.278 2.662-2.602 3.137-2.005 2.52-2.511 3.316-1.98 2.768-2.159 3.243-2 3.322-1.79 3.358-1.548 3.38-1.297 3.393-.864 2.76-.887 3.628-.504 2.803-.444 3.704-.144 2.845.1 3.257.504 3.614.862 3.264.965 2.535 1.529 3.182 1.38 2.562 1.773 3.123 1.87 3.184 1.812 3.09 1.917 3.403 1.683 3.256 1.549 3.496 1.148 3.345.786 3.603.266 2.771-.082 3.413-.399 2.79-.806 3.276-2.746 6.795-5.225 7.11-1.824 1.723-3.219 2.555-6.089 3.919-2.207 1.187-5.782 2.559-3.66 1.27-9.046 2.339-5.467 1.046-4.337.704-5.868.85-5.723.782-5.531.752-4.923.705-6.208.98-5.544.994-6.412 1.324L209.54-66l-4.848 1.317-11.698 3.895-11.995 5.123-11.098 5.616-11.39 6.542-6.222 3.934-5.435 3.623-6.656 4.637-6.745 4.905-6.848 5.168-6.558 5.08-7.118 5.59-7.312 5.757-5.718 4.5-7.18 5.674-7.787 6.192-7.96 6.343-8.13 6.473-7.817 6.201-8.462 6.694-8.024 6.34-7.943 6.272-6.367 5.026-8.179 6.472-7.87 6.24-7.472 5.924-5.413 4.277-6.298 4.94-5.171 4.014-5.5 4.225-4.134 3.154-4.93 3.747-3.413 2.6-3.553 2.748-3.642 2.918-3.393 2.884-3.026 2.782-3.028 3.052-2.67 2.987-2.631 3.318-2.214 3.288-2.023 3.675-1.707 3.858-1.468 4.043-1.121 3.713-.844 3.317-.86 4.213-.545 3.532-.48 4.49-.301 4.95-.145 4.855-.14 5.729-.233 5.67-.475 6.64-.64 5.814-.916 5.995-.987 4.97-1.663 6.525-1.601 4.924-2.398 5.886-2.481 4.976-3.218 5.508-2.862 4.355-3.537 4.907-8.05 9.713-4.562 4.69-4.873 4.363-4.515 3.488-5.427 3.592-6.407 3.525-5.93 2.726-4.943 1.986-5.04 1.812-5.525 1.744-6.433 1.71-5.313 1.147-7.037 1.136-5.427.565-6.683.34-5.423.066-6.66.026-10.361.444-7 .686-5.323.722-6.926 1.157-4.863.936-6.038 1.332-5.57 1.468-6.638 2.136-6.065 2.421-6.17 3.031-5.54 3.246-9.279 6.308-5.227 3.864-5.527 4.319-5.115 4.324-4.636 4.337-4.072 4.29-4.226 5.178-3.287 4.75-3.317 5.64-2.603 5.073-2.722 5.92-2.063 4.897-2.534 6.51-1.794 5.054-2.127 6.717-1.778 6.44-1.603 6.542-1.182 4.95-1.365 5.382-3.727 11.903-2.596 6.365-3.229 6.538-3.695 6.29-3.872 5.712-4.502 5.854-4.6 5.266-3.675 3.783-5.508 5.103-4.079 3.427-6.008 4.639-5.857 4.164-6.345 4.22-5.653 3.529-6.479 3.692-5.022 2.538-6.66 2.868-5.538 1.95-6.363 1.827-5.178 1.24-6.765 1.336-5.568.844-6.359.62-6.312.185-6.225-.303-4.981-.597-6.423-1.195-4.482-1.073-6.665-1.87-4.765-1.517-5.432-1.957-5.678-2.398-5.527-2.736-4.698-2.654-5.595-3.418-4.278-2.622-5.333-3.098-9.229-4.702-4.558-1.963-5.712-2.1-5.821-1.697-5.909-1.313-4.86-.816-6.053-.723-4.603-.349-6.22-.208-5.127.043-6.792.368-6.472.692-6.899 1.12-4.896 1.052-6.52 1.749-5.703 1.823-6.995 2.446-5.875 2.057-6.876 2.306-6.166 1.981-5.855 1.831-5.98 1.854-7.089 2.204-6.33 1.978-8.545 2.687-8.328 2.636-8.598 2.74-5.504 1.765-7.3 2.368-8.614 2.86-9.878 3.412-8.237 2.961-10.096 3.777-7.79 3.028-10.26 4.142-9.722 4.096-9.764 4.312-7.958 3.668-9.829 4.707-8.633 4.275-7.43 3.77-9.32 4.84-10.604 5.649-10.647 5.797-10.043 5.573-8.751 4.96-9.259 5.356-7.918 4.654" stroke-width="12" stroke="#e73323" fill="none"/><path d="m-879.585 575.909-8.279 4.984-9.916 6.02-9.788 5.95-8.872 5.38-6.468 3.92-7.807 4.73-8.51 5.17-8.108 4.956-6.368 3.927-7.013 4.365-6.875 4.317-7.197 4.553-7.203 4.585-9.874 6.27-4.35 2.75-5.258 3.323-5.746 3.64-7.523 4.789-5.276 3.356-6.95 4.4-6.804 4.272-6.869 4.292-6.06 3.795-10.153 6.467-8.928 5.832-8.25 5.48-4.49 3.052-5.817 4.102-3.86 2.87-3.697 2.902-2.873 2.386-3.383 2.993-2.647 2.504-2.568 2.59-3.245 3.547-2.923 3.524-2.931 3.968-2.65 4.164-2.143 4.031-1.931 4.41-1.538 4.26-2.133 7.997-1.158 8.258-.182 4.605.091 3.753.436 4.6.692 3.984 1.164 4.472 1.24 3.554 2.006 4.544 1.822 3.392 2.742 4.316 2.366 3.192 3.645 4.212 3.578 3.465 7.529 5.64 4.968 2.809 4.933 2.28 4.217 1.624 4.983 1.592 4.17 1.08 5.275 1.043 5.734.709 4.09.22 4.455-.03 5.157-.378 4.805-.682 5.805-1.239 4.745-1.351 5.702-2.007 3.327-1.352 5.601-2.565 6.153-3.277 5.052-3.097 4.311-2.964 4.783-3.665 4.62-3.956 4.71-4.511 3.712-3.938 3.802-4.438 3.843-4.973 3.858-5.541 3.697-5.807 3.614-6.058 3.371-5.917 3.491-6.451 3.159-6.197 2.495-5.105 2.87-5.952 3.138-6.366 3.28-6.353 3.882-7.091 3.417-5.865 3.357-5.407 4.051-6.087 3.185-4.49 4.75-6.234 4.423-5.356 4.625-5.239 4.47-4.8 4.943-5.052 5.444-5.286 5.957-5.504 4.313-3.812 6.272-5.275 5.315-4.223 6.24-4.667 5.204-3.647 6.969-4.549 5.46-3.319 6.86-3.893 5.683-3.001 7.585-3.69 5.908-2.632 7.864-3.184 6.131-2.243 8.081-2.658 6.279-1.85 7.815-2.06 8.4-1.937 7.99-1.601 15.684-2.5 5.113-.633 9.768-1.012 8.786-.803 8.293-.824 8.302-.98 8.797-1.282 7.202-1.29 8.159-1.766 6.568-1.653 8.003-2.305 6.42-2.097 8.278-3.014 5.75-2.275 7.548-3.17 7.895-3.464 7.345-3.27 5.89-2.64 7.988-3.682 7.008-3.139 13.576-4.36 6.565-1.082 6.039-.312 4.474.278 5.207 1.008 3.227 1.08 3.798 1.825 3.448 2.037 3.55 2.056 3.377 1.732 3.414 1.551 2.81 1.188 3.682 1.6 2.803 1.314 3.687 1.865 2.866 1.533 3.828 2.144 2.991 1.75 3.998 2.426 3.135 1.944 3.988 2.44 3.365 1.969 4.3 2.326 3.882 1.903 4.564 2.003 3.517 1.36 5.117 1.69 4.02 1.08 5.396 1.11 4.232.645 5.334.577 4.439.293 5.579.13 6.061-.148 5.82-.411 5.918-.676 6.383-1 6.072-1.213 6.076-1.537 5.218-1.644 5.744-2.259 4.45-2.139 5.654-2.987 4.243-2.372 5.492-3.167 4.486-2.662 5.423-3.344 4.153-2.674 5.133-3.452 4.509-3.173 5.154-3.808 4.174-3.245 4.793-3.918 5.08-4.378 5.354-4.878 4.057-3.89 4.953-4.969 4.316-4.503 5.235-5.654 5.236-5.873 5.238-6.107 4.957-5.961 9.428-11.662 9.306-11.896 9.916-12.901 9.98-12.942 10.297-13.262 5.716-7.313 4.994-6.327 5.707-7.105 4.647-5.659 5.751-6.799 9.49-10.596 4.816-5.095 5.988-6.108 6.088-5.94 6.648-6.157 5.242-4.623 7.092-5.969 7.796-6.236 6.754-5.13 6.44-4.657 8.058-5.529 7.703-5.01 8.699-5.388 8.193-4.9 7.628-4.546 7.955-4.885 7.327-4.69 7.197-4.757 5.776-3.903 7.06-4.84 6.147-4.25 7.397-5.206 5.977-4.365 7.097-5.427 5.693-4.557 5.971-4.983 4.672-4.059 6.453-5.874 4.45-4.24 6.173-6.132 5.731-5.942 6.033-6.517 5.62-6.345 5.904-6.992 5.485-6.822 9.685-12.97 8.6-12.67 3.947-6.179 4.95-8.058 3.636-6.133 3.525-6.1 4.232-7.437 3.67-6.405 4.492-7.616 3.473-5.695 4.594-7.32 3.83-5.96 4.454-6.779 3.992-5.919 4.396-6.33 4.215-5.886 4.972-6.697L70.61 89.2l5.36-6.523 4.512-5.19 5.73-6.204 4.784-4.894 4.873-4.766 5.336-5.008 6.192-5.57 6.288-5.422 6.382-5.285 4.848-3.886 6.94-5.388 5.773-4.336 6.254-4.554 5.903-4.165 7.69-5.234 5.192-3.415 7.458-4.73 5.776-3.518 7.205-4.223 13.772-7.59" stroke-width="12" stroke="#4fafdf" fill="none"/><path d="m199.672-12.166 6.57-3.351 7.593-3.706 6.241-2.899 7.28-3.2 6.86-2.837 8.361-3.232 6.37-2.31 8.157-2.792 5.522-1.793 7.323-2.273 5.123-1.543 5.66-1.737 4.36-1.431 4.629-1.66 4.493-1.745 4.109-1.71 3.478-1.545 4.428-2.127 3.532-1.876 4.13-2.44 2.814-1.834 3.858-2.757 2.863-2.227 2.797-2.328 2.717-2.432 3.002-2.946 2.485-2.686 2.89-3.45 2.424-3.172 1.686-2.343 2.637-3.876 2.1-3.263 2.666-4.432 1.942-3.526 2.491-5.078 1.641-3.805 1.897-5.116 1.234-3.998 1.404-5.345 1.006-4.175 1.357-5.568 1.218-4.675 1.526-5.44 1.373-4.481 1.965-5.94 1.63-4.594 2.324-5.996 2.107-4.864 2.64-5.441 2.34-4.322 3.333-5.5 2.776-4.073 4.159-5.445 4.22-4.973 4.187-4.598 4.332-4.5 3.366-3.34 4.635-4.372 5.115-4.478 4.996-3.984 5.509-3.956 5.372-3.443 11.268-6.007 4.732-2.133 5.554-2.326 6.39-2.518 6.11-2.282 6.595-2.334 6.329-2.09 4.83-1.463 6.973-1.86 5.43-1.236 6.795-1.305 7.35-1.162 13.297-1.587 7.28-.622 7.898-.514 8.084-.408 8.307-.33 8.034-.243 6.686-.153 17.562-.361 9.873-.234 9.347-.263 7.073-.26 8.594-.412 8.982-.567 15.502-1.398 15.097-1.973 14.766-2.559 7.732-1.654 8.122-1.978 7.59-2.033 7.574-2.196 6.143-1.92 6.129-2.06 14.026-5.313 12.958-5.588 6.892-3.217 6.393-3.147 7.246-3.776 5.388-2.959 7.563-4.378 7.035-4.319 6.934-4.506 5.56-3.791 6.752-4.811 5.421-4.023 6.973-5.421 5.23-4.27 5.922-5.062 6.193-5.524 6.472-5.993 4.895-4.656 6.345-6.175 4.807-4.78 6.23-6.34 4.717-4.913 5.766-6.116 5.02-5.407 5.732-6.223 4.663-5.077 5.748-6.285 10.687-11.966 5.57-6.545 5.808-7.082 5.374-6.77 9.531-12.54 9.441-13.161 4.894-7.11 4.24-6.32 5.195-7.993 4.194-6.673 5.45-8.949 4.144-7.004 5.07-8.81 5.03-9.018 6.518-12.132 4.89-9.465 7.429-15.167 8.617-19.229 7.718-18.801 4.065-10.556 3.605-9.83 2.748-7.855 3.327-10.019 2.362-7.526 2.243-7.501 4.714-16.866 2.954-11.229 2.274-8.974 1.922-7.877 2.393-10.331 1.72-7.903 2.017-9.981 1.425-7.875 1.416-9.045.88-6.508.95-7.935.682-6.213.754-7.016.619-5.683.775-7.012.788-7.065.824-7.57.624-5.84.663-6.293.589-5.714.72-7.115.507-5.129.61-6.307.439-4.824.388-5.407.156-4.09.013-4.41-.109-3.752-.283-4.451-.46-4.352-.652-4.253-.688-3.43-1.029-4.092-1.028-3.297-1.4-3.645-1.32-2.852-1.851-3.343-1.819-2.765-1.995-2.611-2.003-2.286-2.824-2.774-2.484-2.092-2.998-2.164-2.553-1.565-3.478-1.75-3.61-1.394-8.607-1.802-3.146-.173-3.404.064-3.211.27-3.957.6-3.774.844-3.77 1.143-3.972 1.55-3.974 1.874-3.27 1.768-3.034 1.825-3.03 2.003-3.496 2.532-3.268 2.562-3.761 3.136-3.1 2.683-4.14 3.69-3.503 3.212-4.369 4.113-4.516 4.35-4.404 4.308-4.86 4.793-4.76 4.696-5.292 5.191-5.54 5.384-5.79 5.549-4.95 4.68-6.219 5.82-4.907 4.561-4.64 4.3-6.329 5.88-4.848 4.528-7.014 6.583-5.487 5.15-7.337 6.856-5.724 5.317-8.085 7.468-5.954 5.484-7.435 6.84-6.61 6.077-7.673 7.047-5.833 5.356-8.397 7.722-6.455 5.96-8.564 7.954-5.077 4.756-8.16 7.742-6.665 6.404-8.274 7.992-6.793 6.57-8.43 8.192-7.426 7.277-9.08 8.965-7.015 6.935-9.25 9.156-7.67 7.638-8.798 8.857-7.714 7.869-9.396 9.686-7.23 7.486-9.516 9.871-7.306 7.625-9.561 10.1-7.307 7.825-8.994 9.736-7.89 8.586-9.082 9.875-7.991 8.692" stroke-width="12" stroke="#f7d347" fill="none"/></svg>