<?xml version="1.0" standalone="no"?>
<svg xmlns:xlink="http://www.w3.org/1999/xlink" id="s2" class="track" xmlns="http://www.w3.org/2000/svg" preserveAspectRatio="xMinYMid meet" height="800px" width="600px" viewBox="-1200 -700 3000 3000">
            <path d="M 614.5738 -547.2215 L 608.1649 -540.1011 L 602.5407 -533.8274 L 596.0806 -526.6025 L 590.3969 -520.2433 L 583.8623 -512.9394 L 578.1132 -506.5156 L 571.0951 -498.6793 L 565.6931 -492.6657 L 558.9962 -485.2413 L 553.5478 -479.2238 L 548.0586 -473.1759 L 542.5456 -467.1114 L 535.3156 -459.149 L 529.7776 -453.025 L 522.535 -444.985 L 516.9734 -438.799 L 509.7014 -430.7032 L 504.1339 -424.5063 L 496.9032 -416.4724 L 490.99 -409.912 L 484.3088 -402.4963 L 478.971 -396.5637 L 472.4878 -389.3468 L 466.1087 -382.2378 L 459.8277 -375.2356 L 454.4036 -369.1882 L 447.8712 -361.9059 L 441.3702 -354.6584 L 434.8707 -347.4291 L 429.8832 -341.9053 L 423.3091 -334.659 L 418.2312 -329.0865 L 411.5117 -321.7309 L 405.1264 -314.7527 L 398.281 -307.2689 L 391.4188 -299.7492 L 379.13 -286.1319 L 367.2399 -272.7223 L 360.8655 -265.4914 L 354.9365 -258.7586 L 350.1623 -253.3339 L 343.9989 -246.3263 L 339.7907 -241.539 L 334.1384 -235.1073 L 329.4927 -229.8215 L 324.9242 -224.6254 L 320.337 -219.4125 L 316.7684 -215.3622 L 314.1568 -212.3947 L 311.1442 -208.9422 L 308.8664 -206.2801 L 306.2637 -203.1434 L 304.2586 -200.6236 L 301.7477 -197.3072 L 299.7684 -194.5388 L 297.6094 -191.296 L 295.609 -187.9741 L 293.8197 -184.6164 L 292.2708 -181.2369 L 290.9742 -177.8431 L 290.1099 -175.0823 L 289.2232 -171.4551 L 288.7191 -168.6522 L 288.2747 -164.9483 L 288.1307 -162.1034 L 288.2314 -158.8465 L 288.7345 -155.2323 L 289.5969 -151.9678 L 290.562 -149.4326 L 292.0907 -146.2508 L 293.4717 -143.6894 L 295.2437 -140.5662 L 297.1144 -137.382 L 298.9262 -134.2928 L 300.8433 -130.8893 L 302.526 -127.6332 L 304.0746 -124.1374 L 305.2228 -120.7922 L 306.0091 -117.1888 L 306.2749 -114.4178 L 306.1931 -111.0052 L 305.7942 -108.2148 L 304.9879 -104.9394 L 302.2421 -98.1443 L 297.0172 -91.0347 L 295.1927 -89.3112 L 291.9744 -86.7556 L 285.8853 -82.837 L 283.6782 -81.6497 L 277.8959 -79.0912 L 274.2368 -77.8208 L 265.1903 -75.4822 L 259.723 -74.4364 L 255.3861 -73.7323 L 249.5175 -72.8812 L 243.7951 -72.1005 L 238.2638 -71.3478 L 233.341 -70.6434 L 227.1331 -69.6625 L 221.5891 -68.6686 L 215.1772 -67.3453 L 209.5386 -65.9994 L 204.6907 -64.6817 L 192.9928 -60.7871 L 180.9979 -55.6637 L 169.9003 -50.0478 L 158.5105 -43.5064 L 152.2878 -39.572 L 146.8532 -35.9491 L 140.1974 -31.3115 L 133.4525 -26.4065 L 126.6044 -21.2393 L 120.0464 -16.1596 L 112.9277 -10.5686 L 105.6159 -4.8123 L 99.8978 -.3119 L 92.718 5.3618 L 84.9309 11.5539 L 76.9715 17.8974 L 68.8404 24.3703 L 61.0242 30.571 L 52.5621 37.2653 L 44.5383 43.6051 L 36.5949 49.8765 L 30.2282 54.9033 L 22.0491 61.3753 L 14.1798 67.6152 L 6.7069 73.5389 L 1.2944 77.8162 L -5.0036 82.7565 L -10.1751 86.77 L -15.6742 90.9948 L -19.8095 94.1494 L -24.7395 97.8958 L -28.1516 100.4953 L -31.7054 103.2437 L -35.3466 106.1618 L -38.7403 109.0459 L -41.7663 111.8283 L -44.794 114.8797 L -47.4646 117.8673 L -50.0951 121.185 L -52.3088 124.4732 L -54.3317 128.1475 L -56.0392 132.0059 L -57.5072 136.0493 L -58.6281 139.7617 L -59.4721 143.0789 L -60.3322 147.292 L -60.8773 150.8243 L -61.3564 155.3136 L -61.658 160.2641 L -61.8033 165.119 L -61.9431 170.8477 L -62.1756 176.518 L -62.6511 183.1583 L -63.2918 188.9723 L -64.2074 194.9674 L -65.1936 199.9361 L -66.857 206.462 L -68.458 211.3862 L -70.8561 217.2721 L -73.3374 222.2484 L -76.5549 227.7557 L -79.417 232.1106 L -82.9536 237.0181 L -91.0033 246.7307 L -95.5657 251.4211 L -100.4395 255.7841 L -104.9536 259.272 L -110.3811 262.8642 L -116.7879 266.3891 L -122.7181 269.1145 L -127.6613 271.1015 L -132.7019 272.9132 L -138.2264 274.657 L -144.6594 276.3673 L -149.9722 277.5144 L -157.0094 278.65 L -162.4359 279.2153 L -169.1191 279.5554 L -174.5417 279.6209 L -181.2021 279.6465 L -191.563 280.0913 L -198.5623 280.777 L -203.8858 281.4993 L -210.8121 282.6562 L -215.675 283.5924 L -221.7134 284.9237 L -227.2823 286.3916 L -233.9211 288.528 L -239.9857 290.949 L -246.1564 293.9801 L -251.6955 297.2263 L -260.9747 303.5343 L -266.2024 307.3977 L -271.7293 311.717 L -276.8445 316.0406 L -281.4801 320.3779 L -285.5516 324.6679 L -289.7784 329.8464 L -293.0654 334.596 L -296.3823 340.2355 L -298.9852 345.3094 L -301.7069 351.2291 L -303.7702 356.126 L -306.3043 362.6359 L -308.0976 367.6904 L -310.2248 374.4068 L -312.0031 380.8469 L -313.6062 387.3888 L -314.7882 392.3398 L -316.1534 397.7213 L -319.8799 409.6242 L -322.476 415.9889 L -325.7048 422.527 L -329.3999 428.8168 L -333.2719 434.5287 L -337.7739 440.3828 L -342.3744 445.6493 L -346.0487 449.4324 L -351.5566 454.5354 L -355.6356 457.9616 L -361.6442 462.6006 L -367.5007 466.765 L -373.8457 470.9855 L -379.4993 474.5135 L -385.978 478.2062 L -391.0001 480.7437 L -397.6598 483.6116 L -403.1985 485.5624 L -409.5605 487.3891 L -414.7386 488.6296 L -421.504 489.9647 L -427.0721 490.8088 L -433.4307 491.4299 L -439.7433 491.6137 L -445.9677 491.3112 L -450.949 490.7138 L -457.3724 489.5185 L -461.8543 488.4461 L -468.5185 486.5762 L -473.2842 485.0591 L -478.7163 483.1021 L -484.3942 480.704 L -489.9213 477.968 L -494.6194 475.3139 L -500.2141 471.8958 L -504.4922 469.2743 L -509.8248 466.1756 L -519.0537 461.4744 L -523.6124 459.5107 L -529.3244 457.411 L -535.1453 455.7138 L -541.054 454.401 L -545.9133 453.5853 L -551.9665 452.8616 L -556.5702 452.5131 L -562.7898 452.3048 L -567.9174 452.3483 L -574.7092 452.7162 L -581.181 453.4082 L -588.08 454.5283 L -592.9756 455.5802 L -599.4956 457.329 L -605.1989 459.1518 L -612.1944 461.5977 L -618.0687 463.6548 L -624.9446 465.9611 L -631.111 467.9422 L -636.9655 469.7732 L -642.9461 471.6274 L -650.035 473.8307 L -656.3647 475.8088 L -664.9105 478.496 L -673.2383 481.1322 L -681.8361 483.8714 L -687.3401 485.6372 L -694.6394 488.0046 L -703.254 490.8656 L -713.1324 494.2772 L -721.3688 497.2381 L -731.4652 501.015 L -739.2542 504.0426 L -749.5152 508.1849 L -759.2371 512.2806 L -769.0008 516.5932 L -776.9591 520.2615 L -786.7879 524.9681 L -795.4212 529.2432 L -802.8513 533.0139 L -812.1703 537.8524 L -822.7746 543.5016 L -833.4224 549.2989 L -843.4653 554.8719 L -852.2163 559.8316 L -861.4748 565.1883 L -869.3933 569.8422 L -879.5848 575.9087 L -887.864 580.8929 L -897.7797 586.9138 L -907.5684 592.8638 L -916.4403 598.2437 L -922.9078 602.1624 L -930.7145 606.8938 L -939.2253 612.0626 L -947.3335 617.0191 L -953.7005 620.946 L -960.7138 625.3113 L -967.5895 629.6283 L -974.7865 634.181 L -981.9886 638.7664 L -991.8634 645.0368 L -996.2133 647.7863 L -1001.4714 651.1091 L -1007.217 654.7499 L -1014.7403 659.5378 L -1020.0156 662.8942 L -1026.9666 667.2932 L -1033.77 671.5658 L -1040.6385 675.8579 L -1046.6987 679.6525 L -1056.8517 686.1201 L -1065.7797 691.9523 L -1074.0309 697.4329 L -1078.5203 700.4836 L -1084.3368 704.5863 L -1088.1966 707.4561 L -1091.8936 710.3581 L -1094.7675 712.7441 L -1098.1497 715.7367 L -1100.7966 718.2411 L -1103.3651 720.8313 L -1106.6105 724.3781 L -1109.533 727.9022 L -1112.4643 731.8701 L -1115.1139 736.0341 L -1117.2566 740.065 L -1119.1883 744.4743 L -1120.7262 748.7344 L -1122.8586 756.7319 L -1124.0165 764.9898 L -1124.1988 769.5952 L -1124.1077 773.3477 L -1123.6724 777.9488 L -1122.9798 781.9316 L -1121.816 786.404 L -1120.5765 789.9583 L -1118.5698 794.5022 L -1116.7477 797.8943 L -1114.0057 802.2103 L -1111.6403 805.4019 L -1107.995 809.6137 L -1104.4168 813.0786 L -1096.8883 818.7191 L -1091.9203 821.5276 L -1086.9868 823.8073 L -1082.77 825.4321 L -1077.7874 827.0236 L -1073.6163 828.1034 L -1068.3416 829.1472 L -1062.6082 829.8557 L -1058.5184 830.0757 L -1054.0634 830.0464 L -1048.9061 829.6677 L -1044.1011 828.9861 L -1038.2959 827.7471 L -1033.5507 826.3959 L -1027.8494 824.3892 L -1024.5217 823.0371 L -1018.9207 820.4717 L -1012.7679 817.1951 L -1007.7162 814.0985 L -1003.4048 811.1343 L -998.6219 807.4692 L -994.0023 803.5135 L -989.2913 799.002 L -985.5801 795.0639 L -981.7781 790.6265 L -977.9351 785.6526 L -974.0774 780.1117 L -970.3798 774.3046 L -966.7658 768.2467 L -963.3946 762.3297 L -959.9035 755.8786 L -956.7454 749.6816 L -954.2505 744.577 L -951.3809 738.6251 L -948.2419 732.259 L -944.9614 725.9059 L -941.0804 718.8149 L -937.6633 712.9504 L -934.3056 707.5426 L -930.255 701.4559 L -927.0698 696.9651 L -922.3204 690.732 L -917.8969 685.3758 L -913.2722 680.1374 L -908.8027 675.3377 L -903.8592 670.2846 L -898.4154 664.9993 L -892.4579 659.4946 L -888.1455 655.6835 L -881.8731 650.4084 L -876.5576 646.185 L -870.3184 641.518 L -865.1144 637.8714 L -858.1453 633.322 L -852.6846 630.003 L -845.8245 626.1099 L -840.1417 623.109 L -832.5566 619.4181 L -826.649 616.7872 L -818.7847 613.6027 L -812.6536 611.36 L -804.5727 608.7024 L -798.294 606.8519 L -790.4794 604.7915 L -782.0782 602.8547 L -774.0891 601.2536 L -758.4055 598.7538 L -753.2922 598.1207 L -743.5239 597.1088 L -734.7376 596.3061 L -726.4448 595.4818 L -718.143 594.5012 L -709.346 593.2199 L -702.1442 591.9293 L -693.985 590.1636 L -687.4172 588.5115 L -679.4141 586.2061 L -672.9941 584.1091 L -664.7158 581.0949 L -658.966 578.82 L -651.4179 575.6495 L -643.523 572.1859 L -636.1777 568.916 L -630.2876 566.2758 L -622.2998 562.5944 L -615.2922 559.4553 L -601.7161 555.0953 L -595.1513 554.0131 L -589.1124 553.7013 L -584.6384 553.9785 L -579.4306 554.9866 L -576.204 556.0667 L -572.4063 557.8924 L -568.9579 559.9286 L -565.4083 561.9852 L -562.0312 563.7171 L -558.6173 565.2681 L -555.8079 566.4565 L -552.125 568.0562 L -549.3216 569.3703 L -545.6351 571.2346 L -542.7693 572.7679 L -538.9411 574.9123 L -535.9499 576.6615 L -531.952 579.0878 L -528.8175 581.0317 L -524.8291 583.4723 L -521.4635 585.441 L -517.1637 587.7674 L -513.282 589.6702 L -508.7184 591.6732 L -505.2011 593.0333 L -500.0845 594.7236 L -496.0632 595.8025 L -490.6678 596.913 L -486.4362 597.5583 L -481.1018 598.1353 L -476.6632 598.4277 L -471.084 598.5588 L -465.0226 598.4102 L -459.2029 597.9988 L -453.2845 597.3226 L -446.9018 596.3238 L -440.8296 595.1101 L -434.7542 593.5726 L -429.5356 591.9294 L -423.7923 589.67 L -419.3427 587.5314 L -413.6881 584.544 L -409.4452 582.172 L -403.9529 579.0054 L -399.4665 576.3433 L -394.0435 572.999 L -389.8909 570.3246 L -384.758 566.8735 L -380.2492 563.7004 L -375.0953 559.8922 L -370.9209 556.6471 L -366.1275 552.7295 L -361.0473 548.3513 L -355.6941 543.4727 L -351.6375 539.5836 L -346.684 534.6141 L -342.3685 530.1109 L -337.1327 524.4568 L -331.8966 518.5838 L -326.6588 512.4766 L -321.7019 506.5159 L -312.2743 494.8544 L -302.968 482.9582 L -293.0525 470.0567 L -283.0714 457.115 L -272.7746 443.8527 L -267.059 436.5398 L -262.0652 430.2134 L -256.3581 423.1077 L -251.7112 417.4493 L -245.9598 410.6501 L -236.4709 400.0539 L -231.6542 394.9591 L -225.6664 388.8511 L -219.5778 382.9103 L -212.9303 376.7536 L -207.6877 372.131 L -200.5956 366.1623 L -192.8001 359.9264 L -186.0463 354.7968 L -179.6061 350.1388 L -171.5484 344.6102 L -163.8451 339.5996 L -155.1464 334.212 L -146.9534 329.3124 L -139.325 324.7658 L -131.3702 319.8815 L -124.043 315.1916 L -116.8463 310.4339 L -111.0701 306.5309 L -104.0107 301.6909 L -97.8629 297.4418 L -90.4656 292.2351 L -84.4894 287.8701 L -77.3922 282.4431 L -71.6987 277.8856 L -65.7279 272.903 L -61.0562 268.8444 L -54.6026 262.9699 L -50.1521 258.7294 L -43.9798 252.5982 L -38.2486 246.6562 L -32.2157 240.1395 L -26.5963 233.7941 L -20.6919 226.8025 L -15.2066 219.9796 L -5.5218 207.0099 L 3.0779 194.3391 L 7.0246 188.1612 L 11.9744 180.1033 L 15.6108 173.9703 L 19.1363 167.8705 L 23.3676 160.4329 L 27.0374 154.0284 L 31.5299 146.4118 L 35.0031 140.7172 L 39.5967 133.3976 L 43.4273 127.4364 L 47.881 120.658 L 51.8728 114.7391 L 56.2689 108.4097 L 60.4843 102.5232 L 65.4558 95.8265 L 70.6112 89.2 L 75.9705 82.6769 L 80.4833 77.4875 L 86.2136 71.2832 L 90.9966 66.3892 L 95.8695 61.6228 L 101.2061 56.6151 L 107.3978 51.0446 L 113.686 45.6226 L 120.0681 40.3377 L 124.9161 36.4521 L 131.8553 31.0643 L 137.6288 26.7278 L 143.8832 22.1736 L 149.7864 18.0086 L 157.4753 12.775 L 162.6681 9.3602 L 170.1258 4.6308 L 175.9024 1.1116 L 183.1074 -3.1108 L 196.8788 -10.7006 L 202.9476 -13.8537 L 210.9763 -17.8499 L 218.629 -21.462 L 224.4334 -24.0609 L 230.78 -26.7597 L 239.134 -30.0884 L 246.0128 -32.6519 L 253.7847 -35.3778 L 259.8955 -37.4088 L 267.0143 -39.6608 L 272.763 -41.4078 L 278.706 -43.2071 L 282.9712 -44.5595 L 287.717 -46.1929 L 292.2631 -47.9009 L 296.6908 -49.6929 L 300.2052 -51.2096 L 304.4228 -53.1631 L 308.0087 -54.9797 L 312.2117 -57.3463 L 315.3086 -59.2791 L 318.9937 -61.8079 L 322.115 -64.1518 L 324.9411 -66.4327 L 330.7602 -71.7008 L 333.6684 -74.7368 L 336.2472 -77.7129 L 339.2284 -81.5147 L 340.9251 -83.8396 L 342.9178 -86.7095 L 345.1995 -90.1685 L 347.7466 -94.2709 L 349.8889 -98.0031 L 352.3234 -102.7213 L 354.1643 -106.7584 L 356.1678 -111.8226 L 357.3927 -115.4792 L 358.8811 -120.7703 L 359.9823 -125.2251 L 361.2304 -130.4225 L 362.3981 -135.0603 L 363.8625 -140.4671 L 365.1645 -144.9065 L 367.0516 -150.8095 L 368.7464 -155.7358 L 370.8516 -161.3941 L 372.869 -166.2991 L 375.3985 -171.7978 L 377.8236 -176.4995 L 380.8481 -181.7433 L 383.7284 -186.1908 L 387.5332 -191.4092 L 391.646 -196.4424 L 396.0009 -201.3487 L 400.2837 -205.8882 L 404.4483 -210.0816 L 407.8843 -213.3844 L 412.9188 -217.9461 L 417.8371 -222.0337 L 423.2582 -226.1091 L 428.5576 -229.6767 L 434.725 -233.3487 L 439.6756 -235.9402 L 444.7506 -238.3254 L 450.2442 -240.6936 L 456.5996 -243.2517 L 462.6755 -245.5642 L 469.2312 -247.9315 L 475.515 -250.0658 L 480.3094 -251.5801 L 486.8159 -253.4257 L 492.2021 -254.7489 L 499.3702 -256.2366 L 506.2391 -257.4078 L 513.6631 -258.4514 L 519.4332 -259.1269 L 526.6557 -259.8164 L 534.4832 -260.3878 L 542.4864 -260.8339 L 550.6973 -261.1953 L 558.642 -261.4673 L 565.7632 -261.6508 L 583.1775 -262.0088 L 592.4504 -262.2186 L 601.8088 -262.4596 L 608.9242 -262.6878 L 617.5717 -263.0543 L 626.6169 -263.5646 L 636.0328 -264.2632 L 642.7317 -264.8869 L 651.3777 -265.8709 L 657.906 -266.7472 L 665.8579 -267.9682 L 672.248 -269.0877 L 680.5068 -270.7533 L 688.6576 -272.655 L 696.263 -274.6285 L 703.3692 -276.6238 L 710.9384 -278.9221 L 723.6464 -283.2712 L 729.721 -285.5919 L 737.621 -288.8313 L 743.1711 -291.2441 L 750.0784 -294.3993 L 756.0313 -297.2591 L 763.7597 -301.1891 L 769.1679 -304.0931 L 776.3153 -308.135 L 783.3911 -312.3718 L 790.7992 -317.0772 L 796.3892 -320.8169 L 803.1798 -325.5697 L 808.2094 -329.2352 L 815.2383 -334.5785 L 820.5194 -338.7928 L 826.8911 -344.1269 L 833.1281 -349.6033 L 839.637 -355.5555 L 844.1766 -359.8266 L 850.5442 -365.9596 L 855.3724 -370.7128 L 861.6289 -377.0115 L 866.7316 -382.2728 L 872.5117 -388.361 L 877.1822 -393.3613 L 882.9141 -399.567 L 887.9337 -405.0259 L 893.6796 -411.295 L 900.8489 -419.1978 L 904.4041 -423.1981 L 910.0142 -429.6968 L 915.5193 -436.3176 L 920.9304 -443.0437 L 926.2606 -449.8722 L 930.5223 -455.4904 L 936.0587 -463.0121 L 939.9646 -468.4731 L 945.1801 -475.9615 L 949.4238 -482.215 L 954.6299 -490.1182 L 958.8355 -496.7167 L 963.976 -505.0475 L 968.1337 -511.9797 L 973.2186 -520.7007 L 978.5815 -530.1917 L 985.7476 -543.3939 L 990.96 -553.4049 L 993.6798 -558.7916 L 997.2563 -566.075 L 1002.1581 -576.5333 L 1006.0314 -585.2184 L 1010.5565 -595.8528 L 1013.892 -604.0146 L 1018.0541 -614.6131 L 1021.7548 -624.4924 L 1025.2253 -634.2324 L 1028.0459 -642.5607 L 1031.0277 -651.8662 L 1035.6473 -667.4648 L 1037.7477 -675.0289 L 1041.1916 -687.9898 L 1043.0252 -695.1478 L 1045.4045 -704.7807 L 1047.2702 -712.683 L 1049.5724 -723.0333 L 1051.2985 -731.3597 L 1053.0229 -740.5174 L 1054.2763 -748.1047 L 1055.5093 -756.8004 L 1056.2795 -763.0073 L 1057.1406 -770.6526 L 1057.755 -776.366 L 1058.5115 -783.3643 L 1059.1382 -789.0561 L 1059.9217 -796.0937 L 1060.7516 -803.6351 L 1062.05 -815.756 L 1062.834 -823.3093 L 1063.3983 -828.8487 L 1064.0806 -835.6925 L 1064.5602 -840.6164 L 1065.1257 -846.6396 L 1065.496 -851.2245 L 1065.7574 -856.3412 L 1065.8129 -860.2559 L 1065.7338 -864.5771 L 1065.5446 -868.271 L 1065.1604 -872.6657 L 1064.5879 -876.9583 L 1063.9698 -880.4211 L 1063.0288 -884.5446 L 1062.0881 -887.8789 L 1060.7045 -891.8118 L 1059.5619 -894.492 L 1057.7026 -898.1259 L 1056.0929 -900.7586 L 1054.1855 -903.4463 L 1049.5292 -908.6809 L 1044.1881 -913.1334 L 1037.4515 -917.0808 L 1034.0743 -918.4623 L 1026.1718 -920.381 L 1022.3646 -920.7079 L 1019.4249 -920.7236 L 1015.5387 -920.4727 L 1012.5284 -920.0821 L 1008.7716 -919.3589 L 1004.7557 -918.2776 L 1001.0106 -916.941 L 997.0376 -915.1971 L 993.7657 -913.5293 L 990.4961 -911.6596 L 983.9688 -907.3002 L 980.2378 -904.4486 L 976.9589 -901.7622 L 973.1638 -898.5099 L 970.0219 -895.7351 L 965.8081 -891.91 L 962.2458 -888.5862 L 957.7919 -884.3334 L 953.1807 -879.8456 L 948.676 -875.4138 L 943.9976 -870.7945 L 938.8055 -865.6875 L 933.3704 -860.3808 L 927.679 -854.8937 L 921.392 -848.9246 L 916.6873 -844.5093 L 910.7142 -838.9449 L 901.0113 -829.9468 L 895.8093 -825.1011 L 888.8557 -818.5849 L 883.4215 -813.4799 L 876.5773 -807.0705 L 870.9088 -801.7895 L 862.8894 -794.3668 L 856.5332 -788.5075 L 849.1433 -781.7057 L 843.0464 -776.0987 L 834.9467 -768.6563 L 829.1493 -763.3332 L 821.3159 -756.1359 L 814.3705 -749.7377 L 806.344 -742.3031 L 792.6332 -729.4324 L 778.2632 -715.626 L 762.5771 -700.4418 L 746.6479 -684.8158 L 730.4561 -668.806 L 713.4724 -651.8651 L 696.8998 -634.9406 L 680.2379 -617.6905 L 663.3816 -600.0659 L 646.5174 -581.9897 L 630.1509 -564.1909 z" stroke-width="28" stroke="black" fill="none" id="Track"/><path d="M 614.5738 -547.2215 L 608.1649 -540.1011 L 602.5407 -533.8274 L 596.0806 -526.6025 L 590.3969 -520.2433 L 583.8623 -512.9394 L 578.1132 -506.5156 L 571.0951 -498.6793 L 565.6931 -492.6657 L 558.9962 -485.2413 L 553.5478 -479.2238 L 548.0586 -473.1759 L 542.5456 -467.1114 L 535.3156 -459.149 L 529.7776 -453.025 L 522.535 -444.985 L 516.9734 -438.799 L 509.7014 -430.7032 L 504.1339 -424.5063 L 496.9032 -416.4724 L 490.99 -409.912 L 484.3088 -402.4963 L 478.971 -396.5637 L 472.4878 -389.3468 L 466.1087 -382.2378 L 459.8277 -375.2356 L 454.4036 -369.1882 L 447.8712 -361.9059 L 441.3702 -354.6584 L 434.8707 -347.4291 L 429.8832 -341.9053 L 423.3091 -334.659 L 418.2312 -329.0865 L 411.5117 -321.7309 L 405.1264 -314.7527 L 398.281 -307.2689 L 391.4188 -299.7492 L 379.13 -286.1319 L 367.2399 -272.7223 L 360.8655 -265.4914 L 354.9365 -258.7586 L 350.1623 -253.3339 L 343.9989 -246.3263 L 339.7907 -241.539 L 334.1384 -235.1073 L 329.4927 -229.8215 L 324.9242 -224.6254 L 320.337 -219.4125 L 316.7684 -215.3622 L 314.1568 -212.3947 L 311.1442 -208.9422 L 308.8664 -206.2801 L 306.2637 -203.1434 L 304.2586 -200.6236 L 301.7477 -197.3072 L 299.7684 -194.5388 L 297.6094 -191.296 L 295.609 -187.9741 L 293.8197 -184.6164 L 292.2708 -181.2369 L 290.9742 -177.8431 L 290.1099 -175.0823 L 289.2232 -171.4551 L 288.7191 -168.6522 L 288.2747 -164.9483 L 288.1307 -162.1034 L 288.2314 -158.8465 L 288.7345 -155.2323 L 289.5969 -151.9678 L 290.562 -149.4326 L 292.0907 -146.2508 L 293.4717 -143.6894 L 295.2437 -140.5662 L 297.1144 -137.382 L 298.9262 -134.2928 L 300.8433 -130.8893 L 302.526 -127.6332 L 304.0746 -124.1374 L 305.2228 -120.7922 L 306.0091 -117.1888 L 306.2749 -114.4178 L 306.1931 -111.0052 L 305.7942 -108.2148 L 304.9879 -104.9394 L 302.2421 -98.1443 L 297.0172 -91.0347 L 295.1927 -89.3112 L 291.9744 -86.7556 L 285.8853 -82.837 L 283.6782 -81.6497 L 277.8959 -79.0912 L 274.2368 -77.8208 L 265.1903 -75.4822 L 259.723 -74.4364 L 255.3861 -73.7323 L 249.5175 -72.8812 L 243.7951 -72.1005 L 238.2638 -71.3478 L 233.341 -70.6434 L 227.1331 -69.6625 L 221.5891 -68.6686 L 215.1772 -67.3453 L 209.5386 -65.9994 L 204.6907 -64.6817 L 192.9928 -60.7871 L 180.9979 -55.6637 L 169.9003 -50.0478 L 158.5105 -43.5064 L 152.2878 -39.572 L 146.8532 -35.9491 L 140.1974 -31.3115 L 133.4525 -26.4065 L 126.6044 -21.2393 L 120.0464 -16.1596 L 112.9277 -10.5686 L 105.6159 -4.8123 L 99.8978 -.3119 L 92.718 5.3618 L 84.9309 11.5539 L 76.9715 17.8974 L 68.8404 24.3703 L 61.0242 30.571 L 52.5621 37.2653 L 44.5383 43.6051 L 36.5949 49.8765 L 30.2282 54.9033 L 22.0491 61.3753 L 14.1798 67.6152 L 6.7069 73.5389 L 1.2944 77.8162 L -5.0036 82.7565 L -10.1751 86.77 L -15.6742 90.9948 L -19.8095 94.1494 L -24.7395 97.8958 L -28.1516 100.4953 L -31.7054 103.2437 L -35.3466 106.1618 L -38.7403 109.0459 L -41.7663 111.8283 L -44.794 114.8797 L -47.4646 117.8673 L -50.0951 121.185 L -52.3088 124.4732 L -54.3317 128.1475 L -56.0392 132.0059 L -57.5072 136.0493 L -58.6281 139.7617 L -59.4721 143.0789 L -60.3322 147.292 L -60.8773 150.8243 L -61.3564 155.3136 L -61.658 160.2641 L -61.8033 165.119 L -61.9431 170.8477 L -62.1756 176.518 L -62.6511 183.1583 L -63.2918 188.9723 L -64.2074 194.9674 L -65.1936 199.9361 L -66.857 206.462 L -68.458 211.3862 L -70.8561 217.2721 L -73.3374 222.2484 L -76.5549 227.7557 L -79.417 232.1106 L -82.9536 237.0181 L -91.0033 246.7307 L -95.5657 251.4211 L -100.4395 255.7841 L -104.9536 259.272 L -110.3811 262.8642 L -116.7879 266.3891 L -122.7181 269.1145 L -127.6613 271.1015 L -132.7019 272.9132 L -138.2264 274.657 L -144.6594 276.3673 L -149.9722 277.5144 L -157.0094 278.65 L -162.4359 279.2153 L -169.1191 279.5554 L -174.5417 279.6209 L -181.2021 279.6465 L -191.563 280.0913 L -198.5623 280.777 L -203.8858 281.4993 L -210.8121 282.6562 L -215.675 283.5924 L -221.7134 284.9237 L -227.2823 286.3916 L -233.9211 288.528 L -239.9857 290.949 L -246.1564 293.9801 L -251.6955 297.2263 L -260.9747 303.5343 L -266.2024 307.3977 L -271.7293 311.717 L -276.8445 316.0406 L -281.4801 320.3779 L -285.5516 324.6679 L -289.7784 329.8464 L -293.0654 334.596 L -296.3823 340.2355 L -298.9852 345.3094 L -301.7069 351.2291 L -303.7702 356.126 L -306.3043 362.6359 L -308.0976 367.6904 L -310.2248 374.4068 L -312.0031 380.8469 L -313.6062 387.3888 L -314.7882 392.3398 L -316.1534 397.7213 L -319.8799 409.6242 L -322.476 415.9889 L -325.7048 422.527 L -329.3999 428.8168 L -333.2719 434.5287 L -337.7739 440.3828 L -342.3744 445.6493 L -346.0487 449.4324 L -351.5566 454.5354 L -355.6356 457.9616 L -361.6442 462.6006 L -367.5007 466.765 L -373.8457 470.9855 L -379.4993 474.5135 L -385.978 478.2062 L -391.0001 480.7437 L -397.6598 483.6116 L -403.1985 485.5624 L -409.5605 487.3891 L -414.7386 488.6296 L -421.504 489.9647 L -427.0721 490.8088 L -433.4307 491.4299 L -439.7433 491.6137 L -445.9677 491.3112 L -450.949 490.7138 L -457.3724 489.5185 L -461.8543 488.4461 L -468.5185 486.5762 L -473.2842 485.0591 L -478.7163 483.1021 L -484.3942 480.704 L -489.9213 477.968 L -494.6194 475.3139 L -500.2141 471.8958 L -504.4922 469.2743 L -509.8248 466.1756 L -519.0537 461.4744 L -523.6124 459.5107 L -529.3244 457.411 L -535.1453 455.7138 L -541.054 454.401 L -545.9133 453.5853 L -551.9665 452.8616 L -556.5702 452.5131 L -562.7898 452.3048 L -567.9174 452.3483 L -574.7092 452.7162 L -581.181 453.4082 L -588.08 454.5283 L -592.9756 455.5802 L -599.4956 457.329 L -605.1989 459.1518 L -612.1944 461.5977 L -618.0687 463.6548 L -624.9446 465.9611 L -631.111 467.9422 L -636.9655 469.7732 L -642.9461 471.6274 L -650.035 473.8307 L -656.3647 475.8088 L -664.9105 478.496 L -673.2383 481.1322 L -681.8361 483.8714 L -687.3401 485.6372 L -694.6394 488.0046 L -703.254 490.8656 L -713.1324 494.2772 L -721.3688 497.2381 L -731.4652 501.015 L -739.2542 504.0426 L -749.5152 508.1849 L -759.2371 512.2806 L -769.0008 516.5932 L -776.9591 520.2615 L -786.7879 524.9681 L -795.4212 529.2432 L -802.8513 533.0139 L -812.1703 537.8524 L -822.7746 543.5016 L -833.4224 549.2989 L -843.4653 554.8719 L -852.2163 559.8316 L -861.4748 565.1883 L -869.3933 569.8422" stroke-width="12" stroke="#e73323" fill="none" id="S1"/><path d="M -879.5848 575.9087 L -887.864 580.8929 L -897.7797 586.9138 L -907.5684 592.8638 L -916.4403 598.2437 L -922.9078 602.1624 L -930.7145 606.8938 L -939.2253 612.0626 L -947.3335 617.0191 L -953.7005 620.946 L -960.7138 625.3113 L -967.5895 629.6283 L -974.7865 634.181 L -981.9886 638.7664 L -991.8634 645.0368 L -996.2133 647.7863 L -1001.4714 651.1091 L -1007.217 654.7499 L -1014.7403 659.5378 L -1020.0156 662.8942 L -1026.9666 667.2932 L -1033.77 671.5658 L -1040.6385 675.8579 L -1046.6987 679.6525 L -1056.8517 686.1201 L -1065.7797 691.9523 L -1074.0309 697.4329 L -1078.5203 700.4836 L -1084.3368 704.5863 L -1088.1966 707.4561 L -1091.8936 710.3581 L -1094.7675 712.7441 L -1098.1497 715.7367 L -1100.7966 718.2411 L -1103.3651 720.8313 L -1106.6105 724.3781 L -1109.533 727.9022 L -1112.4643 731.8701 L -1115.1139 736.0341 L -1117.2566 740.065 L -1119.1883 744.4743 L -1120.7262 748.7344 L -1122.8586 756.7319 L -1124.0165 764.9898 L -1124.1988 769.5952 L -1124.1077 773.3477 L -1123.6724 777.9488 L -1122.9798 781.9316 L -1121.816 786.404 L -1120.5765 789.9583 L -1118.5698 794.5022 L -1116.7477 797.8943 L -1114.0057 802.2103 L -1111.6403 805.4019 L -1107.995 809.6137 L -1104.4168 813.0786 L -1096.8883 818.7191 L -1091.9203 821.5276 L -1086.9868 823.8073 L -1082.77 825.4321 L -1077.7874 827.0236 L -1073.6163 828.1034 L -1068.3416 829.1472 L -1062.6082 829.8557 L -1058.5184 830.0757 L -1054.0634 830.0464 L -1048.9061 829.6677 L -1044.1011 828.9861 L -1038.2959 827.7471 L -1033.5507 826.3959 L -1027.8494 824.3892 L -1024.5217 823.0371 L -1018.9207 820.4717 L -1012.7679 817.1951 L -1007.7162 814.0985 L -1003.4048 811.1343 L -998.6219 807.4692 L -994.0023 803.5135 L -989.2913 799.002 L -985.5801 795.0639 L -981.7781 790.6265 L -977.9351 785.6526 L -974.0774 780.1117 L -970.3798 774.3046 L -966.7658 768.2467 L -963.3946 762.3297 L -959.9035 755.8786 L -956.7454 749.6816 L -954.2505 744.577 L -951.3809 738.6251 L -948.2419 732.259 L -944.9614 725.9059 L -941.0804 718.8149 L -937.6633 712.9504 L -934.3056 707.5426 L -930.255 701.4559 L -927.0698 696.9651 L -922.3204 690.732 L -917.8969 685.3758 L -913.2722 680.1374 L -908.8027 675.3377 L -903.8592 670.2846 L -898.4154 664.9993 L -892.4579 659.4946 L -888.1455 655.6835 L -881.8731 650.4084 L -876.5576 646.185 L -870.3184 641.518 L -865.1144 637.8714 L -858.1453 633.322 L -852.6846 630.003 L -845.8245 626.1099 L -840.1417 623.109 L -832.5566 619.4181 L -826.649 616.7872 L -818.7847 613.6027 L -812.6536 611.36 L -804.5727 608.7024 L -798.294 606.8519 L -790.4794 604.7915 L -782.0782 602.8547 L -774.0891 601.2536 L -758.4055 598.7538 L -753.2922 598.1207 L -743.5239 597.1088 L -734.7376 596.3061 L -726.4448 595.4818 L -718.143 594.5012 L -709.346 593.2199 L -702.1442 591.9293 L -693.985 590.1636 L -687.4172 588.5115 L -679.4141 586.2061 L -672.9941 584.1091 L -664.7158 581.0949 L -658.966 578.82 L -651.4179 575.6495 L -643.523 572.1859 L -636.1777 568.916 L -630.2876 566.2758 L -622.2998 562.5944 L -615.2922 559.4553 L -601.7161 555.0953 L -595.1513 554.0131 L -589.1124 553.7013 L -584.6384 553.9785 L -579.4306 554.9866 L -576.204 556.0667 L -572.4063 557.8924 L -568.9579 559.9286 L -565.4083 561.9852 L -562.0312 563.7171 L -558.6173 565.2681 L -555.8079 566.4565 L -552.125 568.0562 L -549.3216 569.3703 L -545.6351 571.2346 L -542.7693 572.7679 L -538.9411 574.9123 L -535.9499 576.6615 L -531.952 579.0878 L -528.8175 581.0317 L -524.8291 583.4723 L -521.4635 585.441 L -517.1637 587.7674 L -513.282 589.6702 L -508.7184 591.6732 L -505.2011 593.0333 L -500.0845 594.7236 L -496.0632 595.8025 L -490.6678 596.913 L -486.4362 597.5583 L -481.1018 598.1353 L -476.6632 598.4277 L -471.084 598.5588 L -465.0226 598.4102 L -459.2029 597.9988 L -453.2845 597.3226 L -446.9018 596.3238 L -440.8296 595.1101 L -434.7542 593.5726 L -429.5356 591.9294 L -423.7923 589.67 L -419.3427 587.5314 L -413.6881 584.544 L -409.4452 582.172 L -403.9529 579.0054 L -399.4665 576.3433 L -394.0435 572.999 L -389.8909 570.3246 L -384.758 566.8735 L -380.2492 563.7004 L -375.0953 559.8922 L -370.9209 556.6471 L -366.1275 552.7295 L -361.0473 548.3513 L -355.6941 543.4727 L -351.6375 539.5836 L -346.684 534.6141 L -342.3685 530.1109 L -337.1327 524.4568 L -331.8966 518.5838 L -326.6588 512.4766 L -321.7019 506.5159 L -312.2743 494.8544 L -302.968 482.9582 L -293.0525 470.0567 L -283.0714 457.115 L -272.7746 443.8527 L -267.059 436.5398 L -262.0652 430.2134 L -256.3581 423.1077 L -251.7112 417.4493 L -245.9598 410.6501 L -236.4709 400.0539 L -231.6542 394.9591 L -225.6664 388.8511 L -219.5778 382.9103 L -212.9303 376.7536 L -207.6877 372.131 L -200.5956 366.1623 L -192.8001 359.9264 L -186.0463 354.7968 L -179.6061 350.1388 L -171.5484 344.6102 L -163.8451 339.5996 L -155.1464 334.212 L -146.9534 329.3124 L -139.325 324.7658 L -131.3702 319.8815 L -124.043 315.1916 L -116.8463 310.4339 L -111.0701 306.5309 L -104.0107 301.6909 L -97.8629 297.4418 L -90.4656 292.2351 L -84.4894 287.8701 L -77.3922 282.4431 L -71.6987 277.8856 L -65.7279 272.903 L -61.0562 268.8444 L -54.6026 262.9699 L -50.1521 258.7294 L -43.9798 252.5982 L -38.2486 246.6562 L -32.2157 240.1395 L -26.5963 233.7941 L -20.6919 226.8025 L -15.2066 219.9796 L -5.5218 207.0099 L 3.0779 194.3391 L 7.0246 188.1612 L 11.9744 180.1033 L 15.6108 173.9703 L 19.1363 167.8705 L 23.3676 160.4329 L 27.0374 154.0284 L 31.5299 146.4118 L 35.0031 140.7172 L 39.5967 133.3976 L 43.4273 127.4364 L 47.881 120.658 L 51.8728 114.7391 L 56.2689 108.4097 L 60.4843 102.5232 L 65.4558 95.8265 L 70.6112 89.2 L 75.9705 82.6769 L 80.4833 77.4875 L 86.2136 71.2832 L 90.9966 66.3892 L 95.8695 61.6228 L 101.2061 56.6151 L 107.3978 51.0446 L 113.686 45.6226 L 120.0681 40.3377 L 124.9161 36.4521 L 131.8553 31.0643 L 137.6288 26.7278 L 143.8832 22.1736 L 149.7864 18.0086 L 157.4753 12.775 L 162.6681 9.3602 L 170.1258 4.6308 L 175.9024 1.1116 L 183.1074 -3.1108 L 196.8788 -10.7006" stroke-width="12" stroke="#4fafdf" fill="none" id="S2"/><path d="M 199.6715 -12.1658 L 206.2413 -15.5174 L 213.8352 -19.2229 L 220.0761 -22.1216 L 227.3557 -25.3221 L 234.2166 -28.1593 L 242.5771 -31.3905 L 248.9471 -33.701 L 257.1041 -36.4928 L 262.6255 -38.2858 L 269.9487 -40.559 L 275.0722 -42.1018 L 280.7315 -43.8386 L 285.0916 -45.27 L 289.7207 -46.9292 L 294.2144 -48.6749 L 298.3226 -50.3859 L 301.801 -51.9301 L 306.2288 -54.057 L 309.7612 -55.9327 L 313.8914 -58.3736 L 316.705 -60.2071 L 320.5633 -62.9637 L 323.4262 -65.1912 L 326.2227 -67.5185 L 328.9396 -69.9507 L 331.9424 -72.897 L 334.4269 -75.5827 L 337.317 -79.0334 L 339.7413 -82.2055 L 341.4271 -84.5483 L 344.0638 -88.4245 L 346.164 -91.6868 L 348.83 -96.1193 L 350.7716 -99.645 L 353.2632 -104.7233 L 354.9042 -108.5281 L 356.8012 -113.6439 L 358.035 -117.6416 L 359.4391 -122.9865 L 360.4447 -127.1617 L 361.8022 -132.7302 L 363.0196 -137.4054 L 364.5456 -142.8442 L 365.9186 -147.3261 L 367.884 -153.2668 L 369.5132 -157.8596 L 371.838 -163.8557 L 373.9448 -168.7198 L 376.5853 -174.1611 L 378.9259 -178.4831 L 382.2582 -183.9825 L 385.0337 -188.0558 L 389.1927 -193.5006 L 393.4124 -198.4742 L 397.5999 -203.0724 L 401.9325 -207.5729 L 405.2985 -210.9123 L 409.9333 -215.2839 L 415.048 -219.7622 L 420.0442 -223.7463 L 425.5529 -227.7025 L 430.925 -231.1454 L 442.1926 -237.1519 L 446.9254 -239.2846 L 452.4786 -241.6114 L 458.8684 -244.129 L 464.9782 -246.4107 L 471.574 -248.7449 L 477.9029 -250.8341 L 482.7332 -252.2985 L 489.7057 -254.1587 L 495.1361 -255.3937 L 501.9313 -256.6992 L 509.2805 -257.8607 L 522.5776 -259.4481 L 529.8578 -260.0703 L 537.7555 -260.5835 L 545.8403 -260.9919 L 554.1473 -261.3227 L 562.1811 -261.5649 L 568.8666 -261.7182 L 586.4294 -262.0795 L 596.3023 -262.3134 L 605.649 -262.5758 L 612.7217 -262.8352 L 621.3156 -263.2485 L 630.2982 -263.8155 L 645.8004 -265.2128 L 660.8969 -267.186 L 675.6632 -269.7447 L 683.3948 -271.3994 L 691.5168 -273.3765 L 699.1079 -275.4099 L 706.6814 -277.6062 L 712.8237 -279.5257 L 718.9529 -281.5868 L 732.9786 -286.8988 L 745.9372 -292.4872 L 752.829 -295.7036 L 759.2215 -298.8505 L 766.4685 -302.6274 L 771.8556 -305.5855 L 779.4186 -309.9637 L 786.4543 -314.2826 L 793.3878 -318.7889 L 798.9472 -322.5805 L 805.7004 -327.3914 L 811.1212 -331.4144 L 818.0943 -336.835 L 823.3232 -341.1057 L 829.2462 -346.1666 L 835.4389 -351.6907 L 841.9112 -357.6838 L 846.8055 -362.3396 L 853.151 -368.5148 L 857.9576 -373.2957 L 864.1873 -379.6349 L 868.905 -384.5475 L 874.6709 -390.6642 L 879.6908 -396.0711 L 885.4234 -402.2938 L 890.0856 -407.3709 L 895.8338 -413.6555 L 906.5214 -425.6216 L 912.0916 -432.1669 L 917.8985 -439.2493 L 923.2732 -446.0192 L 932.8043 -458.5595 L 942.2452 -471.72 L 947.1391 -478.8304 L 951.3788 -485.1504 L 956.5738 -493.1434 L 960.7676 -499.8155 L 966.2184 -508.765 L 970.3624 -515.7689 L 975.432 -524.5796 L 980.4622 -533.597 L 986.9796 -545.7286 L 991.8707 -555.1945 L 999.2989 -570.3614 L 1007.9164 -589.5897 L 1015.6342 -608.3911 L 1019.6995 -618.9467 L 1023.3039 -628.777 L 1026.0523 -636.6323 L 1029.3785 -646.6505 L 1031.7406 -654.1767 L 1033.9842 -661.6781 L 1038.6975 -678.5439 L 1041.6517 -689.7729 L 1043.9263 -698.7472 L 1045.8479 -706.6238 L 1048.2406 -716.9553 L 1049.9612 -724.8584 L 1051.9784 -734.8394 L 1053.4029 -742.7139 L 1054.8194 -751.7595 L 1055.6986 -758.2674 L 1056.6487 -766.2016 L 1057.3313 -772.4152 L 1058.085 -779.4312 L 1058.7036 -785.1137 L 1059.4792 -792.1257 L 1060.267 -799.1909 L 1061.091 -806.7607 L 1061.7153 -812.6013 L 1062.3781 -818.8942 L 1062.967 -824.608 L 1063.6869 -831.7231 L 1064.1944 -836.8515 L 1064.8046 -843.159 L 1065.243 -847.9831 L 1065.6306 -853.3904 L 1065.787 -857.4798 L 1065.7996 -861.8896 L 1065.6915 -865.6416 L 1065.4079 -870.093 L 1064.9482 -874.4453 L 1064.2964 -878.6979 L 1063.6076 -882.1279 L 1062.579 -886.2201 L 1061.5509 -889.5171 L 1060.1506 -893.1621 L 1058.8304 -896.0138 L 1056.9799 -899.357 L 1055.1612 -902.1216 L 1053.1663 -904.7333 L 1051.163 -907.019 L 1048.3392 -909.793 L 1045.8551 -911.8847 L 1042.8568 -914.0487 L 1040.304 -915.6137 L 1036.8262 -917.3641 L 1033.2153 -918.7577 L 1024.609 -920.5601 L 1021.463 -920.7328 L 1018.059 -920.6694 L 1014.848 -920.3981 L 1010.8913 -919.7995 L 1007.1167 -918.9554 L 1003.3475 -917.8122 L 999.3746 -916.2616 L 995.4013 -914.3882 L 992.1302 -912.6198 L 989.0965 -910.7953 L 986.0667 -908.7915 L 982.5707 -906.2603 L 979.3028 -903.6979 L 975.5418 -900.5623 L 972.4426 -897.8792 L 968.3022 -894.1883 L 964.7993 -890.9766 L 960.4302 -886.8638 L 955.9136 -882.5141 L 951.5096 -878.2056 L 946.6499 -873.4128 L 941.8893 -868.717 L 936.5976 -863.5258 L 931.0576 -858.1417 L 925.2676 -852.5931 L 920.3172 -847.9133 L 914.0993 -842.0932 L 909.192 -837.5316 L 904.5523 -833.2319 L 898.223 -827.3525 L 893.3753 -822.8244 L 886.361 -816.2408 L 880.8735 -811.0901 L 873.537 -804.2349 L 867.8127 -798.9182 L 859.7276 -791.4504 L 853.7736 -785.9664 L 846.3386 -779.1259 L 839.7283 -773.0489 L 832.0565 -766.0022 L 826.223 -760.6461 L 817.8261 -752.9241 L 811.3706 -746.9649 L 802.8072 -739.0099 L 797.7303 -734.2538 L 789.5698 -726.512 L 782.9046 -720.1083 L 774.6315 -712.1155 L 767.8383 -705.5454 L 759.4074 -697.3545 L 751.9819 -690.0771 L 742.9015 -681.1123 L 735.8869 -674.1774 L 726.6366 -665.021 L 718.9676 -657.3831 L 710.1695 -648.5258 L 702.4546 -640.6573 L 693.059 -630.9715 L 685.8283 -623.4849 L 676.3125 -613.6138 L 669.0066 -605.9885 L 659.446 -595.8894 L 652.1395 -588.0641 L 643.1452 -578.3285 L 635.2543 -569.7419 L 626.1732 -559.8673 L 618.1815 -551.1752" stroke-width="12" stroke="#f7d347" fill="none" id="S3"/></svg>