<?xml version="1.0" standalone="no"?>
<svg xmlns:xlink="http://www.w3.org/1999/xlink" id="s2" class="track" xmlns="http://www.w3.org/2000/svg" preserveAspectRatio="xMinYMid meet" height="600px" width="600px" viewBox="-1200 -700 2400 1800">
        <path d="M 874.56 -374.63 L 870.34 -378.85 L 866.04 -383.03 L 861.69 -387.23 L 857.29 -391.48 L 852.82 -395.79 L 848.29 -400.14 L 843.66 -404.52 L 838.92 -408.91 L 834.08 -413.31 L 829.15 -417.73 L 824.45 -421.88 L 819.37 -426.33 L 814.22 -430.82 L 809.02 -435.36 L 803.76 -439.95 L 798.43 -444.62 L 793.06 -449.33 L 787.65 -454.07 L 782.21 -458.85 L 776.74 -463.67 L 771.25 -468.51 L 765.73 -473.4 L 760.19 -478.31 L 754.65 -483.24 L 749.08 -488.2 L 743.52 -493.15 L 737.97 -498.13 L 732.46 -503.15 L 726.99 -508.18 L 721.67 -513.06 L 716.73 -517.59 L 712.21 -521.71 L 708.09 -525.43 L 704.33 -528.82 L 700.7 -532.07 L 697.1 -535.24 L 693.51 -538.3 L 689.93 -541.24 L 686.32 -544.05 L 682.68 -546.73 L 678.98 -549.26 L 675.23 -551.64 L 671.42 -553.86 L 667.61 -555.88 L 663.98 -557.6 L 660.44 -559.05 L 656.91 -560.27 L 653.41 -561.25 L 649.94 -561.97 L 646.51 -562.44 L 643.14 -562.67 L 639.8 -562.66 L 636.44 -562.42 L 633.05 -561.94 L 629.65 -561.22 L 626.26 -560.24 L 622.91 -559.01 L 619.59 -557.55 L 616.31 -555.85 L 613.12 -553.91 L 610.03 -551.76 L 607.08 -549.4 L 604.3 -546.84 L 601.74 -544.11 L 599.42 -541.22 L 597.32 -538.16 L 595.45 -534.95 L 593.83 -531.59 L 592.46 -528.1 L 591.34 -524.49 L 590.48 -520.79 L 589.87 -517.01 L 589.48 -513.17 L 589.32 -509.26 L 589.36 -505.3 L 589.62 -501.3 L 590.11 -497.28 L 590.85 -493.25 L 591.87 -489.26 L 594 -483.31 L 595.72 -479.54 L 597.67 -475.88 L 599.82 -472.29 L 602.15 -468.76 L 604.65 -465.22 L 607.3 -461.64 L 610.07 -457.98 L 612.97 -454.25 L 616.01 -450.45 L 619.22 -446.59 L 622.59 -442.69 L 626.09 -438.78 L 629.63 -434.97 L 633.14 -431.32 L 636.6 -427.81 L 639.96 -424.37 L 643.22 -420.91 L 646.37 -417.4 L 649.4 -413.79 L 652.29 -410.06 L 655.02 -406.22 L 657.58 -402.25 L 659.96 -398.16 L 662.16 -393.97 L 664.17 -389.66 L 665.98 -385.23 L 667.58 -380.69 L 668.93 -376.05 L 670.06 -371.32 L 670.96 -366.51 L 671.63 -361.63 L 672.07 -356.7 L 672.29 -351.71 L 672.27 -346.67 L 672.02 -341.59 L 671.52 -336.47 L 670.77 -331.33 L 669.75 -326.16 L 668.45 -320.97 L 666.88 -315.77 L 665.01 -310.59 L 662.86 -305.45 L 660.42 -300.37 L 657.7 -295.38 L 654.7 -290.53 L 651.43 -285.89 L 647.95 -281.52 L 644.3 -277.48 L 640.52 -273.75 L 636.63 -270.26 L 632.63 -266.95 L 628.54 -263.75 L 624.35 -260.67 L 620.03 -257.72 L 615.58 -254.94 L 611 -252.34 L 606.28 -249.94 L 601.42 -247.75 L 596.43 -245.81 L 591.32 -244.15 L 586.1 -242.77 L 580.79 -241.69 L 575.39 -240.85 L 569.92 -240.19 L 565.49 -239.73 L 560.24 -239.21 L 554.53 -238.67 L 548.72 -238.17 L 542.79 -237.73 L 536.77 -237.36 L 530.66 -237.06 L 524.46 -236.91 L 518.2 -236.85 L 511.86 -236.82 L 505.44 -236.8 L 498.95 -236.75 L 492.39 -236.69 L 485.74 -236.64 L 479.03 -236.62 L 472.24 -236.63 L 465.38 -236.67 L 458.45 -236.71 L 451.4 -236.75 L 444.25 -236.78 L 436.98 -236.8 L 429.62 -236.81 L 422.15 -236.81 L 414.59 -236.78 L 406.94 -236.71 L 399.22 -236.6 L 391.46 -236.46 L 383.65 -236.29 L 375.8 -236.1 L 367.9 -235.89 L 359.94 -235.68 L 351.94 -235.45 L 343.9 -235.21 L 335.81 -234.97 L 327.67 -234.75 L 319.5 -234.53 L 311.27 -234.32 L 302.99 -234.12 L 294.66 -233.93 L 286.29 -233.75 L 277.87 -233.58 L 269.38 -233.4 L 260.88 -233.21 L 252.33 -233.01 L 243.74 -232.78 L 235.11 -232.53 L 226.44 -232.26 L 217.74 -231.97 L 208.99 -231.66 L 200.22 -231.33 L 191.41 -230.99 L 182.57 -230.65 L 173.71 -230.33 L 164.82 -230.03 L 155.89 -229.75 L 146.94 -229.51 L 137.96 -229.32 L 128.96 -229.16 L 119.92 -229.05 L 110.85 -228.96 L 101.77 -228.9 L 92.64 -228.84 L 83.5 -228.77 L 74.33 -228.66 L 65.13 -228.52 L 55.9 -228.35 L 46.65 -228.18 L 37.38 -228.01 L 29.92 -227.89 L 21.23 -227.76 L 11.9 -227.59 L 2.55 -227.36 L -6.83 -227.04 L -16.22 -226.66 L -25.62 -226.25 L -35.04 -225.83 L -44.47 -225.43 L -53.91 -225.06 L -63.37 -224.72 L -72.84 -224.44 L -82.31 -224.2 L -91.8 -223.97 L -101.27 -223.74 L -110.69 -223.49 L -120 -223.24 L -129.22 -223.01 L -138.31 -222.79 L -147.17 -222.59 L -155.68 -222.41 L -163.8 -222.26 L -171.53 -222.14 L -178.86 -222.05 L -185.8 -221.98 L -192.38 -221.93 L -198.56 -221.9 L -204.4 -221.89 L -209.93 -221.9 L -215.22 -221.94 L -220.26 -222.01 L -225.08 -222.15 L -229.65 -222.4 L -234.02 -222.77 L -238.08 -223.27 L -241.69 -223.87 L -244.92 -224.55 L -247.87 -225.33 L -250.61 -226.2 L -253.12 -227.15 L -255.5 -228.23 L -257.78 -229.43 L -259.96 -230.76 L -262.05 -232.21 L -264.05 -233.78 L -265.96 -235.49 L -267.8 -237.33 L -269.58 -239.34 L -271.29 -241.52 L -272.92 -243.88 L -274.46 -246.44 L -275.88 -249.18 L -277.16 -252.09 L -278.29 -255.16 L -279.25 -258.4 L -280.03 -261.78 L -280.63 -265.29 L -281.06 -268.9 L -281.31 -272.6 L -281.42 -276.38 L -281.42 -280.23 L -281.31 -284.16 L -281.09 -288.14 L -280.8 -292.2 L -280.51 -296.31 L -280.25 -300.48 L -280 -304.75 L -279.74 -309.13 L -279.48 -313.36 L -279.17 -318.1 L -278.84 -323 L -278.47 -328.09 L -278.07 -333.38 L -277.63 -338.85 L -277.16 -344.5 L -276.66 -350.3 L -276.16 -356.26 L -275.69 -362.36 L -275.29 -368.59 L -274.98 -374.94 L -274.78 -381.37 L -274.71 -387.86 L -274.76 -394.37 L -274.98 -400.85 L -275.4 -407.28 L -276.02 -413.61 L -276.84 -419.82 L -277.86 -425.88 L -279.1 -431.82 L -280.51 -437.6 L -282.09 -443.27 L -283.83 -448.83 L -285.74 -454.29 L -287.81 -459.66 L -290.01 -464.95 L -292.33 -470.19 L -294.76 -475.4 L -297.31 -480.6 L -299.97 -485.79 L -302.75 -490.97 L -305.66 -496.14 L -308.7 -501.25 L -311.88 -506.3 L -315.24 -511.25 L -318.8 -516.1 L -322.55 -520.84 L -326.45 -525.49 L -330.52 -530.04 L -334.78 -534.44 L -339.24 -538.71 L -343.87 -542.83 L -348.67 -546.82 L -353.63 -550.69 L -358.76 -554.43 L -364.04 -558.04 L -369.48 -561.55 L -375.04 -564.95 L -380.71 -568.26 L -386.42 -571.44 L -392.11 -574.42 L -397.57 -577.09 L -402.69 -579.4 L -407.47 -581.41 L -411.91 -583.13 L -416.03 -584.62 L -420 -585.92 L -423.93 -587.09 L -427.82 -588.11 L -431.67 -588.94 L -435.48 -589.57 L -439.27 -589.97 L -443.01 -590.11 L -446.68 -589.97 L -450.01 -589.57 L -456.16 -588.1 L -458.73 -587.14 L -461.76 -585.69 L -464.61 -583.97 L -467.32 -582.02 L -469.89 -579.87 L -472.32 -577.52 L -474.61 -574.99 L -476.72 -572.27 L -478.64 -569.38 L -480.39 -566.33 L -482 -563.14 L -483.55 -559.83 L -485.14 -556.47 L -486.87 -553.12 L -488.8 -549.84 L -490.93 -546.73 L -493.27 -543.87 L -495.83 -541.31 L -498.6 -539.07 L -501.58 -537.16 L -504.74 -535.6 L -508.09 -534.36 L -511.58 -533.43 L -515.2 -532.78 L -518.92 -532.4 L -522.72 -532.33 L -526.58 -532.57 L -530.44 -533.16 L -534.27 -534.11 L -538.02 -535.42 L -541.67 -537.08 L -545.22 -539.07 L -548.68 -541.35 L -552.08 -543.87 L -555.44 -546.59 L -558.84 -549.43 L -562.35 -552.27 L -566.05 -555.02 L -569.89 -557.6 L -573.72 -559.86 L -577.36 -561.74 L -580.76 -563.24 L -584.02 -564.44 L -587.21 -565.38 L -590.32 -566.07 L -593.34 -566.51 L -596.31 -566.69 L -599.16 -566.63 L -601.89 -566.33 L -604.52 -565.83 L -607.09 -565.14 L -609.63 -564.24 L -612.15 -563.13 L -614.66 -561.78 L -617.17 -560.2 L -619.67 -558.4 L -622.14 -556.38 L -624.53 -554.15 L -626.8 -551.7 L -628.85 -549.07 L -630.64 -546.3 L -632.14 -543.4 L -633.36 -540.37 L -634.32 -537.2 L -635.06 -533.88 L -635.51 -531.35 L -636.01 -527.75 L -636.43 -523.97 L -636.79 -520.01 L -637.1 -515.86 L -637.34 -511.52 L -637.49 -507.02 L -637.55 -502.29 L -637.56 -497.37 L -637.5 -492.24 L -637.41 -486.89 L -637.34 -481.33 L -637.3 -475.56 L -637.28 -469.61 L -637.26 -463.48 L -637.22 -457.18 L -637.16 -450.72 L -637.13 -444.1 L -637.11 -437.33 L -637.1 -430.41 L -637.06 -423.33 L -637.02 -416.11 L -636.99 -408.76 L -636.96 -401.28 L -636.92 -393.66 L -636.9 -385.91 L -636.91 -378.03 L -636.94 -370.03 L -637 -361.9 L -637.07 -353.69 L -637.16 -345.5 L -637.27 -337.41 L -637.41 -329.45 L -637.58 -321.64 L -637.78 -313.97 L -638.01 -306.45 L -638.26 -299.06 L -638.52 -291.82 L -638.78 -284.71 L -639.05 -277.71 L -639.32 -270.8 L -639.59 -263.95 L -639.88 -257.13 L -640.21 -250.35 L -640.57 -243.62 L -641.02 -236.95 L -641.57 -230.36 L -642.21 -223.85 L -642.93 -217.42 L -643.73 -211.08 L -644.61 -204.81 L -645.6 -198.63 L -646.7 -192.55 L -647.9 -186.55 L -649.23 -180.65 L -650.66 -174.84 L -652.18 -169.09 L -653.8 -163.4 L -655.53 -157.81 L -657.34 -152.31 L -659.2 -146.9 L -661.12 -141.59 L -663.11 -136.41 L -665.17 -131.37 L -667.28 -126.46 L -669.43 -121.66 L -671.63 -116.98 L -673.75 -112.71 L -676.1 -108.23 L -678.56 -103.86 L -681.11 -99.61 L -683.79 -95.47 L -686.6 -91.42 L -689.54 -87.42 L -692.62 -83.5 L -695.83 -79.64 L -699.15 -75.84 L -702.56 -72.1 L -706.06 -68.43 L -709.65 -64.83 L -713.33 -61.29 L -717.12 -57.78 L -721.07 -54.28 L -725.17 -50.77 L -729.42 -47.28 L -733.82 -43.82 L -738.36 -40.42 L -743.03 -37.11 L -747.82 -33.89 L -752.73 -30.78 L -757.75 -27.78 L -762.85 -24.9 L -768.05 -22.14 L -773.32 -19.49 L -778.68 -16.93 L -784.15 -14.41 L -789.75 -11.95 L -795.47 -9.53 L -801.33 -7.17 L -807.34 -4.84 L -813.48 -2.55 L -819.73 -.27 L -826.01 1.99 L -832.19 4.23 L -838.21 6.5 L -844.06 8.8 L -849.75 11.14 L -855.31 13.49 L -860.75 15.85 L -866.08 18.21 L -871.3 20.59 L -876.42 22.98 L -881.46 25.41 L -886.41 27.91 L -891.26 30.53 L -896.02 33.26 L -900.68 36.14 L -905.22 39.16 L -909.66 42.34 L -913.98 45.68 L -918.21 49.18 L -922.34 52.88 L -926.37 56.76 L -930.32 60.84 L -934.2 65.1 L -938.03 69.53 L -941.83 74.13 L -945.58 78.86 L -949.26 83.75 L -952.82 88.83 L -956.26 94.08 L -959.55 99.48 L -962.71 105.03 L -965.73 110.7 L -968.4 116.08 L -971.1 121.89 L -973.57 127.68 L -975.8 133.45 L -977.82 139.19 L -979.63 144.92 L -981.3 150.67 L -982.86 156.5 L -984.34 162.43 L -985.76 168.5 L -987.13 174.71 L -988.46 181.04 L -989.74 187.43 L -990.9 193.47 L -991.89 198.94 L -992.73 203.8 L -993.4 208.06 L -993.96 211.81 L -994.43 215.21 L -994.86 218.41 L -995.23 221.47 L -995.55 224.44 L -995.81 227.25 L -995.98 229.84 L -996.07 232.2 L -996.09 234.38 L -996.05 236.43 L -995.94 238.42 L -995.78 240.36 L -995.56 242.27 L -995.27 244.14 L -994.9 246.02 L -994.45 247.93 L -993.9 249.86 L -993.26 251.81 L -992.51 253.77 L -991.65 255.69 L -990.7 257.52 L -989.65 259.24 L -988.5 260.84 L -987.22 262.38 L -985.8 263.86 L -984.23 265.3 L -982.49 266.69 L -980.59 268.08 L -978.55 269.48 L -976.36 270.94 L -973.97 272.46 L -971.37 274.03 L -968.51 275.61 L -965.39 277.17 L -962.05 278.69 L -958.5 280.23 L -954.78 281.82 L -950.93 283.49 L -946.95 285.25 L -942.84 287.07 L -938.58 288.96 L -934.17 290.95 L -929.66 293.03 L -925.02 295.22 L -920.26 297.51 L -915.38 299.9 L -910.36 302.38 L -905.23 304.96 L -899.96 307.63 L -894.93 310.22 L -889.4 313.08 L -883.73 316.04 L -877.92 319.09 L -871.97 322.23 L -865.9 325.45 L -859.68 328.78 L -853.34 332.19 L -846.87 335.68 L -840.29 339.25 L -833.58 342.87 L -826.76 346.53 L -819.83 350.23 L -812.8 353.98 L -805.66 357.77 L -798.46 361.6 L -791.23 365.47 L -784 369.4 L -776.8 373.37 L -769.6 377.36 L -762.42 381.35 L -755.23 385.33 L -748.04 389.3 L -740.84 393.26 L -733.61 397.21 L -726.32 401.15 L -718.94 405.11 L -711.47 409.08 L -703.92 413.08 L -696.3 417.09 L -688.61 421.12 L -680.91 425.15 L -673.22 429.13 L -665.58 433.03 L -657.97 436.84 L -650.39 440.54 L -642.83 444.12 L -635.31 447.62 L -627.82 451.04 L -620.38 454.38 L -612.94 457.67 L -605.51 460.9 L -598.06 464.09 L -590.61 467.23 L -583.14 470.3 L -575.64 473.3 L -568.12 476.22 L -560.58 479.11 L -553.02 481.98 L -545.4 484.81 L -537.71 487.61 L -529.91 490.39 L -522.03 493.18 L -514.06 495.97 L -506 498.76 L -497.86 501.53 L -489.64 504.28 L -481.32 506.98 L -472.94 509.6 L -464.49 512.16 L -455.99 514.66 L -447.42 517.11 L -438.8 519.5 L -430.14 521.85 L -421.42 524.16 L -412.67 526.44 L -405.63 528.23 L -396.8 530.43 L -388.51 532.44 L -379.59 534.54 L -370.62 536.58 L -361.61 538.57 L -352.57 540.5 L -343.47 542.37 L -334.33 544.19 L -325.16 545.96 L -315.95 547.69 L -306.71 549.38 L -297.42 551.04 L -288.11 552.64 L -278.76 554.21 L -269.38 555.74 L -259.96 557.23 L -250.52 558.67 L -241.04 560.07 L -231.53 561.42 L -221.99 562.73 L -212.42 563.99 L -202.83 565.2 L -193.22 566.33 L -183.59 567.39 L -173.93 568.39 L -164.27 569.33 L -154.58 570.22 L -144.88 571.05 L -135.16 571.8 L -125.43 572.47 L -115.68 573.05 L -105.91 573.54 L -96.13 573.95 L -86.34 574.29 L -76.53 574.57 L -66.71 574.81 L -56.87 575 L -47.01 575.12 L -37.14 575.18 L -27.25 575.2 L -17.33 575.19 L -7.41 575.17 L 2.53 575.13 L 12.48 575.1 L 22.44 575.06 L 32.41 575.02 L 42.4 574.98 L 52.4 574.93 L 62.41 574.88 L 72.44 574.82 L 82.48 574.75 L 92.52 574.69 L 102.58 574.63 L 112.64 574.6 L 122.71 574.59 L 132.79 574.62 L 142.87 574.68 L 152.96 574.79 L 163.05 574.95 L 173.16 575.13 L 183.25 575.34 L 193.35 575.57 L 203.46 575.82 L 213.57 576.09 L 223.68 576.37 L 233.79 576.67 L 243.91 576.99 L 253.34 577.3 L 263.48 577.63 L 273.66 577.94 L 283.92 578.23 L 294.28 578.51 L 304.7 578.77 L 315.23 579.04 L 325.84 579.3 L 336.55 579.57 L 347.35 579.83 L 358.24 580.09 L 369.22 580.36 L 380.28 580.62 L 391.42 580.89 L 402.64 581.16 L 413.92 581.46 L 425.27 581.78 L 436.68 582.12 L 448.14 582.45 L 459.67 582.76 L 471.24 583.09 L 482.86 583.45 L 494.52 583.82 L 506.22 584.2 L 517.96 584.56 L 529.73 584.93 L 541.53 585.3 L 553.36 585.68 L 565.22 586.08 L 577.1 586.49 L 589 586.9 L 600.93 587.31 L 612.86 587.71 L 624.76 588.11 L 636.62 588.5 L 648.34 588.88 L 659.77 589.26 L 670.82 589.62 L 681.5 589.96 L 691.78 590.29 L 701.72 590.6 L 711.51 590.88 L 721.28 591.12 L 731.04 591.32 L 740.83 591.47 L 750.64 591.59 L 760.46 591.71 L 770.09 591.82 L 779.24 591.94 L 787.82 592.05 L 795.82 592.15 L 803.43 592.23 L 810.87 592.26 L 818.15 592.23 L 825.17 592.16 L 831.75 592.06 L 837.8 591.95 L 843.34 591.82 L 848.53 591.62 L 853.47 591.34 L 857.92 590.96 L 861.82 590.51 L 865.5 589.93 L 869.04 589.21 L 872.45 588.32 L 875.69 587.23 L 878.16 586.2 L 883.08 583.46 L 885.69 581.57 L 888.16 579.48 L 890.48 577.18 L 892.64 574.69 L 894.64 571.99 L 896.45 569.09 L 898.05 566 L 899.44 562.71 L 900.63 559.23 L 901.69 555.53 L 902.71 551.64 L 903.78 547.53 L 905.01 543.25 L 906.47 538.82 L 908.19 534.29 L 910.19 529.77 L 912.44 525.39 L 914.95 521.28 L 917.72 517.46 L 920.69 513.94 L 923.78 510.61 L 926.88 507.29 L 929.9 503.85 L 932.81 500.22 L 935.59 496.38 L 938.23 492.35 L 940.71 488.12 L 943.02 483.71 L 945.15 479.12 L 947.09 474.35 L 948.85 469.42 L 950.46 464.34 L 951.95 459.1 L 953.34 453.73 L 954.59 448.21 L 955.65 442.56 L 956.45 436.8 L 956.99 430.93 L 957.27 424.98 L 957.32 418.95 L 957.2 412.84 L 956.97 406.63 L 956.7 400.3 L 956.49 393.83 L 956.39 387.2 L 956.38 380.42 L 956.37 373.44 L 956.35 366.25 L 956.3 358.82 L 956.22 351.16 L 956.11 343.25 L 955.98 335.1 L 955.82 326.74 L 955.63 318.17 L 955.42 309.39 L 955.19 300.41 L 954.96 291.27 L 954.75 282.02 L 954.57 272.71 L 954.41 263.4 L 954.28 254.1 L 954.19 244.82 L 954.11 235.55 L 954.05 226.29 L 953.99 217.05 L 953.92 208.44 L 953.85 201.08 L 953.76 191.9 L 953.65 182.73 L 953.55 173.6 L 953.46 164.48 L 953.41 155.38 L 953.4 146.31 L 953.42 137.27 L 953.45 128.25 L 953.5 119.23 L 953.55 110.27 L 953.59 101.33 L 953.66 92.4 L 953.76 83.5 L 953.89 74.63 L 954.04 65.78 L 954.22 56.95 L 954.4 48.13 L 954.57 39.23 L 954.75 30.19 L 954.93 20.98 L 955.12 11.61 L 955.31 2.11 L 955.5 -7.48 L 955.67 -17.1 L 955.82 -26.6 L 955.93 -36.01 L 956.01 -45.32 L 956.06 -54.55 L 956.11 -63.68 L 956.16 -72.72 L 956.23 -81.67 L 956.31 -90.53 L 956.39 -99.29 L 956.48 -107.97 L 956.57 -116.55 L 956.67 -125.06 L 956.76 -133.47 L 956.82 -141.8 L 956.81 -150.05 L 956.74 -158.2 L 956.57 -166.25 L 956.31 -174.01 L 955.95 -181.47 L 955.53 -188.77 L 955.06 -195.92 L 954.5 -202.9 L 953.84 -209.75 L 953.04 -216.52 L 952.09 -223.22 L 950.98 -229.84 L 949.67 -236.38 L 948.17 -242.83 L 946.46 -249.21 L 944.54 -255.53 L 942.45 -261.79 L 940.21 -268.04 L 937.83 -274.3 L 935.35 -280.57 L 932.75 -286.86 L 930 -293.16 L 927.08 -299.45 L 923.97 -305.71 L 920.68 -311.95 L 917.2 -318.2 L 913.56 -324.41 L 909.99 -330.2 L 905.97 -336.38 L 901.74 -342.52 L 897.31 -348.61 L 892.66 -354.63 L 887.81 -360.58 L 882.76 -366.44 L 877.52 -372.21 z" stroke-width="28" stroke="black" fill="none" id="Track"/><path d="M 874.5582 -374.6263 L 870.3405 -378.8487 L 866.0428 -383.0334 L 861.6923 -387.2298 L 857.288 -391.4783 L 852.8244 -395.7869 L 848.2919 -400.1387 L 843.6566 -404.5221 L 838.9217 -408.9124 L 834.0827 -413.3139 L 829.1467 -417.7287 L 824.4521 -421.8777 L 819.3672 -426.3323 L 814.2202 -430.8218 L 809.0211 -435.3574 L 803.7631 -439.9509 L 798.4299 -444.6168 L 793.0565 -449.325 L 787.647 -454.072 L 782.2086 -458.8528 L 776.7373 -463.67 L 771.2451 -468.5144 L 765.7271 -473.3966 L 760.1931 -478.3097 L 754.6454 -483.2431 L 749.0782 -488.1972 L 743.5196 -493.1514 L 737.9749 -498.134 L 732.4639 -503.1507 L 726.9893 -508.1762 L 721.6691 -513.0636 L 716.7335 -517.5894 L 712.2105 -521.7125 L 708.0889 -525.4327 L 704.3335 -528.816 L 700.6951 -532.069 L 697.0955 -535.2378 L 693.515 -538.2989 L 689.9319 -541.2381 L 686.3247 -544.053 L 682.6751 -546.7301 L 678.9786 -549.2569 L 675.2292 -551.6371 L 671.4235 -553.8615 L 667.6097 -555.882 L 663.9753 -557.5976 L 660.4379 -559.0509 L 656.9134 -560.2717 L 653.4053 -561.2463 L 649.9355 -561.9704 L 646.5114 -562.4428 L 643.1376 -562.671 L 639.7952 -562.6624 L 636.4365 -562.4202 L 633.0451 -561.9411 L 629.6485 -561.2151 L 626.2647 -560.2391 L 622.9091 -559.0135 L 619.587 -557.5471 L 616.3149 -555.8452 L 613.1206 -553.914 L 610.0311 -551.7606 L 607.0751 -549.3961 L 604.2979 -546.8414 L 601.7411 -544.1134 L 599.4161 -541.2206 L 597.3194 -538.1633 L 595.4547 -534.9486 L 593.8304 -531.5902 L 592.457 -528.1011 L 591.342 -524.4937 L 590.4839 -520.7933 L 589.8691 -517.0114 L 589.4841 -513.1654 L 589.3161 -509.2571 L 589.3597 -505.2982 L 589.618 -501.298 L 590.1061 -497.2765 L 590.8505 -493.2481 L 591.8744 -489.2609 L 594.0005 -483.3064 L 595.7183 -479.5417 L 597.6676 -475.8757 L 599.8193 -472.2922 L 602.1536 -468.7572 L 604.6526 -465.2238 L 607.3039 -461.6411 L 610.074 -457.9834 L 612.9681 -454.2501 L 616.0118 -450.4514 L 619.221 -446.5929 L 622.591 -442.6899 L 626.0876 -438.7844 L 629.6275 -434.9741 L 633.1423 -431.3243 L 636.5978 -427.8132 L 639.96 -424.3683 L 643.2173 -420.9148 L 646.3702 -417.3994 L 649.4042 -413.7893 L 652.2937 -410.065 L 655.0203 -406.2178 L 657.5753 -402.2512 L 659.9602 -398.1603 L 662.1589 -393.9661 L 664.1697 -389.6568 L 665.9831 -385.2286 L 667.5757 -380.6905 L 668.933 -376.0494 L 670.059 -371.3187 L 670.9578 -366.5103 L 671.6298 -361.6346 L 672.074 -356.6996 L 672.2897 -351.7089 L 672.2728 -346.6715 L 672.0192 -341.5917 L 671.5218 -336.4738 L 670.7681 -331.3279 L 669.7474 -326.1567 L 668.4534 -320.967 L 666.8774 -315.7729 L 665.0148 -310.5926 L 662.8636 -305.4485 L 660.4248 -300.3665 L 657.701 -295.3758 L 654.6971 -290.5295 L 651.4328 -285.8881 L 647.9512 -281.5208 L 644.3039 -277.4788 L 640.5231 -273.7502 L 636.6284 -270.2634 L 632.6294 -266.9458 L 628.5412 -263.754 L 624.3459 -260.667 L 620.0269 -257.7216 L 615.5799 -254.9431 L 611.0013 -252.3422 L 606.2813 -249.9362 L 601.4161 -247.7476 L 596.431 -245.8127 L 591.3224 -244.1483 L 586.1016 -242.7723 L 580.7856 -241.6885 L 575.389 -240.8517 L 569.9197 -240.1906 L 565.4854 -239.7333 L 560.242 -239.2147 L 554.5328 -238.6688 L 548.7157 -238.1652 L 542.7946 -237.7259 L 536.7742 -237.3583 L 530.6556 -237.0624 L 524.4634 -236.9124 L 518.202 -236.8527 L 511.8607 -236.8215 L 505.4403 -236.7952 L 498.9465 -236.7515 L 492.3854 -236.6915 L 485.7446 -236.6396 L 479.0268 -236.618 L 472.2411 -236.632 L 465.3806 -236.6675 L 458.4495 -236.7099 L 451.4028 -236.749 L 444.2492 -236.7798 L 436.982 -236.8007 L 429.6185 -236.811 L 422.1501 -236.8089 L 414.5892 -236.7801 L 406.9387 -236.7106 L 399.2234 -236.6015 L 391.4626 -236.4601 L 383.6462 -236.2921 L 375.7989 -236.1017 L 367.8962 -235.8943 L 359.9431 -235.6756 L 351.9439 -235.4476 L 343.901 -235.2114 L 335.8123 -234.9747 L 327.6735 -234.7456 L 319.496 -234.5255 L 311.2678 -234.3154 L 302.9898 -234.1158 L 294.6643 -233.9264 L 286.2935 -233.7474 L 277.8712 -233.5763 L 269.3845 -233.4024 L 260.8817 -233.2137 L 252.3349 -233.0053 L 243.7433 -232.7762 L 235.1098 -232.5279 L 226.4426 -232.2609 L 217.7368 -231.973 L 208.9932 -231.6637 L 200.2207 -231.3323 L 191.4114 -230.9869 L 182.5746 -230.6496 L 173.7113 -230.3312 L 164.8183 -230.032 L 155.892 -229.7535 L 146.9409 -229.5116 L 137.9579 -229.3171 L 128.9552 -229.1638 L 119.9195 -229.0468 L 110.8545 -228.9612 L 101.7657 -228.8957 L 92.6438 -228.8403 L 83.4971 -228.7697 L 74.3271 -228.6615 L 65.1268 -228.5175 L 55.9046 -228.3493 L 46.654 -228.1754 L 37.3808 -228.0107 L 29.9212 -227.8885 L 21.2289 -227.7556 L 11.8989 -227.5933 L 2.5467 -227.3618 L -6.8287 -227.0436 L -16.223 -226.6619 L -25.6249 -226.2493 L -35.0422 -225.8324 L -44.4722 -225.431 L -53.9123 -225.058 L -63.3691 -224.7243 L -72.8367 -224.4418 L -82.3136 -224.2012 L -91.7988 -223.9748 L -101.2741 -223.7401 L -110.6864 -223.4925 L -120.0005 -223.244 L -129.2151 -223.0076 L -138.3084 -222.7885 L -147.1652 -222.5896 L -155.6769 -222.4132 L -163.798 -222.2632 L -171.5265 -222.1414 L -178.8557 -222.0467 L -185.799 -221.9766 L -192.3758 -221.9287 L -198.5611 -221.8998 L -204.4044 -221.8888 L -209.9276 -221.8997 L -215.2182 -221.9366 L -220.262 -222.0104 L -225.0803 -222.1498 L -229.6548 -222.3958 L -234.0209 -222.7728 L -238.0769 -223.2736 L -241.6931 -223.8703 L -244.9194 -224.553 L -247.867 -225.3256 L -250.6054 -226.1958 L -253.1176 -227.1534 L -255.5003 -228.2295 L -257.7804 -229.4297 L -259.9629 -230.7559 L -262.0515 -232.2083 L -264.0458 -233.7835 L -265.9567 -235.4879 L -267.7983 -237.3339 L -269.5787 -239.3392 L -271.292 -241.5194 L -272.9241 -243.8841 L -274.4604 -246.4374 L -275.8812 -249.1755 L -277.1646 -252.0872 L -278.2917 -255.1649 L -279.2492 -258.3989 L -280.0309 -261.7791 L -280.6333 -265.2854 L -281.0553 -268.8977 L -281.3101 -272.599 L -281.422 -276.3794 L -281.4193 -280.2334 L -281.3083 -284.1569 L -281.086 -288.1445 L -280.7963 -292.195 L -280.5092 -296.3059 L -280.2459 -300.4837 L -279.9971 -304.7467 L -279.7394 -309.131 L -279.4801 -313.3557 L -279.1739 -318.0954 L -278.8381 -322.998 L -278.4696 -328.0874 L -278.0661 -333.3763 L -277.6277 -338.8513 L -277.1563 -344.4982 L -276.6557 -350.3041 L -276.1552 -356.264 L -275.6896 -362.3631 L -275.2866 -368.5942 L -274.9786 -374.9383 L -274.7826 -381.3724 L -274.7073 -387.8588 L -274.762 -394.3667 L -274.9829 -400.8473 L -275.3985 -407.2759 L -276.0154 -413.6119 L -276.836 -419.8165 L -277.8631 -425.88 L -279.0961 -431.8155 L -280.5104 -437.5994 L -282.0915 -443.2679 L -283.8341 -448.835 L -285.7408 -454.2927 L -287.8083 -459.6577 L -290.0134 -464.9512 L -292.3313 -470.1902 L -294.7612 -475.4003 L -297.3084 -480.5963 L -299.9689 -485.7872 L -302.747 -490.9741 L -305.6559 -496.1387 L -308.6973 -501.2549 L -311.8818 -506.3005 L -315.244 -511.2534 L -318.8016 -516.098 L -322.5467 -520.8398 L -326.4533 -525.4891 L -330.5247 -530.038 L -334.784 -534.4448 L -339.2351 -538.7056 L -343.8682 -542.8286 L -348.6711 -546.822 L -353.6341 -550.6907 L -358.7566 -554.4327 L -364.0418 -558.0441 L -369.4818 -561.5451 L -375.0403 -564.9485 L -380.706 -568.2622 L -386.4236 -571.4435 L -392.1118 -574.4211 L -397.5689 -577.0858 L -402.6945 -579.4045 L -407.4677 -581.406 L -411.9065 -583.1342 L -416.0288 -584.6167 L -420.0042 -585.9224 L -423.9323 -587.0942 L -427.8182 -588.1117 L -431.6669 -588.9442 L -435.4846 -589.5728 L -439.2698 -589.9707 L -443.008 -590.1086 L -446.6762 -589.965 L -450.0128 -589.5694 L -456.1588 -588.0978 L -458.7264 -587.1388 L -461.763 -585.6877 L -464.6148 -583.9714 L -467.317 -582.0242 L -469.8863 -579.8723 L -472.3211 -577.5245 L -474.6111 -574.9918 L -476.7231 -572.2734 L -478.6428 -569.3822 L -480.3872 -566.3323 L -481.9984 -563.1382 L -483.5485 -559.8347 L -485.1413 -556.4749 L -486.8746 -553.1213 L -488.7985 -549.8411 L -490.9264 -546.7305 L -493.2678 -543.8702 L -495.8259 -541.3108 L -498.6001 -539.067 L -501.5769 -537.1599 L -504.7435 -535.5972 L -508.0866 -534.3623 L -511.5783 -533.4291 L -515.1976 -532.7799 L -518.921 -532.4044 L -522.7234 -532.3253 L -526.5756 -532.5723 L -530.4406 -533.1639 L -534.2658 -534.1115 L -538.017 -535.4177 L -541.672 -537.0771 L -545.2236 -539.0678 L -548.6817 -541.3497 L -552.0786 -543.8705 L -555.4446 -546.5873 L -558.8367 -549.4281 L -562.351 -552.2733 L -566.0511 -555.0236 L -569.8938 -557.5966 L -573.7155 -559.8633 L -577.3556 -561.7391 L -580.7621 -563.2371 L -584.0233 -564.4362 L -587.2117 -565.3827 L -590.3202 -566.0743 L -593.3371 -566.5086 L -596.308 -566.6917 L -599.1561 -566.6266 L -601.8881 -566.3324 L -604.5222 -565.8332 L -607.0933 -565.1365 L -609.6273 -564.2391 L -612.1472 -563.1261 L -614.6631 -561.7781 L -617.1715 -560.1972 L -619.6732 -558.3976 L -622.1378 -556.3828 L -624.5331 -554.1452 L -626.7979 -551.696 L -628.8548 -549.0675 L -630.6396 -546.2993 L -632.1382 -543.402 L -633.357 -540.3722 L -634.3171 -537.1986 L -635.0632 -533.8807 L -635.5084 -531.3525 L -636.0139 -527.7531 L -636.4332 -523.9722 L -636.7941 -520.0092 L -637.1033 -515.8571 L -637.3367 -511.5231 L -637.4852 -507.0162 L -637.5547 -502.2886 L -637.5557 -497.3689 L -637.5003 -492.2396 L -637.4144 -486.8904 L -637.3374 -481.3271 L -637.2967 -475.5626 L -637.2787 -469.6141 L -637.2578 -463.4841 L -637.2153 -457.1809 L -637.1593 -450.7157 L -637.126 -444.0979 L -637.1143 -437.3254 L -637.0952 -430.4121 L -637.0613 -423.3291 L -637.0228 -416.1105 L -636.9894 -408.7581 L -636.9564 -401.2754 L -636.9235 -393.6601 L -636.8986 -385.9135 L -636.9053 -378.0328 L -636.9448 -370.0266 L -637.0031 -361.9021 L -637.0746 -353.6943 L -637.1617 -345.5013 L -637.2727 -337.4145 L -637.413 -329.4548 L -637.5832 -321.6404 L -637.7833 -313.9717 L -638.0137 -306.4461 L -638.2631 -299.0642 L -638.5209 -291.8197 L -638.7823 -284.7092 L -639.046 -277.7135 L -639.3151 -270.7997" stroke-width="12" stroke="#e73323" fill="none" id="S1"/><path d="M -639.4241 -268.0519 L -639.7054 -261.2145 L -640.0081 -254.4148 L -640.3449 -247.6543 L -640.7421 -240.9383 L -641.2322 -234.3015 L -641.8195 -227.7449 L -642.4927 -221.2696 L -643.2402 -214.8752 L -644.069 -208.5555 L -644.9969 -202.3308 L -646.0295 -196.1889 L -647.1658 -190.1359 L -648.4215 -184.1806 L -649.7919 -178.3192 L -651.2561 -172.5297 L -652.8167 -166.8011 L -654.4827 -161.1578 L -656.2475 -155.6051 L -658.0775 -150.1391 L -659.9604 -144.7645 L -661.9077 -139.5043 L -663.9281 -134.3824 L -666.0107 -129.3909 L -668.1345 -124.5257 L -670.3046 -119.7775 L -672.532 -115.141 L -674.6815 -110.9042 L -677.0737 -106.4663 L -679.5642 -102.1422 L -682.1675 -97.9387 L -684.8941 -93.8423 L -687.759 -89.8121 L -690.7597 -85.8447 L -693.8949 -81.9435 L -697.1485 -78.1096 L -700.5031 -74.3375 L -703.9495 -70.6284 L -707.4855 -66.9837 L -711.1124 -63.4047 L -714.8339 -59.8824 L -718.6831 -56.3808 L -722.6869 -52.8774 L -726.8486 -49.376 L -731.1625 -45.8906 L -735.6232 -42.4482 L -740.2151 -39.0828 L -744.9316 -35.8097 L -749.7684 -32.6359 L -754.7228 -29.565 L -759.7787 -26.609 L -764.9215 -23.7788 L -770.1442 -21.0701 L -775.4474 -18.4591 L -780.8526 -15.914 L -786.3743 -13.42 L -792.0167 -10.9775 L -797.7947 -8.5831 L -803.7182 -6.2338 L -809.779 -3.9235 L -815.967 -1.6368 L -822.2413 .6375 L -828.4996 2.8896 L -834.6175 5.1362 L -840.567 7.4145 L -846.3509 9.7323 L -851.9876 12.0762 L -857.4989 14.4322 L -862.8918 16.7931 L -868.1844 19.1662 L -873.3624 21.547 L -878.4503 23.9483 L -883.4478 26.3972 L -888.3592 28.9418 L -893.1799 31.6065 L -897.9014 34.3961 L -902.5129 37.3264 L -907.0101 40.4134 L -911.399 43.6563 L -915.6864 47.059 L -919.8719 50.6376 L -923.962 54.4087 L -927.96 58.3719 L -931.8763 62.5264 L -935.7344 66.8581 L -939.5517 71.3508 L -943.3397 75.9996 L -947.0651 80.7948 L -950.6996 85.7653 L -954.2123 90.9101 L -957.591 96.2235 L -960.8298 101.6872 L -963.934 107.2884 L -966.892 112.9992 L -969.507 118.4032 L -972.1127 124.2094 L -974.4871 129.9896 L -976.634 135.7471 L -978.564 141.4815 L -980.3138 147.218 L -981.933 152.9926 L -983.4591 158.8585 L -984.912 164.8454 L -986.3093 170.9679 L -987.6654 177.2245 L -988.9828 183.6031 L -990.2244 189.9062 L -991.317 195.7285 L -992.246 200.9553 L -993.0143 205.5735 L -993.6381 209.6103 L -994.1567 213.2032 L -994.6092 216.5064 L -995.0143 219.6518 L -995.3677 222.6593 L -995.6637 225.5912 L -995.8831 228.3176 L -996.0214 230.8131 L -996.0848 233.0925 L -996.0793 235.2109 L -996.012 237.2371 L -995.8868 239.204 L -995.704 241.1284 L -995.4554 243.0163 L -995.1339 244.8868 L -994.7319 246.7773 L -994.2419 248.6965 L -993.6587 250.6393 L -992.9768 252.5986 L -992.1825 254.5448 L -991.2813 256.4362 L -990.2897 258.2229 L -989.201 259.8903 L -988.0037 261.4635 L -986.6711 262.9783 L -985.1899 264.4411 L -983.5508 265.8591 L -981.7485 267.2478 L -979.7947 268.6374 L -977.6968 270.0598 L -975.4297 271.5386 L -972.9601 273.0819 L -970.2531 274.6623 L -967.2913 276.2362 L -964.0828 277.7784 L -960.6517 279.3058 L -957.032 280.8584 L -953.2592 282.4794 L -949.3514 284.1875 L -945.3184 285.9744 L -941.1601 287.8122 L -936.8301 289.7431 L -932.3827 291.768 L -927.8157 293.8953 L -923.1259 296.1281 L -918.3199 298.4581 L -913.386 300.884 L -908.3252 303.4031 L -903.1364 306.0181 L -897.8167 308.7326 L -892.7343 311.3532 L -887.1503 314.2546 L -881.4212 317.2501 L -875.5565 320.3354 L -869.5608 323.5076 L -863.4308 326.7706 L -857.1588 330.1304 L -850.7608 333.5793 L -844.2509 337.1018 L -837.6186 340.6903 L -830.8676 344.3288 L -824.0038 348.008 L -817.0317 351.7273 L -809.955 355.4908 L -802.784 359.2968 L -795.5687 363.1369 L -788.3372 367.0327 L -781.1174 370.9827 L -773.9194 374.9648 L -766.7296 378.9569 L -759.5404 382.9447 L -752.351 386.9221 L -745.1604 390.8881 L -737.953 394.8423 L -730.7051 398.786 L -723.3779 402.7365 L -715.9583 406.6992 L -708.4562 410.6778 L -700.879 414.6795 L -693.2288 418.7033 L -685.5311 422.7354 L -677.8301 426.7471 L -670.1612 430.7015 L -662.5325 434.5699 L -654.9338 438.3342 L -647.3632 441.9835 L -639.8222 445.5295 L -632.3151 448.9908 L -624.843 452.3811 L -617.405 455.7018 L -609.9698 458.9691 L -602.532 462.1852 L -595.0838 465.3535 L -587.6254 468.4671 L -580.1454 471.5092 L -572.6384 474.4711 L -565.108 477.3749 L -557.5623 480.257 L -549.9783 483.1171 L -542.3364 485.9321 L -534.6003 488.7223 L -526.7632 491.5095 L -518.8535 494.2952 L -510.8481 497.0862 L -502.7568 499.8682 L -494.5812 502.6345 L -486.3226 505.3656 L -477.9772 508.0349 L -469.5689 510.6321 L -461.0975 513.1686 L -452.5672 515.6478 L -443.9836 518.0704 L -435.3454 520.4436 L -426.6588 522.7754 L -417.9219 525.0748 L -409.1533 527.338 L -402.1053 529.118 L -393.2516 531.2989 L -384.9484 533.2864 L -376.0096 535.363 L -367.0275 537.3842 L -357.9987 539.3493 L -348.9292 541.2562 L -339.8188 543.1049 L -330.6704 544.9023 L -321.4823 546.6578 L -312.2583 548.3733 L -302.9986 550.0489 L -293.7047 551.6837 L -284.3768 553.277 L -275.0113 554.8297 L -265.6183 556.3398 L -256.1876 557.8077 L -246.729 559.2319 L -237.2393 560.6126 L -227.7194 561.9493 L -218.1691 563.2411 L -208.5857 564.482 L -198.9863 565.6578 L -189.3698 566.7627 L -179.7275 567.8002 L -170.0673 568.776 L -160.3915 569.697 L -150.703 570.5632 L -140.9939 571.3617 L -131.2689 572.0782 L -121.5304 572.7106 L -111.7748 573.2563 L -102.0032 573.7152 L -92.2195 574.0927 L -82.4193 574.405 L -72.6046 574.6732 L -62.7751 574.8945 L -52.9315 575.054 L -43.0678 575.1506 L -33.1837 575.1926 L -23.2829 575.1962 L -13.3661 575.1806 L -3.4356 575.154 L 6.5041 575.1203 L 16.4623 575.0818 L 26.4245 575.0434 L 36.4047 575.0029 L 46.3968 574.959 L 56.4034 574.9113 L 66.4197 574.8554 L 76.4485 574.7932 L 86.4916 574.7273 L 96.5417 574.6647 L 106.6002 574.619 L 116.6648 574.5967 L 126.7372 574.5988 L 136.8231 574.6359 L 146.9032 574.7198 L 156.9981 574.8494 L 167.1025 575.0157 L 177.1918 575.2118 L 187.2915 575.4323 L 197.3958 575.6708 L 207.5042 575.9256 L 217.6089 576.198" stroke-width="12" stroke="#4fafdf" fill="none" id="S2"/><path d="M 225.699 576.4298 L 235.8125 576.7368 L 245.2538 577.0381 L 255.3673 577.3681 L 265.5153 577.6919 L 275.7113 577.9991 L 285.987 578.2884 L 296.3525 578.5624 L 306.7984 578.8272 L 317.3384 579.0909 L 327.9708 579.3546 L 338.6988 579.6182 L 349.521 579.8819 L 360.4327 580.1456 L 371.4275 580.4096 L 382.5029 580.6744 L 393.6572 580.9424 L 404.8901 581.2181 L 416.1915 581.5201 L 427.5484 581.8508 L 438.9662 582.1876 L 450.4443 582.5079 L 461.9775 582.8217 L 473.5629 583.1589 L 485.1841 583.5237 L 496.856 583.8972 L 508.569 584.27 L 520.315 584.6381 L 532.0922 585.0061 L 543.8977 585.3755 L 555.7339 585.7584 L 567.5952 586.1596 L 579.4794 586.5706 L 591.3832 586.9822 L 603.3124 587.3893 L 615.2397 587.7906 L 627.1429 588.1868 L 638.9817 588.5768 L 650.6522 588.959 L 662.0066 589.3286 L 672.9897 589.6864 L 683.5892 590.031 L 693.7906 590.3582 L 703.6834 590.6626 L 713.4675 590.9344 L 723.2313 591.1643 L 732.9984 591.3508 L 742.7858 591.4966 L 752.6043 591.6157 L 762.4085 591.7295 L 771.9655 591.8448 L 781.0092 591.9598 L 789.4617 592.0693 L 797.3592 592.1694 L 804.9284 592.2404 L 812.3417 592.2581 L 819.5844 592.2186 L 826.5264 592.1397 L 833.0071 592.0424 L 838.9497 591.9295 L 844.3932 591.7816 L 849.5435 591.5695 L 854.4083 591.2674 L 858.7385 590.8801 L 862.5703 590.3998 L 866.2185 589.7935 L 869.7347 589.0427 L 873.1075 588.1166 L 876.3218 586.9877 L 878.759 585.92 L 881.0685 584.7036 L 883.6161 583.098 L 886.199 581.1688 L 888.6407 579.0334 L 890.9301 576.6962 L 893.0562 574.1633 L 895.0166 571.4246 L 896.7857 568.4885 L 898.3471 565.3578 L 899.6931 562.0325 L 900.8541 558.5026 L 901.8964 554.7698 L 902.9152 550.8314 L 904.0126 546.689 L 905.2877 542.3741 L 906.795 537.9196 L 908.572 533.3769 L 910.6168 528.8755 L 912.9257 524.5461 L 915.4872 520.4885 L 918.2965 516.7369 L 921.3026 513.2679 L 924.4017 509.9541 L 927.4903 506.6158 L 930.4948 503.1421 L 933.3764 499.4651 L 936.1279 495.5914 L 938.7368 491.5201 L 941.1843 487.256 L 943.4598 482.8083 L 945.5533 478.1809 L 947.4575 473.3811 L 949.1857 468.4196 L 950.7666 463.3054 L 952.2372 458.0392 L 953.6057 452.6347 L 954.8225 447.0926 L 955.8267 441.4185 L 956.5753 435.6324 L 957.0692 429.7501 L 957.2989 423.7805 L 957.303 417.7349 L 957.1581 411.6044 L 956.9173 405.3763 L 956.6554 399.018 L 956.4646 392.5177 L 956.3859 385.8567 L 956.3765 379.0394 L 956.3726 372.0231 L 956.3454 364.7833 L 956.2876 357.3099 L 956.1978 349.5915 L 956.0829 341.6379 L 955.9468 333.4494 L 955.7834 325.0427 L 955.5886 316.4279 L 955.37 307.6088 L 955.14 298.5992 L 954.9154 289.4288 L 954.7113 280.1602 L 954.5335 270.8506 L 954.3835 261.5369 L 954.262 252.2456 L 954.1686 242.965 L 954.1006 233.6957 L 954.0415 224.4422 L 953.977 215.2053 L 953.8355 199.2452 L 953.7367 190.0676 L 953.6284 180.9046 L 953.5268 171.7715 L 953.4453 162.6557 L 953.4021 153.5662 L 953.3996 144.5006 L 953.4229 135.4604 L 953.4633 126.4437 L 953.512 117.4339 L 953.5559 108.4754 L 953.6057 99.5405 L 953.6806 90.6198 L 953.7862 81.7273 L 953.9199 72.8554 L 954.0779 64.0082 L 954.251 55.1832 L 954.4318 46.3577 L 954.6098 37.4398 L 954.7856 28.3593 L 954.9661 19.1167 L 955.1561 9.7246 L 955.3484 .1985 L 955.5336 -9.3999 L 955.7021 -19.0066 L 955.8413 -28.493 L 955.9481 -37.8818 L 956.0229 -47.1797 L 956.0719 -56.3836 L 956.1179 -65.4963 L 956.1771 -74.5182 L 956.2468 -83.4473 L 956.3234 -92.2854 L 956.4062 -101.0336 L 956.4944 -109.6916 L 956.5878 -118.2622 L 956.686 -126.746 L 956.7751 -135.1443 L 956.8201 -143.4569 L 956.8054 -151.6833 L 956.7148 -159.8237 L 956.528 -167.8262 L 956.2442 -175.5202 L 955.8726 -182.9439 L 955.4405 -190.216 L 954.9521 -197.3314 L 954.3768 -204.2762 L 953.687 -211.1125 L 952.8599 -217.8697 L 951.8818 -224.5508 L 950.7345 -231.1544 L 949.3901 -237.6777 L 947.8466 -244.1156 L 946.0943 -250.4778 L 944.1408 -256.7881 L 942.0159 -263.0427 L 939.7418 -269.289 L 937.3426 -275.5502 L 934.8377 -281.8283 L 932.2085 -288.1298 L 929.4324 -294.4201 L 926.474 -300.7014 L 923.3264 -306.9598 L 919.9984 -313.1997 L 916.489 -319.4401 L 912.8099 -325.6529 L 909.2053 -331.4363 L 905.1442 -337.6112 L 900.8734 -343.7448 L 896.3964 -349.8174 L 891.7051 -355.8301 L 886.8138 -361.7586 L 881.726 -367.5969 L 876.4517 -373.357" stroke-width="12" stroke="#f7d347" fill="none" id="S3"/></svg>