<?xml version="1.0" standalone="no"?>
<svg xmlns:xlink="http://www.w3.org/1999/xlink" id="s2" class="track" xmlns="http://www.w3.org/2000/svg" preserveAspectRatio="xMinYMid meet" height="600px" width="600px" viewBox="-1200 -700 2400 1800">
        <path d="M -53.71 435.61 L -66.8 435.83 L -79.92 436.06 L -93.06 436.29 L -106.22 436.52 L -119.41 436.76 L -132.61 437.02 L -145.83 437.3 L -159.1 437.61 L -172.45 437.95 L -185.9 438.33 L -199.46 438.74 L -213.13 439.16 L -226.89 439.58 L -240.76 440.01 L -254.71 440.43 L -268.71 440.87 L -282.74 441.3 L -296.75 441.73 L -310.68 442.17 L -324.39 442.6 L -337.76 443.03 L -350.78 443.44 L -363.46 443.83 L -375.78 444.17 L -387.65 444.46 L -398.9 444.68 L -409.53 444.85 L -419.51 444.97 L -428.8 445.05 L -437.46 445.11 L -445.48 445.15 L -452.86 445.22 L -459.79 445.28 L -466.37 445.19 L -472.6 444.84 L -478.41 444.22 L -483.8 443.39 L -488.85 442.39 L -493.66 441.26 L -498.4 439.96 L -503.11 438.46 L -507.78 436.73 L -512.39 434.73 L -516.87 432.44 L -521.21 429.82 L -525.31 426.87 L -529.12 423.59 L -532.44 420.24 L -535.77 416.35 L -538.85 412.16 L -541.66 407.69 L -544.14 402.97 L -546.27 397.99 L -548.01 392.8 L -549.31 387.43 L -550.14 381.9 L -550.5 376.28 L -550.37 370.59 L -549.73 364.89 L -548.59 359.23 L -546.92 353.64 L -544.75 348.15 L -542.08 342.77 L -538.92 337.52 L -535.32 332.42 L -531.26 327.51 L -526.82 322.83 L -522 318.42 L -516.88 314.32 L -511.49 310.56 L -505.86 307.1 L -500.04 303.89 L -494.08 300.86 L -488.01 297.92 L -481.83 295.05 L -475.48 292.28 L -468.93 289.6 L -462.21 286.98 L -455.35 284.32 L -448.41 281.53 L -441.42 278.54 L -434.37 275.35 L -427.3 271.99 L -420.28 268.52 L -413.44 264.96 L -406.87 261.31 L -400.81 257.71 L -395.35 254.17 L -390.29 250.47 L -385.57 246.51 L -381.22 242.25 L -377.27 237.7 L -373.74 232.85 L -370.64 227.74 L -367.97 222.39 L -365.74 216.81 L -363.95 211.03 L -362.61 205.1 L -361.75 199.04 L -361.37 192.9 L -361.49 186.72 L -362.15 180.58 L -363.35 174.5 L -365.07 168.53 L -367.33 162.72 L -370.12 157.11 L -373.4 151.74 L -377.17 146.62 L -381.39 141.79 L -386.02 137.24 L -391 132.94 L -396.27 128.81 L -401.82 124.83 L -407.63 120.99 L -412.45 118 L -418.28 114.64 L -424.77 111.23 L -431.52 108.02 L -438.5 104.99 L -445.67 102.06 L -452.99 99.09 L -460.4 95.93 L -467.88 92.53 L -475.44 88.96 L -483.04 85.27 L -490.54 81.46 L -497.87 77.48 L -505 73.28 L -511.89 68.82 L -518.47 64.05 L -524.69 58.96 L -530.45 53.5 L -535.72 47.71 L -540.54 41.65 L -545.02 35.39 L -549.26 28.99 L -553.33 22.49 L -557.22 15.9 L -560.92 9.2 L -564.41 2.37 L -567.66 -4.61 L -570.66 -11.77 L -573.43 -19.08 L -576.04 -26.54 L -578.56 -34.13 L -581.07 -41.86 L -583.62 -49.69 L -586.29 -57.63 L -589.09 -65.68 L -592.02 -73.82 L -595.05 -82.1 L -598.13 -90.54 L -601.24 -99.15 L -604.38 -107.93 L -607.57 -116.86 L -610.83 -125.94 L -614.17 -135.15 L -617.58 -144.48 L -621.05 -153.89 L -624.57 -163.37 L -628.13 -172.89 L -631.72 -182.44 L -635.3 -191.99 L -638.82 -201.39 L -642.18 -210.42 L -645.32 -218.98 L -648.21 -226.99 L -650.81 -234.44 L -653.14 -241.31 L -655.18 -247.56 L -656.92 -253.25 L -658.44 -258.81 L -659.76 -264.4 L -660.85 -270.08 L -661.7 -275.86 L -662.28 -281.67 L -662.51 -287.46 L -662.33 -293.17 L -661.74 -298.75 L -660.8 -304.22 L -659.57 -309.58 L -656.77 -318.63 L -654.75 -323.67 L -652.4 -328.55 L -649.72 -333.25 L -646.74 -337.78 L -643.46 -342.15 L -639.91 -346.37 L -636.11 -350.44 L -632.04 -354.3 L -627.73 -357.9 L -623.18 -361.21 L -618.39 -364.23 L -613.33 -366.98 L -608.02 -369.53 L -602.44 -371.95 L -596.62 -374.3 L -590.59 -376.64 L -584.37 -378.89 L -578.02 -380.92 L -571.55 -382.62 L -565 -383.94 L -558.4 -384.81 L -551.82 -385.21 L -545.28 -385.15 L -538.81 -384.62 L -532.42 -383.67 L -526.1 -382.28 L -519.92 -380.43 L -513.98 -378.13 L -508.3 -375.37 L -502.88 -372.15 L -497.67 -368.51 L -492.66 -364.49 L -487.88 -360.07 L -483.37 -355.27 L -479.14 -350.09 L -475.2 -344.57 L -471.54 -338.75 L -468.1 -332.63 L -464.82 -326.27 L -461.68 -319.72 L -458.68 -312.97 L -455.84 -306.03 L -453.24 -298.88 L -450.92 -291.54 L -448.83 -284.03 L -446.9 -276.36 L -444.98 -268.56 L -442.95 -260.66 L -440.82 -252.66 L -438.71 -244.53 L -436.68 -236.25 L -434.72 -227.84 L -432.75 -219.33 L -430.73 -210.83 L -428.7 -202.65 L -426.65 -195 L -424.58 -187.95 L -422.38 -181.24 L -420.04 -174.83 L -417.58 -168.85 L -414.97 -163.24 L -412.25 -158.01 L -409.4 -153.17 L -406.37 -148.68 L -403.2 -144.74 L -397.6 -139.48 L -394.43 -137.34 L -391.15 -135.73 L -387.63 -134.56 L -383.88 -133.83 L -379.95 -133.55 L -375.89 -133.67 L -371.73 -134.18 L -367.52 -135.1 L -363.34 -136.48 L -359.31 -138.36 L -355.55 -140.76 L -352.15 -143.63 L -349.19 -146.92 L -346.71 -150.56 L -344.75 -154.49 L -343.21 -158.66 L -341.9 -163.03 L -340.7 -167.64 L -339.54 -172.51 L -338.39 -177.66 L -337.31 -183.11 L -336.33 -188.84 L -335.48 -194.84 L -334.74 -201.08 L -334.14 -207.59 L -333.66 -214.33 L -333.29 -221.33 L -332.98 -228.61 L -332.71 -236.18 L -332.45 -244.12 L -332.22 -252.41 L -332.01 -261.06 L -331.83 -270.04 L -331.69 -279.35 L -331.55 -289 L -331.4 -298.98 L -331.16 -309.27 L -330.81 -319.84 L -330.34 -330.7 L -329.79 -341.71 L -329.16 -352.73 L -328.45 -363.66 L -327.65 -374.25 L -326.73 -384.27 L -325.71 -393.59 L -324.57 -402.35 L -323.35 -410.42 L -322.13 -417.77 L -320.86 -424.39 L -319.47 -430.31 L -317.85 -435.73 L -315.9 -440.89 L -313.59 -445.83 L -310.91 -450.57 L -307.93 -455.13 L -304.71 -459.54 L -301.26 -463.81 L -297.57 -467.86 L -293.6 -471.62 L -289.38 -474.99 L -284.93 -477.94 L -280.29 -480.42 L -275.48 -482.41 L -270.48 -483.94 L -265.62 -485.01 L -261.32 -485.63 L -256.92 -485.95 L -251.34 -485.93 L -245.69 -485.4 L -240.03 -484.36 L -234.43 -482.78 L -228.93 -480.67 L -223.59 -478.01 L -218.45 -474.85 L -213.54 -471.2 L -208.9 -467.09 L -204.59 -462.53 L -200.65 -457.55 L -197.1 -452.2 L -193.93 -446.51 L -191.14 -440.5 L -188.7 -434.23 L -186.52 -427.75 L -184.46 -421.06 L -182.38 -414.21 L -180.2 -407.21 L -177.88 -400.05 L -175.39 -392.7 L -172.73 -385.18 L -169.83 -377.52 L -166.62 -369.77 L -163.06 -362.03 L -159.09 -354.38 L -154.68 -346.85 L -149.83 -339.5 L -144.54 -332.36 L -138.82 -325.43 L -132.72 -318.71 L -126.34 -312.11 L -119.77 -305.56 L -113.13 -298.99 L -106.71 -292.51 L -100.9 -286.41 L -95.57 -280.62 L -90.73 -275.18 L -86.24 -269.85 L -82.11 -264.37 L -78.36 -258.66 L -75.07 -252.71 L -72.25 -246.5 L -69.86 -240.04 L -67.88 -233.33 L -66.29 -226.39 L -65.08 -219.23 L -64.3 -211.86 L -63.95 -204.32 L -64.02 -196.62 L -64.53 -188.8 L -65.45 -180.85 L -66.82 -172.85 L -68.68 -164.89 L -71.03 -157.03 L -73.85 -149.24 L -77.05 -141.47 L -80.45 -133.61 L -83.83 -125.6 L -87.08 -117.38 L -90.11 -109.1 L -92.76 -101.19 L -94.97 -93.83 L -96.73 -86.98 L -98.03 -80.64 L -98.85 -74.8 L -99.17 -69.79 L -98.32 -59.53 L -97.1 -54.65 L -95.41 -49.9 L -93.28 -45.24 L -90.78 -40.62 L -87.93 -36.07 L -84.71 -31.65 L -81.1 -27.45 L -77.11 -23.59 L -72.75 -20.13 L -68.06 -17.15 L -63.09 -14.67 L -57.85 -12.76 L -52.39 -11.35 L -46.73 -10.45 L -40.92 -10.03 L -34.98 -10.05 L -28.93 -10.4 L -22.77 -11.04 L -16.51 -11.96 L -10.14 -13.18 L -3.68 -14.69 L 2.83 -16.51 L 9.39 -18.68 L 15.96 -21.26 L 22.46 -24.31 L 28.91 -27.77 L 35.35 -31.55 L 41.88 -35.59 L 48.58 -39.8 L 55.46 -44.16 L 62.44 -48.74 L 69.46 -53.63 L 76.48 -58.84 L 83.52 -64.35 L 90.55 -70.16 L 97.53 -76.28 L 104.44 -82.73 L 111.28 -89.51 L 118.03 -96.58 L 124.69 -103.96 L 131.28 -111.6 L 137.76 -119.52 L 144.09 -127.72 L 150.3 -136.19 L 156.42 -144.91 L 162.43 -153.88 L 168.3 -163.09 L 174.01 -172.55 L 179.56 -182.24 L 184.93 -192.17 L 190.14 -202.3 L 195.14 -212.66 L 199.89 -223.23 L 204.36 -233.99 L 208.53 -244.95 L 212.49 -256.08 L 216.33 -267.36 L 220.16 -278.78 L 224.01 -290.29 L 227.92 -301.92 L 231.88 -313.64 L 235.88 -325.34 L 239.87 -336.65 L 243.52 -346.62 L 247.33 -356.61 L 251.09 -365.96 L 254.82 -374.69 L 258.54 -382.78 L 262.28 -390.15 L 266.3 -397.07 L 270.71 -403.67 L 275.53 -409.9 L 280.71 -415.77 L 286.19 -421.37 L 291.92 -426.75 L 297.89 -431.94 L 304.12 -436.88 L 310.63 -441.52 L 317.45 -445.77 L 324.55 -449.57 L 331.9 -452.92 L 339.49 -455.86 L 347.3 -458.44 L 355.3 -460.72 L 363.47 -462.68 L 371.81 -464.32 L 380.28 -465.6 L 388.87 -466.46 L 397.48 -466.89 L 406.1 -466.88 L 414.73 -466.41 L 423.35 -465.54 L 431.97 -464.44 L 440.61 -463.22 L 449.22 -461.8 L 457.74 -460.02 L 466.12 -457.76 L 474.23 -454.96 L 482.01 -451.6 L 489.39 -447.71 L 496.31 -443.3 L 502.76 -438.44 L 508.72 -433.14 L 514.19 -427.45 L 519.23 -421.42 L 523.92 -415.08 L 528.42 -408.48 L 532.78 -401.66 L 537.04 -394.62 L 541.22 -387.37 L 545.39 -379.93 L 549.6 -372.34 L 553.9 -364.62 L 558.27 -356.85 L 562.56 -349.23 L 566.55 -341.97 L 570.17 -335.09 L 573.3 -328.58 L 575.95 -322.3 L 578.16 -316.11 L 579.96 -309.84 L 581.33 -303.5 L 582.26 -297.06 L 582.82 -290.53 L 583.03 -283.87 L 582.89 -277.11 L 582.34 -270.28 L 581.34 -263.42 L 579.89 -256.56 L 578.55 -251.55 L 576.81 -246.13 L 575.32 -242.09 L 572.52 -235.41 L 569.33 -228.83 L 565.8 -222.33 L 561.95 -215.9 L 557.82 -209.52 L 553.48 -203.16 L 548.92 -196.82 L 544.07 -190.58 L 538.89 -184.48 L 533.38 -178.53 L 527.54 -172.76 L 521.45 -167.06 L 515.24 -161.27 L 509 -155.27 L 502.78 -149.05 L 496.49 -142.63 L 490.13 -136.04 L 483.7 -129.29 L 477.17 -122.4 L 470.61 -115.45 L 464.17 -108.58 L 458.09 -101.97 L 452.48 -95.7 L 447.37 -89.82 L 442.78 -84.36 L 438.67 -79.27 L 434.81 -74.21 L 431.17 -69.07 L 427.78 -63.82 L 424.64 -58.47 L 421.74 -52.99 L 419.11 -47.36 L 416.78 -41.59 L 414.84 -35.66 L 413.34 -29.59 L 412.27 -23.37 L 411.6 -17.02 L 411.34 -10.57 L 411.48 -4.04 L 412.03 2.54 L 412.99 9.14 L 414.36 15.77 L 416.14 22.4 L 418.31 29.04 L 420.87 35.67 L 423.83 42.27 L 427.22 48.79 L 431.02 55.24 L 435.12 61.68 L 439.41 68.19 L 443.87 74.8 L 448.55 81.51 L 453.52 88.27 L 458.77 95.1 L 464.28 102.03 L 469.97 109.16 L 475.79 116.54 L 481.76 124.2 L 487.91 132.12 L 494.24 140.26 L 500.76 148.64 L 507.48 157.24 L 514.4 166.06 L 521.51 175.08 L 528.81 184.29 L 536.28 193.72 L 543.35 202.71 L 551.02 212.6 L 558.74 222.73 L 566.52 233.08 L 574.27 243.49 L 581.72 253.62 L 588.77 263.32 L 595.35 272.54 L 601.41 281.23 L 607 289.45 L 612.16 297.22 L 616.87 304.52 L 621.08 311.33 L 624.69 317.72 L 627.64 323.78 L 629.87 329.56 L 631.37 335.18 L 632.17 340.64 L 632.32 345.9 L 631.98 350.95 L 631.36 355.88 L 630.59 360.78 L 629.66 365.7 L 628.48 370.62 L 626.96 375.5 L 625.06 380.3 L 622.73 384.97 L 619.97 389.56 L 616.78 394.08 L 613.18 398.51 L 609.17 402.79 L 604.77 406.81 L 600 410.44 L 594.89 413.67 L 589.46 416.48 L 583.75 418.83 L 577.79 420.75 L 571.61 422.3 L 565.23 423.54 L 558.67 424.5 L 551.92 425.22 L 544.98 425.74 L 537.83 426.09 L 530.48 426.3 L 522.91 426.38 L 515.1 426.34 L 507.04 426.23 L 498.71 426.14 L 490.12 426.1 L 481.22 426.14 L 471.97 426.23 L 462.38 426.36 L 452.44 426.5 L 442.2 426.61 L 431.65 426.7 L 420.81 426.78 L 409.66 426.88 L 398.22 427.01 L 386.51 427.16 L 374.52 427.36 L 362.28 427.58 L 349.78 427.81 L 337.04 428.04 L 324.05 428.27 L 310.85 428.49 L 297.44 428.71 L 284.73 428.93 L 270.91 429.2 L 256.9 429.51 L 242.67 429.85 L 228.27 430.17 L 213.67 430.47 L 198.92 430.78 L 183.98 431.12 L 168.86 431.46 L 153.58 431.76 L 138.12 432.05 L 122.54 432.37 L 106.8 432.75 L 90.89 433.15 L 74.85 433.54 L 58.66 433.88 L 42.32 434.19 L 25.85 434.54 L 9.26 434.9 L -7.47 435.25 L -24.33 435.56 L -41.31 435.82 z" stroke-width="28" stroke="black" fill="none" id="Track"/><path d="M -53.7078 435.6054 L -66.8037 435.8334 L -79.9243 436.0601 L -93.063 436.2881 L -106.224 436.5176 L -119.4088 436.7568 L -132.6087 437.0166 L -145.8347 437.3006 L -159.1014 437.6102 L -172.4482 437.9488 L -185.9029 438.3274 L -199.4633 438.7383 L -213.1319 439.1592 L -226.8949 439.5818 L -240.7554 440.0067 L -254.7092 440.4347 L -268.7109 440.8654 L -282.7387 441.2986 L -296.7465 441.7332 L -310.6751 442.1672 L -324.3851 442.5995 L -337.7619 443.0268 L -350.7792 443.4421 L -363.4638 443.8282 L -375.7815 444.1685 L -387.647 444.4558 L -398.9021 444.6825 L -409.5268 444.8522 L -419.5059 444.9719 L -428.8038 445.0516 L -437.4602 445.1053 L -445.4803 445.1498 L -452.8557 445.2197 L -459.7867 445.277 L -466.373 445.1885 L -472.6044 444.8404 L -478.4093 444.2224 L -483.8031 443.386 L -488.8458 442.3936 L -493.6635 441.2601 L -498.3977 439.9612 L -503.1106 438.4606 L -507.7796 436.7331 L -512.3865 434.7317 L -516.8746 432.44 L -521.2092 429.8233 L -525.3085 426.8715 L -529.1199 423.5931 L -532.4432 420.2441 L -535.7704 416.3543 L -538.8473 412.1648 L -541.6567 407.6908 L -544.1416 402.9655 L -546.2716 397.9932 L -548.0128 392.8008 L -549.313 387.4251 L -550.1414 381.9024 L -550.5011 376.2787 L -550.3672 370.5854 L -549.7332 364.89 L -548.5869 359.2293 L -546.9199 353.6397 L -544.7464 348.1488 L -542.0773 342.7672 L -538.9243 337.5174 L -535.3186 332.4238 L -531.2629 327.5149 L -526.816 322.8273 L -522.0015 318.4155 L -516.8821 314.3241 L -511.4904 310.5575 L -505.8639 307.1016 L -500.043 303.8939 L -494.0814 300.8556 L -488.0137 297.9184 L -481.8294 295.0529 L -475.4839 292.2827 L -468.9349 289.6043 L -462.211 286.9801 L -455.3547 284.3234 L -448.4118 281.529 L -441.4166 278.5374 L -434.3747 275.3452 L -427.2952 271.9874 L -420.2836 268.5197 L -413.4445 264.9594 L -406.8662 261.3114 L -400.807 257.7093 L -395.3496 254.1709 L -390.2929 250.4721 L -385.568 246.5084 L -381.216 242.2533 L -377.2679 237.6968 L -373.738 232.8549 L -370.6391 227.7421 L -367.9707 222.3868 L -365.7419 216.8062 L -363.9493 211.0349 L -362.6129 205.1009 L -361.7492 199.044 L -361.3666 192.9004 L -361.4941 186.7241 L -362.151 180.5751 L -363.3473 174.4975 L -365.0718 168.5288 L -367.3293 162.7199 L -370.1174 157.1102 L -373.4038 151.7376 L -377.1728 146.6248 L -381.3912 141.7898 L -386.0188 137.2399 L -390.9994 132.9406 L -396.274 128.8143 L -401.8201 124.8335 L -407.6281 120.9896 L -412.4514 118.0047 L -418.2798 114.6442 L -424.771 111.2268 L -431.5186 108.017 L -438.498 104.9922 L -445.6734 102.0586 L -452.9897 99.0855 L -460.4 95.9282 L -467.8758 92.5342 L -475.4366 88.9578 L -483.0391 85.2651 L -490.5415 81.4554 L -497.8741 77.4775 L -505.0049 73.2787 L -511.8889 68.8241 L -518.4737 64.0539 L -524.6859 58.9608 L -530.4506 53.505 L -535.722 47.7127 L -540.5387 41.6486 L -545.0185 35.3865 L -549.2639 28.992 L -553.331 22.4906 L -557.2188 15.9023 L -560.9172 9.2024 L -564.4056 2.3703 L -567.6587 -4.6143 L -570.6592 -11.768 L -573.4291 -19.0754 L -576.0382 -26.5354 L -578.5614 -34.1321 L -581.0665 -41.8552 L -583.6222 -49.6947 L -586.2882 -57.6313 L -589.0934 -65.6792 L -592.0223 -73.8205 L -595.0498 -82.0983 L -598.1325 -90.5397 L -601.2368 -99.1504 L -604.375 -107.9267 L -607.5681 -116.8599 L -610.8314 -125.9427 L -614.1678 -135.1519 L -617.5762 -144.4818 L -621.0452 -153.8946 L -624.567 -163.3665 L -628.1288 -172.8881 L -631.7172 -182.4449 L -635.3041 -191.9924 L -638.8218 -201.3926 L -642.1788 -210.4178 L -645.3244 -218.9757 L -648.2077 -226.9936 L -650.8104 -234.4393 L -653.1396 -241.3095 L -655.1801 -247.5609 L -656.9217 -253.2517 L -658.4412 -258.8074 L -659.755 -264.4038 L -660.8472 -270.083 L -661.7014 -275.8601 L -662.2762 -281.6727 L -662.507 -287.4615 L -662.3339 -293.1696 L -661.7409 -298.7531 L -660.7956 -304.2155 L -659.5666 -309.5783 L -656.7728 -318.6304 L -654.7472 -323.6739 L -652.3954 -328.5503 L -649.7218 -333.2452 L -646.7404 -337.7765 L -643.4567 -342.1503 L -639.9069 -346.3747 L -636.1057 -350.4401 L -632.0433 -354.2993 L -627.7326 -357.9047 L -623.1775 -361.2111 L -618.386 -364.227 L -613.3347 -366.9769 L -608.0186 -369.5266 L -602.4404 -371.9502 L -596.6153 -374.3027 L -590.5861 -376.6369 L -584.3698 -378.8912 L -578.0164 -380.9213 L -571.5512 -382.6248 L -564.9985 -383.9359 L -558.4012 -384.8076 L -551.8181 -385.2134 L -545.2833 -385.1459 L -538.8108 -384.6248 L -532.4213 -383.6666 L -526.1036 -382.278 L -519.921 -380.4302 L -513.9759 -378.1267 L -508.3003 -375.3677 L -502.8824 -372.1456 L -497.6706 -368.512 L -492.6632 -364.4867 L -487.882 -360.0732 L -483.3664 -355.266 L -479.1395 -350.0891 L -475.2039 -344.5728 L -471.5444 -338.7476 L -468.1009 -332.6296 L -464.8242 -326.2726 L -461.6802 -319.7187 L -458.6758 -312.9691 L -455.8365 -306.033 L -453.2439 -298.8765 L -450.9194 -291.5436 L -448.8284 -284.0328 L -446.9013 -276.3551 L -444.9791 -268.557 L -442.947 -260.6649 L -440.8237 -252.6644 L -438.7077 -244.5316 L -436.6809 -236.2525 L -434.7224 -227.8374 L -432.7494 -219.3287 L -430.7332 -210.832" stroke-width="12" stroke="#e73323" fill="none" id="S1"/><path d="M -430.328 -209.161 L -428.2955 -201.0709 L -426.2413 -193.5426 L -424.1491 -186.5871 L -421.9207 -179.9248 L -419.5591 -173.6003 L -417.0657 -167.6959 L -414.4385 -162.1641 L -411.6912 -157.0136 L -408.8109 -152.2414 L -405.7391 -147.8453 L -402.5529 -144.0267 L -400.1839 -141.6535 L -396.9626 -138.9985 L -393.7909 -136.9841 L -390.4683 -135.4648 L -386.8931 -134.3759 L -383.1045 -133.7367 L -379.1477 -133.5397 L -375.0632 -133.7463 L -370.8913 -134.3297 L -366.6814 -135.3381 L -362.5198 -136.8132 L -358.531 -138.8009 L -354.8384 -141.2969 L -351.521 -144.2507 L -348.6512 -147.6177 L -346.277 -151.3228 L -344.4094 -155.3038 L -342.9368 -159.5148 L -341.658 -163.9347 L -340.4664 -168.5914 L -339.3078 -173.5167 L -338.1702 -178.73 L -337.1067 -184.2349 L -336.1509 -190.0184 L -335.3196 -196.0659 L -334.6108 -202.3659 L -334.0323 -208.9157 L -333.5823 -215.7097 L -333.2246 -222.7647 L -332.9256 -230.0978 L -332.6579 -237.743 L -332.4058 -245.7445 L -332.1738 -254.1289 L -331.9719 -262.8324 L -331.8009 -271.8717 L -331.659 -281.2539 L -331.5271 -290.9703 L -331.3595 -301.0177 L -331.1003 -311.3578 L -330.7213 -321.9875 L -330.2358 -332.8932 L -329.6672 -343.9132 L -329.0229 -354.9276 L -328.2966 -365.8118 L -327.4721 -376.3066 L -326.5345 -386.1879 L -325.492 -395.3879 L -324.3267 -404.0241 L -323.1016 -411.9497 L -321.8832 -419.153 L -320.5911 -425.6301 L -319.1671 -431.4246 L -317.4922 -436.7805 L -315.472 -441.8987 L -313.0808 -446.7965 L -310.3393 -451.4966 L -307.3055 -456.0195 L -304.0403 -460.4024 L -300.544 -464.6381 L -296.7959 -468.6422 L -292.7745 -472.3259 L -288.507 -475.6164 L -284.0195 -478.4758 L -279.3455 -480.8567 L -274.498 -482.7522 L -269.4528 -484.1999 L -255.8119 -485.9856 L -250.2125 -485.864 L -244.5528 -485.2352 L -238.9018 -484.0864 L -233.32 -482.3989 L -227.8474 -480.178 L -222.5452 -477.4201 L -217.4442 -474.1619 L -212.588 -470.4171 L -208.0141 -466.2091 L -203.775 -461.5654 L -199.9135 -456.5134 L -196.438 -451.091 L -193.3441 -445.3298 L -190.6184 -439.2688 L -188.2443 -432.9526 L -186.1026 -426.4292 L -184.0471 -419.7055 L -181.958 -412.8268 L -179.7484 -405.7963 L -177.392 -398.5965 L -174.8758 -391.2125 L -172.1699 -383.6612 L -169.2155 -375.9765 L -165.9415 -368.2209 L -162.2987 -360.4889 L -158.2398 -352.8637 L -153.7432 -345.3692 L -148.8081 -338.0536 L -143.4259 -330.9543 L -137.6314 -324.069 L -131.4616 -317.3861 L -125.036 -310.8016 L -118.4434 -304.2521 L -111.8092 -297.6758 L -105.4903 -291.2587 L -99.8036 -285.2322 L -94.5677 -279.5067 L -89.8064 -274.1177 L -85.3825 -268.7697 L -81.323 -263.2479 L -77.6688 -257.491 L -74.4728 -251.4866 L -71.7389 -245.2271 L -69.4363 -238.7149 L -67.5299 -231.9612 L -66.0182 -224.9768 L -64.8913 -217.7716 L -64.2 -210.3684 L -63.928 -202.7935 L -64.0917 -195.0688 L -64.6756 -187.2147 L -65.6829 -179.2548 L -67.1512 -171.2528 L -69.1142 -163.3138 L -71.5622 -155.4639 L -74.4659 -147.6872 L -77.7155 -139.9051 L -81.1298 -132.0266 L -84.4953 -123.9723 L -87.7044 -115.7209 L -90.6722 -107.4802 L -93.2382 -99.6748 L -95.3546 -92.418 L -97.0297 -85.6699 L -98.2375 -79.4355 L -98.9578 -73.7072 L -99.1813 -68.7369 L -98.9146 -63.5554 L -98.1137 -58.5406 L -96.8032 -53.6916 L -95.014 -48.9664 L -92.8097 -44.3083 L -90.2427 -39.7029 L -87.3167 -35.1784 L -84.0176 -30.7868 L -80.3283 -26.6473 L -76.2634 -22.863 L -71.8392 -19.4985 L -67.0903 -16.6085 L -62.0624 -14.2442 L -56.7741 -12.437 L -51.2695 -11.1237 L -45.5775 -10.3317 L -39.7408 -10.0037 L -33.7803 -10.096 L -27.7073 -10.5019 L -21.5263 -11.1974 L -15.2396 -12.1799 L -8.8549 -13.4597 L -2.3858 -15.0302 L 4.1431 -16.914 L 10.7073 -19.1567 L 17.2671 -21.831 L 23.7544 -24.971 L 30.1902 -28.4975 L 36.642 -32.3411 L 43.2041 -36.4262 L 49.9426 -40.6622 L 56.8473 -45.0525 L 63.8412 -49.691 L 70.8641 -54.6414 L 77.8912 -59.9175 L 84.9254 -65.4835 L 91.9509 -71.3596 L 98.9143 -77.5445 L 105.8129 -84.0633 L 112.6354 -90.8979 L 119.3715 -98.0353 L 126.0163 -105.4667 L 132.5813 -113.1626 L 139.0348 -121.1371 L 145.3395 -129.3995 L 151.5296 -137.9175 L 157.6301 -146.6839 L 163.6143 -155.699 L 169.4593 -164.9597 L 175.1293 -174.4734 L 180.6463 -184.2088 L 185.9858 -194.1756 L 191.1569 -204.3563 L 196.1107 -214.7524 L 200.8035 -225.3632 L 205.218 -236.1632 L 209.337 -247.1623 L 213.2661 -258.3236 L 217.0929 -269.6348 L 220.9241 -281.0694 L 224.7878 -292.6065 L 228.7038 -304.2567 L 232.6753 -315.9889" stroke-width="12" stroke="#4fafdf" fill="none" id="S2"/><path d="M 236.6873 -327.6423 L 240.6606 -338.8367 L 244.5393 -349.3462 L 248.0818 -358.5306 L 251.8384 -367.7474 L 255.5685 -376.3704 L 259.2819 -384.3051 L 263.0546 -391.56 L 267.1516 -398.4204 L 271.6426 -404.9491 L 276.5332 -411.105 L 281.7848 -416.9105 L 287.3178 -422.4599 L 293.0924 -427.8072 L 299.1101 -432.9478 L 305.3985 -437.8349 L 311.9742 -442.4031 L 318.8466 -446.5681 L 325.9991 -450.2773 L 333.4005 -453.5374 L 341.0376 -456.4007 L 348.8848 -458.9234 L 356.9204 -461.1389 L 365.1294 -463.0358 L 373.4931 -464.6119 L 381.9938 -465.8054 L 390.5863 -466.5825 L 399.2044 -466.922 L 407.8301 -466.8243 L 416.4542 -466.2598 L 425.0728 -465.3324 L 433.7013 -464.2014 L 442.3327 -462.954 L 450.9319 -461.476 L 459.4361 -459.6074 L 467.7648 -457.2444 L 475.8182 -454.3302 L 483.5194 -450.866 L 490.8085 -446.869 L 497.636 -442.3684 L 503.9913 -437.4169 L 509.8534 -432.0366 L 515.2308 -426.2732 L 520.1933 -420.1754 L 524.8328 -413.778 L 529.3012 -407.137 L 533.6393 -400.2672 L 537.8867 -393.188 L 542.0556 -385.8971 L 546.2209 -378.4262 L 550.4485 -370.8057 L 554.771 -363.0671 L 559.1456 -355.3021 L 563.3825 -347.7479 L 567.3099 -340.5627 L 570.8334 -333.763 L 573.8682 -327.3139 L 576.4266 -321.0645 L 578.5535 -314.8659 L 580.2719 -308.5799 L 581.5504 -302.2157 L 582.4008 -295.7655 L 582.8858 -289.2022 L 583.0315 -282.5235 L 582.8104 -275.747 L 582.1721 -268.9093 L 581.0839 -262.0433 L 579.5477 -255.1928 L 576.3286 -244.7794 L 574.7953 -240.7468 L 571.9155 -234.0907 L 568.6508 -227.5221 L 565.05 -221.0372 L 561.1417 -214.6185 L 556.9699 -208.248 L 552.5903 -201.8872 L 547.9746 -195.5638 L 543.0595 -189.3454 L 537.8191 -183.2739 L 532.2393 -177.3653 L 526.3372 -171.6158 L 520.2092 -165.915 L 513.9814 -160.0843 L 507.7585 -154.0437 L 501.5221 -147.7759 L 495.2245 -141.3256 L 488.8541 -134.7018 L 482.3974 -127.9185 L 475.8576 -121.0121 L 469.2984 -114.0578 L 462.922 -107.2338 L 456.9316 -100.6883 L 451.4161 -94.4879 L 446.4126 -88.69 L 441.9238 -83.32 L 437.8807 -78.2636 L 434.0626 -73.1923 L 430.4717 -68.0289 L 427.1293 -62.7595 L 424.0401 -57.3803 L 421.1952 -51.8727 L 418.6194 -46.222 L 416.359 -40.418 L 414.5026 -34.4556 L 413.0972 -28.3539 L 412.1079 -22.1091 L 411.5147 -15.7362 L 411.3324 -9.2725 L 411.5512 -2.725 L 412.1862 3.8546 L 413.2343 10.4708 L 414.6848 17.0986 L 416.5484 23.73 L 418.7917 30.37 L 421.4248 36.9987 L 424.4721 43.578 L 427.9513 50.0828 L 431.8231 56.5202 L 435.9621 62.9736 L 440.2903 69.5059 L 444.7908 76.1381 L 449.5194 82.8574 L 454.5458 89.6349 L 459.8553 96.4789 L 465.4043 103.4426 L 471.1229 110.613 L 476.9748 118.0519 L 482.9738 125.7636 L 489.16 133.7314 L 495.526 141.9181 L 502.0877 150.3378 L 508.8479 158.9874 L 515.8038 167.8465 L 522.9577 176.9076 L 530.2935 186.1618 L 537.2815 194.9891 L 544.8794 204.6694 L 552.5605 214.6044 L 560.2942 224.7808 L 568.0809 235.1638 L 575.7846 245.5419 L 583.1641 255.5904 L 590.1232 265.2013 L 596.6035 274.3216 L 602.5637 282.9086 L 608.0622 291.0358 L 613.1376 298.7202 L 617.7543 305.9172 L 621.8492 312.6369 L 625.3341 318.9569 L 628.1429 324.9533 L 630.2316 330.699 L 631.5868 336.2872 L 632.2462 341.7054 L 632.2857 346.9219 L 631.8686 351.9438 L 631.2169 356.8577 L 630.4166 361.7624 L 629.4412 366.6877 L 628.2018 371.6016 L 626.6172 376.47 L 624.6294 381.244 L 622.2179 385.8972 L 619.3624 390.4699 L 616.0921 394.9808 L 612.4051 399.384 L 608.3172 403.62 L 603.8459 407.5643 L 599.0057 411.1165 L 593.8248 414.27 L 588.3362 416.983 L 582.5767 419.2452 L 576.573 421.0908 L 570.3528 422.5755 L 563.9349 423.7541 L 557.3336 424.6615 L 550.5536 425.3378 L 543.5658 425.8219 L 536.3779 426.1448 L 528.9834 426.3298 L 521.368 426.3801 L 513.5132 426.3204 L 505.3954 426.2121 L 497.014 426.125 L 488.3687 426.1049 L 479.4006 426.1514 L 470.0821 426.2511 L 460.418 426.3877 L 450.4179 426.5215 L 440.1156 426.6257 L 429.5097 426.7126 L 418.6008 426.8023 L 407.3914 426.9052 L 395.9013 427.0344 L 384.1331 427.2001 L 372.0932 427.4005 L 359.7988 427.6246 L 347.246 427.8563 L 334.4578 428.0853 L 321.4241 428.3101 L 308.1872 428.5311 L 294.7341 428.7517 L 281.9865 428.976 L 268.1246 429.259 L 254.0654 429.5809 L 239.8024 429.9157 L 225.3701 430.232 L 210.7338 430.5311 L 195.9441 430.8454 L 180.9671 431.188 L 165.8223 431.5205 L 150.506 431.8198 L 135.02 432.1076 L 119.4056 432.4376 L 103.6293 432.8262 L 87.6966 433.2334 L 71.619 433.6085 L 55.3994 433.9384 L 39.0378 434.2589 L 22.5431 434.6099 L 5.9195 434.9715 L -10.8331 435.312 L -27.7162 435.612 L -44.7229 435.8665" stroke-width="12" stroke="#f7d347" fill="none" id="S3"/></svg>