<?xml version="1.0" standalone="no"?>
<svg xmlns:xlink="http://www.w3.org/1999/xlink" id="s2" class="track" xmlns="http://www.w3.org/2000/svg" preserveAspectRatio="xMinYMid meet" height="800px" width="600px" viewBox="-1200 -700 3000 3000">
            <path d="M 250.2041 409.66 L 241.6703 409.8362 L 234.1885 410.0093 L 225.608 410.2188 L 218.617 410.3954 L 209.9946 410.6219 L 202.9671 410.8131 L 194.291 411.0533 L 185.5837 411.2825 L 176.3034 411.4992 L 166.9935 411.6849 L 158.209 411.8303 L 148.8496 411.9589 L 140.0166 412.0696 L 130.6086 412.1948 L 123.9507 412.2995 L 114.4918 412.4894 L 107.2367 412.6631 L 98.2861 412.8909 L 90.4288 413.086 L 81.4007 413.301 L 74.017 413.4844 L 64.2989 413.7525 L 56.817 413.9813 L 46.9813 414.2978 L 39.3807 414.5428 L 29.4449 414.8546 L 21.7846 415.0875 L 11.7315 415.3823 L 4.0771 415.5995 L -5.77 415.88 L -13.1741 416.0898 L -22.1443 416.3408 L -29.8255 416.5531 L -38.7504 416.7965 L -46.6491 417.0081 L -54.9752 417.2187 L -63.6315 417.3956 L -70.3412 417.4675 L -75.6438 417.4464 L -82.1307 417.2618 L -86.6074 416.9987 L -91.825 416.5181 L -95.67 416.0099 L -100.0694 415.2449 L -103.2653 414.5592 L -107.2252 413.534 L -110.0883 412.6545 L -113.6285 411.3815 L -116.2275 410.3071 L -119.5156 408.7509 L -122.128 407.3359 L -125.0449 405.5828 L -127.2275 404.1729 L -130.3348 402.0448 L -132.7107 400.3221 L -135.5827 398.0471 L -138.5492 395.4101 L -142.3755 391.474 L -145.0497 388.3035 L -147.4826 385.1503 L -150.0401 381.6528 L -151.5584 379.5299 L -154.0257 376.0382 L -156.5336 372.4254 L -159.2154 368.4464 L -161.2707 365.3184 L -163.8278 361.3736 L -166.1364 357.8618 L -168.8956 353.8327 L -171.4487 350.3386 L -174.538 346.397 L -177.1746 343.2357 L -180.794 339.1774 L -183.7012 336.1613 L -187.685 332.3737 L -190.8738 329.6138 L -195.2295 326.2054 L -198.7035 323.7667 L -203.412 320.7867 L -207.1261 318.6294 L -211.8196 316.0724 L -216.9445 313.4434 L -221.9067 311.0992 L -227.337 308.8196 L -232.5937 306.9146 L -238.3092 305.1924 L -243.7854 303.8852 L -249.6685 302.8367 L -255.5991 302.0724 L -261.5608 301.4934 L -266.137 301.1113 L -271.7882 300.7078 L -277.475 300.4224 L -283.5007 300.2968 L -288.1382 300.341 L -293.8816 300.563 L -298.5878 300.8519 L -304.8551 301.3373 L -309.757 301.7742 L -316.3013 302.4162 L -321.413 302.9539 L -328.2584 303.6905 L -333.6155 304.2487 L -340.7694 304.9311 L -346.348 305.3975 L -353.7973 305.926 L -360.0887 306.2996 L -367.9332 306.6825 L -374.1003 306.9247 L -382.3676 307.1621 L -388.8464 307.2643 L -396.9842 307.2911 L -403.7257 307.2506 L -412.1678 307.1579 L -417.5243 307.088 L -422.9389 307.0127 L -439.5328 306.707 L -456.6353 306.2259 L -474.8217 305.5256 L -492.8917 304.6481 L -510.7832 303.6217 L -529.6816 302.3455 L -548.4429 300.8104 L -558.1864 299.896 L -568.3474 298.8571 L -578.3087 297.7664 L -588.0835 296.6464 L -595.4367 295.7791 L -604.8899 294.6273 L -611.9996 293.7145 L -621.1315 292.4538 L -629.568 291.1996 L -638.3645 289.8114 L -645.4756 288.6442 L -653.4916 287.2994 L -660.4615 286.1175 L -668.4378 284.7374 L -674.9781 283.5687 L -683.549 281.9602 L -690.6829 280.5446 L -698.3647 278.9515 L -706.9657 277.0842 L -715.3775 275.1441 L -721.5971 273.6292 L -729.8347 271.5184 L -735.4322 270.0093 L -741.7812 268.2129 L -746.7255 266.7414 L -751.6654 265.1986 L -756.1736 263.7292 L -763.9387 261.0471 L -767.3971 259.7199 L -771.016 258.1317 L -773.994 256.6163 L -776.9178 254.9113 L -778.9681 253.5425 L -781.2787 251.7797 L -782.9726 250.3098 L -784.8536 248.4688 L -786.2592 246.9307 L -787.8939 244.9578 L -789.4462 242.8669 L -790.9782 240.5005 L -792.2819 238.1497 L -793.4354 235.6805 L -794.4308 233.1036 L -795.2893 230.264 L -795.8086 228.0264 L -796.2792 225.2069 L -796.5151 222.8765 L -796.6068 219.8011 L -796.4874 217.2802 L -796.1334 214.4243 L -795.636 211.9394 L -794.8547 209.0774 L -793.9861 206.513 L -792.6862 203.2976 L -791.4996 200.7691 L -789.7891 197.6058 L -788.1825 195.02 L -785.9317 191.8513 L -783.3834 188.7283 L -780.5642 185.662 L -778.1225 183.1877 L -775.0111 180.1001 L -772.2683 177.3098 L -768.966 173.8278 L -766.4978 171.1684 L -763.5892 167.9467 L -761.3791 165.3796 L -758.869 162.2718 L -756.4593 159.0294 L -754.437 156.0267 L -752.6407 153.0556 L -750.9409 149.8779 L -749.4475 146.6285 L -748.1664 143.2956 L -747.125 140.0528 L -746.3892 137.3301 L -745.6266 133.8746 L -745.1305 130.9849 L -744.6878 127.3426 L -744.4581 123.8737 L -744.4292 119.9109 L -744.6278 116.1571 L -745.0434 112.3798 L -745.5317 109.3042 L -746.3617 105.2797 L -747.2031 101.982 L -748.4389 98.0339 L -749.4569 95.3184 L -751.1078 91.6032 L -752.5366 88.8701 L -754.7435 85.2292 L -756.6343 82.4641 L -758.971 79.3263 L -761.6655 75.997 L -764.5673 72.6972 L -767.5124 69.6159 L -770.8657 66.3921 L -774.2173 63.4026 L -777.0635 60.9904 L -780.9319 57.832 L -784.0062 55.4144 L -787.9516 52.432 L -791.5639 49.8053 L -795.8819 46.7717 L -800.4009 43.6749 L -805.1165 40.5034 L -810.3493 37.0412 L -815.7929 33.4756 L -820.9952 30.0696 L -826.371 26.4901 L -831.2412 23.1488 L -835.9224 19.8122 L -839.307 17.3116 L -843.9264 13.7749 L -847.5732 10.8665 L -851.8084 7.3265 L -854.8963 4.6026 L -858.7492 .9885 L -861.5671 -1.8381 L -864.8802 -5.3957 L -867.4464 -8.3545 L -870.6223 -12.3133 L -872.9215 -15.4151 L -875.7639 -19.5706 L -877.8253 -22.8337 L -880.3987 -27.2445 L -882.1377 -30.4741 L -884.473 -35.2268 L -886.6377 -40.1865 L -889.9946 -49.4048 L -891.5107 -54.5468 L -892.8244 -59.8175 L -894.0537 -65.8805 L -894.9141 -71.3723 L -895.5492 -76.9477 L -895.9687 -82.9474 L -896.1083 -87.5737 L -896.0687 -93.2953 L -895.8808 -97.9569 L -895.4431 -104.0699 L -894.917 -109.115 L -894.134 -114.8795 L -893.3847 -119.5661 L -892.3442 -125.3731 L -891.3421 -130.5104 L -890.0526 -136.8007 L -889.0246 -141.6585 L -887.6398 -148.0666 L -886.4655 -153.3925 L -884.9851 -159.9151 L -883.4394 -166.4893 L -881.8281 -173.1139 L -880.1198 -179.7768 L -876.8212 -191.614 L -873.0432 -203.9622 L -869.0357 -216.0547 L -867.0582 -221.7744 L -865.3042 -226.7449 L -862.7254 -233.9147 L -860.674 -239.4991 L -857.8883 -246.9252 L -855.6877 -252.6958 L -852.7508 -260.3063 L -850.3417 -266.5197 L -847.5015 -273.8904 L -845.5701 -278.984 L -843.0984 -285.6204 L -840.7327 -292.1072 L -838.3351 -298.8344 L -836.1855 -305.0057 L -832.3991 -316.1843 L -828.8539 -326.8499 L -825.6302 -336.7025 L -822.5823 -346.2962 L -820.951 -351.5623 L -818.5665 -359.4468 L -817.6016 -362.7235 L -816.3787 -366.9429 L -814.8338 -372.3431 L -813.4335 -377.2971 L -812.239 -381.5289 L -810.8917 -386.2437 L -809.5523 -390.8079 L -808.1461 -395.4156 L -807.155 -398.5236 L -805.7331 -402.7258 L -804.2484 -406.7281 L -802.7548 -410.3385 L -801.4572 -413.1807 L -799.623 -416.8362 L -798.1074 -419.6117 L -796.1007 -423.0051 L -794.0669 -426.1399 L -791.5847 -429.5885 L -789.4116 -432.2956 L -786.785 -435.2205 L -784.0468 -437.8957 L -781.0587 -440.45 L -778.5604 -442.4079 L -775.6748 -444.5636 L -773.1212 -446.4118 L -769.9604 -448.6004 L -766.688 -450.7148 L -763.8786 -452.4103 L -760.5335 -454.3082 L -756.8092 -456.2879 L -753.3708 -457.983 L -750.2766 -459.3913 L -746.331 -461.0297 L -743.0291 -462.2995 L -738.8512 -463.8007 L -734.2838 -465.3292 L -729.8873 -466.7046 L -725.3932 -468.0368 L -719.3702 -469.7988 L -714.4153 -471.3161 L -710.5961 -472.5606 L -705.5589 -474.2819 L -700.7524 -475.9881 L -695.5937 -477.9351 L -690.3852 -480.0602 L -685.1617 -482.3771 L -680.2666 -484.7353 L -675.1813 -487.3878 L -670.5521 -489.9968 L -665.7928 -492.8834 L -661.1848 -495.8807 L -656.939 -498.7819 L -652.7149 -501.7533 L -644.4541 -507.734 L -639.8329 -511.133 L -635.4067 -514.3803 L -630.6131 -517.8394 L -625.7476 -521.2208 L -621.7339 -523.8857 L -617.7056 -526.4394 L -613.9442 -528.7196 L -609.2779 -531.398 L -605.1491 -533.6243 L -600.0372 -536.1984 L -596.0507 -538.0673 L -590.7282 -540.3689 L -586.5775 -542.0079 L -581.0478 -543.9971 L -576.7499 -545.4101 L -571.3901 -547.0227 L -566.6432 -548.3213 L -560.8094 -549.7558 L -556.6569 -550.6691 L -551.0809 -551.757 L -545.4611 -552.6946 L -539.45 -553.5204 L -533.406 -554.1596 L -527.6931 -554.5807 L -523.0374 -554.7893 L -516.9382 -554.8672 L -512.2681 -554.7865 L -506.1574 -554.5105 L -501.8461 -554.206 L -495.7394 -553.6327 L -491.0705 -553.0848 L -485.3173 -552.2716 L -480.6041 -551.4802 L -474.3513 -550.2563 L -468.3989 -548.9156 L -462.3949 -547.3989 L -455.9675 -545.5933 L -449.5142 -543.5863 L -443.0453 -541.3792 L -437.7067 -539.4198 L -431.9838 -537.1873 L -425.1215 -534.3559 L -419.0403 -531.7128 L -413.0012 -528.9536 L -407.0432 -526.0825 L -402.2814 -523.6613 L -396.1572 -520.3701 L -391.1988 -517.5628 L -385.9629 -514.468 L -381.1237 -511.4879 L -375.274 -507.7403 L -370.8088 -504.7852 L -364.9642 -500.8267 L -360.485 -497.7398 L -354.9596 -493.8737 L -350.4631 -490.6792 L -344.5769 -486.4296 L -339.7275 -482.8695 L -334.187 -478.7289 L -328.6588 -474.4973 L -322.83 -469.8723 L -317.4079 -465.3728 L -312.0624 -460.7189 L -307.7816 -456.8225 L -302.2697 -451.578 L -298.1135 -447.4636 L -293.3769 -442.6128 L -288.3902 -437.3192 L -283.4784 -431.9105 L -278.3216 -426.0417 L -273.5296 -420.4199 L -269.684 -415.7783 L -265.0225 -409.9721 L -261.0152 -404.8039 L -256.5281 -398.7983 L -253.2268 -394.2196 L -248.6391 -387.6212 L -244.1502 -380.8884 L -236.721 -369.0318 L -232.5565 -361.9174 L -228.9728 -355.4906 L -222.1004 -342.3362 L -215.5175 -328.8719 L -209.2765 -315.6676 L -202.7101 -301.4081 L -196.6831 -287.9728 L -193.4227 -280.6205 L -190.043 -272.9968 L -186.738 -265.5882 L -183.683 -258.8182 L -180.4941 -251.8136 L -177.5087 -245.305 L -174.3083 -238.4078 L -171.042 -231.4955 L -167.8918 -224.9664 L -164.6637 -218.4045 L -161.7698 -212.6332 L -158.1209 -205.6232 L -154.2776 -198.6618 L -150.2316 -191.7599 L -146.2466 -185.3133 L -142.0914 -178.9157 L -137.4918 -172.1801 L -133.85 -167.0698 L -129.2414 -160.8205 L -125.1086 -155.3825 L -120.275 -149.2068 L -115.9406 -143.8451 L -110.8492 -137.7846 L -106.9271 -133.2986 L -101.2069 -127.0425 L -96.3535 -121.9848 L -90.3002 -115.9494 L -85.5601 -111.4047 L -79.2257 -105.5534 L -73.8975 -100.8137 L -67.6805 -95.4983 L -62.1195 -90.9491 L -55.6173 -85.87 L -49.7897 -81.5219 L -42.9996 -76.649 L -36.9564 -72.4558 L -29.9389 -67.7446 L -24.1595 -63.9897 L -16.027 -58.9058 L -11.4432 -56.1488 L -3.537 -51.5839 L 4.0315 -47.4333 L 9.311 -44.6684 L 24.0024 -37.5331 L 39.0727 -30.9397 L 47.764 -27.4294 L 56.5596 -24.0995 L 65.4604 -20.9796 L 73.9063 -18.2743 L 80.2597 -16.4102 L 88.7031 -14.1528 L 96.0616 -12.3786 L 104.9525 -10.4493 L 111.1984 -9.2209 L 119.9992 -7.6602 L 126.6939 -6.6172 L 134.8903 -5.5249 L 143.5418 -4.6042 L 152.1323 -3.9 L 160.6495 -3.3427 L 168.1068 -2.9104 L 176.4931 -2.4776 L 184.3206 -2.1705 L 190.6359 -2.0062 L 198.3511 -1.9069 L 205.0474 -1.9055 L 212.6391 -1.9904 L 219.2302 -2.137 L 227.1671 -2.4181 L 233.6506 -2.746 L 241.4523 -3.2641 L 249.1825 -3.8907 L 256.3926 -4.5366 L 263.9228 -5.2491 L 271.2456 -5.967 L 277.9466 -6.6212 L 283.2286 -7.1224 L 289.8735 -7.735 L 296.3413 -8.3381 L 302.352 -8.9526 L 308.6422 -9.7316 L 319.5886 -11.6452 L 324.8986 -12.9141 L 330.0957 -14.395 L 335.478 -16.2152 L 340.4005 -18.1814 L 345.4494 -20.5694 L 349.722 -22.948 L 353.2978 -25.1978 L 357.844 -28.3451 L 361.2579 -30.8783 L 365.6543 -34.3288 L 369.7195 -37.6972 L 373.8815 -41.4564 L 376.911 -44.4856 L 380.6439 -48.6658 L 383.9031 -52.8177 L 386.9746 -57.1301 L 389.3998 -60.7136 L 392.1851 -64.9154 L 394.2447 -68.0233 L 397.3022 -72.5833 L 399.867 -76.3177 L 403.3547 -81.2156 L 406.1347 -84.9493 L 409.6967 -89.4805 L 412.707 -93.045 L 416.5556 -97.2028 L 419.7944 -100.3464 L 423.9128 -103.8729 L 427.3524 -106.4472 L 431.6715 -109.3293 L 436.0607 -112.0002 L 440.4997 -114.5268 L 444.4305 -116.6355 L 449.2763 -119.0175 L 453.9172 -121.0337 L 458.6346 -122.81 L 462.5253 -124.0798 L 467.7023 -125.5231 L 470.4847 -126.1941 L 475.5182 -127.269 L 480.6834 -128.2369 L 486.3051 -129.1877 L 492.0562 -130.0737 L 497.9269 -130.8892 L 502.5107 -131.4437 L 508.6205 -132.0689 L 514.4842 -132.5688 L 520.8382 -133.0283 L 527.3547 -133.4498 L 539.3463 -134.1822 L 546.06 -134.5917 L 552.9991 -135.0328 L 560.6181 -135.5272 L 568.0275 -136.0055 L 574.7005 -136.429 L 583.0216 -136.9434 L 589.5417 -137.3397 L 598.2525 -137.8576 L 606.6334 -138.345 L 615.1765 -138.8322 L 622.199 -139.2233 L 631.4068 -139.702 L 638.4129 -140.0182 L 647.5073 -140.3136 L 654.4115 -140.4148 L 663.3761 -140.3836 L 670.1872 -140.2535 L 679.0503 -139.9502 L 685.8376 -139.6002 L 694.2472 -139.0213 L 701.6837 -138.374 L 710.7956 -137.4081 L 717.8441 -136.5158 L 727.0692 -135.1233 L 734.173 -133.8654 L 743.4993 -131.9816 L 750.6664 -130.3687 L 760.0709 -128.0623 L 767.8553 -125.9958 L 776.7791 -123.451 L 784.6072 -121.0498 L 793.5477 -118.0744 L 800.8043 -115.4689 L 809.7308 -112.0587 L 817.5274 -108.9128 L 826.4377 -105.1285 L 833.6644 -101.9019 L 843.0957 -97.4613 L 850.2953 -93.9295 L 859.1834 -89.4857 L 868.6962 -84.7192 L 878.283 -79.9321 L 887.9224 -75.0925 L 897.0237 -70.4658 L 906.1623 -65.7949 L 915.3386 -61.1246 L 922.8114 -57.3282 L 931.9786 -52.6718 L 939.3444 -48.9174 L 948.7099 -44.1247 L 955.5479 -40.6125 L 963.9526 -36.2853 L 969.8921 -33.2201 L 976.5802 -29.7631 L 982.6031 -26.646 L 988.2087 -23.7415 L 992.7153 -21.4046 L 997.8789 -18.72 L 1002.6691 -16.2282 L 1008.1051 -13.3923 L 1013.4699 -10.5888 L 1018.9523 -7.7176 L 1023.8043 -5.1714 L 1032.3535 -.6247 L 1035.8524 1.2863 L 1040.4119 3.8636 L 1044.154 6.0717 L 1046.5703 7.5489 L 1050.8044 10.2203 L 1055.2954 13.1688 L 1063.2957 18.77 L 1070.2924 24.3204 L 1073.888 27.5714 L 1076.806 30.5227 L 1079.794 34.0423 L 1082.0171 37.2414 L 1083.95 40.739 L 1085.2726 43.7984 L 1086.702 48.0697 L 1087.518 51.1889 L 1088.2808 55.3065 L 1088.6283 58.7341 L 1088.702 62.6792 L 1088.4636 66.0516 L 1087.8797 69.8137 L 1087.154 73.0953 L 1086.0486 77.1453 L 1084.6839 81.2942 L 1081.8293 88.2754 L 1077.9668 95.8932 L 1073.5253 103.7169 L 1068.7525 111.8382 L 1066.1862 115.9609 L 1063.1266 120.6696 L 1059.931 125.4216 L 1056.6437 130.2348 L 1054.0984 133.9759 L 1050.5699 139.2619 L 1048.6211 142.2605 L 1045.521 147.1698 L 1043.006 151.2833 L 1039.7286 156.8187 L 1037.2228 161.1639 L 1033.7394 167.3296 L 1031.2073 171.8896 L 1028.0704 177.628 L 1025.4965 182.3982 L 1022.0973 188.7765 L 1019.3003 194.083 L 1016.1766 200.0439 L 1013.7069 204.7757 L 1010.7306 210.4612 L 1007.7938 215.9874 L 1004.6374 221.6361 L 1001.3696 227.0169 L 998.1816 231.8249 L 994.6875 236.6654 L 992.5862 239.384 L 989.8037 242.7719 L 986.0678 246.9418 L 982.4483 250.5823 L 978.4766 254.1579 L 974.3529 257.4093 L 970.0873 260.3444 L 966.4929 262.5468 L 962.0511 264.9747 L 958.3333 266.7869 L 954.003 268.6543 L 950.4292 269.9926 L 945.3904 271.5893 L 941.6821 272.5799 L 936.738 273.7026 L 932.5784 274.5085 L 927.7326 275.3027 L 923.4198 275.862 L 918.4189 276.309 L 913.989 276.5012 L 908.8882 276.4667 L 904.3997 276.2014 L 899.264 275.6215 L 895.0946 274.9603 L 889.9647 273.9835 L 885.7894 273.0972 L 880.3146 271.8446 L 875.8028 270.7209 L 870.6484 269.3229 L 866.4657 268.0897 L 861.3351 266.4322 L 855.9069 264.4932 L 846.7022 260.8321 L 841.3309 258.5389 L 836.0248 256.2064 L 831.1556 254.0421 L 825.823 251.6739 L 819.2549 248.8031 L 816.4899 247.6257 L 814.5842 246.8276 L 810.0401 244.9801 L 806.126 243.4594 L 801.7747 241.8589 L 795.5117 239.7571 L 791.3053 238.465 L 787.3672 237.3179 L 784.9149 236.6292 L 781.7427 235.7745 L 777.6528 234.7369 L 774.5792 234.0203 L 770.6307 233.1894 L 767.6932 232.6383 L 763.995 232.0372 L 761.2796 231.6644 L 758.0701 231.3035 L 755.3794 231.0785 L 752.4354 230.9428 L 750.1604 230.9314 L 747.49 231.0245 L 743.2014 231.4178 L 740.6073 231.8283 L 738.2357 232.3493 L 735.8022 233.0649 L 733.4604 233.9506 L 731.8523 234.6779 L 729.6238 235.8544 L 727.9481 236.8665 L 725.8064 238.3243 L 724.1101 239.6468 L 722.2715 241.2989 L 720.8715 242.7387 L 719.76 244.0184 L 718.9041 245.1049 L 717.4275 247.2558 L 716.3543 249.1184 L 715.2199 251.4788 L 714.5122 253.1978 L 713.6312 255.7065 L 713.0592 257.6879 L 712.46 260.3539 L 712.1218 262.444 L 711.8438 265.2423 L 711.763 267.4287 L 711.8425 270.3372 L 712.0624 272.5695 L 712.5593 275.4834 L 713.0859 277.7169 L 713.9305 280.6881 L 714.6743 283.0537 L 715.7497 286.2858 L 716.9657 289.887 L 718.0934 293.2381 L 719.0956 296.2894 L 719.8011 298.5403 L 720.6162 301.3187 L 721.433 304.4189 L 722.3042 308.3342 L 722.9049 311.7857 L 723.3995 315.9503 L 723.5957 319.3227 L 723.5884 323.0969 L 723.4036 326.3291 L 723.0139 329.9635 L 722.5319 333.1185 L 721.7748 336.939 L 720.8255 340.7532 L 719.765 344.3342 L 718.4498 348.1123 L 716.938 351.8463 L 715.2088 355.5169 L 713.6174 358.4751 L 711.6061 361.7817 L 709.8242 364.3986 L 707.3064 367.7156 L 705.0911 370.3629 L 702.2366 373.4896 L 699.9403 375.8183 L 696.7947 378.7732 L 695.0638 380.3031 L 691.665 383.1325 L 688.2961 385.7017 L 684.7601 388.1416 L 680.8232 390.5673 L 676.7045 392.8012 L 672.6713 394.7228 L 668.4888 396.485 L 664.7008 397.9009 L 660.2422 399.3923 L 656.536 400.517 L 647.8165 402.7107 L 642.8525 403.6074 L 639.0441 404.1096 L 634.3223 404.5152 L 630.1439 404.7058 L 625.0006 404.8043 L 621.0029 404.8483 L 615.6817 404.9311 L 611.2191 405.0298 L 606.0351 405.1576 L 601.4238 405.2669 L 595.7372 405.3823 L 590.2879 405.4461 L 580.1617 405.4251 L 569.6432 405.3216 L 558.1659 405.1885 L 545.9328 405.0878 L 532.3501 405.094 L 517.825 405.1175 L 503.9545 405.1498 L 489.9786 405.2583 L 480.9001 405.3582 L 473.8161 405.4498 L 464.3519 405.5895 L 456.9707 405.7116 L 447.1257 405.8928 L 439.4568 406.0396 L 429.2437 406.2326 L 421.3025 406.3803 L 410.7418 406.5765 L 401.8978 406.7419 L 391.5857 406.939 L 382.2959 407.1185 L 371.3525 407.3323 L 362.2226 407.5132 L 350.6672 407.7445 L 341.0192 407.9401 L 328.8319 408.1902 L 319.4631 408.3842 L 306.6744 408.6516 L 297.6934 408.8418 L 283.5086 409.1433 L 272.417 409.372 L 256.7529 409.6741 z" stroke-width="28" stroke="black" fill="none" id="Track"/><path d="M 250.2041 409.66 L 241.6703 409.8362 L 234.1885 410.0093 L 225.608 410.2188 L 218.617 410.3954 L 209.9946 410.6219 L 202.9671 410.8131 L 194.291 411.0533 L 185.5837 411.2825 L 176.3034 411.4992 L 166.9935 411.6849 L 158.209 411.8303 L 148.8496 411.9589 L 140.0166 412.0696 L 130.6086 412.1948 L 123.9507 412.2995 L 114.4918 412.4894 L 107.2367 412.6631 L 98.2861 412.8909 L 90.4288 413.086 L 81.4007 413.301 L 74.017 413.4844 L 64.2989 413.7525 L 56.817 413.9813 L 46.9813 414.2978 L 39.3807 414.5428 L 29.4449 414.8546 L 21.7846 415.0875 L 11.7315 415.3823 L 4.0771 415.5995 L -5.77 415.88 L -13.1741 416.0898 L -22.1443 416.3408 L -29.8255 416.5531 L -38.7504 416.7965 L -46.6491 417.0081 L -54.9752 417.2187 L -63.6315 417.3956 L -70.3412 417.4675 L -75.6438 417.4464 L -82.1307 417.2618 L -86.6074 416.9987 L -91.825 416.5181 L -95.67 416.0099 L -100.0694 415.2449 L -103.2653 414.5592 L -107.2252 413.534 L -110.0883 412.6545 L -113.6285 411.3815 L -116.2275 410.3071 L -119.5156 408.7509 L -122.128 407.3359 L -125.0449 405.5828 L -127.2275 404.1729 L -130.3348 402.0448 L -132.7107 400.3221 L -135.5827 398.0471 L -138.5492 395.4101 L -142.3755 391.474 L -145.0497 388.3035 L -147.4826 385.1503 L -150.0401 381.6528 L -151.5584 379.5299 L -154.0257 376.0382 L -156.5336 372.4254 L -159.2154 368.4464 L -161.2707 365.3184 L -163.8278 361.3736 L -166.1364 357.8618 L -168.8956 353.8327 L -171.4487 350.3386 L -174.538 346.397 L -177.1746 343.2357 L -180.794 339.1774 L -183.7012 336.1613 L -187.685 332.3737 L -190.8738 329.6138 L -195.2295 326.2054 L -198.7035 323.7667 L -203.412 320.7867 L -207.1261 318.6294 L -211.8196 316.0724 L -216.9445 313.4434 L -221.9067 311.0992 L -227.337 308.8196 L -232.5937 306.9146 L -238.3092 305.1924 L -243.7854 303.8852 L -249.6685 302.8367 L -255.5991 302.0724 L -261.5608 301.4934 L -266.137 301.1113 L -271.7882 300.7078 L -277.475 300.4224 L -283.5007 300.2968 L -288.1382 300.341 L -293.8816 300.563 L -298.5878 300.8519 L -304.8551 301.3373 L -309.757 301.7742 L -316.3013 302.4162 L -321.413 302.9539 L -328.2584 303.6905 L -333.6155 304.2487 L -340.7694 304.9311 L -346.348 305.3975 L -353.7973 305.926 L -360.0887 306.2996 L -367.9332 306.6825 L -374.1003 306.9247 L -382.3676 307.1621 L -388.8464 307.2643 L -396.9842 307.2911 L -403.7257 307.2506 L -412.1678 307.1579 L -417.5243 307.088 L -422.9389 307.0127 L -439.5328 306.707 L -456.6353 306.2259 L -474.8217 305.5256 L -492.8917 304.6481 L -510.7832 303.6217 L -529.6816 302.3455 L -548.4429 300.8104 L -558.1864 299.896 L -568.3474 298.8571 L -578.3087 297.7664 L -588.0835 296.6464 L -595.4367 295.7791 L -604.8899 294.6273 L -611.9996 293.7145 L -621.1315 292.4538 L -629.568 291.1996 L -638.3645 289.8114 L -645.4756 288.6442 L -653.4916 287.2994 L -660.4615 286.1175 L -668.4378 284.7374 L -674.9781 283.5687 L -683.549 281.9602 L -690.6829 280.5446 L -698.3647 278.9515 L -706.9657 277.0842 L -715.3775 275.1441 L -721.5971 273.6292 L -729.8347 271.5184 L -735.4322 270.0093 L -741.7812 268.2129 L -746.7255 266.7414 L -751.6654 265.1986 L -756.1736 263.7292 L -763.9387 261.0471 L -767.3971 259.7199 L -771.016 258.1317 L -773.994 256.6163 L -776.9178 254.9113 L -778.9681 253.5425 L -781.2787 251.7797 L -782.9726 250.3098 L -784.8536 248.4688 L -786.2592 246.9307 L -787.8939 244.9578 L -789.4462 242.8669 L -790.9782 240.5005 L -792.2819 238.1497 L -793.4354 235.6805 L -794.4308 233.1036 L -795.2893 230.264 L -795.8086 228.0264 L -796.2792 225.2069 L -796.5151 222.8765 L -796.6068 219.8011 L -796.4874 217.2802 L -796.1334 214.4243 L -795.636 211.9394 L -794.8547 209.0774 L -793.9861 206.513 L -792.6862 203.2976 L -791.4996 200.7691 L -789.7891 197.6058 L -788.1825 195.02 L -785.9317 191.8513 L -783.3834 188.7283 L -780.5642 185.662 L -778.1225 183.1877 L -775.0111 180.1001 L -772.2683 177.3098 L -768.966 173.8278 L -766.4978 171.1684 L -763.5892 167.9467 L -761.3791 165.3796 L -758.869 162.2718 L -756.4593 159.0294 L -754.437 156.0267 L -752.6407 153.0556 L -750.9409 149.8779 L -749.4475 146.6285 L -748.1664 143.2956 L -747.125 140.0528 L -746.3892 137.3301 L -745.6266 133.8746 L -745.1305 130.9849 L -744.6878 127.3426 L -744.4581 123.8737 L -744.4292 119.9109 L -744.6278 116.1571 L -745.0434 112.3798 L -745.5317 109.3042 L -746.3617 105.2797 L -747.2031 101.982 L -748.4389 98.0339 L -749.4569 95.3184 L -751.1078 91.6032 L -752.5366 88.8701 L -754.7435 85.2292 L -756.6343 82.4641 L -758.971 79.3263 L -761.6655 75.997 L -764.5673 72.6972 L -767.5124 69.6159 L -770.8657 66.3921 L -774.2173 63.4026 L -777.0635 60.9904 L -780.9319 57.832 L -784.0062 55.4144 L -787.9516 52.432 L -791.5639 49.8053 L -795.8819 46.7717 L -800.4009 43.6749 L -805.1165 40.5034 L -810.3493 37.0412 L -815.7929 33.4756 L -820.9952 30.0696 L -826.371 26.4901 L -831.2412 23.1488 L -835.9224 19.8122 L -839.307 17.3116 L -843.9264 13.7749 L -847.5732 10.8665 L -851.8084 7.3265 L -854.8963 4.6026 L -858.7492 .9885 L -861.5671 -1.8381 L -864.8802 -5.3957 L -867.4464 -8.3545 L -870.6223 -12.3133 L -872.9215 -15.4151 L -875.7639 -19.5706 L -877.8253 -22.8337 L -880.3987 -27.2445 L -882.1377 -30.4741 L -884.473 -35.2268 L -886.6377 -40.1865 L -889.9946 -49.4048 L -891.5107 -54.5468 L -892.8244 -59.8175 L -894.0537 -65.8805 L -894.9141 -71.3723 L -895.5492 -76.9477 L -895.9687 -82.9474 L -896.1083 -87.5737 L -896.0687 -93.2953 L -895.8808 -97.9569 L -895.4431 -104.0699 L -894.917 -109.115 L -894.134 -114.8795 L -893.3847 -119.5661 L -892.3442 -125.3731 L -891.3421 -130.5104 L -890.0526 -136.8007 L -889.0246 -141.6585 L -887.6398 -148.0666 L -886.4655 -153.3925 L -884.9851 -159.9151 L -883.4394 -166.4893 L -881.8281 -173.1139 L -880.1198 -179.7768 L -876.8212 -191.614 L -873.0432 -203.9622 L -869.0357 -216.0547 L -867.0582 -221.7744 L -865.3042 -226.7449 L -862.7254 -233.9147 L -860.674 -239.4991 L -857.8883 -246.9252 L -855.6877 -252.6958 L -852.7508 -260.3063 L -850.3417 -266.5197 L -847.5015 -273.8904 L -845.5701 -278.984 L -843.0984 -285.6204 L -840.7327 -292.1072 L -838.3351 -298.8344 L -836.1855 -305.0057 L -832.3991 -316.1843" stroke-width="12" stroke="#e73323" fill="none" id="S1"/><path d="M -831.5523 -318.7181 L -830.0119 -323.3501 L -828.1698 -328.9233 L -826.6081 -333.686 L -824.8824 -339.03 L -823.6199 -342.9992 L -821.8652 -348.6001 L -820.2463 -353.8648 L -818.2748 -360.4304 L -817.3157 -363.7054 L -815.7353 -369.1836 L -814.3036 -374.2139 L -812.8337 -379.424 L -811.6488 -383.6065 L -810.387 -387.9822 L -808.9717 -392.7356 L -807.6512 -396.9839 L -806.5741 -400.2801 L -805.3918 -403.6831 L -803.7003 -408.0991 L -800.7221 -414.691 L -797.3738 -420.8882 L -795.3051 -424.2666 L -793.0659 -427.5785 L -788.4449 -433.4151 L -785.5968 -436.4258 L -782.8242 -438.9801 L -780.3478 -441.0182 L -777.302 -443.3595 L -775.13 -444.9624 L -771.8299 -447.3229 L -768.8211 -449.354 L -765.2955 -451.5677 L -762.434 -453.2443 L -759.2388 -455.0117 L -755.4514 -456.9734 L -751.7175 -458.7492 L -748.5689 -460.1199 L -744.8193 -461.6213 L -741.4764 -462.8697 L -737.2529 -464.3488 L -732.6459 -465.8519 L -728.2137 -467.2071 L -723.3987 -468.6166 L -718.4983 -470.0588 L -708.5278 -473.2571 L -703.7634 -474.9106 L -698.6348 -476.7717 L -693.7578 -478.6639 L -688.2341 -480.9902 L -683.3214 -483.242 L -678.1522 -485.8121 L -673.4277 -488.3536 L -668.5726 -491.1718 L -663.8776 -494.1051 L -659.5868 -496.9596 L -655.3551 -499.8871 L -650.8622 -503.0785 L -647.4019 -505.5789 L -642.5614 -509.124 L -637.9057 -512.5492 L -633.4444 -515.8067 L -628.6127 -519.2483 L -619.722 -525.1756 L -615.9726 -527.5027 L -612.1999 -529.7403 L -607.2207 -532.524 L -603.0582 -534.7015 L -598.2044 -537.0725 L -593.8744 -539.0357 L -588.819 -541.1393 L -584.3122 -542.8476 L -579.0703 -544.6609 L -574.7494 -546.0309 L -569.0237 -547.6851 L -564.2492 -548.9315 L -558.7376 -550.2226 L -554.2237 -551.1632 L -548.9782 -552.1265 L -543.345 -553.0065 L -536.9638 -553.8071 L -531.2658 -554.3386 L -520.8857 -554.8421 L -509.7497 -554.6953 L -499.3273 -553.989 L -488.9143 -552.7987 L -478.0399 -551.0017 L -472.1261 -549.7747 L -465.7792 -548.2739 L -459.7536 -546.68 L -453.3132 -544.7922 L -446.8531 -542.7016 L -440.3768 -540.4148 L -435.4192 -538.5432 L -429.3142 -536.1046 L -422.8385 -533.3785 L -416.7678 -530.6907 L -410.7553 -527.8905 L -404.8365 -524.9746 L -399.744 -522.3221 L -393.6675 -518.9763 L -389.0956 -516.3355 L -383.5395 -512.9899 L -378.7132 -509.9621 L -373.2124 -506.3849 L -368.7465 -503.3984 L -362.8986 -499.4085 L -358.0539 -496.0468 L -352.8855 -492.4055 L -348.0409 -488.9401 L -342.1526 -484.6567 L -337.3027 -481.0676 L -332.1108 -477.154 L -326.2525 -472.6114 L -320.7878 -468.2021 L -315.3932 -463.6457 L -305.5008 -454.6827 L -296.2112 -445.5362 L -291.4996 -440.6429 L -286.2312 -434.9648 L -281.3478 -429.5079 L -276.5155 -423.9421 L -272.6375 -419.3544 L -267.6345 -413.2516 L -263.8703 -408.5037 L -259.3204 -402.564 L -255.6978 -397.6599 L -251.3261 -391.5192 L -246.778 -384.8648 L -242.5883 -378.4754 L -239.0007 -372.7771 L -234.999 -366.1334 L -231.1114 -359.3615 L -227.3373 -352.4595 L -224.3514 -346.7634 L -220.5459 -339.2172 L -217.6932 -333.3875 L -214.218 -326.1511 L -211.4178 -320.2388 L -207.786 -312.4618 L -204.818 -306.024 L -201.4526 -298.6323 L -198.7467 -292.6072 L -195.4539 -285.2035 L -192.0205 -277.4557 L -188.6745 -269.9199 L -185.5858 -263.0265 L -182.5518 -256.3274 L -179.3746 -249.3665 L -176.1974 -242.4666 L -172.971 -235.5607 L -169.8693 -229.05 L -166.6914 -222.5112 L -163.8444 -216.7581 L -160.2883 -209.7432 L -156.5639 -202.7504 L -152.6358 -195.813 L -148.5095 -188.9343 L -144.4497 -182.508 L -140.2207 -176.1347 L -135.8232 -169.8171 L -132.136 -164.7203 L -127.1855 -158.0973 L -123.3109 -153.0623 L -118.1217 -146.5207 L -114.0505 -141.5644 L -108.9017 -135.5371 L -104.5946 -130.707 L -98.7977 -124.5046 L -93.8827 -119.4886 L -87.7598 -113.4949 L -82.9702 -108.983 L -76.5741 -103.1743 L -71.5576 -98.7848 L -64.9125 -93.2097 L -59.7013 -89.0306 L -52.717 -83.6845 L -47.2572 -79.6829 L -39.9665 -74.5281 L -34.3394 -70.6803 L -26.8369 -65.7147 L -21.0124 -61.9945 L -13.2818 -57.2446 L -10.0558 -55.3306 L -2.1251 -50.7934 L 5.9444 -46.4191 L 12.6992 -42.9517 L 19.0578 -39.8466 L 26.9884 -36.1732 L 34.0105 -33.0808 L 42.6376 -29.4743 L 51.3715 -26.036 L 59.6901 -22.9718 L 68.6237 -19.9366 L 77.0811 -17.3247 L 83.426 -15.535 L 92.386 -13.2436 L 99.7283 -11.5559 L 108.0784 -9.8218 L 114.8279 -8.5525 L 123.0943 -7.1617 L 129.7732 -6.1827 L 138.4606 -5.1164 L 146.58 -4.334 L 155.1458 -3.6911 L 163.6388 -3.1654 L 171.5674 -2.7222 L 179.4343 -2.3495 L 185.7825 -2.1256 L 193.5376 -1.9563 L 199.7888 -1.9001 L 207.9024 -1.927 L 214.0576 -2.0159" stroke-width="12" stroke="#4fafdf" fill="none" id="S2"/><path d="M 219.2302 -2.137 L 227.1671 -2.4181 L 233.6506 -2.746 L 241.4523 -3.2641 L 249.1825 -3.8907 L 256.3926 -4.5366 L 263.9228 -5.2491 L 271.2456 -5.967 L 277.9466 -6.6212 L 283.2286 -7.1224 L 289.8735 -7.735 L 296.3413 -8.3381 L 302.352 -8.9526 L 308.6422 -9.7316 L 319.5886 -11.6452 L 324.8986 -12.9141 L 330.0957 -14.395 L 335.478 -16.2152 L 340.4005 -18.1814 L 345.4494 -20.5694 L 349.722 -22.948 L 353.2978 -25.1978 L 357.844 -28.3451 L 361.2579 -30.8783 L 365.6543 -34.3288 L 369.7195 -37.6972 L 373.8815 -41.4564 L 376.911 -44.4856 L 380.6439 -48.6658 L 383.9031 -52.8177 L 386.9746 -57.1301 L 389.3998 -60.7136 L 392.1851 -64.9154 L 394.2447 -68.0233 L 397.3022 -72.5833 L 399.867 -76.3177 L 403.3547 -81.2156 L 406.1347 -84.9493 L 409.6967 -89.4805 L 412.707 -93.045 L 416.5556 -97.2028 L 419.7944 -100.3464 L 423.9128 -103.8729 L 427.3524 -106.4472 L 431.6715 -109.3293 L 436.0607 -112.0002 L 440.4997 -114.5268 L 444.4305 -116.6355 L 449.2763 -119.0175 L 453.9172 -121.0337 L 458.6346 -122.81 L 462.5253 -124.0798 L 467.7023 -125.5231 L 470.4847 -126.1941 L 475.5182 -127.269 L 480.6834 -128.2369 L 486.3051 -129.1877 L 492.0562 -130.0737 L 497.9269 -130.8892 L 502.5107 -131.4437 L 508.6205 -132.0689 L 514.4842 -132.5688 L 520.8382 -133.0283 L 527.3547 -133.4498 L 539.3463 -134.1822 L 546.06 -134.5917 L 552.9991 -135.0328 L 560.6181 -135.5272 L 568.0275 -136.0055 L 574.7005 -136.429 L 583.0216 -136.9434 L 589.5417 -137.3397 L 598.2525 -137.8576 L 606.6334 -138.345 L 615.1765 -138.8322 L 622.199 -139.2233 L 631.4068 -139.702 L 638.4129 -140.0182 L 647.5073 -140.3136 L 654.4115 -140.4148 L 663.3761 -140.3836 L 670.1872 -140.2535 L 679.0503 -139.9502 L 685.8376 -139.6002 L 694.2472 -139.0213 L 701.6837 -138.374 L 710.7956 -137.4081 L 717.8441 -136.5158 L 727.0692 -135.1233 L 734.173 -133.8654 L 743.4993 -131.9816 L 750.6664 -130.3687 L 760.0709 -128.0623 L 767.8553 -125.9958 L 776.7791 -123.451 L 784.6072 -121.0498 L 793.5477 -118.0744 L 800.8043 -115.4689 L 809.7308 -112.0587 L 817.5274 -108.9128 L 826.4377 -105.1285 L 833.6644 -101.9019 L 843.0957 -97.4613 L 850.2953 -93.9295 L 859.1834 -89.4857 L 868.6962 -84.7192 L 878.283 -79.9321 L 887.9224 -75.0925 L 897.0237 -70.4658 L 906.1623 -65.7949 L 915.3386 -61.1246 L 922.8114 -57.3282 L 931.9786 -52.6718 L 939.3444 -48.9174 L 948.7099 -44.1247 L 955.5479 -40.6125 L 963.9526 -36.2853 L 969.8921 -33.2201 L 976.5802 -29.7631 L 982.6031 -26.646 L 988.2087 -23.7415 L 992.7153 -21.4046 L 997.8789 -18.72 L 1002.6691 -16.2282 L 1008.1051 -13.3923 L 1013.4699 -10.5888 L 1018.9523 -7.7176 L 1023.8043 -5.1714 L 1032.3535 -.6247 L 1035.8524 1.2863 L 1040.4119 3.8636 L 1044.154 6.0717 L 1046.5703 7.5489 L 1050.8044 10.2203 L 1055.2954 13.1688 L 1063.2957 18.77 L 1070.2924 24.3204 L 1073.888 27.5714 L 1076.806 30.5227 L 1079.794 34.0423 L 1082.0171 37.2414 L 1083.95 40.739 L 1085.2726 43.7984 L 1086.702 48.0697 L 1087.518 51.1889 L 1088.2808 55.3065 L 1088.6283 58.7341 L 1088.702 62.6792 L 1088.4636 66.0516 L 1087.8797 69.8137 L 1087.154 73.0953 L 1086.0486 77.1453 L 1084.6839 81.2942 L 1081.8293 88.2754 L 1077.9668 95.8932 L 1073.5253 103.7169 L 1068.7525 111.8382 L 1066.1862 115.9609 L 1063.1266 120.6696 L 1059.931 125.4216 L 1056.6437 130.2348 L 1054.0984 133.9759 L 1050.5699 139.2619 L 1048.6211 142.2605 L 1045.521 147.1698 L 1043.006 151.2833 L 1039.7286 156.8187 L 1037.2228 161.1639 L 1033.7394 167.3296 L 1031.2073 171.8896 L 1028.0704 177.628 L 1025.4965 182.3982 L 1022.0973 188.7765 L 1019.3003 194.083 L 1016.1766 200.0439 L 1013.7069 204.7757 L 1010.7306 210.4612 L 1007.7938 215.9874 L 1004.6374 221.6361 L 1001.3696 227.0169 L 998.1816 231.8249 L 994.6875 236.6654 L 992.5862 239.384 L 989.8037 242.7719 L 986.0678 246.9418 L 982.4483 250.5823 L 978.4766 254.1579 L 974.3529 257.4093 L 970.0873 260.3444 L 966.4929 262.5468 L 962.0511 264.9747 L 958.3333 266.7869 L 954.003 268.6543 L 950.4292 269.9926 L 945.3904 271.5893 L 941.6821 272.5799 L 936.738 273.7026 L 932.5784 274.5085 L 927.7326 275.3027 L 923.4198 275.862 L 918.4189 276.309 L 913.989 276.5012 L 908.8882 276.4667 L 904.3997 276.2014 L 899.264 275.6215 L 895.0946 274.9603 L 889.9647 273.9835 L 885.7894 273.0972 L 880.3146 271.8446 L 875.8028 270.7209 L 870.6484 269.3229 L 866.4657 268.0897 L 861.3351 266.4322 L 855.9069 264.4932 L 846.7022 260.8321 L 841.3309 258.5389 L 836.0248 256.2064 L 831.1556 254.0421 L 825.823 251.6739 L 819.2549 248.8031 L 816.4899 247.6257 L 814.5842 246.8276 L 810.0401 244.9801 L 806.126 243.4594 L 801.7747 241.8589 L 795.5117 239.7571 L 791.3053 238.465 L 787.3672 237.3179 L 784.9149 236.6292 L 781.7427 235.7745 L 777.6528 234.7369 L 774.5792 234.0203 L 770.6307 233.1894 L 767.6932 232.6383 L 763.995 232.0372 L 761.2796 231.6644 L 758.0701 231.3035 L 755.3794 231.0785 L 752.4354 230.9428 L 750.1604 230.9314 L 747.49 231.0245 L 743.2014 231.4178 L 740.6073 231.8283 L 738.2357 232.3493 L 735.8022 233.0649 L 733.4604 233.9506 L 731.8523 234.6779 L 729.6238 235.8544 L 727.9481 236.8665 L 725.8064 238.3243 L 724.1101 239.6468 L 722.2715 241.2989 L 720.8715 242.7387 L 719.76 244.0184 L 718.9041 245.1049 L 717.4275 247.2558 L 716.3543 249.1184 L 715.2199 251.4788 L 714.5122 253.1978 L 713.6312 255.7065 L 713.0592 257.6879 L 712.46 260.3539 L 712.1218 262.444 L 711.8438 265.2423 L 711.763 267.4287 L 711.8425 270.3372 L 712.0624 272.5695 L 712.5593 275.4834 L 713.0859 277.7169 L 713.9305 280.6881 L 714.6743 283.0537 L 715.7497 286.2858 L 716.9657 289.887 L 718.0934 293.2381 L 719.0956 296.2894 L 719.8011 298.5403 L 720.6162 301.3187 L 721.433 304.4189 L 722.3042 308.3342 L 722.9049 311.7857 L 723.3995 315.9503 L 723.5957 319.3227 L 723.5884 323.0969 L 723.4036 326.3291 L 723.0139 329.9635 L 722.5319 333.1185 L 721.7748 336.939 L 720.8255 340.7532 L 719.765 344.3342 L 718.4498 348.1123 L 716.938 351.8463 L 715.2088 355.5169 L 713.6174 358.4751 L 711.6061 361.7817 L 709.8242 364.3986 L 707.3064 367.7156 L 705.0911 370.3629 L 702.2366 373.4896 L 699.9403 375.8183 L 696.7947 378.7732 L 695.0638 380.3031 L 691.665 383.1325 L 688.2961 385.7017 L 684.7601 388.1416 L 680.8232 390.5673 L 676.7045 392.8012 L 672.6713 394.7228 L 668.4888 396.485 L 664.7008 397.9009 L 660.2422 399.3923 L 656.536 400.517 L 647.8165 402.7107 L 642.8525 403.6074 L 639.0441 404.1096 L 634.3223 404.5152 L 630.1439 404.7058 L 625.0006 404.8043 L 621.0029 404.8483 L 615.6817 404.9311 L 611.2191 405.0298 L 606.0351 405.1576 L 601.4238 405.2669 L 595.7372 405.3823 L 590.2879 405.4461 L 580.1617 405.4251 L 569.6432 405.3216 L 558.1659 405.1885 L 545.9328 405.0878 L 532.3501 405.094 L 517.825 405.1175 L 503.9545 405.1498 L 489.9786 405.2583 L 480.9001 405.3582 L 473.8161 405.4498 L 464.3519 405.5895 L 456.9707 405.7116 L 447.1257 405.8928 L 439.4568 406.0396 L 429.2437 406.2326 L 421.3025 406.3803 L 410.7418 406.5765 L 401.8978 406.7419 L 391.5857 406.939 L 382.2959 407.1185 L 371.3525 407.3323 L 362.2226 407.5132 L 350.6672 407.7445 L 341.0192 407.9401 L 328.8319 408.1902 L 319.4631 408.3842 L 306.6744 408.6516 L 297.6934 408.8418 L 283.5086 409.1433 L 272.417 409.372 L 256.7529 409.6741" stroke-width="12" stroke="#f7d347" fill="none" id="S3"/></svg>