<?xml version="1.0" standalone="no"?>
<svg xmlns:xlink="http://www.w3.org/1999/xlink" id="s2" class="track" xmlns="http://www.w3.org/2000/svg" preserveAspectRatio="xMinYMid meet" height="800px" width="600px" viewBox="-1200 -700 3000 3000">
            <path d="M -920.797 -906.2286 L -911.3623 -905.9672 L -903.6076 -905.745 L -893.3487 -905.4479 L -883.592 -905.2127 L -873.7198 -905.0463 L -863.1045 -904.9123 L -852.3048 -904.7929 L -841.9506 -904.6869 L -830.7556 -904.5587 L -819.371 -904.4036 L -807.8142 -904.219 L -796.782 -904.0203 L -787.0206 -903.8243 L -775.0255 -903.57 L -765.7503 -903.3712 L -754.2098 -903.1184 L -742.5353 -902.8476 L -730.0043 -902.536 L -717.3252 -902.1935 L -704.506 -901.8021 L -692.3194 -901.3917 L -680.0131 -900.993 L -669.9279 -900.7033 L -657.4127 -900.3967 L -647.1645 -900.1802 L -633.6413 -899.9279 L -623.2413 -899.7484 L -609.5195 -899.522 L -598.9488 -899.3394 L -585.8511 -899.1261 L -572.6483 -898.9516 L -547.6613 -898.7327 L -534.1997 -898.6549 L -522.3481 -898.578 L -508.7271 -898.4509 L -498.4602 -898.3251 L -484.7027 -898.1166 L -470.0045 -897.8428 L -458.7093 -897.6034 L -443.8785 -897.2755 L -413.9932 -896.623 L -397.1786 -896.3133 L -381.1668 -896.0973 L -369.5549 -895.9775 L -354.3141 -895.8535 L -342.6055 -895.774 L -328.162 -895.6829 L -316.3768 -895.6118 L -300.0143 -895.514 L -291.802 -895.4666 L -276.2636 -895.384 L -264.3409 -895.3536 L -248.7104 -895.4265 L -235.8069 -895.6094 L -220.1001 -895.9622 L -208.0814 -896.2817 L -193.3447 -896.6881 L -181.5025 -897.0204 L -165.2916 -897.4699 L -153.7258 -897.7572 L -138.7625 -898.0535 L -126.5946 -898.2212 L -112.8356 -898.3296 L -101.7769 -898.356 L -87.4671 -898.3199 L -76.5689 -898.2496 L -62.3168 -898.1089 L -51.4002 -897.9645 L -37.9325 -897.7495 L -26.957 -897.5667 L -12.5595 -897.3868 L -1.4919 -897.3043 L 12.1992 -897.241 L 26.0227 -897.174 L 40.7592 -897.0555 L 54.7529 -896.8956 L 69.6707 -896.6853 L 81.7752 -896.4928 L 95.1916 -896.2583 L 106.438 -896.0415 L 118.7374 -895.7797 L 131.3205 -895.4853 L 143.5977 -895.1729 L 155.6954 -894.842 L 166.9181 -894.5188 L 178.6728 -894.1575 L 187.4914 -893.8752 L 204.5615 -893.2938 L 213.4526 -892.9757 L 223.355 -892.6059 L 231.1734 -892.3028 L 241.0145 -891.9277 L 248.7803 -891.6593 L 257.7298 -891.3949 L 265.682 -891.1806 L 278.9571 -890.7242 L 291.4469 -890.0915 L 297.9547 -889.6802 L 304.2231 -889.2236 L 309.892 -888.7533 L 315.0049 -888.2849 L 320.2887 -887.7835 L 325.1373 -887.3206 L 329.976 -886.8597 L 334.4369 -886.4165 L 337.6934 -886.0561 L 341.2889 -885.5679 L 344.2557 -885.0351 L 348.1102 -884.0588 L 350.6773 -883.1227 L 353.5409 -881.6919 L 355.6507 -880.3101 L 358.0715 -878.2979 L 359.8813 -876.3901 L 361.844 -873.7037 L 363.1912 -871.237 L 364.4981 -867.8499 L 365.2431 -864.832 L 365.786 -860.8114 L 365.9765 -857.3232 L 366.0087 -852.7442 L 365.9346 -848.4486 L 365.7908 -843.1769 L 365.6504 -837.2181 L 365.5767 -831.642 L 365.5666 -827.2931 L 365.6098 -822.2244 L 365.6893 -818.1902 L 365.8169 -813.9822 L 365.9565 -810.4808 L 366.1537 -806.6542 L 366.3622 -803.6791 L 366.7971 -799.9802 L 367.3473 -797.3236 L 368.544 -793.9744 L 370.8587 -790.4551 L 372.0935 -789.2223 L 373.3156 -788.2464 L 375.8994 -786.7172 L 378.0882 -785.7587 L 380.9696 -784.6826 L 383.4316 -783.7855 L 386.6434 -782.5855 L 390.3353 -781.1414 L 393.8366 -779.6987 L 397.2086 -778.2405 L 400.9092 -776.5509 L 403.5443 -775.2737 L 406.8377 -773.4991 L 409.81 -771.551 L 412.505 -769.2113 L 414.0848 -767.402 L 415.8043 -764.8067 L 417.4779 -761.1377 L 418.5066 -757.7729 L 419.0184 -755.4624 L 419.6295 -751.4458 L 420.0735 -744.1051 L 420.0499 -740.0653 L 419.8304 -734.7606 L 419.5047 -730.1796 L 418.9481 -724.2381 L 418.1795 -717.5588 L 417.2782 -710.8917 L 416.4119 -705.169 L 415.0062 -696.7717 L 413.6448 -689.3825 L 411.8765 -680.6667 L 409.8352 -671.5948 L 407.5297 -662.1797 L 405.1213 -652.9992 L 402.2816 -642.9237 L 399.2965 -633.17 L 395.5616 -621.8884 L 391.9247 -611.5818 L 387.7404 -600.3667 L 383.4946 -589.5449 L 380.1273 -581.262 L 375.1175 -569.2655 L 371.1257 -559.8723 L 365.724 -547.3138 L 361.435 -537.5037 L 355.9494 -525.2164 L 352.4082 -517.4179 L 346.6023 -504.796 L 340.2758 -491.1706 L 334.2005 -478.1298 L 329.1838 -467.38 L 322.5137 -453.1143 L 315.7216 -438.621 L 308.834 -423.891 L 303.556 -412.4517 L 297.0786 -398.1402 L 291.8134 -386.36 L 284.9435 -370.9515 L 279.7645 -359.348 L 273.2199 -344.7022 L 267.017 -330.8668 L 261.4583 -318.6252 L 256.1335 -307.1432 L 250.7909 -295.8517 L 246.8986 -287.6963 L 242.4839 -278.4161 L 238.433 -269.855 L 233.8476 -260.2034 L 229.562 -251.2925 L 224.6971 -241.3701 L 220.9565 -233.9107 L 216.0296 -224.3378 L 212.2561 -217.1297 L 207.4074 -207.8479 L 203.5589 -200.3842 L 199.3418 -192.0856 L 196.0464 -185.5447 L 191.9084 -177.3429 L 188.8564 -171.367 L 185.2421 -164.4221 L 182.4286 -159.1254 L 178.9445 -152.6836 L 176.2613 -147.7963 L 172.9637 -141.8694 L 171.3415 -138.9816 L 168.5851 -134.1127 L 164.6726 -127.2356 L 162.867 -124.0542 L 160.7455 -120.3051 L 158.9835 -117.1615 L 157.1097 -113.6992 L 155.8226 -111.1776 L 154.2006 -107.7048 L 153.1459 -105.1132 L 152.0635 -101.7926 L 151.5089 -99.2643 L 151.1775 -95.9174 L 151.2203 -93.4758 L 151.7325 -89.8845 L 152.5463 -87.0932 L 154.2252 -83.5219 L 155.9813 -80.9572 L 158.6627 -78.1162 L 162.1208 -75.498 L 165.884 -73.352 L 169.2821 -71.7091 L 174.1855 -69.5224 L 179.5035 -67.2155 L 184.4767 -64.9862 L 189.2602 -62.6876 L 192.7813 -60.8365 L 195.4531 -59.3047 L 198.3238 -57.5137 L 200.3765 -56.1395 L 202.8662 -54.336 L 204.6007 -52.9485 L 206.7438 -50.965 L 208.2825 -49.2125 L 209.819 -46.9465 L 211.0052 -44.4987 L 211.7307 -42.2021 L 212.1612 -39.127 L 212.068 -36.672 L 211.3494 -33.5093 L 208.8562 -28.9101 L 204.4743 -24.7413 L 198.7289 -20.2996 L 191.9485 -14.4679 L 184.5783 -6.5603 L 177.8024 .9313 L 173.8976 4.7989 L 169.4886 8.9699 L 165.6235 12.5494 L 160.9744 16.822 L 155.8698 21.4979 L 150.8194 26.1122 L 146.3097 30.2211 L 142.161 33.9904 L 139.1238 36.7428 L 135.8167 39.7327 L 133.5411 41.7824 L 130.8182 44.1896 L 128.7831 45.8923 L 126.284 47.7779 L 124.1969 49.122 L 121.5092 50.4824 L 119.0417 51.3468 L 115.9072 51.9459 L 113.3959 52.076 L 109.9135 51.8937 L 106.8645 51.4867 L 103.2421 50.7185 L 100.3773 49.8214 L 96.9879 48.2494 L 94.7315 46.7417 L 92.2486 44.4192 L 90.673 42.3884 L 88.9856 39.3682 L 88.193 37.3801 L 87.248 33.8831 L 86.6215 29.7585 L 86.3048 25.5238 L 86.1617 20.5724 L 86.1102 15.0648 L 86.0811 10.4561 L 86.0215 4.3796 L 85.9474 -2.5525 L 85.8996 -9.5236 L 85.8933 -15.5022 L 85.9186 -23.7251 L 85.9338 -29.7876 L 85.9331 -38.1398 L 85.9332 -46.8105 L 85.9668 -56.3653 L 85.9986 -65.6784 L 86.0013 -75.906 L 85.9812 -85.839 L 85.9752 -105.2304 L 86.0699 -124.8502 L 86.3404 -145.7609 L 86.859 -167.1108 L 87.2602 -178.8493 L 87.6441 -188.7439 L 87.9597 -196.9135 L 88.2634 -205.6581 L 88.5047 -214.2033 L 88.6613 -221.6389 L 88.7525 -227.5357 L 88.8448 -234.6902 L 88.9251 -240.4145 L 89.0436 -247.6198 L 89.1254 -253.1303 L 89.16 -261.3034 L 89.0649 -266.0034 L 88.4876 -273.9299 L 86.9191 -281.5178 L 85.4357 -285.2 L 83.4157 -288.6725 L 81.4678 -291.2864 L 78.4033 -294.6523 L 74.7899 -297.9416 L 70.4036 -301.3329 L 67.1686 -303.545 L 62.4817 -306.4305 L 57.06 -309.4121 L 51.2185 -312.297 L 45.3863 -314.9893 L 39.2903 -317.76 L 34.1679 -320.1136 L 27.2993 -323.4246 L 21.5673 -326.449 L 15.0085 -330.3027 L 9.7173 -333.7681 L 3.0217 -338.7679 L -1.7969 -342.9318 L -7.586 -348.7425 L -11.5763 -353.3878 L -16.2168 -359.6285 L -19.3529 -364.4856 L -23.0132 -370.8694 L -25.3976 -375.342 L -28.5189 -381.1732 L -31.397 -386.1049 L -35.2295 -391.88 L -38.4412 -396.15 L -43.0112 -401.5385 L -46.8002 -405.5144 L -52.146 -410.512 L -56.888 -414.4401 L -62.6831 -418.681 L -66.5065 -421.1777 L -72.9295 -424.8896 L -78.4211 -427.6097 L -85.9526 -430.6682 L -95.6457 -433.4667 L -99.8287 -434.2766 L -104.4644 -434.8923 L -117.9342 -435.2636 L -126.0819 -435.0482 L -132.0304 -434.9423 L -140.2094 -434.98 L -147.0415 -435.1599 L -155.6944 -435.4712 L -163.4899 -435.7209 L -172.6526 -435.9464 L -181.9868 -436.159 L -192.3913 -436.4383 L -199.7726 -436.7127 L -209.0497 -437.2095 L -214.1948 -437.5927 L -222.0251 -438.4242 L -228.6443 -439.4677 L -235.9752 -441.0971 L -243.4222 -443.4199 L -250.492 -446.3958 L -256.3692 -449.5612 L -262.5483 -453.7461 L -267.8344 -458.2388 L -272.5866 -463.25 L -275.8236 -467.3582 L -279.9112 -473.5988 L -282.9298 -479.1214 L -286.2834 -486.2052 L -288.7053 -491.8353 L -291.4389 -498.3924 L -294.7204 -505.5821 L -298.2511 -511.9418 L -302.5657 -518.0665 L -311.1896 -526.7516 L -316.9498 -530.8775 L -321.6877 -533.6511 L -327.8793 -536.7129 L -333.5826 -539.1913 L -340.4043 -541.9244 L -346.175 -544.1523 L -354.4574 -547.3644 L -361.108 -549.9881 L -368.9256 -553.1002 L -375.4583 -555.711 L -383.7296 -559.006 L -390.6265 -561.7273 L -399.9096 -565.3448 L -407.768 -568.3664 L -417.5674 -572.0838 L -425.2444 -574.9585 L -434.9121 -578.5241 L -442.9429 -581.4112 L -453.0176 -584.9094 L -459.9567 -587.2271 L -469.9837 -590.3843 L -479.9159 -593.1829 L -489.7663 -595.55 L -498.3722 -597.2962 L -508.2578 -598.9623 L -516.3923 -600.0687 L -527.2224 -601.2191 L -538.2748 -602.0769 L -548.8953 -602.6325 L -558.3484 -602.946 L -569.347 -603.1775 L -578.4293 -603.3263 L -589.7993 -603.5027 L -598.4926 -603.6404 L -611.0453 -603.8592 L -623.1127 -604.0859 L -635.4173 -604.317 L -645.5939 -604.498 L -658.3294 -604.6879 L -666.4056 -604.7827 L -680.1978 -604.9255 L -690.6092 -605.031 L -703.8045 -605.1696 L -713.5261 -605.2766 L -726.7247 -605.4277 L -731.7933 -605.4857 L -743.1152 -605.6269 L -749.9581 -605.7293 L -754.6266 -605.8113 L -764.8793 -606.0287 L -775.6338 -606.3259 L -781.3141 -606.5157 L -789.8216 -606.8338 L -797.9503 -607.1632 L -804.3251 -607.4277 L -811.5939 -607.7322 L -816.946 -607.956 L -822.8081 -608.1862 L -827.3234 -608.345 L -832.9478 -608.518 L -837.3542 -608.6384 L -842.5691 -608.7683 L -847.6228 -608.8916 L -852.43 -609.0364 L -859.8356 -609.3896 L -863.0701 -609.5906 L -867.1147 -609.8236 L -870.9649 -610.0163 L -874.4122 -610.2288 L -877.8837 -610.6219 L -880.7623 -611.195 L -883.1144 -611.9034 L -886.0086 -613.1727 L -888.2862 -614.5394 L -890.9717 -616.6495 L -893.0664 -618.785 L -895.2251 -621.668 L -896.7231 -624.343 L -898.2947 -628.2524 L -899.2212 -631.5424 L -900.0963 -635.9302 L -900.7075 -640.1183 L -901.3571 -645.3319 L -901.9526 -649.8687 L -902.8976 -655.742 L -904.2159 -662.2872 L -907.0281 -674.6199 L -909.948 -687.9978 L -912.8629 -701.8434 L -915.8459 -714.5578 L -918.6304 -725.4565 L -919.9129 -730.5574 L -921.0919 -735.3274 L -922.0981 -739.3876 L -923.2089 -743.8268 L -925.1184 -751.3494 L -926.9578 -758.4737 L -928.2792 -763.5167 L -929.2181 -767.0219 L -931.1562 -773.3123 L -932.0716 -775.6323 L -933.3246 -778.1669 L -934.6078 -780.2245 L -936.7318 -782.8492 L -939.0011 -784.9338 L -941.6514 -786.7441 L -944.073 -787.9644 L -947.1273 -789.0265 L -950.3516 -789.6233 L -953.758 -789.6568 L -955.7872 -789.3603 L -958.7471 -788.4016 L -960.9725 -787.134 L -963.0313 -785.3207 L -964.5934 -783.228 L -965.8425 -780.7994 L -966.7042 -778.8371 L -967.9731 -775.9712 L -969.0166 -773.7535 L -970.6236 -770.6483 L -972.0866 -768.141 L -974.2157 -764.9492 L -976.9236 -761.5307 L -982.6829 -756.1073 L -986.032 -753.9481 L -989.8987 -752.2489 L -992.6986 -751.5019 L -996.1605 -751.0826 L -999.0618 -751.0938 L -1002.8452 -751.4933 L -1007.382 -752.4062 L -1011.6532 -753.5617 L -1016.4639 -755.0224 L -1021.3037 -756.4313 L -1026.8075 -757.6923 L -1032.6314 -758.504 L -1038.224 -758.7793 L -1043.7573 -758.7154 L -1048.1762 -758.5845 L -1053.496 -758.5 L -1057.712 -758.5428 L -1062.7432 -758.6575 L -1067.5598 -758.7466 L -1072.1583 -758.7817 L -1075.7373 -758.7729 L -1080.2183 -758.7404 L -1083.4988 -758.7126 L -1087.3675 -758.6812 L -1089.4647 -758.6773 L -1093.2799 -758.6995 L -1096.0724 -758.7668 L -1099.5535 -758.9849 L -1102.4622 -759.351 L -1105.5666 -760.0076 L -1108.4677 -760.9624 L -1111.1594 -762.2381 L -1113.5115 -763.7545 L -1117.4001 -767.4248 L -1120.5623 -772.661 L -1121.6528 -776.0333 L -1122.2594 -779.7181 L -1122.4334 -783.4341 L -1122.2751 -787.3924 L -1121.9226 -790.8147 L -1121.2093 -795.3164 L -1120.6068 -798.3029 L -1119.3886 -803.3495 L -1117.759 -809.0409 L -1116.0685 -814.3083 L -1114.4239 -819.0399 L -1111.9726 -825.4243 L -1109.8246 -830.4286 L -1106.6248 -837.095 L -1103.638 -842.6645 L -1099.8086 -849.0656 L -1096.3463 -854.2545 L -1091.6137 -860.5449 L -1087.0355 -865.8968 L -1081.685 -871.4069 L -1072.6345 -879.216 L -1065.3325 -884.3939 L -1058.0292 -888.7723 L -1050.3621 -892.6641 L -1043.8889 -895.4675 L -1035.1374 -898.661 L -1027.7156 -900.9032 L -1018.4704 -903.1608 L -1009.5645 -904.8213 L -999.9184 -906.1025 L -990.6852 -906.8842 L -982.4625 -907.2867 L -972.8674 -907.5258 L -961.7538 -907.6293 L -951.5777 -907.6043 L -940.4217 -907.4328 L -929.5857 -907.1335 z" stroke-width="28" stroke="black" fill="none" id="Track"/><path d="M -920.797 -906.2286 L -911.3623 -905.9672 L -903.6076 -905.745 L -893.3487 -905.4479 L -883.592 -905.2127 L -873.7198 -905.0463 L -863.1045 -904.9123 L -852.3048 -904.7929 L -841.9506 -904.6869 L -830.7556 -904.5587 L -819.371 -904.4036 L -807.8142 -904.219 L -796.782 -904.0203 L -787.0206 -903.8243 L -775.0255 -903.57 L -765.7503 -903.3712 L -754.2098 -903.1184 L -742.5353 -902.8476 L -730.0043 -902.536 L -717.3252 -902.1935 L -704.506 -901.8021 L -692.3194 -901.3917 L -680.0131 -900.993 L -669.9279 -900.7033 L -657.4127 -900.3967 L -647.1645 -900.1802 L -633.6413 -899.9279 L -623.2413 -899.7484 L -609.5195 -899.522 L -598.9488 -899.3394 L -585.8511 -899.1261 L -572.6483 -898.9516 L -547.6613 -898.7327 L -534.1997 -898.6549 L -522.3481 -898.578 L -508.7271 -898.4509 L -498.4602 -898.3251 L -484.7027 -898.1166 L -470.0045 -897.8428 L -458.7093 -897.6034 L -443.8785 -897.2755 L -413.9932 -896.623 L -397.1786 -896.3133 L -381.1668 -896.0973 L -369.5549 -895.9775 L -354.3141 -895.8535 L -342.6055 -895.774 L -328.162 -895.6829 L -316.3768 -895.6118 L -300.0143 -895.514 L -291.802 -895.4666 L -276.2636 -895.384 L -264.3409 -895.3536 L -248.7104 -895.4265 L -235.8069 -895.6094 L -220.1001 -895.9622 L -208.0814 -896.2817 L -193.3447 -896.6881 L -181.5025 -897.0204 L -165.2916 -897.4699 L -153.7258 -897.7572 L -138.7625 -898.0535 L -126.5946 -898.2212 L -112.8356 -898.3296 L -101.7769 -898.356 L -87.4671 -898.3199 L -76.5689 -898.2496 L -62.3168 -898.1089 L -51.4002 -897.9645 L -37.9325 -897.7495 L -26.957 -897.5667 L -12.5595 -897.3868 L -1.4919 -897.3043 L 12.1992 -897.241 L 26.0227 -897.174 L 40.7592 -897.0555 L 54.7529 -896.8956 L 69.6707 -896.6853 L 81.7752 -896.4928 L 95.1916 -896.2583 L 106.438 -896.0415 L 118.7374 -895.7797 L 131.3205 -895.4853 L 143.5977 -895.1729 L 155.6954 -894.842 L 166.9181 -894.5188 L 178.6728 -894.1575 L 187.4914 -893.8752 L 204.5615 -893.2938 L 213.4526 -892.9757 L 223.355 -892.6059 L 231.1734 -892.3028 L 241.0145 -891.9277 L 248.7803 -891.6593 L 257.7298 -891.3949 L 265.682 -891.1806 L 278.9571 -890.7242 L 291.4469 -890.0915 L 297.9547 -889.6802 L 304.2231 -889.2236 L 309.892 -888.7533 L 315.0049 -888.2849 L 320.2887 -887.7835 L 325.1373 -887.3206 L 329.976 -886.8597 L 334.4369 -886.4165 L 337.6934 -886.0561 L 341.2889 -885.5679 L 344.2557 -885.0351 L 348.1102 -884.0588 L 350.6773 -883.1227 L 353.5409 -881.6919 L 355.6507 -880.3101 L 358.0715 -878.2979 L 359.8813 -876.3901 L 361.844 -873.7037 L 363.1912 -871.237 L 364.4981 -867.8499 L 365.2431 -864.832 L 365.786 -860.8114 L 365.9765 -857.3232 L 366.0087 -852.7442 L 365.9346 -848.4486 L 365.7908 -843.1769 L 365.6504 -837.2181 L 365.5767 -831.642 L 365.5666 -827.2931 L 365.6098 -822.2244 L 365.6893 -818.1902 L 365.8169 -813.9822 L 365.9565 -810.4808 L 366.1537 -806.6542 L 366.3622 -803.6791 L 366.7971 -799.9802 L 367.3473 -797.3236 L 368.544 -793.9744 L 370.8587 -790.4551 L 372.0935 -789.2223 L 373.3156 -788.2464 L 375.8994 -786.7172 L 378.0882 -785.7587 L 380.9696 -784.6826 L 383.4316 -783.7855 L 386.6434 -782.5855 L 390.3353 -781.1414 L 393.8366 -779.6987 L 397.2086 -778.2405 L 400.9092 -776.5509 L 403.5443 -775.2737 L 406.8377 -773.4991 L 409.81 -771.551 L 412.505 -769.2113 L 414.0848 -767.402 L 415.8043 -764.8067 L 417.4779 -761.1377 L 418.5066 -757.7729 L 419.0184 -755.4624 L 419.6295 -751.4458 L 420.0735 -744.1051 L 420.0499 -740.0653 L 419.8304 -734.7606 L 419.5047 -730.1796 L 418.9481 -724.2381 L 418.1795 -717.5588 L 417.2782 -710.8917 L 416.4119 -705.169 L 415.0062 -696.7717 L 413.6448 -689.3825 L 411.8765 -680.6667 L 409.8352 -671.5948 L 407.5297 -662.1797 L 405.1213 -652.9992 L 402.2816 -642.9237 L 399.2965 -633.17 L 395.5616 -621.8884 L 391.9247 -611.5818 L 387.7404 -600.3667 L 383.4946 -589.5449 L 380.1273 -581.262 L 375.1175 -569.2655 L 371.1257 -559.8723 L 365.724 -547.3138 L 361.435 -537.5037 L 355.9494 -525.2164 L 352.4082 -517.4179 L 346.6023 -504.796 L 340.2758 -491.1706 L 334.2005 -478.1298 L 329.1838 -467.38 L 322.5137 -453.1143 L 315.7216 -438.621 L 308.834 -423.891 L 303.556 -412.4517 L 297.0786 -398.1402 L 291.8134 -386.36 L 284.9435 -370.9515 L 279.7645 -359.348 L 273.2199 -344.7022 L 267.017 -330.8668 L 261.4583 -318.6252 L 256.1335 -307.1432 L 250.7909 -295.8517 L 246.8986 -287.6963 L 242.4839 -278.4161 L 238.433 -269.855 L 233.8476 -260.2034 L 229.562 -251.2925 L 224.6971 -241.3701 L 220.9565 -233.9107 L 216.0296 -224.3378 L 212.2561 -217.1297 L 207.4074 -207.8479" stroke-width="12" stroke="#e73323" fill="none" id="S1"/><path d="M 206.2926 -205.6967 L 201.6896 -196.7198 L 198.5702 -190.5568 L 194.3213 -182.1176 L 191.1949 -175.9383 L 187.4741 -168.6924 L 184.3631 -162.7573 L 180.9661 -156.4068 L 178.1585 -151.2457 L 175.5236 -146.4632 L 172.4209 -140.9011 L 170.2785 -137.0985 L 163.8291 -125.7504 L 162.0586 -122.6272 L 159.8521 -118.7183 L 158.2603 -115.8469 L 156.453 -112.4315 L 155.1248 -109.7362 L 153.692 -106.5018 L 152.6552 -103.738 L 151.733 -100.4317 L 151.3178 -97.8957 L 151.1689 -94.7073 L 151.362 -92.0127 L 152.0592 -88.5956 L 153.1514 -85.604 L 154.9879 -82.3115 L 156.9204 -79.8493 L 160.0123 -76.9888 L 163.4776 -74.6659 L 167.6759 -72.4644 L 171.2398 -70.8205 L 176.0325 -68.7215 L 181.3969 -66.3803 L 186.5374 -64.0205 L 190.7513 -61.9235 L 196.6607 -58.5686 L 201.4305 -55.397 L 205.4699 -52.1897 L 207.3892 -50.275 L 208.9181 -48.3575 L 210.2681 -46.1245 L 211.4025 -43.3815 L 211.9764 -40.9684 L 212.1598 -37.8061 L 211.8543 -35.3579 L 210.936 -32.4304 L 210.0666 -30.6989 L 208.0843 -27.988 L 205.9929 -25.9724 L 203.2259 -23.7812 L 200.761 -21.8952 L 197.2322 -19.0848 L 194.3027 -16.595 L 190.2753 -12.8497 L 186.9326 -9.2792 L 182.9557 -4.6809 L 179.928 -1.3034 L 176.3606 2.388 L 172.121 6.4968 L 167.5819 10.7407 L 163.9084 14.1279 L 158.8822 18.74 L 153.7739 23.4144 L 149.0923 27.6872 L 144.7061 31.6794 L 140.7191 35.2979 L 137.823 37.9197 L 134.5474 40.8777 L 132.4082 42.7938 L 129.7202 45.1235 L 127.6922 46.7477 L 125.1703 48.5244 L 123.0383 49.7621 L 120.2888 50.9551 L 117.7694 51.6542 L 114.57 52.0488 L 111.9899 52.0444 L 108.408 51.7191 L 105.2878 51.1934 L 101.6757 50.2667 L 99.1288 49.3199 L 95.7344 47.4686 L 93.6464 45.8309 L 91.3682 43.3538 L 89.9287 41.199 L 88.4139 37.992 L 87.7325 35.899 L 86.9869 32.4727 L 86.4763 28.2132 L 86.2281 23.5484 L 86.1344 18.3757 L 86.0587 7.8523 L 85.9901 1.5836 L 85.9257 -5.1183 L 85.9016 -18.8328 L 85.9363 -32.8808 L 85.9305 -41.3532 L 85.9439 -50.7012 L 85.981 -59.8215 L 86.0036 -69.2491 L 85.9949 -79.5963 L 85.9727 -90.2753 L 85.9672 -98.6615 L 85.9857 -109.2269 L 86.0235 -117.9969 L 86.1138 -129.6847 L 86.2255 -138.7508 L 86.436 -150.6539 L 86.665 -160.3356 L 87.0082 -171.7498 L 87.428 -183.2456 L 87.8065 -192.8913 L 88.1014 -200.8227 L 88.373 -209.2705 L 88.5705 -217.041 L 88.7066 -224.3711 L 88.7936 -230.6811 L 88.8866 -237.7861 L 88.9731 -243.4335 L 89.0882 -250.4323 L 89.153 -255.6956 L 89.1503 -262.2085 L 88.9961 -267.7022 L 88.7634 -271.2791 L 88.2355 -275.7285 L 87.5654 -279.1848 L 86.3685 -283.0737 L 84.674 -286.6413 L 82.5608 -289.8821 L 80.4509 -292.4829 L 76.979 -296.0168 L 73.1513 -299.2705 L 65.1693 -304.8161 L 60.3019 -307.6703 L 54.702 -310.6101 L 49.0649 -313.304 L 43.1286 -316.015 L 38.0993 -318.3036 L 31.3592 -321.4367 L 26.0739 -324.0474 L 19.1056 -327.8428 L 13.7812 -331.0753 L 6.9133 -335.766 L 1.5076 -340.0188 L -4.2566 -345.2806 L -8.541 -349.8017 L -13.5662 -355.9404 L -16.9708 -360.7446 L -20.6942 -366.739 L -23.6207 -371.993 L -26.5615 -377.5496 L -29.3201 -382.599 L -32.7038 -388.1693 L -35.9489 -392.8767 L -40.2713 -398.395 L -43.863 -402.4676 L -48.9475 -407.6008 L -53.4713 -411.6547 L -59.0154 -416.0645 L -68.8716 -422.6122 L -81.4775 -428.9443 L -97.0413 -433.7638 L -105.8523 -435.0201 L -121.2511 -435.18 L -129.0347 -434.984 L -135.0688 -434.9296 L -143.3463 -435.0496 L -150.2618 -435.2728 L -159.5641 -435.6033 L -166.8977 -435.8108 L -176.1463 -436.0246 L -186.0584 -436.2593 L -196.3846 -436.5758 L -203.6659 -436.8971 L -212.6747 -437.4692 L -217.1754 -437.8664 L -225.3585 -438.9051 L -231.4255 -440.0196 L -238.6452 -441.8439 L -245.962 -444.3953 L -252.8871 -447.6017 L -258.98 -451.2092 L -264.9273 -455.6476 L -269.9778 -460.3673 L -277.563 -469.8542 L -284.1466 -481.5819 L -289.7976 -494.464 L -292.7448 -501.3912 L -295.9868 -508.0262 L -299.9575 -514.5513 L -304.2216 -520.0468 L -308.3481 -524.2931 L -313.499 -528.5261 L -318.0186 -531.5443 L -323.9673 -534.8393 L -329.0809 -537.2558 L -336.1058 -540.2235 L -341.7171 -542.4342 L -349.3593 -545.3802 L -355.8679 -547.9181 L -364.0136 -551.1424 L -370.9172 -553.8962 L -379.043 -557.1417 L -385.8273 -559.8366 L -394.4133 -563.2088 L -402.1344 -566.2041 L -411.7698 -569.8915 L -419.325 -572.7448 L -428.8423 -576.2938 L -437.3666 -579.4152 L -446.7005 -582.7335 L -464.3565 -588.6451 L -473.7383 -591.4879 L -484.2348 -594.2715 L -502.0701 -597.9611 L -520.8226 -600.58 L -531.7426 -601.6062 L -542.2568 -602.3143 L -551.5759 -602.7364 L -562.4501 -603.0434 L -572.1232 -603.2253 L -582.6629 -603.3919 L -591.9594 -603.5356 L -603.6294 -603.7269 L -615.544 -603.943 L -628.4641 -604.1868" stroke-width="12" stroke="#4fafdf" fill="none" id="S2"/><path d="M -633.0885 -604.2733 L -643.2261 -604.4582 L -655.9219 -604.6556 L -663.9725 -604.7558 L -677.7688 -604.9013 L -688.2265 -605.0068 L -700.745 -605.1371 L -711.3034 -605.2514 L -718.6864 -605.3347 L -736.8016 -605.5454 L -759.1875 -605.9003 L -769.1545 -606.1377 L -779.6191 -606.4573 L -788.2646 -606.7731 L -796.448 -607.1015 L -802.8799 -607.3671 L -810.2892 -607.6775 L -815.7568 -607.9073 L -821.7527 -608.1467 L -831.6727 -608.4808 L -836.1063 -608.6054 L -841.6596 -608.7467 L -844.681 -608.8188 L -849.6315 -608.947 L -854.0702 -609.0969 L -856.7379 -609.217 L -859.072 -609.3446 L -862.3345 -609.5452 L -866.4152 -609.7859 L -870.2985 -609.983 L -873.7804 -610.1813 L -877.2857 -610.5347 L -880.201 -611.0608 L -882.5822 -611.7204 L -885.3439 -612.8378 L -887.6415 -614.1168 L -890.3505 -616.1063 L -892.4841 -618.1382 L -894.8448 -621.0928 L -896.4001 -623.7006 L -897.9634 -627.2915 L -899.0264 -630.7608 L -899.9508 -635.0779 L -900.5415 -638.8866 L -901.192 -643.9873 L -901.8042 -648.8014 L -902.6984 -654.6195 L -903.9627 -661.1107 L -905.4837 -667.9122 L -906.7348 -673.3374 L -908.3972 -680.7385 L -909.6577 -686.6192 L -911.3018 -694.4909 L -912.5681 -700.483 L -914.2506 -708.0005 L -915.5473 -713.368 L -917.1974 -719.8612 L -918.2856 -724.1031 L -919.6847 -729.6408 L -920.8737 -734.4399 L -923.0034 -743.0106 L -924.0804 -747.2785 L -924.9261 -750.6005 L -925.9315 -754.5156 L -926.7793 -757.7893 L -927.7133 -761.3682 L -928.6659 -764.9836 L -929.607 -768.4092 L -930.1764 -770.3357 L -930.9626 -772.7644 L -931.7749 -774.9287 L -933.0559 -777.6746 L -934.2947 -779.7618 L -936.2224 -782.2902 L -938.5466 -784.5621 L -941.1253 -786.4283 L -943.4938 -787.7052 L -946.4972 -788.8475 L -949.7036 -789.5464 L -953.1297 -789.6984 L -954.9891 -789.5079 L -958.2236 -788.6242 L -960.3761 -787.531 L -962.5651 -785.8042 L -964.3353 -783.6377 L -965.6391 -781.2408 L -966.5049 -779.2976 L -967.6769 -776.6262 L -968.7627 -774.2787 L -970.3169 -771.212 L -971.6125 -768.9224 L -973.787 -765.5528 L -976.4103 -762.1307 L -979.4926 -758.8272 L -981.867 -756.7386 L -985.3943 -754.3079 L -989.036 -752.5588 L -995.5082 -751.1223 L -1002.1172 -751.3874 L -1006.35 -752.1646 L -1010.8349 -753.3248 L -1015.5919 -754.7552 L -1020.3691 -756.1759 L -1025.8088 -757.4977 L -1031.5882 -758.3997 L -1037.1767 -758.7601 L -1042.7266 -758.7419 L -1046.8246 -758.6243 L -1052.509 -758.5041 L -1056.7487 -758.5256 L -1061.8157 -758.6358 L -1066.6757 -758.7342 L -1071.312 -758.7793 L -1074.9244 -758.7768 L -1079.1848 -758.7492 L -1082.5035 -758.7207 L -1086.6545 -758.6852 L -1088.7714 -758.6769 L -1092.6209 -758.6918 L -1095.4369 -758.7454 L -1098.9532 -758.9329 L -1101.8932 -759.2627 L -1105.0323 -759.8708 L -1107.8041 -760.7097 L -1110.5449 -761.9076 L -1113.082 -763.4454 L -1115.3216 -765.2436 L -1117.0262 -766.9859 L -1119.0013 -769.6381 L -1120.3197 -772.1016 L -1121.4957 -775.4131 L -1122.1581 -778.825 L -1122.4277 -782.7189 L -1122.3282 -786.6289 L -1122.0524 -789.7394 L -1121.3665 -794.446 L -1119.6406 -802.3787 L -1118.172 -807.6738 L -1116.4238 -813.2378 L -1112.4328 -824.2844 L -1107.2229 -835.9083 L -1100.5616 -847.8643 L -1092.2356 -859.7657 L -1082.7914 -870.3271 L -1077.4809 -875.2493 L -1073.8692 -878.2489 L -1067.093 -883.2254 L -1059.4292 -887.9874 L -1051.8263 -891.9714 L -1045.9013 -894.6393 L -1036.7053 -898.1349 L -1029.3205 -900.452 L -1020.1177 -902.7999 L -1011.2486 -904.5433 L -1001.6317 -905.9119 L -992.428 -906.7663 L -974.6864 -907.4939 L -964.2536 -907.6187 L -953.508 -907.6179 L -942.4192 -907.4754 L -931.6399 -907.1971 L -922.6652 -906.9051" stroke-width="12" stroke="#f7d347" fill="none" id="S3"/></svg>