<svg class="track" xmlns="http://www.w3.org/2000/svg" preserveAspectRatio="xMinYMid meet" height="260" width="600" viewBox="-800 -350 1 700">
  <path d="m-181.696-239.322 6.295 2.76 7.097 3.272 6.636 3.177 6.997 3.456 6.538 3.33 5.294 2.757 6.922 3.642 5.3 2.803 6.955 3.734 5.762 3.165 7.045 3.973 7.104 4.127 6.737 4.014 5.518 3.327 7.288 4.417 6.046 3.674 7.412 4.495 7.035 4.234 7.534 4.504 7.144 4.257 13.08 7.766 13.716 8.105 13.883 8.164 13.607 7.963 12.323 7.178 8.129 4.719 6.736 3.9 7.748 4.475 7.794 4.492 7.845 4.524 6.874 3.98 8.38 4.881 7.926 4.642 14.953 8.755 14.92 8.654 8.019 4.644 7.457 4.333 5.617 3.28 5.927 3.474 5.407 3.184 5.202 3.09 3.612 2.181 4.046 2.494 3.023 1.905 3.554 2.288 3.1 2.043 3.76 2.559 3.075 2.197 3.433 2.638 2.887 2.441 3.14 2.958 2.563 2.76 2.622 3.375 1.95 3.149 1.78 3.783 1.09 3.182.927 4 .496 4.047.099 4.063-.179 3.294-.557 4.003-.84 3.416-1.57 4.21-1.831 3.528-2.37 3.53-2.765 3.345-2.89 3.043-3.323 3.2-3.557 3.205-3.305 2.872-2.96 2.541-3.94 3.44-2.995 2.72-3.6 3.437-3.046 3.081-3.31 3.636-2.688 3.319-2.916 4.233-2.084 3.648-2.083 4.314-1.642 3.867-1.85 4.794-1.19 3.45-1.438 4.982-.91 4.172-.685 4.789-.259 4.155.036 4.975.188 4.613.137 4.875-.051 4.891-.206 4.635-.38 4.672-.644 5-.73 4.131-1.14 5.03-1.449 5.036-1.768 5.02-1.955 4.688-1.914 4.077-2.553 4.914-2.445 4.297-2.981 4.808-3.24 4.674-3.532 4.462-3.608 3.947-4.112 3.904-4.083 3.425-7.745 5.757-8.093 5.255-4.646 2.635-4.795 2.402-9.393 3.823-10.184 3.17-4.372 1.192-5.135 1.304-10.553 2.243-10.958 1.601-11.736.989-11.407.246-12.265-.424-12.73-1.138-13.208-1.9-13.644-2.721-13.994-3.543-12.788-3.907-7.645-2.653-6.238-2.352-8.18-3.345-6.267-2.764-7.7-3.657-6.72-3.433-7.642-4.17-8.07-4.69-7.523-4.61-7.478-4.724-7.858-5.003-7.355-4.663-5.935-3.753-7.246-4.6-6.245-3.983-7.436-4.738-5.492-3.479-6.498-4.082-10.24-6.342-11.815-7.264-6.384-3.93-6.822-4.212-4.035-2.498-5.267-3.262-6.835-4.224-6.29-3.865-5.733-3.501-7.775-4.707-3.547-2.112-4.418-2.562-5.096-2.827-4.236-2.23-5.017-2.514-3.471-1.663-4.58-2.09-4.004-1.71-5.165-2-3.748-1.268-4.646-1.36-3.809-.939-4.132-.842-4.747-.79-2.98-.415-7.177-.778-11.702-.513-3.886.104-5.07.332-3.875.373-5.078.626-4.785.773-4.779.987-3.892.966-4.822 1.389-4.25 1.397-4.891 1.814-3.074 1.256-4.952 2.21-7.162 3.56-5.033 2.68-5.137 2.819-5.575 3.049-5.68 2.98-5.41 2.653-5.78 2.583-4.427 1.756-5.435 1.855-4.397 1.23-5.707 1.207-4.32.62-5.925.52-3.94.182-5.58.06-4.268-.117-5.901-.43-4.572-.577-5.18-.948-5.42-1.354-5.03-1.575-4.036-1.47-5.203-2.182-3.913-1.873-4.724-2.546-3.757-2.257-4.829-3.169-3.365-2.348-4.748-3.441-4.746-3.534-4.778-3.59-3.7-2.743-4.622-3.344-4.704-3.297-5.083-3.418-4.872-3.07-4.339-2.484-5.377-2.71-5.179-2.205-5.609-1.96-4.357-1.26-5.43-1.313-4.456-.893-5.523-.892-4.867-.596-5.948-.455-4.923-.116-5.635.174-5.972.554-5.96.908-4.54.915-5.901 1.472-5.844 1.761-5.414 1.89-4.32 1.664-5.192 2.172-4.09 1.864-5.099 2.588-3.931 2.278-4.18 2.763-3.38 2.542-3.75 3.162-3.495 3.257-2.95 2.98-2.674 2.876-2.958 3.387-2.28 2.835-2.621 3.595-2.531 3.94-2.126 3.801-2.128 4.365-1.479 3.453-1.5 3.994-1.14 3.508-1.082 3.983-.745 3.446-.63 3.892-.37 3.363-.212 3.788.16 6.022.404 3.638.632 3.575 1.697 6.274 2.493 6.122 3.265 5.594 3.868 4.777 4.676 4.35 5.239 3.988 6.19 3.832 3.83 1.924 3.8 1.576 7.444 2.318 8.28 1.678 9.484 1.16 10.393.685 10.837.213 6.663-.1 6.878-.199 6.668-.152 7.282-.041 7.471.154 7.618.36 5.914.409 7.837.715 6.533.753 7.56 1.04 6.695 1.05 8.232 1.419 6.371 1.146 7.447 1.332 9.066 1.565 7.67 1.255 6.719 1.037 8.898 1.292 9.017 1.233 9.13 1.163 9.25 1.058 8.817.873 8.927.746 7.333.498 9.16.467 15.876.466 17.766.13 19.76-.304 19.087-.645 20.272-.806 10.889-.454 12.159-.512 8.71-.355 10.563-.405 10.878-.381 9.854-.296 10.012-.207 9.58-.078 9.343.054 8.759.162 7.11.204 9.342.36 5.51.27 5.517.324 7.734.557 8.845.806 9.4 1.061 8.85 1.197 9.419 1.493 9.481 1.737 8.98 1.851 8.495 1.92 7.989 1.945 9.777 2.553 8.108 2.237 9.932 2.843 9.44 2.794 10.1 3.112 10.152 3.257 16.242 5.385 9.722 3.207 9.793 3.164 17.253 5.36 9.87 2.897 10.445 2.923 8.578 2.302 10.383 2.67 9.139 2.22 10.333 2.325 10.334 2.082 10.34 1.8 7.925 1.19 10.386 1.33 8.59.935 9.937.91 8.175.604 10.81.574 10.945.306 11.077.04 17.175-.53 4.671-.272 10.759-.806 11.605-1.103 10.394-1.172 9.122-1.17 11.36-1.648 9.325-1.512 12.309-2.21 10.21-2.013 13.126-2.866 8.688-2.09 11.468-3.012 9.226-2.638 11.884-3.671 8.962-2.957 10.289-3.555 9.568-3.392 10.957-3.905 20.722-7.456 20.404-7.563 20.864-7.89 11.77-4.454 12.646-4.773 12.114-4.559 13.048-4.898 12.432-4.66 12.374-4.639 10.538-3.955 11.438-4.301 8.732-3.29 10.651-4.04 7.596-2.933 9.393-3.767 7.563-3.182 9.09-3.97 9.012-4.046 8.437-3.869 8.923-4.201 21.036-10.458 8.995-4.7 8.992-4.813 8.37-4.587 8.18-4.6 5.94-3.414 7.883-4.6 5.459-3.23 6.06-3.637 4.713-2.867 4.956-3.063 3.483-2.192 3.712-2.389 2.725-1.789 3.307-2.226 2.433-1.705 3.353-2.497 2.67-2.15 2.97-2.571 2.886-2.683 2.754-2.813 2.086-2.398 2.417-3.319 1.556-2.684 1.714-3.92 1.047-3.425 1.052-7.134-.526-7.157-1.93-6.72-2.919-5.907-2.239-3.282-2.772-3.25-2.95-2.86-3.211-2.767-3.652-2.971-3.18-2.527-4.024-3.226-4.153-3.442-5.617-4.958-3.763-3.637-3.772-4.081-5.37-7.308-3.849-8.293L602.89-25l.344-7.996.958-4.676 1.564-4.861 4.027-8.163 2.772-4.05 3.39-3.913 3.829-3.4 3.939-2.635 3.668-1.833 4.412-1.59 3.445-.904 4.753-.967 4-.674 5.406-.777 4.923-.584 5.333-.5 4.352-.305 5.338-.273 8.574-.527 5.181-.614 5.399-.966 4.948-1.26 5.098-1.722 4.96-2.084 4.572-2.234 4.777-2.618 4.687-2.87 4.564-3.155 3.855-3.047 3.148-2.83 3.481-3.59 2.341-2.785 2.27-3.095 1.428-2.15 1.371-2.192 1.31-2.178 1.22-2.117 1.05-1.93 1.204-2.435 1.046-2.48.83-2.359.682-2.522.438-2.393.244-2.405.056-1.953-.106-2.402-.28-2.085-.568-2.349-.676-1.868-1.097-2.245-1.084-1.76-1.527-2.077-1.347-1.64-1.746-2.016-1.58-1.8-1.953-2.287-1.49-1.836-1.953-2.685-1.271-2.06-1.24-2.52-.864-2.318-.774-3-.411-2.76-.142-3.481.255-3.372.643-3.432 1.001-3.479 1.293-3.516 1.246-2.89 1.778-3.584 1.628-2.933 2.298-3.888 1.792-3.014 2.073-3.746 1.375-2.832 1.607-4.055.938-3.351.603-3.828.124-2.83-.266-3.902-.513-2.87-.961-3.365-1.105-2.767-1.451-2.764-3.696-4.795-4.415-3.837-5.744-3.364-3.394-1.392-3.432-1.08-3.689-.887-3.955-.737-3.42-.52-4.469-.552-3.544-.353-5.299-.407-5.307-.278-5.646-.183-4.464-.087-6.65-.072-5.353-.028-6.882-.017-7.66-.046-7.99-.126-6.8-.174-8.5-.253-6.688-.195-8.984-.238-7.592-.197-9.459-.271-7.985-.25-9.291-.287-10.032-.278-9.648-.24-7.353-.173-10.588-.248-8.23-.2-10.94-.29-9.155-.257-10.59-.297-9.388-.254-8.783-.227-4.089-.102-10.993-.268-11.123-.258-11.249-.248-12.094-.25-12.23-.236-12.373-.24-11.782-.25-12.637-.297-12.027-.313-9.858-.277-12.243-.364-7.706-.239-12.437-.398-10.178-.332-12.64-.407-12.749-.394-13.668-.4-10.539-.293-13.887-.372-10.7-.288-14.104-.383-10.87-.295-14.32-.406-11.026-.352-14.527-.527-11.17-.427-14.74-.554-14.811-.54-14.95-.56-15.926-.634-10.694-.43-15.233-.592-14.44-.537-15.444-.562-11.87-.428-14.686-.528-12.007-.431-15.767-.564-15.878-.565-15.957-.568-12.265-.441-16.105-.592-16.037-.605-15.015-.58-12.111-.478-14.859-.599-12.992-.534-15.965-.67-13.293-.568-14.388-.625-13.563-.6-16.633-.748-12.782-.584-15.72-.732-16.596-.787-16.448-.796-13.337-.653-14.655-.723-11.252-.558-13.769-.687-9.902-.497-12.296-.61-9.809-.464-10.432-.462-11.719-.483-10.87-.416-10.671-.376-19.081-.665-8.236-.333-9.28-.427-8.286-.408-8.646-.394-8.526-.33-7.926-.27-8.32-.26-7.622-.238-5.82-.21-6.555-.285-4.952-.252-6.254-.34-4.344-.236-5.693-.3-4.49-.218-5.627-.236-4.082-.144-4.889-.138-3.379-.063-3.965-.012-2.11.033-3.16.128-2.302.173-2.976.363-4.901 1.077-4.69 1.847-3.888 2.396-3.551 3.176-2.722 3.684-1.109 2.117-1.031 2.655-1.021 4.92.116 5.897 1.58 6.068 3.18 6.75 4.16 6.584 5.641 6.29 3.554 2.997 4.087 3.002 4.054 2.794 4.245 2.854 3.618 2.39 4.927 3.172 3.953 2.43 5.325 3.012 4.184 2.11 5.391 2.4 4.58 1.789 6.209 2.094 5.302 1.516 6.62 1.62 5.562 1.17 6.06 1.089 5.304.77 6.585.615 5.783.177 6.612-.234 7.007-.737 9.101-1.462 5.447-1.013 7.594-1.581 7.216-1.839 12.637-4.372 6.671-2.873 6.721-2.991 12.584-5.106 13.07-4.691 13.886-4.753 14.347-4.412 14.792-3.87 15.73-3.162 15.636-1.992 15.967-.86 15.685.279 12.01.932 9.304 1.156 9.319 1.568 8.193 1.729 7.084 1.763 8.679 2.504 5.394 1.746 8.585 3.068 9.052 3.614z" stroke-width="28" stroke="#000" fill="none"/>
  <path d="m-181.696-239.322 6.295 2.76 7.097 3.272 6.636 3.177 6.997 3.456 6.538 3.33 5.294 2.757 6.922 3.642 5.3 2.803 6.955 3.734 5.762 3.165 7.045 3.973 7.104 4.127 6.737 4.014 5.518 3.327 7.288 4.417 6.046 3.674 7.412 4.495 7.035 4.234 7.534 4.504 7.144 4.257 13.08 7.766 13.716 8.105 13.883 8.164 13.607 7.963 12.323 7.178 8.129 4.719 6.736 3.9 7.748 4.475 7.794 4.492 7.845 4.524 6.874 3.98 8.38 4.881 7.926 4.642 14.953 8.755 14.92 8.654 8.019 4.644 7.457 4.333 5.617 3.28 5.927 3.474 5.407 3.184 5.202 3.09 3.612 2.181 4.046 2.494 3.023 1.905 3.554 2.288 3.1 2.043 3.76 2.559 3.075 2.197 3.433 2.638 2.887 2.441 3.14 2.958 2.563 2.76 2.622 3.375 1.95 3.149 1.78 3.783 1.09 3.182.927 4 .496 4.047.099 4.063-.179 3.294-.557 4.003-.84 3.416-1.57 4.21-1.831 3.528-2.37 3.53-2.765 3.345-2.89 3.043-3.323 3.2-3.557 3.205-3.305 2.872-2.96 2.541-3.94 3.44-2.995 2.72-3.6 3.437-3.046 3.081-3.31 3.636-2.688 3.319-2.916 4.233-2.084 3.648-2.083 4.314-1.642 3.867-1.85 4.794-1.19 3.45-1.438 4.982-.91 4.172-.685 4.789-.259 4.155.036 4.975.188 4.613.137 4.875-.051 4.891-.206 4.635-.38 4.672-.644 5-.73 4.131-1.14 5.03-1.449 5.036-1.768 5.02-1.955 4.688-1.914 4.077-2.553 4.914-2.445 4.297-2.981 4.808-3.24 4.674-3.532 4.462-3.608 3.947-4.112 3.904-4.083 3.425-7.745 5.757-8.093 5.255-4.646 2.635-4.795 2.402-9.393 3.823-10.184 3.17-4.372 1.192-5.135 1.304-10.553 2.243-10.958 1.601-11.736.989-11.407.246-12.265-.424-12.73-1.138-13.208-1.9-13.644-2.721-13.994-3.543-12.788-3.907-7.645-2.653-6.238-2.352-8.18-3.345-6.267-2.764-7.7-3.657-6.72-3.433-7.642-4.17-8.07-4.69-7.523-4.61-7.478-4.724-7.858-5.003-7.355-4.663-5.935-3.753-7.246-4.6-6.245-3.983-7.436-4.738-5.492-3.479-6.498-4.082-10.24-6.342-11.815-7.264-6.384-3.93-6.822-4.212-4.035-2.498-5.267-3.262-6.835-4.224-6.29-3.865-5.733-3.501-7.775-4.707-3.547-2.112-4.418-2.562-5.096-2.827-4.236-2.23-5.017-2.514-3.471-1.663-4.58-2.09-4.004-1.71-5.165-2-3.748-1.268-4.646-1.36-3.809-.939-4.132-.842-4.747-.79-2.98-.415-7.177-.778-11.702-.513-3.886.104-5.07.332-3.875.373-5.078.626-4.785.773-4.779.987-3.892.966-4.822 1.389-4.25 1.397-4.891 1.814-3.074 1.256-4.952 2.21-7.162 3.56-5.033 2.68-5.137 2.819-5.575 3.049-5.68 2.98-5.41 2.653-5.78 2.583-4.427 1.756-5.435 1.855-4.397 1.23-5.707 1.207-4.32.62-5.925.52-3.94.182-5.58.06-4.268-.117-5.901-.43-4.572-.577-5.18-.948-5.42-1.354-5.03-1.575-4.036-1.47-5.203-2.182-3.913-1.873-4.724-2.546-3.757-2.257-4.829-3.169-3.365-2.348-4.748-3.441-4.746-3.534-4.778-3.59-3.7-2.743-4.622-3.344-4.704-3.297-5.083-3.418-4.872-3.07-4.339-2.484-5.377-2.71-5.179-2.205-5.609-1.96-4.357-1.26-5.43-1.313-4.456-.893-5.523-.892-4.867-.596-5.948-.455-4.923-.116-5.635.174-5.972.554-5.96.908-4.54.915-5.901 1.472-5.844 1.761-5.414 1.89-4.32 1.664-5.192 2.172-4.09 1.864-5.099 2.588-3.931 2.278-4.18 2.763-3.38 2.542-3.75 3.162-3.495 3.257-2.95 2.98-2.674 2.876-2.958 3.387-2.28 2.835-2.621 3.595-2.531 3.94-2.126 3.801-2.128 4.365-1.479 3.453-1.5 3.994-1.14 3.508-1.082 3.983-.745 3.446-.63 3.892-.37 3.363-.212 3.788.16 6.022.404 3.638.632 3.575 1.697 6.274 2.493 6.122 3.265 5.594 3.868 4.777 4.676 4.35 5.239 3.988 6.19 3.832 3.83 1.924 3.8 1.576 7.444 2.318 8.28 1.678 9.484 1.16 10.393.685 10.837.213 6.663-.1 6.878-.199 6.668-.152 7.282-.041 7.471.154 7.618.36 5.914.409 7.837.715 6.533.753 7.56 1.04 6.695 1.05" stroke-width="12" stroke="#e73323" fill="none"/>
  <path d="m-592.14 201.412 14.682 2.614 7.988 1.412 8.607 1.458 14.987 2.325 8.942 1.266 9.07 1.208 9.18 1.125 8.744.948 8.858.827 9.531.731 7.38.441 9.235.399 5.865.178 9.572.19 7.93.07 10.607-.025 8.906-.127 11.003-.282 8.555-.29 10.681-.404 8.788-.349 11.558-.473 10.862-.457 11.449-.478 8.673-.345 11.1-.412 10.706-.358 9.679-.256 9.826-.155 8.898-.025 9.317.098 7.109.154 9.315.298 7.702.328 5.52.29 7.176.463 7.18.575 8.851.877 9.395 1.136 9.424 1.36 9.418 1.589 8.946 1.721 9.015 1.93 17.104 4.143 17.952 4.92 9.385 2.72 10.058 3.023 10.128 3.175 10.169 3.31 6.011 1.996 10.28 3.418 9.156 2.997 9.804 3.14 8.012 2.5 9.255 2.79 10.47 3.015 10.434 2.864 8.565 2.257 9.76 2.456 9.738 2.3 10.333 2.231 10.336 1.969 18.277 2.79 18.418 2.05 18.84 1.421 19.263.639 11.098-.01 5.927-.126 11.948-.53 4.012-.255 12.826-1.036 11.67-1.187 11.153-1.338 9.174-1.25 11.422-1.752 9.366-1.595 12.363-2.315 10.214-2.106 12.366-2.815 9.369-2.349 10.704-2.924 9.153-2.703 11.827-3.756 8.948-3.018 10.949-3.838 8.887-3.163 10.973-3.913 9.658-3.466 11.136-4.055 9.134-3.379 12.067-4.528 9.341-3.534 10.917-4.137 12.56-4.748 11.994-4.521 12.94-4.865 12.38-4.644 12.414-4.652 13.035-4.89 9.59-3.601 11.832-4.453 7.824-2.954 10.355-3.948 7.952-3.114 9.264-3.798 7.524-3.226 9.057-4.005 8.476-3.837 8.933-4.136 8.913-4.252 12.122-6.009 8.945-4.6 9.007-4.754 8.96-4.843 7.786-4.311 6.588-3.734 7.312-4.223 6.311-3.699 6.512-3.87 5.109-3.08 5.446-3.33 3.869-2.406 3.783-2.398 2.993-1.938 3.547-2.346 2.465-1.68 3.217-2.296 2.729-2.088 3.02-2.496 3.122-2.78 2.665-2.561 2.196-2.318 2.636-3.195 1.755-2.587 1.9-3.573 1.446-3.777.962-3.711.493-3.095.21-3.838-.196-3.347-.702-4.018-.85-3.02-1.387-3.625-1.058-2.198-2.14-3.595-2.398-3.191-2.75-2.975-3.257-2.982-3.307-2.766-3.753-3.01-2.538-2.017-4.06-3.274-3.926-3.283-2.453-2.134-4.089-3.763-3.683-3.717-3.442-3.93-2.537-3.372-2.535-4.101-1.793-3.707-1.713-4.987-.851-4.161-.359-4.763.096-2.962.624-4.714 1.238-4.932 1.785-4.802 1.857-3.823 2.53-4.182 2.95-3.91 3.357-3.518 3.968-3.19 4.309-2.551 3.76-1.619 4.215-1.31 3.497-.812 4.824-.902 4.054-.64 5.476-.736 5.294-.573 5.018-.417 4.346-.266 5.657-.267 2.972-.165 5.23-.453 5.468-.77 5.03-1.043 5.197-1.49 5.036-1.879 4.627-2.076 4.823-2.473 4.744-2.72 4.643-2.982 4.231-3.08 3.034-2.498 3.775-3.54 2.693-2.9 2.83-3.536 1.673-2.384 1.591-2.458 1.277-2.079 1.224-2.067 1.064-1.877 1.188-2.239 1.152-2.454 1.041-2.64.714-2.216.602-2.53.365-2.398.172-2.405-.002-1.952-.206-2.547-.344-1.925-.727-2.474-.715-1.71-1.2-2.215-1.25-1.855-1.595-2.046-1.386-1.634-1.778-2.028-1.595-1.835-1.843-2.198-1.58-2.02-1.876-2.759-1.094-1.952-1.203-2.766-.752-2.376-.633-3.073-.27-2.608.004-3.523.401-3.398.845-3.67 1.136-3.492 1.313-3.315 1.328-2.9 1.881-3.6 1.684-2.94 2.335-3.911 1.895-3.26 1.848-3.526 1.382-3.081 1.406-4.064.709-3.119.413-3.81-.022-3.034-.46-3.836-.589-2.594-1.164-3.484-1.13-2.498-1.674-2.84-1.583-2.1-2.336-2.467-1.815-1.604-2.79-2.078-2.49-1.495-3.438-1.648-3.284-1.216-3.528-1.005-3.789-.824-4.057-.695-3.783-.523-4.3-.483-3.933-.351-5.441-.36-5.105-.223-5.775-.152-4.944-.075" stroke-width="12" stroke="#4fafdf" fill="none"/>
  <path d="m673.988-261.772-5.41-.024-7.382-.02-7.284-.054-8.52-.155-6.849-.188-8.062-.24-6.717-.194-9.03-.235-7.633-.2-9.508-.28-8.013-.252-9.888-.3-9.503-.256-17.06-.41-19.52-.47-19.522-.538-20.007-.547-17.717-.446-6.212-.148-11.144-.256-11.99-.261-12.118-.246-11.552-.222-12.388-.243-12.538-.271-11.927-.288-21.925-.599-19.986-.61-13.237-.427-9.425-.307-12.66-.405-12.778-.391-13.674-.396-11.367-.312-13.096-.35-10.72-.29-14.125-.384-10.883-.296-14.35-.415-11.882-.392-13.693-.507-12.061-.461-14.742-.548-13.98-.51-15.844-.602-15.076-.605-11.593-.463-14.363-.552-15.359-.568-14.55-.527-11.886-.43-14.709-.528-12.935-.464-15.812-.565-15.9-.565-15.029-.535-13.22-.478-16.098-.595-15.078-.572-15.003-.582-12.09-.48-15.745-.637-12.116-.5-16.03-.676-13.293-.57-15.392-.671-12.626-.56-16.647-.752-12.793-.587-15.702-.733-16.572-.789-29.681-1.447-25.606-1.268-24.117-1.207-21.243-1.02-10.42-.456-11.688-.476-10.837-.408-10.627-.37-8.399-.285-11.118-.407-8.074-.337-8.606-.406-8.759-.43-8.11-.357-8.51-.32-7.909-.266-8.296-.257-7.55-.24-5.73-.214-6.81-.31-4.889-.256-5.863-.32-4.33-.234-5.663-.295-4.458-.21-5.572-.227-4.023-.136-4.793-.128-3.309-.053-3.876.002-2.066.043-3.138.148-2.474.212-2.767.376-2.131.416-2.89.778-2.08.755-2.377 1.11-1.786 1.032-2.04 1.42-1.66 1.382-1.826 1.857-1.236 1.545-1.416 2.204-1.075 2.16-.983 2.702-.513 2.063-.419 3.111-.045 2.524.32 3.245.592 2.7 1.141 3.384 1.331 3.01 1.978 3.778 1.77 2.967 2.513 3.605 2.526 3.006 3.048 3.014 3.823 3.143 4.132 2.984 4.35 2.978 4.295 2.874 3.65 2.4 4.701 2.998 3.982 2.416 5.354 2.965 4.552 2.23 5.457 2.344 4.62 1.739 6.276 2.03 4.96 1.367 7.043 1.667 5.186 1.051 6.487 1.116 5.316.704 6.181.49 8.678.018 6.602-.52 6.597-.907 6.639-1.14 5.869-1.116 7.195-1.548 7.638-2.04 5.49-1.795 6.714-2.602 7.099-3.107 6.305-2.79 5.596-2.334 7.046-2.714 6.284-2.27 6.825-2.406 6.448-2.235 7.953-2.65 6.185-1.944 7.734-2.269 6.867-1.857 8.469-2.061 7.073-1.499 8.2-1.449 6.748-.952 8.923-.929 6.896-.464 9.104-.28 7.017.04 8.687.352 5.453.385 7.106.692 8.764 1.166 9.317 1.642 8.189 1.794 7.08 1.82 14.06 4.36 9.105 3.335" stroke-width="12" stroke="#f7d347" fill="none"/>
</svg>
