<?xml version="1.0" standalone="no"?>
<svg xmlns:xlink="http://www.w3.org/1999/xlink" id="s2" class="track" xmlns="http://www.w3.org/2000/svg" preserveAspectRatio="xMinYMid meet" height="800px" width="600px" viewBox="-1200 -700 3000 3000">
            <path d="M -181.6956 -239.3216 L -175.4014 -236.5618 L -168.3041 -233.2896 L -161.6676 -230.1131 L -154.6714 -226.6567 L -148.1326 -223.3265 L -142.8385 -220.5696 L -135.9173 -216.9282 L -130.6177 -214.125 L -123.6616 -210.3908 L -117.9001 -207.2256 L -110.8549 -203.2533 L -103.7507 -199.1259 L -97.014 -195.1122 L -91.4955 -191.7847 L -84.2075 -187.3683 L -78.162 -183.694 L -70.7505 -179.1987 L -63.7148 -174.9655 L -56.1812 -170.4611 L -49.0371 -166.2039 L -35.9565 -158.4379 L -22.2407 -150.3335 L -8.3578 -142.1693 L 5.2494 -134.2063 L 17.5723 -127.0276 L 25.7008 -122.3091 L 32.4372 -118.4087 L 40.1845 -113.934 L 47.9794 -109.4423 L 55.8238 -104.9184 L 62.6982 -100.9386 L 71.0788 -96.0568 L 79.0042 -91.4151 L 93.9575 -82.6603 L 108.8762 -74.0058 L 116.8958 -69.3624 L 124.3527 -65.0289 L 129.9703 -61.7496 L 135.8973 -58.2748 L 141.3038 -55.0911 L 146.5061 -52.001 L 150.1183 -49.8196 L 154.1644 -47.3257 L 157.1874 -45.4214 L 160.7407 -43.1326 L 163.841 -41.0901 L 167.601 -38.531 L 170.6757 -36.3345 L 174.1085 -33.6958 L 176.9959 -31.255 L 180.1368 -28.2967 L 182.6987 -25.537 L 185.3206 -22.1618 L 187.2704 -19.0134 L 189.0508 -15.2298 L 190.1403 -12.0483 L 191.0684 -8.048 L 191.5638 -4.0008 L 191.6625 .0618 L 191.4845 3.3557 L 190.9274 7.3591 L 190.0863 10.775 L 188.5179 14.9859 L 186.6859 18.5128 L 184.3154 22.0426 L 181.551 25.3876 L 178.6613 28.4313 L 175.3379 31.6306 L 171.7814 34.8359 L 168.4757 37.7084 L 165.5155 40.249 L 161.5763 43.6882 L 158.5812 46.4088 L 154.9812 49.8456 L 151.9347 52.9271 L 148.6241 56.5625 L 145.9368 59.8818 L 143.021 64.1145 L 140.937 67.7626 L 138.8537 72.0766 L 137.2116 75.9436 L 135.3628 80.7381 L 134.1721 84.1884 L 132.7336 89.1703 L 131.8247 93.342 L 131.1394 98.1307 L 130.8802 102.2862 L 130.9155 107.2606 L 131.104 111.8735 L 131.2407 116.7486 L 131.19 121.6401 L 130.9842 126.2746 L 130.6032 130.9471 L 129.9604 135.9467 L 129.2308 140.0783 L 128.0897 145.1089 L 126.6414 150.1441 L 124.8726 155.1631 L 122.9184 159.8522 L 121.0038 163.9286 L 118.4508 168.8427 L 116.0061 173.1398 L 113.0248 177.9478 L 109.7848 182.6218 L 106.2525 187.0845 L 102.6455 191.0313 L 98.5327 194.9345 L 94.45 198.3602 L 86.7053 204.1174 L 78.6125 209.3718 L 73.9657 212.0068 L 69.1713 214.4089 L 59.7783 218.2322 L 49.594 221.4019 L 45.2219 222.5938 L 40.0875 223.8983 L 29.5337 226.1412 L 18.5756 227.7424 L 6.8405 228.7307 L -4.5667 228.9769 L -16.8321 228.553 L -29.5615 227.4149 L -42.7705 225.5154 L -56.4138 222.794 L -70.4076 219.2515 L -83.1957 215.3439 L -90.8405 212.6907 L -97.079 210.3385 L -105.259 206.9937 L -111.526 204.2296 L -119.2267 200.5734 L -125.9461 197.1402 L -133.5883 192.9702 L -141.6574 188.2792 L -149.1813 183.6695 L -156.6589 178.9456 L -164.5165 173.9432 L -171.872 169.2797 L -177.8066 165.5274 L -185.0528 160.9279 L -191.2984 156.9438 L -198.7341 152.2064 L -204.2259 148.7271 L -210.7244 144.6446 L -220.9638 138.3034 L -232.7785 131.0389 L -239.1633 127.1084 L -245.9847 122.8967 L -250.0199 120.399 L -255.2874 117.1367 L -262.1223 112.9128 L -268.4113 109.0475 L -274.1452 105.5469 L -281.9202 100.8404 L -285.4674 98.728 L -289.8846 96.1657 L -294.9805 93.3391 L -299.2174 91.1082 L -304.2342 88.5952 L -307.7051 86.9322 L -312.2842 84.8424 L -316.2886 83.1319 L -321.4537 81.1319 L -325.2016 79.8637 L -329.8481 78.5041 L -333.6569 77.5652 L -337.7894 76.7227 L -342.5359 75.9321 L -345.5152 75.5176 L -352.6931 74.7398 L -364.3954 74.2267 L -368.2808 74.3308 L -373.3513 74.6631 L -377.2263 75.0359 L -382.3041 75.662 L -387.0887 76.4347 L -391.868 77.4217 L -395.76 78.3881 L -400.5821 79.7767 L -404.8328 81.1744 L -409.7232 82.9885 L -412.7966 84.2436 L -417.7494 86.4549 L -424.9106 90.0131 L -429.9442 92.6945 L -435.0814 95.513 L -440.6562 98.5618 L -446.3356 101.5413 L -451.7456 104.195 L -457.5268 106.7775 L -461.9528 108.5345 L -467.388 110.389 L -471.7851 111.6192 L -477.4922 112.8255 L -481.8129 113.4458 L -487.7367 113.9651 L -491.6766 114.148 L -497.2572 114.2085 L -501.5248 114.0908 L -507.426 113.6601 L -511.9977 113.0837 L -517.1782 112.1357 L -522.5978 110.7819 L -527.6288 109.2073 L -531.6643 107.737 L -536.8674 105.5546 L -540.7801 103.6825 L -545.5038 101.1357 L -549.2607 98.8791 L -554.09 95.7105 L -557.4547 93.3623 L -562.2026 89.9209 L -566.9495 86.387 L -571.7272 82.7977 L -575.4274 80.0544 L -580.0491 76.7096 L -584.7527 73.4131 L -589.8361 69.9945 L -594.7079 66.9253 L -599.0468 64.4408 L -604.4243 61.7311 L -609.603 59.5262 L -615.2117 57.5657 L -619.5695 56.3051 L -624.9993 54.9925 L -629.4554 54.0998 L -634.9784 53.2076 L -639.8453 52.6119 L -645.7934 52.1574 L -650.7156 52.0412 L -656.351 52.2147 L -662.3233 52.7692 L -668.283 53.6771 L -672.8237 54.5921 L -678.7244 56.0644 L -684.5678 57.8251 L -689.9817 59.7154 L -694.3023 61.3795 L -699.4944 63.5511 L -703.5845 65.4152 L -708.6827 68.0028 L -712.614 70.2805 L -716.7943 73.0445 L -720.1733 75.5859 L -723.9237 78.7483 L -727.4194 82.0055 L -730.3694 84.9859 L -733.0433 87.8605 L -736.0013 91.2479 L -738.2811 94.0831 L -740.9024 97.6783 L -743.4333 101.6185 L -745.5587 105.4194 L -747.6872 109.7842 L -749.1658 113.2368 L -750.6658 117.2306 L -751.8055 120.7391 L -752.8881 124.7219 L -753.6335 128.1682 L -754.2639 132.0601 L -754.6327 135.4233 L -754.8453 139.2106 L -754.6859 145.2332 L -754.2805 148.8708 L -753.6493 152.4465 L -751.9518 158.7201 L -749.4592 164.8418 L -746.1941 170.4359 L -742.3258 175.2128 L -737.6499 179.5629 L -732.4112 183.5505 L -726.2214 187.3833 L -722.3908 189.3074 L -718.5914 190.8831 L -711.1466 193.2009 L -702.8679 194.8794 L -693.383 196.0384 L -682.9904 196.7238 L -672.1533 196.9369 L -665.4898 196.8369 L -658.6116 196.638 L -651.9442 196.486 L -644.6622 196.4445 L -637.1906 196.5987 L -629.5728 196.9591 L -623.6589 197.3675 L -615.8217 198.0825 L -609.2886 198.8358 L -601.7292 199.8763 L -595.0344 200.9266 L -586.8022 202.3446 L -580.4305 203.4906 L -572.9843 204.8231 L -563.9178 206.3879 L -556.2471 207.643 L -549.5292 208.6801 L -540.6313 209.9725 L -531.6136 211.2048 L -522.4835 212.3684 L -513.2338 213.4258 L -504.4168 214.2993 L -495.4896 215.0452 L -488.1567 215.5431 L -478.9965 216.0097 L -463.1212 216.476 L -445.3554 216.6059 L -425.5951 216.3016 L -406.5084 215.6574 L -386.2361 214.8507 L -375.3473 214.3971 L -363.1883 213.8853 L -354.4783 213.5305 L -343.9155 213.1255 L -333.0374 212.7437 L -323.1834 212.4483 L -313.1709 212.2412 L -303.5912 212.1634 L -294.2482 212.2173 L -285.4892 212.3787 L -278.3784 212.5825 L -269.037 212.9438 L -263.5277 213.2137 L -258.01 213.5367 L -250.2758 214.0939 L -241.4315 214.8996 L -232.0318 215.9615 L -223.1807 217.1578 L -213.7625 218.651 L -204.2808 220.388 L -195.3003 222.2394 L -186.8058 224.1583 L -178.8173 226.1038 L -169.0401 228.6572 L -160.9318 230.8942 L -150.9997 233.737 L -141.5595 236.5306 L -131.4593 239.6429 L -121.3083 242.9 L -105.0664 248.2847 L -95.3443 251.4921 L -85.5514 254.6559 L -68.2983 260.0168 L -58.4285 262.9133 L -47.9826 265.8358 L -39.4052 268.1382 L -29.0221 270.8076 L -19.8831 273.0271 L -9.5496 275.3535 L .7837 277.4345 L 11.1245 279.2357 L 19.0488 280.4242 L 29.4348 281.7556 L 38.0243 282.6895 L 47.9624 283.5992 L 56.137 284.2037 L 66.9476 284.7782 L 77.8922 285.0845 L 88.9686 285.1233 L 106.1439 284.5945 L 110.815 284.322 L 121.5739 283.5159 L 133.1791 282.4131 L 143.5726 281.2407 L 152.6949 280.0703 L 164.0556 278.4226 L 173.3797 276.9105 L 185.6889 274.7019 L 195.8986 272.688 L 209.0252 269.8224 L 217.7126 267.7326 L 229.1812 264.7199 L 238.4073 262.0816 L 250.2912 258.4106 L 259.2534 255.4543 L 269.5418 251.8993 L 279.1102 248.507 L 290.0667 244.6021 L 310.7893 237.1458 L 331.1932 229.5834 L 352.0566 221.6936 L 363.8276 217.2387 L 376.4727 212.4665 L 388.5874 207.9072 L 401.6349 203.0086 L 414.0669 198.3491 L 426.4414 193.7104 L 436.9788 189.7548 L 448.4166 185.4538 L 457.1492 182.1637 L 467.8004 178.1237 L 475.3962 175.1906 L 484.7888 171.4236 L 492.352 168.2417 L 501.4412 164.272 L 510.4543 160.2265 L 518.8911 156.3571 L 527.8138 152.1558 L 548.8498 141.6983 L 557.8447 136.9983 L 566.8374 132.1853 L 575.2065 127.5985 L 583.3862 122.9976 L 589.3276 119.5839 L 597.2103 114.9837 L 602.6688 111.7531 L 608.7291 108.1171 L 613.4421 105.2502 L 618.3979 102.1873 L 621.8812 99.9947 L 625.5928 97.6062 L 628.3181 95.8174 L 631.6247 93.5907 L 634.0576 91.8863 L 637.4114 89.3891 L 640.0812 87.2384 L 643.0507 84.6677 L 645.937 81.9846 L 648.6912 79.1719 L 650.7772 76.7736 L 653.1944 73.455 L 654.7496 70.7707 L 656.4636 66.8515 L 657.5114 63.4259 L 658.5631 56.2917 L 658.0374 49.1349 L 656.1063 42.4142 L 653.1884 36.5077 L 650.9493 33.2265 L 648.1773 29.9757 L 645.2274 27.116 L 642.0159 24.3491 L 638.3635 21.3777 L 635.1846 18.8511 L 631.1602 15.6251 L 627.0066 12.1829 L 621.3904 7.2246 L 617.627 3.5881 L 613.8547 -.493 L 608.4847 -7.8005 L 604.6363 -16.0937 L 602.889 -25.0012 L 603.2326 -32.9969 L 604.1906 -37.6728 L 605.7551 -42.5342 L 609.782 -50.6967 L 612.5543 -54.7468 L 615.9432 -58.6595 L 619.7726 -62.0609 L 623.7119 -64.6954 L 627.3801 -66.5278 L 631.7922 -68.1176 L 635.2368 -69.0222 L 639.9901 -69.9887 L 643.9899 -70.6635 L 649.3962 -71.4401 L 654.3192 -72.0239 L 659.6521 -72.5236 L 664.0037 -72.8288 L 669.3419 -73.102 L 677.9158 -73.6289 L 683.0975 -74.2425 L 688.4957 -75.2091 L 693.4442 -76.4683 L 698.5416 -78.1908 L 703.5021 -80.2751 L 708.0744 -82.5095 L 712.8506 -85.1274 L 717.5383 -87.9972 L 722.1018 -91.1522 L 725.9565 -94.1989 L 729.105 -97.0295 L 732.5862 -100.6182 L 734.9274 -103.4043 L 737.1971 -106.4989 L 738.6246 -108.6491 L 739.9965 -110.8406 L 741.3068 -113.0186 L 742.5256 -115.1365 L 743.5769 -117.0666 L 744.7797 -119.5006 L 745.8261 -121.9812 L 746.6569 -124.3396 L 747.3384 -126.8625 L 747.7762 -129.255 L 748.0201 -131.6603 L 748.0762 -133.6129 L 747.9695 -136.0146 L 747.6901 -138.1 L 747.1219 -140.4486 L 746.4464 -142.3174 L 745.3493 -144.5625 L 744.2652 -146.3217 L 742.738 -148.3991 L 741.3915 -150.039 L 739.6447 -152.0547 L 738.0648 -153.8555 L 736.1121 -156.1417 L 734.6213 -157.9781 L 732.6689 -160.6635 L 731.398 -162.7238 L 730.158 -165.2439 L 729.2945 -167.561 L 728.5204 -170.5618 L 728.1089 -173.3201 L 727.967 -176.8023 L 728.2224 -180.174 L 728.8649 -183.6057 L 729.8661 -187.0847 L 731.1589 -190.6006 L 732.4048 -193.4908 L 734.183 -197.0753 L 735.8108 -200.0075 L 738.1087 -203.8965 L 739.9009 -206.9097 L 741.9739 -210.6558 L 743.3493 -213.488 L 744.9564 -217.5434 L 745.894 -220.8944 L 746.4974 -224.7218 L 746.6208 -227.5528 L 746.3553 -231.4544 L 745.8416 -234.3236 L 744.8809 -237.6886 L 743.7756 -240.456 L 742.3246 -243.2198 L 738.6287 -248.0148 L 734.2136 -251.8517 L 728.4697 -255.2162 L 725.0764 -256.6077 L 721.644 -257.6882 L 717.9551 -258.5745 L 713.9996 -259.312 L 710.5799 -259.8322 L 706.111 -260.3837 L 702.5665 -260.7373 L 697.2682 -261.1436 L 691.961 -261.422 L 686.3148 -261.6052 L 681.8509 -261.6924 L 675.2017 -261.7643 L 669.848 -261.7918 L 662.9664 -261.8091 L 655.3064 -261.8546 L 647.3162 -261.9808 L 640.5167 -262.1553 L 632.0151 -262.4082 L 625.3279 -262.6035 L 616.3443 -262.8409 L 608.7518 -263.0377 L 599.2933 -263.309 L 591.3082 -263.5596 L 582.0169 -263.8463 L 571.9849 -264.1238 L 562.3367 -264.3635 L 554.9838 -264.5372 L 544.3956 -264.7847 L 536.1661 -264.9852 L 525.2262 -265.2753 L 516.0713 -265.5323 L 505.4804 -265.8292 L 496.093 -266.0826 L 487.3105 -266.3098 L 483.221 -266.4123 L 472.228 -266.6801 L 461.1055 -266.9383 L 449.8562 -267.1858 L 437.7619 -267.4352 L 425.5315 -267.672 L 413.1585 -267.9126 L 401.3768 -268.1613 L 388.74 -268.4592 L 376.7128 -268.7722 L 366.8551 -269.0486 L 354.6119 -269.4129 L 346.9061 -269.6516 L 334.4691 -270.0504 L 324.291 -270.3821 L 311.6508 -270.789 L 298.9023 -271.183 L 285.2343 -271.5824 L 274.695 -271.8757 L 260.8083 -272.2479 L 250.1077 -272.5363 L 236.0038 -272.9191 L 225.1342 -273.214 L 210.8145 -273.6204 L 199.7876 -273.9721 L 185.2613 -274.4991 L 174.0901 -274.926 L 159.3501 -275.4798 L 144.54 -276.0193 L 129.5901 -276.5807 L 113.6636 -277.2144 L 102.9705 -277.6448 L 87.7366 -278.2364 L 73.297 -278.7729 L 57.8528 -279.3352 L 45.9828 -279.7634 L 31.2971 -280.2913 L 19.2896 -280.7224 L 3.5233 -281.2859 L -12.355 -281.8509 L -28.3119 -282.4188 L -40.5774 -282.8602 L -56.6819 -283.4521 L -72.7191 -284.0568 L -87.7337 -284.6371 L -99.8451 -285.1148 L -114.7036 -285.7136 L -127.6956 -286.2481 L -143.6615 -286.9181 L -156.9538 -287.486 L -171.3419 -288.1109 L -184.905 -288.7101 L -201.5376 -289.4589 L -214.3204 -290.0434 L -230.0404 -290.7749 L -246.6355 -291.5619 L -263.0839 -292.3576 L -276.4207 -293.0114 L -291.0759 -293.7343 L -302.3284 -294.292 L -316.097 -294.9788 L -325.999 -295.476 L -338.2948 -296.0862 L -348.1036 -296.5495 L -358.5364 -297.0119 L -370.255 -297.4951 L -381.1257 -297.9109 L -391.7963 -298.2869 L -410.8771 -298.9522 L -419.1135 -299.2854 L -428.3922 -299.7118 L -436.6785 -300.1201 L -445.3249 -300.5137 L -453.851 -300.8438 L -461.7771 -301.114 L -470.0977 -301.3745 L -477.7186 -301.6123 L -483.5384 -301.8211 L -490.0938 -302.1071 L -495.046 -302.3593 L -501.3003 -302.6988 L -505.6438 -302.9347 L -511.3373 -303.2356 L -515.8262 -303.4528 L -521.4542 -303.6889 L -525.5358 -303.8328 L -530.4249 -303.971 L -533.8036 -304.0339 L -537.7689 -304.0465 L -539.8787 -304.013 L -543.0388 -303.885 L -545.3412 -303.7121 L -548.3171 -303.3487 L -553.2181 -302.2719 L -557.9084 -300.4249 L -561.7963 -298.0287 L -565.347 -294.8525 L -568.069 -291.1691 L -569.1779 -289.0519 L -570.209 -286.3966 L -571.2302 -281.4776 L -571.1135 -275.58 L -569.5331 -269.512 L -566.3537 -262.7629 L -562.1945 -256.1776 L -556.553 -249.8883 L -552.9993 -246.8908 L -548.912 -243.8893 L -544.8582 -241.0946 L -540.6129 -238.2407 L -536.995 -235.8504 L -532.0685 -232.6794 L -528.1147 -230.2494 L -522.7897 -227.2373 L -518.6057 -225.1265 L -513.2145 -222.7267 L -508.6356 -220.938 L -502.4263 -218.8441 L -497.1244 -217.3279 L -490.5045 -215.7071 L -484.9417 -214.538 L -478.882 -213.4491 L -473.5776 -212.6794 L -466.9926 -212.0636 L -461.2099 -211.8875 L -454.5983 -212.121 L -447.5915 -212.8577 L -438.4896 -214.3195 L -433.0433 -215.3335 L -425.4493 -216.9144 L -418.2329 -218.753 L -405.5961 -223.1249 L -398.9247 -225.9975 L -392.2039 -228.9894 L -379.6203 -234.0946 L -366.5499 -238.7865 L -352.6638 -243.5388 L -338.3174 -247.9514 L -323.5247 -251.8214 L -307.7956 -254.9829 L -292.1591 -256.9752 L -276.1915 -257.8354 L -260.5072 -257.5562 L -248.4971 -256.6242 L -239.1935 -255.4679 L -229.874 -253.9001 L -221.6809 -252.1714 L -214.5972 -250.4078 L -205.9185 -247.9038 L -200.5241 -246.1581 L -191.9393 -243.0901 L -182.8868 -239.4759 z" stroke-width="28" stroke="black" fill="none" id="Track"/><path d="M -181.6956 -239.3216 L -175.4014 -236.5618 L -168.3041 -233.2896 L -161.6676 -230.1131 L -154.6714 -226.6567 L -148.1326 -223.3265 L -142.8385 -220.5696 L -135.9173 -216.9282 L -130.6177 -214.125 L -123.6616 -210.3908 L -117.9001 -207.2256 L -110.8549 -203.2533 L -103.7507 -199.1259 L -97.014 -195.1122 L -91.4955 -191.7847 L -84.2075 -187.3683 L -78.162 -183.694 L -70.7505 -179.1987 L -63.7148 -174.9655 L -56.1812 -170.4611 L -49.0371 -166.2039 L -35.9565 -158.4379 L -22.2407 -150.3335 L -8.3578 -142.1693 L 5.2494 -134.2063 L 17.5723 -127.0276 L 25.7008 -122.3091 L 32.4372 -118.4087 L 40.1845 -113.934 L 47.9794 -109.4423 L 55.8238 -104.9184 L 62.6982 -100.9386 L 71.0788 -96.0568 L 79.0042 -91.4151 L 93.9575 -82.6603 L 108.8762 -74.0058 L 116.8958 -69.3624 L 124.3527 -65.0289 L 129.9703 -61.7496 L 135.8973 -58.2748 L 141.3038 -55.0911 L 146.5061 -52.001 L 150.1183 -49.8196 L 154.1644 -47.3257 L 157.1874 -45.4214 L 160.7407 -43.1326 L 163.841 -41.0901 L 167.601 -38.531 L 170.6757 -36.3345 L 174.1085 -33.6958 L 176.9959 -31.255 L 180.1368 -28.2967 L 182.6987 -25.537 L 185.3206 -22.1618 L 187.2704 -19.0134 L 189.0508 -15.2298 L 190.1403 -12.0483 L 191.0684 -8.048 L 191.5638 -4.0008 L 191.6625 .0618 L 191.4845 3.3557 L 190.9274 7.3591 L 190.0863 10.775 L 188.5179 14.9859 L 186.6859 18.5128 L 184.3154 22.0426 L 181.551 25.3876 L 178.6613 28.4313 L 175.3379 31.6306 L 171.7814 34.8359 L 168.4757 37.7084 L 165.5155 40.249 L 161.5763 43.6882 L 158.5812 46.4088 L 154.9812 49.8456 L 151.9347 52.9271 L 148.6241 56.5625 L 145.9368 59.8818 L 143.021 64.1145 L 140.937 67.7626 L 138.8537 72.0766 L 137.2116 75.9436 L 135.3628 80.7381 L 134.1721 84.1884 L 132.7336 89.1703 L 131.8247 93.342 L 131.1394 98.1307 L 130.8802 102.2862 L 130.9155 107.2606 L 131.104 111.8735 L 131.2407 116.7486 L 131.19 121.6401 L 130.9842 126.2746 L 130.6032 130.9471 L 129.9604 135.9467 L 129.2308 140.0783 L 128.0897 145.1089 L 126.6414 150.1441 L 124.8726 155.1631 L 122.9184 159.8522 L 121.0038 163.9286 L 118.4508 168.8427 L 116.0061 173.1398 L 113.0248 177.9478 L 109.7848 182.6218 L 106.2525 187.0845 L 102.6455 191.0313 L 98.5327 194.9345 L 94.45 198.3602 L 86.7053 204.1174 L 78.6125 209.3718 L 73.9657 212.0068 L 69.1713 214.4089 L 59.7783 218.2322 L 49.594 221.4019 L 45.2219 222.5938 L 40.0875 223.8983 L 29.5337 226.1412 L 18.5756 227.7424 L 6.8405 228.7307 L -4.5667 228.9769 L -16.8321 228.553 L -29.5615 227.4149 L -42.7705 225.5154 L -56.4138 222.794 L -70.4076 219.2515 L -83.1957 215.3439 L -90.8405 212.6907 L -97.079 210.3385 L -105.259 206.9937 L -111.526 204.2296 L -119.2267 200.5734 L -125.9461 197.1402 L -133.5883 192.9702 L -141.6574 188.2792 L -149.1813 183.6695 L -156.6589 178.9456 L -164.5165 173.9432 L -171.872 169.2797 L -177.8066 165.5274 L -185.0528 160.9279 L -191.2984 156.9438 L -198.7341 152.2064 L -204.2259 148.7271 L -210.7244 144.6446 L -220.9638 138.3034 L -232.7785 131.0389 L -239.1633 127.1084 L -245.9847 122.8967 L -250.0199 120.399 L -255.2874 117.1367 L -262.1223 112.9128 L -268.4113 109.0475 L -274.1452 105.5469 L -281.9202 100.8404 L -285.4674 98.728 L -289.8846 96.1657 L -294.9805 93.3391 L -299.2174 91.1082 L -304.2342 88.5952 L -307.7051 86.9322 L -312.2842 84.8424 L -316.2886 83.1319 L -321.4537 81.1319 L -325.2016 79.8637 L -329.8481 78.5041 L -333.6569 77.5652 L -337.7894 76.7227 L -342.5359 75.9321 L -345.5152 75.5176 L -352.6931 74.7398 L -364.3954 74.2267 L -368.2808 74.3308 L -373.3513 74.6631 L -377.2263 75.0359 L -382.3041 75.662 L -387.0887 76.4347 L -391.868 77.4217 L -395.76 78.3881 L -400.5821 79.7767 L -404.8328 81.1744 L -409.7232 82.9885 L -412.7966 84.2436 L -417.7494 86.4549 L -424.9106 90.0131 L -429.9442 92.6945 L -435.0814 95.513 L -440.6562 98.5618 L -446.3356 101.5413 L -451.7456 104.195 L -457.5268 106.7775 L -461.9528 108.5345 L -467.388 110.389 L -471.7851 111.6192 L -477.4922 112.8255 L -481.8129 113.4458 L -487.7367 113.9651 L -491.6766 114.148 L -497.2572 114.2085 L -501.5248 114.0908 L -507.426 113.6601 L -511.9977 113.0837 L -517.1782 112.1357 L -522.5978 110.7819 L -527.6288 109.2073 L -531.6643 107.737 L -536.8674 105.5546 L -540.7801 103.6825 L -545.5038 101.1357 L -549.2607 98.8791 L -554.09 95.7105 L -557.4547 93.3623 L -562.2026 89.9209 L -566.9495 86.387 L -571.7272 82.7977 L -575.4274 80.0544 L -580.0491 76.7096 L -584.7527 73.4131 L -589.8361 69.9945 L -594.7079 66.9253 L -599.0468 64.4408 L -604.4243 61.7311 L -609.603 59.5262 L -615.2117 57.5657 L -619.5695 56.3051 L -624.9993 54.9925 L -629.4554 54.0998 L -634.9784 53.2076 L -639.8453 52.6119 L -645.7934 52.1574 L -650.7156 52.0412 L -656.351 52.2147 L -662.3233 52.7692 L -668.283 53.6771 L -672.8237 54.5921 L -678.7244 56.0644 L -684.5678 57.8251 L -689.9817 59.7154 L -694.3023 61.3795 L -699.4944 63.5511 L -703.5845 65.4152 L -708.6827 68.0028 L -712.614 70.2805 L -716.7943 73.0445 L -720.1733 75.5859 L -723.9237 78.7483 L -727.4194 82.0055 L -730.3694 84.9859 L -733.0433 87.8605 L -736.0013 91.2479 L -738.2811 94.0831 L -740.9024 97.6783 L -743.4333 101.6185 L -745.5587 105.4194 L -747.6872 109.7842 L -749.1658 113.2368 L -750.6658 117.2306 L -751.8055 120.7391 L -752.8881 124.7219 L -753.6335 128.1682 L -754.2639 132.0601 L -754.6327 135.4233 L -754.8453 139.2106 L -754.6859 145.2332 L -754.2805 148.8708 L -753.6493 152.4465 L -751.9518 158.7201 L -749.4592 164.8418 L -746.1941 170.4359 L -742.3258 175.2128 L -737.6499 179.5629 L -732.4112 183.5505 L -726.2214 187.3833 L -722.3908 189.3074 L -718.5914 190.8831 L -711.1466 193.2009 L -702.8679 194.8794 L -693.383 196.0384 L -682.9904 196.7238 L -672.1533 196.9369 L -665.4898 196.8369 L -658.6116 196.638 L -651.9442 196.486 L -644.6622 196.4445 L -637.1906 196.5987 L -629.5728 196.9591 L -623.6589 197.3675 L -615.8217 198.0825 L -609.2886 198.8358 L -601.7292 199.8763 L -595.0344 200.9266" stroke-width="12" stroke="#e73323" fill="none" id="S1"/><path d="M -592.1391 201.4124 L -577.4584 204.0259 L -569.4704 205.4384 L -560.8631 206.8963 L -545.8765 209.221 L -536.9335 210.4866 L -527.8636 211.695 L -518.6841 212.8195 L -509.9404 213.7677 L -501.0822 214.5947 L -491.5509 215.3263 L -484.1714 215.767 L -474.9363 216.1657 L -469.0706 216.3443 L -459.4993 216.5338 L -451.5687 216.604 L -440.962 216.5789 L -432.0562 216.4521 L -421.0528 216.1702 L -412.4984 215.8805 L -401.817 215.4764 L -393.0285 215.1273 L -381.4714 214.6538 L -370.6086 214.1969 L -359.1604 213.7193 L -350.4866 213.3739 L -339.3874 212.9619 L -328.6808 212.6044 L -319.0023 212.3482 L -309.1761 212.193 L -300.2783 212.1677 L -290.961 212.2659 L -283.852 212.4201 L -274.537 212.7182 L -266.8348 213.0459 L -261.3142 213.3365 L -254.1389 213.7993 L -246.9593 214.3743 L -238.108 215.2507 L -228.7134 216.3872 L -219.2892 217.7466 L -209.8712 219.3357 L -200.9255 221.0574 L -191.9104 222.9862 L -174.8057 227.1302 L -156.8539 232.0501 L -147.4686 234.77 L -137.4109 237.7927 L -127.283 240.9682 L -117.1142 244.2781 L -111.1029 246.2741 L -100.8225 249.6917 L -91.6667 252.6887 L -81.8626 255.8282 L -73.8508 258.3282 L -64.5964 261.1193 L -54.1267 264.1336 L -43.6918 266.998 L -35.1273 269.2549 L -25.3673 271.7114 L -15.629 274.0115 L -5.2957 276.2423 L 5.0403 278.211 L 23.3172 281.0005 L 41.7352 283.0505 L 60.5741 284.472 L 79.8382 285.111 L 90.9359 285.1007 L 96.863 284.9747 L 108.8106 284.4452 L 112.8232 284.1895 L 125.6492 283.1542 L 137.3192 281.9666 L 148.4723 280.6286 L 157.6462 279.3787 L 169.0677 277.6273 L 178.4337 276.0324 L 190.7968 273.7169 L 201.0109 271.6105 L 213.3773 268.7956 L 222.746 266.447 L 233.4505 263.5226 L 242.6029 260.8199 L 254.43 257.064 L 263.3778 254.0463 L 274.3265 250.2085 L 283.2137 247.0448 L 294.1869 243.1316 L 303.845 239.6658 L 314.9807 235.6113 L 324.1149 232.2322 L 336.1817 227.7042 L 345.5231 224.1696 L 356.4402 220.0333 L 368.999 215.2854 L 380.9933 210.7639 L 393.9322 205.8992 L 406.3132 201.2546 L 418.7269 196.6028 L 431.7621 191.7139 L 441.3512 188.1116 L 453.1837 183.6589 L 461.0083 180.7053 L 471.3634 176.7566 L 479.3154 173.6425 L 488.579 169.845 L 496.1035 166.6194 L 505.1601 162.6139 L 513.6362 158.7771 L 522.5685 154.6411 L 531.4821 150.389 L 543.6037 144.3801 L 552.5488 139.7803 L 561.5556 135.0258 L 570.5156 130.1835 L 578.3023 125.8717 L 584.8903 122.1385 L 592.2015 117.9154 L 598.5131 114.2162 L 605.0246 110.3461 L 610.1337 107.2663 L 615.5803 103.9356 L 619.4487 101.5298 L 623.2323 99.1318 L 626.2253 97.194 L 629.7722 94.848 L 632.2371 93.1677 L 635.4541 90.8716 L 638.1825 88.7842 L 641.2039 86.2879 L 644.3253 83.5073 L 646.9897 80.9467 L 649.1862 78.6288 L 651.8217 75.4339 L 653.5767 72.8467 L 655.4765 69.2739 L 656.923 65.4974 L 657.8849 61.786 L 658.3782 58.6914 L 658.588 54.8527 L 658.3919 51.5062 L 657.6898 47.4882 L 656.8407 44.4681 L 655.4535 40.8426 L 654.3952 38.6455 L 652.2552 35.0496 L 649.8568 31.8585 L 647.1063 28.884 L 643.85 25.9019 L 640.5428 23.1356 L 636.7902 20.1255 L 634.2522 18.1094 L 630.1919 14.8352 L 626.2664 11.5522 L 623.8134 9.4178 L 619.724 5.6549 L 616.041 1.9381 L 612.5988 -1.9928 L 610.0618 -5.3643 L 607.5273 -9.4652 L 605.7343 -13.1721 L 604.0206 -18.1592 L 603.1699 -22.3202 L 602.8112 -27.0827 L 602.9072 -30.0453 L 603.5311 -34.7589 L 604.7687 -39.691 L 606.5544 -44.4927 L 608.4112 -48.3159 L 610.9408 -52.4985 L 613.8907 -56.4078 L 617.2483 -59.9261 L 621.2156 -63.1166 L 625.525 -65.6672 L 629.2841 -67.2858 L 633.5004 -68.5951 L 636.9968 -69.4082 L 641.8214 -70.3096 L 645.8749 -70.9508 L 651.351 -71.6858 L 656.645 -72.2589 L 661.6628 -72.6756 L 666.0085 -72.9418 L 671.6658 -73.2091 L 674.638 -73.3744 L 679.868 -73.8274 L 685.3365 -74.5976 L 690.3668 -75.6399 L 695.5631 -77.1305 L 700.5992 -79.0086 L 705.2258 -81.0852 L 710.0494 -83.5576 L 714.793 -86.2775 L 719.436 -89.2598 L 723.6675 -92.3405 L 726.7012 -94.8377 L 730.4757 -98.3772 L 733.1689 -101.2784 L 735.9987 -104.814 L 737.6722 -107.1977 L 739.2631 -109.6557 L 740.5402 -111.7349 L 741.7639 -113.802 L 742.8283 -115.6795 L 744.0161 -117.9176 L 745.168 -120.3724 L 746.2094 -123.0111 L 746.9227 -125.2279 L 747.5255 -127.7572 L 747.8903 -130.1562 L 748.0616 -132.5614 L 748.0597 -134.5134 L 747.8536 -137.06 L 747.5096 -138.9854 L 746.7827 -141.4591 L 746.0681 -143.1691 L 744.868 -145.384 L 743.6174 -147.2393 L 742.0234 -149.2852 L 740.6367 -150.9186 L 738.8589 -152.9475 L 737.2639 -154.7824 L 735.4207 -156.9797 L 733.8414 -159.0002 L 731.9651 -161.7589 L 730.8715 -163.7108 L 729.6682 -166.4766 L 728.9164 -168.8527 L 728.2831 -171.926 L 728.0123 -174.5338 L 728.0173 -178.0572 L 728.4181 -181.4547 L 729.2629 -185.1243 L 730.3987 -188.6173 L 731.7125 -191.932 L 733.0398 -194.8328 L 734.9213 -198.4329 L 736.6049 -201.3726 L 738.9402 -205.2833 L 740.835 -208.5434 L 742.6835 -212.0694 L 744.0646 -215.1503 L 745.4711 -219.2138 L 746.1798 -222.3329 L 746.5935 -226.1428 L 746.5705 -229.1771 L 746.1102 -233.0131 L 745.522 -235.6074 L 744.3582 -239.0914 L 743.2289 -241.5892 L 741.5536 -244.4287 L 739.9713 -246.5286 L 737.6351 -248.9958 L 735.8199 -250.6 L 733.0291 -252.6783 L 730.5393 -254.1733 L 727.1024 -255.821 L 723.8179 -257.0374 L 720.2898 -258.0418 L 716.501 -258.8661 L 712.4444 -259.5605 L 708.6608 -260.0844 L 704.3604 -260.567 L 700.4277 -260.918 L 694.9869 -261.278 L 689.8824 -261.501 L 684.1071 -261.6533 L 679.1629 -261.7283" stroke-width="12" stroke="#4fafdf" fill="none" id="S2"/><path d="M 673.988 -261.7723 L 668.5782 -261.7958 L 661.1959 -261.8151 L 653.9116 -261.8699 L 645.3913 -262.0254 L 638.5431 -262.2129 L 630.4813 -262.4536 L 623.764 -262.6467 L 614.7338 -262.882 L 607.1008 -263.0825 L 597.5927 -263.3613 L 589.58 -263.6143 L 579.6918 -263.9138 L 570.1895 -264.1702 L 553.1294 -264.5806 L 533.6086 -265.0507 L 514.0873 -265.5885 L 494.08 -266.1354 L 476.3633 -266.5809 L 470.151 -266.729 L 459.0071 -266.9851 L 447.0173 -267.2463 L 434.8991 -267.4918 L 423.347 -267.7139 L 410.9585 -267.957 L 398.4215 -268.2281 L 386.4944 -268.5156 L 364.5694 -269.1148 L 344.5829 -269.7247 L 331.3461 -270.1516 L 321.9215 -270.4593 L 309.2604 -270.8642 L 296.4832 -271.2552 L 282.8087 -271.6513 L 271.4418 -271.9631 L 258.3455 -272.3138 L 247.6251 -272.6037 L 233.5015 -272.987 L 222.6178 -273.2828 L 208.2688 -273.6977 L 196.3856 -274.0899 L 182.6928 -274.5968 L 170.6317 -275.0583 L 155.8896 -275.6062 L 141.91 -276.116 L 126.0664 -276.7184 L 110.9897 -277.3228 L 99.3973 -277.7862 L 85.0339 -278.3383 L 69.6753 -278.9057 L 55.1258 -279.4333 L 43.2394 -279.8625 L 28.5304 -280.3909 L 15.5948 -280.8547 L -.2167 -281.4197 L -16.1172 -281.9847 L -31.1456 -282.5199 L -44.3662 -282.9978 L -60.4638 -283.5934 L -75.5415 -284.1652 L -90.5447 -284.7473 L -102.6359 -285.2261 L -118.3797 -285.864 L -130.4957 -286.3647 L -146.5269 -287.0396 L -159.8191 -287.6095 L -175.211 -288.281 L -187.8368 -288.8414 L -204.4844 -289.5927 L -217.2772 -290.1797 L -232.9792 -290.9126 L -249.5511 -291.7019 L -279.2324 -293.1495 L -304.8377 -294.417 L -328.9548 -295.6241 L -350.1982 -296.6447 L -360.6174 -297.1003 L -372.3055 -297.576 L -383.1426 -297.9843 L -393.7695 -298.3538 L -402.169 -298.6389 L -413.287 -299.0456 L -421.3614 -299.3832 L -429.9668 -299.7895 L -438.7256 -300.2185 L -446.8359 -300.5761 L -455.3452 -300.8969 L -463.2545 -301.1616 L -471.551 -301.4185 L -479.1015 -301.6592 L -484.8307 -301.8729 L -491.6414 -302.183 L -496.5296 -302.4386 L -502.3928 -302.7584 L -506.7223 -302.9933 L -512.3862 -303.2883 L -516.8437 -303.4985 L -522.4164 -303.7249 L -526.4393 -303.8612 L -531.2318 -303.9893 L -534.5408 -304.0422 L -538.4172 -304.0399 L -540.4831 -303.9966 L -543.6209 -303.8487 L -546.0948 -303.6367 L -548.8621 -303.2609 L -550.993 -302.8452 L -553.8827 -302.0675 L -555.9628 -301.3121 L -558.3398 -300.2023 L -560.1262 -299.1699 L -562.1669 -297.7499 L -563.8253 -296.3682 L -565.6521 -294.5114 L -566.8875 -292.9656 L -568.3041 -290.7618 L -569.3788 -288.6025 L -570.3621 -285.9003 L -570.8751 -283.8372 L -571.2939 -280.7259 L -571.3388 -278.2024 L -571.0191 -274.957 L -570.4272 -272.2578 L -569.2859 -268.8728 L -567.955 -265.8621 L -565.9775 -262.085 L -564.2071 -259.1184 L -561.6938 -255.5133 L -559.1682 -252.5074 L -556.1199 -249.4932 L -552.2965 -246.3504 L -548.1649 -243.3663 L -543.8153 -240.3884 L -539.5196 -237.5145 L -535.8691 -235.1149 L -531.169 -232.1158 L -527.1865 -229.6998 L -521.8334 -226.7348 L -517.281 -224.5046 L -511.8243 -222.1608 L -507.2045 -220.4223 L -500.928 -218.3928 L -495.9681 -217.0249 L -488.9255 -215.3583 L -483.7389 -214.3067 L -477.2521 -213.1912 L -471.9358 -212.4871 L -465.7545 -211.9963 L -457.0766 -211.9789 L -450.4748 -212.4994 L -443.8779 -213.406 L -437.2391 -214.5453 L -431.3702 -215.6617 L -424.1754 -217.2099 L -416.5371 -219.2492 L -411.0463 -221.0448 L -404.3329 -223.6467 L -397.234 -226.7543 L -390.9293 -229.5431 L -385.3332 -231.8784 L -378.2869 -234.5917 L -372.0034 -236.8623 L -365.1785 -239.2675 L -358.7303 -241.5031 L -350.7772 -244.1531 L -344.5917 -246.0967 L -336.8583 -248.3657 L -329.9911 -250.2226 L -321.5221 -252.2845 L -314.4485 -253.783 L -306.2482 -255.2318 L -299.5014 -256.1836 L -290.578 -257.1127 L -283.6816 -257.5774 L -274.5784 -257.8576 L -267.5613 -257.8168 L -258.8744 -257.4653 L -253.421 -257.0805 L -246.3145 -256.3882 L -237.5505 -255.2218 L -228.2339 -253.5805 L -220.045 -251.7864 L -212.9641 -249.9654 L -198.9051 -245.6065 L -189.8005 -242.2711" stroke-width="12" stroke="#f7d347" fill="none" id="S3"/></svg>