<?xml version="1.0" standalone="no"?>
<svg xmlns:xlink="http://www.w3.org/1999/xlink" id="s2" class="track" xmlns="http://www.w3.org/2000/svg" preserveAspectRatio="xMinYMid meet" height="800px" width="600px" viewBox="-1200 -700 3000 3000">
            <path d="M -386.8783 -133.9686 L -379.0452 -141.9279 L -370.7597 -150.0144 L -365.7115 -154.7512 L -359.9186 -160.0018 L -356.4752 -163.0368 L -350.2305 -168.398 L -344.9731 -172.7795 L -340.0269 -176.7894 L -334.3179 -181.2726 L -329.6344 -184.8322 L -323.4521 -189.3741 L -318.6824 -192.7624 L -312.3946 -197.0854 L -307.5491 -200.3177 L -301.2061 -204.4537 L -295.9703 -207.8046 L -290.0332 -211.5363 L -284.9624 -214.6592 L -279.4122 -218.0059 L -275.1383 -220.5439 L -269.862 -223.657 L -265.95 -225.9623 L -260.8685 -228.9552 L -257.0285 -231.204 L -252.1299 -234.0255 L -248.2185 -236.2296 L -243.9305 -238.5921 L -240.6068 -240.3812 L -237.0154 -242.2574 L -234.622 -243.4579 L -231.8919 -244.7385 L -229.4873 -245.7625 L -226.9674 -246.7128 L -224.4533 -247.5185 L -222.2473 -248.087 L -219.7764 -248.5565 L -217.4541 -248.84 L -215.537 -248.9849 L -212.9598 -249.0492 L -210.7749 -248.9811 L -205.7522 -248.4113 L -203.2734 -247.9093 L -201.093 -247.349 L -198.2007 -246.4449 L -195.9545 -245.6204 L -193.1353 -244.4299 L -190.6381 -243.2215 L -187.7712 -241.6405 L -185.6285 -240.3114 L -182.6149 -238.2122 L -179.6208 -235.875 L -174.4434 -231.4486 L -171.3161 -228.6625 L -168.0997 -225.7388 L -164.9996 -222.8493 L -161.6185 -219.6263 L -158.1628 -216.2694 L -154.8334 -213.0049 L -152.2801 -210.5156 L -148.7888 -207.1854 L -145.8802 -204.4839 L -142.2226 -201.1559 L -138.2551 -197.6005 L -134.2169 -194.0147 L -131.0821 -191.2554 L -127.159 -187.8528 L -122.9021 -184.2332 L -118.796 -180.8014 L -115.39 -177.9891 L -111.0982 -174.4859 L -107.5155 -171.5993 L -102.6809 -167.7627 L -99.1877 -165.0319 L -94.127 -161.1218 L -90.1747 -158.0924 L -84.9075 -154.0792 L -80.8058 -150.9615 L -75.3937 -146.8255 L -72.208 -144.3677 L -66.8288 -140.1457 L -62.775 -136.8875 L -57.8456 -132.8422 L -53.869 -129.5394 L -49.2932 -125.7297 L -45.3192 -122.4435 L -39.7965 -117.9223 L -35.8059 -114.6845 L -30.5558 -110.4611 L -26.5082 -107.2436 L -20.8868 -102.8509 L -15.5249 -98.7599 L -10.4341 -94.968 L -6.59 -92.1625 L -1.1048 -88.2356 L 3.1226 -85.277 L 9.0506 -81.258 L 13.3865 -78.4284 L 19.1221 -74.8189 L 23.5525 -72.1144 L 29.3976 -68.6786 L 33.9217 -66.1292 L 39.8808 -62.9086 L 44.1046 -60.6954 L 50.0685 -57.5852 L 54.9113 -54.9913 L 60.3697 -51.9435 L 65.0544 -49.214 L 70.6557 -45.8372 L 74.8756 -43.2298 L 80.3127 -39.7789 L 84.3885 -37.0918 L 89.2972 -33.7139 L 93.4925 -30.6949 L 98.1686 -27.1606 L 101.8791 -24.2207 L 106.6357 -20.2903 L 110.4906 -16.9877 L 115.1248 -12.9177 L 118.9256 -9.5314 L 123.5058 -5.4158 L 127.2589 -2.036 L 131.5218 1.7832 L 134.9712 4.8461 L 139.2028 8.5645 L 143.9337 12.6644 L 148.0398 16.1419 L 151.8951 19.3046 L 155.4395 22.1011 L 158.2131 24.1942 L 161.6402 26.6287 L 164.6908 28.6234 L 168.4689 30.853 L 171.4194 32.4024 L 175.349 34.2148 L 178.4029 35.4276 L 182.2051 36.721 L 185.5539 37.6928 L 189.6364 38.6834 L 192.5172 39.2603 L 196.3258 39.898 L 199.6082 40.3524 L 203.491 40.7821 L 206.1348 41.0004 L 209.7486 41.1835 L 213.026 41.2304 L 216.3783 41.1603 L 219.4383 40.9823 L 225.1698 40.2483 L 227.7002 39.7482 L 230.557 39.0496 L 233.5573 38.1542 L 236.3449 37.1681 L 239.2715 35.9682 L 241.9708 34.7021 L 243.9565 33.6666 L 246.7038 32.0787 L 248.7655 30.7697 L 251.2692 29.0457 L 253.4459 27.4373 L 255.9265 25.4929 L 258.3764 23.441 L 260.7713 21.2593 L 263.3401 18.6651 L 265.4795 16.2504 L 266.9882 14.3682 L 268.6239 12.1031 L 270.3336 9.4164 L 271.5183 7.3283 L 272.8157 4.8176 L 274.2778 1.6622 L 275.8435 -2.1837 L 277.0565 -5.5297 L 277.5112 -6.9193 L 278.4418 -10.1247 L 279.5334 -15.0068 L 280.0726 -18.4905 L 280.6795 -24.3444 L 280.9935 -28.0086 L 281.351 -31.7401 L 281.7502 -35.2525 L 282.2471 -38.9019 L 282.7985 -42.2353 L 283.32 -44.8698 L 284.0713 -48.0075 L 284.8447 -50.6534 L 285.873 -53.5438 L 286.8968 -55.9413 L 288.2714 -58.668 L 289.7643 -61.1897 L 291.4613 -63.6734 L 292.6407 -65.2396 L 294.3606 -67.3472 L 295.9199 -69.1059 L 298.9213 -72.1461 L 300.8097 -73.8494 L 302.7538 -75.4456 L 306.39 -78.0568 L 308.492 -79.3725 L 310.7171 -80.628 L 313.2162 -81.891 L 315.8571 -83.0773 L 317.7687 -83.8504 L 320.5571 -84.8577 L 322.7686 -85.5631 L 325.7492 -86.4065 L 328.1169 -86.9946 L 331.3334 -87.683 L 333.8853 -88.1417 L 337.1388 -88.6379 L 339.868 -88.9962 L 343.3336 -89.3794 L 346.4676 -89.6468 L 350.171 -89.8617 L 357.2242 -89.9958 L 365.0395 -89.8328 L 369.7414 -89.6575 L 374.6525 -89.4737 L 378.2442 -89.3468 L 383.5001 -89.1844 L 387.6494 -89.0998 L 392.8807 -89.0791 L 397.2211 -89.149 L 402.6382 -89.3353 L 408.1213 -89.6187 L 413.6436 -89.9782 L 418.1555 -90.3127 L 423.4051 -90.7338 L 428.2244 -91.1399 L 433.2242 -91.5729 L 437.6677 -91.9558 L 442.7296 -92.377 L 446.6759 -92.6893 L 451.1334 -93.0221 L 455.5914 -93.3334 L 460.2848 -93.6358 L 464.4537 -93.8804 L 468.1615 -94.076 L 470.7705 -94.2003 L 473.8377 -94.3305 L 481.3982 -94.5786 L 484.5299 -94.6504 L 487.7217 -94.6998 L 490.597 -94.7131 L 493.0311 -94.6882 L 495.4421 -94.6115 L 497.2761 -94.4962 L 499.0063 -94.3267 L 500.3162 -94.1577 L 501.9386 -93.8864 L 503.6712 -93.5013 L 505.396 -93.0038 L 507.892 -92.0315 L 509.2503 -91.351 L 510.7695 -90.4531 L 512.0585 -89.5774 L 513.5864 -88.3957 L 514.4559 -87.6415 L 515.2946 -86.8421 L 516.2538 -85.8238 L 517.2232 -84.6494 L 518.3737 -83.0095 L 519.2127 -81.5736 L 520.0872 -79.7324 L 520.6331 -78.2615 L 521.1693 -76.2714 L 521.4429 -74.7078 L 521.6257 -72.7366 L 521.659 -71.0983 L 521.561 -69.0443 L 521.2797 -66.8287 L 520.8476 -64.7278 L 520.246 -62.6186 L 518.6418 -58.563 L 517.3689 -56.0408 L 516.1156 -53.8693 L 514.8831 -51.9401 L 513.1744 -49.5081 L 511.6281 -47.4647 L 509.4348 -44.6893 L 507.664 -42.4716 L 505.2865 -39.4214 L 503.328 -36.7996 L 501.0041 -33.5341 L 499.4243 -31.1947 L 497.3071 -27.8268 L 495.6745 -25.0121 L 493.8248 -21.5481 L 492.5081 -18.8677 L 490.9421 -15.41 L 489.4232 -11.7587 L 487.359 -6.4358 L 486.5375 -4.251 L 485.772 -2.1952 L 484.97 -.0217 L 484.1885 2.1128 L 483.5684 3.8299 L 482.872 5.8501 L 482.4371 7.2043 L 481.9146 9.0191 L 481.5667 10.4275 L 481.2783 11.9409 L 481.1125 13.3675 L 481.064 14.8084 L 481.1344 16.0988 L 481.3741 17.6462 L 481.7524 19.0173 L 482.2962 20.3452 L 482.6719 21.0599 L 483.4792 22.294 L 484.0519 23.0016 L 484.9417 23.8963 L 485.6885 24.5026 L 486.809 25.2337 L 487.7843 25.7321 L 489.1142 26.2364 L 490.2175 26.5106 L 491.4843 26.6475 L 492.4111 26.6264 L 493.4616 26.4825 L 494.2532 26.2874 L 495.2127 25.9514 L 496.0833 25.5413 L 497.1745 24.8629 L 497.8423 24.3417 L 498.9104 23.2964 L 499.7606 22.2122 L 500.7401 20.5554 L 501.5731 18.659 L 502.2561 16.6312 L 502.7543 14.774 L 503.2432 12.4025 L 503.6054 9.9089 L 503.8102 7.7935 L 503.9605 5.6216 L 504.1298 2.9199 L 504.284 .8197 L 504.5003 -1.7795 L 504.7504 -4.548 L 505.0192 -7.1579 L 505.3603 -9.9261 L 505.7965 -12.6789 L 506.3371 -15.2059 L 507.3706 -18.5784 L 508.3403 -20.8405 L 508.9199 -21.9593 L 510.0613 -23.8423 L 511.8772 -26.2685 L 513.3761 -27.9143 L 514.9027 -29.3478 L 518.1203 -31.7566 L 521.6951 -33.6265 L 525.3934 -34.801 L 529.1714 -35.359 L 531.2874 -35.4341 L 533.5446 -35.3447 L 536.0947 -35.0255 L 538.7729 -34.4375 L 540.909 -33.8086 L 543.8476 -32.773 L 546.9931 -31.535 L 550.1364 -30.2227 L 553.4711 -28.776 L 557.2144 -27.0835 L 561.1529 -25.2049 L 564.9539 -23.2458 L 567.9538 -21.5535 L 571.57 -19.265 L 573.9782 -17.542 L 576.589 -15.4044 L 578.2309 -13.876 L 580.0217 -12.0167 L 581.3446 -10.4976 L 582.943 -8.4636 L 583.9719 -6.9875 L 585.2427 -4.8642 L 586.2846 -2.725 L 587.6183 1.1116 L 588.3187 5.0177 L 588.4393 7.1053 L 588.3883 9.2569 L 587.8011 13.3872 L 586.4797 17.7037 L 584.1745 22.4222 L 581.1098 26.9071 L 579.1482 29.2742 L 577.0937 31.5169 L 574.3186 34.3093 L 571.4137 37.0254 L 565.2886 42.237 L 557.645 47.8913 L 548.7702 53.6015 L 538.8536 59.4669 L 528.4684 65.4124 L 518.2789 71.2498 L 514.3769 73.4577 L 507.9845 76.9998 L 503.898 79.2088 L 497.2202 82.735 L 489.9533 86.4795 L 482.5139 90.2051 L 475.3643 93.6793 L 469.4566 96.484 L 462.0694 99.9186 L 456.4453 102.4816 L 448.8356 105.8799 L 442.5805 108.6124 L 434.3747 112.1023 L 428.1147 114.6755 L 419.9701 117.8829 L 412.3503 120.7036 L 404.3226 123.4383 L 396.3507 125.8816 L 388.9034 127.9257 L 382.8997 129.4172 L 375.5693 131.0492 L 369.6585 132.1899 L 361.5461 133.4687 L 356.1878 134.127 L 348.2339 134.8317 L 342.9903 135.1166 L 336.0809 135.2949 L 330.1168 135.2769 L 322.9818 135.021 L 317.1999 134.6121 L 310.2984 133.8843 L 306.677 133.4003 L 299.9764 132.315 L 294.9121 131.341 L 288.7431 129.9813 L 283.7302 128.7341 L 277.1399 126.8998 L 272.078 125.3348 L 265.0442 122.9308 L 259.923 121.038 L 253.5413 118.5523 L 248.2728 116.4222 L 242.0751 113.8544 L 236.595 111.5454 L 229.7095 108.6038 L 223.5612 105.947 L 215.9372 102.6227 L 208.1457 99.1861 L 200.672 95.8577 L 194.5395 93.104 L 186.987 89.6317 L 180.9045 86.7191 L 173.5115 83.0135 L 165.7699 78.9763 L 158.1211 74.8847 L 150.5699 70.7456 L 143.6245 66.8184 L 136.919 62.9005 L 130.3417 58.9419 L 124.6389 55.4183 L 117.75 51.0241 L 111.3131 46.7501 L 99.3349 38.309 L 87.527 29.2899 L 77.264 20.8983 L 68.6626 13.6062 L 61.735 7.8159 L 55.4444 2.6088 L 49.8593 -2.0208 L 44.7852 -6.2235 L 40.1301 -9.9779 L 37.8685 -11.7033 L 36.1296 -12.9612 L 34.1623 -14.3029 L 32.1789 -15.5672 L 30.3762 -16.6393 L 28.1624 -17.8309 L 26.6498 -18.5435 L 24.3635 -19.4477 L 22.3213 -20.05 L 20.1574 -20.4766 L 19.0168 -20.6162 L 17.109 -20.724 L 15.3136 -20.6949 L 13.2344 -20.5308 L 11.1312 -20.2781 L 8.9989 -20.0044 L 7.2433 -19.8096 L 4.9265 -19.6515 L 3.2965 -19.6276 L 1.1361 -19.7201 L -2.5746 -20.2898 L -6.164 -21.4372 L -9.4765 -23.2276 L -12.4663 -25.5974 L -14.0842 -27.2513 L -15.2671 -28.6581 L -16.895 -30.9016 L -18.0197 -32.6655 L -19.4272 -35.0601 L -20.704 -37.2789 L -22.537 -40.3729 L -24.2253 -43.1157 L -26.5177 -46.7272 L -29.0581 -50.5917 L -31.6867 -54.4138 L -34.1846 -57.8775 L -37.4746 -62.2024 L -41.0436 -66.6336 L -44.8615 -71.1254 L -48.6675 -75.3795 L -51.9085 -78.8543 L -55.8041 -82.8878 L -60.1358 -87.2288 L -64.3619 -91.3527 L -68.1346 -94.9716 L -72.9053 -99.5146 L -81.1733 -107.4825 L -90.6073 -116.729 L -100.3005 -126.2043 L -110.1006 -135.5899 L -119.4839 -144.4179 L -131.9574 -156.1094 L -135.6874 -159.6051 L -140.1332 -163.7704 L -142.4743 -165.9602 L -146.1561 -169.3838 L -150.7286 -173.539 L -154.8164 -177.0962 L -158.0983 -179.8147 L -160.7773 -181.942 L -164.0928 -184.4558 L -167.024 -186.5424 L -170.4369 -188.7434 L -173.4934 -190.4837 L -176.8549 -192.1477 L -180.0811 -193.509 L -184.1378 -194.9252 L -187.8465 -195.9545 L -192.2065 -196.9146 L -195.6375 -197.5171 L -199.9703 -198.1025 L -203.577 -198.4459 L -208.4124 -198.6994 L -212.1834 -198.7228 L -216.8708 -198.5064 L -220.7014 -198.1039 L -225.459 -197.3111 L -229.6586 -196.3571 L -234.5132 -195.0117 L -242.8835 -192.3246 L -247.9803 -190.538 L -253.1571 -188.5924 L -262.937 -184.392 L -268.374 -181.6422 L -273.379 -178.8008 L -277.3369 -176.3238 L -282.0552 -173.093 L -286.6039 -169.6955 L -290.9655 -166.1975 L -295.0851 -162.6776 L -299.1457 -158.9149 L -302.0503 -155.9742 L -305.6879 -151.9681 L -309.7167 -146.9997 L -313.2848 -142.0041 L -315.8994 -137.8544 L -318.1581 -133.809 L -320.3749 -129.2876 L -324.2184 -120.0352 L -327.9505 -109.8266 L -331.822 -99.1153 L -336.0881 -88.0947 L -341.0105 -77.2239 L -346.2796 -67.1246 L -352.6245 -56.6013 L -358.8395 -47.7384 L -365.1239 -39.6034 L -371.0098 -32.4939 L -373.9924 -29.0986 L -376.2578 -26.6311 L -379.0016 -23.7789 L -381.1761 -21.6264 L -383.8388 -19.1355 L -386.5469 -16.8034 L -389.3103 -14.6425 L -391.9779 -12.7488 L -394.8851 -10.9018 L -397.6893 -9.3698 L -400.5869 -8.0592 L -403.7758 -6.9085 L -406.539 -6.1227 L -409.8547 -5.3687 L -413.5672 -4.6244 L -417.2408 -3.8707 L -420.3422 -3.1785 L -424.0414 -2.2597 L -427.2861 -1.3269 L -431.455 .1178 L -435.414 1.8782 L -441.6051 5.8155 L -444.5385 8.2686 L -447.3464 10.8962 L -450.3115 13.8863 L -453.1107 16.8979 L -455.3818 19.494 L -458.2872 23.1258 L -460.2645 25.8623 L -462.774 29.7288 L -465.1255 33.834 L -467.5304 38.4032 L -469.9285 43.1272 L -472.3312 47.9893 L -474.6401 53.0009 L -476.7187 58.0965 L -478.1112 62.0075 L -479.7195 67.2093 L -480.7172 70.9226 L -481.9276 76.2191 L -482.8911 81.5357 L -483.5607 86.5232 L -483.9953 91.489 L -484.2344 100.8855 L -483.8419 110.5779 L -483.4978 114.8759 L -483.0512 119.1973 L -482.43 124.0877 L -481.8094 128.3031 L -481.1581 132.467 L -480.6277 136.0181 L -480.1969 139.2963 L -479.9187 141.7948 L -479.6598 144.7394 L -479.5303 147.058 L -479.4905 149.7609 L -479.5993 152.4623 L -479.8627 154.8801 L -480.3434 157.3357 L -481.002 159.5292 L -481.861 161.588 L -482.7015 163.1421 L -483.8989 164.8724 L -485.0806 166.2117 L -486.5647 167.5586 L -487.866 168.5238 L -489.5887 169.557 L -491.4398 170.3905 L -493.553 171.0257 L -495.1359 171.303 L -497.5929 171.4148 L -499.8284 171.1826 L -502.1808 170.6337 L -504.1663 169.9603 L -506.8338 168.7954 L -508.9813 167.6785 L -510.7106 166.6892 L -516.3643 163.1078 L -522.5143 158.8717 L -526.0248 156.3005 L -529.4544 153.6428 L -535.1346 148.6563 L -539.8833 143.113 L -541.7393 140.1893 L -543.3495 137 L -545.4198 131.1741 L -546.5946 124.9826 L -546.6463 119.4258 L -546.2149 116.2989 L -545.4437 113.2123 L -543.4008 107.9012 L -540.563 102.4305 L -538.291 98.5461 L -536.517 95.5911 L -533.8502 91.0722 L -531.7126 87.2841 L -529.0281 82.1998 L -526.629 77.3643 L -523.8029 71.3881 L -521.2152 65.7734 L -518.0884 58.9525 L -515.1896 52.6965 L -511.6628 45.2596 L -508.3624 38.5082 L -504.3425 30.5233 L -500.881 23.8282 L -496.0866 14.8089 L -491.6005 6.6205 L -486.2448 -2.8265 L -482.26 -9.5973 L -476.2992 -19.314 L -471.484 -26.8325 L -464.8547 -36.7843 L -459.5508 -44.4905 L -452.7654 -54.0876 L -445.2224 -64.4153 L -437.8119 -74.2403 L -429.629 -84.7539 L -421.6471 -94.6547 L -412.8115 -105.1683 L -405.2735 -113.8031 L -399.7377 -119.9526 L -394.6412 -125.4927 z" stroke-width="28" stroke="black" fill="none" id="Track"/><path d="M -386.8783 -133.9686 L -379.0452 -141.9279 L -370.7597 -150.0144 L -365.7115 -154.7512 L -359.9186 -160.0018 L -356.4752 -163.0368 L -350.2305 -168.398 L -344.9731 -172.7795 L -340.0269 -176.7894 L -334.3179 -181.2726 L -329.6344 -184.8322 L -323.4521 -189.3741 L -318.6824 -192.7624 L -312.3946 -197.0854 L -307.5491 -200.3177 L -301.2061 -204.4537 L -295.9703 -207.8046 L -290.0332 -211.5363 L -284.9624 -214.6592 L -279.4122 -218.0059 L -275.1383 -220.5439 L -269.862 -223.657 L -265.95 -225.9623 L -260.8685 -228.9552 L -257.0285 -231.204 L -252.1299 -234.0255 L -248.2185 -236.2296 L -243.9305 -238.5921 L -240.6068 -240.3812 L -237.0154 -242.2574 L -234.622 -243.4579 L -231.8919 -244.7385 L -229.4873 -245.7625 L -226.9674 -246.7128 L -224.4533 -247.5185 L -222.2473 -248.087 L -219.7764 -248.5565 L -217.4541 -248.84 L -215.537 -248.9849 L -212.9598 -249.0492 L -210.7749 -248.9811 L -205.7522 -248.4113 L -203.2734 -247.9093 L -201.093 -247.349 L -198.2007 -246.4449 L -195.9545 -245.6204 L -193.1353 -244.4299 L -190.6381 -243.2215 L -187.7712 -241.6405 L -185.6285 -240.3114 L -182.6149 -238.2122 L -179.6208 -235.875 L -174.4434 -231.4486 L -171.3161 -228.6625 L -168.0997 -225.7388 L -164.9996 -222.8493 L -161.6185 -219.6263 L -158.1628 -216.2694 L -154.8334 -213.0049 L -152.2801 -210.5156 L -148.7888 -207.1854 L -145.8802 -204.4839 L -142.2226 -201.1559 L -138.2551 -197.6005 L -134.2169 -194.0147 L -131.0821 -191.2554 L -127.159 -187.8528 L -122.9021 -184.2332 L -118.796 -180.8014 L -115.39 -177.9891 L -111.0982 -174.4859 L -107.5155 -171.5993 L -102.6809 -167.7627 L -99.1877 -165.0319 L -94.127 -161.1218 L -90.1747 -158.0924 L -84.9075 -154.0792 L -80.8058 -150.9615 L -75.3937 -146.8255 L -72.208 -144.3677 L -66.8288 -140.1457 L -62.775 -136.8875 L -57.8456 -132.8422 L -53.869 -129.5394 L -49.2932 -125.7297 L -45.3192 -122.4435 L -39.7965 -117.9223 L -35.8059 -114.6845 L -30.5558 -110.4611 L -26.5082 -107.2436 L -20.8868 -102.8509 L -15.5249 -98.7599 L -10.4341 -94.968 L -6.59 -92.1625 L -1.1048 -88.2356 L 3.1226 -85.277 L 9.0506 -81.258 L 13.3865 -78.4284 L 19.1221 -74.8189 L 23.5525 -72.1144 L 29.3976 -68.6786 L 33.9217 -66.1292 L 39.8808 -62.9086 L 44.1046 -60.6954 L 50.0685 -57.5852 L 54.9113 -54.9913 L 60.3697 -51.9435 L 65.0544 -49.214 L 70.6557 -45.8372 L 74.8756 -43.2298 L 80.3127 -39.7789 L 84.3885 -37.0918 L 89.2972 -33.7139 L 93.4925 -30.6949 L 98.1686 -27.1606 L 101.8791 -24.2207 L 106.6357 -20.2903 L 110.4906 -16.9877 L 115.1248 -12.9177 L 118.9256 -9.5314 L 123.5058 -5.4158 L 127.2589 -2.036 L 131.5218 1.7832 L 134.9712 4.8461 L 139.2028 8.5645 L 143.9337 12.6644 L 148.0398 16.1419 L 151.8951 19.3046 L 155.4395 22.1011 L 158.2131 24.1942 L 161.6402 26.6287 L 164.6908 28.6234 L 168.4689 30.853 L 171.4194 32.4024 L 175.349 34.2148 L 178.4029 35.4276 L 182.2051 36.721 L 185.5539 37.6928 L 189.6364 38.6834 L 192.5172 39.2603 L 196.3258 39.898 L 199.6082 40.3524 L 203.491 40.7821 L 206.1348 41.0004 L 209.7486 41.1835 L 213.026 41.2304 L 216.3783 41.1603 L 219.4383 40.9823 L 225.1698 40.2483 L 227.7002 39.7482 L 230.557 39.0496 L 233.5573 38.1542 L 236.3449 37.1681 L 239.2715 35.9682 L 241.9708 34.7021 L 243.9565 33.6666 L 246.7038 32.0787 L 248.7655 30.7697 L 251.2692 29.0457 L 253.4459 27.4373 L 255.9265 25.4929 L 258.3764 23.441 L 260.7713 21.2593 L 263.3401 18.6651 L 265.4795 16.2504 L 266.9882 14.3682 L 268.6239 12.1031 L 270.3336 9.4164 L 271.5183 7.3283 L 272.8157 4.8176 L 274.2778 1.6622 L 275.8435 -2.1837 L 277.0565 -5.5297 L 277.5112 -6.9193 L 278.4418 -10.1247 L 279.5334 -15.0068 L 280.0726 -18.4905 L 280.6795 -24.3444 L 280.9935 -28.0086 L 281.351 -31.7401 L 281.7502 -35.2525 L 282.2471 -38.9019 L 282.7985 -42.2353 L 283.32 -44.8698 L 284.0713 -48.0075 L 284.8447 -50.6534 L 285.873 -53.5438 L 286.8968 -55.9413 L 288.2714 -58.668 L 289.7643 -61.1897 L 291.4613 -63.6734 L 292.6407 -65.2396 L 294.3606 -67.3472 L 295.9199 -69.1059 L 298.9213 -72.1461 L 300.8097 -73.8494 L 302.7538 -75.4456 L 306.39 -78.0568 L 308.492 -79.3725 L 310.7171 -80.628 L 313.2162 -81.891 L 315.8571 -83.0773 L 317.7687 -83.8504 L 320.5571 -84.8577 L 322.7686 -85.5631 L 325.7492 -86.4065 L 328.1169 -86.9946 L 331.3334 -87.683 L 333.8853 -88.1417 L 337.1388 -88.6379 L 339.868 -88.9962 L 343.3336 -89.3794 L 346.4676 -89.6468 L 350.171 -89.8617 L 357.2242 -89.9958 L 365.0395 -89.8328 L 369.7414 -89.6575 L 374.6525 -89.4737 L 378.2442 -89.3468 L 383.5001 -89.1844 L 387.6494 -89.0998 L 392.8807 -89.0791 L 397.2211 -89.149 L 402.6382 -89.3353 L 408.1213 -89.6187 L 413.6436 -89.9782 L 418.1555 -90.3127 L 423.4051 -90.7338 L 428.2244 -91.1399 L 433.2242 -91.5729 L 437.6677 -91.9558 L 442.7296 -92.377 L 446.6759 -92.6893" stroke-width="12" stroke="#e73323" fill="none" id="S1"/><path d="M 448.6256 -92.8376 L 453.0831 -93.161 L 457.54 -93.4624 L 462.1529 -93.7484 L 465.9072 -93.9596 L 469.4021 -94.1365 L 471.9196 -94.2509 L 474.9928 -94.3752 L 477.5065 -94.4636 L 479.4486 -94.5245 L 482.5713 -94.6076 L 485.8789 -94.675 L 488.9433 -94.7099 L 491.5419 -94.7081 L 494.0114 -94.6648 L 496.1665 -94.5733 L 498 -94.4325 L 499.3078 -94.291 L 500.9227 -94.0654 L 502.6518 -93.7407 L 504.3827 -93.3106 L 506.001 -92.7984 L 507.0018 -92.4174 L 509.8225 -91.03 L 512.6042 -89.1744 L 514.7109 -87.4066 L 515.5395 -86.5938 L 516.4844 -85.559 L 517.7137 -83.9883 L 518.6236 -82.6073 L 519.5931 -80.8284 L 520.2231 -79.3977 L 520.8786 -77.45 L 521.2428 -75.9136 L 521.5308 -73.975 L 521.6421 -72.3609 L 521.6408 -70.3324 L 521.4673 -68.1355 L 521.1112 -65.9104 L 520.6056 -63.8066 L 519.9287 -61.6882 L 519.2476 -59.9353 L 518.1752 -57.5916 L 516.889 -55.1798 L 515.4686 -52.8351 L 514.2681 -51.0373 L 512.4771 -48.5735 L 510.7459 -46.3364 L 508.6249 -43.6779 L 506.6898 -41.2356 L 504.3044 -38.1205 L 502.3623 -35.4634 L 500.206 -32.3686 L 498.5349 -29.8153 L 496.4785 -26.4239 L 494.8955 -23.5922 L 493.2069 -20.315 L 491.9334 -17.6334 L 490.4447 -14.2466 L 489.1682 -11.1185 L 487.8049 -7.6068 L 487.018 -5.5333 L 486.2498 -3.4799 L 485.4401 -1.2974 L 484.6455 .8631 L 483.314 4.5539 L 482.2081 7.9672 L 481.4441 11.0074 L 481.2023 12.4823 L 481.0796 13.9023 L 481.0729 15.1754 L 481.1993 16.6511 L 481.5222 18.2587 L 481.9596 19.581 L 482.8322 21.3328 L 483.6178 22.4761 L 484.407 23.3856 L 485.1079 24.0411 L 486.1297 24.8133 L 487.0252 25.3546 L 488.3533 25.9713 L 489.4553 26.3359 L 490.7091 26.5872 L 492.815 26.5864 L 494.6082 26.176 L 496.5244 25.2906 L 497.441 24.6655 L 498.2447 23.9819 L 499.3706 22.7428 L 500.2035 21.5272 L 501.0728 19.8605 L 501.8888 17.7856 L 502.516 15.7108 L 502.9709 13.8129 L 503.4082 11.3906 L 503.6869 9.162 L 504.0271 4.514 L 504.3627 -.1573 L 504.5857 -2.7557 L 504.8633 -5.6912 L 505.0935 -7.8098 L 505.4522 -10.5758 L 505.8872 -13.1605 L 506.4949 -15.8169 L 507.5288 -18.9921 L 508.529 -21.2201 L 509.1913 -22.4407 L 510.2919 -24.1832 L 511.0158 -25.1873 L 512.4223 -26.8984 L 513.9741 -28.5011 L 515.6494 -29.9769 L 517.0878 -31.0667 L 518.938 -32.2539 L 520.4842 -33.0799 L 522.5514 -33.9621 L 524.2757 -34.5192 L 526.2654 -34.9823 L 527.8974 -35.2366 L 529.9511 -35.4055 L 532.1164 -35.4212 L 534.5778 -35.2445 L 537.1828 -34.8163 L 539.7496 -34.1656 L 542.0955 -33.4101 L 545.1179 -32.2839 L 548.149 -31.0593 L 551.5719 -29.6062 L 554.9873 -28.0997 L 558.8152 -26.3334 L 562.5811 -24.4891 L 565.6574 -22.8628 L 569.2803 -20.7488 L 572.1568 -18.8629 L 575.126 -16.642 L 576.9904 -15.0455 L 578.9259 -13.1795 L 580.3371 -11.6666 L 582.0195 -9.6687 L 583.2086 -8.0981 L 584.5248 -6.1141 L 585.6973 -3.9866 L 586.6542 -1.8353 L 587.2465 -.1741 L 587.837 2.0157 L 588.1535 3.7048 L 588.3922 5.9232 L 588.4406 7.9016 L 588.3087 10.2301 L 588.0581 12.08 L 587.5518 14.4149 L 586.9733 16.3481 L 586.1073 18.613 L 585.102 20.7406 L 583.52 23.4954 L 582.163 25.5029 L 580.3561 27.8495 L 578.7255 29.7521 L 575.9868 32.657 L 573.2643 35.3172 L 570.0439 38.2463 L 567.3194 40.5789 L 563.8676 43.3566 L 560.3415 45.9964 L 555.6768 49.2184 L 551.853 51.69 L 546.5449 54.9518 L 542.2679 57.4871 L 536.4065 60.8716 L 532.1187 63.3228 L 525.8722 66.901 L 520.9675 69.7143 L 513.1922 74.1218 L 501.4145 80.531 L 494.6757 84.0564 L 486.9107 88.0175 L 479.4032 91.7285 L 466.7004 97.7746 L 459.2653 101.202 L 453.6046 103.7596 L 445.4716 107.3565 L 439.2021 110.0635 L 431.4787 113.3033 L 424.7551 116.0197 L 417.1069 118.9658 L 409.0411 121.8627 L 401.032 124.4801 L 393.5513 126.6761 L 380.1432 130.0568 L 366.4935 132.7293 L 353.0824 134.4411 L 340.3881 135.2085 L 327.5851 135.2166 L 314.3426 134.3416 L 309.0926 133.731 L 303.9144 132.9828 L 297.2422 131.8047 L 292.2074 130.7686 L 286.0455 129.3259 L 281.0208 128.0072 L 274.8034 126.1947 L 269.3475 124.4318 L 262.6829 122.0712 L 257.5423 120.1251 L 250.7154 117.4172 L 245.8073 115.4072 L 239.1369 112.6202 L 233.602 110.2721 L 226.6521 107.2855 L 220.4408 104.5903 L 212.7461 101.2206 L 204.891 97.7392 L 197.8428 94.5917 L 191.7031 91.8145 L 183.704 88.0744 L 178.1205 85.3448 L 170.3125 81.3609 L 162.6109 77.2974 L 155.444 73.4303 L 147.9414 69.2745 L 140.6655 65.105 L 134.0301 61.1751 L 128.7079 57.9417 L 121.7983 53.6267 L 115.3305 49.4381 L 108.5116 44.8343 L 103.3184 41.1908 L 96.5558 36.2502 L 91.4226 32.3423 L 85.2526 27.4737 L 80.5877 23.671 L 75.3757 19.303 L 71.2936 15.8359 L 66.954 12.1664 L 63.958 9.6629 L 60.2169 6.5575 L 57.4749 4.2888 L 54.083 1.482 L 51.6709 -.5171 L 48.7817 -2.9163 L 46.4923 -4.8154 L 43.6185 -7.1804 L 41.5177 -8.8804 L 39.246 -10.6628 L 37.3521 -12.0836 L 35.3134 -13.5289 L 33.4669 -14.7559 L 31.4658 -16.001 L 29.527 -17.1142 L 27.4084 -18.1976 L 25.7618 -18.9204 L 23.4689 -19.7358 L 21.429 -20.2524 L 18.2557 -20.6778 L 16.2139 -20.7242 L 14.5372 -20.6477 L 12.4485 -20.4424 L 10.3343 -20.1751 L 8.0562 -19.8939 L 6.2896 -19.7282 L 4.1103 -19.6302 L 2.4846 -19.6443 L .3306 -19.7976 L -1.2669 -20.0252 L -3.472 -20.5134 L -4.9712 -20.9763 L -6.9699 -21.8008 L -8.4093 -22.5623 L -10.207 -23.7358 L -11.5457 -24.7816 L -13.1779 -26.2887 L -14.3832 -27.5902 L -15.9434 -29.5455 L -17.1778 -31.3291 L -18.5791 -33.5994 L -21.4331 -38.5258 L -25.1364 -44.5648 L -27.5329 -48.2905 L -30.0157 -52.0052 L -32.3817 -55.3939 L -35.5052 -59.6441 L -38.9112 -64.0154 L -42.5873 -68.4789 L -46.2655 -72.7191 L -50.1475 -76.9813 L -53.4471 -80.4641 L -57.4073 -84.5098 L -61.8065 -88.8705 L -66.3791 -93.2933 L -70.2057 -96.944 L -75.0345 -101.549 L -78.0841 -104.4828 L -83.0344 -109.2995 L -87.1134 -113.2973 L -92.8499 -118.9314 L -97.0483 -123.041 L -102.5855 -128.413 L -106.5235 -132.1908 L -112.0498 -137.4314 L -116.2631 -141.3955 L -121.4062 -146.2204 L -125.8462 -150.3823 L -128.9473 -153.2886 L -137.5853 -161.3836 L -143.1423 -166.5836 L -146.7862 -169.9645 L -148.2493 -171.3039 L -151.343 -174.085 L -153.3859 -175.8723 L -156.0459 -178.1293 L -159.3333 -180.8056 L -162.2248 -183.0565 L -165.5534 -185.5145 L -168.2948 -187.3936 L -171.9563 -189.6355 L -174.8262 -191.1747 L -178.4558 -192.8506 L -181.7318 -194.1235 L -185.8589 -195.4327 L -189.6227 -196.3727 L -193.7812 -197.2074 L -197.25 -197.7571 L -201.6252 -198.2763 L -205.5532 -198.5784 L -210.1547 -198.73 L -214.2301 -198.6642 L -218.6348 -198.3471 L -222.4809 -197.8448 L -227.554 -196.864 L -231.4706 -195.8798 L -236.6591 -194.3589 L -239.753 -193.3701 L -244.7838 -191.6718 L -250.2376 -189.7075 L -255.4401 -187.6836 L -259.6809 -185.8861 L -265.185 -183.2955" stroke-width="12" stroke="#4fafdf" fill="none" id="S2"/><path d="M -270.2697 -180.6024 L -275.2189 -177.6754 L -279.1288 -175.1328 L -283.7807 -171.8359 L -288.5417 -168.169 L -292.5403 -164.879 L -296.8005 -161.1328 L -300.5016 -157.5692 L -303.5701 -154.3475 L -307.1289 -150.2614 L -310.2981 -146.2292 L -312.0024 -143.8772 L -314.3525 -140.3676 L -317.0522 -135.8536 L -319.0686 -132.0232 L -321.2122 -127.4272 L -322.945 -123.3006 L -325.0916 -117.7039 L -326.7019 -113.2919 L -328.7059 -107.721 L -330.5003 -102.7333 L -332.7718 -96.557 L -334.751 -91.408 L -337.1742 -85.5299 L -339.2983 -80.8064 L -342.0656 -75.099 L -344.4155 -70.5566 L -347.616 -64.7605 L -350.3761 -60.1322 L -353.8801 -54.7154 L -356.66 -50.7249 L -360.3719 -45.6968 L -363.1984 -42.033 L -366.3876 -38.0363 L -369.0452 -34.8109 L -372.1529 -31.1744 L -374.5287 -28.5054 L -377.4148 -25.4099 L -379.6235 -23.1535 L -382.2674 -20.584 L -384.9473 -18.1549 L -387.6776 -15.8935 L -390.3022 -13.9171 L -393.1659 -11.9649 L -396.1032 -10.2043 L -398.9406 -8.7704 L -401.8752 -7.5604 L -407.9685 -5.7786 L -411.359 -5.0624 L -414.9235 -4.3524 L -417.9462 -3.7186 L -421.8093 -2.8284 L -424.8039 -2.053 L -429.0206 -.7658 L -433.1156 .8017 L -436.9568 2.7014 L -439.6603 4.392 L -442.7275 6.713 L -445.5991 9.2342 L -448.5659 12.1012 L -451.3595 14.9919 L -454.161 18.0784 L -456.5899 20.9551 L -459.2847 24.4758 L -461.3819 27.5237 L -463.6729 31.2422 L -466.1215 35.693 L -468.3745 40.0557 L -470.7798 44.8261 L -473.1641 49.7415 L -475.406 54.7964 L -477.055 58.9971 L -478.7056 63.8345 L -479.9795 68.1342 L -481.2447 73.0984 L -482.355 78.4091 L -483.2131 83.721 L -483.7791 88.6969 L -484.1009 93.353 L -484.2326 97.7254 L -484.1947 103.1182 L -484.0361 107.3088 L -483.6958 112.5562 L -483.4037 115.8723 L -482.8136 121.1798 L -482.2526 125.341 L -481.5529 129.9507 L -480.9116 134.0727 L -480.4278 137.4784 L -480.1268 139.8864 L -479.7941 143.0921 L -479.6227 145.2827 L -479.4961 148.261 L -479.5158 150.8922 L -479.6937 153.5326 L -480.0338 155.906 L -480.5667 158.1721 L -481.3531 160.4478 L -482.2333 162.3198 L -483.204 163.9251 L -484.4749 165.5616 L -485.621 166.7383 L -487.155 168.018 L -488.1786 168.7307 L -490.2682 169.895 L -492.1666 170.6448 L -494.3364 171.1833 L -496.0839 171.3925 L -498.423 171.3647 L -500.6965 171.0141 L -503.091 170.3473 L -505.2517 169.5196 L -507.9759 168.2191 L -509.6651 167.2955 L -511.9625 165.9335 L -514.2031 164.5235 L -517.5866 162.2885 L -520.3365 160.407 L -523.8324 157.9212 L -527.3268 155.3115 L -530.6977 152.6312 L -533.2778 150.4077 L -536.3589 147.4038 L -538.4508 145.0107 L -540.6667 141.9545 L -542.3873 138.9965 L -543.8624 135.794 L -544.8156 133.1797 L -545.7797 129.7741 L -546.3037 127.1783 L -546.6913 123.7865 L -546.7414 121.203 L -546.4987 118.0476 L -545.919 114.9467 L -545.0031 111.8565 L -544.2653 109.896 L -542.7194 106.4734 L -539.6635 100.8676 L -535.4439 93.7916 L -530.7122 85.4317 L -525.5828 75.1807 L -520.0652 63.2624 L -513.8964 49.943 L -506.6362 35.0498 L -498.9448 20.1506 L -494.3204 11.5581 L -489.7459 3.3051 L -479.8517 -13.5805 L -469.1856 -30.3301 L -457.039 -48.0766 L -450.1409 -57.7215 L -442.0093 -68.712 L -434.4736 -78.5707 L -426.674 -88.4631 L -418.0567 -98.9804 L -409.0788 -109.4834 L -398.0504 -121.7989 L -392.3553 -127.9418" stroke-width="12" stroke="#f7d347" fill="none" id="S3"/></svg>