<svg class="track" xmlns="http://www.w3.org/2000/svg" preserveAspectRatio="xMinYMid meet" height="280" width="600" viewBox="-600 -300 1 590">
  <path d="m-386.878-133.969 7.833-7.959 8.285-8.086 5.048-4.737 5.793-5.25 3.444-3.036 6.245-5.361 5.257-4.382 4.946-4.01 5.71-4.483 4.683-3.56 6.182-4.541 4.77-3.388 6.287-4.323 4.846-3.233 6.343-4.136 5.236-3.35 5.937-3.732 5.07-3.123 5.55-3.347 4.275-2.538 5.276-3.113 3.912-2.305 5.082-2.993 3.84-2.249 4.898-2.821 3.911-2.205 4.288-2.362 3.324-1.79 3.592-1.875 2.393-1.2 2.73-1.281 2.405-1.024 2.52-.95 2.514-.806 2.206-.569 2.47-.47 2.323-.283 1.917-.145 2.577-.064 2.185.068 5.023.57 2.479.502 2.18.56 2.892.904 2.246.825 2.82 1.19 2.497 1.209 2.867 1.58 2.142 1.33 3.014 2.099 2.994 2.337 5.178 4.426 3.127 2.787 3.216 2.923 3.1 2.89 3.381 3.223 3.456 3.357 3.33 3.264 2.553 2.49 3.491 3.33 2.909 2.701 3.657 3.328 3.968 3.555 4.038 3.586 3.135 2.76 3.923 3.402 4.257 3.62 4.106 3.432 3.406 2.812 4.292 3.503 3.582 2.887 4.835 3.836 3.493 2.731 5.061 3.91 3.952 3.03 5.267 4.013 4.102 3.118 5.412 4.136 3.186 2.457 5.38 4.222 4.053 3.258 4.93 4.046 3.976 3.303 4.576 3.81 3.974 3.285 5.523 4.522 3.99 3.237 5.25 4.224 4.048 3.217 5.621 4.393 5.362 4.091 5.09 3.792 3.845 2.806 5.485 3.926 4.228 2.959 5.928 4.019 4.335 2.83 5.736 3.61 4.43 2.704 5.846 3.435 4.524 2.55 5.959 3.22 4.224 2.214 5.964 3.11 4.842 2.594 5.459 3.047 4.684 2.73 5.602 3.377 4.22 2.607 5.437 3.451 4.075 2.687 4.91 3.378 4.195 3.02 4.676 3.533 3.71 2.94 4.757 3.93 3.855 3.303 4.634 4.07 3.8 3.387 4.58 4.115 3.754 3.38 4.263 3.82 3.45 3.062 4.23 3.719 4.732 4.1 4.106 3.477 3.855 3.163 3.544 2.796 2.774 2.093 3.427 2.435 3.05 1.994 3.779 2.23 2.95 1.55 3.93 1.812 3.054 1.213 3.802 1.293 3.349.972 4.082.99 2.881.577 3.809.638 3.282.454 3.883.43 2.644.218 3.614.184 3.277.046 3.352-.07 3.06-.178 5.732-.734 2.53-.5 2.857-.698 3-.896 2.788-.986 2.927-1.2 2.699-1.266 1.986-1.035 2.747-1.588 2.061-1.31 2.504-1.723 2.177-1.609 2.48-1.944 2.45-2.052 2.395-2.182 2.57-2.594 2.138-2.415 1.51-1.882 1.635-2.265 1.71-2.687 1.184-2.088 1.298-2.51 1.462-3.156 1.565-3.846 1.214-3.346.454-1.39.93-3.205 1.092-4.882.54-3.484.607-5.853.313-3.665.358-3.731.4-3.512.496-3.65.551-3.333.522-2.635.751-3.138.774-2.645 1.028-2.89 1.024-2.398 1.374-2.727 1.493-2.522 1.697-2.483 1.18-1.567 1.72-2.107 1.559-1.759 3.001-3.04 1.889-1.703 1.944-1.597 3.636-2.61 2.102-1.317 2.225-1.255 2.5-1.263 2.64-1.186 1.912-.773 2.788-1.008 2.212-.705 2.98-.843 2.368-.589 3.216-.688 2.552-.459 3.254-.496 2.729-.358 3.466-.383 3.134-.268 3.703-.215 7.053-.134 7.815.163 4.702.175 4.911.184 3.592.127 5.256.163 4.15.084 5.23.02 4.341-.069 5.417-.186 5.483-.284 5.523-.36 4.512-.334 5.25-.42 4.818-.407 5-.433 4.444-.383 5.062-.421 3.946-.312 4.457-.333 4.458-.311 4.694-.303 4.169-.244 3.707-.196 2.61-.124 3.067-.13 7.56-.249 3.132-.071 3.192-.05 2.875-.013 2.434.025 2.411.076 1.834.116 1.73.17 1.31.168 1.623.272 1.732.385 1.725.497 2.496.973 1.358.68 1.52.898 1.288.876 1.528 1.181.87.755.839.799.959 1.018.97 1.175 1.15 1.64.839 1.435.874 1.842.546 1.47.536 1.99.274 1.564.183 1.971.033 1.639-.098 2.054-.281 2.215-.432 2.101-.602 2.11-1.604 4.055-1.273 2.522-1.253 2.172-1.233 1.929-1.709 2.432-1.546 2.043-2.193 2.776-1.771 2.217-2.377 3.05-1.959 2.622-2.324 3.266-1.58 2.34-2.117 3.367-1.632 2.815-1.85 3.464-1.317 2.68-1.566 3.458-1.519 3.651-2.064 5.323-.821 2.185-.766 2.056-.802 2.173-.782 2.135-.62 1.717-.696 2.02-.435 1.354-.522 1.815-.348 1.409-.289 1.513-.166 1.426-.048 1.441.07 1.29.24 1.548.378 1.371.544 1.328.376.715.807 1.234.573.708.89.894.746.607 1.121.73.975.5 1.33.503 1.103.275 1.267.137.927-.022 1.05-.143.792-.196.96-.336.87-.41 1.091-.678.668-.521 1.068-1.046.85-1.084.98-1.657.833-1.896.683-2.028.498-1.857.49-2.371.361-2.494.205-2.116.15-2.171.17-2.702.154-2.1.216-2.6.25-2.768.27-2.61.34-2.768.436-2.753.541-2.527 1.034-3.372.97-2.262.579-1.12 1.141-1.882 1.816-2.427 1.5-1.645 1.526-1.434 3.217-2.409 3.575-1.87 3.698-1.174 3.778-.558 2.116-.075 2.258.09 2.55.319 2.678.587 2.136.63 2.939 1.035 3.145 1.238 3.143 1.312 3.335 1.447 3.743 1.692 3.939 1.88 3.8 1.958 3 1.692 3.617 2.289 2.408 1.723 2.611 2.138 1.642 1.528 1.79 1.86 1.324 1.518 1.598 2.034 1.029 1.477 1.27 2.123 1.043 2.139 1.333 3.837.7 3.906.121 2.087-.05 2.152-.588 4.13-1.321 4.317-2.306 4.718-3.064 4.485-1.962 2.367-2.054 2.243-2.775 2.792-2.905 2.716-6.125 5.212-7.644 5.654-8.875 5.71-9.916 5.866-10.386 5.945-10.19 5.838-3.901 2.208L507.985 77l-4.087 2.209-6.678 3.526-7.267 3.745-7.44 3.725-7.149 3.474-5.907 2.805-7.388 3.435-5.624 2.563-7.61 3.398-6.255 2.732-8.205 3.49-6.26 2.573-8.145 3.208-7.62 2.82-8.027 2.735-7.972 2.444-7.448 2.044-6.003 1.491-7.33 1.632-5.911 1.14-8.113 1.28-5.358.658-7.954.705-5.244.285-6.91.178-5.963-.018-7.135-.256-5.782-.409-6.902-.728-3.621-.484-6.7-1.085-5.065-.974-6.169-1.36-5.013-1.247-6.59-1.834-5.062-1.565-7.034-2.404-5.121-1.893-6.382-2.486-5.268-2.13-6.198-2.568-5.48-2.309-6.886-2.941-6.148-2.657-7.624-3.324-7.791-3.437-7.474-3.328-6.132-2.754-7.553-3.472-6.082-2.913-7.393-3.706-7.742-4.037-7.649-4.091-7.551-4.14-6.945-3.927-6.706-3.917-6.577-3.96-5.703-3.523-6.889-4.394-6.437-4.274-11.978-8.441-11.808-9.02-10.263-8.39-8.601-7.293-6.928-5.79-6.29-5.207-5.586-4.63-5.074-4.202-4.655-3.755-2.262-1.725-1.738-1.258-1.968-1.342-1.983-1.264-1.803-1.072-2.214-1.192-1.512-.713-2.287-.904-2.042-.602-2.164-.427-1.14-.14-1.908-.107-1.795.03-2.08.163-2.103.253L9-20.004l-1.756.194-2.317.159-1.63.023-2.16-.092-3.71-.57-3.59-1.147-3.313-1.79-2.99-2.37-1.617-1.654-1.183-1.407-1.628-2.244-1.125-1.764-1.407-2.394-1.277-2.219-1.833-3.094-1.688-2.743-2.293-3.611-2.54-3.865-2.629-3.822-2.498-3.463-3.29-4.325-3.569-4.432-3.818-4.491-3.805-4.254-3.241-3.475-3.896-4.034-4.332-4.34-4.226-4.125-3.773-3.619-4.77-4.543-8.268-7.968-9.434-9.246-9.694-9.475-9.8-9.386-9.383-8.828-12.473-11.691-3.73-3.496-4.446-4.165-2.341-2.19-3.682-3.424-4.573-4.155-4.087-3.557-3.282-2.719-2.68-2.127-3.315-2.514-2.931-2.086-3.413-2.201-3.056-1.74-3.362-1.665-3.226-1.361-4.057-1.416-3.708-1.03-4.36-.96-3.431-.602-4.333-.585-3.607-.344-4.835-.253-3.771-.024-4.688.217-3.83.402-4.758.793-4.2.954-4.854 1.345-8.37 2.687-5.097 1.787-5.177 1.946-9.78 4.2-5.437 2.75-5.005 2.841-3.958 2.477-4.718 3.231-4.549 3.397-4.362 3.499-4.12 3.52-4.06 3.762-2.904 2.94-3.638 4.007-4.029 4.968-3.568 4.996-2.614 4.15-2.26 4.045-2.216 4.521-3.843 9.253-3.732 10.208-3.872 10.712-4.266 11.02-4.922 10.871-5.27 10.1-6.345 10.523-6.214 8.863-6.285 8.135-5.886 7.11-2.982 3.394-2.266 2.468-2.744 2.852-2.174 2.153-2.663 2.49-2.708 2.333-2.763 2.16-2.668 1.894-2.907 1.847-2.804 1.532-2.898 1.31-3.189 1.152-2.763.785-3.316.754-3.712.745-3.674.753-3.101.692-3.7.92-3.244.932-4.169 1.445-3.959 1.76-6.191 3.938-2.933 2.453-2.808 2.627-2.966 2.99-2.799 3.012-2.27 2.596-2.906 3.632-1.978 2.736-2.509 3.867-2.351 4.105-2.405 4.57-2.399 4.723-2.402 4.862-2.31 5.012-2.078 5.096-1.392 3.91-1.608 5.202-.998 3.714-1.21 5.296-.964 5.317-.67 4.987-.434 4.966-.24 9.396.393 9.693.344 4.298.447 4.321.621 4.89.62 4.216.652 4.164.53 3.551.431 3.278.278 2.499.26 2.944.129 2.319.04 2.703-.11 2.701-.263 2.418-.48 2.456-.659 2.193-.859 2.059-.84 1.554-1.198 1.73-1.182 1.34-1.484 1.347-1.301.965-1.723 1.033-1.85.834-2.114.635-1.583.277-2.457.112-2.235-.232-2.353-.55-1.985-.673-2.668-1.165-2.147-1.116-1.73-.99-5.653-3.581-6.15-4.236-3.51-2.572-3.43-2.657-5.68-4.987-4.75-5.543-1.855-2.924-1.61-3.189-2.07-5.826-1.176-6.191-.051-5.557.431-3.127.771-3.087 2.043-5.31 2.838-5.472 2.272-3.884 1.774-2.955 2.667-4.519 2.137-3.788 2.685-5.084 2.399-4.836 2.826-5.976 2.588-5.615 3.127-6.82 2.898-6.257 3.527-7.436 3.3-6.752 4.02-7.985 3.462-6.695 4.794-9.02 4.486-8.188 5.356-9.447 3.985-6.77 5.96-9.717 4.816-7.518 6.63-9.952 5.303-7.706 6.786-9.598 7.543-10.327 7.41-9.825 8.183-10.514 7.982-9.9 8.835-10.514 7.538-8.635 5.536-6.15 5.097-5.54z" stroke-width="28" stroke="#000" fill="none"/>
  <path d="m-386.878-133.969 7.833-7.959 8.285-8.086 5.048-4.737 5.793-5.25 3.444-3.036 6.245-5.361 5.257-4.382 4.946-4.01 5.71-4.483 4.683-3.56 6.182-4.541 4.77-3.388 6.287-4.323 4.846-3.233 6.343-4.136 5.236-3.35 5.937-3.732 5.07-3.123 5.55-3.347 4.275-2.538 5.276-3.113 3.912-2.305 5.082-2.993 3.84-2.249 4.898-2.821 3.911-2.205 4.288-2.362 3.324-1.79 3.592-1.875 2.393-1.2 2.73-1.281 2.405-1.024 2.52-.95 2.514-.806 2.206-.569 2.47-.47 2.323-.283 1.917-.145 2.577-.064 2.185.068 5.023.57 2.479.502 2.18.56 2.892.904 2.246.825 2.82 1.19 2.497 1.209 2.867 1.58 2.142 1.33 3.014 2.099 2.994 2.337 5.178 4.426 3.127 2.787 3.216 2.923 3.1 2.89 3.381 3.223 3.456 3.357 3.33 3.264 2.553 2.49 3.491 3.33 2.909 2.701 3.657 3.328 3.968 3.555 4.038 3.586 3.135 2.76 3.923 3.402 4.257 3.62 4.106 3.432 3.406 2.812 4.292 3.503 3.582 2.887 4.835 3.836 3.493 2.731 5.061 3.91 3.952 3.03 5.267 4.013 4.102 3.118 5.412 4.136 3.186 2.457 5.38 4.222 4.053 3.258 4.93 4.046 3.976 3.303 4.576 3.81 3.974 3.285 5.523 4.522 3.99 3.237 5.25 4.224 4.048 3.217 5.621 4.393 5.362 4.091 5.09 3.792 3.845 2.806 5.485 3.926 4.228 2.959 5.928 4.019 4.335 2.83 5.736 3.61 4.43 2.704 5.846 3.435 4.524 2.55 5.959 3.22 4.224 2.214 5.964 3.11 4.842 2.594 5.459 3.047 4.684 2.73 5.602 3.377 4.22 2.607 5.437 3.451 4.075 2.687 4.91 3.378 4.195 3.02 4.676 3.533 3.71 2.94 4.757 3.93 3.855 3.303 4.634 4.07 3.8 3.387 4.58 4.115 3.754 3.38 4.263 3.82 3.45 3.062 4.23 3.719 4.732 4.1 4.106 3.477 3.855 3.163 3.544 2.796 2.774 2.093 3.427 2.435 3.05 1.994 3.779 2.23 2.95 1.55 3.93 1.812 3.054 1.213 3.802 1.293 3.349.972 4.082.99 2.881.577 3.809.638 3.282.454 3.883.43 2.644.218 3.614.184 3.277.046 3.352-.07 3.06-.178 5.732-.734 2.53-.5 2.857-.698 3-.896 2.788-.986 2.927-1.2 2.699-1.266 1.986-1.035 2.747-1.588 2.061-1.31 2.504-1.723 2.177-1.609 2.48-1.944 2.45-2.052 2.395-2.182 2.57-2.594 2.138-2.415 1.51-1.882 1.635-2.265 1.71-2.687 1.184-2.088 1.298-2.51 1.462-3.156 1.565-3.846 1.214-3.346.454-1.39.93-3.205 1.092-4.882.54-3.484.607-5.853.313-3.665.358-3.731.4-3.512.496-3.65.551-3.333.522-2.635.751-3.138.774-2.645 1.028-2.89 1.024-2.398 1.374-2.727 1.493-2.522 1.697-2.483 1.18-1.567 1.72-2.107 1.559-1.759 3.001-3.04 1.889-1.703 1.944-1.597 3.636-2.61 2.102-1.317 2.225-1.255 2.5-1.263 2.64-1.186 1.912-.773 2.788-1.008 2.212-.705 2.98-.843 2.368-.589 3.216-.688 2.552-.459 3.254-.496 2.729-.358 3.466-.383 3.134-.268 3.703-.215 7.053-.134 7.815.163 4.702.175 4.911.184 3.592.127 5.256.163 4.15.084 5.23.02 4.341-.069 5.417-.186 5.483-.284 5.523-.36 4.512-.334 5.25-.42 4.818-.407 5-.433 4.444-.383 5.062-.421 3.946-.312" stroke-width="12" stroke="#e73323" fill="none"/>
  <path d="m448.626-92.838 4.457-.323 4.457-.301 4.613-.286 3.754-.212 3.495-.177 2.518-.114 3.073-.124 2.514-.089 1.942-.06 3.122-.084 3.308-.067 3.064-.035 2.599.002 2.47.043 2.154.092 1.834.14 1.308.142 1.615.226 1.729.324 1.73.43 1.619.513 1 .38 2.822 1.388 2.781 1.856 2.107 1.767.828.813.945 1.035 1.23 1.57.91 1.382.97 1.779.63 1.43.655 1.948.364 1.536.288 1.939.111 1.614-.001 2.029-.174 2.197-.356 2.225-.505 2.103-.677 2.119-.681 1.753-1.073 2.343-1.286 2.412-1.42 2.345-1.2 1.798-1.792 2.463-1.731 2.238-2.121 2.658-1.935 2.442-2.386 3.115-1.942 2.658-2.156 3.094-1.671 2.554-2.057 3.391-1.582 2.832-1.69 3.277-1.273 2.682-1.488 3.386-1.277 3.129-1.363 3.511-.787 2.074-.768 2.053-.81 2.183-.794 2.16-1.332 3.69-1.106 3.414-.764 3.04-.242 1.475-.122 1.42-.007 1.273.126 1.476.323 1.608.438 1.322.872 1.752.786 1.143.789.91.7.655 1.023.772.895.542 1.328.616 1.102.365 1.254.251h2.106l1.793-.411 1.916-.885.917-.625.804-.684 1.126-1.24.833-1.215.869-1.667.816-2.074.627-2.075.455-1.898.437-2.422.279-2.229.34-4.648.336-4.671.223-2.599.277-2.935.23-2.119.36-2.766.434-2.585.608-2.656 1.034-3.175 1-2.228.662-1.22 1.1-1.743.725-1.004 1.406-1.711 1.552-1.603 1.675-1.476 1.439-1.09 1.85-1.187 1.546-.826 2.067-.882 1.725-.557 1.99-.463 1.631-.255 2.054-.169 2.165-.015 2.462.176 2.605.429 2.567.65 2.346.756 3.022 1.126 3.031 1.225 3.423 1.453 3.415 1.506 3.828 1.767 3.766 1.844 3.076 1.626 3.623 2.114 2.877 1.886 2.969 2.221 1.864 1.596 1.936 1.866 1.411 1.513 1.683 1.998 1.189 1.57 1.316 1.985 1.172 2.127.957 2.152.592 1.66.591 2.19.317 1.69.238 2.218.049 1.979-.132 2.328-.25 1.85-.507 2.335-.579 1.933-.866 2.265-1.005 2.128-1.582 2.754-1.357 2.008-1.807 2.346-1.63 1.903-2.74 2.905-2.722 2.66-3.22 2.93-2.725 2.332-3.451 2.778-3.527 2.64-4.664 3.221-3.824 2.472-5.308 3.262-4.277 2.535-5.861 3.385-4.288 2.45-6.247 3.579-4.904 2.813-7.776 4.408-11.778 6.409-6.738 3.525-7.765 3.962-7.508 3.71-12.703 6.047-7.435 3.427-5.66 2.558-8.133 3.596-6.27 2.708-7.723 3.24-6.724 2.716-7.648 2.946-8.066 2.897-8.009 2.617-7.48 2.196-13.409 3.38-13.65 2.673-13.41 1.712-12.695.767-12.803.009-13.242-.875-5.25-.611-5.179-.748-6.672-1.178-5.035-1.036-6.161-1.443-5.025-1.319-6.218-1.812-5.455-1.763-6.665-2.36-5.14-1.947-6.828-2.708-4.908-2.01-6.67-2.787-5.535-2.348-6.95-2.987-6.211-2.695-7.695-3.37-7.855-3.48-7.048-3.148-6.14-2.778-7.999-3.74-5.584-2.73-7.808-3.983-7.701-4.064-7.167-3.867-7.503-4.156-7.275-4.169-6.636-3.93-5.322-3.233-6.91-4.315-6.468-4.189-6.818-4.604-5.194-3.643-6.762-4.94-5.133-3.909-6.17-4.868-4.665-3.803-5.212-4.368-4.082-3.467-4.34-3.67-2.996-2.503-3.741-3.106-2.742-2.268-3.392-2.807-2.412-2-2.89-2.398-2.289-1.9L43.62-7.18l-2.101-1.7-2.272-1.783-1.894-1.42-2.039-1.446-1.846-1.227L31.466-16l-1.939-1.113-2.119-1.084-1.646-.722-2.293-.816-2.04-.516-3.173-.426-2.042-.046-1.677.076-2.089.206-2.114.267-2.278.281-1.766.166-2.18.098-1.625-.014-2.154-.154-1.598-.227-2.205-.488-1.5-.463-1.998-.825-1.44-.761-1.797-1.174-1.339-1.046-1.632-1.507-1.205-1.301-1.56-1.956-1.235-1.783-1.401-2.27-2.854-4.927-3.703-6.039-2.397-3.726-2.483-3.714-2.366-3.389-3.123-4.25-3.406-4.371-3.676-4.464-3.678-4.24-3.883-4.262-3.3-3.483-3.96-4.046-4.398-4.36-4.573-4.423-3.827-3.651-4.828-4.605-3.05-2.934-4.95-4.816-4.08-3.998-5.736-5.634-4.198-4.11-5.537-5.372-3.939-3.778-5.526-5.24-4.213-3.964-5.143-4.825-4.44-4.162-3.101-2.907-8.638-8.095-5.557-5.2-3.644-3.38-1.463-1.34-3.094-2.781-2.043-1.787-2.66-2.257-3.287-2.677-2.892-2.25-3.328-2.458-2.742-1.88-3.661-2.242-2.87-1.539-3.63-1.676-3.276-1.273-4.127-1.309-3.764-.94-4.158-.834-3.469-.55-4.375-.52-3.928-.301-4.602-.152-4.075.066-4.405.317-3.846.502-5.073.981-3.917.984-5.188 1.521-3.094.989-5.03 1.698-5.455 1.964-5.202 2.024-4.24 1.798-5.505 2.59" stroke-width="12" stroke="#4fafdf" fill="none"/>
  <path d="m-270.27-180.602-4.949 2.927-3.91 2.542-4.652 3.297-4.76 3.667-4 3.29-4.26 3.746-3.7 3.564-3.07 3.221-3.558 4.087-3.17 4.032-1.703 2.352-2.35 3.51-2.7 4.513-2.017 3.83-2.143 4.597-1.733 4.126-2.147 5.597-1.61 4.412-2.004 5.571-1.794 4.988-2.272 6.176-1.979 5.149-2.423 5.878-2.124 4.724-2.768 5.707-2.35 4.542-3.2 5.797-2.76 4.628-3.504 5.417-2.78 3.99-3.712 5.028-2.826 3.664-3.19 3.997-2.657 3.225-3.108 3.637-2.376 2.669-2.886 3.095-2.208 2.256-2.644 2.57-2.68 2.43-2.73 2.26-2.625 1.977-2.864 1.952-2.937 1.76-2.838 1.435-2.934 1.21-6.094 1.781-3.39.717-3.565.71-3.022.633-3.863.89-2.995.776-4.217 1.287-4.095 1.568-3.84 1.9-2.704 1.69-3.067 2.321-2.872 2.521-2.967 2.867-2.794 2.89-2.801 3.087-2.429 2.877-2.695 3.52-2.097 3.049-2.29 3.718-2.45 4.451-2.252 4.363-2.406 4.77-2.384 4.916-2.242 5.054-1.649 4.201-1.65 4.837-1.274 4.3-1.266 4.964-1.11 5.311-.858 5.312-.566 4.976-.322 4.656-.132 4.372.038 5.393.159 4.19.34 5.248.292 3.316.59 5.308.561 4.161.7 4.61.641 4.122.484 3.405.301 2.408.333 3.206.171 2.19.127 2.979-.02 2.631-.178 2.64-.34 2.374-.533 2.266-.786 2.276-.88 1.872-.971 1.605-1.27 1.637-1.147 1.176-1.534 1.28-1.024.713-2.09 1.164-1.898.75-2.17.538-1.747.21-2.339-.028-2.274-.35-2.394-.668-2.16-.827-2.725-1.3-1.69-.924-2.296-1.362-2.241-1.41-3.384-2.236-2.75-1.881-3.495-2.486-3.495-2.61-3.37-2.68-2.58-2.223-3.082-3.004-2.092-2.393-2.216-3.056-1.72-2.959-1.475-3.202-.954-2.614-.964-3.406-.524-2.596-.387-3.391-.05-2.584.242-3.155.58-3.101.916-3.09.738-1.961 1.546-3.423 3.056-5.605 4.22-7.076 4.73-8.36 5.13-10.251 5.518-11.919 6.169-13.319 7.26-14.893 7.691-14.9 4.625-8.592 4.574-8.253 9.894-16.886 10.666-16.75 12.147-17.746 6.898-9.645 8.132-10.99 7.535-9.859 7.8-9.892 8.617-10.517 8.978-10.503 11.029-12.316 5.695-6.143" stroke-width="12" stroke="#f7d347" fill="none"/>
</svg>
