<?xml version="1.0" standalone="no"?>
<svg xmlns:xlink="http://www.w3.org/1999/xlink" id="s2" class="track" xmlns="http://www.w3.org/2000/svg" preserveAspectRatio="xMinYMid meet" height="800px" width="600px" viewBox="-1200 -700 3000 3000">
            <path d="M 1191.8999 33.6548 L 1199.3954 35.3208 L 1207.895 37.3503 L 1215.3086 39.2013 L 1220.5912 40.563 L 1230.0585 43.1216 L 1237.9023 45.3935 L 1244.1491 47.321 L 1253.4627 50.3867 L 1260.6728 52.9044 L 1268.9098 55.9136 L 1275.0903 58.2574 L 1283.3255 61.5117 L 1291.5403 64.9303 L 1300.2319 68.7467 L 1308.8898 72.7432 L 1317.0262 76.6286 L 1325.1644 80.5881 L 1333.7265 84.8167 L 1342.0162 89.0042 L 1349.479 92.8551 L 1356.9681 96.745 L 1361.9712 99.3238 L 1368.3348 102.5673 L 1374.4067 105.6457 L 1380.4215 108.6865 L 1385.6792 111.2939 L 1390.6663 113.6509 L 1395.8055 115.8705 L 1400.5788 117.6639 L 1404.4416 118.8877 L 1409.1771 120.062 L 1413.0005 120.7246 L 1417.9944 121.203 L 1421.7711 121.2751 L 1426.6213 120.9938 L 1430.2155 120.4793 L 1434.6874 119.4152 L 1438.1863 118.2131 L 1442.0505 116.5049 L 1444.9296 115.0534 L 1448.7852 112.9683 L 1452.1429 111.0048 L 1455.8873 108.5811 L 1458.7386 106.4913 L 1461.9386 103.811 L 1464.1505 101.7622 L 1467.3537 98.755 L 1469.692 96.7311 L 1472.6591 94.4541 L 1475.7468 92.4576 L 1478.9502 90.8087 L 1480.9868 89.9697 L 1484.2613 88.9507 L 1487.1279 88.3919 L 1490.3557 88.1482 L 1492.9226 88.2616 L 1496.1922 88.8096 L 1498.4634 89.4537 L 1501.6477 90.727 L 1504.1985 92.0959 L 1506.2945 93.4998 L 1508.5768 95.3941 L 1510.9276 97.8792 L 1512.9727 100.6844 L 1514.8079 104.0035 L 1516.2245 107.4086 L 1517.403 111.2731 L 1518.0733 114.3769 L 1518.609 118.3559 L 1518.7989 121.7118 L 1518.7116 126.2656 L 1518.3902 129.879 L 1517.6167 134.7657 L 1516.7381 138.6011 L 1515.3071 143.4063 L 1513.8593 147.3569 L 1511.736 152.2562 L 1509.5896 156.573 L 1506.8414 161.5367 L 1504.5939 165.2828 L 1501.1765 170.638 L 1498.4121 174.7839 L 1494.5431 180.35 L 1491.1429 184.9895 L 1484.25 193.7001 L 1480.2454 198.4151 L 1475.1088 204.2048 L 1469.7002 210.0473 L 1464.3784 215.5923 L 1458.4998 221.5304 L 1454.2134 225.7531 L 1447.9504 231.7537 L 1443.0059 236.3438 L 1436.3413 242.3436 L 1431.0914 246.914 L 1424.0158 252.8415 L 1418.0146 257.6653 L 1410.9617 263.1102 L 1405.0903 267.4824 L 1384.8605 281.6287 L 1369.6196 291.3578 L 1355.0093 300.0423 L 1342.2534 307.294 L 1329.3386 314.3614 L 1317.9194 320.3287 L 1307.1762 325.3266 L 1298.0258 328.8297 L 1289.3424 331.4243 L 1281.3459 332.9601 L 1278.094 333.2944 L 1274.7083 333.4711 L 1270.9315 333.5058 L 1267.8829 333.4192 L 1264.1012 333.176 L 1260.714 332.8346 L 1256.2037 332.169 L 1252.5839 331.4491 L 1248.0826 330.3053 L 1243.4944 328.8236 L 1239.1353 327.1102 L 1234.491 325.0282 L 1230.0245 322.9692 L 1225.1102 320.8775 L 1220.3301 319.1236 L 1215.185 317.6023 L 1210.921 316.6537 L 1205.9804 315.8738 L 1200.3222 315.3216 L 1196.1794 315.1185 L 1190.6738 315.1043 L 1185.4081 315.3646 L 1179.7498 315.9388 L 1174.0299 316.8067 L 1169.6 317.6538 L 1163.737 318.9869 L 1158.1586 320.4565 L 1152.5486 322.1539 L 1146.9286 324.1163 L 1142.0189 326.0666 L 1136.3798 328.5647 L 1131.3348 331.0145 L 1125.0032 334.2757 L 1120.324 336.7762 L 1113.8346 340.3332 L 1108.3297 343.4172 L 1100.8308 347.6873 L 1093.4838 351.8928 L 1087.4096 355.3558 L 1081.8248 358.514 L 1074.0398 362.8663 L 1067.7504 366.3322 L 1060.2759 370.3422 L 1053.3646 373.8864 L 1046.1365 377.3724 L 1039.0424 380.5313 L 1032.4455 383.1794 L 1027.1481 385.088 L 1020.2828 387.2506 L 1015.0798 388.6413 L 1008.3067 390.1265 L 1003.1405 391.0298 L 996.3671 391.9368 L 989.5535 392.5707 L 983.0806 392.9431 L 978.177 393.0803 L 970.7879 393.0315 L 964.9937 392.7624 L 957.8778 392.1465 L 950.2336 391.129 L 944.6202 390.1556 L 940.239 389.2715 L 932.6753 387.4994 L 929.9758 386.7888 L 919.1024 383.4756 L 912.7136 381.1912 L 905.3865 378.3082 L 899.4034 375.7905 L 891.5298 372.3147 L 884.9847 369.3522 L 877.8834 366.1479 L 869.7035 362.5381 L 857.0562 357.14 L 849.2469 353.8931 L 843.8304 351.6883 L 837.161 349.0417 L 832.8633 347.3749 L 828.875 345.8709 L 824.9621 344.4705 L 820.728 343.0781 L 818.0523 342.2952 L 814.4706 341.3945 L 811.7832 340.8316 L 808.4377 340.2578 L 805.6247 339.8788 L 802.0134 339.5456 L 798.9863 339.416 L 795.0333 339.4942 L 792.038 339.768 L 788.3084 340.3659 L 784.3207 341.3293 L 780.2706 342.7198 L 777.5094 343.9516 L 774.1411 345.8318 L 771.9388 347.349 L 769.2769 349.5002 L 766.8298 351.7749 L 764.6097 354.1132 L 762.4683 356.6707 L 760.059 360.0876 L 758.3553 363.0239 L 756.5526 366.8312 L 755.1872 370.3384 L 753.7139 374.7652 L 752.6069 378.2327 L 751.4 381.7245 L 747.832 389.7972 L 743.4859 396.5301 L 738.345 402.377 L 732.978 407.2679 L 729.5544 409.9948 L 726.2678 412.3966 L 717.0792 418.2437 L 713.4531 420.2352 L 709.9776 421.9709 L 706.4455 423.5552 L 703.303 424.8183 L 699.3929 426.195 L 696.3234 427.1216 L 692.1882 428.1594 L 687.9004 428.9874 L 683.7381 429.5548 L 679.1706 429.9399 L 674.7454 430.1109 L 669.9093 430.1121 L 664.9313 429.9651 L 659.823 429.6804 L 654.6003 429.2522 L 649.2688 428.672 L 644.1711 427.9812 L 640.3015 427.3662 L 636.0749 426.6044 L 630.5018 425.4589 L 626.2112 424.4809 L 620.8796 423.175 L 616.1334 421.9566 L 610.5821 420.4869 L 603.0497 418.4438 L 596.749 416.7037 L 586.2481 413.7326 L 576.9095 410.9936 L 564.652 407.2553 L 551.4392 403.1029 L 538.1949 398.8518 L 530.7146 396.4025 L 516.4072 391.6481 L 508.1601 388.8503 L 500.3233 386.1473 L 491.4372 383.0333 L 484.9758 380.7491 L 476.4812 377.7208 L 468.4404 374.8128 L 460.3592 371.842 L 451.7391 368.6187 L 443.0823 365.325 L 434.3899 361.9602 L 418.4731 355.647 L 402.4863 349.1044 L 387.4924 342.7221 L 372.0163 335.7884 L 356.5633 328.5012 L 341.1577 320.8955 L 325.781 313.0084 L 310.4126 304.902 L 294.5521 296.3004 L 279.2426 287.7715 L 270.5941 282.8391 L 261.9367 277.8066 L 251.231 271.4282 L 242.6694 266.192 L 239.7071 264.3497 L 232.0102 259.4817 L 224.2378 254.4531 L 219.8596 251.5848 L 212.7474 246.8999 L 206.4067 242.7139 L 198.6383 237.5811 L 192.8297 233.726 L 189.9347 231.7954 L 184.7981 228.3574 L 181.1551 225.9117 L 176.9991 223.1148 L 172.9335 220.372 L 169.3316 217.9358 L 166.517 216.0227 L 162.9711 213.5819 L 160.3638 211.7306 L 157.0811 209.2873 L 153.9166 206.7757 L 151.051 204.3136 L 148.8218 202.2296 L 146.0463 199.3803 L 144.0339 197.1082 L 141.5553 194.0156 L 139.7813 191.5593 L 137.6209 188.2282 L 136.2013 185.7878 L 134.3548 182.2058 L 133.1013 179.3697 L 131.7647 175.7694 L 130.7785 172.5368 L 129.8687 168.7746 L 129.3758 166.149 L 128.7401 161.2813 L 128.4814 158.0492 L 128.262 153.7502 L 128.0826 149.3784 L 127.6611 141.5053 L 126.8165 133.7802 L 126.0713 129.5173 L 123.9774 121.6246 L 122.3501 117.2418 L 120.5859 113.1551 L 118.4897 108.8385 L 116.5987 105.293 L 114.12 101.0052 L 112.0916 97.7477 L 109.2477 93.5333 L 106.7362 90.1235 L 103.474 86.0658 L 100.8255 83.0324 L 97.1649 79.1679 L 94.4521 76.5177 L 90.6729 73.0811 L 87.469 70.358 L 83.1081 66.8886 L 78.8292 63.7035 L 74.389 60.5463 L 70.2818 57.6882 L 65.9213 54.6899 L 61.2689 51.5256 L 57.7679 49.169 L 51.49 44.9889 L 46.4099 41.6477 L 39.8463 37.3828 L 32.5123 32.6829 L 25.2722 28.0895 L 17.7258 23.3218 L 11.4071 19.332 L 2.8539 13.9387 L -3.8943 9.7082 L -13.0067 4.0502 L -20.7437 -.7015 L -29.8356 -6.2238 L -37.4185 -10.768 L -47.594 -16.7583 L -55.5644 -21.3762 L -66.2217 -27.4661 L -74.553 -32.1559 L -83.7031 -37.224 L -103.2233 -47.692 L -124.0523 -58.2925 L -135.4143 -63.7874 L -148.4111 -69.78 L -166.0697 -77.3023 L -178.8261 -82.2794 L -185.6386 -84.7993 L -197.7812 -89.035 L -208.4253 -92.4431 L -221.1929 -96.132 L -230.7504 -98.605 L -242.9428 -101.4207 L -251.3428 -103.1615 L -262.91 -105.3247 L -272.216 -106.8949 L -282.608 -108.5069 L -291.5747 -109.8018 L -301.7746 -111.1984 L -310.6347 -112.3842 L -320.5026 -113.7159 L -328.7621 -114.8452 L -338.7646 -116.1805 L -347.0391 -117.2242 L -354.7502 -118.1677 L -361.0159 -118.9676 L -371.0186 -120.4234 L -376.8599 -121.4034 L -380.8665 -122.129 L -385.7112 -123.0576 L -389.1953 -123.7707 L -393.1743 -124.7088 L -396.3452 -125.6325 L -399.7854 -126.9121 L -402.0977 -128.0028 L -404.7402 -129.5652 L -406.5334 -130.8866 L -408.651 -132.8275 L -410.1849 -134.6041 L -411.7535 -136.9591 L -412.7029 -138.8816 L -413.5334 -141.3521 L -413.9034 -143.3947 L -413.9811 -145.9016 L -413.7197 -148.0686 L -413.041 -150.5807 L -412.1657 -152.6837 L -410.6649 -155.281 L -409.0915 -157.319 L -406.5609 -159.7755 L -404.2827 -161.4291 L -401.1263 -163.1706 L -398.1281 -164.4578 L -394.2476 -165.7388 L -391.1116 -166.4871 L -386.8054 -167.1415 L -382.3003 -167.4179 L -378.7386 -167.375 L -373.9293 -167.0097 L -368.9394 -166.3478 L -364.9811 -165.6666 L -359.9098 -164.6328 L -354.5926 -163.4089 L -348.2726 -161.8061 L -342.3433 -160.1917 L -337.2705 -158.761 L -332.3757 -157.3811 L -325.5626 -155.5451 L -317.8988 -153.6648 L -303.4944 -150.6674 L -295.3608 -149.2875 L -286.9402 -148.1238 L -271.0053 -146.6895 L -254.29 -146.0828 L -246.5276 -146.036 L -238.5088 -146.1212 L -227.5832 -146.4024 L -216.8495 -146.775 L -207.1064 -147.1462 L -195.569 -147.6194 L -183.6049 -148.1357 L -173.5952 -148.5749 L -160.1435 -149.1655 L -150.4088 -149.5824 L -136.2609 -150.1626 L -125.2015 -150.5972 L -111.2658 -151.1287 L -97.0124 -151.6632 L -82.4426 -152.2053 L -70.3844 -152.6473 L -56.2006 -153.1276 L -43.7588 -153.4819 L -28.1307 -153.808 L -11.2709 -153.9737 L 1.7937 -153.9578 L 20.1766 -153.7407 L 51.334 -152.974 L 68.2923 -152.369 L 85.5162 -151.5812 L 103.913 -150.5022 L 122.6231 -149.1494 L 141.4525 -147.5318 L 160.5243 -145.6188 L 175.1788 -143.9764 L 193.3408 -141.7798 L 212.5662 -139.2917 L 231.5176 -136.6705 L 246.913 -134.458 L 265.3955 -131.8785 L 280.4413 -129.9308 L 297.444 -127.8145 L 312.1528 -125.9435 L 328.7357 -123.7555 L 343.0902 -121.8279 L 359.2741 -119.6356 L 373.2911 -117.7094 L 390.0727 -115.3588 L 403.7323 -113.4202 L 419.1868 -111.2236 L 431.5997 -109.4754 L 446.7214 -107.3816 L 459.776 -105.5939 L 474.4008 -103.5884 L 485.9716 -101.9893 L 500.599 -99.9462 L 511.3901 -98.4283 L 524.998 -96.5256 L 535.8027 -95.035 L 548.3846 -93.3083 L 557.6054 -92.0354 L 569.1551 -90.4221 L 577.6182 -89.2297 L 588.2824 -87.7343 L 592.553 -87.1422 L 602.6373 -85.7663 L 612.2722 -84.4839 L 620.8977 -83.3507 L 624.5591 -82.871 L 637.8624 -81.1305 L 641.3794 -80.6564 L 649.8057 -79.4733 L 657.583 -78.3443 L 665.2244 -77.221 L 669.4629 -76.5933 L 676.8995 -75.4896 L 683.2959 -74.5446 L 690.4356 -73.4856 L 696.436 -72.5809 L 703.2687 -71.5305 L 708.0349 -70.785 L 713.3091 -69.9454 L 717.1415 -69.3155 L 720.6792 -68.7039 L 725.003 -67.8843 L 729.0324 -67.0042 L 732.5929 -66.104 L 736.255 -65.0567 L 739.8435 -63.8987 L 743.1342 -62.681 L 745.7417 -61.5887 L 748.9122 -60.1005 L 751.4957 -58.7577 L 754.6793 -56.9294 L 757.8066 -54.9041 L 761.0555 -52.495 L 764.1527 -49.8183 L 766.4365 -47.6015 L 769.3627 -44.5168 L 771.9517 -41.6627 L 774.4443 -38.9143 L 777.4333 -35.7072 L 780.1853 -32.8626 L 783.0884 -30.0358 L 786.6226 -26.8743 L 790.4167 -23.8615 L 793.6793 -21.5445 L 798.1677 -18.7595 L 801.4401 -17.0057 L 806.1539 -14.8681 L 809.7974 -13.4735 L 814.3361 -11.9585 L 818.9291 -10.6239 L 823.8981 -9.3562 L 828.713 -8.294 L 838.2072 -6.6857 L 848.5987 -5.401 L 859.2736 -4.3249 L 872.2534 -2.994 L 885.8961 -1.4478 L 901.0217 .2359 L 907.6545 .9247 L 911.2894 1.2883 L 920.3118 2.1535 L 927.374 2.8094 L 936.2533 3.6251 L 943.6054 4.304 L 952.8236 5.1751 L 961.0118 5.9771 L 970.5588 6.9467 L 983.3427 8.3003 L 993.2716 9.3761 L 1012.2842 11.427 L 1023.253 12.589 L 1029.7433 13.2713 L 1038.2412 14.1669 L 1048.7471 15.2825 L 1057.98 16.2749 L 1069.2464 17.5007 L 1077.9074 18.4522 L 1089.289 19.7148 L 1098.0089 20.6907 L 1109.4391 21.9841 L 1118.087 22.9735 L 1129.2197 24.2623 L 1138.2219 25.3196 L 1148.3275 26.5471 L 1156.3978 27.5856 L 1166.1423 28.9553 L 1174.5072 30.2772 L 1184.4295 32.0596 z" stroke-width="28" stroke="black" fill="none" id="Track"/><path d="M 1191.8999 33.6548 L 1199.3954 35.3208 L 1207.895 37.3503 L 1215.3086 39.2013 L 1220.5912 40.563 L 1230.0585 43.1216 L 1237.9023 45.3935 L 1244.1491 47.321 L 1253.4627 50.3867 L 1260.6728 52.9044 L 1268.9098 55.9136 L 1275.0903 58.2574 L 1283.3255 61.5117 L 1291.5403 64.9303 L 1300.2319 68.7467 L 1308.8898 72.7432 L 1317.0262 76.6286 L 1325.1644 80.5881 L 1333.7265 84.8167 L 1342.0162 89.0042 L 1349.479 92.8551 L 1356.9681 96.745 L 1361.9712 99.3238 L 1368.3348 102.5673 L 1374.4067 105.6457 L 1380.4215 108.6865 L 1385.6792 111.2939 L 1390.6663 113.6509 L 1395.8055 115.8705 L 1400.5788 117.6639 L 1404.4416 118.8877 L 1409.1771 120.062 L 1413.0005 120.7246 L 1417.9944 121.203 L 1421.7711 121.2751 L 1426.6213 120.9938 L 1430.2155 120.4793 L 1434.6874 119.4152 L 1438.1863 118.2131 L 1442.0505 116.5049 L 1444.9296 115.0534 L 1448.7852 112.9683 L 1452.1429 111.0048 L 1455.8873 108.5811 L 1458.7386 106.4913 L 1461.9386 103.811 L 1464.1505 101.7622 L 1467.3537 98.755 L 1469.692 96.7311 L 1472.6591 94.4541 L 1475.7468 92.4576 L 1478.9502 90.8087 L 1480.9868 89.9697 L 1484.2613 88.9507 L 1487.1279 88.3919 L 1490.3557 88.1482 L 1492.9226 88.2616 L 1496.1922 88.8096 L 1498.4634 89.4537 L 1501.6477 90.727 L 1504.1985 92.0959 L 1506.2945 93.4998 L 1508.5768 95.3941 L 1510.9276 97.8792 L 1512.9727 100.6844 L 1514.8079 104.0035 L 1516.2245 107.4086 L 1517.403 111.2731 L 1518.0733 114.3769 L 1518.609 118.3559 L 1518.7989 121.7118 L 1518.7116 126.2656 L 1518.3902 129.879 L 1517.6167 134.7657 L 1516.7381 138.6011 L 1515.3071 143.4063 L 1513.8593 147.3569 L 1511.736 152.2562 L 1509.5896 156.573 L 1506.8414 161.5367 L 1504.5939 165.2828 L 1501.1765 170.638 L 1498.4121 174.7839 L 1494.5431 180.35 L 1491.1429 184.9895 L 1484.25 193.7001 L 1480.2454 198.4151 L 1475.1088 204.2048 L 1469.7002 210.0473 L 1464.3784 215.5923 L 1458.4998 221.5304 L 1454.2134 225.7531 L 1447.9504 231.7537 L 1443.0059 236.3438 L 1436.3413 242.3436 L 1431.0914 246.914 L 1424.0158 252.8415 L 1418.0146 257.6653 L 1410.9617 263.1102 L 1405.0903 267.4824 L 1384.8605 281.6287 L 1369.6196 291.3578 L 1355.0093 300.0423 L 1342.2534 307.294 L 1329.3386 314.3614 L 1317.9194 320.3287 L 1307.1762 325.3266 L 1298.0258 328.8297 L 1289.3424 331.4243 L 1281.3459 332.9601 L 1278.094 333.2944 L 1274.7083 333.4711 L 1270.9315 333.5058 L 1267.8829 333.4192 L 1264.1012 333.176 L 1260.714 332.8346 L 1256.2037 332.169 L 1252.5839 331.4491 L 1248.0826 330.3053 L 1243.4944 328.8236 L 1239.1353 327.1102 L 1234.491 325.0282 L 1230.0245 322.9692 L 1225.1102 320.8775 L 1220.3301 319.1236 L 1215.185 317.6023 L 1210.921 316.6537 L 1205.9804 315.8738 L 1200.3222 315.3216 L 1196.1794 315.1185 L 1190.6738 315.1043 L 1185.4081 315.3646 L 1179.7498 315.9388 L 1174.0299 316.8067 L 1169.6 317.6538 L 1163.737 318.9869 L 1158.1586 320.4565 L 1152.5486 322.1539 L 1146.9286 324.1163 L 1142.0189 326.0666 L 1136.3798 328.5647 L 1131.3348 331.0145 L 1125.0032 334.2757 L 1120.324 336.7762 L 1113.8346 340.3332 L 1108.3297 343.4172 L 1100.8308 347.6873 L 1093.4838 351.8928 L 1087.4096 355.3558 L 1081.8248 358.514 L 1074.0398 362.8663 L 1067.7504 366.3322 L 1060.2759 370.3422 L 1053.3646 373.8864 L 1046.1365 377.3724 L 1039.0424 380.5313 L 1032.4455 383.1794 L 1027.1481 385.088 L 1020.2828 387.2506 L 1015.0798 388.6413 L 1008.3067 390.1265 L 1003.1405 391.0298 L 996.3671 391.9368 L 989.5535 392.5707 L 983.0806 392.9431 L 978.177 393.0803 L 970.7879 393.0315 L 964.9937 392.7624 L 957.8778 392.1465 L 950.2336 391.129 L 944.6202 390.1556 L 940.239 389.2715 L 932.6753 387.4994 L 929.9758 386.7888" stroke-width="12" stroke="#e73323" fill="none" id="S1"/><path d="M 928.1684 386.2889 L 923.6449 384.9496 L 917.7369 383.0074 L 909.9704 380.1415 L 903.9916 377.7328 L 896.1704 374.3815 L 890.1311 371.6845 L 882.157 368.0711 L 874.5322 364.6564 L 866.294 361.0639 L 853.7665 355.7637 L 847.5348 353.1914 L 841.1178 350.6024 L 836.1438 348.6445 L 823.1457 343.8541 L 816.7707 341.9529 L 813.229 341.1225 L 810.5365 340.602 L 807.1533 340.0727 L 804.2904 339.7345 L 800.3919 339.4579 L 797.351 339.4109 L 793.4227 339.6182 L 790.412 339.9939 L 786.6618 340.7204 L 782.7139 341.8254 L 776.0849 344.6877 L 770.8681 348.1732 L 768.0488 350.6057 L 765.6257 353.0068 L 763.445 355.463 L 761.5269 357.9216 L 759.1144 361.6486 L 757.5312 364.6609 L 755.8486 368.5651 L 754.5637 372.1406 L 753.1236 376.627 L 752.2504 379.3058 L 750.6826 383.6035 L 749.0918 387.2884 L 746.8921 391.4731 L 745.026 394.4089 L 742.3552 397.9572 L 740.1413 400.503 L 737.2319 403.4695 L 734.7462 405.7522 L 731.5794 408.4121 L 728.3271 410.9139 L 724.8212 413.3973 L 722.1112 415.1877 L 719.1858 417.0059 L 715.5927 419.0814 L 712.1544 420.9042 L 708.4395 422.683 L 704.8817 424.2007 L 701.9351 425.325 L 697.9876 426.6361 L 694.6407 427.5723 L 690.4396 428.5277 L 686.354 429.2243 L 681.8772 429.7395 L 677.5304 430.0251 L 672.7728 430.1315 L 667.8754 430.0682 L 662.8424 429.8648 L 657.9925 429.5461 L 652.7288 429.065 L 647.3666 428.43 L 642.2398 427.6842 L 638.0306 426.9686 L 633.7872 426.1529 L 628.1936 424.9421 L 624.2215 424.0035 L 618.5169 422.5737 L 614.0703 421.4153 L 608.1028 419.8195 L 601.5887 418.0426 L 595.2272 416.2794 L 591.3667 415.1943 L 585.0427 413.3846 L 582.2299 412.566 L 574.4168 410.2463 L 568.9362 408.5796 L 561.6164 406.3086 L 555.8977 404.5118 L 548.2823 402.0999 L 542.8081 400.3462 L 534.9315 397.7864 L 527.4092 395.3129 L 521.2143 393.2579 L 513.0221 390.5055 L 505.2283 387.8442 L 496.8782 384.9453 L 487.9603 381.8057 L 481.4838 379.5085 L 473.4713 376.6376 L 465.4143 373.7061 L 456.8174 370.5244 L 448.1797 367.2713 L 439.5066 363.9479 L 430.7999 360.5535 L 423.6165 357.7087 L 414.8692 354.1901 L 408.1625 351.4515 L 398.8689 347.5915 L 392.15 344.7378 L 383.8809 341.1369 L 376.6568 337.9062 L 368.4089 334.1191 L 361.7129 330.9685 L 352.9688 326.7565 L 346.2904 323.4666 L 337.5691 319.0771 L 330.395 315.3988 L 322.1904 311.1365 L 315.5183 307.6239 L 306.8246 302.9741 L 299.6668 299.0968 L 290.9751 294.3299 L 284.3371 290.6377 L 275.6779 285.7489 L 267.0374 280.7842 L 258.366 275.6991 L 249.7003 270.5012 L 238.2373 263.4293 L 230.611 258.584 L 222.4745 253.3002 L 218.1591 250.4667 L 210.3299 245.3044 L 203.7592 240.9654 L 197.5812 236.8812 L 191.8507 233.0738 L 187.7665 230.3459 L 179.293 224.6595 L 175.2869 221.9605 L 171.3388 219.2943 L 165.0377 215.0109 L 158.9976 210.7308 L 155.766 208.2653 L 152.8279 205.8651 L 150.3554 203.681 L 147.6586 201.0725 L 145.5734 198.8633 L 142.9908 195.8501 L 141.1364 193.4556 L 138.8699 190.2042 L 137.2576 187.6248 L 135.5256 184.5406 L 134.0523 181.5579 L 132.571 178.0272 L 131.4655 174.8524 L 130.4104 171.1333 L 129.677 167.8234 L 129.2598 165.4271 L 128.6491 160.2925 L 128.3796 156.2878 L 128.038 148.34 L 127.8318 144.1494 L 127.5108 139.6454 L 127.1457 136.1806 L 126.5162 131.9127 L 125.673 127.6593 L 124.791 124.2321 L 123.3415 119.8136 L 121.7099 115.6986 L 119.7504 111.3753 L 117.5609 107.0629 L 115.6022 103.5255 L 113.0432 99.2491 L 110.9475 96.0044 L 108.0102 91.8192 L 105.4216 88.4419 L 102.0636 84.4237 L 99.3456 81.4271 L 95.8221 77.8352 L 93.0556 75.2161 L 89.209 71.8173 L 85.6969 68.9168 L 81.2542 65.4856 L 76.9113 62.3276 L 72.3676 59.1347 L 68.1298 56.2045 L 63.6334 53.1287 L 59.8886 50.5942 L 56.3271 48.2045 L 50.3375 44.2277 L 43.5806 39.8022 L 36.8696 35.4675 L 29.8209 30.9716 L 22.0164 26.0315 L 14.3517 21.1914 L 7.9196 17.1305 L -.2408 11.9948 L -7.6134 7.3909 L -16.8505 1.6836 L -24.1237 -2.7624 L -33.3158 -8.3173 L -41.5734 -13.2286 L -51.2502 -18.8836 L -59.2971 -23.5201 L -70.0486 -29.6285 L -79.1063 -34.6896 L -87.6806 -39.3965 L -96.42 -44.0995 L -107.3509 -49.8418 L -116.3451 -54.4442 L -126.1686 -59.3325 L -138.2974 -65.1459 L -150.5933 -70.7507 L -168.3103 -78.2024 L -181.0938 -83.1287 L -190.1912 -86.428 L -213.7107 -94.0236" stroke-width="12" stroke="#4fafdf" fill="none" id="S2"/><path d="M -218.9599 -95.5188 L -227.8307 -97.8753 L -240.1114 -100.7987 L -249.2507 -102.7421 L -260.8886 -104.9648 L -269.5763 -106.4629 L -280.0349 -108.1199 L -289.0167 -109.4402 L -299.8636 -110.9408 L -308.749 -112.132 L -318.6831 -113.4682 L -327.024 -114.608 L -336.6066 -115.8985 L -345.5337 -117.0384 L -353.3447 -117.9947 L -359.7088 -118.7954 L -363.9868 -119.3729 L -375.5533 -121.176 L -379.9705 -121.9633 L -384.8788 -122.8942 L -388.4102 -123.6042 L -392.4558 -124.5246 L -395.6923 -125.4254 L -399.0179 -126.5952 L -401.5882 -127.7434 L -404.155 -129.1843 L -405.9977 -130.4652 L -408.2964 -132.4672 L -409.7677 -134.0811 L -412.4356 -138.2807 L -413.4079 -140.882 L -413.8192 -142.7652 L -413.9976 -145.4344 L -413.825 -147.4515 L -413.2005 -150.1036 L -412.3945 -152.1948 L -411.0851 -154.6367 L -409.4832 -156.8577 L -407.2031 -159.2249 L -405.0134 -160.9433 L -401.7441 -162.867 L -398.7845 -164.1997 L -395.1823 -165.4673 L -391.8484 -166.3329 L -387.5809 -167.0534 L -383.1078 -167.3969 L -379.8449 -167.411 L -374.789 -167.0975 L -369.8341 -166.4837 L -365.9058 -165.8369 L -360.8795 -164.842 L -355.6104 -163.6526 L -349.7081 -162.1828 L -343.8598 -160.6117 L -338.4595 -159.0983 L -333.2039 -157.6123 L -326.8693 -155.8864 L -319.2918 -153.9911 L -311.8009 -152.3123 L -305.4778 -151.0395 L -296.9085 -149.5313 L -288.5419 -148.3238 L -279.9037 -147.3643 L -272.6955 -146.7949 L -263.6025 -146.3301 L -256.0548 -146.1134 L -248.3368 -146.0347 L -240.3837 -146.0904 L -230.2009 -146.3224 L -218.8941 -146.7005 L -197.7659 -147.5268 L -185.8825 -148.0364 L -175.928 -148.4723 L -163.3049 -149.0276 L -152.8634 -149.4786 L -139.6121 -150.0279 L -128.6165 -150.4645 L -113.9047 -151.029 L -99.7045 -151.5626 L -85.1997 -152.103 L -74.1022 -152.5128 L -59.0797 -153.0358 L -46.6538 -153.4062 L -31.1058 -153.7578 L -14.2902 -153.9594 L -1.2537 -153.9727 L 16.0449 -153.8069 L 34.6042 -153.4408 L 48.1806 -153.0714 L 65.1005 -152.4943 L 82.2222 -151.7476 L 100.636 -150.713 L 119.2657 -149.4106 L 138.1002 -147.8393 L 157.1232 -145.9798 L 171.783 -144.3685 L 189.9347 -142.2035 L 209.2116 -139.7381 L 228.1947 -137.1416 L 243.6397 -134.929 L 262.1454 -132.3178 L 276.1689 -130.4715 L 294.2825 -128.2086 L 307.9665 -126.4833 L 325.6411 -124.1683 L 339.0014 -122.3786 L 356.2435 -120.0482 L 369.2908 -118.2625 L 386.132 -115.9148 L 399.8606 -113.9708 L 416.316 -111.6306 L 428.7391 -109.8759 L 443.9041 -107.769 L 456.0861 -106.0985 L 470.7775 -104.0864 L 483.3299 -102.3556 L 498.0624 -100.3023 L 508.1082 -98.89 L 522.6394 -96.8533 L 532.7552 -95.4539 L 546.2078 -93.6074 L 554.8074 -92.4228 L 566.49 -90.7963 L 575.6934 -89.501 L 582.0645 -88.604 L 596.7554 -86.5647 L 606.6546 -85.228 L 616.0888 -83.9819 L 627.6615 -82.4661 L 632.791 -81.7981 L 644.8686 -80.1745 L 652.7376 -79.0504 L 660.943 -77.852 L 668.0557 -76.8017 L 675.5118 -75.6952 L 681.9314 -74.7463 L 689.1137 -73.6826 L 695.1739 -72.7726 L 702.1064 -71.7107 L 706.9723 -70.9521 L 712.3718 -70.0962 L 724.2596 -68.0328 L 728.1095 -67.2182 L 731.9367 -66.2787 L 735.6132 -65.2492 L 739.0069 -64.1826 L 742.5238 -62.9199 L 745.1453 -61.849 L 748.3163 -60.3935 L 750.8994 -59.0782 L 753.8804 -57.4082 L 757.2217 -55.3024 L 760.3064 -53.0835 L 763.4385 -50.4716 L 765.9147 -48.1237 L 768.8492 -45.0734 L 771.4301 -42.2416 L 773.721 -39.7071 L 776.8592 -36.3141 L 779.582 -33.4752 L 782.2412 -30.8394 L 785.9397 -27.4589 L 789.6866 -24.4137 L 792.6579 -22.2426 L 797.0961 -19.384 L 800.6169 -17.4252 L 805.0387 -15.3356 L 808.9522 -13.781 L 813.4848 -12.2264 L 818.0621 -10.8631 L 822.7189 -9.6414 L 827.4955 -8.5465 L 832.4289 -7.593 L 836.8966 -6.8751 L 842.2413 -6.1482 L 847.1559 -5.5617 L 853.4316 -4.8965 L 858.0805 -4.4403 L 864.9943 -3.762 L 870.9469 -3.1366 L 878.4914 -2.296 L 884.4894 -1.6096 L 892.6052 -.6845 L 899.0201 .0216 L 906.1092 .7673 L 918.1651 1.9513 L 925.7275 2.6572 L 934.5744 3.4713 L 941.9038 4.1458 L 951.0791 5.0078 L 958.6563 5.7438 L 968.7589 6.7609 L 976.6035 7.5792 L 987.6627 8.7672 L 997.6539 9.8522 L 1003.9851 10.5371 L 1010.3602 11.2214 L 1016.807 11.908 L 1035.6275 13.8911 L 1046.7613 15.0705 L 1055.9922 16.0601 L 1066.5899 17.2101 L 1075.912 18.2325 L 1086.5985 19.4151 L 1095.3346 20.3906 L 1106.75 21.6781 L 1116.0997 22.7458 L 1127.2692 24.0355 L 1136.305 25.0926 L 1145.8298 26.2375 L 1154.5436 27.3408 L 1163.7371 28.6024 L 1172.1398 29.8873 L 1182.1241 31.6236 L 1190.1575 33.2007" stroke-width="12" stroke="#f7d347" fill="none" id="S3"/></svg>