<?xml version="1.0" standalone="no"?>
<svg xmlns:xlink="http://www.w3.org/1999/xlink" id="s2" class="track" xmlns="http://www.w3.org/2000/svg" width="800" height="400" viewBox="-1000 -1000 2000 2000">
        <path d="M 1033.3106 13.5022 L 1035.8446 13.7657 L 1037.7565 13.9636 L 1040.3218 14.2287 L 1042.2268 14.4254 L 1044.1452 14.6232 L 1046.0661 14.822 L 1047.9947 15.0218 L 1049.9231 15.2222 L 1052.4779 15.4896 L 1054.4072 15.6924 L 1056.332 15.8957 L 1058.2687 16.1012 L 1060.8457 16.3761 L 1062.7771 16.5833 L 1065.3469 16.8604 L 1067.2835 17.0701 L 1069.8746 17.3522 L 1071.8035 17.5632 L 1073.7482 17.7764 L 1076.3261 18.0604 L 1078.2662 18.275 L 1080.2065 18.4905 L 1082.1492 18.7065 L 1084.0924 18.9238 L 1086.6767 19.2128 L 1088.6157 19.4305 L 1090.5468 19.6483 L 1092.4806 19.8669 L 1094.4089 20.0853 L 1096.9668 20.3765 L 1098.885 20.5956 L 1101.4306 20.8872 L 1103.3401 21.1068 L 1105.8773 21.3999 L 1107.7717 21.62 L 1109.6727 21.8409 L 1111.5699 22.0625 L 1114.0844 22.3571 L 1115.9657 22.5789 L 1118.4722 22.8749 L 1120.3346 23.0957 L 1122.2058 23.3179 L 1124.07 23.5404 L 1125.9264 23.7623 L 1127.7828 23.9849 L 1129.6398 24.2088 L 1132.0862 24.5053 L 1133.9194 24.7291 L 1135.7498 24.9537 L 1138.1788 25.2543 L 1139.9926 25.4803 L 1141.8057 25.7082 L 1144.1978 26.0117 L 1145.9965 26.243 L 1148.3718 26.5522 L 1150.1465 26.7867 L 1151.9202 27.0242 L 1154.2659 27.3426 L 1156.023 27.5858 L 1157.775 27.8318 L 1159.5148 28.0797 L 1161.2521 28.3309 L 1163.556 28.6705 L 1165.2766 28.9285 L 1167.5607 29.2773 L 1169.2642 29.5423 L 1171.5342 29.9027 L 1173.2183 30.1762 L 1174.9081 30.4558 L 1177.1438 30.8349 L 1178.8033 31.1236 L 1181.0165 31.5186 L 1182.6668 31.8209 L 1184.3089 32.129 L 1186.4928 32.5507 L 1188.123 32.8743 L 1189.7443 33.2043 L 1191.8999 33.6548 L 1193.5174 34.0018 L 1195.6613 34.4731 L 1197.2619 34.8324 L 1199.3954 35.3208 L 1200.9916 35.6922 L 1202.5917 36.07 L 1204.1867 36.4507 L 1205.7916 36.8375 L 1207.895 37.3503 L 1209.486 37.7417 L 1211.6056 38.2684 L 1213.1998 38.6681 L 1215.3086 39.2013 L 1216.8929 39.6055 L 1219.0059 40.1501 L 1220.5912 40.563 L 1222.6965 41.1174 L 1224.2766 41.5388 L 1226.381 42.107 L 1227.9593 42.539 L 1230.0585 43.1216 L 1231.632 43.565 L 1233.2023 44.0133 L 1234.7705 44.4673 L 1236.3385 44.9276 L 1237.9023 45.3935 L 1239.4678 45.8665 L 1241.0292 46.345 L 1242.5883 46.8295 L 1244.1491 47.321 L 1246.2209 47.9837 L 1247.7767 48.4888 L 1249.848 49.1709 L 1251.3992 49.6887 L 1253.4627 50.3867 L 1255.0095 50.9167 L 1257.069 51.6311 L 1258.6153 52.174 L 1260.6728 52.9044 L 1262.2207 53.4597 L 1263.7616 54.0174 L 1265.3046 54.5805 L 1267.3646 55.3393 L 1268.9098 55.9136 L 1270.4554 56.4926 L 1272.0013 57.0763 L 1273.5457 57.6643 L 1275.0903 58.2574 L 1277.1484 59.0557 L 1278.6945 59.6618 L 1280.2388 60.2728 L 1281.7831 60.8896 L 1283.3255 61.5117 L 1284.8695 62.1406 L 1286.4098 62.7742 L 1288.4622 63.6282 L 1290.0014 64.2761 L 1291.5403 64.9303 L 1293.0755 65.5893 L 1295.1216 66.4778 L 1296.6556 67.1514 L 1298.1911 67.8322 L 1300.2319 68.7467 L 1301.7629 69.44 L 1303.8036 70.3738 L 1305.3303 71.0789 L 1306.8571 71.7895 L 1308.8898 72.7432 L 1310.4186 73.4655 L 1311.9444 74.1902 L 1313.4708 74.9189 L 1315.5038 75.8945 L 1317.0262 76.6286 L 1318.5514 77.3664 L 1320.5881 78.3549 L 1322.1119 79.0966 L 1323.6383 79.8414 L 1325.1644 80.5881 L 1326.7029 81.3426 L 1328.7123 82.3312 L 1330.2458 83.0881 L 1332.2286 84.071 L 1333.7265 84.8167 L 1335.2125 85.5597 L 1337.1785 86.5474 L 1338.6426 87.2869 L 1340.5771 88.2694 L 1342.0162 89.0042 L 1343.4391 89.7335 L 1345.3241 90.7038 L 1346.7227 91.4264 L 1348.1067 92.1431 L 1349.479 92.8551 L 1351.2837 93.7931 L 1352.6202 94.4877 L 1353.9425 95.175 L 1355.6811 96.0778 L 1356.9681 96.745 L 1358.2407 97.4035 L 1359.4976 98.0523 L 1360.7403 98.692 L 1361.9712 99.3238 L 1363.1857 99.9456 L 1364.3885 100.56 L 1365.5831 101.1688 L 1367.1597 101.9704 L 1368.3348 102.5673 L 1369.4989 103.1579 L 1370.6522 103.7429 L 1371.7941 104.3216 L 1373.294 105.0817 L 1374.4067 105.6457 L 1375.8626 106.3837 L 1376.9401 106.9296 L 1378.0007 107.4663 L 1379.0483 107.9952 L 1380.4215 108.6865 L 1381.4357 109.1951 L 1382.4362 109.6948 L 1383.7484 110.3462 L 1384.7202 110.825 L 1385.6792 111.2939 L 1386.6304 111.7549 L 1387.5733 112.207 L 1388.8198 112.7968 L 1389.7466 113.2285 L 1390.6663 113.6509 L 1391.8855 114.2003 L 1392.7985 114.6029 L 1394.0054 115.1231 L 1394.9056 115.5013 L 1395.8055 115.8705 L 1396.7021 116.2291 L 1397.8975 116.692 L 1398.7912 117.0265 L 1399.6864 117.351 L 1400.5788 117.6639 L 1401.4726 117.9663 L 1402.6612 118.351 L 1403.5526 118.6258 L 1404.4416 118.8877 L 1405.3318 119.1372 L 1406.2221 119.3739 L 1407.4059 119.6677 L 1408.2926 119.8719 L 1409.1771 120.062 L 1410.0608 120.2381 L 1411.2377 120.4514 L 1412.1187 120.5949 L 1413.0005 120.7246 L 1414.1757 120.8765 L 1415.0576 120.9746 L 1416.2337 121.0841 L 1417.1138 121.1501 L 1417.9944 121.203 L 1418.8681 121.2419 L 1420.0356 121.2732 L 1420.9037 121.2808 L 1421.7711 121.2751 L 1422.9222 121.2472 L 1423.7823 121.2107 L 1424.9229 121.1419 L 1425.7746 121.0746 L 1426.6213 120.9938 L 1427.4627 120.8985 L 1428.5739 120.7496 L 1429.3989 120.6215 L 1430.2155 120.4793 L 1431.0241 120.3232 L 1432.0893 120.0934 L 1432.8775 119.9058 L 1433.6589 119.7041 L 1434.6874 119.4152 L 1435.4502 119.1819 L 1436.455 118.8504 L 1437.2017 118.586 L 1438.1863 118.2131 L 1438.9193 117.9179 L 1439.8885 117.505 L 1440.6112 117.1817 L 1441.3311 116.8483 L 1442.0505 116.5049 L 1442.7708 116.1536 L 1443.49 115.7937 L 1444.2097 115.4267 L 1444.9296 115.0534 L 1445.6535 114.6749 L 1446.3775 114.2903 L 1447.3402 113.7698 L 1448.0628 113.3718 L 1448.7852 112.9683 L 1449.508 112.5584 L 1450.4665 112.0036 L 1451.1868 111.58 L 1452.1429 111.0048 L 1452.8569 110.5648 L 1453.5674 110.1176 L 1454.2723 109.6643 L 1455.2009 109.0493 L 1455.8873 108.5811 L 1456.5648 108.1066 L 1457.2302 107.6281 L 1457.8839 107.1446 L 1458.7386 106.4913 L 1459.3649 105.997 L 1459.9782 105.4984 L 1460.7776 104.8276 L 1461.3635 104.3209 L 1461.9386 103.811 L 1462.502 103.3004 L 1463.0581 102.7874 L 1463.608 102.2746 L 1464.1505 101.7622 L 1464.8673 101.0808 L 1465.4012 100.5733 L 1466.1105 99.9038 L 1466.6426 99.407 L 1467.3537 98.755 L 1467.8895 98.2752 L 1468.4276 97.802 L 1468.9751 97.3296 L 1469.692 96.7311 L 1470.2386 96.2859 L 1470.7896 95.8484 L 1471.3455 95.4196 L 1472.093 94.8621 L 1472.6591 94.4541 L 1473.229 94.0561 L 1473.803 93.6686 L 1474.3812 93.2919 L 1475.1602 92.8072 L 1475.7468 92.4576 L 1476.3399 92.12 L 1476.9357 91.7961 L 1477.7384 91.3838 L 1478.3427 91.0897 L 1478.9502 90.8087 L 1479.5609 90.5413 L 1480.3753 90.2054 L 1480.9868 89.9697 L 1481.6007 89.7476 L 1482.4183 89.4746 L 1483.0326 89.2859 L 1483.6459 89.1113 L 1484.2613 88.9507 L 1484.8758 88.8044 L 1485.6965 88.6316 L 1486.312 88.5189 L 1487.1279 88.3919 L 1487.7366 88.3134 L 1488.3453 88.2505 L 1489.1517 88.1895 L 1489.7544 88.1612 L 1490.3557 88.1482 L 1491.1509 88.1539 L 1491.7439 88.175 L 1492.3355 88.2114 L 1492.9226 88.2616 L 1493.507 88.3258 L 1494.2797 88.4335 L 1494.8556 88.5301 L 1495.4291 88.6406 L 1496.1922 88.8096 L 1496.7626 88.9514 L 1497.33 89.1057 L 1497.8972 89.2731 L 1498.4634 89.4537 L 1499.0288 89.6475 L 1499.7815 89.9266 L 1500.3441 90.1513 L 1500.904 90.389 L 1501.6477 90.727 L 1502.2023 90.9962 L 1502.9333 91.3747 L 1503.4788 91.675 L 1504.1985 92.0959 L 1504.7326 92.4275 L 1505.2603 92.772 L 1505.7808 93.1293 L 1506.2945 93.4998 L 1506.9674 94.014 L 1507.4602 94.4131 L 1507.9459 94.8262 L 1508.5768 95.3941 L 1509.0399 95.835 L 1509.4942 96.2884 L 1509.9366 96.7522 L 1510.3694 97.2285 L 1510.9276 97.8792 L 1511.3348 98.3812 L 1511.7313 98.8948 L 1512.2422 99.5961 L 1512.613 100.1345 L 1512.9727 100.6844 L 1513.4366 101.4366 L 1513.7709 102.0116 L 1514.1994 102.7945 L 1514.5083 103.3938 L 1514.8079 104.0035 L 1515.0969 104.6235 L 1515.3751 105.2516 L 1515.7282 106.1033 L 1515.9813 106.7519 L 1516.2245 107.4086 L 1516.5315 108.2962 L 1516.7497 108.97 L 1516.9591 109.6533 L 1517.1558 110.3416 L 1517.403 111.2731 L 1517.5752 111.9767 L 1517.7374 112.6893 L 1517.937 113.6492 L 1518.0733 114.3769 L 1518.198 115.1093 L 1518.3123 115.8488 L 1518.4147 116.5939 L 1518.533 117.5962 L 1518.609 118.3559 L 1518.6725 119.121 L 1518.7243 119.8911 L 1518.7749 120.9277 L 1518.7989 121.7118 L 1518.8122 122.7675 L 1518.8085 123.5636 L 1518.7936 124.367 L 1518.7546 125.449 L 1518.7116 126.2656 L 1518.6569 127.0909 L 1518.591 127.9194 L 1518.4844 129.0336 L 1518.3902 129.879 L 1518.2838 130.7287 L 1518.1219 131.8702 L 1517.9856 132.733 L 1517.836 133.6012 L 1517.6167 134.7657 L 1517.4361 135.6452 L 1517.1749 136.8218 L 1516.963 137.7106 L 1516.7381 138.6011 L 1516.4166 139.7963 L 1516.1599 140.6951 L 1515.8896 141.5957 L 1515.6048 142.5007 L 1515.3071 143.4063 L 1514.8884 144.6189 L 1514.5594 145.5284 L 1514.2164 146.4411 L 1513.8593 147.3569 L 1513.364 148.5767 L 1512.9766 149.4942 L 1512.5755 150.4145 L 1512.1617 151.3354 L 1511.736 152.2562 L 1511.148 153.4879 L 1510.6943 154.412 L 1510.071 155.6455 L 1509.5896 156.573 L 1509.0984 157.5 L 1508.4229 158.7412 L 1507.9066 159.67 L 1507.3788 160.6023 L 1506.8414 161.5367 L 1506.2941 162.4705 L 1505.7371 163.4068 L 1505.1697 164.3445 L 1504.5939 165.2828 L 1503.8108 166.5391 L 1503.2159 167.4788 L 1502.6127 168.4233 L 1501.7947 169.6882 L 1501.1765 170.638 L 1500.3409 171.906 L 1499.7066 172.8599 L 1499.0645 173.8167 L 1498.4121 174.7839 L 1497.7488 175.7598 L 1496.8536 177.064 L 1496.1689 178.0485 L 1495.4789 179.0321 L 1494.5431 180.35 L 1493.8316 181.3397 L 1492.8678 182.6643 L 1492.1351 183.6601 L 1491.1429 184.9895 L 1490.3866 185.9897 L 1489.3642 187.3231 L 1488.5858 188.3243 L 1487.796 189.3285 L 1486.7285 190.6672 L 1485.9149 191.6744 L 1485.0913 192.6824 L 1484.25 193.7001 L 1483.1329 195.0367 L 1482.277 196.0492 L 1481.1202 197.4024 L 1480.2454 198.4151 L 1479.3574 199.434 L 1478.1624 200.7927 L 1477.2559 201.8151 L 1476.3427 202.8376 L 1475.1088 204.2048 L 1474.1747 205.231 L 1472.9119 206.605 L 1471.9582 207.6353 L 1470.6739 209.0118 L 1469.7002 210.0473 L 1468.3766 211.443 L 1467.7294 212.121 L 1466.3996 213.5067 L 1465.3945 214.548 L 1464.3784 215.5923 L 1463.3556 216.6379 L 1461.9823 218.0336 L 1460.9481 219.0787 L 1459.5528 220.4796 L 1458.4998 221.5304 L 1457.439 222.5833 L 1456.3699 223.6414 L 1455.2954 224.6965 L 1454.2134 225.7531 L 1453.1258 226.811 L 1451.6643 228.2224 L 1450.5587 229.28 L 1449.0729 230.693 L 1447.9504 231.7537 L 1446.8209 232.8135 L 1445.3063 234.2248 L 1444.1583 235.2849 L 1443.0059 236.3438 L 1441.8461 237.4033 L 1440.6786 238.4629 L 1439.1138 239.8738 L 1437.9285 240.9353 L 1436.3413 242.3436 L 1435.1402 243.4014 L 1433.9353 244.4562 L 1432.7201 245.5109 L 1431.0914 246.914 L 1429.8584 247.9658 L 1428.2076 249.3625 L 1426.9577 250.4097 L 1425.7031 251.4525 L 1424.0158 252.8415 L 1422.7442 253.879 L 1421.0333 255.2618 L 1419.7443 256.2938 L 1418.0146 257.6653 L 1416.7077 258.6921 L 1415.3926 259.7166 L 1414.0681 260.7402 L 1412.2993 262.0956 L 1410.9617 263.1102 L 1409.614 264.1258 L 1408.2653 265.1345 L 1406.4548 266.4789 L 1405.0903 267.4824 L 1403.7165 268.4868 L 1402.3394 269.4867 L 1400.4929 270.8178 L 1399.1029 271.8122 L 1397.236 273.1367 L 1395.8311 274.126 L 1394.4204 275.1132 L 1393.0023 276.0989 L 1391.5806 277.0808 L 1390.1499 278.0618 L 1388.2362 279.3634 L 1386.7917 280.3372 L 1384.8605 281.6287 L 1383.4005 282.5963 L 1381.4537 283.8746 L 1379.9828 284.8319 L 1378.0187 286.0976 L 1376.5417 287.0417 L 1375.0586 287.9811 L 1373.081 289.22 L 1371.596 290.142 L 1369.6196 291.3578 L 1368.1366 292.2629 L 1366.1662 293.4562 L 1364.69 294.3429 L 1363.2208 295.2216 L 1361.2647 296.3807 L 1359.8088 297.2401 L 1358.3572 298.092 L 1356.9177 298.9334 L 1355.0093 300.0423 L 1353.5929 300.8615 L 1352.188 301.6715 L 1350.7925 302.4722 L 1349.4134 303.2604 L 1347.5899 304.2966 L 1346.2377 305.061 L 1344.8975 305.8153 L 1343.57 306.5596 L 1342.2534 307.294 L 1340.5228 308.2552 L 1339.2397 308.9652 L 1337.5389 309.9005 L 1336.2773 310.5928 L 1335.0314 311.275 L 1333.383 312.173 L 1332.1572 312.8391 L 1330.9406 313.4977 L 1329.3386 314.3614 L 1328.1519 314.9987 L 1326.9727 315.6284 L 1325.8026 316.2505 L 1324.2636 317.0639 L 1323.1189 317.6631 L 1321.6117 318.4472 L 1320.4915 319.0239 L 1319.0166 319.7756 L 1317.9194 320.3287 L 1316.8379 320.8674 L 1315.4013 321.5713 L 1314.3444 322.0823 L 1312.9429 322.7476 L 1311.9044 323.2318 L 1310.532 323.8582 L 1309.5157 324.3128 L 1308.5066 324.7554 L 1307.1762 325.3266 L 1306.1892 325.7391 L 1305.2098 326.14 L 1304.2431 326.5286 L 1303.281 326.9076 L 1302.0225 327.3901 L 1301.086 327.7405 L 1300.1598 328.0793 L 1298.935 328.5149 L 1298.0258 328.8297 L 1296.8273 329.233 L 1295.9378 329.524 L 1295.0521 329.8063 L 1293.8918 330.1647 L 1293.0263 330.423 L 1292.1625 330.6719 L 1291.0301 330.9851 L 1290.1839 331.2098 L 1289.3424 331.4243 L 1288.2315 331.693 L 1287.4097 331.8811 L 1286.5941 332.0584 L 1285.7852 332.2249 L 1284.7215 332.4292 L 1283.9315 332.5702 L 1282.8879 332.7408 L 1282.1123 332.8558 L 1281.3459 332.9601 L 1280.3325 333.0831 L 1279.5799 333.1636 L 1278.8333 333.2334 L 1278.094 333.2944 L 1277.1153 333.3615 L 1276.3893 333.4031 L 1275.6645 333.4365 L 1274.7083 333.4711 L 1273.9969 333.4897 L 1273.2855 333.5026 L 1272.3429 333.5114 L 1271.6364 333.5109 L 1270.9315 333.5058 L 1269.9955 333.4907 L 1269.2923 333.4722 L 1268.5881 333.4483 L 1267.8829 333.4192 L 1266.9418 333.3724 L 1266.2375 333.3316 L 1265.5285 333.285 L 1264.8162 333.2327 L 1264.1012 333.176 L 1263.1411 333.0917 L 1262.4191 333.0221 L 1261.449 332.9199 L 1260.714 332.8346 L 1259.7286 332.7102 L 1258.9828 332.6083 L 1257.9807 332.4609 L 1257.2166 332.3401 L 1256.2037 332.169 L 1255.4365 332.0308 L 1254.4057 331.8328 L 1253.6272 331.6741 L 1252.5839 331.4491 L 1251.7988 331.2705 L 1250.7432 331.0171 L 1249.9478 330.8155 L 1248.8838 330.531 L 1248.0826 330.3053 L 1247.0096 329.988 L 1246.203 329.738 L 1245.3925 329.4765 L 1244.3096 329.111 L 1243.4944 328.8236 L 1242.6744 328.5238 L 1241.5932 328.112 L 1240.7746 327.7882 L 1239.9583 327.4553 L 1239.1353 327.1102 L 1238.3222 326.7605 L 1237.2314 326.2796 L 1236.4118 325.9107 L 1235.5901 325.5356 L 1234.491 325.0282 L 1233.6642 324.6443 L 1232.5548 324.1291 L 1231.7169 323.7415 L 1230.8745 323.3547 L 1230.0245 322.9692 L 1229.1724 322.5885 L 1228.0259 322.0871 L 1227.1581 321.7169 L 1225.9917 321.2328 L 1225.1102 320.8775 L 1224.2153 320.5267 L 1223.0335 320.079 L 1222.1328 319.7498 L 1221.2342 319.432 L 1220.3301 319.1236 L 1219.1221 318.7296 L 1218.2159 318.4486 L 1217.3077 318.1798 L 1216.3994 317.9239 L 1215.185 317.6023 L 1214.2735 317.3763 L 1213.0562 317.0945 L 1212.1436 316.898 L 1210.921 316.6537 L 1210.0034 316.4849 L 1209.0828 316.3271 L 1208.1556 316.1792 L 1206.9161 315.9985 L 1205.9804 315.8738 L 1204.7339 315.7239 L 1203.7923 315.6212 L 1202.5357 315.4988 L 1201.5865 315.4171 L 1200.3222 315.3216 L 1199.3718 315.2605 L 1198.4113 315.2075 L 1197.1391 315.1508 L 1196.1794 315.1185 L 1195.2133 315.0946 L 1194.246 315.0799 L 1192.9529 315.0749 L 1191.979 315.0818 L 1190.6738 315.1043 L 1189.6909 315.1324 L 1188.7049 315.1694 L 1187.7149 315.2168 L 1186.3979 315.2948 L 1185.4081 315.3646 L 1184.0824 315.4719 L 1183.086 315.564 L 1181.7534 315.7018 L 1180.7528 315.8159 L 1179.7498 315.9388 L 1178.7456 316.0711 L 1177.4022 316.2614 L 1176.3942 316.4154 L 1175.3768 316.5783 L 1174.0299 316.8067 L 1173.012 316.988 L 1171.9929 317.1783 L 1170.9688 317.3766 L 1169.6 317.6538 L 1168.5711 317.8709 L 1167.5391 318.0966 L 1166.16 318.4079 L 1165.1192 318.652 L 1163.737 318.9869 L 1162.6988 319.2469 L 1161.3051 319.6038 L 1160.2567 319.8804 L 1159.2085 320.1646 L 1158.1586 320.4565 L 1156.7585 320.8572 L 1155.706 321.1677 L 1154.6541 321.488 L 1153.6015 321.8162 L 1152.5486 322.1539 L 1151.4934 322.5003 L 1150.4326 322.8592 L 1149.0347 323.3471 L 1147.9809 323.7264 L 1146.9286 324.1163 L 1145.8754 324.5159 L 1144.4721 325.0651 L 1143.4208 325.4872 L 1142.0189 326.0666 L 1140.9655 326.5125 L 1139.5633 327.1214 L 1138.5108 327.5895 L 1137.4505 328.0701 L 1136.3798 328.5647 L 1134.9501 329.2404 L 1133.8664 329.7624 L 1132.4261 330.4699 L 1131.3348 331.0145 L 1130.2364 331.567 L 1128.7564 332.3216 L 1127.6443 332.8954 L 1126.1419 333.6769 L 1125.0032 334.2757 L 1123.8526 334.8843 L 1122.6907 335.5026 L 1121.5193 336.1319 L 1120.324 336.7762 L 1118.7398 337.6353 L 1117.53 338.2968 L 1116.3095 338.9661 L 1115.0766 339.6447 L 1113.8346 340.3332 L 1112.5831 341.0295 L 1110.8962 341.9732 L 1109.6189 342.6903 L 1108.3297 343.4172 L 1106.5974 344.399 L 1105.2845 345.1457 L 1103.9583 345.9005 L 1102.1799 346.916 L 1100.8308 347.6873 L 1099.4742 348.4637 L 1098.1038 349.2478 L 1096.7268 350.0367 L 1095.3444 350.8289 L 1093.4838 351.8928 L 1092.0853 352.6915 L 1090.2171 353.7584 L 1088.8119 354.5582 L 1087.4096 355.3558 L 1086.0081 356.1514 L 1084.6123 356.9425 L 1083.2165 357.7304 L 1081.8248 358.514 L 1079.9793 359.5528 L 1078.5909 360.3294 L 1076.7617 361.352 L 1075.4021 362.11 L 1074.0398 362.8663 L 1072.2347 363.8667 L 1070.8857 364.6106 L 1069.5313 365.3565 L 1067.7504 366.3322 L 1066.4233 367.0546 L 1064.656 368.0099 L 1063.3332 368.7203 L 1061.5849 369.652 L 1060.2759 370.3422 L 1058.9652 371.0278 L 1057.2313 371.9256 L 1055.9416 372.585 L 1054.6515 373.2401 L 1053.3646 373.8864 L 1051.6559 374.7321 L 1050.3747 375.3569 L 1048.6759 376.1752 L 1047.4097 376.7761 L 1046.1365 377.3724 L 1044.4587 378.1447 L 1043.2068 378.7117 L 1041.9469 379.2724 L 1040.2833 379.9999 L 1039.0424 380.5313 L 1037.7964 381.0536 L 1036.1421 381.732 L 1035.3168 382.0634 L 1034.0887 382.5467 L 1032.4455 383.1794 L 1031.2178 383.64 L 1029.5895 384.2338 L 1028.3675 384.6672 L 1027.1481 385.088 L 1025.9305 385.4983 L 1024.3106 386.0256 L 1023.0992 386.4074 L 1021.8895 386.7766 L 1020.2828 387.2506 L 1019.0751 387.5934 L 1017.4636 388.0318 L 1016.2764 388.3412 L 1015.0798 388.6413 L 1013.8834 388.9302 L 1012.673 389.2099 L 1011.0933 389.5584 L 1009.8985 389.8089 L 1008.3067 390.1265 L 1007.1129 390.352 L 1005.5219 390.6371 L 1004.3326 390.8382 L 1003.1405 391.0298 L 1001.5483 391.2699 L 1000.3542 391.4384 L 999.1568 391.5987 L 997.5651 391.7977 L 996.3671 391.9368 L 994.7663 392.1092 L 993.5685 392.2293 L 992.3671 392.3407 L 991.1474 392.4457 L 989.5535 392.5707 L 988.347 392.6567 L 987.1246 392.7358 L 985.5187 392.8286 L 984.3014 392.8895 L 983.0806 392.9431 L 981.8582 392.9894 L 980.6376 393.028 L 979.4071 393.0583 L 978.177 393.0803 L 976.5509 393.0963 L 975.3175 393.0986 L 973.6757 393.0882 L 972.4331 393.0699 L 970.7879 393.0315 L 969.5568 392.9918 L 967.8987 392.9235 L 966.6561 392.8609 L 964.9937 392.7624 L 963.7431 392.6772 L 962.071 392.5478 L 960.8198 392.4398 L 959.1408 392.2791 L 957.8778 392.1465 L 956.1916 391.9537 L 954.9089 391.7951 L 953.2233 391.5705 L 951.9459 391.3889 L 950.2336 391.129 L 948.9479 390.9225 L 947.6544 390.7047 L 946.3548 390.476 L 944.6202 390.1556 L 943.3116 389.9026 L 941.5563 389.5484 L 940.239 389.2715 L 938.9066 388.9819 L 937.1412 388.5834 L 935.8065 388.271 L 934.4646 387.9471 L 932.6753 387.4994 L 931.328 387.1501 L 929.9758 386.7888 L 928.1684 386.2889 L 926.8173 385.9022 L 925.0071 385.3664 L 923.6449 384.9496 L 922.2787 384.5199 L 920.4686 383.9325 L 919.1024 383.4756 L 917.7369 383.0074 L 915.9 382.3601 L 914.5416 381.8687 L 912.7136 381.1912 L 911.3447 380.6722 L 909.9704 380.1415 L 908.1393 379.4204 L 906.7645 378.8689 L 905.3865 378.3082 L 903.9916 377.7328 L 902.1685 376.9697 L 900.7857 376.3832 L 899.4034 375.7905 L 898.019 375.1908 L 896.1704 374.3815 L 894.7795 373.7667 L 893.3891 373.1479 L 891.5298 372.3147 L 890.1311 371.6845 L 888.2657 370.8407 L 886.8602 370.2034 L 884.9847 369.3522 L 883.5721 368.7117 L 882.157 368.0711 L 880.7362 367.4295 L 879.3111 366.788 L 877.8834 366.1479 L 876.4494 365.5076 L 874.5322 364.6564 L 873.0901 364.0199 L 871.6399 363.3831 L 869.7035 362.5381 L 868.2449 361.9054 L 866.294 361.0639 L 864.8279 360.4347 L 863.3592 359.8072 L 861.4014 358.9743 L 859.9441 358.357 L 858.4919 357.744 L 857.0562 357.14 L 855.1653 356.3475 L 853.7665 355.7637 L 851.9374 355.0037 L 850.5872 354.4452 L 849.2469 353.8931 L 847.5348 353.1914 L 846.2764 352.6784 L 845.0395 352.1765 L 843.8304 351.6883 L 842.2625 351.0591 L 841.1178 350.6024 L 839.6296 350.0122 L 838.5552 349.5887 L 837.161 349.0417 L 836.1438 348.6445 L 835.1391 348.2537 L 833.8309 347.7473 L 832.8633 347.3749 L 831.913 347.0114 L 830.676 346.5424 L 829.7674 346.2018 L 828.875 345.8709 L 827.7202 345.4486 L 826.8727 345.1432 L 826.0417 344.8479 L 824.9621 344.4705 L 824.17 344.1986 L 823.1457 343.8541 L 822.3998 343.6088 L 821.4327 343.2984 L 820.728 343.0781 L 820.0389 342.8681 L 819.3637 342.6678 L 818.702 342.477 L 818.0523 342.2952 L 817.4094 342.1207 L 816.7707 341.9529 L 815.9312 341.7408 L 815.304 341.5886 L 814.4706 341.3945 L 813.8488 341.2557 L 813.229 341.1225 L 812.6074 340.9942 L 811.7832 340.8316 L 811.1607 340.7146 L 810.5365 340.602 L 809.703 340.4592 L 809.0729 340.3565 L 808.4377 340.2578 L 807.7986 340.1633 L 807.1533 340.0727 L 806.2834 339.9587 L 805.6247 339.8788 L 804.9609 339.8041 L 804.2904 339.7345 L 803.3879 339.6508 L 802.706 339.5953 L 802.0134 339.5456 L 801.0897 339.4908 L 800.3919 339.4579 L 799.6919 339.4331 L 798.9863 339.416 L 798.0511 339.407 L 797.351 339.4109 L 796.6518 339.4243 L 795.725 339.4577 L 795.0333 339.4942 L 794.1127 339.5584 L 793.4227 339.6182 L 792.729 339.6882 L 792.038 339.768 L 791.3389 339.8587 L 790.412 339.9939 L 789.7142 340.1076 L 789.011 340.2316 L 788.3084 340.3659 L 787.3669 340.5613 L 786.6618 340.7204 L 785.9563 340.8907 L 785.0194 341.1341 L 784.3207 341.3293 L 783.3987 341.6056 L 782.7139 341.8254 L 781.8148 342.1338 L 781.148 342.3781 L 780.2706 342.7198 L 779.6198 342.9884 L 778.7668 343.3608 L 778.1337 343.6519 L 777.5094 343.9516 L 776.8933 344.2606 L 776.0849 344.6877 L 775.4897 345.0197 L 774.9003 345.3641 L 774.1411 345.8318 L 773.5797 346.1954 L 773.0256 346.5698 L 772.4799 346.9537 L 771.9388 347.349 L 771.4017 347.7557 L 770.8681 348.1732 L 770.3363 348.6034 L 769.8053 349.0463 L 769.2769 349.5002 L 768.7491 349.9668 L 768.0488 350.6057 L 767.5246 351.0994 L 766.8298 351.7749 L 766.3119 352.2951 L 765.6257 353.0068 L 765.116 353.5538 L 764.6097 354.1132 L 763.941 354.8775 L 763.445 355.463 L 762.9532 356.061 L 762.4683 356.6707 L 761.9937 357.29 L 761.5269 357.9216 L 761.0718 358.5625 L 760.4842 359.4302 L 760.059 360.0876 L 759.6433 360.7563 L 759.1144 361.6486 L 758.7277 362.3346 L 758.3553 363.0239 L 757.8781 363.9523 L 757.5312 364.6609 L 757.1955 365.376 L 756.869 366.1005 L 756.5526 366.8312 L 756.1423 367.8231 L 755.8486 368.5651 L 755.466 369.5737 L 755.1872 370.3384 L 754.8275 371.3632 L 754.5637 372.1406 L 754.3046 372.9238 L 754.0496 373.7106 L 753.7139 374.7652 L 753.4611 375.5625 L 753.1236 376.627 L 752.8675 377.4283 L 752.6069 378.2327 L 752.2504 379.3058 L 751.975 380.1124 L 751.6914 380.9192 L 751.4 381.7245 L 751.0985 382.5318 L 750.6826 383.6035 L 750.3587 384.4051 L 749.9126 385.4648 L 749.567 386.2521 L 749.0918 387.2884 L 748.7242 388.0546 L 748.2201 389.0588 L 747.832 389.7972 L 747.4348 390.5239 L 746.8921 391.4731 L 746.474 392.1722 L 746.0501 392.8555 L 745.6157 393.53 L 745.026 394.4089 L 744.5734 395.0566 L 743.9579 395.904 L 743.4859 396.5301 L 743.0067 397.147 L 742.3552 397.9572 L 741.8568 398.557 L 741.1811 399.3442 L 740.6647 399.9272 L 740.1413 400.503 L 739.4325 401.2602 L 738.8926 401.8212 L 738.345 402.377 L 737.791 402.9269 L 737.2319 403.4695 L 736.4759 404.185 L 735.9042 404.7128 L 735.3278 405.235 L 734.7462 405.7522 L 734.1605 406.2633 L 733.5714 406.7682 L 732.978 407.2679 L 732.1812 407.9253 L 731.5794 408.4121 L 730.9741 408.8938 L 730.1656 409.5257 L 729.5544 409.9948 L 728.941 410.458 L 728.3271 410.9139 L 727.5066 411.513 L 726.8884 411.957 L 726.2678 412.3966 L 725.4435 412.9711 L 724.8212 413.3973 L 724.1973 413.819 L 723.5713 414.2366 L 722.7399 414.7818 L 722.1112 415.1877 L 721.2805 415.7162 L 720.6522 416.1093 L 719.815 416.6248 L 719.1858 417.0059 L 718.5529 417.3841 L 717.9219 417.7559 L 717.0792 418.2437 L 716.4421 418.6063 L 715.5927 419.0814 L 714.9542 419.4324 L 714.0982 419.8939 L 713.4531 420.2352 L 712.8065 420.5713 L 712.1544 420.9042 L 711.2879 421.3375 L 710.6338 421.6567 L 709.9776 421.9709 L 709.3191 422.2798 L 708.4395 422.683 L 707.7755 422.9797 L 707.1127 423.2695 L 706.4455 423.5552 L 705.7772 423.8351 L 704.8817 424.2007 L 704.2067 424.4688 L 703.303 424.8183 L 702.6212 425.0742 L 701.9351 425.325 L 701.015 425.6507 L 700.3223 425.8879 L 699.3929 426.195 L 698.692 426.4186 L 697.9876 426.6361 L 697.2777 426.8479 L 696.3234 427.1216 L 695.6053 427.3188 L 694.6407 427.5723 L 693.9103 427.7557 L 692.9291 427.9906 L 692.1882 428.1594 L 691.1921 428.3744 L 690.4396 428.5277 L 689.683 428.6738 L 688.9209 428.8133 L 687.9004 428.9874 L 687.1289 429.1095 L 686.354 429.2243 L 685.3135 429.366 L 684.5278 429.464 L 683.7381 429.5548 L 682.9425 429.6388 L 681.8772 429.7395 L 681.0721 429.8073 L 680.2625 429.8683 L 679.1706 429.9399 L 678.3555 429.9856 L 677.5304 430.0251 L 676.7015 430.0581 L 675.5884 430.0924 L 674.7454 430.1109 L 673.6229 430.1263 L 672.7728 430.1315 L 671.9185 430.1312 L 671.0568 430.1261 L 669.9093 430.1121 L 669.0412 430.0962 L 667.8754 430.0682 L 666.9966 430.0421 L 666.1147 430.0119 L 664.9313 429.9651 L 664.0386 429.925 L 662.8424 429.8648 L 661.9399 429.8145 L 660.7336 429.7409 L 659.823 429.6804 L 658.9098 429.6155 L 657.9925 429.5461 L 656.766 429.4465 L 655.8376 429.3661 L 654.6003 429.2522 L 653.6663 429.1609 L 652.7288 429.065 L 651.4755 428.9297 L 650.5325 428.8225 L 649.2688 428.672 L 648.3184 428.5534 L 647.3666 428.43 L 646.4105 428.3014 L 645.4531 428.1678 L 644.1711 427.9812 L 643.2061 427.8353 L 642.2398 427.6842 L 641.271 427.5277 L 640.3015 427.3662 L 639.0021 427.1419 L 638.0306 426.9686 L 637.0541 426.7892 L 636.0749 426.6044 L 635.0955 426.4144 L 633.7872 426.1529 L 632.8039 425.9507 L 631.4909 425.6733 L 630.5018 425.4589 L 629.1853 425.1668 L 628.1936 424.9421 L 627.2013 424.7131 L 626.2112 424.4809 L 625.2153 424.2437 L 624.2215 424.0035 L 623.2196 423.7583 L 621.8861 423.4276 L 620.8796 423.175 L 619.8695 422.9193 L 618.5169 422.5737 L 617.4956 422.3104 L 616.1334 421.9566 L 615.1035 421.6872 L 614.0703 421.4153 L 613.0306 421.1401 L 611.6321 420.7677 L 610.5821 420.4869 L 609.1652 420.1061 L 608.1028 419.8195 L 606.6698 419.4314 L 605.5875 419.1372 L 604.1428 418.7431 L 603.0497 418.4438 L 601.5887 418.0426 L 600.4854 417.7386 L 599.3761 417.4323 L 597.8855 417.0194 L 596.749 416.7037 L 595.2272 416.2794 L 594.0751 415.957 L 592.5326 415.5236 L 591.3667 415.1943 L 590.1952 414.8622 L 589.0193 414.5273 L 587.4398 414.0754 L 586.2481 413.7326 L 585.0427 413.3846 L 583.8456 413.0372 L 582.2299 412.566 L 581.0125 412.2088 L 579.38 411.7274 L 578.1444 411.3613 L 576.9095 410.9936 L 575.6647 410.6213 L 574.4168 410.2463 L 573.1586 409.8666 L 571.9008 409.4852 L 570.6343 409.0994 L 568.9362 408.5796 L 567.6581 408.1864 L 565.9441 407.6564 L 564.652 407.2553 L 563.3535 406.851 L 561.6164 406.3086 L 560.3067 405.8981 L 558.5522 405.3471 L 557.2304 404.9314 L 555.8977 404.5118 L 554.1242 403.9523 L 552.7839 403.5286 L 551.4392 403.1029 L 550.0892 402.6747 L 548.2823 402.0999 L 546.9201 401.6653 L 545.5547 401.2286 L 544.1831 400.7886 L 542.8081 400.3462 L 541.4289 399.901 L 539.5851 399.3037 L 538.1949 398.8518 L 536.8017 398.3976 L 534.9315 397.7864 L 533.5353 397.3289 L 532.1282 396.8672 L 530.7146 396.4025 L 528.8289 395.7815 L 527.4092 395.3129 L 525.5099 394.6847 L 524.083 394.2118 L 522.6516 393.7365 L 521.2143 393.2579 L 519.2966 392.6175 L 517.8528 392.1337 L 516.4072 391.6481 L 514.959 391.1603 L 513.0221 390.5055 L 511.5661 390.0117 L 509.618 389.3485 L 508.1601 388.8503 L 506.6947 388.3482 L 505.2283 387.8442 L 503.7588 387.3376 L 501.7974 386.659 L 500.3233 386.1473 L 498.3551 385.4616 L 496.8782 384.9453 L 494.9026 384.2527 L 493.4193 383.7314 L 491.4372 383.0333 L 489.9507 382.5089 L 487.9603 381.8057 L 486.4716 381.279 L 484.9758 380.7491 L 483.4806 380.2184 L 481.4838 379.5085 L 479.9854 378.9744 L 478.4831 378.4379 L 476.4812 377.7208 L 474.9772 377.1803 L 473.4713 376.6376 L 471.9641 376.0929 L 469.9527 375.3633 L 468.4404 374.8128 L 466.9304 374.2615 L 465.4143 373.7061 L 463.9027 373.1507 L 461.8795 372.4047 L 460.3592 371.842 L 458.336 371.0905 L 456.8174 370.5244 L 454.7858 369.7644 L 453.2644 369.1932 L 451.7391 368.6187 L 449.7047 367.8498 L 448.1797 367.2713 L 446.6507 366.6896 L 444.6027 365.9076 L 443.0823 365.325 L 441.5516 364.7367 L 439.5066 363.9479 L 437.9736 363.3545 L 435.9252 362.5588 L 434.3899 361.9602 L 432.342 361.159 L 430.7999 360.5535 L 428.7527 359.7468 L 427.2055 359.135 L 425.1578 358.3224 L 423.6165 357.7087 L 422.0753 357.093 L 420.5292 356.4736 L 418.4731 355.647 L 416.9271 355.0233 L 414.8692 354.1901 L 413.3156 353.5589 L 411.2599 352.7207 L 409.7145 352.0884 L 408.1625 351.4515 L 406.1015 350.6027 L 404.5496 349.9611 L 402.4863 349.1044 L 400.9293 348.455 L 398.8689 347.5915 L 397.3173 346.9378 L 395.7662 346.2812 L 394.2169 345.6222 L 392.15 344.7378 L 390.5988 344.0701 L 389.0503 343.3999 L 387.4924 342.7221 L 385.4333 341.8207 L 383.8809 341.1369 L 381.8196 340.2232 L 380.2686 339.5314 L 378.2063 338.6059 L 376.6568 337.9062 L 375.1099 337.2039 L 373.5619 336.4974 L 372.0163 335.7884 L 369.9547 334.8368 L 368.4089 334.1191 L 366.8641 333.3983 L 365.3154 332.672 L 363.2585 331.7017 L 361.7129 330.9685 L 359.6549 329.987 L 358.1104 329.2464 L 356.5633 328.5012 L 354.5102 327.5069 L 352.9688 326.7565 L 351.4254 326.0018 L 349.8772 325.2414 L 347.8264 324.2289 L 346.2904 323.4666 L 344.7507 322.6992 L 343.2101 321.9281 L 341.1577 320.8955 L 339.6195 320.118 L 337.5691 319.0771 L 336.0304 318.2927 L 333.9826 317.2447 L 332.4426 316.4538 L 330.395 315.3988 L 328.8564 314.6036 L 327.3193 313.8072 L 325.781 313.0084 L 323.7314 311.9411 L 322.1904 311.1365 L 320.6537 310.3318 L 318.6062 309.2558 L 317.0674 308.444 L 315.5183 307.6239 L 313.4828 306.542 L 311.9459 305.7222 L 310.4126 304.902 L 308.3656 303.8034 L 306.8246 302.9741 L 304.782 301.8718 L 303.2482 301.0419 L 301.1996 299.9306 L 299.6668 299.0968 L 298.131 298.2596 L 296.085 297.141 L 294.5521 296.3004 L 292.5073 295.1756 L 290.9751 294.3299 L 289.4415 293.4811 L 287.9108 292.6314 L 285.8686 291.4938 L 284.3371 290.6377 L 282.2999 289.495 L 280.7707 288.6342 L 279.2426 287.7715 L 277.7093 286.9033 L 275.6779 285.7489 L 274.1516 284.8785 L 272.118 283.7146 L 270.5941 282.8391 L 268.5648 281.6687 L 267.0374 280.7842 L 265.5063 279.8943 L 263.4646 278.7024 L 261.9367 277.8066 L 259.8973 276.6053 L 258.366 275.6991 L 256.324 274.4852 L 254.7859 273.5663 L 253.2664 272.6549 L 251.231 271.4282 L 249.7003 270.5012 L 247.6733 269.2676 L 246.1693 268.3479 L 244.6546 267.4175 L 242.6694 266.192 L 241.1847 265.2706 L 239.7071 264.3497 L 238.2373 263.4293 L 236.3019 262.2107 L 234.8598 261.2978 L 233.4329 260.3903 L 232.0102 259.4817 L 230.611 258.584 L 228.7626 257.3928 L 227.3915 256.5054 L 225.583 255.3302 L 224.2378 254.4531 L 222.4745 253.3002 L 221.1647 252.4417 L 219.8596 251.5848 L 218.1591 250.4667 L 216.8888 249.6304 L 215.6321 248.8024 L 214.3882 247.9823 L 212.7474 246.8999 L 211.5334 246.0988 L 210.3299 245.3044 L 209.1416 244.5198 L 207.5754 243.4857 L 206.4067 242.7139 L 204.8894 241.7118 L 203.7592 240.9654 L 202.2724 239.9833 L 201.1669 239.253 L 199.7123 238.2916 L 198.6383 237.5811 L 197.5812 236.8812 L 196.1943 235.962 L 195.1683 235.281 L 193.8224 234.3866 L 192.8297 233.726 L 191.8507 233.0738 L 190.8861 232.4305 L 189.9347 231.7954 L 188.9975 231.1692 L 187.7665 230.3459 L 186.8614 229.74 L 185.9629 229.1382 L 184.7981 228.3574 L 183.9351 227.7786 L 182.8065 227.0211 L 181.9739 226.4619 L 181.1551 225.9117 L 180.349 225.3698 L 179.293 224.6595 L 178.516 224.1366 L 177.751 223.6214 L 176.9991 223.1148 L 176.0129 222.4501 L 175.2869 221.9605 L 174.5709 221.4773 L 173.8627 220.9994 L 172.9335 220.372 L 172.2442 219.9063 L 171.3388 219.2943 L 170.6641 218.838 L 169.9952 218.3853 L 169.3316 217.9358 L 168.6697 217.487 L 167.8048 216.8996 L 167.1582 216.4596 L 166.517 216.0227 L 165.8817 215.5888 L 165.0377 215.0109 L 164.4126 214.5813 L 163.792 214.1526 L 162.9711 213.5819 L 162.3611 213.1545 L 161.5554 212.585 L 160.9578 212.1585 L 160.3638 211.7306 L 159.5808 211.1604 L 158.9976 210.7308 L 158.4186 210.3 L 157.6533 209.7236 L 157.0811 209.2873 L 156.3284 208.7058 L 155.766 208.2653 L 155.2067 207.8217 L 154.6513 207.3755 L 153.9166 206.7757 L 153.3708 206.3226 L 152.8279 205.8651 L 152.1112 205.2498 L 151.5791 204.7839 L 151.051 204.3136 L 150.3554 203.681 L 149.8388 203.2012 L 149.3279 202.7176 L 148.8218 202.2296 L 148.3185 201.7352 L 147.6586 201.0725 L 147.1701 200.571 L 146.5249 199.8939 L 146.0463 199.3803 L 145.5734 198.8633 L 145.1057 198.342 L 144.6421 197.8153 L 144.0339 197.1082 L 143.583 196.5716 L 142.9908 195.8501 L 142.5542 195.3053 L 141.976 194.5665 L 141.5553 194.0156 L 141.1364 193.4556 L 140.587 192.7028 L 140.1815 192.1334 L 139.7813 191.5593 L 139.2572 190.7885 L 138.8699 190.2042 L 138.4889 189.6169 L 138.113 189.0243 L 137.6209 188.2282 L 137.2576 187.6248 L 136.8996 187.0165 L 136.548 186.4051 L 136.2013 185.7878 L 135.8606 185.1667 L 135.5256 184.5406 L 135.089 183.6988 L 134.7698 183.0626 L 134.3548 182.2058 L 134.0523 181.5579 L 133.7577 180.906 L 133.3777 180.0319 L 133.1013 179.3697 L 132.8333 178.704 L 132.571 178.0272 L 132.24 177.1337 L 131.9981 176.452 L 131.7647 175.7694 L 131.4655 174.8524 L 131.2501 174.1609 L 130.975 173.234 L 130.7785 172.5368 L 130.59 171.8354 L 130.4104 171.1333 L 130.1832 170.1932 L 130.0217 169.4845 L 129.8687 168.7746 L 129.677 167.8234 L 129.5427 167.1077 L 129.3758 166.149 L 129.2598 165.4271 L 129.1168 164.4601 L 129.0182 163.7323 L 128.8979 162.7562 L 128.8156 162.0201 L 128.7401 161.2813 L 128.6491 160.2925 L 128.5879 159.5475 L 128.5321 158.7992 L 128.4814 158.0492 L 128.4207 157.0449 L 128.3796 156.2878 L 128.3297 155.2763 L 128.295 154.5147 L 128.262 153.7502 L 128.2195 152.7284 L 128.1885 151.9593 L 128.1468 150.9297 L 128.115 150.1556 L 128.0826 149.3784 L 128.038 148.34 L 128.0032 147.5587 L 127.9671 146.7746 L 127.9162 145.7266 L 127.8754 144.9383 L 127.8318 144.1494 L 127.7852 143.3586 L 127.7171 142.2997 L 127.6611 141.5053 L 127.6002 140.7093 L 127.5108 139.6454 L 127.4364 138.8365 L 127.3296 137.7808 L 127.2411 136.9806 L 127.1457 136.1806 L 127.0432 135.381 L 126.9335 134.581 L 126.8165 133.7802 L 126.6498 132.7137 L 126.5162 131.9127 L 126.3758 131.1149 L 126.2275 130.3157 L 126.0713 129.5173 L 125.85 128.4551 L 125.673 127.6593 L 125.4863 126.8652 L 125.29 126.0728 L 125.0123 125.0203 L 124.791 124.2321 L 124.5589 123.445 L 124.2339 122.4043 L 123.9774 121.6246 L 123.71 120.8441 L 123.3415 119.8136 L 123.0538 119.0402 L 122.6569 118.0111 L 122.3501 117.2418 L 122.0351 116.4729 L 121.7099 115.6986 L 121.2717 114.6842 L 120.9317 113.9178 L 120.5859 113.1551 L 120.1129 112.1371 L 119.7504 111.3753 L 119.3803 110.6134 L 118.8758 109.5983 L 118.4897 108.8385 L 117.9637 107.8243 L 117.5609 107.0629 L 117.0158 106.0521 L 116.5987 105.293 L 116.1756 104.5347 L 115.6022 103.5255 L 115.1641 102.7678 L 114.5724 101.7615 L 114.12 101.0052 L 113.5093 100.0018 L 113.0432 99.2491 L 112.5705 98.4975 L 112.0916 97.7477 L 111.6057 96.9991 L 110.9475 96.0044 L 110.4457 95.2603 L 109.7645 94.2699 L 109.2477 93.5333 L 108.5465 92.5537 L 108.0102 91.8192 L 107.2877 90.8492 L 106.7362 90.1235 L 106.177 89.4003 L 105.4216 88.4419 L 104.8451 87.7248 L 104.067 86.7756 L 103.474 86.0658 L 102.6733 85.1259 L 102.0636 84.4237 L 101.4482 83.7264 L 100.8255 83.0324 L 100.1951 82.3411 L 99.3456 81.4271 L 98.6989 80.7444 L 97.8277 79.8418 L 97.1649 79.1679 L 96.4972 78.5 L 95.8221 77.8352 L 95.1396 77.1737 L 94.4521 76.5177 L 93.7545 75.8625 L 93.0556 75.2161 L 92.1105 74.357 L 91.3954 73.7179 L 90.6729 73.0811 L 89.9442 72.4476 L 89.209 71.8173 L 88.4661 71.1887 L 87.469 70.358 L 86.7127 69.7374 L 85.6969 68.9168 L 84.9263 68.3038 L 84.1505 67.6948 L 83.1081 66.8886 L 82.3168 66.2852 L 81.2542 65.4856 L 80.4522 64.8901 L 79.6442 64.2964 L 78.8292 63.7035 L 77.737 62.9171 L 76.9113 62.3276 L 76.0792 61.737 L 75.2383 61.1432 L 74.389 60.5463 L 73.2408 59.7432 L 72.3676 59.1347 L 71.1837 58.3126 L 70.2818 57.6882 L 69.0589 56.8441 L 68.1298 56.2045 L 66.8762 55.3439 L 65.9213 54.6899 L 64.624 53.8034 L 63.6334 53.1287 L 62.2878 52.2152 L 61.2689 51.5256 L 59.8886 50.5942 L 58.8354 49.8856 L 57.7679 49.169 L 56.3271 48.2045 L 55.2353 47.4757 L 54.1246 46.736 L 52.6275 45.742 L 51.49 44.9889 L 50.3375 44.2277 L 49.1746 43.4616 L 47.997 42.6877 L 46.4099 41.6477 L 45.2042 40.8599 L 43.5806 39.8022 L 42.3468 39.0007 L 41.1022 38.1944 L 39.8463 37.3828 L 38.154 36.2925 L 36.8696 35.4675 L 35.5768 34.6392 L 33.8344 33.5258 L 32.5123 32.6829 L 30.7351 31.5523 L 29.8209 30.9716 L 28.0231 29.8313 L 26.6511 28.9622 L 25.2722 28.0895 L 23.4227 26.9201 L 22.0164 26.0315 L 20.6031 25.1387 L 19.1756 24.2373 L 17.7258 23.3218 L 15.8028 22.1076 L 14.3517 21.1914 L 12.8776 20.2606 L 11.4071 19.332 L 9.9121 18.3881 L 7.9196 17.1305 L 6.4142 16.181 L 4.8909 15.2209 L 2.8539 13.9387 L 1.3169 12.9725 L -.2408 11.9948 L -1.8068 11.0135 L -3.8943 9.7082 L -5.4833 8.7168 L -7.6134 7.3909 L -9.217 6.3952 L -10.851 5.3827 L -13.0067 4.0502 L -14.6493 3.0374 L -16.8505 1.6836 L -18.5133 .6635 L -20.7437 -.7015 L -22.4278 -1.7294 L -24.1237 -2.7624 L -25.8264 -3.7972 L -27.5394 -4.8358 L -29.8356 -6.2238 L -31.5701 -7.2688 L -33.3158 -8.3173 L -35.6547 -9.7169 L -37.4185 -10.768 L -39.1954 -11.823 L -41.5734 -13.2286 L -43.3692 -14.2857 L -45.1724 -15.3434 L -47.594 -16.7583 L -49.4188 -17.8206 L -51.2502 -18.8836 L -53.7104 -20.3069 L -55.5644 -21.3762 L -57.4247 -22.4461 L -59.2971 -23.5201 L -61.8012 -24.9519 L -63.694 -26.0306 L -66.2217 -27.4661 L -68.1317 -28.5471 L -70.0486 -29.6285 L -72.6169 -31.072 L -74.553 -32.1559 L -77.1492 -33.6033 L -79.1063 -34.6896 L -81.7269 -36.1375 L -83.7031 -37.224 L -86.35 -38.672 L -87.6806 -39.3965 L -89.6834 -40.483 L -92.3648 -41.9295 L -94.3888 -43.0153 L -96.42 -44.0995 L -99.1293 -45.5374 L -101.1719 -46.6151 L -103.2233 -47.692 L -105.2822 -48.7672 L -107.3509 -49.8418 L -110.1008 -51.261 L -112.177 -52.3256 L -114.2584 -53.3866 L -116.3451 -54.4442 L -119.1386 -55.8498 L -121.244 -56.9012 L -124.0523 -58.2925 L -126.1686 -59.3325 L -128.2926 -60.3688 L -131.1329 -61.7427 L -133.2674 -62.7661 L -135.4143 -63.7874 L -138.2974 -65.1459 L -140.4408 -66.1455 L -143.3245 -67.476 L -145.5113 -68.4735 L -148.4111 -69.78 L -150.5933 -70.7507 L -152.7982 -71.7201 L -155.716 -72.9848 L -157.9238 -73.9279 L -160.8742 -75.169 L -163.0964 -76.0895 L -166.0697 -77.3023 L -168.3103 -78.2024 L -171.307 -79.3883 L -173.5589 -80.2665 L -175.8114 -81.1342 L -178.8261 -82.2794 L -181.0938 -83.1287 L -183.365 -83.969 L -185.6386 -84.7993 L -187.9109 -85.618 L -190.1912 -86.428 L -192.4721 -87.2261 L -195.5043 -88.2678 L -197.7812 -89.035 L -200.8244 -90.0398 L -203.1064 -90.7774 L -206.1477 -91.7391 L -208.4253 -92.4431 L -210.695 -93.1309 L -213.7107 -94.0236 L -215.9659 -94.6751 L -218.9599 -95.5188 L -221.1929 -96.132 L -223.4154 -96.7289 L -225.6322 -97.311 L -227.8307 -97.8753 L -230.7504 -98.605 L -232.9292 -99.1351 L -235.8135 -99.8184 L -237.9682 -100.3154 L -240.1114 -100.7987 L -242.9428 -101.4207 L -245.0542 -101.8727 L -247.1576 -102.3132 L -249.2507 -102.7421 L -251.3428 -103.1615 L -254.0894 -103.6986 L -256.1386 -104.0896 L -258.1797 -104.4709 L -260.8886 -104.9648 L -262.91 -105.3247 L -265.5906 -105.791 L -267.5878 -106.1307 L -269.5763 -106.4629 L -272.216 -106.8949 L -274.1836 -107.2105 L -276.144 -107.5199 L -278.0931 -107.8227 L -280.0349 -108.1199 L -282.608 -108.5069 L -284.5308 -108.7914 L -287.0937 -109.1644 L -289.0167 -109.4402 L -291.5747 -109.8018 L -293.4911 -110.0692 L -295.4053 -110.3336 L -297.961 -110.683 L -299.8636 -110.9408 L -301.7746 -111.1984 L -304.3127 -111.5389 L -306.2198 -111.794 L -308.749 -112.132 L -310.6347 -112.3842 L -312.5153 -112.6361 L -314.9995 -112.97 L -316.8541 -113.2204 L -318.6831 -113.4682 L -320.5026 -113.7159 L -322.8967 -114.0431 L -324.6781 -114.287 L -327.024 -114.608 L -328.7621 -114.8452 L -331.0489 -115.156 L -332.7397 -115.3841 L -334.965 -115.6815 L -336.6066 -115.8985 L -338.7646 -116.1805 L -340.3605 -116.3864 L -341.9359 -116.5875 L -344.0044 -116.8481 L -345.5337 -117.0384 L -347.0391 -117.2242 L -349.021 -117.4669 L -350.4814 -117.645 L -351.9252 -117.8211 L -353.3447 -117.9947 L -354.7502 -118.1677 L -356.5813 -118.3956 L -357.9407 -118.5675 L -359.7088 -118.7954 L -361.0159 -118.9676 L -362.7259 -119.1984 L -363.9868 -119.3729 L -365.6252 -119.6057 L -366.8267 -119.7808 L -368.3883 -120.0142 L -369.5333 -120.1898 L -371.0186 -120.4234 L -372.1057 -120.5984 L -373.5157 -120.8306 L -374.5462 -121.0038 L -375.5533 -121.176 L -376.8599 -121.4034 L -377.8169 -121.573 L -378.7512 -121.7409 L -379.9705 -121.9633 L -380.8665 -122.129 L -382.0353 -122.3482 L -382.8998 -122.5122 L -383.7551 -122.6763 L -384.8788 -122.8942 L -385.7112 -123.0576 L -386.5347 -123.2212 L -387.3449 -123.3846 L -388.4102 -123.6042 L -389.1953 -123.7707 L -389.968 -123.9394 L -390.7297 -124.1111 L -391.4798 -124.2863 L -392.4558 -124.5246 L -393.1743 -124.7088 L -394.1103 -124.9612 L -394.7972 -125.1566 L -395.6923 -125.4254 L -396.3452 -125.6325 L -396.9862 -125.8457 L -397.8184 -126.1383 L -398.4249 -126.3638 L -399.0179 -126.5952 L -399.7854 -126.9121 L -400.3425 -127.1554 L -400.8871 -127.4047 L -401.5882 -127.7434 L -402.0977 -128.0028 L -402.594 -128.2674 L -403.2353 -128.6278 L -403.7018 -128.9039 L -404.155 -129.1843 L -404.7402 -129.5652 L -405.1671 -129.8577 L -405.5864 -130.1577 L -405.9977 -130.4652 L -406.5334 -130.8866 L -406.9263 -131.2117 L -407.4374 -131.6567 L -407.8118 -131.9997 L -408.2964 -132.4672 L -408.651 -132.8275 L -409.1098 -133.3192 L -409.4432 -133.6964 L -409.7677 -134.0811 L -410.1849 -134.6041 L -410.4871 -135.0054 L -410.7781 -135.4124 L -411.1497 -135.9651 L -411.7535 -136.9591 L -411.993 -137.3945 L -412.2203 -137.8348 L -412.4356 -138.2807 L -412.7029 -138.8816 L -412.8885 -139.3381 L -413.0629 -139.8044 L -413.2683 -140.4151 L -413.4079 -140.882 L -413.5334 -141.3521 L -413.6434 -141.8214 L -413.7389 -142.2934 L -413.8192 -142.7652 L -413.9034 -143.3947 L -413.9493 -143.8665 L -413.9806 -144.3386 L -413.9999 -144.965 L -413.9976 -145.4344 L -413.9811 -145.9016 L -413.9373 -146.5229 L -413.888 -146.9884 L -413.825 -147.4515 L -413.7197 -148.0686 L -413.6243 -148.5329 L -413.5147 -148.9999 L -413.3454 -149.6279 L -413.2005 -150.1036 L -413.041 -150.5807 L -412.8034 -151.2234 L -412.6071 -151.7076 L -412.3945 -152.1948 L -412.1657 -152.6837 L -411.9209 -153.1725 L -411.659 -153.662 L -411.3808 -154.1497 L -411.0851 -154.6367 L -410.6649 -155.281 L -410.3303 -155.7596 L -409.9785 -156.2339 L -409.4832 -156.8577 L -409.0915 -157.319 L -408.5442 -157.9217 L -408.1137 -158.3651 L -407.6672 -158.7991 L -407.2031 -159.2249 L -406.5609 -159.7755 L -406.0599 -160.1765 L -405.5441 -160.5658 L -405.0134 -160.9433 L -404.2827 -161.4291 L -403.7178 -161.7799 L -402.9452 -162.2292 L -402.3509 -162.5532 L -401.7441 -162.867 L -401.1263 -163.1706 L -400.2897 -163.5591 L -399.6499 -163.84 L -398.7845 -164.1997 L -398.1281 -164.4578 L -397.4608 -164.7076 L -396.5601 -165.0248 L -395.8746 -165.2513 L -395.1823 -165.4673 L -394.2476 -165.7388 L -393.5362 -165.9301 L -392.8179 -166.1103 L -391.8484 -166.3329 L -391.1116 -166.4871 L -390.1198 -166.6745 L -389.3663 -166.8019 L -388.6046 -166.9177 L -387.5809 -167.0534 L -386.8054 -167.1415 L -385.7632 -167.2407 L -384.9727 -167.3014 L -384.1779 -167.3502 L -383.1078 -167.3969 L -382.3003 -167.4179 L -381.4865 -167.4272 L -380.6677 -167.4249 L -379.8449 -167.411 L -378.7386 -167.375 L -377.902 -167.335 L -376.7796 -167.2648 L -375.9291 -167.1998 L -374.789 -167.0975 L -373.9293 -167.0097 L -372.7727 -166.8783 L -371.8979 -166.7696 L -370.7232 -166.6117 L -369.8341 -166.4837 L -368.9394 -166.3478 L -367.7354 -166.1541 L -366.8251 -165.9996 L -365.9058 -165.8369 L -364.9811 -165.6666 L -363.7344 -165.4273 L -362.7899 -165.2391 L -361.8391 -165.044 L -360.8795 -164.842 L -359.9098 -164.6328 L -358.6054 -164.3443 L -357.6156 -164.12 L -356.6166 -163.8893 L -355.6104 -163.6526 L -354.5926 -163.4089 L -353.2202 -163.0737 L -352.1785 -162.8143 L -350.7746 -162.4582 L -349.7081 -162.1828 L -348.2726 -161.8061 L -347.1832 -161.5159 L -346.0846 -161.2199 L -344.9797 -160.919 L -343.8598 -160.6117 L -342.3433 -160.1917 L -341.1916 -159.8696 L -339.6393 -159.4323 L -338.4595 -159.0983 L -337.2705 -158.761 L -336.0673 -158.4197 L -334.8523 -158.076 L -333.2039 -157.6123 L -332.3757 -157.3811 L -331.1326 -157.0366 L -329.446 -156.5753 L -328.1641 -156.23 L -326.8693 -155.8864 L -325.5626 -155.5451 L -324.2423 -155.2061 L -322.4625 -154.7591 L -321.1101 -154.427 L -319.2918 -153.9911 L -317.8988 -153.6648 L -316.0553 -153.243 L -314.649 -152.9288 L -313.2303 -152.6184 L -311.8009 -152.3123 L -309.8752 -151.9107 L -308.4223 -151.6159 L -306.9578 -151.3256 L -305.4778 -151.0395 L -303.4944 -150.6674 L -301.992 -150.3943 L -300.4801 -150.1276 L -298.9565 -149.8675 L -296.9085 -149.5313 L -295.3608 -149.2875 L -293.7835 -149.0484 L -291.7068 -148.7484 L -290.1305 -148.532 L -288.5419 -148.3238 L -286.9402 -148.1238 L -284.794 -147.8715 L -283.1723 -147.6928 L -281.5441 -147.5238 L -279.9037 -147.3643 L -277.7024 -147.168 L -276.0418 -147.0334 L -274.3714 -146.9092 L -272.6955 -146.7949 L -271.0053 -146.6895 L -268.7459 -146.5629 L -267.0389 -146.4774 L -265.3264 -146.3999 L -263.6025 -146.3301 L -261.875 -146.2679 L -259.5554 -146.1963 L -257.8041 -146.1512 L -256.0548 -146.1134 L -254.29 -146.0828 L -252.5146 -146.0597 L -250.702 -146.0438 L -248.3368 -146.0347 L -246.5276 -146.036 L -244.0913 -146.0487 L -242.2461 -146.0662 L -240.3837 -146.0904 L -238.5088 -146.1212 L -236.6176 -146.1584 L -234.0722 -146.2171 L -232.1433 -146.2674 L -230.2009 -146.3224 L -227.5832 -146.4024 L -225.6039 -146.4667 L -223.6071 -146.534 L -221.5923 -146.6041 L -218.8941 -146.7005 L -216.8495 -146.775 L -214.7867 -146.8515 L -212.0187 -146.9558 L -209.9235 -147.0362 L -207.1064 -147.1462 L -204.9775 -147.231 L -202.8288 -147.3177 L -200.6724 -147.406 L -197.7659 -147.5268 L -195.569 -147.6194 L -193.3611 -147.7133 L -190.3835 -147.8412 L -188.1418 -147.9382 L -185.8825 -148.0364 L -183.6049 -148.1357 L -180.5544 -148.2692 L -178.2488 -148.3703 L -175.928 -148.4723 L -173.5952 -148.5749 L -170.4653 -148.7128 L -168.0968 -148.8172 L -165.7218 -148.9217 L -163.3049 -149.0276 L -160.1435 -149.1655 L -157.7308 -149.27 L -155.3016 -149.3745 L -152.8634 -149.4786 L -150.4088 -149.5824 L -147.1172 -149.7201 L -144.6365 -149.8228 L -142.1371 -149.9253 L -139.6121 -150.0279 L -136.2609 -150.1626 L -133.7376 -150.2631 L -131.1897 -150.3637 L -128.6165 -150.4645 L -125.2015 -150.5972 L -122.6146 -150.697 L -119.1438 -150.83 L -116.5295 -150.9295 L -113.9047 -151.029 L -111.2658 -151.1287 L -108.6091 -151.2288 L -105.0653 -151.3619 L -102.3963 -151.462 L -99.7045 -151.5626 L -97.0124 -151.6632 L -94.2837 -151.765 L -90.6767 -151.8994 L -87.9415 -152.0011 L -85.1997 -152.103 L -82.4426 -152.2053 L -79.6783 -152.3078 L -76.8996 -152.4103 L -74.1022 -152.5128 L -70.3844 -152.6473 L -67.5701 -152.7473 L -64.7501 -152.8457 L -61.918 -152.942 L -59.0797 -153.0358 L -56.2006 -153.1276 L -52.4113 -153.2432 L -49.5394 -153.3264 L -46.6538 -153.4062 L -43.7588 -153.4819 L -40.8553 -153.5537 L -37.9437 -153.6207 L -34.048 -153.7024 L -31.1058 -153.7578 L -28.1307 -153.808 L -24.2229 -153.8647 L -21.2535 -153.9005 L -18.2686 -153.9301 L -14.2902 -153.9594 L -11.2709 -153.9737 L -7.2894 -153.9823 L -4.2747 -153.9809 L -1.2537 -153.9727 L 1.7937 -153.9578 L 5.8463 -153.9279 L 8.8986 -153.8983 L 12.9795 -153.8498 L 16.0449 -153.8069 L 20.1766 -153.7407 L 23.2272 -153.6859 L 27.3519 -153.6041 L 30.4909 -153.5364 L 34.6042 -153.4408 L 37.726 -153.3631 L 40.8618 -153.2807 L 45.0367 -153.1642 L 48.1806 -153.0714 L 51.334 -152.974 L 54.4982 -152.8717 L 57.6783 -152.7644 L 60.8491 -152.6525 L 65.1005 -152.4943 L 68.2923 -152.369 L 71.4985 -152.2372 L 74.7151 -152.0984 L 77.927 -151.953 L 82.2222 -151.7476 L 85.5162 -151.5812 L 89.7803 -151.3538 L 93.0265 -151.1716 L 96.2884 -150.9804 L 100.636 -150.713 L 103.913 -150.5022 L 107.1877 -150.2837 L 111.5724 -149.9789 L 114.8701 -149.7405 L 119.2657 -149.4106 L 122.6231 -149.1494 L 127.0009 -148.7966 L 130.3263 -148.5193 L 133.6677 -148.2326 L 138.1002 -147.8393 L 141.4525 -147.5318 L 145.9082 -147.1097 L 149.273 -146.7807 L 153.7649 -146.328 L 157.1232 -145.9798 L 160.5243 -145.6188 L 165.018 -145.1296 L 168.3864 -144.7542 L 171.783 -144.3685 L 175.1788 -143.9764 L 178.5772 -143.5776 L 181.9822 -143.1721 L 186.5234 -142.6226 L 189.9347 -142.2035 L 193.3408 -141.7798 L 197.8804 -141.2073 L 201.2757 -140.7732 L 204.6852 -140.332 L 209.2116 -139.7381 L 212.5662 -139.2917 L 217.0456 -138.6872 L 220.3961 -138.2288 L 224.8637 -137.6094 L 228.1947 -137.1416 L 231.5176 -136.6705 L 235.9256 -136.04 L 239.2303 -135.5646 L 243.6397 -134.929 L 246.913 -134.458 L 251.2825 -133.8331 L 254.5617 -133.3689 L 258.8954 -132.7639 L 262.1454 -132.3178 L 265.3955 -131.8785 L 268.6302 -131.4484 L 272.9386 -130.8861 L 276.1689 -130.4715 L 280.4413 -129.9308 L 283.6477 -129.5295 L 286.8416 -129.1321 L 290.035 -128.7359 L 294.2825 -128.2086 L 297.444 -127.8145 L 301.6616 -127.2851 L 304.8176 -126.8854 L 307.9665 -126.4833 L 312.1528 -125.9435 L 315.2712 -125.5376 L 318.3885 -125.1288 L 321.5284 -124.7144 L 325.6411 -124.1683 L 328.7357 -123.7555 L 332.8434 -123.2057 L 335.9181 -122.7931 L 339.0014 -122.3786 L 343.0902 -121.8279 L 346.1298 -121.4179 L 350.188 -120.8694 L 353.2153 -120.4593 L 356.2435 -120.0482 L 359.2741 -119.6356 L 363.2807 -119.0883 L 366.291 -118.6754 L 369.2908 -118.2625 L 373.2911 -117.7094 L 376.2554 -117.2977 L 379.2287 -116.8831 L 383.1886 -116.3286 L 386.132 -115.9148 L 390.0727 -115.3588 L 393.0134 -114.9427 L 396.9232 -114.3881 L 399.8606 -113.9708 L 403.7323 -113.4202 L 406.6455 -113.0056 L 409.5644 -112.5902 L 412.4468 -112.1802 L 416.316 -111.6306 L 419.1868 -111.2236 L 422.0616 -110.8167 L 424.9499 -110.4088 L 428.7391 -109.8759 L 431.5997 -109.4754 L 434.4506 -109.0776 L 437.2993 -108.6818 L 440.1372 -108.2887 L 443.9041 -107.769 L 446.7214 -107.3816 L 450.4727 -106.8669 L 453.2763 -106.4829 L 456.0861 -106.0985 L 459.776 -105.5939 L 462.5449 -105.2149 L 465.3042 -104.8371 L 468.0437 -104.4616 L 470.7775 -104.0864 L 474.4008 -103.5884 L 477.0959 -103.2171 L 479.7776 -102.847 L 483.3299 -102.3556 L 485.9716 -101.9893 L 489.4675 -101.5033 L 492.0703 -101.1405 L 494.6527 -100.7798 L 498.0624 -100.3023 L 500.599 -99.9462 L 503.1217 -99.5916 L 505.6231 -99.2398 L 508.1082 -98.89 L 511.3901 -98.4283 L 513.8489 -98.0827 L 517.0641 -97.6316 L 519.4657 -97.2956 L 522.6394 -96.8533 L 524.998 -96.5256 L 527.3498 -96.1996 L 530.486 -95.7665 L 532.7552 -95.4539 L 535.8027 -95.035 L 538.0721 -94.7235 L 541.0669 -94.3128 L 543.2781 -94.0095 L 546.2078 -93.6074 L 548.3846 -93.3083 L 550.5446 -93.0111 L 552.6826 -92.7163 L 554.8074 -92.4228 L 557.6054 -92.0354 L 559.6867 -91.7463 L 562.431 -91.3641 L 564.4694 -91.0793 L 566.49 -90.7963 L 569.1551 -90.4221 L 571.1358 -90.1434 L 573.7616 -89.7734 L 575.6934 -89.501 L 577.6182 -89.2297 L 580.1672 -88.8708 L 582.0645 -88.604 L 583.9495 -88.3394 L 586.436 -87.9916 L 588.2824 -87.7343 L 590.7289 -87.3945 L 592.553 -87.1422 L 594.9595 -86.8109 L 596.7554 -86.5647 L 599.127 -86.2414 L 600.8872 -86.0027 L 602.6373 -85.7663 L 604.9411 -85.4568 L 606.6546 -85.228 L 608.9169 -84.927 L 610.5965 -84.7049 L 612.2722 -84.4839 L 614.4675 -84.1949 L 616.0888 -83.9819 L 617.7044 -83.7697 L 619.3061 -83.5594 L 620.8977 -83.3507 L 622.472 -83.1443 L 624.5591 -82.871 L 626.1115 -82.6682 L 627.6615 -82.4661 L 629.2054 -82.2648 L 630.7446 -82.0647 L 632.791 -81.7981 L 634.3182 -81.5982 L 636.3501 -81.3311 L 637.8624 -81.1305 L 639.875 -80.8605 L 641.3794 -80.6564 L 642.8785 -80.4507 L 644.8686 -80.1745 L 646.3547 -79.9655 L 647.8354 -79.7554 L 649.8057 -79.4733 L 651.2725 -79.2622 L 652.7376 -79.0504 L 654.6816 -78.7679 L 656.1345 -78.5561 L 657.583 -78.3443 L 659.0271 -78.1331 L 660.943 -77.852 L 662.3745 -77.6415 L 663.8021 -77.431 L 665.2244 -77.221 L 666.6415 -77.0114 L 668.0557 -76.8017 L 669.4629 -76.5933 L 670.8677 -76.385 L 672.7324 -76.1078 L 674.1245 -75.9009 L 675.5118 -75.6952 L 676.8995 -75.4896 L 678.7398 -75.2176 L 680.1085 -75.0153 L 681.9314 -74.7463 L 683.2959 -74.5446 L 684.6508 -74.3445 L 686.0013 -74.1447 L 687.7853 -73.8801 L 689.1137 -73.6826 L 690.4356 -73.4856 L 692.18 -73.2243 L 693.4741 -73.0296 L 695.1739 -72.7726 L 696.436 -72.5809 L 698.0912 -72.3284 L 699.3198 -72.1403 L 700.9241 -71.8934 L 702.1064 -71.7107 L 703.2687 -71.5305 L 704.4064 -71.3535 L 705.5227 -71.1793 L 706.9723 -70.9521 L 708.0349 -70.785 L 709.0725 -70.6213 L 710.0888 -70.4603 L 711.0856 -70.3018 L 712.3718 -70.0962 L 713.3091 -69.9454 L 714.2264 -69.7968 L 715.1231 -69.6503 L 716.0012 -69.5056 L 717.1415 -69.3155 L 717.9814 -69.1737 L 718.8076 -69.0323 L 719.885 -68.8448 L 720.6792 -68.7039 L 721.4655 -68.5619 L 722.497 -68.3713 L 723.2585 -68.2272 L 724.2596 -68.0328 L 725.003 -67.8843 L 725.975 -67.6842 L 726.6959 -67.5311 L 727.4085 -67.3756 L 728.1095 -67.2182 L 729.0324 -67.0042 L 729.7149 -66.8409 L 730.3895 -66.6752 L 731.2772 -66.4504 L 731.9367 -66.2787 L 732.5929 -66.104 L 733.2449 -65.9264 L 734.1091 -65.6853 L 734.7558 -65.5004 L 735.6132 -65.2492 L 736.255 -65.0567 L 736.8936 -64.8613 L 737.7433 -64.5946 L 738.375 -64.391 L 739.0069 -64.1826 L 739.8435 -63.8987 L 740.4676 -63.6806 L 741.2942 -63.3828 L 741.9112 -63.1535 L 742.5238 -62.9199 L 743.1342 -62.681 L 743.7414 -62.4371 L 744.5452 -62.1046 L 745.1453 -61.849 L 745.7417 -61.5887 L 746.3379 -61.3224 L 747.1286 -60.9593 L 747.723 -60.6793 L 748.3163 -60.3935 L 748.9122 -60.1005 L 749.5079 -59.8014 L 750.3021 -59.3928 L 750.8994 -59.0782 L 751.4957 -58.7577 L 752.0919 -58.4306 L 752.6893 -58.0961 L 753.2822 -57.7575 L 753.8804 -57.4082 L 754.6793 -56.9294 L 755.2611 -56.5713 L 755.8512 -56.1996 L 756.4404 -55.8198 L 757.2217 -55.3024 L 757.8066 -54.9041 L 758.3876 -54.4988 L 758.9664 -54.0848 L 759.7335 -53.5197 L 760.3064 -53.0835 L 761.0555 -52.495 L 761.614 -52.0421 L 762.3508 -51.4258 L 762.8969 -50.9534 L 763.4385 -50.4716 L 764.1527 -49.8183 L 764.6846 -49.3181 L 765.3888 -48.6404 L 765.9147 -48.1237 L 766.4365 -47.6015 L 766.9575 -47.0712 L 767.6483 -46.3538 L 768.163 -45.8091 L 768.8492 -45.0734 L 769.3627 -44.5168 L 769.8781 -43.9543 L 770.3936 -43.3881 L 770.9176 -42.8092 L 771.4301 -42.2416 L 771.9517 -41.6627 L 772.4786 -41.0788 L 773.186 -40.2966 L 773.721 -39.7071 L 774.4443 -38.9143 L 774.9913 -38.3188 L 775.5455 -37.7187 L 776.1052 -37.1175 L 776.8592 -36.3141 L 777.4333 -35.7072 L 778.2044 -34.8981 L 778.7917 -34.2879 L 779.582 -33.4752 L 780.1853 -32.8626 L 780.7919 -32.255 L 781.6163 -31.4435 L 782.2412 -30.8394 L 783.0884 -30.0358 L 783.733 -29.4362 L 784.3857 -28.8389 L 785.0466 -28.2443 L 785.9397 -27.4589 L 786.6226 -26.8743 L 787.3142 -26.2964 L 788.0153 -25.7245 L 788.7344 -25.1521 L 789.6866 -24.4137 L 790.4167 -23.8615 L 791.1559 -23.3147 L 791.9023 -22.7751 L 792.6579 -22.2426 L 793.6793 -21.5445 L 794.4539 -21.0314 L 795.4994 -20.3608 L 796.2946 -19.8674 L 797.0961 -19.384 L 798.1677 -18.7595 L 798.9803 -18.3025 L 799.7973 -17.8575 L 800.6169 -17.4252 L 801.4401 -17.0057 L 802.2721 -16.5963 L 803.3746 -16.0757 L 804.203 -15.7007 L 805.0387 -15.3356 L 806.1539 -14.8681 L 806.9883 -14.5319 L 807.8289 -14.2039 L 808.9522 -13.781 L 809.7974 -13.4735 L 810.6445 -13.1739 L 811.4942 -12.8815 L 812.3455 -12.5964 L 813.4848 -12.2264 L 814.3361 -11.9585 L 815.1915 -11.6962 L 816.3374 -11.3555 L 817.1998 -11.1065 L 818.0621 -10.8631 L 818.9291 -10.6239 L 820.0888 -10.3125 L 820.9628 -10.0841 L 821.8376 -9.8609 L 822.7189 -9.6414 L 823.8981 -9.3562 L 824.7891 -9.1472 L 825.6873 -8.942 L 826.5873 -8.7423 L 827.4955 -8.5465 L 828.713 -8.294 L 829.6346 -8.1105 L 830.5583 -7.9329 L 831.492 -7.76 L 832.4289 -7.593 L 833.6863 -7.3784 L 834.6395 -7.2225 L 835.9247 -7.021 L 836.8966 -6.8751 L 838.2072 -6.6857 L 839.2007 -6.5477 L 840.2008 -6.4128 L 841.2136 -6.2798 L 842.2413 -6.1482 L 843.6161 -5.9774 L 844.6635 -5.8506 L 846.078 -5.6845 L 847.1559 -5.5617 L 848.5987 -5.401 L 849.6974 -5.2821 L 850.8055 -5.1652 L 851.9249 -5.0494 L 853.4316 -4.8965 L 854.5713 -4.7832 L 855.725 -4.6694 L 856.8965 -4.555 L 858.0805 -4.4403 L 859.2736 -4.3249 L 860.8899 -4.1682 L 862.1032 -4.0498 L 863.7468 -3.8872 L 864.9943 -3.762 L 866.67 -3.5907 L 867.94 -3.4579 L 869.2223 -3.3221 L 870.9469 -3.1366 L 872.2534 -2.994 L 874.0125 -2.7995 L 875.3482 -2.6503 L 876.686 -2.5001 L 878.4914 -2.296 L 879.8589 -2.1407 L 881.2349 -1.9836 L 882.6211 -1.8243 L 884.4894 -1.6096 L 885.8961 -1.4478 L 887.7907 -1.2307 L 889.225 -1.0669 L 890.6697 -.9027 L 892.6052 -.6845 L 894.0687 -.5209 L 896.0375 -.3031 L 897.5205 -.1409 L 899.0201 .0216 L 901.0217 .2359 L 902.5387 .3964 L 904.0726 .5568 L 906.1092 .7673 L 907.6545 .9247 L 909.7272 1.1333 L 911.2894 1.2883 L 912.8667 1.443 L 914.4445 1.5961 L 916.5618 1.7991 L 918.1651 1.9513 L 920.3118 2.1535 L 921.9261 2.3045 L 923.5643 2.4569 L 925.7275 2.6572 L 927.374 2.8094 L 929.0244 2.9614 L 931.2315 3.1644 L 932.899 3.3177 L 934.5744 3.4713 L 936.2533 3.6251 L 937.9478 3.781 L 939.637 3.9365 L 941.9038 4.1458 L 943.6054 4.304 L 945.3195 4.4638 L 947.0405 4.6252 L 949.3493 4.8433 L 951.0791 5.0078 L 952.8236 5.1751 L 954.5723 5.3439 L 956.8946 5.5703 L 958.6563 5.7438 L 961.0118 5.9771 L 962.7935 6.1548 L 965.1612 6.3935 L 966.9526 6.5758 L 968.7589 6.7609 L 970.5588 6.9467 L 972.3643 7.1341 L 974.782 7.3869 L 976.6035 7.5792 L 979.0462 7.8394 L 980.8772 8.0356 L 983.3427 8.3003 L 985.2079 8.5014 L 987.6627 8.7672 L 989.5187 8.9685 L 991.3896 9.1716 L 993.2716 9.3761 L 995.7665 9.6475 L 997.6539 9.8522 L 999.5535 10.0583 L 1001.4622 10.2647 L 1003.9851 10.5371 L 1005.8928 10.7424 L 1007.8148 10.9488 L 1010.3602 11.2214 L 1012.2842 11.427 L 1014.8572 11.7011 L 1016.807 11.908 L 1019.3747 12.1799 L 1021.3123 12.3846 L 1023.253 12.589 L 1025.2087 12.7947 L 1027.7996 13.0669 L 1029.7433 13.2713 L 1031.7062 13.4778 L 1033.665 13.6842 L 1035.6275 13.8911 L 1038.2412 14.1669 L 1040.2046 14.3744 L 1042.8187 14.6514 L 1044.7909 14.8605 L 1046.7613 15.0705 L 1048.7471 15.2825 L 1051.3746 15.5636 L 1053.3578 15.7767 L 1055.9922 16.0601 L 1057.98 16.2749 L 1059.9679 16.4897 L 1061.9513 16.705 L 1064.6107 16.9943 L 1066.5899 17.2101 L 1069.2464 17.5007 L 1071.2451 17.7197 L 1073.2478 17.9394 L 1075.912 18.2325 L 1077.9074 18.4522 L 1079.9061 18.673 L 1081.9154 18.8953 L 1084.5858 19.1913 L 1086.5985 19.4151 L 1089.289 19.7148 L 1091.2892 19.9377 L 1093.3041 20.1634 L 1095.3346 20.3906 L 1098.0089 20.6907 L 1100.0256 20.9176 L 1102.7249 21.222 L 1104.7332 21.4491 L 1106.75 21.6781 L 1109.4391 21.9841 L 1111.4471 22.2132 L 1113.448 22.4421 L 1116.0997 22.7458 L 1118.087 22.9735 L 1120.7247 23.2773 L 1122.6951 23.505 L 1124.6708 23.734 L 1127.2692 24.0355 L 1129.2197 24.2623 L 1131.8136 24.565 L 1133.7404 24.7907 L 1136.305 25.0926 L 1138.2219 25.3196 L 1140.1323 25.5473 L 1142.0382 25.7759 L 1143.9315 26.0051 L 1145.8298 26.2375 L 1148.3275 26.5471 L 1150.2037 26.7831 L 1152.6863 27.0998 L 1154.5436 27.3408 L 1156.3978 27.5856 L 1158.244 27.8339 L 1160.0759 28.0849 L 1161.9056 28.3407 L 1163.7371 28.6024 L 1166.1423 28.9553 L 1167.9492 29.2279 L 1170.3458 29.6004 L 1172.1398 29.8873 L 1174.5072 30.2772 L 1176.2691 30.576 L 1178.0409 30.8841 L 1180.3766 31.3023 L 1182.1241 31.6236 L 1184.4295 32.0596 L 1186.156 32.3949 L 1188.4512 32.8522 L 1190.1575 33.2007 L 1191.8607 33.5564 L 1194.1239 34.0403 L 1195.8082 34.4089 L 1197.4865 34.7831 L 1199.1591 35.163 L 1200.8213 35.5471 L 1203.0251 36.0668 L 1204.6748 36.4628 L 1206.3441 36.8699 L 1208.4838 37.4001 L 1210.1087 37.8087 L 1211.7246 38.22 L 1213.3399 38.636 L 1215.4708 39.1916 L 1217.0637 39.612 L 1219.1814 40.1773 L 1220.7588 40.6029 L 1222.8556 41.1749 L 1224.4208 41.6061 L 1225.978 42.0389 L 1227.534 42.475 L 1229.0794 42.9119 L 1230.6191 43.3509 L 1232.6605 43.9382 L 1234.1858 44.3814 L 1235.7056 44.8265 L 1237.2184 45.2731 L 1239.2271 45.8717 L 1240.7245 46.3219 L 1242.2164 46.7742 L 1244.1989 47.3805 L 1245.6789 47.8372 L 1247.1519 48.2952 L 1248.6187 48.7546 L 1250.0795 49.2157 L 1252.0167 49.8324 L 1253.4646 50.2972 L 1254.9094 50.7645 L 1256.3426 51.2313 L 1257.7736 51.7008 L 1259.6723 52.329" stroke-width="28" stroke="grey" fill="none" id="Track"/></svg>