<svg class="track" xmlns="http://www.w3.org/2000/svg" preserveAspectRatio="xMinYMid meet" height="230" width="600" viewBox="-500 -250 1 800">
  <path d="m1191.9 33.655 7.495 1.666 8.5 2.03 7.414 1.85 5.282 1.362 9.468 2.559 7.843 2.272 6.247 1.927 9.314 3.066 7.21 2.517 8.237 3.01 6.18 2.343 8.236 3.255 8.214 3.418 8.692 3.817 8.658 3.996 8.136 3.886 8.138 3.96 8.563 4.228 8.29 4.187 7.462 3.851 7.49 3.89 5.002 2.579 6.364 3.243 6.072 3.079 6.014 3.04 5.258 2.608 4.987 2.357 5.14 2.22 4.773 1.793 3.863 1.224 4.735 1.174 3.824.663 4.993.478 3.777.072 4.85-.281 3.594-.515 4.472-1.064 3.5-1.202 3.864-1.708 2.879-1.452 3.855-2.085 3.358-1.963 3.744-2.424 2.852-2.09 3.2-2.68 2.211-2.049 3.204-3.007 2.338-2.024 2.967-2.277 3.088-1.996 3.203-1.65 2.037-.838 3.274-1.02 2.867-.558 3.228-.244 2.567.114 3.27.548 2.27.644 3.185 1.273 2.55 1.369 2.096 1.404 2.283 1.894 2.35 2.485 2.046 2.805 1.835 3.32 1.417 3.405 1.178 3.864.67 3.104.536 3.979.19 3.356-.087 4.554-.322 3.613-.773 4.887-.879 3.835-1.43 4.805-1.449 3.95-2.123 4.9-2.146 4.317-2.749 4.964-2.247 3.746-3.418 5.355-2.764 4.146-3.869 5.566-3.4 4.64-6.893 8.71-4.005 4.715-5.136 5.79-5.409 5.842-5.322 5.545-5.878 5.938-4.287 4.223-6.263 6-4.944 4.59-6.665 6-5.25 4.571-7.075 5.928-6.001 4.823-7.053 5.445-5.872 4.372-20.23 14.147-15.24 9.729-14.61 8.684-12.757 7.252-12.914 7.067-11.42 5.968-10.743 4.998-9.15 3.503-8.684 2.594-7.996 1.536-3.252.334-3.386.177-3.777.035-3.048-.087-3.782-.243-3.387-.341-4.51-.666-3.62-.72-4.501-1.144-4.589-1.481-4.359-1.714-4.644-2.082-4.466-2.059-4.915-2.091-4.78-1.754-5.145-1.522-4.264-.948-4.94-.78-5.659-.552-4.143-.204-5.505-.014-5.266.26-5.658.575-5.72.868-4.43.847-5.863 1.333-5.578 1.47-5.61 1.697-5.62 1.962-4.91 1.95-5.64 2.499-5.044 2.45-6.332 3.26-4.679 2.501-6.49 3.557-5.504 3.084-7.5 4.27-7.346 4.206-6.074 3.463-5.585 3.158-7.785 4.352-6.29 3.466-7.474 4.01-6.911 3.544-7.228 3.486-7.095 3.16-6.596 2.647-5.298 1.909-6.865 2.163-5.203 1.39-6.773 1.486-5.167.903-6.773.907-6.813.634-6.473.372-4.904.137-7.39-.048-5.793-.27-7.116-.615-7.644-1.018-5.614-.973-4.381-.885-7.564-1.772-2.7-.71-10.873-3.313-6.388-2.285-7.328-2.883-5.983-2.517-7.873-3.476-6.545-2.963-7.102-3.204-8.18-3.61-12.647-5.398-7.81-3.247-5.416-2.205-6.669-2.646-4.298-1.667-3.988-1.504-3.913-1.4-4.234-1.393-2.676-.783-3.581-.9-2.688-.563-3.345-.574-2.813-.38-3.612-.332-3.027-.13-3.953.078-2.995.274-3.73.598-3.987.963-4.05 1.39-2.762 1.233-3.368 1.88-2.202 1.517-2.662 2.151-2.447 2.275-2.22 2.338-2.142 2.558-2.409 3.417-1.704 2.936-1.802 3.807-1.366 3.507-1.473 4.427-1.107 3.468-1.207 3.491-3.568 8.073-4.346 6.733-5.141 5.847-5.367 4.89-3.424 2.728-3.286 2.402-9.189 5.847-3.626 1.991-3.475 1.736-3.532 1.584-3.143 1.263-3.91 1.377-3.07.927-4.135 1.037-4.288.828-4.162.568-4.567.385-4.426.17-4.836.002-4.978-.147-5.108-.285-5.223-.428-5.331-.58-5.098-.69-3.87-.616-4.226-.762-5.573-1.145-4.29-.978-5.332-1.306-4.747-1.218-5.55-1.47-7.533-2.043-6.301-1.74-10.5-2.971-9.34-2.74-12.257-3.738-13.213-4.152-13.244-4.251-7.48-2.45-14.308-4.754-8.247-2.798-7.837-2.703-8.886-3.114-6.461-2.284-8.495-3.028-8.04-2.908-8.082-2.971-8.62-3.223-8.657-3.294-8.692-3.365-15.917-6.313-15.987-6.543-14.994-6.382-15.476-6.934-15.453-7.287-15.405-7.605-15.377-7.888-15.368-8.106-15.86-8.602-15.31-8.529-8.649-4.932-8.657-5.032-10.706-6.379-8.562-5.236-2.962-1.842-7.697-4.868-7.772-5.029-4.378-2.868-7.113-4.685-6.34-4.186-7.769-5.133-5.808-3.855-2.895-1.93-5.137-3.439-3.643-2.445-4.156-2.797-4.065-2.743-3.602-2.436-2.815-1.913-3.546-2.441-2.607-1.851-3.283-2.444-3.164-2.511-2.866-2.462-2.23-2.084-2.775-2.85-2.012-2.272-2.479-3.092-1.774-2.457-2.16-3.33-1.42-2.441-1.846-3.582-1.254-2.836-1.336-3.6-.986-3.233-.91-3.762-.493-2.626-.636-4.868-.259-3.232-.219-4.299-.18-4.372-.42-7.873-.846-7.725-.745-4.263-2.094-7.892-1.627-4.383-1.764-4.087-2.096-4.317-1.891-3.545-2.479-4.288-2.028-3.257-2.844-4.215-2.512-3.41-3.262-4.057-2.648-3.034-3.661-3.864-2.713-2.65-3.78-3.437-3.203-2.723-4.36-3.47-4.28-3.185-4.44-3.157-4.107-2.858-4.36-2.998-4.653-3.164-3.501-2.357-6.278-4.18-5.08-3.341-6.564-4.265-7.334-4.7-7.24-4.593-7.546-4.768-6.319-3.99-8.553-5.393-6.748-4.23-9.113-5.659-7.737-4.752-9.092-5.522-7.583-4.544-10.175-5.99-7.97-4.618-10.658-6.09-8.331-4.69-9.15-5.068-19.52-10.468-20.83-10.6-11.361-5.495-12.997-5.993-17.659-7.522-12.756-4.977-6.813-2.52-12.142-4.236-10.644-3.408-12.768-3.689-9.557-2.473-12.193-2.816-8.4-1.74-11.567-2.164-9.306-1.57-10.392-1.612-8.967-1.295-10.2-1.396-8.86-1.186-9.868-1.332-8.26-1.13-10.002-1.334-8.274-1.044-7.711-.944-6.266-.8-10.003-1.455-5.84-.98-4.007-.726-4.845-.929-3.484-.713-3.98-.938-3.17-.923-3.44-1.28-2.313-1.09-2.642-1.563-1.793-1.322-2.118-1.94-1.534-1.777-1.568-2.355-.95-1.923-.83-2.47-.37-2.043-.078-2.507.261-2.167.679-2.512.875-2.103 1.501-2.597 1.574-2.038 2.53-2.457 2.278-1.653 3.157-1.742 2.998-1.287 3.88-1.28 3.136-.75 4.307-.654 4.505-.276 3.561.043 4.81.365 4.99.662 3.958.681 5.071 1.034 5.317 1.224 6.32 1.603 5.93 1.614 5.072 1.431 4.895 1.38 6.813 1.836 7.664 1.88 14.405 2.998 8.133 1.38 8.42 1.163 15.936 1.434 16.715.607 7.762.047 8.02-.085 10.925-.281 10.733-.373 9.744-.371 11.537-.473 11.964-.517 10.01-.439 13.452-.59 9.734-.417 14.148-.58 11.06-.435 13.935-.532 14.254-.534 14.57-.542 12.058-.442 14.183-.48 12.442-.355 15.628-.326 16.86-.166 13.065.016 18.383.217 31.157.767 16.958.605 17.224.788 18.397 1.079 18.71 1.353 18.83 1.617 19.071 1.913 14.655 1.643 18.162 2.196 19.225 2.488 18.952 2.621 15.395 2.213 18.483 2.58 15.045 1.947 17.003 2.117 14.709 1.87 16.583 2.189 14.354 1.927 16.184 2.192 14.017 1.927 16.782 2.35 13.66 1.939 15.454 2.196 12.413 1.749 15.121 2.093 13.055 1.788 14.625 2.006 11.57 1.599 14.628 2.043 10.791 1.518 13.608 1.902 10.805 1.491 12.582 1.727 9.22 1.273 11.55 1.613 8.463 1.192 10.664 1.496 4.271.592 10.084 1.376 9.635 1.282 8.626 1.133 3.661.48 13.303 1.74 3.517.475 8.427 1.183 7.777 1.129 7.641 1.123 4.239.628 7.437 1.103 6.396.945 7.14 1.06 6 .904 6.833 1.05 4.766.746 5.274.84 3.832.63 3.538.611 4.324.82 4.03.88 3.56.9 3.662 1.047 3.588 1.158 3.291 1.218 2.608 1.092 3.17 1.489 2.584 1.342 3.183 1.829 3.128 2.025 3.249 2.409 3.097 2.677 2.284 2.216 2.926 3.085 2.589 2.854 2.492 2.749 2.99 3.207 2.751 2.844 2.903 2.827 3.535 3.162 3.794 3.012 3.262 2.317 4.489 2.786 3.272 1.753 4.714 2.138 3.643 1.395 4.54 1.514 4.592 1.335 4.97 1.268 4.814 1.062 9.494 1.608L848.6-5.4l10.675 1.076 12.98 1.331 13.642 1.546L901.022.236l6.632.689 3.635.363 9.023.866 7.062.655 8.88.816 7.351.679 9.219.871 8.188.802 9.547.97L983.343 8.3l9.929 1.076 19.012 2.051 10.969 1.162 6.49.682 8.498.896 10.506 1.116 9.233.992 11.266 1.226 8.661.951 11.382 1.263 8.72.976 11.43 1.293 8.648.99 11.133 1.288 9.002 1.058 10.106 1.227 8.07 1.039 9.744 1.37 8.365 1.321 9.922 1.783z" stroke-width="28" stroke="#000" fill="none"/>
  <path d="m1191.9 33.655 7.495 1.666 8.5 2.03 7.414 1.85 5.282 1.362 9.468 2.559 7.843 2.272 6.247 1.927 9.314 3.066 7.21 2.517 8.237 3.01 6.18 2.343 8.236 3.255 8.214 3.418 8.692 3.817 8.658 3.996 8.136 3.886 8.138 3.96 8.563 4.228 8.29 4.187 7.462 3.851 7.49 3.89 5.002 2.579 6.364 3.243 6.072 3.079 6.014 3.04 5.258 2.608 4.987 2.357 5.14 2.22 4.773 1.793 3.863 1.224 4.735 1.174 3.824.663 4.993.478 3.777.072 4.85-.281 3.594-.515 4.472-1.064 3.5-1.202 3.864-1.708 2.879-1.452 3.855-2.085 3.358-1.963 3.744-2.424 2.852-2.09 3.2-2.68 2.211-2.049 3.204-3.007 2.338-2.024 2.967-2.277 3.088-1.996 3.203-1.65 2.037-.838 3.274-1.02 2.867-.558 3.228-.244 2.567.114 3.27.548 2.27.644 3.185 1.273 2.55 1.369 2.096 1.404 2.283 1.894 2.35 2.485 2.046 2.805 1.835 3.32 1.417 3.405 1.178 3.864.67 3.104.536 3.979.19 3.356-.087 4.554-.322 3.613-.773 4.887-.879 3.835-1.43 4.805-1.449 3.95-2.123 4.9-2.146 4.317-2.749 4.964-2.247 3.746-3.418 5.355-2.764 4.146-3.869 5.566-3.4 4.64-6.893 8.71-4.005 4.715-5.136 5.79-5.409 5.842-5.322 5.545-5.878 5.938-4.287 4.223-6.263 6-4.944 4.59-6.665 6-5.25 4.571-7.075 5.928-6.001 4.823-7.053 5.445-5.872 4.372-20.23 14.147-15.24 9.729-14.61 8.684-12.757 7.252-12.914 7.067-11.42 5.968-10.743 4.998-9.15 3.503-8.684 2.594-7.996 1.536-3.252.334-3.386.177-3.777.035-3.048-.087-3.782-.243-3.387-.341-4.51-.666-3.62-.72-4.501-1.144-4.589-1.481-4.359-1.714-4.644-2.082-4.466-2.059-4.915-2.091-4.78-1.754-5.145-1.522-4.264-.948-4.94-.78-5.659-.552-4.143-.204-5.505-.014-5.266.26-5.658.575-5.72.868-4.43.847-5.863 1.333-5.578 1.47-5.61 1.697-5.62 1.962-4.91 1.95-5.64 2.499-5.044 2.45-6.332 3.26-4.679 2.501-6.49 3.557-5.504 3.084-7.5 4.27-7.346 4.206-6.074 3.463-5.585 3.158-7.785 4.352-6.29 3.466-7.474 4.01-6.911 3.544-7.228 3.486-7.095 3.16-6.596 2.647-5.298 1.909-6.865 2.163-5.203 1.39-6.773 1.486-5.167.903-6.773.907-6.813.634-6.473.372-4.904.137-7.39-.048-5.793-.27-7.116-.615-7.644-1.018-5.614-.973-4.381-.885-7.564-1.772-2.7-.71" stroke-width="12" stroke="#e73323" fill="none"/>
  <path d="m928.168 386.289-4.523-1.34-5.908-1.942-7.767-2.865-5.978-2.41-7.822-3.35-6.039-2.697-7.974-3.614-7.625-3.415-8.238-3.592-12.528-5.3-6.231-2.573-6.417-2.589-4.974-1.957-12.998-4.79-6.375-1.902-3.542-.83-2.692-.521-3.384-.53-2.863-.337-3.898-.277-3.041-.047-3.928.207-3.011.376-3.75.726-3.948 1.105-6.63 2.863-5.216 3.485-2.82 2.433-2.422 2.4-2.181 2.457-1.918 2.459-2.413 3.727-1.583 3.012-1.682 3.904-1.285 3.576-1.44 4.486-.874 2.679-1.567 4.298-1.591 3.684-2.2 4.185-1.866 2.936-2.67 3.548-2.215 2.546-2.91 2.966-2.485 2.283-3.167 2.66-3.252 2.502-3.506 2.483-2.71 1.79-2.925 1.819-3.593 2.075-3.439 1.823-3.715 1.779-3.557 1.518-2.947 1.124-3.947 1.311-3.347.936-4.201.956-4.086.696-4.477.516-4.347.285-4.757.107-4.898-.064-5.033-.203-4.85-.319-5.263-.481-5.362-.635-5.127-.746-4.21-.715-4.243-.816-5.593-1.21-3.972-.94-5.705-1.43-4.447-1.158-5.967-1.596-6.514-1.776-6.362-1.764-3.86-1.085-6.324-1.81-2.813-.818-7.813-2.32-5.48-1.666-7.32-2.271-5.72-1.797-7.615-2.412-5.474-1.754-7.876-2.56-7.523-2.473-6.195-2.055-8.192-2.752-7.794-2.662-8.35-2.899-8.918-3.14-6.476-2.296-8.013-2.871-8.057-2.932-8.597-3.182-8.637-3.253-8.673-3.323-8.707-3.394-7.184-2.845-8.747-3.519-6.707-2.738-9.293-3.86-6.719-2.854-8.27-3.601-7.223-3.23-8.248-3.788-6.696-3.15-8.744-4.212-6.679-3.29-8.72-4.39-7.175-3.678-8.205-4.262-6.672-3.513-8.693-4.65-7.158-3.877-8.692-4.767-6.638-3.692-8.66-4.89-8.64-4.964-8.671-5.085-8.666-5.198-11.463-7.072-7.626-4.845-8.136-5.284-4.316-2.833-7.83-5.163-6.57-4.339-6.178-4.084-5.73-3.807-4.084-2.728-8.474-5.686-4.006-2.7-3.948-2.666-6.301-4.283-6.04-4.28-3.232-2.466-2.938-2.4-2.473-2.184-2.696-2.609-2.086-2.209-2.582-3.013-1.855-2.394-2.266-3.252-1.612-2.58-1.732-3.083-1.474-2.983-1.481-3.53-1.106-3.176-1.055-3.719-.733-3.31-.417-2.396-.61-5.135-.27-4.004-.342-7.948-.206-4.19-.321-4.505-.365-3.464-.63-4.268-.843-4.254-.882-3.427-1.45-4.418-1.631-4.115-1.96-4.324-2.19-4.312-1.958-3.538-2.559-4.276-2.096-3.245-2.937-4.185-2.588-3.377-3.358-4.018-2.718-2.997-3.524-3.592-2.766-2.619-3.847-3.399-3.512-2.9-4.443-3.431-4.343-3.158-4.543-3.193-4.238-2.93-4.497-3.076-3.744-2.535-3.562-2.39-5.99-3.976-6.756-4.426-6.711-4.334-7.05-4.496-7.804-4.94-7.664-4.84L7.92 17.13l-8.16-5.136-7.373-4.604-9.238-5.707-7.273-4.446-9.192-5.555-8.257-4.912-9.677-5.655-8.047-4.636-10.752-6.108-9.057-5.062-8.575-4.707-8.739-4.703-10.93-5.742-8.995-4.602-9.824-4.889-12.128-5.813-12.296-5.605-17.717-7.451-12.784-4.927-9.097-3.299-23.52-7.596" stroke-width="12" stroke="#4fafdf" fill="none"/>
  <path d="m-218.96-95.519-8.87-2.356-12.281-2.924-9.14-1.943-11.638-2.223-8.687-1.498-10.459-1.657-8.982-1.32-10.847-1.5-8.885-1.192-9.934-1.336-8.341-1.14-9.583-1.29-8.927-1.14-7.81-.957-6.365-.8-4.278-.578-11.566-1.803-4.418-.787-4.908-.931-3.531-.71-4.046-.92-3.236-.901-3.326-1.17-2.57-1.148-2.567-1.441-1.843-1.281-2.298-2.002-1.472-1.614-2.668-4.2-.972-2.601-.411-1.883-.179-2.67.173-2.017.625-2.652.805-2.09 1.31-2.443 1.602-2.22 2.28-2.368 2.19-1.718 3.269-1.924 2.96-1.333 3.602-1.267 3.334-.866 4.267-.72 4.473-.344 3.263-.014 5.056.314 4.955.613 3.928.647 5.026.995 5.27 1.19 5.902 1.47 5.848 1.57 5.4 1.514 5.256 1.486 6.335 1.726 7.577 1.895 7.491 1.679 6.323 1.273 8.57 1.508 8.366 1.207 8.638.96 7.209.57 9.092.464 7.548.217 7.718.078 7.953-.055 10.183-.232 11.307-.379 21.128-.826 11.883-.51 9.955-.435 12.623-.556 10.442-.45 13.25-.55 10.996-.436 14.712-.565 14.2-.534 14.505-.54 11.098-.41 15.022-.523 12.426-.37 15.548-.352 16.816-.201 13.036-.014 17.299.166 18.56.366 13.576.37 16.92.577 17.121.746 18.414 1.035 18.63 1.302 18.834 1.572 19.023 1.86 14.66 1.61 18.152 2.166 19.277 2.465 18.983 2.596 15.445 2.213 18.505 2.611 14.024 1.847 18.114 2.262 13.683 1.726 17.675 2.315 13.36 1.79 17.243 2.33 13.047 1.785 16.841 2.348 13.729 1.944 16.455 2.34 12.423 1.755 15.165 2.107 12.182 1.67 14.691 2.013 12.553 1.73 14.732 2.054 10.046 1.412 14.531 2.037 10.116 1.4 13.453 1.846 8.6 1.184 11.682 1.627 9.203 1.295 6.371.897 14.691 2.04 9.9 1.336 9.434 1.246 11.572 1.516 5.13.668 12.078 1.624 7.869 1.124 8.205 1.198 7.113 1.05 7.456 1.107 6.42.949 7.182 1.063 6.06.91 6.932 1.062 4.866.759 5.4.856 11.888 2.063 3.85.815 3.827.94 3.676 1.029 3.394 1.066 3.517 1.263 2.621 1.071 3.171 1.455 2.583 1.316 2.981 1.67 3.342 2.106 3.084 2.218 3.132 2.612 2.477 2.348 2.934 3.05 2.581 2.832 2.291 2.535 3.138 3.393 2.723 2.839 2.66 2.636 3.698 3.38 3.747 3.045 2.97 2.171 4.44 2.859 3.52 1.959 4.422 2.09 3.913 1.554 4.533 1.555 4.577 1.363 4.657 1.222 4.776 1.095 4.934.953 4.468.718 5.344.727 4.915.586 6.276.666 4.649.456 6.913.678 5.953.625 7.544.841 5.998.686 8.116.926 6.415.706 7.09.745 12.055 1.184 7.563.706 8.846.814 7.33.675 9.175.862 7.577.736L968.76 6.76l7.845.818 11.059 1.188 9.99 1.085 6.332.685 6.375.684 6.447.687 18.82 1.983 11.134 1.18 9.231.99 10.598 1.15 9.322 1.022 10.687 1.182 8.736.976 11.415 1.287 9.35 1.068 11.17 1.29 9.035 1.057 9.525 1.145 8.714 1.103 9.193 1.261 8.403 1.285 9.984 1.737 8.034 1.577" stroke-width="12" stroke="#f7d347" fill="none"/>
</svg>
