<svg class="track" xmlns="http://www.w3.org/2000/svg" preserveAspectRatio="xMinYMid meet" height="300" width="600" viewBox="-1200 -600 1 1200">
  <path d="m653.264 564.69-12.816.024-12.906-.005-12.99-.022-13.877-.037-13.145-.048-14.046-.067-14.134-.063-11.696-.03-13.451.004-11.78.03-13.55.037-14.48.025-13.696.009-13.765.001-25.109.009-26.188-.007-25.522-.102-26.6-.16-14.268-.068-16.121-.07-11.685-.056-15.337-.094-11.765-.087-14.529-.127-26.465-.226-27.549-.053-26.789.104-27.872.164-27.08.18-15.015.083-15.971.014-13.192-.048-15.115-.094-13.248-.09-16.133-.107-13.305-.082-15.24-.088-13.366-.073-15.262-.077-12.259-.05-14.75-.02-15.16.042-13.743.057-14.06.02-14.29.006-9.943.052-12.428.155-9.048.15-10.566.171-6.294.095-10.255.132-13.15.124-7.572.05-6.707.037-7.817.05-6.902.063-7.377.092-4.92.077-6.435.11-4.821.084-5.47.079-4.045.048-5.164.044-3.825.008-4.762-.038-3.376-.078-3.79-.155-2.789-.165-2.906-.22-3.082-.303-2.49-.326-2.3-.384-1.887-.391-2.07-.517-2.036-.603-2.134-.759-1.594-.677-1.906-.963-1.607-.963-1.775-1.24-1.39-1.127-1.705-1.636-1.178-1.361-1.418-2.012-.888-1.541-1.037-2.143-1.05-2.564-.914-2.559-1-2.978-1.077-3.011-1.334-3.09-1.551-2.719-1.752-2.276-1.92-1.908-2.13-1.66-2.148-1.312-2.281-1.072-2.585-.886-2.79-.64-2.809-.374-3.202-.15-3.221.096-6.768.755-3.969.723-3.886.91-4.02 1.137-4.452 1.424-4.685 1.57-4.934 1.686-4.868 1.706-5.392 1.944-5.954 2.211-4.477 1.702-5.7 2.168-5.928 2.185-6.162 2.158-5.18 1.726-6.587 2.08-5.93 1.767-7.43 2.076-7.653 1.982-7.864 1.876-8.066 1.756-8.258 1.615-8.472 1.439-15.932 2.077-7.39.706-4.805.384-9.204.587-7.143.339-9.46.336-7.335.21-9.71.25-8.094.18-9.949.182-7.693.095-9.568.04-8.456-.039-9.753-.122-8.601-.186-10.481-.368-8.005-.424-9.842-.737-8.57-.86-10.94-1.415-10.249-1.634-9.559-1.824-9.467-2.118-25.042-7.186-15.543-5.693-9.126-3.827-5.677-2.564-9.034-4.367-9.518-5.005-7.762-4.418-9.313-5.714-7.029-4.63-8.526-5.991-7.34-5.507-8.74-7.017-6.549-5.596-9.356-8.523-8.15-7.974-7.466-7.787-7.702-8.554-7.44-8.817-7.167-9.046-6.896-9.264-6.25-8.908-6.384-9.663-5.76-9.278-6.485-11.26-5.127-9.692-5.105-10.49-4.743-10.686-4.134-10.214-3.128-8.41-3.77-11.136-3.448-11.26-3.04-10.69-3.07-11.434-2.94-11.495-2.967-12.245-2.191-9.573-2.058-9.62-2.16-11.06-2.831-15.992-1.508-9.089-1.862-11.91-1.367-9.142-1.681-11.272-1.716-11.288-1.926-12.61-1.35-8.974-1.612-10.885-1.646-11.383-2.78-20.18-2.377-18.424-2.074-16.387-1.075-8.521-1.135-8.826-1.062-8.135-1.114-8.436-1.085-8.254-1.049-8.071-1.019-7.894-.99-7.718-.732-5.723-.815-6.416-.879-7.025-.832-6.783-.743-6.165-1.345-11.01-1.518-12.356-.567-4.602-.64-5.154-.55-4.422-.66-5.259-.623-4.794-.675-4.826-.712-4.518-.725-3.98-.633-3.048-.893-3.74-.737-2.676-.975-3.081-.854-2.331-1.142-2.692-1.324-2.677-2.617-4.3-1.567-2.145-1.726-2.099-3.768-3.86-2.44-2.101-2.648-1.978-2.845-1.822-2.785-1.524-3.225-1.58-2.887-1.427-3.09-1.66-2.916-1.76-3.06-2.109-4.82-4.056-4.894-5.042-4.39-5.264-2.497-3.501-2.146-3.524-2.013-3.975-1.668-3.949-1.267-3.358-1.737-4.84-1.291-3.639-1.773-4.985-1.307-3.677-1.807-5.102-1.76-5.001-2.107-5.936-2.225-6.17-1.366-3.742-2.528-6.962-2.456-6.848-2.412-6.653-2.56-6.793-3.984-9.981-2.611-6.172-3.336-7.511-2.65-5.732-3.312-7.03-3.301-7.037-3.236-7.06-2.383-5.315-3.347-7.536-2.564-5.759-3.16-7.068-2.763-6.165-3.313-7.433-2.486-5.602-3.358-7.535-2.365-5.262-2.842-6.28-2.416-5.322-2.662-5.906-2.235-5.017-2.452-5.57-1.91-4.401-2.37-5.597-1.955-4.805-1.921-5.002-1.945-5.482-1.636-5.044-1.206-4.06-1.127-4.198-1.055-4.552-.804-4.37-.568-4.264-.353-4.059-.184-4.402.005-3.427.142-3.472.405-4.596.98-6.263 1.06-4.615 1.237-4.335 1.564-4.581 1.71-4.277 1.435-3.172 2.25-4.432 1.897-3.331 2.712-4.263 2.061-2.945 3.136-4.054 2.57-2.992 3.592-3.762 3.908-3.667 4.01-3.39 4.321-3.287 8.929-5.738 10.03-5.085 10.564-4.162 11.22-3.277 6.36-1.45 6.436-1.269 6.89-1.238 6.935-1.185 6.963-1.147 6.587-1.033 7.038-1.017 9.599-1.282 6.758-.927 6.015-.874 7.442-1.154 7.622-1.258 7.337-1.254 7.96-1.394 7.633-1.382 8.253-1.545 8.435-1.613 11.153-2.162 7.228-1.4 7.81-1.486 6.748-1.256 8.188-1.467 8.533-1.413 7.88-1.142 5.82-.679 8.582-.59 6.07-.015 7.714.618 6.952 1.29 6.972 2.135 5.054 2.04 6.222 2.976 4.484 2.44 5.167 3.202 3.913 2.74 4.726 3.75 3.328 2.999 4.06 4.136 2.994 3.376 3.636 4.4 3.845 4.913 3.62 4.796 3.149 4.324 3.825 5.413 2.914 4.268 3.772 5.788 2.87 4.602 3.598 5.898 3.743 6.113 4.176 6.728 3.882 6.209 8.319 13.234 9.137 14.23 9.931 15.05 10.352 15.482 10.876 16.321 9.575 14.499 6.108 9.233 5.452 8.196 10.998 16.599 11.164 16.856 10.788 15.804 6.754 9.578 6.484 8.99 7.004 9.54 6.69 8.967 5.51 7.277 6.875 8.93 6.096 7.79 7.056 8.866 5.808 7.172 7.246 8.78 7.819 9.248 7.94 9.17 6.634 7.481 8.186 8.997 6.35 6.81 8.415 8.827 7.005 7.221 8.567 8.738 8.619 8.723 7.646 7.688 7.171 7.165 8.764 8.691 6.75 6.64 8.866 8.661 6.293 6.115 8.422 8.151 8.972 8.673 9 8.695 7.43 7.165 8.518 8.199 6.94 6.67 9.633 9.246 6.959 6.698 8.55 8.285 6.94 6.759 8.54 8.34 9.604 9.402 8.002 7.851 12.8 12.572 5.325 5.219 8.48 8.275 6.844 6.647 8.878 8.586 6.744 6.502 8.191 7.873 6.579 6.304 8.489 8.11 8.855 8.428 7.756 7.365 8.106 7.714 8.886 8.507 6.38 6.146 7.522 7.28 7.296 7.072 11.984 11.665 11.505 11.328 11.108 10.955 5.977 5.869 6.241 6.105 6.15 5.962 6.016 5.78 4.817 4.62 5.255 5.046 5.092 4.866 3.524 3.323 3.948 3.637 3.798 3.38 2.781 2.394 3.538 2.922 2.845 2.217 3.194 2.328 7.018 4.511 3.32 1.845 3.398 1.692 3.11 1.38 2.798 1.112 3.817 1.332 3.05.92 3.906 1.002 3.3.707 4.216.736 6.34.772 4.59.32 2.052.078 4.78.037 4.894-.159 4.998-.324 4.434-.362 5.424-.48 4.167-.342 5.157-.32 4.533-.145 5.847.029 3.902.163 5.203.422 4.216.538 5.48.966 5.116 1.198 8.828 2.693 5.293 1.925 4.014 1.593 5.483 2.4 4.759 2.355 4.962 2.754 3.782 2.307 4.957 3.264 5.055 3.542 5.16 3.755 5.288 3.864 9.194 6.195 9.375 5.284 10.246 4.771 10.272 4.095 10.365 3.456 11.316 2.97 11.163 2.15 7.04.967 6.369.626 13.117.703 14.158-.009 14.068-.323 15.18.014 17.837.354 19.03.522 19.113.29 11.507.016 9.656-.024 12.246-.047 10.24-.051 12.944-.06 13.294-.023 12.726.03 11.247.065 15.015.107 11.708.086 14.682.143 12.152.152 16.153.19 12.563.103 16.698.093 15.98.086 16.225.089 13.38.05 17.69.048 13.688.056 18.083.114 15.054.103 18.483.105 18.702.074 17.773.058 19.101.098 18.15.143 18.325.158 15.018.12 18.633.134 27.064.169 18.907.102 18.621.086 32.464.1 16.105.02 16.557.002 16.864.008 15.205.042 15.464.085 13.917.089 10.846.046 13.725.026 10.34.034 13.365.108 10.019.121 12.61.176 8.519.124 11.316.166 9.952.15 9.78.172 6.861.163 7.645.27 7.958.455 7.322.6 5.07.55 13.593 2.331 7.034 1.875 5.921 2.042 5.564 2.34 4.922 2.43 3.795 2.114 4.186 2.588 3.469 2.366 4.303 3.278 3.825 3.297 3.876 3.746 3.07 3.272 3.569 4.203 2.61 3.384 3.068 4.37 2.886 4.592 2.81 5.114 1.94 4.07 1.995 4.868 1.61 4.69 1.516 5.523 1.028 4.952.805 5.426.523 5.552.258 6.429-.052 5-.424 6.628-.608 5.115-1.099 6.343-1.178 5.187-1.917 6.812-1.746 5.22-2.483 6.423-2.299 5.195-2.562 5.144-3.497 6.166-4.118 6.285-3.427 4.624-4.806 5.842-3.591 4.007-5.34 5.534-4.268 4.13-6.16 5.562-4.627 3.896-5.91 4.627-4.973 3.606-5.924 3.983-6.925 4.285-6.704 3.827-7.315 3.83-7.51 3.566-7.237 3.11-7.426 2.885-6.208 2.195-8.347 2.7-6.052 1.804-8.267 2.28-8.485 2.12-8.696 1.957-7.216 1.461-9.631 1.723-7.515 1.162-9.422 1.244-7.79.875-9.77.957-10.607.916-10.197.812-11.05.866-11.257.885-10.783.85-11.647.864-11.15.707-8.48.466-12.183.592-9.442.412-12.519.505-9.685.37-12.834.434-9.153.257-13.89.349-10.142.25-13.395.322-10.344.225-12.875.244-10.494.17-17.168.186-5.767.035-7.45.025z" stroke-width="28" stroke="#000" fill="none"/>
  <path d="m653.264 564.69-12.816.024-12.906-.005-12.99-.022-13.877-.037-13.145-.048-14.046-.067-14.134-.063-11.696-.03-13.451.004-11.78.03-13.55.037-14.48.025-13.696.009-13.765.001-25.109.009-26.188-.007-25.522-.102-26.6-.16-14.268-.068-16.121-.07-11.685-.056-15.337-.094-11.765-.087-14.529-.127-26.465-.226-27.549-.053-26.789.104-27.872.164-27.08.18-15.015.083-15.971.014-13.192-.048-15.115-.094-13.248-.09-16.133-.107-13.305-.082-15.24-.088-13.366-.073-15.262-.077-12.259-.05-14.75-.02-15.16.042-13.743.057-14.06.02-14.29.006-9.943.052-12.428.155-9.048.15-10.566.171-6.294.095-10.255.132-13.15.124-7.572.05-6.707.037-7.817.05-6.902.063-7.377.092-4.92.077-6.435.11-4.821.084-5.47.079-4.045.048-5.164.044-3.825.008-4.762-.038-3.376-.078-3.79-.155-2.789-.165-2.906-.22-3.082-.303-2.49-.326-2.3-.384-1.887-.391-2.07-.517-2.036-.603-2.134-.759-1.594-.677-1.906-.963-1.607-.963-1.775-1.24-1.39-1.127-1.705-1.636-1.178-1.361-1.418-2.012-.888-1.541-1.037-2.143-1.05-2.564-.914-2.559-1-2.978-1.077-3.011-1.334-3.09-1.551-2.719-1.752-2.276-1.92-1.908-2.13-1.66-2.148-1.312-2.281-1.072-2.585-.886-2.79-.64-2.809-.374-3.202-.15-3.221.096-6.768.755-3.969.723-3.886.91-4.02 1.137-4.452 1.424-4.685 1.57-4.934 1.686-4.868 1.706-5.392 1.944-5.954 2.211-4.477 1.702-5.7 2.168-5.928 2.185-6.162 2.158-5.18 1.726-6.587 2.08-5.93 1.767-7.43 2.076-7.653 1.982-7.864 1.876-8.066 1.756-8.258 1.615-8.472 1.439-15.932 2.077-7.39.706-4.805.384-9.204.587-7.143.339-9.46.336-7.335.21-9.71.25-8.094.18-9.949.182-7.693.095-9.568.04-8.456-.039-9.753-.122-8.601-.186-10.481-.368-8.005-.424-9.842-.737-8.57-.86-10.94-1.415-10.249-1.634-9.559-1.824-9.467-2.118-25.042-7.186-15.543-5.693-9.126-3.827-5.677-2.564-9.034-4.367-9.518-5.005-7.762-4.418-9.313-5.714-7.029-4.63-8.526-5.991-7.34-5.507-8.74-7.017-6.549-5.596-9.356-8.523-8.15-7.974-7.466-7.787-7.702-8.554-7.44-8.817-7.167-9.046-6.896-9.264-6.25-8.908-6.384-9.663-5.76-9.278-6.485-11.26-5.127-9.692-5.105-10.49-4.743-10.686-4.134-10.214-3.128-8.41-3.77-11.136-3.448-11.26-3.04-10.69-3.07-11.434-2.94-11.495-2.967-12.245-2.191-9.573-2.058-9.62-2.16-11.06-2.831-15.992-1.508-9.089-1.862-11.91-1.367-9.142-1.681-11.272-1.716-11.288-1.926-12.61-1.35-8.974-1.612-10.885-1.646-11.383" stroke-width="12" stroke="#e73323" fill="none"/>
  <path d="m-929.81 122.846-1.265-9.141-1.358-10.197-1.117-8.662-1.281-10.043-.932-7.364-1.096-8.712-1.069-8.421-1.065-8.232-1.126-8.558-1.104-8.366-1.008-7.704-1.038-8.008-1.067-8.294-.75-5.844-.891-6.977-.852-6.748-.86-6.928-.764-6.297-.782-6.46-.585-4.786-.747-6.063-.552-4.494-.944-7.703-.564-4.556-.635-5.108-.548-4.387-.659-5.191-.625-4.701-.687-4.698-.69-4.145-.65-3.413-.802-3.665-.7-2.8-.988-3.42-.75-2.255-1.079-2.81-1.257-2.787-1.37-2.6-1.214-2.008-1.397-2.057-1.621-2.122-1.795-2.09-1.736-1.804-2.317-2.153-2.525-2.053-2.738-1.922-2.725-1.64-2.997-1.553-3.059-1.485-3.075-1.562-3.098-1.744-2.906-1.852-2.852-2.08-2.246-1.868-2.511-2.34-2.29-2.338-2.566-2.824-2.046-2.428-2.435-3.168-2.28-3.385-2.177-3.838-1.903-4.066-1.602-4.04-1.254-3.422-1.653-4.647-1.315-3.706-1.807-5.077-1.328-3.743-1.832-5.184-1.92-5.444-2.153-6.034-1.868-5.148-1.379-3.776-2.4-6.63-2.47-6.89-2.436-6.68-2.76-7.255-1.54-3.893-3.067-7.447-2.675-6.186-3.4-7.505-2.68-5.721-3.315-7.028-3.074-6.606-3.208-7.07-2.569-5.763-3.347-7.536-2.566-5.75-3.159-7.06-2.558-5.711-3.29-7.4-2.65-5.968-3.138-7.017-2.521-5.589-2.805-6.186-2.38-5.249-2.61-5.825-2.04-4.601-2.41-5.505-2.014-4.682-2.175-5.209-2.016-5.07-1.842-4.949-1.858-5.424-2.62-8.714-1.118-4.394-.953-4.475-.701-4.308-.46-4.02-.302-4.345-.097-4.177.04-2.648.236-4.29.388-3.796.39-2.725.717-3.81 1.273-5.156 1.411-4.597 1.672-4.568 1.337-3.197 1.854-3.948 1.907-3.633 2.559-4.326 2.131-3.236 2.817-3.89 2.65-3.297 3.242-3.63 3.485-3.495 4.285-3.857 3.88-3.146 4.72-3.433 3.832-2.493 5.363-3.1 4.328-2.22 5.573-2.546 5.082-2.032 6.018-2.074 5.027-1.481 5.91-1.493 6.391-1.372 6.861-1.296 6.91-1.211 6.948-1.17 6.976-1.13 6.603-1.003 6.642-.927 4.17-.554 5.454-.729 7.231-1.014 6.065-.909 7.513-1.198 7.237-1.214 7.861-1.356 7.552-1.338 8.17-1.501 6.838-1.291 7.974-1.531 4.543-.88 8.705-1.69 6.747-1.297 8.328-1.57 6.71-1.23 8.12-1.414 7.972-1.265 7.826-1.05 6.26-.616 8.039-.347 6.466.203 7.586.932 6.79 1.603 11.346 4.407 10.444 5.575 9.099 6.286 7.758 6.894 6.719 7.463 3.624 4.489 3.848 4.986 3.162 4.237 3.822 5.31 2.926 4.178 3.798 5.647 2.875 4.484 3.766 6.1 3.655 5.999 3.82 6.203 4.014 6.44 4.225 6.748 3.868 6.163 4.635 7.32 3.94 6.147 5.391 8.292 4.631 7.021 5.444 8.168 4.485 6.703 5.914 8.85 4.91 7.36 5.643 8.503 4.252 6.44 5.71 8.654 5.777 8.712 5.837 8.77 4.764 7.185 5.884 8.92 5.197 7.866 6.415 9.589 4.618 6.776 6.275 9.023 6.815 9.567 6.533 8.984 6.631 8.977 7.148 9.519 5.548 7.27 6.922 8.922 6.131 7.774 7.098 8.845 5.844 7.155 6.836 8.206 8.328 9.758 7.99 9.132 6.681 7.449 8.24 8.953 6.394 6.781 8.46 8.797 7.031 7.209 8.59 8.731 8.129 8.205 15.364 15.357 15.555 15.316 14.67 14.265 8.433 8.157 9.51 9.191 6.888 6.65 9.033 8.707 6.923 6.661 9.084 8.725 7.496 7.196 9.097 8.775 6.947 6.746 8.005 7.806 7.468 7.3 9.07 8.884 8.536 8.378 5.337 5.243 13.841 13.566 8.46 8.238 6.823 6.616 8.853 8.55 7.221 6.952 8.145 7.817 6.537 6.256 6.96 6.641" stroke-width="12" stroke="#4fafdf" fill="none"/>
  <path d="m-267.325 79.063 7.756 7.365 8.106 7.714 8.886 8.507 6.38 6.146 7.522 7.28 7.296 7.072 11.984 11.665 11.505 11.328 11.108 10.955 5.977 5.869 6.241 6.105 6.15 5.962 6.016 5.78 4.817 4.62 5.255 5.046 5.092 4.866 3.524 3.323 3.948 3.637 3.798 3.38 2.781 2.394 3.538 2.922 2.845 2.217 3.194 2.328 7.018 4.511 3.32 1.845 3.398 1.692 3.11 1.38 2.798 1.112 3.817 1.332 3.05.92 3.906 1.002 3.3.707 4.216.736 6.34.772 4.59.32 2.052.078 4.78.037 4.894-.159 4.998-.324 4.434-.362 5.424-.48 4.167-.342 5.157-.32 4.533-.145 5.847.029 3.902.163 5.203.422 4.216.538 5.48.966 5.116 1.198 8.828 2.693 5.293 1.925 4.014 1.593 5.483 2.4 4.759 2.355 4.962 2.754 3.782 2.307 4.957 3.264 5.055 3.542 5.16 3.755 5.288 3.864 9.194 6.195 9.375 5.284 10.246 4.771 10.272 4.095 10.365 3.456 11.316 2.97 11.163 2.15 7.04.967 6.369.626 13.117.703 14.158-.009 14.068-.323 15.18.014 17.837.354 19.03.522 19.113.29 11.507.016 9.656-.024 12.246-.047 10.24-.051 12.944-.06 13.294-.023 12.726.03 11.247.065 15.015.107 11.708.086 14.682.143 12.152.152 16.153.19 12.563.103 16.698.093 15.98.086 16.225.089 13.38.05 17.69.048 13.688.056 18.083.114 15.054.103 18.483.105 18.702.074 17.773.058 19.101.098 18.15.143 18.325.158 15.018.12 18.633.134 27.064.169 18.907.102 18.621.086 32.464.1 16.105.02 16.557.002 16.864.008 15.205.042 15.464.085 13.917.089 10.846.046 13.725.026 10.34.034 13.365.108 10.019.121 12.61.176 8.519.124 11.316.166 9.952.15 9.78.172 6.861.163 7.645.27 7.958.455 7.322.6 5.07.55 13.593 2.331 7.034 1.875 5.921 2.042 5.564 2.34 4.922 2.43 3.795 2.114 4.186 2.588 3.469 2.366 4.303 3.278 3.825 3.297 3.876 3.746 3.07 3.272 3.569 4.203 2.61 3.384 3.068 4.37 2.886 4.592 2.81 5.114 1.94 4.07 1.995 4.868 1.61 4.69 1.516 5.523 1.028 4.952.805 5.426.523 5.552.258 6.429-.052 5-.424 6.628-.608 5.115-1.099 6.343-1.178 5.187-1.917 6.812-1.746 5.22-2.483 6.423-2.299 5.195-2.562 5.144-3.497 6.166-4.118 6.285-3.427 4.624-4.806 5.842-3.591 4.007-5.34 5.534-4.268 4.13-6.16 5.562-4.627 3.896-5.91 4.627-4.973 3.606-5.924 3.983-6.925 4.285-6.704 3.827-7.315 3.83-7.51 3.566-7.237 3.11-7.426 2.885-6.208 2.195-8.347 2.7-6.052 1.804-8.267 2.28-8.485 2.12-8.696 1.957-7.216 1.461-9.631 1.723-7.515 1.162-9.422 1.244-7.79.875-9.77.957-10.607.916-10.197.812-11.05.866-11.257.885-10.783.85-11.647.864-11.15.707-8.48.466-12.183.592-9.442.412-12.519.505-9.685.37-12.834.434-9.153.257-13.89.349-10.142.25-13.395.322-10.344.225-12.875.244-10.494.17-17.168.186-5.767.035-7.45.025" stroke-width="12" stroke="#f7d347" fill="none"/>
</svg>
