<?xml version="1.0" standalone="no"?>
<svg xmlns:xlink="http://www.w3.org/1999/xlink" id="s2" class="track" xmlns="http://www.w3.org/2000/svg" preserveAspectRatio="xMinYMid meet" height="800px" width="600px" viewBox="-1200 -700 3000 3000">
            <path d="M 653.264 564.6894 L 640.4478 564.714 L 627.5417 564.7089 L 614.5524 564.687 L 600.6753 564.6496 L 587.5304 564.6016 L 573.4837 564.5345 L 559.3501 564.4715 L 547.6537 564.442 L 534.2029 564.4463 L 522.4239 564.4759 L 508.8731 564.5126 L 494.3934 564.5376 L 480.6968 564.5468 L 466.9316 564.5483 L 441.8232 564.557 L 415.6347 564.5502 L 390.1134 564.4482 L 363.5123 564.2884 L 349.2445 564.2201 L 333.1238 564.1493 L 321.4388 564.094 L 306.1023 564.0003 L 294.3373 563.9129 L 279.8083 563.7859 L 253.3427 563.5595 L 225.794 563.5066 L 199.0054 563.6113 L 171.1334 563.7746 L 144.0525 563.9549 L 129.0381 564.0385 L 113.067 564.0524 L 99.8747 564.0044 L 84.7596 563.9104 L 71.512 563.8196 L 55.3794 563.7135 L 42.0736 563.6307 L 26.8339 563.5425 L 13.4684 563.4698 L -1.7936 563.3935 L -14.053 563.3427 L -28.8034 563.3236 L -43.9623 563.3652 L -57.7064 563.4221 L -71.7655 563.4414 L -86.0555 563.4484 L -95.9989 563.5001 L -108.4271 563.6547 L -117.475 563.8047 L -128.0414 563.9761 L -134.3352 564.0705 L -144.5897 564.2031 L -157.7401 564.327 L -165.3124 564.3772 L -172.0189 564.4144 L -179.8358 564.4641 L -186.7384 564.5267 L -194.1151 564.6186 L -199.0355 564.6958 L -205.4696 564.8065 L -210.2912 564.8903 L -215.7606 564.9689 L -219.8056 565.0169 L -224.9699 565.061 L -228.795 565.0694 L -233.5565 565.0306 L -236.9327 564.9532 L -240.7236 564.7975 L -243.5119 564.633 L -246.4176 564.4125 L -249.5005 564.1098 L -251.9909 563.7845 L -254.2905 563.4005 L -256.1768 563.0085 L -258.2479 562.4924 L -260.2833 561.8893 L -262.4171 561.1301 L -264.0108 560.4531 L -265.9166 559.4898 L -267.5238 558.5273 L -269.2989 557.2861 L -270.6887 556.1605 L -272.3936 554.5235 L -273.5719 553.1627 L -274.9903 551.151 L -275.8782 549.6095 L -276.9153 547.4668 L -277.9654 544.903 L -278.8789 542.3442 L -279.8785 539.3656 L -280.9564 536.3545 L -282.2898 533.2653 L -283.8415 530.5461 L -285.5931 528.2697 L -287.5137 526.3616 L -289.6432 524.7015 L -291.7906 523.3898 L -294.0722 522.3175 L -296.6568 521.4317 L -299.4466 520.7917 L -302.2559 520.4185 L -305.4576 520.2679 L -308.6794 520.3643 L -315.4465 521.1188 L -319.4157 521.8419 L -323.3016 522.7517 L -327.3227 523.8889 L -331.7737 525.3129 L -336.4586 526.8831 L -341.393 528.5687 L -346.2613 530.2753 L -351.6532 532.2187 L -357.6066 534.43 L -362.0838 536.1316 L -367.7834 538.2995 L -373.712 540.4849 L -379.874 542.6434 L -385.0538 544.3688 L -391.6405 546.4488 L -397.5718 548.216 L -405.0002 550.2921 L -412.6544 552.2739 L -420.5184 554.1497 L -428.5843 555.9056 L -436.8416 557.5207 L -445.3141 558.9596 L -461.2458 561.0371 L -468.6353 561.7428 L -473.4414 562.1267 L -482.6448 562.7139 L -489.7876 563.053 L -499.248 563.3887 L -506.583 563.5996 L -516.2928 563.8481 L -524.3874 564.0297 L -534.336 564.2107 L -542.0289 564.3063 L -551.5967 564.3465 L -560.0526 564.307 L -569.8063 564.1849 L -578.4072 563.9994 L -588.8884 563.6315 L -596.8925 563.2067 L -606.7347 562.4701 L -615.3058 561.6096 L -626.2447 560.1947 L -636.494 558.5612 L -646.053 556.7373 L -655.5204 554.6194 L -680.5617 547.4329 L -696.1049 541.7401 L -705.2308 537.9126 L -710.9076 535.3494 L -719.9419 530.9824 L -729.4599 525.9768 L -737.2224 521.5593 L -746.5346 515.8446 L -753.5639 511.2144 L -762.0904 505.2238 L -769.4298 499.7169 L -778.1692 492.7001 L -784.7186 487.1041 L -794.0746 478.5807 L -802.2244 470.6069 L -809.691 462.8202 L -817.3925 454.2658 L -824.8338 445.4492 L -832 436.4035 L -838.8957 427.1392 L -845.1454 418.2311 L -851.5299 408.5675 L -857.2909 399.2901 L -863.775 388.0292 L -868.9021 378.3384 L -874.0069 367.8481 L -878.75 357.1624 L -882.8837 346.9477 L -886.0121 338.5383 L -889.7826 327.4017 L -893.2297 316.1429 L -896.2699 305.4516 L -899.3403 294.0181 L -902.28 282.5231 L -905.2473 270.2785 L -907.4381 260.7047 L -909.4955 251.0841 L -911.6559 240.0247 L -914.4872 224.0335 L -915.9945 214.9444 L -917.8568 203.0343 L -919.2238 193.8917 L -920.905 182.6201 L -922.6212 171.3321 L -924.5465 158.7211 L -925.8971 149.7485 L -927.5087 138.8632 L -929.1552 127.4796 L -931.9342 107.2991 L -934.3122 88.8761 L -936.3857 72.4886 L -937.4606 63.9679 L -938.5955 55.1416 L -939.6575 47.0074 L -940.7724 38.5711 L -941.8566 30.3169 L -942.9056 22.2457 L -943.9249 14.3519 L -944.9157 6.6342 L -945.6467 .9107 L -946.4619 -5.5052 L -947.3409 -12.5304 L -948.1725 -19.3131 L -948.9157 -25.4777 L -950.2614 -36.4885 L -951.7788 -48.8439 L -952.3461 -53.4456 L -952.9853 -58.6004 L -953.5368 -63.0223 L -954.1969 -68.2807 L -954.8195 -73.0752 L -955.4937 -77.9014 L -956.2062 -82.4187 L -956.931 -86.3999 L -957.5645 -89.4472 L -958.457 -93.1872 L -959.1937 -95.8632 L -960.1689 -98.9441 L -961.0233 -101.2752 L -962.1653 -103.9675 L -963.4892 -106.6445 L -966.1058 -110.9438 L -967.6734 -113.089 L -969.3985 -115.188 L -973.1672 -119.0474 L -975.6075 -121.1492 L -978.2553 -123.1274 L -981.1001 -124.9494 L -983.8853 -126.4726 L -987.1095 -128.0527 L -989.9968 -129.48 L -993.0879 -131.1406 L -996.0025 -132.8998 L -999.0627 -135.0089 L -1003.883 -139.0655 L -1008.7775 -144.1074 L -1013.1662 -149.3715 L -1015.6638 -152.8722 L -1017.8101 -156.3964 L -1019.8234 -160.3708 L -1021.4915 -164.3199 L -1022.7579 -167.678 L -1024.4947 -172.5171 L -1025.7864 -176.157 L -1027.5591 -181.142 L -1028.8655 -184.8189 L -1030.673 -189.9206 L -1032.4337 -194.922 L -1034.5401 -200.8577 L -1036.7647 -207.0287 L -1038.1312 -210.7702 L -1040.6586 -217.732 L -1043.115 -224.5804 L -1045.527 -231.2326 L -1048.0863 -238.0265 L -1052.0714 -248.0075 L -1054.6823 -254.1789 L -1058.018 -261.6904 L -1060.6674 -267.4222 L -1063.9802 -274.4518 L -1067.2812 -281.4888 L -1070.5172 -288.5481 L -1072.8997 -293.8636 L -1076.247 -301.4003 L -1078.8115 -307.1588 L -1081.9708 -314.2268 L -1084.7335 -320.3918 L -1088.0467 -327.8253 L -1090.5328 -333.4272 L -1093.8909 -340.9616 L -1096.2557 -346.2239 L -1099.0978 -352.5033 L -1101.5143 -357.8264 L -1104.1758 -363.732 L -1106.4109 -368.7495 L -1108.8629 -374.3194 L -1110.7739 -378.7204 L -1113.1438 -384.317 L -1115.0976 -389.1225 L -1117.0192 -394.1236 L -1118.9638 -399.6062 L -1120.6003 -404.65 L -1121.8062 -408.7103 L -1122.9334 -412.908 L -1123.9884 -417.4601 L -1124.7924 -421.8304 L -1125.3598 -426.0936 L -1125.7129 -430.1527 L -1125.8974 -434.555 L -1125.8919 -437.9824 L -1125.7496 -441.4541 L -1125.3449 -446.0504 L -1124.3655 -452.3134 L -1123.3045 -456.9279 L -1122.0675 -461.2634 L -1120.5038 -465.8442 L -1118.7938 -470.121 L -1117.3591 -473.2928 L -1115.1091 -477.7251 L -1113.2124 -481.0561 L -1110.5002 -485.3193 L -1108.4387 -488.2639 L -1105.3026 -492.3179 L -1102.7323 -495.3097 L -1099.1412 -499.0721 L -1095.2328 -502.7386 L -1091.2221 -506.1283 L -1086.9018 -509.4161 L -1077.9733 -515.1537 L -1067.9422 -520.2387 L -1057.3789 -524.4006 L -1046.1594 -527.6775 L -1039.799 -529.1282 L -1033.3633 -530.3966 L -1026.4729 -531.6346 L -1019.5382 -532.8198 L -1012.575 -533.9672 L -1005.9883 -534.9995 L -998.9504 -536.0172 L -989.3513 -537.2995 L -982.5927 -538.2257 L -976.5778 -539.0995 L -969.1362 -540.2545 L -961.5144 -541.5116 L -954.1769 -542.7662 L -946.2174 -544.1597 L -938.5844 -545.5421 L -930.3305 -547.087 L -921.8961 -548.7003 L -910.7429 -550.8624 L -903.5147 -552.2624 L -895.7046 -553.7481 L -888.9575 -555.0037 L -880.7688 -556.4709 L -872.2359 -557.8841 L -864.3554 -559.0261 L -858.5361 -559.7048 L -849.9539 -560.2955 L -843.8838 -560.3099 L -836.1702 -559.6922 L -829.2175 -558.4016 L -822.2458 -556.2675 L -817.1919 -554.2279 L -810.9702 -551.2512 L -806.4865 -548.8112 L -801.3192 -545.6085 L -797.4063 -542.8683 L -792.6803 -539.1186 L -789.3524 -536.1203 L -785.2917 -531.9836 L -782.2979 -528.6078 L -778.6624 -524.2084 L -774.8169 -519.2946 L -771.1977 -514.4989 L -768.0484 -510.1751 L -764.2234 -504.7619 L -761.3086 -500.4944 L -757.5371 -494.7063 L -754.6673 -490.1039 L -751.0694 -484.2063 L -747.326 -478.093 L -743.1501 -471.3645 L -739.2677 -465.1565 L -730.9491 -451.9221 L -721.8121 -437.6919 L -711.8808 -422.6425 L -701.5288 -407.1597 L -690.6531 -390.8387 L -681.0776 -376.3404 L -674.9699 -367.1074 L -669.518 -358.911 L -658.5204 -342.3125 L -647.3559 -325.4558 L -636.5682 -309.6525 L -629.814 -300.0737 L -623.3302 -291.0846 L -616.3258 -281.544 L -609.6362 -272.5773 L -604.1253 -265.2997 L -597.2515 -256.3697 L -591.155 -248.5793 L -584.0987 -239.7144 L -578.2914 -232.5416 L -571.0449 -223.7617 L -563.226 -214.5139 L -555.2853 -205.3444 L -548.6515 -197.8628 L -540.4665 -188.8658 L -534.1169 -182.0566 L -525.7006 -173.2291 L -518.6956 -166.0079 L -510.1294 -157.27 L -501.5101 -148.5469 L -493.8644 -140.8587 L -486.6929 -133.6936 L -477.9287 -125.0025 L -471.1789 -118.3627 L -462.3131 -109.7019 L -456.02 -103.5868 L -447.598 -95.4356 L -438.6263 -86.7632 L -429.6252 -78.0681 L -422.1956 -70.9031 L -413.6784 -62.7043 L -406.7376 -56.034 L -397.1046 -46.7883 L -390.1462 -40.0904 L -381.5951 -31.8055 L -374.6551 -25.0461 L -366.1167 -16.706 L -356.5121 -7.3035 L -348.5104 .5471 L -335.7109 13.1188 L -330.3845 18.3379 L -321.9047 26.6133 L -315.0605 33.2603 L -306.1831 41.8464 L -299.439 48.3481 L -291.2478 56.2205 L -284.6691 62.5248 L -276.1801 70.6349 L -267.3251 79.0626 L -259.569 86.4278 L -251.463 94.1422 L -242.5765 102.6493 L -236.1967 108.795 L -228.6748 116.0747 L -221.3788 123.1467 L -209.3953 134.8124 L -197.8905 146.1404 L -186.7817 157.0945 L -180.8048 162.9635 L -174.5637 169.0688 L -168.4136 175.0308 L -162.398 180.8106 L -157.5805 185.4319 L -152.3255 190.4773 L -147.2337 195.3429 L -143.7104 198.6658 L -139.7617 202.3028 L -135.9644 205.6825 L -133.1828 208.0773 L -129.6454 210.999 L -126.8003 213.2164 L -123.606 215.544 L -116.5879 220.0555 L -113.268 221.8996 L -109.87 223.5918 L -106.7605 224.9716 L -103.9619 226.084 L -100.1455 227.4157 L -97.0957 228.3359 L -93.1889 229.3376 L -89.8883 230.045 L -85.673 230.7809 L -79.3327 231.5528 L -74.7426 231.8721 L -72.6907 231.9511 L -67.9114 231.9884 L -63.0173 231.8291 L -58.0195 231.5054 L -53.5852 231.1428 L -48.1607 230.6638 L -43.9938 230.3213 L -38.8374 230.0002 L -34.3044 229.8558 L -28.4569 229.8845 L -24.5546 230.0478 L -19.3525 230.4704 L -15.1365 231.0084 L -9.6558 231.9742 L -4.5404 233.1719 L 4.2881 235.8653 L 9.5809 237.7901 L 13.5954 239.3832 L 19.078 241.7831 L 23.837 244.1384 L 28.7992 246.8923 L 32.5806 249.1987 L 37.5382 252.4633 L 42.5925 256.0053 L 47.7533 259.7598 L 53.0406 263.6243 L 62.235 269.8192 L 71.6102 275.1034 L 81.8558 279.874 L 92.1276 283.9687 L 102.4931 287.4251 L 113.8089 290.3952 L 124.9715 292.5455 L 132.0114 293.5121 L 138.3806 294.138 L 151.4976 294.841 L 165.6557 294.8324 L 179.7237 294.5085 L 194.9041 294.5228 L 212.7408 294.8773 L 231.7703 295.3995 L 250.8842 295.6881 L 262.3912 295.7048 L 272.0469 295.6812 L 284.2935 295.6343 L 294.5329 295.5829 L 307.4774 295.5224 L 320.7707 295.5002 L 333.4969 295.5301 L 344.7443 295.5947 L 359.7593 295.7022 L 371.4675 295.7878 L 386.1492 295.9306 L 398.3006 296.0832 L 414.4535 296.2728 L 427.0166 296.3765 L 443.7153 296.4693 L 459.6959 296.5548 L 475.9201 296.6436 L 489.3009 296.6942 L 506.9902 296.7424 L 520.6784 296.7982 L 538.7611 296.9124 L 553.815 297.0155 L 572.2981 297.1203 L 591.0004 297.1936 L 608.7733 297.2518 L 627.8745 297.35 L 646.0232 297.4929 L 664.3493 297.651 L 679.3672 297.7713 L 698.0003 297.9047 L 725.0644 298.0739 L 743.9708 298.1761 L 762.592 298.2624 L 795.0558 298.3624 L 811.161 298.3811 L 827.7178 298.3838 L 844.5822 298.3923 L 859.7874 298.4338 L 875.2508 298.5187 L 889.1682 298.608 L 900.014 298.6536 L 913.7389 298.6799 L 924.0782 298.7143 L 937.4437 298.8224 L 947.463 298.9435 L 960.0736 299.1192 L 968.5915 299.2432 L 979.9075 299.4088 L 989.8605 299.5582 L 999.6403 299.7313 L 1006.501 299.8935 L 1014.1456 300.1643 L 1022.1038 300.6192 L 1029.426 301.2189 L 1034.4968 301.7683 L 1048.0895 304.1003 L 1055.1232 305.9754 L 1061.0445 308.0167 L 1066.6082 310.3565 L 1071.5298 312.7866 L 1075.3254 314.9014 L 1079.5114 317.4887 L 1082.98 319.8547 L 1087.2825 323.1326 L 1091.1081 326.4304 L 1094.9843 330.1762 L 1098.0538 333.4482 L 1101.623 337.6511 L 1104.2326 341.0351 L 1107.3005 345.4044 L 1110.1869 349.9973 L 1112.9973 355.1115 L 1114.9379 359.1814 L 1116.9325 364.0489 L 1118.5416 368.7397 L 1120.0578 374.262 L 1121.0859 379.2141 L 1121.8911 384.64 L 1122.4143 390.192 L 1122.6721 396.6206 L 1122.6196 401.621 L 1122.196 408.2486 L 1121.5875 413.3639 L 1120.4891 419.7069 L 1119.3114 424.894 L 1117.3944 431.7061 L 1115.6478 436.926 L 1113.1651 443.3485 L 1110.8664 448.5443 L 1108.3045 453.6879 L 1104.8071 459.8542 L 1100.6893 466.1386 L 1097.2625 470.763 L 1092.4558 476.6051 L 1088.8645 480.6122 L 1083.5255 486.1459 L 1079.2566 490.2754 L 1073.0975 495.8377 L 1068.4696 499.7344 L 1062.5606 504.3613 L 1057.5869 507.9672 L 1051.663 511.9499 L 1044.7384 516.2351 L 1038.0339 520.0618 L 1030.7194 523.8921 L 1023.2092 527.4583 L 1015.9721 530.5683 L 1008.5461 533.4528 L 1002.3384 535.6482 L 993.991 538.3474 L 987.9393 540.1524 L 979.6719 542.4314 L 971.1873 544.5522 L 962.4912 546.5085 L 955.2752 547.9702 L 945.6437 549.6926 L 938.1294 550.8552 L 928.707 552.0988 L 920.9167 552.9741 L 911.1471 553.9312 L 900.5398 554.8472 L 890.3425 555.6589 L 879.2937 556.5255 L 868.0363 557.4104 L 857.2526 558.2593 L 845.6057 559.1241 L 834.4568 559.8313 L 825.9757 560.2965 L 813.7928 560.8893 L 804.3515 561.3011 L 791.8325 561.8058 L 782.1467 562.1759 L 769.3129 562.6099 L 760.1596 562.8675 L 746.2705 563.2156 L 736.1284 563.4657 L 722.7332 563.7885 L 712.3887 564.0125 L 699.5135 564.2568 L 689.0205 564.4268 L 671.8524 564.613 L 666.0852 564.6477 L 658.6348 564.673 z" stroke-width="28" stroke="black" fill="none" id="Track"/><path d="M 653.264 564.6894 L 640.4478 564.714 L 627.5417 564.7089 L 614.5524 564.687 L 600.6753 564.6496 L 587.5304 564.6016 L 573.4837 564.5345 L 559.3501 564.4715 L 547.6537 564.442 L 534.2029 564.4463 L 522.4239 564.4759 L 508.8731 564.5126 L 494.3934 564.5376 L 480.6968 564.5468 L 466.9316 564.5483 L 441.8232 564.557 L 415.6347 564.5502 L 390.1134 564.4482 L 363.5123 564.2884 L 349.2445 564.2201 L 333.1238 564.1493 L 321.4388 564.094 L 306.1023 564.0003 L 294.3373 563.9129 L 279.8083 563.7859 L 253.3427 563.5595 L 225.794 563.5066 L 199.0054 563.6113 L 171.1334 563.7746 L 144.0525 563.9549 L 129.0381 564.0385 L 113.067 564.0524 L 99.8747 564.0044 L 84.7596 563.9104 L 71.512 563.8196 L 55.3794 563.7135 L 42.0736 563.6307 L 26.8339 563.5425 L 13.4684 563.4698 L -1.7936 563.3935 L -14.053 563.3427 L -28.8034 563.3236 L -43.9623 563.3652 L -57.7064 563.4221 L -71.7655 563.4414 L -86.0555 563.4484 L -95.9989 563.5001 L -108.4271 563.6547 L -117.475 563.8047 L -128.0414 563.9761 L -134.3352 564.0705 L -144.5897 564.2031 L -157.7401 564.327 L -165.3124 564.3772 L -172.0189 564.4144 L -179.8358 564.4641 L -186.7384 564.5267 L -194.1151 564.6186 L -199.0355 564.6958 L -205.4696 564.8065 L -210.2912 564.8903 L -215.7606 564.9689 L -219.8056 565.0169 L -224.9699 565.061 L -228.795 565.0694 L -233.5565 565.0306 L -236.9327 564.9532 L -240.7236 564.7975 L -243.5119 564.633 L -246.4176 564.4125 L -249.5005 564.1098 L -251.9909 563.7845 L -254.2905 563.4005 L -256.1768 563.0085 L -258.2479 562.4924 L -260.2833 561.8893 L -262.4171 561.1301 L -264.0108 560.4531 L -265.9166 559.4898 L -267.5238 558.5273 L -269.2989 557.2861 L -270.6887 556.1605 L -272.3936 554.5235 L -273.5719 553.1627 L -274.9903 551.151 L -275.8782 549.6095 L -276.9153 547.4668 L -277.9654 544.903 L -278.8789 542.3442 L -279.8785 539.3656 L -280.9564 536.3545 L -282.2898 533.2653 L -283.8415 530.5461 L -285.5931 528.2697 L -287.5137 526.3616 L -289.6432 524.7015 L -291.7906 523.3898 L -294.0722 522.3175 L -296.6568 521.4317 L -299.4466 520.7917 L -302.2559 520.4185 L -305.4576 520.2679 L -308.6794 520.3643 L -315.4465 521.1188 L -319.4157 521.8419 L -323.3016 522.7517 L -327.3227 523.8889 L -331.7737 525.3129 L -336.4586 526.8831 L -341.393 528.5687 L -346.2613 530.2753 L -351.6532 532.2187 L -357.6066 534.43 L -362.0838 536.1316 L -367.7834 538.2995 L -373.712 540.4849 L -379.874 542.6434 L -385.0538 544.3688 L -391.6405 546.4488 L -397.5718 548.216 L -405.0002 550.2921 L -412.6544 552.2739 L -420.5184 554.1497 L -428.5843 555.9056 L -436.8416 557.5207 L -445.3141 558.9596 L -461.2458 561.0371 L -468.6353 561.7428 L -473.4414 562.1267 L -482.6448 562.7139 L -489.7876 563.053 L -499.248 563.3887 L -506.583 563.5996 L -516.2928 563.8481 L -524.3874 564.0297 L -534.336 564.2107 L -542.0289 564.3063 L -551.5967 564.3465 L -560.0526 564.307 L -569.8063 564.1849 L -578.4072 563.9994 L -588.8884 563.6315 L -596.8925 563.2067 L -606.7347 562.4701 L -615.3058 561.6096 L -626.2447 560.1947 L -636.494 558.5612 L -646.053 556.7373 L -655.5204 554.6194 L -680.5617 547.4329 L -696.1049 541.7401 L -705.2308 537.9126 L -710.9076 535.3494 L -719.9419 530.9824 L -729.4599 525.9768 L -737.2224 521.5593 L -746.5346 515.8446 L -753.5639 511.2144 L -762.0904 505.2238 L -769.4298 499.7169 L -778.1692 492.7001 L -784.7186 487.1041 L -794.0746 478.5807 L -802.2244 470.6069 L -809.691 462.8202 L -817.3925 454.2658 L -824.8338 445.4492 L -832 436.4035 L -838.8957 427.1392 L -845.1454 418.2311 L -851.5299 408.5675 L -857.2909 399.2901 L -863.775 388.0292 L -868.9021 378.3384 L -874.0069 367.8481 L -878.75 357.1624 L -882.8837 346.9477 L -886.0121 338.5383 L -889.7826 327.4017 L -893.2297 316.1429 L -896.2699 305.4516 L -899.3403 294.0181 L -902.28 282.5231 L -905.2473 270.2785 L -907.4381 260.7047 L -909.4955 251.0841 L -911.6559 240.0247 L -914.4872 224.0335 L -915.9945 214.9444 L -917.8568 203.0343 L -919.2238 193.8917 L -920.905 182.6201 L -922.6212 171.3321 L -924.5465 158.7211 L -925.8971 149.7485 L -927.5087 138.8632 L -929.1552 127.4796" stroke-width="12" stroke="#e73323" fill="none" id="S1"/><path d="M -929.8105 122.8462 L -931.0748 113.7047 L -932.4327 103.5083 L -933.55 94.8461 L -934.8313 84.803 L -935.7628 77.4392 L -936.859 68.7266 L -937.928 60.3056 L -938.9933 52.0735 L -940.1188 43.5158 L -941.2227 35.1499 L -942.2313 27.4457 L -943.2689 19.438 L -944.3359 11.1437 L -945.0863 5.2996 L -945.9771 -1.6774 L -946.8292 -8.4253 L -947.6892 -15.3531 L -948.4534 -21.6501 L -949.2353 -28.1103 L -949.8197 -32.8964 L -950.5667 -38.9594 L -951.1189 -43.453 L -952.0634 -51.1562 L -952.6267 -55.7121 L -953.2618 -60.8203 L -953.8103 -65.2068 L -954.4689 -70.398 L -955.0936 -75.0991 L -955.7811 -79.7972 L -956.4712 -83.9418 L -957.1216 -87.3548 L -957.9229 -91.0203 L -958.6229 -93.8209 L -959.6106 -97.2399 L -960.3606 -99.4949 L -961.44 -102.3058 L -962.6966 -105.0922 L -964.0669 -107.6917 L -965.2807 -109.7 L -966.6781 -111.7571 L -968.2993 -113.879 L -970.0938 -115.9681 L -971.8298 -117.7732 L -974.147 -119.9255 L -976.6718 -121.9792 L -979.4096 -123.9015 L -982.1346 -125.5418 L -985.1322 -127.0944 L -988.1907 -128.5788 L -991.2663 -130.1409 L -994.3639 -131.8849 L -997.2704 -133.7367 L -1000.1221 -135.8176 L -1002.3678 -137.6846 L -1004.8793 -140.0246 L -1007.1681 -142.363 L -1009.7347 -145.1869 L -1011.7813 -147.6148 L -1014.2161 -150.7826 L -1016.4955 -154.1675 L -1018.673 -158.0059 L -1020.5755 -162.072 L -1022.1779 -166.1128 L -1023.4318 -169.5341 L -1025.085 -174.1811 L -1026.4004 -177.8866 L -1028.207 -182.9636 L -1029.5355 -186.7073 L -1031.3674 -191.8913 L -1033.2867 -197.3354 L -1035.4402 -203.3685 L -1037.3083 -208.5172 L -1038.6869 -212.2928 L -1041.0869 -218.9227 L -1043.5571 -225.8123 L -1045.9928 -232.4929 L -1048.7538 -239.7477 L -1050.2937 -243.6406 L -1053.3595 -251.0877 L -1056.0354 -257.2741 L -1059.4351 -264.7788 L -1062.115 -270.5002 L -1065.4296 -277.528 L -1068.5041 -284.1338 L -1071.7122 -291.204 L -1074.2809 -296.9674 L -1077.6283 -304.5028 L -1080.194 -310.2539 L -1083.3525 -317.3132 L -1085.9108 -323.0242 L -1089.2014 -330.4246 L -1091.8509 -336.3918 L -1094.9895 -343.4087 L -1097.5102 -348.9979 L -1100.3146 -355.1841 L -1102.6947 -360.433 L -1105.3047 -366.2576 L -1107.3444 -370.8592 L -1109.7547 -376.3638 L -1111.7687 -381.0461 L -1113.9435 -386.2547 L -1115.9605 -391.3254 L -1117.8017 -396.2736 L -1119.6599 -401.6983 L -1122.2793 -410.4121 L -1123.3977 -414.8061 L -1124.3505 -419.2807 L -1125.0524 -423.5894 L -1125.5121 -427.6085 L -1125.8142 -431.9542 L -1125.9114 -436.1311 L -1125.8713 -438.7793 L -1125.6347 -443.0691 L -1125.2473 -446.8648 L -1124.8561 -449.5899 L -1124.1403 -453.3997 L -1122.8673 -458.556 L -1121.4557 -463.1533 L -1119.7836 -467.7211 L -1118.4466 -470.9184 L -1116.5931 -474.8664 L -1114.6856 -478.4986 L -1112.127 -482.8255 L -1109.9955 -486.0614 L -1107.1791 -489.9514 L -1104.5288 -493.2483 L -1101.2872 -496.8771 L -1097.8022 -500.3729 L -1093.5172 -504.2303 L -1089.6372 -507.3762 L -1084.9173 -510.8093 L -1081.0854 -513.3025 L -1075.7216 -516.4027 L -1071.3941 -518.6227 L -1065.8205 -521.1677 L -1060.7393 -523.1997 L -1054.7211 -525.2742 L -1049.6942 -526.7552 L -1043.7844 -528.248 L -1037.3928 -529.6202 L -1030.5318 -530.9156 L -1023.6222 -532.1271 L -1016.6738 -533.2968 L -1009.6976 -534.4261 L -1003.0954 -535.4301 L -996.4534 -536.3568 L -992.2836 -536.9108 L -986.8287 -537.6397 L -979.5979 -538.6542 L -973.5332 -539.5626 L -966.0204 -540.7609 L -958.783 -541.9751 L -950.9218 -543.3314 L -943.3705 -544.6694 L -935.1997 -546.1705 L -928.3616 -547.4612 L -920.3876 -548.9921 L -915.8452 -549.8728 L -907.14 -551.5619 L -900.3928 -552.8594 L -892.0647 -554.4286 L -885.3541 -555.6595 L -877.2345 -557.0734 L -869.2633 -558.3379 L -861.4369 -559.3887 L -855.1762 -560.0037 L -847.1381 -560.3506 L -840.6715 -560.1475 L -833.0865 -559.2156 L -826.2958 -557.6132 L -814.9497 -553.2065 L -804.5056 -547.6309 L -795.4071 -541.3449 L -787.6494 -534.4514 L -780.9304 -526.9879 L -777.306 -522.4993 L -773.4582 -517.5127 L -770.296 -513.2759 L -766.4736 -507.9662 L -763.5484 -503.7876 L -759.7498 -498.1415 L -756.8751 -493.6573 L -753.1091 -487.5576 L -749.4542 -481.558 L -745.6335 -475.3553 L -741.6198 -468.915 L -737.395 -462.1667 L -733.5267 -456.0036 L -728.8921 -448.6846 L -724.9514 -442.5375 L -719.5609 -434.245 L -714.9296 -427.2239 L -709.4859 -419.0562 L -705.0011 -412.3527 L -699.0872 -403.5037 L -694.1778 -396.1429 L -688.5342 -387.6399 L -684.2823 -381.2007 L -678.572 -372.546 L -672.7951 -363.8343 L -666.9577 -355.0639 L -662.1939 -347.879 L -656.3098 -338.959 L -651.1134 -331.0928 L -644.6983 -321.5041 L -640.0799 -314.7275 L -633.8046 -305.7054 L -626.9901 -296.1379 L -620.4574 -287.1535 L -613.826 -278.1768 L -606.6781 -268.6583 L -601.1301 -261.3887 L -594.208 -252.4658 L -588.0766 -244.6916 L -580.9794 -235.847 L -575.1347 -228.6922 L -568.2986 -220.4862 L -559.9709 -210.7284 L -551.9805 -201.596 L -545.2998 -194.1471 L -537.0591 -185.1944 L -530.6661 -178.4129 L -522.2065 -169.6161 L -515.1747 -162.407 L -506.5851 -153.6758 L -498.4564 -145.471 L -483.0924 -130.114 L -467.5369 -114.798 L -452.8677 -100.533 L -444.4336 -92.3763 L -434.9234 -83.1848 L -428.0358 -76.5345 L -419.003 -67.828 L -412.0798 -61.1669 L -402.9958 -52.4424 L -395.4997 -45.246 L -386.4034 -36.4715 L -379.4561 -29.7251 L -371.4512 -21.9189 L -363.9834 -14.6194 L -354.9123 -5.7349 L -346.3767 2.6425 L -341.0403 7.8861 L -327.199 21.452 L -318.7399 29.6901 L -311.9155 36.3062 L -303.0635 44.8559 L -295.8419 51.8084 L -287.6972 59.625 L -281.1602 65.8807 L -274.2004 72.5221" stroke-width="12" stroke="#4fafdf" fill="none" id="S2"/><path d="M -267.3251 79.0626 L -259.569 86.4278 L -251.463 94.1422 L -242.5765 102.6493 L -236.1967 108.795 L -228.6748 116.0747 L -221.3788 123.1467 L -209.3953 134.8124 L -197.8905 146.1404 L -186.7817 157.0945 L -180.8048 162.9635 L -174.5637 169.0688 L -168.4136 175.0308 L -162.398 180.8106 L -157.5805 185.4319 L -152.3255 190.4773 L -147.2337 195.3429 L -143.7104 198.6658 L -139.7617 202.3028 L -135.9644 205.6825 L -133.1828 208.0773 L -129.6454 210.999 L -126.8003 213.2164 L -123.606 215.544 L -116.5879 220.0555 L -113.268 221.8996 L -109.87 223.5918 L -106.7605 224.9716 L -103.9619 226.084 L -100.1455 227.4157 L -97.0957 228.3359 L -93.1889 229.3376 L -89.8883 230.045 L -85.673 230.7809 L -79.3327 231.5528 L -74.7426 231.8721 L -72.6907 231.9511 L -67.9114 231.9884 L -63.0173 231.8291 L -58.0195 231.5054 L -53.5852 231.1428 L -48.1607 230.6638 L -43.9938 230.3213 L -38.8374 230.0002 L -34.3044 229.8558 L -28.4569 229.8845 L -24.5546 230.0478 L -19.3525 230.4704 L -15.1365 231.0084 L -9.6558 231.9742 L -4.5404 233.1719 L 4.2881 235.8653 L 9.5809 237.7901 L 13.5954 239.3832 L 19.078 241.7831 L 23.837 244.1384 L 28.7992 246.8923 L 32.5806 249.1987 L 37.5382 252.4633 L 42.5925 256.0053 L 47.7533 259.7598 L 53.0406 263.6243 L 62.235 269.8192 L 71.6102 275.1034 L 81.8558 279.874 L 92.1276 283.9687 L 102.4931 287.4251 L 113.8089 290.3952 L 124.9715 292.5455 L 132.0114 293.5121 L 138.3806 294.138 L 151.4976 294.841 L 165.6557 294.8324 L 179.7237 294.5085 L 194.9041 294.5228 L 212.7408 294.8773 L 231.7703 295.3995 L 250.8842 295.6881 L 262.3912 295.7048 L 272.0469 295.6812 L 284.2935 295.6343 L 294.5329 295.5829 L 307.4774 295.5224 L 320.7707 295.5002 L 333.4969 295.5301 L 344.7443 295.5947 L 359.7593 295.7022 L 371.4675 295.7878 L 386.1492 295.9306 L 398.3006 296.0832 L 414.4535 296.2728 L 427.0166 296.3765 L 443.7153 296.4693 L 459.6959 296.5548 L 475.9201 296.6436 L 489.3009 296.6942 L 506.9902 296.7424 L 520.6784 296.7982 L 538.7611 296.9124 L 553.815 297.0155 L 572.2981 297.1203 L 591.0004 297.1936 L 608.7733 297.2518 L 627.8745 297.35 L 646.0232 297.4929 L 664.3493 297.651 L 679.3672 297.7713 L 698.0003 297.9047 L 725.0644 298.0739 L 743.9708 298.1761 L 762.592 298.2624 L 795.0558 298.3624 L 811.161 298.3811 L 827.7178 298.3838 L 844.5822 298.3923 L 859.7874 298.4338 L 875.2508 298.5187 L 889.1682 298.608 L 900.014 298.6536 L 913.7389 298.6799 L 924.0782 298.7143 L 937.4437 298.8224 L 947.463 298.9435 L 960.0736 299.1192 L 968.5915 299.2432 L 979.9075 299.4088 L 989.8605 299.5582 L 999.6403 299.7313 L 1006.501 299.8935 L 1014.1456 300.1643 L 1022.1038 300.6192 L 1029.426 301.2189 L 1034.4968 301.7683 L 1048.0895 304.1003 L 1055.1232 305.9754 L 1061.0445 308.0167 L 1066.6082 310.3565 L 1071.5298 312.7866 L 1075.3254 314.9014 L 1079.5114 317.4887 L 1082.98 319.8547 L 1087.2825 323.1326 L 1091.1081 326.4304 L 1094.9843 330.1762 L 1098.0538 333.4482 L 1101.623 337.6511 L 1104.2326 341.0351 L 1107.3005 345.4044 L 1110.1869 349.9973 L 1112.9973 355.1115 L 1114.9379 359.1814 L 1116.9325 364.0489 L 1118.5416 368.7397 L 1120.0578 374.262 L 1121.0859 379.2141 L 1121.8911 384.64 L 1122.4143 390.192 L 1122.6721 396.6206 L 1122.6196 401.621 L 1122.196 408.2486 L 1121.5875 413.3639 L 1120.4891 419.7069 L 1119.3114 424.894 L 1117.3944 431.7061 L 1115.6478 436.926 L 1113.1651 443.3485 L 1110.8664 448.5443 L 1108.3045 453.6879 L 1104.8071 459.8542 L 1100.6893 466.1386 L 1097.2625 470.763 L 1092.4558 476.6051 L 1088.8645 480.6122 L 1083.5255 486.1459 L 1079.2566 490.2754 L 1073.0975 495.8377 L 1068.4696 499.7344 L 1062.5606 504.3613 L 1057.5869 507.9672 L 1051.663 511.9499 L 1044.7384 516.2351 L 1038.0339 520.0618 L 1030.7194 523.8921 L 1023.2092 527.4583 L 1015.9721 530.5683 L 1008.5461 533.4528 L 1002.3384 535.6482 L 993.991 538.3474 L 987.9393 540.1524 L 979.6719 542.4314 L 971.1873 544.5522 L 962.4912 546.5085 L 955.2752 547.9702 L 945.6437 549.6926 L 938.1294 550.8552 L 928.707 552.0988 L 920.9167 552.9741 L 911.1471 553.9312 L 900.5398 554.8472 L 890.3425 555.6589 L 879.2937 556.5255 L 868.0363 557.4104 L 857.2526 558.2593 L 845.6057 559.1241 L 834.4568 559.8313 L 825.9757 560.2965 L 813.7928 560.8893 L 804.3515 561.3011 L 791.8325 561.8058 L 782.1467 562.1759 L 769.3129 562.6099 L 760.1596 562.8675 L 746.2705 563.2156 L 736.1284 563.4657 L 722.7332 563.7885 L 712.3887 564.0125 L 699.5135 564.2568 L 689.0205 564.4268 L 671.8524 564.613 L 666.0852 564.6477 L 658.6348 564.673" stroke-width="12" stroke="#f7d347" fill="none" id="S3"/></svg>