<?xml version="1.0" standalone="no"?>
<svg xmlns:xlink="http://www.w3.org/1999/xlink" id="s2" class="track" xmlns="http://www.w3.org/2000/svg" width="800" height="400" viewBox="-1000 -1000 2000 2000">
        <path d="M 973.2798 544.7305 L 971.5562 545.1333 L 969.2554 545.6555 L 967.5194 546.0381 L 965.1973 546.5352 L 963.4501 546.8981 L 961.1085 547.3691 L 959.3483 547.7114 L 956.9901 548.154 L 955.2182 548.4749 L 953.4376 548.7875 L 951.0594 549.1897 L 949.269 549.4814 L 946.8709 549.8578 L 945.0684 550.1304 L 943.2604 550.3952 L 941.4439 550.6531 L 939.6287 550.9028 L 937.8034 551.1464 L 935.9747 551.3833 L 933.5288 551.6897 L 931.6902 551.9134 L 929.8427 552.1328 L 927.3722 552.4193 L 925.5093 552.631 L 923.648 552.8404 L 921.7743 553.0484 L 919.2721 553.3229 L 917.3866 553.5267 L 914.8662 553.7958 L 912.9662 553.9953 L 911.0603 554.1921 L 908.5158 554.4492 L 906.6022 554.638 L 904.0391 554.8824 L 902.1095 555.0603 L 900.1749 555.2339 L 898.2354 555.4043 L 895.6427 555.6262 L 893.6911 555.7896 L 891.7342 555.9505 L 889.7737 556.1091 L 887.1514 556.318 L 885.1779 556.473 L 882.5395 556.6774 L 880.5568 556.8303 L 877.9029 557.0316 L 875.9114 557.1823 L 873.2426 557.3805 L 871.24 557.5281 L 869.2303 557.6746 L 867.2127 557.8196 L 865.1948 557.9638 L 863.1675 558.1059 L 861.1395 558.2466 L 859.1063 558.3862 L 857.0646 558.5236 L 854.3407 558.7042 L 852.2916 558.8376 L 850.2382 558.9698 L 848.1802 559.0998 L 845.426 559.2706 L 843.3587 559.3963 L 841.2825 559.5201 L 839.2043 559.6418 L 837.1228 559.7604 L 834.3363 559.9147 L 832.2423 560.0265 L 830.141 560.1355 L 827.3404 560.276 L 825.2287 560.3781 L 822.4121 560.5095 L 820.2906 560.6052 L 818.1667 560.6987 L 816.0337 560.7895 L 813.1962 560.9074 L 811.056 560.9947 L 808.9138 561.0794 L 806.7664 561.1632 L 804.6165 561.2454 L 801.7402 561.3523 L 799.5788 561.4321 L 797.4146 561.5096 L 794.5167 561.6142 L 792.3423 561.6907 L 789.4354 561.7921 L 787.2458 561.868 L 784.33 561.9681 L 782.1353 562.0425 L 779.9363 562.1173 L 777.7348 562.1922 L 775.5279 562.2677 L 773.3141 562.3427 L 770.3596 562.4418 L 768.1419 562.5153 L 765.9147 562.5876 L 762.9442 562.6828 L 760.7102 562.7527 L 758.4736 562.822 L 755.4838 562.9114 L 753.2398 562.9772 L 750.9877 563.0419 L 747.9817 563.1255 L 745.7223 563.1862 L 742.7042 563.266 L 740.4365 563.3232 L 738.1648 563.3798 L 735.8898 563.4347 L 733.6107 563.4885 L 731.3271 563.5412 L 729.0386 563.5922 L 726.7509 563.642 L 724.4587 563.6905 L 722.1622 563.7385 L 719.8601 563.784 L 717.5561 563.8292 L 714.4742 563.887 L 712.1672 563.9291 L 709.8316 563.9702 L 706.7531 564.0235 L 704.4296 564.0621 L 702.1009 564.1001 L 699.7662 564.1387 L 696.66 564.188 L 694.3215 564.2249 L 691.98 564.2621 L 689.6315 564.299 L 686.5027 564.3463 L 684.1491 564.3816 L 681.7946 564.4171 L 679.4351 564.4501 L 677.0302 564.4834 L 673.9122 564.5235 L 671.5455 564.5516 L 669.1591 564.5773 L 665.9989 564.6077 L 663.6186 564.6283 L 661.234 564.6468 L 658.8473 564.6625 L 656.4389 564.6754 L 653.264 564.6894 L 650.867 564.6979 L 648.4664 564.7041 L 646.0315 564.708 L 642.8547 564.7122 L 640.4478 564.714 L 638.0339 564.7144 L 635.6158 564.7142 L 633.1993 564.7138 L 630.7749 564.7122 L 627.5417 564.7089 L 625.1116 564.7058 L 622.6409 564.7018 L 619.4357 564.696 L 616.9962 564.6918 L 614.5524 564.687 L 611.3006 564.6793 L 608.85 564.6731 L 606.4026 564.6666 L 603.1295 564.6578 L 600.6753 564.6496 L 598.2094 564.6419 L 594.9295 564.6318 L 592.4691 564.6224 L 590.0006 564.6119 L 587.5304 564.6016 L 584.2334 564.5871 L 581.7545 564.5746 L 578.4511 564.5587 L 575.9683 564.5466 L 573.4837 564.5345 L 570.1632 564.5185 L 567.6762 564.5067 L 565.1765 564.496 L 561.8549 564.4818 L 559.3501 564.4715 L 556.0198 564.4605 L 553.513 564.4533 L 550.17 564.4464 L 547.6537 564.442 L 544.3082 564.4391 L 541.794 564.4385 L 539.2734 564.4394 L 536.755 564.4422 L 534.2029 564.4463 L 530.8622 564.4533 L 528.3343 564.4598 L 525.8019 564.4666 L 522.4239 564.4759 L 519.8884 564.4831 L 517.353 564.4902 L 514.8102 564.497 L 512.2646 564.5044 L 508.8731 564.5126 L 506.3218 564.5182 L 503.7719 564.5236 L 500.3648 564.5298 L 497.807 564.533 L 494.3934 564.5376 L 491.8195 564.5402 L 488.4115 564.5424 L 485.8403 564.5438 L 483.2704 564.5451 L 480.6968 564.5468 L 477.2646 564.5491 L 474.6844 564.5483 L 472.1041 564.5486 L 469.5191 564.5483 L 466.9316 564.5483 L 463.484 564.549 L 460.8932 564.5492 L 458.3002 564.5506 L 455.7009 564.5515 L 453.1035 564.5523 L 450.5072 564.553 L 447.9023 564.5545 L 445.3007 564.5556 L 441.8232 564.557 L 439.2167 564.5586 L 435.7337 564.5594 L 433.116 564.56 L 429.6291 564.5602 L 427.0097 564.56 L 424.3891 564.5599 L 420.8878 564.5574 L 418.2628 564.5547 L 415.6347 564.5502 L 413.0002 564.5454 L 410.371 564.5385 L 406.8581 564.5282 L 404.2164 564.5182 L 401.5799 564.5077 L 398.0553 564.4906 L 395.4097 564.4778 L 392.7659 564.4631 L 390.1134 564.4482 L 387.4639 564.4329 L 383.9264 564.4111 L 381.2728 564.3952 L 378.6117 564.3781 L 375.0664 564.355 L 372.403 564.338 L 369.7392 564.3221 L 366.1821 564.3019 L 363.5123 564.2884 L 360.8438 564.2748 L 357.2692 564.2572 L 354.6021 564.2445 L 351.9223 564.2319 L 349.2445 564.2201 L 345.6698 564.2035 L 342.9837 564.1925 L 339.4018 564.1765 L 336.7093 564.165 L 333.1238 564.1493 L 330.4174 564.1379 L 326.8353 564.1209 L 324.1379 564.1079 L 321.4388 564.094 L 317.8361 564.0746 L 315.1318 564.0583 L 311.5215 564.0364 L 308.8134 564.0189 L 306.1023 564.0003 L 303.3855 563.9813 L 299.7738 563.9551 L 297.0559 563.9341 L 294.3373 563.9129 L 291.617 563.8902 L 288.8928 563.8668 L 286.1693 563.8433 L 282.5335 563.8112 L 279.8083 563.7859 L 277.0762 563.7603 L 274.3359 563.7344 L 271.6115 563.709 L 268.873 563.683 L 265.227 563.65 L 262.485 563.6266 L 259.7448 563.6046 L 256.0836 563.5776 L 253.3427 563.5595 L 250.5968 563.5438 L 246.9283 563.5266 L 244.1716 563.5161 L 241.423 563.5088 L 238.6126 563.5033 L 234.9898 563.5001 L 232.2374 563.4998 L 229.4736 563.5014 L 225.794 563.5066 L 223.0302 563.5132 L 220.2623 563.5201 L 217.4975 563.5286 L 214.7225 563.5391 L 211.0331 563.5531 L 208.2609 563.5662 L 205.4831 563.5789 L 202.7057 563.5925 L 199.0054 563.6113 L 196.2243 563.6263 L 192.5159 563.6458 L 189.7298 563.6602 L 186.0185 563.6825 L 183.2243 563.6996 L 180.4298 563.7166 L 176.7184 563.7389 L 173.9296 563.7564 L 171.1334 563.7746 L 168.3392 563.7926 L 164.6088 563.8171 L 161.8087 563.8356 L 159.0114 563.8539 L 155.2723 563.8791 L 152.4715 563.8977 L 149.6665 563.9166 L 146.8593 563.9358 L 144.0525 563.9549 L 141.2381 563.9746 L 138.4306 563.9918 L 135.617 564.0082 L 131.864 564.0266 L 129.0381 564.0385 L 125.2942 564.0501 L 122.4771 564.0547 L 119.6545 564.0576 L 116.8316 564.0573 L 113.067 564.0524 L 110.2452 564.0464 L 106.4753 564.0341 L 103.6504 564.0225 L 99.8747 564.0044 L 97.0447 563.9892 L 94.2002 563.9726 L 90.4371 563.9489 L 87.6028 563.9293 L 84.7596 563.9104 L 80.9811 563.8842 L 78.1406 563.8651 L 75.2993 563.846 L 71.512 563.8196 L 68.6629 563.8002 L 64.875 563.7748 L 62.0275 563.7563 L 58.2321 563.7315 L 55.3794 563.7135 L 52.531 563.6961 L 48.7313 563.6717 L 45.8763 563.6538 L 42.0736 563.6307 L 39.2153 563.6141 L 35.4094 563.5912 L 32.5533 563.5745 L 29.6898 563.5583 L 26.8339 563.5425 L 23.0173 563.5216 L 20.1569 563.5062 L 17.2864 563.4907 L 13.4684 563.4698 L 10.6086 563.4554 L 6.7881 563.4367 L 3.9276 563.4223 L 1.0652 563.408 L -1.7936 563.3935 L -4.64 563.3798 L -7.4781 563.3668 L -10.3049 563.3553 L -14.053 563.3427 L -16.8543 563.3345 L -19.6339 563.3283 L -23.3236 563.3237 L -26.0725 563.3225 L -28.8034 563.3236 L -32.4236 563.328 L -35.1146 563.3338 L -37.7903 563.3417 L -40.4512 563.3512 L -43.9623 563.3652 L -46.579 563.3765 L -49.1797 563.3884 L -51.7957 563.3992 L -55.1698 563.4129 L -57.7064 563.4221 L -60.2294 563.4291 L -63.5608 563.4373 L -66.0433 563.4398 L -69.3224 563.4414 L -71.7655 563.4414 L -74.9932 563.4415 L -77.3949 563.4406 L -80.5698 563.4413 L -82.9338 563.443 L -86.0555 563.4484 L -88.382 563.4545 L -91.4516 563.4682 L -93.7365 563.4825 L -95.9989 563.5001 L -98.9862 563.529 L -101.2004 563.5541 L -103.3938 563.5822 L -105.5676 563.6118 L -108.4271 563.6547 L -110.5536 563.6883 L -112.657 563.7233 L -115.4298 563.7698 L -117.475 563.8047 L -119.5039 563.8381 L -121.5088 563.8711 L -123.4956 563.9038 L -126.1054 563.9449 L -128.0414 563.9761 L -129.9527 564.005 L -132.4714 564.0428 L -134.3352 564.0705 L -136.1841 564.097 L -138.6169 564.1305 L -140.4271 564.1536 L -142.2189 564.175 L -144.5897 564.2031 L -146.3536 564.2221 L -148.1006 564.2407 L -150.4083 564.2632 L -152.1217 564.2788 L -154.3882 564.2986 L -156.0723 564.3135 L -157.7401 564.327 L -159.9438 564.3434 L -161.5724 564.3535 L -163.1873 564.3638 L -165.3124 564.3772 L -166.8877 564.3856 L -168.4465 564.3946 L -170.4988 564.4055 L -172.0189 564.4144 L -173.52 564.4222 L -175.0067 564.4316 L -176.9668 564.4443 L -178.4081 564.454 L -179.8358 564.4641 L -181.2487 564.4753 L -182.6457 564.4873 L -184.0249 564.4994 L -185.3899 564.5128 L -186.7384 564.5267 L -188.074 564.5409 L -189.8323 564.5613 L -191.134 564.5781 L -192.4229 564.5948 L -194.1151 564.6186 L -195.3709 564.6373 L -196.6096 564.6565 L -197.8313 564.6757 L -199.0355 564.6958 L -200.6062 564.7224 L -201.7631 564.7424 L -203.273 564.7682 L -204.3828 564.7879 L -205.4696 564.8065 L -206.5513 564.8261 L -207.9305 564.8498 L -208.9509 564.8672 L -210.2912 564.8903 L -211.2765 564.9059 L -212.2529 564.9208 L -213.5402 564.9393 L -214.4968 564.9524 L -215.7606 564.9689 L -216.7028 564.9807 L -217.6398 564.9921 L -218.88 565.0065 L -219.8056 565.0169 L -220.7265 565.0269 L -221.9493 565.0398 L -222.8605 565.048 L -224.0699 565.0558 L -224.9699 565.061 L -225.8649 565.0658 L -226.7539 565.0687 L -227.9261 565.0699 L -228.795 565.0694 L -229.657 565.0672 L -230.7922 565.0606 L -231.6339 565.0545 L -232.7399 565.0415 L -233.5565 565.0306 L -234.3576 565.0163 L -235.1474 565.0002 L -236.1765 564.9753 L -236.9327 564.9532 L -237.6731 564.9297 L -238.4006 564.9021 L -239.1143 564.8734 L -240.0427 564.832 L -240.7236 564.7975 L -241.6098 564.7495 L -242.2571 564.712 L -242.8917 564.6731 L -243.5119 564.633 L -244.1188 564.592 L -244.7134 564.548 L -245.2953 564.5038 L -245.8627 564.4584 L -246.4176 564.4125 L -247.1375 564.35 L -247.6631 564.3017 L -248.3458 564.2351 L -248.846 564.182 L -249.5005 564.1098 L -249.9828 564.053 L -250.4581 563.9946 L -250.9259 563.9344 L -251.3867 563.8718 L -251.9909 563.7845 L -252.4355 563.7175 L -252.8734 563.6478 L -253.3062 563.5767 L -253.8719 563.4779 L -254.2905 563.4005 L -254.7037 563.321 L -255.2464 563.211 L -255.648 563.1255 L -256.1768 563.0085 L -256.5703 562.9175 L -256.9602 562.8241 L -257.4773 562.6949 L -257.8639 562.5951 L -258.2479 562.4924 L -258.6316 562.3864 L -259.1404 562.2403 L -259.5224 562.1268 L -259.9027 562.0099 L -260.2833 561.8893 L -260.6623 561.765 L -261.1665 561.5929 L -261.5434 561.4592 L -262.0433 561.2743 L -262.4171 561.1301 L -262.7875 560.9821 L -263.1565 560.8293 L -263.5248 560.671 L -264.0108 560.4531 L -264.3734 560.2836 L -264.8531 560.05 L -265.2106 559.8681 L -265.5643 559.6816 L -265.9166 559.4898 L -266.2657 559.2928 L -266.7274 559.0221 L -267.0707 558.8131 L -267.5238 558.5273 L -267.8617 558.3062 L -268.3079 558.0039 L -268.6405 557.7703 L -268.9716 557.5307 L -269.2989 557.2861 L -269.6246 557.0359 L -269.9478 556.7799 L -270.3734 556.43 L -270.6887 556.1605 L -271.103 555.7923 L -271.4089 555.5091 L -271.7108 555.2197 L -272.1045 554.8255 L -272.3936 554.5235 L -272.6764 554.2171 L -273.0432 553.8015 L -273.3114 553.4835 L -273.5719 553.1627 L -273.9088 552.7267 L -274.1527 552.3968 L -274.467 551.9508 L -274.6953 551.6112 L -274.9903 551.151 L -275.2048 550.8004 L -275.4813 550.3286 L -275.6828 549.9704 L -275.8782 549.6095 L -276.1318 549.1206 L -276.3177 548.7482 L -276.4995 548.3713 L -276.738 547.8599 L -276.9153 547.4668 L -277.15 546.9291 L -277.3258 546.5132 L -277.5592 545.9433 L -277.7339 545.5037 L -277.9654 544.903 L -278.1381 544.4416 L -278.3101 543.9714 L -278.4814 543.4924 L -278.6519 543.0055 L -278.8789 542.3442 L -279.0502 541.8372 L -279.2799 541.1504 L -279.4555 540.6248 L -279.6943 539.9112 L -279.8785 539.3656 L -280.1313 538.6278 L -280.3279 538.0654 L -280.5305 537.4983 L -280.7405 536.9258 L -280.9564 536.3545 L -281.2538 535.5998 L -281.4831 535.0435 L -281.7976 534.3178 L -282.0405 533.7859 L -282.2898 533.2653 L -282.6335 532.5884 L -282.8999 532.0949 L -283.1734 531.615 L -283.5507 530.9947 L -283.8415 530.5461 L -284.2383 529.971 L -284.5484 529.5483 L -284.9568 529.0234 L -285.2732 528.6395 L -285.5931 528.2697 L -285.9179 527.9112 L -286.2484 527.5631 L -286.6985 527.1136 L -287.0429 526.7866 L -287.5137 526.3616 L -287.8755 526.0504 L -288.3674 525.6479 L -288.744 525.3545 L -289.2542 524.9759 L -289.6432 524.7015 L -290.0364 524.4364 L -290.4346 524.1801 L -290.8368 523.9329 L -291.3792 523.6167 L -291.7906 523.3898 L -292.2072 523.1711 L -292.6298 522.9603 L -293.2002 522.6924 L -293.6346 522.5006 L -294.0722 522.3175 L -294.5169 522.1419 L -295.1138 521.9221 L -295.569 521.7662 L -296.0315 521.6176 L -296.6568 521.4317 L -297.1345 521.3008 L -297.6176 521.1777 L -298.2736 521.0252 L -298.7721 520.92 L -299.4466 520.7917 L -299.9589 520.7047 L -300.478 520.6255 L -301.0038 520.5542 L -301.7142 520.4715 L -302.2559 520.4185 L -302.9872 520.3599 L -303.5458 520.325 L -304.3007 520.2911 L -304.8761 520.2753 L -305.4576 520.2679 L -306.0464 520.2687 L -306.6428 520.2778 L -307.245 520.2948 L -307.8554 520.3196 L -308.6794 520.3643 L -309.3058 520.4064 L -309.9387 520.4555 L -310.7923 520.5314 L -311.4392 520.5959 L -312.3113 520.6918 L -312.9726 520.7712 L -313.8631 520.8872 L -314.5391 520.9821 L -315.4465 521.1188 L -316.1352 521.2295 L -317.0622 521.3882 L -317.761 521.5152 L -318.4677 521.6503 L -319.4157 521.8419 L -320.1339 521.995 L -320.8559 522.1558 L -321.5842 522.3251 L -322.5623 522.5634 L -323.3016 522.7517 L -324.0439 522.9477 L -325.0427 523.2222 L -325.7982 523.4372 L -326.5569 523.6591 L -327.3227 523.8889 L -328.35 524.2053 L -329.1296 524.4511 L -329.9145 524.703 L -330.7068 524.961 L -331.7737 525.3129 L -332.5823 525.5818 L -333.6735 525.946 L -334.4995 526.2231 L -335.6139 526.598 L -336.4586 526.8831 L -337.3112 527.1717 L -338.4611 527.5625 L -339.3328 527.8601 L -340.5047 528.2623 L -341.393 528.5687 L -342.2897 528.8796 L -343.1941 529.1946 L -344.4104 529.621 L -345.3311 529.9457 L -346.2613 530.2753 L -347.5087 530.72 L -348.4542 531.059 L -349.4063 531.4021 L -350.6863 531.8661 L -351.6532 532.2187 L -352.9547 532.6963 L -353.9369 533.0589 L -355.2577 533.5496 L -356.2563 533.9226 L -357.6066 534.43 L -358.6288 534.8163 L -360.0025 535.3377 L -361.0391 535.7328 L -362.0838 536.1316 L -363.4895 536.6687 L -364.551 537.0738 L -365.6214 537.4816 L -366.6987 537.8904 L -367.7834 538.2995 L -368.8776 538.7099 L -369.9796 539.1203 L -371.0903 539.5308 L -372.5819 540.0762 L -373.712 540.4849 L -375.2302 541.0277 L -376.3807 541.4343 L -377.5359 541.8384 L -378.7017 542.2419 L -379.874 542.6434 L -381.0575 543.0448 L -382.6434 543.5758 L -383.8432 543.9726 L -385.0538 544.3688 L -386.2685 544.7618 L -387.493 545.1537 L -389.1372 545.6729 L -390.3799 546.0603 L -391.6405 546.4488 L -393.3099 546.956 L -394.5809 547.3371 L -395.8565 547.715 L -397.5718 548.216 L -398.8656 548.5885 L -400.6006 549.0809 L -401.9128 549.4476 L -403.6707 549.9318 L -405.0002 550.2921 L -406.7814 550.7672 L -408.1259 551.1205 L -409.9284 551.5861 L -411.2869 551.9314 L -412.6544 552.2739 L -414.4865 552.7254 L -415.8678 553.06 L -417.7187 553.5002 L -419.1165 553.8274 L -420.5184 554.1497 L -422.3985 554.5738 L -423.8215 554.8889 L -425.2442 555.1986 L -427.1482 555.6051 L -428.5843 555.9056 L -430.0281 556.202 L -431.9631 556.5904 L -433.4186 556.8753 L -434.8812 557.1553 L -436.8416 557.5207 L -438.3224 557.7888 L -439.812 558.0513 L -441.8026 558.3912 L -443.3046 558.6394 L -445.3141 558.9596 L -446.8302 559.1925 L -448.8566 559.4919 L -450.3869 559.709 L -452.4318 559.9874 L -453.9739 560.1883 L -456.0386 560.4458 L -457.5966 560.6313 L -459.675 560.8673 L -461.2458 561.0371 L -463.3474 561.2531 L -464.9233 561.4068 L -466.5093 561.5547 L -468.6353 561.7428 L -470.2299 561.8764 L -471.8325 562.0044 L -473.4414 562.1267 L -475.5913 562.2805 L -477.2119 562.3897 L -479.3773 562.5264 L -481.0079 562.6227 L -482.6448 562.7139 L -484.2822 562.7998 L -486.4768 562.9069 L -488.1279 562.9822 L -489.7876 563.053 L -491.997 563.1407 L -493.6642 563.2025 L -495.3329 563.2613 L -497.5666 563.3357 L -499.248 563.3887 L -500.9329 563.4397 L -502.6235 563.489 L -504.8807 563.5532 L -506.583 563.5996 L -508.8538 563.661 L -510.5647 563.7048 L -512.8494 563.7635 L -514.5699 563.8062 L -516.2928 563.8481 L -518.5966 563.902 L -520.3303 563.9419 L -522.0659 563.98 L -524.3874 564.0297 L -526.1349 564.0649 L -528.4696 564.1097 L -530.2251 564.1418 L -532.5729 564.1825 L -534.336 564.2107 L -536.107 564.2364 L -538.4696 564.2679 L -540.2489 564.2886 L -542.0289 564.3063 L -543.8182 564.3207 L -545.6065 564.3321 L -547.9965 564.3423 L -549.7963 564.346 L -551.5967 564.3465 L -553.4053 564.3439 L -555.8177 564.3354 L -557.6311 564.3255 L -560.0526 564.307 L -561.8746 564.2902 L -563.7009 564.2711 L -565.5283 564.2488 L -567.9707 564.2145 L -569.8063 564.1849 L -572.258 564.1406 L -574.1013 564.1029 L -576.5589 564.0467 L -578.4072 563.9994 L -580.2527 563.9476 L -582.7181 563.8705 L -584.5686 563.806 L -587.0326 563.7108 L -588.8884 563.6315 L -590.7329 563.546 L -593.1946 563.4206 L -595.0436 563.3176 L -596.8925 563.2067 L -599.3546 563.0461 L -601.2034 562.9155 L -603.0487 562.7761 L -604.8907 562.6279 L -606.7347 562.4701 L -609.187 562.2455 L -611.0271 562.0658 L -613.4726 561.8119 L -615.3058 561.6096 L -617.7438 561.3244 L -619.5701 561.0991 L -622.0001 560.784 L -623.8191 560.5373 L -626.2447 560.1947 L -628.0589 559.928 L -630.4765 559.558 L -632.291 559.2691 L -634.6908 558.8715 L -636.494 558.5612 L -638.2919 558.2413 L -640.0893 557.911 L -642.4787 557.4555 L -644.2673 557.1017 L -646.053 556.7373 L -648.4576 556.2291 L -649.6371 555.9724 L -651.983 555.4476 L -653.7539 555.0386 L -655.5204 554.6194 L -657.2854 554.1892 L -659.6318 553.5996 L -661.3914 553.1442 L -663.1416 552.68 L -664.8937 552.2041 L -666.6436 551.7173 L -668.9711 551.0523 L -670.7147 550.5409 L -672.4556 550.0185 L -674.7777 549.3038 L -676.5117 548.7566 L -678.8282 548.0074 L -680.5617 547.4329 L -682.2954 546.8466 L -684.608 546.0465 L -686.3359 545.4347 L -688.6406 544.5994 L -690.366 543.9598 L -692.0897 543.3081 L -693.8154 542.6427 L -696.1049 541.7401 L -697.8201 541.0485 L -699.5333 540.345 L -701.2467 539.6284 L -703.5237 538.6563 L -705.2308 537.9126 L -706.9345 537.158 L -709.209 536.1309 L -710.9076 535.3494 L -712.6036 534.5563 L -714.3023 533.7498 L -715.9941 532.9343 L -718.2514 531.8266 L -719.9419 530.9824 L -722.1878 529.8405 L -723.8717 528.9686 L -725.5516 528.0857 L -727.2307 527.1892 L -729.4599 525.9768 L -731.1316 525.0515 L -733.3513 523.8008 L -735.0127 522.8484 L -737.2224 521.5593 L -738.8753 520.5787 L -740.5248 519.5858 L -742.7147 518.2454 L -744.3567 517.2232 L -746.5346 515.8446 L -748.1654 514.7949 L -749.7897 513.7346 L -751.409 512.6629 L -753.5639 511.2144 L -755.1724 510.1163 L -756.7772 509.0063 L -758.3785 507.8839 L -759.972 506.7521 L -762.0904 505.2238 L -763.677 504.0617 L -765.7755 502.5008 L -767.3484 501.3129 L -769.4298 499.7169 L -770.9887 498.503 L -773.0525 496.8708 L -774.5957 495.6315 L -776.6408 493.9644 L -778.1692 492.7001 L -779.69 491.4268 L -781.7102 489.711 L -783.2165 488.4136 L -784.7186 487.1041 L -786.7103 485.3431 L -787.7004 484.457 L -789.1848 483.1154 L -791.1476 481.3165 L -792.6168 479.9514 L -794.0746 478.5807 L -796.0123 476.733 L -797.4557 475.3376 L -798.8944 473.9298 L -800.3263 472.5122 L -802.2244 470.6069 L -803.6383 469.1682 L -805.5167 467.2312 L -806.9139 465.7712 L -808.3064 464.2999 L -809.691 462.8202 L -811.0686 461.3312 L -812.8935 459.3319 L -814.2536 457.8212 L -815.6072 456.2999 L -817.3925 454.2658 L -818.725 452.7271 L -820.4866 450.6667 L -821.8018 449.1085 L -823.5358 447.0274 L -824.8338 445.4492 L -826.5403 443.3466 L -827.8146 441.756 L -829.0787 440.1606 L -830.3358 438.5559 L -832 436.4035 L -833.2328 434.7884 L -834.4628 433.1592 L -836.0858 430.9823 L -837.2957 429.3392 L -838.8957 427.1392 L -840.0846 425.4839 L -841.2671 423.8196 L -842.8297 421.5921 L -843.9926 419.9135 L -845.1454 418.2311 L -846.6733 415.973 L -847.8065 414.2767 L -848.9325 412.5724 L -850.0522 410.8589 L -851.5299 408.5675 L -852.6315 406.8367 L -854.0787 404.5328 L -855.1586 402.7906 L -856.2289 401.0441 L -857.2909 399.2901 L -858.6917 396.9418 L -859.7297 395.1738 L -860.7589 393.3962 L -861.775 391.615 L -862.7807 389.8253 L -863.775 388.0292 L -865.0857 385.6222 L -866.056 383.811 L -867.0165 381.9919 L -867.9648 380.1689 L -868.9021 378.3384 L -869.8294 376.499 L -871.0481 374.0375 L -871.9471 372.1894 L -873.1318 369.7121 L -874.0069 367.8481 L -874.8716 365.9756 L -876.0055 363.4715 L -876.8416 361.5878 L -877.9398 359.063 L -878.75 357.1624 L -879.8107 354.6246 L -880.5948 352.713 L -881.3681 350.7975 L -882.1325 348.8725 L -882.8837 346.9477 L -883.6257 345.0122 L -884.3545 343.0769 L -885.0719 341.1364 L -886.0121 338.5383 L -886.7035 336.5853 L -887.3844 334.6243 L -888.2727 332.0079 L -888.9274 330.0358 L -889.7826 327.4017 L -890.411 325.425 L -891.2347 322.7806 L -891.842 320.7935 L -892.4422 318.8007 L -893.2297 316.1429 L -893.8135 314.1417 L -894.3908 312.1384 L -895.1489 309.4706 L -895.7119 307.4623 L -896.2699 305.4516 L -897.0051 302.7675 L -897.551 300.7518 L -898.2718 298.0637 L -898.8074 296.0437 L -899.3403 294.0181 L -900.0436 291.3196 L -900.5663 289.2926 L -901.2566 286.5888 L -901.7709 284.5554 L -902.28 282.5231 L -902.9525 279.8084 L -903.4526 277.7677 L -904.112 275.0485 L -904.6008 273.0081 L -905.2473 270.2785 L -905.7348 268.1941 L -906.3565 265.4993 L -906.8242 263.4445 L -907.4381 260.7047 L -907.8916 258.6463 L -908.4854 255.9026 L -908.9237 253.8367 L -909.4955 251.0841 L -909.9159 249.0154 L -910.329 246.9444 L -910.8684 244.1809 L -911.265 242.1052 L -911.6559 240.0247 L -912.0405 237.9451 L -912.4202 235.861 L -912.9179 233.0848 L -913.2868 230.9964 L -913.6523 228.903 L -914.1314 226.1229 L -914.4872 224.0335 L -914.8405 221.9402 L -915.1904 219.8438 L -915.5364 217.7506 L -915.9945 214.9444 L -916.3305 212.8538 L -916.775 210.05 L -917.1041 207.947 L -917.5359 205.1437 L -917.8568 203.0343 L -918.2802 200.2246 L -918.5957 198.1157 L -918.9098 196.0042 L -919.2238 193.8917 L -919.5369 191.7808 L -919.8512 189.6678 L -920.2718 186.8439 L -920.482 185.4387 L -920.905 182.6201 L -921.2248 180.5038 L -921.5452 178.3878 L -921.8665 176.2723 L -922.298 173.4474 L -922.6212 171.3321 L -923.0521 168.5142 L -923.3752 166.4011 L -923.8036 163.6021 L -924.1228 161.5033 L -924.5465 158.7211 L -924.8611 156.6385 L -925.278 153.8763 L -925.5882 151.8094 L -925.8971 149.7485 L -926.2031 147.6968 L -926.5082 145.6463 L -926.8103 143.6052 L -927.2109 140.8885 L -927.5087 138.8632 L -927.8043 136.8405 L -928.1957 134.1525 L -928.4863 132.1427 L -928.774 130.1422 L -929.1552 127.4796 L -929.4383 125.4873 L -929.8105 122.8462 L -930.0875 120.8684 L -930.4514 118.2488 L -930.7212 116.2932 L -931.0748 113.7047 L -931.3367 111.7716 L -931.5952 109.8486 L -931.9342 107.2991 L -932.1849 105.3998 L -932.4327 103.5083 L -932.7586 101.0014 L -932.9992 99.1385 L -933.2376 97.2871 L -933.55 94.8461 L -933.7821 93.0343 L -934.0111 91.2421 L -934.3122 88.8761 L -934.5364 87.1208 L -934.8313 84.803 L -935.0494 83.0827 L -935.3386 80.808 L -935.5511 79.1195 L -935.7628 77.4392 L -935.9733 75.7724 L -936.1809 74.1239 L -936.3857 72.4886 L -936.5895 70.8652 L -936.859 68.7266 L -937.0601 67.1338 L -937.2605 65.5494 L -937.4606 63.9679 L -937.7261 61.8744 L -937.928 60.3056 L -938.1288 58.7507 L -938.3959 56.6831 L -938.5955 55.1416 L -938.7949 53.6023 L -938.9933 52.0735 L -939.2582 50.0434 L -939.4579 48.5224 L -939.6575 47.0074 L -939.9217 45.0074 L -940.1188 43.5158 L -940.317 42.0235 L -940.5141 40.5366 L -940.7724 38.5711 L -940.9655 37.1029 L -941.2227 35.1499 L -941.4147 33.6937 L -941.6689 31.7558 L -941.8566 30.3169 L -942.044 28.88 L -942.2313 27.4457 L -942.4795 25.5469 L -942.6626 24.1268 L -942.9056 22.2457 L -943.0876 20.8379 L -943.2689 19.438 L -943.5093 17.5817 L -943.6894 16.1912 L -943.9249 14.3519 L -944.1013 12.9743 L -944.3359 11.1437 L -944.5111 9.7802 L -944.7433 7.9778 L -944.9157 6.6342 L -945.0863 5.2996 L -945.2553 3.9728 L -945.4235 2.6557 L -945.6467 .9107 L -945.8132 -.3875 L -945.9771 -1.6774 L -946.1395 -2.9622 L -946.3008 -4.2351 L -946.4619 -5.5052 L -946.673 -7.1779 L -946.8292 -8.4253 L -946.9849 -9.6679 L -947.1897 -11.307 L -947.3409 -12.5304 L -947.4912 -13.7443 L -947.6892 -15.3531 L -947.8349 -16.5488 L -947.9801 -17.7374 L -948.1725 -19.3131 L -948.3132 -20.4841 L -948.4534 -21.6501 L -948.6391 -23.1903 L -948.7778 -24.3383 L -948.9157 -25.4777 L -949.0531 -26.6111 L -949.2353 -28.1103 L -949.3712 -29.2271 L -949.5092 -30.3578 L -949.6859 -31.8044 L -949.8197 -32.8964 L -949.9972 -34.3427 L -950.1295 -35.4181 L -950.2614 -36.4885 L -950.3926 -37.5514 L -950.5667 -38.9594 L -950.6964 -40.004 L -950.8259 -41.047 L -950.9934 -42.4245 L -951.1189 -43.453 L -951.2852 -44.815 L -951.4092 -45.8295 L -951.5329 -46.8396 L -951.656 -47.8437 L -951.7788 -48.8439 L -951.9416 -50.1673 L -952.0634 -51.1562 L -952.2252 -52.4668 L -952.3461 -53.4456 L -952.5067 -54.7435 L -952.6267 -55.7121 L -952.7468 -56.6816 L -952.866 -57.6404 L -952.9853 -58.6004 L -953.1435 -59.8704 L -953.2618 -60.8203 L -953.4193 -62.0819 L -953.5368 -63.0223 L -953.6543 -63.9611 L -953.8103 -65.2068 L -953.9267 -66.1333 L -954.0427 -67.0561 L -954.1969 -68.2807 L -954.3123 -69.1911 L -954.4689 -70.398 L -954.5856 -71.2953 L -954.7021 -72.1896 L -954.8195 -73.0752 L -954.9762 -74.2391 L -955.0936 -75.0991 L -955.2518 -76.2332 L -955.3723 -77.0728 L -955.4937 -77.9014 L -955.6569 -78.9902 L -955.7811 -79.7972 L -955.9068 -80.5955 L -956.0765 -81.6425 L -956.2062 -82.4187 L -956.3378 -83.185 L -956.4712 -83.9418 L -956.6522 -84.9375 L -956.7906 -85.673 L -956.931 -86.3999 L -957.1216 -87.3548 L -957.2671 -88.061 L -957.4151 -88.7591 L -957.5645 -89.4472 L -957.7678 -90.3528 L -957.9229 -91.0203 L -958.1336 -91.8989 L -958.2941 -92.5469 L -958.457 -93.1872 L -958.6229 -93.8209 L -958.791 -94.4423 L -959.0193 -95.2601 L -959.1937 -95.8632 L -959.4303 -96.6559 L -959.6106 -97.2399 L -959.7937 -97.8159 L -959.9798 -98.3842 L -960.1689 -98.9441 L -960.3606 -99.4949 L -960.621 -100.2181 L -960.8202 -100.7503 L -961.0233 -101.2752 L -961.2298 -101.7939 L -961.44 -102.3058 L -961.7256 -102.9792 L -961.944 -103.4765 L -962.1653 -103.9675 L -962.3913 -104.4546 L -962.6966 -105.0922 L -962.9304 -105.5647 L -963.2474 -106.1855 L -963.4892 -106.6445 L -963.8167 -107.246 L -964.0669 -107.6917 L -964.4052 -108.275 L -964.6637 -108.7079 L -965.0133 -109.2771 L -965.2807 -109.7 L -965.5514 -110.118 L -965.8266 -110.5326 L -966.1058 -110.9438 L -966.3893 -111.3514 L -966.6781 -111.7571 L -966.9707 -112.1591 L -967.2687 -112.5592 L -967.6734 -113.089 L -967.9836 -113.4848 L -968.2993 -113.879 L -968.6212 -114.2726 L -968.9506 -114.6662 L -969.3985 -115.188 L -969.743 -115.5788 L -970.0938 -115.9681 L -970.4521 -116.3568 L -970.9415 -116.8734 L -971.3175 -117.26 L -971.8298 -117.7732 L -972.2223 -118.1567 L -972.7577 -118.6669 L -973.1672 -119.0474 L -973.5833 -119.426 L -974.147 -119.9255 L -974.5777 -120.2971 L -975.1614 -120.7864 L -975.6075 -121.1492 L -976.0604 -121.5082 L -976.6718 -121.9792 L -977.139 -122.3289 L -977.6118 -122.6735 L -978.2553 -123.1274 L -978.7455 -123.4622 L -979.4096 -123.9015 L -979.9122 -124.2237 L -980.5891 -124.6434 L -981.1001 -124.9494 L -981.6155 -125.2486 L -982.1346 -125.5418 L -982.83 -125.9211 L -983.3563 -126.1995 L -983.8853 -126.4726 L -984.5962 -126.8303 L -985.1322 -127.0944 L -985.85 -127.4439 L -986.3889 -127.7046 L -987.1095 -128.0527 L -987.651 -128.3152 L -988.1907 -128.5788 L -988.7316 -128.8452 L -989.4542 -129.205 L -989.9968 -129.48 L -990.5408 -129.7598 L -991.2663 -130.1409 L -991.8124 -130.4335 L -992.3591 -130.7327 L -993.0879 -131.1406 L -993.6349 -131.4547 L -994.3639 -131.8849 L -994.9104 -132.2156 L -995.4576 -132.5541 L -996.0025 -132.8998 L -996.5471 -133.2535 L -997.2704 -133.7367 L -997.8114 -134.1089 L -998.528 -134.617 L -999.0627 -135.0089 L -999.5938 -135.409 L -1000.1221 -135.8176 L -1000.6463 -136.2342 L -1001.1666 -136.6594 L -1001.8556 -137.2397 L -1002.3678 -137.6846 L -1002.8763 -138.1373 L -1003.3804 -138.5977 L -1003.883 -139.0655 L -1004.3827 -139.5413 L -1004.8793 -140.0246 L -1005.5385 -140.6795 L -1006.0306 -141.1781 L -1006.519 -141.6816 L -1007.1681 -142.363 L -1007.6514 -142.8788 L -1008.1354 -143.4018 L -1008.7775 -144.1074 L -1009.2569 -144.6441 L -1009.7347 -145.1869 L -1010.2114 -145.7366 L -1010.6846 -146.2923 L -1011.3128 -147.0433 L -1011.7813 -147.6148 L -1012.2462 -148.1929 L -1012.7082 -148.7787 L -1013.1662 -149.3715 L -1013.7687 -150.172 L -1014.2161 -150.7826 L -1014.657 -151.3999 L -1015.2362 -152.2353 L -1015.6638 -152.8722 L -1016.0832 -153.5156 L -1016.4955 -154.1675 L -1016.8996 -154.8271 L -1017.426 -155.7195 L -1017.8101 -156.3964 L -1018.186 -157.0818 L -1018.673 -158.0059 L -1019.0283 -158.7078 L -1019.4879 -159.6529 L -1019.8234 -160.3708 L -1020.2581 -161.3382 L -1020.5755 -162.072 L -1020.8861 -162.8129 L -1021.1913 -163.5622 L -1021.4915 -164.3199 L -1021.8851 -165.3397 L -1022.1779 -166.1128 L -1022.4686 -166.8928 L -1022.7579 -167.678 L -1023.1433 -168.7351 L -1023.4318 -169.5341 L -1023.816 -170.609 L -1024.1059 -171.4239 L -1024.4947 -172.5171 L -1024.7892 -173.3461 L -1025.085 -174.1811 L -1025.3839 -175.0231 L -1025.7864 -176.157 L -1026.092 -177.0178 L -1026.4004 -177.8866 L -1026.8175 -179.0575 L -1027.1339 -179.9459 L -1027.5591 -181.142 L -1027.8819 -182.0484 L -1028.207 -182.9636 L -1028.535 -183.8873 L -1028.8655 -184.8189 L -1029.1986 -185.7581 L -1029.5355 -186.7073 L -1029.8736 -187.6607 L -1030.329 -188.9473 L -1030.673 -189.9206 L -1031.0191 -190.9028 L -1031.3674 -191.8913 L -1031.7186 -192.8887 L -1032.0749 -193.9019 L -1032.4337 -194.922 L -1032.9188 -196.2965 L -1033.2867 -197.3354 L -1033.6584 -198.382 L -1034.1591 -199.7904 L -1034.5401 -200.8577 L -1035.0515 -202.2861 L -1035.4402 -203.3685 L -1035.8332 -204.4604 L -1036.362 -205.9214 L -1036.7647 -207.0287 L -1037.3083 -208.5172 L -1037.7186 -209.6401 L -1038.1312 -210.7702 L -1038.6869 -212.2928 L -1039.1051 -213.4425 L -1039.6675 -214.9891 L -1040.0907 -216.1601 L -1040.6586 -217.732 L -1041.0869 -218.9227 L -1041.6609 -220.5211 L -1042.094 -221.7298 L -1042.6763 -223.3546 L -1043.115 -224.5804 L -1043.5571 -225.8123 L -1044.0046 -227.0542 L -1044.6061 -228.7151 L -1045.0634 -229.9699 L -1045.527 -231.2326 L -1045.9928 -232.4929 L -1046.467 -233.7644 L -1047.1065 -235.4632 L -1047.5937 -236.7433 L -1048.0863 -238.0265 L -1048.7538 -239.7477 L -1049.2599 -241.0395 L -1049.774 -242.3393 L -1050.2937 -243.6406 L -1050.8193 -244.9458 L -1051.5302 -246.6932 L -1052.0714 -248.0075 L -1052.802 -249.765 L -1053.3595 -251.0877 L -1054.1116 -252.8538 L -1054.6823 -254.1789 L -1055.2579 -255.5044 L -1056.0354 -257.2741 L -1056.6239 -258.5994 L -1057.4175 -260.3651 L -1058.018 -261.6904 L -1058.622 -263.0148 L -1059.4351 -264.7788 L -1060.0498 -266.0999 L -1060.6674 -267.4222 L -1061.4937 -269.1801 L -1062.115 -270.5002 L -1062.736 -271.8163 L -1063.3591 -273.1352 L -1063.9802 -274.4518 L -1064.8084 -276.2091 L -1065.4296 -277.528 L -1066.0489 -278.8462 L -1066.6656 -280.1666 L -1067.2812 -281.4888 L -1067.8917 -282.808 L -1068.5041 -284.1338 L -1069.1098 -285.4544 L -1069.7153 -286.7817 L -1070.5172 -288.5481 L -1071.1157 -289.8764 L -1071.7122 -291.204 L -1072.3068 -292.5327 L -1072.8997 -293.8636 L -1073.6891 -295.637 L -1074.2809 -296.9674 L -1074.8698 -298.2971 L -1075.4606 -299.6271 L -1076.247 -301.4003 L -1076.8381 -302.7313 L -1077.6283 -304.5028 L -1078.2189 -305.8304 L -1078.8115 -307.1588 L -1079.404 -308.485 L -1080.194 -310.2539 L -1080.7863 -311.5788 L -1081.3786 -312.9038 L -1081.9708 -314.2268 L -1082.7604 -315.9916 L -1083.3525 -317.3132 L -1084.1416 -319.072 L -1084.7335 -320.3918 L -1085.3231 -321.7082 L -1085.9108 -323.0242 L -1086.6892 -324.7736 L -1087.2746 -326.0856 L -1088.0467 -327.8253 L -1088.6253 -329.1275 L -1089.2014 -330.4246 L -1089.9637 -332.1443 L -1090.5328 -333.4272 L -1091.2895 -335.1291 L -1091.8509 -336.3918 L -1092.5964 -338.0663 L -1093.1525 -339.3129 L -1093.8909 -340.9616 L -1094.4417 -342.1899 L -1094.9895 -343.4087 L -1095.5348 -344.6219 L -1096.2557 -346.2239 L -1096.7956 -347.4203 L -1097.5102 -348.9979 L -1098.0424 -350.1743 L -1098.5727 -351.3418 L -1099.0978 -352.5033 L -1099.7971 -354.0424 L -1100.3146 -355.1841 L -1100.8318 -356.3223 L -1101.5143 -357.8264 L -1102.0238 -358.9498 L -1102.6947 -360.433 L -1103.1919 -361.5401 L -1103.6861 -362.6395 L -1104.1758 -363.732 L -1104.8243 -365.1812 L -1105.3047 -366.2576 L -1105.7809 -367.3308 L -1106.4109 -368.7495 L -1106.8798 -369.8072 L -1107.3444 -370.8592 L -1107.8044 -371.9045 L -1108.26 -372.9435 L -1108.8629 -374.3194 L -1109.3114 -375.3447 L -1109.7547 -376.3638 L -1110.3388 -377.7136 L -1110.7739 -378.7204 L -1111.3448 -380.052 L -1111.7687 -381.0461 L -1112.1863 -382.0331 L -1112.6007 -383.0173 L -1113.1438 -384.317 L -1113.5461 -385.2892 L -1113.9435 -386.2547 L -1114.3334 -387.215 L -1114.719 -388.1722 L -1115.0976 -389.1225 L -1115.5959 -390.3856 L -1115.9605 -391.3254 L -1116.3201 -392.2624 L -1116.6725 -393.1943 L -1117.0192 -394.1236 L -1117.4703 -395.3544 L -1117.8017 -396.2736 L -1118.2338 -397.4928 L -1118.5508 -398.4018 L -1118.9638 -399.6062 L -1119.2668 -400.5078 L -1119.6599 -401.6983 L -1119.9491 -402.5893 L -1120.3246 -403.7689 L -1120.6003 -404.65 L -1120.869 -405.5258 L -1121.2189 -406.6894 L -1121.4739 -407.557 L -1121.8062 -408.7103 L -1122.0467 -409.5646 L -1122.2793 -410.4121 L -1122.5042 -411.2517 L -1122.722 -412.0829 L -1122.9334 -412.908 L -1123.2038 -413.996 L -1123.3977 -414.8061 L -1123.6441 -415.8756 L -1123.8207 -416.6713 L -1123.9884 -417.4601 L -1124.1487 -418.244 L -1124.3505 -419.2807 L -1124.4923 -420.0532 L -1124.6691 -421.071 L -1124.7924 -421.8304 L -1124.9088 -422.5874 L -1125.0524 -423.5894 L -1125.1519 -424.3394 L -1125.2749 -425.3423 L -1125.3598 -426.0936 L -1125.4389 -426.8493 L -1125.5121 -427.6085 L -1125.6002 -428.6215 L -1125.6595 -429.3852 L -1125.7129 -430.1527 L -1125.7748 -431.1793 L -1125.8142 -431.9542 L -1125.8557 -432.9902 L -1125.8798 -433.7714 L -1125.8974 -434.555 L -1125.9083 -435.3413 L -1125.9114 -436.1311 L -1125.9078 -436.9235 L -1125.8919 -437.9824 L -1125.8713 -438.7793 L -1125.8437 -439.5804 L -1125.8086 -440.3814 L -1125.7496 -441.4541 L -1125.6959 -442.2609 L -1125.6347 -443.0691 L -1125.5418 -444.1501 L -1125.4626 -444.9628 L -1125.3449 -446.0504 L -1125.2473 -446.8648 L -1125.1025 -447.9538 L -1124.9838 -448.772 L -1124.8561 -449.5899 L -1124.7194 -450.4085 L -1124.5235 -451.4966 L -1124.3655 -452.3134 L -1124.1403 -453.3997 L -1123.9609 -454.2153 L -1123.7097 -455.3005 L -1123.5112 -456.1148 L -1123.3045 -456.9279 L -1123.0903 -457.7424 L -1122.8673 -458.556 L -1122.6368 -459.3682 L -1122.3174 -460.4514 L -1122.0675 -461.2634 L -1121.723 -462.3437 L -1121.4557 -463.1533 L -1121.1804 -463.9616 L -1120.8951 -464.7699 L -1120.5038 -465.8442 L -1120.1999 -466.6494 L -1119.7836 -467.7211 L -1119.4615 -468.5237 L -1119.1318 -469.3224 L -1118.7938 -470.121 L -1118.4466 -470.9184 L -1118.093 -471.7104 L -1117.7298 -472.5038 L -1117.3591 -473.2928 L -1116.9806 -474.0799 L -1116.5931 -474.8664 L -1116.0655 -475.9095 L -1115.6608 -476.6899 L -1115.1091 -477.7251 L -1114.6856 -478.4986 L -1114.1069 -479.5257 L -1113.663 -480.2939 L -1113.2124 -481.0561 L -1112.5982 -482.0685 L -1112.127 -482.8255 L -1111.6477 -483.5772 L -1110.9959 -484.5756 L -1110.5002 -485.3193 L -1109.9955 -486.0614 L -1109.4851 -486.7997 L -1108.9651 -487.5338 L -1108.4387 -488.2639 L -1107.7244 -489.2314 L -1107.1791 -489.9514 L -1106.4396 -490.9039 L -1105.8753 -491.6132 L -1105.3026 -492.3179 L -1104.5288 -493.2483 L -1103.938 -493.9406 L -1103.3393 -494.6279 L -1102.7323 -495.3097 L -1101.9115 -496.2085 L -1101.2872 -496.8771 L -1100.6531 -497.5404 L -1100.0115 -498.1991 L -1099.1412 -499.0721 L -1098.4771 -499.7237 L -1097.8022 -500.3729 L -1096.8852 -501.2362 L -1096.1835 -501.8827 L -1095.2328 -502.7386 L -1094.5041 -503.3802 L -1093.5172 -504.2303 L -1092.7617 -504.8671 L -1091.9977 -505.4992 L -1091.2221 -506.1283 L -1090.4341 -506.7547 L -1089.6372 -507.3762 L -1088.8284 -507.9937 L -1088.0098 -508.6067 L -1086.9018 -509.4161 L -1086.0588 -510.0168 L -1084.9173 -510.8093 L -1084.0501 -511.3955 L -1083.1725 -511.9756 L -1081.9868 -512.7389 L -1081.0854 -513.3025 L -1080.1655 -513.8662 L -1078.9218 -514.6057 L -1077.9733 -515.1537 L -1076.6963 -515.8706 L -1075.7216 -516.4027 L -1074.7426 -516.9252 L -1073.7495 -517.4427 L -1072.7439 -517.9543 L -1071.3941 -518.6227 L -1070.3695 -519.1161 L -1069.3321 -519.6037 L -1067.9422 -520.2387 L -1066.8858 -520.7073 L -1065.8205 -521.1677 L -1064.3871 -521.7681 L -1063.3027 -522.208 L -1062.2094 -522.6392 L -1060.7393 -523.1997 L -1059.6266 -523.6097 L -1058.5072 -524.0096 L -1057.3789 -524.4006 L -1056.2443 -524.7816 L -1054.7211 -525.2742 L -1053.5702 -525.6323 L -1052.4146 -525.9803 L -1051.2529 -526.3186 L -1049.6942 -526.7552 L -1048.5171 -527.0726 L -1047.3411 -527.3793 L -1046.1594 -527.6775 L -1044.9706 -527.9678 L -1043.7844 -528.248 L -1042.1926 -528.6103 L -1040.9973 -528.8729 L -1039.799 -529.1282 L -1038.5954 -529.3777 L -1037.3928 -529.6202 L -1035.7853 -529.9365 L -1034.5765 -530.1682 L -1033.3633 -530.3966 L -1031.7474 -530.6951 L -1030.5318 -530.9156 L -1028.9093 -531.206 L -1027.692 -531.4213 L -1026.4729 -531.6346 L -1025.2515 -531.8473 L -1023.6222 -532.1271 L -1022.3985 -532.3361 L -1021.1726 -532.5434 L -1019.5382 -532.8198 L -1018.3105 -533.0242 L -1016.6738 -533.2968 L -1015.4455 -533.499 L -1014.2162 -533.7007 L -1012.575 -533.9672 L -1011.3415 -534.1653 L -1009.6976 -534.4261 L -1008.4626 -534.6195 L -1007.2265 -534.8101 L -1005.9883 -534.9995 L -1004.3381 -535.2473 L -1003.0954 -535.4301 L -1001.4393 -535.6681 L -1000.1931 -535.8442 L -998.9504 -536.0172 L -997.7027 -536.1881 L -996.4534 -536.3568 L -994.7878 -536.5799 L -993.5357 -536.7454 L -992.2836 -536.9108 L -991.0267 -537.0766 L -989.3513 -537.2995 L -988.0928 -537.4685 L -986.8287 -537.6397 L -985.5635 -537.8121 L -984.2922 -537.988 L -982.5927 -538.2257 L -981.3086 -538.4079 L -979.5979 -538.6542 L -978.3043 -538.8433 L -976.5778 -539.0995 L -975.2755 -539.2958 L -973.5332 -539.5626 L -972.2202 -539.7666 L -970.4614 -540.0431 L -969.1362 -540.2545 L -967.8028 -540.4697 L -966.0204 -540.7609 L -964.6749 -540.9829 L -963.3257 -541.2073 L -961.5144 -541.5116 L -960.1514 -541.7426 L -958.783 -541.9751 L -956.9482 -542.2885 L -955.5647 -542.5272 L -954.1769 -542.7662 L -952.3213 -543.0884 L -950.9218 -543.3314 L -949.514 -543.5781 L -947.6332 -543.909 L -946.2174 -544.1597 L -944.7976 -544.4133 L -943.3705 -544.6694 L -941.9403 -544.9279 L -940.0268 -545.2769 L -938.5844 -545.5421 L -936.6559 -545.899 L -935.1997 -546.1705 L -933.7379 -546.4439 L -931.7983 -546.8087 L -930.3305 -547.087 L -928.3616 -547.4612 L -926.8773 -547.744 L -924.8927 -548.1235 L -923.3935 -548.4115 L -921.8961 -548.7003 L -920.3876 -548.9921 L -918.8802 -549.2837 L -917.3653 -549.578 L -915.8452 -549.8728 L -914.3188 -550.1682 L -912.789 -550.4648 L -910.7429 -550.8624 L -909.2016 -551.162 L -907.14 -551.5619 L -905.5878 -551.8624 L -903.5147 -552.2624 L -901.9557 -552.5609 L -900.3928 -552.8594 L -898.83 -553.1569 L -897.2678 -553.4527 L -895.7046 -553.7481 L -893.6225 -554.1384 L -892.0647 -554.4286 L -890.5095 -554.7176 L -888.9575 -555.0037 L -887.4122 -555.2863 L -885.3541 -555.6595 L -883.8221 -555.9338 L -882.2913 -556.2046 L -880.7688 -556.4709 L -879.2518 -556.7321 L -877.2345 -557.0734 L -875.7293 -557.3234 L -873.729 -557.648 L -872.2359 -557.8841 L -870.7487 -558.1141 L -869.2633 -558.3379 L -867.7856 -558.5539 L -866.3114 -558.7623 L -864.3554 -559.0261 L -862.8921 -559.2129 L -861.4369 -559.3887 L -859.985 -559.553 L -858.5361 -559.7048 L -856.6148 -559.8853 L -855.1762 -560.0037 L -853.2704 -560.1364 L -851.8443 -560.2165 L -849.9539 -560.2955 L -848.5404 -560.333 L -847.1381 -560.3506 L -845.2736 -560.3419 L -843.8838 -560.3099 L -842.5001 -560.2556 L -840.6715 -560.1475 L -839.3076 -560.0386 L -837.5106 -559.8568 L -836.1702 -559.6922 L -834.4013 -559.4362 L -833.0865 -559.2156 L -831.7853 -558.9702 L -830.4951 -558.6987 L -829.2175 -558.4016 L -827.5397 -557.9676 L -826.2958 -557.6132 L -825.066 -557.2351 L -823.8465 -556.8331 L -822.2458 -556.2675 L -821.0548 -555.8201 L -819.8633 -555.3522 L -818.3336 -554.7208 L -817.1919 -554.2279 L -816.0642 -553.7228 L -814.9497 -553.2065 L -813.4837 -552.5053 L -812.398 -551.9717 L -810.9702 -551.2512 L -809.9125 -550.7026 L -808.8669 -550.1451 L -807.4972 -549.3891 L -806.4865 -548.8112 L -805.4871 -548.2231 L -804.5056 -547.6309 L -803.5337 -547.0305 L -802.5754 -546.4252 L -801.3192 -545.6085 L -800.3914 -544.9868 L -799.4792 -544.3588 L -798.2842 -543.5105 L -797.4063 -542.8683 L -796.2551 -542.0016 L -795.4071 -541.3449 L -794.5735 -540.6839 L -793.7515 -540.0158 L -792.6803 -539.1186 L -791.8919 -538.4379 L -791.1148 -537.7495 L -790.0976 -536.8213 L -789.3524 -536.1203 L -788.373 -535.1724 L -787.6494 -534.4514 L -786.6965 -533.4757 L -785.9919 -532.735 L -785.2917 -531.9836 L -784.5953 -531.221 L -783.9036 -530.4498 L -783.2122 -529.6652 L -782.2979 -528.6078 L -781.6123 -527.8017 L -780.9304 -526.9879 L -780.249 -526.1643 L -779.5674 -525.3312 L -778.6624 -524.2084 L -777.985 -523.3585 L -777.306 -522.4993 L -776.4021 -521.3452 L -775.7225 -520.4691 L -774.8169 -519.2946 L -774.1383 -518.4061 L -773.4582 -517.5127 L -772.5539 -516.3142 L -771.8758 -515.4092 L -771.1977 -514.4989 L -770.296 -513.2759 L -769.6221 -512.3528 L -768.9466 -511.422 L -768.0484 -510.1751 L -767.3734 -509.2311 L -766.4736 -507.9662 L -765.799 -507.0121 L -764.8982 -505.7296 L -764.2234 -504.7619 L -763.5484 -503.7876 L -762.8744 -502.8066 L -762.203 -501.8214 L -761.3086 -500.4944 L -760.6391 -499.4909 L -759.7498 -498.1415 L -759.084 -497.1195 L -758.1996 -495.7467 L -757.5371 -494.7063 L -756.8751 -493.6573 L -755.9931 -492.2487 L -755.3311 -491.1813 L -754.6673 -490.1039 L -753.7789 -488.6551 L -753.1091 -487.5576 L -752.4338 -486.4497 L -751.7547 -485.3336 L -751.0694 -484.2063 L -750.3812 -483.0763 L -749.4542 -481.558 L -748.7509 -480.4092 L -748.0412 -479.2546 L -747.326 -478.093 L -746.6047 -476.9244 L -745.6335 -475.3553 L -744.8961 -474.1675 L -744.153 -472.9734 L -743.1501 -471.3645 L -742.3893 -470.146 L -741.6198 -468.915 L -740.8429 -467.6729 L -740.0595 -466.4217 L -739.2677 -465.1565 L -738.204 -463.4581 L -737.395 -462.1667 L -736.5799 -460.8656 L -735.4829 -459.1162 L -734.6497 -457.7893 L -733.5267 -456.0036 L -732.6759 -454.6536 L -731.8171 -453.2936 L -730.9491 -451.9221 L -729.7801 -450.0799 L -728.8921 -448.6846 L -727.9943 -447.2776 L -726.7895 -445.3957 L -725.875 -443.9716 L -724.9514 -442.5375 L -724.0187 -441.0932 L -722.7638 -439.1563 L -721.8121 -437.6919 L -720.5306 -435.7271 L -719.5609 -434.245 L -718.5807 -432.7515 L -717.2653 -430.7537 L -716.2683 -429.2444 L -714.9296 -427.2239 L -713.9167 -425.6988 L -712.902 -424.1743 L -711.8808 -422.6425 L -710.5135 -420.5942 L -709.4859 -419.0562 L -708.4546 -417.5144 L -707.4201 -415.968 L -706.0398 -413.9057 L -705.0011 -412.3527 L -703.9613 -410.7991 L -702.5722 -408.722 L -701.5288 -407.1597 L -700.1355 -405.0735 L -699.0872 -403.5037 L -697.6876 -401.408 L -696.636 -399.8306 L -695.5822 -398.2511 L -694.1778 -396.1429 L -693.1202 -394.5537 L -692.0645 -392.9655 L -690.6531 -390.8387 L -689.5949 -389.2418 L -688.5342 -387.6399 L -687.4723 -386.0347 L -686.4091 -384.4261 L -685.3474 -382.8161 L -684.2823 -381.2007 L -683.2169 -379.5853 L -682.1476 -377.9627 L -681.0776 -376.3404 L -680.0051 -374.7156 L -678.572 -372.546 L -677.4951 -370.9174 L -676.4153 -369.2864 L -674.9699 -367.1074 L -673.8838 -365.4728 L -672.7951 -363.8343 L -671.7055 -362.196 L -670.6127 -360.5547 L -669.518 -358.911 L -668.056 -356.7149 L -666.9577 -355.0639 L -665.8604 -353.4126 L -664.7602 -351.7547 L -663.2942 -349.5422 L -662.1939 -347.879 L -661.09 -346.2085 L -659.9915 -344.5435 L -658.5204 -342.3125 L -657.4164 -340.638 L -656.3098 -338.959 L -654.8312 -336.7154 L -653.7183 -335.0294 L -652.2323 -332.7817 L -651.1134 -331.0928 L -649.9888 -329.4 L -648.8637 -327.7113 L -647.3559 -325.4558 L -646.2191 -323.7608 L -644.6983 -321.5041 L -643.5519 -319.811 L -642.3979 -318.1141 L -641.2433 -316.4241 L -640.0799 -314.7275 L -638.9137 -313.0346 L -637.7421 -311.3417 L -636.5682 -309.6525 L -634.9917 -307.396 L -633.8046 -305.7054 L -632.6127 -304.0143 L -631.0177 -301.7633 L -629.814 -300.0737 L -628.6084 -298.3887 L -626.9901 -296.1379 L -625.7744 -294.4542 L -624.5546 -292.7695 L -623.3302 -291.0846 L -621.6906 -288.8376 L -620.4574 -287.1535 L -619.2225 -285.4711 L -617.567 -283.224 L -616.3258 -281.544 L -615.0789 -279.8631 L -613.826 -278.1768 L -612.1561 -275.9374 L -610.8966 -274.2551 L -609.6362 -272.5773 L -607.9469 -270.3354 L -606.6781 -268.6583 L -605.4025 -266.977 L -604.1253 -265.2997 L -602.4177 -263.0665 L -601.1301 -261.3887 L -599.8411 -259.7154 L -598.5495 -258.0437 L -597.2515 -256.3697 L -595.5186 -254.1431 L -594.208 -252.4658 L -592.4691 -250.2481 L -591.155 -248.5793 L -589.8386 -246.9137 L -588.0766 -244.6916 L -586.7565 -243.0342 L -585.4293 -241.3738 L -584.0987 -239.7144 L -582.7649 -238.057 L -580.9794 -235.847 L -579.6379 -234.1939 L -578.2914 -232.5416 L -576.9394 -230.8885 L -575.1347 -228.6922 L -573.7751 -227.0466 L -572.4104 -225.4009 L -571.0449 -223.7617 L -569.6753 -222.1246 L -568.2986 -220.4862 L -566.4591 -218.3095 L -565.0754 -216.6803 L -563.226 -214.5139 L -561.832 -212.8883 L -559.9709 -210.7284 L -558.5675 -209.108 L -556.696 -206.9573 L -555.2853 -205.3444 L -553.8703 -203.7339 L -551.9805 -201.596 L -550.5542 -199.9915 L -548.6515 -197.8628 L -547.2156 -196.2656 L -545.2998 -194.1471 L -543.854 -192.5581 L -541.9232 -190.4485 L -540.4665 -188.8658 L -538.5153 -186.7579 L -537.0591 -185.1944 L -535.5884 -183.622 L -534.1169 -182.0566 L -532.1486 -179.9739 L -530.6661 -178.4129 L -529.1827 -176.857 L -527.1962 -174.7836 L -525.7006 -173.2291 L -523.7083 -171.166 L -522.2065 -169.6161 L -520.7041 -168.0697 L -518.6956 -166.0079 L -517.1895 -164.4656 L -515.1747 -162.407 L -513.6649 -160.8671 L -511.645 -158.8105 L -510.1294 -157.27 L -508.1049 -155.2157 L -506.5851 -153.6758 L -504.5589 -151.6254 L -503.0344 -150.0852 L -501.5101 -148.5469 L -499.9835 -147.0083 L -498.4564 -145.471 L -496.9246 -143.9306 L -495.3963 -142.3954 L -493.8644 -140.8587 L -492.3279 -139.32 L -490.2831 -137.2751 L -488.7405 -135.7348 L -486.6929 -133.6936 L -485.1494 -132.1579 L -483.0924 -130.114 L -481.5462 -128.5808 L -479.9971 -127.0467 L -477.9287 -125.0025 L -476.3727 -123.4678 L -474.3016 -121.4289 L -472.7418 -119.8961 L -471.1789 -118.3627 L -469.1015 -116.3281 L -467.5369 -114.798 L -465.9687 -113.2663 L -463.8809 -111.2293 L -462.3131 -109.7019 L -460.7426 -108.1736 L -459.1702 -106.6446 L -457.5975 -105.1172 L -456.02 -103.5868 L -454.4449 -102.0603 L -452.8677 -100.533 L -450.7615 -98.4949 L -449.1818 -96.967 L -447.598 -95.4356 L -446.0184 -93.9084 L -444.4336 -92.3763 L -442.3246 -90.3378 L -440.738 -88.8039 L -438.6263 -86.7632 L -437.0372 -85.2272 L -434.9234 -83.1848 L -433.3354 -81.6507 L -431.7472 -80.1167 L -429.6252 -78.0681 L -428.0358 -76.5345 L -425.9121 -74.4859 L -424.3196 -72.9503 L -422.1956 -70.9031 L -420.6023 -69.3682 L -419.003 -67.828 L -416.8765 -65.7809 L -415.2773 -64.2424 L -413.6784 -62.7043 L -412.0798 -61.1669 L -410.4754 -59.6249 L -408.3424 -57.5757 L -406.7376 -56.034 L -404.5999 -53.9819 L -402.9958 -52.4424 L -400.8534 -50.3872 L -399.2482 -48.8464 L -397.1046 -46.7883 L -395.4997 -45.246 L -393.892 -43.6996 L -392.2831 -42.1507 L -390.1462 -40.0904 L -388.5401 -38.5388 L -386.4034 -36.4715 L -384.7994 -34.917 L -383.1962 -33.3611 L -381.5951 -31.8055 L -379.4561 -29.7251 L -377.8574 -28.1684 L -376.2552 -26.6064 L -374.6551 -25.0461 L -373.0539 -23.4838 L -371.4512 -21.9189 L -369.3192 -19.8361 L -367.7198 -18.2727 L -366.1167 -16.706 L -363.9834 -14.6194 L -362.3812 -13.0522 L -360.2482 -10.9638 L -358.6458 -9.3944 L -356.5121 -7.3035 L -354.9123 -5.7349 L -353.3119 -4.1656 L -351.712 -2.5958 L -350.1088 -1.0224 L -348.5104 .5471 L -346.3767 2.6425 L -344.7699 4.2215 L -342.6431 6.3114 L -341.0403 7.8861 L -339.4423 9.4559 L -337.8364 11.0331 L -335.7109 13.1188 L -334.1111 14.6875 L -331.9811 16.7747 L -330.3845 18.3379 L -328.7894 19.8979 L -327.199 21.452 L -325.6059 23.0069 L -324.0182 24.5548 L -321.9047 26.6133 L -320.3202 28.1544 L -318.7399 29.6901 L -317.1622 31.222 L -315.0605 33.2603 L -313.4868 34.7851 L -311.9155 36.3062 L -309.8281 38.3255 L -308.2628 39.8383 L -306.1831 41.8464 L -304.6212 43.3536 L -303.0635 44.8559 L -301.5071 46.3561 L -299.439 48.3481 L -297.8976 49.8315 L -295.8419 51.8084 L -294.3078 53.2826 L -292.7752 54.7545 L -291.2478 56.2205 L -289.2149 58.1703 L -287.6972 59.625 L -286.1814 61.077 L -284.6691 62.5248 L -282.6619 64.4451 L -281.1602 65.8807 L -279.1623 67.7891 L -277.6704 69.2132 L -276.1801 70.6349 L -274.2004 72.5221 L -272.7169 73.9351 L -270.7531 75.804 L -269.2804 77.2045 L -267.3251 79.0626 L -265.8618 80.4526 L -264.4035 81.8373 L -262.4634 83.6792 L -261.0154 85.0541 L -259.569 86.4278 L -257.6499 88.2513 L -256.2139 89.6168 L -254.7844 90.9771 L -252.8836 92.7876 L -251.463 94.1422 L -250.0481 95.4928 L -248.6353 96.8428 L -246.763 98.634 L -245.3631 99.9752 L -243.9659 101.3152 L -242.5765 102.6493 L -240.735 104.4199 L -239.3625 105.7414 L -237.5482 107.4905 L -236.1967 108.795 L -234.8518 110.0946 L -233.0734 111.8147 L -231.7465 113.0992 L -229.9889 114.8014 L -228.6748 116.0747 L -226.9375 117.7586 L -225.6426 119.0136 L -224.3551 120.2614 L -223.0741 121.503 L -221.3788 123.1467 L -220.1149 124.3724 L -218.8564 125.5936 L -217.605 126.8087 L -216.3592 128.0193 L -215.1145 129.23 L -213.471 130.8308 L -212.2417 132.0297 L -210.6107 133.6231 L -209.3953 134.8124 L -208.1828 136.0005 L -206.9769 137.1839 L -205.3757 138.7578 L -204.1817 139.9331 L -202.9916 141.1057 L -201.8071 142.2738 L -200.6268 143.4385 L -199.4506 144.5998 L -197.8905 146.1404 L -196.7232 147.2933 L -195.1752 148.822 L -194.0196 149.9628 L -192.8676 151.0995 L -191.3368 152.6092 L -190.1918 153.7378 L -189.0524 154.86 L -187.9154 155.9793 L -186.7817 157.0945 L -185.278 158.5728 L -184.1552 159.6757 L -183.0349 160.7756 L -181.9173 161.8723 L -180.8048 162.9635 L -179.3256 164.4135 L -178.2221 165.4944 L -177.1215 166.5712 L -176.0206 167.6471 L -174.5637 169.0688 L -173.4711 170.1329 L -172.0216 171.5417 L -170.9346 172.5955 L -169.8527 173.6421 L -168.4136 175.0308 L -167.3393 176.0654 L -165.9164 177.4338 L -164.8555 178.4527 L -163.449 179.8026 L -162.398 180.8106 L -161.3527 181.8131 L -159.973 183.1364 L -158.9424 184.1251 L -157.5805 185.4319 L -156.5674 186.4042 L -155.2363 187.6822 L -154.2511 188.6285 L -153.281 189.5602 L -152.3255 190.4773 L -151.0773 191.6741 L -150.1608 192.5514 L -149.2623 193.4102 L -148.0912 194.5272 L -147.2337 195.3429 L -146.3937 196.1398 L -145.5695 196.9193 L -144.7573 197.6844 L -143.7104 198.6658 L -142.9382 199.3853 L -142.1813 200.0871 L -141.4382 200.7721 L -140.7108 201.4389 L -139.7617 202.3028 L -139.0677 202.9299 L -138.1603 203.7434 L -137.4953 204.3351 L -136.6163 205.1114 L -135.9644 205.6825 L -135.3154 206.2473 L -134.4573 206.9888 L -133.8175 207.5372 L -133.1828 208.0773 L -132.3412 208.7867 L -131.7137 209.3102 L -131.0903 209.8253 L -130.2637 210.5005 L -129.6454 210.999 L -128.8279 211.6494 L -128.2176 212.1282 L -127.6088 212.5997 L -126.8003 213.2164 L -126.1975 213.6688 L -125.5962 214.1141 L -124.9969 214.5518 L -124.2012 215.1234 L -123.606 215.544 L -123.0137 215.9567 L -122.2272 216.4958 L -121.6381 216.8926 L -120.8569 217.41 L -120.2717 217.7908 L -119.689 218.1643 L -118.9127 218.6529 L -118.3319 219.012 L -117.7507 219.3655 L -117.1683 219.714 L -116.5879 220.0555 L -115.8105 220.5039 L -115.2274 220.8336 L -114.6419 221.1589 L -113.8575 221.5857 L -113.268 221.8996 L -112.4776 222.311 L -111.8819 222.6139 L -111.2819 222.9127 L -110.6798 223.2065 L -109.87 223.5918 L -109.2581 223.8758 L -108.6416 224.1556 L -108.0191 224.4319 L -107.3927 224.7036 L -106.7605 224.9716 L -106.1233 225.2354 L -105.2661 225.5803 L -104.6166 225.8343 L -103.9619 226.084 L -103.3009 226.3295 L -102.413 226.6493 L -101.7394 226.8843 L -101.0605 227.1149 L -100.1455 227.4157 L -99.4521 227.6359 L -98.752 227.8517 L -97.8098 228.1317 L -97.0957 228.3359 L -96.377 228.5346 L -95.4079 228.792 L -94.6748 228.9789 L -93.9347 229.1608 L -93.1889 229.3376 L -92.438 229.5092 L -91.679 229.6762 L -90.9151 229.8377 L -89.8883 230.045 L -89.1107 230.1947 L -88.3269 230.339 L -87.5377 230.478 L -86.7343 230.6128 L -85.673 230.7809 L -84.8649 230.9012 L -84.0498 231.0159 L -83.2301 231.1247 L -82.1275 231.2607 L -81.2956 231.3555 L -80.174 231.4728 L -79.3327 231.5528 L -78.4829 231.627 L -77.3412 231.7157 L -76.4798 231.7747 L -75.6128 231.8269 L -74.7426 231.8721 L -73.8657 231.9107 L -72.6907 231.9511 L -71.8045 231.9732 L -70.9137 231.9883 L -69.7189 231.9976 L -68.8168 231.9965 L -67.9114 231.9884 L -67.0024 231.9733 L -65.7841 231.9423 L -64.8653 231.9111 L -63.9437 231.8733 L -63.0173 231.8291 L -62.0869 231.779 L -60.8424 231.7038 L -59.9033 231.6416 L -58.9642 231.5755 L -58.0195 231.5054 L -56.7571 231.4072 L -55.808 231.3304 L -54.5382 231.2245 L -53.5852 231.1428 L -52.3104 231.0313 L -51.3546 230.9468 L -50.3968 230.8615 L -49.121 230.7482 L -48.1607 230.6638 L -47.202 230.5809 L -46.2401 230.4998 L -44.9581 230.3958 L -43.9938 230.3213 L -43.0288 230.2506 L -42.0643 230.1843 L -41.0966 230.1226 L -39.8065 230.0489 L -38.8374 230.0002 L -37.5451 229.9448 L -36.5721 229.9104 L -35.278 229.8749 L -34.3044 229.8558 L -33.0067 229.841 L -32.0324 229.8377 L -30.7331 229.8439 L -29.7583 229.8567 L -28.4569 229.8845 L -27.4819 229.9139 L -26.5055 229.9508 L -25.5302 229.9954 L -24.5546 230.0478 L -23.5777 230.1084 L -22.6033 230.1772 L -21.6274 230.2547 L -20.3273 230.3719 L -19.3525 230.4704 L -18.0551 230.6162 L -17.0822 230.7371 L -16.1085 230.8681 L -15.1365 231.0084 L -13.8445 231.2095 L -12.8756 231.3705 L -11.9085 231.54 L -10.6196 231.7814 L -9.6558 231.9742 L -8.6924 232.1775 L -7.7314 232.3907 L -6.7718 232.6139 L -5.4954 232.9265 L -4.5404 233.1719 L -3.2701 233.5132 L -2.3186 233.7798 L -1.0539 234.1482 L -.107 234.434 L 1.1528 234.8271 L 2.0949 235.1303 L 3.0358 235.4407 L 4.2881 235.8653 L 5.2248 236.1912 L 6.1612 236.5235 L 7.4067 236.9756 L 8.3395 237.321 L 9.5809 237.7901 L 10.5097 238.1481 L 11.7459 238.6343 L 12.6714 239.0057 L 13.5954 239.3832 L 14.8228 239.8959 L 15.7405 240.2876 L 16.9598 240.8203 L 17.8714 241.2283 L 19.078 241.7831 L 19.9798 242.2094 L 21.1736 242.7886 L 22.066 243.2319 L 22.9534 243.6815 L 23.837 244.1384 L 25.0094 244.7599 L 25.8847 245.2359 L 26.7603 245.7221 L 27.6333 246.2166 L 28.7992 246.8923 L 29.67 247.408 L 30.5446 247.9354 L 31.7072 248.6508 L 32.5806 249.1987 L 33.7466 249.9436 L 34.6185 250.5103 L 35.4937 251.0871 L 36.6707 251.8747 L 37.5382 252.4633 L 38.7148 253.2711 L 39.6051 253.8895 L 40.4988 254.5164 L 41.6927 255.3623 L 42.5925 256.0053 L 43.7966 256.8725 L 44.7028 257.5293 L 45.6132 258.1924 L 46.5287 258.8617 L 47.7533 259.7598 L 48.6791 260.4398 L 49.9139 261.3463 L 50.8477 262.0305 L 51.7847 262.7142 L 53.0406 263.6243 L 53.9851 264.3021 L 54.9314 264.9741 L 55.8806 265.6394 L 56.8285 266.2943 L 58.096 267.1537 L 59.0487 267.7865 L 60.002 268.4083 L 61.2783 269.2224 L 62.235 269.8192 L 63.1943 270.4061 L 64.4781 271.1743 L 65.443 271.7391 L 66.4116 272.2956 L 67.7049 273.0224 L 68.6783 273.5567 L 69.6536 274.0811 L 70.6302 274.5968 L 71.6102 275.1034 L 72.9196 275.7632 L 73.9044 276.2473 L 74.8908 276.7224 L 75.8808 277.191 L 77.1991 277.805 L 78.1921 278.259 L 79.5181 278.8542 L 80.5178 279.2945 L 81.8558 279.874 L 82.8635 280.3037 L 83.8756 280.7295 L 85.2311 281.2904 L 86.2541 281.7063 L 87.6225 282.2525 L 88.655 282.657 L 89.692 283.0565 L 91.081 283.5813 L 92.1276 283.9687 L 93.1787 284.3508 L 94.5864 284.8517 L 95.6482 285.2212 L 96.714 285.5847 L 98.1435 286.0605 L 99.2228 286.4108 L 100.3065 286.7548 L 101.3968 287.093 L 102.4931 287.4251 L 103.965 287.8585 L 105.0742 288.1757 L 106.1925 288.4871 L 107.6924 288.8922 L 108.8262 289.1887 L 109.9639 289.478 L 111.11 289.761 L 112.2623 290.0373 L 113.8089 290.3952 L 114.9787 290.656 L 116.1521 290.9092 L 117.3354 291.156 L 118.9197 291.4732 L 120.1173 291.7028 L 121.3218 291.9251 L 122.5318 292.1397 L 123.7477 292.3465 L 124.9715 292.5455 L 126.2007 292.7361 L 127.8476 292.9771 L 129.0895 293.1477 L 130.7553 293.3618 L 132.0114 293.5121 L 133.2763 293.6541 L 134.543 293.7872 L 135.8153 293.9119 L 137.0939 294.0286 L 138.3806 294.138 L 139.6666 294.2393 L 141.3926 294.3644 L 142.6942 294.4507 L 144.434 294.5543 L 145.7478 294.6234 L 147.064 294.6853 L 148.3883 294.7404 L 149.7162 294.7884 L 151.4976 294.841 L 152.8385 294.872 L 154.6346 294.9022 L 155.9893 294.9165 L 157.8046 294.9247 L 159.1739 294.9229 L 160.5479 294.9145 L 162.3945 294.8933 L 163.7872 294.8705 L 165.6557 294.8324 L 167.0666 294.7991 L 168.9627 294.7508 L 170.3969 294.7126 L 171.8394 294.6744 L 173.2953 294.6372 L 174.759 294.602 L 176.7325 294.5595 L 178.2211 294.5319 L 179.7237 294.5085 L 181.7445 294.4846 L 183.274 294.4724 L 184.8183 294.4652 L 186.3732 294.463 L 187.9432 294.4653 L 189.5249 294.4721 L 191.6562 294.4875 L 193.2734 294.5035 L 194.9041 294.5228 L 196.5538 294.5453 L 198.7749 294.5797 L 200.4605 294.6086 L 202.1705 294.6402 L 204.461 294.6857 L 206.2087 294.7227 L 208.5535 294.7753 L 210.3372 294.8175 L 212.7408 294.8773 L 214.566 294.9248 L 216.4073 294.9744 L 218.2697 295.0257 L 220.775 295.0964 L 222.6773 295.1506 L 225.2364 295.2233 L 227.1826 295.278 L 229.7951 295.3489 L 231.7703 295.3995 L 233.7561 295.4475 L 235.7543 295.4918 L 237.7725 295.5323 L 240.4835 295.5796 L 242.5349 295.6099 L 244.5995 295.6357 L 246.6809 295.6575 L 248.7737 295.6748 L 250.8842 295.6881 L 253.0107 295.6975 L 255.1499 295.7035 L 258.0262 295.707 L 260.2017 295.7069 L 262.3912 295.7048 L 264.5933 295.701 L 266.8128 295.696 L 269.7988 295.6882 L 272.0469 295.6812 L 274.3141 295.6735 L 276.5925 295.6656 L 279.6565 295.6539 L 281.9679 295.6443 L 284.2935 295.6343 L 286.6376 295.6233 L 289.7756 295.6079 L 292.1506 295.5956 L 294.5329 295.5829 L 296.932 295.5704 L 299.3475 295.558 L 301.7686 295.5462 L 305.0235 295.532 L 307.4774 295.5224 L 309.9459 295.5144 L 312.4241 295.508 L 314.9168 295.5034 L 318.2573 295.5003 L 320.7707 295.5002 L 323.2947 295.5018 L 325.8261 295.5056 L 328.373 295.5114 L 330.9281 295.5197 L 333.4969 295.5301 L 336.0773 295.5423 L 339.5286 295.5613 L 341.2912 295.5721 L 344.7443 295.5947 L 347.3704 295.6129 L 350.0118 295.6318 L 353.536 295.6578 L 356.1971 295.6769 L 359.7593 295.7022 L 362.447 295.7215 L 365.1395 295.7407 L 367.8485 295.7604 L 371.4675 295.7878 L 374.2009 295.8102 L 376.939 295.8344 L 379.6924 295.8607 L 383.3745 295.8992 L 386.1492 295.9306 L 389.8686 295.9754 L 392.664 296.0104 L 395.474 296.0465 L 398.3006 296.0832 L 402.0656 296.1312 L 404.9097 296.1667 L 408.7115 296.2113 L 411.5764 296.243 L 414.4535 296.2728 L 418.2992 296.3092 L 421.1959 296.3337 L 424.1073 296.3561 L 427.0166 296.3765 L 429.9455 296.3952 L 433.8571 296.4182 L 436.8059 296.4342 L 439.7588 296.4493 L 443.7153 296.4693 L 446.6918 296.4847 L 450.6737 296.5056 L 453.6712 296.5215 L 456.6798 296.5381 L 459.6959 296.5548 L 462.7171 296.5719 L 465.755 296.5894 L 469.8059 296.6119 L 472.8624 296.6283 L 475.9201 296.6436 L 478.9917 296.6572 L 482.13 296.6698 L 486.1912 296.6845 L 489.3009 296.6942 L 493.4298 296.706 L 496.5453 296.7143 L 499.6788 296.7225 L 503.8502 296.7333 L 506.9902 296.7424 L 510.1418 296.7529 L 513.2986 296.7645 L 516.4555 296.7777 L 520.6784 296.7982 L 523.853 296.8156 L 528.0942 296.8411 L 531.2912 296.8614 L 535.5501 296.8903 L 538.7611 296.9124 L 543.0444 296.9427 L 546.2693 296.965 L 550.5824 296.9944 L 553.815 297.0155 L 558.1466 297.0429 L 561.4008 297.0626 L 564.6641 297.081 L 569.0225 297.104 L 572.2981 297.1203 L 576.6753 297.1402 L 579.9718 297.1537 L 583.269 297.1662 L 587.6803 297.1822 L 591.0004 297.1936 L 595.4204 297.2078 L 598.7477 297.2183 L 602.0823 297.2287 L 605.4275 297.2397 L 608.7733 297.2518 L 613.2502 297.2696 L 616.6116 297.285 L 621.1095 297.3085 L 624.4864 297.3282 L 627.8745 297.35 L 631.2581 297.3736 L 634.6593 297.3991 L 639.1964 297.4353 L 642.6085 297.4637 L 646.0232 297.4929 L 649.4475 297.5226 L 652.8772 297.5529 L 657.4558 297.5924 L 660.9058 297.6219 L 664.3493 297.651 L 667.8113 297.68 L 671.2682 297.7079 L 675.8957 297.7446 L 679.3672 297.7713 L 682.8583 297.7977 L 686.337 297.8232 L 689.8324 297.8483 L 694.4977 297.8807 L 698.0003 297.9047 L 702.6863 297.9358 L 706.2019 297.9591 L 709.7312 297.9817 L 714.4384 298.011 L 717.9727 298.0321 L 721.5162 298.0534 L 725.0644 298.0739 L 729.8046 298.1012 L 733.3471 298.1206 L 736.8928 298.1398 L 740.4383 298.1581 L 743.9708 298.1761 L 747.4963 298.1936 L 752.1722 298.2163 L 755.6627 298.2322 L 759.1371 298.2477 L 762.592 298.2624 L 766.0303 298.2765 L 769.4494 298.2897 L 772.8458 298.3019 L 777.3544 298.3171 L 780.7092 298.3275 L 785.1705 298.3403 L 788.4729 298.3485 L 791.7693 298.3559 L 795.0558 298.3624 L 798.3082 298.368 L 801.552 298.3726 L 804.7746 298.3762 L 807.9775 298.3791 L 811.161 298.3811 L 815.3599 298.383 L 818.4844 298.3837 L 821.5831 298.3839 L 824.6632 298.3839 L 827.7178 298.3838 L 831.7499 298.3836 L 834.7536 298.3843 L 838.7126 298.3867 L 841.6621 298.3889 L 844.5822 298.3923 L 847.4827 298.3973 L 850.3614 298.4033 L 853.216 298.4108 L 856.9827 298.4228 L 859.7874 298.4338 L 863.4851 298.45 L 866.238 298.464 L 869.8672 298.4847 L 872.5672 298.5014 L 875.2508 298.5187 L 877.9089 298.5365 L 880.5466 298.5543 L 883.162 298.5715 L 886.609 298.5932 L 889.1682 298.608 L 891.7071 298.6213 L 894.2219 298.6331 L 896.7191 298.6431 L 900.014 298.6536 L 902.4663 298.6597 L 905.7113 298.6661 L 908.1287 298.6703 L 910.5365 298.6743 L 913.7389 298.6799 L 916.1335 298.6852 L 918.5245 298.6916 L 921.6996 298.7033 L 924.0782 298.7143 L 926.4474 298.728 L 929.6008 298.7498 L 931.9609 298.769 L 935.0949 298.798 L 937.4437 298.8224 L 940.55 298.8571 L 942.8716 298.8849 L 945.174 298.9135 L 947.463 298.9435 L 950.4858 298.9839 L 952.7317 299.015 L 954.9582 299.0461 L 957.1643 299.0776 L 960.0736 299.1192 L 962.2262 299.1504 L 964.3622 299.1816 L 966.4736 299.2123 L 968.5915 299.2432 L 971.3018 299.283 L 973.3288 299.3125 L 975.3309 299.3418 L 977.308 299.3706 L 979.9075 299.4088 L 981.8273 299.4369 L 983.722 299.4648 L 985.5943 299.4927 L 988.0477 299.53 L 989.8605 299.5582 L 992.2381 299.5966 L 993.9885 299.6263 L 995.7134 299.6567 L 997.9735 299.6985 L 999.6403 299.7313 L 1001.2754 299.7653 L 1003.4055 299.8138 L 1004.9699 299.8525 L 1006.501 299.8935 L 1008.4903 299.9523 L 1009.9483 300.0002 L 1011.3762 300.0507 L 1012.7732 300.1054 L 1014.1456 300.1643 L 1015.9402 300.2495 L 1017.2715 300.3192 L 1019.038 300.4204 L 1020.356 300.5023 L 1022.1038 300.6192 L 1023.4086 300.7126 L 1025.143 300.8451 L 1026.4327 300.9503 L 1028.1471 301.0998 L 1029.426 301.2189 L 1030.6999 301.3448 L 1031.9709 301.4782 L 1033.2376 301.6193 L 1034.4968 301.7683 L 1035.7437 301.925 L 1036.9837 302.0906 L 1038.6219 302.3255 L 1039.84 302.5128 L 1041.4489 302.7777 L 1042.6424 302.9875 L 1044.2204 303.2831 L 1045.3937 303.5168 L 1046.9404 303.8435 L 1048.0895 304.1003 L 1049.2286 304.3676 L 1050.7313 304.7406 L 1051.845 305.0328 L 1052.9492 305.3363 L 1054.0418 305.6504 L 1055.1232 305.9754 L 1056.1952 306.3121 L 1057.6046 306.7765 L 1058.6495 307.1369 L 1059.6841 307.5078 L 1061.0445 308.0167 L 1062.0537 308.4099 L 1063.3789 308.9468 L 1064.3622 309.3609 L 1065.3455 309.7884 L 1066.6082 310.3565 L 1067.5544 310.7967 L 1068.488 311.2436 L 1069.4127 311.6984 L 1070.3263 312.1602 L 1071.5298 312.7866 L 1072.4205 313.2638 L 1073.3029 313.7479 L 1074.1758 314.2382 L 1075.3254 314.9014 L 1076.1792 315.4072 L 1077.0236 315.9178 L 1077.8607 316.4352 L 1078.6906 316.9593 L 1079.5114 317.4887 L 1080.3261 318.025 L 1081.3975 318.7482 L 1082.1942 319.2986 L 1082.98 319.8547 L 1084.0189 320.6077 L 1084.7847 321.1788 L 1085.5434 321.7571 L 1086.5435 322.5389 L 1087.2825 323.1326 L 1088.0169 323.7359 L 1088.7403 324.3438 L 1089.458 324.961 L 1090.1696 325.5854 L 1091.1081 326.4304 L 1091.8044 327.0736 L 1092.7242 327.9426 L 1093.4098 328.6047 L 1094.3133 329.4974 L 1094.9843 330.1762 L 1095.8736 331.0947 L 1096.5345 331.7915 L 1097.4065 332.7329 L 1098.0538 333.4482 L 1098.9082 334.4137 L 1099.5423 335.1465 L 1100.3822 336.1378 L 1101.0046 336.8895 L 1101.623 337.6511 L 1102.4352 338.6752 L 1103.0402 339.4534 L 1103.6385 340.2399 L 1104.2326 341.0351 L 1105.0134 342.1056 L 1105.5943 342.9187 L 1106.1695 343.7392 L 1106.7382 344.5694 L 1107.3005 345.4044 L 1107.8588 346.2503 L 1108.4085 347.102 L 1108.9506 347.962 L 1109.6623 349.1205 L 1110.1869 349.9973 L 1110.7046 350.883 L 1111.3811 352.0765 L 1111.8762 352.9778 L 1112.3637 353.8879 L 1112.9973 355.1115 L 1113.3171 355.7457 L 1113.9172 356.9731 L 1114.3616 357.9155 L 1114.9379 359.1814 L 1115.3588 360.1411 L 1115.7678 361.1053 L 1116.1671 362.0797 L 1116.5559 363.0632 L 1116.9325 364.0489 L 1117.4178 365.3734 L 1117.7684 366.3753 L 1118.1079 367.3849 L 1118.5416 368.7397 L 1118.8535 369.7652 L 1119.1518 370.7924 L 1119.5314 372.1727 L 1119.8014 373.2166 L 1120.0578 374.262 L 1120.38 375.6661 L 1120.6065 376.7241 L 1120.8203 377.7886 L 1121.0859 379.2141 L 1121.2705 380.2889 L 1121.4431 381.3691 L 1121.6554 382.8181 L 1121.7531 383.5441 L 1121.8911 384.64 L 1122.0178 385.7412 L 1122.1333 386.8465 L 1122.238 387.9583 L 1122.3315 389.072 L 1122.4143 390.192 L 1122.507 391.6919 L 1122.5638 392.8214 L 1122.6095 393.9574 L 1122.6438 395.0967 L 1122.6721 396.6206 L 1122.6798 397.7689 L 1122.6759 398.9197 L 1122.6598 400.0761 L 1122.6196 401.621 L 1122.5747 402.7856 L 1122.4953 404.3393 L 1122.4208 405.5104 L 1122.301 407.0722 L 1122.196 408.2486 L 1122.0782 409.4246 L 1121.9464 410.6049 L 1121.7497 412.1827 L 1121.5875 413.3639 L 1121.411 414.5494 L 1121.2212 415.7364 L 1121.0173 416.9279 L 1120.7247 418.5148 L 1120.4891 419.7069 L 1120.2397 420.9031 L 1119.9769 422.0978 L 1119.7005 423.2964 L 1119.3114 424.894 L 1119.0038 426.0953 L 1118.5736 427.6945 L 1118.2346 428.8986 L 1117.7632 430.5014 L 1117.3944 431.7061 L 1116.8824 433.3115 L 1116.4836 434.5168 L 1116.0717 435.7224 L 1115.6478 436.926 L 1115.2093 438.1331 L 1114.7597 439.3351 L 1114.139 440.9422 L 1113.6591 442.1446 L 1113.1651 443.3485 L 1112.6576 444.5506 L 1111.9585 446.1531 L 1111.4196 447.349 L 1110.8664 448.5443 L 1110.2908 449.7549 L 1109.7161 450.9294 L 1108.9199 452.5073 L 1108.3045 453.6879 L 1107.677 454.861 L 1107.0353 456.0282 L 1106.1602 457.5716 L 1105.4899 458.717 L 1104.8071 459.8542 L 1103.8746 461.3593 L 1103.161 462.4766 L 1102.4342 463.5867 L 1101.4459 465.0506 L 1100.6893 466.1386 L 1099.9175 467.2207 L 1099.1357 468.292 L 1098.3402 469.3568 L 1097.2625 470.763 L 1096.439 471.8105 L 1095.6048 472.8501 L 1094.4763 474.2253 L 1093.6143 475.2527 L 1092.4558 476.6051 L 1091.5708 477.6165 L 1090.6784 478.6193 L 1089.7764 479.6181 L 1088.8645 480.6122 L 1087.943 481.6009 L 1086.7003 482.9105 L 1085.7581 483.8866 L 1084.4881 485.1813 L 1083.5255 486.1459 L 1082.5537 487.1073 L 1081.5746 488.0625 L 1080.2567 489.3292 L 1079.2566 490.2754 L 1077.9139 491.5261 L 1076.8957 492.4602 L 1075.5268 493.6967 L 1074.4906 494.6177 L 1073.0975 495.8377 L 1072.0431 496.7468 L 1070.9802 497.6503 L 1069.5516 498.8451 L 1068.4696 499.7344 L 1067.3799 500.617 L 1066.2815 501.4929 L 1065.175 502.3618 L 1063.6879 503.5081 L 1062.5606 504.3613 L 1061.427 505.2056 L 1060.2842 506.0432 L 1059.1335 506.8729 L 1057.5869 507.9672 L 1056.4171 508.7795 L 1055.241 509.5831 L 1054.0555 510.38 L 1052.8639 511.168 L 1051.663 511.9499 L 1050.4577 512.7223 L 1048.8372 513.7427 L 1047.6163 514.4979 L 1045.9763 515.4953 L 1044.7384 516.2351 L 1043.493 516.9687 L 1041.8272 517.9338 L 1040.5676 518.6511 L 1039.3047 519.3595 L 1038.0339 520.0618 L 1036.7571 520.7562 L 1035.0444 521.6705 L 1033.7553 522.3458 L 1032.0243 523.2349 L 1030.7194 523.8921 L 1028.9697 524.7555 L 1027.6491 525.3938 L 1026.3245 526.0229 L 1024.9929 526.6438 L 1023.2092 527.4583 L 1021.8633 528.06 L 1020.5137 528.6526 L 1018.707 529.429 L 1017.3428 530.0026 L 1015.9721 530.5683 L 1014.1374 531.3092 L 1012.7526 531.8555 L 1011.361 532.3944 L 1009.9587 532.9269 L 1008.5461 533.4528 L 1006.6518 534.1418 L 1005.2219 534.6505 L 1003.7838 535.1527 L 1002.3384 535.6482 L 1000.882 536.1385 L 999.4213 536.6218 L 997.4603 537.2572 L 995.9803 537.7276 L 993.991 538.3474 L 992.4903 538.8061 L 990.9805 539.2599 L 989.464 539.7085 L 987.9393 540.1524 L 985.8924 540.7366 L 984.3491 541.168 L 982.7987 541.5943 L 981.2384 542.016 L 979.6719 542.4314 L 978.0965 542.8417 L 976.5148 543.2459 L 974.9221 543.6452 L 972.7933 544.1673 L 971.1873 544.5522 L 969.5722 544.9317 L 967.9477 545.3058 L 965.7762 545.7945 L 964.1361 546.155 L 962.4912 546.5085 L 960.8363 546.8567 L 959.1766 547.1984 L 956.9527 547.6436 L 955.2752 547.9702 L 953.5919 548.29 L 951.3367 548.7057 L 949.6351 549.0101 L 947.9299 549.3071 L 945.6437 549.6926 L 943.9209 549.9732 L 942.1919 550.2464 L 940.4536 550.5126 L 938.1294 550.8552 L 936.3762 551.1039 L 934.032 551.4241 L 932.2642 551.656 L 930.4904 551.8808 L 928.707 552.0988 L 926.9239 552.3094 L 925.1261 552.5151 L 922.7273 552.7804 L 920.9167 552.9741 L 918.4941 553.2245 L 916.6673 553.407 L 914.8359 553.5852 L 912.9945 553.7598 L 911.1471 553.9312 L 909.2931 554.0997 L 906.808 554.3196 L 904.9379 554.4811 L 902.4287 554.6917 L 900.5398 554.8472 L 898.6452 555.0012 L 896.7391 555.154 L 894.1918 555.3573 L 892.27 555.5079 L 890.3425 555.6589 L 888.409 555.8104 L 885.82 556.0134 L 883.8697 556.1663 L 881.2589 556.3712 L 879.2937 556.5255 L 877.3191 556.6806 L 875.3429 556.8359 L 872.6924 557.0442 L 870.7012 557.2008 L 868.0363 557.4104 L 866.0267 557.5686 L 864.0155 557.7269 L 861.3183 557.9394 L 859.2927 558.0989 L 857.2526 558.2593 L 854.5344 558.4697 L 852.4864 558.6254 L 850.4272 558.7791 L 847.6778 558.9787 L 845.6057 559.1241 L 843.5302 559.2656 L 841.4459 559.4028 L 839.3531 559.5362 L 836.5616 559.7073 L 834.4568 559.8313 L 832.3459 559.9523 L 830.2277 560.0699 L 828.1049 560.1845 L 825.9757 560.2965 L 823.8384 560.406 L 820.9831 560.5485 L 818.832 560.6529 L 816.6428 560.7574 L 813.7928 560.8893 L 811.6254 560.9875 L 808.7234 561.1152 L 806.5392 561.2092 L 804.3515 561.3011 L 802.1523 561.3925 L 799.2207 561.5118 L 797.0121 561.6006 L 794.7986 561.6884 L 791.8325 561.8058 L 789.6093 561.8925 L 787.377 561.979 L 784.3906 562.0923 L 782.1467 562.1759 L 779.8961 562.2581 L 777.6373 562.3381 L 774.6233 562.4407 L 772.3503 562.5149 L 769.3129 562.6099 L 767.0348 562.6779 L 764.7434 562.7432 L 762.455 562.8062 L 760.1596 562.8675 L 757.0888 562.9478 L 754.7771 563.006 L 751.6916 563.0834 L 749.3707 563.1404 L 746.2705 563.2156 L 743.9361 563.2728 L 741.6007 563.33 L 738.4755 563.4074 L 736.1284 563.4657 L 733.7755 563.5245 L 731.4172 563.582 L 728.267 563.6577 L 725.8973 563.715 L 722.7332 563.7885 L 720.3533 563.8428 L 717.1762 563.913 L 714.786 563.9633 L 712.3887 564.0125 L 709.1916 564.0758 L 706.7865 564.1223 L 704.3788 564.1682 L 701.9565 564.2125 L 699.5135 564.2568 L 696.3182 564.3118 L 693.8888 564.3519 L 691.4583 564.3903 L 689.0205 564.4268 L 685.7668 564.4719 L 683.3208 564.5032 L 680.0508 564.5406 L 677.5483 564.5655 L 674.3165 564.5945 L 671.8524 564.613 L 668.5584 564.6345 L 666.0852 564.6477 L 663.6018 564.6582 L 661.1227 564.6667 L 658.6348 564.673 L 656.1089 564.6775 L 653.649 564.6806 L 650.3166 564.6815 L 647.8176 564.6798 L 645.3087 564.6772 L 641.9606 564.6702 L 639.4426 564.663 L 636.9283 564.6546 L 633.561 564.6402 L 631.0388 564.6271 L 628.4722 564.6122 L 625.1303 564.5895 L 622.5866 564.5709 L 619.22 564.5455 L 616.6867 564.525 L 613.3101 564.4949 L 610.7883 564.4724 L 608.2663 564.45 L 604.9215 564.4192 L 602.4151 564.3973 L 599.9048 564.3764 L 597.4239 564.3555 L 594.1108 564.3297 L 591.6317 564.3113 L 589.1562 564.2931 L 586.6914 564.2755 L 583.4118 564.2528 L 581.779 564.2428 L 578.5155 564.2231 L 576.0745 564.2092 L 572.8294 564.1929 L 570.405 564.1821 L 567.9826 564.1712 L 565.5662 564.162 L 562.3603 564.1504 L 559.9554 564.1431" stroke-width="28" stroke="grey" fill="none" id="Track"/></svg>