<svg class="track" xmlns="http://www.w3.org/2000/svg" preserveAspectRatio="xMinYMid meet" height="300" width="600" viewBox="-1200 -650 1 1200">
  <path d="M16.85 29.55 2.39 20.96l-13.66-8.09-14.45-8.51L-40-4l-13.33-7.79-23.76-14.02-23.26-13.95-24.34-14.78-15.44-9.41-14.5-8.86-12.08-7.37-12.49-7.64-11.22-6.88-11.33-6.93-10.79-6.61-8.63-5.28-9.53-5.83-9.17-5.6-9.36-5.73-8.93-5.47-8.02-4.91-8.11-4.97-7.73-4.74-6.93-4.24-6.61-4.03-5.13-3.09-6.02-3.54-4.95-2.84-5.27-2.95-4.02-2.18-4.9-2.55-3.5-1.7-4.04-1.8-3.9-1.55-4.22-1.49-3.82-1.19-7.87-1.86-8.02-.9-7.9.07-4.46.32-4.49.5-9.56 2.02-4.22 1.45-4.22 1.76-4.54 2.19-4.35 2.38-3.58 2.17-4.73 3.17-3.36 2.47-4.8 3.79-3.44 2.85-4.97 4.1-5.04 3.88-4.8 3.31-4.55 2.79-4.92 2.59-4.37 1.96-5.09 1.97-4.23 1.45-5.31 1.56-4.75 1.09-5.53.94-4.92.53-6.06.36-5.06.12-5.49-.02-6.23-.25-10.39-1.26-5.55-1.21-4.46-1.24-5.81-1.91-4.46-1.61-5.52-2.09-4.54-1.77-5.95-2.44-4.93-2.17-5.98-2.87-4.57-2.41-5.99-3.43-4.99-3.04-5.81-3.74-4.82-3.24-6.06-4.26-5.03-3.66-6.35-4.73-6.46-4.85-6.94-5.11-6.66-4.76-7.35-5.14-7.59-5.26-5.5-3.76-7.53-5.05-6.77-4.44-8.43-5.42-6.6-4.15-8.8-5.37-9.44-5.52-8.98-4.99-5.31-2.82-5.32-2.73-9.63-4.72-9.19-4.29-7.12-3.18-8.88-3.82-7.33-3.04-9.76-3.87-7.58-2.85-9.5-3.41-8.46-2.88-9.83-3.19-8.74-2.75-10.74-3.3-8.84-2.69-10.58-3.22-7.82-2.43-9.2-2.95-7.1-2.38-8.78-3.06-6.35-2.28-7.81-2.88-6.05-2.29-6.48-2.49-5.33-2.07-6.08-2.4-4.39-1.78-5.54-2.29-4.14-1.77-5.03-2.22-4.34-2.05-5.15-2.69-6.61-4.05-4.32-3.13-3.29-2.74-3.78-3.57-3.06-3.26-3.23-3.83-2.39-3.19-2.8-4.26-2.44-4.35-3.45-7.82-1.5-4.21-1.44-4.55-1.09-3.84-1.15-4.51-1.12-4.92-.97-4.68-1.63-7.68-1.19-4.36-1.52-4.45-1.47-3.52-2.03-4.06-2.16-3.57-2.39-3.3-2.77-3.19-2.66-2.56-2.31-1.93-3.54-2.52-3.62-2.13-4.12-1.97-2.56-1-2.65-.89-2.73-.75-4.51-.9-4.98-.52-5.08-.05-5.08.45-5.07.84-4.54.92-4.95 1.01-4.18.81-5.65.99-4.33.63-5.56.58-4.12.19-5.22-.15-3.36-.4-3.86-.83-3.12-.99-3.43-1.52-2.86-1.74-2.54-2.03-1.72-1.68-2.21-2.61-1.53-2.17-1.74-3.03-1.3-2.84-1.18-3.41-.87-3.58-.58-3.75-.31-3.89.11-6.95.78-7.59 1.21-7.95 1.84-8.24 2.89-8.65 1.95-4.4 2.44-4.58 2.81-4.45 2.97-4.03 3.5-4.06 3.62-3.58 4.46-3.72 4.3-3.03 4.59-2.74 9.29-4.27 9.71-2.77 10.87-1.15 6.46.13 6.19.54 5.16.73 5.94 1.17 4.83 1.23 5.94 1.88 4.77 1.84 6.17 2.82 5.7 3.07 5.91 3.71 5.73 4.14 5.22 4.26 4.13 3.7 5.23 5.14 5.28 5.8 4.42 5.48 4.34 6.12 3.7 5.97 3.36 6.1 3.31 6.54 3.03 6.13 2.71 5.3 3.23 5.96 2.94 5.15 3.73 6.19 4.18 6.46 3.7 5.29 3.42 4.46 4.8 5.6 5.2 5.28 5.59 4.98 5.98 4.75 10.95 7.77 12.25 7.64 12.64 6.61 12.87 5.36 7.66 2.65 5.89 1.84 8.57 2.43 6.72 1.76 9.01 2.27 7.08 1.75 8.94 2.15 9.82 2.26 18.12 4.09 19.83 4.41 19.25 4.08 10.64 2.3 11.51 2.61 11.12 2.59 11.41 2.66 8.74 1.99 11.91 2.7 12.93 2.94 13.21 3.07 11.08 2.59 12.88 3 11.46 2.66 13.27 3.11 10.85 2.55 14.19 3.37 10.87 2.58 14.38 3.4 13.75 3.25 14.81 3.48 14.16 3.31 14.34 3.35 15.45 3.6 9.19 2.13 9.24 2.15 9.29 2.16 15.91 3.72 16.04 3.83 15.2 3.72 16.29 4.03 13.51 3.38 16.55 4.15 29.52 7.43 16.95 4.22 17.08 4.22 35.61 8.8 16.49 3.99 31.27 7.28 18.76 4.36 17.19 4.12 15.49 3.88 15.76 4.08 12.48 3.24 14.63 3.71 11.62 2.89 13.64 3.33 10.16 2.47 13.18 3.22 13.04 3.2 12.11 3 9.62 2.39 11.5 2.89 8.97 2.27 11.06 2.83 8.44 2.17 9.37 2.43 6.57 1.71 7.82 2.04 7.03 1.82 5.97 1.53 5.8 1.47 5.03 1.25 5.31 1.28 4.51 1.07 4.29 1.01 3.35.78 5.77 1.27 3.95.8 4.2.75 3.96.58 3.16.34 3.83.25 3.1.09 4.05-.06 3.06-.2 3.66-.43 2.92-.53 3.71-.91 2.8-.89 3.84-1.46 2.55-1.12 3.61-1.77 2.99-1.62 3.46-2.03 2.85-1.79 2.2-1.48 3.73-2.71 1.3-1.02 3.61-3.04 3.37-3.18 1.89-1.9 2.53-2.65 2.66-2.76 2.48-2.42 3.09-2.69 2.97-2.27 3.07-2.02 3.36-1.83 3.22-1.42 2.46-.85 3.31-.88 3.17-.57 3.72-.37 2.9-.06 3.63.21 2.96.43 3.69.84 3.75 1.2 3.79 1.56 4.06 2.1 3.84 2.39 2.62 1.88 3.81 3.07 4.08 3.64 2.45 2.3 2.49 2.42 4.39 4.34 4.33 4.31 4.61 4.42 4.01 3.62 5.93 5.02 6.01 4.73 5.98 4.44 6.29 4.41 6.99 4.63 7.32 4.51 7.2 4.07 6.53 3.43 8.18 4.04 7.94 3.71 15.46 6.74 16.13 6.46 16.22 6 8.63 3.03 9.9 3.34 9.5 3.09 10.26 3.19 7.95 2.4 9.9 2.92 10.66 3.05 10.79 2.97 7.7 2.05 11.03 2.84 9.17 2.31 10.6 2.61 8.68 2.12 10.77 2.61 8.83 2.11 11.62 2.77 10.35 2.44 11.82 2.77 8.4 1.95 12.69 2.96 12.05 2.85 12.14 2.91 12.23 2.91 11.6 2.7 12.41 2.82 12.49 2.85 11.82 2.71 17.11 3.91 11.99 2.68 4.52 1 12.82 2.85 12.89 2.87 6.85 1.54 9.92 2.24 12.26 2.78 13.07 2.96 11.53 2.62 10.69 2.43 12.07 2.74 14.14 3.21 11.59 2.61 9.13 2.06 11.48 2.59 10.31 2.36 9.84 2.33 9.92 2.48 9.25 2.45 8.59 2.35 7.52 2.1 6.99 2 5.71 1.71 6.36 2.05 5.51 1.91 6.27 2.35 5.04 2.05 6.15 2.71 4.92 2.36 6.32 3.35 5.82 3.39 5.69 3.65 4.19 2.9 5.83 4.34 4.39 3.51 5.34 4.53 4.27 3.85 5.18 4.96 4.12 4.21 4.95 5.39 8.89 10.75 8.3 11.54 4.37 6.91 3.87 6.7 2.99 5.59 3.69 7.48 2.69 5.87 3.33 7.83 2.39 6.12 2.72 7.69 2.18 6.87 2.38 8.49 1.62 6.6 1.65 7.7 1.28 7.27 1.15 8.39.86 8.46.65 9.06.41 7.51.46 8.63.61 8.66.86 9.23.79 7.08 1.22 9.84.97 7.14 1.36 9.38 1.17 7.78 1.45 9.51 1.09 7.31 1.26 9.01 1 7.84.98 8.85.79 8.68.57 8.47.24 6.63-.03 8.2-.45 7.64-.85 7.02-1.14 6.47-1.07 5.05-1.29 5.47-1.18 4.54-.89 3.1-1.14 3.64-1.78 5.12-1.77 4.55-1.81 4.26-2.42 5.2-1.88 3.67-2.71 4.86-2.6 4.23-3.21 4.76-2.81 3.8-4.17 5.12-2.21 2.49-4.36 4.5-4.3 3.97-4.75 3.95-4.63 3.45-4.77 3.19-3.98 2.42-5.35 2.9-4.18 2.01-5.59 2.35-4.36 1.55-5.81 1.65-4.51.94-5.59.76-4.55.29-5.95-.05-4.54-.37-5.91-.93-4.5-1.03-5.81-1.77-4.38-1.69-5.61-2.63-3.85-2.13-4.96-3.2-4.99-3.82-4.34-3.95-3.25-3.45-3.64-4.51-2.89-4.16-3.01-4.96-2.07-3.85-2.78-5.98-1.74-4.45-1.81-5.61-1.51-6.08-1.05-6.17-.52-4.75-.29-6.22.06-4.73.41-5.79.57-4.67.99-6.05 1.25-6.03 2.81-10.5 1.72-5.17 1.83-4.76 2.36-5.32 2.16-4.21 2.95-5.03 2.63-3.94 3.69-5 3.16-4.09 3.92-5 2.8-3.58 4.07-5.12 3.48-4.27 4.07-5.01 3.59-4.56 4.14-5.45 3.64-4.99 4.09-5.81 3.18-4.71 3.7-5.78 3.49-5.75 3.49-6.1 3.06-5.72 4.96-10.37 4.08-10.52 1.82-5.89 1.62-6.68.86-4.85.72-5.95.29-5.18-.02-4.75-.35-5.79-.7-6.08-.84-4.94-1.36-5.89-1.31-4.4-2.08-5.5-2.04-4.25-1.63-2.85-2.74-3.96-3.47-3.99-3.59-3.24-3.85-2.79-7.77-4.4-7.97-3.1-8.2-1.57-4.64-.25-4.74.1-5.12.48-4.82.85-3.86.99-4.71 1.55-4.13 1.59-4.5 1.93-4.9 2.31-5 2.57-4.11 2.3-5.1 3.09-4.51 2.92-5.57 3.76-4.03 2.73-5.91 3.88-3.6 2.26-10.18 5.94-6.3 3.43-6.86 3.59-2.88 1.44-7.07 3.36-6.74 2.94-6.83 2.71-6.91 2.46-4.36 1.37-4.38 1.23-7.07 1.7-7.98 1.48-7.13 1-7.6.8-7.19.55-5.39.3-7.65.24-6.3.02-7.63-.23-5.83-.36-6.71-.57-6.24-.73-7.07-1.09-6.12-1.17-7.33-1.68-5.51-1.49-7.07-2.21-5.71-2.02-6.39-2.49-5.1-2.15-6.17-2.79-4.93-2.39-6.32-3.26-8-4.48-10.68-6.5-5.67-3.66-4.97-3.31-5.71-3.82-4.64-3.04-5.65-3.6-4.53-2.82-5.46-3.35-4.29-2.61-5.1-3.06-4.02-2.35-4.82-2.65-3.85-1.93-4.71-2.09-4.17-1.62-4.82-1.58-4.27-1.13-5.26-1.03-4.08-.6-5.09-.55-4.51-.34-5.21-.19-5.24.07-5.17.39-4.43.63-4.9 1.07-3.84 1.12-4.81 1.8-3.51 1.59-4.38 2.33-3.18 1.93-8.08 5.93-6.08 5.67-2.97 3.3-2.53 3.24-2.4 3.54-1.97 3.45-1.3 2.67-1.58 3.92-1.08 3.36-.96 3.73-.67 3.59-.53 4.23-.25 3.53-.12 4.76.06 3.46.33 4.68.48 3.81.85 4.6 1.03 4.49 1.09 4.38.85 3.52.95 4.3.71 3.71.69 4.48.31 3.08.13 3.87-.18 2.96-.49 3.05-.51 2.07-.73 2.28-.71 1.79-.92 1.97-.76 1.38-.99 1.57-1.15 1.58-1.19 1.42-1.39 1.42-1.57 1.37-1.34 1.01-1.95 1.25-1.77.96-2.29 1.02-1.84.66-2.52.68-2.03.36-2.61.26-2.22.05-2.83-.13-2.94-.35-3.07-.57-2.78-.71-3.54-1.11-3.71-1.4-3.89-1.68-4.1-1.91-4.07-1.99-4.54-2.31-4.46-2.4-4.96-2.8-4.85-2.87-5.21-3.21-3.96-2.52-4.7-3.07-4.59-3-5.89-3.81-4.77-3.01-6.58-4.09-5.7-3.51-7.24-4.43-5.18-3.16-7.39-4.47-5.72-3.42-7.81-4.63-6.23-3.68-8.46-4.99-6.71-3.95-8.52-5.04-11.03-6.55-13.75-8.21-7.66-4.57-7.81-4.67-10.44-6.26-8.18-4.9-10.88-6.53-8.5-5.1-11.35-6.77-9.54-5.65-11.1-6.55-9.17-5.39-11.47-6.73-10.17-5.98-12.5-7.36-9.6-5.67-12.55-7.45-9.58-5.72-12.51-7.52-9.56-5.78-12.49-7.55-11.75-7.1-12.49-7.54-9.55-5.75z" stroke-width="28" stroke="#000" fill="none"/>
  <path d="M16.846 29.554 2.394 20.959-11.27 12.87l-14.45-8.51-14.278-8.358-13.328-7.794-23.768-14.024-23.26-13.941-24.331-14.78-15.445-9.418-14.505-8.852-12.07-7.375-12.492-7.642-11.226-6.875-11.326-6.936-10.792-6.608-8.63-5.279-9.53-5.825-9.17-5.605-9.356-5.726-8.934-5.473-8.016-4.913-8.11-4.971-7.73-4.737-6.933-4.244-6.61-4.027-5.132-3.089-6.016-3.543-4.947-2.84-5.28-2.947-4.014-2.18-4.904-2.549-3.501-1.702-4.037-1.795-3.898-1.551-4.218-1.494-3.825-1.189-7.864-1.858-8.022-.903-7.902.072-4.464.317-4.483.505-9.563 2.018-4.225 1.446-4.215 1.762-4.536 2.197-4.352 2.378-3.585 2.171-4.731 3.17-3.358 2.467-4.799 3.789-3.439 2.847-4.971 4.098-5.038 3.886-4.804 3.311-4.546 2.786-4.917 2.595-4.372 1.955-5.093 1.974-4.226 1.447-5.31 1.556-4.75 1.1-5.536.935-4.92.534-6.059.355-5.06.12-5.485-.016-6.237-.253-10.383-1.258-5.554-1.21-4.46-1.24-5.808-1.907-4.457-1.612-5.528-2.093-4.532-1.768-5.958-2.443-4.921-2.169-5.98-2.874-4.575-2.406-5.991-3.427-4.989-3.046-5.81-3.737-4.822-3.244-6.057-4.252-5.034-3.66-6.345-4.73-6.462-4.851-6.939-5.112-6.663-4.757-7.348-5.147-7.59-5.257-5.501-3.763-7.528-5.05-6.768-4.435-8.433-5.417-6.6-4.151-8.8-5.375-9.44-5.524-8.982-4.989-5.305-2.815-5.324-2.73-9.634-4.724-9.189-4.284-7.111-3.182-8.883-3.825-7.334-3.038-9.755-3.865-7.587-2.857-9.499-3.402-8.459-2.88-9.832-3.199-8.738-2.745-10.735-3.299-8.842-2.689-10.578-3.22-7.827-2.431-9.194-2.954-7.098-2.377-8.786-3.057-6.343-2.279-7.817-2.889-6.045-2.288-6.486-2.487-5.323-2.069-6.08-2.406-4.39-1.774-5.54-2.293-4.145-1.764-5.025-2.228-4.34-2.05-5.15-2.686-6.616-4.047-4.317-3.133-3.292-2.737-3.778-3.578-3.06-3.259-3.227-3.825-2.393-3.187-2.796-4.264-2.442-4.352-3.454-7.815-1.499-4.217-1.436-4.547-1.092-3.84-1.156-4.51-1.12-4.924-.962-4.673-1.631-7.682-1.19-4.361-1.524-4.452-1.467-3.52-2.028-4.061-2.163-3.568-2.388-3.297-2.77-3.186-2.666-2.565-2.311-1.925-3.539-2.521-3.612-2.13-4.125-1.972-2.558-1.007-2.652-.882-2.731-.753-4.511-.9-4.976-.524-5.087-.042-5.077.448-5.073.84-4.532.914-4.957 1.018-4.172.81-5.65.986-4.335.635-5.564.574-4.12.193-5.218-.15-3.36-.406-3.855-.822-3.12-.99-3.427-1.524-2.86-1.741-2.547-2.027-1.718-1.683-2.21-2.613-1.527-2.166-1.746-3.025-1.297-2.848-1.175-3.405-.874-3.584-.586-3.745-.306-3.892.11-6.952.782-7.593 1.205-7.949" stroke-width="12" stroke="#e73323" fill="none"/>
  <path d="m-1113.745-508.167 1.199-4.708 1.212-3.912 1.785-4.737 2.15-4.655 2.366-4.287 2.874-4.425 3.03-3.992 3.561-4.014 3.92-3.743 4.292-3.458 4.356-2.975 4.637-2.691 3.961-1.952 5.423-2.188 4.312-1.363 5.802-1.304 4.878-.641 6.03-.272 6.12.209 6.575.655 5.172.809 5.57 1.172 4.84 1.29 5.923 1.961 4.764 1.904 6.147 2.899 6.029 3.358 5.531 3.577 5.695 4.215 5.193 4.324 4.413 4.041 5.18 5.214 4.939 5.553 4.626 5.889 4.24 6.179 3.395 5.631 3.506 6.502 3.266 6.54 2.848 5.734 2.73 5.28 3.457 6.316 2.76 4.769 3.995 6.534 3.993 6.087 3.752 5.263 3.463 4.425 5.168 5.862 5.294 5.205 5.685 4.923 5.697 4.432 4.84 3.509 6.2 4.228 5.642 3.614 6.702 3.973 5.62 3.05 7.095 3.445 5.926 2.56 7.02 2.701 14.12 4.56 14.866 4 16.172 4.03 8.996 2.14 9.879 2.264 8.377 1.888 10.466 2.364 8.237 1.85 11.087 2.422 8.62 1.825 10.64 2.25 11.327 2.48 10.894 2.491 11.173 2.608 11.461 2.654 8.788 2 12.707 2.875 12.231 2.8 13.249 3.087 11.119 2.594 12.928 3.002 11.491 2.674 13.305 3.119 10.845 2.559 14.193 3.366 11.723 2.784 13.58 3.214 13.784 3.25 14.86 3.488 14.19 3.32 15.288 3.568 14.581 3.394 27.77 6.45 16.868 3.96 15.118 3.63 15.23 3.736 17.273 4.29 12.58 3.142 16.558 4.162 9.807 2.474 9.858 2.482 16.884 4.217 17.022 4.215 16.154 3.993 10.154 2.512 10.205 2.521 9.225 2.27 16.517 3.982 14.555 3.403 17.796 4.096 17.66 4.124 17.058 4.124 16.307 4.12 15.597 4.046 11.543 2.985 15.31 3.87 10.717 2.648 13.55 3.306 10.144 2.467 13.921 3.4 12.247 3.013 21.63 5.375 20.952 5.291 19.117 4.907 15.563 4.053 10.135 2.638 6.6 1.699 5.98 1.52 5.177 1.298 5.124 1.247 2.897.691 4.462 1.056 4.255 1.001 3.334.769 3.513.781 2.233.476 3.946.783 4.21.731 3.946.547 3.149.311 3.826.223 3.34.056 3.806-.096 3.035-.227 3.654-.476 3.116-.608 3.483-.916 3-.996 3.413-1.34 2.765-1.232 3.825-1.925L146.13-179l3.466-2.065 6.589-4.426 4.982-3.934 7.453-7.117 2.335-2.454 2.83-2.9 2.497-2.37 2.916-2.475 2.994-2.226 3.086-1.969 3.368-1.776 3.239-1.355 2.462-.811 3.32-.821 3.192-.53 3.734-.317 2.916-.012 3.856.31 2.742.453 3.702.905 3.758 1.26 3.8 1.64 4.068 2.172 8.116 5.735 3.816 3.293 7.65 7.251 4.165 4.143 4.377 4.336 4.678 4.435 4.382 3.904 5.687 4.737 6.07 4.732 6.433 4.712 6.359 4.395 7.062 4.607 6.958 4.212 13.826 7.442 8.232 4.022 7.978 3.696 7.157 3.166 8.371 3.545 7.479 3.036 8.723 3.404 6.667 2.502 9.608 3.473 9.214 3.205 9.966 3.337 9.541 3.062 9.69 2.995 7.969 2.396 10.547 3.088 10.053 2.854 10.817 2.962 8.363 2.209 10.418 2.665 9.186 2.294 10.612 2.61 8.694 2.118 10.793 2.609 8.837 2.118 11.643 2.767 10.361 2.441 11.842 2.763 9.115 2.117 12.003 2.807" stroke-width="12" stroke="#4fafdf" fill="none"/>
  <path d="m585.722-60.955 11.38 2.713 12.884 3.087 12.265 2.89 11.636 2.677 12.446 2.83 11.783 2.69 11.847 2.721 14.898 3.39 17.272 3.848 12.85 2.848 12.14 2.71 9.144 2.06 9.936 2.247 13.045 2.96 12.312 2.796 12.265 2.787 9.876 2.246 12.02 2.728 5.212 1.181 9.557 2.161 19.707 4.438 11.29 2.558 10.754 2.49 9.634 2.332 9.651 2.47 8.977 2.417 7.864 2.177 7.755 2.178 6.754 1.962 5.224 1.613 6.72 2.238 5.107 1.836 6.247 2.42 5.023 2.105 6.491 2.973 4.884 2.455 5.898 3.244 5.767 3.488 5.646 3.739 4.501 3.224 5.45 4.192 4.367 3.58 5.309 4.611 4.248 3.923 9.213 9.334 5.2 5.838 3.868 4.64 4.9 6.29 3.613 4.985 4.512 6.75 4.264 6.998 3.781 6.789 2.907 5.65 3.61 7.573 2.622 5.923 3.057 7.444 2.317 6.174 2.786 8.244 2.08 6.924 2.134 8.05 1.542 6.637 1.632 8.26 1.077 6.776 1.032 8.419.798 9.018.574 9.087.36 6.99.533 9.181.7 8.67.884 8.699.888 7.634 2.288 17.02 2.577 17.215 2.513 16.857 2.137 16.795.85 8.234.755 9.147.57 14.797-.207 7.977-.626 7.386-.98 6.778-1.225 6.307-1.02 4.58-1.397 5.682-.862 3.18-.9 3.077-1.571 4.831-1.763 4.83-3.715 8.827-4.628 9.165-5.328 8.753-5.748 7.919-4.003 4.806-3.247 3.533-4.184 4.137-4.643 4.118-4.533 3.61-4.683 3.352-8.853 5.435-9.94 4.87-10.049 3.621-10.028 2.195-10.499.754-10.13-.736-10.721-2.357-10.116-3.815-9.33-5.09-4.861-3.37-4.564-3.736-7.326-7.615-6.284-8.847-5.044-9.274-4.23-10.574-1.557-5.305-1.412-6.478-.709-4.732-.528-5.853-.15-5.116.185-5.813.456-5.049.79-5.728 1.1-6.043 1.345-6.004 1.296-4.908 1.59-5.21 1.558-4.462 2.18-5.395 1.995-4.291 2.932-5.457 2.289-3.724 3.529-5.092 3.09-4.1 3.875-4.97 3.004-3.843 3.762-4.788 3.15-3.926 4.262-5.217 3.318-4.116 4.37-5.613 3.632-4.844 4.415-6.115 3.027-4.363 4.078-6.156 3.39-5.408 3.415-5.75 3.402-6.091 2.98-5.717 2.25-4.642 2.542-5.743 1.859-4.708 2.02-5.853 1.78-6.278 1.363-6.326.797-5.217.537-5.941.127-3.682-.147-6.193-.49-5.76-.841-6.048-.882-4.557-1.598-6.179-1.442-4.316-2.257-5.357-3.747-6.575-3.068-4.037-3.402-3.55-3.929-3.236-3.95-2.63-3.355-1.93-4.284-2.118-3.567-1.44-4.454-1.355-3.67-.752-4.581-.513-4.972-.105-4.779.25-5.14.65-4.784 1.028-3.837 1.13-4.71 1.683-3.862 1.565-4.54 2.018-5.25 2.565-4.71 2.522-4.447 2.574-5.127 3.209-4.538 3.01-5.29 3.599-4.431 2.972-8.208 5.21-3.723 2.216-6.523 3.69-6.331 3.428-9.78 5.002-13.847 6.213-6.845 2.67-6.927 2.397-4.365 1.33-6.15 1.633-7.077 1.537-7.56 1.265-7.589.951-7.167.665-7.19.486-5.847.266-7.648.149-5.846-.066-7.63-.326-5.822-.416-7.148-.704-5.774-.764-7.478-1.275-6.08-1.265-6.855-1.692-5.89-1.7-7.006-2.325-5.25-1.944-6.346-2.558-5.064-2.198-6.504-3.031-4.884-2.438-5.907-3.138-8.309-4.76-4.629-2.805-5.666-3.571-4.964-3.243-5.69-3.81-4.643-3.097-5.693-3.698-4.574-2.888-5.542-3.43-4.727-2.893-4.896-2.968-9.31-5.437-8.306-4.204-8.917-3.518-9.448-2.548-9.397-1.428-9.333-.728-5.231-.095-5.22.186-9.509 1.27-8.889 2.535-8.144 3.616-6.68 3.95-2.09 1.431-2.9 2.155-3.377 2.785-2.779 2.543-3.32 3.407-2.85 3.361-2.42 3.28-2.274 3.597-1.74 3.277-1.312 2.93-1.463 3.995-.926 3.177-.91 4.036-.572 3.64-.4 4.014-.199 3.85-.025 4.54.14 3.494.437 4.69.573 3.786.928 4.563 1.135 4.713 1.018 4.086.818 3.505.947 4.545.656 3.706.55 4.18.233 3.266-.029 3.662-.292 2.74-.58 2.876-.509 1.814-.814 2.31-.677 1.592-.956 1.902-.774 1.329-1.085 1.633-1.198 1.552-1.24 1.38-1.459 1.397-3.06 2.337-3.867 2.127-4.23 1.545-4.651.874-4.933.134-2.873-.224-2.805-.409-6.151-1.51-3.61-1.231-3.554-1.422-4.205-1.876-4.193-2-4.157-2.068-4.625-2.413-4.548-2.5-5.039-2.906-4.59-2.757-9.185-5.817-9.821-6.416-10.938-6.932-12.575-7.746-12.507-7.627-13.242-7.925-14.307-8.457-14.892-8.775-18.642-11.072-13.835-8.256-9.502-5.68-7.894-4.725-10.548-6.321-8.248-4.95-10.34-6.205-9.24-5.525-11.456-6.817-8.924-5.281-11.886-6.999-8.53-5.005-12.278-7.208-10.217-6.008-11.814-6.965-9.609-5.688-12.524-7.453-10.306-6.174-12.5-7.534-9.55-5.772-11.766-7.114-11.758-7.102-22.028-13.28" stroke-width="12" stroke="#f7d347" fill="none"/>
</svg>
