<svg class="track" xmlns="http://www.w3.org/2000/svg" preserveAspectRatio="xMinYMid meet" height="300" width="600" viewBox="-610 -440 1 620">
  <path d="m139.71 99.64-9.54-.03-11.05-.03-12.56-.02H74.39l-9.09-.02-12.17-.01-10.71.01-12.31.02H19.27l-12.43-.01H-4.11l-13.3.02-10.25.03-14.22.03-10.3.03-13.54.04-13.56.04-13.64.04-9.68.02-13.78.02h-35.1l-14.7.03-10.53.04-13.65.09-13.54.1-13.46.09-12.7.09-13.57.14-13.63.19-12.91.17-13.6.18-8.7.12-12.53.21-12.37.25-12.96.3-9.8.24-11.87.29-10.12.24-11.25.27-8.89.21-10.71.24-8.49.18-10.12.16-10.17.07-9.53-.03-7.34-.08-7.87-.13-7.37-.13-7.9-.14-5.94-.18-6.58-.35-5.57-.5-5.75-.76-5.17-.96-5.63-1.41-5-1.62-5.38-2.11-3.93-1.76-4.67-2.31-3.65-1.98-4.59-2.73-3.61-2.39-3.94-2.88-2.82-2.3-3.8-3.47-3.02-3.06-3.64-3.98-2.77-3.23-3.54-4.48-2.6-3.61-3.24-4.97-1.8-3.05-2.89-5.4-2.21-4.63-2.48-5.82-1.64-4.22-2.1-5.74-1.64-4.75-2.05-6.34-1.51-4.96-1.78-6.23-1.27-4.76-1.58-6.45-1.13-5.33-1.15-6.57-.84-6.59-.47-7.02-.04-7.03.3-6.64.4-4.99.79-7.08.53-3.75 1.21-7.08 1.13-5.39 1.67-6.62 1.98-6.62 2.42-7.1 2.74-7.2 2.86-6.89 3.35-7.41 3.67-7.47 3.69-6.94 4.09-7.13 4.09-6.77 3.89-6.31 3.6-5.76 2.57-4.01 3.25-4.8 2.45-3.31 3.01-3.58 2.37-2.42 2.87-2.45 2.55-1.86 2.95-1.79 2.61-1.27 3.16-1.15 3.13-.75 2.9-.35 3-.02 2.81.28 3 .6 2.96.93 2.82 1.25 2.49 1.46 2.51 1.86 2.41 2.22 1.36 1.48 3.02 4.06 1.86 3.09.66 1.24 1.66 3.49 1.56 4.01 1.78 6.13.99 4.67 1.27 8.64.66 5.45.8 6.07.75 4.89 1.08 5.66 1.09 4.5 1.73 5.61 1.95 4.89 2.24 4.57 2.66 4.58 3.1 4.58 2.42 3.17 3.35 4.01 1.87 2.06 3.46 3.55 4.1 3.83 3.81 3.25 3.22 2.54 4.36 3.2 3.73 2.52 4.42 2.73 4.59 2.55 4.7 2.29 4.11 1.72 4.37 1.52 4.05 1.15 4.64 1.07 3.81.73 5.08.76 4.3.49 5.41.41 4.26.19 12.05.16h3.27l4.84-.03 6.18-.08 5.24-.09 6.69-.13 7.41-.16 7.72-.2 6.11-.18 8.75-.28 7.01-.22 8.2-.28 6.77-.25 8.9-.36 6.29-.24 8.9-.27 6.76-.18 8.27-.24 7.17-.23 8.64-.23 5.05-.1 8.58-.09 6.66-.04 8.97-.03 7.13-.01h9.7l7.68.01 9.16.01 10.73.01h11.12l10.81-.02 11.11-.03 9.25-.03 12.27-.01 9.36.02 12.07.06 9.09.06 11.01.1 8.8.1 11.35.15 5.92.09 11.65.2 8.29.16 10.05.22 9.89.23 10.83.28 7.54.21 8.91.25 7.41.2 8.03.14 7.55.05 7.02-.04 5.2-.07 5.7-.13 3.99-.12 4.41-.19 2.88-.18 3.38-.28 2.81-.32 3.04-.46 2.35-.46 2.87-.72 2.49-.82 2.38-1.03 2.08-1.13 3.79-2.61 1.6-1.38 1.72-1.71 1.65-1.97 1.45-2.14 1.15-2.18 1-2.49.55-1.94.39-2.35.11-2.44-.19-2.2-.37-1.83-.67-2.13-.63-1.49-1.11-2.14-1.01-1.66-1.57-2.19-1.39-1.69-2.07-2.22-1.79-1.69-2.63-2.17-2.24-1.63-3.18-2.07-2.63-1.55-3.71-2.01-3.06-1.55-4.03-1.94-3.5-1.61-4.02-1.77-10.18-4.16-5.96-2.3-6.35-2.41-2.73-1.03-6.48-2.46-9.9-3.74-10.54-3.9-5.14-1.89-6.07-2.23-7.02-2.57-4.69-1.69-3.28-1.18-8-2.79-8.04-2.67-10.44-3.16-6.18-1.66-8.11-1.93-6.69-1.38-7.67-1.34-6.72-.99-7.76-.93-6.91-.68-8.04-.64-7.17-.42-8.26-.26-6.75-.01-8.87.26-6.83.42-8.98.83-7.43.92-8.56 1.32-7.01 1.25-8.67 1.74-7.08 1.55-9.21 2.12-6.93 1.63-8.36 1.98-8.12 1.96-7.89 1.95-6.74 1.67-7.47 1.83-5.95 1.37-7.61 1.55-6.15 1.03-7.29.94-7.11.62-6.52.25-15.48-1.07-6.18-1.1-5.95-1.36-5.4-1.47-6.15-1.97-4.04-1.53-4.79-2.09-4.59-2.33-4.17-2.41-3.88-2.43-4.47-3.01-3.66-2.62-4.55-3.46-3.72-3.01-4.6-3.98-4.86-4.6-4.8-5.02-3.89-4.45-4.45-5.6-3.1-4.33-3.49-5.34-3.09-5.22-2.77-5.14-2.32-4.72-1.92-4.33-1.72-4.49-1.22-4.06-.86-4.12-.45-3.96-.13-3.69.19-3.87.48-3.36.48-2.19 2.19-6.17 1.6-3.06 2.23-3.37 2.67-3.24 2.3-2.35 3.34-2.83 2.77-1.89 3.64-2.03 3.4-1.5 4.12-1.46 3.49-1.01 4.48-1.02 4.05-.68 5.07-.54 3.96-.21 5.26-.04 4.06.12 5.05.26 3.82.22 5.14.38 5.82.57 5.22.65 5.24.76 5.63.94 4.73.89 5.93 1.2 5.82 1.24 6.52 1.44 6.52 1.47 13.33 3.04 8.14 1.88 8.47 2.01 8.67 2.1 8.2 1.99 6.6 1.58 8.05 1.89 6.48 1.49 8.37 1.9 6.31 1.41 8.11 1.84 6.09 1.42 7.41 1.73 6.34 1.44 7.17 1.49 5.75 1.06 7.39 1.2 5.57.77 7.25.88 6.86.71 7.36.67 7.42.51 6.98.27h6.98l7.41-.31 7.41-.65 5.7-.73 7.46-1.27 6.17-1.34 7.5-1.99 5.75-1.79 7.52-2.69 5.74-2.32 7.47-3.4 5.67-2.89 7.34-4.15 5.53-3.49 6.67-4.67 6.51-5.08 6.32-5.48 6.9-6.59 5.97-6.2 4.44-4.83 6.53-7.45 6.12-7.34 6.4-8.05 3.18-4.08 5.63-7.12 5.96-7.19 5.59-6.41 4.5-4.98 6.11-6.61 5.63-5.98 5.22-5.36 5.17-5.09 9.58-8.8 9.62-7.65 9.35-6.25 10.06-5.32 9.11-3.4 8.49-2 5.63-.8 5.71-.42 11.06.27 10.06 1.57 9.26 3.05 8.51 4.67 3.99 3.03 3.85 3.56 2.93 3.18 3.07 3.88 2.87 4.4 2.43 4.63 1.58 3.68 1.65 4.64 1.03 3.57 1.2 5.13.75 3.99.82 5.27.52 3.77.66 5.37.41 4.45.34 5.12.19 4.14.11 5.1-.06 5.42-.19 4.8-.25 4.17-.41 5.51-.35 3.94-.56 5.64-.44 4.36-.59 6.15-.41 4.51-.44 5.62-.47 9.62.01 11.2.29 6.17.51 5.78.6 4.67.95 5.71.95 4.6 1.51 5.93 1.56 5.15 1.92 5.4 1.91 4.65 2.42 5.26 2.17 4.24 3.08 5.5 1.92 3.21 1.82 2.89 3.62 5.41 3.21 4.4 3.92 4.93 3.66 4.22 4.42 4.68 4.07 3.98 4.87 4.36 4.1 3.36 5.21 3.91 4.36 2.99 5.85 3.64 4.59 2.59 6.14 3.16 4.8 2.32 6.44 2.96 5.05 2.29 6.42 2.9 7.07 3.19 7.23 3.25 5.9 2.65 6.05 2.71 4.94 2.21 5.63 2.47 4.46 1.85 4.57 1.74 3.67 1.27 3.68 1.11 3.71.92 3.53.66 3.54.37 3.14.06 2.61-.16 2.87-.37 2.43-.47 2.88-.73 2.85-.92 2.31-.94 2.62-1.27 2.59-1.52 2.05-1.43 4.27-3.81 3.19-3.98 1.82-3.02 1.38-2.96 1.13-3.28.75-3.18.51-3.68.14-3.36-.15-3.44-.48-3.8-.59-3.02-1.07-4.09-1.06-3.25-1.67-4.43-1.52-3.52-2.29-4.75-2.65-4.87-3.01-4.88-3.16-4.57-3.5-4.51-3.08-3.63-4.08-4.43-3.55-3.62-4.89-4.79-4.07-3.93-4.83-4.66-3.57-3.5-3.94-4.01-4.25-4.53-3.79-4.3-3.8-4.63-5.63-7.88-4.77-8.45-2.52-5.91-.94-2.66-1.36-4.75-.84-3.87-.71-5.09-.24-4.2.16-5.1.65-5.08 1.14-5.03 1.52-4.63 2.1-4.75 2.61-4.54 2.34-3.32 3.27-3.9 2.72-2.75 3.96-3.42 3.48-2.54 4.89-2.93 4.3-2.06 5.17-1.96 4.36-1.29 5.89-1.3 4.97-.73 6.16-.4 3.31.01 5.96.39 6.39.93 6.45 1.48 4.94 1.5 6.45 2.45 6.01 2.81 6.27 3.52 4.71 3.05 6.05 4.39 5.9 4.85 5.39 4.97 4.55 4.67 4.96 5.69 3.85 4.88 4.86 6.64 4.82 6.82 2.86 4.07 2.87 4.1 4.59 6.67 3.72 5.53 5.42 8.25 4 6.22 4.92 7.74 3.83 6.04 4.51 7.1 3.97 6.19 5.19 8.04 7.62 11.98 4.65 7.7 4.06 7.18 3.7 7.17 3.39 7.2 2.55 5.91 2.85 7.38 2.52 7.5 2.17 7.61 1.9 8.21 1.48 8.31.68 4.93.82 7.94.54 7.99.3 8.5.03 6.96-.27 7.81-.51 6.19-1.09 7.85-1.06 5.38-1.69 6.96-1.89 6.77-2.12 7-1.87 5.61-2.33 6.22-2.77 6.44-1.76 3.73-1.67 3.31-4.66 8.34-2.88 4.68-4.06 6.09-3.32 4.64-4.66 6.03-3.8 4.55-4.98 5.53-4.27 4.4-5.91 5.59-5.14 4.44-6.55 5.18-7.3 5.19-12.93 7.9-13.76 6.86-14.98 5.89-14.57 4.32-16.01 3.43-11.57 1.7-8.53.85-7.05.46-8.89.36-7.43.15-10.03.03-7.92-.04-10.07-.1-8.45-.1-11.45-.12-11.17-.11-12.29-.13-9.69-.12-13.02-.17-7.83-.1-12.77-.17-13.12-.16-15.13-.19-11.16-.17-23.89-.38-15.47-.2-12.06-.12-16.06-.11-15.4-.09-16.66-.06-12.93-.02z" stroke-width="28" stroke="#000" fill="none"/>
  <path d="m139.709 99.64-9.536-.027-11.053-.031-12.563-.022-11.913-.002-8.97.004-11.283-.005-9.09-.015-12.175-.014-10.708.01-12.31.02-10.835.004-12.431-.009H-4.11l-13.304.021-10.242.024-14.227.036-10.302.028-13.533.037-13.563.04-13.643.041-9.681.024-13.78.017h-10.59l-13.885-.004-10.622.004-14.694.027-10.54.045-13.643.089-13.543.096-13.454.087-12.705.093-13.566.145-13.63.184-12.916.177-13.593.176-8.706.12-12.533.206-12.366.253-12.965.304-9.794.239-11.873.289-10.118.243-11.246.27-8.898.21-10.702.24-8.497.174-10.116.161-10.175.075-9.524-.03-7.343-.087-7.867-.13-7.374-.123-7.898-.147-5.94-.177-6.583-.35-5.567-.498-5.755-.761-5.161-.957-5.631-1.413-5.007-1.622-5.374-2.109-3.936-1.758-4.664-2.308-3.65-1.981-4.59-2.736-3.614-2.385-3.94-2.882-2.817-2.297-3.797-3.474-3.025-3.062-3.638-3.974-2.768-3.23-3.544-4.48-2.603-3.61-3.238-4.97-1.801-3.056-2.888-5.4-2.207-4.63-2.482-5.82-1.644-4.216-2.096-5.738-1.635-4.751-2.059-6.342-1.51-4.956-1.777-6.232-1.267-4.76-1.577-6.455-1.14-5.323-1.15-6.577-.833-6.59-.469-7.017-.042-7.03.3-6.635.398-4.991.79-7.083.526-3.752 1.212-7.079 1.135-5.394 1.666-6.612 1.979-6.626 2.424-7.095 2.738-7.202 2.862-6.888 3.353-7.414 3.67-7.473 3.686-6.935 4.088-7.126 4.093-6.776 3.89-6.312 3.596-5.758 2.574-4.013 3.246-4.796 2.458-3.312 3.002-3.575 2.376-2.421 2.869-2.455 2.55-1.855 2.951-1.796 2.604-1.267 3.16-1.15 3.135-.75 2.9-.352 2.999-.018 2.81.28 2.996.604 2.962.93 2.822 1.25 2.486 1.454 2.514 1.86 2.413 2.222 1.356 1.48 3.021 4.058 1.854 3.094.662 1.235 1.66 3.492 1.56 4.007 1.787 6.131.984 4.676 1.275 8.642.658 5.45.797 6.062.752 4.89 1.082 5.661 1.087 4.508 1.73 5.604 1.95 4.893 2.238 4.567 2.664 4.579 3.103 4.583 2.414 3.17 3.356 4.006 1.866 2.059 3.456 3.557 4.1 3.832 3.815 3.246 3.216 2.54 4.36 3.197 3.73 2.524 4.422 2.733 4.588 2.545 4.704 2.293 4.113 1.72 4.37 1.515 4.045 1.148 4.64 1.079 3.81.723 5.078.76 4.307.489 5.405.416 4.257.187 12.054.16 3.269-.001 4.844-.031 6.181-.081 5.239-.088 6.69-.127 7.407-.163 7.72-.199 6.11-.178 8.75-.277 7.013-.224 8.202-.277 6.76-.254 8.908-.361 6.289-.236 8.897-.27 6.766-.182 8.263-.242 7.168-.225 8.641-.235 5.051-.094 8.586-.095 6.66-.04 8.964-.031 7.13-.013h9.698l7.683.012 9.162.015 10.729.01" stroke-width="12" stroke="#e73323" fill="none"/>
  <path d="m-147.309-51.408 10.602-.01 10.925-.022 9.102-.027 12.168-.032h9.388l12.197.039 9.181.05 11.815.09 8.893.089 10.78.13 17.14.256 19.161.368 9.99.22 10.436.255 8.324.221 9.718.276 7.12.198 8.322.2L55.81-49l7.802.011 5.527-.05 5.795-.1 4.43-.11 4.942-.165 3.168-.153 3.487-.238 2.903-.269 3.156-.394 2.437-.4 3.005-.644 2.62-.725 2.541-.937 2.16-1.032 2.173-1.262 1.595-1.08 2.12-1.669 1.451-1.326 1.761-1.878 1.57-2.044 1.28-2.075 1.142-2.387 1.291-4.31.29-2.472-.03-2.412-.712-3.81-.611-1.746-.913-1.993-2.303-3.82-3.165-3.899-4.082-3.891-5.103-3.758-6.024-3.595-7.007-3.57-7.78-3.586-2.94-1.275-2.135-.9-8.522-3.413-6.046-2.315-8.812-3.34-6.96-2.643-2.553-.968-7.022-2.641-11.063-4.09-6.074-2.23-6.08-2.226-10.3-3.738-3.286-1.172-8.005-2.775-8.048-2.636-4.268-1.317-6.174-1.787-8.093-2.099-6.206-1.408-8.133-1.598-6.708-1.114-7.703-1.053-6.827-.766-7.94-.737-7.075-.516-8.22-.411-7.255-.157-7.803.067-7.32.288-8.95.64-6.874.703-9.044 1.21-6.979 1.127-8.629 1.602-7.07 1.465-9.247 2.07-7.008 1.632-9.005 2.123-7.751 1.843-8.53 2.078-6.343 1.576-7.615 1.887-6.516 1.566-7.248 1.611-6.225 1.197-7.401 1.134-7.223.81-7.035.474-20.593-1.202-5.774-1.09-5.916-1.397-5.692-1.601-7.02-2.388-3.966-1.61-4.417-2.05-4.52-2.423-4.437-2.664-3.61-2.337-4.479-3.097-3.677-2.698-4.566-3.556-3.731-3.102-4.875-4.373-4.839-4.767-8.587-9.75-7.027-9.643-3.343-5.321-3.084-5.404-2.43-4.668-2.208-4.65-1.93-4.57-1.546-4.412-1.045-3.987-.647-3.81-.336-3.932-.013-3.908.313-3.622 1.163-5.503.702-2.142 1.727-3.96 1.868-3.226 2.415-3.32 2.649-2.99 2.606-2.455 3.262-2.524 3.074-1.917 3.757-1.878 3.497-1.392 3.938-1.275 3.557-.939 4.827-.972 3.812-.538 5.421-.448 3.992-.126 4.976.048 4.08.168 5.07.277 4.156.271 5.152.429 5.846.632 5.224.697 5.259.815 10.47 1.937 6.031 1.251 5.93 1.286 6.291 1.405 7.105 1.61 5.745 1.31 7.905 1.81 8.294 1.934 8.064 1.93 8.703 2.118 8.18 1.976 6.565 1.555 8.515 1.984 6.445 1.476 8.322 1.87 6.258 1.405 8.044 1.845 6.047 1.416 7.334 1.7 5.87 1.293 7.13 1.419 5.708 1 7.35 1.12 5.978.78 6.82.776 7.322.723 6.955.583 7.857.458 6.543.153 7.41-.12 6.976-.413 7.426-.768 6.134-.896 7.477-1.431 6.178-1.476 7.51-2.155 5.748-1.913 7.514-2.851 5.729-2.45 7.45-3.575 5.648-3.02 6.866-4.073 5.486-3.61 6.617-4.826L26.885-272l6.633-5.985 6.441-6.365 5.93-6.292 4.763-5.295 6.53-7.594 6.084-7.455 9.556-12.172 5.619-6.983 5.602-6.621 10.383-11.55 5.714-6.151 5.922-6.217 4.874-4.92 5.147-4.988 4.47-4.143 5.421-4.713 4.167-3.343 5.474-4.023 3.87-2.612 5.493-3.363 4.215-2.28 5.531-2.553 3.907-1.497 5.524-1.691 3.263-.78 5.26-.957 5.657-.647 5.768-.264 4.835.078 5.939.468 4.54.658 5.414 1.206 4.18 1.322 5.17 2.184 3.725 1.996 4.232 2.812 4.08 3.36 3.719 3.694 2.621 3.041 2.942 3.981 2.865 4.757 2.254 4.714 1.355 3.44 1.532 4.692.955 3.588 1.1 5.167.744 4.317.733 4.991.54 4.095.59 5.389.333 4.144.31 5.43.138 3.826.051 5.418-.119 5.105" stroke-width="12" stroke="#4fafdf" fill="none"/>
  <path d="m248.627-304.461-.284 4.193-.427 5.216-.403 4.284-.532 5.333-.475 4.736-.58 6.193-.356 4.189-.428 6-.187 3.56-.182 6.094-.01 5.056.167 6.166.366 5.804.604 5.769.729 5.012 1.055 5.686 1.043 4.571 1.516 5.548 1.775 5.457 2.041 5.358 1.854 4.293 2.693 5.569 1.725 3.25 2.945 5.167 4.63 7.367 6.814 9.443 7.764 9.059 8.668 8.544 9.427 7.807 9.697 6.692 10.56 6.023 11.064 5.371 11.24 5.109 6.919 3.121 7.156 3.222 5.97 2.683 6.662 2.99 10.694 4.778 9.694 4.057 7.967 2.787 3.592 1.015 3.865.862 3.445.527 3.255.231 2.695-.02 2.952-.243 2.478-.38 2.921-.626 2.864-.807 2.831-1.014 1.644-.708 2.611-1.32 5.231-3.52 1.924-1.699 2.08-2.175 1.29-1.578 1.878-2.722 1.675-3.08 1.243-3.018.937-3.121.681-3.416.366-3.722.011-3.4-.282-3.49-.569-3.638-.74-3.3-1.133-3.914-1.243-3.561-1.702-4.238-1.609-3.57-2.57-5.087-2.799-4.887-2.962-4.585-3.506-4.83-2.932-3.651-3.906-4.45-3.129-3.318-4.744-4.763-3.772-3.671-4.92-4.737-3.94-3.812-4.331-4.295-4.124-4.268-3.914-4.278-3.715-4.315-3.704-4.665-2.639-3.648-2.983-4.594-2.16-3.79-2.166-4.41-2.025-5.025-1.163-3.554-1.024-3.856-.97-5.072-.466-4.2-.13-5.099.361-5.098.849-5.068 1.339-4.989 1.716-4.57 2.313-4.66 5.11-7.458 3.422-3.801 2.83-2.678 4.368-3.5 3.604-2.402 5.04-2.741 4.088-1.772 5.59-1.895 4.431-1.157 5.958-1.12 5.024-.552 5.844-.181 3.702.131 5.98.597 6.42 1.16 6.081 1.587 4.942 1.646 6.433 2.645 6.342 3.203 10.89 6.931 5.642 4.304 5.841 5.01 4.667 4.455 5.13 5.455 4.267 5.077 4.66 6.106 3.979 5.527 11.142 15.887 4.587 6.722 3.144 4.707 6.275 9.624 4.018 6.288 4.659 7.356 3.86 6.09 4.855 7.603 3.985 6.188 4.845 7.508 2.952 4.616 4.548 7.297 4.528 7.67 4.158 7.617 3.35 6.725 3.478 7.684 2.26 5.492 2.73 7.421 2.525 8.017 2.013 7.661 1.726 8.257 1.897 13.298.69 7.963.426 7.998.114 14.909-1.046 13.849-2.425 13.063-1.776 6.89-2.06 7.114-1.78 5.712-2.198 6.345-2.11 5.398-4.447 9.742-1.897 3.667-1.795 3.273-6.605 10.794-7.628 10.712-8.412 10.175-9.809 10.167-11.312 9.876-6.69 5.07-7.014 4.79-6.003 3.717-7.551 4.22-6.414 3.225-7.533 3.385-6.268 2.504-8.369 2.935-6.519 1.971-8.657 2.234-6.704 1.467-8.862 1.609-5.264.776-6.356.756-8.584.727-7.115.392-8.989.278-7.525.092-10.156-.008-8.03-.064-10.205-.11-9.24-.104-10.929-.11-12.04-.122-22.29-.268-20.282-.264-13.714-.178-13.249-.163-26.574-.379-11.499-.189-12.607-.191-14.686-.166-12.159-.1-16.17-.108-16.476-.082" stroke-width="12" stroke="#f7d347" fill="none"/>
</svg>
