<?xml version="1.0" standalone="no"?>
<svg xmlns:xlink="http://www.w3.org/1999/xlink" id="s2" class="track" xmlns="http://www.w3.org/2000/svg" preserveAspectRatio="xMinYMid meet" height="800px" width="600px" viewBox="-1200 -700 3000 3000">
            <path d="M 148.5422 384.4252 L 133.3667 384.4166 L 121.6961 384.3849 L 107.2586 384.3135 L 95.4556 384.2314 L 80.8406 384.1057 L 65.2184 383.9482 L 35.5949 383.5879 L 20.6675 383.3809 L 8.4938 383.2056 L -8.4388 382.9523 L -20.7222 382.7617 L -37.7898 382.4875 L -53.0313 382.2376 L -80.7821 381.8596 L -109.6766 381.7308 L -136.7917 381.6152 L -153.3251 381.4998 L -168.9291 381.4003 L -198.2873 381.24 L -214.9822 381.1633 L -231.7155 381.1004 L -244.5359 381.062 L -261.3286 381.0198 L -277.1451 380.9961 L -292.9018 380.9835 L -306.534 380.9815 L -321.8802 380.9869 L -334.9238 380.9984 L -348.2967 381.0152 L -359.3239 381.0356 L -372.2222 381.0529 L -382.9167 381.0306 L -399.2683 380.9168 L -405.9391 380.8424 L -416.1892 380.6961 L -426.8747 380.5039 L -437.4116 380.2791 L -446.6003 380.0568 L -456.8848 379.8113 L -464.661 379.6349 L -474.1251 379.428 L -479.9806 379.3024 L -489.2337 379.1067 L -498.0819 378.9275 L -506.0997 378.7732 L -513.7959 378.6451 L -519.3814 378.5761 L -524.7287 378.5278 L -529.6811 378.4964 L -535.1626 378.4772 L -539.9574 378.4731 L -544.6222 378.4807 L -548.2449 378.4945 L -552.4856 378.5198 L -555.7566 378.5446 L -559.5698 378.5681 L -562.7151 378.5686 L -566.2959 378.515 L -569.0694 378.3896 L -572.4639 378.0471 L -574.8289 377.61 L -577.7727 376.7537 L -580.3391 375.6307 L -582.7987 374.0875 L -584.8134 372.2857 L -586.4708 370.1757 L -587.494 368.2885 L -588.348 365.7269 L -588.69 363.2834 L -588.5415 360.362 L -587.8924 357.8021 L -586.5279 354.9784 L -584.8057 352.6529 L -582.3273 350.0956 L -580.274 348.0963 L -577.4095 345.2097 L -573.9793 341.7009 L -570.7442 338.3461 L -567.1661 334.5456 L -561.1957 327.9841 L -555.2086 321.2242 L -552.0054 317.5281 L -548.7022 313.6066 L -545.7204 309.9011 L -542.734 305.9152 L -540.0107 301.8347 L -537.7394 297.5863 L -536.352 293.3718 L -535.8824 288.7928 L -536.3459 284.2432 L -538.7083 276.0658 L -542.0523 267.0742 L -543.8526 262.1656 L -545.0536 258.7293 L -547.0756 252.5933 L -549.1641 245.698 L -552.392 233.9827 L -553.8949 228.1928 L -554.8413 224.4294 L -556.5857 217.2412 L -557.8799 211.6749 L -559.4225 204.7467 L -560.7206 198.6092 L -562.0493 191.4795 L -562.9536 185.1254 L -563.6025 177.7251 L -563.8078 171.1254 L -563.5779 162.9539 L -563.1215 157.0378 L -562.2406 148.4396 L -561.4566 141.6723 L -560.4498 132.5388 L -559.7206 125.337 L -558.789 115.6531 L -557.1628 99.7233 L -556.2825 91.83 L -555.0299 81.2533 L -553.9752 72.9899 L -552.3457 61.3435 L -550.7232 50.8033 L -548.9815 40.0847 L -547.5138 31.2428 L -545.7701 20.8952 L -543.8645 9.6775 L -541.7377 -3.1293 L -539.8555 -14.7058 L -537.8243 -27.1729 L -535.2955 -42.8127 L -533.7442 -52.6172 L -531.9502 -64.0375 L -528.3113 -87.2194 L -525.2175 -107.6997 L -523.3469 -120.4519 L -521.7016 -131.6771 L -519.8147 -144.5483 L -518.2767 -154.9875 L -516.3923 -167.7167 L -514.3982 -181.0425 L -512.5176 -193.3992 L -510.5135 -206.3411 L -508.8587 -216.8527 L -506.8448 -229.4476 L -505.3058 -238.9464 L -503.4087 -250.4992 L -501.5098 -261.8981 L -499.602 -273.1349 L -497.935 -282.7763 L -496.4509 -291.2742 L -494.0539 -304.8307 L -492.9379 -311.0743 L -491.5987 -318.5339 L -490.4311 -325.1276 L -489.6079 -329.8526 L -488.5403 -336.071 L -487.6938 -341.0586 L -486.6053 -347.4912 L -485.7664 -352.34 L -484.5903 -358.513 L -483.5396 -363.0474 L -481.716 -368.6032 L -479.8234 -372.4117 L -476.8604 -376.3475 L -474.4591 -378.4388 L -471.8618 -380.0038 L -469.8669 -380.8809 L -467.2129 -381.8132 L -464.9968 -382.4678 L -462.4475 -383.1174 L -460.2044 -383.5692 L -457.4904 -383.969 L -453.1679 -384.2572 L -450.4397 -384.1971 L -447.2699 -383.8713 L -444.101 -383.2614 L -440.2633 -382.1481 L -435.9664 -380.5046 L -431.7697 -378.4792 L -428.5802 -376.6009 L -423.8091 -373.1519 L -419.3871 -369.1923 L -415.0635 -364.6089 L -411.7388 -360.7619 L -406.973 -355.0449 L -403.3302 -350.6949 L -398.2734 -344.7942 L -394.5342 -340.4745 L -389.3489 -334.5046 L -383.9474 -328.3233 L -378.3295 -321.9805 L -374.714 -317.9461 L -368.3897 -310.977 L -363.4064 -305.5642 L -357.0971 -298.8136 L -351.4327 -292.8486 L -344.3884 -285.6325 L -338.9 -280.229 L -331.6641 -273.3869 L -326.1141 -268.316 L -318.8442 -261.8719 L -313.2815 -257.0892 L -306.0237 -250.9951 L -300.5079 -246.4311 L -293.3285 -240.6074 L -287.42 -235.9599 L -280.5935 -230.9138 L -274.9561 -227.0921 L -267.8724 -222.8037 L -262.0094 -219.6672 L -254.7025 -216.2248 L -247.3708 -213.1174 L -240.285 -210.1721 L -234.8777 -207.7719 L -228.2222 -204.5619 L -223.2918 -201.9964 L -217.4108 -198.6485 L -212.1415 -195.2464 L -206.8788 -191.257 L -203.2327 -187.9891 L -198.8065 -183.2965 L -194.8989 -178.2732 L -191.3395 -172.6397 L -189.0793 -168.1419 L -186.9066 -162.3903 L -185.5706 -157.1972 L -184.6677 -151.1103 L -184.4125 -146.0783 L -184.5917 -139.7887 L -185.1751 -133.3956 L -185.9565 -126.8917 L -186.6482 -121.1295 L -187.3913 -114.1778 L -187.9871 -107.6973 L -188.4664 -101.2756 L -188.7716 -94.9098 L -188.813 -88.2179 L -188.5708 -83.161 L -187.9146 -77.0249 L -187.0602 -72.134 L -185.6093 -66.2641 L -183.6885 -60.6018 L -181.4616 -55.4861 L -179.1964 -51.2103 L -175.7473 -45.8354 L -172.7157 -41.8738 L -168.5493 -37.1213 L -164.8637 -33.2859 L -160.2512 -28.8564 L -155.9154 -25.0258 L -150.1564 -20.2985 L -143.9596 -15.5115 L -136.5282 -9.985 L -130.8884 -5.8692 L -123.643 -.6701 L -115.6013 5.0266 L -107.7501 10.5715 L -99.2013 16.6565 L -91.0448 22.5311 L -82.4706 28.7897 L -76.005 33.5636 L -68.172 39.4093 L -62.0304 44.0338 L -54.8997 49.4249 L -49.5529 53.4805 L -43.3076 58.2318 L -39.17 61.3878 L -34.3706 65.0573 L -31.6199 67.1645 L -26.99 70.7178 L -22.6858 74.0322 L -18.1909 77.5501 L -14.074 80.901 L -4.5932 91.2329 L -3.4809 93.3795 L -2.3184 96.665 L -1.7374 102.7221 L -3.2895 108.5584 L -6.7521 113.2604 L -11.7248 116.4644 L -15.1408 117.5986 L -18.957 118.3608 L -23.4046 118.8861 L -27.9883 119.1756 L -32.0219 119.2423 L -36.6971 119.153 L -47.9161 118.7484 L -60.2992 118.1065 L -74.5918 117.1114 L -90.2268 115.7143 L -107.036 113.9009 L -124.3025 111.9746 L -134.2213 110.7774 L -144.4034 109.4494 L -156.1129 107.8015 L -167.4042 106.1282 L -176.1393 104.804 L -186.9173 103.1534 L -194.983 101.9488 L -204.3649 100.6061 L -215.6858 99.019 L -226.9394 97.4491 L -235.5118 96.3002 L -246.6852 94.918 L -254.5484 94.0162 L -265.6361 92.7893 L -273.4307 91.9466 L -284.4167 90.7995 L -297.2125 89.5623 L -307.3111 88.6907 L -311.642 88.369 L -316.9877 88.0339 L -325.7084 87.7145 L -334.3539 87.7979 L -347.8423 89.3158 L -360.5491 93.0782 L -370.8372 97.9172 L -376.8109 101.4695 L -381.0882 104.3966 L -386.8122 108.8867 L -390.899 112.5589 L -395.7587 117.5308 L -398.8469 121.0236 L -402.7464 125.7961 L -405.9965 130.0271 L -409.0353 134.1204 L -412.0281 138.2469 L -414.4919 141.7182 L -416.2168 144.191 L -417.8299 146.537 L -419.0812 148.3863 L -420.6351 150.77 L -421.7789 152.7394 L -422.8782 155.1855 L -423.5371 157.6773 L -423.7022 159.7136 L -423.6043 161.4358 L -423.109 163.7884 L -422.2928 165.8536 L -420.0008 169.1682 L -417.0997 171.5255 L -413.6861 173.003 L -409.905 173.7036 L -405.3747 174.3203 L -402.0546 174.7022 L -398.1268 175.0673 L -388.9483 175.6107 L -377.353 176.105 L -363.4531 176.7656 L -347.4901 177.7798 L -331.3996 178.9928 L -310.977 180.5665 L -299.6689 181.4221 L -287.8629 182.3036 L -274.8218 183.2309 L -261.286 184.0412 L -248.1035 184.6025 L -233.6668 184.993 L -218.8091 185.2927 L -203.5902 185.5259 L -188.9404 185.6815 L -173.9826 185.7726 L -161.6143 185.8168 L -146.1477 185.8672 L -136.3466 185.9319 L -121.4727 186.0676 L -108.407 186.2002 L -98.2617 186.2937 L -74.6158 186.4543 L -57.9306 186.5192 L -41.0424 186.5608 L -22.9339 186.6803 L -4.6142 186.8994 L 13.8881 187.1817 L 24.8546 187.3316 L 35.8772 187.4658 L 46.959 187.6167 L 62.5595 187.8783 L 94.0019 188.537 L 126.8207 189.1971 L 142.9025 189.5055 L 158.6068 189.7969 L 178.2379 190.1475 L 189.8779 190.3483 L 201.3846 190.5356 L 219.7374 190.7579 L 228.329 190.8245 L 236.5614 190.8634 L 242.322 190.875 L 247.7596 190.8666 L 252.1292 190.8157 L 257.0583 190.6724 L 262.2066 190.3144 L 266.9439 189.6715 L 271.8121 188.5576 L 276.4606 186.91 L 280.1736 185.1315 L 284.6074 182.3881 L 288.1376 179.5916 L 291.8875 175.742 L 294.0166 172.9801 L 297.1567 167.6727 L 299.0878 163.1473 L 300.9476 157.118 L 302.0697 151.8962 L 303.1332 144.6884 L 303.7138 138.4748 L 304.0034 131.0961 L 303.8586 124.9158 L 303.161 117.0923 L 301.7576 108.598 L 299.9439 101.0153 L 297.7842 93.902 L 294.7645 85.7576 L 291.8734 79.1727 L 287.7596 71.1534 L 283.6517 64.2577 L 278.3709 56.5645 L 273.6194 50.5053 L 267.2193 43.3447 L 260.2256 36.5671 L 252.6706 30.2324 L 245.596 25.0737 L 236.4755 19.3098 L 227.4662 14.3836 L 217.5098 9.628 L 207.1952 5.3703 L 197.2142 1.7316 L 188.9858 -1.075 L 178.8869 -4.5737 L 170.1848 -7.8093 L 160.4051 -11.6914 L 152.5816 -14.9705 L 142.5512 -19.5261 L 135.1093 -23.3559 L 125.7859 -28.9684 L 118.5737 -34.1892 L 110.9689 -40.8356 L 105.293 -46.6947 L 98.4155 -54.7669 L 94.604 -59.6712 L 88.9111 -67.7622 L 83.5663 -76.7631 L 79.3452 -85.6424 L 75.765 -95.4917 L 73.2285 -105.0993 L 71.3646 -115.5908 L 70.3969 -125.699 L 70.1586 -136.6611 L 70.7213 -147.1471 L 72.2019 -158.4057 L 74.6795 -169.6898 L 77.9857 -180.2222 L 81.0336 -188.0368 L 85.6396 -198.4009 L 89.6962 -206.7981 L 94.8578 -217.0598 L 100.2493 -227.8749 L 105.5242 -238.5513 L 109.5185 -246.5809 L 114.2459 -255.8939 L 118.5309 -264.1041 L 122.7924 -271.8787 L 126.1061 -277.6343 L 130.552 -284.9709 L 134.406 -290.7879 L 138.8425 -296.6862 L 142.6361 -301.1214 L 148.4056 -306.8956 L 154.2373 -311.7218 L 160.8065 -316.1589 L 167.3386 -319.5321 L 178.9339 -323.0842 L 183.3111 -323.5411 L 190.1964 -323.1347 L 196.6834 -321.3339 L 201.9966 -318.808 L 208.2329 -314.847 L 212.9576 -311.2309 L 219.0914 -305.6771 L 223.7323 -300.7347 L 229.7721 -293.4275 L 234.4178 -287.2287 L 240.2072 -278.8889 L 244.6824 -272.1338 L 251.8136 -261.2998 L 257.2033 -252.9583 L 263.9533 -242.0985 L 270.0076 -232.0725 L 277.6165 -219.3887 L 283.6227 -209.3447 L 291.2265 -196.5914 L 297.5699 -185.9189 L 306.0567 -171.5936 L 314.2485 -157.7445 L 323.1861 -142.7238 L 330.7196 -130.149 L 340.0546 -114.6171 L 345.5951 -105.3282 L 354.5477 -90.2456 L 364.2242 -73.9769 L 373.4848 -58.4573 L 383.4709 -41.7565 L 392.9907 -25.8494 L 402.6199 -9.7537 L 420.3038 19.8167 L 439.5705 51.9013 L 457.9791 82.3896 L 477.8515 115.2649 L 488.8391 133.477 L 499.8693 151.7679 L 508.343 165.7546 L 518.681 182.7591 L 527.4305 197.112 L 537.4096 213.4393 L 544.4336 224.9023 L 552.2744 237.6728 L 557.9316 246.9551 L 563.9347 257.0213 L 568.381 264.5936 L 572.6156 271.8906 L 575.7281 277.307 L 579.6963 284.2781 L 583.2078 290.514 L 585.9818 295.4874 L 588.2795 299.6364 L 590.8513 304.3154 L 592.9084 308.0848 L 595.5419 312.9704 L 597.4924 316.6894 L 599.756 321.2736 L 601.4914 325.3409 L 602.983 330.1089 L 603.7056 334.3663 L 603.7746 338.3159 L 601.6239 346.5685 L 599.1579 350.5114 L 595.4912 354.2748 L 586.7323 359.2544 L 574.9807 363.8882 L 568.4956 367.0111 L 561.8096 370.6284 L 555.676 373.969 L 548.2188 377.6466 L 541.7685 380.3741 L 533.9045 383.1428 L 524.4586 385.644 L 515.6951 387.1684 L 507.8242 387.9418 L 497.759 388.361 L 488.561 388.3719 L 479.6432 388.1771 L 458.3213 387.604 L 434.3824 387.1014 L 420.8586 386.8811 L 405.0971 386.6874 L 393.3523 386.5827 L 377.5254 386.4896 L 365.0328 386.4499 L 348.1966 386.3951 L 320.4595 386.2065 L 289.2571 385.8516 L 272.5604 385.6489 L 257.7882 385.4753 L 242.7393 385.3066 L 227.383 385.1429 L 208.1272 384.9491 L 194.6558 384.8201 L 173.4593 384.6293 L 156.9625 384.4896 z" stroke-width="28" stroke="black" fill="none" id="Track"/><path d="M 148.5422 384.4252 L 133.3667 384.4166 L 121.6961 384.3849 L 107.2586 384.3135 L 95.4556 384.2314 L 80.8406 384.1057 L 65.2184 383.9482 L 35.5949 383.5879 L 20.6675 383.3809 L 8.4938 383.2056 L -8.4388 382.9523 L -20.7222 382.7617 L -37.7898 382.4875 L -53.0313 382.2376 L -80.7821 381.8596 L -109.6766 381.7308 L -136.7917 381.6152 L -153.3251 381.4998 L -168.9291 381.4003 L -198.2873 381.24 L -214.9822 381.1633 L -231.7155 381.1004 L -244.5359 381.062 L -261.3286 381.0198 L -277.1451 380.9961 L -292.9018 380.9835 L -306.534 380.9815 L -321.8802 380.9869 L -334.9238 380.9984 L -348.2967 381.0152 L -359.3239 381.0356 L -372.2222 381.0529 L -382.9167 381.0306 L -399.2683 380.9168 L -405.9391 380.8424 L -416.1892 380.6961 L -426.8747 380.5039 L -437.4116 380.2791 L -446.6003 380.0568 L -456.8848 379.8113 L -464.661 379.6349 L -474.1251 379.428 L -479.9806 379.3024 L -489.2337 379.1067 L -498.0819 378.9275 L -506.0997 378.7732 L -513.7959 378.6451 L -519.3814 378.5761 L -524.7287 378.5278 L -529.6811 378.4964 L -535.1626 378.4772 L -539.9574 378.4731 L -544.6222 378.4807 L -548.2449 378.4945 L -552.4856 378.5198 L -555.7566 378.5446 L -559.5698 378.5681 L -562.7151 378.5686 L -566.2959 378.515 L -569.0694 378.3896 L -572.4639 378.0471 L -574.8289 377.61 L -577.7727 376.7537 L -580.3391 375.6307 L -582.7987 374.0875 L -584.8134 372.2857 L -586.4708 370.1757 L -587.494 368.2885 L -588.348 365.7269 L -588.69 363.2834 L -588.5415 360.362 L -587.8924 357.8021 L -586.5279 354.9784 L -584.8057 352.6529 L -582.3273 350.0956 L -580.274 348.0963 L -577.4095 345.2097 L -573.9793 341.7009 L -570.7442 338.3461 L -567.1661 334.5456 L -561.1957 327.9841 L -555.2086 321.2242 L -552.0054 317.5281 L -548.7022 313.6066 L -545.7204 309.9011 L -542.734 305.9152 L -540.0107 301.8347 L -537.7394 297.5863 L -536.352 293.3718 L -535.8824 288.7928 L -536.3459 284.2432 L -538.7083 276.0658 L -542.0523 267.0742 L -543.8526 262.1656 L -545.0536 258.7293 L -547.0756 252.5933 L -549.1641 245.698 L -552.392 233.9827 L -553.8949 228.1928 L -554.8413 224.4294 L -556.5857 217.2412 L -557.8799 211.6749 L -559.4225 204.7467 L -560.7206 198.6092 L -562.0493 191.4795 L -562.9536 185.1254 L -563.6025 177.7251 L -563.8078 171.1254 L -563.5779 162.9539 L -563.1215 157.0378 L -562.2406 148.4396 L -561.4566 141.6723 L -560.4498 132.5388 L -559.7206 125.337 L -558.789 115.6531 L -557.1628 99.7233 L -556.2825 91.83 L -555.0299 81.2533 L -553.9752 72.9899 L -552.3457 61.3435 L -550.7232 50.8033 L -548.9815 40.0847 L -547.5138 31.2428 L -545.7701 20.8952 L -543.8645 9.6775 L -541.7377 -3.1293 L -539.8555 -14.7058 L -537.8243 -27.1729 L -535.2955 -42.8127 L -533.7442 -52.6172 L -531.9502 -64.0375 L -528.3113 -87.2194 L -525.2175 -107.6997 L -523.3469 -120.4519 L -521.7016 -131.6771 L -519.8147 -144.5483 L -518.2767 -154.9875 L -516.3923 -167.7167 L -514.3982 -181.0425 L -512.5176 -193.3992 L -510.5135 -206.3411 L -508.8587 -216.8527 L -506.8448 -229.4476 L -505.3058 -238.9464 L -503.4087 -250.4992 L -501.5098 -261.8981 L -499.602 -273.1349 L -497.935 -282.7763 L -496.4509 -291.2742 L -494.0539 -304.8307 L -492.9379 -311.0743 L -491.5987 -318.5339 L -490.4311 -325.1276 L -489.6079 -329.8526 L -488.5403 -336.071 L -487.6938 -341.0586 L -486.6053 -347.4912 L -485.7664 -352.34 L -484.5903 -358.513 L -483.5396 -363.0474 L -481.716 -368.6032 L -479.8234 -372.4117 L -476.8604 -376.3475 L -474.4591 -378.4388 L -471.8618 -380.0038 L -469.8669 -380.8809 L -467.2129 -381.8132 L -464.9968 -382.4678 L -462.4475 -383.1174 L -460.2044 -383.5692 L -457.4904 -383.969 L -453.1679 -384.2572 L -450.4397 -384.1971 L -447.2699 -383.8713 L -444.101 -383.2614 L -440.2633 -382.1481 L -435.9664 -380.5046 L -431.7697 -378.4792 L -428.5802 -376.6009 L -423.8091 -373.1519 L -419.3871 -369.1923 L -415.0635 -364.6089 L -411.7388 -360.7619 L -406.973 -355.0449 L -403.3302 -350.6949 L -398.2734 -344.7942 L -394.5342 -340.4745 L -389.3489 -334.5046 L -383.9474 -328.3233 L -378.3295 -321.9805 L -374.714 -317.9461 L -368.3897 -310.977 L -363.4064 -305.5642 L -357.0971 -298.8136 L -351.4327 -292.8486 L -344.3884 -285.6325 L -338.9 -280.229 L -331.6641 -273.3869 L -326.1141 -268.316 L -318.8442 -261.8719 L -313.2815 -257.0892 L -306.0237 -250.9951 L -300.5079 -246.4311 L -293.3285 -240.6074 L -287.42 -235.9599 L -280.5935 -230.9138" stroke-width="12" stroke="#e73323" fill="none" id="S1"/><path d="M -277.5714 -228.8219 L -272.3177 -225.4276 L -265.1754 -221.3162 L -259.2798 -218.3264 L -251.9451 -215.0301 L -244.6687 -212.0037 L -237.333 -208.8849 L -232.0956 -206.4645 L -225.932 -203.3914 L -221.0592 -200.7706 L -215.2711 -197.3218 L -210.119 -193.7993 L -205.022 -189.6511 L -201.2327 -185.9797 L -197.2793 -181.4476 L -193.3577 -175.9893 L -190.2428 -170.5837 L -188.1827 -166.011 L -186.1751 -159.8128 L -185.0945 -154.5519 L -184.499 -148.7935 L -184.4229 -143.7311 L -184.7719 -137.4043 L -185.5057 -130.5642 L -186.3093 -124.0114 L -186.9682 -118.2575 L -187.6262 -111.7407 L -188.1839 -105.2818 L -188.6238 -98.4848 L -188.8335 -92.1466 L -188.7791 -87.0458 L -188.3359 -80.4608 L -187.7423 -75.888 L -186.4814 -69.5413 L -184.9437 -64.1139 L -182.8473 -58.5329 L -180.9676 -54.487 L -177.8443 -48.9687 L -175.0793 -44.9113 L -170.945 -39.7838 L -167.4451 -35.9419 L -163.0666 -31.5143 L -153.4496 -22.9634 L -147.8831 -18.5108 L -141.1233 -13.3863 L -135.2467 -9.0441 L -127.7595 -3.6124 L -120.3712 1.6531 L -112.6864 7.0835 L -104.248 13.0565 L -95.6334 19.2165 L -87.4975 25.1103 L -79.4754 30.9954 L -73.0467 35.7634 L -65.3044 41.5655 L -59.293 46.101 L -52.3788 51.3357 L -46.8701 55.5196 L -41.0086 59.9845 L -37.1493 62.9317 L -30.5252 68.0039 L -26.1769 71.3427 L -21.8839 74.6535 L -17.4092 78.1732 L -13.3217 81.5398 L -11.1136 83.4965 L -8.8139 85.7486 L -4.2199 91.8909 L -2.9736 94.6112 L -2.0333 97.9142 L -1.7078 100.6411 L -1.9057 104.1526 L -2.5362 106.7108 L -3.9431 109.7741 L -5.4093 111.8402 L -7.6496 114.0413 L -9.8299 115.5297 L -13.1642 117.0139 L -16.5286 117.9207 L -20.7375 118.6072 L -25.0762 119.0182 L -30.1235 119.2323 L -33.3212 119.2297 L -39.1677 119.0785 L -43.9937 118.9091 L -50.7684 118.6187 L -55.8633 118.36 L -63.0421 117.9368 L -69.668 117.4849 L -78.1289 116.8229 L -84.3532 116.2757 L -94.0492 115.3259 L -101.3101 114.5421 L -111.1189 113.4467 L -118.8466 112.5944 L -127.983 111.5414 L -138.6481 110.2122 L -148.9267 108.8278 L -160.1084 107.2148 L -172.1004 105.4185 L -180.1827 104.1851 L -190.953 102.5448 L -197.6693 101.5583 L -209.0331 99.9509 L -220.3279 98.3694 L -230.8987 96.9096 L -239.4614 95.7964 L -250.6183 94.4617 L -259.1184 93.5059 L -269.5349 92.3658 L -277.9623 91.4652 L -288.2732 90.4149 L -299.1159 89.3886 L -309.7999 88.501 L -313.4523 88.2467 L -320.9392 87.8471 L -329.1971 87.6897 L -337.0939 87.9494 L -343.4097 88.5859 L -350.4589 89.881 L -356.4173 91.5737 L -363.3819 94.2581 L -373.1113 99.2002 L -383.4942 106.199 L -392.9705 114.5944 L -400.5165 123.0214 L -404.0035 127.4069 L -407.3475 131.8352 L -410.3076 135.863 L -413.1575 139.8296 L -415.0317 142.4882 L -416.839 145.092 L -418.219 147.1091 L -419.7349 149.3709 L -420.8946 151.1905 L -422.2771 153.739 L -423.2114 156.2115 L -423.6578 158.6976 L -423.6978 160.1465 L -423.4756 162.2812 L -422.8406 164.5829 L -421.8389 166.6977 L -420.8605 168.155 L -419.446 169.7285 L -418.158 170.8136 L -416.3308 171.9584 L -414.8541 172.6205 L -412.858 173.2064 L -411.311 173.4906 L -409.0617 173.8237 L -407.1736 174.085 L -404.1947 174.4638 L -400.6579 174.8427 L -396.4824 175.1927 L -392.2753 175.4482 L -386.8231 175.704 L -381.4872 175.9312 L -374.3023 176.2343 L -368.3189 176.5114 L -360.4265 176.938 L -353.0398 177.4009 L -344.0531 178.0261 L -336.9354 178.563 L -326.9605 179.3376 L -317.7829 180.0462 L -306.7969 180.8841 L -294.562 181.805 L -282.5541 182.6926 L -269.3102 183.5848 L -256.3919 184.2775 L -242.2078 184.7808 L -227.5896 185.1245 L -212.5873 185.397 L -197.2158 185.6021 L -183.3654 185.7223 L -171.1452 185.7847 L -155.8469 185.8318 L -143.217 185.8834 L -130.4229 185.9825 L -115.4601 186.1287 L -94.179 186.3274 L -71.499 186.4695 L -54.7779 186.5269 L -36.8129 186.5795 L -18.6399 186.7233 L -1.3591 186.9469 L 18.2669 187.2448 L 29.257 187.3854 L 40.3041 187.5228 L 51.4084 187.6854 L 69.2736 188.0087 L 82.752 188.2967 L 101.8621 188.6989 L 116.2338 188.9887 L 134.0035 189.3361 L 149.5544 189.6302 L 163.7884 189.8909 L 183.4491 190.238 L 194.7014 190.4295 L 205.2804 190.5917 L 213.951 190.6992 L 223.045 190.7865 L 231.8536 190.8442 L 239.5729 190.871 L 244.815 190.8758 L 249.9513 190.8473 L 253.9872 190.7762 L 259.1908 190.5592 L 263.998 190.1117 L 268.9734 189.2755 L 273.7503 187.9446 L 282.0088 184.0827 L 289.8241 177.9943 L 295.3889 170.8849 L 298.0993 165.6324 L 299.8501 160.9419 L 301.5915 154.3394 L 302.5563 148.9759 L 303.4578 141.6124 L 303.8749 135.7401 L 303.9822 128.2609 L 303.6259 121.5299 L 302.7444 114.1089 L 301.0964 105.5716 L 298.9196 97.4616 L 296.536 90.337 L 293.4801 82.7136 L 290.1508 75.6511 L 285.7657 67.6901 L 281.744 61.3446 L 276.2298 53.7454 L 271.2909 47.7799 L 264.6644 40.7546 L 256.9882 33.7385 L 249.1908 27.6099 L 241.9007 22.6317 L 232.5811 17.0992 L 223.4097 12.3648 L 213.3042 7.8156 L 202.8568 3.7451 L 194.6911 .8593 L 184.55 -2.5835 L 177.0119 -5.2525 L 165.8867 -9.4859 L 158.5889 -12.4384 L 149.0119 -16.5326 L 140.8147 -20.3772 L 131.2052 -25.5806 L 124.2012 -30.0387 L 115.6389 -36.6001 L 109.6202 -42.1569 L 102.396 -49.9754 L 97.2544 -56.2264 L 92.4048 -62.6668 L 86.9314 -70.8893 L 81.8866 -80.0492 L 77.7568 -89.6471 L 74.7241 -99.0606 L 72.3564 -109.3869 L 70.915 -119.3543 L 70.1995 -130.1851 L 70.3081 -141.2298 L 71.2176 -151.7726 L 73.094 -163.057 L 75.8121 -173.6572 L 82.9874 -192.5739 L 91.9506 -211.2938 L 97.0952 -221.5277" stroke-width="12" stroke="#4fafdf" fill="none" id="S2"/><path d="M 100.2493 -227.8749 L 105.5242 -238.5513 L 109.5185 -246.5809 L 114.2459 -255.8939 L 118.5309 -264.1041 L 122.7924 -271.8787 L 126.1061 -277.6343 L 130.552 -284.9709 L 134.406 -290.7879 L 138.8425 -296.6862 L 142.6361 -301.1214 L 148.4056 -306.8956 L 154.2373 -311.7218 L 160.8065 -316.1589 L 167.3386 -319.5321 L 178.9339 -323.0842 L 183.3111 -323.5411 L 190.1964 -323.1347 L 196.6834 -321.3339 L 201.9966 -318.808 L 208.2329 -314.847 L 212.9576 -311.2309 L 219.0914 -305.6771 L 223.7323 -300.7347 L 229.7721 -293.4275 L 234.4178 -287.2287 L 240.2072 -278.8889 L 244.6824 -272.1338 L 251.8136 -261.2998 L 257.2033 -252.9583 L 263.9533 -242.0985 L 270.0076 -232.0725 L 277.6165 -219.3887 L 283.6227 -209.3447 L 291.2265 -196.5914 L 297.5699 -185.9189 L 306.0567 -171.5936 L 314.2485 -157.7445 L 323.1861 -142.7238 L 330.7196 -130.149 L 340.0546 -114.6171 L 345.5951 -105.3282 L 354.5477 -90.2456 L 364.2242 -73.9769 L 373.4848 -58.4573 L 383.4709 -41.7565 L 392.9907 -25.8494 L 402.6199 -9.7537 L 420.3038 19.8167 L 439.5705 51.9013 L 457.9791 82.3896 L 477.8515 115.2649 L 488.8391 133.477 L 499.8693 151.7679 L 508.343 165.7546 L 518.681 182.7591 L 527.4305 197.112 L 537.4096 213.4393 L 544.4336 224.9023 L 552.2744 237.6728 L 557.9316 246.9551 L 563.9347 257.0213 L 568.381 264.5936 L 572.6156 271.8906 L 575.7281 277.307 L 579.6963 284.2781 L 583.2078 290.514 L 585.9818 295.4874 L 588.2795 299.6364 L 590.8513 304.3154 L 592.9084 308.0848 L 595.5419 312.9704 L 597.4924 316.6894 L 599.756 321.2736 L 601.4914 325.3409 L 602.983 330.1089 L 603.7056 334.3663 L 603.7746 338.3159 L 601.6239 346.5685 L 599.1579 350.5114 L 595.4912 354.2748 L 586.7323 359.2544 L 574.9807 363.8882 L 568.4956 367.0111 L 561.8096 370.6284 L 555.676 373.969 L 548.2188 377.6466 L 541.7685 380.3741 L 533.9045 383.1428 L 524.4586 385.644 L 515.6951 387.1684 L 507.8242 387.9418 L 497.759 388.361 L 488.561 388.3719 L 479.6432 388.1771 L 458.3213 387.604 L 434.3824 387.1014 L 420.8586 386.8811 L 405.0971 386.6874 L 393.3523 386.5827 L 377.5254 386.4896 L 365.0328 386.4499 L 348.1966 386.3951 L 320.4595 386.2065 L 289.2571 385.8516 L 272.5604 385.6489 L 257.7882 385.4753 L 242.7393 385.3066 L 227.383 385.1429 L 208.1272 384.9491 L 194.6558 384.8201 L 173.4593 384.6293 L 156.9625 384.4896" stroke-width="12" stroke="#f7d347" fill="none" id="S3"/></svg>