<svg class="track" xmlns="http://www.w3.org/2000/svg" preserveAspectRatio="xMinYMid meet" height="400" width="600" viewBox="-500 0 1000 1"><path d="m111.406 288.319-11.381-.006-8.752-.024-10.829-.054-8.852-.061-10.961-.094-11.717-.118-22.217-.27-11.195-.155-9.13-.131-12.7-.191-9.212-.143-12.801-.206-11.431-.188-20.813-.283-21.671-.098-20.336-.086-12.4-.086-11.703-.075-22.018-.12-12.521-.058-12.55-.047-9.615-.028-12.596-.032-11.862-.018-11.818-.009-10.224-.002-11.509.004-9.783.008-10.03.013-8.27.015-9.674.013-8.021-.017-12.263-.086-5.003-.056-7.688-.109-8.014-.144-7.903-.169-6.891-.167-7.714-.184-5.832-.132-7.098-.155-4.392-.095-6.94-.146-6.636-.135-6.014-.115-5.772-.096-4.189-.052-4.011-.036-3.714-.024-4.112-.014-3.595-.003-3.499.006-2.717.011-3.18.019-2.454.019-2.86.017h-2.359l-2.685-.04-2.08-.094-2.546-.257-1.774-.328-2.208-.642-1.924-.842-1.845-1.157-1.51-1.352-1.244-1.583-.767-1.415-.64-1.921-.257-1.833.112-2.191.487-1.92 1.023-2.118 1.292-1.744 1.859-1.918 1.54-1.5 2.149-2.165 2.573-2.632 2.426-2.516 2.683-2.85 4.478-4.921 4.49-5.07 2.403-2.772 2.477-2.941 2.237-2.78 2.24-2.99 2.042-3.06 1.704-3.187 1.04-3.161.352-3.435-.348-3.412-1.772-6.133-2.508-6.744-1.35-3.681-.901-2.578-1.516-4.602-1.566-5.171-2.421-8.786-1.127-4.343-.71-2.823-1.309-5.391-.971-4.175-1.157-5.196-.974-4.604-.996-5.348-.679-4.766-.487-5.55-.154-4.95.173-6.128.343-4.437.66-6.449.588-5.076.755-6.85.547-5.402.698-7.263 1.22-11.947.66-5.92.94-7.933.791-6.197 1.222-8.735 1.217-7.905 1.306-8.04 1.101-6.631 1.308-7.761 1.429-8.413 1.595-9.605 1.412-8.683 1.522-9.35 1.897-11.73 1.163-7.353 1.346-8.565 2.729-17.386 2.321-15.36 1.403-9.565 1.234-8.419 1.415-9.653 1.153-7.83 1.414-9.547 1.496-9.994 1.41-9.268 1.504-9.707 1.24-7.884 1.51-9.446 1.155-7.123 1.422-8.665 1.425-8.55 1.43-8.427 1.25-7.231 1.113-6.373 1.798-10.168.837-4.682 1.005-5.595.875-4.946.617-3.544.801-4.663.634-3.741.817-4.824.629-3.637.882-4.63.788-3.401 1.368-4.167 1.42-2.857 2.222-2.952 1.8-1.567 1.948-1.175 1.496-.658 1.99-.699 1.662-.491 1.912-.488 1.682-.338 2.035-.3 3.242-.216 2.046.045 2.377.244 2.377.458 2.878.835 3.223 1.232 3.147 1.519 2.393 1.408 3.577 2.588 3.317 2.969 3.243 3.437 2.493 2.885 3.575 4.288 2.732 3.262 3.793 4.425 2.804 3.24 3.889 4.478 4.051 4.636 4.213 4.756 2.711 3.026 4.743 5.227 3.738 4.06 4.732 5.063 4.248 4.474 5.284 5.412 4.116 4.053 5.427 5.131 4.162 3.803 5.452 4.833 4.172 3.587 5.443 4.571 4.137 3.423 5.385 4.368 4.431 3.485 5.12 3.785 4.228 2.867 5.313 3.216 4.397 2.353 5.48 2.582 5.498 2.331 5.315 2.209 4.055 1.8 4.992 2.407 3.697 1.924 4.411 2.51 3.952 2.552 3.946 2.992 2.734 2.451 3.32 3.519 2.93 3.768 2.67 4.225 1.695 3.373 1.629 4.314 1.002 3.895.677 4.565.192 3.774-.135 4.718-.437 4.794-.586 4.878-.519 4.322-.557 5.213-.447 4.86-.36 4.816-.229 4.774-.031 5.019.181 3.793.492 4.602.641 3.668 1.087 4.402 1.442 4.247 1.669 3.837 1.7 3.207 2.587 4.031 2.273 2.971 3.125 3.565 2.764 2.876 3.46 3.322 3.252 2.873 4.319 3.545 4.647 3.59 5.574 4.145 4.23 3.087 5.434 3.899 6.031 4.273 5.887 4.159 6.413 4.564 6.117 4.405 6.431 4.694 4.849 3.58 5.875 4.384 4.607 3.469 5.348 4.042 4.01 3.042 4.684 3.564 3.103 2.367 3.6 2.752 2.063 1.579 3.473 2.665 3.228 2.486 3.371 2.638 3.088 2.513 7.11 7.749.835 1.609.872 2.465.435 4.543-1.163 4.377-2.597 3.526-3.73 2.403-2.562.851-2.862.572-3.336.394-3.437.217-3.026.05-3.506-.067-8.415-.304-9.287-.482-10.72-.746-11.726-1.048-12.607-1.36-12.949-1.444-7.44-.898-7.636-.996-8.783-1.235-8.468-1.256-6.551-.993-8.084-1.237-6.05-.904-7.037-1.007-8.49-1.19-8.441-1.177-6.43-.862-8.38-1.036-5.897-.676-8.316-.92-5.846-.631-8.239-.861-9.597-.928-7.574-.653-3.248-.241-4.01-.251-6.54-.24-6.485.063-10.116 1.139-9.53 2.821-7.716 3.63-4.481 2.663-3.208 2.196-4.293 3.368-3.065 2.754-3.645 3.729-2.316 2.62-2.925 3.579-2.438 3.173-2.278 3.07-2.245 3.095-1.848 2.603-1.294 1.855-1.21 1.76-.938 1.388-1.165 1.787-.858 1.478-.825 1.834-.494 1.869-.124 1.528.074 1.292.371 1.764.612 1.549 1.719 2.486 2.176 1.768 2.561 1.109 2.836.525 3.397.463 2.49.286 2.946.274 6.884.408 8.696.37 10.425.495 11.972.761 12.067.91 15.317 1.18 8.481.642 8.854.661 9.781.695 10.152.608 9.887.421 10.827.293 11.143.225 11.414.175 10.988.116 11.218.069 9.277.033 11.599.038 7.351.049 11.155.102 9.8.099 7.609.071 17.735.12 12.514.049 12.667.032 13.581.09 13.74.164 13.877.212 8.225.112 8.267.101 8.312.112 11.7.197 23.582.494 24.614.495 12.062.232 11.778.217 14.723.264 8.73.15 8.631.141 13.764.167 6.444.05 6.174.03 4.321.008 4.079-.006 3.277-.038 3.696-.108 3.862-.268 3.553-.482 3.651-.836 3.487-1.236 2.785-1.334 3.325-2.057 2.647-2.097 2.813-2.888 1.597-2.071 2.355-3.98 1.448-3.394 1.395-4.522.842-3.917.797-5.406.435-4.66.217-5.534-.108-4.635-.523-5.868-1.052-6.37-1.361-5.687-1.62-5.335-2.265-6.108-2.167-4.939-3.085-6.015-3.081-5.171-3.961-5.77-3.564-4.545-4.8-5.37-5.245-5.083-5.666-4.751-5.306-3.869-6.84-4.323-6.758-3.695-7.467-3.567-7.736-3.194-7.485-2.728-6.173-2.105-7.574-2.624-6.527-2.426-7.335-2.912-5.867-2.46-7.522-3.416-5.582-2.873-6.992-4.209-5.409-3.916-5.704-4.985-4.257-4.394-5.159-6.054-2.858-3.678-4.27-6.068-4.009-6.751-3.165-6.66-2.686-7.387-1.903-7.205-1.397-7.869-.726-7.581-.178-8.221.422-7.865 1.11-8.444 1.859-8.463 2.479-7.899 2.286-5.861 3.463-7.767 3.042-6.298 3.872-7.697 4.043-8.111 3.956-8.007 2.996-6.022 3.545-6.985 3.214-6.158 3.196-5.831 2.486-4.316 3.334-5.503 2.891-4.363 3.327-4.423 2.845-3.326 4.327-4.331 4.373-3.619 4.928-3.328 4.899-2.53 8.696-2.664 3.283-.343 5.164.304 4.865 1.351 3.986 1.894 4.677 2.971 3.544 2.712 4.6 4.165 3.481 3.707 4.53 5.481 3.484 4.649 4.343 6.255 3.356 5.066 5.349 8.125 4.042 6.257 5.063 8.145 4.54 7.519 5.706 9.512 4.505 7.533 5.702 9.566 4.758 8.004 6.365 10.744 6.143 10.387 6.704 11.265 5.651 9.431 7.001 11.649 4.155 6.967 6.715 11.312 7.257 12.203 6.945 11.639 7.49 12.525 7.14 11.931 7.222 12.071 13.263 22.178 14.45 24.064 13.806 22.867L358.39 86.45l8.24 13.659 8.272 13.717 6.356 10.491 7.753 12.753 6.563 10.765 7.484 12.245 5.268 8.597 5.88 9.578 4.244 6.962 4.502 7.55 3.334 5.68 3.176 5.473 2.334 4.062 2.976 5.228 2.634 4.677 2.08 3.73 1.724 3.113 1.928 3.508 1.543 2.828 1.975 3.664 1.462 2.79 1.698 3.438 1.301 3.05 1.119 3.576.542 3.193.052 2.963-1.613 6.189-1.85 2.957-2.75 2.823-6.569 3.735-8.813 3.475-4.864 2.342-5.014 2.713-4.601 2.506-5.593 2.758-4.838 2.045-5.899 2.077-7.084 1.876-6.573 1.143-5.902.581-7.55.314-6.899.007-6.688-.146-15.991-.43-17.954-.377-10.142-.165-11.822-.146-8.809-.078-11.87-.07-9.369-.03-12.627-.041-20.803-.141-23.402-.266-12.523-.152-11.079-.131-11.287-.126-11.517-.123-14.442-.146-10.103-.097-15.898-.143-12.372-.105z" stroke-width="21" stroke="#000" fill="none"/><path d="m111.406 288.319-11.381-.006-8.752-.024-10.829-.054-8.852-.061-10.961-.094-11.717-.118-22.217-.27-11.195-.155-9.13-.131-12.7-.191-9.212-.143-12.801-.206-11.431-.188-20.813-.283-21.671-.098-20.336-.086-12.4-.086-11.703-.075-22.018-.12-12.521-.058-12.55-.047-9.615-.028-12.596-.032-11.862-.018-11.818-.009-10.224-.002-11.509.004-9.783.008-10.03.013-8.27.015-9.674.013-8.021-.017-12.263-.086-5.003-.056-7.688-.109-8.014-.144-7.903-.169-6.891-.167-7.714-.184-5.832-.132-7.098-.155-4.392-.095-6.94-.146-6.636-.135-6.014-.115-5.772-.096-4.189-.052-4.011-.036-3.714-.024-4.112-.014-3.595-.003-3.499.006-2.717.011-3.18.019-2.454.019-2.86.017h-2.359l-2.685-.04-2.08-.094-2.546-.257-1.774-.328-2.208-.642-1.924-.842-1.845-1.157-1.51-1.352-1.244-1.583-.767-1.415-.64-1.921-.257-1.833.112-2.191.487-1.92 1.023-2.118 1.292-1.744 1.859-1.918 1.54-1.5 2.149-2.165 2.573-2.632 2.426-2.516 2.683-2.85 4.478-4.921 4.49-5.07 2.403-2.772 2.477-2.941 2.237-2.78 2.24-2.99 2.042-3.06 1.704-3.187 1.04-3.161.352-3.435-.348-3.412-1.772-6.133-2.508-6.744-1.35-3.681-.901-2.578-1.516-4.602-1.566-5.171-2.421-8.786-1.127-4.343-.71-2.823-1.309-5.391-.971-4.175-1.157-5.196-.974-4.604-.996-5.348-.679-4.766-.487-5.55-.154-4.95.173-6.128.343-4.437.66-6.449.588-5.076.755-6.85.547-5.402.698-7.263 1.22-11.947.66-5.92.94-7.933.791-6.197 1.222-8.735 1.217-7.905 1.306-8.04 1.101-6.631 1.308-7.761 1.429-8.413 1.595-9.605 1.412-8.683 1.522-9.35 1.897-11.73 1.163-7.353 1.346-8.565 2.729-17.386 2.321-15.36 1.403-9.565 1.234-8.419 1.415-9.653 1.153-7.83 1.414-9.547 1.496-9.994 1.41-9.268 1.504-9.707 1.24-7.884 1.51-9.446 1.155-7.123 1.422-8.665 1.425-8.55 1.43-8.427 1.25-7.231 1.113-6.373 1.798-10.168.837-4.682 1.005-5.595.875-4.946.617-3.544.801-4.663.634-3.741.817-4.824.629-3.637.882-4.63.788-3.401 1.368-4.167 1.42-2.857 2.222-2.952 1.8-1.567 1.948-1.175 1.496-.658 1.99-.699 1.662-.491 1.912-.488 1.682-.338 2.035-.3 3.242-.216 2.046.045 2.377.244 2.377.458 2.878.835 3.223 1.232 3.147 1.519 2.393 1.408 3.577 2.588 3.317 2.969 3.243 3.437 2.493 2.885 3.575 4.288 2.732 3.262 3.793 4.425 2.804 3.24 3.889 4.478 4.051 4.636 4.213 4.756 2.711 3.026 4.743 5.227 3.738 4.06 4.732 5.063 4.248 4.474 5.284 5.412 4.116 4.053 5.427 5.131 4.162 3.803 5.452 4.833 4.172 3.587 5.443 4.571 4.137 3.423 5.385 4.368 4.431 3.485 5.12 3.785" stroke-width="9" stroke="#e73323" fill="none"/><path d="m-208.178-171.617 3.94 2.546 5.357 3.084 4.421 2.243 5.501 2.472 5.457 2.269 5.502 2.34 3.928 1.815 4.623 2.305 3.655 1.965 4.341 2.588 3.864 2.641 3.823 3.111 2.843 2.753 2.965 3.399 2.941 4.094 2.336 4.054 1.545 3.43 1.506 4.649.81 3.946.447 4.319.057 3.797-.262 4.745-.55 5.13-.602 4.915-.495 4.316-.493 4.887-.419 4.845-.33 5.097-.158 4.753.041 3.826.332 4.939.446 3.43.945 4.76 1.153 4.07 1.573 4.186 1.41 3.035 2.342 4.138 2.074 3.043 3.101 3.845 2.625 2.881 3.284 3.321 7.213 6.413 4.175 3.34 5.07 3.844 4.407 3.256 5.616 4.074 5.541 3.949 5.764 4.072 6.329 4.48 6.461 4.62 6.101 4.421 6.017 4.414 4.821 3.576 5.807 4.352 4.508 3.401 5.185 3.926 4.132 3.138 4.396 3.348 2.895 2.211 4.968 3.804 3.261 2.504 3.22 2.482 3.356 2.64 3.065 2.525 1.656 1.467 1.725 1.69 3.446 4.607.934 2.04.705 2.477.244 2.045-.149 2.634-.473 1.918-1.055 2.297-1.099 1.549-1.68 1.651-1.635 1.117-2.501 1.113-2.524.68-3.157.515-3.253.308-3.785.161-2.398-.002-4.385-.113-3.619-.128-5.08-.217-3.821-.194-5.385-.317-4.969-.339-6.345-.497-4.669-.41-7.272-.712-5.446-.588-7.357-.821-5.796-.64-6.852-.79-7.999-.997-7.709-1.038-8.386-1.21-8.994-1.348-6.062-.925-8.078-1.23-5.037-.74-8.523-1.205-8.471-1.187-7.928-1.095-6.422-.835-8.368-1.001-6.375-.717-7.813-.855-6.32-.675-7.733-.788-8.132-.77-8.013-.666-2.739-.191-5.615-.3-6.193-.118-5.923.195-4.737.477-5.287.971-4.469 1.27-5.224 2.013-7.298 3.707-7.787 5.249-7.107 6.296-5.66 6.32-2.615 3.29-2.509 3.321-2.22 3.021-2.138 2.975-1.405 1.994-1.355 1.953-1.035 1.513-1.137 1.696-.87 1.365-1.036 1.911-.701 1.854-.335 1.865-.03 1.086.167 1.601.476 1.727.752 1.586.734 1.093 1.061 1.18.966.815 1.37.858 1.108.497 1.497.44 1.16.214 1.688.25 1.415.196 2.235.284 2.652.284 3.132.262 3.155.191 4.089.192 4.002.17 5.389.227 4.487.208 5.92.32 5.54.347 6.74.469 5.338.403 7.481.581 6.884.531 8.239.628 9.176.691 9.006.666 9.933.669 9.688.519 10.638.378 10.963.258 11.252.204 11.528.154 10.387.09 9.165.047 11.475.035 9.472.038 9.596.075 11.222.109 15.961.149 17.01.107 12.541.043 13.474.04 13.63.107 12.96.168 14.72.223 8.242.105 8.285.104 8.328.121 13.399.243 10.108.216 14.332.301 10.779.217 13.328.26 11.663.22 10.675.195 14.746.261 8.439.143 7.935.122 6.502.08 6.82.065 6.607.044 5.789.02 3.931.004 3.852-.022 3.027-.053 3.903-.164 3.605-.335 3.731-.628 3.583-.998 6.194-2.897 5.861-4.567 4.174-5.333 2.032-3.939 1.313-3.518 1.306-4.952.724-4.022.676-5.523.313-4.404.08-5.61-.267-5.048-.661-5.566-1.236-6.403-1.632-6.082-1.788-5.344-2.292-5.717-2.498-5.297-3.288-5.97-3.017-4.76-4.136-5.7-3.705-4.474-4.97-5.269-5.757-5.263-5.848-4.596-5.468-3.733-6.99-4.15-6.878-3.55-7.579-3.412-7.835-3.053-6.12-2.155-7.604-2.582-5.654-2.002-8.344-3.175-5.473-2.214-7.183-3.071-6.148-2.883-7.207-3.903-5.253-3.344-6.421-4.921-4.514-4.168-5.418-5.864-3.857-4.688L69.304-47l-4.105-6.167-3.783-6.87-3.098-7.199-2.275-7.06-1.776-7.745-1.081-7.475-.537-8.123.083-8.284.682-7.907 1.407-8.463 2.038-7.95 5.381-14.188 6.723-14.04 3.858-7.675" stroke-width="9" stroke="#4fafdf" fill="none"/><path d="m75.188-170.906 3.955-8.007 2.996-6.022 3.545-6.985 3.214-6.158 3.196-5.831 2.486-4.316 3.334-5.503 2.891-4.363 3.327-4.423 2.845-3.326 4.327-4.331 4.373-3.619 4.928-3.328 4.899-2.53 8.696-2.664 3.283-.343 5.164.304 4.865 1.351 3.986 1.894 4.677 2.971 3.544 2.712 4.6 4.165 3.481 3.707 4.53 5.481 3.484 4.649 4.343 6.255 3.356 5.066 5.349 8.125 4.042 6.257 5.063 8.145 4.54 7.519 5.706 9.512 4.505 7.533 5.702 9.566 4.758 8.004 6.365 10.744 6.143 10.387 6.704 11.265 5.651 9.431 7.001 11.649 4.155 6.967 6.715 11.312 7.257 12.203 6.945 11.639 7.49 12.525 7.14 11.931 7.222 12.071 13.263 22.178 14.45 24.064 13.806 22.867L358.39 86.45l8.24 13.659 8.272 13.717 6.356 10.491 7.753 12.753 6.563 10.765 7.484 12.245 5.268 8.597 5.88 9.578 4.244 6.962 4.502 7.55 3.334 5.68 3.176 5.473 2.334 4.062 2.976 5.228 2.634 4.677 2.08 3.73 1.724 3.113 1.928 3.508 1.543 2.828 1.975 3.664 1.462 2.79 1.698 3.438 1.301 3.05 1.119 3.576.542 3.193.052 2.963-1.613 6.189-1.85 2.957-2.75 2.823-6.569 3.735-8.813 3.475-4.864 2.342-5.014 2.713-4.601 2.506-5.593 2.758-4.838 2.045-5.899 2.077-7.084 1.876-6.573 1.143-5.902.581-7.55.314-6.899.007-6.688-.146-15.991-.43-17.954-.377-10.142-.165-11.822-.146-8.809-.078-11.87-.07-9.369-.03-12.627-.041-20.803-.141-23.402-.266-12.523-.152-11.079-.131-11.287-.126-11.517-.123-14.442-.146-10.103-.097-15.898-.143-12.372-.105" stroke-width="9" stroke="#f7d347" fill="none"/></svg>
