<svg class="track" xmlns="http://www.w3.org/2000/svg" preserveAspectRatio="xMinYMid meet" height="400" width="600" viewBox="-800 -650 1 950"><path d="m-331.19-89.43 3.42-10.61 3.49-10.73 6.68-20.41 6.78-20.81 6.61-20.48 6.39-20.12 3.66-11.63 2.98-9.53 3.67-11.82 3.23-10.39 3.95-12.72 3.04-9.79 3.78-12.11 3.12-9.88 4.15-13 3.2-10 3.96-12.4 4.22-13.28 7.27-22.87 4.28-13.43 4.23-13.27 3.92-12.31 4.1-12.89 4.03-12.63 3.68-11.58 3.82-11.97 3.52-10.96 2.83-8.67 3.41-10.3 1.88-5.59 3.28-9.57 3.38-9.7 3.02-8.67 2.99-8.64 2.6-7.53 2.1-5.92 2.14-5.78 2.7-6.78 2.97-6.83 3.47-7.28 3.07-5.81 3.46-5.81 3.43-5.12 3.36-4.49 3.03-3.68 4.11-4.59 3.24-3.36 4.07-4 3.38-3.13 4.54-3.89 4.69-3.62 4.82-3.35 4.06-2.55 5.05-2.86 4.26-2.14 5.3-2.35 3.83-1.49 5.54-1.88 4.31-1.25 5.38-1.31 4.44-.87 5.87-.84 5.55-.46 5.54-.1 5.88.28 5.85.67 5.48.97 10.02 2.8 5.44 2.15 5.17 2.57 4.62 2.78 4.92 3.52 5.11 4.36 3.79 3.79 3.69 4.3 3.16 4.26 4.29 7.23.82 1.7 1.86 4.55 1.19 3.71 1.15 4.82.58 3.59.37 4.51.02 3.29-.25 3.88-.99 6.2-1.81 6.42-1.27 3.21-1.55 3.24-1.66 2.93-1.98 2.98-2.19 2.77-2.32 2.44-2 1.75-2.3 1.73-2.28 1.47-2.39 1.31-1.71.79-2.65 1.01-2.57.76-5.55.97-5.35.05-3.31-.39-2.94-.57-3.28-.92-2.68-1.02-2.81-1.36-2.24-1.34-2.48-1.75-1.8-1.42-2.2-1.89-1.84-1.66-2.37-2.16-2.19-1.96-4.18-3.54-2.53-1.93-2.02-1.43-2.47-1.58-2.14-1.23-2.48-1.22-1.58-.67-2.58-.93-4.95-1.29-3.1-.48-3.03-.19-2.67.07-3.1.39-2.81.66-2.9.99-2.85 1.28-2.84 1.62-2.59 1.83-2.41 2.15-.96 1.02-1.93 2.46-1.58 2.61-1.31 2.92-.94 2.93-.64 3.07-.29 2.38-.14 3.5.12 2.97.3 2.83.36 2.2.82 3.56 2 5.85 3.09 6.63 2.11 3.64 2.55 3.79 2.68 3.42 3.13 3.44 3.4 3.25 3.44 2.88 3.86 2.89 3.81 2.54 3.48 2.09 4.38 2.37 2.93 1.45 4.39 1.95 4.56 1.79 5.35 1.82 3.68 1.1 5.05 1.32 4.22.94 5.32.99 4.42.65 5.54.59 4.58.32 5.72.23 6.53.06 5.88-.09 5.23-.2 6.05-.37 6.19-.54 6.4-.73 5.75-.81 6.76-1.13 6.06-1.14 7.12-1.41 6.41-1.27 7.5-1.44 6.73-1.26 7.84-1.47 6.5-1.21 8.14-1.48 7.25-1.3 8.42-1.53 6.39-1.2 9.18-1.76 8.22-1.59 9.44-1.85 7.89-1.53 9.72-1.86 9.32-1.74 17.91-3.12 18.25-2.76 16.15-1.84 5.27-.45 7.53-.5 9.14-.41 7.32-.2 9.46-.08 13.68.21 9.13.36 9 .54 8.36.68 8.88.92 6.3.76 8.44 1.17 6.93 1.07 9.16 1.58 7.64 1.45 8.88 1.79 5.62 1.18 10.25 2.24 6.89 1.52 9.14 2 8.89 1.93 8.49 1.82 7.01 1.5 7.47 1.6 6.01 1.32 6.57 1.47 4.8 1.09 4.82 1.13 4.33 1.02 3.81.92 3.38.83 3.65.9 3.23.85 3.43 1 3.19 1.07 2.77 1.11 2.07.97 2.44 1.37 1.68 1.12 1.98 1.55 1.43 1.29 1.75 1.82 1.27 1.5 1.55 2.13 1.08 1.74 1.25 2.42.77 1.93.74 2.54.36 1.96.22 2.6-.02 2.01-.31 2.64-.43 1.99-.85 2.55-.85 1.94-1.39 2.5-1.26 1.89-1.76 2.28-1.59 1.82-2.18 2.19-2.26 1.99-1.63 1.28-2.81 2.01-3.05 1.93-2.65 1.53-3.49 1.81-4 1.86-4.3 1.8-3.76 1.48-4.81 1.77-3.79 1.3-4.67 1.48-4 1.13-4.75 1.17-3.33.73-4.76.9-2.83.46-4.61.66-5.03.58-4.88.45-3.76.27-5.45.31-4.59.17-5.35.1h-4.42l-5.52-.11-4.56-.17-6.06-.32-5.8-.37-6.63-.48-4.51-.33-6.55-.54-6.78-.64-6.97-.74-6.72-.76-10.79-1.33-6.65-.86-5.88-.74-7.36-.89-6.1-.69-8.11-.86-6.31-.62-8.37-.79-6.98-.61-7.98-.65-6.38-.45-7.68-.45-6.09-.26-7.32-.21-7.11-.13-6.82-.04-5.69.05-6.23.21-5.23.31-6.15.57-3.52.44-5.47.9-4.63.98-5.14 1.34-7.41 2.48-2.7 1.06-3.86 1.63-4.68 2.16-3.78 1.86-4.59 2.43-4.85 2.78-4.53 2.84-4.76 3.25-4.67 3.51-4.55 3.8-7.62 7.37-7.49 8.79-2.86 3.82-2.75 3.93-3.28 4.99-2.38 3.84-3.24 5.59-3.04 5.77-2.63 5.61-2.38 5.77-3.76 11.24-2.72 12.11-.94 6.8-.53 6.47-.2 6.91.17 6.95.47 6.56.81 6.97.9 5.76 1.36 6.94 1.25 5.29 1.94 6.86 1.74 5.18 2.45 6.3 2.82 6.15 3.36 6.38 3.69 6.25 3.74 5.82 3.96 5.81 3.33 4.74 4.21 5.89 3.45 4.83 4.15 5.97 3.41 5.16 3.77 6.23 2.59 4.75 3.01 6.16 1.99 4.69 2.05 5.72 1.44 4.97 1.24 5.59.9 5.83.49 5.37.24 5.59-.01 5.15-.21 5.05-.45 5.24-.46 3.63-.91 5.03-.89 3.76-1.44 4.79-1.29 3.56-1.78 4.24-1.73 3.59-2.17 3.94-2.06 3.34-2.55 3.69-2.22 2.88-2.92 3.4-2.71 2.84-3.47 3.25-3.66 3.04-3.82 2.82-3.03 2-3.84 2.28-3.97 2.07-4.34 1.95-4.5 1.72-4.71 1.54-4.39 1.19-3.65.8-5.35.86-4.55.43-5.66.16L15 2.02l-5.89-.53L3.16.68-2.85-.38l-3.55-.71-5.95-1.19-4.69-.89-5.11-.86-4.25-.6-4.63-.51-2.76-.2-4.24-.12-4.24.15-3.96.47-3.46.72-3.21.97-3.4 1.31-2.88 1.35-2.77 1.52-2.96 1.91-2.51 1.87-2.51 2.18-2.31 2.39-1.59 1.98-2.83 4.1-1.63 2.85-1.43 3.05-1.2 3.21-.97 3.4-.79 3.86-.54 4.08-.24 3.53-.05 3.39.18 4.03.37 3.58.77 4.76.79 3.71 1.3 4.9 1.25 3.77 1.85 4.61 1.78 3.68 2.5 4.42 2.45 3.77 3.08 4.19 3.58 4.31 3.89 4.15 3.95 3.72 4.23 3.5 4.79 3.42 5.06 3.11 4.99 2.62 5.48 2.48 5.68 2.15 4.12 1.32 5.64 1.52 4.73 1.05 6.36 1.13 5.47.73 6.88.66 5.84.37 6.85.23 5.73.08h6.84l6.62-.07 7.84-.14 8.12-.13 8.41-.12 9.25-.17 8.99-.22 8.07-.19 9.46-.17 8.49-.11 10.56-.1 10.83-.06 11.1.03 11.45.11 21.97.33 22.55.41 24.48.41 24.36.35 23.71.43 12.82.33 12.27.34 11.62.31 10.88.25 9.57.23 8.94.25 8.78.28 7.59.25 6.12.19 6.27.17 4.65.1 5.9.09 4.38.03 4.09-.03 6.02-.25 4.14-.41 3.41-.55 2.56-.58 2.97-.92 3.09-1.24 2.87-1.47 2.7-1.68 2.53-1.91 1.83-1.64 2.07-2.24 1.96-2.65 1.74-3.07 1.13-2.59 1.05-3.19.7-2.98.51-3.62.16-3.3-.18-3.86-.47-3.43-1.82-7.53-1.23-4.38-.9-3.64-.73-4.1-.28-2.96.03-4.19.32-2.85.72-3.58.83-2.85 1.22-3.12 1.29-2.61 1.84-3.06 2.03-2.82 4.65-5 3.11-2.67 3.42-2.54 2.82-1.85 3.97-2.23 4.24-1.94 4.49-1.59 4.39-1.13 4.53-.76 4.64-.41 5.05-.08 3.9.2 6.05.75 3.02.59 3.61.91 4.74 1.55 4.64 1.95 4.5 2.36 4.6 2.91 3.65 2.69 3.73 3.15 3.31 3.19 3.36 3.64 2.76 3.33 3.39 4.56 3.14 4.77 2.74 4.67 2.66 5.12 2.37 5.28 1.93 5.13 1.44 4.59 1.32 5.34 1.03 5.79.6 5.56.28 8.14-.23 5.8-.31 3.68-.85 6.34-.94 4.91-1.65 6.55-1.56 5.06-2.14 5.87-2.15 5.09-3.42 7.03-2.79 5.04-2.32 3.82-5.71 8.18-2.87 3.57-3.97 4.5-5.28 5.26-4.59 4.02-6.38 4.9-5.14 3.47-6.6 3.95-5.55 2.97-7.06 3.34-7.74 3.14-7.5 2.55-8.16 2.25-7.85 1.68-8.49 1.35-13.31 1.21-9.01.34-7.07.16-8.35.19-7.98.22-9.99.29-7.88.18-10.63.16-8.41.1-11.36.11-9.68.07-11.42.09-9.56.08-12.11.13-12.48.15-13.63.23-13.19.21-13.54.1-11.24.02-24.04.18-15.57.23-11.2.17-15.18.25-16.43.3-16.73.31-13.99.24-17.27.26-13.3.18-16.61.22-12.61.19-16.98.27-13.96.25-17.36.33-14.25.3-18.81.43-14.54.36-19.18.48-15.94.41-19.54.5-10.42.27-19.81.5-15.28.38-18.94.47-15.5.39-20.41.53-19.35.51-20.72.52-19.63.48-19.76.48-19.89.49-20 .5-17.59.44-20.22.51-16.5.42-21.68.56-15.31.4-20.2.52-20.91.57-30.58.89-19 .61-14 .48-17.61.61-11.98.4-16.32.5-12.77.34-14.7.39-10.82.31-13.99.41-13.84.39-13.69.38-13.42.37-12.62.35-11.57.33-8.17.24-9.85.3-6.84.21-7.63.23-6.02.16-6.44.15-4.31.09-4.9.08-4.59.07-4.01.06-2.7.03-3.37.04-2.49.03-3.37-.02-2.22-.07-3.15-.22-2.59-.34-3.1-.67-2.13-.64-2.73-1.09-2.04-1.05-2.5-1.64-1.56-1.3-1.77-1.81-1.16-1.47-1.18-1.89-.75-1.59-.69-2.09-.35-2.07-.06-2.06.13-1.62.35-2.09.58-2.26 1.51-3.85 3.37-5.28 2.51-2.81 2.81-2.58 3.19-2.48 3.08-2.05 4.1-2.31 4.5-2.15 3.73-1.58 5.26-1.98 5.29-1.79 5.6-1.74 4.74-1.35 6.52-1.64 5.22-1.13 6.71-1.21 6.1-.87 7.7-.78 6.14-.4 8.83-.25h8.18l7.99.14 7.76.2 9.85.25 8.44.17 10.04.11 9.12.06 11.51.03 6.98-.01 11.49-.07 9.58-.12 12.73-.22 9.74-.2 12.56-.31 9.29-.27 10.89-.34 8.86-.33 9.88-.42 6.86-.37 8.13-.56 5.6-.46 6.47-.61 4.29-.45 4.75-.59 3.08-.45 3.75-.72 2.71-.65 3.27-.96 5.5-2.01 6.06-2.85 6.67-3.89 3.25-2.22 3.61-2.73 3.28-2.79 3.13-3.03 2.46-2.66 2.91-3.51 2.46-3.27 2.72-3.97 2.28-3.68 2.5-4.43 1.93-3.77 2.42-5.17 1.77-4.11 2.2-5.62 1.7-4.85 1.87-5.8 1.62-5.39 1.98-6.92 1.59-5.54 2.21-7.58 1.81-6.06 2.38-7.77 2.04-6.58 2.64-8.42 2.44-7.64 3.12-9.6 2.48-7.58 3.53-10.86 2.61-8.09 3.48-10.88 3.78-11.89 3.65-11.55 3.74-11.84 3.61-11.44 2.27-7.22 4.16-13.29 3.3-10.52z" stroke-width="28" stroke="#000" fill="none"/><path d="m-331.192-89.433 3.421-10.612 3.495-10.722 6.68-20.412 6.771-20.81 6.613-20.485 6.397-20.113 3.658-11.635 2.974-9.524 3.677-11.82 3.228-10.395 3.946-12.718 3.038-9.787 3.783-12.11 3.12-9.88 4.147-13.006 3.203-10 3.963-12.401 4.221-13.274 7.27-22.869 4.275-13.434 4.229-13.273 3.92-12.308 4.106-12.887 4.024-12.633 3.686-11.58 3.816-11.973 3.523-10.958 2.826-8.667 3.416-10.303 1.88-5.589 3.274-9.568 3.378-9.7 3.025-8.668 2.986-8.642 2.604-7.527 2.096-5.923 2.142-5.784 2.7-6.772 2.976-6.839 3.466-7.28 3.072-5.806 3.456-5.813 3.43-5.119 3.364-4.487 3.032-3.682 4.105-4.585 3.237-3.366 4.074-4 3.384-3.128 4.538-3.895 4.684-3.62 4.82-3.342 4.064-2.553 5.05-2.855 4.258-2.14 5.304-2.355 3.83-1.495 5.533-1.88 4.312-1.248 5.385-1.303 4.438-.87 5.866-.845 5.552-.456 5.54-.101 5.877.276 5.858.667 5.477.977 10.024 2.794 5.431 2.155 5.172 2.568 4.62 2.78 4.923 3.523 5.112 4.354 3.783 3.793 3.698 4.301 3.151 4.263 4.296 7.231.818 1.699 1.858 4.55 1.193 3.706 1.15 4.82.577 3.587.374 4.511.017 3.294-.25 3.876-.987 6.204-1.815 6.42-1.261 3.204-1.553 3.244-1.665 2.929-1.981 2.981-2.185 2.772-2.325 2.443-1.991 1.75-2.304 1.728-2.28 1.47-2.392 1.312-1.704.789-2.654 1.01-2.569.76-5.549.963-5.351.051-3.312-.383-2.94-.578-3.281-.92-2.681-1.014-2.81-1.363-2.24-1.338-2.481-1.746-1.8-1.425-2.2-1.891-1.835-1.656-2.37-2.16-2.193-1.964-4.178-3.538-2.526-1.932-2.028-1.426-2.465-1.582-2.146-1.227-2.48-1.228-1.577-.667-2.577-.927-4.951-1.29-3.096-.479-3.039-.193-2.665.07-3.104.394-2.811.658-2.897.989-2.852 1.283-2.832 1.612-2.59 1.839-2.413 2.148-.957 1.015-1.935 2.457-1.583 2.616-1.31 2.924-.934 2.92-.647 3.07-.289 2.387-.135 3.498.12 2.972.295 2.824.359 2.205.828 3.561 1.997 5.845 3.092 6.629 2.102 3.646 2.555 3.792 2.676 3.415 3.13 3.442 3.408 3.244 3.433 2.885 3.86 2.888 3.817 2.544 3.477 2.087 4.382 2.375 2.927 1.444 4.388 1.955 4.56 1.791 5.347 1.818 3.683 1.1 5.052 1.316 4.219.943 5.322.987 4.416.649 5.543.596 4.58.32 5.719.223 6.527.064 5.887-.091 5.223-.198 6.05-.368 6.19-.54 6.405-.737 5.752-.81 6.753-1.122 6.067-1.14 7.12-1.418 6.403-1.268 7.508-1.434 6.722-1.262 7.844-1.475 6.498-1.21 8.142-1.476 7.253-1.299 8.416-1.536 6.395-1.2 9.179-1.756 8.213-1.593 9.446-1.844 7.89-1.536 9.718-1.862 9.319-1.74 17.91-3.117 18.254-2.761 16.143-1.841 5.274-.442 7.531-.5 9.134-.414 7.32-.2 9.465-.084 13.677.21 9.135.361 8.994.541 8.366.68 8.881.92 6.292.765 8.447 1.164 6.928 1.076" stroke-width="12" stroke="#e73323" fill="none"/><path d="m306.087-477.284 9.723 1.715 7.123 1.37 9.463 1.937 5.645 1.203 9.706 2.125 6.9 1.522 9.105 1.994 8.824 1.91 8.903 1.907 6.414 1.368 7.795 1.679 5.466 1.2 6.774 1.523 4.325.994 4.983 1.167 3.992.952 4.017.97 3.095.756 3.612.903 3.192.851 3.579 1.073 2.95 1.03 2.727 1.12 2.18 1.062 2.245 1.315 1.755 1.22 1.84 1.491 1.508 1.407 1.632 1.745 1.255 1.533 1.523 2.156 1.06 1.764 1.203 2.442.785 2.086.634 2.397.34 2.117.152 2.449-.067 2.014-.356 2.641-.48 1.98-.898 2.545-.974 2.08-1.367 2.354-1.295 1.883-1.796 2.27-1.628 1.813-2.222 2.177-5.185 4.128-1.64 1.111-3.095 1.923-2.688 1.515-3.54 1.803-4.296 1.95-4.372 1.796-3.816 1.473-4.563 1.657-3.8 1.287-4.952 1.531-3.968 1.084-4.453 1.066-3.616.76-4.49.823-2.84.452-4.923.668-4.77.526-4.909.432-4.092.285-5.154.27-4.61.153-5.371.075-4.436-.019-5.539-.127-4.571-.185-6.078-.337-6.18-.412-6.29-.452-4.91-.373-6.214-.521-6.819-.66-7-.75-6.747-.776-5.588-.684-5.245-.669-6.678-.861-5.896-.74-7.395-.88-6.115-.682-8.141-.848-6.33-.62-8.393-.78-6.984-.607-7.967-.63-6.358-.438-7.638-.417-6.06-.244-7.726-.206-7.053-.106-6.734-.018-5.234.079-6.552.256-4.816.318-6.109.603-3.498.472-5.77 1.016-4.269.95-5.426 1.482-3.106 1.006-6.638 2.523-3.843 1.659-4.678 2.188-4.052 2.03-4.588 2.471-4.557 2.665-4.52 2.876-4.75 3.297-4.654 3.56-4.514 3.84-3.599 3.376-4.213 4.346-3.323 3.787-3.86 4.828-5.775 8.115-5.6 8.898-3.019 5.291-2.999 5.803-2.736 6-2.185 5.447-1.832 5.204-1.82 6.085-1.334 5.434-1.27 6.715-.869 6.817-.483 6.884-.117 6.516.234 6.95.568 6.971 1.84 12.711 2.737 12.226 3.689 11.617 2.518 6.267 2.883 6.126 3.636 6.722 3.765 6.231 3.558 5.452 3.986 5.812 3.357 4.746 4.222 5.898 3.443 4.846 4.11 5.954 3.356 5.155 3.698 6.225 2.717 5.1 2.744 5.796 1.924 4.679 2.078 6.075 1.256 4.596 1.166 5.576.825 5.802.444 5.35.193 5.572-.05 5.133-.258 5.024-.487 5.222-.545 3.913-.907 4.71-1.014 4.025-1.414 4.482-1.323 3.533-1.94 4.474-1.641 3.298-2.349 4.156-2.109 3.311-2.435 3.427-2.254 2.859-2.952 3.372-2.74 2.802-3.51 3.213-3.684 3.004-6.898 4.755-3.867 2.238-3.988 2.027-4.631 2.015-4.537 1.675-4.489 1.411-4.427 1.15-3.988.823-5.4.773-4.249.334-6.024.095-5.467-.253-5.893-.578L2.105.51l-9.922-1.885-5.557-1.109-4.645-.858-5.059-.825-4.21-.573-4.58-.468-2.739-.178-4.445-.067-3.937.205-3.912.52-3.413.776-3.361 1.072-3.174 1.282-2.86 1.384-2.91 1.654-2.774 1.84-2.633 2.027-2.33 2.09-2.26 2.433-1.69 2.162-1.588 2.276-1.708 2.77-1.523 2.965-1.374 3.343-1.05 3.322-.837 3.539-.649 3.996-.46 6.27.003 3.156.253 4.325.428 3.595.782 4.504.903 4.004 1.297 4.627 1.3 3.768 1.919 4.599 1.98 3.936 2.586 4.392 2.332 3.479 3.135 4.168 3.634 4.283 3.715 3.887 4.224 3.912 4.558 3.655 4.859 3.348 4.816 2.86 5.022 2.573 5.852 2.556 5.372 1.957 4.495 1.38 5.334 1.372 5.121 1.08 6.037 1.008 5.516.695 6.922.62 5.867.334 6.892.196 5.765.06 7.36-.02 6.205-.078 7.894-.135 8.175-.127 9-.134 9.323-.187 9.054-.229 7.54-.17 10.111-.164 7.924-.095 10.61-.101 10.88-.041 11.153.045 11.518.126 9.809.144 12.3.195 9.675.168 12.997.24 10.97.192 13.607.21 11.387.168 13.779.204 10.36.172" stroke-width="12" stroke="#4fafdf" fill="none"/><path d="m266.87 125.338 12.906.316 12.372.349 11.75.317 10.38.247 10.312.241 9.065.246 8.908.28 7.713.254 5.8.184 6.847.191 4.715.105 5.923.095 4.413.04 7.117-.067 3.223-.15 3.958-.35 3.697-.542 5.62-1.423 3.137-1.209 2.904-1.423 2.725-1.642 2.557-1.873 1.852-1.604 2.118-2.193 2.004-2.602 1.707-2.847 1.182-2.541 1.178-3.332.699-2.726.618-3.794.222-3.285-.126-4.091-.353-2.925-.845-4.222-.857-3.277-1.23-4.357-.94-3.638-.824-4.127-.384-3.247-.061-4.015.277-3.103.658-3.61.79-2.866 1.164-3.15 1.241-2.631 1.673-2.901 2.094-3.006 2.284-2.739 2.255-2.306 3.048-2.69 3.157-2.417 2.992-2.01 3.91-2.273 4.195-2 4.183-1.573 4.631-1.282 4.51-.827 4.623-.477 5.022-.145 3.596.127 4.225.392 8.76 1.696 4.762 1.476 4.657 1.876 4.526 2.282 4.637 2.84 3.673 2.633 3.773 3.1 3.113 2.909 3.632 3.83 2.793 3.29 3.236 4.248 3.2 4.727 2.957 4.92 2.709 5.09 2.29 4.944 2.124 5.41 1.488 4.568 1.385 5.33 1.043 5.427.727 5.876.335 5.627-.029 6.087-.374 5.852-.773 6.325-.885 4.89-1.461 6.144-1.483 5.05-2.189 6.255-2.084 5.093-3.137 6.644-2.925 5.437-4.719 7.625-1.544 2.238-8.336 10.347-5.195 5.32-4.529 4.074-5.926 4.692-5.075 3.542-6.944 4.279-5.518 3.017-7.015 3.404-7.7 3.218-7.457 2.632-7.644 2.207-8.305 1.883-8.463 1.43-8.108.928-5.149.39-8.427.375-7.573.186-8.31.18-7.365.199-9.906.295-8.421.2-10.567.175-8.353.106-11.286.111-8.92.069-12.04.088-8.763.075-12.018.119-13.177.157-13.56.214-13.127.221-12.625.122-11.175.026-15.833.063-8.066.08-15.497.217-12.077.186-15.129.243-15.406.276-16.662.314-13.933.246-17.177.263-14.322.195-16.572.222-12.571.183-16.95.268-13.925.24-17.32.323-14.215.292-18.781.424-14.51.354-19.138.482-14.78.376-19.488.498-11.555.298-19.785.508-15.257.382-18.908.462-15.479.387-19.189.499-19.308.508-20.681.525-20.832.51-19.732.479-19.864.489-19.978.496-16.36.41-21.406.541-16.49.42-21.663.556-15.33.397-20.258.53-19.868.53-20.312.57-11.63.345-18.039.574-15.208.515-16.725.584-13.096.444-16.45.507-12.007.332-14.909.396-11.713.327-14.01.41-13.871.395-13.726.382-13.49.373-12.075.334-12.48.351-8.3.241-10.02.307-6.986.215-7.787.23-5.726.16-7.026.171-4.414.09-4.981.088-4.726.074-3.907.054-2.938.039-3.4.044-2.506.024-3.19-.004-2.41-.054-3.153-.192-2.408-.28-3.12-.595-2.32-.655-2.754-1.043-2.088-1.018-2.436-1.513-1.738-1.369-1.721-1.682-1.296-1.566-1.234-1.876-.796-1.574-.712-1.967-.43-2.076-.125-2.18.086-1.485.329-2.187.534-2.228.866-2.552 1.27-2.707.965-1.643 1.512-2.163 2.263-2.653 2.89-2.763 3.12-2.503 3.023-2.075 3.785-2.213 4.401-2.182 9.13-3.708 5.237-1.804 5.542-1.752 11.15-3.036 11.828-2.402 13.245-1.706 14.813-.78 8.619-.04 7.92.122 7.694.189 9.768.256 7.773.162 10.568.14 9.05.067 11.423.04 18.353-.063 22.244-.315 22.361-.493 20.385-.607 19.054-.734 15.288-.903 12.377-1.07 9.337-1.041 6.96-1.136 6.011-1.554 2.84-.946 2.652-1.01 3.311-1.436 2.732-1.332 3.621-1.975 2.81-1.695 3.476-2.309 3.63-2.694 3.301-2.746 3.157-2.989 5.415-6.075 5.212-7.159 4.823-8.018 4.25-8.554 4.147-9.96 3.605-10.542 3.593-12.174 3.748-13.003 4.14-13.712 4.633-14.877 5.5-17.125 5.78-17.715 6.266-19.475 3.546-11.16 3.635-11.479 3.72-11.774 3.805-12.066 2.275-7.226 3.918-12.49 3.28-10.476" stroke-width="12" stroke="#f7d347" fill="none"/></svg>