<svg class="track" xmlns="http://www.w3.org/2000/svg" preserveAspectRatio="xMinYMid meet" height="380" width="600" viewBox="-1050 -650 1 1200">
  <path d="m-462.957-562.627 5.675 4.256 5.44 4.104 5.887 4.458 5.642 4.28 6.11 4.624 5.864 4.409 6.73 5.023 6.105 4.51 6.21 4.561 11.914 8.768 6.935 5.134 7.444 5.497 5.496 4.02 6.884 4.987 7.44 5.373 7.557 5.478 5.878 4.279 7.346 5.36 8.445 6.14 8.118 5.863 6.248 4.48 8.145 5.797 6.659 4.689 7.547 5.247 5.608 3.875 7.872 5.446 7.37 5.127 13.784 9.624 7.817 5.45 7.865 5.452 7.465 5.135 7.518 5.14 6.137 4.182 8.041 5.493 6.11 4.229 7.391 5.221 5.864 4.227 7.039 5.16 7.044 5.246 6.467 4.907 4.922 3.836 5.252 4.303 4.016 3.538 4.671 4.476 4.65 4.862 4.094 4.67 3.369 4.137 3.617 4.777 3.608 5.102 3.413 5.138 3.01 4.913 2.97 5.311 2.453 4.786 4.507 9.918 3.81 10.024 3.284 10.783 2.485 11.105 1.654 10.956.606 5.734.418 5.398.315 6.627.089 5.123-.105 6.767-.302 5.62-.597 6.464-.684 5.272-1.14 6.924-1.003 5.323-1.315 7.021-.894 5.424-.94 6.725-.667 5.501-.75 7.25-.49 6.027-.39 7.38-.124 5.656.06 6.928.217 5.165.561 6.835.71 5.511 1.193 6.745 1.325 5.87 1.784 6.689 1.591 5.44 2.051 6.735 1.895 5.907 2.539 7.096 2.18 5.263 3.195 6.58 2.915 5.14 3.56 5.601 2.986 4.386 3.705 5.26 3.028 4.162 3.804 4.943 4.144 5.02 3.974 4.55 3.281 3.63 4.134 4.466 3.716 3.921 4.37 4.504 2.8 2.824 4.572 4.546 4.072 4.028 4.707 4.687 4.144 4.187 4.761 4.896 4.184 4.374 4.808 5.093 3.918 4.2 5.107 5.555 3.845 4.251 4.893 5.527 3.618 4.216 4.535 5.508 3.21 4.086 3.513 4.693 5.157 7.566 1.712 2.837 1.672 3.08 1.163 2.393 1.167 2.653.846 2.112.975 2.7.64 2.013.693 2.557.42 1.895.401 2.397.212 1.9.116 2.091.003 1.766-.088 1.846-.145 1.617-.28 2.211-.3 1.771-.516 2.42-.507 1.914-.818 2.484-.74 1.869-1.049 2.272-2.36 4.234-1.587 2.42-1.683 2.267-1.38 1.673-2.008 2.183-1.778 1.722-2.518 2.167-2.073 1.585-2.883 1.944-2.49 1.452-2.941 1.464-2.659 1.119-3.152 1.128-2.666.822-3.865 1.01-2.92.631-3.97.721-3.136.495-3.97.552-3.566.428-4.437.46-3.444.333-4.188.461-3.309.46-3.955.685-3.82.832-3.889 1.089-2.625.91-3.518 1.528-2.511 1.35-2.69 1.742-2.301 1.783-2.374 2.203-2.097 2.349-1.931 2.621-1.634 2.719-1.365 2.818-.881 2.23-.944 3.017-.636 2.895-.353 3.034-.049 2.78.208 2.86.418 2.601.667 2.675.838 2.45.901 2.085 1.215 2.305 1.12 1.832 1.638 2.359 1.4 1.77 1.877 2.078 1.644 1.6 2.308 1.983 1.878 1.46 2.6 1.897 2.113 1.465 2.747 1.833 5.033 3.073 3.221 1.765 3.615 1.804 6.37 2.759 7.348 2.669 7.555 2.253 4.328 1.153 4.71 1.188 4.542 1.081 4.937 1.103 3.539.744 4.753.939 3.852.699 4.114.667 4.953.662 4.634.463 7.227.415 4.97.069 4.794-.093 8.976-.605 9.603-1.276 10.122-2.024 9.84-2.615 9.425-3.13 9.466-3.899 8.874-4.347 4.784-2.633 4.982-2.982 7.45-4.945 4.794-3.498 4.727-3.709 4.385-3.672 4.609-4.081 4.305-4.009 4.28-4.168 3.196-3.235 4.5-4.741 5.271-5.832 3.965-4.546 3.482-4.063 4.653-5.477 3.938-4.66 4.632-5.511 3.871-4.63 4.879-5.865 3.73-4.51 5.062-6.152 4.507-5.504 4.907-6.017 4.65-5.722 5.74-7.08 4.453-5.497 5.907-7.28 6.003-7.363 5.749-6.996 4.752-5.72 5.955-7.076 5.291-6.23 6.502-7.639 5.015-5.898 7.004-8.248 6.282-7.408 6.741-7.942 6.816-8.007 11.776-13.782 11.964-13.932 12.164-14.064 6.794-7.814 7.272-8.345 6.031-6.912 7.365-8.434 6.1-6.978 7.002-8.006 5.701-6.511 6.993-7.981 6.055-6.904 7.23-8.236 5.852-6.66 6.608-7.498 5.748-6.459 6.559-7.294 5.3-5.867 6.461-7.166 11.093-12.403 11.563-13.054 11.287-12.778 5.538-6.288 6.111-7.006 5.482-6.394 5.172-6.148 4.265-5.145 4.49-5.47 3.284-4.027 3.79-4.69 2.513-3.164 2.661-3.451 2.042-2.742 2.263-3.128 1.827-2.589 2.223-3.258 3.743-5.933 3.66-6.74 3.28-7.214 1.474-3.777 1.497-4.396 1.972-7.466 1.226-8.192.197-8.025-.245-4.468-.479-4.777-.639-4.514-.809-4.522-.868-3.943-1.3-4.718-1.204-3.52-1.887-4.415-2.085-3.89-2.309-3.526-1.69-2.187-1.974-2.29-1.88-2.051-2.2-2.304-1.84-1.842-2.215-2.052-1.998-1.708-2.721-2.124-2.167-1.53-2.778-1.756-2.348-1.306-2.988-1.473-2.686-1.189-3.354-1.33-2.63-.942-3.521-1.136-5.558-1.517-6.67-1.308-6.94-.774-3.816-.24-4.144-.177-4.24-.135-4.076-.136-3.1-.149-4.429-.324-4.167-.457-3.353-.503-4.062-.802-3.99-1.014-4.156-1.337-3.788-1.522-2.95-1.424-3.645-2.1-2.42-1.627-3.24-2.455-2.189-1.813-2.974-2.682-2.32-2.305-2.352-2.563-2.45-3.018-2.032-2.962-1.317-2.275-1.545-3.276-.93-2.53-.9-3.31-.504-2.723-.351-3.134-.123-2.55.019-3.197.156-2.635.427-3.474.662-3.272 1.059-3.631.732-1.98 1.381-3.096 1.41-2.633 1.824-2.915 2.038-2.802 2.246-2.664 1.977-2.045 2.782-2.495 2.27-1.763 2.942-2.002 2.502-1.495 3.206-1.682 3.336-1.51 3.233-1.252 2.894-.948 3.669-.983 3.07-.647 4.404-.686 3.561-.379 4.21-.27 3.522-.093 4.73.025 3.694.125 4.877.332 3.738.402 4.601.69 2.584.482 4.874 1.08 4.588 1.205 4.618 1.377 5.26 1.761 4.731 1.763 5.087 2.072 4.834 2.1 3.954 1.78 4.893 2.255 4.3 2.027 4.933 2.393 4.025 2.012 4.983 2.556 3.132 1.649 5.348 2.899 5.065 2.823 5.437 3.06 4.522 2.549 5.53 3.148 4.252 2.458 5.235 3.107 5.559 3.416 5.208 3.338 6.463 4.344 5.435 3.85 5.376 4.003 4.073 3.15 5.283 4.224 4.011 3.309 4.887 4.173 5.125 4.562 5.34 4.977 2.926 2.83 4.611 4.624 3.674 3.853 4.696 5.167 3.503 4.054 4.462 5.43 4.09 5.232 3.99 5.337 3.177 4.408 3.834 5.505 3.052 4.537 3.665 5.67 2.881 4.685 3.209 5.501 2.879 5.216 3.353 6.436 3.192 6.543 3.193 7.047 2.175 5.16 2.525 6.435 1.936 5.288 2.255 6.576 1.743 5.388 2.178 7.098 1.932 6.736 1.8 6.79 1.363 5.559 1.645 7.316 1.077 5.196 1.423 7.401 1.334 7.447 1.199 7.092 1.155 7.21 1.11 7.33.864 6.037 1.081 8.004.8 6.2.97 7.72.776 6.341.953 7.87.782 6.448.968 7.995.789 6.544.963 8.114.714 6.125.964 8.228.988 8.221 1.085 8.78.901 7.251.958 7.792.816 6.774.929 7.835 1.045 8.909 1.052 8.94 1.031 8.437 1.088 8.457.916 6.882 1.143 8.489.927 6.906 1.051 7.96.894 6.872 1.068 8.367.822 6.585.99 8.142.734 6.195.73 6.226.604 5.121.714 5.932.663 5.451.618 5.181.417 3.675.518 4.756.382 3.622.428 4.173.359 3.611.434 4.72.28 3.608.27 4.722.122 3.9.022 4.763-.045 2.545-.179 4.567-.336 4.904-.473 4.657-.504 3.808-.754 4.715-.713 3.85-1.002 4.757-.927 3.875-1.291 4.775-1.469 4.774-1.753 5.067-1.337 3.571-1.903 4.757-1.911 4.436-2.33 4.965-1.767 3.455-2.682 4.798-2.187 3.598-3.02 4.614-2.423 3.47-3.112 4.193-2.65 3.336-3.635 4.257-2.92 3.183-3.99 4.076-7.256 6.732-4.515 3.81-4.718 3.704-2 1.489-4.993 3.52-3.331 2.195-13.332 7.624-5.304 2.575-2.354 1.075-5.446 2.362-7.598 3.05-5.95 2.162-12.673 4.113-3.514 1.083-8.08 2.404-5.994 1.653-7.082 1.798-9.99 2.373-6.157 1.403-6.318 1.377-6.125 1.272-6.3 1.238-5.656 1.05-6.62 1.159-5.908.976-6.864 1.065-6.093.882-7.504.997-5.81.699-7.221.781-5.917.582-7.793.713-5.99.517-7.418.598-6.529.48-7.505.499-6.134.371-7.589.43-6.678.36-7.675.391-6.751.32-8.244.355-6.332.255-8.31.352-7.84.382-7.359.425-6.879.446-8.368.573-6.413.444-8.408.58-5.95.406-7.957.541-7.48.518-8.492.623-6.471.525-7.839.722-6.67.706-7.694.93-6.737.929-6.215.959-4.743.798-5.62 1.012-4.476.856-5.44 1.13-5.36 1.237-5.67 1.438-4.005 1.088-5.67 1.642-4.329 1.342-5.62 1.876-4.27 1.523-5.227 1.965-4.56 1.79-5.23 2.113-4.274 1.773-5.609 2.396-4.279 1.88-5.585 2.483-4.277 1.89-5.616 2.416-4.647 1.916-5.324 2.106-5.33 2.026-5.007 1.824-4.352 1.504-5.713 1.805-4.365 1.21-5.34 1.261-3.32.672-4.964.865-9.883 1.215-8.837.499-5.202.029-4.218-.12-5.538-.324-3.93-.336-5.602-.633-4.317-.61-5.353-.892-5.737-1.109-5.434-1.195-5.804-1.426-9.981-2.736-10.803-3.2-4.553-1.378-5.922-1.765-4.833-1.36-5.804-1.449-4.378-.93-5.311-.932-5.222-.696-5.136-.464-4.125-.218-5.36-.09-3.77.069-5.02.263-5.02.443-5.006.617-4.328.687-4.863.954-4.18.985-4.975 1.402-3.447 1.136-4.532 1.693-7.514 3.303-8.022 3.966-4.465 2.338-4.484 2.471-8.412 4.981-8.397 5.184-8.14 4.707-8.566 4.148-9.074 3.435-8.7 2.367-8.832 1.405-8.622.476-5.275-.067-4.041-.228-5.25-.545-3.965-.615-5.09-1.064-3.82-1.005-4.905-1.545-3.681-1.34-4.722-1.94-3.543-1.605-2.683-1.292-3.438-1.755-4.43-2.452-3.339-2.022-3.77-2.512-3.903-2.902-3.525-2.928-3.163-2.913-3.461-3.527-2.097-2.306-3.279-3.838-2.826-3.486-3.225-4.115-2.827-3.713-3.223-4.385-3.382-4.845-3.122-4.728-3.088-4.866-3.33-5.254-2.416-3.724-3.532-5.278-2.803-4.027-3.59-4.922-3.288-4.263-3.938-4.8-3.614-4.12-4.606-4.89-3.683-3.656-5.017-4.693-3.983-3.532-5.071-4.288-4.576-3.697-5.37-4.173-4.47-3.355-5.98-4.325-5.773-4-6.281-4.178-6.048-3.855-6.583-3.987-6.352-3.62-6.916-3.69-6.68-3.341-12.904-6.132-7.464-3.537-7.11-3.405-6.286-3.022-7.276-3.486-12.026-5.72-14.152-6.666-13.913-6.527-7.276-3.418-6.347-2.997-7.851-3.736-6.91-3.315-7.946-3.835-6.495-3.143-9.053-4.382-6.076-2.937-8.15-3.922-8.722-4.17-8.27-3.928-8.326-3.936-15.217-7.158-13.783-6.466-9.606-4.506-6.97-3.272-9.157-4.3-7.036-3.31-9.239-4.351-7.634-3.609-8.757-4.152-7.14-3.394-9.37-4.461-7.751-3.694-8.89-4.238-7.81-3.72-8.96-4.266-7.308-3.477-9.03-4.29-7.932-3.752-8.54-4.02-9.148-4.294-17.23-8.111-9.232-4.36-8.104-3.832-9.289-4.405-8.146-3.884-9.326-4.484-7.578-3.685-8.741-4.307-7.549-3.77-9.745-4.938-8.909-4.59-9.104-4.774-8.713-4.654-8.29-4.508-7.849-4.34-8.802-4.946-4.307-2.447-4.254-2.433-3.793-2.183-5.844-3.39-5.386-3.15-6.97-4.113-5.586-3.333-6.504-3.93-4.359-2.673-5.839-3.637-4.525-2.864-5.144-3.3-3.717-2.414-4.708-3.09-3.537-2.353-4.61-3.125-3.24-2.255-4.543-3.296-4.186-3.242-4.302-3.6-3.859-3.537-3.843-3.92-3.545-4.099-2.493-3.245-2.834-4.11-4.863-8.04-4.407-8.487-3.764-8.808-2.956-9.058-2.01-8.619-1.37-9.673-.373-9.077.564-9.304 1.345-9.23 1.952-8.825 1.468-5.099 1.615-4.73 3.817-8.935 2.336-4.506 2.593-4.423 2.48-3.796 3.063-4.24 2.655-3.376 3.45-4.069 2.932-3.242 3.97-4.141 3.145-3.073 4.019-3.631 7.724-6.05 8.851-5.581 3.864-2.123 4.842-2.555 9.195-4.896 5.264-2.883 5.337-2.95 5.433-3.02 5.207-2.908 5.3-2.978 5.373-3.06 4.418-2.558 5.136-3.034 5.521-3.362 5.886-3.72 4.521-2.95 5.94-3.975 4.567-3.12 6-4.173 4.61-3.253 5.703-4.067 3.224-2.318 6.108-4.431 4.69-3.442 5.783-4.302 6.154-4.646 6.162-4.727 4.704-3.67 6.125-4.877 7.519-6.155 5.329-4.485 5.645-4.863 3.514-3.076 4.919-4.337 5.635-4.977 4.6-4.054 6.049-5.311 5-4.382 5.69-4.987 4.573-4.022 5.442-4.801 3.23-2.856 4.79-4.236 3.492-3.085 3.96-3.491 2.542-2.233 2.934-2.57 2.254-1.978 2.358-2.093 1.999-1.806 2.406-2.229 1.909-1.826 2.144-2.134 1.918-2.023 2.069-2.356 1.912-2.39 1.858-2.565 3.808-6.71.826-1.997.705-2.008.76-2.667.55-2.568.41-2.795.226-2.868.039-2.76-.147-2.972-.315-2.819-.538-2.99-.694-2.795-.707-2.253-1.052-2.711-.999-2.12-1.292-2.316-1.228-1.897-1.613-2.237-1.353-1.799-1.562-2.125-1.822-2.67-1.555-2.493-1.128-1.953-1.54-2.89-1.12-2.307-1.356-3.13-.865-2.269-.988-3.064-.765-3.083-.556-3.274-.309-3.275-.087-5.913.552-6.373 1.239-6.007.965-3.31 1.142-3.299 2.495-5.944 3.2-6.069 3.782-5.71 4.702-5.726 5.31-5.304 3.423-3.042 3.616-3.011 3.568-2.805 3.98-2.919 3.936-2.668 4.644-2.889 4.316-2.446 4.478-2.3 3.74-1.75 4.686-1.991 3.853-1.48 4.81-1.658 3.975-1.216 4.952-1.325 4.071-.935 5.375-1.02 4.147-.623 5.455-.604 5.48-.368 5.176-.13 4.212.053 5.493.274 3.229.26 5.473.601 4.17.593 5.425.959 4.12.883 5.031 1.27 4.054 1.183 5.263 1.752 3.997 1.488 5.206 2.13 2.751 1.205 4.886 2.253 4.276 2.074 4.892 2.484 8.556 4.681 8.84 5.343 9.05 6.168 9.045 6.8z" stroke-width="28" stroke="#000" fill="none"/>
  <path d="m-462.957-562.627 5.675 4.256 5.44 4.104 5.887 4.458 5.642 4.28 6.11 4.624 5.864 4.409 6.73 5.023 6.105 4.51 6.21 4.561 11.914 8.768 6.935 5.134 7.444 5.497 5.496 4.02 6.884 4.987 7.44 5.373 7.557 5.478 5.878 4.279 7.346 5.36 8.445 6.14 8.118 5.863 6.248 4.48 8.145 5.797 6.659 4.689 7.547 5.247 5.608 3.875 7.872 5.446 7.37 5.127 13.784 9.624 7.817 5.45 7.865 5.452 7.465 5.135 7.518 5.14 6.137 4.182 8.041 5.493 6.11 4.229 7.391 5.221 5.864 4.227 7.039 5.16 7.044 5.246 6.467 4.907 4.922 3.836 5.252 4.303 4.016 3.538 4.671 4.476 4.65 4.862 4.094 4.67 3.369 4.137 3.617 4.777 3.608 5.102 3.413 5.138 3.01 4.913 2.97 5.311 2.453 4.786 4.507 9.918 3.81 10.024 3.284 10.783 2.485 11.105 1.654 10.956.606 5.734.418 5.398.315 6.627.089 5.123-.105 6.767-.302 5.62-.597 6.464-.684 5.272-1.14 6.924-1.003 5.323-1.315 7.021-.894 5.424-.94 6.725-.667 5.501-.75 7.25-.49 6.027-.39 7.38-.124 5.656.06 6.928.217 5.165.561 6.835.71 5.511 1.193 6.745 1.325 5.87 1.784 6.689 1.591 5.44 2.051 6.735 1.895 5.907 2.539 7.096 2.18 5.263 3.195 6.58 2.915 5.14 3.56 5.601 2.986 4.386 3.705 5.26 3.028 4.162 3.804 4.943 4.144 5.02 3.974 4.55 3.281 3.63 4.134 4.466 3.716 3.921 4.37 4.504 2.8 2.824 4.572 4.546 4.072 4.028 4.707 4.687 4.144 4.187 4.761 4.896 4.184 4.374 4.808 5.093 3.918 4.2 5.107 5.555 3.845 4.251 4.893 5.527 3.618 4.216 4.535 5.508 3.21 4.086 3.513 4.693 5.157 7.566 1.712 2.837 1.672 3.08 1.163 2.393 1.167 2.653.846 2.112.975 2.7.64 2.013.693 2.557.42 1.895.401 2.397.212 1.9.116 2.091.003 1.766-.088 1.846-.145 1.617-.28 2.211-.3 1.771-.516 2.42-.507 1.914-.818 2.484-.74 1.869-1.049 2.272-2.36 4.234-1.587 2.42-1.683 2.267-1.38 1.673-2.008 2.183-1.778 1.722-2.518 2.167-2.073 1.585-2.883 1.944-2.49 1.452-2.941 1.464-2.659 1.119-3.152 1.128-2.666.822-3.865 1.01-2.92.631-3.97.721-3.136.495-3.97.552-3.566.428-4.437.46-3.444.333-4.188.461-3.309.46-3.955.685-3.82.832-3.889 1.089-2.625.91-3.518 1.528-2.511 1.35-2.69 1.742-2.301 1.783-2.374 2.203-2.097 2.349-1.931 2.621-1.634 2.719-1.365 2.818-.881 2.23-.944 3.017-.636 2.895-.353 3.034-.049 2.78.208 2.86.418 2.601.667 2.675.838 2.45.901 2.085 1.215 2.305 1.12 1.832 1.638 2.359 1.4 1.77 1.877 2.078 1.644 1.6 2.308 1.983 1.878 1.46 2.6 1.897 2.113 1.465 2.747 1.833 5.033 3.073 3.221 1.765 3.615 1.804 6.37 2.759 7.348 2.669 7.555 2.253 4.328 1.153 4.71 1.188 4.542 1.081 4.937 1.103 3.539.744 4.753.939 3.852.699 4.114.667 4.953.662 4.634.463 7.227.415 4.97.069 4.794-.093 8.976-.605 9.603-1.276 10.122-2.024 9.84-2.615 9.425-3.13 9.466-3.899 8.874-4.347 4.784-2.633 4.982-2.982 7.45-4.945 4.794-3.498 4.727-3.709 4.385-3.672 4.609-4.081 4.305-4.009 4.28-4.168 3.196-3.235 4.5-4.741 5.271-5.832 3.965-4.546 3.482-4.063 4.653-5.477 3.938-4.66 4.632-5.511 3.871-4.63 4.879-5.865 3.73-4.51 5.062-6.152 4.507-5.504 4.907-6.017 4.65-5.722 5.74-7.08 4.453-5.497 5.907-7.28 6.003-7.363 5.749-6.996 4.752-5.72 5.955-7.076 5.291-6.23 6.502-7.639 5.015-5.898 7.004-8.248 6.282-7.408 6.741-7.942 6.816-8.007 11.776-13.782 11.964-13.932 12.164-14.064 6.794-7.814 7.272-8.345 6.031-6.912 7.365-8.434 6.1-6.978 7.002-8.006 5.701-6.511 6.993-7.981 6.055-6.904 7.23-8.236 5.852-6.66 6.608-7.498 5.748-6.459 6.559-7.294 5.3-5.867 6.461-7.166 11.093-12.403" stroke-width="12" stroke="#e73323" fill="none"/>
  <path d="m448.85-151.86 6.463-7.313 4.886-5.53 5.944-6.739 6.185-7.06 5.591-6.476 5.29-6.244 4.976-5.977 3.778-4.588 4.461-5.46 3.026-3.73 3.452-4.315 2.27-2.914 2.557-3.4 1.702-2.33 2.255-3.166 1.815-2.623 2.335-3.519 1.467-2.336 2.172-3.714 1.578-2.929 1.844-3.724 1.526-3.375 1.631-3.98 1.478-4.095 1.299-4.198.901-3.473.889-4.335.54-3.828.332-4.406.058-3.597-.16-4.458-.373-4.488-.601-4.789-.746-4.52-.928-4.519-.994-3.908-2.841-8.078-2.092-4.256-2.185-3.6-3.805-4.922-3.907-4.252-4.126-4.09-2.428-2.129-2.053-1.653-2.796-2.043-2.054-1.353-3.03-1.764-2.405-1.227-3.044-1.395-2.734-1.128-3.412-1.263-2.881-.959-3.366-1.008-2.143-.576-3.493-.815-2.898-.557-3.864-.574-3.013-.321-4.018-.297-3.867-.191-4.202-.148-4.04-.124-4.114-.171-4.162-.277-4.433-.449-2.332-.315-4.095-.711-4.02-.92-4.195-1.223-4.085-1.507-6.525-3.228-5.82-3.95-5.269-4.402-4.954-4.952-2.397-2.797-2.279-3.096-3-5.32-2.091-5.834-1.06-5.839-.258-5.92.403-5.884.55-3.274.928-3.657 2.018-5.328 3.072-5.618 1.83-2.673 2.296-2.893 4.455-4.52 5.076-3.912 5.596-3.317 3.28-1.584 3.185-1.328 6.696-2.15 7.127-1.439 7.65-.791 8.148-.194 8.809.345 8.05.904 7.465 1.42 4.585 1.128 4.89 1.388 4.943 1.586 5.006 1.792 4.764 1.88 5.118 2.173 3.945 1.754 4.882 2.23 3.985 1.859 5.233 2.507 4.017 1.982 4.969 2.523 8.15 4.31 5.05 2.786 5.41 3.04 4.503 2.534 5.514 3.124 4.244 2.432 5.562 3.26 5.235 3.17 5.545 3.495 11.618 7.857 5.399 3.94 9.704 7.536 8.626 7.147 5.155 4.507 5.376 4.918 7.596 7.368 8.457 8.913 8.063 9.378 4.135 5.182 4.28 5.625 6.83 9.508 6.795 10.133 6.41 10.466 3.336 5.931 2.804 5.272 3.26 6.498 3.268 6.998 2.235 5.129 2.598 6.395 1.991 5.261 2.314 6.546 4.01 12.44 2.104 7.133 1.85 6.77 1.3 5.114 1.709 7.294 1.206 5.615 1.462 7.384 1.284 6.992 1.296 7.492 1.17 7.164 1.06 6.828.95 6.462 1.035 7.49.81 6.165 1.036 8.16.781 6.314.894 7.351.835 6.917.97 7.971.727 6.021.968 8.085.776 6.617.956 8.19.978 8.232 1.01 8.255 1.928 15.543.822 6.762.934 7.828.985 8.374 1.045 8.928 1.076 8.957 1.066 8.447.904 6.878 1.07 7.951.927 6.903 1.132 8.497.833 6.36 1.085 8.423.911 7.218.968 7.865.77 6.438.802 6.816.614 5.236.729 6.099.683 5.63.618 5.113.47 4.044.497 4.489.416 3.907.434 4.174.365 3.614.426 4.441.33 3.886.296 4.442.169 3.895.079 4.746-.15 7.362-.26 4.598-.404 4.639-1.186 8.794-1.558 8.295-2.088 8.645-1.484 5.073-1.58 4.772-3.254 8.629-1.86 4.45-2.129 4.698-4.303 8.329-5.07 8.283-5.614 7.99-6.165 7.666-6.55 7.08-8.144 7.716-4.482 3.83-4.683 3.724-6.944 5.041-3.007 2.018-13.568 7.91-5.284 2.607-2.347 1.089-5.43 2.386-7.581 3.083-5.938 2.194-12.673 4.152-3.515 1.09-5.62 1.698-2.459.724-5.638 1.579-6.365 1.65-5.682 1.383-4.284 1.014-5.76 1.331-6.242 1.386-6.432 1.363-6.235 1.252-6.41 1.213-5.749 1.026-6.711 1.132-5.973.947-6.931 1.027-6.15.845-7.12.889-6.3.707-7.263.734-5.945.556-7.82.688-6.017.496-7.914.6-5.62.386-7.53.471-6.154.357-8.094.444-6.702.348-7.702.375-6.778.302-7.781.318-6.835.282-7.835.356-7.845.422-7.857.493-6.886.466-15.299 1.058-7.432.509-5.96.404-7.97.547-7.99.568-7.986.622-6.415.562-8.195.825-6.468.747-7.377.967-6.41.95-10.55 1.789-9.63 1.862-5.728 1.268-5.34 1.307-9.674 2.646-9.974 3.12-9.85 3.53-9.782 3.85-9.538 3.972-10.202 4.483-9.548 4.199-9.958 4.095-5.326 2.06-5.336 1.981-9.716 3.313-10.059 2.743-8.3 1.655-5.284.808-4.282.512-5.581.47-3.598.187-5.212.105-4.218-.063-5.202-.24-4.248-.31-5.258-.53-4.63-.599-5.338-.834-5.382-.984-5.759-1.206-5.452-1.286-5.48-1.42-4.477-1.233-5.888-1.699-4.882-1.452-5.954-1.798-4.54-1.366-5.89-1.702-4.8-1.259-5.751-1.294-4.335-.81-5.257-.786-5.166-.55-5.092-.326-4.106-.119-5.032.03-4.08.171-5.02.377-5.015.552-4.97.728-4.281.786-4.805 1.067-4.128 1.093-4.626 1.447-3.413 1.223-4.777 1.928-2.778 1.237-4.694 2.234-3.593 1.788-4.456 2.293-4.2 2.266-4.768 2.711-3.645 2.171-4.762 2.925-3.64 2.254-4.75 2.883-3.651 2.1-4.531 2.398-4.003 1.911-4.625 1.966-4.105 1.534-5.05 1.615-3.906 1.036-4.85 1.013-3.659.56-4.898.485-4.006.2-5.268.023-4.039-.154-4.959-.412-3.992-.521-5.137-.943-4.147-.995-4.94-1.455-3.71-1.28-4.758-1.867-3.299-1.437-3.78-1.774-6.854-3.565-7.43-4.54-3.95-2.816-3.58-2.848-6.522-6.068-5.65-6.252-3.241-3.938-2.82-3.563-3.231-4.202-2.623-3.516-3.404-4.766-3.343-4.954-3.094-4.822-3.106-4.92-6.068-9.31-6.29-8.97-7.091-9.115-7.795-8.8-8.533-8.427-9.224-8.14-9.838-7.913-10.351-7.72-5.36-3.776-6.219-4.209-5.99-3.89-6.514-4.037" stroke-width="12" stroke="#4fafdf" fill="none"/>
  <path d="m-331.558 240.813-6.445-3.53-7.026-3.6-6.779-3.287-5.605-2.65-7.425-3.507-7.515-3.585-7.16-3.44-6.34-3.044-6.875-3.283-5.094-2.422-7.483-3.54-6.615-3.112-7.624-3.579-5.764-2.704-7.736-3.63-6.328-2.98-7.348-3.483-6.89-3.294-8.419-4.054-6.478-3.133-8.526-4.128-6.566-3.175-7.617-3.674-8.693-4.17-8.245-3.926-8.824-4.18-8.358-3.94-6.3-2.962-8.972-4.211-4.774-2.24-9.586-4.496-6.959-3.265-9.139-4.29-7.018-3.3-9.219-4.338-7.625-3.598-8.742-4.139-7.128-3.384-9.356-4.452-7.735-3.684-8.874-4.23-7.793-3.716-8.947-4.26-7.854-3.738-9.014-4.285-7.355-3.487-9.092-4.289-9.133-4.29-9.166-4.306-8.043-3.787-9.22-4.351-7.515-3.551-9.857-4.668-7.558-3.594-9.902-4.742-6.996-3.383-9.328-4.567-7.561-3.755-9.243-4.654-9.033-4.62-9.26-4.82-8.879-4.706-8.467-4.572-8.03-4.41-10.243-5.73-4.33-2.453-4.274-2.438-8.417-4.85-5.407-3.148-7.01-4.12-5.674-3.367-6.637-3.987-4.837-2.946-5.976-3.698-4.315-2.713-5.3-3.38-3.806-2.459-5.044-3.295-3.555-2.35-4.344-2.92-3.519-2.415-4.3-3.056-4.228-3.18-4.37-3.533-4.187-3.696-3.717-3.63-3.673-4.024-3.354-4.197-2.356-3.312-2.71-4.182-2.096-3.494-2.614-4.703-1.904-3.689-2.324-4.92-1.615-3.823-1.886-5.073-1.262-3.93-1.338-4.888-.917-4.006-.965-5.28-.585-4.373-.428-5.014-.138-4.07.093-4.982.267-4.03.573-5.25.601-4 .914-4.897.957-4.258 1.29-4.822 1.516-4.76 1.867-4.977 1.743-4.027 2.226-4.537 2.643-4.738 2.752-4.364 2.616-3.74 3.207-4.18 2.76-3.328 3.561-4.013 3.002-3.194 4.064-4.064 2.974-2.765 4.116-3.523 3.472-2.702 4.707-3.292 4.014-2.497 5.012-2.823 3.613-1.922 5.18-2.722 3.988-2.125 5.244-2.852 5.303-2.923 5.393-2.992 5.492-3.061 5.265-2.95 5.349-3.029 4.055-2.329 5.462-3.194 5.503-3.31 5.534-3.445 4.861-3.131 5.58-3.696 4.554-3.083 5.987-4.13 4.6-3.227 6.046-4.291 8.953-6.448 10.823-7.956 5.79-4.346 6.16-4.693 5.071-3.925 5.776-4.559 5.032-4.054 3.578-2.936 5.694-4.766 5.651-4.849 7.03-6.158 5.625-4.97 4.944-4.36 6.034-5.308 4.639-4.066 5.707-5 4.605-4.042 5.889-5.188 8.288-7.327 7.876-6.956 5.618-4.934 4.849-4.262 2.323-2.085 2.122-1.947 2.367-2.242 1.732-1.698 2.229-2.3 1.85-2.05 1.97-2.377 1.814-2.405 1.745-2.58.923-1.52.843-1.525.76-1.531.677-1.536.929-2.463.674-2.181.62-2.544.484-2.765.303-2.838.115-2.909-.07-2.785-.258-2.989-.466-2.995-.624-2.801-.646-2.264-.977-2.74-.864-1.997-1.311-2.536-1.184-1.943-1.577-2.27-1.34-1.798-1.567-2.097-1.744-2.475-1.679-2.598-1.144-1.917-1.475-2.67-1.234-2.438-1.324-2.9-.986-2.435-1.065-3.051-.85-3.077-.65-3.277-.374-3.08-.19-3.29-.024-2.766.122-3.245.264-2.886.539-3.521.578-2.692.895-3.312 1.078-3.303 1.245-3.294 1.135-2.663 1.556-3.26 1.513-2.83 1.918-3.19 1.715-2.553 2.319-3.103 2.054-2.478 3.1-3.348 2.227-2.188 3.143-2.877 3.54-3.021 3.72-2.995 3.674-2.773 4.103-2.871 4.31-2.772 4.238-2.5 4.41-2.367 3.983-1.942 4.655-2.061 3.835-1.538 4.475-1.62 3.947-1.28 5.235-1.491 9.09-2.038 9.572-1.399 5.472-.465 5.492-.229 4.21-.013 5.176.176 8.711.73 9.619 1.401 9.184 1.994 9.35 2.767 9.224 3.466 7.945 3.498 4.887 2.333 3.974 1.984 4.892 2.558 3.973 2.185 4.882 2.823 3.964 2.408 4.859 3.133 3.916 2.688 5.1 3.7 4.22 3.195" stroke-width="12" stroke="#f7d347" fill="none"/>
</svg>
