<?xml version="1.0" standalone="no"?>
<svg xmlns:xlink="http://www.w3.org/1999/xlink" id="s2" class="track" xmlns="http://www.w3.org/2000/svg" preserveAspectRatio="xMinYMid meet" height="800px" width="600px" viewBox="-1200 -700 3000 3000">
            <path d="M -462.9568 -562.6273 L -457.2815 -558.3712 L -451.8422 -554.2667 L -445.955 -549.8091 L -440.3135 -545.5292 L -434.2031 -540.9055 L -428.3388 -536.4962 L -421.6084 -531.4734 L -415.5038 -526.9639 L -409.2941 -522.4016 L -397.38 -513.6342 L -390.4455 -508.4997 L -383.0013 -503.003 L -377.5052 -498.9833 L -370.6212 -493.9963 L -363.1809 -488.6228 L -355.6238 -483.1454 L -349.7458 -478.8661 L -342.4003 -473.5062 L -333.9554 -467.3651 L -325.8373 -461.503 L -319.5886 -457.0222 L -311.4444 -451.2259 L -304.7854 -446.537 L -297.2379 -441.2902 L -291.6297 -437.4155 L -283.7581 -431.9687 L -276.3889 -426.8425 L -262.6035 -417.218 L -254.7871 -411.7688 L -246.9218 -406.3155 L -239.4572 -401.1812 L -231.939 -396.0406 L -225.8021 -391.8592 L -217.7607 -386.3665 L -211.6519 -382.1372 L -204.2597 -376.9155 L -198.3961 -372.6891 L -191.3572 -367.5294 L -184.3128 -362.283 L -177.8457 -357.3764 L -172.9238 -353.5403 L -167.6715 -349.2371 L -163.6562 -345.6987 L -158.985 -341.2234 L -154.3348 -336.3609 L -150.2413 -331.6914 L -146.8723 -327.5544 L -143.2547 -322.7769 L -139.6474 -317.6754 L -136.2341 -312.5369 L -133.2235 -307.6241 L -130.2533 -302.313 L -127.8007 -297.5265 L -123.2937 -287.6086 L -119.4847 -277.5851 L -116.1997 -266.8018 L -113.7154 -255.6967 L -112.0609 -244.7411 L -111.455 -239.0074 L -111.0372 -233.6093 L -110.7221 -226.9823 L -110.633 -221.8595 L -110.7381 -215.0922 L -111.0397 -209.4729 L -111.637 -203.0085 L -112.3212 -197.736 L -113.4604 -190.8119 L -114.4638 -185.4889 L -115.7792 -178.4677 L -116.6728 -173.044 L -117.6131 -166.3193 L -118.2796 -160.8179 L -119.0307 -153.5681 L -119.5197 -147.5408 L -119.9094 -140.1602 L -120.0343 -134.5049 L -119.9738 -127.5773 L -119.7572 -122.4118 L -119.1958 -115.5772 L -118.4864 -110.0656 L -117.2935 -103.3207 L -115.9681 -97.4504 L -114.1844 -90.7621 L -112.5929 -85.3229 L -110.5417 -78.5874 L -108.6469 -72.6805 L -106.1083 -65.584 L -103.9288 -60.3207 L -100.7328 -53.7417 L -97.8182 -48.6013 L -94.2571 -42.9996 L -91.2715 -38.6135 L -87.5672 -33.3536 L -84.5386 -29.1917 L -80.7353 -24.2488 L -76.5915 -19.2297 L -72.6171 -14.6794 L -69.3357 -11.0483 L -65.202 -6.5831 L -61.4864 -2.6615 L -57.1156 1.8419 L -54.3168 4.6663 L -49.7436 9.2121 L -45.6718 13.2398 L -40.9649 17.9275 L -36.821 22.1142 L -32.0596 27.0105 L -27.8765 31.3843 L -23.0685 36.477 L -19.1502 40.6773 L -14.043 46.2319 L -10.1975 50.483 L -5.3052 56.0097 L -1.6873 60.2259 L 2.848 65.7341 L 6.0581 69.8196 L 9.5706 74.5134 L 14.7281 82.079 L 16.4401 84.9159 L 18.1122 87.9959 L 19.2747 90.3891 L 20.4424 93.0416 L 21.2882 95.1544 L 22.2632 97.8531 L 22.9039 99.8668 L 23.5959 102.424 L 24.0154 104.3192 L 24.417 106.7155 L 24.6286 108.6164 L 24.7448 110.7071 L 24.7481 112.4729 L 24.66 114.3187 L 24.5149 115.9363 L 24.2343 118.1472 L 23.9357 119.918 L 23.4194 122.3379 L 22.9122 124.2516 L 22.094 126.7359 L 21.3537 128.6049 L 20.305 130.8767 L 17.9453 135.1112 L 16.358 137.5317 L 14.6754 139.798 L 13.2948 141.4709 L 11.2869 143.6535 L 9.5094 145.3761 L 6.991 147.5431 L 4.9182 149.1277 L 2.0348 151.0719 L -.4541 152.5235 L -3.3961 153.9877 L -6.0547 155.1067 L -9.207 156.2351 L -11.8728 157.0572 L -15.7375 158.0661 L -18.6589 158.6981 L -22.6273 159.4191 L -25.7641 159.9139 L -29.7338 160.4657 L -33.3 160.8945 L -37.7367 161.3531 L -41.1806 161.687 L -45.3687 162.1481 L -48.678 162.6074 L -52.6333 163.2931 L -56.4533 164.1251 L -60.3415 165.2137 L -62.9667 166.1248 L -66.4852 167.6521 L -68.9962 169.0023 L -71.6859 170.7438 L -73.9873 172.5272 L -76.361 174.7297 L -78.4585 177.0785 L -80.389 179.7003 L -82.0227 182.419 L -83.3879 185.2369 L -84.2693 187.4676 L -85.2134 190.4839 L -85.8494 193.3795 L -86.2024 196.4129 L -86.2507 199.1937 L -86.0426 202.0533 L -85.6255 204.6544 L -84.9583 207.3295 L -84.1196 209.7799 L -83.2185 211.8637 L -82.0043 214.1687 L -80.8838 216.0009 L -79.2457 218.3596 L -77.8463 220.1291 L -75.9694 222.2082 L -74.3251 223.8072 L -72.0171 225.7909 L -70.139 227.251 L -67.5387 229.1478 L -65.4261 230.6131 L -62.6789 232.4456 L -57.646 235.5187 L -54.4249 237.2841 L -50.8104 239.0875 L -44.4397 241.8469 L -37.0924 244.5156 L -29.5367 246.7691 L -25.2093 247.922 L -20.4998 249.11 L -15.9571 250.1911 L -11.02 251.2938 L -7.4814 252.0381 L -2.7275 252.9767 L 1.1239 253.6758 L 5.2376 254.3434 L 10.1913 255.0052 L 14.8249 255.4681 L 22.052 255.8827 L 27.0224 255.9518 L 31.8163 255.8589 L 40.7923 255.2536 L 50.3953 253.9778 L 60.517 251.954 L 70.3578 249.3395 L 79.7819 246.209 L 89.2478 242.3105 L 98.1224 237.9633 L 102.9056 235.33 L 107.8879 232.3482 L 115.3388 227.4031 L 120.1315 223.9046 L 124.8586 220.1963 L 129.2439 216.5242 L 133.8529 212.4429 L 138.1576 208.4344 L 142.4373 204.2659 L 145.6341 201.0309 L 150.1343 196.29 L 155.4052 190.4585 L 159.3704 185.912 L 162.8519 181.8492 L 167.505 176.3722 L 171.4434 171.7111 L 176.0752 166.2005 L 179.946 161.5713 L 184.8245 155.7056 L 188.5555 151.1956 L 193.6168 145.0444 L 198.124 139.5396 L 203.0309 133.5233 L 207.6817 127.8014 L 213.4214 120.721 L 217.8741 115.2243 L 223.7809 107.9439 L 229.7839 100.5808 L 235.5327 93.5849 L 240.2845 87.8649 L 246.2399 80.7894 L 251.5313 74.559 L 258.0327 66.9202 L 263.0482 61.0216 L 270.0521 52.774 L 276.3344 45.3657 L 283.075 37.4238 L 289.8907 29.4167 L 301.6672 15.6354 L 313.6311 1.703 L 325.7946 -12.3608 L 332.5893 -20.1747 L 339.8615 -28.5195 L 345.892 -35.4317 L 353.2568 -43.866 L 359.3563 -50.8444 L 366.3594 -58.8497 L 372.0602 -65.3614 L 379.0532 -73.3423 L 385.1078 -80.2462 L 392.3377 -88.4823 L 398.1901 -95.1427 L 404.7985 -102.6395 L 410.5465 -109.099 L 417.1046 -116.3928 L 422.4052 -122.26 L 428.8662 -129.426 L 439.9587 -141.8286 L 451.5219 -154.8827 L 462.8094 -167.6607 L 468.347 -173.9488 L 474.4581 -180.9553 L 479.9397 -187.3491 L 485.1117 -193.4969 L 489.3767 -198.642 L 493.8672 -204.112 L 497.1508 -208.1391 L 500.9407 -212.8284 L 503.4541 -215.9932 L 506.1154 -219.4441 L 508.1567 -222.1859 L 510.4197 -225.3137 L 512.2466 -227.9028 L 514.4698 -231.1609 L 518.213 -237.0944 L 521.8724 -243.8346 L 525.1533 -251.0481 L 526.6274 -254.825 L 528.1236 -259.2205 L 530.0958 -266.6873 L 531.3218 -274.8793 L 531.5189 -282.9036 L 531.274 -287.3717 L 530.7955 -292.1488 L 530.1563 -296.6629 L 529.3471 -301.1855 L 528.4786 -305.1281 L 527.1793 -309.846 L 525.9747 -313.3667 L 524.0883 -317.7805 L 522.0029 -321.6708 L 519.6945 -325.1968 L 518.0031 -327.3835 L 516.0302 -329.6735 L 514.1502 -331.7251 L 511.9503 -334.0289 L 510.1093 -335.8713 L 507.8953 -337.923 L 505.8974 -339.6313 L 503.1755 -341.7545 L 501.0092 -343.2845 L 498.231 -345.041 L 495.8828 -346.3474 L 492.8949 -347.8201 L 490.2089 -349.0087 L 486.8553 -350.3396 L 484.2242 -351.2806 L 480.7038 -352.4169 L 475.1463 -353.9339 L 468.4751 -355.2422 L 461.5365 -356.0161 L 457.7204 -356.2551 L 453.5763 -356.4334 L 449.336 -356.5676 L 445.2603 -356.7037 L 442.1604 -356.8528 L 437.7313 -357.1768 L 433.5638 -357.6343 L 430.2114 -358.137 L 426.1486 -358.9387 L 422.159 -359.9534 L 418.0026 -361.2899 L 414.2147 -362.8122 L 411.2646 -364.2363 L 407.6203 -366.3364 L 405.1992 -367.9634 L 401.9595 -370.4183 L 399.771 -372.2312 L 396.7975 -374.9128 L 394.4773 -377.2177 L 392.1245 -379.7811 L 389.6758 -382.799 L 387.6433 -385.7608 L 386.3263 -388.0363 L 384.7808 -391.3115 L 383.8514 -393.8422 L 382.9517 -397.1525 L 382.4474 -399.8747 L 382.0956 -403.0086 L 381.9731 -405.5583 L 381.9919 -408.7559 L 382.1478 -411.3914 L 382.575 -414.8655 L 383.2366 -418.1365 L 384.2956 -421.7681 L 385.028 -423.7475 L 386.4092 -426.8441 L 387.8199 -429.4768 L 389.6431 -432.3921 L 391.6807 -435.1944 L 393.9271 -437.8581 L 395.9041 -439.903 L 398.6862 -442.3978 L 400.9553 -444.1607 L 403.8982 -446.1633 L 406.3997 -447.6582 L 409.6057 -449.3404 L 412.9416 -450.8501 L 416.1752 -452.1017 L 419.0692 -453.05 L 422.7376 -454.0332 L 425.8072 -454.6803 L 430.2122 -455.3662 L 433.7734 -455.7448 L 437.9833 -456.0151 L 441.5045 -456.1084 L 446.2352 -456.083 L 449.9291 -455.9582 L 454.8056 -455.6261 L 458.5439 -455.2235 L 463.1452 -454.5339 L 465.7287 -454.0523 L 470.6032 -452.9718 L 475.1909 -451.7669 L 479.8094 -450.3903 L 485.0689 -448.6289 L 489.8005 -446.8658 L 494.8867 -444.7936 L 499.7209 -442.6943 L 503.6753 -440.9132 L 508.5678 -438.659 L 512.8679 -436.6316 L 517.8005 -434.2387 L 521.8259 -432.2268 L 526.8087 -429.6708 L 529.941 -428.0223 L 535.2892 -425.1234 L 540.3544 -422.3001 L 545.7913 -419.2406 L 550.3127 -416.6913 L 555.8436 -413.5428 L 560.0947 -411.0848 L 565.3301 -407.9782 L 570.8887 -404.562 L 576.0966 -401.2244 L 582.5597 -396.8805 L 587.9946 -393.0298 L 593.371 -389.0269 L 597.444 -385.8767 L 602.7274 -381.6532 L 606.7383 -378.3441 L 611.625 -374.1706 L 616.7502 -369.609 L 622.0904 -364.6319 L 625.0164 -361.8021 L 629.6271 -357.1776 L 633.301 -353.3246 L 637.9969 -348.1584 L 641.5002 -344.104 L 645.9625 -338.6744 L 650.0516 -333.442 L 654.0421 -328.1047 L 657.2186 -323.6974 L 661.0532 -318.1923 L 664.1046 -313.6552 L 667.7697 -307.9851 L 670.6511 -303.3001 L 673.8599 -297.7988 L 676.7388 -292.5826 L 680.0919 -286.147 L 683.2845 -279.6043 L 686.4768 -272.5573 L 688.6516 -267.3972 L 691.1772 -260.9625 L 693.1134 -255.6737 L 695.3682 -249.0982 L 697.1113 -243.7102 L 699.2895 -236.6123 L 701.2207 -229.8765 L 703.021 -223.086 L 704.384 -217.5275 L 706.0295 -210.211 L 707.1061 -205.0147 L 708.5291 -197.614 L 709.8633 -190.1666 L 711.0616 -183.075 L 712.2166 -175.865 L 713.3273 -168.5356 L 714.1913 -162.4984 L 715.272 -154.4935 L 716.0722 -148.2938 L 717.0419 -140.5736 L 717.8176 -134.2327 L 718.7707 -126.3623 L 719.5528 -119.9151 L 720.5215 -111.9201 L 721.3096 -105.3762 L 722.2725 -97.2621 L 722.9874 -91.1374 L 723.9511 -82.9085 L 724.9389 -74.6878 L 726.0238 -65.9083 L 726.9252 -58.6568 L 727.8828 -50.8653 L 728.6989 -44.0911 L 729.628 -36.2557 L 730.6729 -27.3472 L 731.725 -18.4063 L 732.7562 -9.97 L 733.8439 -1.5127 L 734.7599 5.3687 L 735.9034 13.8577 L 736.8302 20.7637 L 737.8815 28.7239 L 738.7747 35.5963 L 739.8431 43.9632 L 740.6651 50.5481 L 741.6553 58.6899 L 742.3892 64.8854 L 743.1182 71.1109 L 743.7227 76.2321 L 744.4366 82.1637 L 745.0999 87.6154 L 745.7181 92.7964 L 746.1351 96.4713 L 746.6534 101.2271 L 747.035 104.8488 L 747.4626 109.0225 L 747.8218 112.633 L 748.2556 117.3521 L 748.5364 120.9613 L 748.806 125.6827 L 748.9285 129.5822 L 748.9498 134.3465 L 748.9046 136.891 L 748.7264 141.4579 L 748.3901 146.362 L 747.9169 151.0191 L 747.4133 154.8275 L 746.6586 159.5423 L 745.946 163.392 L 744.9438 168.1485 L 744.0172 172.0243 L 742.7258 176.799 L 741.257 181.5734 L 739.5037 186.6403 L 738.1666 190.2113 L 736.2643 194.9682 L 734.3529 199.4035 L 732.0226 204.3695 L 730.2559 207.8237 L 727.5743 212.6225 L 725.3868 216.2199 L 722.3669 220.8343 L 719.9445 224.3046 L 716.8315 228.4971 L 714.1829 231.8328 L 710.5468 236.0899 L 707.6276 239.2729 L 703.6368 243.3485 L 696.3809 250.0811 L 691.8657 253.8915 L 687.1483 257.5947 L 685.1475 259.084 L 680.1548 262.6032 L 676.8239 264.7993 L 663.492 272.4226 L 658.1878 274.9976 L 655.8336 276.0733 L 650.3884 278.4352 L 642.7898 281.4848 L 636.84 283.6466 L 624.1671 287.7597 L 620.6534 288.8429 L 612.5733 291.2466 L 606.5794 292.8999 L 599.4972 294.6981 L 589.5062 297.0711 L 583.3499 298.4739 L 577.0319 299.8514 L 570.9066 301.1226 L 564.6063 302.3608 L 558.9507 303.4103 L 552.3303 304.5699 L 546.4233 305.5462 L 539.559 306.6113 L 533.4656 307.4935 L 525.9619 308.4901 L 520.1514 309.1887 L 512.9307 309.9704 L 507.0139 310.5525 L 499.2207 311.2652 L 493.2313 311.7816 L 485.8129 312.3795 L 479.2845 312.86 L 471.7787 313.3586 L 465.6447 313.7303 L 458.056 314.1608 L 451.3781 314.5205 L 443.7026 314.9114 L 436.9515 315.231 L 428.7079 315.5856 L 422.3765 315.8408 L 414.0659 316.1933 L 406.2254 316.5755 L 398.8672 316.9997 L 391.9881 317.4463 L 383.6199 318.0186 L 377.2073 318.4629 L 368.7988 319.0427 L 362.8492 319.4488 L 354.8918 319.9905 L 347.4126 320.5083 L 338.92 321.1313 L 332.4485 321.6561 L 324.6103 322.3783 L 317.9404 323.0835 L 310.2462 324.0142 L 303.5094 324.9429 L 297.2943 325.902 L 292.5512 326.7003 L 286.9309 327.7122 L 282.4545 328.5676 L 277.0154 329.6986 L 271.6541 330.9353 L 265.9841 332.3729 L 261.9802 333.461 L 256.3092 335.1025 L 251.9811 336.4447 L 246.3608 338.321 L 242.0909 339.8444 L 236.8636 341.8094 L 232.3034 343.5983 L 227.0742 345.7122 L 222.8001 347.4845 L 217.1911 349.8811 L 212.9125 351.7601 L 207.3271 354.2445 L 203.0501 356.1347 L 197.4339 358.5497 L 192.7866 360.4664 L 187.4628 362.5723 L 182.1335 364.5977 L 177.1262 366.4223 L 172.7735 367.9256 L 167.0612 369.731 L 162.6964 370.9414 L 157.3562 372.2024 L 154.0355 372.8739 L 149.0717 373.7387 L 139.189 374.9544 L 130.3516 375.4529 L 125.1502 375.482 L 120.9325 375.3619 L 115.3943 375.038 L 111.4636 374.7023 L 105.8621 374.0691 L 101.5454 373.4583 L 96.1915 372.5669 L 90.4545 371.4582 L 85.0214 370.2631 L 79.2168 368.8366 L 69.2358 366.1005 L 58.4332 362.9003 L 53.8804 361.5231 L 47.9582 359.758 L 43.1246 358.3979 L 37.3206 356.9491 L 32.9433 356.0193 L 27.6318 355.0872 L 22.4096 354.3907 L 17.2745 353.9274 L 13.1492 353.7094 L 7.7887 353.6184 L 4.0183 353.6878 L -1.0005 353.9507 L -6.0217 354.3944 L -11.0271 355.0111 L -15.3552 355.6978 L -20.2179 356.6521 L -24.3971 357.6366 L -29.373 359.0395 L -32.8197 360.1749 L -37.3517 361.8685 L -44.8662 365.1715 L -52.8881 369.1371 L -57.3532 371.4751 L -61.837 373.9464 L -70.2486 378.9275 L -78.646 384.1107 L -86.7853 388.8182 L -95.3523 392.9661 L -104.4257 396.401 L -113.1256 398.7684 L -121.9585 400.1728 L -130.5802 400.6493 L -135.8548 400.5818 L -139.8962 400.3543 L -145.1453 399.8088 L -149.1108 399.1942 L -154.2013 398.1305 L -158.0215 397.1246 L -162.9261 395.5801 L -166.6073 394.2407 L -171.3292 392.2991 L -174.8721 390.695 L -177.5546 389.4033 L -180.9932 387.6482 L -185.4239 385.1961 L -188.7617 383.1737 L -192.5329 380.6618 L -196.4351 377.7604 L -199.9603 374.832 L -203.1228 371.9189 L -206.5842 368.3918 L -208.6811 366.0857 L -211.9596 362.2481 L -214.786 358.7618 L -218.0108 354.6468 L -220.8376 350.9344 L -224.0611 346.5492 L -227.4432 341.7038 L -230.5646 336.9761 L -233.653 332.1098 L -236.9833 326.8561 L -239.3991 323.1318 L -242.9313 317.8545 L -245.7336 313.8269 L -249.324 308.9053 L -252.6122 304.6423 L -256.5499 299.842 L -260.1638 295.7224 L -264.7703 290.8327 L -268.453 287.1762 L -273.4701 282.4825 L -277.453 278.9508 L -282.524 274.6634 L -287.1004 270.9665 L -292.4708 266.7932 L -296.9396 263.438 L -302.9208 259.1133 L -308.693 255.1133 L -314.9744 250.9349 L -321.0221 247.0798 L -327.6048 243.0931 L -333.9566 239.4727 L -340.873 235.7832 L -347.5539 232.4419 L -360.4575 226.3103 L -367.9211 222.7733 L -375.0301 219.3683 L -381.317 216.3464 L -388.5926 212.8596 L -400.6191 207.1399 L -414.7707 200.4742 L -428.684 193.9469 L -435.9604 190.5286 L -442.3067 187.5321 L -450.1585 183.7965 L -457.0688 180.4811 L -465.0141 176.6458 L -471.5092 173.5025 L -480.5621 169.1207 L -486.6384 166.1844 L -494.7881 162.2619 L -503.5099 158.0915 L -511.7791 154.1636 L -520.1061 150.2276 L -535.3233 143.0698 L -549.1061 136.6038 L -558.7115 132.0977 L -565.6824 128.8265 L -574.8392 124.5253 L -581.8753 121.2166 L -591.1139 116.8646 L -598.7484 113.2561 L -607.5052 109.104 L -614.6458 105.7098 L -624.0159 101.2488 L -631.7664 97.5555 L -640.6561 93.317 L -648.4654 89.5961 L -657.426 85.3307 L -664.7339 81.8542 L -673.7649 77.5647 L -681.6957 73.8121 L -690.2359 69.7926 L -699.3841 65.4978 L -716.614 57.3869 L -725.8464 53.0274 L -733.9504 49.195 L -743.239 44.7896 L -751.3854 40.906 L -760.7108 36.4218 L -768.2889 32.737 L -777.0303 28.4302 L -784.5789 24.6604 L -794.3245 19.7221 L -803.2328 15.1328 L -812.3365 10.3584 L -821.0499 5.7045 L -829.3397 1.1961 L -837.189 -3.1445 L -845.9911 -8.0896 L -850.2984 -10.5368 L -854.5521 -12.9702 L -858.3446 -15.1531 L -864.1886 -18.5425 L -869.5754 -21.6923 L -876.5452 -25.8062 L -882.131 -29.1386 L -888.6354 -33.0699 L -892.994 -35.7423 L -898.8328 -39.3792 L -903.358 -42.2429 L -908.5015 -45.5435 L -912.2187 -47.9569 L -916.927 -51.0464 L -920.4641 -53.4 L -925.0745 -56.5252 L -928.3147 -58.7802 L -932.8571 -62.0762 L -937.0433 -65.318 L -941.3452 -68.9175 L -945.2037 -72.455 L -949.0472 -76.3752 L -952.5925 -80.4736 L -955.0845 -83.7195 L -957.9193 -87.8282 L -962.7816 -95.8695 L -967.1893 -104.3564 L -970.9525 -113.1641 L -973.9086 -122.2219 L -975.9199 -130.841 L -977.2899 -140.5137 L -977.662 -149.5913 L -977.098 -158.8949 L -975.7529 -168.1256 L -973.8015 -176.9501 L -972.3333 -182.049 L -970.7175 -186.7785 L -966.9005 -195.7144 L -964.5646 -200.2204 L -961.9723 -204.6433 L -959.4926 -208.4389 L -956.4294 -212.6796 L -953.7738 -216.0552 L -950.3234 -220.1238 L -947.3922 -223.3655 L -943.4227 -227.507 L -940.2769 -230.5801 L -936.2583 -234.211 L -928.5344 -240.2607 L -919.6829 -245.8424 L -915.819 -247.9653 L -910.9767 -250.5199 L -901.782 -255.4162 L -896.5185 -258.2986 L -891.1806 -261.2495 L -885.7477 -264.2693 L -880.5406 -267.1768 L -875.2418 -270.155 L -869.8677 -273.2151 L -865.4497 -275.7726 L -860.314 -278.8071 L -854.793 -282.1687 L -848.9072 -285.8893 L -844.3857 -288.8386 L -838.4454 -292.8144 L -833.8795 -295.9331 L -827.8796 -300.1067 L -823.269 -303.3605 L -817.566 -307.4269 L -814.3423 -309.7449 L -808.2343 -314.1763 L -803.5449 -317.6183 L -797.7614 -321.9196 L -791.6071 -326.5662 L -785.445 -331.2925 L -780.7413 -334.9626 L -774.6158 -339.8404 L -767.0973 -345.9949 L -761.7684 -350.4801 L -756.1234 -355.3429 L -752.6087 -358.4188 L -747.6901 -362.7561 L -742.0547 -367.7334 L -737.4551 -371.7866 L -731.4064 -377.0981 L -726.4061 -381.4798 L -720.7169 -386.4674 L -716.1429 -390.4889 L -710.7006 -395.29 L -707.4703 -398.1458 L -702.6817 -402.3815 L -699.1895 -405.4669 L -695.2283 -408.9584 L -692.6866 -411.1913 L -689.7531 -413.7601 L -687.4989 -415.7391 L -685.1406 -417.8322 L -683.1422 -419.6381 L -680.7365 -421.867 L -678.8273 -423.6935 L -676.683 -425.8271 L -674.7651 -427.8503 L -672.696 -430.2063 L -670.784 -432.5957 L -668.9255 -435.1611 L -665.1176 -441.871 L -664.2923 -443.868 L -663.5868 -445.8758 L -662.8275 -448.543 L -662.2773 -451.1112 L -661.8674 -453.9057 L -661.6414 -456.7739 L -661.6021 -459.5346 L -661.7487 -462.5059 L -662.0638 -465.3245 L -662.6024 -468.3141 L -663.2963 -471.1098 L -664.0025 -473.3627 L -665.0552 -476.0742 L -666.0536 -478.1931 L -667.3464 -480.5096 L -668.5742 -482.4073 L -670.1868 -484.6444 L -671.5396 -486.4428 L -673.102 -488.5675 L -674.9241 -491.2373 L -676.4789 -493.7307 L -677.6075 -495.684 L -679.1464 -498.5744 L -680.2661 -500.8811 L -681.6226 -504.0103 L -682.4879 -506.2796 L -683.4756 -509.3441 L -684.2407 -512.4272 L -684.797 -515.7006 L -685.1057 -518.9761 L -685.1932 -524.8895 L -684.641 -531.2623 L -683.4022 -537.2686 L -682.4367 -540.5781 L -681.2953 -543.8777 L -678.7999 -549.8221 L -675.5995 -555.8909 L -671.8179 -561.6008 L -667.1163 -567.3272 L -661.8058 -572.6313 L -658.3828 -575.6725 L -654.7672 -578.6841 L -651.1993 -581.4886 L -647.2198 -584.4076 L -643.283 -587.0758 L -638.6393 -589.965 L -634.3229 -592.4112 L -629.8453 -594.7103 L -626.1055 -596.4601 L -621.4191 -598.4525 L -617.566 -599.9323 L -612.7561 -601.5897 L -608.7812 -602.8055 L -603.8287 -604.1315 L -599.758 -605.0656 L -594.3827 -606.0862 L -590.2362 -606.7088 L -584.7811 -607.3127 L -579.3002 -607.6806 L -574.1248 -607.8103 L -569.9128 -607.758 L -564.4198 -607.4839 L -561.1913 -607.2238 L -555.7181 -606.6228 L -551.5472 -606.0305 L -546.1231 -605.0714 L -542.0038 -604.188 L -536.9719 -602.9186 L -532.9175 -601.7352 L -527.655 -599.9833 L -523.6581 -598.4951 L -518.4519 -596.3646 L -515.7009 -595.1605 L -510.8152 -592.9067 L -506.5389 -590.8329 L -501.6469 -588.3488 L -493.0912 -583.6677 L -484.2506 -578.3254 L -475.2008 -572.1573 L -466.1556 -565.3565 z" stroke-width="28" stroke="black" fill="none" id="Track"/><path d="M -462.9568 -562.6273 L -457.2815 -558.3712 L -451.8422 -554.2667 L -445.955 -549.8091 L -440.3135 -545.5292 L -434.2031 -540.9055 L -428.3388 -536.4962 L -421.6084 -531.4734 L -415.5038 -526.9639 L -409.2941 -522.4016 L -397.38 -513.6342 L -390.4455 -508.4997 L -383.0013 -503.003 L -377.5052 -498.9833 L -370.6212 -493.9963 L -363.1809 -488.6228 L -355.6238 -483.1454 L -349.7458 -478.8661 L -342.4003 -473.5062 L -333.9554 -467.3651 L -325.8373 -461.503 L -319.5886 -457.0222 L -311.4444 -451.2259 L -304.7854 -446.537 L -297.2379 -441.2902 L -291.6297 -437.4155 L -283.7581 -431.9687 L -276.3889 -426.8425 L -262.6035 -417.218 L -254.7871 -411.7688 L -246.9218 -406.3155 L -239.4572 -401.1812 L -231.939 -396.0406 L -225.8021 -391.8592 L -217.7607 -386.3665 L -211.6519 -382.1372 L -204.2597 -376.9155 L -198.3961 -372.6891 L -191.3572 -367.5294 L -184.3128 -362.283 L -177.8457 -357.3764 L -172.9238 -353.5403 L -167.6715 -349.2371 L -163.6562 -345.6987 L -158.985 -341.2234 L -154.3348 -336.3609 L -150.2413 -331.6914 L -146.8723 -327.5544 L -143.2547 -322.7769 L -139.6474 -317.6754 L -136.2341 -312.5369 L -133.2235 -307.6241 L -130.2533 -302.313 L -127.8007 -297.5265 L -123.2937 -287.6086 L -119.4847 -277.5851 L -116.1997 -266.8018 L -113.7154 -255.6967 L -112.0609 -244.7411 L -111.455 -239.0074 L -111.0372 -233.6093 L -110.7221 -226.9823 L -110.633 -221.8595 L -110.7381 -215.0922 L -111.0397 -209.4729 L -111.637 -203.0085 L -112.3212 -197.736 L -113.4604 -190.8119 L -114.4638 -185.4889 L -115.7792 -178.4677 L -116.6728 -173.044 L -117.6131 -166.3193 L -118.2796 -160.8179 L -119.0307 -153.5681 L -119.5197 -147.5408 L -119.9094 -140.1602 L -120.0343 -134.5049 L -119.9738 -127.5773 L -119.7572 -122.4118 L -119.1958 -115.5772 L -118.4864 -110.0656 L -117.2935 -103.3207 L -115.9681 -97.4504 L -114.1844 -90.7621 L -112.5929 -85.3229 L -110.5417 -78.5874 L -108.6469 -72.6805 L -106.1083 -65.584 L -103.9288 -60.3207 L -100.7328 -53.7417 L -97.8182 -48.6013 L -94.2571 -42.9996 L -91.2715 -38.6135 L -87.5672 -33.3536 L -84.5386 -29.1917 L -80.7353 -24.2488 L -76.5915 -19.2297 L -72.6171 -14.6794 L -69.3357 -11.0483 L -65.202 -6.5831 L -61.4864 -2.6615 L -57.1156 1.8419 L -54.3168 4.6663 L -49.7436 9.2121 L -45.6718 13.2398 L -40.9649 17.9275 L -36.821 22.1142 L -32.0596 27.0105 L -27.8765 31.3843 L -23.0685 36.477 L -19.1502 40.6773 L -14.043 46.2319 L -10.1975 50.483 L -5.3052 56.0097 L -1.6873 60.2259 L 2.848 65.7341 L 6.0581 69.8196 L 9.5706 74.5134 L 14.7281 82.079 L 16.4401 84.9159 L 18.1122 87.9959 L 19.2747 90.3891 L 20.4424 93.0416 L 21.2882 95.1544 L 22.2632 97.8531 L 22.9039 99.8668 L 23.5959 102.424 L 24.0154 104.3192 L 24.417 106.7155 L 24.6286 108.6164 L 24.7448 110.7071 L 24.7481 112.4729 L 24.66 114.3187 L 24.5149 115.9363 L 24.2343 118.1472 L 23.9357 119.918 L 23.4194 122.3379 L 22.9122 124.2516 L 22.094 126.7359 L 21.3537 128.6049 L 20.305 130.8767 L 17.9453 135.1112 L 16.358 137.5317 L 14.6754 139.798 L 13.2948 141.4709 L 11.2869 143.6535 L 9.5094 145.3761 L 6.991 147.5431 L 4.9182 149.1277 L 2.0348 151.0719 L -.4541 152.5235 L -3.3961 153.9877 L -6.0547 155.1067 L -9.207 156.2351 L -11.8728 157.0572 L -15.7375 158.0661 L -18.6589 158.6981 L -22.6273 159.4191 L -25.7641 159.9139 L -29.7338 160.4657 L -33.3 160.8945 L -37.7367 161.3531 L -41.1806 161.687 L -45.3687 162.1481 L -48.678 162.6074 L -52.6333 163.2931 L -56.4533 164.1251 L -60.3415 165.2137 L -62.9667 166.1248 L -66.4852 167.6521 L -68.9962 169.0023 L -71.6859 170.7438 L -73.9873 172.5272 L -76.361 174.7297 L -78.4585 177.0785 L -80.389 179.7003 L -82.0227 182.419 L -83.3879 185.2369 L -84.2693 187.4676 L -85.2134 190.4839 L -85.8494 193.3795 L -86.2024 196.4129 L -86.2507 199.1937 L -86.0426 202.0533 L -85.6255 204.6544 L -84.9583 207.3295 L -84.1196 209.7799 L -83.2185 211.8637 L -82.0043 214.1687 L -80.8838 216.0009 L -79.2457 218.3596 L -77.8463 220.1291 L -75.9694 222.2082 L -74.3251 223.8072 L -72.0171 225.7909 L -70.139 227.251 L -67.5387 229.1478 L -65.4261 230.6131 L -62.6789 232.4456 L -57.646 235.5187 L -54.4249 237.2841 L -50.8104 239.0875 L -44.4397 241.8469 L -37.0924 244.5156 L -29.5367 246.7691 L -25.2093 247.922 L -20.4998 249.11 L -15.9571 250.1911 L -11.02 251.2938 L -7.4814 252.0381 L -2.7275 252.9767 L 1.1239 253.6758 L 5.2376 254.3434 L 10.1913 255.0052 L 14.8249 255.4681 L 22.052 255.8827 L 27.0224 255.9518 L 31.8163 255.8589 L 40.7923 255.2536 L 50.3953 253.9778 L 60.517 251.954 L 70.3578 249.3395 L 79.7819 246.209 L 89.2478 242.3105 L 98.1224 237.9633 L 102.9056 235.33 L 107.8879 232.3482 L 115.3388 227.4031 L 120.1315 223.9046 L 124.8586 220.1963 L 129.2439 216.5242 L 133.8529 212.4429 L 138.1576 208.4344 L 142.4373 204.2659 L 145.6341 201.0309 L 150.1343 196.29 L 155.4052 190.4585 L 159.3704 185.912 L 162.8519 181.8492 L 167.505 176.3722 L 171.4434 171.7111 L 176.0752 166.2005 L 179.946 161.5713 L 184.8245 155.7056 L 188.5555 151.1956 L 193.6168 145.0444 L 198.124 139.5396 L 203.0309 133.5233 L 207.6817 127.8014 L 213.4214 120.721 L 217.8741 115.2243 L 223.7809 107.9439 L 229.7839 100.5808 L 235.5327 93.5849 L 240.2845 87.8649 L 246.2399 80.7894 L 251.5313 74.559 L 258.0327 66.9202 L 263.0482 61.0216 L 270.0521 52.774 L 276.3344 45.3657 L 283.075 37.4238 L 289.8907 29.4167 L 301.6672 15.6354 L 313.6311 1.703 L 325.7946 -12.3608 L 332.5893 -20.1747 L 339.8615 -28.5195 L 345.892 -35.4317 L 353.2568 -43.866 L 359.3563 -50.8444 L 366.3594 -58.8497 L 372.0602 -65.3614 L 379.0532 -73.3423 L 385.1078 -80.2462 L 392.3377 -88.4823 L 398.1901 -95.1427 L 404.7985 -102.6395 L 410.5465 -109.099 L 417.1046 -116.3928 L 422.4052 -122.26 L 428.8662 -129.426 L 439.9587 -141.8286" stroke-width="12" stroke="#e73323" fill="none" id="S1"/><path d="M 448.8503 -151.8605 L 455.3128 -159.1732 L 460.1985 -164.7038 L 466.1429 -171.4418 L 472.3281 -178.5013 L 477.9191 -184.9779 L 483.2089 -191.2222 L 488.1851 -197.1987 L 491.9628 -201.7867 L 496.4243 -207.2461 L 499.45 -210.9762 L 502.9021 -215.2921 L 505.1721 -218.206 L 507.7293 -221.6051 L 509.4314 -223.9369 L 511.6863 -227.1019 L 513.5011 -229.7249 L 515.8361 -233.244 L 517.3029 -235.5796 L 519.475 -239.2936 L 521.0526 -242.2229 L 522.897 -245.9472 L 524.4233 -249.3219 L 526.0541 -253.3026 L 527.5319 -257.397 L 528.8308 -261.595 L 529.7321 -265.0678 L 530.6206 -269.4032 L 531.1619 -273.2307 L 531.4926 -277.6373 L 531.5508 -281.2341 L 531.3907 -285.6918 L 531.0182 -290.1795 L 530.4165 -294.9686 L 529.6707 -299.4897 L 528.7435 -304.0077 L 527.7495 -307.9155 L 524.9077 -315.9937 L 522.8156 -320.2499 L 520.6312 -323.8495 L 516.826 -328.7725 L 512.9191 -333.0242 L 508.7927 -337.1132 L 506.3649 -339.2428 L 504.3117 -340.8964 L 501.5162 -342.9388 L 499.4621 -344.292 L 496.4311 -346.0557 L 494.0266 -347.2832 L 490.9831 -348.6778 L 488.2489 -349.8062 L 484.8368 -351.0688 L 481.956 -352.028 L 478.59 -353.036 L 476.4469 -353.612 L 472.9543 -354.4275 L 470.0562 -354.9843 L 466.1918 -355.558 L 463.1789 -355.8793 L 459.1614 -356.1757 L 455.2943 -356.367 L 451.0923 -356.5154 L 447.0523 -356.6388 L 442.9383 -356.8102 L 438.776 -357.0869 L 434.3432 -357.5356 L 432.0109 -357.8506 L 427.9164 -358.5623 L 423.896 -359.4823 L 419.7007 -360.7053 L 415.616 -362.2121 L 409.0913 -365.4399 L 403.2704 -369.3904 L 398.0024 -373.7919 L 393.0484 -378.7441 L 390.6506 -381.5414 L 388.372 -384.6369 L 385.3718 -389.9568 L 383.281 -395.7914 L 382.2213 -401.6295 L 381.9632 -407.5505 L 382.3661 -413.4338 L 382.9152 -416.7083 L 383.8438 -420.3651 L 385.8616 -425.693 L 388.9341 -431.3112 L 390.7637 -433.9841 L 393.0602 -436.877 L 397.5146 -441.3963 L 402.591 -445.3092 L 408.187 -448.6264 L 411.4665 -450.2104 L 414.6525 -451.5379 L 421.3478 -453.6887 L 428.4753 -455.1267 L 436.1247 -455.9184 L 444.2727 -456.1122 L 453.0819 -455.7673 L 461.1328 -454.8626 L 468.5969 -453.4431 L 473.1823 -452.315 L 478.0726 -450.9266 L 483.0148 -449.3414 L 488.0208 -447.5488 L 492.7855 -445.6688 L 497.9034 -443.4962 L 501.8478 -441.7418 L 506.7297 -439.5118 L 510.7151 -437.6532 L 515.9484 -435.1461 L 519.9645 -433.1636 L 524.9337 -430.6406 L 533.0845 -426.3308 L 538.1337 -423.5445 L 543.5442 -420.5049 L 548.0474 -417.9705 L 553.5615 -414.8473 L 557.8047 -412.4146 L 563.3672 -409.1547 L 568.6016 -405.9843 L 574.1473 -402.4905 L 585.7653 -394.6328 L 591.164 -390.6931 L 600.868 -383.1565 L 609.4939 -376.0103 L 614.6492 -371.5033 L 620.0248 -366.5851 L 627.6208 -359.2168 L 636.0781 -350.3039 L 644.1414 -340.9262 L 648.2764 -335.7444 L 652.5559 -330.1186 L 659.3853 -320.6112 L 666.1812 -310.4783 L 672.5911 -300.0119 L 675.9272 -294.0806 L 678.7307 -288.8093 L 681.9904 -282.3107 L 685.2592 -275.3132 L 687.4941 -270.1844 L 690.092 -263.7888 L 692.0832 -258.5278 L 694.3973 -251.9824 L 698.4073 -239.5413 L 700.5111 -232.4085 L 702.3616 -225.6396 L 703.6615 -220.5246 L 705.3699 -213.2305 L 706.5761 -207.616 L 708.0383 -200.2322 L 709.3223 -193.2401 L 710.6182 -185.7485 L 711.7881 -178.5836 L 712.8471 -171.7562 L 713.7971 -165.2943 L 714.8326 -157.8038 L 715.6435 -151.6393 L 716.6786 -143.4796 L 717.4601 -137.1651 L 718.3537 -129.8139 L 719.1895 -122.8967 L 720.1583 -114.926 L 720.8858 -108.9047 L 721.8536 -100.8203 L 722.6299 -94.2027 L 723.586 -86.0125 L 724.5636 -77.7806 L 725.5738 -69.5259 L 727.5019 -53.9829 L 728.3239 -47.2206 L 729.2579 -39.3929 L 730.2432 -31.0187 L 731.2881 -22.0907 L 732.3636 -13.1342 L 733.4299 -4.687 L 734.3341 2.1906 L 735.4034 10.142 L 736.3312 17.0446 L 737.463 25.5425 L 738.296 31.9011 L 739.3812 40.3246 L 740.2923 47.5431 L 741.2597 55.4078 L 742.0307 61.8463 L 742.8315 68.6622 L 743.4463 73.8981 L 744.1746 79.9969 L 744.858 85.6277 L 745.4761 90.74 L 745.9466 94.7844 L 746.4427 99.2726 L 746.8592 103.1795 L 747.2927 107.3537 L 747.6577 110.9679 L 748.084 115.4091 L 748.4136 119.295 L 748.7103 123.7366 L 748.8787 127.632 L 748.958 132.3781 L 748.808 139.7399 L 748.5482 144.3376 L 748.1435 148.9766 L 746.9579 157.7707 L 745.3997 166.0664 L 743.3116 174.7106 L 741.8284 179.7839 L 740.2478 184.5561 L 736.9945 193.1847 L 735.1333 197.6343 L 733.0052 202.3334 L 728.7025 210.6617 L 723.6315 218.9453 L 718.0175 226.9347 L 711.8529 234.6009 L 705.3037 241.6819 L 697.1591 249.3967 L 692.6768 253.2268 L 687.9943 256.9508 L 681.0499 261.9923 L 678.0432 264.0099 L 664.4745 271.9196 L 659.1912 274.5273 L 656.8444 275.616 L 651.4147 278.0021 L 643.8328 281.0853 L 637.8947 283.279 L 625.2217 287.4309 L 621.7071 288.5204 L 616.087 290.2192 L 613.628 290.9429 L 607.9905 292.5217 L 601.6253 294.1715 L 595.9432 295.5549 L 591.6594 296.5691 L 585.8982 297.9001 L 579.6569 299.2864 L 573.2249 300.6494 L 566.9905 301.9008 L 560.5805 303.1137 L 554.8314 304.14 L 548.1196 305.2718 L 542.147 306.2185 L 535.2158 307.2463 L 529.0654 308.0905 L 521.9457 308.9799 L 515.6454 309.6869 L 508.3825 310.4214 L 502.4382 310.977 L 494.6171 311.6649 L 488.6006 312.161 L 480.6868 312.7607 L 475.0674 313.1467 L 467.5367 313.6184 L 461.3828 313.9752 L 453.2895 314.4191 L 446.5866 314.7672 L 438.8847 315.1422 L 432.1069 315.4441 L 424.3258 315.7622 L 417.4912 316.0436 L 409.6559 316.4002 L 401.811 316.8219 L 393.9544 317.3151 L 387.0681 317.7808 L 371.769 318.8386 L 364.337 319.3477 L 358.3773 319.7525 L 350.4062 320.2993 L 342.417 320.8674 L 334.4309 321.4894 L 328.016 322.0513 L 319.821 322.8755 L 313.3531 323.6225 L 305.976 324.5899 L 299.5665 325.5397 L 289.0169 327.3287 L 279.3855 329.1913 L 273.6577 330.4585 L 268.3176 331.766 L 258.6442 334.4119 L 248.6701 337.5314 L 238.82 341.062 L 229.0384 344.9112 L 219.5002 348.8844 L 209.2978 353.3671 L 199.7501 357.5657 L 189.7924 361.6613 L 184.4657 363.7211 L 179.1304 365.7025 L 169.4136 369.0148 L 159.3551 371.7584 L 151.0552 373.4125 L 145.7706 374.2215 L 141.4886 374.7335 L 135.908 375.2034 L 132.3095 375.3896 L 127.0979 375.495 L 122.8805 375.4323 L 117.6783 375.1929 L 113.4304 374.8811 L 108.1725 374.3528 L 103.5423 373.7535 L 98.2044 372.9185 L 92.8215 371.9349 L 87.0634 370.7288 L 81.6112 369.4426 L 76.1311 368.0233 L 71.6544 366.7896 L 65.7659 365.0912 L 60.8844 363.6385 L 54.9302 361.8405 L 50.3908 360.4749 L 44.4995 358.7731 L 39.6999 357.5144 L 33.949 356.2201 L 29.6137 355.4092 L 24.3566 354.624 L 19.1912 354.0745 L 14.0986 353.748 L 9.9927 353.6294 L 4.9606 353.6599 L .8818 353.8302 L -4.1386 354.2075 L -9.1541 354.7591 L -14.1241 355.4873 L -18.405 356.2731 L -23.2105 357.3405 L -27.3382 358.433 L -31.9641 359.8804 L -35.3768 361.1034 L -40.1539 363.0306 L -42.9322 364.2684 L -47.6255 366.5024 L -51.2193 368.2896 L -55.6749 370.5829 L -59.8745 372.8488 L -64.6429 375.5604 L -68.2879 377.7315 L -73.0504 380.6565 L -76.6896 382.9101 L -81.4409 385.793 L -85.0911 387.8926 L -89.6222 390.2906 L -93.6248 392.2023 L -98.25 394.1677 L -102.3547 395.7025 L -107.4055 397.3165 L -111.3114 398.3532 L -116.1602 399.366 L -119.8197 399.9254 L -124.7182 400.4113 L -128.7243 400.6111 L -133.992 400.6339 L -138.0307 400.4797 L -142.9897 400.0684 L -146.9818 399.5466 L -152.1187 398.604 L -156.266 397.6087 L -161.2066 396.1537 L -164.9164 394.8748 L -169.6745 393.0068 L -172.9726 391.5699 L -176.7537 389.7958 L -183.6069 386.2307 L -191.0363 381.6903 L -194.9879 378.8754 L -198.5666 376.0275 L -205.0889 369.9592 L -210.7394 363.7072 L -213.98 359.769 L -216.8004 356.2059 L -220.0312 352.0036 L -222.6543 348.4876 L -226.0584 343.7216 L -229.401 338.7675 L -232.495 333.9462 L -235.6008 329.0251 L -241.6692 319.7168 L -247.9581 310.7454 L -255.0502 301.6314 L -262.8446 292.8305 L -271.378 284.4043 L -280.6015 276.2635 L -290.4403 268.3515 L -300.7912 260.6314 L -306.1512 256.8549 L -312.3696 252.6462 L -318.3598 248.7557 L -324.8744 244.7186" stroke-width="12" stroke="#4fafdf" fill="none" id="S2"/><path d="M -331.5583 240.8129 L -338.0034 237.2831 L -345.0286 233.6824 L -351.8077 230.3962 L -357.4127 227.7456 L -364.838 224.239 L -372.3534 220.6535 L -379.5131 217.2132 L -385.8534 214.17 L -392.7277 210.8866 L -397.8219 208.4653 L -405.3051 204.9258 L -411.9198 201.813 L -419.5437 198.2342 L -425.3081 195.5304 L -433.0439 191.9003 L -439.3724 188.9201 L -446.7199 185.4366 L -453.6108 182.1432 L -462.029 178.0888 L -468.5067 174.956 L -477.0331 170.8284 L -483.5987 167.6525 L -491.2159 163.9787 L -499.9095 159.8092 L -508.1545 155.8826 L -516.9783 151.7039 L -525.3356 147.7634 L -531.6368 144.8014 L -540.6077 140.5898 L -545.3817 138.3508 L -554.9684 133.8535 L -561.927 130.5892 L -571.0657 126.2986 L -578.0836 122.9998 L -587.303 118.6611 L -594.9279 115.0633 L -603.6702 110.9241 L -610.7982 107.5397 L -620.1545 103.0878 L -627.8889 99.4036 L -636.7625 95.1733 L -644.5558 91.4584 L -653.5031 87.1976 L -661.3572 83.4604 L -670.371 79.1752 L -677.7256 75.6884 L -686.8179 71.3993 L -695.9507 67.1098 L -705.1171 62.8034 L -713.1602 59.0157 L -722.3796 54.6649 L -729.8951 51.1139 L -739.7516 46.4456 L -747.3102 42.852 L -757.2118 38.11 L -764.2079 34.7269 L -773.536 30.1597 L -781.097 26.4047 L -790.3398 21.7511 L -799.3731 17.1309 L -808.6337 12.3107 L -817.5117 7.6048 L -825.979 3.0333 L -834.0081 -1.3773 L -844.2521 -7.1063 L -848.5821 -9.5598 L -852.8562 -11.9983 L -861.2731 -16.8478 L -866.6798 -19.996 L -873.6908 -24.1161 L -879.3643 -27.4835 L -886.0008 -31.4701 L -890.8378 -34.416 L -896.8137 -38.114 L -901.1285 -40.8272 L -906.429 -44.2079 L -910.2346 -46.6658 L -915.2791 -49.9606 L -918.8342 -52.3111 L -923.178 -55.2307 L -926.6965 -57.6464 L -930.9969 -60.702 L -935.2246 -63.8823 L -939.5952 -67.4154 L -943.7816 -71.1111 L -947.4987 -74.7407 L -951.1719 -78.7649 L -954.5256 -82.9621 L -956.8823 -86.2736 L -959.5922 -90.4557 L -961.6881 -93.9503 L -964.3019 -98.6529 L -966.2055 -102.3419 L -968.53 -107.2618 L -970.1446 -111.0852 L -972.0306 -116.158 L -973.2933 -120.0876 L -974.6313 -124.9757 L -975.5479 -128.9822 L -976.5128 -134.2622 L -977.0978 -138.6348 L -977.5256 -143.6494 L -977.6642 -147.719 L -977.5709 -152.7012 L -977.3044 -156.7314 L -976.7307 -161.9809 L -976.1296 -165.9803 L -975.2156 -170.8777 L -974.2594 -175.1355 L -972.9687 -179.9579 L -971.4531 -184.7178 L -969.5861 -189.6953 L -967.8427 -193.7221 L -965.6172 -198.2592 L -962.9736 -202.9971 L -960.2216 -207.3609 L -957.606 -211.101 L -954.3993 -215.2815 L -951.6398 -218.6086 L -948.0779 -222.6221 L -945.0764 -225.8158 L -941.0124 -229.8795 L -938.0377 -232.6447 L -933.9224 -236.168 L -930.4501 -238.8702 L -925.7435 -242.1622 L -921.7292 -244.6588 L -916.7173 -247.4817 L -913.1044 -249.4037 L -907.924 -252.1256 L -903.9357 -254.2515 L -898.6918 -257.1034 L -893.3895 -260.0263 L -887.9957 -263.0179 L -882.5037 -266.0793 L -877.2391 -269.0289 L -871.8902 -272.0578 L -867.8352 -274.3869 L -862.3735 -277.5807 L -856.8702 -280.8904 L -851.3363 -284.3365 L -846.4745 -287.4674 L -840.8947 -291.1626 L -836.3408 -294.2458 L -830.3538 -298.3756 L -825.7536 -301.6026 L -819.7076 -305.8945 L -810.7545 -312.3419 L -799.9316 -320.298 L -794.1413 -324.644 L -787.9811 -329.3368 L -782.9108 -333.2618 L -777.1349 -337.8206 L -772.1032 -341.8751 L -768.5253 -344.8106 L -762.8309 -349.5767 L -757.18 -354.4258 L -750.1507 -360.5836 L -744.525 -365.5532 L -739.5809 -369.9148 L -733.5469 -375.2216 L -728.908 -379.2876 L -723.2013 -384.288 L -718.5958 -388.3305 L -712.7072 -393.5182 L -704.4185 -400.8454 L -696.5433 -407.8006 L -690.9246 -412.7345 L -686.0763 -416.9968 L -683.7529 -419.0822 L -681.6314 -421.0295 L -679.2636 -423.2711 L -677.5318 -424.9689 L -675.3035 -427.2686 L -673.4538 -429.3187 L -671.4825 -431.6961 L -669.6691 -434.1015 L -667.9245 -436.6802 L -667.001 -438.2011 L -666.1578 -439.7265 L -665.3978 -441.2573 L -664.7208 -442.7929 L -663.7921 -445.2558 L -663.1184 -447.437 L -662.4982 -449.9807 L -662.0143 -452.7462 L -661.7115 -455.5844 L -661.5956 -458.493 L -661.6655 -461.2778 L -661.9237 -464.2668 L -662.3895 -467.2625 L -663.0142 -470.0634 L -663.66 -472.3271 L -664.637 -475.0674 L -665.5007 -477.0637 L -666.8121 -479.5998 L -667.9965 -481.5431 L -669.5726 -483.8136 L -670.9126 -485.6107 L -672.4799 -487.708 L -674.2238 -490.1826 L -675.9028 -492.7809 L -677.0472 -494.6977 L -678.5222 -497.3672 L -679.756 -499.806 L -681.0802 -502.7068 L -682.0662 -505.1406 L -683.1306 -508.1925 L -683.9809 -511.2689 L -684.6308 -514.5463 L -685.0054 -517.6254 L -685.1944 -520.9169 L -685.2191 -523.6819 L -685.0975 -526.9273 L -684.8335 -529.8131 L -684.2943 -533.334 L -683.7159 -536.0264 L -682.8206 -539.3379 L -681.7427 -542.6406 L -680.4982 -545.9354 L -679.3632 -548.5975 L -677.8074 -551.8573 L -676.2944 -554.6881 L -674.376 -557.8782 L -672.6607 -560.4308 L -670.3424 -563.534 L -668.2878 -566.012 L -665.1872 -569.3603 L -662.9613 -571.548 L -659.8182 -574.4247 L -656.2773 -577.4461 L -652.5574 -580.4412 L -648.8843 -583.2142 L -644.7806 -586.0855 L -640.4717 -588.8571 L -636.2332 -591.3568 L -631.8228 -593.7238 L -627.8404 -595.6665 L -623.1851 -597.7271 L -619.3495 -599.2647 L -614.8754 -600.8846 L -610.9277 -602.1654 L -605.6934 -603.6564 L -596.6024 -605.6939 L -587.0311 -607.0929 L -581.5591 -607.5576 L -576.0671 -607.7866 L -571.8572 -607.7996 L -566.6814 -607.6235 L -557.97 -606.8942 L -548.3514 -605.4926 L -539.1671 -603.499 L -529.8175 -600.7321 L -520.5935 -597.2656 L -512.6482 -593.7675 L -507.7611 -591.4348 L -503.787 -589.4512 L -498.8949 -586.8926 L -494.9223 -584.7082 L -490.0399 -581.8854 L -486.0757 -579.4767 L -481.2174 -576.3442 L -477.3009 -573.6564 L -472.2012 -569.9551 L -467.9805 -566.7612" stroke-width="12" stroke="#f7d347" fill="none" id="S3"/></svg>