<?xml version="1.0" standalone="no"?>
<svg xmlns:xlink="http://www.w3.org/1999/xlink" id="s2" class="track" xmlns="http://www.w3.org/2000/svg" width="800" height="600" viewBox="-800 -1000 2000 2000">
        <path d="M -462.9568 -562.6273 L -461.9626 -561.8839 L -460.6324 -560.8876 L -459.6307 -560.1363 L -458.6251 -559.3814 L -457.2815 -558.3712 L -456.2688 -557.6082 L -455.2523 -556.8416 L -454.2339 -556.0734 L -452.8699 -555.0431 L -451.8422 -554.2667 L -450.8114 -553.487 L -449.4321 -552.4431 L -448.3935 -551.657 L -447.0036 -550.6041 L -445.955 -549.8091 L -444.9067 -549.0135 L -443.8525 -548.2137 L -442.4418 -547.1432 L -441.3804 -546.3378 L -440.3135 -545.5292 L -438.8868 -544.4472 L -437.813 -543.6339 L -436.7324 -542.8159 L -435.2912 -541.7271 L -434.2031 -540.9055 L -433.1116 -540.0822 L -432.0142 -539.2569 L -430.5507 -538.1573 L -429.445 -537.3262 L -428.3388 -536.4962 L -426.855 -535.3851 L -425.7376 -534.5491 L -424.2416 -533.4325 L -423.1125 -532.5917 L -421.6084 -531.4734 L -420.4724 -530.6309 L -419.3326 -529.7871 L -418.1888 -528.9424 L -416.6565 -527.8125 L -415.5038 -526.9639 L -414.3467 -526.1133 L -413.1858 -525.2595 L -412.0021 -524.3901 L -410.4644 -523.2606 L -409.2941 -522.4016 L -408.1181 -521.5382 L -406.5452 -520.3831 L -405.3623 -519.514 L -404.1733 -518.64 L -402.5862 -517.473 L -401.3912 -516.5928 L -400.1926 -515.7098 L -398.5873 -514.5258 L -397.38 -513.6342 L -396.1684 -512.7382 L -394.5467 -511.538 L -393.3285 -510.6358 L -391.6961 -509.4262 L -390.4455 -508.4997 L -388.8218 -507.2974 L -387.5811 -506.3794 L -385.9243 -505.1557 L -384.6756 -504.2349 L -383.0013 -503.003 L -381.7419 -502.0785 L -380.4747 -501.1502 L -378.782 -499.9137 L -377.5052 -498.9833 L -376.2234 -498.0516 L -374.5108 -496.8091 L -373.2177 -495.8729 L -371.9206 -494.935 L -370.6212 -493.9963 L -369.3162 -493.054 L -367.5694 -491.7932 L -366.2578 -490.8461 L -364.5033 -489.5786 L -363.1809 -488.6228 L -361.8567 -487.665 L -360.0833 -486.381 L -358.7508 -485.4151 L -357.3974 -484.4333 L -355.6238 -483.1454 L -354.2774 -482.1666 L -352.4731 -480.8536 L -351.1147 -479.8641 L -349.7458 -478.8661 L -347.9247 -477.5374 L -346.5536 -476.5367 L -345.1734 -475.5293 L -343.7901 -474.52 L -342.4003 -473.5062 L -340.5398 -472.15 L -339.1375 -471.1288 L -337.2609 -469.764 L -335.8483 -468.738 L -333.9554 -467.3651 L -332.5315 -466.3337 L -330.6265 -464.956 L -329.1927 -463.9205 L -327.2765 -462.5392 L -325.8373 -461.503 L -324.3902 -460.463 L -322.4737 -459.0878 L -321.0318 -458.0546 L -319.5886 -457.0222 L -317.6677 -455.6504 L -316.2293 -454.6249 L -314.7897 -453.6 L -312.8763 -452.2406 L -311.4444 -451.2259 L -310.0117 -450.2128 L -308.1088 -448.8704 L -306.6829 -447.8674 L -304.7854 -446.537 L -303.3662 -445.5453 L -301.9473 -444.5565 L -300.5334 -443.5737 L -298.6494 -442.2674 L -297.2379 -441.2902 L -295.8336 -440.319 L -294.4303 -439.3497 L -293.0282 -438.3814 L -291.6297 -437.4155 L -290.2361 -436.4531 L -288.3786 -435.1694 L -286.9905 -434.2089 L -285.6026 -433.2475 L -283.7581 -431.9687 L -282.3719 -431.0068 L -280.5305 -429.727 L -279.1495 -428.7657 L -277.7672 -427.8029 L -276.3889 -426.8425 L -274.5498 -425.5598 L -273.1694 -424.5964 L -271.79 -423.6335 L -269.9531 -422.3508 L -268.5737 -421.3874 L -267.1953 -420.425 L -265.3603 -419.1433 L -263.9804 -418.1799 L -262.6035 -417.218 L -260.7671 -415.9362 L -259.3882 -414.9743 L -258.0092 -414.0124 L -256.6294 -413.0515 L -254.7871 -411.7688 L -253.4042 -410.8072 L -251.5566 -409.524 L -250.1689 -408.5621 L -248.7778 -407.5987 L -246.9218 -406.3155 L -245.5277 -405.3536 L -244.1295 -404.3902 L -242.7306 -403.4278 L -240.8599 -402.1431 L -239.4572 -401.1812 L -238.052 -400.2183 L -236.6435 -399.254 L -234.766 -397.9703 L -233.3539 -397.0059 L -231.939 -396.0406 L -230.0541 -394.7557 L -228.6368 -393.7894 L -227.2204 -392.8245 L -225.8021 -391.8592 L -224.3815 -390.8918 L -222.4884 -389.6014 L -221.0687 -388.6322 L -219.6497 -387.662 L -217.7607 -386.3665 L -216.346 -385.3929 L -214.933 -384.4173 L -213.0549 -383.1147 L -211.6519 -382.1372 L -210.2534 -381.1587 L -208.8599 -380.1792 L -207.0126 -378.874 L -205.6331 -377.8945 L -204.2597 -376.9155 L -202.8969 -375.9395 L -201.5353 -374.9606 L -200.1867 -373.987 L -198.3961 -372.6891 L -197.0579 -371.7153 L -195.7272 -370.7432 L -193.9653 -369.4513 L -192.6544 -368.4867 L -191.3572 -367.5294 L -190.0741 -366.5799 L -188.3891 -365.3291 L -187.1469 -364.4039 L -185.9194 -363.4871 L -184.3128 -362.283 L -183.1282 -361.3919 L -181.9621 -360.5118 L -180.438 -359.3564 L -179.3145 -358.5007 L -177.8457 -357.3764 L -176.7625 -356.5425 L -175.3447 -355.4434 L -174.2972 -354.6246 L -172.9238 -353.5403 L -171.9102 -352.7307 L -170.9093 -351.9228 L -169.597 -350.849 L -168.6284 -350.0438 L -167.6715 -349.2371 L -166.7271 -348.4281 L -165.7923 -347.6141 L -164.5652 -346.5234 L -163.6562 -345.6987 L -162.4617 -344.5922 L -161.5786 -343.7573 L -160.7039 -342.9163 L -159.8415 -342.0737 L -158.985 -341.2234 L -158.1439 -340.3756 L -157.0337 -339.2364 L -156.2126 -338.3782 L -155.4004 -337.5154 L -154.3348 -336.3609 L -153.5476 -335.4918 L -152.7691 -334.6188 L -151.7449 -333.4498 L -150.9889 -332.572 L -150.2413 -331.6914 L -149.2577 -330.5132 L -148.5311 -329.6279 L -147.5779 -328.4455 L -146.8723 -327.5544 L -146.1755 -326.661 L -145.4881 -325.7675 L -144.8081 -324.8714 L -143.9155 -323.6758 L -143.2547 -322.7769 L -142.3867 -321.5792 L -141.744 -320.6801 L -141.1074 -319.7792 L -140.2695 -318.5781 L -139.6474 -317.6754 L -139.0312 -316.7719 L -138.2196 -315.5668 L -137.6156 -314.6586 L -137.0194 -313.7514 L -136.2341 -312.5369 L -135.6532 -311.6224 L -135.0803 -310.7056 L -134.3267 -309.4757 L -133.7714 -308.5514 L -133.2235 -307.6241 L -132.5046 -306.384 L -131.9728 -305.4488 L -131.4489 -304.5119 L -130.7613 -303.2578 L -130.2533 -302.313 L -129.7514 -301.3642 L -129.2553 -300.4107 L -128.765 -299.4534 L -128.2801 -298.4919 L -127.8007 -297.5265 L -127.3255 -296.5551 L -126.7006 -295.2539 L -126.2378 -294.2721 L -125.6282 -292.9531 L -125.1791 -291.9619 L -124.735 -290.9649 L -124.1509 -289.6274 L -123.7198 -288.6208 L -123.2937 -287.6086 L -122.8729 -286.5906 L -122.4583 -285.5688 L -122.0494 -284.5417 L -121.647 -283.5109 L -121.1201 -282.1295 L -120.732 -281.0876 L -120.3495 -280.0393 L -119.8512 -278.6402 L -119.4847 -277.5851 L -119.1241 -276.524 L -118.7699 -275.4586 L -118.3092 -274.0344 L -117.9716 -272.9608 L -117.5327 -271.5223 L -117.2118 -270.4375 L -116.8997 -269.3534 L -116.4948 -267.8991 L -116.1997 -266.8018 L -115.9142 -265.7061 L -115.5455 -264.2376 L -115.279 -263.1336 L -115.0202 -262.0244 L -114.6888 -260.5431 L -114.4501 -259.4286 L -114.2202 -258.3131 L -113.9984 -257.1937 L -113.7154 -255.6967 L -113.5128 -254.5734 L -113.2543 -253.0699 L -113.0692 -251.9408 L -112.8913 -250.8088 L -112.6653 -249.2966 L -112.5041 -248.1609 L -112.3493 -247.0206 L -112.2019 -245.8827 L -112.0609 -244.7411 L -111.9266 -243.5983 L -111.7987 -242.4518 L -111.6777 -241.3068 L -111.5629 -240.1571 L -111.455 -239.0074 L -111.321 -237.4682 L -111.2283 -236.313 L -111.1148 -234.7699 L -111.0372 -233.6093 L -110.9661 -232.4464 L -110.9015 -231.2808 L -110.8257 -229.7207 L -110.7767 -228.5488 L -110.7221 -226.9823 L -110.6895 -225.8046 L -110.6641 -224.6235 L -110.6415 -223.0452 L -110.633 -221.8595 L -110.6322 -220.6711 L -110.6435 -219.0809 L -110.6617 -217.8872 L -110.6886 -216.6914 L -110.7381 -215.0922 L -110.7858 -213.8921 L -110.8636 -212.2883 L -110.9329 -211.082 L -111.0397 -209.4729 L -111.131 -208.264 L -111.2317 -207.0538 L -111.3421 -205.8417 L -111.5042 -204.2238 L -111.637 -203.0085 L -111.7791 -201.794 L -111.9834 -200.1731 L -112.1479 -198.9536 L -112.3212 -197.736 L -112.5662 -196.1101 L -112.7599 -194.8884 L -113.0304 -193.2594 L -113.242 -192.0368 L -113.4604 -190.8119 L -113.6849 -189.5858 L -113.9918 -187.9506 L -114.2266 -186.7215 L -114.4638 -185.4889 L -114.7012 -184.2573 L -115.0167 -182.6089 L -115.2505 -181.3696 L -115.4802 -180.129 L -115.7792 -178.4677 L -115.9961 -177.2216 L -116.2069 -175.9716 L -116.411 -174.7182 L -116.6728 -173.044 L -116.8612 -171.7881 L -117.0437 -170.5289 L -117.2203 -169.2691 L -117.4479 -167.5847 L -117.6131 -166.3193 L -117.7736 -165.0532 L -117.9812 -163.3617 L -118.1322 -162.0922 L -118.2796 -160.8179 L -118.4227 -159.5439 L -118.5616 -158.2669 L -118.7398 -156.5613 L -118.8677 -155.2809 L -119.0307 -153.5681 L -119.1465 -152.2807 L -119.2919 -150.5611 L -119.3939 -149.268 L -119.5197 -147.5408 L -119.6062 -146.2407 L -119.6852 -144.9418 L -119.779 -143.206 L -119.8403 -141.9017 L -119.9094 -140.1602 L -119.9517 -138.8555 L -119.986 -137.5498 L -120.0191 -135.8089 L -120.0343 -134.5049 L -120.0413 -133.2019 L -120.0376 -131.4689 L -120.025 -130.1704 L -120.0038 -128.872 L -119.9738 -127.5773 L -119.9344 -126.2828 L -119.8855 -124.9901 L -119.8267 -123.7016 L -119.7572 -122.4118 L -119.677 -121.1274 L -119.5854 -119.8422 L -119.4822 -118.5587 L -119.3266 -116.8545 L -119.1958 -115.5772 L -119.0527 -114.302 L -118.8972 -113.0285 L -118.6709 -111.3351 L -118.4864 -110.0656 L -118.2896 -108.7983 L -118.0804 -107.5332 L -117.7823 -105.8478 L -117.5442 -104.5846 L -117.2935 -103.3207 L -116.9408 -101.6411 L -116.6622 -100.3821 L -116.3717 -99.1237 L -115.9681 -97.4504 L -115.6527 -96.1944 L -115.3283 -94.9416 L -114.9942 -93.6866 L -114.6524 -92.4343 L -114.1844 -90.7621 L -113.8257 -89.508 L -113.4613 -88.254 L -112.9678 -86.5802 L -112.5929 -85.3229 L -112.2147 -84.0637 L -111.7063 -82.3827 L -111.3215 -81.1194 L -110.9335 -79.8541 L -110.5417 -78.5874 L -110.013 -76.8988 L -109.6103 -75.6313 L -109.2016 -74.3649 L -108.6469 -72.6805 L -108.2209 -71.417 L -107.6396 -69.7386 L -107.1926 -68.4853 L -106.735 -67.2366 L -106.1083 -65.584 L -105.6247 -64.3529 L -105.1301 -63.1323 L -104.4516 -61.5185 L -103.9288 -60.3207 L -103.3929 -59.1319 L -102.661 -57.5681 L -102.0964 -56.4057 L -101.3249 -54.8749 L -100.7328 -53.7417 L -99.9241 -52.2477 L -99.3019 -51.1367 L -98.6739 -50.0453 L -97.8182 -48.6013 L -97.166 -47.5309 L -96.5054 -46.4698 L -95.6138 -45.0702 L -94.9382 -44.0311 L -94.2571 -42.9996 L -93.3442 -41.6378 L -92.6551 -40.6231 L -91.9638 -39.6149 L -91.2715 -38.6135 L -90.577 -37.616 L -89.8829 -36.6248 L -89.1885 -35.638 L -88.2622 -34.3293 L -87.5672 -33.3536 L -86.8714 -32.3834 L -85.9411 -31.098 L -85.2407 -30.1409 L -84.5386 -29.1917 L -83.8329 -28.2485 L -82.8872 -27.0028 L -82.1734 -26.0768 L -81.4559 -25.1587 L -80.7353 -24.2488 L -79.7689 -23.047 L -79.04 -22.1539 L -78.309 -21.2693 L -77.3287 -20.0989 L -76.5915 -19.2297 L -75.8514 -18.366 L -75.1088 -17.5075 L -74.3635 -16.6536 L -73.368 -15.524 L -72.6171 -14.6794 L -71.8653 -13.8394 L -70.8577 -12.7216 L -70.0981 -11.8843 L -69.3357 -11.0483 L -68.5696 -10.2125 L -67.7982 -9.3746 L -66.766 -8.2597 L -65.9864 -7.422 L -65.202 -6.5831 L -64.4144 -5.7447 L -63.3563 -4.6243 L -62.5568 -3.7825 L -61.4864 -2.6615 L -60.6766 -1.8183 L -59.8625 -.9746 L -59.0436 -.1302 L -57.9448 .9965 L -57.1156 1.8419 L -56.2809 2.6888 L -55.4407 3.5372 L -54.3168 4.6663 L -53.4675 5.5156 L -52.613 6.3671 L -51.4701 7.5024 L -50.608 8.3567 L -49.7436 9.2121 L -48.585 10.3577 L -47.7146 11.2184 L -46.5485 12.3718 L -45.6718 13.2398 L -44.7934 14.1106 L -43.618 15.2781 L -42.7362 16.1564 L -41.8521 17.0392 L -40.9649 17.9275 L -39.7841 19.1139 L -38.8963 20.0093 L -38.0067 20.9094 L -36.821 22.1142 L -35.93 23.0232 L -35.0375 23.9371 L -34.1459 24.8534 L -33.2522 25.7752 L -32.0596 27.0105 L -31.166 27.9399 L -29.9706 29.1874 L -29.0741 30.1262 L -27.8765 31.3843 L -26.978 32.3311 L -26.0764 33.2836 L -24.8742 34.5569 L -23.9722 35.515 L -23.0685 36.477 L -22.1646 37.4417 L -20.9593 38.732 L -20.0535 39.7046 L -19.1502 40.6773 L -17.9453 41.9793 L -17.0416 42.9591 L -16.1381 43.9417 L -14.9404 45.2488 L -14.043 46.2319 L -13.1462 47.2176 L -12.2584 48.1965 L -11.0774 49.5042 L -10.1975 50.483 L -9.0308 51.7871 L -8.1623 52.763 L -7.0128 54.0622 L -6.1565 55.0361 L -5.3052 56.0097 L -4.1799 57.3067 L -3.3434 58.2791 L -2.5129 59.2516 L -1.6873 60.2259 L -.5992 61.5223 L .2093 62.4951 L 1.012 63.4697 L 1.8057 64.4427 L 2.848 65.7341 L 3.6149 66.6948 L 4.3661 67.6449 L 5.3443 68.8962 L 6.0581 69.8196 L 6.7559 70.7315 L 7.6592 71.926 L 8.3153 72.8046 L 8.9529 73.6679 L 9.5706 74.5134 L 10.3644 75.6152 L 10.9372 76.4218 L 11.6699 77.4689 L 12.198 78.2353 L 12.7083 78.9861 L 13.2019 79.7228 L 13.6787 80.4453 L 14.2892 81.3878 L 14.7281 82.079 L 15.1505 82.7568 L 15.5561 83.4203 L 15.9477 84.0738 L 16.4401 84.9159 L 16.7893 85.529 L 17.1216 86.1261 L 17.5388 86.8963 L 17.8326 87.4535 L 18.1122 87.9959 L 18.3778 88.5229 L 18.7154 89.2097 L 18.9595 89.718 L 19.2747 90.3891 L 19.5049 90.8905 L 19.7299 91.3901 L 19.9495 91.8878 L 20.1641 92.3837 L 20.4424 93.0416 L 20.6453 93.5323 L 20.8438 94.022 L 21.1006 94.67 L 21.2882 95.1544 L 21.5306 95.7954 L 21.7074 96.274 L 21.9362 96.909 L 22.102 97.3819 L 22.2632 97.8531 L 22.4706 98.4776 L 22.6201 98.9431 L 22.7647 99.4064 L 22.9039 99.8668 L 23.0815 100.476 L 23.2085 100.93 L 23.3306 101.3818 L 23.4854 101.9788 L 23.5959 102.424 L 23.7014 102.8661 L 23.8017 103.3051 L 23.9274 103.8865 L 24.0154 104.3192 L 24.0981 104.749 L 24.2003 105.3176 L 24.2711 105.7407 L 24.337 106.1611 L 24.417 106.7155 L 24.4713 107.1288 L 24.536 107.6744 L 24.579 108.0803 L 24.6286 108.6164 L 24.6603 109.015 L 24.6873 109.4106 L 24.7162 109.9338 L 24.7327 110.3213 L 24.7448 110.7071 L 24.7546 111.2168 L 24.7573 111.5962 L 24.7559 111.9741 L 24.7481 112.4729 L 24.7378 112.845 L 24.7238 113.2146 L 24.7061 113.5829 L 24.6848 113.9507 L 24.66 114.3187 L 24.6217 114.8111 L 24.5892 115.1834 L 24.5536 115.5582 L 24.5149 115.9363 L 24.4587 116.4466 L 24.4129 116.8323 L 24.3636 117.2223 L 24.3107 117.6163 L 24.2343 118.1472 L 24.1722 118.5501 L 24.106 118.9569 L 24.0116 119.5032 L 23.9357 119.918 L 23.8276 120.477 L 23.7414 120.9002 L 23.6504 121.3275 L 23.5218 121.9024 L 23.4194 122.3379 L 23.3118 122.7767 L 23.1986 123.2176 L 23.0791 123.6622 L 22.9122 124.2516 L 22.7803 124.6937 L 22.643 125.1342 L 22.4517 125.7189 L 22.3017 126.1564 L 22.094 126.7359 L 21.9321 127.169 L 21.7076 127.7456 L 21.5335 128.1755 L 21.3537 128.6049 L 21.1684 129.0334 L 20.9781 129.4599 L 20.7823 129.8857 L 20.5809 130.3115 L 20.305 130.8767 L 20.092 131.3003 L 19.874 131.7231 L 19.651 132.1458 L 19.4227 132.5692 L 19.1114 133.1321 L 18.8717 133.5549 L 18.5436 134.1197 L 18.2911 134.5441 L 17.9453 135.1112 L 17.6798 135.5365 L 17.4075 135.9639 L 17.0358 136.5335 L 16.7495 136.9615 L 16.358 137.5317 L 16.0567 137.9588 L 15.7488 138.385 L 15.4345 138.81 L 15.0052 139.3752 L 14.6754 139.798 L 14.34 140.2184 L 13.9974 140.6385 L 13.6489 141.0561 L 13.2948 141.4709 L 12.9335 141.8845 L 12.5652 142.2961 L 12.063 142.8421 L 11.6787 143.2487 L 11.2869 143.6535 L 10.8882 144.0557 L 10.3458 144.5878 L 9.9312 144.9832 L 9.5094 145.3761 L 8.937 145.8945 L 8.4991 146.2803 L 8.0546 146.6628 L 7.451 147.1682 L 6.991 147.5431 L 6.5238 147.9149 L 6.0497 148.2832 L 5.5691 148.6478 L 4.9182 149.1277 L 4.4218 149.4832 L 3.752 149.9492 L 3.2429 150.2928 L 2.7283 150.6309 L 2.0348 151.0719 L 1.5092 151.3953 L .8009 151.8168 L .2658 152.1244 L -.4541 152.5235 L -.9985 152.8143 L -1.5458 153.0973 L -2.0969 153.373 L -2.837 153.7291 L -3.3961 153.9877 L -3.9587 154.2393 L -4.7148 154.5644 L -5.2863 154.8008 L -6.0547 155.1067 L -6.636 155.3295 L -7.4177 155.618 L -8.0099 155.8286 L -8.6058 156.0341 L -9.207 156.2351 L -10.0175 156.4967 L -10.6296 156.6873 L -11.248 156.8741 L -11.8728 157.0572 L -12.7129 157.2944 L -13.3513 157.4678 L -14.2089 157.6918 L -14.8605 157.8552 L -15.7375 158.0661 L -16.4022 158.2192 L -17.0727 158.3678 L -17.9752 158.5593 L -18.6589 158.6981 L -19.3482 158.833 L -20.042 158.9643 L -20.9749 159.1343 L -21.6809 159.2583 L -22.6273 159.4191 L -23.3441 159.537 L -24.0653 159.6527 L -25.0323 159.8033 L -25.7641 159.9139 L -26.5004 160.0223 L -27.4862 160.1631 L -28.2318 160.2663 L -28.9806 160.3671 L -29.7338 160.4657 L -30.7445 160.5936 L -31.5062 160.6866 L -32.5289 160.8071 L -33.3 160.8945 L -34.3344 161.0076 L -35.1144 161.09 L -35.897 161.1705 L -36.6821 161.2494 L -37.7367 161.3531 L -38.5284 161.4297 L -39.3226 161.5061 L -40.3844 161.6087 L -41.1806 161.687 L -41.9745 161.767 L -42.765 161.8493 L -43.5508 161.9346 L -44.5926 162.0539 L -45.3687 162.1481 L -46.142 162.2467 L -46.9097 162.3498 L -47.669 162.4569 L -48.678 162.6074 L -49.431 162.7261 L -50.1771 162.849 L -51.166 163.0204 L -51.9021 163.1545 L -52.6333 163.2931 L -53.3603 163.4368 L -54.0832 163.5859 L -55.037 163.7931 L -55.7479 163.956 L -56.4533 164.1251 L -57.3842 164.3606 L -58.0766 164.5457 L -58.7625 164.7377 L -59.4432 164.9369 L -60.3415 165.2137 L -61.0075 165.4295 L -61.6672 165.6529 L -62.3209 165.8848 L -62.9667 166.1248 L -63.8165 166.4589 L -64.4454 166.72 L -65.2722 167.0815 L -65.8822 167.3623 L -66.4852 167.6521 L -67.0787 167.9498 L -67.8572 168.3599 L -68.4318 168.6775 L -68.9962 169.0023 L -69.5527 169.3357 L -70.0996 169.6766 L -70.6375 170.025 L -71.1663 170.3808 L -71.6859 170.7438 L -72.3646 171.2387 L -72.8622 171.6174 L -73.3504 172.0027 L -73.9873 172.5272 L -74.4531 172.9274 L -74.9093 173.3338 L -75.5036 173.8854 L -75.9367 174.3044 L -76.361 174.7297 L -76.7754 175.16 L -77.1795 175.5946 L -77.7043 176.1826 L -78.0863 176.6286 L -78.4585 177.0785 L -78.9407 177.6858 L -79.2901 178.1445 L -79.6306 178.6073 L -80.0705 179.2303 L -80.389 179.7003 L -80.6981 180.1733 L -81.0963 180.8087 L -81.3844 181.2885 L -81.7547 181.9324 L -82.0227 182.419 L -82.2823 182.9089 L -82.5337 183.4019 L -82.8563 184.0638 L -83.0892 184.5641 L -83.3879 185.2369 L -83.6034 185.7457 L -83.8794 186.4296 L -84.078 186.9468 L -84.2693 187.4676 L -84.513 188.1672 L -84.6874 188.6965 L -84.8542 189.2287 L -85.0648 189.9437 L -85.2134 190.4839 L -85.3531 191.0257 L -85.5256 191.7508 L -85.6436 192.2943 L -85.7516 192.837 L -85.8494 193.3795 L -85.9365 193.9201 L -86.0126 194.4573 L -86.0976 195.1723 L -86.1493 195.706 L -86.2024 196.4129 L -86.231 196.9411 L -86.2547 197.64 L -86.262 198.1612 L -86.2606 198.6802 L -86.2507 199.1937 L -86.2325 199.7057 L -86.1956 200.3831 L -86.1588 200.8876 L -86.0975 201.5554 L -86.0426 202.0533 L -85.9803 202.5472 L -85.8856 203.2023 L -85.8062 203.6888 L -85.7196 204.1729 L -85.6255 204.6544 L -85.4892 205.2909 L -85.3786 205.7653 L -85.2199 206.3944 L -85.0927 206.8627 L -84.9583 207.3295 L -84.8168 207.7937 L -84.6681 208.256 L -84.4579 208.87 L -84.2926 209.3255 L -84.1196 209.7799 L -83.9395 210.2315 L -83.6884 210.8293 L -83.4916 211.2749 L -83.2185 211.8637 L -83.0053 212.302 L -82.7856 212.737 L -82.559 213.1692 L -82.3256 213.5991 L -82.0043 214.1687 L -81.7558 214.5941 L -81.415 215.1585 L -81.1518 215.5814 L -80.8838 216.0009 L -80.6096 216.4193 L -80.2342 216.9759 L -79.9454 217.3922 L -79.65 217.8076 L -79.2457 218.3596 L -78.9339 218.7725 L -78.5081 219.3187 L -78.1802 219.7257 L -77.8463 220.1291 L -77.5066 220.5285 L -77.1614 220.9234 L -76.6919 221.4436 L -76.334 221.8277 L -75.9694 222.2082 L -75.5999 222.5838 L -75.224 222.9556 L -74.7143 223.4448 L -74.3251 223.8072 L -73.9305 224.1655 L -73.3956 224.6376 L -72.9882 224.9874 L -72.4373 225.4482 L -72.0171 225.7909 L -71.5922 226.1308 L -71.1623 226.4684 L -70.5809 226.9161 L -70.139 227.251 L -69.5415 227.6973 L -69.088 228.0318 L -68.6296 228.3662 L -68.0099 228.8126 L -67.5387 229.1478 L -67.0615 229.4837 L -66.5769 229.8215 L -66.0883 230.1592 L -65.4261 230.6131 L -64.9242 230.9543 L -64.245 231.4118 L -63.7294 231.7557 L -63.2061 232.1014 L -62.6789 232.4456 L -61.9657 232.9046 L -61.4227 233.2488 L -60.6894 233.7064 L -60.133 234.0482 L -59.5695 234.3896 L -58.9994 234.7301 L -58.2303 235.1817 L -57.646 235.5187 L -57.0542 235.8546 L -56.2584 236.298 L -55.6533 236.6289 L -55.0427 236.9573 L -54.4249 237.2841 L -53.5925 237.7159 L -52.961 238.0369 L -52.3216 238.3562 L -51.4629 238.7757 L -50.8104 239.0875 L -50.1516 239.3962 L -49.4872 239.7016 L -48.8176 240.0035 L -48.1414 240.3026 L -47.4592 240.5988 L -46.7721 240.8916 L -45.8464 241.2778 L -45.1462 241.5636 L -44.4397 241.8469 L -43.7282 242.1272 L -43.0124 242.4043 L -42.0488 242.7697 L -41.3195 243.0405 L -40.5857 243.3081 L -39.5993 243.6602 L -38.8527 243.9209 L -38.1022 244.1778 L -37.0924 244.5156 L -36.3308 244.7643 L -35.5642 245.0093 L -34.5326 245.3307 L -33.7571 245.5662 L -32.9738 245.7987 L -32.1869 246.0273 L -31.1336 246.3265 L -30.3371 246.5486 L -29.5367 246.7691 L -28.7333 246.9879 L -27.9269 247.2052 L -26.8447 247.4934 L -26.0295 247.7081 L -25.2093 247.922 L -24.1124 248.2047 L -23.285 248.4156 L -22.4531 248.6254 L -21.6189 248.8338 L -20.4998 249.11 L -19.6563 249.3156 L -18.8083 249.52 L -17.9578 249.7229 L -16.8174 249.9913 L -15.9571 250.1911 L -15.0939 250.3893 L -14.2271 250.5861 L -13.0669 250.8458 L -12.1906 251.0392 L -11.02 251.2938 L -10.1388 251.4828 L -9.2552 251.6698 L -8.3692 251.8549 L -7.4814 252.0381 L -6.5912 252.2192 L -5.4025 252.4574 L -4.5115 252.633 L -3.6193 252.8063 L -2.7275 252.9767 L -1.8361 253.144 L -.6502 253.3616 L .2385 253.5208 L 1.1239 253.6758 L 2.0087 253.8271 L 3.1857 254.0222 L 4.066 254.1631 L 5.2376 254.3434 L 6.1155 254.4727 L 6.9926 254.597 L 8.1567 254.7538 L 9.0305 254.8653 L 10.1913 255.0052 L 11.0625 255.1039 L 12.2207 255.2268 L 13.0894 255.3127 L 13.9578 255.3931 L 14.8249 255.4681 L 15.6935 255.5379 L 16.5591 255.602 L 17.4262 255.6609 L 18.2933 255.7142 L 19.1597 255.7621 L 20.3151 255.8175 L 21.1833 255.8528 L 22.052 255.8827 L 23.2119 255.9142 L 24.0857 255.9317 L 24.9614 255.9439 L 26.1357 255.952 L 27.0224 255.9518 L 27.9117 255.9463 L 28.8057 255.9353 L 29.704 255.9189 L 30.9088 255.8884 L 31.8163 255.8589 L 32.7288 255.8234 L 33.6442 255.782 L 34.5647 255.7343 L 35.7978 255.6611 L 36.7255 255.5989 L 37.6583 255.5302 L 38.9078 255.4284 L 39.8476 255.3444 L 40.7923 255.2536 L 41.7393 255.1563 L 42.6899 255.0522 L 43.6443 254.9414 L 44.6006 254.8239 L 45.881 254.6568 L 46.8438 254.5238 L 48.1321 254.3357 L 49.1004 254.1869 L 50.3953 253.9778 L 51.3702 253.8127 L 52.6687 253.5829 L 53.6451 253.4027 L 54.6241 253.2155 L 55.93 252.9558 L 56.9115 252.7531 L 58.2227 252.4724 L 59.205 252.2547 L 60.517 251.954 L 61.502 251.7207 L 62.4857 251.4815 L 63.7986 251.1524 L 64.7857 250.8976 L 66.0969 250.5493 L 67.0796 250.2809 L 68.0643 250.0057 L 69.375 249.6293 L 70.3578 249.3395 L 71.6665 248.9432 L 72.6473 248.6385 L 73.6265 248.3276 L 74.6043 248.0103 L 75.5807 247.6866 L 76.5549 247.3566 L 77.5268 247.0201 L 78.8198 246.5605 L 79.7819 246.209 L 81.0637 245.7278 L 82.0209 245.3588 L 82.9739 244.983 L 84.24 244.4711 L 85.186 244.0794 L 86.128 243.6817 L 87.0672 243.2776 L 88.0048 242.8667 L 89.2478 242.3105 L 90.1776 241.886 L 91.1051 241.4555 L 92.3368 240.8728 L 93.2574 240.4289 L 94.175 239.9794 L 95.0903 239.524 L 96.0035 239.0624 L 97.2157 238.4386 L 98.1224 237.9633 L 99.026 237.4823 L 100.226 236.8319 L 101.1224 236.3371 L 102.0147 235.837 L 102.9056 235.33 L 103.7926 234.8175 L 104.9694 234.1254 L 105.8489 233.5991 L 106.7248 233.067 L 107.8879 232.3482 L 108.7569 231.8019 L 109.91 231.0647 L 110.7717 230.5045 L 111.9185 229.7467 L 112.7753 229.1714 L 113.6319 228.5883 L 114.4857 227.9994 L 115.3388 227.4031 L 116.4715 226.5992 L 117.3202 225.9876 L 118.1652 225.3708 L 119.29 224.5374 L 120.1315 223.9046 L 121.2494 223.0514 L 122.0857 222.4035 L 122.9205 221.7488 L 123.7526 221.0878 L 124.8586 220.1963 L 125.6852 219.5206 L 126.5097 218.8388 L 127.3318 218.1514 L 128.4258 217.2253 L 129.2439 216.5242 L 130.0603 215.8175 L 131.1467 214.8662 L 131.9601 214.146 L 133.0424 213.1767 L 133.8529 212.4429 L 134.9312 211.4562 L 135.7391 210.7092 L 136.5456 209.957 L 137.352 209.1985 L 138.1576 208.4344 L 138.9613 207.6655 L 139.7645 206.8906 L 140.567 206.11 L 141.6366 205.0598 L 142.4373 204.2659 L 143.2382 203.4655 L 144.038 202.6595 L 144.8359 201.8489 L 145.6341 201.0309 L 146.6971 199.9311 L 147.491 199.1017 L 148.5503 197.9841 L 149.3424 197.1405 L 150.1343 196.29 L 150.9259 195.4328 L 151.9802 194.2803 L 152.7705 193.4088 L 153.8235 192.2375 L 154.6138 191.3514 L 155.4052 190.4585 L 156.196 189.5609 L 156.9871 188.658 L 157.7804 187.7482 L 158.5746 186.8329 L 159.3704 185.912 L 160.1695 184.9837 L 161.2379 183.7381 L 162.0428 182.7971 L 162.8519 181.8492 L 163.9377 180.5747 L 164.7523 179.6169 L 165.5742 178.6494 L 166.6741 177.3528 L 167.505 176.3722 L 168.3403 175.3855 L 169.4611 174.0599 L 170.3082 173.0569 L 171.4434 171.7111 L 172.3023 170.6917 L 173.1634 169.6684 L 174.0309 168.6366 L 175.1964 167.2485 L 176.0752 166.2005 L 176.9596 165.1447 L 177.8501 164.0805 L 178.7453 163.0095 L 179.946 161.5713 L 180.8528 160.4836 L 181.7646 159.3888 L 182.9813 157.926 L 183.9014 156.8181 L 184.8245 155.7056 L 185.7514 154.5872 L 186.6825 153.4623 L 187.6163 152.3329 L 188.5555 151.1956 L 189.812 149.6721 L 190.7579 148.5235 L 191.7079 147.3686 L 192.6613 146.2084 L 193.6168 145.0444 L 194.8984 143.4815 L 195.8625 142.3045 L 196.8298 141.1226 L 198.124 139.5396 L 199.0988 138.3461 L 200.0776 137.1471 L 201.0584 135.9445 L 202.0435 134.7357 L 203.0309 133.5233 L 204.3518 131.9001 L 205.3475 130.6756 L 206.6788 129.0368 L 207.6817 127.8014 L 208.6878 126.5613 L 210.0321 124.9035 L 211.0453 123.6535 L 212.0626 122.3982 L 213.4214 120.721 L 214.4429 119.4599 L 215.4704 118.1915 L 216.498 116.923 L 217.8741 115.2243 L 218.9104 113.9454 L 220.2949 112.2377 L 221.3376 110.9524 L 222.3821 109.6656 L 223.7809 107.9439 L 224.8332 106.65 L 226.2414 104.9205 L 227.2998 103.6221 L 228.7173 101.8856 L 229.7839 100.5808 L 230.8541 99.2734 L 231.9271 97.9647 L 233.005 96.6524 L 234.4462 94.9015 L 235.5327 93.5849 L 236.6217 92.2683 L 237.716 90.9486 L 238.8145 89.6273 L 240.2845 87.8649 L 241.3922 86.5413 L 242.5055 85.2148 L 243.9935 83.4474 L 245.1145 82.1197 L 246.2399 80.7894 L 247.7447 79.0143 L 248.8773 77.6802 L 250.0145 76.3422 L 251.5313 74.559 L 252.6736 73.2168 L 253.8181 71.8722 L 255.3471 70.076 L 256.4982 68.7234 L 258.0327 66.9202 L 259.1872 65.5629 L 260.7281 63.751 L 261.8873 62.3875 L 263.0482 61.0216 L 264.5978 59.198 L 265.7634 57.8258 L 267.32 55.9927 L 268.4898 54.6148 L 270.0521 52.774 L 271.2262 51.39 L 272.4023 50.0033 L 273.5815 48.6128 L 275.1516 46.7608 L 276.3344 45.3657 L 277.9135 43.5036 L 279.1011 42.1039 L 280.2918 40.7006 L 281.8804 38.8298 L 283.075 37.4238 L 284.2731 36.0145 L 285.8716 34.1352 L 287.0769 32.7193 L 288.2973 31.2864 L 289.8907 29.4167 L 291.0986 28.0002 L 292.3125 26.5773 L 293.5241 25.1581 L 294.7409 23.7333 L 296.3662 21.8313 L 297.5854 20.4053 L 298.8078 18.976 L 300.4402 17.0684 L 301.6672 15.6354 L 302.8972 14.1994 L 304.5369 12.286 L 305.7703 10.8477 L 307.0056 9.4081 L 308.2453 7.9645 L 309.4838 6.5229 L 311.1395 4.5971 L 312.3846 3.1504 L 313.6311 1.703 L 315.2968 -.2292 L 316.548 -1.6794 L 317.802 -3.1317 L 319.0583 -4.5857 L 320.3157 -6.0396 L 321.9978 -7.9825 L 323.2608 -9.4401 L 324.5266 -10.8998 L 325.7946 -12.3608 L 327.4873 -14.3096 L 328.7579 -15.7715 L 330.0339 -17.2386 L 331.3098 -18.7051 L 332.5893 -20.1747 L 334.2934 -22.1314 L 335.5774 -23.605 L 337.2878 -25.5675 L 338.5744 -27.0433 L 339.8615 -28.5195 L 341.5815 -30.4915 L 342.873 -31.972 L 344.165 -33.453 L 345.892 -35.4317 L 347.2036 -36.9345 L 348.9187 -38.8991 L 350.2176 -40.3864 L 351.9544 -42.3751 L 353.2568 -43.866 L 354.5609 -45.3584 L 356.3027 -47.3516 L 357.6104 -48.8476 L 359.3563 -50.8444 L 360.6676 -52.3438 L 362.417 -54.344 L 363.7303 -55.845 L 365.0453 -57.3476 L 366.3594 -58.8497 L 368.1128 -60.8532 L 369.4283 -62.3559 L 370.7449 -63.8593 L 372.0602 -65.3614 L 373.3742 -66.8615 L 375.1253 -68.8604 L 376.4361 -70.3564 L 377.7479 -71.8532 L 379.0532 -73.3423 L 380.7903 -75.3238 L 382.0901 -76.8061 L 383.3841 -78.2815 L 385.1078 -80.2462 L 386.393 -81.711 L 388.0997 -83.6556 L 389.3773 -85.1111 L 391.0712 -87.0402 L 392.3377 -88.4823 L 393.5998 -89.9191 L 395.2747 -91.8255 L 396.5279 -93.2516 L 398.1901 -95.1427 L 399.4345 -96.5578 L 401.0873 -98.4357 L 402.3253 -99.8403 L 403.5617 -101.241 L 404.7985 -102.6395 L 406.4402 -104.492 L 407.674 -105.8798 L 409.3151 -107.7212 L 410.5465 -109.099 L 411.7776 -110.474 L 413.0081 -111.8452 L 414.2381 -113.2127 L 415.8768 -115.0319 L 417.1046 -116.3928 L 418.3317 -117.7515 L 419.9629 -119.5572 L 421.1856 -120.9102 L 422.4052 -122.26 L 423.6233 -123.6089 L 424.8384 -124.9551 L 426.4539 -126.7463 L 427.6626 -128.0883 L 428.8662 -129.426 L 430.4655 -131.2056 L 431.6661 -132.5435 L 433.2593 -134.3214 L 434.4497 -135.6516 L 436.0324 -137.4226 L 437.2139 -138.7467 L 438.3931 -140.0697 L 439.9587 -141.8286 L 441.1293 -143.1454 L 442.2963 -144.4597 L 443.8491 -146.2106 L 445.0069 -147.5172 L 446.1645 -148.8245 L 447.701 -150.5609 L 448.8503 -151.8605 L 449.9985 -153.159 L 451.5219 -154.8827 L 452.6619 -156.1727 L 453.8008 -157.4618 L 455.3128 -159.1732 L 456.4479 -160.458 L 457.9489 -162.1573 L 459.0754 -163.4324 L 460.1985 -164.7038 L 461.3192 -165.9728 L 462.8094 -167.6607 L 463.924 -168.924 L 465.0346 -170.1836 L 466.1429 -171.4418 L 467.2479 -172.6978 L 468.347 -173.9488 L 469.8271 -175.637 L 470.8917 -176.8542 L 472.3281 -178.5013 L 473.397 -179.7309 L 474.4581 -180.9553 L 475.8551 -182.5734 L 476.8928 -183.7802 L 477.9191 -184.9779 L 478.9337 -186.1665 L 479.9397 -187.3491 L 481.2613 -188.9093 L 482.2407 -190.0704 L 483.2089 -191.2222 L 484.1654 -192.3639 L 485.1117 -193.4969 L 486.3578 -194.9939 L 487.2756 -196.1 L 488.1851 -197.1987 L 489.3767 -198.642 L 490.2542 -199.7074 L 491.1171 -200.7566 L 491.9628 -201.7867 L 492.7905 -202.7965 L 493.8672 -204.112 L 494.6549 -205.076 L 495.4233 -206.0176 L 496.4243 -207.2461 L 497.1508 -208.1391 L 497.8622 -209.015 L 498.7809 -210.1486 L 499.45 -210.9762 L 500.3142 -212.0483 L 500.9407 -212.8284 L 501.748 -213.838 L 502.1471 -214.3391 L 502.9021 -215.2921 L 503.4541 -215.9932 L 503.9891 -216.6769 L 504.6761 -217.5618 L 505.1721 -218.206 L 505.6517 -218.8333 L 506.1154 -219.4441 L 506.7153 -220.2411 L 507.1534 -220.8279 L 507.7293 -221.6051 L 508.1567 -222.1859 L 508.5823 -222.7674 L 509.0071 -223.3514 L 509.4314 -223.9369 L 509.9968 -224.7225 L 510.4197 -225.3137 L 510.842 -225.9069 L 511.2641 -226.5028 L 511.6863 -227.1019 L 512.2466 -227.9028 L 512.6658 -228.507 L 513.0848 -229.1154 L 513.5011 -229.7249 L 514.0558 -230.5432 L 514.4698 -231.1609 L 514.882 -231.7815 L 515.4288 -232.615 L 515.8361 -233.244 L 516.3741 -234.0869 L 516.7755 -234.7252 L 517.3029 -235.5796 L 517.6957 -236.2267 L 518.213 -237.0944 L 518.596 -237.7497 L 518.9751 -238.4084 L 519.475 -239.2936 L 519.8455 -239.9628 L 520.2119 -240.6354 L 520.6954 -241.541 L 521.0526 -242.2229 L 521.5236 -243.1405 L 521.8724 -243.8346 L 522.2178 -244.5339 L 522.5598 -245.2387 L 522.897 -245.9472 L 523.3415 -246.9003 L 523.6711 -247.6218 L 524.1035 -248.5895 L 524.4233 -249.3219 L 524.739 -250.0586 L 525.1533 -251.0481 L 525.4589 -251.7957 L 525.7588 -252.5467 L 526.0541 -253.3026 L 526.3436 -254.0617 L 526.6274 -254.825 L 526.9061 -255.593 L 527.2675 -256.6206 L 527.5319 -257.397 L 527.7899 -258.1757 L 528.1236 -259.2205 L 528.3665 -260.0088 L 528.6018 -260.7993 L 528.8308 -261.595 L 529.0516 -262.3911 L 529.3353 -263.4607 L 529.4708 -263.9939 L 529.7321 -265.0678 L 529.9181 -265.876 L 530.0958 -266.6873 L 530.3186 -267.7708 L 530.4745 -268.5851 L 530.6206 -269.4032 L 530.7987 -270.4926 L 530.9202 -271.3128 L 531.0311 -272.1345 L 531.1619 -273.2307 L 531.2474 -274.0551 L 531.3218 -274.8793 L 531.4042 -275.9815 L 531.4534 -276.8082 L 531.4926 -277.6373 L 531.5291 -278.7411 L 531.5457 -279.5702 L 531.5528 -280.4016 L 531.5508 -281.2341 L 531.5395 -282.0671 L 531.5189 -282.9036 L 531.4896 -283.7389 L 531.4381 -284.8532 L 531.3907 -285.6918 L 531.3359 -286.5314 L 531.274 -287.3717 L 531.1806 -288.4938 L 531.1027 -289.3362 L 531.0182 -290.1795 L 530.9271 -291.0233 L 530.7955 -292.1488 L 530.6894 -292.995 L 530.5768 -293.8407 L 530.4165 -294.9686 L 530.2893 -295.8158 L 530.1563 -296.6629 L 529.9697 -297.7928 L 529.8232 -298.6405 L 529.6707 -299.4897 L 529.5123 -300.3373 L 529.3471 -301.1855 L 529.1156 -302.3158 L 528.9338 -303.1606 L 528.7435 -304.0077 L 528.4786 -305.1281 L 528.2701 -305.9669 L 527.9785 -307.0823 L 527.7495 -307.9155 L 527.5115 -308.7448 L 527.1793 -309.846 L 526.9188 -310.6672 L 526.5561 -311.7541 L 526.2711 -312.5633 L 525.9747 -313.3667 L 525.5627 -314.4276 L 525.2406 -315.2147 L 524.9077 -315.9937 L 524.4468 -317.0201 L 524.0883 -317.7805 L 523.7191 -318.5318 L 523.2096 -319.5201 L 522.8156 -320.2499 L 522.4128 -320.9676 L 522.0029 -321.6708 L 521.5889 -322.3554 L 521.0396 -323.2272 L 520.6312 -323.8495 L 520.2264 -324.4449 L 519.6945 -325.1968 L 519.3009 -325.7318 L 518.9103 -326.2455 L 518.3917 -326.9043 L 518.0031 -327.3835 L 517.6124 -327.854 L 517.2208 -328.3153 L 516.826 -328.7725 L 516.4296 -329.2242 L 516.0302 -329.6735 L 515.496 -330.2648 L 515.0927 -330.7061 L 514.6903 -331.1436 L 514.1502 -331.7251 L 513.742 -332.1596 L 513.3309 -332.5927 L 512.9191 -333.0242 L 512.3669 -333.5989 L 511.9503 -334.0289 L 511.3907 -334.6004 L 510.9671 -335.0268 L 510.5403 -335.4503 L 510.1093 -335.8713 L 509.6746 -336.2885 L 509.236 -336.7024 L 508.7927 -337.1132 L 508.3461 -337.5197 L 507.8953 -337.923 L 507.4388 -338.3246 L 506.8287 -338.8507 L 506.3649 -339.2428 L 505.8974 -339.6313 L 505.4265 -340.0154 L 504.7923 -340.5215 L 504.3117 -340.8964 L 503.8275 -341.2669 L 503.1755 -341.7545 L 502.6824 -342.1148 L 502.0189 -342.5885 L 501.5162 -342.9388 L 501.0092 -343.2845 L 500.4983 -343.6253 L 499.9824 -343.9613 L 499.4621 -344.292 L 498.762 -344.7237 L 498.231 -345.041 L 497.6964 -345.3521 L 496.9766 -345.7578 L 496.4311 -346.0557 L 495.8828 -346.3474 L 495.1454 -346.7282 L 494.5875 -347.0081 L 494.0266 -347.2832 L 493.4622 -347.5539 L 492.8949 -347.8201 L 492.3249 -348.082 L 491.5604 -348.4249 L 490.9831 -348.6778 L 490.2089 -349.0087 L 489.6242 -349.2525 L 488.8408 -349.5714 L 488.2489 -349.8062 L 487.6532 -350.0374 L 486.8553 -350.3396 L 486.2537 -350.5621 L 485.4457 -350.8539 L 484.8368 -351.0688 L 484.2242 -351.2806 L 483.4038 -351.5576 L 482.7857 -351.7613 L 481.956 -352.028 L 481.3317 -352.2239 L 480.7038 -352.4169 L 480.0722 -352.6067 L 479.2279 -352.8541 L 478.59 -353.036 L 477.9506 -353.2136 L 477.0936 -353.4441 L 476.4469 -353.612 L 475.7983 -353.7752 L 475.1463 -353.9339 L 474.4914 -354.0878 L 473.6153 -354.2852 L 472.9543 -354.4275 L 472.2888 -354.565 L 471.3997 -354.7397 L 470.7296 -354.8646 L 470.0562 -354.9843 L 469.1549 -355.1353 L 468.4751 -355.2422 L 467.793 -355.3435 L 466.8799 -355.4698 L 466.1918 -355.558 L 465.5005 -355.6408 L 464.5762 -355.7427 L 463.8795 -355.8133 L 463.1789 -355.8793 L 462.2428 -355.9602 L 461.5365 -356.0161 L 460.5902 -356.0846 L 459.8779 -356.1317 L 459.1614 -356.1757 L 458.4426 -356.2167 L 457.7204 -356.2551 L 456.9953 -356.291 L 456.0249 -356.3356 L 455.2943 -356.367 L 454.5597 -356.3966 L 453.5763 -356.4334 L 452.8346 -356.4594 L 452.09 -356.4842 L 451.0923 -356.5154 L 450.3417 -356.5383 L 449.336 -356.5676 L 448.5781 -356.5907 L 447.8163 -356.6141 L 447.0523 -356.6388 L 446.0303 -356.6743 L 445.2603 -356.7037 L 444.4886 -356.736 L 443.7146 -356.7713 L 442.9383 -356.8102 L 442.1604 -356.8528 L 441.1207 -356.9162 L 440.3402 -356.9685 L 439.558 -357.0253 L 438.776 -357.0869 L 437.7313 -357.1768 L 436.9481 -357.2503 L 436.1658 -357.3292 L 435.123 -357.4432 L 434.3432 -357.5356 L 433.5638 -357.6343 L 432.7861 -357.7393 L 432.0109 -357.8506 L 431.2379 -357.9688 L 430.2114 -358.137 L 429.4434 -358.2715 L 428.6788 -358.4132 L 427.9164 -358.5623 L 427.157 -358.7187 L 426.1486 -358.9387 L 425.3952 -359.1125 L 424.6438 -359.2938 L 423.896 -359.4823 L 422.9013 -359.7463 L 422.159 -359.9534 L 421.4182 -360.1691 L 420.4348 -360.4697 L 419.7007 -360.7053 L 418.7276 -361.0333 L 418.0026 -361.2899 L 417.2814 -361.5559 L 416.5646 -361.8311 L 415.616 -362.2121 L 415.1444 -362.409 L 414.2147 -362.8122 L 413.5223 -363.1261 L 412.8362 -363.4491 L 411.9329 -363.8933 L 411.2646 -364.2363 L 410.6032 -364.5879 L 409.734 -365.0695 L 409.0913 -365.4399 L 408.4559 -365.8188 L 407.6203 -366.3364 L 407.0046 -366.7321 L 406.3951 -367.1359 L 405.7937 -367.5464 L 405.1992 -367.9634 L 404.4189 -368.5276 L 403.8415 -368.9567 L 403.2704 -369.3904 L 402.7053 -369.8281 L 401.9595 -370.4183 L 401.406 -370.8653 L 400.8564 -371.3168 L 400.3111 -371.7724 L 399.771 -372.2312 L 399.0565 -372.8504 L 398.5273 -373.3186 L 398.0024 -373.7919 L 397.3109 -374.4292 L 396.7975 -374.9128 L 396.1231 -375.562 L 395.6233 -376.0538 L 395.1291 -376.5495 L 394.4773 -377.2177 L 393.9954 -377.7228 L 393.5193 -378.2314 L 393.0484 -378.7441 L 392.5832 -379.2608 L 392.1245 -379.7811 L 391.6719 -380.3063 L 391.0829 -381.0094 L 390.6506 -381.5414 L 390.2268 -382.0776 L 389.6758 -382.799 L 389.2742 -383.3441 L 388.8816 -383.8945 L 388.372 -384.6369 L 388.0013 -385.1989 L 387.6433 -385.7608 L 387.2961 -386.3263 L 386.9611 -386.8937 L 386.6381 -387.4633 L 386.3263 -388.0363 L 385.9289 -388.8023 L 385.6447 -389.3786 L 385.3718 -389.9568 L 385.0263 -390.7299 L 384.7808 -391.3115 L 384.5471 -391.8936 L 384.2537 -392.6718 L 384.047 -393.2562 L 383.8514 -393.8422 L 383.6089 -394.621 L 383.4396 -395.2059 L 383.281 -395.7914 L 383.133 -396.3756 L 382.9517 -397.1525 L 382.8265 -397.737 L 382.6752 -398.5128 L 382.5718 -399.0968 L 382.4474 -399.8747 L 382.3637 -400.4591 L 382.2885 -401.0441 L 382.2213 -401.6295 L 382.1624 -402.2155 L 382.0956 -403.0086 L 382.056 -403.5871 L 382.0231 -404.1765 L 381.9901 -404.9646 L 381.9731 -405.5583 L 381.9626 -406.1538 L 381.9586 -406.751 L 381.9632 -407.5505 L 381.9743 -408.1516 L 381.9919 -408.7559 L 382.0161 -409.3618 L 382.0471 -409.9693 L 382.0996 -410.7803 L 382.1478 -411.3914 L 382.2038 -412.0027 L 382.291 -412.8201 L 382.3661 -413.4338 L 382.45 -414.0486 L 382.575 -414.8655 L 382.6793 -415.4797 L 382.7926 -416.094 L 382.9152 -416.7083 L 383.0927 -417.5251 L 383.2366 -418.1365 L 383.4427 -418.9496 L 383.6084 -419.5575 L 383.8438 -420.3651 L 384.0313 -420.9683 L 384.2956 -421.7681 L 384.5044 -422.3646 L 384.7227 -422.9592 L 385.028 -423.7475 L 385.2673 -424.3339 L 385.5165 -424.9198 L 385.8616 -425.693 L 386.131 -426.2701 L 386.4092 -426.8441 L 386.7936 -427.6038 L 387.0924 -428.1706 L 387.5026 -428.9191 L 387.8199 -429.4768 L 388.1454 -430.0316 L 388.4785 -430.5828 L 388.9341 -431.3112 L 389.2851 -431.8538 L 389.6431 -432.3921 L 390.0096 -432.9275 L 390.3824 -433.4572 L 390.7637 -433.9841 L 391.1516 -434.5056 L 391.6807 -435.1944 L 392.0861 -435.7052 L 392.6381 -436.3786 L 393.0602 -436.877 L 393.4901 -437.3704 L 393.9271 -437.8581 L 394.3712 -438.3398 L 394.8229 -438.8159 L 395.282 -439.2862 L 395.9041 -439.903 L 396.3794 -440.3586 L 397.0234 -440.9558 L 397.5146 -441.3963 L 398.0123 -441.83 L 398.6862 -442.3978 L 399.1996 -442.8159 L 399.7189 -443.2269 L 400.4214 -443.7649 L 400.9553 -444.1607 L 401.4947 -444.5499 L 402.0409 -444.9334 L 402.591 -445.3092 L 403.3344 -445.8014 L 403.8982 -446.1633 L 404.4669 -446.5186 L 405.0411 -446.8678 L 405.6201 -447.2107 L 406.3997 -447.6582 L 406.9906 -447.9871 L 407.5875 -448.3104 L 408.187 -448.6264 L 408.792 -448.9366 L 409.6057 -449.3404 L 410.222 -449.6366 L 410.8427 -449.9268 L 411.4665 -450.2104 L 412.0955 -450.4886 L 412.9416 -450.8501 L 413.3649 -451.0256 L 414.0067 -451.2851 L 414.6525 -451.5379 L 415.3027 -451.7842 L 416.1752 -452.1017 L 416.8356 -452.332 L 417.5011 -452.5558 L 418.394 -452.8429 L 419.0692 -453.05 L 419.9754 -453.3151 L 420.6596 -453.5056 L 421.3478 -453.6887 L 422.0423 -453.865 L 422.7376 -454.0332 L 423.6736 -454.2466 L 424.3801 -454.3982 L 425.091 -454.5427 L 425.8072 -454.6803 L 426.7687 -454.8528 L 427.4969 -454.9745 L 428.4753 -455.1267 L 429.2161 -455.2335 L 430.2122 -455.3662 L 430.9655 -455.4586 L 431.9782 -455.5721 L 432.744 -455.6501 L 433.7734 -455.7448 L 434.5521 -455.8089 L 435.3359 -455.8667 L 436.1247 -455.9184 L 437.1826 -455.9777 L 437.9833 -456.0151 L 438.7881 -456.0464 L 439.8691 -456.0789 L 440.6847 -456.0964 L 441.5045 -456.1084 L 442.6068 -456.1164 L 443.4362 -456.1167 L 444.2727 -456.1122 L 445.3912 -456.0987 L 446.2352 -456.083 L 447.0829 -456.0627 L 448.2173 -456.0279 L 449.0715 -455.9959 L 449.9291 -455.9582 L 451.0734 -455.8986 L 451.9349 -455.8466 L 453.0819 -455.7673 L 453.9432 -455.7001 L 454.8056 -455.6261 L 455.6684 -455.5452 L 456.8183 -455.4262 L 457.6821 -455.3285 L 458.5439 -455.2235 L 459.4067 -455.1109 L 460.27 -454.9906 L 461.1328 -454.8626 L 461.9955 -454.7269 L 463.1452 -454.5339 L 464.006 -454.3807 L 464.8669 -454.2202 L 465.7287 -454.0523 L 466.5891 -453.8777 L 467.737 -453.6338 L 468.5969 -453.4431 L 469.4572 -453.2455 L 470.6032 -452.9718 L 471.4626 -452.759 L 472.322 -452.5402 L 473.1823 -452.315 L 474.3296 -452.0057 L 475.1909 -451.7669 L 476.0541 -451.5217 L 477.2054 -451.1859 L 478.0726 -450.9266 L 478.9395 -450.6617 L 479.8094 -450.3903 L 480.9716 -450.0189 L 481.8475 -449.7323 L 483.0148 -449.3414 L 483.8928 -449.0408 L 485.0689 -448.6289 L 485.952 -448.3127 L 486.8372 -447.9899 L 488.0208 -447.5488 L 488.9102 -447.2104 L 489.8005 -446.8658 L 490.9924 -446.3954 L 491.8879 -446.0352 L 492.7855 -445.6688 L 493.9852 -445.1721 L 494.8867 -444.7936 L 495.7891 -444.4104 L 496.9962 -443.8911 L 497.9034 -443.4962 L 498.8112 -443.0973 L 499.7209 -442.6943 L 500.6317 -442.2881 L 501.8478 -441.7418 L 502.7598 -441.3295 L 503.6753 -440.9132 L 504.8981 -440.3547 L 505.8117 -439.9352 L 506.7297 -439.5118 L 507.6484 -439.0865 L 508.5678 -438.659 L 509.4875 -438.2297 L 510.7151 -437.6532 L 511.6376 -437.2168 L 512.8679 -436.6316 L 513.7917 -436.1895 L 514.7155 -435.7443 L 515.9484 -435.1461 L 516.8737 -434.6941 L 517.8005 -434.2387 L 519.0358 -433.6269 L 519.9645 -433.1636 L 520.8932 -432.6974 L 521.8259 -432.2268 L 522.7617 -431.752 L 523.6928 -431.2767 L 524.9337 -430.6406 L 525.8712 -430.1572 L 526.8087 -429.6708 L 527.7476 -429.1805 L 529.0015 -428.5208 L 529.941 -428.0223 L 530.8843 -427.5189 L 532.1402 -426.8428 L 533.0845 -426.3308 L 534.0284 -425.8158 L 535.2892 -425.1234 L 536.2365 -424.5999 L 537.1845 -424.0735 L 538.1337 -423.5445 L 539.4033 -422.8338 L 540.3544 -422.3001 L 541.6279 -421.5835 L 542.5857 -421.0444 L 543.5442 -420.5049 L 544.8264 -419.7831 L 545.7913 -419.2406 L 546.7571 -418.6971 L 548.0474 -417.9705 L 549.0178 -417.4231 L 550.3127 -416.6913 L 551.2853 -416.1404 L 552.5861 -415.4025 L 553.5615 -414.8473 L 554.5409 -414.2886 L 555.8436 -413.5428 L 556.8233 -412.9801 L 557.8047 -412.4146 L 559.1123 -411.6571 L 560.0947 -411.0848 L 561.0762 -410.5098 L 562.3848 -409.7382 L 563.3672 -409.1547 L 564.3486 -408.5684 L 565.3301 -407.9782 L 566.3125 -407.3839 L 567.293 -406.7867 L 568.6016 -405.9843 L 569.583 -405.3769 L 570.8887 -404.562 L 571.8682 -403.9453 L 572.8474 -403.3239 L 574.1473 -402.4905 L 575.1229 -401.8591 L 576.0966 -401.2244 L 577.3944 -400.3705 L 578.3661 -399.7256 L 579.3361 -399.0768 L 580.3048 -398.4235 L 581.5939 -397.5451 L 582.5597 -396.8805 L 583.524 -396.2112 L 584.8043 -395.3133 L 585.7653 -394.6328 L 586.7216 -393.949 L 587.9946 -393.0298 L 588.9478 -392.3343 L 590.2158 -391.3993 L 591.164 -390.6931 L 592.4247 -389.7448 L 593.371 -389.0269 L 594.6262 -388.0665 L 595.5667 -387.3406 L 596.5061 -386.6104 L 597.444 -385.8767 L 598.692 -384.893 L 599.6248 -384.1514 L 600.868 -383.1565 L 601.7986 -382.4064 L 602.7274 -381.6532 L 603.6561 -380.8953 L 604.5838 -380.1337 L 605.8152 -379.1145 L 606.7383 -378.3441 L 607.6588 -377.5704 L 608.5778 -376.7922 L 609.4939 -376.0103 L 610.7129 -374.9619 L 611.625 -374.1706 L 612.8376 -373.1091 L 613.7444 -372.3086 L 614.6492 -371.5033 L 615.8508 -370.4243 L 616.7502 -369.609 L 617.945 -368.5156 L 618.8383 -367.691 L 620.0248 -366.5851 L 620.9113 -365.7509 L 622.0904 -364.6319 L 622.9717 -363.7874 L 623.8486 -362.9406 L 625.0164 -361.8021 L 625.8877 -360.9449 L 626.7553 -360.0838 L 627.6208 -359.2168 L 628.4821 -358.3464 L 629.6271 -357.1776 L 630.481 -356.2963 L 631.6132 -355.1145 L 632.4598 -354.2213 L 633.301 -353.3246 L 634.1379 -352.4243 L 635.249 -351.2159 L 636.0781 -350.3039 L 636.9042 -349.3867 L 637.9969 -348.1584 L 638.8138 -347.2292 L 639.8931 -345.9864 L 640.6994 -345.0466 L 641.5002 -344.104 L 642.2976 -343.1552 L 643.3531 -341.8851 L 644.1414 -340.9262 L 644.9243 -339.9641 L 645.9625 -338.6744 L 646.7379 -337.7016 L 647.5089 -336.7253 L 648.2764 -335.7444 L 649.04 -334.7595 L 650.0516 -333.442 L 650.8065 -332.4491 L 651.5588 -331.4521 L 652.5559 -330.1186 L 653.3003 -329.1132 L 654.0421 -328.1047 L 654.7797 -327.0935 L 655.5142 -326.0786 L 656.2476 -325.0591 L 657.2186 -323.6974 L 657.9437 -322.6723 L 658.6663 -321.643 L 659.3853 -320.6112 L 660.34 -319.2316 L 661.0532 -318.1923 L 661.7621 -317.1507 L 662.4692 -316.1042 L 663.1723 -315.0565 L 664.1046 -313.6552 L 664.8 -312.6008 L 665.4924 -311.5415 L 666.1812 -310.4783 L 666.8641 -309.4135 L 667.7697 -307.9851 L 668.4415 -306.9118 L 669.1105 -305.833 L 669.9942 -304.3881 L 670.6511 -303.3001 L 671.3029 -302.2078 L 671.9496 -301.1118 L 672.5911 -300.0119 L 673.2275 -298.9078 L 673.8599 -297.7988 L 674.6932 -296.3171 L 675.3132 -295.1997 L 675.9272 -294.0806 L 676.7388 -292.5826 L 677.3423 -291.4536 L 678.1384 -289.9453 L 678.7307 -288.8093 L 679.512 -287.2899 L 680.0919 -286.147 L 680.8583 -284.6167 L 681.4266 -283.4662 L 681.9904 -282.3107 L 682.7343 -280.7654 L 683.2845 -279.6043 L 684.0109 -278.0494 L 684.5503 -276.8777 L 685.2592 -275.3132 L 685.7846 -274.1345 L 686.4768 -272.5573 L 686.9883 -271.3726 L 687.4941 -270.1844 L 687.9941 -268.9923 L 688.6516 -267.3972 L 689.1376 -266.1969 L 689.6174 -264.9952 L 690.092 -263.7888 L 690.5616 -262.5777 L 691.1772 -260.9625 L 691.6332 -259.7461 L 692.0832 -258.5278 L 692.5284 -257.3059 L 693.1134 -255.6737 L 693.5459 -254.4467 L 693.9738 -253.2157 L 694.3973 -251.9824 L 694.8154 -250.749 L 695.3682 -249.0982 L 695.7769 -247.859 L 696.1887 -246.5958 L 696.7155 -244.9569 L 697.1113 -243.7102 L 697.5044 -242.4602 L 698.0225 -240.7948 L 698.4073 -239.5413 L 698.9136 -237.8697 L 699.2895 -236.6123 L 699.6612 -235.3536 L 700.1495 -233.6732 L 700.5111 -232.4085 L 700.8688 -231.1415 L 701.2207 -229.8765 L 701.6832 -228.1853 L 702.0249 -226.9122 L 702.3616 -225.6396 L 702.694 -224.3633 L 703.021 -223.086 L 703.3438 -221.8057 L 703.6615 -220.5246 L 704.0771 -218.8142 L 704.384 -217.5275 L 704.7844 -215.8119 L 705.0796 -214.5209 L 705.3699 -213.2305 L 705.6555 -211.9373 L 706.0295 -210.211 L 706.3051 -208.9141 L 706.5761 -207.616 L 706.8434 -206.3145 L 707.1061 -205.0147 L 707.4501 -203.2781 L 707.7046 -201.9721 L 708.0383 -200.2322 L 708.2853 -198.9235 L 708.5291 -197.614 L 708.77 -196.3026 L 709.0078 -194.9921 L 709.3223 -193.2401 L 709.5558 -191.9236 L 709.8633 -190.1666 L 710.0909 -188.8457 L 710.3936 -187.0776 L 710.6182 -185.7485 L 710.8409 -184.4135 L 711.0616 -183.075 L 711.2813 -181.7322 L 711.572 -179.9351 L 711.7881 -178.5836 L 712.0027 -177.2259 L 712.2166 -175.865 L 712.4278 -174.4999 L 712.6387 -173.1297 L 712.8471 -171.7562 L 713.0541 -170.3791 L 713.3273 -168.5356 L 713.5295 -167.1488 L 713.7971 -165.2943 L 713.9953 -163.8974 L 714.1913 -162.4984 L 714.3861 -161.0933 L 714.6422 -159.2159 L 714.8326 -157.8038 L 715.022 -156.3866 L 715.272 -154.4935 L 715.4586 -153.0683 L 715.6435 -151.6393 L 715.8896 -149.7261 L 716.0722 -148.2938 L 716.2548 -146.8535 L 716.497 -144.9267 L 716.6786 -143.4796 L 716.8603 -142.0285 L 717.0419 -140.5736 L 717.2219 -139.1139 L 717.4601 -137.1651 L 717.6389 -135.6995 L 717.8176 -134.2327 L 717.9963 -132.7625 L 718.175 -131.2896 L 718.3537 -129.8139 L 718.592 -127.8439 L 718.7707 -126.3623 L 718.9494 -124.8784 L 719.1895 -122.8967 L 719.3712 -121.4068 L 719.5528 -119.9151 L 719.795 -117.9225 L 719.9766 -116.4257 L 720.1583 -114.926 L 720.3399 -113.4246 L 720.5215 -111.9201 L 720.7042 -110.4123 L 720.8858 -108.9047 L 721.128 -106.8897 L 721.3096 -105.3762 L 721.4913 -103.8595 L 721.6729 -102.3405 L 721.8536 -100.8203 L 722.0342 -99.2957 L 722.2725 -97.2621 L 722.4512 -95.7343 L 722.6299 -94.2027 L 722.8087 -92.672 L 722.9874 -91.1374 L 723.1661 -89.6013 L 723.3448 -88.0644 L 723.586 -86.0125 L 723.7676 -84.4705 L 723.9511 -82.9085 L 724.1925 -80.8719 L 724.3771 -79.3251 L 724.5636 -77.7806 L 724.7504 -76.2358 L 724.9389 -74.6878 L 725.1918 -72.6252 L 725.3824 -71.075 L 725.5738 -69.5259 L 725.8304 -67.4597 L 726.0238 -65.9083 L 726.2816 -63.8366 L 726.475 -62.284 L 726.7328 -60.2079 L 726.9252 -58.6568 L 727.1185 -57.0995 L 727.3109 -55.5431 L 727.5019 -53.9829 L 727.6923 -52.4243 L 727.8828 -50.8653 L 728.1357 -48.7824 L 728.3239 -47.2206 L 728.5114 -45.6563 L 728.6989 -44.0911 L 728.8856 -42.5264 L 729.0721 -40.9607 L 729.2579 -39.3929 L 729.4434 -37.8239 L 729.628 -36.2557 L 729.8741 -34.1602 L 730.0587 -32.5905 L 730.2432 -31.0187 L 730.4883 -28.9216 L 730.6729 -27.3472 L 730.8575 -25.77 L 731.1036 -23.6687 L 731.2881 -22.0907 L 731.475 -20.511 L 731.725 -18.4063 L 731.9146 -16.8266 L 732.1052 -15.2444 L 732.3636 -13.1342 L 732.5589 -11.5526 L 732.7562 -9.97 L 732.9559 -8.3848 L 733.158 -6.7995 L 733.4299 -4.687 L 733.6359 -3.1003 L 733.8439 -1.5127 L 734.1232 .6025 L 734.3341 2.1906 L 734.546 3.7804 L 734.7599 5.3687 L 734.9738 6.9589 L 735.1886 8.5506 L 735.4034 10.142 L 735.6896 12.2647 L 735.9034 13.8577 L 736.1173 15.4508 L 736.3312 17.0446 L 736.545 18.6386 L 736.8302 20.7637 L 737.0411 22.3564 L 737.2521 23.9496 L 737.463 25.5425 L 737.6726 27.1355 L 737.8815 28.7239 L 738.0886 30.3122 L 738.296 31.9011 L 738.5013 33.4843 L 738.7747 35.5963 L 738.9778 37.1759 L 739.18 38.7525 L 739.3812 40.3246 L 739.6468 42.4099 L 739.8431 43.9632 L 740.1019 46.0174 L 740.2923 47.5431 L 740.4805 49.0536 L 740.6651 50.5481 L 740.8468 52.0287 L 741.0849 53.9749 L 741.2597 55.4078 L 741.4315 56.8286 L 741.6553 58.6899 L 741.8181 60.0568 L 742.0307 61.8463 L 742.1865 63.1623 L 742.3892 64.8854 L 742.5386 66.1592 L 742.6861 67.4183 L 742.8315 68.6622 L 742.9751 69.8909 L 743.1182 71.1109 L 743.2588 72.3117 L 743.4463 73.8981 L 743.585 75.0717 L 743.7227 76.2321 L 743.9061 77.7584 L 744.0408 78.8851 L 744.1746 79.9969 L 744.3065 81.0892 L 744.4366 82.1637 L 744.6079 83.5715 L 744.7339 84.6085 L 744.858 85.6277 L 744.9802 86.631 L 745.0999 87.6154 L 745.2548 88.8936 L 745.3671 89.8276 L 745.4761 90.74 L 745.5823 91.6352 L 745.7181 92.7964 L 745.8177 93.6542 L 745.9466 94.7844 L 746.0413 95.6284 L 746.1351 96.4713 L 746.2601 97.5937 L 746.3519 98.4336 L 746.4427 99.2726 L 746.5638 100.3902 L 746.6534 101.2271 L 746.742 102.0636 L 746.8592 103.1795 L 746.9471 104.0137 L 747.035 104.8488 L 747.1221 105.684 L 747.2077 106.5191 L 747.2927 107.3537 L 747.3776 108.1892 L 747.4626 109.0225 L 747.5475 109.8557 L 747.6577 110.9679 L 747.7397 111.7993 L 747.8218 112.633 L 747.9022 113.4663 L 748.0076 114.5759 L 748.084 115.4091 L 748.1591 116.242 L 748.2556 117.3521 L 748.3254 118.1856 L 748.4136 119.295 L 748.4766 120.1279 L 748.5364 120.9613 L 748.6108 122.0706 L 748.6624 122.9035 L 748.7103 123.7366 L 748.7676 124.8482 L 748.806 125.6827 L 748.8505 126.7952 L 748.8787 127.632 L 748.9099 128.7448 L 748.9285 129.5822 L 748.9422 130.4198 L 748.952 131.2574 L 748.958 132.3781 L 748.9573 133.2199 L 748.9498 134.3465 L 748.9391 135.1926 L 748.9239 136.0407 L 748.9046 136.891 L 748.8806 137.7445 L 748.842 138.8822 L 748.808 139.7399 L 748.7693 140.5975 L 748.7264 141.4579 L 748.6783 142.3199 L 748.6075 143.4713 L 748.5482 144.3376 L 748.4839 145.206 L 748.3901 146.362 L 748.3134 147.2323 L 748.2312 148.1041 L 748.1435 148.9766 L 748.05 149.8521 L 747.9169 151.0191 L 747.8101 151.8964 L 747.6977 152.7741 L 747.5388 153.9469 L 747.4133 154.8275 L 747.2824 155.7107 L 747.1002 156.8864 L 746.9579 157.7707 L 746.8106 158.6563 L 746.6586 159.5423 L 746.5018 160.4287 L 746.2858 161.6126 L 746.1183 162.5015 L 745.946 163.392 L 745.7688 164.2819 L 745.5867 165.1733 L 745.3997 166.0664 L 745.2079 166.9579 L 744.9438 168.1485 L 744.7391 169.0426 L 744.5292 169.9361 L 744.2404 171.1297 L 744.0172 172.0243 L 743.788 172.9194 L 743.5532 173.8139 L 743.3116 174.7106 L 743.0649 175.6054 L 742.7258 176.799 L 742.4637 177.695 L 742.1046 178.8896 L 741.8284 179.7839 L 741.5457 180.6796 L 741.257 181.5734 L 740.8613 182.7675 L 740.5577 183.6618 L 740.2478 184.5561 L 739.9312 185.4531 L 739.5037 186.6403 L 739.1768 187.533 L 738.845 188.4254 L 738.5081 189.3182 L 738.1666 190.2113 L 737.8204 191.1051 L 737.4698 191.9964 L 736.9945 193.1847 L 736.6323 194.0762 L 736.2643 194.9682 L 735.8929 195.8573 L 735.516 196.7462 L 735.1333 197.6343 L 734.7458 198.5193 L 734.3529 199.4035 L 733.8215 200.578 L 733.4161 201.4569 L 733.0052 202.3334 L 732.5882 203.2076 L 732.0226 204.3695 L 731.591 205.2374 L 731.1533 206.1016 L 730.7086 206.9632 L 730.2559 207.8237 L 729.6443 208.9617 L 729.1774 209.8121 L 728.7025 210.6617 L 728.2238 211.5034 L 727.5743 212.6225 L 727.079 213.4595 L 726.4105 214.5674 L 725.9013 215.3954 L 725.3868 216.2199 L 724.6929 217.3126 L 724.1649 218.1305 L 723.6315 218.9453 L 723.0925 219.7574 L 722.3669 220.8343 L 721.8151 221.6412 L 721.0741 222.709 L 720.5125 223.5073 L 719.9445 224.3046 L 719.1811 225.36 L 718.6022 226.1486 L 718.0175 226.9347 L 717.428 227.7168 L 716.8315 228.4971 L 716.231 229.2717 L 715.6235 230.0443 L 714.8046 231.0683 L 714.1829 231.8328 L 713.3456 232.8449 L 712.7098 233.6005 L 711.8529 234.6009 L 711.2027 235.3476 L 710.5468 236.0899 L 709.8828 236.8304 L 708.9883 237.8123 L 708.3115 238.5435 L 707.6276 239.2729 L 706.9361 240.0004 L 706.0078 240.9629 L 705.3037 241.6819 L 704.5925 242.3987 L 703.6368 243.3485 L 702.9122 244.0581 L 702.1809 244.7653 L 701.1979 245.7025 L 700.4547 246.4011 L 699.7034 247.0981 L 698.6935 248.0218 L 697.9289 248.7112 L 697.1591 249.3967 L 696.3809 250.0811 L 695.3372 250.9861 L 694.5448 251.6632 L 693.7489 252.335 L 692.6768 253.2268 L 691.8657 253.8915 L 690.7737 254.7733 L 689.9468 255.431 L 688.8362 256.3013 L 687.9943 256.9508 L 687.1483 257.5947 L 686.0093 258.4483 L 685.1475 259.084 L 684.2808 259.7147 L 683.1151 260.5497 L 682.2339 261.1709 L 681.0499 261.9923 L 680.1548 262.6032 L 678.9529 263.41 L 678.0432 264.0099 L 676.8239 264.7993 L 675.9028 265.3849 L 674.975 265.9651 L 673.7326 266.7278 L 672.7943 267.293 L 671.8519 267.8514 L 670.5879 268.5859 L 669.6342 269.1296 L 668.676 269.6669 L 667.7137 270.1974 L 666.7465 270.722 L 665.4523 271.4102 L 664.4745 271.9196 L 663.492 272.4226 L 662.1778 273.0819 L 661.1862 273.5698 L 660.1901 274.0515 L 659.1912 274.5273 L 658.1878 274.9976 L 656.8444 275.616 L 655.8336 276.0733 L 654.819 276.5259 L 653.801 276.9742 L 652.78 277.4178 L 651.4147 278.0021 L 650.3884 278.4352 L 649.0128 279.0085 L 648.3273 279.2914 L 647.2949 279.7136 L 646.2578 280.1322 L 644.874 280.6805 L 643.8328 281.0853 L 642.7898 281.4848 L 641.7444 281.8793 L 640.3467 282.3983 L 639.2979 282.7799 L 637.8947 283.279 L 636.84 283.6466 L 635.7853 284.009 L 634.7287 284.367 L 633.3214 284.8373 L 632.2637 285.186 L 631.2071 285.5306 L 629.7979 285.9851 L 628.7413 286.3226 L 627.6846 286.6572 L 626.2755 287.1009 L 625.2217 287.4309 L 624.1671 287.7597 L 622.7608 288.1957 L 621.7071 288.5204 L 620.6534 288.8429 L 619.5995 289.1635 L 618.546 289.4821 L 617.1417 289.9041 L 616.087 290.2192 L 615.0342 290.5318 L 613.628 290.9429 L 612.5733 291.2466 L 611.5172 291.5462 L 610.1077 291.9406 L 609.0501 292.2328 L 607.9905 292.5217 L 606.5794 292.8999 L 605.5187 293.1786 L 604.1048 293.5439 L 603.0423 293.8148 L 601.6253 294.1715 L 600.5618 294.4365 L 599.4972 294.6981 L 598.4318 294.9569 L 597.366 295.2139 L 595.9432 295.5549 L 594.8729 295.8102 L 593.8035 296.0636 L 592.7327 296.3165 L 591.6594 296.5691 L 590.5844 296.8206 L 589.5062 297.0711 L 588.0681 297.4036 L 586.9861 297.6521 L 585.8982 297.9001 L 584.8096 298.1464 L 583.3499 298.4739 L 582.2484 298.7185 L 581.1419 298.9622 L 579.6569 299.2864 L 578.535 299.5291 L 577.0319 299.8514 L 575.8961 300.0919 L 574.7552 300.3315 L 573.2249 300.6494 L 572.068 300.8868 L 570.9066 301.1226 L 569.3474 301.4356 L 568.1718 301.669 L 566.9905 301.9008 L 565.8026 302.1313 L 564.6063 302.3608 L 563.0051 302.6638 L 561.7935 302.89 L 560.5805 303.1137 L 558.9507 303.4103 L 557.7216 303.6309 L 556.4863 303.8499 L 554.8314 304.14 L 553.5826 304.3558 L 552.3303 304.5699 L 550.6512 304.853 L 549.3881 305.0633 L 548.1196 305.2718 L 546.4233 305.5462 L 545.1456 305.75 L 543.8625 305.9522 L 542.147 306.2185 L 540.8538 306.4162 L 539.559 306.6113 L 537.8262 306.8683 L 536.5234 307.0583 L 535.2158 307.2463 L 533.4656 307.4935 L 532.15 307.6756 L 530.3891 307.9148 L 529.0654 308.0905 L 527.293 308.3207 L 525.9619 308.4901 L 524.6256 308.6566 L 523.2885 308.8196 L 521.9457 308.9799 L 520.1514 309.1887 L 518.8048 309.3414 L 517.4527 309.4914 L 515.6454 309.6869 L 514.2906 309.83 L 512.9307 309.9704 L 511.5693 310.1084 L 510.2051 310.2439 L 508.3825 310.4214 L 507.0139 310.5525 L 505.642 310.6818 L 503.8128 310.8514 L 502.4382 310.977 L 501.0612 311.1013 L 499.2207 311.2652 L 497.8433 311.3867 L 496.001 311.5464 L 494.6171 311.6649 L 493.2313 311.7816 L 491.8438 311.8971 L 490.4549 312.0115 L 488.6006 312.161 L 487.2066 312.2712 L 485.8129 312.3795 L 483.9521 312.5212 L 482.5527 312.6252 L 480.6868 312.7607 L 479.2845 312.86 L 477.8792 312.9574 L 476.4741 313.053 L 475.0674 313.1467 L 473.1886 313.269 L 471.7787 313.3586 L 470.3662 313.4466 L 468.9512 313.5334 L 467.5367 313.6184 L 465.6447 313.7303 L 464.2265 313.8126 L 462.8055 313.8946 L 461.3828 313.9752 L 459.482 314.0817 L 458.056 314.1608 L 456.152 314.2649 L 454.7202 314.3425 L 453.2895 314.4191 L 451.3781 314.5205 L 449.943 314.5952 L 448.5043 314.6695 L 446.5866 314.7672 L 445.1431 314.8397 L 443.7026 314.9114 L 441.7783 315.0051 L 440.3308 315.074 L 438.8847 315.1422 L 436.9515 315.231 L 435.4995 315.2963 L 433.5626 315.3813 L 432.1069 315.4441 L 430.1663 315.5256 L 428.7079 315.5856 L 427.2484 315.645 L 425.7892 315.7036 L 424.3258 315.7622 L 422.3765 315.8408 L 420.9124 315.9008 L 419.4463 315.9612 L 417.4912 316.0436 L 416.0244 316.1067 L 414.0659 316.1933 L 412.5957 316.2602 L 411.1266 316.3292 L 409.6559 316.4002 L 408.1857 316.4737 L 406.2254 316.5755 L 404.7558 316.655 L 403.2832 316.7371 L 401.811 316.8219 L 400.3383 316.9095 L 398.8672 316.9997 L 396.9021 317.1235 L 395.4295 317.2184 L 393.9544 317.3151 L 391.9881 317.4463 L 390.512 317.5457 L 388.5457 317.6797 L 387.0681 317.7808 L 385.5901 317.8823 L 383.6199 318.0186 L 382.1399 318.1211 L 380.1682 318.2578 L 378.6873 318.3604 L 377.2073 318.4629 L 375.2307 318.5996 L 373.7468 318.7021 L 371.769 318.8386 L 370.2846 318.9406 L 368.7988 319.0427 L 367.3126 319.1445 L 365.8267 319.2456 L 364.337 319.3477 L 362.8492 319.4488 L 361.3594 319.5503 L 359.8671 319.6514 L 358.3773 319.7525 L 356.3853 319.8882 L 354.8918 319.9905 L 353.3978 320.093 L 351.9027 320.1956 L 350.4062 320.2993 L 348.909 320.4034 L 347.4126 320.5083 L 345.4131 320.65 L 343.916 320.7579 L 342.417 320.8674 L 340.418 321.0168 L 338.92 321.1313 L 337.4214 321.2481 L 335.9243 321.3674 L 334.4309 321.4894 L 332.4485 321.6561 L 330.9656 321.7847 L 329.4888 321.9164 L 328.016 322.0513 L 326.5522 322.1892 L 324.6103 322.3783 L 323.1628 322.5237 L 321.2469 322.7227 L 319.821 322.8755 L 317.9404 323.0835 L 316.5468 323.2425 L 314.7112 323.4582 L 313.3531 323.6225 L 311.5678 323.8449 L 310.2462 324.0142 L 308.5142 324.2425 L 307.2359 324.4156 L 305.976 324.5899 L 304.7329 324.7659 L 303.5094 324.9429 L 302.3056 325.1211 L 300.7283 325.3595 L 299.5665 325.5397 L 298.4223 325.7203 L 297.2943 325.902 L 296.1808 326.0842 L 294.7148 326.3292 L 293.6271 326.5143 L 292.5512 326.7003 L 291.482 326.8873 L 290.4169 327.0768 L 289.0169 327.3287 L 287.9714 327.52 L 286.9309 327.7122 L 285.5463 327.9715 L 284.5131 328.1678 L 283.4828 328.3662 L 282.4545 328.5676 L 281.4276 328.7723 L 280.4054 328.98 L 279.3855 329.1913 L 278.0289 329.4788 L 277.0154 329.6986 L 275.669 329.9974 L 274.6621 330.226 L 273.6577 330.4585 L 272.6555 330.6948 L 271.6541 330.9353 L 270.6536 331.1797 L 269.6521 331.4284 L 268.3176 331.766 L 267.3167 332.0238 L 265.9841 332.3729 L 264.9827 332.6394 L 263.9817 332.9097 L 262.9807 333.1836 L 261.9802 333.461 L 260.6467 333.8362 L 259.6461 334.1221 L 258.6442 334.4119 L 257.3092 334.804 L 256.3092 335.1025 L 255.3093 335.4051 L 253.9762 335.8155 L 252.9785 336.1278 L 251.9811 336.4447 L 250.6545 336.8736 L 249.662 337.2002 L 248.6701 337.5314 L 247.3485 337.9801 L 246.3608 338.321 L 245.3733 338.6663 L 244.387 339.0155 L 243.4026 339.3681 L 242.0909 339.8444 L 241.1089 340.2055 L 240.1272 340.5704 L 238.82 341.062 L 237.842 341.434 L 236.8636 341.8094 L 235.5603 342.3143 L 234.5832 342.6964 L 233.6071 343.0809 L 232.3034 343.5983 L 231.3254 343.9891 L 230.3454 344.3829 L 229.0384 344.9112 L 228.0569 345.3103 L 227.0742 345.7122 L 226.0904 346.1168 L 224.7751 346.6605 L 223.7885 347.0709 L 222.8001 347.4845 L 221.4809 348.0407 L 220.4904 348.4613 L 219.5002 348.8844 L 218.51 349.3101 L 217.1911 349.8811 L 216.2034 350.3114 L 214.8867 350.8884 L 213.8998 351.3234 L 212.9125 351.7601 L 211.5991 352.3432 L 210.613 352.7816 L 209.2978 353.3671 L 208.3129 353.8056 L 207.3271 354.2445 L 206.3401 354.6835 L 205.3538 355.1208 L 204.0386 355.7007 L 203.0501 356.1347 L 202.0611 356.5668 L 200.7418 357.1391 L 199.7501 357.5657 L 198.4279 358.1296 L 197.4339 358.5497 L 196.1082 359.1044 L 195.1127 359.5169 L 194.1163 359.926 L 192.7866 360.4664 L 191.7883 360.868 L 190.7909 361.266 L 189.7924 361.6613 L 188.7931 362.054 L 187.4628 362.5723 L 186.4637 362.958 L 185.4652 363.3409 L 184.4657 363.7211 L 183.4667 364.0985 L 182.1335 364.5977 L 181.1335 364.9688 L 180.1326 365.3371 L 179.1304 365.7025 L 178.1284 366.0642 L 177.1262 366.4223 L 176.1225 366.7768 L 174.785 367.2423 L 173.7804 367.5862 L 172.7735 367.9256 L 171.4308 368.3692 L 170.4229 368.6951 L 169.4136 369.0148 L 168.0696 369.4291 L 167.0612 369.731 L 166.052 370.0249 L 165.0435 370.3102 L 164.0359 370.5869 L 162.6964 370.9414 L 161.6923 371.1971 L 160.6875 371.4442 L 159.3551 371.7584 L 158.3548 371.9845 L 157.3562 372.2024 L 156.3592 372.4124 L 155.0302 372.681 L 154.0355 372.8739 L 153.0409 373.0601 L 152.0483 373.2395 L 151.0552 373.4125 L 150.0627 373.579 L 149.0717 373.7387 L 148.0801 373.8916 L 147.09 374.0375 L 145.7706 374.2215 L 144.7813 374.3514 L 143.4637 374.5135 L 142.4759 374.6271 L 141.4886 374.7335 L 140.1744 374.8644 L 139.189 374.9544 L 138.2044 375.0374 L 137.22 375.1132 L 135.908 375.2034 L 135.2533 375.2439 L 134.2709 375.2991 L 133.2896 375.3477 L 132.3095 375.3896 L 131.3298 375.4247 L 130.3516 375.4529 L 129.3737 375.474 L 128.3967 375.4878 L 127.0979 375.495 L 126.1241 375.4921 L 125.1502 375.482 L 123.8533 375.458 L 122.8805 375.4323 L 121.9064 375.4001 L 120.9325 375.3619 L 119.9574 375.3178 L 118.6552 375.2501 L 117.6783 375.1929 L 116.6992 375.1302 L 115.3943 375.038 L 114.4129 374.9623 L 113.4304 374.8811 L 112.4482 374.7945 L 111.4636 374.7023 L 110.1489 374.5703 L 109.1625 374.4647 L 108.1725 374.3528 L 106.8537 374.1947 L 105.8621 374.0691 L 104.8694 373.9377 L 103.5423 373.7535 L 102.5447 373.6088 L 101.5454 373.4583 L 100.5447 373.3025 L 99.5433 373.1415 L 98.2044 372.9185 L 97.1984 372.7452 L 96.1915 372.5669 L 95.182 372.3833 L 94.171 372.1945 L 92.8215 371.9349 L 91.8088 371.7343 L 90.4545 371.4582 L 89.4386 371.2455 L 88.0814 370.9535 L 87.0634 370.7288 L 86.0425 370.4984 L 85.0214 370.2631 L 84.0004 370.0229 L 82.6355 369.6944 L 81.6112 369.4426 L 80.5858 369.186 L 79.2168 368.8366 L 78.1898 368.5696 L 77.1603 368.2982 L 76.1311 368.0233 L 75.0998 367.7444 L 73.7241 367.3672 L 72.6907 367.0803 L 71.6544 366.7896 L 70.2742 366.3981 L 69.2358 366.1005 L 68.1967 365.8005 L 66.8091 365.3969 L 65.7659 365.0912 L 64.7219 364.7833 L 63.3284 364.3697 L 62.2799 364.057 L 60.8844 363.6385 L 59.8335 363.3225 L 58.4332 362.9003 L 57.3827 362.5827 L 56.3308 362.2643 L 54.9302 361.8405 L 53.8804 361.5231 L 52.831 361.2062 L 51.4359 360.7868 L 50.3908 360.4749 L 48.9993 360.0629 L 47.9582 359.758 L 46.5711 359.3569 L 45.5346 359.0623 L 44.4995 358.7731 L 43.1246 358.3979 L 42.0945 358.1241 L 40.7249 357.7705 L 39.6999 357.5144 L 38.3397 357.1862 L 37.3206 356.9491 L 36.304 356.7202 L 35.2942 356.5007 L 33.949 356.2201 L 32.9433 356.0193 L 31.9414 355.8268 L 30.9407 355.6421 L 29.6137 355.4092 L 28.6211 355.244 L 27.6318 355.0872 L 26.318 354.8909 L 25.3361 354.7533 L 24.3566 354.624 L 23.3816 354.5032 L 22.4096 354.3907 L 21.4396 354.2862 L 20.4734 354.1901 L 19.1912 354.0745 L 18.2312 353.9971 L 17.2745 353.9274 L 16.3198 353.8652 L 15.3664 353.8102 L 14.0986 353.748 L 13.1492 353.7094 L 12.2004 353.6775 L 10.9387 353.6455 L 9.9927 353.6294 L 9.0456 353.6201 L 7.7887 353.6184 L 6.8452 353.6253 L 5.9025 353.6391 L 4.9606 353.6599 L 4.0183 353.6878 L 2.7654 353.7356 L 1.8243 353.7795 L .8818 353.8302 L -.0584 353.8872 L -1.0005 353.9507 L -2.2555 354.0451 L -3.1969 354.1232 L -4.1386 354.2075 L -5.0805 354.298 L -6.0217 354.3944 L -7.2768 354.5325 L -8.215 354.6426 L -9.1541 354.7591 L -10.0914 354.8819 L -11.0271 355.0111 L -12.2699 355.1931 L -13.1981 355.337 L -14.1241 355.4873 L -15.3552 355.6978 L -16.273 355.8629 L -17.1889 356.0345 L -18.405 356.2731 L -19.313 356.4594 L -20.2179 356.6521 L -21.4189 356.9187 L -22.3162 357.1263 L -23.2105 357.3405 L -24.3971 357.6366 L -25.2839 357.8671 L -26.46 358.1855 L -27.3382 358.433 L -28.2134 358.6881 L -29.373 359.0395 L -30.2399 359.3123 L -31.1033 359.5926 L -31.9641 359.8804 L -32.8197 360.1749 L -33.6737 360.4771 L -34.5259 360.7867 L -35.3768 361.1034 L -36.5063 361.5358 L -37.3517 361.8685 L -38.4761 362.3237 L -39.3158 362.6734 L -40.1539 363.0306 L -40.9903 363.3948 L -42.1029 363.8908 L -42.9322 364.2684 L -44.0389 364.7816 L -44.8662 365.1715 L -45.97 365.6988 L -46.7978 366.0989 L -47.6255 366.5024 L -48.4532 366.9092 L -49.2818 367.3194 L -50.3881 367.8715 L -51.2193 368.2896 L -52.0531 368.7115 L -52.8881 369.1371 L -53.7221 369.5654 L -54.5584 369.9985 L -55.6749 370.5829 L -56.5134 371.0266 L -57.3532 371.4751 L -58.1939 371.9286 L -59.0327 372.3855 L -59.8745 372.8488 L -60.7164 373.3166 L -61.837 373.9464 L -62.6788 374.425 L -63.5224 374.9094 L -64.6429 375.5604 L -65.4849 376.0551 L -66.606 376.7204 L -67.4467 377.2239 L -68.2879 377.7315 L -69.4082 378.4129 L -70.2486 378.9275 L -71.0895 379.4445 L -71.9297 379.9631 L -73.0504 380.6565 L -73.8905 381.1775 L -75.0108 381.8718 L -75.8504 382.3917 L -76.6896 382.9101 L -77.8086 383.5985 L -78.646 384.1107 L -79.4844 384.6204 L -80.6018 385.2933 L -81.4409 385.793 L -82.2814 386.2878 L -83.4027 386.9379 L -83.9647 387.2591 L -85.0911 387.8926 L -85.9367 388.3588 L -86.7853 388.8182 L -87.9171 389.4174 L -88.7689 389.8581 L -89.6222 390.2906 L -90.7625 390.8549 L -91.6194 391.2688 L -92.4771 391.6741 L -93.6248 392.2023 L -94.487 392.5882 L -95.3523 392.9661 L -96.219 393.3357 L -97.089 393.6979 L -98.25 394.1677 L -99.1252 394.5116 L -100.2952 394.9573 L -101.1754 395.2819 L -102.3547 395.7025 L -103.2404 396.0074 L -104.4257 396.401 L -105.318 396.6862 L -106.2108 396.9621 L -107.4055 397.3165 L -108.3041 397.5718 L -109.204 397.8176 L -110.1055 398.0537 L -111.3114 398.3532 L -112.2172 398.5659 L -113.1256 398.7684 L -114.3383 399.0218 L -115.2495 399.1995 L -116.1602 399.366 L -117.0744 399.5222 L -117.9876 399.6672 L -118.9034 399.8017 L -119.8197 399.9254 L -121.0418 400.0736 L -121.9585 400.1728 L -122.8779 400.262 L -123.7973 400.3414 L -124.7182 400.4113 L -125.948 400.4902 L -126.872 400.5391 L -127.7972 400.5794 L -128.7243 400.6111 L -129.6517 400.6345 L -130.5802 400.6493 L -131.8211 400.6559 L -132.751 400.6516 L -133.992 400.6339 L -134.9226 400.6118 L -135.8548 400.5818 L -136.788 400.5436 L -138.0307 400.4797 L -138.9624 400.4215 L -139.8962 400.3543 L -141.1339 400.2517 L -142.0631 400.1644 L -142.9897 400.0684 L -143.9155 399.9632 L -145.1453 399.8088 L -146.0654 399.6823 L -146.9818 399.5466 L -148.2006 399.3513 L -149.1108 399.1942 L -150.3186 398.9704 L -151.221 398.7917 L -152.1187 398.604 L -153.3115 398.3393 L -154.2013 398.1305 L -155.3836 397.8382 L -156.266 397.6087 L -157.1454 397.3706 L -158.0215 397.1246 L -159.1851 396.7839 L -160.0541 396.5188 L -161.2066 396.1537 L -162.0675 395.8708 L -162.9261 395.5801 L -164.0652 395.1819 L -164.9164 394.8748 L -165.7633 394.5612 L -166.6073 394.2407 L -167.728 393.8023 L -168.5644 393.4657 L -169.6745 393.0068 L -170.5028 392.6559 L -171.3292 392.2991 L -172.1529 391.9369 L -172.9726 391.5699 L -174.0591 391.0736 L -174.8721 390.695 L -175.6808 390.3125 L -176.7537 389.7958 L -177.5546 389.4033 L -178.3527 389.0061 L -179.1485 388.6042 L -179.9407 388.1979 L -180.9932 387.6482 L -181.78 387.2295 L -182.8248 386.6631 L -183.6069 386.2307 L -184.3884 385.791 L -185.4239 385.1961 L -186.1978 384.7419 L -186.971 384.2796 L -187.7409 383.8104 L -188.7617 383.1737 L -189.5232 382.6873 L -190.282 382.1924 L -191.0363 381.6903 L -191.7871 381.1797 L -192.5329 380.6618 L -193.2775 380.1335 L -194.2571 379.4207 L -194.9879 378.8754 L -195.7135 378.3223 L -196.4351 377.7604 L -197.1514 377.1905 L -197.862 376.6127 L -198.5666 376.0275 L -199.2669 375.4332 L -199.9603 374.832 L -200.8789 374.0154 L -201.5586 373.3958 L -202.2313 372.7694 L -203.1228 371.9189 L -203.7834 371.2733 L -204.4383 370.6205 L -205.0889 369.9592 L -205.7343 369.2907 L -206.5842 368.3918 L -207.2181 367.7077 L -207.8474 367.0173 L -208.6811 366.0857 L -209.3019 365.3798 L -209.92 364.667 L -210.7394 363.7072 L -211.3509 362.9802 L -211.9596 362.2481 L -212.5676 361.5096 L -213.3747 360.5186 L -213.98 359.769 L -214.786 358.7618 L -215.3903 358.0006 L -215.9948 357.2342 L -216.8004 356.2059 L -217.4059 355.4282 L -218.0108 354.6468 L -218.8181 353.5969 L -219.4236 352.8041 L -220.0312 352.0036 L -220.8376 350.9344 L -221.4436 350.1243 L -222.0493 349.3089 L -222.6543 348.4876 L -223.2579 347.6609 L -224.0611 346.5492 L -224.6623 345.7078 L -225.2617 344.8608 L -226.0584 343.7216 L -226.6529 342.8615 L -227.4432 341.7038 L -228.0344 340.8278 L -228.8164 339.6549 L -229.401 338.7675 L -229.9842 337.8735 L -230.5646 336.9761 L -231.1451 336.0716 L -231.9163 334.8602 L -232.495 333.9462 L -233.0738 333.0291 L -233.653 332.1098 L -234.2346 331.1867 L -235.0137 329.9522 L -235.6008 329.0251 L -236.1915 328.0954 L -236.9833 326.8561 L -237.5818 325.925 L -238.1834 324.9948 L -238.7899 324.0625 L -239.3991 323.1318 L -240.2186 321.8896 L -240.8373 320.9585 L -241.6692 319.7168 L -242.2982 318.7852 L -242.9313 317.8545 L -243.5696 316.9234 L -244.2132 315.9927 L -245.0774 314.7559 L -245.7336 313.8269 L -246.3937 312.9016 L -247.06 311.977 L -247.9581 310.7454 L -248.6379 309.8247 L -249.324 308.9053 L -250.249 307.6823 L -250.9503 306.7676 L -251.6582 305.8549 L -252.6122 304.6423 L -253.3362 303.7348 L -254.0668 302.8308 L -255.0502 301.6314 L -255.7967 300.7348 L -256.5499 299.842 L -257.5668 298.6557 L -258.3375 297.7711 L -259.1154 296.8902 L -260.1638 295.7224 L -260.9595 294.8501 L -262.0312 293.694 L -262.8446 292.8305 L -263.9394 291.687 L -264.7703 290.8327 L -265.6087 289.9821 L -266.7368 288.8549 L -267.5906 288.0145 L -268.453 287.1762 L -269.614 286.0634 L -270.4917 285.2333 L -271.378 284.4043 L -272.5688 283.3046 L -273.4701 282.4825 L -274.3792 281.6622 L -275.5992 280.5749 L -276.5227 279.7617 L -277.453 278.9508 L -278.3907 278.1416 L -279.3333 277.336 L -280.6015 276.2635 L -281.5595 275.4624 L -282.524 274.6634 L -283.4945 273.8665 L -284.7977 272.808 L -285.7805 272.0178 L -287.1004 270.9665 L -288.0959 270.1801 L -289.0974 269.3949 L -290.4403 268.3515 L -291.4526 267.5718 L -292.4708 266.7932 L -293.494 266.016 L -294.5226 265.24 L -295.8997 264.2095 L -296.9396 263.438 L -298.3322 262.4139 L -299.3823 261.6487 L -300.7912 260.6314 L -301.8529 259.8716 L -302.9208 259.1133 L -303.9925 258.3585 L -305.0693 257.6055 L -306.1512 256.8549 L -307.6012 255.8577 L -308.693 255.1133 L -310.1582 254.1227 L -311.2615 253.3833 L -312.3696 252.6462 L -313.8546 251.6669 L -314.9744 250.9349 L -316.0974 250.2064 L -317.2262 249.4797 L -318.3598 248.7557 L -319.878 247.7958 L -321.0221 247.0798 L -322.172 246.3669 L -323.7132 245.4221 L -324.8744 244.7186 L -326.042 244.0185 L -327.6048 243.0931 L -328.7832 242.4042 L -329.9683 241.7193 L -331.5583 240.8129 L -332.7525 240.1415 L -333.9566 239.4727 L -335.1634 238.8104 L -336.7842 237.9335 L -338.0034 237.2831 L -339.23 236.6368 L -340.873 235.7832 L -342.1134 235.1476 L -343.7757 234.3075 L -345.0286 233.6824 L -346.2892 233.0603 L -347.5539 232.4419 L -348.8298 231.8235 L -350.5274 231.0074 L -351.8077 230.3962 L -353.0953 229.7846 L -354.3851 229.174 L -356.1124 228.3585 L -357.4127 227.7456 L -359.1505 226.9265 L -360.4575 226.3103 L -361.7671 225.6922 L -363.5221 224.8625 L -364.838 224.239 L -366.5971 223.4036 L -367.9211 222.7733 L -369.2474 222.1404 L -370.5766 221.5049 L -372.3534 220.6535 L -373.6885 220.0127 L -375.0301 219.3683 L -376.8174 218.5091 L -378.163 217.8621 L -379.5131 217.2132 L -381.317 216.3464 L -382.6733 215.695 L -384.0339 215.0421 L -385.8534 214.17 L -387.2218 213.5149 L -388.5926 212.8596 L -389.9678 212.2026 L -391.3468 211.5447 L -392.7277 210.8866 L -394.576 210.007 L -395.9642 209.3471 L -397.8219 208.4653 L -399.2169 207.8039 L -400.6191 207.1399 L -402.4885 206.2557 L -403.8953 205.5911 L -405.3051 204.9258 L -406.7169 204.2605 L -408.6045 203.3717 L -410.0239 202.704 L -411.9198 201.813 L -413.3439 201.1441 L -414.7707 200.4742 L -416.6773 199.5792 L -418.1086 198.9075 L -419.5437 198.2342 L -420.9802 197.5605 L -422.4225 196.884 L -423.8655 196.207 L -425.3081 195.5304 L -427.2352 194.6265 L -428.684 193.9469 L -430.1353 193.2659 L -431.5881 192.584 L -433.0439 191.9003 L -434.5004 191.2156 L -435.9604 190.5286 L -437.9096 189.6102 L -439.3724 188.9201 L -440.8377 188.2274 L -442.3067 187.5321 L -443.7741 186.8365 L -445.2444 186.1385 L -446.7199 185.4366 L -448.6819 184.5016 L -450.1585 183.7965 L -451.6357 183.0899 L -453.6108 182.1432 L -455.0908 181.4326 L -457.0688 180.4811 L -458.5547 179.7653 L -460.5412 178.8073 L -462.029 178.0888 L -463.5209 177.3678 L -465.0141 176.6458 L -466.51 175.9222 L -468.5067 174.956 L -470.0057 174.2304 L -471.5092 173.5025 L -473.5145 172.5318 L -475.0213 171.8023 L -477.0331 170.8284 L -478.5476 170.0952 L -480.5621 169.1207 L -482.0786 168.3873 L -483.5987 167.6525 L -485.117 166.9189 L -486.6384 166.1844 L -488.1687 165.4462 L -489.6878 164.7143 L -491.2159 163.9787 L -492.7453 163.2431 L -494.7881 162.2619 L -496.3217 161.5263 L -498.3699 160.5455 L -499.9095 159.8092 L -501.9665 158.8273 L -503.5099 158.0915 L -505.0566 157.3552 L -506.6046 156.6189 L -508.1545 155.8826 L -510.2253 154.8999 L -511.7791 154.1636 L -513.3368 153.4258 L -514.8953 152.6885 L -516.9783 151.7039 L -518.5416 150.9657 L -520.1061 150.2276 L -521.6716 149.4889 L -523.2429 148.7484 L -525.3356 147.7634 L -526.9069 147.0242 L -528.4858 146.282 L -530.0587 145.5426 L -531.6368 144.8014 L -533.2178 144.0585 L -535.3233 143.0698 L -536.9073 142.3262 L -538.4925 141.5824 L -540.6077 140.5898 L -542.1977 139.8439 L -543.7885 139.0979 L -545.3817 138.3508 L -547.5076 137.3535 L -549.1061 136.6038 L -551.235 135.6053 L -552.8336 134.8553 L -554.9684 133.8535 L -556.5729 133.1011 L -558.7115 132.0977 L -560.3176 131.3443 L -561.927 130.5892 L -564.0715 129.5825 L -565.6824 128.8265 L -567.2957 128.069 L -569.4505 127.0572 L -571.0657 126.2986 L -572.681 125.5395 L -574.8392 124.5253 L -576.4603 123.763 L -578.0836 122.9998 L -580.2477 121.9821 L -581.8753 121.2166 L -583.5013 120.4513 L -585.6741 119.4286 L -587.303 118.6611 L -588.9362 117.8914 L -591.1139 116.8646 L -592.7467 116.0938 L -594.9279 115.0633 L -596.5685 114.2878 L -598.7484 113.2561 L -600.388 112.4798 L -602.0276 111.7029 L -603.6702 110.9241 L -605.3138 110.1444 L -607.5052 109.104 L -609.1517 108.3221 L -610.7982 107.5397 L -612.9954 106.495 L -614.6458 105.7098 L -616.3006 104.9224 L -618.4993 103.8759 L -620.1545 103.0878 L -622.3596 102.0378 L -624.0159 101.2488 L -625.6741 100.4588 L -627.8889 99.4036 L -629.551 98.6114 L -631.7664 97.5555 L -633.4305 96.7622 L -635.0965 95.9679 L -636.7625 95.1733 L -638.9861 94.113 L -640.6561 93.317 L -642.8836 92.2551 L -644.5558 91.4584 L -646.2307 90.6602 L -648.4654 89.5961 L -650.1417 88.7975 L -651.8214 87.9981 L -653.5031 87.1976 L -655.7414 86.132 L -657.426 85.3307 L -659.6716 84.2624 L -661.3572 83.4604 L -663.0464 82.657 L -664.7339 81.8542 L -666.4233 81.051 L -668.1157 80.2467 L -670.371 79.1752 L -672.066 78.3706 L -673.7649 77.5647 L -676.0266 76.4927 L -677.7256 75.6884 L -679.9936 74.616 L -681.6957 73.8121 L -683.4019 73.0074 L -685.108 72.2038 L -686.8179 71.3993 L -688.5259 70.596 L -690.2359 69.7926 L -691.9517 68.987 L -693.6646 68.1831 L -695.9507 67.1098 L -697.6661 66.3043 L -699.3841 65.4978 L -701.6751 64.4216 L -703.3978 63.6118 L -705.1171 62.8034 L -707.413 61.7235 L -709.1367 60.9119 L -710.8603 60.0996 L -713.1602 59.0157 L -714.8873 58.2012 L -716.614 57.3869 L -718.3445 56.5704 L -720.6501 55.4819 L -722.3796 54.6649 L -724.1121 53.8469 L -725.8464 53.0274 L -728.1597 51.9343 L -729.8951 51.1139 L -731.6349 50.2908 L -733.9504 49.195 L -735.6896 48.3714 L -737.4324 47.5454 L -739.7516 46.4456 L -741.4958 45.6178 L -743.239 44.7896 L -745.5651 43.6834 L -747.3102 42.852 L -749.0563 42.0192 L -751.3854 40.906 L -753.1327 40.0692 L -754.8807 39.2306 L -757.2118 38.11 L -758.9598 37.2676 L -760.7108 36.4218 L -762.4589 35.5757 L -764.2079 34.7269 L -766.5419 33.5905 L -768.2889 32.737 L -770.038 31.8802 L -771.787 31.0213 L -773.536 30.1597 L -775.2811 29.2973 L -777.0303 28.4302 L -779.3555 27.2738 L -781.097 26.4047 L -782.8401 25.5328 L -784.5789 24.6604 L -786.3178 23.7852 L -788.6204 22.6223 L -790.3398 21.7511 L -792.0536 20.8802 L -794.3245 19.7221 L -796.0165 18.8563 L -797.6986 17.993 L -799.3731 17.1309 L -801.033 16.2734 L -803.2328 15.1328 L -804.8676 14.2818 L -806.4913 13.4338 L -808.6337 12.3107 L -810.2304 11.4707 L -812.3365 10.3584 L -813.9044 9.5274 L -815.4577 8.7012 L -817.5117 7.6048 L -819.0378 6.7869 L -821.0499 5.7045 L -822.544 4.8978 L -824.0262 4.0949 L -825.979 3.0333 L -827.4294 2.242 L -829.3397 1.1961 L -830.7567 .4175 L -832.1601 -.3558 L -834.0081 -1.3773 L -835.3801 -2.1383 L -837.189 -3.1445 L -838.5315 -3.8935 L -839.8645 -4.6391 L -841.6274 -5.628 L -842.9437 -6.3686 L -844.2521 -7.1063 L -845.9911 -8.0896 L -847.2886 -8.825 L -848.5821 -9.5598 L -850.2984 -10.5368 L -851.5806 -11.2687 L -852.8562 -11.9983 L -854.5521 -12.9702 L -855.8212 -13.6991 L -857.0833 -14.4258 L -858.3446 -15.1531 L -860.02 -16.1217 L -861.2731 -16.8478 L -862.5241 -17.5743 L -864.1886 -18.5425 L -865.4362 -19.2699 L -866.6798 -19.996 L -868.3352 -20.9648 L -869.5754 -21.6923 L -871.2245 -22.6618 L -872.4601 -23.3898 L -873.6908 -24.1161 L -875.3263 -25.0834 L -876.5452 -25.8062 L -878.1598 -26.7657 L -879.3643 -27.4835 L -880.9503 -28.4312 L -882.131 -29.1386 L -883.3042 -29.8434 L -884.4672 -30.5438 L -886.0008 -31.4701 L -887.1382 -32.1594 L -888.6354 -33.0699 L -889.7426 -33.7455 L -890.8378 -34.416 L -891.9211 -35.0814 L -892.994 -35.7423 L -894.4 -36.6121 L -895.4438 -37.2603 L -896.8137 -38.114 L -897.8295 -38.7496 L -898.8328 -39.3792 L -900.1521 -40.21 L -901.1285 -40.8272 L -902.4093 -41.6394 L -903.358 -42.2429 L -904.2941 -42.8401 L -905.216 -43.4297 L -906.429 -44.2079 L -907.325 -44.7844 L -908.5015 -45.5435 L -909.3728 -46.107 L -910.2346 -46.6658 L -911.3729 -47.4057 L -912.2187 -47.9569 L -913.3389 -48.6886 L -914.1736 -49.2351 L -915.2791 -49.9606 L -916.1041 -50.5032 L -916.927 -51.0464 L -917.7454 -51.5879 L -918.8342 -52.3111 L -919.6497 -52.8548 L -920.4641 -53.4 L -921.2786 -53.947 L -922.3645 -54.6793 L -923.178 -55.2307 L -924.262 -55.9684 L -925.0745 -56.5252 L -925.887 -57.0846 L -926.6965 -57.6464 L -927.5061 -58.2114 L -928.3147 -58.7802 L -929.1221 -59.3523 L -930.1945 -60.1204 L -930.9969 -60.702 L -932.0612 -61.4837 L -932.8571 -62.0762 L -933.649 -62.6728 L -934.4382 -63.2747 L -935.2246 -63.8823 L -936.2665 -64.6991 L -937.0433 -65.318 L -937.8136 -65.9402 L -938.8352 -66.7797 L -939.5952 -67.4154 L -940.3487 -68.0554 L -941.3452 -68.9175 L -942.0839 -69.5691 L -942.817 -70.227 L -943.7816 -71.1111 L -944.4959 -71.7799 L -945.2037 -72.455 L -946.1319 -73.3611 L -946.8186 -74.0472 L -947.4987 -74.7407 L -948.3886 -75.6702 L -949.0472 -76.3752 L -949.9102 -77.3235 L -950.5466 -78.042 L -951.1719 -78.7649 L -951.9896 -79.7368 L -952.5925 -80.4736 L -953.1848 -81.215 L -953.9577 -82.2101 L -954.5256 -82.9621 L -955.0845 -83.7195 L -955.6341 -84.4812 L -956.3529 -85.5028 L -956.8823 -86.2736 L -957.4037 -87.0481 L -957.9193 -87.8282 L -958.4274 -88.6111 L -959.0963 -89.6617 L -959.5922 -90.4557 L -960.0833 -91.2543 L -960.7315 -92.3267 L -961.2119 -93.1359 L -961.6881 -93.9503 L -962.3167 -95.0449 L -962.7816 -95.8695 L -963.2429 -96.6995 L -963.8507 -97.8131 L -964.3019 -98.6529 L -964.749 -99.4977 L -965.3383 -100.6308 L -965.7741 -101.4841 L -966.2055 -102.3419 L -966.7722 -103.4915 L -967.1893 -104.3564 L -967.6 -105.2247 L -968.1365 -106.387 L -968.53 -107.2618 L -968.9156 -108.1393 L -969.4182 -109.3149 L -969.7853 -110.1988 L -970.1446 -111.0852 L -970.6116 -112.2718 L -970.9525 -113.1641 L -971.2853 -114.0589 L -971.6104 -114.9573 L -972.0306 -116.158 L -972.3356 -117.0601 L -972.6329 -117.9664 L -972.9214 -118.8738 L -973.2933 -120.0876 L -973.5625 -121.0006 L -973.9086 -122.2219 L -974.1573 -123.1362 L -974.3987 -124.0562 L -974.6313 -124.9757 L -974.9294 -126.2056 L -975.1435 -127.1294 L -975.3498 -128.0554 L -975.5479 -128.9822 L -975.7382 -129.9114 L -975.9199 -130.841 L -976.1491 -132.0834 L -976.3107 -133.0157 L -976.5128 -134.2622 L -976.6541 -135.1984 L -976.8293 -136.4492 L -976.9499 -137.3836 L -977.0978 -138.6348 L -977.1984 -139.5735 L -977.2899 -140.5137 L -977.3719 -141.4538 L -977.4442 -142.3942 L -977.5256 -143.6494 L -977.5746 -144.5893 L -977.6138 -145.5295 L -977.6495 -146.7809 L -977.6642 -147.719 L -977.6683 -148.6555 L -977.662 -149.5913 L -977.6459 -150.5252 L -977.6093 -151.7688 L -977.5709 -152.7012 L -977.5234 -153.6351 L -977.4471 -154.8727 L -977.3799 -155.8019 L -977.3044 -156.7314 L -977.1917 -157.9681 L -977.098 -158.8949 L -976.9965 -159.8217 L -976.8495 -161.0569 L -976.7307 -161.9809 L -976.6042 -162.905 L -976.4236 -164.1372 L -976.2803 -165.0579 L -976.1296 -165.9803 L -975.9727 -166.8999 L -975.7529 -168.1256 L -975.5804 -169.0443 L -975.4013 -169.9615 L -975.2156 -170.8777 L -974.9579 -172.0966 L -974.7567 -173.0094 L -974.5484 -173.9215 L -974.2594 -175.1355 L -974.0342 -176.0438 L -973.8015 -176.9501 L -973.561 -177.8551 L -973.3121 -178.7589 L -972.9687 -179.9579 L -972.7014 -180.8566 L -972.3333 -182.049 L -972.0479 -182.9412 L -971.7548 -183.83 L -971.4531 -184.7178 L -971.0385 -185.8967 L -970.7175 -186.7785 L -970.3885 -187.6561 L -970.0497 -188.5338 L -969.5861 -189.6953 L -969.2283 -190.5632 L -968.7375 -191.7167 L -968.3598 -192.5776 L -967.8427 -193.7221 L -967.4448 -194.5773 L -966.9005 -195.7144 L -966.4816 -196.565 L -966.0543 -197.4125 L -965.6172 -198.2592 L -965.0222 -199.3809 L -964.5646 -200.2204 L -964.0987 -201.0557 L -963.6219 -201.8911 L -962.9736 -202.9971 L -962.4783 -203.8204 L -961.9723 -204.6433 L -961.4564 -205.4644 L -960.7571 -206.5499 L -960.2216 -207.3609 L -959.4926 -208.4389 L -958.9372 -209.241 L -958.3724 -210.0405 L -957.606 -211.101 L -957.0217 -211.8921 L -956.4294 -212.6796 L -955.6271 -213.7252 L -955.0171 -214.5048 L -954.3993 -215.2815 L -953.7738 -216.0552 L -953.1417 -216.8249 L -952.288 -217.8464 L -951.6398 -218.6086 L -950.9846 -219.3677 L -950.3234 -220.1238 L -949.4316 -221.1277 L -948.7577 -221.876 L -948.0779 -222.6221 L -947.3922 -223.3655 L -946.4721 -224.3504 L -945.7766 -225.0848 L -945.0764 -225.8158 L -944.135 -226.7847 L -943.4227 -227.507 L -942.7057 -228.2245 L -941.7419 -229.1735 L -941.0124 -229.8795 L -940.2769 -230.5801 L -939.537 -231.2739 L -938.7899 -231.9628 L -938.0377 -232.6447 L -937.2778 -233.3216 L -936.2583 -234.211 L -935.4858 -234.8705 L -934.7067 -235.5232 L -933.9224 -236.168 L -933.1316 -236.8049 L -932.0671 -237.6419 L -931.2622 -238.2597 L -930.4501 -238.8702 L -929.3603 -239.6697 L -928.5344 -240.2607 L -927.7042 -240.8413 L -926.5873 -241.6025 L -925.7435 -242.1622 L -924.8934 -242.7132 L -923.7508 -243.4342 L -922.8882 -243.9643 L -921.7292 -244.6588 L -920.8547 -245.1709 L -919.6829 -245.8424 L -918.7972 -246.3399 L -917.9081 -246.8321 L -916.7173 -247.4817 L -915.819 -247.9653 L -914.9171 -248.4464 L -914.0126 -248.9254 L -913.1044 -249.4037 L -911.8905 -250.0407 L -910.9767 -250.5199 L -909.7579 -251.1594 L -908.8419 -251.6414 L -907.924 -252.1256 L -907.005 -252.6119 L -906.0851 -253.1003 L -904.8566 -253.7567 L -903.9357 -254.2515 L -902.7058 -254.9153 L -901.782 -255.4162 L -900.8562 -255.9199 L -899.6218 -256.594 L -898.6918 -257.1034 L -897.4523 -257.7844 L -896.5185 -258.2986 L -895.2714 -258.9857 L -894.3318 -259.5051 L -893.3895 -260.0263 L -892.1295 -260.7236 L -891.1806 -261.2495 L -889.9111 -261.954 L -888.955 -262.4847 L -887.9957 -263.0179 L -886.7135 -263.7315 L -885.7477 -264.2693 L -884.778 -264.8098 L -883.806 -265.3522 L -882.5037 -266.0793 L -881.5237 -266.6269 L -880.5406 -267.1768 L -879.2242 -267.9142 L -878.2333 -268.4699 L -877.2391 -269.0289 L -876.2414 -269.591 L -875.2418 -270.155 L -873.9048 -270.9118 L -872.899 -271.4829 L -871.8902 -272.0578 L -870.8796 -272.6349 L -869.8677 -273.2151 L -868.8521 -273.7996 L -867.8352 -274.3869 L -866.8147 -274.9781 L -865.4497 -275.7726 L -864.4292 -276.3699 L -863.4028 -276.9731 L -862.3735 -277.5807 L -861.3433 -278.1925 L -860.314 -278.8071 L -858.9386 -279.6341 L -857.9056 -280.2595 L -856.8702 -280.8904 L -855.8331 -281.5263 L -854.793 -282.1687 L -853.4131 -283.0279 L -852.3765 -283.6789 L -851.3363 -284.3365 L -849.9492 -285.2206 L -848.9072 -285.8893 L -847.8622 -286.5643 L -846.4745 -287.4674 L -845.4286 -288.1522 L -844.3857 -288.8386 L -842.9904 -289.7628 L -841.9435 -290.4607 L -840.8947 -291.1626 L -839.4943 -292.1048 L -838.4454 -292.8144 L -837.3936 -293.5286 L -836.3408 -294.2458 L -834.9351 -295.2076 L -833.8795 -295.9331 L -832.8228 -296.662 L -831.7662 -297.3935 L -830.3538 -298.3756 L -829.2943 -299.1155 L -827.8796 -300.1067 L -826.8171 -300.8535 L -825.7536 -301.6026 L -824.688 -302.3554 L -823.269 -303.3605 L -822.2017 -304.1186 L -821.1333 -304.8786 L -819.7076 -305.8945 L -818.6364 -306.6599 L -817.566 -307.4269 L -816.4928 -308.1971 L -815.4186 -308.9696 L -814.3423 -309.7449 L -813.2691 -310.5203 L -811.8326 -311.5602 L -810.7545 -312.3419 L -809.6747 -313.1265 L -808.2343 -314.1763 L -807.1542 -314.9658 L -806.0703 -315.7596 L -804.6279 -316.8201 L -803.5449 -317.6183 L -802.4609 -318.4198 L -801.0156 -319.4909 L -799.9316 -320.298 L -798.8456 -321.108 L -797.7614 -321.9196 L -796.6755 -322.7343 L -795.2282 -323.8236 L -794.1413 -324.644 L -793.0544 -325.4668 L -791.6071 -326.5662 L -790.5192 -327.3947 L -789.069 -328.5025 L -787.9811 -329.3368 L -786.5319 -330.4521 L -785.445 -331.2925 L -784.3578 -332.1355 L -782.9108 -333.2618 L -781.8253 -334.1107 L -780.7413 -334.9626 L -779.297 -336.1023 L -778.2159 -336.9598 L -777.1349 -337.8206 L -775.6945 -338.9727 L -774.6158 -339.8404 L -773.5367 -340.7119 L -772.1032 -341.8751 L -771.029 -342.7521 L -769.5966 -343.9268 L -768.5253 -344.8106 L -767.0973 -345.9949 L -766.028 -346.886 L -764.9609 -347.7795 L -763.8945 -348.6768 L -762.8309 -349.5767 L -761.7684 -350.4801 L -760.7078 -351.3858 L -759.296 -352.598 L -758.2384 -353.5102 L -757.18 -354.4258 L -756.1234 -355.3429 L -754.7161 -356.5707 L -753.6614 -357.4941 L -752.6087 -358.4188 L -751.555 -359.3456 L -750.1507 -360.5836 L -749.097 -361.5135 L -747.6901 -362.7561 L -746.6373 -363.6868 L -745.5817 -364.6199 L -744.525 -365.5532 L -743.1143 -366.7983 L -742.0547 -367.7334 L -740.9952 -368.6679 L -739.5809 -369.9148 L -738.5194 -370.8499 L -737.4551 -371.7866 L -736.0362 -373.0341 L -734.9688 -373.9721 L -733.5469 -375.2216 L -732.4776 -376.1591 L -731.4064 -377.0981 L -730.3348 -378.0376 L -728.908 -379.2876 L -727.8367 -380.2265 L -726.4061 -381.4798 L -725.337 -382.416 L -724.2687 -383.3526 L -723.2013 -384.288 L -722.1349 -385.2236 L -720.7169 -386.4674 L -719.6554 -387.3996 L -718.5958 -388.3305 L -717.5417 -389.2576 L -716.1429 -390.4889 L -715.1025 -391.4057 L -714.0702 -392.3157 L -712.7072 -393.5182 L -711.6985 -394.4085 L -710.7006 -395.29 L -709.7145 -396.1613 L -708.7416 -397.0215 L -707.4703 -398.1458 L -706.5358 -398.9724 L -705.6165 -399.7856 L -704.4185 -400.8454 L -703.5406 -401.6219 L -702.6817 -402.3815 L -701.5662 -403.3677 L -700.7523 -404.0869 L -699.96 -404.7867 L -699.1895 -405.4669 L -698.1958 -406.3438 L -697.4725 -406.9816 L -696.5433 -407.8006 L -695.8737 -408.3904 L -695.2283 -408.9584 L -694.4044 -409.6832 L -693.813 -410.2029 L -693.2414 -410.7046 L -692.6866 -411.1913 L -691.967 -411.8218 L -691.441 -412.2824 L -690.9246 -412.7345 L -690.4164 -413.1794 L -689.7531 -413.7601 L -689.2629 -414.1896 L -688.6171 -414.7556 L -688.1365 -415.178 L -687.4989 -415.7391 L -687.0223 -416.1595 L -686.5487 -416.5786 L -686.0763 -416.9968 L -685.6074 -417.4147 L -685.1406 -417.8322 L -684.6767 -418.2487 L -684.2138 -418.6657 L -683.7529 -419.0822 L -683.1422 -419.6381 L -682.6871 -420.0546 L -682.233 -420.4716 L -681.6314 -421.0295 L -681.1832 -421.4476 L -680.7365 -421.867 L -680.2921 -422.2874 L -679.8497 -422.7083 L -679.2636 -423.2711 L -678.8273 -423.6935 L -678.3923 -424.1176 L -677.9608 -424.5424 L -677.5318 -424.9689 L -677.1066 -425.3961 L -676.683 -425.8271 L -676.1268 -426.4 L -675.713 -426.8333 L -675.3035 -427.2686 L -674.7651 -427.8503 L -674.3657 -428.2895 L -673.8408 -428.8773 L -673.4538 -429.3187 L -673.0721 -429.762 L -672.696 -430.2063 L -672.3254 -430.6521 L -671.8397 -431.2484 L -671.4825 -431.6961 L -671.1306 -432.1451 L -670.784 -432.5957 L -670.3311 -433.1967 L -669.9976 -433.6484 L -669.6691 -434.1015 L -669.2402 -434.7065 L -668.9255 -435.1611 L -668.6174 -435.6167 L -668.3159 -436.0722 L -667.9245 -436.6802 L -667.6396 -437.1357 L -667.2699 -437.7446 L -667.001 -438.2011 L -666.7396 -438.6581 L -666.4022 -439.2684 L -666.1578 -439.7265 L -665.9208 -440.185 L -665.617 -440.7973 L -665.3978 -441.2573 L -665.1176 -441.871 L -664.9158 -442.332 L -664.7208 -442.7929 L -664.5329 -443.2533 L -664.2923 -443.868 L -664.1193 -444.33 L -663.9527 -444.792 L -663.7921 -445.2558 L -663.5868 -445.8758 L -663.4395 -446.3427 L -663.2525 -446.9663 L -663.1184 -447.437 L -662.9901 -447.9095 L -662.8275 -448.543 L -662.7122 -449.0201 L -662.6022 -449.4995 L -662.4982 -449.9807 L -662.3682 -450.6259 L -662.2773 -451.1112 L -662.1646 -451.7619 L -662.0865 -452.253 L -662.0143 -452.7462 L -661.9476 -453.242 L -661.8674 -453.9057 L -661.814 -454.4069 L -661.7515 -455.0779 L -661.7115 -455.5844 L -661.6674 -456.2628 L -661.6414 -456.7739 L -661.6204 -457.2875 L -661.6057 -457.8031 L -661.5956 -458.493 L -661.5958 -459.013 L -661.6021 -459.5346 L -661.6194 -460.2314 L -661.6393 -460.7539 L -661.6655 -461.2778 L -661.7092 -461.9789 L -661.7487 -462.5059 L -661.8102 -463.2102 L -661.8636 -463.738 L -661.9237 -464.2668 L -661.9906 -464.7961 L -662.0638 -465.3245 L -662.1722 -466.0305 L -662.2611 -466.5589 L -662.3895 -467.2625 L -662.4927 -467.7892 L -662.6024 -468.3141 L -662.7585 -469.0138 L -662.883 -469.5387 L -663.0142 -470.0634 L -663.1519 -470.5873 L -663.2963 -471.1098 L -663.4995 -471.8066 L -663.66 -472.3271 L -663.8276 -472.8461 L -664.0025 -473.3627 L -664.1847 -473.8774 L -664.4382 -474.5587 L -664.637 -475.0674 L -664.8426 -475.5725 L -665.0552 -476.0742 L -665.2747 -476.5715 L -665.5007 -477.0637 L -665.7333 -477.5514 L -666.0536 -478.1931 L -666.3006 -478.6673 L -666.5536 -479.1369 L -666.8121 -479.5998 L -667.0764 -480.0572 L -667.3464 -480.5096 L -667.6217 -480.9562 L -667.9965 -481.5431 L -668.2831 -481.9777 L -668.5742 -482.4073 L -668.8696 -482.8331 L -669.2693 -483.3951 L -669.5726 -483.8136 L -669.8792 -484.2298 L -670.1868 -484.6444 L -670.6019 -485.1971 L -670.9126 -485.6107 L -671.2261 -486.0262 L -671.5396 -486.4428 L -671.8539 -486.8625 L -672.1664 -487.2832 L -672.4799 -487.708 L -672.7914 -488.1359 L -673.102 -488.5675 L -673.5128 -489.1489 L -673.8185 -489.5893 L -674.2238 -490.1826 L -674.5257 -490.6326 L -674.9241 -491.2373 L -675.2201 -491.696 L -675.514 -492.1584 L -675.9028 -492.7809 L -676.1918 -493.2534 L -676.4789 -493.7307 L -676.7641 -494.2121 L -677.0472 -494.6977 L -677.3284 -495.1888 L -677.6075 -495.684 L -677.9757 -496.3503 L -678.2501 -496.8562 L -678.5222 -497.3672 L -678.7919 -497.8822 L -679.1464 -498.5744 L -679.4099 -499.0992 L -679.756 -499.806 L -680.0124 -500.3405 L -680.2661 -500.8811 L -680.597 -501.6057 L -680.8409 -502.1543 L -681.0802 -502.7068 L -681.3162 -503.2638 L -681.6226 -504.0103 L -681.8469 -504.574 L -682.0662 -505.1406 L -682.28 -505.7091 L -682.4879 -506.2796 L -682.6892 -506.8527 L -682.8831 -507.4255 L -683.1306 -508.1925 L -683.3068 -508.7674 L -683.4756 -509.3441 L -683.6367 -509.9212 L -683.7898 -510.4993 L -683.9809 -511.2689 L -684.1149 -511.8475 L -684.2407 -512.4272 L -684.3954 -513.1977 L -684.5019 -513.7758 L -684.6308 -514.5463 L -684.718 -515.1235 L -684.797 -515.7006 L -684.868 -516.2778 L -684.9514 -517.0483 L -685.0054 -517.6254 L -685.0527 -518.2046 L -685.1057 -518.9761 L -685.1387 -519.5555 L -685.1741 -520.3319 L -685.1944 -520.9169 L -685.2134 -521.7003 L -685.2213 -522.2911 L -685.2236 -523.0841 L -685.2191 -523.6819 L -685.2089 -524.2841 L -685.1932 -524.8895 L -685.1718 -525.4979 L -685.1337 -526.3119 L -685.0975 -526.9273 L -685.0382 -527.7484 L -684.9854 -528.3665 L -684.9035 -529.1937 L -684.8335 -529.8131 L -684.7561 -530.4342 L -684.641 -531.2623 L -684.546 -531.8834 L -684.4434 -532.5045 L -684.2943 -533.334 L -684.1738 -533.9551 L -684.0452 -534.5771 L -683.862 -535.4063 L -683.7159 -536.0264 L -683.5626 -536.6475 L -683.4022 -537.2686 L -683.2353 -537.8896 L -683.0618 -538.5107 L -682.8206 -539.3379 L -682.632 -539.958 L -682.4367 -540.5781 L -682.1671 -541.4033 L -681.9578 -542.0225 L -681.7427 -542.6406 L -681.5219 -543.2596 L -681.2953 -543.8777 L -681.0632 -544.4959 L -680.7443 -545.3182 L -680.4982 -545.9354 L -680.2465 -546.5506 L -679.9012 -547.3709 L -679.6353 -547.9842 L -679.3632 -548.5975 L -679.0847 -549.2098 L -678.7999 -549.8221 L -678.5095 -550.4343 L -678.1127 -551.2478 L -677.8074 -551.8573 L -677.3903 -552.6688 L -677.0689 -553.2762 L -676.7419 -553.8816 L -676.2944 -554.6881 L -675.9504 -555.2906 L -675.5995 -555.8909 L -675.1199 -556.6887 L -674.7516 -557.2844 L -674.376 -557.8782 L -673.9937 -558.469 L -673.6031 -559.0598 L -673.0703 -559.8439 L -672.6607 -560.4308 L -672.2435 -561.0168 L -671.8179 -561.6008 L -671.3845 -562.1828 L -670.7949 -562.955 L -670.3424 -563.534 L -669.8824 -564.1091 L -669.2553 -564.8735 L -668.7758 -565.4438 L -668.2878 -566.012 L -667.6237 -566.7657 L -667.1163 -567.3272 L -666.4274 -568.0707 L -665.9006 -568.6259 L -665.1872 -569.3603 L -664.6417 -569.9102 L -664.09 -570.457 L -663.5297 -571.0031 L -662.9613 -571.548 L -662.3865 -572.0903 L -661.8058 -572.6313 L -661.0197 -573.3508 L -660.4221 -573.8886 L -659.8182 -574.4247 L -659.0011 -575.1393 L -658.3828 -575.6725 L -657.7573 -576.2056 L -656.916 -576.9139 L -656.2773 -577.4461 L -655.633 -577.9781 L -654.7672 -578.6841 L -654.111 -579.2123 L -653.4483 -579.7398 L -652.5574 -580.4412 L -651.882 -580.9651 L -651.1993 -581.4886 L -650.5124 -582.0085 L -649.5859 -582.6995 L -648.8843 -583.2142 L -647.9374 -583.8977 L -647.2198 -584.4076 L -646.4944 -584.9151 L -645.5198 -585.5854 L -644.7806 -586.0855 L -644.0339 -586.5831 L -643.283 -587.0758 L -642.2704 -587.7287 L -641.5035 -588.2146 L -640.4717 -588.8571 L -639.6906 -589.3344 L -638.6393 -589.965 L -637.8431 -590.4335 L -637.0409 -590.8976 L -636.2332 -591.3568 L -635.1462 -591.9623 L -634.3229 -592.4112 L -633.4958 -592.8539 L -632.6613 -593.2919 L -631.8228 -593.7238 L -630.6951 -594.2917 L -629.8453 -594.7103 L -628.9888 -595.1239 L -627.8404 -595.6665 L -626.9747 -596.0664 L -626.1055 -596.4601 L -625.233 -596.8478 L -624.0641 -597.3549 L -623.1851 -597.7271 L -622.3032 -598.093 L -621.4191 -598.4525 L -620.2372 -598.9212 L -619.3495 -599.2647 L -618.4586 -599.6021 L -617.566 -599.9323 L -616.6719 -600.2561 L -615.7755 -600.5734 L -614.8754 -600.8846 L -613.6665 -601.2917 L -612.7561 -601.5897 L -611.844 -601.8806 L -610.9277 -602.1654 L -610.0088 -602.4443 L -608.7812 -602.8055 L -607.8584 -603.0684 L -606.9307 -603.3251 L -605.6934 -603.6564 L -604.762 -603.8973 L -603.8287 -604.1315 L -602.893 -604.3588 L -601.9545 -604.5791 L -600.7002 -604.8619 L -599.758 -605.0656 L -598.4992 -605.3263 L -597.5522 -605.5136 L -596.6024 -605.6939 L -595.6522 -605.8668 L -594.3827 -606.0862 L -593.4276 -606.2424 L -592.4735 -606.3909 L -591.1952 -606.5775 L -590.2362 -606.7088 L -589.2762 -606.8326 L -587.993 -606.9864 L -587.0311 -607.0929 L -586.0653 -607.1922 L -584.7811 -607.3127 L -583.8154 -607.3948 L -582.5273 -607.4927 L -581.5591 -607.5576 L -580.269 -607.6329 L -579.3002 -607.6806 L -578.3286 -607.7211 L -577.0376 -607.7633 L -576.0671 -607.7866 L -575.0974 -607.8021 L -574.1248 -607.8103 L -573.1531 -607.8106 L -571.8572 -607.7996 L -570.8855 -607.7825 L -569.9128 -607.758 L -568.9441 -607.726 L -567.9753 -607.6869 L -566.6814 -607.6235 L -565.7126 -607.5681 L -564.4198 -607.4839 L -563.4501 -607.4133 L -562.16 -607.3094 L -561.1913 -607.2238 L -560.2235 -607.132 L -558.9344 -607.0001 L -557.97 -606.8942 L -557.0042 -606.782 L -555.7181 -606.6228 L -554.7542 -606.4965 L -553.7903 -606.364 L -552.5081 -606.1777 L -551.5472 -606.0305 L -550.5872 -605.8768 L -549.6291 -605.7166 L -548.3514 -605.4926 L -547.3961 -605.3167 L -546.1231 -605.0714 L -545.17 -604.8793 L -544.2188 -604.6802 L -542.953 -604.4038 L -542.0038 -604.188 L -541.0575 -603.9656 L -540.1122 -603.736 L -539.1671 -603.499 L -537.9111 -603.172 L -536.9719 -602.9186 L -536.0334 -602.6574 L -535.0978 -602.3894 L -534.1623 -602.1137 L -532.9175 -601.7352 L -531.986 -601.4429 L -530.7452 -601.0414 L -529.8175 -600.7321 L -528.8777 -600.4119 L -527.655 -599.9833 L -526.7311 -599.6512 L -525.8065 -599.3114 L -524.579 -598.8494 L -523.6581 -598.4951 L -522.7363 -598.1333 L -521.5118 -597.642 L -520.5935 -597.2656 L -519.6755 -596.8835 L -518.4519 -596.3646 L -517.5359 -595.9692 L -516.6179 -595.5671 L -515.7009 -595.1605 L -514.4802 -594.6102 L -513.5652 -594.1916 L -512.6482 -593.7675 L -511.7326 -593.3398 L -510.8152 -592.9067 L -509.5949 -592.3239 L -508.6771 -591.8811 L -507.7611 -591.4348 L -506.5389 -590.8329 L -505.6215 -590.3767 L -504.704 -589.916 L -503.787 -589.4512 L -502.8695 -588.9815 L -501.6469 -588.3488 L -500.7289 -587.8681 L -499.8109 -587.3825 L -498.8949 -586.8926 L -497.9778 -586.3967 L -496.7557 -585.7284 L -495.8393 -585.2214 L -494.9223 -584.7082 L -494.0073 -584.1907 L -493.0912 -583.6677 L -491.8704 -582.9618 L -490.9554 -582.4265 L -490.0399 -581.8854 L -489.1243 -581.339 L -488.2098 -580.7875 L -487.2947 -580.2299 L -486.0757 -579.4767 L -485.1627 -578.9044 L -484.2506 -578.3254 L -483.3399 -577.7394 L -482.1274 -576.9476 L -481.2174 -576.3442 L -480.0115 -575.532 L -479.1067 -574.9133 L -478.2032 -574.2883 L -477.3009 -573.6564 L -476.0963 -572.801 L -475.2008 -572.1573 L -474.3004 -571.5034 L -473.1011 -570.6226 L -472.2012 -569.9551 L -470.9981 -569.0545 L -470.0944 -568.3722 L -469.1892 -567.6847 L -467.9805 -566.7612 L -467.0693 -566.0611 L -466.1556 -565.3565 L -464.9325 -564.4097 L -464.0074 -563.6907" stroke-width="28" stroke="grey" fill="none" id="Track"/></svg>