<svg class="track" xmlns="http://www.w3.org/2000/svg" preserveAspectRatio="xMinYMid meet" height="380" width="600" viewBox="-800 -450 1 1000">
  <path d="m716.048 63.431-1.293-10.271-1.004-7.998-1.356-10.7-.98-7.674-1.424-11.034-1.115-8.56-1.492-11.351-1.26-9.48-1.594-11.653-2.536-18.056-3.097-21.923-1.606-11.402-1.395-9.917-1.554-11.084-1.442-10.286-1.241-8.88-1.487-10.648-1.379-9.881-1.44-10.356-1.335-9.615-1.4-10.076-1.055-7.612-1.29-9.335-1.055-7.65-1.392-10.09-1.07-7.79-1.41-10.274-1.087-7.922-1.43-10.445-1.101-8.049-1.447-10.601-1.199-8.793-1.462-10.744-1.194-8.79-1.284-9.464-1.045-7.727-1.121-8.283-.828-6.127-.93-6.89-.904-6.707-.361-2.69-.52-3.843-.68-4.95-.527-3.73-.738-4.799-.724-3.867-2.053-6.838-1.8-3.6-1.963-2.815-2.925-2.922-3.391-2.188-4.167-1.509-3.823-.514-4.014.026-3.958.142-4.026.093-4.234-.048-3.424-.194-4.15-.424-10.04-1.931-5.09-1.587-4.992-2.013-4.598-2.293-8.311-5.39-4.509-3.728-4.302-4.202-6.466-7.653-6.428-8.289-6.885-7.026-8.359-5.18-9.504-2.497-9.171.482-7.91 3.251-6.214 5.786-3.605 7.147-1.288 4.705-.927 4.43-1.587 9.425-1.447 10.998-1.435 12.535-1.149 12.445-.495 7-.344 7.05-.108 7.567.282 7.66.517 5.942 1.068 7.39 1.722 7.87 2.34 7.79 1.449 4.08 2.985 7.66 2.39 5.857 3.095 7.806 2.266 6.033 2.805 7.911 2.048 6.073 2.47 7.465 2.023 6.03 2.706 7.817 2.271 6.344 2.79 7.55 2.155 5.673 2.824 7.285 1.97 5.067 2.83 7.512 1.48 4.142 1.411 4.127 2.125 6.614.752 2.494 1.654 5.858 3.09 12.784 2.499 13.13 1.947 12.89.842 7.005.742 7.616.449 5.791.4 6.672.23 4.843.179 4.756.101 3.517.09 4.258.044 3.41.023 4.385-.015 3.549-.104 4.232-.22 3.414-.576 4.036-1.705 5.577-3.323 5.626-2.372 2.607-2.755 2.27-8.483 4.347-3.394 1.205-4.563 1.328-4.988 1.157-5.755 1.063-6.217.857-12.504.917-13.98.255-8.27-.009-8.682-.124-13.47-.383-16.824-.74-9.876-.512-10.337-.585-19.826-1.199-21.142-1.17-23.872-1.202-23.407-1.16-26.027-1.28-25.882-1.29-26.158-1.443-25.42-1.448-12.18-.702-12.794-.746-13.358-.81-13.132-.844-12.184-.832-17.169-1.324-5.153-.455-12.348-1.304-11.397-1.63-9.08-1.647-8.914-1.927-11.393-2.922-6.56-1.929-24.547-9.309-10.557-5.102-8.14-4.251-10.86-5.789-8.5-4.52L13-99.44l-8.767-4.82-10.88-6.188-10.977-6.48-11.064-6.75-9.764-6.051-11.305-6.994-10.007-6.143-9.358-5.725-7.204-4.396-11.457-6.968-9.886-5.988-11.16-6.71-9.636-5.75-11.527-6.818-11.01-6.454-9.52-5.534-7.148-4.11-7.599-4.325-6.07-3.458-6.78-3.93-6.456-3.814-6.034-3.6-5.692-3.414-5.093-3.051-4.807-2.776-4.048-2.067-3.89-1.549-3.748-.918-3.77-.278-2.99.306-3.662 1.147-2.325 1.275-2.978 2.5-2.233 2.616-2.137 2.824-1.81 2.515-2.417 3.455-2.138 3.094-2.845 4.16-3.306 4.828-3.608 5.244-3.91 5.657-7.589 10.937-4.311 6.21-4.326 6.233-4.525 6.523-4.166 6.062-3.544 5.263-3.928 5.977-3.09 4.832-2.308 3.703-3.763 6.289-1.487 2.588-3.47 6.274-3.112 5.878-3.167 6.19-3.055 6.122-1.565 3.19-2.813 5.809-2.575 5.36-1.396 2.906-1.793 3.693-1.71 3.434-2.116 4.064-1.819 3.234-2.267 3.501-2.766 3.348-3.414 2.838-2.863 1.45-2.038.55-.606.096-.767.081-2.406-.027-2.26-.421-2.13-.785-1.038-.54-.952-.599-1.18-.907-1-.947-1.338-1.535-1.093-1.355-1.598-1.942-1.423-1.725-1.945-2.364-2.117-2.573-2.995-3.629-2.822-3.408-3.87-4.637-3.298-3.9-4.467-5.205-4.261-4.884-5.244-5.906-4.532-5.013-5.885-6.39-5.359-5.703-5.822-6.058-6.6-6.669-6.543-6.365-5.983-5.607-5.797-5.215-5.027-4.317-4.313-3.534-4.59-3.588-4.62-3.415-4.624-3.176-2.691-1.703-4.377-2.498-2.745-1.388-2.994-1.317-2.453-.874-3.235-.862-3.238-.536-3.211-.113-2.221.22-3.015.724-2.033.782-2.954 1.53-1.994 1.185-3.097 1.943-2.327 1.584-3.141 2.313-2.462 1.957-3.083 2.645-2.53 2.351-2.914 2.957-3.456 3.908-3.193 4.063-2.425 3.368-3.023 4.512-3.105 4.91-3.446 5.626-3.583 6.043-2.82 4.897-3.783 6.733-3.864 7.077-3.737 6.965-4.126 7.643-4.272 7.849-4.375 8.062-4.464 8.268-3.739 6.957-4.341 8.109-3.585 6.702-4.77 8.921-3.997 7.456-4.945 9.18-3.851 7.117-4.225 7.781-3.966 7.287-5.258 9.613-4.082 7.406-5.102 9.158-3.89 6.898-5.591 9.817-4.31 7.55-5.338 9.335-5.672 9.907-5.61 9.784-5.135 8.943-5.192 9.032-4.454 7.737-4.323 7.497-3.455 5.959-3.59 6.146-3.266 5.55-2.238 3.778-2.281 3.812-1.969 3.253-2.24 3.653-1.813 2.905-2.373 3.723-1.815 2.787-2.375 3.57-1.823 2.659-2.258 3.2-1.799 2.482-1.798 2.436-1.221 1.661-1.484 2.127-1.011 1.602-.708 1.248-1.629 3.874-.784 3.985-.004 3.936.588 3.673 1.237 4.772 2.17 5.87 3.442 7.25 4.615 7.86 5.658 7.817 7.207 7.995 7.907 6.866 4.744 3.484 4.59 3.043 3.818 2.28 5.12 2.677 4.915 2.107 4.283 1.468 4.087 1.141 4.05.98 3.07.697 3.943.937 3.619.96 5.247 1.628 2.1.794 2.021.91 4.026 2.56 1.96 1.931 1.847 2.761 1.117 2.726.759 3.19.372 3.136.145 3.533-.074 7.556-.079 8.204.05 8.204.581 9.297 1.496 9.934 2.277 9.008 1.65 4.723 2.113 4.773 4.304 7.216 6.07 7.273 7.36 6.677 8.675 6.855 7.337 5.782 5.755 4.615 4.575 3.707 5.778 4.73 4.354 3.592 5.678 4.714 5.949 4.955 5.452 4.557 3.242 2.717 4.846 4.07 6.268 5.291 7.963 6.95 3.446 3.374 3.088 3.597 3.747 5.848 2.664 5.923 1.63 4.12.719 1.777 3.93 8.798 1.914 3.86 1.392 2.665 1.737 3.164 1.562 2.682 1.737 2.785 2.063 2.971 2.151 2.559 1.958 1.789 2.418 1.572 2.362.969 2.863.54h2.112l2.281-.373 1.885-.622 2.1-1.084 1.118-.785 1.026-.878 1.532-1.66 2.248-3.32.938-1.791.783-1.776.958-2.614.721-2.337.885-3.283.668-2.77.973-4.425.762-3.815.974-5.205.896-5.017 1.138-6.69.906-5.574 1.18-7.352 1.025-6.344 1.365-8.235 1.472-8.674 1.651-9.679 1.634-9.526 1.737-9.898 1.606-8.964 1.908-10.564 2.073-11.586 2.122-11.957.89-5.019 2.07-11.688 2.113-11.961 2.287-12.97 2.34-13.254 2.138-11.898 5.55-29.79 2.9-15.015 2.611-13.188 2.71-12.945 2.378-10.463 2.909-11.785 2.465-9.352 3.618-12.893 2.755-9.21 3.854-12.119 2.396-7.172 4.022-11.541 4.211-11.637 4.337-11.713 4.624-12.299 4.117-10.87 3.083-8.111 3.632-9.558 2.739-7.252 2.043-5.43 2.039-5.416 1.993-5.293 1.97-5.232 1.482-3.942 1.842-4.9 1.44-3.837 1.62-4.318 1.4-3.722 1.64-4.289 1.1-2.745 1.314-3.014 1.28-2.51 1.697-2.654 1.64-1.902 2.348-1.891 2.807-1.365 2.742-.659 2.228-.117 2.818.317 2.664.687 2.517.996 1.946 1.044 2.208 1.528 1.693 1.427 2.272 2.216 1.86 1.953 2.733 2.881 2.375 2.43 3.51 3.45 2.755 2.615 4.284 3.963 4.443 4 4.544 3.973 4.239 3.601 5.951 4.895 4.831 3.874 6.66 5.254 5.315 4.15 7.152 5.59 5.546 4.379 7.192 5.787 6.605 5.419 6.464 5.41 6.325 5.381 11.207 9.564 11.349 9.538 11.269 9.01 11.516 8.814 10.688 7.736 11.436 7.593 11.365 6.975 5.868 3.308 5.955 2.895 4.946 1.92 6.19 1.728 6.232 1.052 6.576.663 6.095.59 6.372.688 4.802.567 5.806.74 4.714.634 5.048.707 5.516.8 4.696.696 4.044.598 4.55.715 3.614.739 4.713 1.599 2.976 1.684 3.825 3.526 2.052 3.23 1.252 3.527.393 2.3.083 3.756-.34 4.042-.316 3.34-.334 4.109-.229 3.876-.148 3.833-.057 2.6-.02 2.34.047 3.92.051 1.613.107 2.239.422 5.087.769 4.263.764 2.653 1.206 3.118 1.138 2.419 1.6 3.043 1.544 2.549 1.818 2.535 1.723 2.054 2.086 2.173 1.89 1.772 2.365 1.958 1.845 1.347 2.296 1.496 2.044 1.186 4.072 2 2.656 1.084 2.428.855 3.355.982 4.03.893 4.243.67 4.664.523 5.41.416 5.868.334 6.325.316 6.362.275 6.749.275 7.56.305 6.037.241 7.694.331 6.966.362 8.056.493 6.536.421 8.435.541 4.9.313 7.741.492 6.68.42 7.527.471 6.01.374 7.558.466 5.459.335 6.661.406 11.455.69 3.822.23 2.534.152 1.907.115 2.434.145 1.829.11 2.217.13 1.772.087 2.145.053 1.844-.04 2.059-.185 1.742-.32 1.88-.607 1.414-.686 1.584-1.037 1.15-.975 1.232-1.336.907-1.266.836-1.528.487-1.186.468-1.608.321-1.612.282-1.69.28-1.813.284-2.014.334-2.353.42-2.898.342-2.29.569-3.608.509-3.05.769-4.355.664-3.57.952-4.83.77-3.677.987-4.456 1.108-4.634 1.123-4.267 1.32-4.418 1.547-4.255 1.88-4.024 1.735-2.853 4.968-5.618 3.097-2.394 3.352-1.905 3.546-1.34 2.287-.544 3.862-.491 3.633-.164 4.473.016 4.22.167 4.842.245 4.812.215 6.14.251 4.74.214 6.117.306 4.61.252 5.947.351 5.511.35 5.427.355 5.68.38 5.593.38 5.492.38 4.944.347 3.652.26 4.495.324 3.61.267 3.657.288 3.38.3 5.728.755 5.492 1.592 4.348 2.588 3.377 3.703 1.303 2.29.977 2.576.642 2.576.534 2.908.356 2.642.37 3.616.323 3.49.467 4.259.54 3.475.516 2.624 1 4.102 1.232 3.963 1.607 4.025 1.793 3.582 1.246 2.133 1.34 2.068 2.379 3.21 1.644 1.934 3.076 3.136 2.59 2.246 3.701 2.708 3.09 1.89 4.124 2.092 3.61 1.495 4.748 1.614 5.446 1.437 5.597 1.105 6.113.887 7.104.719 7.333.538 8.423.675 6.855.586 9.526.723 8.314.51 10.006.525 8.505.424 11.597.595 9.928.538 12.458.722 12.734.743 22.161 1.281 20.99 1.235 16.953 1.048 15.104.927 14.335.812 10.882.54 8.428.27 5.092.052 5.336-.076 9.192-.843 4.373-1.075 3.547-1.445 4.172-2.59 3.076-2.632 3.664-3.608 3.64-3.769 7.24-8.227 7.177-9.17 6.24-9.034 5.881-9.731 2.233-4.087 2.1-4.086 2.411-5.034 1.836-4.117 2.252-5.468 1.605-4.278 1.772-5.405 1.54-5.918.965-5.721.34-5.79-.66-10.966-1.226-10.764-1.515-12.53-1.843-13.526-2.153-14.682-2.499-16.629z" stroke-width="28" stroke="#000" fill="none"/>
  <path d="m716.048 63.431-1.293-10.271-1.004-7.998-1.356-10.7-.98-7.674-1.424-11.034-1.115-8.56-1.492-11.351-1.26-9.48-1.594-11.653-2.536-18.056-3.097-21.923-1.606-11.402-1.395-9.917-1.554-11.084-1.442-10.286-1.241-8.88-1.487-10.648-1.379-9.881-1.44-10.356-1.335-9.615-1.4-10.076-1.055-7.612-1.29-9.335-1.055-7.65-1.392-10.09-1.07-7.79-1.41-10.274-1.087-7.922-1.43-10.445-1.101-8.049-1.447-10.601-1.199-8.793-1.462-10.744-1.194-8.79-1.284-9.464-1.045-7.727-1.121-8.283-.828-6.127-.93-6.89-.904-6.707-.361-2.69-.52-3.843-.68-4.95-.527-3.73-.738-4.799-.724-3.867-2.053-6.838-1.8-3.6-1.963-2.815-2.925-2.922-3.391-2.188-4.167-1.509-3.823-.514-4.014.026-3.958.142-4.026.093-4.234-.048-3.424-.194-4.15-.424-10.04-1.931-5.09-1.587-4.992-2.013-4.598-2.293-8.311-5.39-4.509-3.728-4.302-4.202-6.466-7.653-6.428-8.289-6.885-7.026-8.359-5.18-9.504-2.497-9.171.482-7.91 3.251-6.214 5.786-3.605 7.147-1.288 4.705-.927 4.43-1.587 9.425-1.447 10.998-1.435 12.535-1.149 12.445-.495 7-.344 7.05-.108 7.567.282 7.66.517 5.942 1.068 7.39 1.722 7.87 2.34 7.79 1.449 4.08 2.985 7.66 2.39 5.857 3.095 7.806 2.266 6.033 2.805 7.911 2.048 6.073 2.47 7.465 2.023 6.03 2.706 7.817 2.271 6.344 2.79 7.55 2.155 5.673 2.824 7.285 1.97 5.067 2.83 7.512 1.48 4.142 1.411 4.127 2.125 6.614.752 2.494 1.654 5.858 3.09 12.784 2.499 13.13 1.947 12.89.842 7.005.742 7.616.449 5.791.4 6.672.23 4.843.179 4.756.101 3.517.09 4.258.044 3.41.023 4.385-.015 3.549-.104 4.232-.22 3.414-.576 4.036-1.705 5.577-3.323 5.626-2.372 2.607-2.755 2.27-8.483 4.347-3.394 1.205-4.563 1.328-4.988 1.157-5.755 1.063-6.217.857-12.504.917-13.98.255-8.27-.009-8.682-.124-13.47-.383-16.824-.74-9.876-.512-10.337-.585-19.826-1.199-21.142-1.17-23.872-1.202-23.407-1.16-26.027-1.28-25.882-1.29-26.158-1.443-25.42-1.448-12.18-.702-12.794-.746-13.358-.81-13.132-.844-12.184-.832-17.169-1.324-5.153-.455-12.348-1.304-11.397-1.63-9.08-1.647-8.914-1.927-11.393-2.922-6.56-1.929-24.547-9.309-10.557-5.102-8.14-4.251-10.86-5.789-8.5-4.52L13-99.44l-8.767-4.82-10.88-6.188-10.977-6.48-11.064-6.75-9.764-6.051-11.305-6.994-10.007-6.143-9.358-5.725-7.204-4.396" stroke-width="12" stroke="#e73323" fill="none"/>
  <path d="m-78.486-154.302-11.428-6.946-9.862-5.966-11.816-7.092-9.605-5.718-10.796-6.374-10.859-6.355-9.367-5.436-7.028-4.03-7.465-4.245-5.958-3.402-7.019-4.088-6.339-3.755-5.61-3.354-5.637-3.38-5.032-3.009-4.658-2.652-3.965-1.957-3.908-1.459-3.758-.805-3.76-.147-2.965.42-3.594 1.291-5.137 3.96-2.194 2.661-2.283 3.055-1.699 2.387-2.462 3.528-2.174 3.154-2.891 4.232-3.358 4.9-3.661 5.317-3.964 5.729-3.48 5.017-4.188 6.032-4.327 6.234-4.315 6.217-4.51 6.505-4.144 6.05-3.524 5.258-3.9 5.969-6.918 11.119-5.075 8.87-3.365 6.258-3.03 5.848-3.279 6.513-6.987 14.361-4.708 9.738-1.714 3.41-2.006 3.8-1.842 3.208-6.668 8.025-3.247 2.024-2.436.84-2.218.317-1.088.02-1.387-.1-1.023-.168-1.211-.304-.94-.32-1.094-.474-2.004-1.194-2.278-2.036-2.475-2.996-3.03-3.67-4.36-5.3-6.02-7.276-7.106-8.437-8.878-10.229-9.9-11.017-11.329-12.134-6.212-6.426-6.594-6.606-6.14-5.925-6.267-5.827-5.314-4.734-4.897-4.171-4.308-3.5-4.863-3.761-6.264-4.503-5.658-3.614-3.995-2.218-2.624-1.293-2.991-1.269-2.458-.83-3.238-.807-3.426-.485-5.397.305-2.805.77-2.182.914-2.783 1.51-2.17 1.306-2.958 1.886-2.344 1.623-3.159 2.36-2.472 1.996-3.09 2.695-2.532 2.395-3.103 3.22-3.252 3.766-5.612 7.554-3.034 4.59-3.128 4.981-3.681 6.049-3.396 5.767-2.847 4.97-3.788 6.774-3.876 7.135-4.005 7.463-3.914 7.233-4.293 7.886-4.392 8.101-8.228 15.285-7.954 14.869-8.797 16.425-13.069 24.145-3.974 7.298-5.272 9.627-4.412 7.985-4.806 8.6-3.903 6.903-5.602 9.828-4.315 7.557-5.34 9.338-5.999 10.472-5.26 9.172-5.1 8.88-5.407 9.403-4.32 7.503-3.958 6.858-3.438 5.921-3.563 6.092-3.331 5.654-1.994 3.36-2.409 4.013-1.825 3.01-2.376 3.86-1.676 2.671-2.512 3.922-1.816 2.771-2.375 3.545-1.687 2.443-2.259 3.184-1.753 2.407-1.708 2.31-1.207 1.65-1.452 2.119-1.676 2.858-.826 1.794-.72 2.098-.429 1.86-.273 2.128-.056 1.847.124 2.075.231 1.647.434 2.176.459 1.906.83 2.864.926 2.65 1.355 3.339 1.453 3.19 2.113 4.165 1.894 3.362 2.852 4.552 2.454 3.518 3.535 4.55 3.178 3.658 3.922 4.008 3.37 3.056 4.607 3.711 4.772 3.441 4.614 2.996 3.84 2.239 5.425 2.735 4.768 1.939 4.188 1.364 4.078 1.094 6.868 1.596 3.927.95 3.822 1.04 3.07.939 4.003 1.488 3.136 1.596 2.78 2.033 1.87 2.002 1.816 3.021.938 2.594.709 3.446.283 2.957.107 3.565-.028 3.475-.066 4.147-.038 3.506-.031 4.76.001 3.771.076 4.485.186 3.996.51 5.667.564 4.166.987 5.451.954 4.077 1.51 5.172 1.731 4.676 2.063 4.437 1.767 3.15 2.825 4.226 2.435 3.077 3.606 3.902 3.08 2.904 4.422 3.76 3.67 2.923 5.118 3.99 4.12 3.24 3.286 2.612 5.803 4.664 4.604 3.739 5.796 4.752 4.681 3.87 5.318 4.42 5.931 4.942 5.4 4.516 5.338 4.48 6.298 5.305 4.147 3.525 1.651 1.422 2.314 2.032 3.77 3.524 3.238 3.506 3.879 5.472 2.223 4.311.785 1.81 1.652 4.14 2.38 5.815 1.086 2.457 2.137 4.547 1.895 3.784 1.39 2.633 1.857 3.339 1.46 2.47 1.863 2.93 1.982 2.766 2.2 2.497 1.997 1.707 2.61 1.54 2.21.786 2.98.43 1.918-.075 2.26-.443 1.858-.677 2.056-1.143 2.73-2.394 1.395-1.745.726-1.073.916-1.538.973-1.934.73-1.725.956-2.703.72-2.405.885-3.369.672-2.84.977-4.534.767-3.902.983-5.311.906-5.112 1.146-6.805.915-5.659 1.195-7.45 1.043-6.423 1.385-8.318 1.586-9.318 1.569-9.198 1.755-10.195 1.654-9.367 1.62-9.023 1.918-10.627.853-4.756 2.099-11.801 2.93-16.53 2.226-12.59 2.138-12.114 2.315-13.143 2.245-12.602 2.334-12.807 1.5-8.095 1.516-8.063 2.589-13.543 1.835-9.42 2.775-13.912 2.751-12.887 2.421-10.411 2.941-11.687 2.51-9.363 3.448-12.122 3.022-9.956 6.118-18.641" stroke-width="12" stroke="#4fafdf" fill="none"/>
  <path d="m-380.077 100.98 4.239-11.657 4.626-12.442 4.324-11.48 4.059-10.705 3.225-8.48 3.288-8.662 2.617-6.937 2.114-5.616 1.905-5.06 1.993-5.295 1.965-5.219 1.472-3.916 1.82-4.84 1.434-3.822 1.717-4.576 1.296-3.441 1.606-4.173 1.075-2.65 1.424-3.165 1.226-2.296 1.757-2.6 1.698-1.835 2.41-1.785 2.833-1.241 2.757-.552 2.218-.035 2.793.392 2.637.742 4.407 2.135 3.896 3.07 4.192 4.288 5.24 5.417 6.405 6.156 4.36 4.014 4.52 4.047 8.922 7.647 10.907 8.827 12.503 9.798 12.727 10.024 6.312 5.098 7.008 5.765 6.435 5.407 6.304 5.371 5.047 4.309 6.129 5.226 5.305 4.492 6.032 5 4.893 3.944 6.366 5.014 5.213 4.02 6.289 4.746 4.792 3.517 6.266 4.413 4.794 3.229 6.637 4.273 4.772 2.966 6.217 3.72 5.878 3.247 5.985 2.797 5.348 1.939 5.82 1.473 6.231.944 6.56.632 6.455.64 5.975.66 4.786.575 6.112.79 4.271.58 5.338.755 5.152.751 8.715 1.292 8.386 1.61 7.431 3.597 1.867 1.653 2.51 3.251 1.55 3.432.833 4.347-.038 4-.373 4.042-.29 3.12-.318 4.113-.214 3.874-.139 4.057-.04 2.355.003 3.95.11 3.88.23 3.808.11 1.325.483 3.688 1.417 5.36 2.504 5.665 1.532 2.837 1.574 2.517 3.598 4.52 4.004 3.886 4.226 3.236 4.356 2.63 2.103 1.062 1.997.9 2.721 1.08 2.692.911 3.231.898 4.116.86 4.323.64 5.052.526 5.52.387 5.614.31 6.4.311 6.852.29 6.84.278 7.191.289 6.087.244 8.245.369 6.498.352 8.565.536 6.02.389 8.409.539 5.372.342 7.712.489 6.183.389 7.51.468 6.42.399 7.032.434 5.388.33 6.564.399 3.594.217 3.278.198 4.493.27 3.314.198 2.46.148 1.892.113 2.426.146 1.824.108 2.21.128 1.765.081 2.27.036 1.704-.061 2.173-.237 1.602-.338 1.963-.71 1.277-.67 1.551-1.073 1.12-1 1.26-1.45.805-1.193.796-1.541.49-1.292.422-1.613.283-1.507.279-1.688.28-1.868.314-2.216.324-2.279.786-5.313 1.112-6.79 1.467-8.03 1.803-8.784.938-4.17 1.119-4.606 1.141-4.254 1.352-4.388 1.597-4.221 1.953-3.975 1.947-3.001 1.579-1.97 1.713-1.811 1.647-1.491 3.147-2.309 3.612-1.898 3.37-1.14 2.294-.477 4.175-.435 3.43-.11 4.542.055 4.281.189 5.248.261 4.533.194 6.166.256 4.731.217 6.455.33 4.246.238 5.927.354 5.495.353 5.755.378 5.322.356 5.574.38 5.471.38 8.71.617 7.774.571 3.535.283 3.35.306 2.507.283 3.376.564 2.349.59 2.897 1.068 2.03 1.075 2.223 1.634 1.656 1.65 1.596 2.133 1.233 2.322.907 2.591.616 2.63.516 2.977.34 2.704.364 3.69.331 3.553.503 4.281 1.481 7.615 1.203 4.275 1.4 3.86 1.79 3.894 4.74 7.542 3.263 3.878 2.964 2.912 2.85 2.376 3.555 2.497 3.144 1.853 4.19 2.04 3.663 1.456 4.808 1.565 5.532 1.389 5.692 1.062 6.618.894 6.818.635 7.933.577 8.047.664 6.94.587 18.042 1.202 10.102.518 8.582.43 11.684.603 9.998.552 12.52.73 13.508.786 9.7.561 11.595.668 9.708.566 11.022.66 7.806.481 8.871.553 7.166.442 8.249.499 6.183.356 7.487.408 5.303.272 5.314.244 8.406.244 5.08.035 5.637-.121 4.012-.27 4.822-.696 8.06-2.893 6.856-5.287 3.693-3.678 3.908-4.102 2.867-3.195 4.177-4.918 3.163-3.952 3.953-5.252 2.854-4.043 3.511-5.314 2.52-4.078 3.085-5.344 4.27-8.171 4.19-9.163 3.802-9.794 1.72-5.435 1.462-5.95.855-5.74.222-5.795-.214-4.73-.552-6.263-.547-4.934-.76-6.325-.634-5.364-.916-7.305-.778-5.797-1.04-7.39-.983-6.745-1.277-8.587-1.035-6.873-1.408-9.39" stroke-width="12" stroke="#f7d347" fill="none"/>
</svg>
