<?xml version="1.0" standalone="no"?>
<svg xmlns:xlink="http://www.w3.org/1999/xlink" id="s2" class="track" xmlns="http://www.w3.org/2000/svg" preserveAspectRatio="xMinYMid meet" height="800px" width="600px" viewBox="-1200 -700 3000 3000">
            <path d="M 716.0485 63.4313 L 714.7545 53.1595 L 713.7515 45.1621 L 712.3951 34.4616 L 711.4148 26.7885 L 709.9913 15.7541 L 708.8764 7.1934 L 707.3843 -4.1571 L 706.1235 -13.6372 L 704.5305 -25.2903 L 701.994 -43.3455 L 698.8974 -65.2687 L 697.2913 -76.6707 L 695.8965 -86.5879 L 694.3419 -97.6722 L 692.9 -107.9576 L 691.6588 -116.8384 L 690.1716 -127.4861 L 688.793 -137.3674 L 687.3527 -147.723 L 686.0175 -157.3384 L 684.6175 -167.4142 L 683.5628 -175.0257 L 682.2724 -184.3614 L 681.2177 -192.0118 L 679.8261 -202.1014 L 678.7566 -209.8909 L 677.3455 -220.1651 L 676.259 -228.0872 L 674.8293 -238.5315 L 673.7277 -246.5806 L 672.2814 -257.1822 L 671.0822 -265.9749 L 669.6196 -276.7195 L 668.4259 -285.5093 L 667.1423 -294.9728 L 666.0968 -302.7 L 664.9757 -310.9834 L 664.1482 -317.11 L 663.2188 -323.9997 L 662.314 -330.7071 L 661.9526 -333.3963 L 661.4321 -337.2401 L 660.7524 -342.1908 L 660.2263 -345.9209 L 659.4881 -350.719 L 658.7642 -354.5863 L 656.7105 -361.4241 L 654.9101 -365.0239 L 652.9483 -367.8388 L 650.0231 -370.7612 L 646.6318 -372.9494 L 642.4652 -374.4579 L 638.642 -374.9725 L 634.6281 -374.9461 L 630.6697 -374.8041 L 626.6441 -374.7113 L 622.4105 -374.7591 L 618.9858 -374.9529 L 614.8353 -375.377 L 604.7964 -377.3085 L 599.7053 -378.8951 L 594.7136 -380.9078 L 590.1161 -383.2015 L 581.8049 -388.591 L 577.2963 -392.319 L 572.9939 -396.5215 L 566.5281 -404.1736 L 560.1003 -412.4626 L 553.2155 -419.4891 L 544.856 -424.6692 L 535.3525 -427.1662 L 526.1805 -426.6837 L 518.2719 -423.4329 L 512.0565 -417.6465 L 508.4525 -410.4995 L 507.1636 -405.7949 L 506.2368 -401.3659 L 504.6496 -391.94 L 503.2026 -380.9425 L 501.7679 -368.4071 L 500.6191 -355.9617 L 500.1237 -348.9621 L 499.7798 -341.9117 L 499.6719 -334.3448 L 499.9539 -326.6853 L 500.471 -320.7429 L 501.5394 -313.353 L 503.2608 -305.4839 L 505.6011 -297.6927 L 507.0498 -293.613 L 510.0352 -285.9538 L 512.4245 -280.0956 L 515.5196 -272.29 L 517.7858 -266.2574 L 520.5912 -258.3455 L 522.6393 -252.2729 L 525.1091 -244.8078 L 527.1323 -238.7783 L 529.838 -230.9611 L 532.109 -224.6168 L 534.899 -217.0666 L 537.0538 -211.3942 L 539.878 -204.1091 L 541.8481 -199.0418 L 544.6787 -191.5299 L 546.1575 -187.3879 L 547.5695 -183.2609 L 549.6944 -176.6467 L 550.4456 -174.1532 L 552.1 -168.2953 L 555.1895 -155.5112 L 557.6886 -142.3811 L 559.6365 -129.4919 L 560.4777 -122.4864 L 561.2203 -114.87 L 561.669 -109.0788 L 562.0696 -102.407 L 562.2994 -97.5643 L 562.4778 -92.808 L 562.579 -89.2913 L 562.6687 -85.033 L 562.7133 -81.6239 L 562.7355 -77.2382 L 562.721 -73.6892 L 562.6166 -69.4574 L 562.3962 -66.0425 L 561.8211 -62.0069 L 560.1161 -56.43 L 556.7931 -50.8044 L 554.4211 -48.1972 L 551.6663 -45.9276 L 543.1835 -41.5796 L 539.7885 -40.3749 L 535.2264 -39.0472 L 530.2384 -37.8904 L 524.483 -36.8269 L 518.2656 -35.9699 L 505.7623 -35.0526 L 491.7819 -34.7977 L 483.5123 -34.8067 L 474.8305 -34.9314 L 461.3591 -35.3138 L 444.5362 -36.0542 L 434.6596 -36.5663 L 424.3235 -37.151 L 404.4968 -38.3497 L 383.3551 -39.5207 L 359.4832 -40.7225 L 336.0763 -41.8827 L 310.0492 -43.1614 L 284.1667 -44.4513 L 258.0086 -45.8947 L 232.5895 -47.3427 L 220.4093 -48.0448 L 207.6152 -48.7915 L 194.257 -49.6015 L 181.1251 -50.4448 L 168.9411 -51.2769 L 151.7724 -52.6013 L 146.619 -53.0558 L 134.2709 -54.3598 L 122.8741 -55.9892 L 113.7941 -57.6374 L 104.88 -59.5644 L 93.4868 -62.4864 L 86.9277 -64.4149 L 62.3803 -73.7238 L 51.8228 -78.826 L 43.6831 -83.077 L 32.8227 -88.8656 L 24.3239 -93.3857 L 12.9986 -99.4398 L 4.2316 -104.2608 L -6.6481 -110.4478 L -17.6251 -116.9272 L -28.689 -123.6778 L -38.4533 -129.7293 L -49.7585 -136.7233 L -59.7653 -142.8658 L -69.1229 -148.5907 L -76.3275 -152.9872 L -87.7836 -159.9552 L -97.6699 -165.9427 L -108.8291 -172.6537 L -118.4659 -178.4021 L -129.9931 -185.2211 L -141.0023 -191.675 L -150.5235 -197.2088 L -157.6705 -201.319 L -165.2698 -205.6436 L -171.3397 -209.1018 L -178.1208 -213.0326 L -184.5757 -216.8457 L -190.6098 -220.4467 L -196.3019 -223.8597 L -201.3951 -226.9114 L -206.2022 -229.6874 L -210.2495 -231.7538 L -214.1406 -233.3027 L -217.8881 -234.2206 L -221.6574 -234.4988 L -224.6485 -234.1932 L -228.3101 -233.0465 L -230.635 -231.7709 L -233.6133 -229.2704 L -235.8456 -226.6548 L -237.9833 -223.8309 L -239.7928 -221.3158 L -242.2102 -217.8611 L -244.3484 -214.7672 L -247.1933 -210.6064 L -250.4988 -205.7794 L -254.1065 -200.5352 L -258.0169 -194.878 L -265.606 -183.9413 L -269.9171 -177.7306 L -274.243 -171.4978 L -278.7678 -164.9748 L -282.9337 -158.9134 L -286.4783 -153.6505 L -290.4057 -147.6729 L -293.4953 -142.8411 L -295.8041 -139.1377 L -299.5668 -132.849 L -301.0541 -130.2614 L -304.5242 -123.9866 L -307.6357 -118.1092 L -310.8033 -111.9196 L -313.858 -105.7969 L -315.4225 -102.6068 L -318.2365 -96.7984 L -320.8107 -91.4382 L -322.2065 -88.5317 L -324.0002 -84.8386 L -325.7107 -81.4052 L -327.8264 -77.3411 L -329.6449 -74.1066 L -331.9123 -70.606 L -334.6779 -67.258 L -338.0922 -64.4201 L -340.9555 -62.9707 L -342.9925 -62.4204 L -343.5993 -62.3242 L -344.3657 -62.2428 L -346.7723 -62.2697 L -349.0316 -62.6915 L -351.1613 -63.4758 L -352.2004 -64.0158 L -353.1515 -64.6146 L -354.3318 -65.5225 L -355.3325 -66.4692 L -356.6702 -68.004 L -357.7626 -69.3589 L -359.3614 -71.3007 L -360.7842 -73.0256 L -362.729 -75.3897 L -364.8463 -77.9629 L -367.8413 -81.5918 L -370.6634 -85.0001 L -374.5331 -89.6368 L -377.8314 -93.5369 L -382.2983 -98.7422 L -386.559 -103.6263 L -391.8026 -109.5321 L -396.3348 -114.5451 L -402.2195 -120.9343 L -407.5788 -126.6378 L -413.4011 -132.6961 L -420.0006 -139.3647 L -426.5443 -145.7299 L -432.5269 -151.337 L -438.3238 -156.5518 L -443.3509 -160.8685 L -447.6645 -164.4031 L -452.254 -167.9911 L -456.8736 -171.4056 L -461.498 -174.5822 L -464.1894 -176.2851 L -468.5663 -178.783 L -471.3105 -180.1705 L -474.3054 -181.4881 L -476.7582 -182.3624 L -479.9928 -183.2236 L -483.2314 -183.7601 L -486.4423 -183.8727 L -488.663 -183.6527 L -491.6777 -182.9285 L -493.711 -182.1472 L -496.6654 -180.617 L -498.6587 -179.4321 L -501.7556 -177.4891 L -504.0826 -175.9046 L -507.2241 -173.5919 L -509.6864 -171.6353 L -512.7686 -168.9901 L -515.2989 -166.6389 L -518.2131 -163.6819 L -521.6686 -159.7741 L -524.8618 -155.7115 L -527.2869 -152.3435 L -530.3096 -147.8305 L -533.4151 -142.9205 L -536.8614 -137.2945 L -540.444 -131.2516 L -543.2634 -126.3546 L -547.0469 -119.6225 L -550.9114 -112.545 L -554.6479 -105.5796 L -558.7744 -97.9374 L -563.0461 -90.0884 L -567.4209 -82.0257 L -571.8848 -73.7577 L -575.624 -66.8012 L -579.9655 -58.6921 L -583.5497 -51.9896 L -588.3192 -43.0686 L -592.317 -35.6128 L -597.2618 -26.4322 L -601.1132 -19.3161 L -605.3385 -11.5348 L -609.3044 -4.2485 L -614.5618 5.3654 L -618.644 12.7708 L -623.7461 21.9289 L -627.6367 28.8269 L -633.2274 38.6442 L -637.5377 46.1948 L -642.8748 55.5294 L -648.5467 65.4357 L -654.1573 75.2203 L -659.2917 84.1628 L -664.4843 93.1951 L -668.9384 100.9321 L -673.2614 108.4292 L -676.716 114.3878 L -680.3058 120.5336 L -683.5718 126.0839 L -685.8098 129.8619 L -688.0911 133.6736 L -690.0598 136.927 L -692.2993 140.5801 L -694.1128 143.4846 L -696.4858 147.2085 L -698.3013 149.9947 L -700.676 153.5644 L -702.4988 156.2239 L -704.7574 159.4243 L -706.5557 161.9061 L -708.3543 164.3424 L -709.5752 166.0033 L -711.059 168.13 L -712.0703 169.7324 L -712.7782 170.98 L -714.4065 174.8535 L -715.1913 178.8386 L -715.1946 182.7746 L -714.6074 186.448 L -713.3701 191.2195 L -711.2005 197.0896 L -707.7579 204.3406 L -703.1434 212.2009 L -697.485 220.0173 L -690.2782 228.0117 L -682.3711 234.8779 L -677.6266 238.3624 L -673.0365 241.4047 L -669.2187 243.6842 L -664.0991 246.3622 L -659.1842 248.4687 L -654.9014 249.9374 L -650.8145 251.0781 L -646.7637 252.0583 L -643.6944 252.755 L -639.751 253.692 L -636.132 254.6526 L -630.8846 256.2797 L -628.7844 257.0737 L -626.7638 257.9843 L -622.7382 260.5436 L -620.778 262.4753 L -618.9314 265.2363 L -617.8141 267.9618 L -617.0552 271.1525 L -616.683 274.2882 L -616.5377 277.8214 L -616.6118 285.3774 L -616.6906 293.5807 L -616.641 301.7846 L -616.0599 311.0825 L -614.5642 321.0157 L -612.2869 330.0241 L -610.637 334.7465 L -608.524 339.5198 L -604.2197 346.7363 L -598.1493 354.0092 L -590.7899 360.686 L -582.115 367.5409 L -574.7776 373.3229 L -569.0232 377.9381 L -564.4482 381.6454 L -558.6696 386.3747 L -554.3161 389.9669 L -548.6379 394.6808 L -542.6893 399.6356 L -537.2375 404.1927 L -533.9945 406.9104 L -529.1495 410.9809 L -522.8812 416.271 L -514.9175 423.2209 L -511.4719 426.595 L -508.3841 430.1918 L -504.6374 436.0404 L -501.9725 441.9635 L -500.3439 446.0834 L -499.6244 447.8602 L -495.6931 456.6579 L -493.7804 460.5176 L -492.3875 463.1828 L -490.6511 466.347 L -489.0894 469.0285 L -487.3521 471.8139 L -485.2894 474.7851 L -483.138 477.344 L -481.1803 479.1326 L -478.7618 480.7055 L -476.4001 481.6739 L -473.5366 482.2135 L -471.4251 482.2133 L -469.1438 481.8409 L -467.2585 481.2194 L -465.1594 480.1353 L -464.0407 479.3496 L -463.0155 478.4716 L -461.4834 476.8123 L -459.2349 473.4918 L -458.2967 471.701 L -457.5137 469.9252 L -456.5559 467.3112 L -455.8347 464.9739 L -454.9496 461.6906 L -454.2819 458.9214 L -453.3089 454.4961 L -452.5471 450.6814 L -451.5732 445.4758 L -450.6772 440.4595 L -449.5389 433.7692 L -448.6328 428.1955 L -447.4533 420.8432 L -446.4279 414.4988 L -445.0629 406.2638 L -443.5911 397.59 L -441.9398 387.9112 L -440.3064 378.3851 L -438.5688 368.4874 L -436.9633 359.5227 L -435.0554 348.9586 L -432.9822 337.3729 L -430.8596 325.416 L -429.9699 320.3975 L -427.9003 308.709 L -425.787 296.7476 L -423.5003 283.7776 L -421.1609 270.5236 L -419.0219 258.626 L -413.4726 228.8359 L -410.5722 213.8206 L -407.961 200.6326 L -405.2516 187.6884 L -402.8731 177.225 L -399.9645 165.4398 L -397.4987 156.0878 L -393.8813 143.1945 L -391.1263 133.9847 L -387.2724 121.8664 L -384.8763 114.6936 L -380.8545 103.153 L -376.643 91.5158 L -372.3056 79.8027 L -367.6823 67.5041 L -363.5653 56.6331 L -360.4816 48.5228 L -356.8502 38.9647 L -354.1114 31.7128 L -352.0678 26.2827 L -350.0293 20.8675 L -348.0364 15.5743 L -346.0662 10.3423 L -344.5839 6.4004 L -342.7422 1.4999 L -341.3014 -2.3367 L -339.6813 -6.6546 L -338.2819 -10.3775 L -336.6422 -14.6656 L -335.5426 -17.4115 L -334.2279 -20.4255 L -332.9486 -22.9342 L -331.2505 -25.5891 L -329.6119 -27.4907 L -327.2631 -29.3824 L -324.4561 -30.7469 L -321.7142 -31.406 L -319.4856 -31.5226 L -316.6683 -31.2065 L -314.0036 -30.5194 L -311.4873 -29.5227 L -309.5409 -28.4786 L -307.3331 -26.9512 L -305.6397 -25.5238 L -303.3677 -23.3077 L -301.5081 -21.3548 L -298.7746 -18.4739 L -296.3997 -16.0441 L -292.8908 -12.5932 L -290.1353 -9.9791 L -285.8512 -6.0163 L -281.4077 -2.0157 L -276.8642 1.9566 L -272.625 5.558 L -266.6739 10.4527 L -261.8428 14.3269 L -255.1822 19.5807 L -249.8677 23.7301 L -242.7158 29.3203 L -237.1703 33.6999 L -229.9783 39.4875 L -223.3727 44.9056 L -216.9093 50.3151 L -210.5838 55.6974 L -199.3767 65.2606 L -188.0283 74.7985 L -176.759 83.8096 L -165.243 92.6233 L -154.555 100.3595 L -143.1187 107.9515 L -131.7543 114.9274 L -125.8863 118.2346 L -119.931 121.1297 L -114.9848 123.0507 L -108.7954 124.778 L -102.5632 125.8296 L -95.9871 126.4925 L -89.8922 127.0825 L -83.5197 127.7709 L -78.7179 128.3382 L -72.9121 129.0771 L -68.1978 129.7118 L -63.1498 130.4192 L -57.6339 131.2198 L -52.9383 131.9147 L -48.8944 132.5133 L -44.3434 133.2281 L -40.7296 133.9666 L -36.0165 135.5659 L -33.0411 137.2497 L -29.2156 140.7764 L -27.1638 144.0061 L -25.9122 147.5328 L -25.5192 149.8328 L -25.4358 153.5887 L -25.7755 157.6314 L -26.0918 160.9704 L -26.4261 165.0797 L -26.6546 168.9565 L -26.8031 172.7891 L -26.8597 175.389 L -26.8793 177.7281 L -26.8333 181.6494 L -26.782 183.2619 L -26.6747 185.5009 L -26.2531 190.5882 L -25.4842 194.8511 L -24.7197 197.5043 L -23.5143 200.622 L -22.3763 203.0406 L -20.7764 206.0838 L -19.2319 208.6329 L -17.4137 211.1676 L -15.6906 213.2223 L -13.6049 215.395 L -11.7154 217.1665 L -9.3501 219.1248 L -7.5051 220.472 L -5.2085 221.9683 L -3.1649 223.154 L .9071 225.1531 L 3.5635 226.2377 L 5.991 227.0931 L 9.3456 228.0747 L 13.3762 228.9683 L 17.6192 229.6376 L 22.2828 230.1612 L 27.6934 230.5774 L 33.5614 230.9113 L 39.8856 231.2269 L 46.2484 231.5023 L 52.997 231.7772 L 60.5567 232.082 L 66.5945 232.3233 L 74.2877 232.654 L 81.2538 233.0158 L 89.3099 233.5087 L 95.846 233.9301 L 104.2806 234.4715 L 109.1805 234.7842 L 116.922 235.2755 L 123.6019 235.6964 L 131.1288 236.167 L 137.1399 236.5407 L 144.6969 237.0074 L 150.1558 237.342 L 156.8171 237.7479 L 168.2722 238.4389 L 172.094 238.6682 L 174.6282 238.8203 L 176.535 238.9348 L 178.9685 239.08 L 180.7979 239.1891 L 183.0148 239.3197 L 184.7868 239.4071 L 186.9325 239.4605 L 188.7755 239.4201 L 190.8346 239.2346 L 192.577 238.9156 L 194.4576 238.3083 L 195.8706 237.6217 L 197.4555 236.5851 L 198.6044 235.6099 L 199.8373 234.2736 L 200.7437 233.0081 L 201.5798 231.4797 L 202.0669 230.2938 L 202.535 228.6858 L 202.8564 227.074 L 203.1382 225.3845 L 203.4177 223.5706 L 203.7021 221.5574 L 204.0359 219.2036 L 204.4562 216.3061 L 204.7977 214.0154 L 205.3669 210.4084 L 205.8758 207.3587 L 206.6448 203.0026 L 207.3088 199.4338 L 208.2608 194.6031 L 209.0311 190.9258 L 210.0185 186.4695 L 211.1265 181.8356 L 212.2491 177.5686 L 213.5694 173.1511 L 215.1161 168.8962 L 216.9965 164.8719 L 218.7307 162.0191 L 223.6994 156.4014 L 226.7959 154.0073 L 230.1477 152.1017 L 233.6936 150.7619 L 235.9807 150.2184 L 239.8434 149.7269 L 243.4755 149.5627 L 247.9493 149.5792 L 252.1695 149.7465 L 257.0111 149.9911 L 261.8227 150.2061 L 267.9621 150.4572 L 272.7022 150.6705 L 278.8204 150.9766 L 283.4301 151.2293 L 289.3769 151.58 L 294.888 151.9299 L 300.3148 152.2854 L 305.9948 152.6641 L 311.5878 153.0444 L 317.0798 153.4242 L 322.0237 153.7716 L 325.6761 154.0317 L 330.1714 154.3556 L 333.7819 154.6229 L 337.4377 154.9108 L 340.8173 155.2103 L 346.5465 155.9659 L 352.0383 157.558 L 356.3858 160.1462 L 359.763 163.8485 L 361.066 166.1389 L 362.043 168.7149 L 362.6854 171.2909 L 363.2186 174.1991 L 363.5753 176.8415 L 363.9451 180.4566 L 364.2679 183.9467 L 364.7353 188.206 L 365.2753 191.6807 L 365.7914 194.3052 L 366.7902 198.4071 L 368.0229 202.3701 L 369.6296 206.3947 L 371.4227 209.977 L 372.6686 212.1103 L 374.0096 214.1776 L 376.388 217.3876 L 378.0323 219.3224 L 381.1077 222.4581 L 383.6978 224.7038 L 387.399 227.4118 L 390.4896 229.3014 L 394.6128 231.3938 L 398.2239 232.8894 L 402.9708 234.5028 L 408.4166 235.94 L 414.0142 237.0447 L 420.1275 237.9315 L 427.2312 238.6507 L 434.5643 239.1889 L 442.9872 239.8642 L 449.8423 240.45 L 459.3675 241.1734 L 467.6824 241.6839 L 477.688 242.2082 L 486.1932 242.6323 L 497.7898 243.2271 L 507.7184 243.7652 L 520.1756 244.4874 L 532.9098 245.2302 L 555.0712 246.5111 L 576.0613 247.7463 L 593.0142 248.7943 L 608.1177 249.7215 L 622.4526 250.5327 L 633.3345 251.0735 L 641.7629 251.3426 L 646.855 251.3954 L 652.1907 251.3193 L 661.3829 250.4761 L 665.7559 249.4014 L 669.3025 247.9558 L 673.4745 245.3651 L 676.5513 242.7341 L 680.2152 239.1257 L 683.8541 235.3575 L 691.0944 227.13 L 698.2721 217.9594 L 704.512 208.9257 L 710.3934 199.1949 L 712.6257 195.1085 L 714.7255 191.0222 L 717.1371 185.9881 L 718.9725 181.8709 L 721.2246 176.4034 L 722.83 172.1255 L 724.6025 166.7196 L 726.1423 160.8017 L 727.1069 155.0808 L 727.4473 149.291 L 726.7863 138.3252 L 725.5607 127.5609 L 724.0464 115.0303 L 722.2029 101.5049 L 720.0504 86.8227 L 717.5512 70.194 z" stroke-width="28" stroke="black" fill="none" id="Track"/><path d="M 716.0485 63.4313 L 714.7545 53.1595 L 713.7515 45.1621 L 712.3951 34.4616 L 711.4148 26.7885 L 709.9913 15.7541 L 708.8764 7.1934 L 707.3843 -4.1571 L 706.1235 -13.6372 L 704.5305 -25.2903 L 701.994 -43.3455 L 698.8974 -65.2687 L 697.2913 -76.6707 L 695.8965 -86.5879 L 694.3419 -97.6722 L 692.9 -107.9576 L 691.6588 -116.8384 L 690.1716 -127.4861 L 688.793 -137.3674 L 687.3527 -147.723 L 686.0175 -157.3384 L 684.6175 -167.4142 L 683.5628 -175.0257 L 682.2724 -184.3614 L 681.2177 -192.0118 L 679.8261 -202.1014 L 678.7566 -209.8909 L 677.3455 -220.1651 L 676.259 -228.0872 L 674.8293 -238.5315 L 673.7277 -246.5806 L 672.2814 -257.1822 L 671.0822 -265.9749 L 669.6196 -276.7195 L 668.4259 -285.5093 L 667.1423 -294.9728 L 666.0968 -302.7 L 664.9757 -310.9834 L 664.1482 -317.11 L 663.2188 -323.9997 L 662.314 -330.7071 L 661.9526 -333.3963 L 661.4321 -337.2401 L 660.7524 -342.1908 L 660.2263 -345.9209 L 659.4881 -350.719 L 658.7642 -354.5863 L 656.7105 -361.4241 L 654.9101 -365.0239 L 652.9483 -367.8388 L 650.0231 -370.7612 L 646.6318 -372.9494 L 642.4652 -374.4579 L 638.642 -374.9725 L 634.6281 -374.9461 L 630.6697 -374.8041 L 626.6441 -374.7113 L 622.4105 -374.7591 L 618.9858 -374.9529 L 614.8353 -375.377 L 604.7964 -377.3085 L 599.7053 -378.8951 L 594.7136 -380.9078 L 590.1161 -383.2015 L 581.8049 -388.591 L 577.2963 -392.319 L 572.9939 -396.5215 L 566.5281 -404.1736 L 560.1003 -412.4626 L 553.2155 -419.4891 L 544.856 -424.6692 L 535.3525 -427.1662 L 526.1805 -426.6837 L 518.2719 -423.4329 L 512.0565 -417.6465 L 508.4525 -410.4995 L 507.1636 -405.7949 L 506.2368 -401.3659 L 504.6496 -391.94 L 503.2026 -380.9425 L 501.7679 -368.4071 L 500.6191 -355.9617 L 500.1237 -348.9621 L 499.7798 -341.9117 L 499.6719 -334.3448 L 499.9539 -326.6853 L 500.471 -320.7429 L 501.5394 -313.353 L 503.2608 -305.4839 L 505.6011 -297.6927 L 507.0498 -293.613 L 510.0352 -285.9538 L 512.4245 -280.0956 L 515.5196 -272.29 L 517.7858 -266.2574 L 520.5912 -258.3455 L 522.6393 -252.2729 L 525.1091 -244.8078 L 527.1323 -238.7783 L 529.838 -230.9611 L 532.109 -224.6168 L 534.899 -217.0666 L 537.0538 -211.3942 L 539.878 -204.1091 L 541.8481 -199.0418 L 544.6787 -191.5299 L 546.1575 -187.3879 L 547.5695 -183.2609 L 549.6944 -176.6467 L 550.4456 -174.1532 L 552.1 -168.2953 L 555.1895 -155.5112 L 557.6886 -142.3811 L 559.6365 -129.4919 L 560.4777 -122.4864 L 561.2203 -114.87 L 561.669 -109.0788 L 562.0696 -102.407 L 562.2994 -97.5643 L 562.4778 -92.808 L 562.579 -89.2913 L 562.6687 -85.033 L 562.7133 -81.6239 L 562.7355 -77.2382 L 562.721 -73.6892 L 562.6166 -69.4574 L 562.3962 -66.0425 L 561.8211 -62.0069 L 560.1161 -56.43 L 556.7931 -50.8044 L 554.4211 -48.1972 L 551.6663 -45.9276 L 543.1835 -41.5796 L 539.7885 -40.3749 L 535.2264 -39.0472 L 530.2384 -37.8904 L 524.483 -36.8269 L 518.2656 -35.9699 L 505.7623 -35.0526 L 491.7819 -34.7977 L 483.5123 -34.8067 L 474.8305 -34.9314 L 461.3591 -35.3138 L 444.5362 -36.0542 L 434.6596 -36.5663 L 424.3235 -37.151 L 404.4968 -38.3497 L 383.3551 -39.5207 L 359.4832 -40.7225 L 336.0763 -41.8827 L 310.0492 -43.1614 L 284.1667 -44.4513 L 258.0086 -45.8947 L 232.5895 -47.3427 L 220.4093 -48.0448 L 207.6152 -48.7915 L 194.257 -49.6015 L 181.1251 -50.4448 L 168.9411 -51.2769 L 151.7724 -52.6013 L 146.619 -53.0558 L 134.2709 -54.3598 L 122.8741 -55.9892 L 113.7941 -57.6374 L 104.88 -59.5644 L 93.4868 -62.4864 L 86.9277 -64.4149 L 62.3803 -73.7238 L 51.8228 -78.826 L 43.6831 -83.077 L 32.8227 -88.8656 L 24.3239 -93.3857 L 12.9986 -99.4398 L 4.2316 -104.2608 L -6.6481 -110.4478 L -17.6251 -116.9272 L -28.689 -123.6778 L -38.4533 -129.7293 L -49.7585 -136.7233 L -59.7653 -142.8658 L -69.1229 -148.5907 L -76.3275 -152.9872" stroke-width="12" stroke="#e73323" fill="none" id="S1"/><path d="M -78.4862 -154.3024 L -89.9137 -161.2476 L -99.7763 -167.2139 L -111.5917 -174.306 L -121.1973 -180.0235 L -131.9933 -186.3979 L -142.8516 -192.7534 L -152.2191 -198.1885 L -159.2469 -202.2186 L -166.7124 -206.4636 L -172.6703 -209.8658 L -179.6885 -213.9542 L -186.0276 -217.7092 L -191.6378 -221.0629 L -197.2754 -224.4436 L -202.3071 -227.4519 L -206.9654 -230.1039 L -210.9296 -232.0606 L -214.8383 -233.5197 L -218.596 -234.3249 L -222.3567 -234.4718 L -225.3212 -234.0517 L -228.9146 -232.761 L -234.0523 -228.8009 L -236.2458 -226.1397 L -238.529 -223.0845 L -240.2276 -220.6983 L -242.6903 -217.1698 L -244.8639 -214.0158 L -247.7554 -209.784 L -251.1134 -204.8843 L -254.7745 -199.5668 L -258.7378 -193.8381 L -262.2187 -188.8212 L -266.4059 -182.7889 L -270.7325 -176.5554 L -275.0484 -170.3376 L -279.5571 -163.8329 L -283.7022 -157.7823 L -287.226 -152.5247 L -291.1269 -146.5563 L -298.0435 -135.4375 L -303.1189 -126.5664 L -306.4841 -120.3093 L -309.5143 -114.4607 L -312.7927 -107.9481 L -319.7804 -93.5867 L -324.4881 -83.8488 L -326.2025 -80.4389 L -328.2079 -76.6386 L -330.0505 -73.4309 L -336.7183 -65.4057 L -339.9653 -63.3818 L -342.4012 -62.5426 L -344.6191 -62.2254 L -345.7074 -62.2051 L -347.0936 -62.3057 L -348.117 -62.473 L -349.3284 -62.7772 L -350.2672 -63.0971 L -351.3615 -63.5712 L -353.3661 -64.7651 L -355.6435 -66.8012 L -358.1194 -69.7972 L -361.1482 -73.4675 L -365.5089 -78.7668 L -371.5294 -86.0429 L -378.6351 -94.48 L -387.5126 -104.7089 L -397.4135 -115.7263 L -408.7416 -127.8597 L -414.9543 -134.2862 L -421.5479 -140.8922 L -427.6878 -146.8172 L -433.9551 -152.6442 L -439.2689 -157.3784 L -444.1662 -161.5491 L -448.4745 -165.0491 L -453.337 -168.8105 L -459.6011 -173.3128 L -465.2592 -176.927 L -469.2543 -179.1445 L -471.8782 -180.438 L -474.8694 -181.7067 L -477.3273 -182.5372 L -480.5655 -183.3437 L -483.9908 -183.8289 L -489.3876 -183.5243 L -492.1928 -182.7534 L -494.3745 -181.8398 L -497.1578 -180.3308 L -499.328 -179.0236 L -502.2864 -177.1378 L -504.6302 -175.5154 L -507.789 -173.1547 L -510.2611 -171.1591 L -513.3516 -168.4639 L -515.8834 -166.0688 L -518.9856 -162.8485 L -522.2377 -159.0833 L -527.8502 -151.5287 L -530.884 -146.9384 L -534.0123 -141.958 L -537.6934 -135.909 L -541.0891 -130.1418 L -543.9357 -125.1711 L -547.7238 -118.3978 L -551.5999 -111.263 L -555.6052 -103.7999 L -559.5192 -96.5673 L -563.8115 -88.681 L -568.2039 -80.58 L -576.4318 -65.2949 L -584.3856 -50.4265 L -593.1832 -34.0013 L -606.2519 -9.8561 L -610.2261 -2.5583 L -615.4978 7.0686 L -619.9096 15.0541 L -624.7155 23.6544 L -628.6191 30.5567 L -634.2206 40.3854 L -638.5359 47.942 L -643.8768 57.2803 L -649.8746 67.7525 L -655.1349 76.9238 L -660.2352 85.8048 L -665.6418 95.2066 L -669.9626 102.7097 L -673.9199 109.568 L -677.3576 115.4893 L -680.9206 121.5814 L -684.252 127.2349 L -686.2464 130.5949 L -688.6545 134.6081 L -690.4803 137.6178 L -692.856 141.4776 L -694.5317 144.1491 L -697.0444 148.0711 L -698.8599 150.8424 L -701.2351 154.387 L -702.9216 156.8298 L -705.1807 160.0143 L -706.9337 162.4208 L -708.6424 164.7315 L -709.8486 166.3819 L -711.3011 168.4996 L -712.9766 171.3584 L -713.8031 173.1521 L -714.5223 175.2495 L -714.952 177.1093 L -715.2253 179.2377 L -715.2814 181.0854 L -715.1572 183.1602 L -714.926 184.8073 L -714.4916 186.9831 L -714.0334 188.8891 L -713.2021 191.7532 L -712.2768 194.403 L -710.9219 197.7418 L -709.4689 200.9319 L -707.3558 205.0966 L -705.4622 208.4591 L -702.6099 213.0113 L -700.1561 216.5294 L -696.6205 221.0797 L -693.4426 224.7369 L -689.5214 228.7449 L -686.1511 231.8008 L -681.5438 235.5121 L -676.7719 238.9535 L -672.1583 241.949 L -668.3188 244.1876 L -662.8932 246.9227 L -658.1251 248.8618 L -653.9375 250.2259 L -649.8585 251.3196 L -642.9913 252.916 L -639.0645 253.866 L -635.2416 254.9064 L -632.1724 255.845 L -628.1693 257.333 L -625.0333 258.9292 L -622.2524 260.9616 L -620.3827 262.9636 L -618.5673 265.9854 L -617.6293 268.5794 L -616.9202 272.0248 L -616.6373 274.9823 L -616.5295 278.5475 L -616.558 282.022 L -616.6235 286.1693 L -616.6623 289.6749 L -616.6935 294.4349 L -616.6916 298.2061 L -616.6164 302.6908 L -616.4301 306.687 L -615.9197 312.3544 L -615.3563 316.5204 L -614.369 321.9713 L -613.4153 326.0476 L -611.905 331.22 L -610.1738 335.8957 L -608.1108 340.3332 L -606.3444 343.4837 L -603.519 347.7087 L -601.0837 350.7861 L -597.4778 354.6879 L -594.3982 357.592 L -589.9764 361.3516 L -586.3065 364.2748 L -581.1877 368.2645 L -577.0674 371.5045 L -573.7824 374.1169 L -567.9791 378.7813 L -563.3751 382.5197 L -557.5788 387.2716 L -552.8977 391.1426 L -547.5797 395.5614 L -541.649 400.5043 L -536.2496 405.02 L -530.9106 409.5 L -524.6127 414.805 L -520.4656 418.3297 L -518.8146 419.7522 L -516.5015 421.7843 L -512.7303 425.3079 L -509.4928 428.8136 L -505.6144 434.2861 L -503.3914 438.5973 L -502.6064 440.4063 L -500.9535 444.5472 L -498.5743 450.3618 L -497.4882 452.8188 L -495.3505 457.3665 L -493.4557 461.1495 L -492.0652 463.7833 L -490.209 467.122 L -488.7487 469.5921 L -486.8856 472.5213 L -484.9045 475.2877 L -482.7036 477.7849 L -480.7069 479.492 L -478.0963 481.0319 L -475.8871 481.8179 L -472.9078 482.2481 L -470.9894 482.1725 L -468.7294 481.7299 L -466.8713 481.0529 L -464.8145 479.9104 L -462.0843 477.5163 L -460.6896 475.7714 L -459.9643 474.6982 L -459.0482 473.1598 L -458.0746 471.226 L -457.3443 469.501 L -456.3889 466.7979 L -455.6687 464.3929 L -454.7841 461.024 L -454.112 458.1842 L -453.1346 453.6498 L -452.3682 449.7479 L -451.3848 444.437 L -450.4795 439.3249 L -449.3334 432.5196 L -448.4182 426.8615 L -447.2233 419.4104 L -446.1805 412.9883 L -444.7946 404.6695 L -443.2088 395.3524 L -441.6405 386.1544 L -439.8847 375.959 L -438.2312 366.592 L -436.6108 357.5691 L -434.6926 346.9425 L -433.8401 342.186 L -431.741 330.3845 L -428.8109 313.8553 L -426.5848 301.2654 L -424.4472 289.1509 L -422.132 276.0078 L -419.8868 263.4063 L -417.5534 250.5986 L -416.0523 242.5036 L -414.537 234.441 L -411.9482 220.8982 L -410.1133 211.4771 L -407.3381 197.5658 L -404.5869 184.6793 L -402.1658 174.2677 L -399.2248 162.5812 L -396.7156 153.2175 L -393.2668 141.0963 L -390.2449 131.14 L -384.127 112.4985" stroke-width="12" stroke="#4fafdf" fill="none" id="S2"/><path d="M -380.0766 100.9794 L -375.8381 89.3233 L -371.2117 76.881 L -366.888 65.4019 L -362.8293 54.6958 L -359.6045 46.2161 L -356.3159 37.5541 L -353.6987 30.6166 L -351.5854 25.001 L -349.6804 19.941 L -347.6868 14.6463 L -345.722 9.4272 L -344.2496 5.5112 L -342.4307 .6707 L -340.9956 -3.151 L -339.279 -7.7266 L -337.9831 -11.1685 L -336.3767 -15.3412 L -335.3023 -17.9902 L -333.8782 -21.1557 L -332.6525 -23.4517 L -330.8947 -26.0524 L -329.1974 -27.8875 L -326.7861 -29.6723 L -323.9539 -30.913 L -321.1971 -31.4653 L -318.9788 -31.5005 L -316.1862 -31.1082 L -313.5493 -30.3663 L -309.1422 -28.2314 L -305.2458 -25.1618 L -301.054 -20.8733 L -295.8133 -15.4562 L -289.4094 -9.3002 L -285.0498 -5.2865 L -280.5294 -1.2386 L -271.6067 6.4085 L -260.6999 15.2347 L -248.1972 25.0327 L -235.4697 35.0573 L -229.1582 40.1549 L -222.15 45.92 L -215.7152 51.3273 L -209.4111 56.6984 L -204.364 61.0067 L -198.2354 66.233 L -192.9304 70.7255 L -186.8975 75.7246 L -182.0052 79.6687 L -175.6388 84.6834 L -170.4262 88.7027 L -164.1373 93.449 L -159.3454 96.9661 L -153.0789 101.3792 L -148.2852 104.6078 L -141.6484 108.8812 L -136.8764 111.8473 L -130.6591 115.5672 L -124.7814 118.8144 L -118.7965 121.611 L -113.448 123.5499 L -107.6273 125.0226 L -101.3966 125.9671 L -94.8377 126.5991 L -88.3824 127.2389 L -82.4074 127.8986 L -77.6206 128.4736 L -71.5094 129.2632 L -67.2379 129.8441 L -61.8995 130.5987 L -56.7476 131.3504 L -48.0333 132.642 L -39.647 134.2511 L -32.2157 137.8494 L -30.3488 139.5024 L -27.8396 142.753 L -26.2884 146.1845 L -25.4558 150.5317 L -25.4937 154.532 L -25.8674 158.5737 L -26.1571 161.6942 L -26.4749 165.8073 L -26.6886 169.6805 L -26.8279 173.7377 L -26.8689 176.0933 L -26.8649 180.0435 L -26.7548 183.9237 L -26.5255 187.7309 L -26.4147 189.056 L -25.9317 192.7437 L -24.5148 198.1034 L -22.0113 203.7692 L -20.4792 206.6055 L -18.9047 209.1229 L -15.3074 213.6432 L -11.3032 217.529 L -7.0768 220.7653 L -2.7206 223.3949 L -.6181 224.457 L 1.3792 225.3574 L 4.1001 226.4376 L 6.792 227.3482 L 10.023 228.2458 L 14.1392 229.1066 L 18.4615 229.7456 L 23.5141 230.2725 L 29.0339 230.6585 L 34.6485 230.9686 L 41.0481 231.2802 L 47.9001 231.57 L 54.7397 231.8476 L 61.9315 232.1369 L 68.0177 232.3806 L 76.263 232.7498 L 82.7611 233.1025 L 91.3257 233.6384 L 97.3462 234.0266 L 105.7547 234.5657 L 111.1274 234.9081 L 118.8392 235.3966 L 125.022 235.7857 L 132.5314 236.2544 L 138.9518 236.6528 L 145.9841 237.0866 L 151.3716 237.4163 L 157.9357 237.8157 L 161.5305 238.0331 L 164.8077 238.2307 L 169.3013 238.5007 L 172.6151 238.6994 L 175.0743 238.8469 L 176.9672 238.9604 L 179.3927 239.1057 L 181.2166 239.2141 L 183.4262 239.3419 L 185.1916 239.423 L 187.4625 239.4589 L 189.1661 239.3978 L 191.3388 239.1605 L 192.9406 238.8232 L 194.9037 238.113 L 196.1812 237.4426 L 197.732 236.3698 L 198.8513 235.3697 L 200.1128 233.9202 L 200.917 232.7269 L 201.7127 231.1859 L 202.2027 229.8941 L 202.6254 228.2813 L 202.9081 226.7739 L 203.1868 225.0861 L 203.4673 223.2177 L 203.7814 221.0018 L 204.1049 218.7231 L 204.8907 213.4097 L 206.0028 206.6201 L 207.4703 198.5904 L 209.2734 189.8065 L 210.2109 185.6355 L 211.33 181.0304 L 212.4713 176.776 L 213.8229 172.3877 L 215.4202 168.1669 L 217.3725 164.1925 L 219.3196 161.1906 L 220.8987 159.2212 L 222.6124 157.4099 L 224.2588 155.9189 L 227.4058 153.6104 L 231.018 151.7121 L 234.3882 150.5725 L 236.6825 150.0945 L 240.8571 149.6601 L 244.2873 149.5502 L 248.8286 149.6048 L 253.1102 149.7935 L 258.3584 150.0551 L 262.8911 150.2494 L 269.0574 150.5045 L 273.7882 150.7223 L 280.243 151.0526 L 284.4893 151.2896 L 290.4158 151.6443 L 295.9112 151.9966 L 301.6658 152.3748 L 306.9883 152.731 L 312.5618 153.1112 L 318.0332 153.4908 L 326.7436 154.1083 L 334.517 154.679 L 338.0519 154.9621 L 341.4023 155.2679 L 343.9095 155.551 L 347.2851 156.1145 L 349.6335 156.7055 L 352.5308 157.7733 L 354.5612 158.8476 L 356.7837 160.4817 L 358.4399 162.1318 L 360.0356 164.2651 L 361.2694 166.5865 L 362.1761 169.178 L 362.792 171.8087 L 363.3075 174.785 L 363.648 177.4891 L 364.0125 181.1794 L 364.343 184.7315 L 364.8463 189.0134 L 366.3273 196.6279 L 367.53 200.9025 L 368.9297 204.7626 L 370.7196 208.6574 L 375.4602 216.1986 L 378.7226 220.0769 L 381.6868 222.9886 L 384.5363 225.3653 L 388.0915 227.8616 L 391.2365 229.715 L 395.4262 231.7548 L 399.0893 233.2108 L 403.8969 234.7765 L 409.4287 236.165 L 415.121 237.2268 L 421.7386 238.1212 L 428.5571 238.7556 L 436.4901 239.3328 L 444.5372 239.9973 L 451.4774 240.5845 L 469.5191 241.7855 L 479.6212 242.3043 L 488.2031 242.7338 L 499.8872 243.3375 L 509.8852 243.8885 L 522.4059 244.6181 L 535.9131 245.4045 L 545.6136 245.9661 L 557.2076 246.634 L 566.9159 247.1995 L 577.9384 247.8604 L 585.7441 248.3412 L 594.6153 248.8937 L 601.7814 249.3362 L 610.03 249.835 L 616.2128 250.1909 L 623.7004 250.5988 L 629.0031 250.8713 L 634.3173 251.115 L 642.7228 251.3593 L 647.8023 251.3936 L 653.4397 251.273 L 657.4519 251.0036 L 662.2739 250.3065 L 670.3339 247.4142 L 677.1899 242.1268 L 680.8831 238.449 L 684.791 234.3475 L 687.6583 231.1524 L 691.8351 226.2341 L 694.9983 222.2823 L 698.9513 217.0298 L 701.8049 212.9871 L 705.3162 207.6729 L 707.8356 203.5951 L 710.9214 198.2506 L 715.1915 190.0796 L 719.3804 180.9175 L 723.1825 171.123 L 724.9033 165.6881 L 726.3651 159.7389 L 727.2197 153.9985 L 727.4425 148.2026 L 727.228 143.4732 L 726.6759 137.2102 L 726.1294 132.2765 L 725.3693 125.9514 L 724.7355 120.5866 L 723.8193 113.2822 L 723.0407 107.485 L 722.0008 100.0955 L 721.0176 93.3496 L 719.7411 84.7629 L 718.7058 77.8901 L 717.2983 68.4997" stroke-width="12" stroke="#f7d347" fill="none" id="S3"/></svg>