<?xml version="1.0" standalone="no"?>
<svg xmlns:xlink="http://www.w3.org/1999/xlink" id="s2" class="track" xmlns="http://www.w3.org/2000/svg" width="800" height="600" viewBox="-800 -1000 2000 2000">
        <path d="M 716.0485 63.4313 L 715.7438 61.0362 L 715.5143 59.2212 L 715.2115 56.8098 L 714.983 54.9892 L 714.7545 53.1595 L 714.4485 50.7121 L 714.2171 48.8684 L 713.9849 47.0201 L 713.7515 45.1621 L 713.5151 43.2898 L 713.2774 41.4069 L 712.9585 38.8913 L 712.7183 36.9979 L 712.3951 34.4616 L 712.1519 32.5524 L 711.9078 30.6358 L 711.6617 28.7158 L 711.4148 26.7885 L 711.0837 24.2103 L 710.8337 22.2691 L 710.5827 20.3217 L 710.3265 18.344 L 709.9913 15.7541 L 709.7364 13.794 L 709.4796 11.8198 L 709.1367 9.1834 L 708.8764 7.1934 L 708.5297 4.5449 L 708.0043 .5438 L 707.6508 -2.1375 L 707.3843 -4.1571 L 707.0281 -6.8499 L 706.7585 -8.879 L 706.3972 -11.5932 L 706.1235 -13.6372 L 705.7553 -16.3666 L 705.4772 -18.4167 L 705.1951 -20.4781 L 704.8171 -23.2223 L 704.5305 -25.2903 L 704.2417 -27.363 L 703.8558 -30.1279 L 703.5645 -32.2127 L 703.2725 -34.2938 L 702.8798 -37.0773 L 702.5848 -39.1643 L 702.2889 -41.2549 L 701.994 -43.3455 L 701.6014 -46.1188 L 701.3085 -48.1913 L 700.9189 -50.9483 L 700.6268 -53.0158 L 700.2401 -55.7543 L 699.9501 -57.8052 L 699.5603 -60.5689 L 699.2783 -62.5656 L 698.8974 -65.2687 L 698.6113 -67.2968 L 698.3271 -69.3155 L 697.9482 -71.9965 L 697.6663 -74.0034 L 697.2913 -76.6707 L 697.01 -78.6631 L 696.7305 -80.653 L 696.4522 -82.6343 L 696.1739 -84.6147 L 695.8965 -86.5879 L 695.5284 -89.2098 L 695.253 -91.17 L 694.8868 -93.7784 L 694.6143 -95.7268 L 694.3419 -97.6722 L 693.9786 -100.2563 L 693.7081 -102.19 L 693.4385 -104.1161 L 693.169 -106.0379 L 692.9 -107.9576 L 692.6334 -109.869 L 692.278 -112.4099 L 692.0114 -114.3118 L 691.6588 -116.8384 L 691.3951 -118.728 L 691.1315 -120.6134 L 690.7809 -123.1205 L 690.5192 -124.9966 L 690.1716 -127.4861 L 689.9108 -129.3475 L 689.5661 -131.824 L 689.3083 -133.6769 L 689.0505 -135.5226 L 688.793 -137.3674 L 688.4522 -139.8167 L 688.1973 -141.6504 L 687.8585 -144.0845 L 687.6055 -145.9066 L 687.3527 -147.723 L 687.0168 -150.1399 L 686.7658 -151.9468 L 686.5156 -153.7478 L 686.2656 -155.546 L 686.0175 -157.3384 L 685.6859 -159.7217 L 685.1907 -163.2832 L 684.8616 -165.6539 L 684.6175 -167.4142 L 684.2913 -169.7646 L 684.0482 -171.5214 L 683.805 -173.2775 L 683.5628 -175.0257 L 683.2411 -177.357 L 682.9999 -179.1041 L 682.7587 -180.8522 L 682.5156 -182.6071 L 682.2724 -184.3614 L 681.9482 -186.7082 L 681.705 -188.4717 L 681.4619 -190.239 L 681.2177 -192.0118 L 680.9736 -193.7836 L 680.7285 -195.5611 L 680.4003 -197.9324 L 680.1542 -199.7185 L 679.8261 -202.1014 L 679.58 -203.895 L 679.3339 -205.6891 L 679.0038 -208.0885 L 678.7566 -209.8909 L 678.425 -212.2968 L 678.176 -214.1073 L 677.844 -216.5256 L 677.595 -218.3452 L 677.3455 -220.1651 L 677.0125 -222.5973 L 676.7615 -224.4231 L 676.5099 -226.255 L 676.259 -228.0872 L 676.007 -229.924 L 675.6711 -232.3769 L 675.4191 -234.2192 L 675.0832 -236.6815 L 674.8293 -238.5315 L 674.4904 -241.0016 L 674.2365 -242.8571 L 673.9826 -244.7163 L 673.7277 -246.5806 L 673.3879 -249.0647 L 673.133 -250.9331 L 672.8781 -252.8058 L 672.5373 -255.3018 L 672.2814 -257.1822 L 672.0246 -259.0625 L 671.6828 -261.5717 L 671.425 -263.4575 L 671.0822 -265.9749 L 670.8244 -267.8681 L 670.5666 -269.7598 L 670.2222 -272.2863 L 669.9644 -274.1891 L 669.6196 -276.7195 L 669.3618 -278.6175 L 669.019 -281.1439 L 668.7628 -283.0302 L 668.4259 -285.5093 L 668.1773 -287.3403 L 667.9324 -289.1473 L 667.6913 -290.9244 L 667.3754 -293.2539 L 667.1423 -294.9728 L 666.9138 -296.6626 L 666.6125 -298.8885 L 666.3893 -300.5352 L 666.0968 -302.7 L 665.879 -304.3054 L 665.6652 -305.8862 L 665.4543 -307.4442 L 665.2471 -308.9778 L 664.9757 -310.9834 L 664.7774 -312.4529 L 664.5194 -314.3627 L 664.331 -315.7568 L 664.1482 -317.11 L 663.9128 -318.8553 L 663.7424 -320.1189 L 663.5775 -321.3405 L 663.4194 -322.5126 L 663.2188 -323.9997 L 663.0758 -325.0595 L 662.8957 -326.3983 L 662.7664 -327.3566 L 662.6003 -328.5909 L 662.4772 -329.5033 L 662.314 -330.7071 L 662.1929 -331.6064 L 662.0728 -332.5028 L 661.9526 -333.3963 L 661.8325 -334.2879 L 661.7124 -335.1766 L 661.5522 -336.3564 L 661.4321 -337.2401 L 661.2729 -338.4114 L 661.1528 -339.2883 L 661.0327 -340.162 L 660.8725 -341.3233 L 660.7524 -342.1908 L 660.6323 -343.0561 L 660.4716 -344.2062 L 660.3494 -345.0643 L 660.2263 -345.9209 L 660.101 -346.7747 L 659.9321 -347.9085 L 659.8022 -348.7567 L 659.6255 -349.8785 L 659.4881 -350.719 L 659.2971 -351.8322 L 659.1467 -352.664 L 658.9341 -353.7659 L 658.7642 -354.5863 L 658.5831 -355.4041 L 658.3913 -356.2129 L 658.1859 -357.017 L 657.9648 -357.8157 L 657.6459 -358.8651 L 657.3862 -359.6443 L 657.1089 -360.4133 L 656.7105 -361.4241 L 656.3893 -362.1696 L 656.0493 -362.902 L 655.6891 -363.6228 L 655.3096 -364.3301 L 654.9101 -365.0239 L 654.3473 -365.9243 L 653.9017 -366.5804 L 653.4351 -367.2195 L 652.9483 -367.8388 L 652.4416 -368.4369 L 651.9157 -369.0122 L 651.1831 -369.7444 L 650.6118 -370.2655 L 650.0231 -370.7612 L 649.2135 -371.3808 L 648.5882 -371.8143 L 647.949 -372.2203 L 647.2947 -372.5998 L 646.6318 -372.9494 L 645.729 -373.3732 L 645.0422 -373.6575 L 644.1126 -373.993 L 643.409 -374.2113 L 642.4652 -374.4579 L 641.7516 -374.6109 L 640.7985 -374.7722 L 640.0807 -374.8627 L 639.3649 -374.9285 L 638.642 -374.9725 L 637.6967 -375.0005 L 636.9843 -375.0036 L 636.038 -374.9897 L 635.3323 -374.9702 L 634.6281 -374.9461 L 633.9259 -374.92 L 633.2247 -374.8936 L 632.2953 -374.8599 L 631.5991 -374.8354 L 630.6697 -374.8041 L 629.97 -374.7821 L 629.2654 -374.7619 L 628.3214 -374.7385 L 627.6052 -374.7243 L 626.6441 -374.7113 L 625.9156 -374.7064 L 625.179 -374.7064 L 624.1857 -374.7151 L 623.4296 -374.7292 L 622.4105 -374.7591 L 621.6343 -374.7905 L 620.5871 -374.8445 L 619.7897 -374.8946 L 618.9858 -374.9529 L 618.1722 -375.0197 L 617.3502 -375.0953 L 616.5193 -375.1801 L 615.6829 -375.2737 L 614.8353 -375.377 L 613.6959 -375.5294 L 612.8309 -375.6556 L 611.669 -375.8393 L 610.7884 -375.9896 L 608.7094 -376.3857 L 607.8102 -376.5763 L 606.9069 -376.7802 L 605.7007 -377.0732 L 604.7964 -377.3085 L 603.8919 -377.5579 L 602.6898 -377.9105 L 601.7891 -378.1909 L 600.8939 -378.4839 L 599.7053 -378.8951 L 598.8167 -379.219 L 597.6357 -379.6724 L 596.7558 -380.027 L 595.5861 -380.5214 L 594.7136 -380.9078 L 593.8438 -381.308 L 592.9776 -381.7219 L 591.8272 -382.2955 L 590.9692 -382.7418 L 590.1161 -383.2015 L 588.9833 -383.8365 L 588.1389 -384.3289 L 587.0202 -385.0073 L 586.187 -385.5323 L 585.3552 -386.0736 L 584.2556 -386.8169 L 583.4344 -387.3929 L 582.6174 -387.9841 L 581.8049 -388.591 L 580.7291 -389.4235 L 579.9273 -390.0666 L 579.1313 -390.7245 L 577.2963 -392.319 L 576.5209 -393.0266 L 575.7503 -393.751 L 574.7372 -394.7364 L 573.9854 -395.4922 L 572.9939 -396.5215 L 572.2606 -397.3075 L 571.5361 -398.1047 L 570.8206 -398.9122 L 570.1153 -399.7284 L 569.42 -400.5532 L 568.7375 -401.3809 L 567.8417 -402.4942 L 567.1813 -403.3328 L 566.5281 -404.1736 L 565.8813 -405.0158 L 565.2403 -405.8581 L 564.6006 -406.7014 L 563.7399 -407.836 L 563.1176 -408.6538 L 562.2673 -409.7598 L 561.625 -410.5812 L 560.7579 -411.664 L 560.1003 -412.4626 L 559.4336 -413.2509 L 558.5299 -414.2834 L 557.8416 -415.0421 L 557.1409 -415.7895 L 556.1929 -416.7597 L 555.4677 -417.4697 L 554.7298 -418.1625 L 553.9799 -418.8356 L 553.2155 -419.4891 L 552.1763 -420.326 L 551.3795 -420.9275 L 550.5679 -421.505 L 549.4695 -422.2318 L 548.6299 -422.7468 L 547.776 -423.2361 L 546.6217 -423.8455 L 545.7433 -424.2711 L 544.856 -424.6692 L 543.9609 -425.0394 L 542.7552 -425.4906 L 541.8416 -425.7972 L 540.6191 -426.1619 L 539.6968 -426.4032 L 538.7686 -426.6174 L 537.5286 -426.8599 L 536.5963 -427.0098 L 535.3525 -427.1662 L 534.4189 -427.2508 L 533.4869 -427.3068 L 532.247 -427.3356 L 531.3199 -427.3229 L 530.399 -427.2807 L 529.1747 -427.1768 L 528.2689 -427.064 L 527.0679 -426.8665 L 526.1805 -426.6837 L 525.3011 -426.4707 L 524.434 -426.2286 L 523.5798 -425.9573 L 522.7238 -425.6514 L 521.6388 -425.2121 L 520.832 -424.8458 L 519.7838 -424.3158 L 519.019 -423.8876 L 518.2719 -423.4329 L 517.5441 -422.9525 L 516.6116 -422.2776 L 515.935 -421.7416 L 515.0696 -420.9919 L 514.4515 -420.4071 L 513.8562 -419.8007 L 513.1013 -418.9619 L 512.5653 -418.3119 L 512.0565 -417.6465 L 511.4188 -416.7342 L 510.9721 -416.0333 L 510.5527 -415.3196 L 510.0338 -414.3469 L 509.6735 -413.6021 L 509.3372 -412.8458 L 509.0217 -412.0742 L 508.728 -411.2938 L 508.4525 -410.4995 L 508.1942 -409.6938 L 507.8737 -408.6027 L 507.6484 -407.7718 L 507.4342 -406.93 L 507.1636 -405.7949 L 506.9693 -404.9309 L 506.7806 -404.0556 L 506.5966 -403.1709 L 506.4159 -402.2757 L 506.2368 -401.3659 L 506.0605 -400.4484 L 505.8857 -399.5172 L 505.7134 -398.5729 L 505.5434 -397.6134 L 505.3225 -396.3182 L 505.1607 -395.329 L 504.9513 -393.9907 L 504.7989 -392.9727 L 504.6496 -391.94 L 504.4549 -390.5464 L 504.3104 -389.4849 L 504.1658 -388.4111 L 504.0218 -387.3261 L 503.8294 -385.8603 L 503.6849 -384.7449 L 503.5403 -383.6181 L 503.3471 -382.0975 L 503.2026 -380.9425 L 503.0107 -379.3849 L 502.8671 -378.2026 L 502.7245 -377.012 L 502.5829 -375.8105 L 502.3963 -374.1918 L 502.2586 -372.9692 L 502.0774 -371.3227 L 501.9435 -370.0804 L 501.7679 -368.4071 L 501.6385 -367.145 L 501.4692 -365.4488 L 501.386 -364.5954 L 501.223 -362.8842 L 501.1035 -361.5924 L 500.9868 -360.2979 L 500.8357 -358.5678 L 500.7257 -357.2669 L 500.6191 -355.9617 L 500.5163 -354.6523 L 500.4182 -353.345 L 500.2942 -351.5946 L 500.2065 -350.2796 L 500.1237 -348.9621 L 500.0462 -347.6452 L 499.9741 -346.3258 L 499.9079 -345.0025 L 499.83 -343.2393 L 499.7798 -341.9117 L 499.7256 -340.1367 L 499.6954 -338.8071 L 499.6752 -337.4722 L 499.6656 -335.687 L 499.6719 -334.3448 L 499.691 -332.9998 L 499.7232 -331.6544 L 499.786 -329.8535 L 499.849 -328.4951 L 499.9539 -326.6853 L 500.0485 -325.3217 L 500.1575 -323.9504 L 500.2809 -322.5813 L 500.471 -320.7429 L 500.632 -319.3627 L 500.8112 -317.9803 L 501.0086 -316.5933 L 501.299 -314.7422 L 501.5394 -313.353 L 501.8883 -311.4985 L 502.1723 -310.1082 L 502.5819 -308.2561 L 502.911 -306.8698 L 503.2608 -305.4839 L 503.6295 -304.1021 L 504.1524 -302.2611 L 504.5672 -300.8848 L 505.1455 -299.0619 L 505.6011 -297.6927 L 506.0704 -296.3311 L 506.5538 -294.9709 L 507.0498 -293.613 L 507.7276 -291.8078 L 508.2479 -290.4538 L 508.776 -289.1032 L 509.4912 -287.3044 L 510.0352 -285.9538 L 510.7666 -284.1545 L 511.3197 -282.801 L 511.8714 -281.4511 L 512.4245 -280.0956 L 513.1696 -278.2556 L 513.7109 -276.9041 L 514.441 -275.0614 L 514.983 -273.6767 L 515.5196 -272.29 L 516.2267 -270.4395 L 516.7512 -269.0479 L 517.2706 -267.6553 L 517.7858 -266.2574 L 518.4596 -264.4038 L 518.9603 -263.0072 L 519.6193 -261.1437 L 520.108 -259.7437 L 520.5912 -258.3455 L 521.0703 -256.9451 L 521.5454 -255.543 L 522.1725 -253.675 L 522.6393 -252.2729 L 523.1023 -250.8726 L 523.5652 -249.4702 L 524.1824 -247.6046 L 524.6453 -246.2072 L 525.1091 -244.8078 L 525.7273 -242.9496 L 526.1938 -241.5568 L 526.6616 -240.1674 L 527.1323 -238.7783 L 527.6049 -237.3909 L 528.238 -235.5476 L 528.7153 -234.1684 L 529.3558 -232.3322 L 529.838 -230.9611 L 530.4845 -229.1356 L 530.9689 -227.7772 L 531.457 -226.4184 L 532.109 -224.6168 L 532.5973 -223.2748 L 533.0895 -221.934 L 533.7457 -220.1566 L 534.2399 -218.8273 L 534.899 -217.0666 L 535.3951 -215.749 L 536.0582 -214.0012 L 536.5555 -212.6953 L 537.0538 -211.3942 L 537.7198 -209.667 L 538.2189 -208.3779 L 538.7179 -207.0919 L 539.2159 -205.8108 L 539.878 -204.1091 L 540.3737 -202.8375 L 540.8671 -201.5699 L 541.3583 -200.3066 L 541.8481 -199.0418 L 542.4934 -197.3667 L 542.972 -196.1125 L 543.6023 -194.4421 L 544.0681 -193.1925 L 544.6787 -191.5299 L 545.1301 -190.2839 L 545.7213 -188.6275 L 546.1575 -187.3879 L 546.5883 -186.1473 L 547.1526 -184.4987 L 547.5695 -183.2609 L 547.9806 -182.0234 L 548.3865 -180.785 L 548.7855 -179.5463 L 549.3094 -177.8896 L 549.6944 -176.6467 L 550.0728 -175.4013 L 550.4456 -174.1532 L 550.9327 -172.4844 L 551.29 -171.2316 L 551.7577 -169.554 L 552.1 -168.2953 L 552.5481 -166.6103 L 552.8765 -165.3434 L 553.1989 -164.0727 L 553.515 -162.7982 L 553.9265 -161.0942 L 554.2281 -159.8106 L 554.6207 -158.0959 L 555.1895 -155.5112 L 555.4667 -154.2039 L 555.8224 -152.4761 L 556.0832 -151.17 L 556.3381 -149.8596 L 556.5876 -148.5459 L 556.9124 -146.791 L 557.1506 -145.4694 L 557.3836 -144.149 L 557.6886 -142.3811 L 557.9122 -141.0508 L 558.131 -139.721 L 558.3455 -138.3872 L 558.8258 -135.2681 L 559.0223 -133.9343 L 559.2758 -132.1552 L 559.4591 -130.8232 L 559.6365 -129.4919 L 559.8634 -127.7256 L 560.1832 -125.0919 L 560.3335 -123.7854 L 560.4777 -122.4864 L 560.6605 -120.7675 L 560.7909 -119.4897 L 560.9555 -117.7978 L 561.0733 -116.5331 L 561.2203 -114.87 L 561.3252 -113.6226 L 561.4579 -111.9651 L 561.5516 -110.7254 L 561.669 -109.0788 L 561.7509 -107.8546 L 561.8522 -106.2474 L 561.9227 -105.0638 L 562.0095 -103.5282 L 562.0696 -102.407 L 562.126 -101.3136 L 562.1945 -99.904 L 562.2419 -98.8809 L 562.2994 -97.5643 L 562.3389 -96.6123 L 562.3754 -95.6921 L 562.4089 -94.7974 L 562.4497 -93.6457 L 562.4778 -92.808 L 562.5042 -91.9867 L 562.5283 -91.1619 L 562.5585 -90.0978 L 562.579 -89.2913 L 562.605 -88.2197 L 562.6226 -87.4202 L 562.6395 -86.6217 L 562.6542 -85.8255 L 562.6687 -85.033 L 562.6804 -84.2421 L 562.6921 -83.4533 L 562.7045 -82.4065 L 562.7133 -81.6239 L 562.7197 -80.8423 L 562.7275 -79.8082 L 562.7309 -79.0336 L 562.7348 -78.0059 L 562.7355 -77.2382 L 562.7355 -76.218 L 562.7332 -75.456 L 562.7297 -74.6967 L 562.721 -73.6892 L 562.7114 -72.9359 L 562.6937 -71.9358 L 562.6757 -71.1875 L 562.6451 -70.197 L 562.6166 -69.4574 L 562.5822 -68.7185 L 562.5266 -67.7411 L 562.4767 -67.011 L 562.3962 -66.0425 L 562.3239 -65.3203 L 562.2398 -64.6017 L 562.1084 -63.6486 L 561.9926 -62.9296 L 561.8211 -62.0069 L 561.6744 -61.313 L 561.5125 -60.6235 L 561.3349 -59.9405 L 561.1418 -59.2658 L 560.9319 -58.597 L 560.7064 -57.9379 L 560.3803 -57.0714 L 560.1161 -56.43 L 559.7418 -55.5955 L 559.442 -54.9791 L 559.1262 -54.372 L 558.7963 -53.7778 L 558.4504 -53.1928 L 558.0914 -52.6219 L 557.5905 -51.8787 L 557.1974 -51.3336 L 556.7931 -50.8044 L 556.374 -50.2859 L 555.9446 -49.7832 L 555.4981 -49.2883 L 554.8931 -48.6587 L 554.4211 -48.1972 L 553.7727 -47.602 L 553.2704 -47.1688 L 552.7535 -46.7464 L 552.2217 -46.3348 L 551.6663 -45.9276 L 550.9236 -45.4166 L 550.3425 -45.0409 L 549.745 -44.6747 L 548.9265 -44.2031 L 548.2949 -43.8605 L 547.647 -43.5267 L 546.9734 -43.1963 L 546.0748 -42.7789 L 545.3746 -42.4702 L 544.6592 -42.1676 L 543.929 -41.871 L 543.1835 -41.5796 L 542.4235 -41.293 L 541.65 -41.0114 L 540.8617 -40.7347 L 539.7885 -40.3749 L 538.9653 -40.1118 L 538.1266 -39.8543 L 537.2753 -39.6047 L 536.4059 -39.3613 L 535.2264 -39.0472 L 534.3231 -38.8178 L 533.4028 -38.5946 L 532.1583 -38.3067 L 531.2056 -38.0958 L 530.2384 -37.8904 L 529.2552 -37.6898 L 527.9237 -37.4306 L 526.8979 -37.2407 L 525.5323 -37.0008 L 524.483 -36.8269 L 523.4178 -36.659 L 521.9774 -36.4452 L 520.8809 -36.2943 L 519.3958 -36.104 L 518.2656 -35.9699 L 516.7382 -35.8046 L 515.5765 -35.689 L 514.005 -35.5475 L 512.8103 -35.4511 L 511.1969 -35.3342 L 509.9704 -35.2563 L 508.3111 -35.1648 L 507.0484 -35.105 L 505.7623 -35.0526 L 504.052 -34.9944 L 502.7413 -34.9572 L 500.9757 -34.9154 L 499.6212 -34.8886 L 497.8235 -34.8588 L 496.4496 -34.8397 L 495.0666 -34.8237 L 493.658 -34.8105 L 491.7819 -34.7977 L 490.3539 -34.7917 L 488.4305 -34.7886 L 486.9716 -34.7901 L 485.0062 -34.7971 L 483.5123 -34.8067 L 482.0069 -34.82 L 480.4877 -34.8371 L 478.4517 -34.8655 L 476.9058 -34.8914 L 474.8305 -34.9314 L 473.2592 -34.9653 L 471.6751 -35.0024 L 470.0787 -35.0428 L 468.4686 -35.0865 L 466.312 -35.1494 L 464.672 -35.2008 L 463.0263 -35.2554 L 461.3591 -35.3138 L 459.6734 -35.3761 L 457.4278 -35.4639 L 455.7171 -35.5346 L 453.9915 -35.6091 L 451.6664 -35.7136 L 449.9083 -35.795 L 448.1319 -35.8791 L 446.3406 -35.9655 L 444.5362 -36.0542 L 442.7164 -36.1452 L 440.8834 -36.2384 L 439.0341 -36.334 L 437.1704 -36.4319 L 434.6596 -36.5663 L 432.7518 -36.6704 L 430.8332 -36.7769 L 428.2492 -36.9231 L 426.2894 -37.036 L 424.3235 -37.151 L 422.3359 -37.2691 L 420.3343 -37.3898 L 417.6414 -37.5545 L 415.6059 -37.6798 L 412.8708 -37.8476 L 410.797 -37.9738 L 408.7132 -38.0994 L 406.6116 -38.2249 L 404.4968 -38.3497 L 401.6595 -38.515 L 399.5092 -38.6386 L 397.3503 -38.7612 L 395.177 -38.8831 L 392.9883 -39.0044 L 390.048 -39.1651 L 387.8318 -39.2844 L 385.5959 -39.4032 L 383.3551 -39.5207 L 380.3423 -39.6764 L 378.0669 -39.7924 L 372.7242 -40.0615 L 370.4109 -40.1773 L 368.0744 -40.2941 L 364.9814 -40.4485 L 362.6289 -40.5658 L 359.4832 -40.7225 L 357.0814 -40.842 L 353.9203 -40.9991 L 351.5227 -41.1182 L 349.0848 -41.2392 L 345.8586 -41.399 L 343.4481 -41.5184 L 341.0011 -41.6394 L 338.5411 -41.761 L 336.0763 -41.8827 L 333.5988 -42.0049 L 330.2814 -42.1684 L 327.7835 -42.2913 L 324.4404 -42.4558 L 321.8648 -42.5823 L 319.3731 -42.7046 L 316.005 -42.8698 L 313.4587 -42.9946 L 310.0492 -43.1614 L 307.4847 -43.2867 L 304.9104 -43.4124 L 301.4685 -43.5804 L 298.894 -43.7062 L 296.3036 -43.8337 L 292.8244 -44.007 L 290.2451 -44.1373 L 286.7699 -44.3156 L 284.1667 -44.4513 L 281.5555 -44.5892 L 278.0689 -44.7763 L 275.4563 -44.9187 L 272.8327 -45.0632 L 269.3411 -45.2574 L 266.7327 -45.4034 L 264.1009 -45.5512 L 260.6138 -45.7476 L 258.0086 -45.8947 L 255.4005 -46.0423 L 251.951 -46.2377 L 249.3722 -46.3841 L 246.8026 -46.5303 L 244.2573 -46.6752 L 240.8681 -46.8686 L 238.3736 -47.0112 L 235.8824 -47.1538 L 232.5895 -47.3427 L 230.1367 -47.4836 L 227.6908 -47.6244 L 225.2608 -47.7645 L 222.8337 -47.9046 L 220.4093 -48.0448 L 217.9986 -48.1845 L 215.5871 -48.3246 L 212.4013 -48.5102 L 210.0099 -48.6503 L 207.6152 -48.7915 L 205.2453 -48.9323 L 202.0997 -49.121 L 199.7399 -49.2641 L 196.6096 -49.4558 L 194.257 -49.6015 L 191.1534 -49.7961 L 188.8308 -49.9436 L 186.5124 -50.0924 L 184.1797 -50.2439 L 181.1251 -50.4448 L 178.8218 -50.5982 L 176.5219 -50.753 L 173.4702 -50.9612 L 171.219 -51.117 L 168.9411 -51.2769 L 165.9364 -51.4922 L 163.6801 -51.6577 L 161.4356 -51.8261 L 159.1938 -51.9985 L 156.2176 -52.234 L 153.9919 -52.4155 L 151.7724 -52.6013 L 149.5553 -52.7924 L 146.619 -53.0558 L 144.4194 -53.2625 L 141.5069 -53.551 L 139.3244 -53.7799 L 136.425 -54.1034 L 134.2709 -54.3598 L 132.1135 -54.632 L 129.9687 -54.9188 L 127.8264 -55.2221 L 124.9721 -55.6529 L 122.8741 -55.9892 L 120.7615 -56.3447 L 118.6625 -56.7147 L 116.5695 -57.1003 L 113.7941 -57.6374 L 111.7217 -58.0578 L 109.6578 -58.4929 L 106.9233 -59.0952 L 104.88 -59.5644 L 102.8486 -60.0473 L 100.1519 -60.7138 L 98.1421 -61.2294 L 96.1409 -61.759 L 93.4868 -62.4864 L 91.5074 -63.048 L 89.5374 -63.624 L 86.9277 -64.4149 L 84.9838 -65.0262 L 83.0511 -65.6537 L 80.4895 -66.5172 L 78.5854 -67.1832 L 76.6865 -67.8682 L 74.1799 -68.805 L 72.3079 -69.5289 L 69.8166 -70.5251 L 67.9566 -71.2934 L 66.096 -72.0831 L 64.2384 -72.8926 L 62.3803 -73.7238 L 60.4857 -74.5932 L 58.0452 -75.7448 L 56.1815 -76.647 L 54.3178 -77.5675 L 51.8228 -78.826 L 49.956 -79.7845 L 48.079 -80.76 L 45.5703 -82.0779 L 43.6831 -83.077 L 41.1502 -84.4244 L 39.2419 -85.442 L 36.6824 -86.8076 L 34.7567 -87.8348 L 32.8227 -88.8656 L 30.2206 -90.2514 L 28.2617 -91.2935 L 26.3 -92.3362 L 24.3239 -93.3857 L 21.6775 -94.791 L 19.6845 -95.8509 L 17.6861 -96.9172 L 15.0091 -98.3536 L 12.9986 -99.4398 L 10.9818 -100.5363 L 8.2866 -102.0132 L 6.262 -103.1314 L 4.2316 -104.2608 L 2.1991 -105.3992 L .1653 -106.5463 L -1.8744 -107.7048 L -4.5994 -109.2651 L -6.6481 -110.4478 L -8.6999 -111.6407 L -11.4428 -113.2484 L -13.4998 -114.4639 L -15.562 -115.691 L -17.6251 -116.9272 L -19.6918 -118.1737 L -21.7663 -119.4327 L -24.5264 -121.1183 L -26.6046 -122.3939 L -28.689 -123.6778 L -31.4648 -125.3934 L -33.5526 -126.687 L -35.6472 -127.9868 L -38.4533 -129.7293 L -40.5588 -131.0361 L -43.379 -132.7839 L -45.497 -134.0942 L -47.6233 -135.4072 L -49.7585 -136.7233 L -52.6038 -138.4733 L -54.7477 -139.7897 L -57.6118 -141.5463 L -59.7653 -142.8658 L -61.9211 -144.1858 L -64.0795 -145.5068 L -66.9629 -147.2705 L -69.1229 -148.5907 L -72.0083 -150.3527 L -74.1669 -151.6698 L -76.3275 -152.9872 L -78.4862 -154.3024 L -81.3557 -156.0491 L -83.5045 -157.3559 L -85.6482 -158.6586 L -87.7836 -159.9552 L -89.9137 -161.2476 L -92.7447 -162.9636 L -94.8624 -164.2456 L -97.6699 -165.9427 L -99.7763 -167.2139 L -101.8765 -168.4793 L -103.9656 -169.736 L -106.7481 -171.4066 L -108.8291 -172.6537 L -111.5917 -174.306 L -113.6602 -175.5409 L -116.4097 -177.1792 L -118.4659 -178.4021 L -121.1973 -180.0235 L -123.2402 -181.2339 L -125.2767 -182.4386 L -127.9832 -184.0366 L -129.9931 -185.2211 L -131.9933 -186.3979 L -134.6244 -187.9431 L -136.5719 -189.0847 L -139.1189 -190.575 L -141.0023 -191.675 L -142.8516 -192.7534 L -144.6711 -193.8128 L -147.0526 -195.1969 L -148.7993 -196.2103 L -150.5235 -197.2088 L -152.2191 -198.1885 L -153.8871 -199.1497 L -155.5286 -200.0927 L -157.6705 -201.319 L -159.2469 -202.2186 L -160.7928 -203.0987 L -162.3094 -203.9611 L -163.8033 -204.8101 L -165.2698 -205.6436 L -166.7124 -206.4636 L -168.1314 -207.2708 L -169.981 -208.3249 L -171.3397 -209.1018 L -172.6703 -209.8658 L -174.4016 -210.865 L -175.6665 -211.5989 L -176.9035 -212.32 L -178.1208 -213.0326 L -179.6885 -213.9542 L -180.8443 -214.6358 L -182.3574 -215.5303 L -183.4704 -216.1897 L -184.5757 -216.8457 L -186.0276 -217.7092 L -187.1063 -218.352 L -188.1703 -218.987 L -189.5699 -219.824 L -190.6098 -220.4467 L -191.6378 -221.0629 L -192.9942 -221.8761 L -193.9973 -222.4776 L -194.9901 -223.0731 L -196.3019 -223.8597 L -197.2754 -224.4436 L -198.2423 -225.0234 L -199.2019 -225.599 L -200.1517 -226.1685 L -201.3951 -226.9114 L -202.3071 -227.4519 L -203.1921 -227.9716 L -204.3295 -228.6308 L -205.1493 -229.0984 L -206.2022 -229.6874 L -206.9654 -230.1039 L -207.7023 -230.4957 L -208.6503 -230.9825 L -209.3407 -231.3236 L -210.2495 -231.7538 L -210.9296 -232.0606 L -211.8409 -232.4497 L -212.5264 -232.7244 L -214.1406 -233.3027 L -214.8383 -233.5197 L -215.5378 -233.7161 L -216.2406 -233.892 L -217.1816 -234.0942 L -217.8881 -234.2206 L -218.596 -234.3249 L -219.5418 -234.4278 L -220.2481 -234.4764 L -220.9542 -234.5003 L -221.6574 -234.4988 L -222.3567 -234.4718 L -223.0515 -234.4189 L -223.7411 -234.3398 L -224.6485 -234.1932 L -225.3212 -234.0517 L -226.2008 -233.8218 L -226.8482 -233.6187 L -227.6928 -233.308 L -228.3101 -233.0465 L -228.9146 -232.761 L -229.5036 -232.4529 L -230.0787 -232.1218 L -230.635 -231.7709 L -231.8693 -230.8725 L -232.5307 -230.314 L -233.0055 -229.8765 L -233.6133 -229.2704 L -234.0523 -228.8009 L -234.6192 -228.1586 L -235.0346 -227.6647 L -235.4431 -227.1627 L -235.8456 -226.6548 L -236.2458 -226.1397 L -236.6449 -225.6185 L -237.0443 -225.091 L -237.581 -224.3744 L -237.9833 -223.8309 L -238.529 -223.0845 L -238.9441 -222.5093 L -239.3644 -221.9206 L -239.7928 -221.3158 L -240.2276 -220.6983 L -240.671 -220.0663 L -241.1232 -219.4199 L -241.5835 -218.7608 L -242.2102 -217.8611 L -242.6903 -217.1698 L -243.1781 -216.4654 L -243.6744 -215.7467 L -244.3484 -214.7672 L -244.8639 -214.0158 L -245.5626 -212.9942 L -246.0974 -212.2112 L -246.6406 -211.4156 L -247.1933 -210.6064 L -247.7554 -209.784 L -248.518 -208.6694 L -249.1025 -207.8159 L -249.6941 -206.9526 L -250.4988 -205.7794 L -251.1134 -204.8843 L -251.9477 -203.6703 L -252.5856 -202.743 L -253.4485 -201.4899 L -254.1065 -200.5352 L -254.7745 -199.5668 L -255.4525 -198.5847 L -256.3707 -197.2562 L -257.0704 -196.2447 L -258.0169 -194.878 L -258.7378 -193.8381 L -259.7132 -192.4316 L -260.4558 -191.3613 L -261.4585 -189.9165 L -262.2187 -188.8212 L -263.2465 -187.3406 L -264.0266 -186.2167 L -264.8133 -185.0834 L -265.606 -183.9413 L -266.4059 -182.7889 L -267.2097 -181.6309 L -268.2898 -180.0748 L -269.103 -178.9035 L -269.9171 -177.7306 L -270.7325 -176.5554 L -271.546 -175.3834 L -272.3582 -174.2134 L -273.1675 -173.0472 L -274.243 -171.4978 L -275.0484 -170.3376 L -276.1163 -168.7992 L -276.9152 -167.6479 L -277.9754 -166.119 L -278.7678 -164.9748 L -279.5571 -163.8329 L -280.3421 -162.6948 L -281.1246 -161.5575 L -281.9063 -160.4179 L -282.9337 -158.9134 L -283.7022 -157.7823 L -284.7194 -156.2768 L -285.4771 -155.1492 L -286.4783 -153.6505 L -287.226 -152.5247 L -288.2128 -151.0304 L -288.9487 -149.9096 L -289.6799 -148.7902 L -290.4057 -147.6729 L -291.1269 -146.5563 L -292.0811 -145.0683 L -292.79 -143.9553 L -293.4953 -142.8411 L -294.4256 -141.36 L -295.1184 -140.2478 L -295.8041 -139.1377 L -296.7088 -137.6575 L -297.3789 -136.5486 L -298.0435 -135.4375 L -298.9182 -133.9586 L -299.5668 -132.849 L -300.2097 -131.7379 L -301.0541 -130.2614 L -301.6819 -129.1505 L -302.5062 -127.6753 L -303.1189 -126.5664 L -303.9251 -125.0925 L -304.5242 -123.9866 L -305.1183 -122.8812 L -305.9164 -121.3833 L -306.4841 -120.3093 L -307.0618 -119.209 L -307.6357 -118.1092 L -308.2046 -117.0121 L -308.9568 -115.5507 L -309.5143 -114.4607 L -310.253 -113.0078 L -310.8033 -111.9196 L -311.5323 -110.4712 L -312.0746 -109.3888 L -312.7927 -107.9481 L -313.1501 -107.2284 L -313.858 -105.7969 L -314.3846 -104.7273 L -314.9055 -103.6649 L -315.4225 -102.6068 L -316.103 -101.209 L -316.6069 -100.1706 L -317.1046 -99.1428 L -317.595 -98.1281 L -318.2365 -96.7984 L -318.7095 -95.816 L -319.3275 -94.5303 L -319.7804 -93.5867 L -320.374 -92.3489 L -320.8107 -91.4382 L -321.3806 -90.2502 L -321.7979 -89.3812 L -322.2065 -88.5317 L -322.7376 -87.4309 L -323.1255 -86.6305 L -323.6299 -85.5948 L -324.0002 -84.8386 L -324.4881 -83.8488 L -324.8543 -83.1112 L -325.3426 -82.1347 L -325.7107 -81.4052 L -326.2025 -80.4389 L -326.5738 -79.7171 L -327.0713 -78.762 L -327.4472 -78.0499 L -327.8264 -77.3411 L -328.2079 -76.6386 L -328.7228 -75.709 L -329.114 -75.0187 L -329.6449 -74.1066 L -330.0505 -73.4309 L -330.6045 -72.542 L -331.0298 -71.8873 L -331.4655 -71.2417 L -331.9123 -70.606 L -332.5247 -69.7778 L -332.9984 -69.1713 L -333.6506 -68.3846 L -334.1561 -67.8133 L -334.6779 -67.258 L -335.3944 -66.5511 L -335.9515 -66.0446 L -336.7183 -65.4057 L -337.3049 -64.9607 L -338.0922 -64.4201 L -338.6739 -64.0609 L -339.2415 -63.7424 L -339.9653 -63.3818 L -340.4766 -63.1575 L -340.9555 -62.9707 L -341.5388 -62.7744 L -341.9339 -62.6601 L -342.4012 -62.5426 L -342.7108 -62.475 L -342.9925 -62.4204 L -343.2567 -62.375 L -343.5993 -62.3242 L -343.8554 -62.2921 L -344.1108 -62.2649 L -344.3657 -62.2428 L -344.6191 -62.2254 L -344.9565 -62.2098 L -345.2079 -62.2036 L -345.4584 -62.202 L -345.7074 -62.2051 L -345.9555 -62.2126 L -346.284 -62.2296 L -346.5286 -62.2475 L -346.7723 -62.2697 L -347.0936 -62.3057 L -347.3333 -62.3377 L -347.5701 -62.3736 L -347.8838 -62.4278 L -348.117 -62.473 L -348.3489 -62.5221 L -348.5789 -62.575 L -348.806 -62.6314 L -349.0316 -62.6915 L -349.3284 -62.7772 L -349.5486 -62.8455 L -349.7672 -62.9172 L -350.0543 -63.0178 L -350.2672 -63.0971 L -350.5472 -63.2076 L -350.7547 -63.2942 L -350.9593 -63.3835 L -351.1613 -63.4758 L -351.3615 -63.5712 L -351.6237 -63.7021 L -351.8175 -63.8036 L -352.0085 -63.9076 L -352.2004 -64.0158 L -352.3965 -64.1307 L -352.6648 -64.2948 L -352.8711 -64.4268 L -353.1515 -64.6146 L -353.3661 -64.7651 L -353.6575 -64.9793 L -353.8801 -65.151 L -354.1047 -65.3317 L -354.3318 -65.5225 L -354.561 -65.7233 L -354.8686 -66.0074 L -355.1 -66.2328 L -355.3325 -66.4692 L -355.6435 -66.8012 L -355.8778 -67.062 L -356.1136 -67.3337 L -356.3553 -67.6207 L -356.6702 -68.004 L -356.9145 -68.3057 L -357.2467 -68.7189 L -357.5019 -69.0361 L -357.7626 -69.3589 L -358.1194 -69.7972 L -358.3939 -70.1317 L -358.6753 -70.4724 L -359.0617 -70.9389 L -359.3614 -71.3007 L -359.67 -71.6741 L -360.0987 -72.1937 L -360.4349 -72.6016 L -360.7842 -73.0256 L -361.1482 -73.4675 L -361.524 -73.9241 L -361.913 -74.3969 L -362.3139 -74.8847 L -362.729 -75.3897 L -363.3026 -76.0874 L -363.7495 -76.6309 L -364.3672 -77.3813 L -364.8463 -77.9629 L -365.5089 -78.7668 L -366.0222 -79.389 L -366.5524 -80.0315 L -367.2775 -80.9095 L -367.8413 -81.5918 L -368.6139 -82.5259 L -369.2117 -83.2482 L -370.031 -84.2373 L -370.6634 -85.0001 L -371.5294 -86.0429 L -372.197 -86.845 L -372.8798 -87.6636 L -373.8135 -88.7795 L -374.5331 -89.6368 L -375.2692 -90.5116 L -376.2721 -91.6993 L -377.044 -92.6104 L -377.8314 -93.5369 L -378.6351 -94.48 L -379.4551 -95.4391 L -380.5707 -96.7394 L -381.4267 -97.7334 L -382.2983 -98.7422 L -383.1844 -99.7642 L -384.3888 -101.1482 L -385.3094 -102.202 L -386.559 -103.6263 L -387.5126 -104.7089 L -388.4783 -105.8014 L -389.7916 -107.2812 L -390.7906 -108.4015 L -391.8026 -109.5321 L -393.1754 -111.0593 L -394.2135 -112.209 L -395.2684 -113.373 L -396.3348 -114.5451 L -397.4135 -115.7263 L -398.5047 -116.9167 L -399.6065 -118.1138 L -401.0953 -119.724 L -402.2195 -120.9343 L -403.3553 -122.1524 L -404.881 -123.7808 L -406.0341 -125.0056 L -407.5788 -126.6378 L -408.7416 -127.8597 L -409.907 -129.0782 L -411.0715 -130.2901 L -412.238 -131.498 L -413.4011 -132.6961 L -414.9543 -134.2862 L -416.1194 -135.4714 L -417.2839 -136.6485 L -418.839 -138.2086 L -420.0006 -139.3647 L -421.5479 -140.8922 L -422.7072 -142.0275 L -424.2521 -143.5283 L -425.3979 -144.6326 L -426.5443 -145.7299 L -427.6878 -146.8172 L -428.8256 -147.8916 L -430.3239 -149.2958 L -431.4346 -150.3284 L -432.5269 -151.337 L -433.9551 -152.6442 L -435.0022 -153.5937 L -436.027 -154.5151 L -437.356 -155.6983 L -438.3238 -156.5518 L -439.2689 -157.3784 L -440.4882 -158.4347 L -441.3746 -159.1955 L -442.2363 -159.929 L -443.3509 -160.8685 L -444.1662 -161.5491 L -444.9881 -162.2292 L -446.0488 -163.098 L -446.8551 -163.7521 L -447.6645 -164.4031 L -448.4745 -165.0491 L -449.5507 -165.8988 L -450.3613 -166.5329 L -451.4413 -167.3691 L -452.254 -167.9911 L -453.337 -168.8105 L -454.1515 -169.4194 L -454.9669 -170.0222 L -456.0557 -170.8166 L -456.8736 -171.4056 L -457.9654 -172.1798 L -458.7834 -172.7506 L -459.6011 -173.3128 L -460.6867 -174.0458 L -461.498 -174.5822 L -462.3087 -175.108 L -463.3847 -175.789 L -464.1894 -176.2851 L -465.2592 -176.927 L -466.0545 -177.3911 L -467.0946 -177.9809 L -467.8448 -178.3945 L -468.5663 -178.783 L -469.2543 -179.1445 L -470.1182 -179.5859 L -470.7273 -179.8883 L -471.3105 -180.1705 L -471.8782 -180.438 L -472.4377 -180.6942 L -472.9963 -180.9423 L -473.7433 -181.2602 L -474.3054 -181.4881 L -474.8694 -181.7067 L -475.4342 -181.9151 L -476.0006 -182.1135 L -476.7582 -182.3624 L -477.3273 -182.5372 L -478.088 -182.7549 L -478.6594 -182.9068 L -479.4229 -183.0946 L -479.9928 -183.2236 L -480.5655 -183.3437 L -481.3277 -183.4879 L -481.899 -183.5836 L -482.6606 -183.6928 L -483.2314 -183.7601 L -483.9908 -183.8289 L -484.5593 -183.8641 L -485.1267 -183.8847 L -485.6918 -183.89 L -486.4423 -183.8727 L -487.0018 -183.8416 L -487.559 -183.7946 L -488.1129 -183.7315 L -488.663 -183.6527 L -489.3876 -183.5243 L -489.9251 -183.4106 L -490.458 -183.282 L -490.9856 -183.1394 L -491.6777 -182.9285 L -492.1928 -182.7534 L -492.7029 -182.5649 L -493.2094 -182.3627 L -493.711 -182.1472 L -494.3745 -181.8398 L -494.867 -181.5963 L -495.5215 -181.2545 L -496.0117 -180.9869 L -496.6654 -180.617 L -497.1578 -180.3308 L -497.6517 -180.0385 L -498.3167 -179.6392 L -498.6587 -179.4321 L -499.328 -179.0236 L -499.8413 -178.7072 L -500.5312 -178.2763 L -501.054 -177.944 L -501.7556 -177.4891 L -502.2864 -177.1378 L -502.8213 -176.7776 L -503.3594 -176.4092 L -504.0826 -175.9046 L -504.6302 -175.5154 L -505.3631 -174.9854 L -505.9186 -174.5767 L -506.4756 -174.1609 L -507.2241 -173.5919 L -507.789 -173.1547 L -508.5449 -172.5591 L -509.1146 -172.1018 L -509.6864 -171.6353 L -510.2611 -171.1591 L -510.8367 -170.6746 L -511.4153 -170.1799 L -511.9941 -169.6766 L -512.7686 -168.9901 L -513.3516 -168.4639 L -514.1299 -167.7472 L -514.7149 -167.1976 L -515.2989 -166.6389 L -515.8834 -166.0688 L -516.4666 -165.4886 L -517.0503 -164.8968 L -517.6321 -164.2952 L -518.2131 -163.6819 L -518.9856 -162.8485 L -519.5641 -162.2097 L -520.3317 -161.3418 L -520.9069 -160.6765 L -521.6686 -159.7741 L -522.2377 -159.0833 L -522.9927 -158.1452 L -523.5558 -157.4282 L -524.1185 -156.6973 L -524.8618 -155.7115 L -525.4204 -154.9561 L -525.979 -154.1883 L -526.7256 -153.1436 L -527.2869 -152.3435 L -527.8502 -151.5287 L -528.4146 -150.6997 L -528.9806 -149.856 L -529.7391 -148.7076 L -530.3096 -147.8305 L -530.884 -146.9384 L -531.4604 -146.0335 L -532.2364 -144.805 L -532.8223 -143.8705 L -533.4151 -142.9205 L -534.0123 -141.958 L -534.8163 -140.654 L -535.424 -139.6617 L -536.2424 -138.3173 L -536.8614 -137.2945 L -537.6934 -135.909 L -538.3212 -134.857 L -538.9537 -133.7903 L -539.5905 -132.7105 L -540.444 -131.2516 L -541.0891 -130.1418 L -541.7368 -129.0204 L -542.6067 -127.5048 L -543.2634 -126.3546 L -543.9357 -125.1711 L -544.8082 -123.627 L -545.4773 -122.4372 L -546.1486 -121.2381 L -547.0469 -119.6225 L -547.7238 -118.3978 L -548.6301 -116.7487 L -549.3127 -115.4986 L -549.9963 -114.2405 L -550.9114 -112.545 L -551.5999 -111.263 L -552.2931 -109.9702 L -553.2288 -108.2248 L -553.9358 -106.9061 L -554.6479 -105.5796 L -555.6052 -103.7999 L -556.3277 -102.4595 L -557.0564 -101.1094 L -558.0346 -99.3014 L -558.7744 -97.9374 L -559.5192 -96.5673 L -560.5179 -94.7312 L -561.2723 -93.3469 L -562.0311 -91.9532 L -563.0461 -90.0884 L -563.8115 -88.681 L -564.5801 -87.2663 L -565.6084 -85.3713 L -566.3848 -83.9391 L -567.4209 -82.0257 L -568.2039 -80.58 L -569.2496 -78.6442 L -570.0381 -77.1837 L -570.8267 -75.7215 L -571.8848 -73.7577 L -572.6813 -72.2784 L -573.7481 -70.2952 L -574.5499 -68.8029 L -575.624 -66.8012 L -576.4318 -65.2949 L -577.2442 -63.7784 L -578.0762 -62.2233 L -579.145 -60.2262 L -579.9655 -58.6921 L -581.0613 -56.6422 L -581.8884 -55.0955 L -582.7175 -53.5454 L -583.5497 -51.9896 L -584.3856 -50.4265 L -585.5029 -48.3363 L -586.3453 -46.7609 L -587.4697 -44.6568 L -588.3192 -43.0686 L -589.4548 -40.9482 L -590.3102 -39.3512 L -591.4548 -37.2186 L -592.317 -35.6128 L -593.1832 -34.0013 L -594.3425 -31.8474 L -595.2146 -30.2282 L -596.0919 -28.6011 L -597.2618 -26.4322 L -598.1456 -24.7967 L -599.0339 -23.1542 L -600.2148 -20.9735 L -601.1132 -19.3161 L -602.3153 -17.1001 L -603.2203 -15.4332 L -604.1266 -13.7649 L -605.3385 -11.5348 L -606.2519 -9.8561 L -607.1635 -8.1795 L -608.3861 -5.9341 L -609.3044 -4.2485 L -610.2261 -2.5583 L -611.4585 -.3005 L -612.3857 1.3958 L -613.3162 3.0942 L -614.5618 5.3654 L -615.4978 7.0686 L -616.4382 8.777 L -617.696 11.0566 L -618.644 12.7708 L -619.9096 15.0541 L -620.8632 16.7705 L -621.8213 18.4902 L -622.7813 20.2078 L -623.7461 21.9289 L -624.7155 23.6544 L -625.6842 25.3743 L -626.6598 27.1015 L -627.6367 28.8269 L -628.6191 30.5567 L -629.9312 32.8617 L -630.9184 34.5945 L -632.2354 36.905 L -633.2274 38.6442 L -634.2206 40.3854 L -635.5505 42.7156 L -636.2109 43.8725 L -637.5377 46.1948 L -638.5359 47.942 L -639.5359 49.6918 L -640.5369 51.4428 L -641.8719 53.7763 L -642.8748 55.5294 L -643.8768 57.2803 L -645.2137 59.6166 L -646.2127 61.3623 L -647.5477 63.693 L -648.5467 65.4357 L -649.8746 67.7525 L -650.8683 69.486 L -651.8611 71.2173 L -653.176 73.5102 L -654.1573 75.2203 L -655.1349 76.9238 L -656.1057 78.6149 L -657.0894 80.3283 L -658.3439 82.5127 L -659.2917 84.1628 L -660.2352 85.8048 L -661.4744 87.961 L -662.3928 89.5585 L -663.5944 91.648 L -664.4843 93.1951 L -665.6418 95.2066 L -666.4942 96.6876 L -667.3301 98.1395 L -668.1435 99.552 L -668.9384 100.9321 L -669.9626 102.7097 L -670.7156 104.0165 L -671.6703 105.6724 L -672.364 106.8752 L -673.2614 108.4292 L -673.9199 109.568 L -674.5695 110.6905 L -675.215 111.8047 L -676.0744 113.2847 L -676.716 114.3878 L -677.3576 115.4893 L -677.9969 116.5856 L -678.8417 118.0326 L -679.4742 119.1143 L -680.3058 120.5336 L -680.9206 121.5814 L -681.72 122.9416 L -682.3005 123.9283 L -683.0391 125.1813 L -683.5718 126.0839 L -684.252 127.2349 L -684.7382 128.0564 L -685.3602 129.1054 L -685.8098 129.8619 L -686.2464 130.5949 L -686.8186 131.5532 L -687.2424 132.2612 L -687.6663 132.9687 L -688.0911 133.6736 L -688.6545 134.6081 L -689.0774 135.308 L -689.6379 136.234 L -690.0598 136.927 L -690.4803 137.6178 L -690.8999 138.3042 L -691.3198 138.99 L -691.8784 139.8986 L -692.2993 140.5801 L -692.856 141.4776 L -693.2759 142.1507 L -693.8354 143.0446 L -694.1128 143.4846 L -694.5317 144.1491 L -695.0903 145.0293 L -695.5093 145.6866 L -696.0669 146.5577 L -696.4858 147.2085 L -697.0444 148.0711 L -697.4634 148.7155 L -697.8823 149.356 L -698.3013 149.9947 L -698.8599 150.8424 L -699.2834 151.4822 L -699.8351 152.3131 L -700.2551 152.9393 L -700.676 153.5644 L -701.2351 154.387 L -701.656 155.003 L -702.0779 155.6163 L -702.4988 156.2239 L -702.9216 156.8298 L -703.3456 157.4353 L -703.9091 158.2334 L -704.3326 158.8297 L -704.7574 159.4243 L -705.1807 160.0143 L -705.6046 160.6008 L -706.0217 161.1752 L -706.5557 161.9061 L -706.9337 162.4208 L -707.2927 162.9086 L -707.6329 163.369 L -708.0556 163.9398 L -708.3543 164.3424 L -708.6424 164.7315 L -708.9258 165.115 L -709.2988 165.6236 L -709.5752 166.0033 L -709.8486 166.3819 L -710.1175 166.7595 L -710.4698 167.2614 L -710.7271 167.6362 L -711.059 168.13 L -711.3011 168.4996 L -711.5378 168.8689 L -711.8451 169.3616 L -712.0703 169.7324 L -712.3613 170.2289 L -712.5729 170.6037 L -712.7782 170.98 L -712.9766 171.3584 L -713.1676 171.7389 L -713.4111 172.2502 L -713.5856 172.6375 L -713.8031 173.1521 L -713.9567 173.5414 L -714.1019 173.9335 L -714.2382 174.3265 L -714.4065 174.8535 L -714.5223 175.2495 L -714.6635 175.7796 L -714.7596 176.1775 L -714.8477 176.5767 L -714.952 177.1093 L -715.0207 177.5092 L -715.0812 177.9077 L -715.1339 178.3085 L -715.1913 178.8386 L -715.2253 179.2377 L -715.2513 179.6349 L -715.2739 180.1642 L -715.2821 180.56 L -715.2814 181.0854 L -715.2727 181.477 L -715.2573 181.8681 L -715.2347 182.2587 L -715.1946 182.7746 L -715.1572 183.1602 L -715.0975 183.6706 L -715.0459 184.0512 L -714.9885 184.4307 L -714.926 184.8073 L -714.8596 185.1824 L -714.7643 185.6795 L -714.6888 186.0568 L -714.6074 186.448 L -714.4916 186.9831 L -714.3976 187.401 L -714.2966 187.8329 L -714.1513 188.4274 L -714.0334 188.8891 L -713.8635 189.5261 L -713.7261 190.0187 L -713.5292 190.6958 L -713.3701 191.2195 L -713.2021 191.7532 L -712.9622 192.4842 L -712.7696 193.0466 L -712.5663 193.6192 L -712.2768 194.403 L -712.0469 195.0036 L -711.8049 195.6182 L -711.4672 196.4508 L -711.2005 197.0896 L -710.9219 197.7418 L -710.6322 198.4048 L -710.2274 199.307 L -709.9102 199.996 L -709.4689 200.9319 L -709.1243 201.6457 L -708.6424 202.6201 L -708.2737 203.3471 L -707.7579 204.3406 L -707.3558 205.0966 L -706.9411 205.8602 L -706.513 206.6317 L -706.0718 207.41 L -705.4622 208.4591 L -704.9897 209.2519 L -704.3389 210.3182 L -703.836 211.1219 L -703.1434 212.2009 L -702.6099 213.0113 L -702.0637 213.824 L -701.3156 214.908 L -700.7415 215.7196 L -700.1561 216.5294 L -699.559 217.3372 L -698.7443 218.4128 L -698.1196 219.2174 L -697.485 220.0173 L -696.6205 221.0797 L -695.9601 221.8711 L -695.0608 222.922 L -694.3725 223.7056 L -693.4426 224.7369 L -692.7285 225.5069 L -691.9978 226.2753 L -691.0249 227.2698 L -690.2782 228.0117 L -689.5214 228.7449 L -688.7551 229.4687 L -687.7266 230.4134 L -686.9424 231.113 L -686.1511 231.8008 L -685.0856 232.7019 L -684.2792 233.3653 L -683.4639 234.0208 L -682.3711 234.8779 L -681.5438 235.5121 L -680.4347 236.3434 L -679.5967 236.9588 L -678.4736 237.7666 L -677.6266 238.3624 L -676.7719 238.9535 L -675.9189 239.533 L -675.0594 240.105 L -673.9076 240.8527 L -673.0365 241.4047 L -672.1583 241.949 L -670.9909 242.6537 L -670.1081 243.1732 L -669.2187 243.6842 L -668.3188 244.1876 L -667.1233 244.837 L -666.2212 245.311 L -665.0121 245.9204 L -664.0991 246.3622 L -662.8932 246.9227 L -662.0042 247.3168 L -660.8487 247.8052 L -660.006 248.148 L -659.1842 248.4687 L -658.1251 248.8618 L -657.3531 249.1358 L -656.6019 249.3928 L -655.6256 249.7112 L -654.9014 249.9374 L -653.9375 250.2259 L -653.2148 250.4333 L -652.2549 250.6989 L -651.5342 250.891 L -650.8145 251.0781 L -649.8585 251.3196 L -649.1417 251.496 L -648.4268 251.6685 L -647.7139 251.8374 L -646.7637 252.0583 L -646.0508 252.2211 L -645.1055 252.4352 L -644.3979 252.5951 L -643.6944 252.755 L -642.9913 252.916 L -642.0593 253.1328 L -641.362 253.2979 L -640.4393 253.5214 L -639.751 253.692 L -639.0645 253.866 L -638.1563 254.1018 L -637.4784 254.2823 L -636.8029 254.4662 L -636.132 254.6526 L -635.2416 254.9064 L -634.577 255.1006 L -633.6968 255.365 L -633.0421 255.5674 L -632.1724 255.845 L -631.5268 256.059 L -630.8846 256.2797 L -630.2464 256.508 L -629.6165 256.7439 L -628.7844 257.0737 L -628.1693 257.333 L -627.3603 257.6971 L -626.7638 257.9843 L -626.1765 258.2848 L -625.5983 258.6002 L -625.0333 258.9292 L -624.4792 259.2744 L -623.9383 259.636 L -623.2411 260.1436 L -622.7382 260.5436 L -622.2524 260.9616 L -621.6343 261.5457 L -621.1957 262.0025 L -620.778 262.4753 L -620.3827 262.9636 L -619.8918 263.6361 L -619.5497 264.1558 L -619.2298 264.6891 L -618.9314 265.2363 L -618.5673 265.9854 L -618.3181 266.5645 L -618.0893 267.1556 L -617.8141 267.9618 L -617.6293 268.5794 L -617.4617 269.208 L -617.2644 270.0586 L -617.1763 270.4897 L -617.0552 271.1525 L -616.9202 272.0248 L -616.8339 272.6964 L -616.7397 273.6008 L -616.683 274.2882 L -616.6373 274.9823 L -616.6011 275.682 L -616.5728 276.3898 L -616.5521 277.1019 L -616.5377 277.8214 L -616.5295 278.5475 L -616.5278 279.5251 L -616.5325 280.2667 L -616.5418 281.0141 L -616.558 282.022 L -616.5724 282.7847 L -616.5844 283.5544 L -616.5961 284.3319 L -616.6118 285.3774 L -616.6235 286.1693 L -616.633 286.9686 L -616.6447 288.042 L -616.6535 288.8555 L -616.6623 289.6749 L -616.671 290.5009 L -616.6789 291.6109 L -616.6848 292.4513 L -616.6906 293.5807 L -616.6935 294.4349 L -616.6964 295.2968 L -616.6971 296.4519 L -616.6956 297.326 L -616.6916 298.2061 L -616.6846 299.0911 L -616.6744 299.9825 L -616.6601 300.8796 L -616.641 301.7846 L -616.6164 302.6908 L -616.5853 303.6049 L -616.5475 304.524 L -616.4858 305.756 L -616.4301 306.687 L -616.343 307.9331 L -616.2679 308.8734 L -616.1548 310.1323 L -616.0599 311.0825 L -615.9197 312.3544 L -615.8045 313.3116 L -615.6804 314.2725 L -615.5012 315.5555 L -615.3563 316.5204 L -615.2028 317.4852 L -614.9844 318.7718 L -614.8102 319.7362 L -614.5642 321.0157 L -614.369 321.9713 L -614.1649 322.92 L -613.9508 323.8655 L -613.7277 324.8036 L -613.4153 326.0476 L -613.1702 326.9745 L -612.9161 327.8951 L -612.5635 329.1133 L -612.2869 330.0241 L -611.905 331.22 L -611.6053 332.1114 L -611.2937 332.9974 L -610.971 333.8761 L -610.637 334.7465 L -610.1738 335.8957 L -609.8142 336.7438 L -609.4409 337.5877 L -608.9249 338.6981 L -608.524 339.5198 L -608.1108 340.3332 L -607.6868 341.1344 L -607.2504 341.9281 L -606.8034 342.7099 L -606.3444 343.4837 L -605.7143 344.5013 L -605.2281 345.2545 L -604.7298 345.9995 L -604.2197 346.7363 L -603.519 347.7087 L -602.9799 348.4283 L -602.4269 349.142 L -601.6679 350.0858 L -601.0837 350.7861 L -600.2796 351.716 L -599.6593 352.4077 L -599.0223 353.0969 L -598.1493 354.0092 L -597.4778 354.6879 L -596.7904 355.3639 L -596.0898 356.0351 L -595.3746 356.7035 L -594.3982 357.592 L -593.6494 358.2565 L -592.6327 359.1385 L -591.851 359.8026 L -590.7899 360.686 L -589.9764 361.3516 L -589.1496 362.0204 L -588.0286 362.9162 L -587.1725 363.5936 L -586.3065 364.2748 L -585.1326 365.1926 L -584.2397 365.888 L -583.3353 366.5912 L -582.115 367.5409 L -581.1877 368.2645 L -580.2434 369.0034 L -578.9904 369.9873 L -578.0338 370.7409 L -577.0674 371.5045 L -575.7652 372.537 L -574.7776 373.3229 L -573.7824 374.1169 L -572.7784 374.9199 L -571.4247 376.0053 L -570.4024 376.827 L -569.0232 377.9381 L -567.9791 378.7813 L -566.9282 379.6317 L -565.5123 380.7802 L -564.4482 381.6454 L -563.3751 382.5197 L -562.296 383.4008 L -561.2098 384.2895 L -559.7604 385.4782 L -558.6696 386.3747 L -557.5788 387.2716 L -556.489 388.1705 L -555.4084 389.0631 L -554.3161 389.9669 L -552.8977 391.1426 L -551.8283 392.03 L -550.7609 392.9161 L -549.6974 393.7997 L -548.6379 394.6808 L -547.5797 395.5614 L -546.1751 396.7299 L -545.1254 397.6044 L -544.079 398.4767 L -542.6893 399.6356 L -541.649 400.5043 L -540.616 401.3672 L -539.5905 402.2242 L -538.2373 403.3559 L -537.2375 404.1927 L -536.2496 405.02 L -535.2731 405.8383 L -533.9945 406.9104 L -533.051 407.7022 L -531.8178 408.7377 L -530.9106 409.5 L -530.0215 410.2474 L -529.1495 410.9809 L -528.0256 411.927 L -527.2046 412.6185 L -526.1422 413.5141 L -525.3691 414.1662 L -524.6127 414.805 L -523.6178 415.6467 L -522.8812 416.271 L -521.9036 417.1017 L -521.4238 417.5105 L -520.4656 418.3297 L -519.7443 418.9495 L -518.8146 419.7522 L -518.1158 420.3605 L -517.4213 420.969 L -516.5015 421.7843 L -515.8182 422.3984 L -514.9175 423.2209 L -514.2523 423.8401 L -513.5938 424.4654 L -512.7303 425.3079 L -512.0953 425.9474 L -511.4719 426.595 L -510.8613 427.2511 L -510.2652 427.915 L -509.4928 428.8136 L -508.9307 429.4981 L -508.3841 430.1918 L -507.682 431.1301 L -507.1759 431.844 L -506.527 432.8117 L -506.0623 433.5446 L -505.6144 434.2861 L -505.0438 435.2862 L -504.6374 436.0404 L -504.2442 436.8062 L -503.7486 437.825 L -503.3914 438.5973 L -503.0463 439.3738 L -502.6064 440.4063 L -502.2858 441.1852 L -501.9725 441.9635 L -501.662 442.7466 L -501.2573 443.7747 L -500.9535 444.5472 L -500.6493 445.3166 L -500.3439 446.0834 L -499.934 447.1012 L -499.6244 447.8602 L -499.2086 448.8655 L -498.8932 449.6154 L -498.5743 450.3618 L -498.2518 451.1043 L -497.9258 451.8433 L -497.4882 452.8188 L -497.157 453.5452 L -496.8218 454.2711 L -496.3724 455.231 L -496.0338 455.9456 L -495.6931 456.6579 L -495.3505 457.3665 L -495.0067 458.0697 L -494.5546 458.9837 L -494.22 459.6515 L -493.7804 460.5176 L -493.4557 461.1495 L -493.0285 461.9706 L -492.7087 462.5779 L -492.3875 463.1828 L -492.0652 463.7833 L -491.7415 464.3809 L -491.3074 465.1723 L -490.9803 465.7612 L -490.6511 466.347 L -490.209 467.122 L -489.8756 467.6983 L -489.5397 468.2716 L -489.0894 469.0285 L -488.7487 469.5921 L -488.4055 470.1516 L -488.0602 470.706 L -487.7116 471.2564 L -487.3521 471.8139 L -486.8856 472.5213 L -486.5256 473.0543 L -486.161 473.5816 L -485.791 474.1029 L -485.2894 474.7851 L -484.9045 475.2877 L -484.5117 475.7808 L -484.11 476.2641 L -483.561 476.8898 L -483.138 477.344 L -482.7036 477.7849 L -482.2575 478.2109 L -481.647 478.7514 L -481.1803 479.1326 L -480.7069 479.492 L -480.2277 479.8291 L -479.7441 480.1431 L -479.2552 480.4353 L -478.7618 480.7055 L -478.0963 481.0319 L -477.5911 481.2513 L -476.9128 481.5078 L -476.4001 481.6739 L -475.8871 481.8179 L -475.2038 481.9769 L -474.6937 482.0718 L -474.0251 482.166 L -473.5366 482.2135 L -472.9078 482.2481 L -472.4538 482.2547 L -471.8641 482.2404 L -471.4251 482.2133 L -470.9894 482.1725 L -470.4136 482.0969 L -469.9862 482.0246 L -469.5632 481.9393 L -469.1438 481.8409 L -468.7294 481.7299 L -468.1759 481.5596 L -467.7834 481.4232 L -467.2585 481.2194 L -466.8713 481.0529 L -466.3662 480.8141 L -465.9957 480.6226 L -465.6313 480.42 L -465.1594 480.1353 L -464.8145 479.9104 L -464.4773 479.6759 L -464.0407 479.3496 L -463.7231 479.0951 L -463.4136 478.8325 L -463.0155 478.4716 L -462.7263 478.1921 L -462.3542 477.8099 L -462.0843 477.5163 L -461.7365 477.1173 L -461.4834 476.8123 L -461.2379 476.5044 L -460.9207 476.0881 L -460.6896 475.7714 L -460.3918 475.3453 L -460.1751 475.0225 L -459.9643 474.6982 L -459.6908 474.2616 L -459.4922 473.933 L -459.2349 473.4918 L -459.0482 473.1598 L -458.8074 472.7149 L -458.6329 472.3797 L -458.4633 472.0428 L -458.2967 471.701 L -458.0746 471.226 L -457.9076 470.8539 L -457.7388 470.4657 L -457.5137 469.9252 L -457.3443 469.501 L -457.1754 469.0613 L -456.9493 468.4501 L -456.7805 467.973 L -456.5559 467.3112 L -456.3889 466.7979 L -456.2219 466.2679 L -456.0002 465.5376 L -455.8347 464.9739 L -455.6687 464.3929 L -455.5017 463.7946 L -455.281 462.9756 L -455.1154 462.3414 L -454.9496 461.6906 L -454.7841 461.024 L -454.6179 460.3404 L -454.4503 459.6392 L -454.2819 458.9214 L -454.112 458.1842 L -453.9412 457.4297 L -453.7122 456.393 L -453.5399 455.594 L -453.3089 454.4961 L -453.1346 453.6498 L -452.9012 452.4879 L -452.7813 451.883 L -452.5471 450.6814 L -452.3682 449.7479 L -452.1873 448.795 L -451.9439 447.4927 L -451.7598 446.4949 L -451.5732 445.4758 L -451.3848 444.437 L -451.1309 443.023 L -450.9377 441.9388 L -450.6772 440.4595 L -450.4795 439.3249 L -450.2145 437.7866 L -450.0134 436.6066 L -449.7435 435.0004 L -449.5389 433.7692 L -449.3334 432.5196 L -449.126 431.2462 L -448.9167 429.9546 L -448.6328 428.1955 L -448.4182 426.8615 L -448.1999 425.5027 L -447.9792 424.1262 L -447.7558 422.7326 L -447.4533 420.8432 L -447.2233 419.4104 L -446.9893 417.9572 L -446.671 415.9904 L -446.4279 414.4988 L -446.1805 412.9883 L -445.9293 411.463 L -445.588 409.4044 L -445.3273 407.8414 L -445.0629 406.2638 L -444.7946 404.6695 L -444.4312 402.521 L -444.1544 400.8918 L -443.8744 399.2491 L -443.5911 397.59 L -443.2088 395.3524 L -442.9193 393.6575 L -442.6276 391.9486 L -442.3346 390.2295 L -441.9398 387.9112 L -441.6405 386.1544 L -441.3388 384.3864 L -440.9311 382.0062 L -440.6217 380.2092 L -440.3064 378.3851 L -439.8847 375.959 L -439.563 374.1192 L -439.2357 372.256 L -438.9046 370.3803 L -438.5688 368.4874 L -438.2312 366.592 L -437.7749 364.0397 L -437.4293 362.1127 L -436.9633 359.5227 L -436.6108 357.5691 L -436.2553 355.6027 L -435.897 353.6222 L -435.4172 350.967 L -435.0554 348.9586 L -434.6926 346.9425 L -434.2063 344.2318 L -433.8401 342.186 L -433.351 339.445 L -432.9822 337.3729 L -432.4865 334.5834 L -432.1153 332.4929 L -431.741 330.3845 L -431.365 328.2653 L -430.8596 325.416 L -430.4801 323.2768 L -429.9699 320.3975 L -429.5856 318.2294 L -429.1996 316.0492 L -428.8109 313.8553 L -428.2919 310.9229 L -427.9003 308.709 L -427.5077 306.4873 L -426.9808 303.5059 L -426.5848 301.2654 L -426.187 299.0125 L -425.787 296.7476 L -425.3867 294.4799 L -424.8508 291.4392 L -424.4472 289.1509 L -423.9069 286.0856 L -423.5003 283.7776 L -422.9557 280.6841 L -422.5448 278.3504 L -422.132 276.0078 L -421.7181 273.6651 L -421.1609 270.5236 L -420.7396 268.1601 L -420.3152 265.7891 L -419.8868 263.4063 L -419.4564 261.0217 L -419.0219 258.626 L -418.4388 255.4258 L -417.9972 253.013 L -417.5534 250.5986 L -417.1058 248.1736 L -416.6496 245.7121 L -416.0523 242.5036 L -415.6006 240.0888 L -414.994 236.8607 L -414.537 234.441 L -413.9291 231.2355 L -413.4726 228.8359 L -413.0162 226.4482 L -412.5587 224.066 L -411.9482 220.8982 L -411.4902 218.5344 L -411.0317 216.175 L -410.5722 213.8206 L -410.1133 211.4771 L -409.5005 208.3643 L -409.0395 206.0343 L -408.4245 202.9428 L -407.961 200.6326 L -407.3381 197.5658 L -406.8647 195.2697 L -406.3881 192.9897 L -405.7421 189.9526 L -405.2516 187.6884 L -404.5869 184.6793 L -404.0814 182.436 L -403.3954 179.4523 L -402.8731 177.225 L -402.1658 174.2677 L -401.6277 172.06 L -401.0819 169.8551 L -400.5322 167.6672 L -399.9645 165.4398 L -399.2248 162.5812 L -398.6544 160.409 L -398.0796 158.2469 L -397.4987 156.0878 L -396.7156 153.2175 L -396.1208 151.067 L -395.3203 148.2119 L -394.7114 146.0711 L -393.8813 143.1945 L -393.2668 141.0963 L -392.6335 138.9612 L -391.7781 136.1191 L -391.1263 133.9847 L -390.2449 131.14 L -389.5737 129.0042 L -388.662 126.1439 L -387.9722 124.0087 L -387.2724 121.8664 L -386.3242 118.9992 L -385.605 116.85 L -384.8763 114.6936 L -384.127 112.4985 L -383.144 109.6513 L -382.3902 107.4924 L -381.6262 105.3243 L -380.8545 103.153 L -380.0766 100.9794 L -379.2927 98.8016 L -378.502 96.616 L -377.4441 93.7073 L -376.643 91.5158 L -375.8381 89.3233 L -375.0287 87.1279 L -373.9429 84.1967 L -373.1259 82.0003 L -372.3056 79.8027 L -371.2117 76.881 L -370.3912 74.6946 L -369.3005 71.7954 L -368.4878 69.6388 L -367.6823 67.5041 L -366.888 65.4019 L -366.0895 63.2907 L -365.0725 60.6056 L -364.3144 58.6064 L -363.5653 56.6331 L -362.8293 54.6958 L -362.1066 52.7952 L -361.1677 50.3268 L -360.4816 48.5228 L -359.6045 46.2161 L -358.9714 44.5509 L -358.1634 42.4245 L -357.5898 40.9141 L -356.8502 38.9647 L -356.3159 37.5541 L -355.6408 35.7692 L -355.1579 34.4904 L -354.6934 33.2584 L -354.1114 31.7128 L -353.6987 30.6166 L -353.302 29.5627 L -352.7962 28.219 L -352.4296 27.2446 L -352.0678 26.2827 L -351.5854 25.001 L -351.2265 24.0476 L -350.8665 23.0912 L -350.5097 22.1433 L -350.0293 20.8675 L -349.6804 19.941 L -349.2087 18.6869 L -348.8562 17.7507 L -348.5042 16.8167 L -348.0364 15.5743 L -347.6868 14.6463 L -347.2215 13.4106 L -346.8738 12.4872 L -346.4119 11.2603 L -346.0662 10.3423 L -345.722 9.4272 L -345.2645 8.2103 L -344.923 7.3022 L -344.5839 6.4004 L -344.2496 5.5112 L -343.9188 4.631 L -343.4848 3.4765 L -343.1638 2.6221 L -342.7422 1.4999 L -342.4307 .6707 L -342.0186 -.427 L -341.711 -1.2464 L -341.3014 -2.3367 L -340.9956 -3.151 L -340.5893 -4.2337 L -340.2856 -5.0431 L -339.9831 -5.85 L -339.6813 -6.6546 L -339.279 -7.7266 L -338.9802 -8.5231 L -338.5807 -9.5848 L -338.2819 -10.3775 L -337.9831 -11.1685 L -337.6857 -11.9536 L -337.2954 -12.9766 L -337.0104 -13.7177 L -336.6422 -14.6656 L -336.3767 -15.3412 L -336.1177 -15.9935 L -335.7854 -16.8183 L -335.5426 -17.4115 L -335.3023 -17.9902 L -334.9798 -18.749 L -334.7343 -19.3116 L -334.4836 -19.8714 L -334.2279 -20.4255 L -333.8782 -21.1557 L -333.6075 -21.6979 L -333.2368 -22.408 L -332.9486 -22.9342 L -332.6525 -23.4517 L -332.3472 -23.9614 L -332.0312 -24.4624 L -331.5933 -25.1135 L -331.2505 -25.5891 L -330.8947 -26.0524 L -330.5257 -26.5016 L -330.0124 -27.0776 L -329.6119 -27.4907 L -329.1974 -27.8875 L -328.7701 -28.2662 L -328.1841 -28.7388 L -327.729 -29.0714 L -327.2631 -29.3824 L -326.7861 -29.6723 L -326.3009 -29.9409 L -325.642 -30.2661 L -325.1412 -30.4849 L -324.4561 -30.7469 L -323.9539 -30.913 L -323.4391 -31.0615 L -322.9222 -31.189 L -322.2327 -31.3265 L -321.7142 -31.406 L -321.1971 -31.4653 L -320.6805 -31.5048 L -320.1651 -31.5249 L -319.4856 -31.5226 L -318.9788 -31.5005 L -318.3089 -31.4469 L -317.8111 -31.3899 L -317.1556 -31.2935 L -316.6683 -31.2065 L -316.1862 -31.1082 L -315.5527 -30.9615 L -315.0817 -30.8396 L -314.611 -30.707 L -314.0036 -30.5194 L -313.5493 -30.3663 L -312.9514 -30.1472 L -312.5056 -29.9707 L -311.9212 -29.7213 L -311.4873 -29.5227 L -310.9175 -29.2436 L -310.498 -29.0245 L -309.9469 -28.7182 L -309.5409 -28.4786 L -309.1422 -28.2314 L -308.75 -27.976 L -308.2349 -27.622 L -307.8491 -27.3429 L -307.3331 -26.9512 L -306.9454 -26.6433 L -306.5563 -26.3228 L -306.1654 -25.9896 L -305.6397 -25.5238 L -305.2458 -25.1618 L -304.7166 -24.659 L -304.3153 -24.2664 L -303.7758 -23.7253 L -303.3677 -23.3077 L -302.9518 -22.8765 L -302.5267 -22.4314 L -301.9507 -21.8236 L -301.5081 -21.3548 L -301.054 -20.8733 L -300.5872 -20.3788 L -299.9474 -19.7029 L -299.4503 -19.1801 L -298.7746 -18.4739 L -298.2495 -17.9294 L -297.7103 -17.3747 L -296.9706 -16.6208 L -296.3997 -16.0441 L -295.8133 -15.4562 L -295.2122 -14.8585 L -294.3923 -14.0507 L -293.7588 -13.4324 L -292.8908 -12.5932 L -292.2238 -11.954 L -291.5412 -11.3045 L -290.8458 -10.6471 L -290.1353 -9.9791 L -289.4094 -9.3002 L -288.4252 -8.3847 L -287.669 -7.6851 L -286.64 -6.7381 L -285.8512 -6.0163 L -285.0498 -5.2865 L -284.2316 -4.545 L -283.1212 -3.5449 L -282.2725 -2.7853 L -281.4077 -2.0157 L -280.5294 -1.2386 L -279.6353 -.4521 L -278.7248 .3442 L -277.8039 1.1447 L -276.8642 1.9566 L -275.9118 2.7744 L -274.9417 3.6022 L -273.9594 4.4351 L -272.625 5.558 L -271.6067 6.4085 L -270.2282 7.5508 L -269.1779 8.4145 L -268.1142 9.2836 L -266.6739 10.4527 L -265.5793 11.3363 L -264.4725 12.2259 L -263.3519 13.1233 L -261.8428 14.3269 L -260.6999 15.2347 L -259.1472 16.4638 L -257.9683 17.3933 L -256.7797 18.3278 L -255.1822 19.5807 L -253.9705 20.5288 L -252.3425 21.8004 L -251.1097 22.762 L -249.8677 23.7301 L -248.1972 25.0327 L -246.949 26.007 L -245.2627 27.3251 L -243.9912 28.3204 L -242.7158 29.3203 L -241.0087 30.6619 L -239.7311 31.6693 L -238.4503 32.683 L -237.1703 33.6999 L -235.4697 35.0573 L -234.1996 36.0757 L -232.9313 37.0966 L -231.6663 38.1185 L -229.9783 39.4875 L -229.1582 40.1549 L -227.4818 41.5238 L -226.2523 42.5316 L -225.0154 43.549 L -223.3727 44.9056 L -222.15 45.92 L -220.9319 46.9345 L -219.7188 47.9491 L -218.5102 48.9641 L -216.9093 50.3151 L -215.7152 51.3273 L -214.5225 52.3409 L -213.3349 53.3516 L -211.7541 54.6989 L -210.5838 55.6974 L -209.4111 56.6984 L -207.8522 58.0291 L -206.6874 59.0235 L -205.523 60.0173 L -204.364 61.0067 L -202.8238 62.3211 L -201.6727 63.303 L -200.5241 64.2825 L -199.3767 65.2606 L -198.2354 66.233 L -196.7148 67.5271 L -195.5783 68.4917 L -194.0639 69.7719 L -192.9304 70.7255 L -191.7966 71.6749 L -190.6638 72.6193 L -189.1547 73.8704 L -188.0283 74.7985 L -186.8975 75.7246 L -185.7684 76.6436 L -184.2611 77.8619 L -183.1329 78.7678 L -182.0052 79.6687 L -180.5031 80.8625 L -179.3668 81.7612 L -177.8805 82.931 L -176.759 83.8096 L -175.6388 84.6834 L -174.1443 85.8437 L -173.0239 86.7093 L -171.5419 87.8488 L -170.4262 88.7027 L -168.9442 89.8315 L -167.8329 90.6738 L -166.7188 91.5149 L -165.243 92.6233 L -164.1373 93.449 L -162.6628 94.5424 L -161.5574 95.3561 L -160.4522 96.1637 L -159.3454 96.9661 L -157.8729 98.0232 L -156.7667 98.8091 L -155.6607 99.5878 L -154.555 100.3595 L -153.0789 101.3792 L -151.973 102.1353 L -150.4984 103.1329 L -149.39 103.8748 L -148.2852 104.6078 L -146.8091 105.5768 L -145.7005 106.2971 L -144.2269 107.2451 L -143.1187 107.9515 L -141.6484 108.8812 L -140.5446 109.5741 L -139.4429 110.2615 L -138.3426 110.9442 L -136.8764 111.8473 L -135.7783 112.5183 L -134.3157 113.4038 L -133.2167 114.0618 L -131.7543 114.9274 L -130.6591 115.5672 L -129.5593 116.2007 L -128.46 116.824 L -126.9921 117.6381 L -125.8863 118.2346 L -124.7814 118.8144 L -123.6709 119.3792 L -122.1818 120.1052 L -121.0569 120.6284 L -119.931 121.1297 L -118.7965 121.611 L -117.2793 122.2173 L -116.135 122.646 L -114.9848 123.0507 L -113.448 123.5499 L -112.2884 123.8957 L -111.1269 124.2151 L -109.9628 124.5088 L -108.7954 124.778 L -107.6273 125.0226 L -106.4573 125.2439 L -105.2886 125.4428 L -104.1197 125.6211 L -102.5632 125.8296 L -101.3966 125.9671 L -100.2327 126.0916 L -98.6832 126.2436 L -97.526 126.3512 L -95.9871 126.4925 L -94.8377 126.5991 L -93.6908 126.7073 L -92.5467 126.8176 L -91.0284 126.9676 L -89.8922 127.0825 L -88.3824 127.2389 L -87.2557 127.3584 L -86.1321 127.4798 L -85.0089 127.6034 L -83.5197 127.7709 L -82.4074 127.8986 L -80.9297 128.0717 L -79.8231 128.2039 L -78.7179 128.3382 L -77.6206 128.4736 L -76.5215 128.6114 L -75.0695 128.7964 L -73.9833 128.9369 L -72.9121 129.0771 L -71.5094 129.2632 L -70.4944 129.3994 L -69.17 129.5788 L -68.1978 129.7118 L -67.2379 129.8441 L -65.978 130.0194 L -65.0336 130.1519 L -64.09 130.2854 L -63.1498 130.4192 L -61.8995 130.5987 L -60.96 130.7344 L -59.7382 130.9119 L -58.8273 131.0447 L -57.6339 131.2198 L -56.7476 131.3504 L -55.8642 131.481 L -54.6898 131.6551 L -53.8114 131.7853 L -52.9383 131.9147 L -51.7784 132.0863 L -50.9104 132.2145 L -49.756 132.3854 L -48.8944 132.5133 L -48.0333 132.642 L -47.1717 132.7726 L -46.3229 132.9038 L -45.1888 133.0855 L -44.3434 133.2281 L -43.2213 133.4311 L -42.387 133.5954 L -41.5576 133.7728 L -40.7296 133.9666 L -39.647 134.2511 L -38.8379 134.491 L -37.7896 134.8429 L -37.0155 135.1369 L -36.0165 135.5659 L -35.2922 135.9156 L -34.5889 136.2898 L -33.689 136.8237 L -33.0411 137.2497 L -32.2157 137.8494 L -31.626 138.323 L -30.8789 138.9848 L -30.3488 139.5024 L -29.8432 140.0398 L -29.2156 140.7764 L -28.7715 141.3515 L -28.3543 141.9414 L -27.8396 142.753 L -27.4878 143.3737 L -27.1638 144.0061 L -26.8642 144.6581 L -26.5177 145.5219 L -26.2884 146.1845 L -26.0867 146.8551 L -25.9122 147.5328 L -25.7208 148.4466 L -25.6075 149.1369 L -25.5192 149.8328 L -25.4558 150.5317 L -25.4163 151.2333 L -25.3994 151.9376 L -25.4086 152.8791 L -25.4358 153.5887 L -25.4937 154.532 L -25.5499 155.245 L -25.6353 156.1921 L -25.7042 156.9059 L -25.7755 157.6314 L -25.8674 158.5737 L -25.9359 159.2916 L -26.0255 160.2494 L -26.0918 160.9704 L -26.1571 161.6942 L -26.2203 162.4163 L -26.3003 163.3834 L -26.3564 164.1097 L -26.4261 165.0797 L -26.4749 165.8073 L -26.521 166.5345 L -26.5644 167.2633 L -26.605 167.9901 L -26.6546 168.9565 L -26.6886 169.6805 L -26.7197 170.4008 L -26.7567 171.3588 L -26.7813 172.0753 L -26.8031 172.7891 L -26.8279 173.7377 L -26.8433 174.4477 L -26.8597 175.389 L -26.8689 176.0933 L -26.8768 177.0284 L -26.8793 177.7281 L -26.8787 178.4254 L -26.8729 179.3514 L -26.8649 180.0435 L -26.8491 180.9632 L -26.8333 181.6494 L -26.814 182.3359 L -26.782 183.2619 L -26.7548 183.9237 L -26.723 184.6006 L -26.6747 185.5009 L -26.6341 186.1735 L -26.5901 186.8415 L -26.5255 187.7309 L -26.4726 188.3943 L -26.4147 189.056 L -26.3506 189.7156 L -26.2531 190.5882 L -26.1691 191.2392 L -26.0408 192.1018 L -25.9317 192.7437 L -25.7682 193.5932 L -25.632 194.2244 L -25.4842 194.8511 L -25.2703 195.6773 L -25.0971 196.2922 L -24.9136 196.9009 L -24.7197 197.5043 L -24.5148 198.1034 L -24.2268 198.8895 L -23.9985 199.4734 L -23.7601 200.0522 L -23.5143 200.622 L -23.1742 201.3755 L -22.912 201.9354 L -22.6459 202.49 L -22.3763 203.0406 L -22.0113 203.7692 L -21.7332 204.3106 L -21.4508 204.8483 L -21.0683 205.5576 L -20.7764 206.0838 L -20.4792 206.6055 L -20.1767 207.1214 L -19.8682 207.6313 L -19.5535 208.135 L -19.2319 208.6329 L -18.9047 209.1229 L -18.5709 209.6065 L -18.1155 210.241 L -17.7676 210.7077 L -17.4137 211.1676 L -16.9326 211.7706 L -16.566 212.2142 L -16.1942 212.6507 L -15.6906 213.2223 L -15.3074 213.6432 L -14.9202 214.0573 L -14.3978 214.6001 L -14.0025 215.0005 L -13.6049 215.395 L -13.0703 215.9136 L -12.6669 216.296 L -12.261 216.6728 L -11.7154 217.1665 L -11.3032 217.529 L -10.8887 217.8841 L -10.3322 218.3461 L -9.9124 218.6846 L -9.3501 219.1248 L -8.926 219.4472 L -8.5015 219.7622 L -8.0751 220.0708 L -7.5051 220.472 L -7.0768 220.7653 L -6.6462 221.0534 L -6.217 221.3339 L -5.6419 221.6999 L -5.2085 221.9683 L -4.629 222.3178 L -4.1923 222.5742 L -3.7539 222.8256 L -3.1649 223.154 L -2.7206 223.3949 L -2.1248 223.7087 L -1.6746 223.939 L -1.2232 224.1642 L -.6181 224.457 L -.1626 224.6709 L .4457 224.9484 L .9071 225.1531 L 1.3792 225.3574 L 1.8624 225.5615 L 2.3585 225.7654 L 3.0383 226.0359 L 3.5635 226.2377 L 4.1001 226.4376 L 4.8389 226.7027 L 5.408 226.899 L 5.991 227.0931 L 6.792 227.3482 L 7.4077 227.5354 L 8.039 227.7193 L 8.6854 227.8993 L 9.3456 228.0747 L 10.023 228.2458 L 10.7124 228.411 L 11.6567 228.6226 L 12.3833 228.7746 L 13.3762 228.9683 L 14.1392 229.1066 L 14.917 229.2389 L 15.9775 229.4058 L 16.7908 229.5244 L 17.6192 229.6376 L 18.4615 229.7456 L 19.609 229.8824 L 20.4859 229.9797 L 21.3773 230.0726 L 22.2828 230.1612 L 23.5141 230.2725 L 24.4542 230.3503 L 25.4086 230.4234 L 26.7038 230.5137 L 27.6934 230.5774 L 29.0339 230.6585 L 30.0539 230.7176 L 31.0905 230.7762 L 32.4935 230.8536 L 33.5614 230.9113 L 34.6485 230.9686 L 36.1108 231.0438 L 37.2269 231.0995 L 38.3574 231.1545 L 39.8856 231.2269 L 41.0481 231.2802 L 42.2255 231.3327 L 43.819 231.4013 L 45.0249 231.4518 L 46.2484 231.5023 L 47.9001 231.57 L 49.1543 231.6211 L 50.4216 231.6727 L 51.7015 231.7247 L 52.997 231.7772 L 54.7397 231.8476 L 56.0613 231.901 L 57.3955 231.9547 L 58.7423 232.0089 L 60.5567 232.082 L 61.9315 232.1369 L 63.3176 232.1925 L 65.1825 232.2669 L 66.5945 232.3233 L 68.0177 232.3806 L 69.4505 232.4394 L 71.3736 232.5214 L 72.828 232.5863 L 74.2877 232.654 L 76.263 232.7498 L 77.7535 232.8258 L 79.751 232.9323 L 81.2538 233.0158 L 82.7611 233.1025 L 84.2704 233.1923 L 85.7818 233.2848 L 87.7975 233.4117 L 89.3099 233.5087 L 91.3257 233.6384 L 92.8368 233.736 L 94.3427 233.8333 L 95.846 233.9301 L 97.3462 234.0266 L 99.3361 234.1545 L 100.8258 234.2502 L 102.3086 234.3453 L 104.2806 234.4715 L 105.7547 234.5657 L 107.7139 234.6909 L 109.1805 234.7842 L 111.1274 234.9081 L 112.5813 235.0006 L 114.0322 235.0926 L 115.4786 235.1842 L 116.922 235.2755 L 118.8392 235.3966 L 120.273 235.4869 L 121.7027 235.577 L 123.6019 235.6964 L 125.022 235.7857 L 126.4394 235.8743 L 128.3205 235.9917 L 129.7264 236.0796 L 131.1288 236.167 L 132.5314 236.2544 L 134.3861 236.3697 L 135.7677 236.4555 L 137.1399 236.5407 L 138.9518 236.6528 L 140.2989 236.736 L 142.0763 236.8458 L 143.3948 236.9271 L 144.6969 237.0074 L 145.9841 237.0866 L 147.256 237.1646 L 148.9244 237.2668 L 150.1558 237.342 L 151.3716 237.4163 L 152.9642 237.5135 L 154.1389 237.585 L 155.2986 237.6556 L 156.8171 237.7479 L 157.9357 237.8157 L 159.0392 237.8826 L 160.4784 237.9695 L 161.5305 238.0331 L 162.5523 238.0948 L 163.8632 238.1738 L 164.8077 238.2307 L 165.7198 238.2855 L 166.603 238.3386 L 167.4535 238.3898 L 168.2722 238.4389 L 169.3013 238.5007 L 170.0234 238.544 L 170.9153 238.5975 L 171.5277 238.6342 L 172.094 238.6682 L 172.6151 238.6994 L 173.0998 238.7286 L 173.5651 238.7565 L 174.0247 238.7841 L 174.6282 238.8203 L 175.0743 238.8469 L 175.662 238.882 L 176.0995 238.9084 L 176.535 238.9348 L 176.9672 238.9604 L 177.5422 238.9946 L 177.9718 239.0202 L 178.3995 239.0458 L 178.9685 239.08 L 179.3927 239.1057 L 179.8158 239.1308 L 180.3785 239.1642 L 180.7979 239.1891 L 181.2166 239.2141 L 181.6341 239.239 L 182.0496 239.2639 L 182.6019 239.2963 L 183.0148 239.3197 L 183.4262 239.3419 L 183.9718 239.3698 L 184.3803 239.3893 L 184.7868 239.4071 L 185.1916 239.423 L 185.5961 239.4367 L 186.1322 239.4506 L 186.5329 239.4573 L 186.9325 239.4605 L 187.4625 239.4589 L 187.8589 239.4528 L 188.2525 239.442 L 188.7755 239.4201 L 189.1661 239.3978 L 189.5543 239.3702 L 190.0702 239.3241 L 190.4528 239.2826 L 190.8346 239.2346 L 191.3388 239.1605 L 191.7142 239.0965 L 192.0865 239.0246 L 192.577 238.9156 L 192.9406 238.8232 L 193.2995 238.7214 L 193.7701 238.57 L 194.1169 238.4442 L 194.4576 238.3083 L 194.9037 238.113 L 195.2315 237.9572 L 195.5541 237.7932 L 195.8706 237.6217 L 196.1812 237.4426 L 196.4858 237.2563 L 196.7843 237.0627 L 197.172 236.7943 L 197.4555 236.5851 L 197.732 236.3698 L 198.002 236.1483 L 198.2649 235.9211 L 198.6044 235.6099 L 198.8513 235.3697 L 199.1689 235.042 L 199.3989 234.7905 L 199.6222 234.5337 L 199.8373 234.2736 L 200.1128 233.9202 L 200.3105 233.6511 L 200.5013 233.3775 L 200.7437 233.0081 L 200.917 232.7269 L 201.0822 232.4438 L 201.2403 232.1575 L 201.3911 231.868 L 201.5798 231.4797 L 201.7127 231.1859 L 201.8381 230.8904 L 201.9563 230.5927 L 202.0669 230.2938 L 202.2027 229.8941 L 202.2959 229.5932 L 202.382 229.2913 L 202.4615 228.9885 L 202.535 228.6858 L 202.6254 228.2813 L 202.6684 228.0752 L 202.7472 227.676 L 202.8029 227.3753 L 202.8564 227.074 L 202.9081 226.7739 L 202.9588 226.4739 L 203.0247 226.0762 L 203.0737 225.7785 L 203.1382 225.3845 L 203.1868 225.0861 L 203.2524 224.6752 L 203.3022 224.356 L 203.3518 224.0263 L 203.4177 223.5706 L 203.4673 223.2177 L 203.5181 222.8534 L 203.5708 222.4776 L 203.6444 221.9599 L 203.7021 221.5574 L 203.7814 221.0018 L 203.8424 220.5706 L 203.9048 220.1277 L 203.9692 219.6719 L 204.0359 219.2036 L 204.1049 218.7231 L 204.2006 218.0611 L 204.2749 217.5497 L 204.3511 217.0261 L 204.4562 216.3061 L 204.5375 215.7525 L 204.6212 215.1862 L 204.7079 214.6072 L 204.7977 214.0154 L 204.8907 213.4097 L 204.987 212.7899 L 205.1199 211.946 L 205.2235 211.2959 L 205.3669 210.4084 L 205.4783 209.7274 L 205.5934 209.0321 L 205.712 208.3241 L 205.8758 207.3587 L 206.0028 206.6201 L 206.1337 205.8681 L 206.3139 204.8453 L 206.4532 204.0636 L 206.6448 203.0026 L 206.7925 202.1944 L 206.9439 201.3741 L 207.15 200.2722 L 207.3088 199.4338 L 207.4703 198.5904 L 207.6903 197.457 L 207.8583 196.6044 L 208.0291 195.7481 L 208.2608 194.6031 L 208.4355 193.7528 L 208.6127 192.9002 L 208.8506 191.7707 L 209.0311 190.9258 L 209.2734 189.8065 L 209.4574 188.9678 L 209.6423 188.134 L 209.8291 187.3019 L 210.0185 186.4695 L 210.2109 185.6355 L 210.4653 184.5514 L 210.6608 183.7326 L 210.8587 182.9174 L 211.1265 181.8356 L 211.33 181.0304 L 211.5375 180.2242 L 211.8175 179.1587 L 212.0314 178.3624 L 212.2491 177.5686 L 212.4713 176.776 L 212.7717 175.734 L 213.0038 174.9542 L 213.3229 173.9199 L 213.5694 173.1511 L 213.8229 172.3877 L 214.0841 171.6291 L 214.446 170.6239 L 214.727 169.8788 L 215.1161 168.8962 L 215.4202 168.1669 L 215.7357 167.4447 L 216.1746 166.4943 L 216.5179 165.7927 L 216.9965 164.8719 L 217.3725 164.1925 L 217.8952 163.3074 L 218.3051 162.6573 L 218.7307 162.0191 L 219.3196 161.1906 L 220.4094 159.7967 L 220.8987 159.2212 L 221.3984 158.6619 L 221.9118 158.115 L 222.6124 157.4099 L 223.1508 156.8981 L 223.6994 156.4014 L 224.2588 155.9189 L 224.8288 155.4511 L 225.6028 154.8523 L 226.1941 154.4219 L 226.7959 154.0073 L 227.4058 153.6104 L 228.0251 153.231 L 228.8636 152.7538 L 229.5015 152.4182 L 230.1477 152.1017 L 231.018 151.7121 L 231.679 151.4433 L 232.3451 151.1955 L 233.0165 150.9685 L 233.6936 150.7619 L 234.3882 150.5725 L 235.0589 150.4103 L 235.9807 150.2184 L 236.6825 150.0945 L 237.633 149.9537 L 238.3592 149.865 L 239.0957 149.7898 L 239.8434 149.7269 L 240.8571 149.6601 L 241.6291 149.6212 L 242.4142 149.5909 L 243.4755 149.5627 L 244.2873 149.5502 L 245.1107 149.5449 L 246.2288 149.549 L 247.082 149.5605 L 247.9493 149.5792 L 248.8286 149.6048 L 250.0239 149.6488 L 250.9338 149.6879 L 252.1695 149.7465 L 253.1102 149.7935 L 254.0654 149.8423 L 255.0347 149.892 L 256.0164 149.9418 L 257.0111 149.9911 L 258.3584 150.0551 L 259.3823 150.1017 L 260.7689 150.162 L 261.8227 150.2061 L 262.8911 150.2494 L 264.3223 150.3068 L 265.4081 150.3507 L 266.4991 150.3956 L 267.9621 150.4572 L 269.0574 150.5045 L 270.5202 150.5696 L 271.6118 150.6196 L 272.7022 150.6705 L 273.7882 150.7223 L 275.2312 150.7929 L 276.3133 150.8471 L 277.7459 150.9204 L 278.8204 150.9766 L 280.243 151.0526 L 281.3091 151.1108 L 282.3714 151.1697 L 283.4301 151.2293 L 284.4893 151.2896 L 285.8899 151.3709 L 286.9409 151.4329 L 288.3344 151.5165 L 289.3769 151.58 L 290.4158 151.6443 L 291.4532 151.7093 L 292.4878 151.7749 L 293.5174 151.8411 L 294.888 151.9299 L 295.9112 151.9966 L 296.9333 152.0632 L 298.2896 152.1521 L 299.3035 152.2188 L 300.3148 152.2854 L 301.6658 152.3748 L 302.6654 152.4412 L 303.6681 152.5081 L 305.0003 152.5974 L 305.9948 152.6641 L 306.9883 152.731 L 308.3079 152.8206 L 309.2944 152.8875 L 310.2781 152.9546 L 311.5878 153.0444 L 312.5618 153.1112 L 313.5359 153.1784 L 314.8321 153.268 L 315.7992 153.3354 L 317.0798 153.4242 L 318.0332 153.4908 L 318.9755 153.5567 L 319.9059 153.6221 L 321.1247 153.708 L 322.0237 153.7716 L 323.1821 153.8538 L 324.0321 153.9143 L 324.8625 153.9736 L 325.6761 154.0317 L 326.7436 154.1083 L 327.5389 154.1655 L 328.5947 154.2416 L 329.3864 154.2988 L 330.1714 154.3556 L 331.217 154.4319 L 331.999 154.4897 L 333.0277 154.5661 L 333.7819 154.6229 L 334.517 154.679 L 335.2308 154.7344 L 335.9191 154.7884 L 336.5851 154.8415 L 337.4377 154.9108 L 338.0519 154.9621 L 338.6521 155.0133 L 339.4431 155.0827 L 340.0337 155.1364 L 340.8173 155.2103 L 341.4023 155.2679 L 341.9859 155.3279 L 342.7581 155.412 L 343.3348 155.4793 L 343.9095 155.551 L 344.6698 155.6545 L 345.2375 155.7396 L 345.9878 155.8638 L 346.5465 155.9659 L 347.2851 156.1145 L 347.8362 156.2362 L 348.5602 156.4112 L 349.0991 156.5534 L 349.6335 156.7055 L 350.3356 156.924 L 350.8555 157.1009 L 351.5363 157.3542 L 352.0383 157.558 L 352.5308 157.7733 L 353.0165 158.0014 L 353.4908 158.2406 L 354.1108 158.5801 L 354.5612 158.8476 L 355.0019 159.1283 L 355.4313 159.4211 L 355.9846 159.8284 L 356.3858 160.1462 L 356.7837 160.4817 L 357.2752 160.9259 L 357.6373 161.2762 L 358.1036 161.759 L 358.4399 162.1318 L 358.7653 162.5143 L 359.0793 162.9059 L 359.3804 163.3046 L 359.763 163.8485 L 360.0356 164.2651 L 360.3786 164.8301 L 360.6211 165.2614 L 360.8499 165.6972 L 361.066 166.1389 L 361.2694 166.5865 L 361.5185 167.1868 L 361.6903 167.6423 L 361.8493 168.1004 L 362.043 168.7149 L 362.1761 169.178 L 362.3018 169.6479 L 362.422 170.1278 L 362.575 170.7844 L 362.6854 171.2909 L 362.792 171.8087 L 362.9297 172.5186 L 363.0294 173.0661 L 363.1257 173.6256 L 363.2186 174.1991 L 363.3075 174.785 L 363.3924 175.3857 L 363.4733 176.0005 L 363.5753 176.8415 L 363.648 177.4891 L 363.7187 178.1505 L 363.7874 178.8252 L 363.8553 179.5149 L 363.9451 180.4566 L 364.0125 181.1794 L 364.1033 182.1653 L 364.1725 182.9201 L 364.2679 183.9467 L 364.343 184.7315 L 364.4504 185.7911 L 364.5381 186.5934 L 364.6328 187.3997 L 364.7353 188.206 L 364.8463 189.0134 L 364.9656 189.8189 L 365.093 190.619 L 365.2753 191.6807 L 365.4214 192.4743 L 365.575 193.2617 L 365.7914 194.3052 L 365.9627 195.0836 L 366.1412 195.8575 L 366.3273 196.6279 L 366.5866 197.6475 L 366.7902 198.4071 L 367.0017 199.1613 L 367.2974 200.1593 L 367.53 200.9025 L 367.7722 201.6406 L 368.0229 202.3701 L 368.2839 203.0959 L 368.5542 203.8147 L 368.9297 204.7626 L 369.2232 205.4668 L 369.6296 206.3947 L 369.9455 207.0816 L 370.2716 207.7628 L 370.7196 208.6574 L 371.0665 209.3204 L 371.4227 209.977 L 371.9101 210.8394 L 372.2854 211.4782 L 372.6686 212.1103 L 373.1923 212.943 L 373.5961 213.5624 L 374.0096 214.1776 L 374.4323 214.7879 L 374.8661 215.3957 L 375.4602 216.1986 L 375.9184 216.7954 L 376.388 217.3876 L 377.031 218.1688 L 377.525 218.7471 L 378.0323 219.3224 L 378.7226 220.0769 L 379.2543 220.6368 L 379.7978 221.1912 L 380.5383 221.9191 L 381.1077 222.4581 L 381.6868 222.9886 L 382.2772 223.512 L 383.0821 224.1985 L 383.6978 224.7038 L 384.5363 225.3653 L 385.1774 225.8511 L 385.83 226.3288 L 386.7185 226.9531 L 387.399 227.4118 L 388.0915 227.8616 L 388.7967 228.3033 L 389.7558 228.8793 L 390.4896 229.3014 L 391.2365 229.715 L 391.995 230.1185 L 393.0256 230.6419 L 393.8133 231.0231 L 394.6128 231.3938 L 395.4262 231.7548 L 396.2519 232.106 L 397.3698 232.5593 L 398.2239 232.8894 L 399.0893 233.2108 L 400.2599 233.6259 L 401.1517 233.9272 L 402.0546 234.2193 L 402.9708 234.5028 L 403.8969 234.7765 L 405.156 235.1283 L 406.116 235.3815 L 407.0923 235.6267 L 408.4166 235.94 L 409.4287 236.165 L 410.4615 236.3825 L 411.8572 236.6578 L 412.9272 236.8553 L 414.0142 237.0447 L 415.121 237.2268 L 416.2468 237.4016 L 417.7735 237.6229 L 418.9408 237.7807 L 420.1275 237.9315 L 421.7386 238.1212 L 422.9709 238.2551 L 424.2241 238.3819 L 425.9265 238.5397 L 427.2312 238.6507 L 428.5571 238.7556 L 430.3607 238.8889 L 431.7431 238.9873 L 433.1685 239.0883 L 434.5643 239.1889 L 436.4901 239.3328 L 437.9542 239.4465 L 439.4456 239.5665 L 440.9491 239.6912 L 442.9872 239.8642 L 444.5372 239.9973 L 446.1056 240.1323 L 448.2324 240.3144 L 449.8423 240.45 L 451.4774 240.5845 L 453.6857 240.7598 L 455.3658 240.8878 L 457.6378 241.0533 L 459.3675 241.1734 L 461.7014 241.3271 L 463.4732 241.4378 L 465.2671 241.5452 L 467.6824 241.6839 L 469.5191 241.7855 L 471.37 241.8851 L 473.8739 242.0158 L 475.7707 242.1123 L 477.688 242.2082 L 479.6212 242.3043 L 482.2277 242.4338 L 484.2021 242.5323 L 486.1932 242.6323 L 488.2031 242.7338 L 490.9024 242.8712 L 492.9492 242.9761 L 495.0176 243.0828 L 497.7898 243.2271 L 499.8872 243.3375 L 502.7092 243.4885 L 504.845 243.6051 L 507.7184 243.7652 L 509.8852 243.8885 L 512.0682 244.0144 L 515.0002 244.1851 L 517.2089 244.3141 L 520.1756 244.4874 L 522.4059 244.6181 L 525.399 244.7929 L 527.6871 244.9262 L 530.651 245.0988 L 532.9098 245.2302 L 535.9131 245.4045 L 538.1638 245.5351 L 540.4083 245.665 L 543.3922 245.8378 L 545.6136 245.9661 L 547.8236 246.0937 L 550.0161 246.2202 L 552.1939 246.3456 L 555.0712 246.5111 L 557.2076 246.634 L 560.0277 246.7969 L 562.1229 246.9185 L 564.8788 247.0796 L 566.9159 247.1995 L 568.9254 247.3184 L 571.5649 247.4756 L 573.5137 247.5926 L 576.0613 247.7463 L 577.9384 247.8604 L 579.7889 247.9733 L 581.616 248.0855 L 583.9922 248.2323 L 585.7441 248.3412 L 587.4681 248.4486 L 589.1647 248.5544 L 591.3856 248.6929 L 593.0142 248.7943 L 594.6153 248.8937 L 596.7092 249.0234 L 598.2566 249.119 L 599.7813 249.213 L 601.7814 249.3362 L 603.2618 249.427 L 605.2147 249.5462 L 606.6653 249.6342 L 608.1177 249.7215 L 610.03 249.835 L 611.4669 249.9192 L 613.3737 250.0295 L 614.7972 250.1109 L 616.2128 250.1909 L 618.055 250.2936 L 621.1695 250.4638 L 622.4526 250.5327 L 623.7004 250.5988 L 624.9115 250.6624 L 626.4633 250.7428 L 627.5781 250.7997 L 629.0031 250.8713 L 630.031 250.9215 L 631.0316 250.9692 L 632.3491 251.0299 L 633.3345 251.0735 L 634.3173 251.115 L 635.2978 251.1542 L 636.2749 251.1907 L 637.2492 251.2244 L 638.5444 251.2649 L 639.5138 251.2918 L 640.4787 251.3156 L 641.7629 251.3426 L 642.7228 251.3593 L 643.6804 251.3731 L 644.6355 251.3838 L 645.9057 251.3929 L 646.855 251.3954 L 647.8023 251.3936 L 649.0601 251.384 L 650.0011 251.3711 L 651.2522 251.3455 L 652.1907 251.3193 L 653.4397 251.273 L 654.3705 251.2286 L 655.2992 251.1744 L 656.2253 251.1092 L 657.4519 251.0036 L 658.3684 250.9085 L 659.5819 250.758 L 660.485 250.626 L 661.3829 250.4761 L 662.2739 250.3065 L 663.1583 250.1159 L 664.0326 249.903 L 664.8989 249.6652 L 665.7559 249.4014 L 666.8739 249.0104 L 667.6981 248.6854 L 668.5085 248.3333 L 669.3025 247.9558 L 670.3339 247.4142 L 671.0897 246.9787 L 671.8257 246.5207 L 672.78 245.8746 L 673.4745 245.3651 L 674.1559 244.8335 L 675.042 244.0959 L 675.6931 243.5234 L 676.5513 242.7341 L 677.1899 242.1268 L 677.8289 241.5052 L 678.6864 240.6585 L 679.3365 240.0094 L 680.2152 239.1257 L 680.8831 238.449 L 681.5577 237.7599 L 682.4687 236.818 L 683.1578 236.0966 L 683.8541 235.3575 L 684.791 234.3475 L 685.4987 233.573 L 686.2141 232.7805 L 686.9326 231.9748 L 687.6583 231.1524 L 688.6332 230.0329 L 689.369 229.1768 L 690.1072 228.3082 L 691.0944 227.13 L 691.8351 226.2341 L 692.5717 225.3326 L 693.5491 224.119 L 694.2776 223.2013 L 694.9983 222.2823 L 695.9506 221.0506 L 696.6553 220.1256 L 697.3546 219.1964 L 698.2721 217.9594 L 698.9513 217.0298 L 699.8452 215.788 L 700.5063 214.8554 L 701.1595 213.9217 L 701.8049 212.9871 L 702.6531 211.7396 L 703.2805 210.8024 L 703.9002 209.8642 L 704.512 208.9257 L 705.3162 207.6729 L 705.9098 206.7334 L 706.4961 205.7927 L 707.266 204.5384 L 707.8356 203.5951 L 708.3969 202.6534 L 709.1339 201.3971 L 709.6785 200.4537 L 710.3934 199.1949 L 710.9214 198.2506 L 711.6124 196.9945 L 712.1226 196.0514 L 712.6257 195.1085 L 713.1226 194.1642 L 713.7729 192.9075 L 714.2527 191.9649 L 714.7255 191.0222 L 715.1915 190.0796 L 715.6515 189.1355 L 716.2533 187.8787 L 716.6987 186.9327 L 717.1371 185.9881 L 717.5707 185.0396 L 717.9968 184.0929 L 718.5579 182.8249 L 718.9725 181.8709 L 719.3804 180.9175 L 719.9189 179.6361 L 720.3165 178.6716 L 720.7088 177.7034 L 721.2246 176.4034 L 721.6048 175.4257 L 721.9808 174.4393 L 722.4703 173.1215 L 722.83 172.1255 L 723.1825 171.123 L 723.5259 170.1168 L 723.86 169.1043 L 724.1856 168.0835 L 724.6025 166.7196 L 724.9033 165.6881 L 725.2875 164.3029 L 725.5603 163.2594 L 725.8195 162.2095 L 726.1423 160.8017 L 726.3651 159.7389 L 726.5704 158.6697 L 726.7567 157.5965 L 726.9216 156.5207 L 727.1069 155.0808 L 727.2197 153.9985 L 727.3098 152.9145 L 727.3769 151.8283 L 727.4216 150.7381 L 727.4473 149.291 L 727.4425 148.2026 L 727.4186 147.1131 L 727.361 145.6599 L 727.3007 144.5685 L 727.228 143.4732 L 727.1168 142.0122 L 727.025 140.9105 L 726.8924 139.4374 L 726.7863 138.3252 L 726.6759 137.2102 L 726.519 135.7084 L 726.3944 134.5714 L 726.2645 133.4273 L 726.1294 132.2765 L 725.9897 131.1135 L 725.8478 129.9402 L 725.7043 128.7557 L 725.5607 127.5609 L 725.3693 125.9514 L 725.2258 124.7309 L 725.0803 123.5003 L 724.8849 121.8437 L 724.7355 120.5866 L 724.5826 119.3204 L 724.4263 118.0451 L 724.212 116.3286 L 724.0464 115.0303 L 723.8193 113.2822 L 723.6446 111.9597 L 723.4072 110.1826 L 723.2256 108.8389 L 723.0407 107.485 L 722.7895 105.6661 L 722.5974 104.2892 L 722.4019 102.9022 L 722.2029 101.5049 L 722.0008 100.0955 L 721.7263 98.1963 L 721.5164 96.7568 L 721.2342 94.8241 L 721.0176 93.3496 L 720.7989 91.8646 L 720.5775 90.3672 L 720.278 88.3515 L 720.0504 86.8227 L 719.7411 84.7629 L 719.5059 83.2021 L 719.2683 81.6228 L 718.948 79.4989 L 718.7058 77.8901 L 718.4617 76.2678 L 718.1332 74.0811 L 717.8842 72.4234 L 717.5512 70.194 L 717.2983 68.4997 L 716.959 66.2319 L 716.7012 64.5114" stroke-width="28" stroke="grey" fill="none" id="Track"/></svg>