<svg class="track" xmlns="http://www.w3.org/2000/svg" preserveAspectRatio="xMinYMid meet" height="400" width="600" viewBox="-1200 -600 1 1500">
  <path d="m-729.878 326.362-8.413 5.743-9.05 6.172-6.62 4.53-8.746 6-6.77 4.651-7.956 5.47-15.713 10.77-16.997 11.526-17.783 11.995-17.916 12.045-9.529 6.38-8.384 5.586-10.409 6.9-8.46 5.588-9.581 6.313-8.053 5.287-10.06 6.581-8.93 5.823-8.936 5.817-6.484 4.221-7.592 4.957-5.844 3.827-6.81 4.47-6.873 4.515-6.296 4.116-6.142 3.98-6.572 4.214-5.434 3.45-5.278 3.318-4.44 2.765-3.188 1.96-3.508 2.115-2.891 1.7-3.317 1.883-3.127 1.668-2.971 1.417-2.863 1.184-2.659.933-2.65.737-4.982.798-5.046-.013-4.924-.926-4.905-1.926-4.327-2.835-3.107-3.328-2.034-3.622-1.038-3.139-.321-1.51-.35-2.586-.18-2.857-.008-2.775.216-3.455.365-2.985.81-4.41.748-3.094 1.19-4.022 1.714-4.744 1.942-4.646 1.796-3.916 2.406-5.034 2.093-4.333 2.97-6.023 2.474-4.91 3.316-6.44 3.14-5.973 4.075-7.621 3.304-6.113 4.507-8.312 3.603-6.653 4.886-9.054 3.863-7.142 5.171-9.485 5.197-9.438 4.851-8.714 3.906-6.95 5.066-8.922 4.149-7.192 4.766-8.025 3.901-6.363 5.159-8.15 3.995-6.142 5.286-7.953 4.092-6.044 5.125-7.424 4.252-6.022 5.373-7.428 5.534-7.44 5.722-7.429 5.174-6.466 6.114-7.326 5.526-6.34 4.044-4.489 7.053-7.558 4.245-4.398 7.373-7.422 7.542-7.355 7.232-6.873 4.577-4.276 4.617-4.261 6.057-5.516 7.526-6.769 6.127-5.482 7.47-6.706 7.317-6.624 7.16-6.501 7.918-7.169 6.923-6.23 6.815-6.101 7.115-6.35 6.582-5.86 6.853-6.127 6.697-6.046 6.158-5.618 6.4-5.887 4.805-4.439 5.815-5.385 4.654-4.323 5.932-5.586 5.461-5.253 3.34-3.27 3.308-3.277 2.292-2.294 10.624-10.893 5.402-5.742 1.898-2.06 5.33-5.935 7.112-8.322 3.056-3.727 7.27-9.238 8.574-11.76 8.685-12.742 9.21-13.386 9.286-12.306 5.453-6.594 5.66-6.422 6.287-6.551 6.19-5.871 5.227-4.535 7.102-5.575 5.18-3.695 7.092-4.63 7.258-4.326 7.383-4.075 5.59-2.92 7.49-3.718 7.951-3.684 7.463-3.154 7.911-3.016 7.892-2.68 7.403-2.258 7.896-2.211 7.505-1.983 7.103-1.877 5.717-1.59 8.123-2.46 7.654-2.574 8.124-3.028 8.125-3.334 7.687-3.435 7.74-3.715 5.838-2.98 8.3-4.508 6.374-3.681 8.384-5.13 6.452-4.162 7.99-5.409 14.732-10.526 15.346-11.138 16.029-11.465 5.682-4.038 9.228-6.54 10.004-7.056 10.198-7.16 18.44-12.851 10.027-6.94 10.693-7.357 10.042-6.834 10.035-6.709 8.148-5.338 10.05-6.407 8.206-5.05 10.124-5.97 10.202-5.708 10.91-5.773 10.974-5.5 11.014-5.256 9.088-4.176 11.065-4.884 8.51-3.596 11.278-4.56 8.75-3.4 11.61-4.367 9.025-3.304 11.99-4.29 9.337-3.279 11.69-4.027 9.667-3.257 12.865-4.235 12.33-3.975 13.319-4.263 13.507-4.325 13.678-4.372 13.839-4.422 21.475-6.896 12.548-4.07 11.804-3.872 14.462-4.783 14.601-4.866 14.74-4.95 14.001-4.723 15.012-5.065 15.159-5.11 8.98-3.025 14.474-4.863 15.525-5.177 13.8-4.568 12.056-3.96 14.952-4.85 13.181-4.235 16.11-5.158 12.378-3.96 16.168-5.172 11.322-3.62 14.88-4.751 12.748-4.073 15.122-4.871 11.296-3.692 14.43-4.793 13.227-4.465 13.676-4.66 10.153-3.479 12.855-4.425 10.244-3.533 10.616-3.654 11.515-3.916 10.286-3.435 7.926-2.606 9.225-3.006 7.06-2.296 8.658-2.815 6.612-2.148 7.412-2.385 5.265-1.649 6.533-1.914 4.763-1.23 5.95-1.27 4.356-.718 5.126-.566 4.245-.189 4.778.141 3.164.296 4.31.627 3.186.627 3.843.953 3.127.934 4.14 1.463 3.673 1.53 4.15 2.017 3.149 1.758 4.067 2.588 3.288 2.382 3.448 2.786 2.918 2.59 3.733 3.583 3.059 3.054 3.541 3.488 2.94 2.74 3.691 3.168 3.31 2.558 4.153 2.818 3.539 2.065 4.5 2.24 3.625 1.555 4.375 1.621 4.259 1.331 5.047 1.27 5.155.957 5.128.57 4.442.167 5.052-.18 4.11-.415 5.091-.811 4.164-.9 5.463-1.502 4.494-1.518 4.788-1.901 5.074-2.298 5.394-2.623 5.24-2.493 5.426-2.352 4.55-1.758 6.139-2.04 4.763-1.298 5.432-1.115 6.002-.734 5.469-.227 5.288.123 9.189.85 9.125 1.562 8.953 2.316 8.533 3.143 4.63 2.148 4.87 2.604 4.809 2.935 4.46 3.059 4.395 3.34 4.625 3.856 3.5 3.153 10.223 10.52 3.764 4.475 4.138 5.358 3.347 4.61 3.571 5.116 7.065 10.337 7.99 11.542 8.25 11.607 8.862 12.268 5.305 7.274 5.18 7.047 4.68 6.308 5.535 7.37 4.628 6.106 5.833 7.667 4.842 6.349 6.067 7.936 6.482 8.437 6.038 7.822 6.233 8.067 5.58 7.263 5.268 6.916 4.924 6.529 3.729 4.988 4.49 6.054 3.15 4.282 3.696 5.117 2.677 3.872 2.233 3.394 1.911 3.06 2.33 3.977 2.209 4.097 1.966 3.984 2.039 4.554 1.589 3.991 1.22 3.495 1.092 3.702.853 3.554.731 3.928.534 4.111.25 3.27.062 4.4-.217 3.686-.668 4.814-.963 4.28-1.272 4.135-1.231 3.2-1.62 3.486-1.697 3.045-2.153 3.23-2.531 3.148-5.18 4.967-3.176 2.369-3.659 2.228-3.186 1.547-3.548 1.338-4.16 1.102-4.018.624-3.346.216-4.236-.08-3.81-.364-4.466-.747-3.985-.962-4.9-1.573-3.767-1.51-4.609-2.242-3.963-2.328-4.406-3.066-3.471-2.788-4.408-3.999-3.31-3.346-4.25-4.744-3.201-3.911-4.109-5.48-3.044-4.464-3.783-6.157-2.643-4.852-2.871-6.027-2.625-6.395-2.256-5.933-2.489-6.094-2.747-5.796-2.828-5.163-3.223-5.2-3.413-4.966-3.315-4.51-3.567-4.614-5.192-6.124-3.877-4.02-3.836-3.502-5.86-4.463-7.414-4.394-2.927-1.426-9.427-3.715-10.685-2.88-11.07-1.59-11.592-.286-11.893 1.142-12.822 2.732-9.225 2.831-6.406 2.35-6.854 2.757-6.643 2.764-5.628 2.36-7.695 3.205-6.142 2.524-8.369 3.393-7.185 2.865-8.55 3.351-7.218 2.774-9.798 3.68-7.755 2.857-9.847 3.549-8.864 3.091-11.077 3.69-8.023 2.543-10.993 3.31-9.797 2.774-10.784 2.86-12.528 3.075-12.065 2.752-10.761 2.325-13.307 2.763-13.532 2.744-22.578 4.556-24.64 5-22.026 4.584-11.303 2.408-10.449 2.233-6.86 1.464-8.02 1.716-6.96 1.509-7.5 1.67-7.754 1.777-7.202 1.69-6.217 1.491-4.831 1.204-6.926 1.848-6.777 2.047-5.77 2.023-6.797 2.775-6.188 2.93-5.983 3.238-5.068 3.07-5.981 3.998-5.486 4.03-5.674 4.556-4.223 3.676-5.345 5.06-4.503 4.728-4.805 5.654-3.414 4.52-4.351 6.52-3.75 6.406-5.795 11.806-4.835 12.43-2.213 6.838-1.918 6.936-2.542 12.995-1.07 12.913.094 12.995.886 12.802 1.917 13.424 3.186 13.434 4.582 13.224 5.924 12.97 6.77 12.33 8.149 12.997 8.571 11.938 10.259 12.293 11.051 11.106 12.082 9.914 13.039 8.749 13.805 8.063 13.988 7.16 7.994 3.657 8.73 3.661 8.977 3.444 8.725 3.037 8.999 2.884 9.292 2.85 7.786 2.363 9.884 3.004 8.91 2.715 11.117 3.395 8.727 2.655 11.013 3.317 9.845 2.931 12.1 3.594 9.255 2.772 11.983 3.648 8.327 2.578 10.234 3.217 9.315 2.98 10.243 3.345 7.955 2.654 9.866 3.352 7.71 2.643 8.54 2.926 6.751 2.313 8.104 2.8 6.85 2.437 10.166 3.84 6.909 2.832 6.927 3.099 6.256 3.127 5.947 3.355 4.271 2.718 5.304 3.888 3.963 3.392 4.758 4.735 3.374 3.819 3.921 4.913 2.992 4.165 3.387 5.353 2.47 4.53 2.615 5.772 2.219 6.348 1.56 6.156 1.1 6.706.353 3.613.189 8.964-1.362 12.394-3.171 11.972-2.142 5.7-2.07 4.832-3.108 6.72-2.985 6.563-2.435 6.078-1.998 5.993-2.567 10.987-1.284 11.016-.2 10.912 1.02 10.954 2.423 10.73 2.1 6.16 2.614 6.112 3.14 6.06 3.428 5.645 3.117 4.526 3.959 5.109 4.042 4.626 5.017 5.102 4.362 4.007 6.068 5.043 4.895 3.698 6.315 4.34 5.77 3.628 5.542 3.237 7.08 3.851 7.81 3.921 7.628 3.545 7.398 3.21 6.608 2.71 8.882 3.496 6.939 2.732 9.206 3.78 8.738 3.847 8.145 3.879 6.92 3.556 9.243 5.146 5.833 3.497 7.682 4.876 5.305 3.61 6.19 4.469 4.206 3.239 4.582 3.775 3.206 2.904 3.494 3.574 2.74 3.226 2.74 3.725 3.226 5.302 1.066 2.056 1.84 4.083.868 2.268 1.26 3.907.97 3.82.95 5.27.446 4.236.19 4.708-.08 4.614-.375 5.076-.54 4.307-.885 5.04-1.02 4.487-1.583 5.51-1.979 5.534-1.352 3.247-1.49 3.27-1.126 2.294-2.804 5.24-2.494 4.26-3.731 5.899-2.848 4.29-3.643 5.34-3.05 4.395-3.856 5.478-3.469 4.851-4.057 5.617-4.405 6.066-4.504 6.147-4.38 5.816-4.563 5.79-5.097 6.062-5.404 5.895-5.75 5.635-11.368 9.165-11.56 7.01-12.73 5.908-13.46 4.673-7.428 1.922-8.036 1.555-7.662.989-8.213.554-8.274.079-7.843-.366-6.422-.617-8.495-1.232-6.553-1.247-9.165-2.116-8.754-2.35-8.848-2.654-7.334-2.441-8.42-3.104-6.877-2.763-9.627-4.215-7.046-3.328-9.354-4.706-7.827-4.184-8.515-4.793-7.461-4.382-9.288-5.659-8.22-5.192-10.06-6.6-7.693-5.264-9.952-7.148-7.496-5.693-9.643-7.717-6.713-5.605-9.327-8.182-5.885-5.454-6.803-6.599-8.185-8.306-8.024-8.467-8.363-9.132-7.726-8.721-6.176-7.169-7.979-9.448-6.038-7.28-7.304-9.055-5.815-7.45-7.032-9.267-5.604-7.605-7.142-10.079-6.504-9.626-6.334-9.75-5.045-7.978-6.118-9.887-4.882-8.084-6.231-10.663-5.02-8.842-5.69-10.132-4.626-8.233-6.457-11.372-5.077-8.812-5.854-10.047-6.637-11.277-5.959-9.997-6.43-10.56-6.175-9.861-10.309-15.678-5.282-7.58-6.636-9.048-5.944-7.65-6.962-8.444-6.246-7.154-7.791-8.444-6.103-6.284-7.715-7.548-6.927-6.414-8.114-7.13-6.746-5.65-9.033-7.182-3.792-2.893-9.39-6.867-13.685-9.27-8.196-5.17-10.736-6.35-9.084-4.998-10.358-5.304-10.345-4.941-9.057-4.12-7.763-3.432-9.455-4.063-7.595-3.15-9.826-3.931-9.113-3.55-8.971-3.456-7.18-2.754-9.246-3.503-9.142-3.328-9.023-3.043-8.893-2.662-8.25-2.107-7.116-1.533-8.009-1.43-7.887-1.098-7.811-.792-8.274-.56-6.326-.239-7.795-.054-6.858.165-7.886.42-6.439.526-8.957 1.017-6.485.957-8.495 1.532-7.002 1.494-8.006 1.964-8.507 2.385-8.505 2.698-6.003 2.095-7.506 2.828-7.014 2.832-13.124 5.594-8.72 3.75-8.844 3.798-8.973 3.865-6.958 2.993-9.224 3.94-7.144 3.04-9.449 4.045-7.298 3.156-9.643 4.191-7.447 3.24-9.239 4.018-9.863 4.29-9.79 4.261-9.097 3.924-11.215 4.69-9.389 3.76-4.917 1.898-3.799 1.431-14.454 5.146-3.695 1.233-16.351 5.04-7.785 2.177-4.731 1.264-5.541 1.43-13.127 3.241-13.102 3.023-7.286 1.552-7.346 1.47-13.97 2.541-8.062 1.339-7.711 1.216-6.856 1.04-8.472 1.22-8.623 1.174-8.245 1.075-8.852 1.12-8.682 1.073-7.546.914-6.652.788-5.232.616-5.645.674-4.66.566-4.627.572-3.467.432-4.541.544-4.162.437-3.652.316-3.632.22-3.426.087-3.261-.054-2.259-.124-3.231-.3-3.087-.437-3.279-.667-2.47-.676-2.91-1.034-3.424-1.61-1.469-.848-2.553-1.788-2.029-1.835-1.515-1.729-1.622-2.328-1.096-1.976-1.172-2.673-.874-2.569-.817-3.188-.408-2.104-.523-3.602-.78-5.32-.726-3.397-.578-2.107-1.055-3.107-1.511-3.41-1.624-2.72-1.912-2.33-2.383-2.084-2.769-1.75-2.523-1.151-3.108-.974-3.312-.561-3.522-.153-2.959.163-3.97.615-3.35.84-4.17 1.369-4.048 1.597-7.709 3.601-7.323 3.969-4.714 2.803-4.898 3.083-10.599 6.969-10.92 7.18-12.742 8.42-7.292 4.952-7.7 5.324-15.564 10.728-16.852 11.45-10.043 6.891-10.365 7.2-7.529 5.243z" stroke-width="28" stroke="#000" fill="none"/>
  <path d="m-729.878 326.362-8.413 5.743-9.05 6.172-6.62 4.53-8.746 6-6.77 4.651-7.956 5.47-15.713 10.77-16.997 11.526-17.783 11.995-17.916 12.045-9.529 6.38-8.384 5.586-10.409 6.9-8.46 5.588-9.581 6.313-8.053 5.287-10.06 6.581-8.93 5.823-8.936 5.817-6.484 4.221-7.592 4.957-5.844 3.827-6.81 4.47-6.873 4.515-6.296 4.116-6.142 3.98-6.572 4.214-5.434 3.45-5.278 3.318-4.44 2.765-3.188 1.96-3.508 2.115-2.891 1.7-3.317 1.883-3.127 1.668-2.971 1.417-2.863 1.184-2.659.933-2.65.737-4.982.798-5.046-.013-4.924-.926-4.905-1.926-4.327-2.835-3.107-3.328-2.034-3.622-1.038-3.139-.321-1.51-.35-2.586-.18-2.857-.008-2.775.216-3.455.365-2.985.81-4.41.748-3.094 1.19-4.022 1.714-4.744 1.942-4.646 1.796-3.916 2.406-5.034 2.093-4.333 2.97-6.023 2.474-4.91 3.316-6.44 3.14-5.973 4.075-7.621 3.304-6.113 4.507-8.312 3.603-6.653 4.886-9.054 3.863-7.142 5.171-9.485 5.197-9.438 4.851-8.714 3.906-6.95 5.066-8.922 4.149-7.192 4.766-8.025 3.901-6.363 5.159-8.15 3.995-6.142 5.286-7.953 4.092-6.044 5.125-7.424 4.252-6.022 5.373-7.428 5.534-7.44 5.722-7.429 5.174-6.466 6.114-7.326 5.526-6.34 4.044-4.489 7.053-7.558 4.245-4.398 7.373-7.422 7.542-7.355 7.232-6.873 4.577-4.276 4.617-4.261 6.057-5.516 7.526-6.769 6.127-5.482 7.47-6.706 7.317-6.624 7.16-6.501 7.918-7.169 6.923-6.23 6.815-6.101 7.115-6.35 6.582-5.86 6.853-6.127 6.697-6.046 6.158-5.618 6.4-5.887 4.805-4.439 5.815-5.385 4.654-4.323 5.932-5.586 5.461-5.253 3.34-3.27 3.308-3.277 2.292-2.294 10.624-10.893 5.402-5.742 1.898-2.06 5.33-5.935 7.112-8.322 3.056-3.727 7.27-9.238 8.574-11.76 8.685-12.742 9.21-13.386 9.286-12.306 5.453-6.594 5.66-6.422 6.287-6.551 6.19-5.871 5.227-4.535 7.102-5.575 5.18-3.695 7.092-4.63 7.258-4.326 7.383-4.075 5.59-2.92 7.49-3.718 7.951-3.684 7.463-3.154 7.911-3.016 7.892-2.68 7.403-2.258 7.896-2.211 7.505-1.983 7.103-1.877 5.717-1.59 8.123-2.46 7.654-2.574 8.124-3.028 8.125-3.334 7.687-3.435 7.74-3.715 5.838-2.98 8.3-4.508 6.374-3.681 8.384-5.13 6.452-4.162 7.99-5.409 14.732-10.526 15.346-11.138 16.029-11.465 5.682-4.038 9.228-6.54 10.004-7.056 10.198-7.16 18.44-12.851 10.027-6.94 10.693-7.357 10.042-6.834 10.035-6.709 8.148-5.338 10.05-6.407 8.206-5.05 10.124-5.97 10.202-5.708 10.91-5.773 10.974-5.5 11.014-5.256 9.088-4.176 11.065-4.884 8.51-3.596 11.278-4.56 8.75-3.4 11.61-4.367 9.025-3.304 11.99-4.29 9.337-3.279 11.69-4.027 9.667-3.257 12.865-4.235 12.33-3.975 13.319-4.263 13.507-4.325 13.678-4.372 13.839-4.422 21.475-6.896 12.548-4.07 11.804-3.872 14.462-4.783 14.601-4.866 14.74-4.95 14.001-4.723 15.012-5.065 15.159-5.11 8.98-3.025 14.474-4.863 15.525-5.177 13.8-4.568 12.056-3.96 14.952-4.85 13.181-4.235 16.11-5.158 12.378-3.96 16.168-5.172 11.322-3.62 14.88-4.751 12.748-4.073 15.122-4.871 11.296-3.692 14.43-4.793 13.227-4.465 13.676-4.66 10.153-3.479" stroke-width="12" stroke="#e73323" fill="none"/>
  <path d="m397.11-504.153 9.647-3.326 11.5-3.965 11.038-3.777 10.537-3.547 8.742-2.892 8.87-2.9 7.266-2.363 8.937-2.907 6.846-2.225 7.689-2.49 5.839-1.855 6.282-1.907 5.235-1.44 5.71-1.334 4.445-.836 5.562-.753 4.04-.302 4.962-.019 3.507.233 4.125.508 3.477.606 3.869.876 3.115.866 3.879 1.277 3.913 1.526 3.917 1.79 3.4 1.79 3.851 2.317 3.317 2.269 3.717 2.862 2.948 2.519 3.761 3.512 2.84 2.805 3.514 3.506 3.134 3.007 3.661 3.26L597.24-505l4.09 2.952 3.483 2.18 4.4 2.353 3.538 1.627 4.574 1.816 3.883 1.314 4.967 1.391 5.125 1.103 5.473.78 4.14.288 5.375-.024 4.105-.307 4.757-.636 4.15-.784 5.462-1.35 4.495-1.39 5.126-1.9 5.082-2.2 5.064-2.42 5.485-2.662 5.011-2.268 4.485-1.839 6.055-2.168 5.114-1.532 5.47-1.286 5.714-.893 5.887-.424 5.355.005 5.187.293 4.102.404 4.934.68 3.945.69 5.108 1.102 4.172 1.105 4.743 1.51 3.82 1.437 4.651 2.038 4.602 2.332 4.836 2.8 4.77 3.125 4.414 3.236 4.37 3.516 10.447 9.698 3.382 3.59 4.062 4.669 3.942 4.933 4.084 5.517 3.094 4.382 3.832 5.572 3.176 4.654 4.259 6.224 3.363 4.853 4.563 6.48 3.567 5.014 4.857 6.762 3.855 5.334 5.221 7.182 5.423 7.4 5.294 7.16 4.443 5.943 5.995 7.93 4.706 6.193 5.92 7.766 4.908 6.425 6.102 7.962 6.449 8.367 5.954 7.704 6.056 7.858 5.39 7.052 4.748 6.27 3.864 5.148 4.67 6.274 3.282 4.443 4.113 5.637 2.624 3.715 2.53 3.75 4.4 7.11 2.173 3.899 2.064 4.03 1.528 3.236 1.005 2.27 1.544 3.787 1.337 3.721 1.13 3.698.883 3.536.764 3.9.455 3.099.328 3.212.192 4.349-.09 3.662-.496 4.782-.814 4.297-1.224 4.471-1.152 3.27-1.535 3.575-1.5 2.915-2.054 3.347-2.427 3.265-2.691 2.993-2.264 2.136-3.252 2.609-3.344 2.215-3.8 2.01-3.038 1.255-4.111 1.259-3.982.775-4.085.376-3.146.027-4.583-.313-3.875-.555-4.529-.98-4.02-1.176-4.632-1.718-4.047-1.844-4.562-2.52-3.894-2.567-4.312-3.322-3.403-2.971-4.349-4.244-3.268-3.535-4.206-4.99-3.167-4.1-4.03-5.719-2.954-4.636-3.578-6.297-2.255-4.514-2.79-6.405-2.453-6.353-2.277-5.829-2.635-5.923-2.905-5.607-3.15-5.297-3.96-5.909-3.303-4.537-3.557-4.65-5.164-6.187-3.61-3.838-4.032-3.788-4.252-3.433-1.555-1.12-7.061-4.338-7.101-3.356-4.106-1.592-5.638-1.841-4.847-1.282-6.105-1.22-4.813-.66-6.458-.506-5.036-.097-6.675.278-5.56.578-5.993.962-4.006.827-4.013.969-7.626 2.215-6.807 2.37-6.421 2.511-6.537 2.695-5.513 2.307-7.537 3.154-6.021 2.49-8.213 3.351-7.05 2.833-8.926 3.525-7.108 2.757-9.657 3.659-7.056 2.62-9.701 3.537-8.752 3.104-10.932 3.722-8.592 2.786-10.848 3.341-9.035 2.63-11.384 3.113-11.674 2.956-12.706 2.978-9.913 2.19-13.197 2.784-13.448 2.746-12.83 2.588-10.493 2.118-12.919 2.613-11.118 2.255-13.076 2.681-9.498 1.98-11.66 2.472-10.798 2.308-9.386 2.003-6.559 1.401-8.152 1.757-6.207 1.368-7.81 1.769-7.244 1.684-12.437 2.994-7.389 1.932-5.12 1.478-7.082 2.349-5.658 2.192-6.28 2.794-6.438 3.307-10.83 6.636-5.547 3.92-5.739 4.438-4.605 3.87-5.106 4.658-4.902 4.925-4.648 5.214-3.804 4.78-4.25 6.054-3.892 6.31-3.545 6.533-2.672 5.527-2.79 6.487-2.228 5.821-2.174 6.365-2.054 6.89-1.801 7.37-1.076 5.644-.981 7.347-.427 5.593-.197 7.311.065 5.635.29 7.004.442 6.185.71 6.682.908 6.269 1.467 7.627 1.526 6.267 2.114 7.118 2.184 6.164 2.867 6.973 2.597 5.614L267.828.71l3.066 5.52 4.258 7.178 3.439 5.44 4.482 6.658 4.159 5.756 5.363 6.868 4.672 5.536 5.28 5.763 5.177 5.176 6.59 5.953 5.252 4.266 7.155 5.206 5.672 3.767 7.65 4.719L346.042 82l8.034 4.375 6.289 3.187 7.917 3.737 8.128 3.527 8.872 3.534 8.606 3.12 9.44 3.122 9.178 2.845 16.825 5.113 19.779 6.029 20.19 6.133 21.12 6.289 21.311 6.398 19.41 6.015 10.75 3.42 8.452 2.737 10.576 3.502 7.681 2.597 9.525 3.259 7.54 2.585 8.378 2.868 6.639 2.285 8.417 2.961 8.914 3.312 6.63 2.637 7.095 3.05 6.733 3.214 6.073 3.269 4.367 2.632 5.478 3.772 4.105 3.296 4.644 4.34 3.746 4.024 3.77 4.517 3.09 4.08 3.746 5.58 2.403 4.108 2.989 6.041 2.297 5.9 1.784 6.08 1.565 8.223.74 11.312-.32 6.987-.66 5.379-1.213 6.219-1.579 5.78-2.3 6.538-1.66 4.047-2.879 6.385-3.08 6.62-2.613 6.115-2.191 6.032-1.843 6.306-1.075 4.746-1.02 6.193-.53 4.776-.378 5.952-.077 4.899.254 6.451.496 4.91.995 5.975 1.13 4.804 1.92 6.193 2.431 6.123 2.766 5.725 3.448 6.024 3.463 5.252 3.32 4.467 4.484 5.347 3.96 4.199 5.578 5.302 4.55 3.907 6.293 4.906 5.058 3.58 6.505 4.207 4.208 2.53 6.953 3.913 7.69 3.995 8.011 3.834 7.28 3.243 7.544 3.154 7.245 2.883 9.017 3.532 7.011 2.83 8.717 3.716 8.726 4.016 8.58 4.303 7.289 3.953 7.945 4.653 6.483 4.046 6.75 4.493 4.928 3.488 5.401 4.061 4.183 3.36 4.146 3.632 2.722 2.667 3.466 3.869 2.348 3.028 2.5 3.712 1.493 2.532 2.906 5.919.911 2.267 1.32 3.882 1.078 4.024.846 4.206.578 4.416.287 4.355.027 4.54-.249 5.005-.597 5.485-.652 4.069-1.071 5.102-1.492 5.5-7.894 18.592-3.166 5.567-2.839 4.586-3.667 5.597-2.927 4.32-3.486 5.05" stroke-width="12" stroke="#4fafdf" fill="none"/>
  <path d="m851.39 635.674-4.125 5.835-3.24 4.518-4.073 5.632-4.424 6.087-4.523 6.154-4.412 5.816-4.898 6.136-4.853 5.681-5.463 5.857-6.167 5.892-4.696 3.963-6.42 4.722-5.52 3.489-6.538 3.587-5.47 2.64-7.36 3.104-5.793 2.113-7.298 2.257-7.923 1.941-7.589 1.364-7.677.902-8.22.467-8.285-.004-7.861-.447-6.436-.683-8.508-1.315-7.073-1.415-8.673-2.074-8.772-2.405-16.2-5.204-15.884-6.222-16.7-7.704-16.687-8.752-16.014-9.28-18.135-11.334-17.746-11.996-16.808-12.529-16.86-13.876-21.348-19.882-8.152-8.34-7.995-8.491-8.337-9.159-7.699-8.744-6.628-7.735-7.492-8.906-6.02-7.292-7.725-9.653-5.782-7.471-6.564-8.707-6.004-8.216-6.675-9.514-6.47-9.657-6.304-9.761-5.414-8.61-5.713-9.28-4.86-8.099-6.201-10.68-4.652-8.217-6.042-10.766-4.987-8.863-6.113-10.732-5.088-8.808-6.231-10.67-6.277-10.644-5.974-9.989-6.453-10.55-6.59-10.45-3.946-6.069-11.312-16.46-12.64-16.585-13.276-15.503-14.444-15.127-14.239-13.406-15.454-13.135-16.772-12.837-13.56-9.397-14.032-8.882-10.177-5.931-9.709-5.258-9.75-4.917-10.336-4.884-9.038-4.083-8.34-3.664-8.837-3.768-7.585-3.12-9.797-3.897-9.088-3.529L87 176.812l-7.154-2.742-9.226-3.48-9.124-3.285-9-2.982-8.868-2.586-8.227-2.034-10.604-2.114-7.93-1.222-7.838-.902-4.382-.383-8.274-.511-6.325-.2-7.798-.004-6.868.205-8.39.505-6.448.579-8.465 1.024-6.49 1.001-8.495 1.586-7.003 1.54-8.505 2.148-8.507 2.458-8.006 2.603-6.002 2.132-8.008 3.072-6.517 2.668-7.052 3-6.607 2.845-8.232 3.539-8.868 3.81-8.996 3.875-6.975 2.996-9.8 4.18-7.167 3.052-8.913 3.825-7.877 3.412-9.095 3.956-7.462 3.246-9.835 4.277-9.279 4.036-9.769 4.25-9.08 3.902-6.17 2.589-8.886 3.617-17.957 6.827-5.346 1.894-12.114 4.027-5.13 1.592-3.531 1.058-7.398 2.12-4.805 1.315-10.21 2.654-6.346 1.579-6.766 1.64-5.866 1.376-7.245 1.62-7.753 1.63-6.902 1.36-6.03 1.121-7.97 1.395-8.083 1.328-7.736 1.211-6.878 1.035-8.497 1.21-9.165 1.236-11.92 1.53-4.685.587-8.6 1.06-7.382.89-11.649 1.375-10.182 1.23-8.24 1.022-4.2.493-4.105.418-3.825.313-3.376.182-3.392.062-3.24-.079-2.261-.141-3.241-.327-3.283-.505-3.08-.673-2.455-.71-2.877-1.075-1.721-.786-4.34-2.587-1.269-.99-2.073-1.981-1.363-1.64-1.584-2.377-1.143-2.18-1.125-2.74-.779-2.436-.779-3.232-.633-3.825-.433-3.291-.287-1.955-.641-3.405-1.128-4.204-1.124-3.109-1.489-3.173-1.675-2.65-1.973-2.26-2.448-2.02-5.395-2.779-3.149-.9-3.352-.482-6.528.143-7.355 1.595-4.19 1.433-4.077 1.65-3.417 1.542-4.34 2.152-7.368 4.048-4.744 2.856-5.258 3.342-4.547 2.985-5.856 3.872-4.778 3.147-6.293 4.127-5.827 3.832-7.046 4.696-7.36 5.02-8.276 5.731-6.646 4.6-9.107 6.231-6.663 4.524-9.757 6.635-10.701 7.365-9.826 6.834-8.212 5.716" stroke-width="12" stroke="#f7d347" fill="none"/>
</svg>
