<?xml version="1.0" standalone="no"?>
<svg xmlns:xlink="http://www.w3.org/1999/xlink" id="s2" class="track" xmlns="http://www.w3.org/2000/svg" width="800" height="400" viewBox="-1000 -1000 2000 2000">
        <path d="M -548.4035 249.422 L -548.6163 248.6565 L -548.7844 248.0878 L -549.0192 247.3407 L -549.2042 246.7866 L -549.4632 246.0583 L -549.6671 245.5184 L -549.9518 244.8076 L -550.175 244.281 L -550.407 243.7601 L -550.7305 243.0725 L -550.9838 242.562 L -551.3358 241.8895 L -551.6116 241.3899 L -551.8969 240.896 L -552.2933 240.245 L -552.6032 239.763 L -553.0325 239.1327 L -553.3676 238.6684 L -553.7142 238.2121 L -554.0728 237.7634 L -554.4433 237.321 L -554.8246 236.8883 L -555.218 236.4632 L -555.6243 236.0461 L -556.042 235.6379 L -556.6171 235.1044 L -557.0621 234.7177 L -557.5195 234.3397 L -557.9881 233.9743 L -558.4652 233.6206 L -559.1177 233.1684 L -559.6177 232.8446 L -560.1262 232.5355 L -560.8182 232.1449 L -561.3469 231.8671 L -562.0632 231.5185 L -562.6103 231.2725 L -563.1643 231.0407 L -563.9138 230.7531 L -564.4842 230.5539 L -565.0589 230.3698 L -565.8354 230.1481 L -566.4255 229.9998 L -567.2208 229.8269 L -567.8215 229.7165 L -568.4293 229.6222 L -569.0417 229.5443 L -569.8636 229.4666 L -570.4856 229.4281 L -571.1105 229.4067 L -571.7396 229.4017 L -572.3733 229.4129 L -573.2212 229.4533 L -573.8622 229.5029 L -574.507 229.5681 L -575.1643 229.65 L -576.0278 229.782 L -576.6833 229.9007 L -577.3459 230.0352 L -578.0137 230.185 L -578.6886 230.35 L -579.3726 230.5302 L -580.2923 230.7914 L -580.991 231.0031 L -581.6967 231.228 L -582.6496 231.547 L -583.3732 231.7999 L -584.108 232.0659 L -584.848 232.342 L -585.8509 232.7286 L -586.6135 233.0318 L -587.3865 233.3464 L -588.1691 233.6716 L -588.9604 234.0072 L -589.7627 234.3542 L -590.5723 234.711 L -591.394 235.0798 L -592.4973 235.5854 L -593.3377 235.9784 L -594.1843 236.3808 L -595.3276 236.9341 L -596.1938 237.3605 L -597.0667 237.7961 L -598.2426 238.3921 L -599.1332 238.8507 L -600.0284 239.318 L -600.9307 239.796 L -601.8378 240.2824 L -603.0575 240.9466 L -603.9784 241.4567 L -604.9005 241.9751 L -606.1473 242.6889 L -607.0867 243.24 L -608.0309 243.8042 L -609.2944 244.5738 L -610.2478 245.1639 L -611.5273 245.9672 L -612.4936 246.5816 L -613.4627 247.2045 L -614.4393 247.8382 L -615.4199 248.4795 L -616.7381 249.3484 L -617.732 250.0074 L -618.7347 250.6748 L -619.7434 251.3479 L -620.7599 252.0276 L -622.1271 252.9426 L -623.1617 253.6352 L -624.5507 254.5646 L -625.6032 255.2685 L -626.6623 255.9762 L -627.7292 256.6886 L -628.8054 257.4065 L -629.8893 258.1288 L -630.9827 258.8565 L -632.0805 259.5862 L -633.1889 260.3219 L -634.6779 261.3084 L -635.803 262.0526 L -636.9371 262.8019 L -638.4559 263.8039 L -639.6094 264.5642 L -641.1442 265.5753 L -642.3086 266.342 L -643.8674 267.3684 L -645.0453 268.1441 L -646.6228 269.1835 L -647.8179 269.9719 L -649.0248 270.7693 L -650.6136 271.8216 L -651.8188 272.6219 L -653.0308 273.4288 L -654.6522 274.512 L -655.8723 275.3304 L -657.0957 276.1541 L -658.3256 276.9852 L -659.5533 277.8176 L -661.2034 278.9406 L -662.4435 279.788 L -663.6885 280.6421 L -665.3564 281.7916 L -666.6078 282.6567 L -668.2855 283.8199 L -669.5482 284.697 L -670.8176 285.58 L -672.5128 286.7594 L -673.7922 287.6492 L -675.0774 288.5423 L -676.3669 289.4377 L -678.0948 290.6353 L -679.3964 291.5352 L -681.1426 292.7408 L -682.4576 293.646 L -684.2222 294.8583 L -685.5494 295.7685 L -686.8979 296.6925 L -688.6672 297.9048 L -690.0138 298.8276 L -691.3628 299.7531 L -693.1663 300.9916 L -694.5237 301.925 L -695.8867 302.8635 L -697.709 304.1208 L -699.0801 305.0684 L -700.4564 306.0209 L -701.8365 306.9773 L -703.6823 308.258 L -705.0718 309.223 L -706.4669 310.1915 L -708.3284 311.485 L -709.7336 312.461 L -711.1394 313.4373 L -712.5554 314.42 L -713.9761 315.4048 L -715.8671 316.7151 L -717.2971 317.7045 L -718.7301 318.6948 L -720.1745 319.692 L -722.0906 321.0131 L -723.541 322.0116 L -725.4783 323.3442 L -726.9403 324.3481 L -728.4055 325.353 L -729.8784 326.3621 L -731.8395 327.7033 L -733.321 328.7152 L -734.8248 329.7414 L -736.7954 331.0856 L -738.291 332.105 L -740.2862 333.4649 L -741.7935 334.4922 L -743.8049 335.8635 L -745.3252 336.9008 L -747.3409 338.2768 L -748.8607 339.3153 L -750.3952 340.3645 L -752.4254 341.7535 L -753.9619 342.8062 L -756.0078 344.2084 L -757.5458 345.2633 L -759.6056 346.677 L -761.1559 347.7415 L -762.7067 348.8066 L -764.2627 349.8755 L -765.8221 350.9471 L -767.9079 352.3804 L -769.4763 353.4584 L -771.0492 354.5394 L -772.6307 355.6266 L -774.2141 356.7153 L -776.3376 358.1754 L -777.433 358.9286 L -779.5375 360.3755 L -781.147 361.4812 L -782.7609 362.5894 L -784.3853 363.7041 L -786.0153 364.8218 L -787.6522 365.9433 L -789.843 367.4421 L -791.4895 368.567 L -793.1464 369.6974 L -794.8326 370.8464 L -797.0416 372.3495 L -798.72 373.4901 L -800.4102 374.6374 L -802.1142 375.7928 L -804.3875 377.3326 L -806.1148 378.5014 L -808.4064 380.0508 L -810.1426 381.2242 L -811.8853 382.4011 L -813.6386 383.5848 L -815.9836 385.1675 L -817.7525 386.3609 L -819.5331 387.562 L -821.3362 388.7779 L -823.7086 390.3771 L -825.5096 391.5907 L -827.9263 393.2186 L -829.7484 394.4454 L -831.578 395.6769 L -834.0257 397.324 L -835.873 398.5666 L -837.7275 399.8138 L -839.5881 401.0645 L -841.4584 402.3212 L -843.9644 404.0041 L -845.8417 405.2639 L -847.7346 406.5335 L -849.6329 407.8059 L -851.5374 409.0812 L -853.4524 410.3626 L -855.3707 411.6448 L -857.2934 412.9281 L -859.2249 414.2161 L -861.8073 415.9354 L -863.7546 417.2301 L -865.6954 418.5191 L -868.2963 420.2444 L -870.2494 421.5384 L -872.206 422.8343 L -874.164 424.1302 L -876.1535 425.4453 L -878.7265 427.1454 L -880.6802 428.4353 L -882.624 429.718 L -884.5614 430.9958 L -886.4898 432.267 L -888.4072 433.5303 L -890.3111 434.784 L -892.2054 436.0307 L -894.0873 437.2682 L -896.576 438.9029 L -898.4232 440.115 L -900.2583 441.3182 L -902.6747 442.9013 L -904.4687 444.0755 L -906.2454 445.2376 L -908.5842 446.7663 L -910.3187 447.8991 L -912.5981 449.3867 L -914.2884 450.4892 L -915.9584 451.5781 L -917.6177 452.6596 L -919.2479 453.7219 L -921.3999 455.1238 L -922.9971 456.1636 L -925.0928 457.5275 L -926.6481 458.5394 L -928.1843 459.5389 L -930.2103 460.8572 L -931.7121 461.8349 L -933.1981 462.8027 L -934.6675 463.76 L -936.1207 464.7072 L -937.5601 465.646 L -939.459 466.886 L -940.868 467.8067 L -942.2603 468.717 L -943.6345 469.6161 L -944.994 470.5063 L -946.3394 471.3877 L -948.1041 472.5444 L -949.4128 473.4025 L -950.7047 474.2499 L -951.9854 475.0905 L -953.6668 476.1947 L -954.9147 477.0145 L -956.149 477.8255 L -957.778 478.8962 L -958.988 479.6914 L -960.1919 480.4821 L -961.7868 481.5292 L -962.9796 482.3112 L -964.1639 483.0866 L -965.3456 483.8594 L -966.9126 484.8822 L -968.0828 485.6447 L -969.2473 486.4022 L -970.4056 487.1547 L -971.561 487.9034 L -973.0881 488.8912 L -974.2248 489.6248 L -975.7215 490.5887 L -976.8347 491.3041 L -978.2945 492.2402 L -979.3751 492.9317 L -980.7966 493.8395 L -981.8502 494.5108 L -982.8884 495.1712 L -983.9094 495.8194 L -985.2474 496.6672 L -986.2313 497.2893 L -987.5208 498.1029 L -988.468 498.6994 L -989.4011 499.286 L -990.6155 500.0478 L -991.5089 500.6073 L -992.3838 501.1542 L -993.5206 501.8635 L -994.3511 502.3805 L -995.1618 502.8842 L -995.9497 503.3725 L -996.7198 503.8484 L -997.468 504.3093 L -998.4349 504.9027 L -999.1366 505.3313 L -999.8177 505.7458 L -1000.4847 506.1503 L -1001.141 506.5464 L -1002.0053 507.0653 L -1002.6448 507.4473 L -1003.4855 507.9466 L -1004.11 508.3148 L -1004.9287 508.794 L -1005.5364 509.147 L -1006.335 509.6074 L -1006.9271 509.9461 L -1007.5117 510.2781 L -1008.2817 510.7115 L -1008.8525 511.0296 L -1009.4167 511.3407 L -1010.16 511.7449 L -1010.712 512.0401 L -1011.4393 512.4212 L -1011.9795 512.6984 L -1012.6913 513.0547 L -1013.221 513.3129 L -1013.7448 513.5626 L -1014.2649 513.8048 L -1014.9515 514.1152 L -1015.4632 514.3395 L -1016.1397 514.6276 L -1016.6437 514.8361 L -1017.3126 515.1042 L -1017.8138 515.2987 L -1018.3129 515.4869 L -1018.9778 515.7289 L -1019.4768 515.9034 L -1019.9747 516.0709 L -1020.4727 516.2322 L -1020.9698 516.3867 L -1021.6309 516.5804 L -1022.128 516.7176 L -1022.7881 516.8875 L -1023.1235 516.9687 L -1023.7778 517.1173 L -1024.2716 517.2206 L -1024.7677 517.3169 L -1025.2638 517.4053 L -1025.9279 517.5123 L -1026.4279 517.5837 L -1026.9291 517.6478 L -1027.433 517.7041 L -1028.1049 517.767 L -1028.6107 517.8051 L -1029.2844 517.8427 L -1029.7922 517.8611 L -1030.2981 517.8707 L -1030.97 517.8698 L -1031.4739 517.8586 L -1031.9778 517.8383 L -1032.4817 517.8085 L -1033.1515 517.7545 L -1033.6515 517.7031 L -1034.1495 517.6428 L -1034.8118 517.548 L -1035.3059 517.466 L -1035.9622 517.3423 L -1036.4543 517.2391 L -1037.1028 517.0875 L -1037.5891 516.9625 L -1038.0754 516.8284 L -1038.5618 516.6846 L -1039.2102 516.4774 L -1039.7004 516.3091 L -1040.1907 516.1301 L -1040.8469 515.8744 L -1041.3391 515.6696 L -1041.8313 515.453 L -1042.3235 515.2244 L -1042.9797 514.9016 L -1043.47 514.6458 L -1043.9543 514.3796 L -1044.4329 514.1028 L -1045.0552 513.72 L -1045.5071 513.4241 L -1045.9469 513.1204 L -1046.5088 512.7078 L -1046.9148 512.3901 L -1047.3075 512.0672 L -1047.6865 511.739 L -1048.0511 511.4061 L -1048.5171 510.9558 L -1048.8512 510.6132 L -1049.1716 510.2678 L -1049.4799 509.9185 L -1049.87 509.4498 L -1050.1483 509.0948 L -1050.4137 508.7392 L -1050.7482 508.2623 L -1050.9854 507.9026 L -1051.2107 507.5423 L -1051.4927 507.0629 L -1051.6912 506.7029 L -1051.8802 506.3423 L -1052.1176 505.8583 L -1052.2855 505.4909 L -1052.4476 505.117 L -1052.6039 504.7351 L -1052.8031 504.2137 L -1052.9457 503.8124 L -1053.0822 503.4025 L -1053.2524 502.8435 L -1053.3724 502.4145 L -1053.4857 501.978 L -1053.5912 501.5335 L -1053.72 500.9298 L -1053.807 500.4682 L -1053.8871 499.9995 L -1053.9604 499.5231 L -1054.0271 499.0397 L -1054.1061 498.3837 L -1054.1578 497.882 L -1054.2037 497.37 L -1054.2443 496.8469 L -1054.2885 496.1347 L -1054.3152 495.5865 L -1054.3361 495.025 L -1054.3546 494.257 L -1054.3607 493.6675 L -1054.3591 493.0669 L -1054.3451 492.2496 L -1054.3245 491.6253 L -1054.2832 490.7766 L -1054.2412 490.1289 L -1054.1906 489.4702 L -1054.1295 488.795 L -1054.0364 487.9015 L -1053.955 487.2132 L -1053.864 486.5164 L -1053.7635 485.8103 L -1053.6147 484.8553 L -1053.4915 484.1295 L -1053.312 483.1501 L -1053.1655 482.4056 L -1052.9541 481.4007 L -1052.7833 480.638 L -1052.6022 479.8678 L -1052.4097 479.0897 L -1052.2062 478.3058 L -1051.9912 477.5133 L -1051.7653 476.7166 L -1051.5273 475.9118 L -1051.2766 475.0997 L -1051.0153 474.2838 L -1050.6466 473.1844 L -1050.3569 472.3551 L -1050.0544 471.5181 L -1049.74 470.6749 L -1049.3024 469.5403 L -1048.9618 468.6833 L -1048.6105 467.8195 L -1048.1245 466.6567 L -1047.7476 465.7788 L -1047.3601 464.894 L -1046.9607 464.0013 L -1046.5525 463.1037 L -1046.1338 462.1969 L -1045.5641 460.9778 L -1045.1266 460.053 L -1044.6813 459.118 L -1044.2305 458.1765 L -1043.623 456.9113 L -1043.1576 455.9437 L -1042.6857 454.9638 L -1042.2072 453.971 L -1041.5593 452.6309 L -1041.0645 451.6112 L -1040.561 450.5785 L -1040.0493 449.5337 L -1039.3536 448.1204 L -1038.8215 447.0446 L -1038.0956 445.588 L -1037.5409 444.4806 L -1036.976 443.3557 L -1036.3997 442.213 L -1035.6211 440.6778 L -1035.0216 439.5024 L -1034.4125 438.313 L -1033.7928 437.1078 L -1033.1628 435.8876 L -1032.3053 434.2382 L -1031.6498 432.9827 L -1030.7612 431.2894 L -1030.082 430.0009 L -1029.1644 428.2648 L -1028.4655 426.9471 L -1027.5209 425.1735 L -1026.8015 423.829 L -1025.8301 422.0178 L -1025.09 420.6436 L -1024.3425 419.2589 L -1023.3333 417.3904 L -1022.5681 415.9761 L -1021.786 414.5314 L -1020.7537 412.6257 L -1019.9642 411.1696 L -1019.1661 409.698 L -1018.0933 407.7205 L -1017.2789 406.2189 L -1016.4594 404.707 L -1015.6311 403.1781 L -1014.5187 401.1234 L -1013.6764 399.566 L -1012.8279 397.9961 L -1011.688 395.8842 L -1010.8247 394.2842 L -1009.6666 392.1374 L -1008.7896 390.512 L -1007.9072 388.8775 L -1007.0182 387.2319 L -1005.816 385.0102 L -1004.9273 383.3705 L -1004.0222 381.7043 L -1002.8109 379.4776 L -1001.8959 377.7999 L -1000.6749 375.565 L -999.7559 373.8855 L -998.5323 371.6542 L -997.6133 369.9822 L -996.3876 367.7565 L -995.4745 366.1028 L -994.5585 364.4475 L -993.3427 362.2544 L -992.4305 360.6138 L -991.5223 358.9825 L -990.6151 357.3551 L -989.7079 355.7328 L -988.5028 353.5831 L -987.5999 351.9754 L -986.7005 350.3767 L -985.8015 348.7823 L -984.6052 346.6654 L -983.7104 345.0858 L -982.816 343.5096 L -981.6271 341.4215 L -980.7364 339.8609 L -979.5508 337.7917 L -978.6622 336.2474 L -977.7715 334.7075 L -976.587 332.6692 L -975.6954 331.1461 L -974.5069 329.1313 L -973.8912 328.0941 L -972.7178 326.1319 L -971.8213 324.6441 L -970.624 322.6716 L -969.7236 321.2015 L -968.8232 319.7387 L -967.9199 318.2808 L -966.7145 316.3484 L -965.8063 314.9051 L -964.8961 313.4673 L -963.6788 311.5591 L -962.761 310.1301 L -961.8441 308.7093 L -960.9225 307.2875 L -959.6931 305.4023 L -958.7665 303.9888 L -957.5302 302.1121 L -956.5994 300.7058 L -955.6668 299.3037 L -954.4183 297.4352 L -953.4799 296.0359 L -952.2266 294.1754 L -951.2826 292.7793 L -950.337 291.3857 L -949.3875 289.9924 L -948.4335 288.5974 L -947.4658 287.1883 L -946.1975 285.3518 L -945.2335 283.9616 L -944.2628 282.5681 L -943.2911 281.1799 L -941.9861 279.3272 L -941.0009 277.9366 L -940.0112 276.5464 L -939.0157 275.1549 L -938.0138 273.7613 L -936.6608 271.8906 L -935.6573 270.5117 L -934.6383 269.1181 L -933.6121 267.7221 L -932.5838 266.3305 L -931.1995 264.4687 L -930.4922 263.5234 L -929.1035 261.6782 L -928.0458 260.2837 L -926.9821 258.8903 L -925.5525 257.0333 L -924.4719 255.6416 L -923.3823 254.2492 L -921.9206 252.3979 L -920.8142 251.0098 L -919.6965 249.6185 L -918.2078 247.7834 L -917.0789 246.4053 L -915.5594 244.5684 L -914.4139 243.1975 L -913.2589 241.827 L -912.0939 240.4568 L -910.5322 238.6392 L -909.3494 237.2768 L -907.762 235.4661 L -906.5682 234.1173 L -905.3635 232.7677 L -903.7454 230.972 L -902.5235 229.628 L -900.8853 227.842 L -899.6489 226.5067 L -897.9875 224.7286 L -896.7332 223.3982 L -895.4713 222.07 L -893.7819 220.3071 L -892.5088 218.9899 L -891.2263 217.6719 L -889.9399 216.3586 L -888.2133 214.6087 L -886.9089 213.296 L -885.1664 211.5545 L -883.853 210.2501 L -882.0946 208.5153 L -880.7668 207.2136 L -879.4367 205.9166 L -877.6524 204.1875 L -876.3114 202.8952 L -874.9635 201.6021 L -873.1605 199.8817 L -871.8049 198.5945 L -870.4433 197.307 L -869.0786 196.022 L -867.2526 194.3099 L -865.8788 193.0269 L -864.5018 191.7456 L -862.6595 190.039 L -861.2752 188.7623 L -859.8852 187.4849 L -858.492 186.2093 L -857.0941 184.9337 L -855.667 183.6356 L -853.8281 181.9686 L -852.42 180.6966 L -851.0123 179.4277 L -849.1315 177.7369 L -847.7183 176.4691 L -846.3023 175.2003 L -844.4166 173.5124 L -843.0005 172.2456 L -841.5878 170.9819 L -840.1751 169.718 L -838.763 168.454 L -836.8896 166.7748 L -835.4878 165.5163 L -834.095 164.263 L -832.7057 163.0115 L -831.3247 161.7648 L -829.9451 160.5178 L -828.5735 159.2765 L -827.2056 158.0367 L -825.3881 156.3878 L -824.0437 155.1669 L -822.2443 153.5322 L -820.8986 152.3105 L -819.5647 151.0993 L -818.2288 149.8869 L -816.4518 148.2755 L -815.1316 147.0787 L -813.3721 145.4859 L -812.0563 144.2957 L -810.3096 142.718 L -809.0032 141.5398 L -807.6992 140.3647 L -806.3734 139.1711 L -804.6776 137.6467 L -803.3868 136.488 L -802.0992 135.3334 L -800.8186 134.186 L -799.54 133.0408 L -797.8414 131.5209 L -796.5721 130.3865 L -795.307 129.2558 L -793.6277 127.7564 L -792.3723 126.6359 L -791.1193 125.5189 L -789.4568 124.037 L -788.2121 122.9282 L -786.5607 121.4582 L -785.3296 120.3624 L -784.0991 119.2668 L -782.8751 118.1765 L -781.6539 117.0876 L -780.0345 115.6426 L -778.8253 114.5622 L -777.2201 113.1252 L -776.0217 112.0498 L -774.8288 110.9773 L -773.2461 109.5517 L -772.0629 108.4834 L -770.4964 107.0661 L -769.3255 106.0041 L -768.1614 104.9465 L -766.6152 103.5384 L -765.4612 102.4854 L -764.3118 101.4348 L -763.1672 100.3865 L -762.028 99.3415 L -760.892 98.2983 L -759.3857 96.9133 L -758.2584 95.8751 L -756.7665 94.4994 L -755.6512 93.4701 L -754.5398 92.4439 L -753.4324 91.42 L -751.9617 90.06 L -750.8641 89.044 L -749.7679 88.029 L -748.6791 87.0202 L -747.5897 86.0116 L -746.1467 84.6752 L -745.0676 83.6757 L -743.6355 82.3468 L -742.5678 81.3536 L -741.4932 80.3524 L -740.0911 79.0419 L -739.0381 78.0541 L -737.9872 77.0649 L -736.939 76.0744 L -735.5606 74.7663 L -734.5286 73.7822 L -733.1587 72.4696 L -732.1382 71.4873 L -731.1211 70.5042 L -730.0996 69.5126 L -728.759 68.205 L -727.7599 67.2266 L -726.7599 66.2435 L -725.431 64.931 L -724.4417 63.9503 L -723.4525 62.9661 L -722.1409 61.6562 L -721.1597 60.6723 L -720.1824 59.689 L -719.2078 58.7045 L -718.2354 57.7188 L -717.267 56.7338 L -715.9764 55.4152 L -715.0135 54.4271 L -714.0507 53.4355 L -712.7679 52.1071 L -711.8119 51.1129 L -710.5361 49.7794 L -709.5811 48.7755 L -708.3076 47.4296 L -707.3552 46.4172 L -706.4011 45.3985 L -705.1336 44.0366 L -704.1849 43.0096 L -703.2357 41.9764 L -702.2924 40.9424 L -701.0359 39.5544 L -700.0941 38.5056 L -699.1564 37.4549 L -697.9059 36.0419 L -696.9708 34.9765 L -695.7289 33.5474 L -694.7982 32.4672 L -693.5629 31.0193 L -692.6381 29.9253 L -691.7152 28.8254 L -690.7943 27.7196 L -689.8755 26.6084 L -688.6489 25.1121 L -687.7379 23.9925 L -686.8218 22.8598 L -685.606 21.3428 L -684.6929 20.1942 L -683.4808 18.6546 L -682.5717 17.4885 L -681.3715 15.9348 L -680.4683 14.7547 L -679.2709 13.1735 L -678.3758 11.9775 L -677.4852 10.776 L -676.5941 9.5643 L -675.4127 7.9418 L -674.5313 6.7173 L -673.6495 5.4822 L -672.7715 4.2423 L -671.894 2.9945 L -670.7325 1.3281 L -669.8621 .0689 L -668.9907 -1.1983 L -667.8342 -2.8918 L -666.967 -4.1701 L -665.8127 -5.8784 L -664.9455 -7.1655 L -664.0783 -8.4549 L -663.2092 -9.7474 L -662.3376 -11.0427 L -661.1725 -12.7698 L -660.2924 -14.0696 L -659.1151 -15.7991 L -658.2263 -17.0969 L -657.033 -18.8255 L -656.1295 -20.1224 L -654.9172 -21.8442 L -653.9993 -23.1333 L -653.0731 -24.4215 L -651.8273 -26.1337 L -650.883 -27.4152 L -649.9324 -28.6909 L -648.9727 -29.9653 L -647.6804 -31.6589 L -646.6996 -32.9253 L -645.7101 -34.1857 L -644.7133 -35.439 L -643.3696 -37.1035 L -642.3541 -38.3432 L -641.3301 -39.5784 L -640.2985 -40.8088 L -639.2598 -42.0331 L -637.864 -43.6555 L -636.8098 -44.8646 L -635.7481 -46.0685 L -634.6766 -47.2679 L -633.6003 -48.4545 L -632.1457 -50.0272 L -631.0477 -51.1913 L -629.9369 -52.3494 L -628.4441 -53.8738 L -627.3128 -55.006 L -626.1725 -56.1283 L -625.0224 -57.2416 L -623.8635 -58.3442 L -622.6952 -59.4369 L -621.1227 -60.8775 L -619.934 -61.9431 L -618.7346 -62.9975 L -617.5241 -64.0408 L -615.8964 -65.4115 L -614.6631 -66.4254 L -613.0059 -67.7553 L -611.7526 -68.7382 L -610.0678 -70.0306 L -608.7935 -70.9865 L -607.5123 -71.9286 L -606.22 -72.8598 L -604.9214 -73.7766 L -603.6146 -74.6815 L -602.2994 -75.575 L -600.9787 -76.4554 L -599.2033 -77.6137 L -597.8676 -78.4674 L -596.5219 -79.3125 L -595.1747 -80.144 L -593.3663 -81.239 L -592.0049 -82.0482 L -590.6368 -82.8484 L -589.2642 -83.6385 L -587.8888 -84.4188 L -586.5056 -85.193 L -585.1236 -85.9572 L -583.2716 -86.9659 L -581.8808 -87.7128 L -580.4865 -88.453 L -579.0891 -89.1868 L -577.6926 -89.9124 L -576.2912 -90.6328 L -574.8898 -91.345 L -573.4855 -92.0512 L -572.063 -92.7582 L -570.207 -93.6693 L -568.8018 -94.3508 L -567.3965 -95.0237 L -565.9932 -95.6876 L -564.1207 -96.5575 L -562.7183 -97.1976 L -560.8498 -98.0352 L -559.4484 -98.6513 L -558.0471 -99.2562 L -556.6467 -99.8494 L -554.7834 -100.6226 L -553.3869 -101.1893 L -551.5226 -101.9287 L -550.1262 -102.4707 L -548.7307 -103.003 L -546.8693 -103.6971 L -545.4758 -104.2045 L -544.0783 -104.7022 L -542.2231 -105.347 L -540.8306 -105.8197 L -539.439 -106.2826 L -537.5836 -106.885 L -536.1967 -107.325 L -534.809 -107.7567 L -533.4194 -108.1808 L -531.5698 -108.7345 L -530.1811 -109.143 L -528.7914 -109.5462 L -526.937 -110.0745 L -525.543 -110.4641 L -524.1495 -110.8478 L -522.2849 -111.354 L -520.8864 -111.7295 L -519.4811 -112.1032 L -518.0739 -112.4744 L -516.1952 -112.9668 L -514.7802 -113.3365 L -513.3661 -113.7065 L -511.9471 -114.0789 L -510.5273 -114.4533 L -509.1035 -114.8315 L -507.6774 -115.2143 L -506.2527 -115.6017 L -504.8221 -115.9964 L -503.3937 -116.3964 L -501.9601 -116.8044 L -500.0519 -117.3583 L -498.6168 -117.7841 L -496.7059 -118.364 L -495.2704 -118.8095 L -493.8372 -119.2633 L -492.4012 -119.7269 L -490.9671 -120.1991 L -489.0545 -120.8422 L -487.6185 -121.3357 L -486.183 -121.8384 L -484.2702 -122.5234 L -482.8366 -123.0479 L -481.403 -123.5824 L -479.4919 -124.3101 L -478.0586 -124.8663 L -476.1467 -125.6222 L -474.7151 -126.1992 L -472.8025 -126.9861 L -471.3689 -127.5879 L -469.9343 -128.1999 L -468.0173 -129.0325 L -466.5771 -129.6687 L -465.1373 -130.3136 L -463.6938 -130.969 L -462.2469 -131.6351 L -460.8007 -132.3096 L -459.3499 -132.9955 L -457.9001 -133.69 L -455.9612 -134.6326 L -454.5067 -135.3504 L -453.0492 -136.0793 L -451.5887 -136.8195 L -450.1307 -137.5684 L -448.6688 -138.3293 L -446.7206 -139.359 L -445.2562 -140.1443 L -443.3046 -141.2062 L -441.8384 -142.016 L -440.3683 -142.8381 L -438.4131 -143.9469 L -436.9398 -144.7944 L -435.4707 -145.6498 L -433.995 -146.5195 L -432.0289 -147.6938 L -430.5518 -148.5874 L -429.0689 -149.4945 L -427.0952 -150.7174 L -425.6109 -151.6487 L -423.6299 -152.907 L -422.141 -153.8644 L -420.6516 -154.832 L -419.1595 -155.8114 L -417.6661 -156.8013 L -416.172 -157.8017 L -414.1747 -159.1539 L -412.6741 -160.1806 L -411.1688 -161.2198 L -409.664 -162.2672 L -408.1552 -163.3258 L -406.6434 -164.3939 L -405.1268 -165.4726 L -403.6049 -166.5612 L -401.571 -168.0243 L -400.0364 -169.1332 L -398.4983 -170.2479 L -396.4368 -171.7457 L -394.8821 -172.877 L -393.3182 -174.0157 L -391.2259 -175.5388 L -389.6441 -176.6894 L -388.0596 -177.8409 L -386.4635 -178.9991 L -384.8592 -180.1615 L -383.2477 -181.3272 L -381.0909 -182.8837 L -379.464 -184.055 L -377.8295 -185.2296 L -375.6381 -186.8011 L -373.9859 -187.9837 L -371.7735 -189.565 L -370.1074 -190.7543 L -368.4319 -191.9492 L -366.7488 -193.1484 L -365.0622 -194.349 L -362.7984 -195.9592 L -361.095 -197.1696 L -359.3805 -198.387 L -357.6638 -199.6052 L -355.9427 -200.8259 L -354.2099 -202.054 L -352.4763 -203.2817 L -350.1518 -204.9263 L -348.3996 -206.1648 L -346.0561 -207.8195 L -344.2898 -209.0656 L -341.927 -210.7308 L -340.148 -211.9833 L -338.3622 -213.2395 L -335.9731 -214.9184 L -334.1719 -216.1828 L -331.7639 -217.8713 L -329.9496 -219.1421 L -328.1303 -220.4152 L -326.3062 -221.6907 L -323.8606 -223.3988 L -322.0247 -224.6798 L -319.5675 -226.3923 L -317.7169 -227.681 L -315.8583 -228.974 L -313.377 -230.6982 L -311.5097 -231.9944 L -309.6372 -233.2929 L -307.7588 -234.5945 L -305.8807 -235.8947 L -303.9945 -237.1991 L -301.4829 -238.9342 L -299.5942 -240.2374 L -297.0808 -241.97 L -295.1916 -243.27 L -292.6755 -244.9985 L -290.7903 -246.2911 L -288.2767 -248.0106 L -286.3949 -249.2944 L -284.5101 -250.5765 L -282.6296 -251.8522 L -280.7477 -253.1248 L -278.8625 -254.3953 L -276.986 -255.6553 L -274.4753 -257.3341 L -272.5959 -258.585 L -270.7131 -259.8336 L -268.8342 -261.074 L -266.9533 -262.3102 L -265.0661 -263.5447 L -262.5646 -265.172 L -260.6823 -266.3884 L -258.7971 -267.5997 L -256.2863 -269.2014 L -254.4002 -270.3951 L -252.5159 -271.579 L -250.628 -272.7562 L -248.7356 -273.9271 L -246.8453 -275.0872 L -244.3085 -276.6288 L -242.425 -277.7618 L -240.5284 -278.8926 L -237.9926 -280.3883 L -236.091 -281.4977 L -234.185 -282.5987 L -232.2788 -283.689 L -229.7314 -285.1292 L -227.8185 -286.1976 L -225.9025 -287.2569 L -223.9827 -288.3072 L -221.4232 -289.6906 L -219.4966 -290.7196 L -216.9322 -292.0739 L -215.0004 -293.0826 L -213.0726 -294.0796 L -211.1379 -295.0706 L -208.5609 -296.3762 L -206.6237 -297.3468 L -204.0401 -298.6277 L -202.0991 -299.5797 L -199.5116 -300.8358 L -197.5672 -301.7708 L -195.625 -302.6976 L -193.0327 -303.9234 L -191.0847 -304.8363 L -188.4914 -306.0417 L -186.541 -306.9413 L -183.9468 -308.1279 L -181.9969 -309.0121 L -179.3968 -310.1804 L -177.4464 -311.0488 L -175.4924 -311.9114 L -172.8898 -313.0491 L -170.9324 -313.8959 L -168.3241 -315.0128 L -166.3616 -315.8445 L -164.3925 -316.6717 L -162.4224 -317.4917 L -159.7823 -318.5792 L -157.7997 -319.3873 L -155.8099 -320.1913 L -153.1446 -321.2581 L -151.1437 -322.0516 L -148.4634 -323.1049 L -146.4455 -323.8911 L -144.4181 -324.6752 L -142.3938 -325.4526 L -140.3575 -326.2296 L -138.3063 -327.0072 L -135.5897 -328.0298 L -133.5365 -328.7974 L -130.7845 -329.8194 L -128.7176 -330.5823 L -125.9417 -331.6007 L -123.8602 -332.3602 L -121.7593 -333.1233 L -118.9657 -334.1319 L -116.8564 -334.8897 L -114.736 -335.648 L -112.6106 -336.4053 L -109.7682 -337.4136 L -107.6276 -338.17 L -105.4784 -338.9258 L -102.5988 -339.9356 L -100.4324 -340.6915 L -98.2547 -341.4482 L -96.0754 -342.2026 L -93.1527 -343.2099 L -90.9499 -343.9653 L -88.7426 -344.7186 L -85.7818 -345.723 L -83.5552 -346.4746 L -81.3203 -347.2255 L -79.0746 -347.976 L -76.0638 -348.977 L -73.806 -349.7234 L -71.5353 -350.471 L -68.4967 -351.4654 L -66.2097 -352.2105 L -63.9147 -352.9553 L -61.6092 -353.7009 L -58.5293 -354.6931 L -56.2061 -355.4396 L -53.8801 -356.1858 L -50.7634 -357.1836 L -48.4228 -357.9328 L -45.2836 -358.9371 L -42.9304 -359.6903 L -40.5615 -360.4487 L -37.4049 -361.4598 L -35.0243 -362.2224 L -31.8407 -363.2422 L -29.4499 -364.0076 L -27.0538 -364.7742 L -24.6476 -365.544 L -21.4406 -366.5694 L -19.0259 -367.3411 L -15.8037 -368.3701 L -13.3762 -369.1455 L -10.9475 -369.9211 L -7.6969 -370.9593 L -5.2557 -371.7391 L -2.8056 -372.5223 L .4629 -373.5679 L 2.9289 -374.3573 L 6.2121 -375.4092 L 8.6821 -376.2012 L 11.9833 -377.2606 L 14.4652 -378.0576 L 16.9496 -378.8562 L 19.4434 -379.6591 L 21.9381 -380.4635 L 24.4379 -381.2711 L 26.9449 -382.0825 L 29.4508 -382.8955 L 31.964 -383.7127 L 34.4861 -384.5348 L 37.8465 -385.6331 L 40.3757 -386.4619 L 43.7498 -387.5699 L 46.2904 -388.4061 L 49.6772 -389.5228 L 52.2288 -390.3655 L 54.7844 -391.2108 L 58.1876 -392.3383 L 60.7516 -393.1891 L 64.1729 -394.3262 L 66.7462 -395.1826 L 69.3231 -396.0414 L 72.7655 -397.1902 L 75.3535 -398.0552 L 77.9431 -398.9219 L 80.542 -399.7931 L 84.006 -400.9565 L 86.6145 -401.8336 L 90.0924 -403.0045 L 92.7197 -403.8899 L 95.3786 -404.7865 L 98.8258 -405.9494 L 101.4605 -406.8384 L 104.0944 -407.7277 L 106.7488 -408.6236 L 110.2592 -409.8086 L 112.9074 -410.7023 L 115.5614 -411.5976 L 119.1061 -412.7934 L 121.769 -413.6914 L 125.3335 -414.8934 L 128.0057 -415.794 L 130.6833 -416.6964 L 134.2649 -417.9034 L 136.9538 -418.8092 L 140.5475 -420.0194 L 143.2457 -420.9281 L 145.9502 -421.8387 L 148.6565 -422.7491 L 151.3722 -423.6621 L 154.095 -424.5761 L 157.7188 -425.7908 L 160.4447 -426.7029 L 163.1801 -427.617 L 166.8282 -428.8338 L 169.5726 -429.7479 L 173.2437 -430.9681 L 175.9929 -431.8807 L 178.7483 -432.7938 L 181.5073 -433.7073 L 184.2751 -434.6224 L 187.0435 -435.5359 L 190.7417 -436.7542 L 193.5253 -437.6693 L 196.3083 -438.5818 L 199.1005 -439.4951 L 202.8253 -440.7095 L 205.6284 -441.6208 L 208.4305 -442.5293 L 211.2428 -443.4389 L 214.0521 -444.3457 L 216.8679 -445.2529 L 220.6348 -446.4638 L 223.4588 -447.3706 L 227.2332 -448.581 L 230.0741 -449.4912 L 233.8531 -450.7016 L 236.6971 -451.6122 L 239.5753 -452.5331 L 243.3427 -453.7387 L 246.1927 -454.6505 L 249.0496 -455.5645 L 251.9095 -456.4796 L 255.7209 -457.6993 L 258.5788 -458.6133 L 262.3901 -459.833 L 265.2393 -460.7444 L 269.042 -461.9607 L 271.8886 -462.8709 L 274.7279 -463.7789 L 277.5664 -464.6862 L 280.3929 -465.5897 L 283.2108 -466.4901 L 286.9586 -467.6874 L 289.7567 -468.5812 L 292.5472 -469.4723 L 295.323 -470.3585 L 298.0911 -471.242 L 301.758 -472.4125 L 304.4963 -473.287 L 308.1274 -474.4475 L 310.8386 -475.315 L 313.5378 -476.18 L 317.1123 -477.3279 L 319.783 -478.1877 L 323.3203 -479.3304 L 325.9608 -480.1862 L 328.5931 -481.0417 L 332.0726 -482.1768 L 334.6737 -483.0289 L 337.257 -483.8777 L 340.6922 -485.011 L 343.2487 -485.8572 L 346.6393 -486.9843 L 349.1696 -487.8285 L 351.6873 -488.6713 L 354.1914 -489.5121 L 356.6857 -490.352 L 359.1688 -491.1899 L 361.6416 -492.0262 L 364.9142 -493.1356 L 367.3571 -493.9656 L 370.5988 -495.069 L 373.0148 -495.8925 L 376.2104 -496.9832 L 378.5901 -497.7964 L 380.9592 -498.6068 L 384.09 -499.679 L 386.4245 -500.4794 L 388.7426 -501.275 L 391.8096 -502.3289 L 394.0918 -503.114 L 397.1104 -504.1533 L 399.3631 -504.9295 L 401.5977 -505.7 L 404.5585 -506.7213 L 406.7571 -507.4795 L 408.9508 -508.2361 L 411.8419 -509.2333 L 413.9966 -509.9765 L 416.1369 -510.7141 L 418.2579 -511.4443 L 420.3653 -512.1689 L 422.4576 -512.887 L 425.2128 -513.8301 L 427.2643 -514.53 L 429.2948 -515.2206 L 431.9818 -516.131 L 433.9726 -516.803 L 435.9462 -517.4669 L 437.8985 -518.1214 L 439.8322 -518.7675 L 441.7436 -519.4037 L 444.259 -520.2377 L 446.1232 -520.8534 L 448.5743 -521.6602 L 450.3888 -522.2555 L 452.1851 -522.8436 L 453.9592 -523.4235 L 455.7163 -523.9968 L 457.4445 -524.56 L 459.7226 -525.3013 L 461.4099 -525.85 L 463.0688 -526.3893 L 464.7103 -526.9232 L 466.3334 -527.4509 L 468.4707 -528.1461 L 470.05 -528.6595 L 472.1211 -529.3331 L 473.6474 -529.8295 L 475.1555 -530.3199 L 477.1284 -530.9612 L 478.5853 -531.4349 L 480.4929 -532.055 L 481.9006 -532.5125 L 483.7397 -533.1094 L 485.098 -533.5494 L 486.8727 -534.1227 L 488.1817 -534.5441 L 489.8924 -535.0925 L 491.1521 -535.4943 L 492.3952 -535.8884 L 494.021 -536.4 L 495.225 -536.7753 L 496.4174 -537.1429 L 497.9897 -537.6212 L 499.1516 -537.9685 L 500.3029 -538.3065 L 501.8217 -538.7419 L 502.9496 -539.0567 L 504.0671 -539.3604 L 505.538 -539.7466 L 506.6291 -540.0226 L 507.7128 -540.2872 L 509.1409 -540.6208 L 510.1997 -540.8568 L 511.2478 -541.0805 L 512.6334 -541.361 L 513.6626 -541.5579 L 514.6828 -541.7433 L 515.6934 -541.9168 L 516.6971 -542.0784 L 518.019 -542.2748 L 519.0012 -542.4078 L 519.9743 -542.5287 L 521.2546 -542.6703 L 522.2031 -542.7617 L 523.1452 -542.8406 L 524.381 -542.9246 L 525.2952 -542.9718 L 526.201 -543.0054 L 527.3895 -543.0296 L 528.2679 -543.0323 L 529.1292 -543.0225 L 530.2566 -542.9908 L 531.0839 -542.9541 L 532.1683 -542.8886 L 532.9704 -542.8281 L 533.7637 -542.7583 L 534.5512 -542.6796 L 535.3317 -542.5927 L 536.3618 -542.4654 L 537.1285 -542.3614 L 537.8886 -542.2505 L 538.8933 -542.0925 L 539.6413 -541.9659 L 540.6301 -541.7866 L 541.3657 -541.6443 L 542.0985 -541.4949 L 542.8279 -541.3387 L 543.5525 -541.1756 L 544.2745 -541.0055 L 545.2348 -540.7677 L 545.9526 -540.5807 L 546.6713 -540.3862 L 547.3901 -540.1838 L 548.3502 -539.9017 L 549.0729 -539.6808 L 549.7985 -539.4515 L 550.7687 -539.1323 L 551.497 -538.8831 L 552.2285 -538.6248 L 553.207 -538.2665 L 553.9386 -537.9885 L 554.673 -537.7009 L 555.4083 -537.4043 L 556.1417 -537.0986 L 556.8771 -536.7836 L 557.6115 -536.459 L 558.3468 -536.1252 L 559.3243 -535.6667 L 560.0587 -535.3098 L 561.0323 -534.8213 L 561.7609 -534.4424 L 562.4912 -534.0526 L 563.459 -533.5188 L 564.1852 -533.1066 L 564.9098 -532.6841 L 565.8717 -532.1056 L 566.5914 -531.6597 L 567.3102 -531.2023 L 568.264 -530.577 L 568.9769 -530.0955 L 569.6851 -529.6048 L 570.6273 -528.9331 L 571.331 -528.4175 L 572.2646 -527.7144 L 572.7294 -527.3564 L 573.6542 -526.6282 L 574.3444 -526.0708 L 575.0308 -525.5043 L 575.7134 -524.9285 L 576.3921 -524.3441 L 577.2923 -523.5521 L 577.9636 -522.9485 L 578.6307 -522.3372 L 579.5158 -521.5119 L 580.1761 -520.8847 L 581.053 -520.0402 L 581.7097 -519.3997 L 582.3643 -518.7551 L 583.2373 -517.8884 L 583.8926 -517.2346 L 584.7666 -516.3605 L 585.4229 -515.7014 L 586.082 -515.0432 L 586.7426 -514.3862 L 587.4067 -513.7289 L 588.2938 -512.8608 L 588.9642 -512.2134 L 589.638 -511.5707 L 590.5413 -510.7219 L 591.2211 -510.094 L 591.9048 -509.4725 L 592.5906 -508.8593 L 593.5096 -508.0551 L 594.2024 -507.4619 L 594.897 -506.8786 L 595.5952 -506.3046 L 596.5319 -505.5539 L 597.2392 -505.0009 L 598.188 -504.2782 L 598.9058 -503.7466 L 599.8705 -503.0532 L 600.5973 -502.5461 L 601.3297 -502.0488 L 602.3132 -501.4024 L 603.0578 -500.9292 L 604.0568 -500.3161 L 604.8117 -499.869 L 605.5732 -499.4315 L 606.5967 -498.8643 L 607.373 -498.4496 L 608.4184 -497.9108 L 609.2119 -497.5158 L 610.2842 -497.0007 L 611.0977 -496.6232 L 611.9202 -496.2527 L 612.7503 -495.8893 L 613.8718 -495.4156 L 614.7215 -495.0689 L 615.5806 -494.7292 L 616.4492 -494.3969 L 617.3237 -494.073 L 618.2065 -493.7565 L 619.0974 -493.4478 L 620.298 -493.0483 L 621.2065 -492.7586 L 622.1229 -492.4777 L 623.3557 -492.117 L 624.2886 -491.8576 L 625.2283 -491.6078 L 626.1744 -491.3678 L 627.4451 -491.0634 L 628.4033 -490.847 L 629.3654 -490.6415 L 630.3315 -490.4472 L 631.2988 -490.265 L 632.2665 -490.0952 L 633.5585 -489.8896 L 634.525 -489.7517 L 635.8112 -489.5898 L 636.7717 -489.4854 L 637.7297 -489.3953 L 638.686 -489.3193 L 639.6421 -489.2575 L 640.9118 -489.1972 L 641.8637 -489.1686 L 643.1284 -489.1526 L 644.0766 -489.1571 L 645.3403 -489.1844 L 646.2875 -489.2207 L 647.2338 -489.2701 L 648.1801 -489.3325 L 649.1303 -489.408 L 650.392 -489.5278 L 651.3412 -489.6322 L 652.2903 -489.748 L 653.2429 -489.8755 L 654.196 -490.0144 L 655.1492 -490.1645 L 656.1055 -490.3263 L 657.381 -490.5594 L 658.3411 -490.7483 L 659.2991 -490.9477 L 660.261 -491.159 L 661.5452 -491.4587 L 662.5071 -491.6966 L 663.7932 -492.0321 L 664.761 -492.298 L 666.0442 -492.6687 L 667.0081 -492.9611 L 668.2952 -493.3694 L 669.2561 -493.688 L 670.2203 -494.0199 L 671.5019 -494.4794 L 672.4625 -494.8372 L 673.4219 -495.2068 L 674.3819 -495.5881 L 675.336 -495.9785 L 676.2901 -496.38 L 677.2435 -496.7919 L 678.1964 -497.2133 L 679.4639 -497.7883 L 680.4141 -498.2294 L 681.3641 -498.6775 L 682.3123 -499.1311 L 683.5789 -499.7444 L 684.5281 -500.2084 L 685.4803 -500.675 L 686.7576 -501.3006 L 687.7283 -501.7738 L 689.0308 -502.4023 L 690.0134 -502.8699 L 691.0012 -503.3333 L 691.9983 -503.7935 L 692.9994 -504.2473 L 694.0088 -504.6959 L 695.0245 -505.1383 L 696.0483 -505.5747 L 697.4243 -506.146 L 698.4617 -506.5647 L 699.5085 -506.9766 L 700.9128 -507.5121 L 701.9749 -507.9042 L 703.4031 -508.4135 L 704.4808 -508.7844 L 705.564 -509.1451 L 706.6531 -509.4953 L 708.1127 -509.9449 L 709.212 -510.2682 L 710.6776 -510.6773 L 711.7792 -510.9678 L 712.8765 -511.2418 L 713.9724 -511.4998 L 715.062 -511.7401 L 716.1489 -511.9633 L 717.2305 -512.169 L 718.3083 -512.3572 L 719.3837 -512.5283 L 720.8018 -512.7274 L 721.8622 -512.8563 L 722.9175 -512.968 L 724.3104 -513.0908 L 725.35 -513.1646 L 726.7252 -513.2401 L 727.7493 -513.2797 L 728.7672 -513.3054 L 729.7787 -513.3178 L 731.1166 -513.3156 L 732.1122 -513.3006 L 733.1038 -513.2752 L 734.0875 -513.2397 L 735.0674 -513.1946 L 736.0414 -513.1404 L 737.3293 -513.0554 L 738.2906 -512.9821 L 739.2465 -512.9011 L 740.5115 -512.7817 L 741.4545 -512.6835 L 742.3929 -512.578 L 743.3266 -512.4655 L 744.256 -512.3458 L 745.4897 -512.1757 L 746.41 -512.0403 L 747.3272 -511.8982 L 748.5457 -511.6987 L 749.4572 -511.5414 L 750.3654 -511.3776 L 751.2722 -511.2072 L 752.1794 -511.0295 L 753.3806 -510.783 L 754.2819 -510.5891 L 755.1823 -510.3876 L 756.3805 -510.1061 L 757.2761 -509.8856 L 758.4705 -509.5777 L 759.364 -509.3365 L 760.5517 -509.0013 L 761.4426 -508.7389 L 762.3342 -508.4667 L 763.2229 -508.1857 L 764.1125 -507.8945 L 765.2952 -507.4916 L 766.1809 -507.1773 L 767.3577 -506.7421 L 768.2377 -506.4034 L 769.1156 -506.0541 L 769.9919 -505.6941 L 770.8669 -505.3238 L 772.0287 -504.8145 L 772.8988 -504.4202 L 773.766 -504.016 L 774.6319 -503.6012 L 775.4973 -503.1757 L 776.6467 -502.5932 L 777.5071 -502.1442 L 778.3677 -501.6845 L 779.5103 -501.0563 L 780.3668 -500.5718 L 781.5025 -499.9117 L 782.3535 -499.4033 L 783.2038 -498.8849 L 784.0505 -498.3568 L 785.176 -497.6375 L 786.0198 -497.0848 L 787.1378 -496.3342 L 787.9738 -495.759 L 788.8068 -495.1736 L 789.6368 -494.5784 L 790.464 -493.9738 L 791.565 -493.1512 L 792.3884 -492.5229 L 793.2114 -491.8841 L 794.0308 -491.2372 L 794.8511 -490.5788 L 795.9409 -489.6874 L 796.7572 -489.007 L 797.843 -488.0852 L 798.6555 -487.3825 L 799.466 -486.6705 L 800.2756 -485.9486 L 801.0822 -485.2183 L 802.1564 -484.2294 L 802.9601 -483.4766 L 803.761 -482.716 L 804.8268 -481.6859 L 805.6226 -480.9032 L 806.415 -480.1116 L 807.2053 -479.309 L 807.9922 -478.4962 L 808.774 -477.6752 L 809.5535 -476.8427 L 810.587 -475.7184 L 811.3567 -474.865 L 812.3788 -473.7095 L 813.1386 -472.833 L 813.8957 -471.9468 L 814.6493 -471.0504 L 815.3983 -470.1469 L 816.1429 -469.2337 L 816.8831 -468.3101 L 817.8622 -467.0632 L 818.591 -466.1172 L 819.3195 -465.1592 L 820.2812 -463.8757 L 821.0009 -462.9024 L 821.9583 -461.5912 L 822.6749 -460.5998 L 823.6281 -459.2663 L 824.3409 -458.2578 L 825.0548 -457.2418 L 825.7687 -456.2184 L 826.4835 -455.1875 L 827.1994 -454.1504 L 828.1564 -452.7572 L 828.8779 -451.704 L 829.601 -450.6463 L 830.329 -449.5811 L 831.0585 -448.5116 L 831.7918 -447.4365 L 832.7766 -445.992 L 833.5168 -444.9063 L 834.2636 -443.8126 L 835.264 -442.3497 L 836.0196 -441.2467 L 837.036 -439.7679 L 837.8027 -438.6552 L 838.5756 -437.5369 L 839.6126 -436.0423 L 840.3986 -434.915 L 841.4542 -433.408 L 842.2538 -432.2707 L 843.0551 -431.1328 L 843.8624 -429.9887 L 844.9615 -428.4345 L 845.7632 -427.3037 L 846.8604 -425.7598 L 847.6915 -424.5939 L 848.5292 -423.4211 L 849.6533 -421.8508 L 850.5045 -420.6641 L 851.6475 -419.0733 L 852.5142 -417.869 L 853.3859 -416.6594 L 854.2641 -415.4421 L 855.1515 -414.213 L 856.0446 -412.9778 L 857.2407 -411.3254 L 858.1483 -410.0735 L 859.366 -408.3956 L 860.2862 -407.13 L 861.5239 -405.4298 L 862.4623 -404.1432 L 863.7186 -402.4235 L 864.6709 -401.1222 L 865.627 -399.8176 L 866.9126 -398.0657 L 867.8853 -396.7427 L 868.8641 -395.4138 L 869.8513 -394.0755 L 870.84 -392.7373 L 872.1704 -390.9406 L 873.179 -389.5826 L 874.5312 -387.7672 L 875.5542 -386.3978 L 876.5866 -385.0195 L 877.6223 -383.6402 L 879.0153 -381.7902 L 880.0662 -380.3979 L 881.478 -378.5309 L 882.5452 -377.1223 L 883.6167 -375.7097 L 884.6938 -374.2909 L 885.7755 -372.8674 L 887.2288 -370.956 L 888.3232 -369.5174 L 889.4213 -368.0757 L 890.5269 -366.6241 L 891.6361 -365.1688 L 893.1224 -363.219 L 894.2424 -361.7509 L 895.3686 -360.2753 L 896.4987 -358.7959 L 897.6324 -357.3121 L 899.1507 -355.3261 L 900.2925 -353.8323 L 901.4361 -352.3387 L 902.5816 -350.8436 L 903.7541 -349.3152 L 905.2534 -347.364 L 906.3979 -345.8761 L 907.918 -343.9016 L 909.0551 -342.4264 L 910.1921 -340.9521 L 911.7019 -338.9969 L 912.8324 -337.5347 L 913.9562 -336.0804 L 915.075 -334.6332 L 916.1875 -333.1942 L 917.6564 -331.2935 L 918.749 -329.8786 L 920.1887 -328.0126 L 921.2582 -326.6249 L 922.6657 -324.7961 L 923.7116 -323.4347 L 924.7456 -322.0868 L 925.7691 -320.7504 L 926.7822 -319.4254 L 928.1152 -317.6788 L 929.102 -316.3829 L 930.0755 -315.1022 L 931.0374 -313.8341 L 931.9865 -312.5808 L 932.9237 -311.3406 L 933.8499 -310.1126 L 935.0635 -308.4998 L 935.9608 -307.3055 L 936.8445 -306.1267 L 937.7136 -304.965 L 938.8514 -303.4418 L 939.69 -302.3172 L 940.5146 -301.2092 L 941.3265 -300.1169 L 942.384 -298.6913 L 943.1622 -297.6404 L 944.18 -296.2634 L 944.928 -295.2497 L 945.6664 -294.2478 L 946.6273 -292.9409 L 947.3309 -291.9814 L 948.246 -290.7291 L 948.9132 -289.8112 L 949.7794 -288.6114 L 950.4103 -287.7306 L 951.0258 -286.8644 L 951.8234 -285.7301 L 952.4034 -284.8956 L 952.9703 -284.0716 L 953.7034 -282.9923 L 954.2383 -282.1945 L 954.9321 -281.1459 L 955.4388 -280.3693 L 955.9362 -279.5977 L 956.4252 -278.8293 L 956.9065 -278.0641 L 957.3818 -277.2985 L 957.8474 -276.5374 L 958.3031 -275.7824 L 958.8975 -274.7816 L 959.3326 -274.0367 L 959.759 -273.2962 L 960.1761 -272.5609 L 960.5851 -271.8289 L 961.1171 -270.8596 L 961.5062 -270.1371 L 962.0137 -269.1786 L 962.3856 -268.4635 L 962.869 -267.5166 L 963.2233 -266.81 L 963.5701 -266.107 L 964.0223 -265.1733 L 964.3524 -264.4801 L 964.6766 -263.7878 L 965.0981 -262.871 L 965.4073 -262.1859 L 965.809 -261.2787 L 966.1031 -260.6003 L 966.3908 -259.9259 L 966.7634 -259.0324 L 967.036 -258.3636 L 967.3889 -257.4774 L 967.6467 -256.8142 L 967.98 -255.9345 L 968.2228 -255.2754 L 968.4588 -254.6193 L 968.7636 -253.7462 L 968.9845 -253.0927 L 969.1991 -252.4395 L 969.4067 -251.7881 L 969.6744 -250.9169 L 969.8667 -250.2663 L 970.1136 -249.3946 L 970.2919 -248.7377 L 970.5203 -247.8594 L 970.6846 -247.1968 L 970.8431 -246.5312 L 970.9968 -245.8592 L 971.1447 -245.1838 L 971.333 -244.2748 L 971.4681 -243.5872 L 971.5975 -242.8932 L 971.7609 -241.9593 L 971.8761 -241.2555 L 971.9853 -240.5436 L 972.0884 -239.8266 L 972.2161 -238.86 L 972.3036 -238.1299 L 972.4099 -237.1446 L 972.4807 -236.3996 L 972.5439 -235.6483 L 972.6155 -234.6383 L 972.6591 -233.8753 L 972.6936 -233.105 L 972.7247 -232.0769 L 972.7363 -231.2992 L 972.7354 -230.2597 L 972.7219 -229.4755 L 972.6862 -228.4285 L 972.6457 -227.6375 L 972.5735 -226.5832 L 972.5054 -225.7892 L 972.3953 -224.7251 L 972.2986 -223.9252 L 972.1502 -222.8547 L 972.0244 -222.0506 L 971.837 -220.9751 L 971.6821 -220.1687 L 971.515 -219.362 L 971.3361 -218.5577 L 971.1455 -217.7564 L 970.874 -216.6947 L 970.6578 -215.905 L 970.4306 -215.1207 L 970.1122 -214.0867 L 969.8618 -213.3191 L 969.6019 -212.5595 L 969.2405 -211.5578 L 968.9595 -210.8172 L 968.6697 -210.0851 L 968.3709 -209.3604 L 968.064 -208.6451 L 967.7484 -207.9383 L 967.4246 -207.2416 L 967.0923 -206.5537 L 966.7512 -205.874 L 966.2845 -204.984 L 965.9246 -204.3266 L 965.5568 -203.6785 L 965.0538 -202.8291 L 964.6677 -202.204 L 964.273 -201.5874 L 963.8707 -200.9804 L 963.3217 -200.1855 L 962.9009 -199.5995 L 962.4719 -199.0219 L 961.8904 -198.2694 L 961.4445 -197.7146 L 960.836 -196.987 L 960.3696 -196.4511 L 959.7354 -195.7502 L 959.2484 -195.2324 L 958.753 -194.7225 L 958.0765 -194.0524 L 957.558 -193.5576 L 957.0286 -193.0684 L 956.4892 -192.5857 L 955.9387 -192.109 L 955.1897 -191.4844 L 954.6157 -191.0238 L 954.0314 -190.5701 L 953.2375 -189.9775 L 952.6306 -189.5424 L 952.014 -189.1155 L 951.1768 -188.5602 L 950.5404 -188.1567 L 949.8929 -187.7617 L 949.0195 -187.2542 L 948.3553 -186.8869 L 947.6834 -186.5315 L 946.7789 -186.0782 L 946.0921 -185.7524 L 945.1692 -185.3397 L 944.47 -185.0454 L 943.765 -184.7641 L 943.0551 -184.4967 L 942.3393 -184.2423 L 941.6213 -184.0022 L 940.6536 -183.7026 L 939.9224 -183.4939 L 938.9436 -183.238 L 938.2047 -183.0622 L 937.4617 -182.9003 L 936.7175 -182.7532 L 935.9661 -182.6194 L 934.9617 -182.4632 L 934.2039 -182.3624 L 933.4431 -182.2756 L 932.6766 -182.2027 L 931.6519 -182.1275 L 930.8771 -182.0869 L 930.0975 -182.06 L 929.3141 -182.0466 L 928.5249 -182.0466 L 927.7308 -182.0598 L 926.6661 -182.0974 L 925.8607 -182.1405 L 924.7817 -182.2173 L 923.9662 -182.2892 L 923.1481 -182.3731 L 922.0505 -182.504 L 921.2215 -182.6167 L 920.1108 -182.7862 L 919.2733 -182.9281 L 918.4304 -183.083 L 917.5855 -183.2508 L 916.7353 -183.4323 L 915.6006 -183.6947 L 914.7444 -183.9078 L 913.6005 -184.213 L 912.7392 -184.458 L 911.5888 -184.806 L 910.7242 -185.0836 L 909.856 -185.3757 L 908.6998 -185.786 L 907.8316 -186.1103 L 906.9615 -186.4493 L 906.0917 -186.8024 L 904.9326 -187.2959 L 904.0644 -187.6834 L 903.1972 -188.0861 L 902.045 -188.646 L 901.1827 -189.0844 L 900.3243 -189.5383 L 899.4669 -190.0089 L 898.3299 -190.6602 L 897.4834 -191.1665 L 896.361 -191.8656 L 895.5237 -192.4086 L 894.415 -193.155 L 893.5894 -193.7326 L 892.7687 -194.325 L 891.9546 -194.9317 L 890.8771 -195.7629 L 890.0731 -196.4035 L 889.2767 -197.0547 L 888.4836 -197.72 L 887.6955 -198.3973 L 886.6512 -199.3206 L 885.8738 -200.026 L 885.1014 -200.7432 L 884.0765 -201.7186 L 883.3091 -202.4667 L 882.5416 -203.2313 L 881.5255 -204.2701 L 880.7661 -205.0646 L 880.0106 -205.8716 L 879.0075 -206.9669 L 878.2568 -207.8051 L 877.2617 -208.9405 L 876.5166 -209.8086 L 875.7754 -210.6885 L 874.7868 -211.8853 L 874.0505 -212.7955 L 873.315 -213.7201 L 872.5826 -214.6572 L 871.6104 -215.9268 L 870.8839 -216.8947 L 869.9225 -218.2037 L 869.2064 -219.2002 L 868.4933 -220.2117 L 867.5538 -221.5748 L 866.8544 -222.6138 L 866.1617 -223.6635 L 865.4739 -224.7271 L 864.5691 -226.1618 L 863.9005 -227.2495 L 863.2418 -228.3455 L 862.3787 -229.8212 L 861.7462 -230.9338 L 860.9227 -232.4256 L 860.3221 -233.5474 L 859.7357 -234.6729 L 859.1639 -235.8013 L 858.6085 -236.9296 L 858.0673 -238.0611 L 857.3703 -239.5691 L 856.8646 -240.7002 L 856.373 -241.8314 L 855.7381 -243.3387 L 855.277 -244.4663 L 854.8261 -245.5952 L 854.2402 -247.0952 L 853.8102 -248.2159 L 853.3842 -249.3364 L 852.8244 -250.8191 L 852.4045 -251.9279 L 851.9836 -253.0284 L 851.4166 -254.4875 L 850.9853 -255.5708 L 850.5469 -256.6476 L 850.1015 -257.7146 L 849.4952 -259.1223 L 849.0298 -260.1689 L 848.3973 -261.5467 L 847.912 -262.571 L 847.4189 -263.5837 L 846.7484 -264.9185 L 846.2357 -265.9078 L 845.7137 -266.8886 L 845.0067 -268.1781 L 844.4664 -269.1354 L 843.9199 -270.0811 L 843.1801 -271.3286 L 842.6163 -272.256 L 841.8577 -273.4753 L 841.2802 -274.3821 L 840.697 -275.2804 L 839.9084 -276.4682 L 839.3116 -277.3495 L 838.7082 -278.2258 L 837.8973 -279.3837 L 837.2836 -280.2467 L 836.667 -281.103 L 835.8401 -282.2373 L 835.2177 -283.0824 L 834.5942 -283.9211 L 833.9691 -284.7561 L 833.1341 -285.8595 L 832.5061 -286.6812 L 831.6676 -287.7654 L 831.0367 -288.5717 L 830.4023 -289.3712 L 829.5529 -290.4261 L 828.9133 -291.2075 L 828.0543 -292.2385 L 827.4047 -293.0045 L 826.5333 -294.0108 L 825.8734 -294.7577 L 825.2098 -295.4951 L 824.5396 -296.2252 L 823.6378 -297.1844 L 822.9537 -297.8943 L 822.2623 -298.5961 L 821.3335 -299.5151 L 820.6288 -300.1938 L 819.9167 -300.8638 L 818.9577 -301.7402 L 818.231 -302.3842 L 817.4966 -303.0175 L 816.7556 -303.6389 L 815.7578 -304.4485 L 814.9994 -305.0431 L 813.9787 -305.8166 L 813.2051 -306.3828 L 812.4243 -306.9374 L 811.6378 -307.4796 L 810.5778 -308.185 L 809.7754 -308.7004 L 808.6946 -309.3712 L 807.8745 -309.8621 L 807.0465 -310.3429 L 806.2095 -310.8139 L 805.363 -311.2752 L 804.2225 -311.8739 L 803.3539 -312.3131 L 802.1852 -312.8824 L 801.2964 -313.2997 L 800.3969 -313.7088 L 799.4879 -314.1096 L 798.262 -314.6307 L 797.3298 -315.0126 L 796.0737 -315.5078 L 795.1201 -315.8695 L 794.1556 -316.2232 L 793.1819 -316.5684 L 791.8693 -317.0153 L 790.873 -317.3409 L 789.8696 -317.657 L 788.5177 -318.0644 L 787.4913 -318.3593 L 786.1158 -318.7347 L 785.0734 -319.0042 L 783.6714 -319.346 L 782.6103 -319.5892 L 781.1841 -319.8951 L 780.1081 -320.1103 L 778.6596 -320.3787 L 777.566 -320.5652 L 776.4658 -320.7388 L 775.3593 -320.8998 L 773.8719 -321.0952 L 772.7531 -321.2267 L 771.6243 -321.3461 L 770.1139 -321.4852 L 768.9735 -321.5749 L 767.4472 -321.6737 L 766.2952 -321.7322 L 764.7532 -321.7892 L 763.5925 -321.8163 L 762.4269 -321.83 L 761.2594 -321.8294 L 760.0884 -321.8143 L 758.5216 -321.7715 L 757.3438 -321.7224 L 755.7669 -321.6342 L 754.5836 -321.5512 L 753.3961 -321.4537 L 751.8092 -321.3011 L 750.6151 -321.17 L 749.0233 -320.973 L 747.8279 -320.8083 L 746.6293 -320.6294 L 745.4301 -320.4366 L 744.2319 -320.2308 L 743.0308 -320.0112 L 741.8306 -319.7784 L 740.2271 -319.4471 L 739.0249 -319.184 L 737.8208 -318.9078 L 736.2147 -318.5201 L 735.0116 -318.2153 L 733.8065 -317.8975 L 732.201 -317.4555 L 730.9966 -317.1098 L 729.7919 -316.7516 L 728.5891 -316.3819 L 727.386 -316.0002 L 725.7834 -315.4736 L 724.5823 -315.0659 L 722.9817 -314.5053 L 721.7815 -314.0727 L 720.5793 -313.6297 L 719.3782 -313.1769 L 718.1763 -312.7156 L 716.5718 -312.0869 L 715.3651 -311.6058 L 714.158 -311.1187 L 712.9459 -310.6251 L 711.322 -309.9586 L 710.0956 -309.4521 L 708.8631 -308.9408 L 707.6212 -308.424 L 705.9474 -307.7254 L 704.6795 -307.1949 L 703.4 -306.6589 L 702.108 -306.117 L 700.8068 -305.571 L 699.0511 -304.8347 L 697.7214 -304.2778 L 695.9291 -303.5291 L 694.5707 -302.963 L 693.2007 -302.3938 L 691.3557 -301.6297 L 689.9598 -301.0535 L 688.5498 -300.473 L 687.1265 -299.8887 L 685.214 -299.1057 L 683.7654 -298.5146 L 681.8139 -297.7208 L 680.3367 -297.1218 L 678.3504 -296.3193 L 676.845 -295.7133 L 675.3269 -295.1043 L 673.2866 -294.2892 L 671.7404 -293.6736 L 669.6601 -292.8485 L 668.0865 -292.2268 L 666.498 -291.6014 L 664.3611 -290.7635 L 662.7433 -290.1317 L 661.1102 -289.4966 L 658.916 -288.6473 L 657.2529 -288.0073 L 655.5787 -287.3661 L 653.8917 -286.7228 L 651.6205 -285.8616 L 649.9011 -285.2132 L 647.5965 -284.3481 L 645.8516 -283.6964 L 644.0941 -283.0424 L 642.3203 -282.3851 L 640.5401 -281.7277 L 638.1431 -280.8464 L 636.3387 -280.1858 L 634.5168 -279.5217 L 632.6835 -278.8562 L 630.8389 -278.1907 L 628.3635 -277.3035 L 626.4917 -276.6371 L 623.9823 -275.7508 L 622.0875 -275.0872 L 619.548 -274.2056 L 617.6282 -273.5456 L 615.6996 -272.8885 L 613.1112 -272.0164 L 611.1555 -271.3649 L 609.1896 -270.7165 L 606.5508 -269.8565 L 604.5624 -269.2162 L 602.5631 -268.5791 L 600.5524 -267.945 L 598.528 -267.3134 L 595.8194 -266.4789 L 593.7697 -265.8556 L 591.7148 -265.2377 L 589.646 -264.6231 L 587.5346 -264.0035 L 584.784 -263.2077 L 582.6797 -262.6076 L 579.8633 -261.8165 L 577.7376 -261.2285 L 575.6011 -260.6453 L 573.4548 -260.0677 L 571.296 -259.4951 L 569.1309 -258.9293 L 566.954 -258.3687 L 564.0334 -257.629 L 561.8337 -257.0813 L 559.6219 -256.5388 L 556.6615 -255.8247 L 554.4257 -255.2941 L 551.4347 -254.595 L 549.176 -254.075 L 546.9163 -253.561 L 544.6454 -253.0503 L 542.3608 -252.5422 L 539.3066 -251.8717 L 537.0032 -251.3719 L 533.9247 -250.7111 L 531.6 -250.2171 L 529.2718 -249.7262 L 526.1524 -249.0741 L 523.806 -248.5873 L 520.662 -247.9395 L 518.2934 -247.4543 L 515.9234 -246.9705 L 512.7447 -246.3242 L 510.3579 -245.8406 L 507.162 -245.1946 L 504.7612 -244.7101 L 502.3525 -244.2245 L 499.9394 -243.7384 L 497.5287 -243.2528 L 495.1097 -242.7652 L 492.6906 -242.2773 L 489.4584 -241.6248 L 487.0351 -241.1353 L 484.6116 -240.6453 L 482.1834 -240.1544 L 479.7676 -239.6658 L 476.5392 -239.0128 L 474.1161 -238.5223 L 470.9262 -237.8763 L 468.5331 -237.3911 L 465.3563 -236.7462 L 462.9983 -236.2667 L 460.6444 -235.7873 L 457.5438 -235.1539 L 455.2302 -234.6796 L 452.9415 -234.2091 L 449.9219 -233.5859 L 447.6859 -233.1226 L 444.7447 -232.5102 L 442.5714 -232.0558 L 440.4239 -231.6053 L 438.2996 -231.1581 L 435.5172 -230.57 L 433.4573 -230.1331 L 430.7598 -229.5592 L 428.7641 -229.1338 L 426.1486 -228.5753 L 424.2142 -228.1619 L 422.3076 -227.7543 L 419.8125 -227.221 L 417.966 -226.8264 L 416.1499 -226.4384 L 413.7655 -225.9292 L 412.0094 -225.5544 L 410.2805 -225.1855 L 408.5804 -224.8228 L 406.9054 -224.4654 L 405.2535 -224.1128 L 403.6278 -223.7655 L 402.0213 -223.4218 L 400.4427 -223.0837 L 398.8852 -222.7494 L 396.8449 -222.31 L 395.348 -221.9862 L 393.8687 -221.6648 L 391.9252 -221.24 L 390.4891 -220.9241 L 389.0652 -220.6092 L 387.6621 -220.2972 L 385.8058 -219.8817 L 384.4254 -219.5707 L 383.0479 -219.2587 L 381.2197 -218.8418 L 379.8513 -218.528 L 378.4843 -218.213 L 376.6712 -217.7932 L 375.3127 -217.4772 L 373.9602 -217.1613 L 372.6077 -216.8441 L 370.8141 -216.4216 L 369.4691 -216.1035 L 367.6869 -215.6799 L 366.3524 -215.3611 L 364.5778 -214.9339 L 363.2521 -214.6116 L 361.4882 -214.178 L 360.1715 -213.85 L 358.421 -213.4075 L 357.1121 -213.0713 L 355.3745 -212.6168 L 354.0775 -212.2705 L 352.7822 -211.9177 L 351.4952 -211.5596 L 350.2108 -211.194 L 348.9324 -210.8209 L 347.6615 -210.4399 L 346.3951 -210.0491 L 344.7182 -209.5132 L 343.4681 -209.099 L 341.8142 -208.5307 L 340.5803 -208.0914 L 338.9483 -207.4896 L 337.7326 -207.0253 L 336.5224 -206.5494 L 334.9223 -205.8993 L 333.7289 -205.3985 L 332.1507 -204.7149 L 330.9743 -204.1892 L 329.8058 -203.6531 L 328.6424 -203.1051 L 327.4917 -202.5485 L 325.9627 -201.7859 L 324.8281 -201.2029 L 323.6971 -200.6071 L 322.2037 -199.7982 L 321.0868 -199.1766 L 319.9804 -198.5467 L 318.5166 -197.6909 L 317.4251 -197.0361 L 315.9857 -196.1512 L 314.912 -195.4763 L 313.8444 -194.7928 L 312.428 -193.8665 L 311.3739 -193.162 L 310.3221 -192.4459 L 308.9308 -191.4787 L 307.8896 -190.7402 L 306.8558 -189.9951 L 305.8269 -189.2417 L 304.8019 -188.4788 L 303.445 -187.4489 L 302.4318 -186.6651 L 301.0905 -185.6081 L 300.088 -184.8039 L 298.7621 -183.7199 L 297.7705 -182.8934 L 296.7802 -182.0543 L 295.4832 -180.9344 L 294.5144 -180.0818 L 293.5478 -179.2172 L 292.2722 -178.0535 L 291.321 -177.1686 L 290.3771 -176.2758 L 289.1286 -175.07 L 288.203 -174.1563 L 287.2841 -173.2309 L 286.3749 -172.2962 L 285.4749 -171.3512 L 284.5825 -170.3944 L 283.7002 -169.4289 L 282.5387 -168.1265 L 281.6792 -167.1384 L 280.8274 -166.1366 L 279.7168 -164.7953 L 278.8951 -163.7753 L 278.0866 -162.7475 L 277.0234 -161.3575 L 276.2481 -160.3139 L 275.4809 -159.2552 L 274.4787 -157.8319 L 273.7393 -156.7527 L 272.7726 -155.3028 L 272.0583 -154.2024 L 271.13 -152.7345 L 270.4424 -151.6195 L 269.5439 -150.1249 L 268.8812 -148.993 L 268.2313 -147.8569 L 267.3808 -146.3295 L 266.7541 -145.1741 L 265.9377 -143.6294 L 265.3356 -142.4599 L 264.5505 -140.8943 L 263.9735 -139.7136 L 263.4055 -138.5257 L 262.6641 -136.9332 L 262.1193 -135.7306 L 261.5853 -134.5226 L 261.0605 -133.3068 L 260.3764 -131.6765 L 259.8741 -130.4457 L 259.2179 -128.7948 L 258.7364 -127.5509 L 258.2637 -126.3015 L 257.6464 -124.6249 L 257.194 -123.3619 L 256.7499 -122.0925 L 256.3154 -120.8206 L 255.8895 -119.5433 L 255.4722 -118.26 L 254.9317 -116.547 L 254.5368 -115.2555 L 254.1523 -113.9621 L 253.7793 -112.668 L 253.4179 -111.3707 L 253.0694 -110.0733 L 252.6195 -108.319 L 252.3065 -107.0388 L 251.9034 -105.3036 L 251.6167 -104.0005 L 251.3444 -102.6981 L 251.0862 -101.3948 L 250.8429 -100.0934 L 250.5407 -98.3559 L 250.332 -97.0572 L 250.0771 -95.3241 L 249.9041 -94.0284 L 249.7461 -92.7313 L 249.5598 -91.0087 L 249.4371 -89.7148 L 249.2968 -87.9974 L 249.208 -86.7084 L 249.1326 -85.4161 L 249.0529 -83.7015 L 249.0073 -82.4108 L 248.9734 -81.1222 L 248.9451 -79.3991 L 248.9357 -78.1046 L 248.9357 -76.8087 L 248.9501 -75.0745 L 248.9713 -73.7749 L 249.001 -72.47 L 249.0387 -71.1637 L 249.1011 -69.4156 L 249.1567 -68.1018 L 249.2196 -66.7867 L 249.2903 -65.4664 L 249.3687 -64.1458 L 249.4867 -62.3816 L 249.5863 -61.0514 L 249.7332 -59.2814 L 249.855 -57.9477 L 249.9865 -56.614 L 250.1285 -55.2745 L 250.2805 -53.9373 L 250.4431 -52.5993 L 250.6776 -50.8073 L 250.8663 -49.4638 L 251.1358 -47.6721 L 251.3515 -46.3303 L 251.5802 -44.9833 L 251.9044 -43.1897 L 252.1631 -41.8428 L 252.5285 -40.0477 L 252.8178 -38.7034 L 253.2241 -36.9119 L 253.5443 -35.5679 L 253.878 -34.2242 L 254.3438 -32.4361 L 254.7099 -31.0946 L 255.0897 -29.7555 L 255.4825 -28.4229 L 256.0293 -26.6486 L 256.4576 -25.3179 L 256.899 -23.9943 L 257.5109 -22.2292 L 257.9858 -20.9102 L 258.6418 -19.1545 L 259.1501 -17.8412 L 259.6718 -16.5315 L 260.2075 -15.2233 L 260.942 -13.484 L 261.5085 -12.1812 L 262.0875 -10.8817 L 262.8789 -9.1529 L 263.4866 -7.859 L 264.1063 -6.5667 L 264.7383 -5.2752 L 265.5959 -3.5625 L 266.2536 -2.2774 L 267.1451 -.571 L 267.8279 .7101 L 268.751 2.4099 L 269.4564 3.6857 L 270.1702 4.9581 L 270.8938 6.2304 L 271.627 7.503 L 272.3655 8.7688 L 273.3653 10.458 L 274.1253 11.7234 L 275.1523 13.4083 L 275.9315 14.668 L 276.9834 16.343 L 277.7834 17.5981 L 278.591 18.8487 L 279.4082 20.0983 L 280.5148 21.7651 L 281.3582 23.0156 L 282.2094 24.2605 L 283.0727 25.5058 L 284.2367 27.1577 L 285.1226 28.3937 L 286.0191 29.6256 L 287.2318 31.262 L 288.1539 32.4846 L 289.0864 33.7025 L 290.3455 35.3191 L 291.3029 36.5275 L 292.5951 38.1303 L 293.5759 39.326 L 294.9012 40.913 L 295.9084 42.0976 L 297.2674 43.666 L 298.2998 44.8341 L 299.3449 45.9958 L 300.4005 47.1485 L 301.4677 48.2929 L 302.5463 49.4288 L 303.6362 50.5559 L 305.1067 52.0443 L 306.2204 53.1474 L 307.7241 54.6046 L 308.8628 55.6832 L 310.3962 57.1023 L 311.5589 58.1531 L 313.1258 59.5353 L 314.3145 60.5583 L 315.9097 61.8973 L 317.1174 62.8858 L 318.3354 63.8608 L 319.5665 64.8239 L 321.2209 66.0838 L 322.4776 67.0157 L 324.1606 68.234 L 325.4366 69.1374 L 326.7205 70.0303 L 328.0156 70.9153 L 329.3207 71.7917 L 331.0687 72.9422 L 332.3931 73.7974 L 334.1749 74.9274 L 335.5169 75.7648 L 337.3168 76.8716 L 338.6774 77.6966 L 340.0439 78.5156 L 341.4175 79.3294 L 343.2582 80.4053 L 344.6457 81.2054 L 346.0407 81.9998 L 347.9124 83.0497 L 349.322 83.8281 L 351.2153 84.857 L 352.64 85.6185 L 354.0747 86.3746 L 355.5142 87.1226 L 357.4443 88.1084 L 358.9015 88.8395 L 360.364 89.5622 L 361.8332 90.2777 L 363.31 90.9871 L 364.7936 91.6898 L 366.2844 92.3852 L 368.281 93.299 L 369.789 93.9761 L 371.3039 94.6454 L 372.8284 95.3087 L 374.8694 96.1805 L 376.4087 96.8256 L 378.4746 97.6758 L 380.0334 98.3062 L 381.5984 98.93 L 383.1749 99.5489 L 385.2813 100.3602 L 386.8737 100.9611 L 389.0111 101.7503 L 390.6273 102.3341 L 392.2519 102.9103 L 393.8872 103.4808 L 396.0786 104.2308 L 397.7365 104.7875 L 399.4014 105.3376 L 401.6399 106.0638 L 403.3261 106.6017 L 405.0241 107.1368 L 406.735 107.6708 L 408.4523 108.2028 L 410.7621 108.9136 L 412.5051 109.4472 L 414.2604 109.9826 L 416.027 110.5202 L 417.8041 111.0602 L 419.5935 111.6035 L 421.4038 112.153 L 423.813 112.8843 L 425.6373 113.4382 L 427.4764 113.9969 L 429.33 114.5603 L 431.8154 115.3161 L 433.6965 115.8884 L 435.586 116.4635 L 438.1263 117.2369 L 440.0424 117.8207 L 442.6068 118.6029 L 444.5469 119.1952 L 447.1443 119.9885 L 449.1085 120.5887 L 451.7406 121.3928 L 453.7239 121.9983 L 455.7222 122.6077 L 457.7304 123.2194 L 459.7477 123.8329 L 462.4507 124.6534 L 464.4951 125.2724 L 466.5522 125.8939 L 469.2999 126.7215 L 471.3761 127.3449 L 473.4641 127.9703 L 476.2602 128.8053 L 478.3648 129.4324 L 481.1854 130.2708 L 483.3093 130.9013 L 486.1446 131.7424 L 488.278 132.3753 L 490.4196 133.0107 L 492.5553 133.6452 L 495.4093 134.4947 L 497.5484 135.1328 L 499.6869 135.7723 L 501.8249 136.4133 L 504.6636 137.2673 L 506.7896 137.9093 L 509.6178 138.7666 L 511.73 139.4093 L 513.84 140.0536 L 516.6466 140.9145 L 518.7383 141.5588 L 520.8261 142.204 L 522.9079 142.8498 L 524.9741 143.4928 L 527.0403 144.1378 L 529.0925 144.7806 L 531.1396 145.4242 L 533.182 146.0687 L 535.2076 146.7101 L 537.2279 147.3521 L 539.9 148.205 L 541.8909 148.8432 L 544.523 149.6907 L 546.4779 150.323 L 548.4197 150.9537 L 550.3416 151.5807 L 552.2531 152.2072 L 554.7657 153.035 L 556.6371 153.6548 L 559.0944 154.473 L 560.9183 155.0833 L 562.7208 155.6891 L 564.5082 156.292 L 566.2753 156.8903 L 568.5992 157.6799 L 570.3223 158.2673 L 572.5873 159.0413 L 574.2695 159.6172 L 576.4811 160.3752 L 578.1245 160.9389 L 580.2964 161.684 L 581.9144 162.2389 L 584.064 162.9758 L 585.6646 163.5241 L 587.2576 164.0695 L 588.8367 164.6099 L 590.4095 165.1482 L 592.4901 165.8605 L 594.0424 166.3924 L 595.5883 166.9226 L 597.1265 167.451 L 599.163 168.1522 L 600.6805 168.6765 L 602.1921 169.2009 L 603.6924 169.7239 L 605.6752 170.4201 L 607.1517 170.9428 L 609.098 171.6382 L 610.5423 172.1599 L 611.9739 172.6821 L 613.3923 173.2048 L 615.26 173.9021 L 616.6459 174.4265 L 618.0124 174.9496 L 619.3688 175.4754 L 620.7081 176.001 L 622.0335 176.5283 L 623.3458 177.0573 L 624.6426 177.5873 L 626.3508 178.2974 L 627.6166 178.8327 L 628.8672 179.3699 L 630.5164 180.0921 L 631.7369 180.6377 L 633.3478 181.3734 L 634.544 181.932 L 635.7322 182.4982 L 636.9125 183.0729 L 638.4695 183.8507 L 639.6288 184.445 L 640.7997 185.0586 L 642.2974 185.8642 L 643.4254 186.4874 L 644.5427 187.1196 L 645.6499 187.7618 L 646.7467 188.4141 L 647.835 189.0784 L 648.9102 189.7525 L 649.9728 190.4377 L 651.0182 191.1318 L 652.0479 191.8364 L 653.3973 192.7942 L 654.3875 193.5236 L 655.3621 194.2651 L 656.3223 195.0198 L 657.5724 196.0401 L 658.4926 196.8197 L 659.3961 197.6097 L 660.285 198.4118 L 661.4457 199.4973 L 662.2989 200.3236 L 663.1375 201.1596 L 664.2336 202.2882 L 665.0425 203.1471 L 666.0997 204.3033 L 666.8831 205.1837 L 667.6538 206.0695 L 668.4172 206.9659 L 669.1704 207.869 L 669.915 208.7802 L 670.6526 209.701 L 671.621 210.939 L 672.3384 211.8786 L 673.0447 212.8241 L 673.7429 213.7802 L 674.6573 215.0683 L 675.3299 216.0437 L 675.9924 217.0296 L 676.6418 218.0228 L 677.4894 219.3616 L 678.1093 220.3742 L 678.7169 221.397 L 679.3118 222.4295 L 679.8919 223.4688 L 680.6431 224.8689 L 681.1872 225.9265 L 681.7153 226.9928 L 682.2272 228.0681 L 682.8807 229.5101 L 683.351 230.602 L 683.802 231.699 L 684.236 232.8053 L 684.6519 233.9181 L 685.1776 235.4091 L 685.5515 236.5372 L 686.021 238.047 L 686.353 239.1898 L 686.6666 240.337 L 686.9623 241.4907 L 687.3279 243.0359 L 687.5815 244.2034 L 687.8908 245.7655 L 688.1022 246.9438 L 688.2961 248.129 L 688.5272 249.7132 L 688.6804 250.9093 L 688.816 252.1089 L 688.9338 253.3121 L 689.0339 254.5217 L 689.1396 256.1371 L 689.1982 257.3543 L 689.2391 258.5755 L 689.2622 259.7971 L 689.2674 261.0251 L 689.2543 262.252 L 689.2226 263.4859 L 689.1516 265.128 L 689.0762 266.3645 L 688.9463 268.0121 L 688.826 269.2531 L 688.6865 270.4955 L 688.4713 272.1484 L 688.2872 273.391 L 688.084 274.6342 L 687.861 275.8798 L 687.6191 277.122 L 687.3571 278.3651 L 687.0745 279.6098 L 686.6672 281.2647 L 686.3383 282.5056 L 685.8698 284.1549 L 685.4952 285.3907 L 685.1017 286.6227 L 684.6898 287.8519 L 684.1136 289.4857 L 683.6617 290.7089 L 683.1945 291.9284 L 682.5481 293.5522 L 682.0479 294.765 L 681.5353 295.9747 L 681.0112 297.1824 L 680.4786 298.3843 L 679.9372 299.5839 L 679.2081 301.1725 L 678.6563 302.3595 L 678.1046 303.5394 L 677.3699 305.1047 L 676.8235 306.272 L 676.1042 307.8231 L 675.5758 308.9795 L 675.0576 310.1334 L 674.3853 311.6669 L 673.8969 312.8124 L 673.4223 313.9558 L 672.9631 315.0952 L 672.5176 316.2353 L 671.9503 317.7445 L 671.5415 318.8759 L 671.149 320.0027 L 670.7718 321.1269 L 670.2932 322.6208 L 669.952 323.7385 L 669.522 325.2208 L 669.2176 326.329 L 668.9291 327.4326 L 668.6557 328.5337 L 668.3981 329.6299 L 668.1553 330.7236 L 667.8541 332.1792 L 667.6443 333.2705 L 667.3851 334.7251 L 667.2055 335.8179 L 666.9851 337.2764 L 666.8334 338.372 L 666.693 339.4702 L 666.5227 340.939 L 666.4078 342.0413 L 666.3035 343.148 L 666.1807 344.628 L 666.101 345.7406 L 666.0319 346.8584 L 665.9735 347.9775 L 665.9258 349.1002 L 665.8891 350.2255 L 665.8634 351.3555 L 665.847 352.8666 L 665.8488 353.9986 L 665.8629 355.1369 L 665.9016 356.6531 L 665.9461 357.7938 L 666.0042 358.9315 L 666.103 360.45 L 666.1932 361.5858 L 666.2978 362.7195 L 666.4171 363.8528 L 666.5993 365.3597 L 666.7529 366.4835 L 666.9218 367.6073 L 667.1705 369.1022 L 667.3745 370.2205 L 667.5936 371.3347 L 667.9102 372.8186 L 668.1657 373.9275 L 668.4369 375.0342 L 668.7237 376.1385 L 669.0264 377.2404 L 669.3442 378.3369 L 669.7921 379.7928 L 670.147 380.8839 L 670.6438 382.3316 L 671.0358 383.4167 L 671.4432 384.4972 L 672.0117 385.9377 L 672.4565 387.0163 L 673.0753 388.4547 L 673.5589 389.5331 L 674.0583 390.6088 L 674.7495 392.0406 L 675.2867 393.1114 L 675.8406 394.1804 L 676.4117 395.2488 L 677.1979 396.6686 L 677.8064 397.7309 L 678.4322 398.7941 L 679.2886 400.2043 L 679.9496 401.2606 L 680.6262 402.3138 L 681.3195 403.3657 L 682.0273 404.4119 L 682.7524 405.4561 L 683.7427 406.8404 L 684.5034 407.8726 L 685.2802 408.9002 L 686.0728 409.9228 L 686.8786 410.9373 L 687.7019 411.9485 L 688.8225 413.2853 L 689.6816 414.2809 L 690.5564 415.2699 L 691.7441 416.5752 L 692.6539 417.5473 L 693.5774 418.5113 L 694.5156 419.4687 L 695.4692 420.4202 L 696.7609 421.6771 L 697.7454 422.6126 L 699.0789 423.8506 L 700.0939 424.7708 L 701.1227 425.6845 L 702.5146 426.8916 L 703.5757 427.7902 L 704.6449 428.6783 L 706.0911 429.8533 L 707.1909 430.7272 L 708.3022 431.5934 L 709.8169 432.7485 L 710.9375 433.5842 L 712.0864 434.4248 L 713.2469 435.2574 L 714.4172 436.0804 L 715.9949 437.1642 L 717.1939 437.9689 L 718.4008 438.7643 L 720.0272 439.8156 L 721.2593 440.5972 L 722.4995 441.3707 L 724.1711 442.3926 L 725.4339 443.1496 L 726.7078 443.9012 L 727.9913 444.6471 L 729.713 445.6301 L 731.0187 446.3632 L 732.334 447.0907 L 733.6608 447.8141 L 734.9963 448.5317 L 736.7938 449.4812 L 738.1517 450.1866 L 739.9716 451.1165 L 741.3502 451.8092 L 742.7382 452.496 L 744.6024 453.4024 L 746.012 454.0766 L 747.4331 454.7471 L 749.362 455.6431 L 750.7803 456.2921 L 752.2305 456.9469 L 753.6925 457.5982 L 755.1609 458.2437 L 756.6418 458.8862 L 758.1299 459.5235 L 759.6288 460.1576 L 761.1391 460.7888 L 762.6589 461.4166 L 764.1863 462.0404 L 766.2369 462.8679 L 767.7839 463.485 L 769.341 464.1013 L 771.4305 464.9226 L 773.0053 465.5384 L 775.1189 466.3633 L 776.7097 466.9848 L 778.8409 467.8207 L 780.4478 468.4551 L 782.0577 469.0948 L 783.6749 469.743 L 785.8355 470.6186 L 787.4594 471.2846 L 789.0893 471.9608 L 791.2641 472.8753 L 792.8989 473.5733 L 794.5366 474.2817 L 796.1762 475.0011 L 797.8159 475.7312 L 800.0024 476.7224 L 801.6377 477.4761 L 803.2748 478.2426 L 804.9018 479.0168 L 806.5281 479.8038 L 808.1474 480.601 L 809.7576 481.4065 L 811.3615 482.222 L 813.4819 483.3205 L 815.0673 484.1566 L 817.1557 485.2772 L 818.7138 486.1283 L 820.771 487.2733 L 822.2974 488.1395 L 824.3104 489.3029 L 825.7998 490.1779 L 827.2695 491.0533 L 828.7158 491.9264 L 830.1429 492.7995 L 832.0125 493.9596 L 833.3917 494.8254 L 835.199 495.9724 L 836.5239 496.8256 L 837.8246 497.6761 L 839.0951 498.5203 L 840.3364 499.3583 L 841.9493 500.4648 L 843.1296 501.2855 L 844.6606 502.3631 L 845.7823 503.1624 L 846.8774 503.9525 L 847.9446 504.7328 L 849.3207 505.755 L 850.3279 506.515 L 851.3169 507.2707 L 852.278 508.0143 L 853.5256 508.9937 L 854.4338 509.7175 L 855.3191 510.4333 L 856.4612 511.3737 L 857.2908 512.0701 L 858.1077 512.7689 L 859.1309 513.6644 L 859.8802 514.3375 L 860.6071 515.0065 L 861.3143 515.6735 L 862.0016 516.3394 L 862.6721 517.0045 L 863.3289 517.673 L 864.1821 518.5688 L 864.808 519.2475 L 865.6192 520.1578 L 866.2137 520.8478 L 866.7949 521.542 L 867.5481 522.4734 L 868.0945 523.1716 L 868.6262 523.8708 L 869.1426 524.57 L 869.6434 525.2682 L 870.2872 526.1979 L 870.7536 526.8942 L 871.205 527.588 L 871.6436 528.2823 L 872.2072 529.2062 L 872.6135 529.8956 L 873.1364 530.8136 L 873.5143 531.5001 L 873.8809 532.1862 L 874.2363 532.8715 L 874.5801 533.5561 L 875.0206 534.4643 L 875.3387 535.145 L 875.7474 536.0532 L 876.0416 536.7328 L 876.4192 537.6391 L 876.6912 538.3198 L 876.9531 538.9995 L 877.2882 539.9067 L 877.5288 540.5882 L 877.8367 541.5012 L 878.0588 542.1907 L 878.2728 542.8819 L 878.5474 543.8137 L 878.7443 544.5177 L 878.9963 545.4658 L 879.1769 546.1829 L 879.3511 546.9064 L 879.5184 547.634 L 879.6785 548.3687 L 879.8798 549.3555 L 880.0214 550.1036 L 880.197 551.1117 L 880.3184 551.8748 L 880.4674 552.9038 L 880.5696 553.6833 L 880.6635 554.4705 L 880.7751 555.5284 L 880.8488 556.3307 L 880.9135 557.1401 L 880.9691 557.9542 L 881.0284 559.0527 L 881.0619 559.8828 L 881.0861 560.7209 L 881.104 561.8482 L 881.1073 562.7005 L 881.1022 563.5599 L 881.0887 564.4235 L 881.0669 565.2945 L 881.0236 566.4621 L 880.9799 567.345 L 880.9063 568.5328 L 880.8402 569.4284 L 880.7375 570.6302 L 880.6492 571.5382 L 880.5162 572.7593 L 880.4058 573.678 L 880.243 574.9128 L 880.1095 575.8446 L 879.966 576.7808 L 879.7586 578.0367 L 879.5909 578.9816 L 879.4126 579.9316 L 879.2242 580.8847 L 878.957 582.1591 L 878.7441 583.1201 L 878.52 584.0839 L 878.2032 585.3721 L 877.9516 586.3428 L 877.6846 587.3275 L 877.3195 588.6096 L 877.0283 589.5841 L 876.6214 590.8829 L 876.3013 591.8605 L 875.856 593.1613 L 875.5063 594.1398 L 875.0206 595.4425 L 874.642 596.4163 L 874.2494 597.3928 L 873.7098 598.6887 L 873.2904 599.6634 L 872.8606 600.6376 L 872.263 601.9511 L 871.8008 602.9335 L 871.3256 603.9169 L 870.6741 605.2275 L 870.1718 606.2095 L 869.6581 607.1939 L 869.1342 608.1763 L 868.5989 609.1588 L 867.8698 610.4673 L 867.3105 611.4507 L 866.5504 612.7603 L 865.9683 613.7427 L 865.3757 614.7261 L 864.5729 616.0347 L 863.9598 617.0172 L 863.1293 618.3287 L 862.4963 619.315 L 861.6449 620.6255 L 860.9977 621.6123 L 860.3443 622.6016 L 859.4619 623.9258 L 858.7969 624.9167 L 858.1231 625.9153 L 857.4467 626.9114 L 856.5354 628.2466 L 855.8459 629.2523 L 855.1541 630.2568 L 854.4576 631.2665 L 853.7557 632.2792 L 853.0491 633.2968 L 852.1048 634.6512 L 851.39 635.6737 L 850.6716 636.6979 L 849.7072 638.067 L 848.9799 639.0968 L 848.2477 640.1292 L 847.2654 641.5085 L 846.5235 642.5483 L 845.5303 643.9351 L 844.7793 644.9803 L 844.0259 646.0266 L 843.2679 647.0783 L 842.509 648.1292 L 841.4895 649.5377 L 840.722 650.5973 L 839.9515 651.6594 L 838.9174 653.0842 L 838.141 654.1528 L 837.3617 655.2259 L 836.3173 656.6625 L 835.5282 657.7455 L 834.7401 658.8253 L 833.6826 660.271 L 832.8837 661.3596 L 831.8134 662.8104 L 831.0048 663.9003 L 830.1907 664.9911 L 829.3704 666.0819 L 828.2675 667.537 L 827.4339 668.6259 L 826.5926 669.716 L 825.7464 670.8021 L 824.6062 672.2498 L 823.7413 673.3347 L 822.8699 674.4157 L 821.6953 675.8524 L 820.8054 676.9256 L 819.5886 678.3713 L 818.9895 679.0734 L 817.7731 680.4777 L 816.8417 681.5334 L 815.5862 682.9301 L 814.6326 683.9719 L 813.6696 685.006 L 812.3685 686.373 L 811.3787 687.3896 L 810.0403 688.7344 L 809.0283 689.728 L 807.6608 691.037 L 806.6183 692.0082 L 805.2122 693.2824 L 804.1448 694.2224 L 803.0687 695.1463 L 801.9799 696.0576 L 800.5164 697.245 L 799.4058 698.118 L 797.9108 699.255 L 796.7772 700.0887 L 795.2511 701.1735 L 794.0955 701.967 L 792.5387 702.9998 L 791.3611 703.7545 L 790.173 704.4941 L 788.5756 705.4557 L 787.3661 706.1599 L 786.1463 706.8502 L 784.925 707.5227 L 783.6915 708.1837 L 782.038 709.0429 L 780.7869 709.6735 L 779.1108 710.4932 L 777.8423 711.0947 L 776.5687 711.6829 L 774.8592 712.4476 L 773.5668 713.0078 L 772.2673 713.5557 L 770.9607 714.0914 L 769.2077 714.7866 L 767.8829 715.2946 L 766.1074 715.9526 L 764.7667 716.4318 L 763.4147 716.8997 L 762.0624 717.3522 L 760.2462 717.9355 L 758.8764 718.3568 L 757.5016 718.7637 L 756.1169 719.1568 L 754.2697 719.6565 L 752.876 720.0147 L 751.4757 720.3584 L 750.0728 720.6859 L 748.1941 721.0981 L 746.7775 721.389 L 745.3619 721.6627 L 743.9366 721.9216 L 742.0374 722.241 L 740.6052 722.4622 L 738.6967 722.731 L 737.2581 722.9138 L 735.8187 723.0798 L 734.3753 723.2298 L 732.928 723.3638 L 731.0034 723.5172 L 729.5522 723.6146 L 728.1017 723.6968 L 726.1623 723.7836 L 724.7072 723.8315 L 722.7612 723.8727 L 721.3016 723.8868 L 719.3533 723.8831 L 717.8875 723.8629 L 716.4225 723.8274 L 714.9538 723.7766 L 712.9958 723.6855 L 711.5204 723.5991 L 710.045 723.4974 L 708.5616 723.3795 L 707.0747 723.2462 L 705.1121 723.0476 L 703.6227 722.8799 L 702.1265 722.6967 L 700.6333 722.499 L 698.6348 722.212 L 697.1318 721.9794 L 695.1276 721.6478 L 693.6177 721.3823 L 692.1089 721.1037 L 690.0903 720.7101 L 688.5748 720.4006 L 686.5455 719.9673 L 685.0204 719.628 L 682.9853 719.1573 L 681.455 718.7906 L 679.4101 718.2847 L 677.8723 717.8931 L 676.3322 717.4917 L 674.2702 716.9403 L 672.7214 716.5152 L 670.6558 715.9345 L 669.0997 715.4877 L 667.0197 714.8782 L 665.4614 714.4115 L 663.892 713.9324 L 661.8082 713.2805 L 660.2388 712.778 L 658.1465 712.0916 L 656.5723 711.5627 L 654.4739 710.8398 L 652.9006 710.2842 L 651.3235 709.7163 L 649.7454 709.1365 L 647.6341 708.3434 L 646.0533 707.7365 L 644.4711 707.1184 L 642.3573 706.2762 L 640.7708 705.6313 L 639.1773 704.9728 L 637.0157 704.0618 L 635.4492 703.3888 L 633.3096 702.4522 L 631.6998 701.7342 L 629.5502 700.7579 L 627.9313 700.0105 L 626.3074 699.2504 L 624.1359 698.2177 L 622.5041 697.4299 L 620.3163 696.3577 L 618.6735 695.541 L 617.0227 694.711 L 615.3661 693.8676 L 613.1503 692.7238 L 611.4803 691.8501 L 609.2509 690.6674 L 607.5677 689.7629 L 605.3225 688.5403 L 603.629 687.6064 L 601.9322 686.6608 L 600.2291 685.7015 L 598.5225 684.7311 L 596.8077 683.7471 L 594.5181 682.4191 L 592.7988 681.4121 L 591.0739 680.3934 L 589.3467 679.3652 L 587.6153 678.3269 L 585.8741 677.275 L 583.5566 675.8628 L 581.8096 674.7897 L 580.0589 673.7064 L 577.7202 672.2473 L 575.9534 671.1356 L 573.6086 669.6472 L 571.8391 668.5143 L 569.4805 666.9918 L 567.7056 665.8369 L 565.3377 664.2825 L 563.5555 663.1018 L 561.7791 661.9142 L 559.9998 660.715 L 558.2244 659.5079 L 555.8582 657.8817 L 554.0855 656.6495 L 551.7335 654.996 L 549.9705 653.7427 L 548.215 652.4818 L 545.876 650.7819 L 544.1341 649.502 L 542.3909 648.2064 L 540.657 646.901 L 538.3562 645.1417 L 536.6378 643.8091 L 534.9259 642.4675 L 533.2156 641.1148 L 530.9483 639.3027 L 529.25 637.9315 L 526.9951 636.092 L 525.309 634.7029 L 523.6284 633.3065 L 521.9536 631.9025 L 520.2817 630.4875 L 518.0667 628.5905 L 516.4123 627.1559 L 514.7632 625.71 L 512.5838 623.7729 L 510.9548 622.3051 L 508.8014 620.3373 L 507.1961 618.8495 L 505.07 616.8514 L 503.4859 615.3423 L 501.9111 613.8251 L 500.3445 612.2994 L 498.2669 610.2521 L 496.7181 608.7088 L 495.1748 607.1572 L 493.6406 605.6016 L 491.6014 603.5146 L 490.0818 601.9456 L 488.5657 600.369 L 486.5523 598.2582 L 485.0505 596.6716 L 483.5502 595.0762 L 482.0577 593.4793 L 480.5706 591.8777 L 478.5956 589.7356 L 477.1195 588.1235 L 475.6472 586.5056 L 473.6955 584.3471 L 472.2342 582.7192 L 470.7809 581.0905 L 469.3308 579.4551 L 467.8859 577.8155 L 465.9695 575.6258 L 464.5351 573.9753 L 462.634 571.7739 L 461.2114 570.1166 L 459.7931 568.4572 L 457.9071 566.2399 L 456.4965 564.5759 L 455.0893 562.9096 L 453.2149 560.6811 L 451.814 559.0092 L 450.4153 557.3344 L 449.0186 555.6553 L 447.6272 553.9756 L 445.7759 551.7281 L 444.3959 550.0416 L 443.0181 548.347 L 441.6472 546.6504 L 439.8282 544.381 L 438.4717 542.6745 L 436.6702 540.3892 L 435.3285 538.6736 L 433.9867 536.946 L 432.6566 535.2236 L 430.888 532.918 L 429.5644 531.1821 L 428.2473 529.4449 L 426.9353 527.7051 L 425.6253 525.9572 L 424.3242 524.211 L 422.596 521.8741 L 421.3067 520.1169 L 420.0211 518.3521 L 418.3196 515.9947 L 417.0523 514.222 L 415.3749 511.8519 L 414.1245 510.0671 L 412.8786 508.273 L 411.6448 506.4805 L 410.4163 504.6796 L 409.1961 502.8756 L 407.5781 500.4597 L 406.3752 498.6467 L 405.1746 496.8239 L 403.5862 494.3937 L 402.3994 492.5645 L 401.2189 490.7341 L 400.0413 488.8976 L 398.8714 487.063 L 397.7031 485.2213 L 396.1539 482.7653 L 394.9956 480.9191 L 393.457 478.4538 L 392.3061 476.601 L 391.1604 474.7484 L 390.0177 472.8925 L 388.8778 471.0322 L 387.7444 469.1731 L 386.6142 467.3091 L 385.1149 464.8197 L 383.9963 462.9484 L 382.8832 461.074 L 381.4097 458.5722 L 380.3088 456.6875 L 378.8528 454.1755 L 377.7649 452.285 L 376.683 450.3944 L 375.2468 447.8703 L 374.1732 445.9747 L 372.7443 443.443 L 372.0314 442.1774 L 370.6061 439.6422 L 369.5411 437.7451 L 368.1193 435.2104 L 367.0544 433.3105 L 365.9894 431.4109 L 364.5665 428.8757 L 363.4982 426.9761 L 362.4294 425.0778 L 361.0018 422.548 L 359.9255 420.6457 L 358.4937 418.1237 L 357.4156 416.2314 L 355.9721 413.7058 L 354.8885 411.8163 L 353.4386 409.2963 L 352.3501 407.4101 L 350.8945 404.894 L 349.8006 403.0082 L 348.7035 401.1215 L 347.2404 398.6108 L 346.1423 396.7304 L 345.0409 394.8474 L 343.5697 392.3376 L 342.4662 390.4587 L 340.991 387.9518 L 339.8836 386.0734 L 338.4041 383.5695 L 337.2928 381.6938 L 335.8073 379.1936 L 334.6895 377.3186 L 333.57 375.447 L 332.445 373.5733 L 331.3193 371.7051 L 329.8129 369.2178 L 328.6773 367.3525 L 327.1585 364.871 L 326.0152 363.0135 L 324.8658 361.1554 L 323.7142 359.3033 L 322.1712 356.8381 L 321.0084 354.9932 L 319.8402 353.1516 L 318.2769 350.7059 L 317.0983 348.8773 L 315.5184 346.4473 L 314.3302 344.6361 L 313.1386 342.8344 L 311.9402 341.0375 L 310.7367 339.2488 L 309.5313 337.4737 L 308.3223 335.7101 L 306.6986 333.3684 L 305.4775 331.6277 L 304.2492 329.8949 L 303.0177 328.1755 L 301.7798 326.4655 L 300.1198 324.2014 L 298.8688 322.5176 L 297.6126 320.8463 L 295.9289 318.6359 L 294.6576 316.9895 L 292.955 314.8148 L 291.6693 313.1961 L 290.3786 311.5907 L 289.0807 309.9951 L 287.3406 307.8851 L 286.0276 306.3142 L 284.7068 304.7523 L 282.9389 302.6893 L 281.6004 301.1478 L 280.26 299.6211 L 278.4611 297.5981 L 277.1018 296.0884 L 275.2818 294.0917 L 273.9059 292.6006 L 272.5256 291.1206 L 270.6697 289.1542 L 269.2771 287.6959 L 267.4012 285.7542 L 265.9883 284.3089 L 264.5671 282.87 L 262.6582 280.9609 L 261.2195 279.5401 L 259.7706 278.1249 L 258.3163 276.7204 L 256.8521 275.3221 L 254.891 273.4731 L 253.4091 272.0937 L 251.4214 270.2664 L 249.9246 268.9076 L 248.4191 267.5553 L 246.9053 266.2094 L 245.3863 264.8725 L 243.8571 263.5402 L 241.8111 261.7778 L 240.2663 260.4621 L 238.716 259.1549 L 236.6328 257.4188 L 235.0653 256.1281 L 232.9652 254.4198 L 231.3768 253.1434 L 229.2506 251.4559 L 227.6439 250.1961 L 226.032 248.9455 L 223.8697 247.2876 L 222.2401 246.0529 L 220.0539 244.4167 L 218.4032 243.1965 L 216.1935 241.5835 L 214.5228 240.3792 L 212.8499 239.1863 L 210.6046 237.6061 L 208.9093 236.4286 L 206.6399 234.8738 L 204.9278 233.7168 L 202.6328 232.1862 L 200.9007 231.0456 L 199.1648 229.9152 L 196.8375 228.4192 L 195.0854 227.3076 L 192.7371 225.8376 L 190.9691 224.7459 L 188.6008 223.3038 L 186.8174 222.2332 L 184.4315 220.8218 L 182.6361 219.7752 L 180.2328 218.3953 L 178.4237 217.3725 L 176.6115 216.3617 L 174.7939 215.3618 L 172.9735 214.3742 L 171.1494 213.3978 L 168.7151 212.1149 L 166.8901 211.1682 L 165.0596 210.2313 L 163.2297 209.3071 L 160.7911 208.0937 L 158.9652 207.1984 L 157.1362 206.3122 L 154.6997 205.1474 L 152.8771 204.2871 L 150.4458 203.1525 L 148.6294 202.3137 L 146.8131 201.4817 L 145.0028 200.6586 L 143.1947 199.8423 L 141.3888 199.0321 L 139.5914 198.2305 L 137.7941 197.4333 L 135.4099 196.3823 L 133.6257 195.6006 L 131.2505 194.5667 L 129.475 193.7992 L 127.7044 193.0388 L 125.9367 192.2849 L 124.1715 191.5377 L 122.414 190.7995 L 120.0722 189.8247 L 118.3231 189.1034 L 116.5758 188.3884 L 114.8293 187.6789 L 112.514 186.746 L 110.7781 186.0519 L 108.4748 185.1373 L 106.7496 184.4567 L 105.0316 183.7822 L 103.3159 183.1116 L 101.6064 182.4457 L 99.3332 181.5634 L 97.637 180.907 L 95.9442 180.2531 L 93.692 179.3848 L 92.0132 178.7384 L 90.3338 178.0924 L 88.666 177.4514 L 87.0003 176.8116 L 85.3405 176.1745 L 83.6877 175.5406 L 81.4868 174.6975 L 79.846 174.0705 L 78.2065 173.4456 L 76.0312 172.62 L 74.4003 172.0042 L 72.2399 171.1936 L 70.6204 170.5908 L 68.4652 169.7962 L 66.8568 169.2101 L 64.7058 168.4362 L 63.0982 167.866 L 61.4962 167.3053 L 59.8983 166.754 L 57.774 166.0347 L 56.1863 165.5079 L 54.0749 164.8228 L 52.4964 164.323 L 50.3976 163.6759 L 48.828 163.2057 L 46.7433 162.6002 L 45.1821 162.1614 L 43.6277 161.7372 L 42.0756 161.3261 L 40.0128 160.7993 L 38.4713 160.4202 L 36.9327 160.0545 L 35.4008 159.7027 L 33.3618 159.2531 L 31.839 158.931 L 29.8164 158.5208 L 28.3029 158.2269 L 26.7974 157.9455 L 24.7966 157.5885 L 23.2975 157.3339 L 21.8073 157.0917 L 20.3216 156.8612 L 18.8375 156.6416 L 16.8665 156.367 L 15.3912 156.1741 L 13.9201 155.9927 L 11.9619 155.7677 L 10.4966 155.6113 L 9.0292 155.4647 L 7.5676 155.3281 L 6.1086 155.2007 L 4.6469 155.0819 L 2.7014 154.9369 L 1.2412 154.8383 L -.2217 154.748 L -2.1653 154.6411 L -3.627 154.5709 L -5.571 154.4911 L -7.0327 154.4418 L -8.4911 154.402 L -9.9524 154.3714 L -11.4326 154.3501 L -13.3584 154.3369 L -14.8225 154.3377 L -16.2858 154.3478 L -17.7503 154.3668 L -19.7094 154.4062 L -21.1799 154.4461 L -23.1441 154.5126 L -24.6176 154.5723 L -26.0952 154.6406 L -28.0671 154.7453 L -29.5465 154.8342 L -31.0301 154.9321 L -33.0081 155.0765 L -34.4945 155.195 L -35.9815 155.3223 L -37.4686 155.4589 L -39.4564 155.6558 L -40.948 155.8141 L -42.9381 156.0398 L -44.4313 156.2202 L -46.4265 156.4764 L -47.9207 156.6801 L -49.4186 156.8944 L -51.4133 157.1956 L -52.9108 157.4332 L -54.4119 157.6812 L -56.4059 158.0255 L -57.9064 158.2961 L -59.9046 158.6713 L -61.406 158.9647 L -62.9058 159.2674 L -64.9063 159.6861 L -66.409 160.0116 L -68.4077 160.4595 L -69.9095 160.8071 L -71.4092 161.1638 L -72.9095 161.5303 L -74.9123 162.0341 L -76.4137 162.4227 L -78.4145 162.9554 L -79.9169 163.3666 L -81.9196 163.9302 L -83.4193 164.3637 L -84.9212 164.8075 L -86.9206 165.4131 L -88.4247 165.8801 L -89.9282 166.3569 L -91.4241 166.8416 L -93.4259 167.506 L -94.927 168.0157 L -96.4268 168.5345 L -97.9269 169.0628 L -99.4287 169.6013 L -100.9291 170.1484 L -102.4317 170.7054 L -103.9305 171.2701 L -105.4331 171.8452 L -106.9347 172.4287 L -108.9371 173.22 L -110.4414 173.824 L -112.4447 174.64 L -113.9494 175.2611 L -115.4535 175.8881 L -117.4648 176.735 L -118.9743 177.3759 L -120.4854 178.0211 L -122.5062 178.8877 L -124.0248 179.5411 L -125.5496 180.1981 L -127.0728 180.8545 L -129.1129 181.7333 L -130.6485 182.3943 L -132.7001 183.2773 L -134.2454 183.9414 L -135.7924 184.6057 L -137.3453 185.2718 L -138.9017 185.9395 L -140.9806 186.832 L -142.5458 187.5043 L -144.6367 188.403 L -146.2133 189.0812 L -148.3162 189.9868 L -149.8992 190.6689 L -151.4887 191.354 L -153.6103 192.2683 L -155.2094 192.9573 L -157.3466 193.8772 L -158.9563 194.569 L -160.5676 195.2606 L -162.1839 195.9532 L -164.3507 196.8805 L -165.975 197.5741 L -168.1583 198.5049 L -169.7915 199.2002 L -171.9832 200.1327 L -173.6303 200.8333 L -175.2827 201.5363 L -176.9365 202.2406 L -179.1512 203.1851 L -180.8143 203.8956 L -182.4803 204.6086 L -184.7099 205.5652 L -186.385 206.2857 L -188.0644 207.0098 L -189.7457 207.7361 L -191.9949 208.7097 L -193.683 209.4417 L -195.9414 210.4222 L -197.6422 211.1613 L -199.9126 212.1487 L -201.6158 212.8896 L -203.3255 213.6334 L -205.0364 214.3777 L -206.7572 215.1263 L -209.0486 216.123 L -210.7727 216.873 L -212.498 217.6235 L -214.2275 218.3757 L -216.5366 219.3799 L -218.2735 220.1353 L -220.0119 220.8914 L -222.3325 221.9007 L -224.0728 222.6575 L -225.8162 223.4161 L -228.1362 224.4251 L -229.8755 225.1817 L -231.612 225.9375 L -233.9212 226.9426 L -235.6488 227.6947 L -237.3746 228.4459 L -239.6651 229.4422 L -241.3809 230.1871 L -243.0898 230.9273 L -245.3628 231.9084 L -247.0648 232.6397 L -248.762 233.3656 L -250.461 234.0886 L -252.7081 235.0384 L -254.3931 235.7455 L -256.6316 236.6776 L -258.3055 237.3694 L -259.9768 238.0556 L -262.1957 238.9593 L -263.8576 239.6302 L -265.5166 240.2948 L -267.1671 240.9506 L -269.3659 241.8156 L -271.0076 242.455 L -272.6479 243.0882 L -274.2825 243.7137 L -276.4574 244.537 L -278.0819 245.1451 L -280.2467 245.9467 L -281.8603 246.5374 L -283.4741 247.1222 L -285.0824 247.699 L -287.2196 248.456 L -288.8204 249.0158 L -290.9491 249.7506 L -292.5361 250.2909 L -294.1241 250.8251 L -296.2306 251.5239 L -297.8048 252.0388 L -299.3726 252.5451 L -300.9339 253.0429 L -302.9951 253.6907 L -304.5325 254.167 L -306.0637 254.6353 L -307.604 255.1003 L -309.595 255.6926 L -311.0904 256.1313 L -312.5824 256.5639 L -314.0598 256.9871 L -315.5323 257.404 L -316.9933 257.813 L -318.9274 258.3479 L -320.3673 258.7412 L -321.7982 259.128 L -323.69 259.6331 L -325.0983 260.0047 L -326.4961 260.3702 L -327.8848 260.7303 L -329.2659 261.0854 L -330.6395 261.4357 L -332.0081 261.7822 L -333.8257 262.2387 L -335.1876 262.5783 L -336.5437 262.9145 L -338.3535 263.3608 L -339.7056 263.6924 L -341.0591 264.0222 L -342.4131 264.3505 L -343.7656 264.6765 L -345.1201 265.0009 L -346.4751 265.3231 L -348.2778 265.7481 L -349.6327 266.0641 L -350.9862 266.377 L -352.7943 266.7898 L -354.1503 267.0956 L -355.5097 267.3991 L -356.8683 267.6991 L -358.2311 267.9966 L -360.0482 268.3883 L -361.4146 268.6789 L -362.7838 268.9666 L -364.1544 269.2513 L -365.984 269.6263 L -367.3587 269.9041 L -368.7381 270.1795 L -370.1168 270.4512 L -371.5 270.7207 L -372.8858 270.9872 L -374.2727 271.2506 L -375.6617 271.5111 L -377.5205 271.8543 L -378.9153 272.1081 L -380.3159 272.36 L -382.1837 272.6915 L -383.5918 272.938 L -385.4695 273.262 L -386.8856 273.5033 L -388.7745 273.8212 L -390.2 274.0576 L -392.1005 274.3688 L -393.5319 274.6007 L -394.9687 274.8314 L -396.4083 275.0604 L -398.3369 275.3643 L -399.7869 275.591 L -401.243 275.8168 L -402.705 276.042 L -404.6571 276.3401 L -406.1315 276.5633 L -408.0992 276.8575 L -409.5828 277.0767 L -411.569 277.3663 L -413.0631 277.5814 L -414.5627 277.7951 L -416.5708 278.0779 L -418.0796 278.2875 L -420.1029 278.5658 L -421.6259 278.773 L -423.6624 279.047 L -425.1939 279.2511 L -427.245 279.5226 L -428.7893 279.7247 L -430.3333 279.9258 L -431.8854 280.1265 L -433.4394 280.3259 L -435.5182 280.5916 L -437.0801 280.7901 L -439.1646 281.0533 L -440.7297 281.25 L -442.2912 281.4453 L -443.8497 281.6397 L -445.4001 281.8321 L -447.4523 282.0861 L -448.9749 282.2738 L -450.9728 282.519 L -452.4492 282.6995 L -454.3761 282.9338 L -455.7903 283.1049 L -457.1693 283.271 L -458.5192 283.4329 L -459.8324 283.5898 L -461.1137 283.7421 L -462.7788 283.9392 L -463.9874 284.0818 L -465.1714 284.2212 L -466.3251 284.3569 L -467.8326 284.5344 L -468.9434 284.6653 L -470.403 284.8372 L -471.4809 284.9649 L -472.5508 285.0919 L -473.9641 285.2603 L -475.0124 285.3862 L -476.0485 285.5107 L -477.4117 285.6752 L -478.4185 285.7973 L -479.4111 285.9184 L -480.7086 286.0771 L -481.6634 286.1943 L -482.6036 286.3102 L -483.5274 286.4245 L -484.4373 286.537 L -485.3348 286.6489 L -486.2198 286.7592 L -487.0933 286.8681 L -487.953 286.9754 L -488.8017 287.0809 L -489.9034 287.2169 L -490.7184 287.3162 L -491.521 287.4127 L -492.3093 287.5058 L -493.343 287.6247 L -494.1028 287.7097 L -495.0983 287.8177 L -495.8307 287.8945 L -496.554 287.9681 L -497.5047 288.0616 L -498.208 288.128 L -499.1315 288.2119 L -499.8151 288.2708 L -500.4904 288.3263 L -501.1566 288.3778 L -502.0335 288.4409 L -502.6819 288.4835 L -503.3224 288.5222 L -504.1654 288.5678 L -504.7892 288.5973 L -505.4086 288.6228 L -506.2235 288.6503 L -506.8281 288.6657 L -507.4268 288.6768 L -508.2149 288.6846 L -508.8005 288.6853 L -509.5731 288.6795 L -510.1479 288.67 L -510.9086 288.6504 L -511.476 288.6306 L -512.0413 288.6063 L -512.6058 288.5776 L -513.1702 288.5444 L -513.7347 288.5069 L -514.3021 288.4647 L -514.8699 288.4182 L -515.6287 288.349 L -516.2008 288.2915 L -516.9662 288.2072 L -517.5432 288.1377 L -518.1205 288.0628 L -518.8929 287.9538 L -519.472 287.8651 L -520.0535 287.7701 L -520.826 287.6334 L -521.407 287.5229 L -521.9854 287.4055 L -522.5635 287.2807 L -523.332 287.1027 L -523.906 286.9601 L -524.4799 286.8094 L -525.2381 286.5961 L -525.8019 286.4268 L -526.3612 286.2496 L -527.0966 286.0017 L -527.6417 285.8063 L -528.1799 285.6033 L -528.712 285.3929 L -529.2383 285.1751 L -529.7608 284.9488 L -530.2784 284.7141 L -530.9594 284.3893 L -531.4669 284.1353 L -532.1362 283.7833 L -532.6321 283.5091 L -533.1226 283.226 L -533.6049 282.9352 L -534.2366 282.5341 L -534.7006 282.2238 L -535.2996 281.8017 L -535.736 281.4768 L -536.1584 281.1469 L -536.5675 280.8123 L -536.9634 280.4731 L -537.4688 280.0155 L -537.8336 279.6662 L -538.1869 279.3117 L -538.6413 278.831 L -538.9695 278.4646 L -539.2889 278.0916 L -539.7018 277.5833 L -540.0035 277.1919 L -540.3943 276.6582 L -540.6813 276.2466 L -540.9613 275.8273 L -541.3239 275.2546 L -541.5881 274.8137 L -541.9294 274.2125 L -542.1782 273.7498 L -542.4197 273.2786 L -542.7311 272.6347 L -542.9563 272.1413 L -543.1742 271.6394 L -543.3859 271.1279 L -543.5915 270.6057 L -543.856 269.8943 L -544.0469 269.3487 L -544.2316 268.7921 L -544.4664 268.0372 L -544.6348 267.4584 L -544.796 266.8711 L -544.9507 266.2739 L -545.1454 265.4664 L -545.2834 264.8491 L -545.4137 264.2261 L -545.5767 263.3827 L -545.6907 262.7445 L -545.8307 261.8896 L -545.9277 261.2484 L -546.0473 260.4013 L -546.1324 259.7685 L -546.2144 259.1432 L -546.3198 258.3198 L -546.3989 257.711 L -546.48 257.1095 L -546.563 256.5132 L -546.6774 255.7343 L -546.7672 255.1549 L -546.8931 254.392 L -546.9934 253.8227 L -547.1345 253.0686 L -547.2476 252.5033 L -547.4081 251.75 L -547.5369 251.1829 L -547.7198 250.4257 L -547.8168 250.0442 L -547.9688 249.472 L -548.1291 248.8968 L -548.298 248.3186 L -548.5363 247.5456 L -548.726 246.9628 L -548.9251 246.3794 L -549.134 245.7959 L -549.3532 245.2115 L -549.6595 244.437 L -549.9011 243.8584 L -550.237 243.098 L -550.4998 242.5357 L -550.8644 241.8011 L -551.1486 241.2637 L -551.4426 240.7373 L -551.7449 240.225 L -552.163 239.5621 L -552.4882 239.0815 L -552.8237 238.6146 L -553.1702 238.1608 L -553.6476 237.5787 L -554.0184 237.1587 L -554.3998 236.7522 L -554.7973 236.3537 L -555.3333 235.8525 L -555.7545 235.4853 L -556.3337 235.0114 L -556.7831 234.6683 L -557.2448 234.3348 L -557.8791 233.9063 L -558.3682 233.5967 L -559.0372 233.201 L -559.5518 232.9187 L -560.2522 232.5612 L -560.7882 232.3087 L -561.3331 232.068 L -562.0746 231.7666 L -562.6403 231.5551 L -563.2138 231.3567 L -563.7961 231.1717 L -564.5833 230.9463 L -565.1829 230.7933 L -565.7885 230.6555 L -566.6065 230.4952 L -567.2282 230.3926 L -568.0693 230.2791 L -568.4952 230.2319 L -569.1408 230.1729 L -569.7937 230.128 L -570.6753 230.0901 L -571.3433 230.0779 L -572.0172 230.0792 L -572.6935 230.0939 L -573.3741 230.1226 L -574.2865 230.1818 L -574.976 230.242 L -575.6693 230.3165 L -576.3656 230.4056 L -577.2991 230.5471 L -578.0032 230.6704 L -578.9466 230.8571 L -579.6572 231.0129 L -580.6124 231.2417 L -581.3302 231.4277 L -582.2958 231.6963 L -583.0238 231.9115 L -583.7562 232.1388 L -584.7357 232.4589 L -585.4764 232.7123 L -586.4668 233.066 L -587.2149 233.3438 L -587.9684 233.6319 L -588.7263 233.9299 L -589.4909 234.2384 L -590.5143 234.6634 L -591.2908 234.9945 L -592.0704 235.3342 L -593.1179 235.8017 L -593.9105 236.1642 L -594.7078 236.5363 L -595.5106 236.9187 L -596.5884 237.4439 L -597.4023 237.8491 L -598.2226 238.2642 L -599.0474 238.6881 L -599.8779 239.1211 L -600.9922 239.7122 L -601.8344 240.1657 L -602.6814 240.6273 L -603.5349 241.0983 L -604.3925 241.5777 L -605.5463 242.233 L -606.4164 242.7357 L -607.2936 243.2497 L -608.4724 243.9514 L -609.362 244.4883 L -610.2599 245.0363 L -611.1599 245.5916 L -612.3724 246.3469 L -613.2943 246.9277 L -614.2226 247.5185 L -615.1581 248.1188 L -616.4184 248.9344 L -617.3748 249.5579 L -618.6644 250.4032 L -619.6456 251.0488 L -620.9649 251.9192 L -621.9691 252.583 L -623.3279 253.4816 L -624.3592 254.1636 L -625.7569 255.0876 L -626.8214 255.7907 L -627.8997 256.5022 L -628.9914 257.2221 L -630.1001 257.9523 L -631.5992 258.9383 L -632.744 259.6902 L -633.9067 260.4529 L -635.4779 261.483 L -636.6766 262.2688 L -637.8917 263.0655 L -639.5275 264.1389 L -640.7681 264.9536 L -642.4435 266.0557 L -643.7194 266.8968 L -645.4385 268.0338 L -646.743 268.9 L -648.5059 270.076 L -649.4187 270.6875 L -650.7655 271.5934 L -652.5485 272.7988 L -653.92 273.7308 L -655.3089 274.6789 L -656.711 275.6402 L -658.1257 276.6139 L -659.5568 277.6015 L -661.4773 278.9299 L -662.939 279.9428 L -664.4108 280.9635 L -666.4006 282.3441 L -667.9095 283.3909 L -669.4327 284.4465 L -670.9712 285.5112 L -673.0473 286.9445 L -674.6213 288.028 L -676.2266 289.1302 L -678.351 290.584 L -679.9747 291.6922 L -682.1537 293.1755 L -683.7996 294.2941 L -685.4599 295.4214 L -687.1315 296.5555 L -688.8175 297.699 L -690.5109 298.8476 L -692.7922 300.3964 L -694.5132 301.5664 L -696.8275 303.1424 L -698.5743 304.3343 L -700.9158 305.9359 L -702.6906 307.1534 L -705.0685 308.7899 L -706.8698 310.0334 L -709.2751 311.6985 L -711.0996 312.9641 L -712.928 314.2346 L -715.3839 315.9434 L -717.2347 317.2323 L -719.1009 318.5325 L -720.9773 319.8397 L -722.8636 321.1534 L -724.7636 322.476 L -727.3126 324.2487 L -729.2369 325.5856 L -731.1752 326.9306 L -733.1269 328.2837 L -735.7394 330.0925 L -737.7124 331.457 L -739.6985 332.829 L -742.3513 334.6596 L -744.3627 336.0461 L -747.0785 337.9159 L -749.0811 339.2932 L -751.1182 340.6926 L -753.8121 342.5413 L -755.8364 343.9291 L -757.8574 345.314 L -760.5402 347.1499 L -762.5463 348.5214 L -764.5519 349.8908 L -766.5435 351.2496 L -768.556 352.6212 L -771.1805 354.4075 L -773.1529 355.7484 L -775.125 357.0879 L -777.7415 358.8628 L -779.6998 360.1895 L -781.6505 361.51" stroke-width="28" stroke="grey" fill="none" id="Track"/></svg>