<?xml version="1.0" standalone="no"?>
<svg xmlns:xlink="http://www.w3.org/1999/xlink" id="s2" class="track" xmlns="http://www.w3.org/2000/svg" preserveAspectRatio="xMinYMid meet" height="800px" width="600px" viewBox="-1200 -700 3000 3000">
            <path d="M -729.8784 326.3621 L -738.291 332.105 L -747.3409 338.2768 L -753.9619 342.8062 L -762.7067 348.8066 L -769.4763 353.4584 L -777.433 358.9286 L -793.1464 369.6974 L -810.1426 381.2242 L -827.9263 393.2186 L -845.8417 405.2639 L -855.3707 411.6448 L -863.7546 417.2301 L -874.164 424.1302 L -882.624 429.718 L -892.2054 436.0307 L -900.2583 441.3182 L -910.3187 447.8991 L -919.2479 453.7219 L -928.1843 459.5389 L -934.6675 463.76 L -942.2603 468.717 L -948.1041 472.5444 L -954.9147 477.0145 L -961.7868 481.5292 L -968.0828 485.6447 L -974.2248 489.6248 L -980.7966 493.8395 L -986.2313 497.2893 L -991.5089 500.6073 L -995.9497 503.3725 L -999.1366 505.3313 L -1002.6448 507.4473 L -1005.5364 509.147 L -1008.8525 511.0296 L -1011.9795 512.6984 L -1014.9515 514.1152 L -1017.8138 515.2987 L -1020.4727 516.2322 L -1023.1235 516.9687 L -1028.1049 517.767 L -1033.1515 517.7545 L -1038.0754 516.8284 L -1042.9797 514.9016 L -1047.3075 512.0672 L -1050.4137 508.7392 L -1052.4476 505.117 L -1053.4857 501.978 L -1053.807 500.4682 L -1054.1578 497.882 L -1054.3361 495.025 L -1054.3451 492.2496 L -1054.1295 488.795 L -1053.7635 485.8103 L -1052.9541 481.4007 L -1052.2062 478.3058 L -1051.0153 474.2838 L -1049.3024 469.5403 L -1047.3601 464.894 L -1045.5641 460.9778 L -1043.1576 455.9437 L -1041.0645 451.6112 L -1038.0956 445.588 L -1035.6211 440.6778 L -1032.3053 434.2382 L -1029.1644 428.2648 L -1025.09 420.6436 L -1021.786 414.5314 L -1017.2789 406.2189 L -1013.6764 399.566 L -1008.7896 390.512 L -1004.9273 383.3705 L -999.7559 373.8855 L -994.5585 364.4475 L -989.7079 355.7328 L -985.8015 348.7823 L -980.7364 339.8609 L -976.587 332.6692 L -971.8213 324.6441 L -967.9199 318.2808 L -962.761 310.1301 L -958.7665 303.9888 L -953.4799 296.0359 L -949.3875 289.9924 L -944.2628 282.5681 L -940.0112 276.5464 L -934.6383 269.1181 L -929.1035 261.6782 L -923.3823 254.2492 L -918.2078 247.7834 L -912.0939 240.4568 L -906.5682 234.1173 L -902.5235 229.628 L -895.4713 222.07 L -891.2263 217.6719 L -883.853 210.2501 L -876.3114 202.8952 L -869.0786 196.022 L -864.5018 191.7456 L -859.8852 187.4849 L -853.8281 181.9686 L -846.3023 175.2003 L -840.1751 169.718 L -832.7057 163.0115 L -825.3881 156.3878 L -818.2288 149.8869 L -810.3096 142.718 L -803.3868 136.488 L -796.5721 130.3865 L -789.4568 124.037 L -782.8751 118.1765 L -776.0217 112.0498 L -769.3255 106.0041 L -763.1672 100.3865 L -756.7665 94.4994 L -751.9617 90.06 L -746.1467 84.6752 L -741.4932 80.3524 L -735.5606 74.7663 L -730.0996 69.5126 L -726.7599 66.2435 L -723.4525 62.9661 L -721.1597 60.6723 L -710.5361 49.7794 L -705.1336 44.0366 L -703.2357 41.9764 L -697.9059 36.0419 L -690.7943 27.7196 L -687.7379 23.9925 L -680.4683 14.7547 L -671.894 2.9945 L -663.2092 -9.7474 L -653.9993 -23.1333 L -644.7133 -35.439 L -639.2598 -42.0331 L -633.6003 -48.4545 L -627.3128 -55.006 L -621.1227 -60.8775 L -615.8964 -65.4115 L -608.7935 -70.9865 L -603.6146 -74.6815 L -596.5219 -79.3125 L -589.2642 -83.6385 L -581.8808 -87.7128 L -576.2912 -90.6328 L -568.8018 -94.3508 L -560.8498 -98.0352 L -553.3869 -101.1893 L -545.4758 -104.2045 L -537.5836 -106.885 L -530.1811 -109.143 L -522.2849 -111.354 L -514.7802 -113.3365 L -507.6774 -115.2143 L -501.9601 -116.8044 L -493.8372 -119.2633 L -486.183 -121.8384 L -478.0586 -124.8663 L -469.9343 -128.1999 L -462.2469 -131.6351 L -454.5067 -135.3504 L -448.6688 -138.3293 L -440.3683 -142.8381 L -433.995 -146.5195 L -425.6109 -151.6487 L -419.1595 -155.8114 L -411.1688 -161.2198 L -396.4368 -171.7457 L -381.0909 -182.8837 L -365.0622 -194.349 L -359.3805 -198.387 L -350.1518 -204.9263 L -340.148 -211.9833 L -329.9496 -219.1421 L -311.5097 -231.9944 L -301.4829 -238.9342 L -290.7903 -246.2911 L -280.7477 -253.1248 L -270.7131 -259.8336 L -262.5646 -265.172 L -252.5159 -271.579 L -244.3085 -276.6288 L -234.185 -282.5987 L -223.9827 -288.3072 L -213.0726 -294.0796 L -202.0991 -299.5797 L -191.0847 -304.8363 L -181.9969 -309.0121 L -170.9324 -313.8959 L -162.4224 -317.4917 L -151.1437 -322.0516 L -142.3938 -325.4526 L -130.7845 -329.8194 L -121.7593 -333.1233 L -109.7682 -337.4136 L -100.4324 -340.6915 L -88.7426 -344.7186 L -79.0746 -347.976 L -66.2097 -352.2105 L -53.8801 -356.1858 L -40.5615 -360.4487 L -27.0538 -364.7742 L -13.3762 -369.1455 L .4629 -373.5679 L 21.9381 -380.4635 L 34.4861 -384.5348 L 46.2904 -388.4061 L 60.7516 -393.1891 L 75.3535 -398.0552 L 90.0924 -403.0045 L 104.0944 -407.7277 L 119.1061 -412.7934 L 134.2649 -417.9034 L 143.2457 -420.9281 L 157.7188 -425.7908 L 173.2437 -430.9681 L 187.0435 -435.5359 L 199.1005 -439.4951 L 214.0521 -444.3457 L 227.2332 -448.581 L 243.3427 -453.7387 L 255.7209 -457.6993 L 271.8886 -462.8709 L 283.2108 -466.4901 L 298.0911 -471.242 L 310.8386 -475.315 L 325.9608 -480.1862 L 337.257 -483.8777 L 351.6873 -488.6713 L 364.9142 -493.1356 L 378.5901 -497.7964 L 388.7426 -501.275 L 401.5977 -505.7 L 411.8419 -509.2333 L 422.4576 -512.887 L 433.9726 -516.803 L 444.259 -520.2377 L 452.1851 -522.8436 L 461.4099 -525.85 L 468.4707 -528.1461 L 477.1284 -530.9612 L 483.7397 -533.1094 L 491.1521 -535.4943 L 496.4174 -537.1429 L 502.9496 -539.0567 L 507.7128 -540.2872 L 513.6626 -541.5579 L 518.019 -542.2748 L 523.1452 -542.8406 L 527.3895 -543.0296 L 532.1683 -542.8886 L 535.3317 -542.5927 L 539.6413 -541.9659 L 542.8279 -541.3387 L 546.6713 -540.3862 L 549.7985 -539.4515 L 553.9386 -537.9885 L 557.6115 -536.459 L 561.7609 -534.4424 L 564.9098 -532.6841 L 568.9769 -530.0955 L 572.2646 -527.7144 L 575.7134 -524.9285 L 578.6307 -522.3372 L 582.3643 -518.7551 L 585.4229 -515.7014 L 588.9642 -512.2134 L 591.9048 -509.4725 L 595.5952 -506.3046 L 598.9058 -503.7466 L 603.0578 -500.9292 L 606.5967 -498.8643 L 611.0977 -496.6232 L 614.7215 -495.0689 L 619.0974 -493.4478 L 623.3557 -492.117 L 628.4033 -490.847 L 633.5585 -489.8896 L 638.686 -489.3193 L 643.1284 -489.1526 L 648.1801 -489.3325 L 652.2903 -489.748 L 657.381 -490.5594 L 661.5452 -491.4587 L 667.0081 -492.9611 L 671.5019 -494.4794 L 676.2901 -496.38 L 681.3641 -498.6775 L 686.7576 -501.3006 L 691.9983 -503.7935 L 697.4243 -506.146 L 701.9749 -507.9042 L 708.1127 -509.9449 L 712.8765 -511.2418 L 718.3083 -512.3572 L 724.3104 -513.0908 L 729.7787 -513.3178 L 735.0674 -513.1946 L 744.256 -512.3458 L 753.3806 -510.783 L 762.3342 -508.4667 L 770.8669 -505.3238 L 775.4973 -503.1757 L 780.3668 -500.5718 L 785.176 -497.6375 L 789.6368 -494.5784 L 794.0308 -491.2372 L 798.6555 -487.3825 L 802.1564 -484.2294 L 812.3788 -473.7095 L 816.1429 -469.2337 L 820.2812 -463.8757 L 823.6281 -459.2663 L 827.1994 -454.1504 L 834.2636 -443.8126 L 842.2538 -432.2707 L 850.5045 -420.6641 L 859.366 -408.3956 L 864.6709 -401.1222 L 869.8513 -394.0755 L 874.5312 -387.7672 L 880.0662 -380.3979 L 884.6938 -374.2909 L 890.5269 -366.6241 L 895.3686 -360.2753 L 901.4361 -352.3387 L 907.918 -343.9016 L 913.9562 -336.0804 L 920.1887 -328.0126 L 925.7691 -320.7504 L 931.0374 -313.8341 L 935.9608 -307.3055 L 939.69 -302.3172 L 944.18 -296.2634 L 947.3309 -291.9814 L 951.0258 -286.8644 L 953.7034 -282.9923 L 955.9362 -279.5977 L 957.8474 -276.5374 L 960.1761 -272.5609 L 962.3856 -268.4635 L 964.3524 -264.4801 L 966.3908 -259.9259 L 967.98 -255.9345 L 969.1991 -252.4395 L 970.2919 -248.7377 L 971.1447 -245.1838 L 971.8761 -241.2555 L 972.4099 -237.1446 L 972.6591 -233.8753 L 972.7219 -229.4755 L 972.5054 -225.7892 L 971.837 -220.9751 L 970.874 -216.6947 L 969.6019 -212.5595 L 968.3709 -209.3604 L 966.7512 -205.874 L 965.0538 -202.8291 L 962.9009 -199.5995 L 960.3696 -196.4511 L 955.1897 -191.4844 L 952.014 -189.1155 L 948.3553 -186.8869 L 945.1692 -185.3397 L 941.6213 -184.0022 L 937.4617 -182.9003 L 933.4431 -182.2756 L 930.0975 -182.06 L 925.8607 -182.1405 L 922.0505 -182.504 L 917.5855 -183.2508 L 913.6005 -184.213 L 908.6998 -185.786 L 904.9326 -187.2959 L 900.3243 -189.5383 L 896.361 -191.8656 L 891.9546 -194.9317 L 888.4836 -197.72 L 884.0765 -201.7186 L 880.7661 -205.0646 L 876.5166 -209.8086 L 873.315 -213.7201 L 869.2064 -219.2002 L 866.1617 -223.6635 L 862.3787 -229.8212 L 859.7357 -234.6729 L 856.8646 -240.7002 L 854.2402 -247.0952 L 851.9836 -253.0284 L 849.4952 -259.1223 L 846.7484 -264.9185 L 843.9199 -270.0811 L 840.697 -275.2804 L 837.2836 -280.2467 L 833.9691 -284.7561 L 830.4023 -289.3712 L 825.2098 -295.4951 L 821.3335 -299.5151 L 817.4966 -303.0175 L 811.6378 -307.4796 L 804.2225 -311.8739 L 801.2964 -313.2997 L 791.8693 -317.0153 L 781.1841 -319.8951 L 770.1139 -321.4852 L 758.5216 -321.7715 L 746.6293 -320.6294 L 733.8065 -317.8975 L 724.5823 -315.0659 L 718.1763 -312.7156 L 711.322 -309.9586 L 704.6795 -307.1949 L 699.0511 -304.8347 L 691.3557 -301.6297 L 685.214 -299.1057 L 676.845 -295.7133 L 669.6601 -292.8485 L 661.1102 -289.4966 L 653.8917 -286.7228 L 644.0941 -283.0424 L 636.3387 -280.1858 L 626.4917 -276.6371 L 617.6282 -273.5456 L 606.5508 -269.8565 L 598.528 -267.3134 L 587.5346 -264.0035 L 577.7376 -261.2285 L 566.954 -258.3687 L 554.4257 -255.2941 L 542.3608 -252.5422 L 531.6 -250.2171 L 518.2934 -247.4543 L 504.7612 -244.7101 L 482.1834 -240.1544 L 457.5438 -235.1539 L 435.5172 -230.57 L 424.2142 -228.1619 L 413.7655 -225.9292 L 406.9054 -224.4654 L 398.8852 -222.7494 L 391.9252 -221.24 L 384.4254 -219.5707 L 376.6712 -217.7932 L 369.4691 -216.1035 L 363.2521 -214.6116 L 358.421 -213.4075 L 351.4952 -211.5596 L 344.7182 -209.5132 L 338.9483 -207.4896 L 332.1507 -204.7149 L 325.9627 -201.7859 L 319.9804 -198.5467 L 314.912 -195.4763 L 308.9308 -191.4787 L 303.445 -187.4489 L 297.7705 -182.8934 L 293.5478 -179.2172 L 288.203 -174.1563 L 283.7002 -169.4289 L 278.8951 -163.7753 L 275.4809 -159.2552 L 271.13 -152.7345 L 267.3808 -146.3295 L 261.5853 -134.5226 L 256.7499 -122.0925 L 254.5368 -115.2555 L 252.6195 -108.319 L 250.0771 -95.3241 L 249.0073 -82.4108 L 249.1011 -69.4156 L 249.9865 -56.614 L 251.9044 -43.1897 L 255.0897 -29.7555 L 259.6718 -16.5315 L 265.5959 -3.5625 L 272.3655 8.7688 L 280.5148 21.7651 L 289.0864 33.7025 L 299.3449 45.9958 L 310.3962 57.1023 L 322.4776 67.0157 L 335.5169 75.7648 L 349.322 83.8281 L 363.31 90.9871 L 371.3039 94.6454 L 380.0334 98.3062 L 389.0111 101.7503 L 397.7365 104.7875 L 406.735 107.6708 L 416.027 110.5202 L 423.813 112.8843 L 433.6965 115.8884 L 442.6068 118.6029 L 453.7239 121.9983 L 462.4507 124.6534 L 473.4641 127.9703 L 483.3093 130.9013 L 495.4093 134.4947 L 504.6636 137.2673 L 516.6466 140.9145 L 524.9741 143.4928 L 535.2076 146.7101 L 544.523 149.6907 L 554.7657 153.035 L 562.7208 155.6891 L 572.5873 159.0413 L 580.2964 161.684 L 588.8367 164.6099 L 595.5883 166.9226 L 603.6924 169.7239 L 610.5423 172.1599 L 620.7081 176.001 L 627.6166 178.8327 L 634.544 181.932 L 640.7997 185.0586 L 646.7467 188.4141 L 651.0182 191.1318 L 656.3223 195.0198 L 660.285 198.4118 L 665.0425 203.1471 L 668.4172 206.9659 L 672.3384 211.8786 L 675.3299 216.0437 L 678.7169 221.397 L 681.1872 225.9265 L 683.802 231.699 L 686.021 238.047 L 687.5815 244.2034 L 688.6804 250.9093 L 689.0339 254.5217 L 689.2226 263.4859 L 687.861 275.8798 L 684.6898 287.8519 L 682.5481 293.5522 L 680.4786 298.3843 L 677.3699 305.1047 L 674.3853 311.6669 L 671.9503 317.7445 L 669.952 323.7385 L 667.3851 334.7251 L 666.101 345.7406 L 665.9016 356.6531 L 666.9218 367.6073 L 669.3442 378.3369 L 671.4432 384.4972 L 674.0583 390.6088 L 677.1979 396.6686 L 680.6262 402.3138 L 683.7427 406.8404 L 687.7019 411.9485 L 691.7441 416.5752 L 696.7609 421.6771 L 701.1227 425.6845 L 707.1909 430.7272 L 712.0864 434.4248 L 718.4008 438.7643 L 724.1711 442.3926 L 729.713 445.6301 L 736.7938 449.4812 L 744.6024 453.4024 L 752.2305 456.9469 L 759.6288 460.1576 L 766.2369 462.8679 L 775.1189 466.3633 L 782.0577 469.0948 L 791.2641 472.8753 L 800.0024 476.7224 L 808.1474 480.601 L 815.0673 484.1566 L 824.3104 489.3029 L 830.1429 492.7995 L 837.8246 497.6761 L 843.1296 501.2855 L 849.3207 505.755 L 853.5256 508.9937 L 858.1077 512.7689 L 861.3143 515.6735 L 864.808 519.2475 L 867.5481 522.4734 L 870.2872 526.1979 L 873.5143 531.5001 L 874.5801 533.5561 L 876.4192 537.6391 L 877.2882 539.9067 L 878.5474 543.8137 L 879.5184 547.634 L 880.4674 552.9038 L 880.9135 557.1401 L 881.104 561.8482 L 881.0236 566.4621 L 880.6492 571.5382 L 880.1095 575.8446 L 879.2242 580.8847 L 878.2032 585.3721 L 876.6214 590.8829 L 874.642 596.4163 L 873.2904 599.6634 L 871.8008 602.9335 L 870.6741 605.2275 L 867.8698 610.4673 L 865.3757 614.7261 L 861.6449 620.6255 L 858.7969 624.9167 L 855.1541 630.2568 L 852.1048 634.6512 L 848.2477 640.1292 L 844.7793 644.9803 L 840.722 650.5973 L 836.3173 656.6625 L 831.8134 662.8104 L 827.4339 668.6259 L 822.8699 674.4157 L 817.7731 680.4777 L 812.3685 686.373 L 806.6183 692.0082 L 795.2511 701.1735 L 783.6915 708.1837 L 770.9607 714.0914 L 757.5016 718.7637 L 750.0728 720.6859 L 742.0374 722.241 L 734.3753 723.2298 L 726.1623 723.7836 L 717.8875 723.8629 L 710.045 723.4974 L 703.6227 722.8799 L 695.1276 721.6478 L 688.5748 720.4006 L 679.4101 718.2847 L 670.6558 715.9345 L 661.8082 713.2805 L 654.4739 710.8398 L 646.0533 707.7365 L 639.1773 704.9728 L 629.5502 700.7579 L 622.5041 697.4299 L 613.1503 692.7238 L 605.3225 688.5403 L 596.8077 683.7471 L 589.3467 679.3652 L 580.0589 673.7064 L 571.8391 668.5143 L 561.7791 661.9142 L 554.0855 656.6495 L 544.1341 649.502 L 536.6378 643.8091 L 526.9951 636.092 L 520.2817 630.4875 L 510.9548 622.3051 L 505.07 616.8514 L 498.2669 610.2521 L 490.0818 601.9456 L 482.0577 593.4793 L 473.6955 584.3471 L 465.9695 575.6258 L 459.7931 568.4572 L 451.814 559.0092 L 445.7759 551.7281 L 438.4717 542.6745 L 432.6566 535.2236 L 425.6253 525.9572 L 420.0211 518.3521 L 412.8786 508.273 L 406.3752 498.6467 L 400.0413 488.8976 L 394.9956 480.9191 L 388.8778 471.0322 L 383.9963 462.9484 L 377.7649 452.285 L 372.7443 443.443 L 367.0544 433.3105 L 362.4294 425.0778 L 355.9721 413.7058 L 350.8945 404.894 L 345.0409 394.8474 L 338.4041 383.5695 L 332.445 373.5733 L 326.0152 363.0135 L 319.8402 353.1516 L 309.5313 337.4737 L 304.2492 329.8949 L 297.6126 320.8463 L 291.6693 313.1961 L 284.7068 304.7523 L 278.4611 297.5981 L 270.6697 289.1542 L 264.5671 282.87 L 256.8521 275.3221 L 249.9246 268.9076 L 241.8111 261.7778 L 235.0653 256.1281 L 226.032 248.9455 L 222.2401 246.0529 L 212.8499 239.1863 L 199.1648 229.9152 L 190.9691 224.7459 L 180.2328 218.3953 L 171.1494 213.3978 L 160.7911 208.0937 L 150.4458 203.1525 L 141.3888 199.0321 L 133.6257 195.6006 L 124.1715 191.5377 L 116.5758 188.3884 L 106.7496 184.4567 L 97.637 180.907 L 88.666 177.4514 L 81.4868 174.6975 L 72.2399 171.1936 L 63.0982 167.866 L 54.0749 164.8228 L 45.1821 162.1614 L 36.9327 160.0545 L 29.8164 158.5208 L 21.8073 157.0917 L 13.9201 155.9927 L 6.1086 155.2007 L -2.1653 154.6411 L -8.4911 154.402 L -16.2858 154.3478 L -23.1441 154.5126 L -31.0301 154.9321 L -37.4686 155.4589 L -46.4265 156.4764 L -52.9108 157.4332 L -61.406 158.9647 L -68.4077 160.4595 L -76.4137 162.4227 L -84.9212 164.8075 L -93.4259 167.506 L -99.4287 169.6013 L -106.9347 172.4287 L -113.9494 175.2611 L -127.0728 180.8545 L -135.7924 184.6057 L -144.6367 188.403 L -153.6103 192.2683 L -160.5676 195.2606 L -169.7915 199.2002 L -176.9365 202.2406 L -186.385 206.2857 L -193.683 209.4417 L -203.3255 213.6334 L -210.7727 216.873 L -220.0119 220.8914 L -229.8755 225.1817 L -239.6651 229.4422 L -248.762 233.3656 L -259.9768 238.0556 L -269.3659 241.8156 L -274.2825 243.7137 L -278.0819 245.1451 L -292.5361 250.2909 L -296.2306 251.5239 L -312.5824 256.5639 L -320.3673 258.7412 L -325.0983 260.0047 L -330.6395 261.4357 L -343.7656 264.6765 L -356.8683 267.6991 L -364.1544 269.2513 L -371.5 270.7207 L -385.4695 273.262 L -393.5319 274.6007 L -401.243 275.8168 L -408.0992 276.8575 L -416.5708 278.0779 L -425.1939 279.2511 L -433.4394 280.3259 L -442.2912 281.4453 L -450.9728 282.519 L -458.5192 283.4329 L -465.1714 284.2212 L -470.403 284.8372 L -476.0485 285.5107 L -480.7086 286.0771 L -485.3348 286.6489 L -488.8017 287.0809 L -493.343 287.6247 L -497.5047 288.0616 L -501.1566 288.3778 L -504.7892 288.5973 L -508.2149 288.6846 L -511.476 288.6306 L -513.7347 288.5069 L -516.9662 288.2072 L -520.0535 287.7701 L -523.332 287.1027 L -525.8019 286.4268 L -528.712 285.3929 L -532.1362 283.7833 L -533.6049 282.9352 L -536.1584 281.1469 L -538.1869 279.3117 L -539.7018 277.5833 L -541.3239 275.2546 L -542.4197 273.2786 L -543.5915 270.6057 L -544.4664 268.0372 L -545.2834 264.8491 L -545.6907 262.7445 L -546.2144 259.1432 L -546.9934 253.8227 L -547.7198 250.4257 L -548.298 248.3186 L -549.3532 245.2115 L -550.8644 241.8011 L -552.4882 239.0815 L -554.3998 236.7522 L -556.7831 234.6683 L -559.5518 232.9187 L -562.0746 231.7666 L -565.1829 230.7933 L -568.4952 230.2319 L -572.0172 230.0792 L -574.976 230.242 L -578.9466 230.8571 L -582.2958 231.6963 L -586.4668 233.066 L -590.5143 234.6634 L -598.2226 238.2642 L -605.5463 242.233 L -610.2599 245.0363 L -615.1581 248.1188 L -625.7569 255.0876 L -636.6766 262.2688 L -649.4187 270.6875 L -656.711 275.6402 L -664.4108 280.9635 L -679.9747 291.6922 L -696.8275 303.1424 L -706.8698 310.0334 L -717.2347 317.2323 L -724.7636 322.476 z" stroke-width="28" stroke="black" fill="none" id="Track"/><path d="M -729.8784 326.3621 L -738.291 332.105 L -747.3409 338.2768 L -753.9619 342.8062 L -762.7067 348.8066 L -769.4763 353.4584 L -777.433 358.9286 L -793.1464 369.6974 L -810.1426 381.2242 L -827.9263 393.2186 L -845.8417 405.2639 L -855.3707 411.6448 L -863.7546 417.2301 L -874.164 424.1302 L -882.624 429.718 L -892.2054 436.0307 L -900.2583 441.3182 L -910.3187 447.8991 L -919.2479 453.7219 L -928.1843 459.5389 L -934.6675 463.76 L -942.2603 468.717 L -948.1041 472.5444 L -954.9147 477.0145 L -961.7868 481.5292 L -968.0828 485.6447 L -974.2248 489.6248 L -980.7966 493.8395 L -986.2313 497.2893 L -991.5089 500.6073 L -995.9497 503.3725 L -999.1366 505.3313 L -1002.6448 507.4473 L -1005.5364 509.147 L -1008.8525 511.0296 L -1011.9795 512.6984 L -1014.9515 514.1152 L -1017.8138 515.2987 L -1020.4727 516.2322 L -1023.1235 516.9687 L -1028.1049 517.767 L -1033.1515 517.7545 L -1038.0754 516.8284 L -1042.9797 514.9016 L -1047.3075 512.0672 L -1050.4137 508.7392 L -1052.4476 505.117 L -1053.4857 501.978 L -1053.807 500.4682 L -1054.1578 497.882 L -1054.3361 495.025 L -1054.3451 492.2496 L -1054.1295 488.795 L -1053.7635 485.8103 L -1052.9541 481.4007 L -1052.2062 478.3058 L -1051.0153 474.2838 L -1049.3024 469.5403 L -1047.3601 464.894 L -1045.5641 460.9778 L -1043.1576 455.9437 L -1041.0645 451.6112 L -1038.0956 445.588 L -1035.6211 440.6778 L -1032.3053 434.2382 L -1029.1644 428.2648 L -1025.09 420.6436 L -1021.786 414.5314 L -1017.2789 406.2189 L -1013.6764 399.566 L -1008.7896 390.512 L -1004.9273 383.3705 L -999.7559 373.8855 L -994.5585 364.4475 L -989.7079 355.7328 L -985.8015 348.7823 L -980.7364 339.8609 L -976.587 332.6692 L -971.8213 324.6441 L -967.9199 318.2808 L -962.761 310.1301 L -958.7665 303.9888 L -953.4799 296.0359 L -949.3875 289.9924 L -944.2628 282.5681 L -940.0112 276.5464 L -934.6383 269.1181 L -929.1035 261.6782 L -923.3823 254.2492 L -918.2078 247.7834 L -912.0939 240.4568 L -906.5682 234.1173 L -902.5235 229.628 L -895.4713 222.07 L -891.2263 217.6719 L -883.853 210.2501 L -876.3114 202.8952 L -869.0786 196.022 L -864.5018 191.7456 L -859.8852 187.4849 L -853.8281 181.9686 L -846.3023 175.2003 L -840.1751 169.718 L -832.7057 163.0115 L -825.3881 156.3878 L -818.2288 149.8869 L -810.3096 142.718 L -803.3868 136.488 L -796.5721 130.3865 L -789.4568 124.037 L -782.8751 118.1765 L -776.0217 112.0498 L -769.3255 106.0041 L -763.1672 100.3865 L -756.7665 94.4994 L -751.9617 90.06 L -746.1467 84.6752 L -741.4932 80.3524 L -735.5606 74.7663 L -730.0996 69.5126 L -726.7599 66.2435 L -723.4525 62.9661 L -721.1597 60.6723 L -710.5361 49.7794 L -705.1336 44.0366 L -703.2357 41.9764 L -697.9059 36.0419 L -690.7943 27.7196 L -687.7379 23.9925 L -680.4683 14.7547 L -671.894 2.9945 L -663.2092 -9.7474 L -653.9993 -23.1333 L -644.7133 -35.439 L -639.2598 -42.0331 L -633.6003 -48.4545 L -627.3128 -55.006 L -621.1227 -60.8775 L -615.8964 -65.4115 L -608.7935 -70.9865 L -603.6146 -74.6815 L -596.5219 -79.3125 L -589.2642 -83.6385 L -581.8808 -87.7128 L -576.2912 -90.6328 L -568.8018 -94.3508 L -560.8498 -98.0352 L -553.3869 -101.1893 L -545.4758 -104.2045 L -537.5836 -106.885 L -530.1811 -109.143 L -522.2849 -111.354 L -514.7802 -113.3365 L -507.6774 -115.2143 L -501.9601 -116.8044 L -493.8372 -119.2633 L -486.183 -121.8384 L -478.0586 -124.8663 L -469.9343 -128.1999 L -462.2469 -131.6351 L -454.5067 -135.3504 L -448.6688 -138.3293 L -440.3683 -142.8381 L -433.995 -146.5195 L -425.6109 -151.6487 L -419.1595 -155.8114 L -411.1688 -161.2198 L -396.4368 -171.7457 L -381.0909 -182.8837 L -365.0622 -194.349 L -359.3805 -198.387 L -350.1518 -204.9263 L -340.148 -211.9833 L -329.9496 -219.1421 L -311.5097 -231.9944 L -301.4829 -238.9342 L -290.7903 -246.2911 L -280.7477 -253.1248 L -270.7131 -259.8336 L -262.5646 -265.172 L -252.5159 -271.579 L -244.3085 -276.6288 L -234.185 -282.5987 L -223.9827 -288.3072 L -213.0726 -294.0796 L -202.0991 -299.5797 L -191.0847 -304.8363 L -181.9969 -309.0121 L -170.9324 -313.8959 L -162.4224 -317.4917 L -151.1437 -322.0516 L -142.3938 -325.4526 L -130.7845 -329.8194 L -121.7593 -333.1233 L -109.7682 -337.4136 L -100.4324 -340.6915 L -88.7426 -344.7186 L -79.0746 -347.976 L -66.2097 -352.2105 L -53.8801 -356.1858 L -40.5615 -360.4487 L -27.0538 -364.7742 L -13.3762 -369.1455 L .4629 -373.5679 L 21.9381 -380.4635 L 34.4861 -384.5348 L 46.2904 -388.4061 L 60.7516 -393.1891 L 75.3535 -398.0552 L 90.0924 -403.0045 L 104.0944 -407.7277 L 119.1061 -412.7934 L 134.2649 -417.9034 L 143.2457 -420.9281 L 157.7188 -425.7908 L 173.2437 -430.9681 L 187.0435 -435.5359 L 199.1005 -439.4951 L 214.0521 -444.3457 L 227.2332 -448.581 L 243.3427 -453.7387 L 255.7209 -457.6993 L 271.8886 -462.8709 L 283.2108 -466.4901 L 298.0911 -471.242 L 310.8386 -475.315 L 325.9608 -480.1862 L 337.257 -483.8777 L 351.6873 -488.6713 L 364.9142 -493.1356 L 378.5901 -497.7964 L 388.7426 -501.275" stroke-width="12" stroke="#e73323" fill="none" id="S1"/><path d="M 397.1104 -504.1533 L 406.7571 -507.4795 L 418.2579 -511.4443 L 429.2948 -515.2206 L 439.8322 -518.7675 L 448.5743 -521.6602 L 457.4445 -524.56 L 464.7103 -526.9232 L 473.6474 -529.8295 L 480.4929 -532.055 L 488.1817 -534.5441 L 494.021 -536.4 L 500.3029 -538.3065 L 505.538 -539.7466 L 511.2478 -541.0805 L 515.6934 -541.9168 L 521.2546 -542.6703 L 525.2952 -542.9718 L 530.2566 -542.9908 L 533.7637 -542.7583 L 537.8886 -542.2505 L 541.3657 -541.6443 L 545.2348 -540.7677 L 548.3502 -539.9017 L 552.2285 -538.6248 L 556.1417 -537.0986 L 560.0587 -535.3098 L 563.459 -533.5188 L 567.3102 -531.2023 L 570.6273 -528.9331 L 574.3444 -526.0708 L 577.2923 -523.5521 L 581.053 -520.0402 L 583.8926 -517.2346 L 587.4067 -513.7289 L 590.5413 -510.7219 L 594.2024 -507.4619 L 597.2392 -505.0009 L 601.3297 -502.0488 L 604.8117 -499.869 L 609.2119 -497.5158 L 612.7503 -495.8893 L 617.3237 -494.073 L 621.2065 -492.7586 L 626.1744 -491.3678 L 631.2988 -490.265 L 636.7717 -489.4854 L 640.9118 -489.1972 L 646.2875 -489.2207 L 650.392 -489.5278 L 655.1492 -490.1645 L 659.2991 -490.9477 L 664.761 -492.298 L 669.2561 -493.688 L 674.3819 -495.5881 L 679.4639 -497.7883 L 684.5281 -500.2084 L 690.0134 -502.8699 L 695.0245 -505.1383 L 699.5085 -506.9766 L 705.564 -509.1451 L 710.6776 -510.6773 L 716.1489 -511.9633 L 721.8622 -512.8563 L 727.7493 -513.2797 L 733.1038 -513.2752 L 738.2906 -512.9821 L 742.3929 -512.578 L 747.3272 -511.8982 L 751.2722 -511.2072 L 756.3805 -510.1061 L 760.5517 -509.0013 L 765.2952 -507.4916 L 769.1156 -506.0541 L 773.766 -504.016 L 778.3677 -501.6845 L 783.2038 -498.8849 L 787.9738 -495.759 L 792.3884 -492.5229 L 796.7572 -489.007 L 807.2053 -479.309 L 810.587 -475.7184 L 814.6493 -471.0504 L 818.591 -466.1172 L 822.6749 -460.5998 L 825.7687 -456.2184 L 829.601 -450.6463 L 832.7766 -445.992 L 837.036 -439.7679 L 840.3986 -434.915 L 844.9615 -428.4345 L 848.5292 -423.4211 L 853.3859 -416.6594 L 857.2407 -411.3254 L 862.4623 -404.1432 L 867.8853 -396.7427 L 873.179 -389.5826 L 877.6223 -383.6402 L 883.6167 -375.7097 L 888.3232 -369.5174 L 894.2424 -361.7509 L 899.1507 -355.3261 L 905.2534 -347.364 L 911.7019 -338.9969 L 917.6564 -331.2935 L 923.7116 -323.4347 L 929.102 -316.3829 L 933.8499 -310.1126 L 937.7136 -304.965 L 942.384 -298.6913 L 945.6664 -294.2478 L 949.7794 -288.6114 L 952.4034 -284.8956 L 954.9321 -281.1459 L 959.3326 -274.0367 L 961.5062 -270.1371 L 963.5701 -266.107 L 965.0981 -262.871 L 966.1031 -260.6003 L 967.6467 -256.8142 L 968.9845 -253.0927 L 970.1136 -249.3946 L 970.9968 -245.8592 L 971.7609 -241.9593 L 972.2161 -238.86 L 972.5439 -235.6483 L 972.7363 -231.2992 L 972.6457 -227.6375 L 972.1502 -222.8547 L 971.3361 -218.5577 L 970.1122 -214.0867 L 968.9595 -210.8172 L 967.4246 -207.2416 L 965.9246 -204.3266 L 963.8707 -200.9804 L 961.4445 -197.7146 L 958.753 -194.7225 L 956.4892 -192.5857 L 953.2375 -189.9775 L 949.8929 -187.7617 L 946.0921 -185.7524 L 943.0551 -184.4967 L 938.9436 -183.238 L 934.9617 -182.4632 L 930.8771 -182.0869 L 927.7308 -182.0598 L 923.1481 -182.3731 L 919.2733 -182.9281 L 914.7444 -183.9078 L 910.7242 -185.0836 L 906.0917 -186.8024 L 902.045 -188.646 L 897.4834 -191.1665 L 893.5894 -193.7326 L 889.2767 -197.0547 L 885.8738 -200.026 L 881.5255 -204.2701 L 878.2568 -207.8051 L 874.0505 -212.7955 L 870.8839 -216.8947 L 866.8544 -222.6138 L 863.9005 -227.2495 L 860.3221 -233.5474 L 858.0673 -238.0611 L 855.277 -244.4663 L 852.8244 -250.8191 L 850.5469 -256.6476 L 847.912 -262.571 L 845.0067 -268.1781 L 841.8577 -273.4753 L 837.8973 -279.3837 L 834.5942 -283.9211 L 831.0367 -288.5717 L 825.8734 -294.7577 L 822.2623 -298.5961 L 818.231 -302.3842 L 813.9787 -305.8166 L 812.4243 -306.9374 L 805.363 -311.2752 L 798.262 -314.6307 L 794.1556 -316.2232 L 788.5177 -318.0644 L 783.6714 -319.346 L 777.566 -320.5652 L 772.7531 -321.2267 L 766.2952 -321.7322 L 761.2594 -321.8294 L 754.5836 -321.5512 L 749.0233 -320.973 L 743.0308 -320.0112 L 739.0249 -319.184 L 735.0116 -318.2153 L 727.386 -316.0002 L 720.5793 -313.6297 L 714.158 -311.1187 L 707.6212 -308.424 L 702.108 -306.117 L 694.5707 -302.963 L 688.5498 -300.473 L 680.3367 -297.1218 L 673.2866 -294.2892 L 664.3611 -290.7635 L 657.2529 -288.0073 L 647.5965 -284.3481 L 640.5401 -281.7277 L 630.8389 -278.1907 L 622.0875 -275.0872 L 611.1555 -271.3649 L 602.5631 -268.5791 L 591.7148 -265.2377 L 582.6797 -262.6076 L 571.296 -259.4951 L 559.6219 -256.5388 L 546.9163 -253.561 L 537.0032 -251.3719 L 523.806 -248.5873 L 510.3579 -245.8406 L 497.5287 -243.2528 L 487.0351 -241.1353 L 474.1161 -238.5223 L 462.9983 -236.2667 L 449.9219 -233.5859 L 440.4239 -231.6053 L 428.7641 -229.1338 L 417.966 -226.8264 L 408.5804 -224.8228 L 402.0213 -223.4218 L 393.8687 -221.6648 L 387.6621 -220.2972 L 379.8513 -218.528 L 372.6077 -216.8441 L 360.1715 -213.85 L 352.7822 -211.9177 L 347.6615 -210.4399 L 340.5803 -208.0914 L 334.9223 -205.8993 L 328.6424 -203.1051 L 322.2037 -199.7982 L 311.3739 -193.162 L 305.8269 -189.2417 L 300.088 -184.8039 L 295.4832 -180.9344 L 290.3771 -176.2758 L 285.4749 -171.3512 L 280.8274 -166.1366 L 277.0234 -161.3575 L 272.7726 -155.3028 L 268.8812 -148.993 L 265.3356 -142.4599 L 262.6641 -136.9332 L 259.8741 -130.4457 L 257.6464 -124.6249 L 255.4722 -118.26 L 253.4179 -111.3707 L 251.6167 -104.0005 L 250.5407 -98.3559 L 249.5598 -91.0087 L 249.1326 -85.4161 L 248.9357 -78.1046 L 249.001 -72.47 L 249.2903 -65.4664 L 249.7332 -59.2814 L 250.4431 -52.5993 L 251.3515 -46.3303 L 252.8178 -38.7034 L 254.3438 -32.4361 L 256.4576 -25.3179 L 258.6418 -19.1545 L 261.5085 -12.1812 L 264.1063 -6.5667 L 267.8279 .7101 L 270.8938 6.2304 L 275.1523 13.4083 L 278.591 18.8487 L 283.0727 25.5058 L 287.2318 31.262 L 292.5951 38.1303 L 297.2674 43.666 L 302.5463 49.4288 L 307.7241 54.6046 L 314.3145 60.5583 L 319.5665 64.8239 L 326.7205 70.0303 L 332.3931 73.7974 L 340.0439 78.5156 L 346.0407 81.9998 L 354.0747 86.3746 L 360.364 89.5622 L 368.281 93.299 L 376.4087 96.8256 L 385.2813 100.3602 L 393.8872 103.4808 L 403.3261 106.6017 L 412.5051 109.4472 L 429.33 114.5603 L 449.1085 120.5887 L 469.2999 126.7215 L 490.4196 133.0107 L 511.73 139.4093 L 531.1396 145.4242 L 541.8909 148.8432 L 550.3416 151.5807 L 560.9183 155.0833 L 568.5992 157.6799 L 578.1245 160.9389 L 585.6646 163.5241 L 594.0424 166.3924 L 600.6805 168.6765 L 609.098 171.6382 L 618.0124 174.9496 L 624.6426 177.5873 L 631.7369 180.6377 L 638.4695 183.8507 L 644.5427 187.1196 L 648.9102 189.7525 L 654.3875 193.5236 L 658.4926 196.8197 L 663.1375 201.1596 L 666.8831 205.1837 L 670.6526 209.701 L 673.7429 213.7802 L 677.4894 219.3616 L 679.8919 223.4688 L 682.8807 229.5101 L 685.1776 235.4091 L 686.9623 241.4907 L 688.5272 249.7132 L 689.2674 261.0251 L 688.9463 268.0121 L 688.2872 273.391 L 687.0745 279.6098 L 685.4952 285.3907 L 683.1945 291.9284 L 681.5353 295.9747 L 678.6563 302.3595 L 675.5758 308.9795 L 672.9631 315.0952 L 670.7718 321.1269 L 668.9291 327.4326 L 667.8541 332.1792 L 666.8334 338.372 L 666.3035 343.148 L 665.9258 349.1002 L 665.8488 353.9986 L 666.103 360.45 L 666.5993 365.3597 L 667.5936 371.3347 L 668.7237 376.1385 L 670.6438 382.3316 L 673.0753 388.4547 L 675.8406 394.1804 L 679.2886 400.2043 L 682.7524 405.4561 L 686.0728 409.9228 L 690.5564 415.2699 L 694.5156 419.4687 L 700.0939 424.7708 L 704.6449 428.6783 L 710.9375 433.5842 L 715.9949 437.1642 L 722.4995 441.3707 L 726.7078 443.9012 L 733.6608 447.8141 L 741.3502 451.8092 L 749.362 455.6431 L 756.6418 458.8862 L 764.1863 462.0404 L 771.4305 464.9226 L 780.4478 468.4551 L 787.4594 471.2846 L 796.1762 475.0011 L 804.9018 479.0168 L 813.4819 483.3205 L 820.771 487.2733 L 828.7158 491.9264 L 835.199 495.9724 L 841.9493 500.4648 L 846.8774 503.9525 L 852.278 508.0143 L 856.4612 511.3737 L 860.6071 515.0065 L 863.3289 517.673 L 866.7949 521.542 L 869.1426 524.57 L 871.6436 528.2823 L 873.1364 530.8136 L 876.0416 536.7328 L 876.9531 538.9995 L 878.2728 542.8819 L 879.3511 546.9064 L 880.197 551.1117 L 880.7751 555.5284 L 881.0619 559.8828 L 881.0887 564.4235 L 880.8402 569.4284 L 880.243 574.9128 L 879.5909 578.9816 L 878.52 584.0839 L 877.0283 589.5841 L 869.1342 608.1763 L 865.9683 613.7427 L 863.1293 618.3287 L 859.4619 623.9258 L 856.5354 628.2466 L 853.0491 633.2968" stroke-width="12" stroke="#4fafdf" fill="none" id="S2"/><path d="M 851.39 635.6737 L 847.2654 641.5085 L 844.0259 646.0266 L 839.9515 651.6594 L 835.5282 657.7455 L 831.0048 663.9003 L 826.5926 669.716 L 821.6953 675.8524 L 816.8417 681.5334 L 811.3787 687.3896 L 805.2122 693.2824 L 800.5164 697.245 L 794.0955 701.967 L 788.5756 705.4557 L 782.038 709.0429 L 776.5687 711.6829 L 769.2077 714.7866 L 763.4147 716.8997 L 756.1169 719.1568 L 748.1941 721.0981 L 740.6052 722.4622 L 732.928 723.3638 L 724.7072 723.8315 L 716.4225 723.8274 L 708.5616 723.3795 L 702.1265 722.6967 L 693.6177 721.3823 L 686.5455 719.9673 L 677.8723 717.8931 L 669.0997 715.4877 L 652.9006 710.2842 L 637.0157 704.0618 L 620.3163 696.3577 L 603.629 687.6064 L 587.6153 678.3269 L 569.4805 666.9918 L 551.7335 654.996 L 534.9259 642.4675 L 518.0667 628.5905 L 496.7181 608.7088 L 488.5657 600.369 L 480.5706 591.8777 L 472.2342 582.7192 L 464.5351 573.9753 L 457.9071 566.2399 L 450.4153 557.3344 L 444.3959 550.0416 L 436.6702 540.3892 L 430.888 532.918 L 424.3242 524.211 L 418.3196 515.9947 L 411.6448 506.4805 L 405.1746 496.8239 L 398.8714 487.063 L 393.457 478.4538 L 387.7444 469.1731 L 382.8832 461.074 L 376.683 450.3944 L 372.0314 442.1774 L 365.9894 431.4109 L 361.0018 422.548 L 354.8885 411.8163 L 349.8006 403.0082 L 343.5697 392.3376 L 337.2928 381.6938 L 331.3193 371.7051 L 324.8658 361.1554 L 318.2769 350.7059 L 314.3302 344.6361 L 303.0177 328.1755 L 290.3786 311.5907 L 277.1018 296.0884 L 262.6582 280.9609 L 248.4191 267.5553 L 232.9652 254.4198 L 216.1935 241.5835 L 202.6328 232.1862 L 188.6008 223.3038 L 178.4237 217.3725 L 168.7151 212.1149 L 158.9652 207.1984 L 148.6294 202.3137 L 139.5914 198.2305 L 131.2505 194.5667 L 122.414 190.7995 L 114.8293 187.6789 L 105.0316 183.7822 L 95.9442 180.2531 L 87.0003 176.8116 L 79.846 174.0705 L 70.6204 170.5908 L 61.4962 167.3053 L 52.4964 164.323 L 43.6277 161.7372 L 35.4008 159.7027 L 24.7966 157.5885 L 16.8665 156.367 L 9.0292 155.4647 L 4.6469 155.0819 L -3.627 154.5709 L -9.9524 154.3714 L -17.7503 154.3668 L -24.6176 154.5723 L -33.0081 155.0765 L -39.4564 155.6558 L -47.9207 156.6801 L -54.4119 157.6812 L -62.9058 159.2674 L -69.9095 160.8071 L -78.4145 162.9554 L -86.9206 165.4131 L -94.927 168.0157 L -100.9291 170.1484 L -108.9371 173.22 L -115.4535 175.8881 L -122.5062 178.8877 L -129.1129 181.7333 L -137.3453 185.2718 L -146.2133 189.0812 L -155.2094 192.9573 L -162.1839 195.9532 L -171.9832 200.1327 L -179.1512 203.1851 L -188.0644 207.0098 L -195.9414 210.4222 L -205.0364 214.3777 L -212.498 217.6235 L -222.3325 221.9007 L -231.612 225.9375 L -241.3809 230.1871 L -250.461 234.0886 L -256.6316 236.6776 L -265.5166 240.2948 L -283.4741 247.1222 L -288.8204 249.0158 L -300.9339 253.0429 L -306.0637 254.6353 L -309.595 255.6926 L -316.9933 257.813 L -321.7982 259.128 L -332.0081 261.7822 L -338.3535 263.3608 L -345.1201 265.0009 L -350.9862 266.377 L -358.2311 267.9966 L -365.984 269.6263 L -372.8858 270.9872 L -378.9153 272.1081 L -386.8856 273.5033 L -394.9687 274.8314 L -402.705 276.042 L -409.5828 277.0767 L -418.0796 278.2875 L -427.245 279.5226 L -439.1646 281.0533 L -443.8497 281.6397 L -452.4492 282.6995 L -459.8324 283.5898 L -471.4809 284.9649 L -481.6634 286.1943 L -489.9034 287.2169 L -494.1028 287.7097 L -498.208 288.128 L -502.0335 288.4409 L -505.4086 288.6228 L -508.8005 288.6853 L -512.0413 288.6063 L -514.3021 288.4647 L -517.5432 288.1377 L -520.826 287.6334 L -523.906 286.9601 L -526.3612 286.2496 L -529.2383 285.1751 L -530.9594 284.3893 L -535.2996 281.8017 L -536.5675 280.8123 L -538.6413 278.831 L -540.0035 277.1919 L -541.5881 274.8137 L -542.7311 272.6347 L -543.856 269.8943 L -544.6348 267.4584 L -545.4137 264.2261 L -546.0473 260.4013 L -546.48 257.1095 L -546.7672 255.1549 L -547.4081 251.75 L -548.5363 247.5456 L -549.6595 244.437 L -551.1486 241.2637 L -552.8237 238.6146 L -554.7973 236.3537 L -557.2448 234.3348 L -562.6403 231.5551 L -565.7885 230.6555 L -569.1408 230.1729 L -575.6693 230.3165 L -583.0238 231.9115 L -587.2149 233.3438 L -591.2908 234.9945 L -594.7078 236.5363 L -599.0474 238.6881 L -606.4164 242.7357 L -611.1599 245.5916 L -616.4184 248.9344 L -620.9649 251.9192 L -626.8214 255.7907 L -631.5992 258.9383 L -637.8917 263.0655 L -643.7194 266.8968 L -650.7655 271.5934 L -658.1257 276.6139 L -666.4006 282.3441 L -673.0473 286.9445 L -682.1537 293.1755 L -688.8175 297.699 L -698.5743 304.3343 L -709.2751 311.6985 L -719.1009 318.5325 L -727.3126 324.2487" stroke-width="12" stroke="#f7d347" fill="none" id="S3"/></svg>