<?xml version="1.0" standalone="no"?>
<svg xmlns:xlink="http://www.w3.org/1999/xlink" id="s2" class="track" xmlns="http://www.w3.org/2000/svg" preserveAspectRatio="xMinYMid meet" height="800px" width="600px" viewBox="-1200 -700 3000 3000">
            <path d="M 540.9368 -168.2312 L 549.5217 -157.7143 L 560.9364 -143.5361 L 569.9346 -132.4625 L 582.2331 -117.8402 L 588.9921 -110.0524 L 602.8166 -94.2501 L 613.8049 -81.7406 L 627.3845 -66.3456 L 641.2513 -50.6929 L 654.5507 -35.7241 L 668.9125 -19.5798 L 683.4564 -3.1841 L 698.1541 13.4536 L 712.1132 29.3138 L 726.1802 45.3557 L 751.9808 74.654 L 778.9378 105.328 L 806.1719 136.3718 L 833.4447 167.2002 L 856.2403 192.9711 L 869.4211 207.8878 L 882.4255 222.6208 L 902.9592 245.981 L 921.2275 266.9765 L 929.8451 276.9446 L 937.5511 285.9188 L 944.9003 294.5776 L 951.6901 302.6726 L 957.5266 309.7123 L 963.0385 316.4386 L 968.1097 322.7111 L 973.0302 328.9775 L 976.7899 334.1516 L 981.2515 341.1083 L 984.98 347.8151 L 988.4049 355.0955 L 990.6306 360.7608 L 992.6555 366.9751 L 994.1863 372.8752 L 995.6335 380.7954 L 996.2556 386.5303 L 996.5707 394.912 L 996.3228 402.0207 L 995.4975 410.2748 L 994.4132 416.9099 L 992.5933 424.8752 L 990.3481 432.6042 L 988.7832 437.3217 L 985.9719 444.9084 L 983.3173 451.335 L 981.8773 454.6065 L 979.5231 459.6592 L 977.0508 464.5588 L 974.4364 469.2874 L 972.3345 472.6826 L 969.2325 476.9711 L 966.177 480.4601 L 962.2205 484.1536 L 957.6783 487.5397 L 952.5312 490.5474 L 947.9051 492.6471 L 941.6883 494.6964 L 935.8352 495.9133 L 928.2925 496.5455 L 922.293 496.3442 L 914.2731 495.1478 L 907.6694 493.3482 L 900.7751 490.6022 L 894.5845 487.2856 L 887.8881 482.6449 L 881.6946 477.1475 L 876.0374 470.8906 L 870.5095 463.5718 L 865.2576 455.7485 L 859.9499 447.6669 L 852.1317 436.0127 L 847.7517 429.6 L 842.9998 422.6622 L 837.5959 414.7938 L 833.2561 408.4865 L 827.6567 400.3691 L 823.11 393.7837 L 819.9064 389.1336 L 814.2519 380.8525 L 809.3478 373.5884 L 806.3379 369.0936 L 802.4905 363.3081 L 797.5406 355.852 L 793.7623 350.2616 L 789.0449 343.5882 L 784.7306 338.0229 L 779.135 331.7376 L 774.5914 327.327 L 768.6747 322.445 L 763.2051 318.738 L 756.1903 314.9529 L 750.527 312.5747 L 742.6578 310.1236 L 736.2905 308.743 L 727.6437 307.6299 L 721.0047 307.3306 L 714.4391 307.4255 L 707.9797 307.7202 L 700.1443 308.0495 L 692.441 308.057 L 684.9038 307.5491 L 677.5887 306.3836 L 670.1576 304.3424 L 664.7725 302.21 L 659.2587 299.3822 L 654.3967 296.2755 L 648.4279 291.5241 L 643.2421 286.3463 L 638.519 280.5024 L 635.0829 275.2875 L 631.1696 267.8784 L 629.1515 263.2297 L 626.2901 255.3832 L 623.7361 247.1013 L 621.1354 237.9256 L 618.57 229.0312 L 615.6391 219.5305 L 612.7996 210.7658 L 609.7169 201.6514 L 606.5082 192.7693 L 604.0504 186.6847 L 600.1949 178.395 L 596.8753 172.3814 L 592.1826 165.5387 L 587.1655 159.7998 L 580.8139 154.2217 L 573.9244 149.6466 L 566.6688 145.9179 L 559.5317 143.0604 L 551.6339 140.6808 L 545.4156 139.262 L 537.0977 137.8491 L 530.1078 137.0567 L 521.9649 136.5536 L 513.1699 136.4322 L 497.813 136.6563 L 490.3227 136.5045 L 483.4483 136.0887 L 475.7678 135.2257 L 469.2025 134.0883 L 461.4804 132.1852 L 454.4947 129.8712 L 447.4223 126.8514 L 441.1401 123.5173 L 436.3197 120.4814 L 430.7502 116.3572 L 426.2188 112.4068 L 421.1696 107.1885 L 417.3966 102.5637 L 413.5294 96.9472 L 410.7465 92.1539 L 407.7716 86.0125 L 405.7237 80.8539 L 403.5605 73.9188 L 402.2236 68.0739 L 401.158 60.853 L 400.7647 55.2618 L 400.7874 48.2979 L 401.2843 42.1491 L 402.332 35.5338 L 404.1118 28.0085 L 408.3093 14.8582 L 411.0393 7.316 L 413.3106 .9907 L 416.2724 -7.5606 L 418.4855 -14.2003 L 421.0831 -22.2928 L 424.918 -35.2449 L 426.7364 -43.1494 L 427.8732 -51.5014 L 427.4389 -64.9303 L 424.2204 -78.5052 L 419.015 -91.2233 L 412.2077 -102.6521 L 404.4353 -112.0849 L 398.8383 -117.4926 L 393.842 -121.6131 L 386.7433 -126.6275 L 380.9395 -130.215 L 372.9204 -134.6133 L 366.4756 -137.7515 L 358.2257 -141.3938 L 350.7448 -144.3915 L 341.9627 -147.707 L 335.2383 -150.1149 L 325.5863 -153.3133 L 316.4611 -156.0324 L 306.7761 -158.52 L 297.1003 -160.5388 L 287.9933 -161.9481 L 278.8871 -162.8575 L 262.4585 -163.1734 L 245.6351 -161.915 L 229.0287 -159.4711 L 212.0655 -156.1498 L 202.8976 -153.8486 L 193.3321 -150.9024 L 188.0937 -149.0212 L 179.8268 -145.6298 L 171.2047 -141.5194 L 162.7528 -136.9163 L 154.9342 -132.201 L 146.731 -126.8398 L 139.0422 -121.5173 L 131.3553 -115.9004 L 123.7676 -109.9602 L 116.2819 -103.6297 L 111.6805 -99.4786 L 104.4066 -92.4713 L 98.1973 -86.0194 L 90.8866 -77.7944 L 85.4846 -71.2231 L 79.1115 -62.8581 L 73.7701 -55.3997 L 67.8563 -46.904 L 62.0814 -38.4853 L 56.1084 -29.7123 L 51.6906 -23.3072 L 46.4608 -16.0106 L 41.3289 -9.2183 L 36.8515 -3.4894 L 32.7024 1.7039 L 29.3102 5.9011 L 24.9857 11.2119 L 21.8903 14.9917 L 17.8871 19.8711 L 14.8593 23.5549 L 11.1477 28.0148 L 8.1013 31.5438 L 3.9659 35.9149 L .33 39.178 L -4.4306 42.5811 L -8.3103 44.7385 L -13.7097 47.0051 L -18.088 48.3149 L -23.745 49.4618 L -28.1775 50.0631 L -34.3532 50.6539 L -45.879 51.512 L -59.5383 52.6606 L -72.9048 54.0773 L -86.3692 55.8127 L -99.0711 57.6891 L -111.1644 59.5645 L -121.2143 61.0139 L -130.4997 62.1652 L -139.2842 62.9299 L -147.8889 62.8845 L -152.6265 62.2445 L -156.8991 61.0995 L -160.4045 59.6081 L -164.2406 57.1731 L -166.6124 55.0605 L -169.3888 51.7172 L -171.3802 48.4618 L -173.5144 43.4506 L -174.7656 38.7512 L -175.7142 32.8355 L -176.3716 27.6592 L -177.4673 20.4618 L -178.5272 14.6586 L -180.2011 6.7192 L -181.6655 .3703 L -186.3564 -18.308 L -188.7959 -27.6725 L -189.8233 -31.625 L -192.2207 -40.8678 L -196.4182 -57.0779 L -198.9507 -67.0484 L -201.6567 -77.8866 L -204.1974 -88.2861 L -206.8826 -99.4744 L -209.5408 -110.6721 L -212.1373 -121.7136 L -214.524 -131.9344 L -216.8611 -141.9928 L -219.8456 -154.9473 L -222.0527 -164.6304 L -224.6025 -175.927 L -227.1971 -187.5576 L -229.2065 -196.7783 L -230.5319 -202.9956 L -231.9978 -210.1709 L -233.0117 -215.4248 L -234.2144 -222.1897 L -234.985 -227.2929 L -235.7055 -233.4934 L -236.1015 -238.8817 L -236.2649 -245.0205 L -236.1632 -249.9964 L -235.665 -256.4985 L -234.9649 -261.4467 L -233.7177 -267.4939 L -232.0858 -273.5014 L -230.0341 -279.936 L -227.8789 -286.0923 L -225.4033 -292.7516 L -222.7623 -299.4554 L -220.688 -304.4813 L -218.1201 -310.5388 L -216.1914 -314.9922 L -213.6599 -320.7772 L -211.8044 -325.0504 L -209.7734 -329.7827 L -208.2235 -333.4496 L -206.515 -337.5666 L -204.7682 -341.8563 L -203.0939 -346.0592 L -201.884 -349.2271 L -200.5167 -353.0656 L -199.3597 -356.686 L -198.5468 -359.7052 L -198.0499 -362.127 L -197.67 -365.0684 L -197.5893 -367.4031 L -197.8232 -370.1735 L -198.2937 -372.3108 L -199.2374 -374.9155 L -200.4124 -377.1371 L -201.8023 -379.1026 L -202.957 -380.4052 L -204.6379 -381.938 L -205.8805 -382.8601 L -208.0861 -384.16 L -209.8809 -384.9545 L -212.7528 -385.8215 L -215.3997 -386.2271 L -218.9421 -386.2296 L -221.846 -385.8071 L -225.3291 -384.8103 L -229.3144 -382.9512 L -233.1708 -380.2582 L -235.9525 -377.6662 L -239.5455 -373.4229 L -242.0073 -369.962 L -244.9122 -365.2419 L -247.2417 -361.0561 L -250.4239 -355.2116 L -253.2863 -350.1518 L -257.0132 -343.7008 L -260.961 -336.9007 L -264.9301 -330.2034 L -266.7427 -327.185 L -269.1269 -323.2333 L -272.9477 -316.9348 L -276.603 -310.9171 L -281.5079 -302.8117 L -285.3456 -296.4546 L -290.4378 -288.0457 L -294.3503 -281.6241 L -299.4279 -273.3497 L -303.5856 -266.6595 L -308.64 -258.7043 L -312.5295 -252.7612 L -317.3867 -245.6382 L -321.4122 -240.0062 L -326.863 -232.8755 L -331.275 -227.682 L -337.4339 -221.2883 L -342.4514 -216.6805 L -349.0103 -211.3294 L -355.5278 -206.6221 L -363.7813 -201.3602 L -370.0222 -197.8255 L -377.9842 -193.7945 L -384.6805 -190.8042 L -392.6462 -187.7047 L -400.2929 -185.1703 L -409.8465 -182.57 L -417.3151 -180.9365 L -426.6905 -179.3331 L -436.2373 -178.1687 L -445.9211 -177.3636 L -453.8712 -176.9146 L -464.3741 -176.5439 L -471.8874 -176.4139 L -483.297 -176.4448 L -491.6083 -176.7149 L -502.5536 -177.425 L -510.9753 -178.2296 L -521.3941 -179.5074 L -530.5582 -180.8422 L -541.0893 -182.5744 L -547.0392 -183.6504 L -558.3201 -185.8901 L -566.9766 -187.7854 L -577.6428 -190.3462 L -588.9376 -193.4468 L -600.1382 -196.9197 L -610.5388 -200.5198 L -621.4245 -204.683 L -632.1309 -209.1865 L -650.5536 -217.9574 L -668.7583 -228.2849 L -685.4021 -239.5533 L -700.9417 -252.1151 L -715.3508 -265.867 L -727.0177 -278.5415 L -734.2545 -287.1952 L -739.563 -294.017 L -746.1911 -303.2245 L -751.0363 -310.5121 L -757.1013 -320.4026 L -761.5583 -328.2603 L -766.8743 -338.2632 L -771.7548 -347.9713 L -777.1797 -359.3656 L -781.6133 -368.9993 L -786.6898 -380.2625 L -791.1152 -390.2979 L -796.106 -401.8611 L -800.0966 -411.1554 L -805.3044 -423.0806 L -809.2834 -431.8259 L -814.4067 -442.603 L -818.3536 -450.5529 L -826.2744 -465.0832 L -836.09 -478.2411 L -848.0827 -487.7344 L -861.7902 -493.0917 L -868.4559 -494.4711 L -875.6859 -495.5591 L -890.3859 -496.6505 L -904.7715 -496.3365 L -920.1595 -494.5048 L -934.3325 -491.4925 L -948.6278 -487.1846 L -962.0195 -481.9546 L -969.4891 -478.1382 L -976.3397 -473.4196 L -985.7724 -463.1537 L -989.877 -455.6516 L -992.5941 -448.5361 L -994.7774 -440.6483 L -996.1603 -432.4795 L -996.6134 -425.6005 L -996.2155 -416.665 L -995.1559 -410.2318 L -992.9094 -402.4792 L -990.1252 -395.9232 L -986.1501 -388.7277 L -982.1165 -382.6703 L -976.6662 -375.5578 L -970.7378 -368.6606 L -965.1983 -362.6651 L -960.9679 -358.3189 L -954.1409 -351.6777 L -946.8977 -345.093 L -939.6927 -338.9095 L -933.0693 -333.4983 L -924.5386 -326.8722 L -915.5268 -320.1811 L -906.6288 -313.8044 L -896.7856 -306.911 L -886.5696 -299.8973 L -874.0966 -291.527 L -863.7917 -284.7646 L -852.5443 -277.5294 L -840.9907 -270.235 L -829.8526 -263.347 L -817.746 -256.0311 L -806.0922 -249.2021 L -793.4415 -242.0371 L -759.4728 -224.1515 L -745.8986 -217.5786 L -734.5912 -212.2374 L -720.728 -205.7987 L -709.1871 -200.5667 L -695.8315 -194.7613 L -684.8404 -190.2048 L -670.3072 -184.4313 L -659.1035 -180.0732 L -644.3525 -174.4457 L -632.9918 -170.1954 L -617.1418 -164.4628 L -606.4784 -160.7748 L -591.2555 -155.743 L -578.6118 -151.739 L -562.27 -146.6734 L -547.6772 -142.1647 L -520.2234 -133.5168 L -505.5535 -128.7448 L -492.6906 -124.5204 L -476.9945 -119.4213 L -461.2315 -114.3711 L -446.3447 -109.6275 L -430.4861 -104.5624 L -414.5945 -99.4812 L -399.5869 -94.7179 L -384.5392 -90.0114 L -369.4443 -85.3371 L -357.1713 -81.5162 L -341.1171 -76.4773 L -328.83 -72.5959 L -312.7766 -67.5135 L -300.4977 -63.6398 L -284.4547 -58.5871 L -272.2409 -54.7402 L -256.6631 -49.8291 L -247.8975 -47.0625 L -235.526 -43.1586 L -225.0308 -39.8455 L -214.1268 -36.4033 L -203.881 -33.17 L -196.9721 -30.9878 L -192.1079 -29.4488 L -184.0171 -26.8895 L -179.787 -25.5549 L -173.7302 -23.6784 L -166.3385 -21.5382 L -160.3461 -20.083 L -152.5174 -18.7404 L -146.5628 -18.1758 L -138.4061 -18.0749 L -132.1388 -18.5272 L -125.4271 -19.4473 L -119.1213 -20.6673 L -111.8395 -22.4739 L -105.8638 -24.2178 L -97.948 -26.8294 L -93.2242 -28.4938 L -85.0633 -31.4969 L -78.7346 -34.007 L -70.36 -37.6209 L -63.8783 -40.6095 L -55.3077 -44.8044 L -48.6976 -48.2389 L -40.0033 -53.0401 L -33.3347 -56.9523 L -25.147 -62.0853 L -18.0228 -66.8708 L -9.453 -73.0671 L -2.4528 -78.5059 L 5.4488 -85.0285 L 12.3108 -90.9653 L 20.1214 -97.9732 L 25.9805 -103.3557 L 33.8058 -110.6897 L 42.1371 -118.6858 L 50.5041 -126.9062 L 56.9689 -133.2989 L 65.5512 -141.7669 L 73.7873 -149.8567 L 83.2338 -159.0954 L 90.1809 -165.8574 L 98.8464 -174.2602 L 108.1606 -183.2451 L 116.8564 -191.5936 L 125.2382 -199.5978 L 139.3599 -212.9557 L 146.4167 -219.5428 L 151.9553 -224.6067 L 155.4441 -227.7317 L 159.7635 -231.5208 L 163.0482 -234.3272 L 167.3284 -237.8873 L 171.3443 -241.1111 L 175.3689 -244.1905 L 178.6618 -246.5775 L 183.0323 -249.4949 L 186.1724 -251.3629 L 190.7871 -253.5156 L 194.743 -254.5653 L 199.4889 -254.6257 L 202.7904 -253.7602 L 206.4082 -251.6536 L 208.5764 -249.5268 L 210.9828 -246.5753 L 213.3301 -243.8263 L 215.5584 -241.4758 L 217.3797 -239.7247 L 219.5279 -237.861 L 221.6328 -236.2268 L 224.3685 -234.3642 L 226.6187 -233.0446 L 229.7475 -231.5357 L 232.0611 -230.6694 L 235.2749 -229.8084 L 238.1925 -229.3628 L 241.616 -229.2687 L 245.3387 -229.6886 L 248.8899 -230.6264 L 252.0226 -231.9293 L 255.6067 -234.0131 L 258.2922 -235.9738 L 261.9352 -239.0452 L 265.2626 -242.1013 L 269.3507 -245.9396 L 273.9044 -250.0156 L 279.3428 -254.4955 L 285.3804 -259.0884 L 297.7724 -267.1358 L 311.1266 -273.6151 L 325.487 -278.2811 L 341.071 -281.2426 L 356.654 -282.2654 L 372.0295 -281.3509 L 387.5521 -278.4713 L 396.1841 -275.9829 L 405.4114 -272.6716 L 414.7066 -268.7327 L 424.0841 -264.1619 L 431.3549 -260.2398 L 440.9499 -254.6513 L 448.9523 -249.7442 L 458.7848 -243.4515 L 466.3237 -238.3045 L 476.1313 -231.0883 L 483.5691 -225.2042 L 492.619 -217.5199 L 498.2082 -212.4775 L 507.5639 -203.4794 L 515.6686 -195.1251 L 524.6837 -185.2313 L 530.9994 -178.0017 z" stroke-width="28" stroke="black" fill="none" id="Track"/><path d="M 540.9368 -168.2312 L 549.5217 -157.7143 L 560.9364 -143.5361 L 569.9346 -132.4625 L 582.2331 -117.8402 L 588.9921 -110.0524 L 602.8166 -94.2501 L 613.8049 -81.7406 L 627.3845 -66.3456 L 641.2513 -50.6929 L 654.5507 -35.7241 L 668.9125 -19.5798 L 683.4564 -3.1841 L 698.1541 13.4536 L 712.1132 29.3138 L 726.1802 45.3557 L 751.9808 74.654 L 778.9378 105.328 L 806.1719 136.3718 L 833.4447 167.2002 L 856.2403 192.9711 L 869.4211 207.8878 L 882.4255 222.6208 L 902.9592 245.981 L 921.2275 266.9765 L 929.8451 276.9446 L 937.5511 285.9188 L 944.9003 294.5776 L 951.6901 302.6726 L 957.5266 309.7123 L 963.0385 316.4386 L 968.1097 322.7111 L 973.0302 328.9775 L 976.7899 334.1516 L 981.2515 341.1083 L 984.98 347.8151 L 988.4049 355.0955 L 990.6306 360.7608 L 992.6555 366.9751 L 994.1863 372.8752 L 995.6335 380.7954 L 996.2556 386.5303 L 996.5707 394.912 L 996.3228 402.0207 L 995.4975 410.2748 L 994.4132 416.9099 L 992.5933 424.8752 L 990.3481 432.6042 L 988.7832 437.3217 L 985.9719 444.9084 L 983.3173 451.335 L 981.8773 454.6065 L 979.5231 459.6592 L 977.0508 464.5588 L 974.4364 469.2874 L 972.3345 472.6826 L 969.2325 476.9711 L 966.177 480.4601 L 962.2205 484.1536 L 957.6783 487.5397 L 952.5312 490.5474 L 947.9051 492.6471 L 941.6883 494.6964 L 935.8352 495.9133 L 928.2925 496.5455 L 922.293 496.3442 L 914.2731 495.1478 L 907.6694 493.3482 L 900.7751 490.6022 L 894.5845 487.2856 L 887.8881 482.6449 L 881.6946 477.1475 L 876.0374 470.8906 L 870.5095 463.5718 L 865.2576 455.7485 L 859.9499 447.6669 L 852.1317 436.0127 L 847.7517 429.6 L 842.9998 422.6622 L 837.5959 414.7938 L 833.2561 408.4865 L 827.6567 400.3691 L 823.11 393.7837 L 819.9064 389.1336 L 814.2519 380.8525 L 809.3478 373.5884 L 806.3379 369.0936 L 802.4905 363.3081 L 797.5406 355.852 L 793.7623 350.2616 L 789.0449 343.5882 L 784.7306 338.0229 L 779.135 331.7376 L 774.5914 327.327 L 768.6747 322.445 L 763.2051 318.738 L 756.1903 314.9529 L 750.527 312.5747 L 742.6578 310.1236 L 736.2905 308.743 L 727.6437 307.6299 L 721.0047 307.3306 L 714.4391 307.4255 L 707.9797 307.7202 L 700.1443 308.0495 L 692.441 308.057 L 684.9038 307.5491 L 677.5887 306.3836 L 670.1576 304.3424 L 664.7725 302.21 L 659.2587 299.3822 L 654.3967 296.2755 L 648.4279 291.5241 L 643.2421 286.3463 L 638.519 280.5024 L 635.0829 275.2875 L 631.1696 267.8784 L 629.1515 263.2297 L 626.2901 255.3832 L 623.7361 247.1013 L 621.1354 237.9256 L 618.57 229.0312 L 615.6391 219.5305 L 612.7996 210.7658 L 609.7169 201.6514 L 606.5082 192.7693 L 604.0504 186.6847 L 600.1949 178.395 L 596.8753 172.3814 L 592.1826 165.5387 L 587.1655 159.7998 L 580.8139 154.2217 L 573.9244 149.6466 L 566.6688 145.9179 L 559.5317 143.0604 L 551.6339 140.6808 L 545.4156 139.262 L 537.0977 137.8491 L 530.1078 137.0567 L 521.9649 136.5536 L 513.1699 136.4322 L 497.813 136.6563 L 490.3227 136.5045 L 483.4483 136.0887 L 475.7678 135.2257 L 469.2025 134.0883 L 461.4804 132.1852 L 454.4947 129.8712 L 447.4223 126.8514 L 441.1401 123.5173 L 436.3197 120.4814 L 430.7502 116.3572 L 426.2188 112.4068 L 421.1696 107.1885 L 417.3966 102.5637 L 413.5294 96.9472 L 410.7465 92.1539 L 407.7716 86.0125 L 405.7237 80.8539 L 403.5605 73.9188 L 402.2236 68.0739 L 401.158 60.853 L 400.7647 55.2618 L 400.7874 48.2979 L 401.2843 42.1491 L 402.332 35.5338 L 404.1118 28.0085 L 408.3093 14.8582 L 411.0393 7.316 L 413.3106 .9907 L 416.2724 -7.5606 L 418.4855 -14.2003 L 421.0831 -22.2928 L 424.918 -35.2449 L 426.7364 -43.1494 L 427.8732 -51.5014 L 427.4389 -64.9303 L 424.2204 -78.5052 L 419.015 -91.2233 L 412.2077 -102.6521 L 404.4353 -112.0849 L 398.8383 -117.4926 L 393.842 -121.6131 L 386.7433 -126.6275 L 380.9395 -130.215 L 372.9204 -134.6133 L 366.4756 -137.7515 L 358.2257 -141.3938 L 350.7448 -144.3915 L 341.9627 -147.707 L 335.2383 -150.1149 L 325.5863 -153.3133 L 316.4611 -156.0324 L 306.7761 -158.52 L 297.1003 -160.5388 L 287.9933 -161.9481 L 278.8871 -162.8575 L 262.4585 -163.1734 L 245.6351 -161.915 L 229.0287 -159.4711 L 212.0655 -156.1498 L 202.8976 -153.8486 L 193.3321 -150.9024 L 188.0937 -149.0212 L 179.8268 -145.6298 L 171.2047 -141.5194 L 162.7528 -136.9163 L 154.9342 -132.201 L 146.731 -126.8398 L 139.0422 -121.5173 L 131.3553 -115.9004 L 123.7676 -109.9602 L 116.2819 -103.6297 L 111.6805 -99.4786 L 104.4066 -92.4713 L 98.1973 -86.0194 L 90.8866 -77.7944 L 85.4846 -71.2231 L 79.1115 -62.8581 L 73.7701 -55.3997 L 67.8563 -46.904 L 62.0814 -38.4853 L 56.1084 -29.7123 L 51.6906 -23.3072" stroke-width="12" stroke="#e73323" fill="none" id="S1"/><path d="M 48.3882 -18.6545 L 43.3743 -11.888 L 38.6127 -5.7264 L 34.4073 -.4183 L 30.0365 5.0048 L 26.6624 9.1578 L 22.603 14.1222 L 19.5281 17.8716 L 15.5561 22.7084 L 12.7713 26.0775 L 8.8097 30.7402 L 5.6996 34.158 L 1.1301 38.5112 L -2.4264 41.2619 L -7.3944 44.2731 L -11.441 46.1472 L -16.7197 47.9515 L -21.2352 49.0169 L -27.0541 49.9282 L -32.0017 50.455 L -38.3689 50.9574 L -43.3366 51.3201 L -50.1984 51.8511 L -56.3983 52.3731 L -64.0279 53.1014 L -69.8163 53.7225 L -77.2896 54.6091 L -83.3608 55.3991 L -90.6399 56.4218 L -96.1351 57.2408 L -103.2219 58.3303 L -108.4528 59.1451 L -114.8617 60.1211 L -119.3047 60.7541 L -124.2499 61.4118 L -128.4261 61.9268 L -133.4452 62.4737 L -137.5404 62.8214 L -142.1755 63.0352 L -145.903 62.9993 L -150.6947 62.5755 L -155.0614 61.6747 L -159.4317 60.0828 L -162.7266 58.258 L -166.0443 55.6188 L -168.3878 53.0489 L -170.9429 49.256 L -172.7093 45.6121 L -174.4557 40.1404 L -175.4022 35.114 L -176.2108 28.8785 L -176.9777 23.482 L -178.2646 16.0203 L -179.475 10.0358 L -181.2063 2.324 L -183.6394 -7.736 L -184.9676 -12.9615 L -185.935 -16.6906 L -188.3585 -25.9907 L -191.7667 -39.1155 L -193.2934 -44.9925 L -195.3166 -52.7902 L -197.8416 -62.6608 L -200.5422 -73.3968 L -203.0871 -83.7167 L -205.7801 -94.8605 L -208.4519 -106.0724 L -211.0769 -117.1942 L -213.6352 -128.1207 L -215.9909 -138.2408 L -219.2842 -152.5001 L -221.6438 -162.8297 L -226.3017 -183.5214 L -228.416 -193.1214 L -229.9443 -200.2229 L -231.4228 -207.3008 L -232.5523 -213.0126 L -233.7417 -219.418 L -234.5888 -224.5522 L -235.467 -231.1772 L -235.9325 -236.1902 L -236.2322 -242.3385 L -236.245 -247.3185 L -235.9257 -253.8219 L -235.323 -259.1655 L -234.2345 -265.234 L -232.8411 -270.8719 L -230.9129 -277.2742 L -228.8447 -283.3844 L -226.2988 -290.387 L -223.8637 -296.7061 L -221.3294 -302.9446 L -219.2443 -307.9055 L -216.6733 -313.8871 L -214.5926 -318.6426 L -212.2073 -324.119 L -210.5715 -327.9137 L -208.6603 -332.4091 L -207.148 -336.0319 L -205.4793 -340.0999 L -203.7732 -344.3387 L -201.0949 -351.399 L -199.79 -355.2829 L -198.828 -358.5796 L -197.781 -363.9718 L -197.6903 -369.1501 L -198.807 -373.8706 L -199.8685 -376.1965 L -201.173 -378.2778 L -203.8843 -381.2962 L -207.1308 -383.6446 L -209.4137 -384.7674 L -211.6958 -385.557 L -214.8101 -386.1667 L -217.442 -386.3013 L -220.9376 -385.9804 L -223.9254 -385.2763 L -227.6789 -383.8155 L -231.6063 -381.4647 L -238.1768 -375.1531 L -243.6551 -367.3702 L -249.0804 -357.662 L -256.3403 -344.864 L -260.0098 -338.5293 L -264.166 -331.481 L -268.3246 -324.5609 L -271.0211 -320.1062 L -274.9046 -313.7155 L -279.4715 -306.1804 L -283.5663 -299.4025 L -288.333 -291.515 L -292.2449 -285.075 L -297.3473 -276.731 L -301.5082 -269.9892 L -306.5573 -261.9563 L -310.4307 -255.9437 L -315.2512 -248.7275 L -319.2341 -243.0213 L -324.5828 -235.7735 L -329.2084 -230.0458 L -334.8421 -223.8696 L -339.715 -219.134 L -346.0903 -213.6252 L -352.88 -208.472 L -360.5168 -203.354 L -367.1154 -199.429 L -374.4637 -195.5127 L -381.0508 -192.3802 L -389.4301 -188.8978 L -396.4435 -186.3939 L -405.8794 -183.5774 L -413.2735 -181.7786 L -422.5651 -179.9807 L -432.6393 -178.5547 L -442.2744 -177.6316 L -449.6068 -177.1337 L -460.0361 -176.6698 L -468.1094 -176.4655 L -478.8459 -176.3933 L -487.7647 -176.5611 L -498.0359 -177.0843 L -506.4351 -177.769 L -516.8279 -178.9117 L -525.9703 -180.1525 L -537.1342 -181.8994 L -554.3357 -185.0692 L -573.6456 -189.3468 L -584.293 -192.1233 L -595.5396 -195.4439 L -606.6556 -199.1345 L -616.9645 -202.9267 L -627.7452 -207.2917 L -638.9586 -212.2783 L -646.9202 -216.1144 L -657.121 -221.4667 L -664.7303 -225.8353 L -673.8607 -231.5307 L -681.6143 -236.8066 L -690.7064 -243.5979 L -697.4178 -249.0704 L -705.8663 -256.5808 L -712.0833 -262.5714 L -719.9226 -270.6642 L -723.9468 -275.0642 L -731.7371 -284.1064 L -736.7295 -290.3213 L -743.5052 -299.3928 L -748.4502 -306.5587 L -754.9912 -316.8614 L -759.5181 -324.5984 L -764.8974 -334.4714 L -769.8137 -344.0515 L -774.957 -354.6261 L -779.3936 -364.1529 L -784.7874 -376.0094 L -788.9052 -385.2608 L -793.9365 -396.8101 L -798.2601 -406.8826 L -803.1525 -418.2088 L -807.4597 -427.8595 L -812.4831 -438.6191 L -816.7938 -447.4464 L -820.9244 -455.5499 L -824.345 -461.8211 L -829.184 -469.5842 L -833.6473 -475.5025 L -839.4379 -481.4933 L -845.0869 -485.8773 L -852.5237 -489.9848 L -858.507 -492.196 L -866.5389 -494.1193 L -872.7825 -495.1666 L -880.5566 -496.0833 L -887.4261 -496.5465 L -894.8383 -496.6976 L -901.2939 -496.5367 L -909.7441 -495.9128 L -916.696 -495.0497 L -925.0825 -493.602 L -931.4271 -492.2143 L -939.6194 -490.042 L -945.3284 -488.2881 L -952.8351 -485.6796 L -959.2953 -483.1365 L -966.4707 -479.8057 L -973.6138 -475.4835 L -979.6136 -470.5182 L -983.8029 -465.8643 L -988.4371 -458.6462 L -991.492 -451.6842 L -993.9669 -443.9312 L -995.7715 -435.3911 L -996.4681 -429.0501 L -996.5093 -420.1455 L -995.8116 -413.6857 L -994.0203 -405.8427 L -991.6067 -399.1711 L -987.7294 -391.3909 L -984.1885 -385.6736 L -978.9782 -378.4576 L -973.2299 -371.4855 L -967.446 -365.0544 L -963.6766 -361.08 L -956.9984 -354.4036 L -949.9285 -347.7962 L -942.891 -341.6152 L -936.4196 -336.204 L -928.1125 -329.6054 L -919.2922 -322.9454 L -910.5663 -316.6038 L -900.8856 -309.7657 L -890.8187 -302.7975 L -876.6288 -293.2093 L -865.7474 -286.0381 L -854.5532 -278.812 L -845.7833 -273.2423 L -834.0571 -265.9298 L -822.7655 -259.0396 L -810.4923 -251.7547 L -798.6842 -244.973 L -788.1519 -239.1199 L -772.8032 -230.9174 L -751.514 -220.2659 L -740.2579 -214.9036 L -726.4527 -208.4423 L -714.9759 -203.1711 L -700.8658 -196.9144 L -690.7739 -192.6402 L -676.3055 -186.7953 L -664.2824 -182.0781 L -650.4428 -176.7546 L -639.1135 -172.4759 L -623.3267 -166.666 L -611.8193 -162.6049 L -597.5414 -157.7882 L -584.9445 -153.7296 L -568.6357 -148.6396 L -553.1548 -143.8587 L -538.5356 -139.3227 L -525.7182 -135.2758 L -511.9733 -130.8455 L -499.1274 -126.6314 L -483.4675 -121.515 L -467.7318 -116.4467 L -451.9267 -111.4073 L -436.089 -106.3533 L -421.1438 -101.5753 L -405.2173 -96.4969 L -390.188 -91.7702 L -375.1098 -87.0909" stroke-width="12" stroke="#4fafdf" fill="none" id="S2"/><path d="M -366.6113 -84.4589 L -354.3388 -80.6299 L -338.2831 -75.5838 L -326.0019 -71.7 L -309.9367 -66.6168 L -296.7204 -62.45 L -281.6214 -57.6947 L -268.5298 -53.5711 L -253.9981 -48.988 L -245.3433 -46.2563 L -232.4572 -42.1902 L -222.8884 -39.1689 L -212.2219 -35.8022 L -202.2178 -32.6452 L -195.5084 -30.5248 L -186.8589 -27.7883 L -178.3837 -25.1153 L -172.3405 -23.2579 L -164.4949 -21.0564 L -158.5056 -19.7068 L -151.1405 -18.5748 L -144.7377 -18.0826 L -137.0608 -18.1347 L -130.798 -18.6776 L -123.6294 -19.7614 L -117.762 -20.9737 L -110.4667 -22.8558 L -104.4761 -24.6531 L -96.5368 -27.3207 L -91.3186 -29.1797 L -83.6097 -32.0556 L -77.264 -34.6196 L -68.3698 -38.5211 L -62.3718 -41.3271 L -53.7868 -45.5786 L -47.1652 -49.0612 L -38.4647 -53.9239 L -31.7975 -57.8869 L -23.1057 -63.425 L -16.5055 -67.9317 L -7.4451 -74.5915 L -.9631 -79.7075 L 7.4158 -86.7043 L 13.7764 -92.2629 L 21.5837 -99.3081 L 27.935 -105.1716 L 35.2752 -112.0855 L 43.6118 -120.122 L 51.9877 -128.3738 L 58.4739 -134.7858 L 67.0839 -143.2755 L 75.8684 -151.8954 L 91.793 -167.423 L 100.4921 -175.8515 L 110.35 -185.351 L 118.4573 -193.1253 L 127.2573 -201.5191 L 133.5574 -207.4885 L 141.03 -214.5227 L 147.4816 -220.5271 L 152.8035 -225.3712 L 156.4674 -228.6384 L 160.5218 -232.1745 L 164.0569 -235.1764 L 168.0818 -238.5013 L 172.0992 -241.701 L 176.1279 -244.7519 L 179.4274 -247.1109 L 183.8116 -249.9807 L 187.238 -251.9327 L 191.9042 -253.8956 L 195.5968 -254.6784 L 200.2852 -254.4937 L 203.492 -253.4613 L 206.9521 -251.1932 L 209.0205 -249.004 L 211.3954 -246.07 L 213.7466 -243.3682 L 215.9779 -241.0596 L 217.8027 -239.34 L 220.1181 -237.385 L 222.0999 -235.8876 L 224.8755 -234.0503 L 227.3371 -232.6638 L 230.3171 -231.303 L 232.6534 -230.4816 L 236.099 -229.6495 L 238.8277 -229.3103 L 242.267 -229.3023 L 246.0017 -229.8226 L 249.5575 -230.8652 L 252.6962 -232.2716 L 256.2766 -234.4734 L 258.968 -236.5121 L 262.8686 -239.8866 L 266.0007 -242.7949 L 270.1656 -246.6908 L 275.1273 -251.0569 L 280.367 -255.3009 L 286.5047 -259.9 L 291.9842 -263.6233 L 299.0468 -267.8508 L 304.7483 -270.7977 L 312.5229 -274.1681 L 319.1562 -276.4944 L 327.4613 -278.7643 L 333.9576 -280.1301 L 342.6095 -281.431 L 349.3304 -282.0308 L 358.2314 -282.2596 L 365.109 -281.9978 L 373.6292 -281.1464 L 380.58 -280.0138 L 389.7061 -277.9104 L 398.3519 -275.2622 L 407.0473 -272.0208 L 416.3551 -267.9729 L 425.759 -263.2856 L 433.6027 -258.9687 L 442.6568 -253.6198 L 450.6766 -248.6638 L 460.5274 -242.2916 L 468.0605 -237.0707 L 477.8558 -229.7565 L 485.2757 -223.8004 L 494.3063 -216.023 L 499.8734 -210.9276 L 509.1964 -201.8385 L 517.7943 -192.8465 L 526.2638 -183.4408 L 533.1029 -175.5583" stroke-width="12" stroke="#f7d347" fill="none" id="S3"/></svg>