<svg class="track" xmlns="http://www.w3.org/2000/svg" preserveAspectRatio="xMinYMid meet" height="330" width="600" viewBox="-1050 -550 1 1150">
  <path d="m540.937-168.231 8.585 10.517 11.414 14.178 8.999 11.073 12.298 14.623 6.76 7.788 13.824 15.802 10.988 12.51 13.58 15.394 13.866 15.653 13.3 14.969 14.361 16.144 14.544 16.396 14.698 16.638 13.96 15.86 14.066 16.042 25.8 29.298 26.958 30.674 27.234 31.044 27.273 30.828 22.795 25.771 13.181 14.917 13.005 14.733 20.533 23.36 18.269 20.995 8.617 9.969 7.706 8.974 7.35 8.659 6.79 8.095 5.836 7.04 5.511 6.726 5.072 6.272 4.92 6.267 3.76 5.174 4.462 6.956 3.728 6.707 3.425 7.28 2.226 5.666 2.024 6.214 1.531 5.9 1.447 7.92.623 5.735.315 8.382-.248 7.109-.826 8.254-1.084 6.635-1.82 7.965-2.245 7.73-1.565 4.717-2.811 7.586-2.655 6.427-1.44 3.272-2.354 5.052-2.472 4.9-2.615 4.728-2.101 3.396-3.103 4.288-3.055 3.49-3.957 3.693-4.542 3.386-5.147 3.007-4.626 2.1-6.217 2.05-5.853 1.216-7.543.632-5.999-.2-8.02-1.197-6.604-1.8-6.894-2.746-6.19-3.316-6.697-4.641-6.193-5.498-5.658-6.256-5.528-7.32-5.251-7.823-5.308-8.081-7.818-11.654-4.38-6.413-4.752-6.938-5.404-7.868-4.34-6.308-5.6-8.117-4.546-6.585-3.204-4.65-5.654-8.281-4.904-7.265-3.01-4.494-3.847-5.786-4.95-7.456-3.779-5.59-4.717-6.674-4.314-5.565-5.596-6.285-4.544-4.411-5.916-4.882-5.47-3.707-7.015-3.785-5.663-2.378-7.87-2.451-6.367-1.381-8.646-1.113-6.64-.3-6.565.096-6.46.294-7.835.33-7.703.007-7.537-.508-7.315-1.165-7.431-2.042-5.385-2.132-5.514-2.828-4.862-3.106-5.97-4.752-5.185-5.178-4.723-5.844-3.436-5.214-3.913-7.41-2.018-4.648-2.862-7.847-2.554-8.282-2.6-9.175-2.566-8.895-2.93-9.5-2.84-8.765-3.083-9.115-3.209-8.882-2.458-6.084-3.855-8.29-3.32-6.014-4.692-6.842-5.018-5.74-6.351-5.577-6.89-4.575-7.255-3.73-7.137-2.857-7.898-2.38-6.218-1.418-8.318-1.413-6.99-.792-8.143-.503-8.795-.122-15.357.224-7.49-.151-6.875-.416-7.68-.863-6.565-1.138-7.723-1.903-6.985-2.314-7.073-3.02-6.282-3.334-4.82-3.036-5.57-4.124-4.531-3.95-5.05-5.218-3.772-4.625-3.868-5.617-2.782-4.793-2.975-6.141-2.048-5.16-2.163-6.934-1.337-5.845-1.066-7.221-.393-5.591.022-6.964.497-6.149 1.048-6.615 1.78-7.525 4.197-13.15 2.73-7.543 2.272-6.325 2.961-8.552 2.214-6.64 2.597-8.092 3.835-12.952 1.818-7.904 1.137-8.352-.434-13.43-3.219-13.574-5.205-12.718-6.807-11.43-7.773-9.432-5.597-5.408-4.996-4.12-7.099-5.014-5.803-3.588-8.02-4.398-6.444-3.138-8.25-3.643-7.481-2.998-8.782-3.315-6.725-2.408-9.652-3.198-9.125-2.72-9.685-2.487-9.676-2.019-9.107-1.41-9.106-.908-16.428-.316-16.824 1.258-16.606 2.444-16.964 3.321-9.167 2.301-9.566 2.947-5.238 1.88-8.267 3.392-8.622 4.11-8.452 4.604-7.819 4.715-8.203 5.361-7.689 5.323-7.687 5.617-7.587 5.94-7.486 6.33-4.602 4.151-7.273 7.008-6.21 6.452-7.31 8.225-5.402 6.57-6.373 8.366L73.77-55.4l-5.914 8.496-5.775 8.419-5.973 8.773-4.417 6.405-5.23 7.296-5.132 6.793-4.477 5.729-4.15 5.193L29.31 5.9l-4.324 5.31-3.096 3.78-4.003 4.88-3.028 3.684-3.711 4.46-3.048 3.53-4.135 4.37L.33 39.179l-4.76 3.403-3.88 2.157-5.4 2.267-4.378 1.31-5.657 1.147-4.432.601-6.176.59-11.526.859-13.66 1.149-13.366 1.416-13.464 1.736-12.702 1.876-12.093 1.876-10.05 1.449-9.286 1.151-8.784.765-8.605-.045-4.737-.64-4.273-1.145-3.506-1.492-3.836-2.435-2.371-2.113-2.777-3.343-1.991-3.255-2.134-5.011-1.252-4.7-.948-5.915-.658-5.177-1.095-7.197-1.06-5.803-1.674-7.94-1.465-6.349-4.69-18.678-2.44-9.364-1.027-3.953-2.398-9.243-4.197-16.21-2.533-9.97-2.706-10.839-2.54-10.4-2.686-11.187-2.658-11.198-2.596-11.042-2.387-10.22-2.337-10.059-2.985-12.954-2.207-9.683-2.55-11.297-2.594-11.63-2.01-9.221-1.325-6.218-1.466-7.175-1.014-5.254-1.202-6.765-.771-5.103-.72-6.2-.396-5.389-.164-6.138.102-4.976.498-6.502.7-4.949 1.247-6.047 1.632-6.007 2.052-6.435 2.155-6.156 2.476-6.66 2.64-6.703 2.075-5.026 2.568-6.058 1.929-4.453 2.531-5.785 1.856-4.273 2.03-4.733 1.55-3.667 1.709-4.117 1.747-4.29 1.674-4.202 1.21-3.168 1.367-3.839 1.157-3.62.813-3.02.497-2.421.38-2.941.08-2.335-.233-2.77-.47-2.138-.944-2.605-1.175-2.221-1.39-1.966-1.155-1.302-1.68-1.533-1.244-.922-2.205-1.3-1.795-.794-2.872-.868-2.647-.405-3.542-.003-2.904.423-3.483.997-3.985 1.859-3.857 2.693-2.781 2.592-3.594 4.243-2.461 3.461-2.905 4.72-2.33 4.186-3.182 5.844-2.862 5.06-3.727 6.451-3.948 6.8-3.97 6.698-1.812 3.018-2.384 3.952-3.82 6.298-3.656 6.018-4.905 8.105-3.838 6.357-5.092 8.41-3.912 6.42-5.078 8.275-4.158 6.69-5.054 7.956-3.89 5.943-4.857 7.123-4.025 5.632-5.451 7.13-4.412 5.194-6.159 6.394-5.017 4.608-6.56 5.35-6.517 4.708-8.253 5.262-6.241 3.535-7.962 4.03-6.697 2.99-7.965 3.1-7.647 2.535-9.553 2.6-7.47 1.633-9.375 1.604-9.546 1.164-9.684.805-7.95.45-10.503.37-7.513.13-11.41-.03-8.311-.27-10.946-.711-8.421-.805-10.42-1.277-9.163-1.335-10.531-1.732-5.95-1.076-11.281-2.24-8.657-1.895-10.666-2.561-11.295-3.1-11.2-3.474-10.4-3.6-10.886-4.163-10.707-4.504-18.423-8.77-18.204-10.328-16.644-11.268-15.54-12.562-14.409-13.752-11.667-12.674-7.236-8.654-5.309-6.822-6.628-9.207-4.845-7.288-6.065-9.89-4.457-7.858-5.316-10.003-4.88-9.708-5.426-11.395-4.433-9.633-5.077-11.263-4.425-10.036-4.991-11.563-3.99-9.294-5.208-11.926-3.98-8.745-5.123-10.777-3.947-7.95-7.92-14.53-9.816-13.158-11.993-9.493-13.707-5.358-6.666-1.38-7.23-1.087-14.7-1.091-14.385.313-15.389 1.832-14.173 3.012-14.295 4.308-13.391 5.23-7.47 3.817-6.85 4.718-9.433 10.266-4.105 7.502-2.717 7.116-2.183 7.888-1.383 8.169-.453 6.878.398 8.936 1.06 6.433 2.246 7.753 2.784 6.556 3.975 7.195 4.034 6.058 5.45 7.112 5.928 6.897 5.54 5.996 4.23 4.346 6.827 6.641 7.243 6.585 7.205 6.184 6.624 5.41 8.53 6.627 9.012 6.69 8.898 6.378 9.843 6.893 10.216 7.014 12.473 8.37 10.305 6.762 11.248 7.236 11.553 7.294 11.138 6.888 12.107 7.316 11.654 6.829 12.65 7.165 33.97 17.886 13.573 6.572 11.308 5.342 13.863 6.438 11.54 5.232 13.356 5.806 10.992 4.556 14.533 5.774 11.203 4.358 14.752 5.627 11.36 4.25 15.85 5.733 10.664 3.688 15.222 5.032 12.644 4.004 16.342 5.066 14.593 4.508 27.454 8.648 14.67 4.772 12.862 4.225 15.696 5.099 15.764 5.05 14.886 4.743 15.859 5.066 15.892 5.08 15.007 4.764 15.048 4.707 15.095 4.674 12.273 3.82 16.054 5.04 12.287 3.881 16.053 5.083 12.28 3.873 16.042 5.053 12.214 3.847 15.578 4.91 8.766 2.767 12.371 3.904 10.495 3.313 10.904 3.443 10.246 3.233 6.909 2.182 4.864 1.54 8.09 2.558 4.231 1.335 6.057 1.877 7.391 2.14 5.993 1.455 7.829 1.343 5.954.564 8.157.101 6.267-.452 6.712-.92 6.306-1.22 7.281-1.807 5.976-1.744 7.916-2.611 4.724-1.665 8.16-3.003 6.33-2.51 8.374-3.614 6.482-2.988 8.57-4.195 6.61-3.435 8.695-4.801 6.668-3.912 8.188-5.133 7.124-4.786 8.57-6.196 7-5.439 7.902-6.522 6.862-5.937 7.81-7.008 5.86-5.383 7.825-7.334 8.331-7.996 8.367-8.22 6.465-6.393 8.582-8.468 8.236-8.09 9.447-9.238 6.947-6.762 8.665-8.403 9.315-8.985 8.695-8.349 8.382-8.004 14.122-13.358 7.057-6.587 5.538-5.064 3.49-3.125 4.319-3.789 3.284-2.806 4.28-3.56 4.016-3.224 4.025-3.08 3.293-2.386 4.37-2.918 3.14-1.868 4.615-2.153 3.956-1.05 4.746-.06 3.301.866 3.618 2.106 2.168 2.127 2.407 2.952 2.347 2.749 2.228 2.35 1.822 1.751 2.148 1.864 2.105 1.634 2.736 1.863 2.25 1.32 3.129 1.508 2.313.867 3.214.86 2.917.446 3.424.094 3.723-.42 3.55-.937 3.134-1.303 3.584-2.084 2.685-1.96 3.643-3.072 3.328-3.056 4.088-3.839 4.553-4.076 5.439-4.48 6.037-4.592 12.392-8.048 13.355-6.48 14.36-4.665 15.584-2.962 15.583-1.022 15.375.914 15.523 2.88 8.632 2.488 9.227 3.311 9.296 3.94 9.377 4.57 7.27 3.922 9.596 5.589 8.002 4.907 9.833 6.292 7.539 5.148 9.807 7.216 7.438 5.884 9.05 7.684 5.59 5.043 9.355 8.998 8.105 8.354 9.015 9.894 6.315 7.23z" stroke-width="28" stroke="#000" fill="none"/>
  <path d="m540.937-168.231 8.585 10.517 11.414 14.178 8.999 11.073 12.298 14.623 6.76 7.788 13.824 15.802 10.988 12.51 13.58 15.394 13.866 15.653 13.3 14.969 14.361 16.144 14.544 16.396 14.698 16.638 13.96 15.86 14.066 16.042 25.8 29.298 26.958 30.674 27.234 31.044 27.273 30.828 22.795 25.771 13.181 14.917 13.005 14.733 20.533 23.36 18.269 20.995 8.617 9.969 7.706 8.974 7.35 8.659 6.79 8.095 5.836 7.04 5.511 6.726 5.072 6.272 4.92 6.267 3.76 5.174 4.462 6.956 3.728 6.707 3.425 7.28 2.226 5.666 2.024 6.214 1.531 5.9 1.447 7.92.623 5.735.315 8.382-.248 7.109-.826 8.254-1.084 6.635-1.82 7.965-2.245 7.73-1.565 4.717-2.811 7.586-2.655 6.427-1.44 3.272-2.354 5.052-2.472 4.9-2.615 4.728-2.101 3.396-3.103 4.288-3.055 3.49-3.957 3.693-4.542 3.386-5.147 3.007-4.626 2.1-6.217 2.05-5.853 1.216-7.543.632-5.999-.2-8.02-1.197-6.604-1.8-6.894-2.746-6.19-3.316-6.697-4.641-6.193-5.498-5.658-6.256-5.528-7.32-5.251-7.823-5.308-8.081-7.818-11.654-4.38-6.413-4.752-6.938-5.404-7.868-4.34-6.308-5.6-8.117-4.546-6.585-3.204-4.65-5.654-8.281-4.904-7.265-3.01-4.494-3.847-5.786-4.95-7.456-3.779-5.59-4.717-6.674-4.314-5.565-5.596-6.285-4.544-4.411-5.916-4.882-5.47-3.707-7.015-3.785-5.663-2.378-7.87-2.451-6.367-1.381-8.646-1.113-6.64-.3-6.565.096-6.46.294-7.835.33-7.703.007-7.537-.508-7.315-1.165-7.431-2.042-5.385-2.132-5.514-2.828-4.862-3.106-5.97-4.752-5.185-5.178-4.723-5.844-3.436-5.214-3.913-7.41-2.018-4.648-2.862-7.847-2.554-8.282-2.6-9.175-2.566-8.895-2.93-9.5-2.84-8.765-3.083-9.115-3.209-8.882-2.458-6.084-3.855-8.29-3.32-6.014-4.692-6.842-5.018-5.74-6.351-5.577-6.89-4.575-7.255-3.73-7.137-2.857-7.898-2.38-6.218-1.418-8.318-1.413-6.99-.792-8.143-.503-8.795-.122-15.357.224-7.49-.151-6.875-.416-7.68-.863-6.565-1.138-7.723-1.903-6.985-2.314-7.073-3.02-6.282-3.334-4.82-3.036-5.57-4.124-4.531-3.95-5.05-5.218-3.772-4.625-3.868-5.617-2.782-4.793-2.975-6.141-2.048-5.16-2.163-6.934-1.337-5.845-1.066-7.221-.393-5.591.022-6.964.497-6.149 1.048-6.615 1.78-7.525 4.197-13.15 2.73-7.543 2.272-6.325 2.961-8.552 2.214-6.64 2.597-8.092 3.835-12.952 1.818-7.904 1.137-8.352-.434-13.43-3.219-13.574-5.205-12.718-6.807-11.43-7.773-9.432-5.597-5.408-4.996-4.12-7.099-5.014-5.803-3.588-8.02-4.398-6.444-3.138-8.25-3.643-7.481-2.998-8.782-3.315-6.725-2.408-9.652-3.198-9.125-2.72-9.685-2.487-9.676-2.019-9.107-1.41-9.106-.908-16.428-.316-16.824 1.258-16.606 2.444-16.964 3.321-9.167 2.301-9.566 2.947-5.238 1.88-8.267 3.392-8.622 4.11-8.452 4.604-7.819 4.715-8.203 5.361-7.689 5.323-7.687 5.617-7.587 5.94-7.486 6.33-4.602 4.151-7.273 7.008-6.21 6.452-7.31 8.225-5.402 6.57-6.373 8.366L73.77-55.4l-5.914 8.496-5.775 8.419-5.973 8.773-4.417 6.405" stroke-width="12" stroke="#e73323" fill="none"/>
  <path d="m48.388-18.654-5.014 6.766-4.761 6.162-4.206 5.308-4.37 5.423-3.375 4.153-4.059 4.964-3.075 3.75-3.972 4.836-2.785 3.37L8.81 30.74 5.7 34.158l-4.57 4.353-3.556 2.75-4.968 3.012-4.047 1.874-5.279 1.805-4.515 1.065-5.82.911-4.947.527-6.367.502-4.968.363-6.861.531-6.2.522-7.63.728-5.788.621-7.474.887-6.07.79-7.28 1.023-5.495.819-7.087 1.09-5.23.814-6.41.976-4.443.633-4.945.658-4.176.515-5.02.547-4.094.347-4.636.214-3.727-.036-4.792-.424-4.366-.9-4.37-1.592-3.296-1.825-3.317-2.64-2.344-2.57-2.555-3.792-1.766-3.644-1.747-5.472-.946-5.026-.809-6.235-.767-5.397-1.287-7.462-1.21-5.984-1.731-7.712-2.433-10.06-1.329-5.225-.967-3.73-2.423-9.3-3.409-13.124-1.526-5.877-2.024-7.798-2.525-9.87-2.7-10.737-2.545-10.32-2.693-11.144-2.672-11.211-2.625-11.122-2.558-10.927-2.356-10.12-3.293-14.26-2.36-10.329-4.658-20.691-2.114-9.6-1.528-7.102-1.479-7.078-1.13-5.712-1.189-6.405-.847-5.134-.878-6.625-.465-5.013-.3-6.149-.013-4.98.32-6.503.602-5.344 1.089-6.068 1.393-5.638 1.928-6.402 2.068-6.11 2.546-7.003 2.435-6.32 2.535-6.238 2.085-4.96 2.57-5.982 2.081-4.756 2.386-5.476 1.636-3.795 1.91-4.495 1.513-3.623 1.669-4.068 1.706-4.239 2.678-7.06 1.305-3.884.962-3.297 1.047-5.392.09-5.178-1.116-4.72-1.062-2.327-1.304-2.08-2.711-3.02-3.247-2.348-2.283-1.122-2.282-.79-3.114-.61-2.632-.134-3.496.32-2.987.705-3.754 1.46-3.927 2.351-6.57 6.312-5.48 7.783-5.424 9.708-7.26 12.798-3.67 6.335-4.156 7.048-4.159 6.92-2.696 4.455-3.884 6.39-4.567 7.536-4.094 6.778-4.767 7.887-3.912 6.44-5.102 8.344-4.161 6.742-5.05 8.033-3.873 6.012-4.82 7.216-3.983 5.707-5.349 7.247-4.625 5.728-5.634 6.176-4.873 4.736-6.375 5.509-6.79 5.153-7.637 5.118-6.598 3.925-7.349 3.916-6.587 3.133-8.38 3.482-7.012 2.504-9.436 2.817-7.394 1.798-9.292 1.798-10.074 1.426-9.635.923-7.333.498-10.43.464-8.072.204-10.737.073-8.919-.168-10.27-.523-8.4-.685-10.393-1.143-9.142-1.24-11.164-1.747-17.202-3.17-19.31-4.278-10.647-2.776-11.247-3.32-11.116-3.691-10.309-3.793-10.78-4.365-11.214-4.986-7.961-3.836-10.201-5.353-7.61-4.368-9.13-5.696-7.753-5.276-9.092-6.79-6.712-5.473-8.448-7.51-6.217-5.991-7.84-8.093-4.024-4.4-7.79-9.042-4.993-6.215-6.775-9.072-4.945-7.166-6.541-10.302-4.527-7.737-5.38-9.873-4.916-9.58-5.143-10.575-4.437-9.527-5.393-11.856-4.118-9.252-5.032-11.55-4.323-10.072-4.893-11.326-4.307-9.65-5.023-10.76-4.31-8.827-4.131-8.104-3.421-6.271-4.839-7.763-4.463-5.918-5.79-5.991-5.65-4.384-7.437-4.108-5.983-2.211-8.032-1.923-6.244-1.048-7.774-.916-6.87-.463-7.411-.152-6.456.161-8.45.624-6.952.863-8.386 1.448-6.345 1.388-8.192 2.172-5.71 1.754-7.506 2.608-6.46 2.543-7.176 3.331-7.143 4.322-6 4.966-4.189 4.654-4.634 7.218-3.055 6.962-2.475 7.753-1.804 8.54-.697 6.34-.041 8.905.697 6.46 1.792 7.843 2.413 6.672 3.878 7.78 3.54 5.717 5.21 7.216 5.75 6.973 5.783 6.43 3.77 3.975 6.678 6.676 7.07 6.608 7.037 6.18 6.471 5.412 8.308 6.599 8.82 6.66 8.726 6.341 9.68 6.838 10.067 6.969 14.19 9.588 10.882 7.17 11.194 7.227 8.77 5.57 11.726 7.312 11.292 6.89 12.273 7.285 11.808 6.782 10.532 5.853 15.349 8.203 21.289 10.651 11.256 5.362 13.805 6.462 11.477 5.27 14.11 6.258 10.092 4.274 14.468 5.845 12.024 4.717 13.84 5.323 11.328 4.28 15.787 5.809 11.508 4.061 14.278 4.817 12.597 4.058 16.308 5.09 15.481 4.781 14.62 4.536 12.817 4.047 13.745 4.43 12.846 4.215 15.66 5.116 15.735 5.068 15.805 5.04 15.838 5.054 14.945 4.778 15.927 5.078 15.029 4.727 15.078 4.68" stroke-width="12" stroke="#4fafdf" fill="none"/>
  <path d="m-366.611-84.459 12.272 3.83 16.056 5.045 12.281 3.884 16.065 5.083 13.217 4.167 15.099 4.755 13.091 4.124 14.532 4.583 8.655 2.732 12.886 4.066 9.569 3.021 10.666 3.367 10.004 3.157 6.71 2.12 8.65 2.737 8.474 2.673 6.043 1.857 7.846 2.202 5.99 1.35 7.364 1.131 6.403.492 7.677-.052 6.263-.543 7.169-1.083 5.867-1.213 7.295-1.882 5.99-1.797 7.94-2.668 5.218-1.859 7.71-2.876 6.345-2.564 8.894-3.901 5.998-2.806 8.585-4.252 6.622-3.482 8.7-4.863 6.668-3.963 8.691-5.538 6.6-4.507 9.06-6.66 6.483-5.115 8.379-6.997 6.36-5.559 7.808-7.045 6.351-5.864 7.34-6.913 8.337-8.037 8.376-8.252 6.486-6.412 8.61-8.49 8.784-8.62 15.925-15.527 8.7-8.428 9.857-9.5 8.107-7.774 8.8-8.394 6.3-5.97 7.473-7.034 6.452-6.004 5.322-4.844 3.663-3.267 4.055-3.536 3.535-3.002 4.025-3.325 4.017-3.2 4.029-3.05 3.3-2.36 4.384-2.87 3.426-1.952 4.666-1.963 3.693-.782 4.688.184 3.207 1.033 3.46 2.268 2.069 2.189 2.374 2.934 2.352 2.702 2.23 2.308 1.826 1.72 2.315 1.955 1.982 1.497 2.775 1.838 2.462 1.386 2.98 1.361 2.336.821 3.446.833 2.729.339 3.439.008 3.735-.52 3.555-1.043 3.14-1.407 3.58-2.201 2.691-2.04 3.9-3.374 3.133-2.908 4.165-3.896 4.961-4.366 5.24-4.244 6.138-4.599 5.48-3.723 7.062-4.228 5.701-2.947 7.775-3.37 6.633-2.326 8.305-2.27 6.497-1.366 8.651-1.301 6.721-.6 8.901-.229 6.878.262 8.52.852 6.951 1.132 9.126 2.104 8.646 2.648 8.695 3.241 9.308 4.048 9.404 4.687 7.844 4.317 9.054 5.35 8.02 4.955 9.85 6.372 7.534 5.221 9.795 7.315 7.42 5.956 9.03 7.777 5.567 5.095 9.323 9.09 8.598 8.992 8.47 9.405 6.839 7.883" stroke-width="12" stroke="#f7d347" fill="none"/>
</svg>
