<?xml version="1.0" standalone="no"?>
<svg xmlns:xlink="http://www.w3.org/1999/xlink" id="s2" class="track" xmlns="http://www.w3.org/2000/svg" width="800" height="400" viewBox="-1000 -1000 2000 2000">
        <path d="M 263.3786 -239.1146 L 264.2898 -239.7649 L 265.5099 -240.6597 L 266.4284 -241.3506 L 267.661 -242.2999 L 268.5899 -243.0311 L 269.5249 -243.7793 L 270.4643 -244.5423 L 271.7271 -245.5857 L 272.6837 -246.3876 L 273.9687 -247.4782 L 274.9432 -248.3147 L 275.9271 -249.1649 L 276.92 -250.0272 L 277.9235 -250.9005 L 279.2795 -252.0784 L 280.3146 -252.9714 L 281.3666 -253.8696 L 282.7949 -255.0705 L 283.8881 -255.9739 L 285.0021 -256.8803 L 286.5113 -258.0864 L 287.6677 -258.9921 L 289.2403 -260.1996 L 290.4409 -261.0999 L 291.6604 -261.9956 L 293.3082 -263.1737 L 294.5574 -264.0403 L 295.8202 -264.8951 L 297.0919 -265.7325 L 298.3774 -266.5531 L 300.1115 -267.6237 L 301.4272 -268.407 L 303.1992 -269.4248 L 304.5451 -270.1712 L 306.3568 -271.1389 L 307.7313 -271.8451 L 309.5795 -272.7589 L 310.9828 -273.4251 L 312.3979 -274.0714 L 313.8269 -274.6987 L 315.2929 -275.3165 L 317.2162 -276.0843 L 318.6937 -276.6465 L 320.6801 -277.3585 L 322.1855 -277.8702 L 323.7072 -278.3605 L 325.7535 -278.9801 L 327.3028 -279.4205 L 328.8687 -279.8387 L 330.9728 -280.3633 L 332.569 -280.7301 L 334.7171 -281.1863 L 336.3465 -281.5012 L 338.5302 -281.8855 L 340.1875 -282.1461 L 341.856 -282.3835 L 344.0975 -282.6617 L 345.7949 -282.8425 L 348.0693 -283.0433 L 349.79 -283.1657 L 352.0974 -283.2864 L 353.84 -283.3469 L 355.5918 -283.3796 L 357.9348 -283.382 L 359.7038 -283.3515 L 361.4796 -283.2934 L 363.8582 -283.1723 L 365.6473 -283.0488 L 367.4432 -282.8962 L 369.2471 -282.7144 L 371.0496 -282.504 L 372.8567 -282.2633 L 375.2726 -281.8971 L 377.0896 -281.5873 L 378.9095 -281.2478 L 381.3327 -280.7486 L 383.1647 -280.337 L 384.9991 -279.8936 L 387.4532 -279.2522 L 389.2942 -278.7355 L 391.1378 -278.1887 L 392.9875 -277.6113 L 395.4582 -276.7972 L 397.3193 -276.1526 L 399.8039 -275.2522 L 401.6761 -274.5464 L 403.5579 -273.8134 L 406.0706 -272.799 L 407.9674 -272.0056 L 409.8708 -271.1856 L 411.7768 -270.3402 L 414.3287 -269.1692 L 416.2498 -268.2577 L 418.1735 -267.3191 L 420.1043 -266.3526 L 422.6854 -265.0236 L 424.6324 -263.9946 L 427.2299 -262.5877 L 429.1928 -261.4993 L 431.1502 -260.3926 L 433.1208 -259.2568 L 435.751 -257.7079 L 437.7335 -256.5164 L 440.381 -254.8949 L 442.371 -253.655 L 444.4048 -252.37 L 447.0429 -250.6789 L 449.062 -249.3688 L 451.7586 -247.6017 L 453.7957 -246.2565 L 456.5225 -244.4438 L 458.5773 -243.0685 L 460.6453 -241.6745 L 463.4019 -239.7967 L 465.4778 -238.3646 L 468.2536 -236.4215 L 470.3372 -234.9399 L 472.4204 -233.4383 L 474.5093 -231.9116 L 477.2827 -229.8494 L 479.3699 -228.2703 L 482.1404 -226.1369 L 484.2273 -224.4996 L 486.9793 -222.2982 L 489.0484 -220.6111 L 491.1102 -218.9038 L 493.1715 -217.1725 L 495.2283 -215.4194 L 497.9623 -213.0449 L 500.0072 -211.2351 L 502.7693 -208.7427 L 504.773 -206.9002 L 507.4846 -204.3625 L 509.5237 -202.4194 L 512.2247 -199.7979 L 514.255 -197.7893 L 516.2904 -195.7421 L 518.98 -192.9849 L 520.9932 -190.8819 L 523.681 -188.0211 L 525.6868 -185.846 L 527.6929 -183.6369 L 530.3576 -180.6494 L 532.3474 -178.3763 L 534.3333 -176.0727 L 536.9739 -172.9652 L 538.9583 -170.6048 L 540.9368 -168.2312 L 542.9172 -165.8359 L 545.5627 -162.6044 L 547.538 -160.1709 L 549.5217 -157.7143 L 552.1757 -154.4164 L 554.1786 -151.9249 L 556.1931 -149.4202 L 558.894 -146.0668 L 560.9364 -143.5361 L 562.9888 -140.9976 L 565.0634 -138.4373 L 567.8322 -135.0325 L 569.9346 -132.4625 L 572.0613 -129.881 L 574.1952 -127.3123 L 577.0856 -123.8701 L 579.2779 -121.2877 L 582.2331 -117.8402 L 584.4696 -115.2518 L 586.7238 -112.656 L 588.9921 -110.0524 L 592.0292 -106.574 L 594.3261 -103.9468 L 597.3977 -100.4364 L 599.7146 -97.7903 L 602.8166 -94.2501 L 605.1569 -91.5816 L 608.286 -88.0173 L 610.6488 -85.3286 L 613.8049 -81.7406 L 616.1774 -79.046 L 619.3607 -75.4337 L 621.7554 -72.7188 L 624.9675 -69.0806 L 627.3845 -66.3456 L 630.6215 -62.6861 L 633.0602 -59.9316 L 635.5066 -57.1707 L 637.9924 -54.3668 L 641.2513 -50.6929 L 643.7329 -47.8969 L 647.0425 -44.1702 L 649.5402 -41.3594 L 652.0415 -38.5456 L 654.5507 -35.7241 L 657.913 -31.9447 L 660.4387 -29.1064 L 663.8196 -25.3066 L 666.3637 -22.4466 L 668.9125 -19.5798 L 672.3179 -15.7466 L 674.8817 -12.8582 L 678.3097 -8.9935 L 680.8765 -6.0968 L 683.4564 -3.1841 L 686.0409 -.2632 L 688.6776 2.7194 L 692.084 6.5759 L 694.683 9.5199 L 698.1541 13.4536 L 700.7618 16.4109 L 703.3789 19.3816 L 706.8677 23.3462 L 709.4858 26.3239 L 712.1132 29.3138 L 714.7438 32.3088 L 717.3792 35.3128 L 720.0134 38.3181 L 722.6569 41.3352 L 726.1802 45.3557 L 728.824 48.3707 L 732.365 52.4039 L 735.0277 55.433 L 737.7001 58.469 L 740.3734 61.5037 L 743.0788 64.573 L 746.6078 68.5727 L 749.2913 71.6113 L 751.9808 74.654 L 754.671 77.6977 L 758.2543 81.7557 L 760.9438 84.806 L 763.6431 87.8727 L 767.2441 91.9725 L 769.9335 95.0401 L 772.6298 98.1192 L 776.2333 102.2367 L 778.9378 105.328 L 781.6448 108.4231 L 785.2591 112.5553 L 787.9722 115.6557 L 790.6888 118.758 L 794.3199 122.8998 L 797.0484 126.008 L 799.7791 129.1149 L 803.4277 133.2592 L 806.1719 136.3718 L 809.8271 140.513 L 812.5732 143.6204 L 815.3133 146.7182 L 818.97 150.8498 L 821.699 153.9322 L 824.426 157.0124 L 827.1447 160.0831 L 830.7541 164.1605 L 833.4447 167.2002 L 836.1314 170.2359 L 839.6893 174.2568 L 842.3498 177.2643 L 844.9981 180.2579 L 848.4905 184.2065 L 851.0996 187.157 L 853.6789 190.0739 L 856.2403 192.9711 L 859.6121 196.7858 L 862.1126 199.6152 L 864.5817 202.4096 L 867.0239 205.174 L 869.4211 207.8878 L 871.7936 210.5742 L 874.9005 214.0928 L 877.195 216.6923 L 880.2049 220.1035 L 882.4255 222.6208 L 884.6138 225.1022 L 887.488 228.3629 L 889.6072 230.7687 L 892.3686 233.9066 L 894.407 236.2256 L 896.4203 238.5176 L 899.0641 241.5316 L 901.0246 243.7697 L 902.9592 245.981 L 905.51 248.9 L 907.4064 251.0725 L 909.2931 253.2364 L 911.7575 256.0668 L 913.5872 258.1708 L 915.3946 260.2512 L 917.1801 262.3081 L 919.5114 264.9961 L 921.2275 266.9765 L 922.9173 268.928 L 924.5699 270.838 L 926.7258 273.3318 L 928.3005 275.1548 L 929.8451 276.9446 L 931.3593 278.7012 L 932.8386 280.4197 L 934.7595 282.6567 L 936.1576 284.2888 L 937.5511 285.9188 L 939.3033 287.9738 L 940.6158 289.5168 L 942.3412 291.5505 L 943.6265 293.0692 L 944.9003 294.5776 L 946.1622 296.0749 L 947.8059 298.0302 L 949.0063 299.4616 L 950.5625 301.3214 L 951.6901 302.6726 L 953.1392 304.4128 L 954.1889 305.6768 L 955.2087 306.9066 L 956.2083 308.115 L 957.5266 309.7123 L 958.5109 310.9076 L 959.811 312.4915 L 960.7831 313.6776 L 961.7528 314.8634 L 963.0385 316.4386 L 963.999 317.6186 L 964.9544 318.7948 L 965.9069 319.9721 L 967.1696 321.5394 L 968.1097 322.7111 L 969.0486 323.8866 L 970.2878 325.4487 L 971.2109 326.623 L 972.1257 327.7987 L 973.0302 328.9775 L 973.9225 330.16 L 974.8021 331.3515 L 975.949 332.9466 L 976.7899 334.1516 L 977.8868 335.7704 L 978.6904 336.9922 L 979.4763 338.2197 L 980.5011 339.8651 L 981.2515 341.1083 L 982.2264 342.7703 L 982.9392 344.0239 L 983.6359 345.2827 L 984.3176 346.5465 L 984.98 347.8151 L 985.8377 349.5142 L 986.4603 350.794 L 987.0646 352.0802 L 987.8445 353.8014 L 988.4049 355.0955 L 988.9497 356.3979 L 989.6458 358.1353 L 990.1461 359.4451 L 990.6306 360.7608 L 991.2466 362.5197 L 991.6896 363.849 L 992.253 365.6284 L 992.6555 366.9751 L 993.1638 368.7745 L 993.5228 370.1335 L 993.8638 371.5015 L 994.1863 372.8752 L 994.4882 374.257 L 994.8614 376.11 L 995.1168 377.506 L 995.3506 378.9105 L 995.6335 380.7954 L 995.8184 382.2156 L 995.9849 383.6471 L 996.1316 385.084 L 996.2556 386.5303 L 996.3917 388.4735 L 996.4681 389.9449 L 996.5234 391.4241 L 996.5654 393.4108 L 996.5707 394.912 L 996.5468 396.9245 L 996.5024 398.4473 L 996.4141 400.4821 L 996.3228 402.0207 L 996.2109 403.5644 L 996.0808 405.1097 L 995.928 406.6618 L 995.6957 408.727 L 995.4975 410.2748 L 995.2032 412.3289 L 994.9594 413.8628 L 994.6953 415.391 L 994.4132 416.9099 L 994.1104 418.4222 L 993.7895 419.9261 L 993.3341 421.9151 L 992.9712 423.3991 L 992.5933 424.8752 L 992.2003 426.3401 L 991.7936 427.7982 L 991.2314 429.7305 L 990.7957 431.1706 L 990.3481 432.6042 L 989.8907 434.0272 L 989.2653 435.9125 L 988.7832 437.3217 L 988.1312 439.1722 L 987.6349 440.5421 L 987.1349 441.8898 L 986.4689 443.6378 L 985.9719 444.9084 L 985.4819 446.1365 L 984.842 447.7118 L 984.3724 448.8453 L 983.9135 449.9374 L 983.3173 451.335 L 982.8811 452.34 L 982.4494 453.3228 L 981.8773 454.6065 L 981.4446 455.5645 L 981.0074 456.5178 L 980.4185 457.7827 L 979.9736 458.7224 L 979.5231 459.6592 L 978.9167 460.8986 L 978.4574 461.8222 L 977.9931 462.7388 L 977.5233 463.6532 L 977.0508 464.5588 L 976.4129 465.7586 L 975.9268 466.6515 L 975.437 467.5371 L 974.9409 468.4155 L 974.4364 469.2874 L 973.9246 470.1483 L 973.4047 471.0023 L 972.8754 471.8477 L 972.3345 472.6826 L 971.5944 473.7823 L 971.0264 474.5937 L 970.4434 475.3966 L 969.8448 476.1895 L 969.2325 476.9711 L 968.3953 477.9939 L 967.7482 478.7484 L 967.0848 479.4898 L 966.177 480.4601 L 965.4756 481.1761 L 964.7572 481.88 L 963.7671 482.8026 L 963.0032 483.4836 L 962.2205 484.1536 L 961.4139 484.8136 L 960.5876 485.4609 L 959.454 486.3092 L 958.5753 486.9332 L 957.6783 487.5397 L 956.448 488.3306 L 955.502 488.9077 L 954.5328 489.4692 L 953.5425 490.0153 L 952.5312 490.5474 L 951.4973 491.0632 L 950.0886 491.72 L 949.007 492.1931 L 947.9051 492.6471 L 946.782 493.0786 L 945.2539 493.6219 L 944.0865 494.0049 L 942.8989 494.3618 L 941.6883 494.6964 L 940.0565 495.1043 L 938.8092 495.3776 L 937.1205 495.701 L 935.8352 495.9133 L 934.5333 496.0938 L 932.7792 496.2905 L 931.4427 496.4046 L 929.6517 496.5038 L 928.2925 496.5455 L 926.4633 496.5479 L 925.0837 496.5115 L 923.6934 496.446 L 922.293 496.3442 L 920.888 496.2109 L 919.4762 496.0456 L 917.5915 495.7718 L 916.1716 495.5281 L 914.2731 495.1478 L 912.8522 494.8245 L 910.9579 494.3398 L 909.5488 493.9372 L 907.6694 493.3482 L 906.2751 492.866 L 904.887 492.3513 L 903.5052 491.8023 L 902.1366 491.2184 L 900.7751 490.6022 L 898.9811 489.728 L 897.6469 489.0331 L 896.3063 488.2951 L 894.5845 487.2856 L 893.2953 486.4842 L 891.6015 485.367 L 890.3457 484.49 L 889.1101 483.5839 L 887.8881 482.6449 L 886.687 481.6778 L 885.5033 480.679 L 884.3387 479.6527 L 882.8143 478.2387 L 881.6946 477.1475 L 880.5907 476.0249 L 879.1547 474.4962 L 878.0986 473.3175 L 877.0614 472.1172 L 876.0374 470.8906 L 874.7016 469.226 L 873.7129 467.9503 L 872.4178 466.2235 L 871.4595 464.9071 L 870.5095 463.5718 L 869.2588 461.7688 L 868.3292 460.3985 L 867.4062 459.0163 L 866.1786 457.1553 L 865.2576 455.7485 L 864.0242 453.8615 L 863.0939 452.4403 L 861.8437 450.5363 L 860.9013 449.1057 L 859.9499 447.6669 L 858.6743 445.7439 L 857.7093 444.2956 L 856.7396 442.844 L 855.4359 440.9006 L 854.4523 439.4391 L 853.1306 437.4842 L 852.1317 436.0127 L 851.1282 434.5396 L 850.1185 433.0603 L 849.1068 431.5801 L 847.7517 429.6 L 846.7332 428.1126 L 845.3757 426.1312 L 844.3562 424.6429 L 842.9998 422.6622 L 841.9814 421.1786 L 840.6271 419.2054 L 839.6144 417.7302 L 838.6037 416.259 L 837.5959 414.7938 L 836.2552 412.8436 L 835.2533 411.3878 L 834.2543 409.9362 L 833.2561 408.4865 L 831.9321 406.5651 L 830.9389 405.1261 L 829.6235 403.2196 L 828.6389 401.7924 L 827.6567 400.3691 L 826.3511 398.4781 L 825.3755 397.0653 L 824.403 395.657 L 823.11 393.7837 L 822.1443 392.3842 L 820.8613 390.5226 L 819.9064 389.1336 L 818.6369 387.2833 L 817.6891 385.8987 L 816.4324 384.0574 L 815.4941 382.6803 L 814.2519 380.8525 L 813.3222 379.4819 L 812.3994 378.1174 L 811.1723 376.2995 L 810.2583 374.9423 L 809.3478 373.5884 L 808.4396 372.2353 L 807.2363 370.4385 L 806.3379 369.0936 L 805.1482 367.3087 L 804.2585 365.9713 L 803.3734 364.6392 L 802.4905 363.3081 L 801.3198 361.542 L 800.4446 360.2202 L 799.2819 358.4671 L 798.4108 357.1561 L 797.5406 355.852 L 796.3787 354.1193 L 795.5086 352.8293 L 794.6375 351.5443 L 793.7623 350.2616 L 792.8904 348.9941 L 791.7184 347.3105 L 790.8348 346.0609 L 789.9433 344.8188 L 789.0449 343.5882 L 787.8353 341.969 L 786.9167 340.7678 L 785.9865 339.5795 L 784.7306 338.0229 L 783.7724 336.8719 L 782.4753 335.3659 L 781.4877 334.2569 L 780.4869 333.165 L 779.135 331.7376 L 778.1053 330.6868 L 776.7179 329.3174 L 775.6596 328.3114 L 774.5914 327.327 L 773.1461 326.0457 L 772.0468 325.1111 L 770.9365 324.1982 L 769.8097 323.3079 L 768.6747 322.445 L 767.1401 321.3297 L 765.972 320.5229 L 764.7953 319.7414 L 763.2051 318.738 L 761.997 318.0138 L 760.7772 317.3131 L 759.1299 316.4181 L 757.8795 315.7739 L 756.1903 314.9529 L 754.9071 314.3646 L 753.1777 313.618 L 751.8584 313.0848 L 750.527 312.5747 L 748.7232 311.9321 L 747.3522 311.4774 L 745.963 311.0442 L 744.5557 310.6356 L 742.6578 310.1236 L 741.2151 309.7673 L 739.7499 309.432 L 737.7846 309.0213 L 736.2905 308.743 L 734.2791 308.4055 L 732.7584 308.1849 L 731.2306 307.9873 L 729.1847 307.7663 L 727.6437 307.6299 L 726.1105 307.5197 L 724.0615 307.4116 L 722.5279 307.3593 L 721.0047 307.3306 L 719.4796 307.3221 L 717.964 307.3348 L 716.4514 307.3646 L 714.4391 307.4255 L 712.9438 307.4846 L 711.4467 307.5511 L 709.4626 307.6469 L 707.9797 307.7202 L 706.4977 307.7929 L 704.536 307.8844 L 703.0673 307.9478 L 701.6026 308.0036 L 700.1443 308.0495 L 698.6894 308.0847 L 697.239 308.1048 L 695.3141 308.1085 L 693.8747 308.0918 L 692.441 308.057 L 691.0109 308.0057 L 689.1176 307.9064 L 687.7072 307.8094 L 686.3025 307.6915 L 684.9038 307.5491 L 683.0511 307.3255 L 681.6704 307.1273 L 680.3008 306.9042 L 678.9374 306.6571 L 677.5887 306.3836 L 675.8035 305.9786 L 674.4801 305.6456 L 673.1665 305.2848 L 671.4374 304.7639 L 670.1576 304.3424 L 668.8881 303.8923 L 667.2236 303.2557 L 665.9905 302.7451 L 664.7725 302.21 L 663.1688 301.4581 L 661.9806 300.8639 L 660.4172 300.0341 L 659.2587 299.3822 L 658.1123 298.7054 L 656.9822 298.005 L 655.495 297.032 L 654.3967 296.2755 L 653.3089 295.4921 L 651.8842 294.4127 L 650.8301 293.5745 L 649.4476 292.4185 L 648.4279 291.5241 L 647.0897 290.292 L 646.1044 289.341 L 645.1345 288.3665 L 644.1797 287.3663 L 643.2421 286.3463 L 642.3186 285.3006 L 641.1141 283.8699 L 640.2308 282.7711 L 639.3647 281.647 L 638.519 280.5024 L 637.421 278.9413 L 636.6212 277.7449 L 635.8417 276.5269 L 635.0829 275.2875 L 634.342 274.0234 L 633.3921 272.3152 L 632.7018 271.0063 L 631.813 269.2317 L 631.1696 267.8784 L 630.5425 266.5039 L 629.935 265.1127 L 629.1515 263.2297 L 628.582 261.794 L 628.0301 260.3423 L 627.3162 258.3797 L 626.7962 256.8864 L 626.2901 255.3832 L 625.7934 253.8601 L 625.3065 252.3225 L 624.6705 250.2524 L 624.2014 248.6834 L 623.7361 247.1013 L 623.1218 244.9753 L 622.6628 243.3677 L 622.2052 241.7453 L 621.748 240.116 L 621.1354 237.9256 L 620.67 236.2719 L 620.1989 234.6125 L 619.558 232.3873 L 619.0682 230.7121 L 618.57 229.0312 L 618.0633 227.3452 L 617.3802 225.1046 L 616.8622 223.4267 L 616.1655 221.1958 L 615.6391 219.5305 L 614.9347 217.3212 L 614.4044 215.6732 L 613.8712 214.0316 L 613.3351 212.3932 L 612.7996 210.7658 L 612.0798 208.6017 L 611.5384 206.9874 L 610.8135 204.8467 L 610.266 203.246 L 609.7169 201.6514 L 609.1651 200.0654 L 608.4213 197.9595 L 607.8585 196.3948 L 607.0936 194.3175 L 606.5082 192.7693 L 605.9126 191.2323 L 605.3043 189.705 L 604.6833 188.1872 L 604.0504 186.6847 L 603.4033 185.1914 L 602.743 183.7116 L 601.8397 181.758 L 601.145 180.3067 L 600.1949 178.395 L 599.4625 176.9772 L 598.7104 175.5759 L 597.6774 173.7376 L 596.8753 172.3814 L 596.0494 171.0453 L 595.1995 169.734 L 594.3237 168.4474 L 593.1168 166.7666 L 592.1826 165.5387 L 591.2268 164.3349 L 590.2463 163.1569 L 589.2418 162.0087 L 588.2159 160.8882 L 587.1655 159.7998 L 585.73 158.3955 L 584.6279 157.3786 L 583.1284 156.0752 L 581.9816 155.133 L 580.8139 154.2217 L 579.234 153.0572 L 578.0309 152.2208 L 576.8137 151.4143 L 575.171 150.3847 L 573.9244 149.6466 L 572.6696 148.9332 L 570.9773 148.0211 L 569.6972 147.3645 L 567.9741 146.5221 L 566.6688 145.9179 L 565.352 145.3331 L 564.0264 144.7719 L 562.6923 144.2345 L 560.8932 143.5479 L 559.5317 143.0604 L 558.1597 142.593 L 556.3166 142.0024 L 554.9214 141.5835 L 553.0502 141.0547 L 551.6339 140.6808 L 550.2108 140.3251 L 548.3022 139.8782 L 546.8625 139.5629 L 545.4156 139.262 L 543.9608 138.9777 L 542.0144 138.6213 L 540.544 138.3717 L 538.5782 138.063 L 537.0977 137.8491 L 535.1129 137.5885 L 533.6171 137.41 L 532.1185 137.249 L 530.1078 137.0567 L 528.5934 136.9313 L 526.5658 136.7863 L 525.0381 136.6947 L 523.5048 136.6174 L 521.9649 136.5536 L 520.4223 136.5038 L 518.3586 136.4569 L 516.802 136.4365 L 514.7289 136.4268 L 513.1699 136.4322 L 511.6114 136.4466 L 509.5435 136.4774 L 507.9941 136.507 L 505.9433 136.5502 L 504.4088 136.5826 L 502.8787 136.6117 L 501.3529 136.6352 L 499.8346 136.6507 L 497.813 136.6563 L 496.3068 136.6481 L 494.8029 136.6288 L 493.3049 136.5986 L 491.8119 136.5572 L 490.3227 136.5045 L 488.3483 136.4159 L 486.8744 136.3344 L 485.4037 136.239 L 483.4483 136.0887 L 481.9995 135.9601 L 480.5499 135.8156 L 478.6278 135.6004 L 477.1938 135.4211 L 475.7678 135.2257 L 473.875 134.9393 L 472.4651 134.7047 L 470.5962 134.3645 L 469.2025 134.0883 L 467.361 133.6931 L 465.9892 133.3752 L 464.1714 132.9225 L 462.8219 132.5627 L 461.4804 132.1852 L 460.1466 131.7895 L 458.8269 131.3771 L 457.512 130.9456 L 455.7811 130.3441 L 454.4947 129.8712 L 452.7975 129.2123 L 451.537 128.697 L 450.2881 128.1634 L 448.6452 127.4263 L 447.4223 126.8514 L 445.8201 126.0624 L 444.6311 125.4505 L 443.452 124.8207 L 442.2907 124.1777 L 441.1401 123.5173 L 439.6306 122.615 L 438.5126 121.9193 L 437.4091 121.2077 L 436.3197 120.4814 L 435.2457 119.7411 L 434.1851 118.9849 L 432.7923 117.9535 L 431.7649 117.1633 L 430.7502 116.3572 L 429.4229 115.262 L 428.4429 114.4216 L 427.162 113.2801 L 426.2188 112.4068 L 425.2907 111.5181 L 424.0797 110.3137 L 423.1879 109.3921 L 422.3128 108.4573 L 421.1696 107.1885 L 420.3308 106.2211 L 419.2369 104.9098 L 418.4372 103.9125 L 417.3966 102.5637 L 416.6328 101.5338 L 415.8899 100.4964 L 414.9226 99.0917 L 414.2171 98.0246 L 413.5294 96.9472 L 412.8584 95.8587 L 411.9887 94.3874 L 411.359 93.2761 L 410.7465 92.1539 L 410.1505 91.021 L 409.573 89.8807 L 409.0122 88.7301 L 408.2914 87.1822 L 407.7716 86.0125 L 407.269 84.8346 L 406.7844 83.6485 L 406.1656 82.0542 L 405.7237 80.8539 L 405.2996 79.644 L 404.8934 78.4274 L 404.38 76.7967 L 404.0164 75.5658 L 403.5605 73.9188 L 403.2393 72.6743 L 402.8409 71.0097 L 402.5634 69.7542 L 402.2236 68.0739 L 401.9907 66.8088 L 401.7093 65.1153 L 401.5216 63.8389 L 401.3007 62.1361 L 401.158 60.853 L 400.9987 59.1408 L 400.9004 57.8514 L 400.8231 56.5598 L 400.7647 55.2618 L 400.7251 53.9633 L 400.7065 52.6597 L 400.7073 51.3559 L 400.7385 49.6102 L 400.7874 48.2979 L 400.8558 46.9807 L 400.9789 45.2281 L 401.0969 43.9083 L 401.2843 42.1491 L 401.4515 40.8285 L 401.6403 39.5043 L 401.8484 38.1822 L 402.0799 36.8587 L 402.332 35.5338 L 402.6027 34.2098 L 402.8937 32.8835 L 403.3098 31.1126 L 403.6427 29.78 L 404.1118 28.0085 L 404.4837 26.6707 L 404.8724 25.3289 L 405.4143 23.5342 L 405.695 22.6322 L 406.2756 20.8212 L 406.7259 19.4556 L 407.1877 18.0847 L 407.8223 16.2446 L 408.3093 14.8582 L 408.8073 13.4603 L 409.3126 12.0575 L 409.8244 10.6467 L 410.5166 8.7505 L 411.0393 7.316 L 411.7367 5.3932 L 412.261 3.9362 L 412.7863 2.4671 L 413.3106 .9907 L 413.8345 -.4967 L 414.5333 -2.4947 L 415.0562 -4.0052 L 415.7525 -6.0326 L 416.2724 -7.5606 L 416.7901 -9.0935 L 417.3043 -10.6285 L 417.8137 -12.1607 L 418.4855 -14.2003 L 418.9836 -15.7258 L 419.4763 -17.2468 L 419.9642 -18.7652 L 420.6071 -20.7836 L 421.0831 -22.2928 L 421.5558 -23.8038 L 422.0209 -25.3038 L 422.6324 -27.3013 L 423.0828 -28.7947 L 423.5256 -30.2873 L 424.0996 -32.2724 L 424.5164 -33.7604 L 424.918 -35.2449 L 425.4267 -37.2242 L 425.7868 -38.704 L 426.125 -40.1874 L 426.4425 -41.669 L 426.7364 -43.1494 L 427.0865 -45.1187 L 427.3207 -46.5964 L 427.5219 -48.0719 L 427.6945 -49.5418 L 427.8732 -51.5014 L 427.9666 -52.9641 L 428.029 -54.4252 L 428.0541 -55.8808 L 428.0466 -57.3283 L 428.006 -58.7718 L 427.9296 -60.208 L 427.7777 -62.1084 L 427.6239 -63.5232 L 427.4389 -64.9303 L 427.2261 -66.3247 L 426.8957 -68.1733 L 426.6202 -69.5456 L 426.3199 -70.9121 L 425.9963 -72.2715 L 425.5348 -74.0682 L 425.1622 -75.4109 L 424.638 -77.1824 L 424.2204 -78.5052 L 423.6335 -80.2497 L 423.1726 -81.5522 L 422.5256 -83.271 L 422.0215 -84.5478 L 421.4984 -85.8187 L 420.954 -87.0806 L 420.2042 -88.7491 L 419.6188 -89.9908 L 419.015 -91.2233 L 418.3959 -92.4482 L 417.7559 -93.664 L 417.0982 -94.8687 L 416.1917 -96.4641 L 415.4883 -97.6462 L 414.7655 -98.8187 L 413.7691 -100.3677 L 412.9984 -101.5147 L 412.2077 -102.6521 L 411.3931 -103.78 L 410.2765 -105.2654 L 409.4114 -106.3705 L 408.5265 -107.4603 L 407.3121 -108.9045 L 406.3738 -109.9743 L 405.416 -111.0327 L 404.4353 -112.0849 L 403.4329 -113.1225 L 402.408 -114.1519 L 401.3628 -115.1689 L 400.2936 -116.1734 L 398.8383 -117.4926 L 397.7208 -118.4663 L 396.5814 -119.4274 L 395.0303 -120.6859 L 393.842 -121.6131 L 392.6336 -122.5263 L 390.9898 -123.7254 L 389.7375 -124.609 L 388.4655 -125.4815 L 386.7433 -126.6275 L 385.4318 -127.4733 L 384.1013 -128.3094 L 382.3071 -129.4047 L 380.9395 -130.215 L 379.5589 -131.0146 L 378.1656 -131.8027 L 376.2803 -132.8411 L 374.8492 -133.6083 L 372.9204 -134.6133 L 371.4549 -135.3549 L 369.9684 -136.0889 L 367.9836 -137.0435 L 366.4756 -137.7515 L 364.952 -138.4527 L 362.9083 -139.3731 L 361.3572 -140.0558 L 359.7984 -140.7284 L 358.2257 -141.3938 L 356.111 -142.2672 L 354.5152 -142.911 L 352.3666 -143.7605 L 350.7448 -144.3915 L 348.5709 -145.2268 L 346.9304 -145.8508 L 345.2816 -146.4725 L 343.6261 -147.0916 L 341.9627 -147.707 L 340.2909 -148.3188 L 338.6144 -148.9234 L 336.9298 -149.5228 L 335.2383 -150.1149 L 333.5436 -150.6988 L 331.2768 -151.4649 L 329.5706 -152.0308 L 327.8648 -152.5864 L 325.5863 -153.3133 L 323.8718 -153.8478 L 322.1603 -154.3708 L 319.882 -155.0503 L 318.1721 -155.5474 L 316.4611 -156.0324 L 314.7434 -156.5064 L 312.4729 -157.1117 L 310.7619 -157.5513 L 308.4856 -158.1143 L 306.7761 -158.52 L 305.0652 -158.9121 L 302.7931 -159.4102 L 301.0851 -159.7677 L 299.3752 -160.1098 L 297.1003 -160.5388 L 295.3903 -160.8416 L 293.6862 -161.1257 L 291.4084 -161.4782 L 289.6999 -161.7221 L 287.9933 -161.9481 L 286.2848 -162.1573 L 284.5763 -162.3486 L 282.3014 -162.5764 L 280.5934 -162.7261 L 278.8871 -162.8575 L 276.5915 -163.0044 L 274.9143 -163.0903 L 273.2101 -163.1588 L 271.5099 -163.2084 L 269.8049 -163.2399 L 268.1098 -163.2528 L 265.8465 -163.2434 L 264.1523 -163.2165 L 262.4585 -163.1734 L 260.7645 -163.1137 L 259.0755 -163.038 L 257.3879 -162.9462 L 255.1398 -162.7996 L 253.4594 -162.6731 L 251.2147 -162.4837 L 249.5388 -162.3273 L 247.865 -162.1585 L 245.6351 -161.915 L 243.9627 -161.7175 L 241.7402 -161.4366 L 240.0751 -161.2117 L 238.4119 -160.9758 L 236.1969 -160.6444 L 234.5415 -160.3861 L 232.8841 -160.1192 L 230.6793 -159.7533 L 229.0287 -159.4711 L 227.3789 -159.1826 L 225.1806 -158.7883 L 223.5327 -158.4849 L 221.3412 -158.0713 L 219.6972 -157.7523 L 217.5119 -157.3156 L 215.8748 -156.9776 L 214.238 -156.6297 L 212.0655 -156.1498 L 210.4351 -155.7746 L 208.2734 -155.2556 L 206.6562 -154.8501 L 204.5061 -154.2876 L 202.8976 -153.8486 L 200.7585 -153.2404 L 199.16 -152.7672 L 197.0338 -152.1132 L 195.4422 -151.604 L 193.3321 -150.9024 L 191.7569 -150.3578 L 189.6589 -149.6044 L 188.0937 -149.0212 L 186.5332 -148.4212 L 184.4585 -147.595 L 182.9112 -146.9569 L 181.3672 -146.3019 L 179.8268 -145.6298 L 178.2904 -144.9414 L 176.2556 -144.0006 L 174.7347 -143.2753 L 173.216 -142.5324 L 171.2047 -141.5194 L 169.7012 -140.7412 L 168.2018 -139.9474 L 166.2137 -138.8674 L 164.7258 -138.0396 L 162.7528 -136.9163 L 161.2764 -136.0579 L 159.8065 -135.1881 L 158.3403 -134.3062 L 156.3915 -133.1112 L 154.9342 -132.201 L 153.4814 -131.2796 L 151.5491 -130.0336 L 150.1018 -129.0863 L 148.1765 -127.8099 L 146.731 -126.8398 L 145.2891 -125.8622 L 143.8463 -124.8747 L 141.9223 -123.5426 L 140.4829 -122.5354 L 139.0422 -121.5173 L 137.6007 -120.489 L 135.6803 -119.1022 L 134.242 -118.0505 L 132.8045 -116.9864 L 131.3553 -115.9004 L 129.4604 -114.4577 L 128.0326 -113.3538 L 126.6071 -112.2356 L 125.1851 -111.1044 L 123.7676 -109.9602 L 122.3554 -108.8034 L 120.9447 -107.6312 L 119.0742 -106.0497 L 117.6754 -104.8466 L 116.2819 -103.6297 L 114.8955 -102.4007 L 113.0526 -100.7385 L 111.6805 -99.4786 L 110.3051 -98.1978 L 108.4772 -96.4634 L 107.1125 -95.1454 L 105.7555 -93.8141 L 104.4066 -92.4713 L 102.6167 -90.6579 L 101.2796 -89.2792 L 99.5141 -87.4264 L 98.1973 -86.0194 L 96.4516 -84.1204 L 95.1546 -82.6838 L 93.8638 -81.2315 L 92.1566 -79.2758 L 90.8866 -77.7944 L 89.6229 -76.297 L 88.3716 -74.7908 L 86.7158 -72.7609 L 85.4846 -71.2231 L 83.8616 -69.1582 L 82.6572 -67.5966 L 81.4651 -66.0264 L 80.2824 -64.4455 L 79.1115 -62.8581 L 77.9513 -61.2666 L 76.418 -59.1362 L 75.278 -57.5356 L 73.7701 -55.3997 L 72.6509 -53.8043 L 71.5356 -52.2077 L 70.4232 -50.6098 L 68.9543 -48.4921 L 67.8563 -46.904 L 66.7621 -45.3168 L 65.675 -43.7356 L 64.5912 -42.1556 L 63.5127 -40.5802 L 62.0814 -38.4853 L 61.0102 -36.9144 L 59.5954 -34.8363 L 58.5406 -33.285 L 57.4901 -31.7404 L 56.1084 -29.7123 L 55.077 -28.2039 L 54.0542 -26.7147 L 52.6964 -24.7507 L 51.6906 -23.3072 L 50.6905 -21.883 L 49.6947 -20.4776 L 48.3882 -18.6545 L 47.4188 -17.3181 L 46.4608 -16.0106 L 45.2093 -14.3233 L 44.2832 -13.0887 L 43.3743 -11.888 L 42.4845 -10.7217 L 41.3289 -9.2183 L 40.4875 -8.131 L 39.4017 -6.7354 L 38.6127 -5.7264 L 37.5956 -4.4321 L 36.8515 -3.4894 L 36.1149 -2.5598 L 35.1389 -1.3336 L 34.4073 -.4183 L 33.4323 .7968 L 32.7024 1.7039 L 31.7318 2.9079 L 31.0022 3.8113 L 30.0365 5.0048 L 29.3102 5.9011 L 28.3469 7.0876 L 27.6247 7.976 L 26.6624 9.1578 L 25.9446 10.0379 L 24.9857 11.2119 L 24.2696 12.0872 L 23.3163 13.2516 L 22.603 14.1222 L 21.8903 14.9917 L 20.9449 16.1447 L 20.237 17.0077 L 19.5281 17.8716 L 18.8248 18.7286 L 17.8871 19.8711 L 17.1869 20.7239 L 16.4864 21.5767 L 15.5561 22.7084 L 14.8593 23.5549 L 14.1622 24.3998 L 13.4676 25.2393 L 12.7713 26.0775 L 12.0761 26.9103 L 11.1477 28.0148 L 10.4481 28.8397 L 9.5144 29.929 L 8.8097 30.7402 L 8.1013 31.5438 L 7.3889 32.3382 L 6.4277 33.3856 L 5.6996 34.158 L 4.7159 35.1696 L 3.9659 35.9149 L 2.9532 36.883 L 2.18 37.592 L 1.1301 38.5112 L .33 39.178 L -.4841 39.8265 L -1.5859 40.6594 L -2.4264 41.2619 L -3.2791 41.8421 L -4.4306 42.5811 L -5.3084 43.1138 L -6.1941 43.6241 L -7.3944 44.2731 L -8.3103 44.7385 L -9.2345 45.1837 L -10.1743 45.6099 L -11.441 46.1472 L -12.4059 46.5286 L -13.7097 47.0051 L -14.7013 47.34 L -15.7045 47.6557 L -16.7197 47.9515 L -18.088 48.3149 L -19.1265 48.5664 L -20.1742 48.7998 L -21.2352 49.0169 L -22.3059 49.218 L -23.745 49.4618 L -24.8382 49.6287 L -25.9403 49.7838 L -27.0541 49.9282 L -28.1775 50.0631 L -29.3126 50.1896 L -30.4594 50.3084 L -32.0017 50.455 L -33.1712 50.5571 L -34.3532 50.6539 L -35.5486 50.7474 L -36.7496 50.8381 L -38.3689 50.9574 L -39.5969 51.0467 L -40.8326 51.1363 L -42.0814 51.2274 L -43.3366 51.3201 L -44.6017 51.4148 L -45.879 51.512 L -47.1637 51.6111 L -48.8905 51.7466 L -50.1984 51.8511 L -51.9519 51.9935 L -53.2792 52.1038 L -55.0568 52.2554 L -56.3983 52.3731 L -58.1908 52.5352 L -59.5383 52.6606 L -60.888 52.7893 L -62.684 52.9657 L -64.0279 53.1014 L -65.8151 53.2869 L -67.1516 53.4292 L -68.4861 53.5745 L -69.8163 53.7225 L -71.5829 53.9234 L -72.9048 54.0773 L -74.225 54.234 L -75.9764 54.4464 L -77.2896 54.6091 L -79.0303 54.8293 L -80.3377 54.9981 L -81.633 55.1682 L -83.3608 55.3991 L -84.6535 55.5752 L -86.3692 55.8127 L -87.6556 55.9934 L -89.3612 56.2369 L -90.6399 56.4218 L -91.9129 56.6082 L -93.1847 56.7968 L -94.4559 56.987 L -96.1351 57.2408 L -97.3958 57.4328 L -99.0711 57.6891 L -100.3254 57.882 L -101.5723 58.0745 L -103.2219 58.3303 L -104.4488 58.5212 L -105.6635 58.7106 L -107.2661 58.9604 L -108.4528 59.1451 L -109.6266 59.3272 L -111.1644 59.5645 L -112.2995 59.738 L -113.4115 59.9058 L -114.8617 60.1211 L -115.9232 60.276 L -116.9637 60.4256 L -117.9826 60.5699 L -119.3047 60.7541 L -120.2696 60.8863 L -121.2143 61.0139 L -122.4389 61.1767 L -123.349 61.2957 L -124.2499 61.4118 L -125.4468 61.5633 L -126.3439 61.6749 L -127.5338 61.8201 L -128.4261 61.9268 L -129.3163 62.0309 L -130.4997 62.1652 L -131.3856 62.2623 L -132.5639 62.3858 L -133.4452 62.4737 L -134.326 62.5575 L -135.4975 62.662 L -136.3744 62.7343 L -137.5404 62.8214 L -138.4134 62.8794 L -139.2842 62.9299 L -140.4429 62.9843 L -141.3109 63.0145 L -142.1755 63.0352 L -143.0406 63.0457 L -143.901 63.0453 L -145.0481 63.0266 L -145.903 62.9993 L -146.7575 62.9593 L -147.8889 62.8845 L -148.7358 62.8091 L -149.8573 62.686 L -150.6947 62.5755 L -151.8019 62.4001 L -152.6265 62.2445 L -153.4439 62.0728 L -154.2558 61.8844 L -155.0614 61.6747 L -156.1172 61.3602 L -156.8991 61.0995 L -157.674 60.8206 L -158.6866 60.4152 L -159.4317 60.0828 L -160.4045 59.6081 L -161.1207 59.2292 L -162.0496 58.6895 L -162.7266 58.258 L -163.6038 57.6515 L -164.2406 57.1731 L -164.8609 56.6745 L -165.4614 56.1565 L -166.0443 55.6188 L -166.6124 55.0605 L -167.3413 54.2871 L -167.8719 53.6807 L -168.3878 53.0489 L -168.893 52.3956 L -169.3888 51.7172 L -169.8716 51.0123 L -170.4932 50.0258 L -170.9429 49.256 L -171.3802 48.4618 L -171.8024 47.6374 L -172.3339 46.4959 L -172.7093 45.6121 L -173.1834 44.3949 L -173.5144 43.4506 L -173.9179 42.1582 L -174.1972 41.1619 L -174.4557 40.1404 L -174.7656 38.7512 L -174.9766 37.6821 L -175.169 36.5955 L -175.4022 35.114 L -175.5627 33.9844 L -175.7142 32.8355 L -175.8615 31.6662 L -176.0573 30.0858 L -176.2108 28.8785 L -176.3716 27.6592 L -176.5417 26.4235 L -176.7845 24.7528 L -176.9777 23.482 L -177.2507 21.7655 L -177.4673 20.4618 L -177.6938 19.146 L -177.9319 17.8114 L -178.2646 16.0203 L -178.5272 14.6586 L -178.7995 13.2869 L -179.1791 11.437 L -179.475 10.0358 L -179.78 8.6225 L -180.2011 6.7192 L -180.5258 5.2757 L -180.8604 3.8144 L -181.2063 2.324 L -181.6655 .3703 L -182.022 -1.127 L -182.384 -2.6331 L -182.8773 -4.6595 L -183.2558 -6.1956 L -183.6394 -7.736 L -184.0317 -9.2959 L -184.5619 -11.3812 L -184.9676 -12.9615 L -185.5174 -15.0853 L -185.935 -16.6906 L -186.3564 -18.308 L -186.7805 -19.934 L -187.3507 -22.1214 L -187.7806 -23.7713 L -188.3585 -25.9907 L -188.7959 -27.6725 L -189.3807 -29.9223 L -189.8233 -31.625 L -190.2676 -33.3352 L -190.7148 -35.0585 L -191.1645 -36.7924 L -191.7667 -39.1155 L -192.2207 -40.8678 L -192.832 -43.2202 L -193.2934 -44.9925 L -193.7587 -46.7795 L -194.3793 -49.1681 L -194.8465 -50.9709 L -195.3166 -52.7902 L -195.7883 -54.6223 L -196.4182 -57.0779 L -196.8917 -58.9293 L -197.3658 -60.7889 L -197.8416 -62.6608 L -198.475 -65.1625 L -198.9507 -67.0484 L -199.5865 -69.5771 L -200.0642 -71.4827 L -200.5422 -73.3968 L -201.0195 -75.3141 L -201.6567 -77.8866 L -202.1337 -79.8232 L -202.6101 -81.7648 L -203.0871 -83.7167 L -203.7219 -86.325 L -204.1974 -88.2861 L -204.6725 -90.2525 L -205.3052 -92.8806 L -205.7801 -94.8605 L -206.4103 -97.4954 L -206.8826 -99.4744 L -207.3555 -101.4589 L -207.9828 -104.0964 L -208.4519 -106.0724 L -208.9204 -108.049 L -209.5408 -110.6721 L -210.0041 -112.6354 L -210.6178 -115.2415 L -211.0769 -117.1942 L -211.5324 -119.1343 L -212.1373 -121.7136 L -212.5894 -123.6447 L -213.0397 -125.5703 L -213.6352 -128.1207 L -214.081 -130.0323 L -214.524 -131.9344 L -215.1135 -134.467 L -215.5531 -136.3569 L -215.9909 -138.2408 L -216.4275 -140.1215 L -216.8611 -141.9928 L -217.4367 -144.4809 L -217.8665 -146.3421 L -218.436 -148.8128 L -218.8615 -150.6611 L -219.2842 -152.5001 L -219.8456 -154.9473 L -220.2642 -156.7767 L -220.8181 -159.2024 L -221.2318 -161.0178 L -221.6438 -162.8297 L -222.0527 -164.6304 L -222.4605 -166.4291 L -222.8667 -168.2235 L -223.2699 -170.0081 L -223.6718 -171.7891 L -224.2046 -174.1562 L -224.6025 -175.927 L -225.1285 -178.2722 L -225.5217 -180.0284 L -225.9131 -181.7789 L -226.3017 -183.5214 L -226.6882 -185.2595 L -227.1971 -187.5576 L -227.5725 -189.2616 L -227.9396 -190.9362 L -228.416 -193.1214 L -228.7612 -194.7139 L -229.2065 -196.7783 L -229.529 -198.2802 L -229.9443 -200.2229 L -230.2439 -201.632 L -230.5319 -202.9956 L -230.9005 -204.7587 L -231.1657 -206.0423 L -231.4228 -207.3008 L -231.7547 -208.9485 L -231.9978 -210.1709 L -232.2377 -211.3913 L -232.5523 -213.0126 L -232.7834 -214.219 L -233.0117 -215.4248 L -233.3102 -217.0269 L -233.5285 -218.2232 L -233.7417 -219.418 L -234.0164 -221.0042 L -234.2144 -222.1897 L -234.4055 -223.3736 L -234.5888 -224.5522 L -234.821 -226.1215 L -234.985 -227.2929 L -235.1403 -228.4616 L -235.2868 -229.6306 L -235.467 -231.1772 L -235.5914 -232.3362 L -235.7055 -233.4934 L -235.8421 -235.0341 L -235.9325 -236.1902 L -236.0362 -237.7272 L -236.1015 -238.8817 L -236.1559 -240.0341 L -236.1994 -241.1855 L -236.2322 -242.3385 L -236.2584 -243.8703 L -236.2649 -245.0205 L -236.2604 -246.1682 L -236.245 -247.3185 L -236.2062 -248.8487 L -236.1632 -249.9964 L -236.108 -251.1454 L -236.0132 -252.6759 L -235.9257 -253.8219 L -235.7865 -255.3534 L -235.665 -256.4985 L -235.4796 -258.0224 L -235.323 -259.1655 L -235.1515 -260.3071 L -234.9649 -261.4467 L -234.6928 -262.9637 L -234.4715 -264.0988 L -234.2345 -265.234 L -233.9834 -266.3645 L -233.7177 -267.4939 L -233.4379 -268.6222 L -233.1457 -269.7464 L -232.8411 -270.8719 L -232.5244 -271.9993 L -232.0858 -273.5014 L -231.7449 -274.6306 L -231.275 -276.1411 L -230.9129 -277.2742 L -230.5416 -278.413 L -230.0341 -279.936 L -229.6445 -281.0817 L -229.2472 -282.2329 L -228.8447 -283.3844 L -228.2965 -284.9295 L -227.8789 -286.0923 L -227.3142 -287.6463 L -226.8821 -288.8198 L -226.2988 -290.387 L -225.8532 -291.5699 L -225.4033 -292.7516 L -224.9467 -293.9391 L -224.4855 -295.1262 L -223.8637 -296.7061 L -223.3926 -297.89 L -222.7623 -299.4554 L -222.2859 -300.6249 L -221.8084 -301.7881 L -221.3294 -302.9446 L -220.688 -304.4813 L -220.2075 -305.6268 L -219.7255 -306.7695 L -219.2443 -307.9055 L -218.6025 -309.4129 L -218.1201 -310.5388 L -217.6384 -311.6586 L -217.1567 -312.774 L -216.6733 -313.8871 L -216.1914 -314.9922 L -215.5476 -316.4639 L -215.2278 -317.1931 L -214.5926 -318.6426 L -214.1223 -319.7181 L -213.6599 -320.7772 L -213.0616 -322.1511 L -212.6272 -323.1509 L -212.2073 -324.119 L -211.8044 -325.0504 L -211.417 -325.9481 L -210.9248 -327.0904 L -210.5715 -327.9137 L -210.1125 -328.987 L -209.7734 -329.7827 L -209.3251 -330.8371 L -208.9915 -331.6244 L -208.6603 -332.4091 L -208.2235 -333.4496 L -207.8978 -334.2284 L -207.4679 -335.2606 L -207.148 -336.0319 L -206.8304 -336.801 L -206.515 -337.5666 L -206.2019 -338.3295 L -205.7875 -339.3429 L -205.4793 -340.0999 L -205.1734 -340.854 L -204.7682 -341.8563 L -204.4675 -342.6032 L -204.0691 -343.5971 L -203.7732 -344.3387 L -203.3829 -345.3238 L -203.0939 -346.0592 L -202.8076 -346.7946 L -202.4328 -347.7695 L -202.1561 -348.4998 L -201.884 -349.2271 L -201.6163 -349.9529 L -201.3532 -350.6765 L -201.0949 -351.399 L -200.7591 -352.3573 L -200.5167 -353.0656 L -200.2851 -353.756 L -199.994 -354.6446 L -199.79 -355.2829 L -199.5366 -356.0986 L -199.3597 -356.686 L -199.1918 -357.2604 L -199.0312 -357.8281 L -198.828 -358.5796 L -198.6832 -359.1432 L -198.5468 -359.7052 L -198.4181 -360.2657 L -198.2973 -360.8262 L -198.1502 -361.5703 L -198.0499 -362.127 L -197.958 -362.6831 L -197.8759 -363.2359 L -197.781 -363.9718 L -197.7203 -364.521 L -197.67 -365.0684 L -197.6308 -365.6138 L -197.5971 -366.3337 L -197.5863 -366.8712 L -197.5893 -367.4031 L -197.6122 -368.1085 L -197.6443 -368.6311 L -197.6903 -369.1501 L -197.75 -369.6647 L -197.8232 -370.1735 L -197.91 -370.677 L -198.0476 -371.3394 L -198.1646 -371.8279 L -198.2937 -372.3108 L -198.4839 -372.9438 L -198.6405 -373.4112 L -198.807 -373.8706 L -199.0457 -374.4729 L -199.2374 -374.9155 L -199.4388 -375.3506 L -199.6491 -375.7776 L -199.8685 -376.1965 L -200.1742 -376.7399 L -200.4124 -377.1371 L -200.6586 -377.5266 L -200.9129 -377.9082 L -201.173 -378.2778 L -201.4393 -378.6376 L -201.8023 -379.1026 L -202.0813 -379.4406 L -202.3667 -379.7696 L -202.6592 -380.0913 L -202.957 -380.4052 L -203.2601 -380.7104 L -203.5693 -381.0079 L -203.8843 -381.2962 L -204.3119 -381.6684 L -204.6379 -381.938 L -205.0801 -382.2845 L -205.417 -382.5339 L -205.8805 -382.8601 L -206.2421 -383.1012 L -206.6146 -383.3375 L -207.1308 -383.6446 L -207.5323 -383.8694 L -208.0861 -384.16 L -208.516 -384.3698 L -208.9588 -384.5722 L -209.4137 -384.7674 L -209.8809 -384.9545 L -210.522 -385.1888 L -211.018 -385.3535 L -211.6958 -385.557 L -212.2187 -385.6956 L -212.7528 -385.8215 L -213.4817 -385.97 L -214.0435 -386.0644 L -214.8101 -386.1667 L -215.3997 -386.2271 L -216.201 -386.2794 L -216.8169 -386.299 L -217.442 -386.3013 L -218.08 -386.2822 L -218.9421 -386.2296 L -219.5998 -386.1672 L -220.2655 -386.0834 L -220.9376 -385.9804 L -221.846 -385.8071 L -222.5347 -385.6531 L -223.2272 -385.4762 L -223.9254 -385.2763 L -224.6263 -385.0555 L -225.3291 -384.8103 L -226.0358 -384.5409 L -226.9742 -384.1425 L -227.6789 -383.8155 L -228.3829 -383.4613 L -229.3144 -382.9512 L -230.0093 -382.5354 L -230.9259 -381.942 L -231.6063 -381.4647 L -232.2816 -380.9641 L -233.1708 -380.2582 L -233.8281 -379.699 L -234.6875 -378.9148 L -235.3242 -378.3016 L -235.9525 -377.6662 L -236.7738 -376.7819 L -237.3782 -376.0959 L -238.1768 -375.1531 L -238.7687 -374.4237 L -239.5455 -373.4229 L -240.1223 -372.6528 L -240.8828 -371.6021 L -241.4473 -370.7919 L -242.0073 -369.962 L -242.5612 -369.1167 L -243.1104 -368.253 L -243.6551 -367.3702 L -244.3749 -366.165 L -244.9122 -365.2419 L -245.4493 -364.2998 L -246.1623 -363.0236 L -246.7 -362.0479 L -247.2417 -361.0561 L -247.7854 -360.0535 L -248.5201 -358.6949 L -249.0804 -357.662 L -249.8414 -356.2683 L -250.4239 -355.2116 L -251.2177 -353.7878 L -251.8258 -352.7086 L -252.6543 -351.2531 L -253.2863 -350.1518 L -254.1435 -348.6646 L -254.7944 -347.5381 L -255.6725 -346.0189 L -256.3403 -344.864 L -257.0132 -343.7008 L -257.9215 -342.1303 L -258.6095 -340.9418 L -259.3051 -339.7418 L -260.0098 -338.5293 L -260.961 -336.9007 L -261.6855 -335.6659 L -262.4192 -334.4219 L -263.1602 -333.1714 L -264.166 -331.481 L -264.9301 -330.2034 L -265.7018 -328.9162 L -266.7427 -327.185 L -267.5295 -325.8786 L -268.3246 -324.5609 L -269.1269 -323.2333 L -270.2044 -321.453 L -271.0211 -320.1062 L -272.1181 -318.2994 L -272.9477 -316.9348 L -274.0633 -315.0997 L -274.9046 -313.7155 L -275.7513 -312.321 L -276.603 -310.9171 L -277.4603 -309.5026 L -278.6053 -307.6117 L -279.4715 -306.1804 L -280.6326 -304.26 L -281.5079 -302.8117 L -282.3882 -301.3538 L -283.5663 -299.4025 L -284.4525 -297.934 L -285.3456 -296.4546 L -286.5473 -294.4655 L -287.4341 -292.9997 L -288.333 -291.515 L -289.5349 -289.5326 L -290.4378 -288.0457 L -291.3411 -286.5599 L -292.2449 -285.075 L -293.1478 -283.5934 L -294.3503 -281.6241 L -295.2502 -280.1527 L -296.4489 -278.1956 L -297.3473 -276.731 L -298.5353 -274.7984 L -299.4279 -273.3497 L -300.6166 -271.4267 L -301.5082 -269.9892 L -302.6957 -268.0822 L -303.5856 -266.6595 L -304.4762 -265.2423 L -305.3693 -263.8279 L -306.5573 -261.9563 L -307.4503 -260.5571 L -308.64 -258.7043 L -309.5345 -257.3202 L -310.4307 -255.9437 L -311.6286 -254.1195 L -312.5295 -252.7612 L -313.4348 -251.4077 L -314.3409 -250.0646 L -315.2512 -248.7275 L -316.4698 -246.9561 L -317.3867 -245.6382 L -318.3085 -244.3254 L -319.2341 -243.0213 L -320.1636 -241.7251 L -321.4122 -240.0062 L -322.3553 -238.7262 L -323.3042 -237.4548 L -324.5828 -235.7735 L -325.5542 -234.5213 L -326.863 -232.8755 L -327.8604 -231.6523 L -329.2084 -230.0458 L -330.2361 -228.8555 L -331.275 -227.682 L -332.6839 -226.1384 L -333.7565 -224.9958 L -334.8421 -223.8696 L -336.3147 -222.3845 L -337.4339 -221.2883 L -338.567 -220.2052 L -339.715 -219.134 L -340.8799 -218.0717 L -342.4514 -216.6805 L -343.6484 -215.6495 L -344.8622 -214.6305 L -346.0903 -213.6252 L -347.3334 -212.6321 L -349.0103 -211.3294 L -350.2862 -210.3661 L -351.5784 -209.4115 L -352.88 -208.472 L -354.1978 -207.5412 L -355.5278 -206.6221 L -357.322 -205.4147 L -358.6843 -204.522 L -360.5168 -203.354 L -361.9063 -202.4915 L -363.7813 -201.3602 L -365.2021 -200.5244 L -367.1154 -199.429 L -368.5607 -198.6226 L -370.0222 -197.8255 L -371.4889 -197.0437 L -372.9706 -196.272 L -374.4637 -195.5127 L -375.9658 -194.7669 L -377.9842 -193.7945 L -379.5123 -193.0798 L -381.0508 -192.3802 L -383.1184 -191.4696 L -384.6805 -190.8042 L -386.2545 -190.1532 L -387.834 -189.5191 L -389.4301 -188.8978 L -391.0309 -188.2943 L -392.6462 -187.7047 L -394.2683 -187.1318 L -396.4435 -186.3939 L -398.0911 -185.8573 L -400.2929 -185.1703 L -401.9587 -184.6733 L -403.635 -184.192 L -405.8794 -183.5774 L -407.5728 -183.135 L -409.8465 -182.57 L -411.555 -182.1663 L -413.2735 -181.7786 L -415.0021 -181.4066 L -417.3151 -180.9365 L -419.0591 -180.6023 L -420.8127 -180.2831 L -422.5651 -179.9807 L -424.3318 -179.6925 L -426.6905 -179.3331 L -428.4723 -179.0808 L -430.2553 -178.8448 L -432.6393 -178.5547 L -434.4386 -178.3544 L -436.2373 -178.1687 L -438.6467 -177.9395 L -440.4571 -177.7806 L -442.2744 -177.6316 L -444.0965 -177.4926 L -445.9211 -177.3636 L -447.7467 -177.2446 L -449.6068 -177.1337 L -452.0291 -177.0036 L -453.8712 -176.9146 L -455.7186 -176.8329 L -458.1819 -176.7351 L -460.0361 -176.6698 L -461.8917 -176.6113 L -464.3741 -176.5439 L -466.2375 -176.5014 L -468.1094 -176.4655 L -469.9979 -176.4363 L -471.8874 -176.4139 L -474.4123 -176.3948 L -476.3138 -176.3887 L -478.8459 -176.3933 L -480.758 -176.4079 L -483.297 -176.4448 L -485.2107 -176.4864 L -487.7647 -176.5611 L -489.6858 -176.6317 L -491.6083 -176.7149 L -493.5337 -176.8109 L -495.4653 -176.9198 L -498.0359 -177.0843 L -499.9739 -177.2224 L -502.5536 -177.425 L -504.4924 -177.5908 L -506.4351 -177.769 L -509.0261 -178.024 L -510.9753 -178.2296 L -512.9219 -178.4457 L -514.8749 -178.6735 L -516.8279 -178.9117 L -518.782 -179.1602 L -521.3941 -179.5074 L -523.3521 -179.778 L -525.9703 -180.1525 L -527.9344 -180.4428 L -530.5582 -180.8422 L -532.5319 -181.1512 L -534.5015 -181.4664 L -537.1342 -181.8994 L -539.1108 -182.2329 L -541.0893 -182.5744 L -543.0734 -182.9251 L -545.0547 -183.2832 L -547.0392 -183.6504 L -549.6876 -184.1525 L -551.678 -184.5394 L -554.3357 -185.0692 L -556.3289 -185.4756 L -558.3201 -185.8901 L -560.9838 -186.4576 L -562.9789 -186.8918 L -564.9776 -187.3356 L -566.9766 -187.7854 L -568.9796 -188.2443 L -571.6456 -188.8671 L -573.6456 -189.3468 L -575.6446 -189.8397 L -577.6428 -190.3462 L -579.6424 -190.8661 L -581.6346 -191.3965 L -584.293 -192.1233 L -586.2861 -192.6826 L -588.9376 -193.4468 L -590.9299 -194.0352 L -593.567 -194.8329 L -595.5396 -195.4439 L -598.1724 -196.28 L -600.1382 -196.9197 L -602.0992 -197.5713 L -604.0617 -198.2361 L -606.6556 -199.1345 L -608.6021 -199.8229 L -610.5388 -200.5198 L -613.1174 -201.468 L -615.0427 -202.1914 L -616.9645 -202.9267 L -619.5243 -203.9263 L -621.4245 -204.683 L -623.329 -205.4543 L -625.8544 -206.4963 L -627.7452 -207.2917 L -630.2574 -208.3688 L -632.1309 -209.1865 L -634.6235 -210.2946 L -636.4863 -211.1377 L -638.9586 -212.2783 L -640.8061 -213.1459 L -642.6481 -214.0244 L -644.4903 -214.9163 L -646.9202 -216.1144 L -648.7399 -217.0295 L -650.5536 -217.9574 L -652.9542 -219.2127 L -654.7472 -220.1706 L -657.121 -221.4667 L -658.8932 -222.4548 L -660.6555 -223.4548 L -662.9918 -224.8079 L -664.7303 -225.8353 L -666.4651 -226.8783 L -668.7583 -228.2849 L -670.4702 -229.3557 L -672.1691 -230.4364 L -673.8607 -231.5307 L -675.545 -232.6399 L -677.7664 -234.1329 L -679.4244 -235.271 L -681.6143 -236.8066 L -683.2451 -237.9751 L -685.4021 -239.5533 L -687.0119 -240.7562 L -689.1291 -242.3703 L -690.7064 -243.5979 L -692.7936 -245.2553 L -694.3456 -246.5137 L -695.8892 -247.787 L -697.4178 -249.0704 L -699.4404 -250.8029 L -700.9417 -252.1151 L -702.4327 -253.4403 L -704.4032 -255.2276 L -705.8663 -256.5808 L -707.3186 -257.9467 L -709.2372 -259.7835 L -710.6646 -261.1725 L -712.0833 -262.5714 L -713.9547 -264.4454 L -715.3508 -265.867 L -716.7333 -267.2951 L -718.1099 -268.7366 L -719.9226 -270.6642 L -721.2762 -272.1252 L -722.6158 -273.59 L -723.9468 -275.0642 L -725.7082 -277.0456 L -727.0177 -278.5415 L -728.7484 -280.55 L -730.0392 -282.0722 L -731.7371 -284.1064 L -732.9998 -285.645 L -734.2545 -287.1952 L -735.4962 -288.7524 L -736.7295 -290.3213 L -737.9521 -291.9001 L -739.563 -294.017 L -740.7617 -295.6209 L -742.3362 -297.7684 L -743.5052 -299.3928 L -744.6641 -301.0291 L -746.1911 -303.2245 L -747.3254 -304.8853 L -748.4502 -306.5587 L -749.9345 -308.8089 L -751.0363 -310.5121 L -752.4871 -312.798 L -753.5667 -314.5318 L -754.9912 -316.8614 L -756.0504 -318.6255 L -757.1013 -320.4026 L -758.488 -322.7907 L -759.5181 -324.5984 L -760.5411 -326.4208 L -761.5583 -328.2603 L -762.5646 -330.1048 L -763.5678 -331.9673 L -764.8974 -334.4714 L -765.8872 -336.3594 L -766.8743 -338.2632 L -767.8586 -340.1814 L -768.8373 -342.1092 L -769.8137 -344.0515 L -770.7862 -346.0048 L -771.7548 -347.9713 L -773.0419 -350.6185 L -774.0005 -352.6143 L -774.957 -354.6261 L -776.2266 -357.3232 L -777.1797 -359.3656 L -778.127 -361.4082 L -779.3936 -364.1529 L -780.3457 -366.2257 L -781.6133 -368.9993 L -782.5654 -371.0929 L -783.5195 -373.1986 L -784.7874 -376.0094 L -785.7386 -378.1317 L -786.6898 -380.2625 L -787.9544 -383.1089 L -788.9052 -385.2608 L -790.1699 -388.1362 L -791.1152 -390.2979 L -792.0605 -392.469 L -792.9998 -394.6384 L -793.9365 -396.8101 L -795.1772 -399.696 L -796.106 -401.8611 L -797.0316 -404.0184 L -798.2601 -406.8826 L -799.1799 -409.0237 L -800.0966 -411.1554 L -801.0134 -413.2827 L -802.2348 -416.103 L -803.1525 -418.2088 L -804.0741 -420.307 L -805.3044 -423.0806 L -806.2302 -425.1453 L -807.4597 -427.8595 L -808.3762 -429.8617 L -809.2834 -431.8259 L -810.4726 -434.3754 L -811.3447 -436.2264 L -812.4831 -438.6191 L -813.3181 -440.3575 L -814.4067 -442.603 L -815.2096 -444.2444 L -816.0046 -445.8571 L -816.7938 -447.4464 L -817.5773 -449.0129 L -818.3536 -450.5529 L -819.1256 -452.0721 L -820.1522 -454.0688 L -820.9244 -455.5499 L -821.9616 -457.5067 L -822.7465 -458.9583 L -823.5413 -460.3986 L -824.345 -461.8211 L -825.4393 -463.6998 L -826.2744 -465.0832 L -827.1258 -466.4527 L -827.996 -467.8074 L -829.184 -469.5842 L -830.0987 -470.8952 L -831.3516 -472.6097 L -832.3165 -473.8649 L -833.6473 -475.5025 L -834.6744 -476.6964 L -836.09 -478.2411 L -837.1775 -479.3591 L -838.2963 -480.4448 L -839.4379 -481.4933 L -840.9973 -482.8329 L -842.1995 -483.7936 L -843.8332 -485.011 L -845.0869 -485.8773 L -846.786 -486.9663 L -848.0827 -487.7344 L -849.84 -488.6933 L -851.1746 -489.3605 L -852.5237 -489.9848 L -853.8873 -490.5668 L -855.2617 -491.1028 L -857.1119 -491.7554 L -858.507 -492.196 L -860.3763 -492.7276 L -861.7902 -493.0917 L -863.2095 -493.4256 L -865.1072 -493.8359 L -866.5389 -494.1193 L -868.4559 -494.4711 L -869.41 -494.6361 L -870.855 -494.8727 L -872.7825 -495.1666 L -874.2355 -495.3705 L -875.6859 -495.5591 L -877.6311 -495.789 L -879.0934 -495.9432 L -880.5566 -496.0833 L -882.5159 -496.2473 L -883.9874 -496.3535 L -885.9524 -496.4733 L -887.4261 -496.5465 L -888.9052 -496.6057 L -890.3859 -496.6505 L -891.8703 -496.6808 L -893.3547 -496.6965 L -894.8383 -496.6976 L -896.8237 -496.6775 L -898.311 -496.6454 L -899.8008 -496.5984 L -901.2939 -496.5367 L -903.2793 -496.432 L -904.7715 -496.3365 L -906.2656 -496.2261 L -908.252 -496.0569 L -909.7441 -495.9128 L -911.7322 -495.6981 L -913.2225 -495.5204 L -915.2081 -495.2607 L -916.696 -495.0497 L -918.1835 -494.8247 L -920.1595 -494.5048 L -921.6423 -494.2487 L -923.6088 -493.8879 L -925.0825 -493.602 L -926.5549 -493.3026 L -928.5071 -492.8846 L -929.969 -492.5558 L -931.4271 -492.2143 L -932.8818 -491.8599 L -934.3325 -491.4925 L -936.2609 -490.9832 L -937.7033 -490.5873 L -939.6194 -490.042 L -941.052 -489.6203 L -942.4827 -489.1866 L -943.9075 -488.7427 L -945.3284 -488.2881 L -946.7488 -487.8211 L -948.6278 -487.1846 L -950.0364 -486.693 L -951.4382 -486.1916 L -952.8351 -485.6796 L -954.6941 -484.9784 L -956.0808 -484.4406 L -957.9218 -483.7041 L -959.2953 -483.1365 L -960.6612 -482.5541 L -962.0195 -481.9546 L -963.368 -481.3365 L -965.149 -480.477 L -966.4707 -479.8057 L -968.2051 -478.872 L -969.4891 -478.1382 L -970.752 -477.3781 L -972.4044 -476.3141 L -973.6138 -475.4835 L -974.7987 -474.6207 L -976.3397 -473.4196 L -977.4615 -472.4843 L -978.5515 -471.517 L -979.6136 -470.5182 L -980.6387 -469.4921 L -981.952 -468.078 L -982.896 -466.985 L -983.8029 -465.8643 L -984.9544 -464.3312 L -985.7724 -463.1537 L -986.8015 -461.5475 L -987.5296 -460.3177 L -988.4371 -458.6462 L -989.0786 -457.371 L -989.877 -455.6516 L -990.4417 -454.3429 L -990.9808 -453.0179 L -991.492 -451.6842 L -992.1354 -449.8952 L -992.5941 -448.5361 L -993.0304 -447.1687 L -993.5793 -445.3277 L -993.9669 -443.9312 L -994.4454 -442.0638 L -994.7774 -440.6483 L -995.1797 -438.7505 L -995.4514 -437.3139 L -995.7715 -435.3911 L -995.9798 -433.9379 L -996.1603 -432.4795 L -996.3557 -430.5268 L -996.4681 -429.0501 L -996.5709 -427.084 L -996.6134 -425.6005 L -996.6239 -423.6213 L -996.5946 -422.132 L -996.5093 -420.1455 L -996.405 -418.6523 L -996.2155 -416.665 L -996.0319 -415.1744 L -995.8116 -413.6857 L -995.5558 -412.2037 L -995.1559 -410.2318 L -994.8149 -408.763 L -994.4354 -407.2974 L -994.0203 -405.8427 L -993.4103 -403.915 L -992.9094 -402.4792 L -992.1891 -400.5828 L -991.6067 -399.1711 L -990.782 -397.3088 L -990.1252 -395.9232 L -989.44 -394.552 L -988.7247 -393.1887 L -987.7294 -391.3909 L -986.9524 -390.0541 L -986.1501 -388.7277 L -985.045 -386.9777 L -984.1885 -385.6736 L -983.0178 -383.9521 L -982.1165 -382.6703 L -981.1939 -381.3948 L -979.9421 -379.7123 L -978.9782 -378.4576 L -977.6696 -376.7968 L -976.6662 -375.5578 L -975.3126 -373.9239 L -974.2772 -372.7021 L -973.2299 -371.4855 L -972.1702 -370.2731 L -970.7378 -368.6606 L -969.6526 -367.4566 L -968.5551 -366.2548 L -967.446 -365.0544 L -965.9514 -363.4592 L -965.1983 -362.6651 L -963.6766 -361.08 L -962.5212 -359.8928 L -960.9679 -358.3189 L -959.7888 -357.14 L -958.2026 -355.575 L -956.9984 -354.4036 L -955.3737 -352.8437 L -954.1409 -351.6777 L -952.4731 -350.1219 L -951.2106 -348.9613 L -949.9285 -347.7962 L -948.2083 -346.2537 L -946.8977 -345.093 L -945.5755 -343.9344 L -944.2419 -342.7764 L -942.891 -341.6152 L -941.0734 -340.0703 L -939.6927 -338.9095 L -937.8337 -337.3649 L -936.4196 -336.204 L -934.515 -334.6581 L -933.0693 -333.4983 L -931.6025 -332.3325 L -929.6197 -330.7753 L -928.1125 -329.6054 L -926.0778 -328.0424 L -924.5386 -326.8722 L -922.4582 -325.3038 L -920.8824 -324.1262 L -919.2922 -322.9454 L -917.1502 -321.3676 L -915.5268 -320.1811 L -913.8856 -318.9901 L -912.2343 -317.7993 L -910.5663 -316.6038 L -908.3246 -315.0069 L -906.6288 -313.8044 L -904.3453 -312.193 L -902.6223 -310.9819 L -900.8856 -309.7657 L -898.5501 -308.1366 L -896.7856 -306.911 L -895.0087 -305.6811 L -893.2213 -304.448 L -890.8187 -302.7975 L -889.0045 -301.556 L -886.5696 -299.8973 L -884.7286 -298.6483 L -882.8765 -297.3966 L -880.39 -295.7236 L -878.5161 -294.4682 L -876.6288 -293.2093 L -874.0966 -291.527 L -872.1863 -290.2636 L -869.621 -288.5737 L -867.6884 -287.3065 L -865.7474 -286.0381 L -863.7917 -284.7646 L -861.1796 -283.071 L -859.2012 -281.7944 L -856.5524 -280.0922 L -854.5532 -278.812 L -852.5443 -277.5294 L -850.5247 -276.2438 L -848.4994 -274.9585 L -845.7833 -273.2423 L -843.7356 -271.9542 L -840.9907 -270.235 L -838.9195 -268.943 L -836.8437 -267.6535 L -834.0571 -265.9298 L -831.9595 -264.6388 L -829.8526 -263.347 L -827.7359 -262.0545 L -825.6115 -260.762 L -822.7655 -259.0396 L -820.6201 -257.7491 L -817.746 -256.0311 L -815.5833 -254.7472 L -813.4073 -253.4629 L -810.4923 -251.7547 L -808.2969 -250.4775 L -806.0922 -249.2021 L -803.1419 -247.5073 L -800.9156 -246.2375 L -798.6842 -244.973 L -795.6875 -243.289 L -793.4415 -242.0371 L -791.1793 -240.7842 L -788.1519 -239.1199 L -785.869 -237.874 L -782.8215 -236.223 L -780.5244 -234.9889 L -777.4442 -233.3499 L -775.1293 -232.1309 L -772.8032 -230.9174 L -770.4678 -229.7094 L -767.3469 -228.1091 L -764.9885 -226.911 L -761.8447 -225.3309 L -759.4728 -224.1515 L -757.0941 -222.9795 L -753.907 -221.4237 L -751.514 -220.2659 L -748.3108 -218.729 L -745.8986 -217.5786 L -742.6791 -216.0492 L -740.2579 -214.9036 L -737.832 -213.7596 L -734.5912 -212.2374 L -732.1518 -211.0957 L -728.9006 -209.5795 L -726.4527 -208.4423 L -723.9996 -207.3066 L -720.728 -205.7987 L -718.2635 -204.6688 L -714.9759 -203.1711 L -712.5027 -202.0526 L -709.1871 -200.5667 L -706.7016 -199.4642 L -703.3684 -198.0012 L -700.8658 -196.9144 L -698.3535 -195.8342 L -695.8315 -194.7613 L -693.3065 -193.6974 L -690.7739 -192.6402 L -687.3882 -191.243 L -684.8404 -190.2048 L -682.2823 -189.1735 L -679.7241 -188.1517 L -676.3055 -186.7953 L -673.7373 -185.7806 L -670.3072 -184.4313 L -667.7214 -183.4189 L -664.2824 -182.0781 L -661.6955 -181.0746 L -659.1035 -180.0732 L -656.5076 -179.0744 L -653.0427 -177.7469 L -650.4428 -176.7546 L -647.8305 -175.7617 L -644.3525 -174.4457 L -641.7363 -173.4602 L -639.1135 -172.4759 L -635.6218 -171.1717 L -632.9918 -170.1954 L -629.4812 -168.9025 L -626.8161 -167.9293 L -623.3267 -166.666 L -620.6804 -165.7175 L -617.1418 -164.4628 L -614.4861 -163.5316 L -611.8193 -162.6049 L -609.1551 -161.6877 L -606.4784 -160.7748 L -603.7953 -159.8683 L -600.2284 -158.6762 L -597.5414 -157.7882 L -593.9508 -156.6147 L -591.2555 -155.743 L -587.6517 -154.5892 L -584.9445 -153.7296 L -581.3264 -152.5893 L -578.6118 -151.739 L -574.9909 -150.6095 L -572.2643 -149.7625 L -568.6357 -148.6396 L -565.9062 -147.7965 L -562.27 -146.6734 L -559.5356 -145.8291 L -555.893 -144.7045 L -553.1548 -143.8587 L -550.4136 -143.0113 L -547.6772 -142.1647 L -544.0209 -141.0313 L -541.2778 -140.1784 L -538.5356 -139.3227 L -534.8735 -138.1745 L -532.1284 -137.3095 L -529.3832 -136.4408 L -525.7182 -135.2758 L -522.9721 -134.3986 L -520.2234 -133.5168 L -517.4645 -132.6272 L -514.7265 -131.7406 L -511.9733 -130.8455 L -508.3074 -129.6482 L -505.5535 -128.7448 L -502.8025 -127.8404 L -499.1274 -126.6314 L -496.37 -125.7257 L -492.6906 -124.5204 L -489.925 -123.6167 L -486.2365 -122.4147 L -483.4675 -121.515 L -479.7733 -120.3185 L -476.9945 -119.4213 L -473.2956 -118.2304 L -470.512 -117.337 L -467.7318 -116.4467 L -464.0185 -115.2601 L -461.2315 -114.3711 L -457.5149 -113.187 L -454.7248 -112.2986 L -451.9267 -111.4073 L -449.1393 -110.5188 L -446.3447 -109.6275 L -442.6167 -108.438 L -439.8199 -107.5452 L -436.089 -106.3533 L -433.2906 -105.4589 L -430.4861 -104.5624 L -427.6849 -103.667 L -424.8787 -102.7697 L -421.1438 -101.5753 L -418.3357 -100.6773 L -414.5945 -99.4812 L -411.7838 -98.584 L -408.0332 -97.3903 L -405.2173 -96.4969 L -402.4048 -95.6069 L -399.5869 -94.7179 L -395.8315 -93.537 L -393.0112 -92.6528 L -390.188 -91.7702 L -387.3586 -90.8882 L -384.5392 -90.0114 L -381.7089 -89.1334 L -378.882 -88.258 L -375.1098 -87.0909 L -372.2719 -86.2126 L -369.4443 -85.3371 L -366.6113 -84.4589 L -362.8388 -83.2856 L -360.0063 -82.402 L -357.1713 -81.5162 L -354.3388 -80.6299 L -351.5087 -79.7432 L -347.7304 -78.5576 L -344.8964 -77.6669 L -341.1171 -76.4773 L -338.2831 -75.5838 L -335.4448 -74.688 L -331.6684 -73.4941 L -328.83 -72.5959 L -326.0019 -71.7 L -323.1664 -70.8018 L -319.3895 -69.6054 L -316.5526 -68.7074 L -312.7766 -67.5135 L -309.9367 -66.6168 L -306.1647 -65.4266 L -303.3303 -64.5326 L -300.4977 -63.6398 L -296.7204 -62.45 L -293.88 -61.5557 L -291.0463 -60.6635 L -288.2203 -59.7733 L -284.4547 -58.5871 L -281.6214 -57.6947 L -277.8694 -56.5129 L -275.0546 -55.6264 L -272.2409 -54.7402 L -268.5298 -53.5711 L -265.7527 -52.6959 L -262.9955 -51.8268 L -259.36 -50.6801 L -256.6631 -49.8291 L -253.9981 -48.988 L -250.4857 -47.8794 L -247.8975 -47.0625 L -245.3433 -46.2563 L -242.8289 -45.463 L -240.361 -44.6844 L -237.9346 -43.9187 L -235.526 -43.1586 L -232.4572 -42.1902 L -230.1794 -41.4713 L -227.2074 -40.533 L -225.0308 -39.8455 L -222.8884 -39.1689 L -220.1074 -38.2908 L -218.07 -37.6476 L -216.076 -37.0183 L -214.1268 -36.4033 L -212.2219 -35.8022 L -209.7404 -35.0192 L -207.9325 -34.4484 L -205.5874 -33.7082 L -203.881 -33.17 L -202.2178 -32.6452 L -200.6016 -32.135 L -198.5139 -31.4753 L -196.9721 -30.9878 L -195.5084 -30.5248 L -193.5568 -29.9073 L -192.1079 -29.4488 L -190.1893 -28.8418 L -188.7602 -28.3897 L -186.8589 -27.7883 L -185.4363 -27.3384 L -184.0171 -26.8895 L -182.6041 -26.4429 L -181.1938 -25.9977 L -179.787 -25.5549 L -178.3837 -25.1153 L -176.9846 -24.6794 L -175.5849 -24.2465 L -173.7302 -23.6784 L -172.3405 -23.2579 L -170.4909 -22.7086 L -169.107 -22.3071 L -167.7196 -21.9155 L -166.3385 -21.5382 L -164.4949 -21.0564 L -163.1124 -20.7148 L -161.7312 -20.39 L -160.3461 -20.083 L -158.5056 -19.7068 L -157.1226 -19.4478 L -155.7388 -19.21 L -154.3587 -18.9948 L -152.5174 -18.7404 L -151.1405 -18.5748 L -149.3061 -18.3863 L -147.9329 -18.2703 L -146.5628 -18.1758 L -144.7377 -18.0826 L -143.3757 -18.0409 L -141.5627 -18.0175 L -140.2038 -18.0271 L -138.4061 -18.0749 L -137.0608 -18.1347 L -135.2665 -18.2476 L -133.9258 -18.3551 L -132.1388 -18.5272 L -130.798 -18.6776 L -129.4577 -18.8449 L -128.1158 -19.0292 L -126.7724 -19.2303 L -125.4271 -19.4473 L -123.6294 -19.7614 L -122.2807 -20.0148 L -120.928 -20.2844 L -119.1213 -20.6673 L -117.762 -20.9737 L -116.4006 -21.2957 L -115.0349 -21.6326 L -113.6685 -21.9842 L -111.8395 -22.4739 L -110.4667 -22.8558 L -108.6297 -23.3844 L -107.2473 -23.795 L -105.8638 -24.2178 L -104.4761 -24.6531 L -102.6192 -25.252 L -101.2228 -25.7139 L -99.3554 -26.3451 L -97.948 -26.8294 L -96.5368 -27.3207 L -94.6486 -27.9863 L -93.2242 -28.4938 L -91.3186 -29.1797 L -89.8834 -29.7019 L -88.4443 -30.2304 L -86.998 -30.7674 L -85.0633 -31.4969 L -83.6097 -32.0556 L -82.1468 -32.6282 L -80.2001 -33.4073 L -78.7346 -34.007 L -77.264 -34.6196 L -75.3 -35.4536 L -73.8229 -36.0915 L -71.8464 -36.9587 L -70.36 -37.6209 L -68.3698 -38.5211 L -66.8778 -39.2062 L -65.3797 -39.9028 L -63.8783 -40.6095 L -62.3718 -41.3271 L -60.8654 -42.053 L -58.8482 -43.0384 L -57.334 -43.7879 L -55.3077 -44.8044 L -53.7868 -45.5786 L -52.2603 -46.3649 L -50.2265 -47.4282 L -48.6976 -48.2389 L -47.1652 -49.0612 L -45.6354 -49.8925 L -43.5885 -51.0207 L -42.0523 -51.8792 L -40.0033 -53.0401 L -38.4647 -53.9239 L -36.9242 -54.8195 L -34.8735 -56.0298 L -33.3347 -56.9523 L -31.7975 -57.8869 L -30.2596 -58.8352 L -28.7249 -59.7952 L -26.6783 -61.0961 L -25.147 -62.0853 L -23.1057 -63.425 L -21.5794 -64.4429 L -20.0535 -65.4749 L -18.0228 -66.8708 L -16.5055 -67.9317 L -14.4864 -69.3674 L -12.9746 -70.461 L -10.968 -71.9357 L -9.453 -73.0671 L -7.4451 -74.5915 L -5.9431 -75.7505 L -4.4403 -76.9258 L -2.4528 -78.5059 L -.9631 -79.7075 L 1.0147 -81.3251 L 2.4958 -82.5506 L 3.9733 -83.7847 L 5.4488 -85.0285 L 7.4158 -86.7043 L 8.8853 -87.9704 L 10.8454 -89.6766 L 12.3108 -90.9653 L 13.7764 -92.2629 L 15.2409 -93.5685 L 16.7053 -94.8815 L 18.1682 -96.201 L 20.1214 -97.9732 L 21.5837 -99.3081 L 23.0481 -100.6503 L 24.5133 -101.9994 L 25.9805 -103.3557 L 27.935 -105.1716 L 29.4008 -106.5404 L 30.8717 -107.92 L 32.3353 -109.2987 L 33.8058 -110.6897 L 35.2752 -112.0855 L 37.2337 -113.9554 L 38.7068 -115.3692 L 40.6651 -117.2583 L 42.1371 -118.6858 L 43.6118 -120.122 L 45.0872 -121.5653 L 47.0518 -123.4963 L 48.5351 -124.9598 L 50.5041 -126.9062 L 51.9877 -128.3738 L 53.4789 -129.8487 L 54.972 -131.3251 L 56.9689 -133.2989 L 58.4739 -134.7858 L 60.4841 -136.7708 L 62.0001 -138.2668 L 64.0258 -140.2641 L 65.5512 -141.7669 L 67.0839 -143.2755 L 68.6204 -144.7862 L 70.1627 -146.3011 L 72.2301 -148.33 L 73.7873 -149.8567 L 75.8684 -151.8954 L 77.4377 -153.4317 L 79.5366 -155.4846 L 81.1179 -157.0298 L 83.2338 -159.0954 L 84.8291 -160.651 L 86.9604 -162.7265 L 88.5661 -164.2882 L 90.1809 -165.8574 L 91.793 -167.423 L 93.4145 -168.9969 L 95.0401 -170.5736 L 97.2135 -172.6796 L 98.8464 -174.2602 L 100.4921 -175.8515 L 102.6751 -177.9597 L 104.3222 -179.5484 L 106.5142 -181.6602 L 108.1606 -183.2451 L 110.35 -185.351 L 111.985 -186.9224 L 113.6168 -188.4891 L 115.2421 -190.0476 L 116.8564 -191.5936 L 118.4573 -193.1253 L 120.5743 -195.1487 L 122.1444 -196.6479 L 123.6998 -198.1319 L 125.2382 -199.5978 L 127.2573 -201.5191 L 128.748 -202.9346 L 130.2199 -204.3307 L 131.6639 -205.6981 L 133.5574 -207.4885 L 134.9446 -208.7983 L 136.3046 -210.0807 L 138.0703 -211.7434 L 139.3599 -212.9557 L 141.03 -214.5227 L 142.2441 -215.6586 L 143.8118 -217.1219 L 144.9497 -218.1814 L 146.4167 -219.5428 L 147.4816 -220.5271 L 148.843 -221.778 L 149.8227 -222.6728 L 151.068 -223.804 L 151.9553 -224.6067 L 152.8035 -225.3712 L 153.6183 -226.1026 L 154.6692 -227.0419 L 155.4441 -227.7317 L 156.4674 -228.6384 L 157.2291 -229.3102 L 157.9899 -229.9781 L 159.003 -230.8619 L 159.7635 -231.5208 L 160.5218 -232.1745 L 161.5336 -233.0413 L 162.2909 -233.6859 L 163.0482 -234.3272 L 164.0569 -235.1764 L 164.8121 -235.8081 L 165.5688 -236.4375 L 166.324 -237.0621 L 167.3284 -237.8873 L 168.0818 -238.5013 L 168.8353 -239.1117 L 169.5894 -239.7184 L 170.5921 -240.5175 L 171.3443 -241.1111 L 172.0992 -241.701 L 172.8524 -242.2841 L 173.6069 -242.8623 L 174.362 -243.4354 L 175.3689 -244.1905 L 176.1279 -244.7519 L 177.1365 -245.488 L 177.8964 -246.0352 L 178.6618 -246.5775 L 179.4274 -247.1109 L 180.4529 -247.811 L 181.2235 -248.326 L 182.2558 -248.9999 L 183.0323 -249.4949 L 183.8116 -249.9807 L 184.5936 -250.4551 L 185.3808 -250.9168 L 186.1724 -251.3629 L 187.238 -251.9327 L 188.0444 -252.338 L 189.1302 -252.8437 L 189.955 -253.1939 L 190.7871 -253.5156 L 191.9042 -253.8956 L 192.751 -254.1404 L 193.8886 -254.4095 L 194.743 -254.5653 L 195.5968 -254.6784 L 196.4472 -254.7466 L 197.5717 -254.771 L 198.4029 -254.7378 L 199.4889 -254.6257 L 200.2852 -254.4937 L 201.0622 -254.3194 L 202.0647 -254.0251 L 202.7904 -253.7602 L 203.492 -253.4613 L 204.168 -253.1278 L 205.0262 -252.6347 L 205.6385 -252.232 L 206.4082 -251.6536 L 206.9521 -251.1932 L 207.4681 -250.7108 L 208.116 -250.0425 L 208.5764 -249.5268 L 209.0205 -249.004 L 209.5945 -248.3052 L 210.0168 -247.7809 L 210.5704 -247.0884 L 210.9828 -246.5753 L 211.3954 -246.07 L 211.9463 -245.4105 L 212.361 -244.9254 L 212.9145 -244.2924 L 213.3301 -243.8263 L 213.7466 -243.3682 L 214.1643 -242.9178 L 214.7206 -242.3311 L 215.1395 -241.8992 L 215.5584 -241.4758 L 215.9779 -241.0596 L 216.3977 -240.6509 L 216.958 -240.1171 L 217.3797 -239.7247 L 217.8027 -239.34 L 218.2286 -238.9618 L 218.6583 -238.5892 L 219.0911 -238.2227 L 219.5279 -237.861 L 220.1181 -237.385 L 220.5658 -237.0334 L 221.0203 -236.6844 L 221.6328 -236.2268 L 222.0999 -235.8876 L 222.5737 -235.5528 L 223.2151 -235.1137 L 223.7044 -234.7896 L 224.3685 -234.3642 L 224.8755 -234.0503 L 225.5632 -233.6401 L 226.0872 -233.3393 L 226.6187 -233.0446 L 227.3371 -232.6638 L 227.884 -232.3875 L 228.4367 -232.1203 L 228.9939 -231.8635 L 229.7475 -231.5357 L 230.3171 -231.303 L 230.8928 -231.0807 L 231.474 -230.8694 L 232.0611 -230.6694 L 232.6534 -230.4816 L 233.4509 -230.2498 L 234.0539 -230.0904 L 234.6622 -229.9431 L 235.2749 -229.8084 L 236.099 -229.6495 L 236.724 -229.5457 L 237.5605 -229.4311 L 238.1925 -229.3628 L 238.8277 -229.3103 L 239.6799 -229.2656 L 240.3215 -229.2504 L 240.967 -229.2514 L 241.616 -229.2687 L 242.267 -229.3023 L 243.1389 -229.3735 L 243.7975 -229.4472 L 244.4574 -229.5387 L 245.3387 -229.6886 L 246.0017 -229.8226 L 246.666 -229.9755 L 247.3318 -230.1475 L 247.999 -230.3392 L 248.8899 -230.6264 L 249.5575 -230.8652 L 250.4523 -231.2179 L 251.1267 -231.5089 L 252.0226 -231.9293 L 252.6962 -232.2716 L 253.369 -232.6365 L 254.0412 -233.0237 L 254.7132 -233.4335 L 255.6067 -234.0131 L 256.2766 -234.4734 L 256.9478 -234.9547 L 257.6196 -235.4548 L 258.2922 -235.9738 L 258.968 -236.5121 L 259.8731 -237.2575 L 260.5555 -237.8365 L 261.2433 -238.4331 L 261.9352 -239.0452 L 262.8686 -239.8866 L 263.5764 -240.534 L 264.2924 -241.1959 L 265.2626 -242.1013 L 266.0007 -242.7949 L 266.7511 -243.5022 L 267.5143 -244.2216 L 268.5532 -245.1969 L 269.3507 -245.9396 L 270.1656 -246.6908 L 270.9964 -247.4478 L 272.1342 -248.4692 L 273.0086 -249.2394 L 273.9044 -250.0156 L 275.1273 -251.0569 L 276.0684 -251.8431 L 277.0312 -252.6356 L 278.3382 -253.6945 L 279.3428 -254.4955 L 280.367 -255.3009 L 281.7599 -256.3792 L 282.8266 -257.1914 L 284.2725 -258.274 L 285.3804 -259.0884 L 286.5047 -259.9 L 288.0334 -260.979 L 289.2006 -261.7814 L 290.3842 -262.5767 L 291.9842 -263.6233 L 293.2028 -264.3976 L 294.845 -265.4118 L 296.0928 -266.16 L 297.7724 -267.1358 L 299.0468 -267.8508 L 300.3328 -268.5532 L 302.0823 -269.4721 L 303.4109 -270.144 L 304.7483 -270.7977 L 306.0977 -271.4339 L 307.9114 -272.2545 L 309.2825 -272.8493 L 311.1266 -273.6151 L 312.5229 -274.1681 L 314.3971 -274.8757 L 315.8116 -275.3828 L 317.2407 -275.8716 L 319.1562 -276.4944 L 320.603 -276.9366 L 322.0612 -277.3628 L 324.0128 -277.8988 L 325.487 -278.2811 L 327.4613 -278.7643 L 328.9533 -279.1073 L 330.479 -279.4409 L 332.4489 -279.8419 L 333.9576 -280.1301 L 335.9785 -280.4862 L 337.4996 -280.7342 L 339.0284 -280.9645 L 341.071 -281.2426 L 342.6095 -281.431 L 344.1548 -281.6001 L 345.7013 -281.7517 L 347.7732 -281.9236 L 349.3304 -282.0308 L 350.8934 -282.118 L 352.9832 -282.2025 L 354.5521 -282.2436 L 356.654 -282.2654 L 358.2314 -282.2596 L 359.8129 -282.2325 L 361.9283 -282.1657 L 363.5166 -282.0919 L 365.109 -281.9978 L 367.2364 -281.8403 L 368.8297 -281.6984 L 370.4279 -281.5357 L 372.0295 -281.3509 L 373.6292 -281.1464 L 375.7693 -280.8395 L 377.3718 -280.5858 L 378.9773 -280.3103 L 380.58 -280.0138 L 382.1884 -279.6948 L 384.3296 -279.2358 L 385.9404 -278.8656 L 387.5521 -278.4713 L 389.7061 -277.9104 L 391.3224 -277.4614 L 392.9414 -276.991 L 394.5619 -276.4984 L 396.1841 -275.9829 L 398.3519 -275.2622 L 399.9754 -274.6982 L 401.6034 -274.1138 L 403.7796 -273.302 L 405.4114 -272.6716 L 407.0473 -272.0208 L 409.2321 -271.1233 L 410.8709 -270.4288 L 412.5155 -269.7139 L 414.7066 -268.7327 L 416.3551 -267.9729 L 418.0071 -267.1923 L 420.2116 -266.1216 L 421.8706 -265.2935 L 424.0841 -264.1619 L 425.759 -263.2856 L 427.9917 -262.0912 L 429.6703 -261.1748 L 431.3549 -260.2398 L 433.6027 -258.9687 L 435.2932 -257.9959 L 436.9872 -257.0078 L 439.2473 -255.6707 L 440.9499 -254.6513 L 442.6568 -253.6198 L 444.9388 -252.2276 L 446.6521 -251.1728 L 448.9523 -249.7442 L 450.6766 -248.6638 L 452.9879 -247.2021 L 454.7253 -246.0926 L 456.4972 -244.9489 L 458.7848 -243.4515 L 460.5274 -242.2916 L 462.2688 -241.1149 L 464.5872 -239.5204 L 466.3237 -238.3045 L 468.0605 -237.0707 L 470.3717 -235.3993 L 472.1025 -234.126 L 473.8315 -232.8353 L 476.1313 -231.0883 L 477.8558 -229.7565 L 479.5726 -228.4112 L 481.291 -227.0456 L 483.5691 -225.2042 L 485.2757 -223.8004 L 486.9792 -222.3782 L 489.2385 -220.4588 L 490.9323 -218.9961 L 492.619 -217.5199 L 494.3063 -216.023 L 496.5413 -214.0067 L 498.2082 -212.4775 L 499.8734 -210.9276 L 502.084 -208.8352 L 503.7341 -207.2473 L 505.3815 -205.6406 L 507.5639 -203.4794 L 509.1964 -201.8385 L 510.8185 -200.1871 L 512.4402 -198.5156 L 514.0533 -196.8325 L 515.6686 -195.1251 L 517.7943 -192.8465 L 519.3888 -191.1149 L 520.9837 -189.3636 L 522.5724 -187.601 L 524.6837 -185.2313 L 526.2638 -183.4408 L 527.8406 -181.642 L 529.4174 -179.8307 L 530.9994 -178.0017 L 533.1029 -175.5583 L 534.6879 -173.7109 L 536.2975 -171.8335 L 538.4034 -169.3789 L 540.0093 -167.5088 L 542.1513 -165.0181 L 543.7706 -163.1389 L 545.9343 -160.6327 L 547.5662 -158.7464 L 549.198 -156.8633 L 550.8318 -154.9801 L 553.0076 -152.4757 L 554.634 -150.6059 L 556.8005 -148.1182 L 558.4182 -146.2622 L 560.0478 -144.3945 L 562.1821 -141.9506 L 563.7885 -140.1136 L 565.3947 -138.2785 L 567.5247 -135.8473 L 569.1237 -134.0243 L 570.713 -132.2143 L 572.8311 -129.8044 L 574.4131 -128.0065 L 575.9953 -126.2096 L 578.0945 -123.8276 L 579.6678 -122.0432 L 581.2352 -120.2645 L 583.3156 -117.9021 L 584.3531 -116.7229 L 585.9078 -114.9544 L 587.4547 -113.1922 L 588.9957 -111.4345 L 590.5319 -109.6801 L 592.5736 -107.3444 L 594.0979 -105.5983 L 595.6164 -103.8563 L 597.1327 -102.1149 L 599.1442 -99.7998 L 600.6475 -98.0672 L 602.6416 -95.7656 L 604.1328 -94.0426 L 605.6249 -92.317" stroke-width="28" stroke="grey" fill="none" id="Track"/></svg>