<svg class="track" xmlns="http://www.w3.org/2000/svg" preserveAspectRatio="xMinYMid meet" height="350" width="600" viewBox="-900 -100 1 1200">
  <path d="m-716.406 658.395 5.447 3.817 4.523 3.195 6.094 4.336 4.785 3.43 6.019 4.343 6.54 4.744 6.664 4.84 5.158 3.749 6.404 4.668 6.853 5.021 6.49 4.775 6.937 5.105 6.164 4.531 5.375 3.95 7.062 5.199 5.446 4.017 6.747 4.977 5.518 4.069 7.26 5.358 7.311 5.408 7.367 5.453 5.672 4.183 7.477 5.5 5.742 4.24 7.087 5.273 7.114 5.33 7.594 5.71 7.183 5.411 13.56 10.244 13.223 10.021 13.846 10.425 13.57 10.082 14.18 10.499 7.608 5.647 8.58 6.386 6.214 4.637 8.14 6.088 6.237 4.676 7.683 5.776 7.689 5.795 8.174 6.177 6.252 4.736 8.173 6.206 7.689 5.855 8.162 6.227 8.16 6.228 8.148 6.222 8.145 6.215 13.864 10.58 7.62 5.832 6.167 4.745 8.023 6.203 6.543 5.077 7.786 6.04 6.706 5.188 12.963 9.968 11.96 9.142 11.448 8.625 5.492 4.037 4.878 3.52 9.018 6.27 10.713 6.518 3.475 1.842 4.85 2.307 3.655 1.51 4.41 1.55 3.465.961 4.114.777 3.445.319 3.733-.01 3.493-.352 3.424-.731 3.086-1.09 2.73-1.386 2.248-1.467 1.986-1.516 1.848-1.615.964-.963 1.474-1.679 1.246-1.648 1.122-1.723.635-1.116 1.323-2.824.998-2.847.73-2.843.371-1.975.323-2.557.151-2.853-.245-5.339-.374-3.028-.508-3.156-1.242-6.056-1.65-6.531-1.15-3.796-1.552-4.416-1.3-3.274-1.796-4.118-1.992-4.214-2.159-4.317-1.855-3.592-2.552-4.829-2.056-3.816-2.82-5.147-2.415-4.371-2.836-5.17-2.337-4.348-2.865-5.524-2.274-4.624-2.996-6.573-2.017-4.826-2.305-6.002-1.73-4.918-2.067-6.476-1.405-4.979-1.404-5.764-1.296-6.551-.97-6.566-.503-5.036-.315-6.208.006-5.048.413-6.977.51-4.678 1.077-7.064.897-4.735 1.38-6.329 1.285-5.116 1.83-6.207 1.863-5.346 1.338-3.404 2.827-6.342 3.016-5.84 5.836-9.528 4.106-5.801 3.581-4.69 4.253-5.298 4.686-5.553 9.154-9.632 9.69-8.5 5.14-3.92 6.035-4.159 6.253-3.876 6.06-3.43 6.582-3.524 6.298-3.319 6.405-3.37 6.926-3.649 5.379-2.836 7.14-3.77 5.534-2.93 7.305-3.93 5.17-2.86 6.82-3.92 5.811-3.514 6.39-4.114 6.055-4.245 5.677-4.403 4.661-3.972 4.962-4.66 4.03-4.177 4.29-4.88 3.283-4.042 4.103-5.376 3.037-4.151 3.631-5.162 2.876-4.24 3.66-5.628 2.7-4.385 3.387-5.853 2.498-4.566 3.009-5.697 3.215-6.085 3.142-5.692 2.673-4.54 3.688-5.739 3.908-5.436 3.869-4.84 2.517-2.89 3.395-3.606 3.261-3.179 4.244-3.83 3.792-3.25 5.07-4.229 3.948-3.24 4.973-3.944 3.828-2.894 5.561-4.002 4.32-3.025 5.313-3.748 5.162-3.812 5.186-4.148 3.728-3.256 4.292-4.104 3.238-3.417 3.908-4.587 2.76-3.607 3.188-4.545 2.663-4.059 2.96-4.704 2.334-3.875 2.873-5.184 2.167-4.38 2.354-5.456 1.565-4.262 1.763-5.672 1.095-4.052 1.454-5.812 1.145-4.483 1.528-5.54 3.147-10.131 3.742-10.599 4.318-10.094 5.456-9.969 6.065-8.569 4.138-4.758 4.194-4.175 8.44-7.205 8.669-6.32 9.43-5.799 10.252-4.822 10.292-3.188 5.924-1.207 5.976-.874 6.005-.524 5.66-.14 5.644.223 5.613.57 4.544.686 5.93 1.163 4.517 1.098 5.871 1.702 4.45 1.5 5.762 2.214 4.378 1.862 5.371 2.454 5.718 2.746 5.408 2.68 5.793 2.914 10.42 5.113 10.66 4.634 5.693 2.031 5.648 1.618 10.064 1.756 9.705.376 5.16-.236 5.326-.541 8.511-1.48 9.156-2.412 8.688-3.112 6.517-2.991 2.769-1.503 3.504-2.16 4.415-3.154 3.276-2.627 3.96-3.44 3.199-2.95 4.185-4.043 3.196-3.226 4.376-4.679 2.857-3.267 3.915-4.82 2.873-3.829 3.625-5.15 2.717-3.994 3.356-4.831 3.667-4.838 3.614-4.162 3.807-3.713 4.253-3.404 4.188-2.722 4.347-2.315 3.355-1.507 4.868-1.817 4.682-1.34 4.748-.938 4.764-.506 4.749-.09 3.834.22 4.971.662 3.762.79 4.816 1.432 3.555 1.413 4.213 2.097 4.271 2.614 3.854 2.74 3.75 2.923 3.943 3.26 3.996 3.309 3.88 3.078 4.002 2.966 3.322 2.25 4.388 2.632 3.39 1.755 4.471 1.944 3.485 1.263 4.375 1.343 3.906 1.012 4.863 1.046 3.812.665 5.122.7 4.033.4 5.419.303 4.238.025 5.279-.25 4.598-.514 5.207-.916 4.557-1.015 4.917-1.213 3.974-.99 5.705-1.377 4.414-1.037 5.506-1.288 4.897-1.173 5.692-1.422 5.084-1.327 6.295-1.725 4.897-1.413 6.137-1.86 5.072-1.602 6.754-2.206 5.255-1.768 6.567-2.276 5.834-2.096 7.174-2.69 6.394-2.533 6.837-2.896 5.495-2.514 6.553-3.312 5.484-3.102 6.396-3.997 4.736-3.2 5.345-3.792 5.954-4.375 5.497-4.198 5.353-4.318 4.556-3.894 3.201-2.864 3.177-2.944 4.114-3.956 4.11-4.105 5.055-5.262 3.78-4.094 5.02-5.657 5.291-6.255 4.951-6.112 5.262-6.71 4.99-6.52 4.094-5.457 5.398-7.327 4.518-6.179 5.303-7.172 5.836-7.706 5.697-7.314 2.548-3.225 6.287-7.896 6.416-8.022 6.155-7.674 5.096-6.34 6.4-7.94 5.308-6.575 7.078-8.79 5.933-7.39 7.306-9.096 5.59-6.942 6.567-8.133 4.904-6.052 5.505-6.772 4.984-6.11 4.947-6.036 4.543-5.537 3.7-4.532 3.516-4.357 2.768-3.48 3.044-3.888 2.556-3.33 2.551-3.404 2.5-3.464 2.07-3.028 1.532-2.381 1.8-3.017 1.22-2.238 1.373-2.842 1.123-2.727.781-2.317.551-2.106.427-2.37.274-3.003.057-1.394.01-2.748-.16-2.896-.377-2.76-.741-2.993-.755-2.04-1.26-2.494-1.158-1.784-1.768-2.22-1.668-1.722-2.12-1.802-1.714-1.205-2.545-1.45-2.439-1.05-2.605-.799-2.649-.52-2.739-.332-2.736-.233-3.11-.167-3.336-.044-2.915.078-3.277.227-4.114.495-3.56.62-8.42 2.184-5.747 1.899-3.845 1.343-4.59 1.64-4.205 1.536-5.358 1.996-8.041 3.026-6.027 2.289-6.285 2.394-10.513 3.948-9.046 3.329-7.264 2.662-7.491 2.745-7.257 2.64-7.443 2.673-14.44 5.088-8.447 2.92-8.11 2.78-6.179 2.117-7.83 2.692-9.009 3.096-8.619 2.937-9.305 3.13L756.2 27.5l-7.354 2.387-9.676 3.077-7.52 2.348-9.938 3.062-7.683 2.342-10.184 3.07-7.907 2.36-10.495 3.101-8.142 2.38-9.553 2.767-10.903 3.122-11.089 3.14-9.233 2.6-10.648 3.016-10.742 3.075-11.51 3.317-11.616 3.34-20.759 5.797-21.815 5.715-20.725 5.173-11.536 2.907-12.328 3.156-20.517 5.148-21.554 5.118-22.577 5.214-23.604 5.373-23.905 5.311-23.415 4.986-13.39 2.723-12.683 2.472-10.351 1.961-12.792 2.38-11.234 2.071-13.681 2.518-10.497 1.908-12.969 2.307-10.569 1.837-13.05 2.226-13.133 2.203-14.962 2.468-10.924 1.775-14.384 2.315-11.073 1.773-13.684 2.184-10.3 1.633-14.587 2.27-11.966 1.804-13.587 1.99-10.945 1.567-13.348 1.867-10.743 1.462-13.893 1.823-17.655 2.187-12.436 1.478-4.593.543-15.85 1.905-17.03 2.129-8.738 1.102-9.936 1.24-11.624 1.421-8.512 1.022-9.933 1.18-7.603.902-9.318 1.127-6.705.832-8.261 1.05-5.907.762-7.042.915-4.808.627-5.831.755-4.373.56-3.65.46-6.806.865-4.795.633-3.985.566-4.394.715-3.43.68-4.28 1.06-3.318.997-3.52 1.281-2.635 1.16-2.9 1.53-1.94 1.214-2.178 1.578-1.532 1.235-1.877 1.678-1.436 1.452-1.537 1.754-1.168 1.505-1.32 1.945-1.231 2.178-1.71 4.11-.635 2.273-.421 2.257-.245 2.4-.06 2.276.047 1.868.165 2.487.239 2.108.41 2.469.47 2.028.757 2.486.763 2.006 1.19 2.606 1.138 2.18 1.469 2.596 1.438 2.38 1.458 2.31 4.01 5.792 4.45 5.359 5.705 5.673 3.38 3.041 3.814 3.37 3.804 3.368 4.32 3.83 4.61 4.057 4.58 3.972 3.87 3.303 4.905 4.143 4.049 3.428 4.966 4.335 3.94 3.656 4.672 4.68 4.478 4.87 4.571 5.349 4.115 5.198 3.876 5.357 2.924 4.448 3.234 5.517 2.585 5.142 2.248 5.473 1.23 3.8.997 4.018.646 3.592.446 4.193.084 3.07-.2 3.604-.443 2.978-.79 3.182-1.031 2.967-1.299 3.01-1.392 2.715-1.572 2.555-1.302 1.796-2.034 2.4-1.695 1.73-2.385 2.11-1.794 1.376-2.864 1.88-2.396 1.318-2.916 1.341-2.508.953-3.254 1.014-2.989.75-3.57.679-3.719.44-4.092.158-4.46-.218-3.791-.485-4.353-.871-3.093-.813-4.39-1.415-3.342-1.29-4.318-1.977-3.244-1.733-4.142-2.556-3.072-2.176-3.862-3.143-2.818-2.616-3.506-3.69-2.352-2.777-2.997-3.911-2.537-3.618-2.836-4.338-2.49-3.964-2.888-4.694-3.099-5.175-2.925-5.05-3.13-5.593-2.98-5.452-3.243-5.97-3.15-5.702-2.627-4.557-3.329-5.374-3.034-4.462-3.624-4.785-3.07-3.636-4.16-4.402-3.22-3.05-3.897-3.344-3.368-2.625-3.835-2.714-3.767-2.364-3.756-2.019-3.463-1.512-2.526-.868-3.219-.83-2.923-.5-2.954-.287-2.781-.106-2.648.039-1.993.115-2.583.271-2.413.406-2.377.585-2.445.841-2.204 1-2.094 1.188-2.114 1.457-1.663 1.35-1.91 1.821-1.762 2.006-1.493 2.052-1.317 2.206-.938 1.91-.984 2.488-.65 2.113-.606 2.701-.384 2.804-.134 2.866.085 2.333.356 3.052.64 3.292.78 3.078.986 3.223 1.293 3.578 1.677 3.926 1.772 3.58 2.249 4.135 1.752 3.07 2.434 4.113 2.47 3.946 2.695 3.98 2.182 2.992 3.322 4.245 2.526 3.025 3.849 4.36 3.868 4.192 4.054 4.315 4.446 4.736 3.716 4 3.442 3.77 3.895 4.4 3.278 3.87 4.108 5.147 3.897 5.254 3.487 5.047 2.507 3.872 3.157 5.244 3.134 5.735 2.707 5.54 2.597 6.034 2.281 6.182 1.838 5.942 1.597 6.434 1.154 6.144 1.292 11.702.232 11.434-.796 11.457-1.92 11.762-1.38 5.815-1.545 5.367-2.062 6.054-1.905 4.843-2.628 5.855-2.555 5.012-3.419 5.935-2.833 4.412-3.742 5.275-3.498 4.463-4.235 4.915-3.616 3.848-4.66 4.533-3.961 3.502-5.09 4.07-4.635 3.327-5.492 3.54-4.96 2.863-5.824 3.022-6.335 2.942-6.07 2.543-4.975 1.907-6.11 2.128-5.314 1.629-6.42 1.655-5.261 1.087-6.008.935-4.883.51-6.373.327-5.237.001-5.973-.25-4.848-.377-6.348-.687-4.855-.659-5.97-.981-4.844-.95-6.314-1.474-4.431-1.22-5.495-1.762-5.073-1.888-5.719-2.441-4.927-2.382-5.55-2.996-4.462-2.644-5.442-3.488-5.402-3.719-5.343-3.95-5.239-4.215-5.417-4.778-4.024-3.857-5.086-5.305-3.758-4.23-4.504-5.379-3.844-4.833-4.268-5.644-3.609-5.038-3.952-5.863-2.816-4.467-3.76-6.432-3.321-6.143-3.372-6.598-3.137-6.224-5.942-11.153-6.909-11.582-4.054-6.177-3.74-5.346-3.364-4.553-4.574-5.822-3.63-4.343-4.632-5.199-4.812-4.994-5.298-5.028-4.164-3.622-5.25-4.134-4.354-3.017-5.473-3.186-4.522-2.125-5.969-2.178-5.287-1.506-5.998-1.441-4.228-.92-5.636-1.054-4.58-.633-5.622-.427-9.707.391-10.19 1.729-9.905 2.44-5.522 1.599-6.23 2.075-5.531 2.108-5.51 2.34-5.842 2.72-5.535 2.739-5.974 3.063-6.124 3.207-5.95 3.144-6.156 3.235-5.565 2.86-6.583 3.264-5.958 2.86-7.022 3.317-5.862 2.748-7.873 3.658-6.177 2.834-8.255 3.75-6.874 3.103-8.274 3.717-7.4 3.317-7.151 3.204-6.618 2.97-6.342 2.865-5.343 2.444-5.054 2.356-4.233 2.025-4.036 2.008-3.783 1.98-3.32 1.872-6.318 4.13-3.308 2.639-2.563 2.43-2.324 2.624-2.014 2.672-1.972 3.063-1.782 3.292-.94 2.03-1.387 3.577-1.091 3.717-.699 3.578-.338 3.361v3.482l.382 3.482.7 3.313.936 3.218.643 1.877.712 1.872 2.622 5.602 3.31 5.167 4.182 5.004 4.928 4.792 5.497 4.573 6.606 5.095 6.776 5.108 3.975 2.962 4.151 3.079 8.392 6.134 8.875 6.407 10.396 7.47 11.325 8.104 12.267 8.734z" stroke-width="28" stroke="#000" fill="none"/>
  <path d="m-716.406 658.395 5.447 3.817 4.523 3.195 6.094 4.336 4.785 3.43 6.019 4.343 6.54 4.744 6.664 4.84 5.158 3.749 6.404 4.668 6.853 5.021 6.49 4.775 6.937 5.105 6.164 4.531 5.375 3.95 7.062 5.199 5.446 4.017 6.747 4.977 5.518 4.069 7.26 5.358 7.311 5.408 7.367 5.453 5.672 4.183 7.477 5.5 5.742 4.24 7.087 5.273 7.114 5.33 7.594 5.71 7.183 5.411 13.56 10.244 13.223 10.021 13.846 10.425 13.57 10.082 14.18 10.499 7.608 5.647 8.58 6.386 6.214 4.637 8.14 6.088 6.237 4.676 7.683 5.776 7.689 5.795 8.174 6.177 6.252 4.736 8.173 6.206 7.689 5.855 8.162 6.227 8.16 6.228 8.148 6.222 8.145 6.215 13.864 10.58 7.62 5.832 6.167 4.745 8.023 6.203 6.543 5.077 7.786 6.04 6.706 5.188 12.963 9.968 11.96 9.142 11.448 8.625 5.492 4.037 4.878 3.52 9.018 6.27 10.713 6.518 3.475 1.842 4.85 2.307 3.655 1.51 4.41 1.55 3.465.961 4.114.777 3.445.319 3.733-.01 3.493-.352 3.424-.731 3.086-1.09 2.73-1.386 2.248-1.467 1.986-1.516 1.848-1.615.964-.963 1.474-1.679 1.246-1.648 1.122-1.723.635-1.116 1.323-2.824.998-2.847.73-2.843.371-1.975.323-2.557.151-2.853-.245-5.339-.374-3.028-.508-3.156-1.242-6.056-1.65-6.531-1.15-3.796-1.552-4.416-1.3-3.274-1.796-4.118-1.992-4.214-2.159-4.317-1.855-3.592-2.552-4.829-2.056-3.816-2.82-5.147-2.415-4.371-2.836-5.17-2.337-4.348-2.865-5.524-2.274-4.624-2.996-6.573-2.017-4.826-2.305-6.002-1.73-4.918-2.067-6.476-1.405-4.979-1.404-5.764-1.296-6.551-.97-6.566-.503-5.036-.315-6.208.006-5.048.413-6.977.51-4.678 1.077-7.064.897-4.735 1.38-6.329 1.285-5.116 1.83-6.207 1.863-5.346 1.338-3.404 2.827-6.342 3.016-5.84 5.836-9.528 4.106-5.801 3.581-4.69 4.253-5.298 4.686-5.553 9.154-9.632 9.69-8.5 5.14-3.92 6.035-4.159 6.253-3.876 6.06-3.43 6.582-3.524 6.298-3.319 6.405-3.37 6.926-3.649 5.379-2.836 7.14-3.77 5.534-2.93 7.305-3.93 5.17-2.86 6.82-3.92 5.811-3.514 6.39-4.114 6.055-4.245 5.677-4.403 4.661-3.972 4.962-4.66 4.03-4.177 4.29-4.88 3.283-4.042 4.103-5.376 3.037-4.151 3.631-5.162 2.876-4.24 3.66-5.628 2.7-4.385 3.387-5.853 2.498-4.566 3.009-5.697 3.215-6.085 3.142-5.692 2.673-4.54 3.688-5.739 3.908-5.436 3.869-4.84 2.517-2.89 3.395-3.606 3.261-3.179 4.244-3.83 3.792-3.25 5.07-4.229 3.948-3.24 4.973-3.944 3.828-2.894 5.561-4.002 4.32-3.025 5.313-3.748 5.162-3.812 5.186-4.148 3.728-3.256 4.292-4.104 3.238-3.417 3.908-4.587 2.76-3.607 3.188-4.545 2.663-4.059 2.96-4.704 2.334-3.875 2.873-5.184 2.167-4.38 2.354-5.456 1.565-4.262 1.763-5.672 1.095-4.052 1.454-5.812 1.145-4.483 1.528-5.54 3.147-10.131 3.742-10.599 4.318-10.094 5.456-9.969 6.065-8.569 4.138-4.758 4.194-4.175 8.44-7.205 8.669-6.32 9.43-5.799 10.252-4.822 10.292-3.188 5.924-1.207 5.976-.874 6.005-.524 5.66-.14 5.644.223 5.613.57 4.544.686 5.93 1.163 4.517 1.098 5.871 1.702 4.45 1.5 5.762 2.214 4.378 1.862 5.371 2.454 5.718 2.746 5.408 2.68 5.793 2.914" stroke-width="12" stroke="#e73323" fill="none"/>
  <path d="m291.226 365.606 4.839 2.404 5.61 2.686 4.964 2.232 5.708 2.317 6.037 2.066 5.288 1.427 4.53.905 5.501.692 4.719.265 5.268-.016 5.123-.305 4.985-.565 3.667-.581 5.112-1.04 3.857-.96 4.979-1.462 4.066-1.39 4.607-1.803 3.693-1.66 2.801-1.411 2.751-1.543 3.478-2.213 4.385-3.216 3.26-2.663 3.952-3.48 3.199-2.981 4.185-4.077 3.436-3.51 4.118-4.467 2.842-3.298 3.882-4.858 2.85-3.853 3.606-5.172 2.713-3.992 3.367-4.795 3.694-4.767 3.65-4.084 4.09-3.833 4.302-3.274 3.96-2.462 4.376-2.247 3.656-1.574 4.605-1.635 4.698-1.268 5.051-.897 4.466-.387 8.572.264 8.713 1.584 8.313 2.99 4.18 2.168 4.234 2.676 4.065 2.958 3.732 2.964 3.716 3.089 4.015 3.307 3.903 3.064 4.28 3.11 3.33 2.19 4.141 2.405 3.656 1.821 4.224 1.76 3.5 1.225 4.393 1.303 3.922.982 4.887 1.01 3.832.64 5.152.665 4.372.393 5.453.235 3.93-.024 5.61-.347 4.26-.543 5.527-1.042 4.237-.977 4.927-1.226 4.321-1.07 5.721-1.369 4.088-.957 5.87-1.378 4.562-1.101 6.079-1.535 4.742-1.25 6.315-1.75 4.919-1.433 6.157-1.883 5.093-1.62 6.775-2.228 5.274-1.784 7.004-2.447 5.433-1.97 7.19-2.72 6.4-2.567 6.832-2.936 5.467-2.548 6.496-3.36 5.44-3.14 6.351-4.039 4.711-3.223 5.677-4.063 5.584-4.132 5.473-4.218 5.65-4.619 14.683-13.49 4.109-4.141 5.054-5.305 4.092-4.476 5.01-5.712 4.973-5.936 5.257-6.54 5.27-6.764 4.688-6.154 4.098-5.486 5.413-7.367 4.543-6.207 5.67-7.635 5.537-7.267 8.289-10.556 6.312-7.92 6.438-8.043 6.178-7.7 5.119-6.363 6.426-7.97 5.742-7.114 7.134-8.868 5.936-7.397 6.892-8.574 5.562-6.905 6.466-8.001 4.813-5.937 5.394-6.632 4.917-6.02 4.886-5.96 4.687-5.715 3.569-4.382 3.467-4.312 2.74-3.458 3.012-3.866 2.343-3.068 2.498-3.354 2.429-3.394 2.152-3.19 1.38-2.183 1.76-2.998 1.187-2.224 1.867-4.112.54-1.418.784-2.453.472-1.947.39-2.369.147-1.493.136-2.932-.014-2.776-.2-2.914-.459-2.92-1.561-4.81-2.51-4.223-3.526-3.894-3.894-2.934-2.559-1.39-2.593-1.046-2.459-.693-2.66-.48-2.763-.31-2.95-.234-2.969-.135-3.582-.016-2.74.1-3.531.282-3.92.515-3.824.713-3.187.755-2.496.693-4.082 1.274-4.517 1.534-3.607 1.267-4.928 1.77-4.257 1.565-5.099 1.905-4.665 1.754-5.915 2.238-6.178 2.354-9.163 3.467-8.032 2.977-2.476.91-6.756 2.477-7.397 2.712-7.168 2.618-7.828 2.826L835.618.3l-6.209 2.198-8.784 3.07-7.988 2.755-8.137 2.787-6.199 2.126-8.377 2.882-9.046 3.104-12.484 4.23-4.955 1.657-9.482 3.124-7.354 2.373-9.161 2.9-8.116 2.526-9.379 2.882-8.297 2.522-9.619 2.894-7.933 2.363-10.525 3.103-8.166 2.383-10.183 2.941-10.974 3.134-11.123 3.142-8.593 2.422-10.669 3.027-11.433 3.28-10.853 3.129-12.322 3.534-8.97 2.528-11.133 3.05-9.821 2.605-12.03 3.084-9.274 2.317-11.48 2.857-12.27 3.105-11.62 2.977-8.77 2.223-11.79 2.907-9.627 2.302-11.943 2.797-10.516 2.433-12.096 2.781-10.63 2.427-13.763 3.116-10.005 2.236-13.166 2.89-10.899 2.34-13.325 2.788-12.619 2.543-12.701 2.46-10.353 1.952-13.602 2.523-11.245 2.073-12.886 2.367-10.506 1.903-12.977 2.296-10.578 1.831-13.075 2.223-13.97 2.335-14.166 2.328-11.783 1.91-13.57 2.18-11.077 1.774-13.7 2.184-10.31 1.63-14.573 2.255-11.95 1.79-14.41 2.099-10.082 1.436-14.148 1.966-10.71 1.445-13.046 1.696-10.458 1.3-11.804 1.416-12.264 1.451-8.302.994-17.882 2.212-25.18 3.157-19.959 2.414-17.879 2.124-15.763 1.94-13.476 1.73-11.943 1.554-15.74 2.008-4.456.571-8.688 1.206-8.014 1.5-7.253 2.053-6.051 2.495-4.665 2.738-3.648 2.828-3.365 3.267-2.57 3.188-1.292 1.964-1.264 2.331-.781 1.762-.8 2.243-.625 2.415-.371 2.255-.193 2.261-.032 2.28.07 2.018.18 2.356.26 2.118.477 2.635.466 1.872.794 2.482.794 2.004 1.226 2.606 1.169 2.195 1.603 2.788 1.369 2.237 1.484 2.33 1.74 2.596 2.354 3.222 2.002 2.49 2.716 3.06 2.414 2.462 3.204 3.013 3.418 3.058 3.855 3.404 3.848 3.408 4.372 3.875 4.659 4.092 4.62 3.992 3.9 3.319 4.924 4.156 4.053 3.444 4.949 4.364" stroke-width="12" stroke="#4fafdf" fill="none"/>
  <path d="m-95.795 324.687 4.92 5.022 4.433 4.912 4.266 5.068 4.074 5.229 3.825 5.385 3.078 4.802 2.942 5.18 2.625 5.435 1.97 5.051 1.142 3.72.976 4.227.542 3.308.38 4.159.032 3.042-.262 3.565-.495 2.94-.84 3.138-1.07 2.937-1.333 2.989-1.518 2.85-2.842 4.13-3.793 4.08-4.389 3.538-5.174 3.027-5.49 2.232-6.303 1.704-3.6.638-3.744.39-4.36.093-4.233-.28-4.058-.584-4.105-.886-3.355-.93-4.387-1.486-3.078-1.239-4.305-2.034-3.23-1.777-4.119-2.614-3.282-2.402-3.596-3.02-2.791-2.658-3.47-3.741-2.517-3.053-2.964-3.968-2.16-3.13-3.192-4.93-2.32-3.713-2.893-4.725-3.103-5.21-2.928-5.089-3.134-5.629-2.99-5.485-3.26-5.996-3.169-5.698-2.846-4.863-3.363-5.305-2.846-4.084-3.657-4.723-3.094-3.584-4.184-4.326-3.21-2.978-3.882-3.266-3.37-2.577-3.825-2.653-3.965-2.414-5.112-2.528-4.296-1.518-3.2-.774-2.901-.452-2.924-.252-2.752-.078-2.635.062-1.987.132-2.58.299-2.409.436-2.51.668-2.284.835-2.316 1.108-2.067 1.233-3.618 2.79-1.885 1.854-1.733 2.038-1.46 2.081-1.284 2.235-.91 1.935-.947 2.513-.617 2.13-.595 2.894-.324 2.827-.072 2.691.14 2.512.418 3.055.65 3.137.818 3.105 1.026 3.25 1.428 3.82 1.646 3.73 1.939 3.821 2.164 3.93 1.775 3.086 2.464 4.13 2.51 3.955 2.74 3.983 2.406 3.242 3.182 4.001 2.566 3.035 3.9 4.375 3.907 4.213 4.083 4.34 4.464 4.763 7.151 7.795 3.874 4.413 3.496 4.181 4.06 5.174 3.85 5.28 3.233 4.753 2.672 4.2 2.928 4.957 3.09 5.763 2.66 5.567 2.543 6.059 2.224 6.209 1.879 6.338 1.507 6.458 1.07 6.167.587 4.668.54 6.663.176 4.728-.049 6.712-.275 5.14-.679 6.708-.76 5.105-1.22 6.248-3.036 11.157-4.231 11.23-5.33 10.804-6.159 9.938-7.334 9.672-8.218 8.98-8.73 7.925-4.817 3.756-4.671 3.282-5.53 3.486-4.989 2.819-6.22 3.15-5.99 2.72-11.444 4.514-11.407 3.622-11.294 2.52-10.89 1.331-11.604.215-10.82-.706-11.202-1.409-10.813-2.003-10.73-2.784-5.847-1.946-4.698-1.807-6.054-2.664-4.56-2.264-5.537-3.051-4.453-2.685-5.433-3.534-5.392-3.759-5.657-4.256-5.207-4.284-9.065-8.454-8.786-9.616-8.304-10.264-7.823-10.725-6.92-10.742-3.49-6.074-3.288-6.16-3.354-6.605-3.144-6.219-2.626-5.02-3.579-6.484-3.08-5.258-3.907-6.273-3.854-5.789-3.77-5.328-3.393-4.536-4.607-5.792-3.658-4.32-4.666-5.165-4.844-4.95-5.33-4.973-4.185-3.572-5.607-4.294-4.379-2.905-5.501-3.03-4.19-1.86-5.974-2.072-5.289-1.45-5.996-1.408-4.228-.899-5.638-1.004-4.926-.612-5.267-.311-4.528.074-5.493.514-4.078.632-5.768 1.151-4.77 1.135-5.491 1.465-5.531 1.65-5.883 2.018-5.527 2.154-5.506 2.382-5.845 2.756-5.549 2.77-5.996 3.088-6.157 3.232-5.988 3.164-11.796 6.108-12.626 6.127-12.958 6.09-14.6 6.727-14.677 6.638-8.23 3.696-7.724 3.461-6.583 2.95-6.582 2.955-6.248 2.829-5.521 2.533-4.663 2.185-4.365 2.103-3.75 1.883-3.949 2.096-3.062 1.76-2.68 1.672-1.818 1.225-2.915 2.17-2.089 1.763-2.519 2.462-2.287 2.662-2.104 2.885-1.822 2.93-1.743 3.329-1.499 3.513-1.219 3.664-.886 3.776-.462 3.367-.142 3.538.251 3.562.278 1.8.276 1.369.847 3.247 1.993 5.632 1.16 2.624 1.54 2.964 1.312 2.163 2.077 2.97 1.895 2.357 2.36 2.617 2.074 2.085 2.932 2.693 2.409 2.046 3.365 2.694 2.726 2.113 3.742 2.857 2.995 2.264 3.838 2.877 4.007 2.983 4.188 3.102 3.851 2.825 4.92 3.573 3.625 2.62 5.348 3.852 4.285 3.08 5.903 4.236 4.788 3.43 6.677 4.772 5.4 3.848 7 4.975" stroke-width="12" stroke="#f7d347" fill="none"/>
</svg>
