<?xml version="1.0" standalone="no"?>
<svg xmlns:xlink="http://www.w3.org/1999/xlink" id="s2" class="track" xmlns="http://www.w3.org/2000/svg" preserveAspectRatio="xMinYMid meet" height="800px" width="600px" viewBox="-1200 -700 3000 3000">
            <path d="M -716.4059 658.3954 L -710.9586 662.2119 L -706.4356 665.4067 L -700.3418 669.7433 L -695.5566 673.173 L -689.5383 677.5165 L -682.998 682.2603 L -676.3341 687.1005 L -671.1763 690.8488 L -664.7719 695.5171 L -657.9194 700.5385 L -651.429 705.313 L -644.4924 710.4184 L -638.3279 714.9492 L -632.9531 718.8994 L -625.8914 724.0977 L -620.4454 728.1147 L -613.6981 733.0922 L -608.1802 737.1606 L -600.9196 742.5187 L -593.6086 747.9274 L -586.2425 753.3799 L -580.5703 757.5635 L -573.0934 763.0621 L -567.3511 767.3026 L -560.2642 772.5764 L -553.1503 777.906 L -545.5556 783.6161 L -538.3735 789.0271 L -524.8137 799.2714 L -511.5897 809.2921 L -497.7441 819.7166 L -484.1749 829.7994 L -469.9935 840.2975 L -462.386 845.9449 L -453.8054 852.331 L -447.592 856.9684 L -439.452 863.0563 L -433.2152 867.7321 L -425.5324 873.5082 L -417.843 879.3035 L -409.669 885.4803 L -403.4165 890.2158 L -395.244 896.4219 L -387.5555 902.2773 L -379.3929 908.5039 L -371.2337 914.7324 L -363.0849 920.9541 L -354.9404 927.1689 L -341.0764 937.749 L -333.4557 943.581 L -327.2886 948.3265 L -319.2661 954.5286 L -312.7231 959.6056 L -304.9372 965.6468 L -298.2312 970.834 L -285.268 980.8018 L -273.3087 989.9444 L -261.86 998.5695 L -256.3683 1002.6061 L -251.4903 1006.1265 L -242.4723 1012.3953 L -231.7587 1018.9135 L -228.2837 1020.7561 L -223.4339 1023.063 L -219.779 1024.5734 L -215.3682 1026.1227 L -211.904 1027.0842 L -207.7901 1027.8612 L -204.3452 1028.1799 L -200.6116 1028.1697 L -197.1188 1027.8177 L -193.6954 1027.087 L -190.6091 1025.9971 L -187.8796 1024.6113 L -185.6309 1023.144 L -183.6451 1021.628 L -181.7972 1020.0133 L -180.8329 1019.0502 L -179.3587 1017.3711 L -178.1135 1015.7232 L -176.9912 1014.0001 L -176.3563 1012.8839 L -175.0331 1010.0597 L -174.0351 1007.2129 L -173.3056 1004.3701 L -172.9337 1002.395 L -172.6114 999.8383 L -172.46 996.9846 L -172.7051 991.6462 L -173.0792 988.6184 L -173.587 985.4619 L -174.8293 979.4056 L -176.4784 972.875 L -177.6296 969.0786 L -179.1812 964.663 L -180.4814 961.3889 L -182.2773 957.2706 L -184.2694 953.0565 L -186.4279 948.7398 L -188.2834 945.1476 L -190.8354 940.319 L -192.8908 936.5034 L -195.7107 931.3564 L -198.1256 926.9847 L -200.9624 921.8146 L -203.2988 917.4669 L -206.1641 911.9428 L -208.4379 907.3192 L -211.4337 900.746 L -213.4511 895.92 L -215.7559 889.9177 L -217.4868 885.0003 L -219.5532 878.5239 L -220.9576 873.5455 L -222.3621 867.7808 L -223.658 861.2299 L -224.6272 854.6645 L -225.1305 849.6284 L -225.4455 843.4203 L -225.4396 838.3725 L -225.0267 831.3947 L -224.5161 826.7174 L -223.4402 819.6532 L -222.5432 814.9182 L -221.1622 808.5892 L -219.8778 803.4731 L -218.0486 797.2664 L -216.1849 791.9195 L -214.8472 788.5163 L -212.0204 782.1736 L -209.0039 776.3339 L -203.168 766.8063 L -199.0617 761.0046 L -195.4809 756.3157 L -191.2278 751.0175 L -186.5418 745.4637 L -177.3877 735.8318 L -167.6976 727.332 L -162.5585 723.4127 L -156.5233 719.2532 L -150.2696 715.3771 L -144.2096 711.9478 L -137.6284 708.4229 L -131.3303 705.104 L -124.925 701.7338 L -117.9987 698.0851 L -112.6203 695.2489 L -105.4798 691.4799 L -99.9463 688.5497 L -92.6406 684.6185 L -87.4714 681.7593 L -80.6517 677.8397 L -74.84 674.3255 L -68.4496 670.2107 L -62.3954 665.9663 L -56.7176 661.5635 L -52.0569 657.5906 L -47.0946 652.931 L -43.0648 648.754 L -38.7748 643.8735 L -35.4922 639.832 L -31.389 634.4561 L -28.3517 630.305 L -24.7207 625.1429 L -21.8454 620.9025 L -18.1858 615.2751 L -15.485 610.8902 L -12.0983 605.0367 L -9.5999 600.4709 L -6.5913 594.7737 L -3.3756 588.6889 L -.2339 582.9974 L 2.4391 578.4562 L 6.1269 572.7184 L 10.035 567.2815 L 13.9039 562.4429 L 16.4211 559.5515 L 19.8164 555.9461 L 23.0771 552.7674 L 27.3213 548.9377 L 31.1129 545.687 L 36.1828 541.4581 L 40.1307 538.2188 L 45.1041 534.2742 L 48.9323 531.3795 L 54.4934 527.3776 L 58.8129 524.3527 L 64.126 520.6052 L 69.2884 516.793 L 74.4736 512.6453 L 78.2023 509.3887 L 82.4941 505.2849 L 85.7323 501.868 L 89.6401 497.2808 L 92.3995 493.6737 L 95.5878 489.1286 L 98.2511 485.0705 L 101.2107 480.3659 L 103.5448 476.4906 L 106.418 471.3068 L 108.5851 466.9262 L 110.9386 461.4713 L 112.5036 457.2086 L 114.267 451.5374 L 115.3616 447.4851 L 116.8161 441.6735 L 117.9615 437.1904 L 119.4893 431.6497 L 122.6356 421.519 L 126.3784 410.92 L 130.6961 400.8265 L 136.1521 390.8573 L 142.2173 382.2883 L 146.3553 377.5298 L 150.5486 373.3547 L 158.989 366.1499 L 167.6577 359.83 L 177.0888 354.031 L 187.3397 349.2094 L 197.6324 346.0207 L 203.5558 344.8145 L 209.5319 343.9402 L 215.5372 343.4161 L 221.1964 343.2764 L 226.8411 343.4987 L 232.4538 344.0688 L 236.9984 344.7548 L 242.9272 345.9182 L 247.4447 347.0161 L 253.316 348.7185 L 257.7663 350.2183 L 263.5282 352.4318 L 267.9061 354.2939 L 273.2771 356.7477 L 278.995 359.4937 L 284.403 362.174 L 290.196 365.088 L 300.6168 370.2012 L 311.2765 374.835 L 316.9694 376.8661 L 322.617 378.4843 L 332.6809 380.2395 L 342.3857 380.6164 L 347.5457 380.3801 L 352.8722 379.8387 L 361.383 378.3596 L 370.5386 375.9467 L 379.2271 372.8352 L 385.7436 369.8438 L 388.5126 368.3405 L 392.0173 366.1819 L 396.4317 363.0268 L 399.7076 360.3995 L 403.6679 356.9608 L 406.8668 354.0102 L 411.0516 349.9671 L 414.2479 346.7408 L 418.6237 342.0624 L 421.4812 338.7953 L 425.3961 333.9747 L 428.2685 330.1465 L 431.8941 324.9969 L 434.6114 321.0022 L 437.9665 316.1706 L 441.6336 311.3333 L 445.248 307.1709 L 449.0549 303.4576 L 453.3079 300.0539 L 457.4962 297.3315 L 461.8431 295.0173 L 465.198 293.5096 L 470.0658 291.6928 L 474.7479 290.3528 L 479.4955 289.415 L 484.26 288.9091 L 489.0088 288.8197 L 492.8427 289.0385 L 497.8145 289.7011 L 501.5762 290.4901 L 506.3917 291.9233 L 509.9473 293.336 L 514.1605 295.4335 L 518.4313 298.0469 L 522.2847 300.7866 L 526.0343 303.7101 L 529.9782 306.9696 L 533.9743 310.2789 L 537.8534 313.3569 L 541.8562 316.3229 L 545.1776 318.5727 L 549.5664 321.2049 L 552.9555 322.9596 L 557.4272 324.9037 L 560.912 326.1674 L 565.2875 327.5099 L 569.193 328.5222 L 574.0564 329.5681 L 577.8683 330.2332 L 582.9904 330.9323 L 587.023 331.3327 L 592.4418 331.6358 L 596.6801 331.6612 L 601.9588 331.4107 L 606.5568 330.8965 L 611.7637 329.9814 L 616.321 328.9663 L 621.2376 327.7535 L 625.2123 326.7633 L 630.9165 325.3859 L 635.3312 324.3489 L 640.8372 323.0606 L 645.7336 321.8884 L 651.4265 320.4664 L 656.5101 319.1394 L 662.8048 317.4138 L 667.7022 316.0008 L 673.8389 314.1415 L 678.9113 312.539 L 685.6645 310.3329 L 690.9196 308.5651 L 697.4875 306.2887 L 703.3209 304.1928 L 710.4954 301.5038 L 716.8887 298.9704 L 723.7255 296.0742 L 729.221 293.5603 L 735.774 290.2476 L 741.2576 287.1464 L 747.6542 283.1489 L 752.3897 279.9493 L 757.7354 276.1573 L 763.6895 271.7819 L 769.1856 267.5842 L 774.5394 263.2657 L 779.0945 259.3723 L 782.2964 256.5076 L 785.4728 253.5641 L 789.5871 249.6083 L 793.6965 245.5026 L 798.7521 240.2409 L 802.5328 236.1467 L 807.5511 230.4902 L 812.8431 224.235 L 817.7943 218.1228 L 823.0557 211.4137 L 828.0469 204.8926 L 832.1401 199.4364 L 837.5377 192.1091 L 842.0562 185.9302 L 847.3592 178.7585 L 853.1951 171.0521 L 858.8918 163.7375 L 861.4396 160.5132 L 867.7267 152.6166 L 874.1425 144.5952 L 880.2977 136.9209 L 885.3945 130.5814 L 891.7949 122.6411 L 897.1016 116.0664 L 904.1796 107.2757 L 910.1128 99.8855 L 917.4188 90.7905 L 923.009 83.8481 L 929.5762 75.7154 L 934.4799 69.6627 L 939.9847 62.8906 L 944.9692 56.7813 L 949.9156 50.7446 L 954.4592 45.2082 L 958.1595 40.6755 L 961.6746 36.3194 L 964.443 32.8381 L 967.4868 28.9509 L 970.0425 25.6218 L 972.5941 22.2168 L 975.0939 18.7527 L 977.1642 15.7251 L 978.6961 13.3435 L 980.4968 10.327 L 981.7163 8.0891 L 983.0894 5.2473 L 984.2117 2.52 L 984.993 .2034 L 985.5441 -1.9027 L 985.9712 -4.2724 L 986.2451 -7.2755 L 986.3018 -8.6698 L 986.312 -11.4178 L 986.1524 -14.3135 L 985.7747 -17.074 L 985.034 -20.0674 L 984.2789 -22.1078 L 983.0199 -24.6008 L 981.8609 -26.3845 L 980.0935 -28.6051 L 978.4251 -30.3266 L 976.3055 -32.1287 L 974.5911 -33.3344 L 972.046 -34.784 L 969.607 -35.8343 L 967.0021 -36.6329 L 964.353 -37.1539 L 961.6143 -37.4846 L 958.8781 -37.7178 L 955.7671 -37.8847 L 952.4324 -37.9286 L 949.5173 -37.8506 L 946.2404 -37.6242 L 942.1263 -37.129 L 938.5655 -36.5084 L 930.1453 -34.3249 L 924.3994 -32.4263 L 920.5544 -31.0834 L 915.9639 -29.4434 L 911.7592 -27.9071 L 906.4014 -25.9106 L 898.3599 -22.8849 L 892.3332 -20.5964 L 886.0475 -18.202 L 875.5353 -14.2536 L 866.4886 -10.9252 L 859.2247 -8.263 L 851.7336 -5.5179 L 844.4774 -2.8785 L 837.0336 -.2051 L 822.5945 4.883 L 814.1474 7.803 L 806.0365 10.583 L 799.8581 12.6999 L 792.0278 15.3924 L 783.0192 18.4881 L 774.4003 21.4246 L 765.0953 24.5558 L 756.1999 27.4991 L 748.8462 29.8857 L 739.1696 32.9632 L 731.6508 35.3113 L 721.712 38.3733 L 714.0288 40.7147 L 703.8445 43.7859 L 695.938 46.1457 L 685.4431 49.2461 L 677.3006 51.6268 L 667.7477 54.393 L 656.8455 57.5151 L 645.7563 60.6541 L 636.5225 63.2556 L 625.8749 66.271 L 615.1326 69.3463 L 603.6232 72.6633 L 592.0069 76.0025 L 571.2484 81.7999 L 549.4327 87.515 L 528.7084 92.688 L 517.1721 95.5948 L 504.8442 98.7506 L 484.3265 103.8991 L 462.7732 109.0168 L 440.1957 114.2309 L 416.5916 119.6043 L 392.6868 124.915 L 369.2723 129.9006 L 355.8815 132.6237 L 343.1989 135.096 L 332.848 137.0574 L 320.0564 139.4363 L 308.8217 141.5083 L 295.1407 144.0262 L 284.6445 145.9342 L 271.6751 148.2407 L 261.106 150.0778 L 248.0565 152.3044 L 234.9234 154.5075 L 219.9612 156.9748 L 209.0372 158.75 L 194.6528 161.0654 L 183.5802 162.8383 L 169.8964 165.0221 L 159.596 166.6552 L 145.0088 168.9247 L 133.0431 170.7289 L 119.4558 172.7189 L 108.5113 174.2863 L 95.1631 176.1533 L 84.4196 177.6146 L 70.5271 179.4381 L 52.8722 181.6251 L 40.4358 183.1034 L 35.8426 183.6463 L 19.9925 185.5508 L 2.9627 187.6799 L -5.7752 188.7819 L -15.7107 190.0215 L -27.3346 191.4433 L -35.8468 192.4651 L -45.7801 193.6441 L -53.3829 194.5471 L -62.7013 195.6738 L -69.4058 196.5063 L -77.6674 197.5564 L -83.5739 198.3178 L -90.6156 199.2328 L -95.4245 199.8597 L -101.2552 200.6149 L -105.6279 201.1741 L -109.2787 201.6358 L -116.0841 202.5 L -120.8787 203.1334 L -124.8642 203.6993 L -129.258 204.4145 L -132.6877 205.0943 L -136.9674 206.1536 L -140.2858 207.1506 L -143.8059 208.4322 L -146.4412 209.5918 L -149.3406 211.1229 L -151.2804 212.3364 L -153.4588 213.9137 L -154.991 215.149 L -156.8677 216.8266 L -158.3044 218.2786 L -159.841 220.0327 L -161.009 221.5376 L -162.3293 223.4832 L -163.5603 225.6609 L -165.2701 229.7706 L -165.9053 232.0439 L -166.3261 234.3014 L -166.5708 236.7014 L -166.6306 238.9771 L -166.5845 240.845 L -166.4187 243.3318 L -166.1804 245.4401 L -165.7702 247.9088 L -165.3004 249.9368 L -164.5433 252.4227 L -163.7797 254.4293 L -162.5907 257.0352 L -161.452 259.2158 L -159.9831 261.8108 L -158.5446 264.1917 L -157.0874 266.5005 L -153.0763 272.2927 L -148.6264 277.652 L -142.9218 283.3251 L -139.5429 286.3664 L -135.7276 289.7361 L -131.9236 293.1038 L -127.6033 296.9336 L -122.9947 300.9912 L -118.4142 304.9626 L -114.5433 308.2663 L -109.6389 312.4089 L -105.5904 315.8374 L -100.6237 320.1721 L -96.6834 323.8279 L -92.0121 328.5081 L -87.5341 333.3787 L -82.9626 338.727 L -78.8484 343.9253 L -74.9722 349.2824 L -72.0482 353.7298 L -68.8138 359.2469 L -66.2285 364.3895 L -63.9805 369.8617 L -62.7509 373.6614 L -61.7538 377.6801 L -61.1082 381.2724 L -60.6616 385.4649 L -60.5775 388.5358 L -60.7781 392.1389 L -61.2214 395.117 L -62.0101 398.2993 L -63.0422 401.2664 L -64.3408 404.2766 L -65.7328 406.9912 L -67.3047 409.5464 L -68.6069 411.3422 L -70.6407 413.742 L -72.3362 415.4716 L -74.7209 417.5815 L -76.5147 418.9578 L -79.3791 420.8375 L -81.7746 422.1561 L -84.691 423.4973 L -87.199 424.4498 L -90.4528 425.464 L -93.4415 426.214 L -97.0113 426.8926 L -100.7306 427.3328 L -104.8227 427.4912 L -109.2825 427.2733 L -113.0745 426.7885 L -117.4267 425.9167 L -120.5205 425.104 L -124.9091 423.6894 L -128.2517 422.3982 L -132.5702 420.4218 L -135.8141 418.6891 L -139.9555 416.1332 L -143.0282 413.9565 L -146.89 410.8143 L -149.708 408.1979 L -153.2142 404.5076 L -155.5658 401.7305 L -158.5634 397.8196 L -161.0995 394.2015 L -163.9361 389.8642 L -166.4269 385.9001 L -169.3136 381.2064 L -172.4128 376.0305 L -175.3381 370.9803 L -178.468 365.3881 L -181.4487 359.9355 L -184.6908 353.9666 L -187.841 348.2637 L -190.4676 343.707 L -193.7967 338.3331 L -196.8313 333.8712 L -200.4553 329.0859 L -203.5242 325.4497 L -207.6859 321.0482 L -210.9048 317.9985 L -214.8023 314.6537 L -218.17 312.0295 L -222.0051 309.3148 L -225.7723 306.9512 L -229.5276 304.932 L -232.991 303.42 L -235.5168 302.5524 L -238.7358 301.7216 L -241.6593 301.222 L -244.6131 300.9353 L -247.3941 300.8291 L -250.0419 300.868 L -252.0345 300.9826 L -254.6179 301.2541 L -257.0307 301.6603 L -259.4078 302.2455 L -261.8533 303.0864 L -264.0568 304.086 L -266.1507 305.2744 L -268.265 306.7307 L -269.9279 308.0819 L -271.8377 309.902 L -273.5997 311.9079 L -275.0926 313.9604 L -276.4097 316.166 L -277.3482 318.0762 L -278.3325 320.5643 L -278.9811 322.6766 L -279.5879 325.3784 L -279.9717 328.1818 L -280.1059 331.048 L -280.0211 333.3812 L -279.6648 336.433 L -279.0256 339.7248 L -278.2446 342.8027 L -277.2593 346.0257 L -275.966 349.6044 L -274.2887 353.5303 L -272.5165 357.1098 L -270.268 361.2449 L -268.5162 364.3149 L -266.0825 368.428 L -263.6116 372.3738 L -260.9174 376.3539 L -258.7352 379.3455 L -255.4131 383.5908 L -252.8869 386.6164 L -249.038 390.9756 L -245.1702 395.1682 L -241.1164 399.4831 L -236.6702 404.219 L -232.9539 408.2195 L -229.5122 411.9894 L -225.6169 416.3897 L -222.3395 420.2583 L -218.2306 425.4056 L -214.3338 430.66 L -210.8467 435.7073 L -208.3398 439.5789 L -205.1831 444.8231 L -202.0487 450.5577 L -199.3421 456.0988 L -196.7452 462.132 L -194.464 468.3137 L -192.6262 474.2557 L -191.0288 480.6901 L -189.8755 486.8343 L -188.583 498.5363 L -188.3509 509.9703 L -189.1465 521.4275 L -191.0663 533.189 L -192.4469 539.0036 L -193.9921 544.371 L -196.0543 550.4252 L -197.9586 555.2682 L -200.587 561.1226 L -203.1424 566.1346 L -206.5608 572.0696 L -209.3942 576.4821 L -213.1364 581.7566 L -216.6337 586.2202 L -220.8688 591.1353 L -224.4847 594.9826 L -229.1452 599.5156 L -233.1062 603.0184 L -238.1956 607.0871 L -242.8312 610.4155 L -248.3226 613.9543 L -253.2836 616.8185 L -259.1068 619.8398 L -265.4425 622.7823 L -271.5122 625.325 L -276.487 627.2325 L -282.5973 629.3599 L -287.9113 630.9886 L -294.3307 632.6442 L -299.5921 633.7314 L -305.5999 634.6664 L -310.4832 635.1768 L -316.8556 635.5032 L -322.0931 635.5043 L -328.0658 635.2531 L -332.9139 634.8771 L -339.2622 634.1902 L -344.1173 633.5312 L -350.0871 632.5495 L -354.9307 631.5999 L -361.2447 630.1259 L -365.6763 628.9051 L -371.1712 627.1439 L -376.244 625.2564 L -381.9628 622.8149 L -386.8897 620.4335 L -392.4409 617.4365 L -396.9019 614.7935 L -402.3444 611.3051 L -407.7464 607.5864 L -413.0887 603.636 L -418.328 599.4211 L -423.7449 594.6433 L -427.769 590.7857 L -432.8551 585.481 L -436.6127 581.2501 L -441.1166 575.872 L -444.9611 571.0387 L -449.2291 565.3947 L -452.838 560.3568 L -456.7897 554.4942 L -459.6057 550.0267 L -463.3665 543.5955 L -466.687 537.4523 L -470.0591 530.8535 L -473.1961 524.6299 L -479.1378 513.4775 L -486.0466 501.8948 L -490.1006 495.7183 L -493.8405 490.3717 L -497.2047 485.8191 L -501.7785 479.9967 L -505.4092 475.6542 L -510.0415 470.4552 L -514.8528 465.4613 L -520.1511 460.4327 L -524.3148 456.811 L -529.5641 452.6773 L -533.9187 449.6603 L -539.3917 446.4736 L -543.9143 444.3495 L -549.8826 442.1715 L -555.1703 440.6647 L -561.168 439.2236 L -565.3965 438.3037 L -571.0322 437.2502 L -575.6113 436.6171 L -581.2335 436.1905 L -590.9413 436.5812 L -601.1302 438.3098 L -611.0361 440.7503 L -616.5576 442.3488 L -622.7889 444.424 L -628.3192 446.5323 L -633.8295 448.8728 L -639.6713 451.5912 L -645.2059 454.3308 L -651.1797 457.3937 L -657.3044 460.6005 L -663.2543 463.7447 L -669.4102 466.9797 L -674.9747 469.8409 L -681.5583 473.104 L -687.5165 475.9643 L -694.5381 479.2808 L -700.4003 482.0288 L -708.2725 485.6874 L -714.4496 488.5213 L -722.705 492.2717 L -729.5791 495.3737 L -737.8525 499.0911 L -745.2524 502.4081 L -752.4043 505.6122 L -759.0217 508.5815 L -765.3638 511.4473 L -770.7072 513.8906 L -775.7614 516.2468 L -779.9941 518.2723 L -784.0298 520.2798 L -787.8132 522.2609 L -791.1323 524.132 L -797.4507 528.2619 L -800.759 530.9006 L -803.322 533.3307 L -805.6462 535.9552 L -807.6603 538.627 L -809.632 541.6904 L -811.4136 544.9819 L -812.3548 547.012 L -813.7413 550.5891 L -814.8324 554.3064 L -815.5308 557.8839 L -815.8686 561.2452 L -815.869 564.7269 L -815.4869 568.2086 L -814.7866 571.5216 L -813.8512 574.7405 L -813.2085 576.617 L -812.496 578.4891 L -809.8743 584.0914 L -806.5639 589.2581 L -802.3821 594.2618 L -797.4542 599.0538 L -791.9573 603.6266 L -785.3513 608.7224 L -778.5751 613.8304 L -774.6005 616.7921 L -770.4486 619.8706 L -762.0574 626.0054 L -753.1825 632.412 L -742.786 639.8812 L -731.4611 647.9857 L -719.1936 656.7197 z" stroke-width="28" stroke="black" fill="none" id="Track"/><path d="M -716.4059 658.3954 L -710.9586 662.2119 L -706.4356 665.4067 L -700.3418 669.7433 L -695.5566 673.173 L -689.5383 677.5165 L -682.998 682.2603 L -676.3341 687.1005 L -671.1763 690.8488 L -664.7719 695.5171 L -657.9194 700.5385 L -651.429 705.313 L -644.4924 710.4184 L -638.3279 714.9492 L -632.9531 718.8994 L -625.8914 724.0977 L -620.4454 728.1147 L -613.6981 733.0922 L -608.1802 737.1606 L -600.9196 742.5187 L -593.6086 747.9274 L -586.2425 753.3799 L -580.5703 757.5635 L -573.0934 763.0621 L -567.3511 767.3026 L -560.2642 772.5764 L -553.1503 777.906 L -545.5556 783.6161 L -538.3735 789.0271 L -524.8137 799.2714 L -511.5897 809.2921 L -497.7441 819.7166 L -484.1749 829.7994 L -469.9935 840.2975 L -462.386 845.9449 L -453.8054 852.331 L -447.592 856.9684 L -439.452 863.0563 L -433.2152 867.7321 L -425.5324 873.5082 L -417.843 879.3035 L -409.669 885.4803 L -403.4165 890.2158 L -395.244 896.4219 L -387.5555 902.2773 L -379.3929 908.5039 L -371.2337 914.7324 L -363.0849 920.9541 L -354.9404 927.1689 L -341.0764 937.749 L -333.4557 943.581 L -327.2886 948.3265 L -319.2661 954.5286 L -312.7231 959.6056 L -304.9372 965.6468 L -298.2312 970.834 L -285.268 980.8018 L -273.3087 989.9444 L -261.86 998.5695 L -256.3683 1002.6061 L -251.4903 1006.1265 L -242.4723 1012.3953 L -231.7587 1018.9135 L -228.2837 1020.7561 L -223.4339 1023.063 L -219.779 1024.5734 L -215.3682 1026.1227 L -211.904 1027.0842 L -207.7901 1027.8612 L -204.3452 1028.1799 L -200.6116 1028.1697 L -197.1188 1027.8177 L -193.6954 1027.087 L -190.6091 1025.9971 L -187.8796 1024.6113 L -185.6309 1023.144 L -183.6451 1021.628 L -181.7972 1020.0133 L -180.8329 1019.0502 L -179.3587 1017.3711 L -178.1135 1015.7232 L -176.9912 1014.0001 L -176.3563 1012.8839 L -175.0331 1010.0597 L -174.0351 1007.2129 L -173.3056 1004.3701 L -172.9337 1002.395 L -172.6114 999.8383 L -172.46 996.9846 L -172.7051 991.6462 L -173.0792 988.6184 L -173.587 985.4619 L -174.8293 979.4056 L -176.4784 972.875 L -177.6296 969.0786 L -179.1812 964.663 L -180.4814 961.3889 L -182.2773 957.2706 L -184.2694 953.0565 L -186.4279 948.7398 L -188.2834 945.1476 L -190.8354 940.319 L -192.8908 936.5034 L -195.7107 931.3564 L -198.1256 926.9847 L -200.9624 921.8146 L -203.2988 917.4669 L -206.1641 911.9428 L -208.4379 907.3192 L -211.4337 900.746 L -213.4511 895.92 L -215.7559 889.9177 L -217.4868 885.0003 L -219.5532 878.5239 L -220.9576 873.5455 L -222.3621 867.7808 L -223.658 861.2299 L -224.6272 854.6645 L -225.1305 849.6284 L -225.4455 843.4203 L -225.4396 838.3725 L -225.0267 831.3947 L -224.5161 826.7174 L -223.4402 819.6532 L -222.5432 814.9182 L -221.1622 808.5892 L -219.8778 803.4731 L -218.0486 797.2664 L -216.1849 791.9195 L -214.8472 788.5163 L -212.0204 782.1736 L -209.0039 776.3339 L -203.168 766.8063 L -199.0617 761.0046 L -195.4809 756.3157 L -191.2278 751.0175 L -186.5418 745.4637 L -177.3877 735.8318 L -167.6976 727.332 L -162.5585 723.4127 L -156.5233 719.2532 L -150.2696 715.3771 L -144.2096 711.9478 L -137.6284 708.4229 L -131.3303 705.104 L -124.925 701.7338 L -117.9987 698.0851 L -112.6203 695.2489 L -105.4798 691.4799 L -99.9463 688.5497 L -92.6406 684.6185 L -87.4714 681.7593 L -80.6517 677.8397 L -74.84 674.3255 L -68.4496 670.2107 L -62.3954 665.9663 L -56.7176 661.5635 L -52.0569 657.5906 L -47.0946 652.931 L -43.0648 648.754 L -38.7748 643.8735 L -35.4922 639.832 L -31.389 634.4561 L -28.3517 630.305 L -24.7207 625.1429 L -21.8454 620.9025 L -18.1858 615.2751 L -15.485 610.8902 L -12.0983 605.0367 L -9.5999 600.4709 L -6.5913 594.7737 L -3.3756 588.6889 L -.2339 582.9974 L 2.4391 578.4562 L 6.1269 572.7184 L 10.035 567.2815 L 13.9039 562.4429 L 16.4211 559.5515 L 19.8164 555.9461 L 23.0771 552.7674 L 27.3213 548.9377 L 31.1129 545.687 L 36.1828 541.4581 L 40.1307 538.2188 L 45.1041 534.2742 L 48.9323 531.3795 L 54.4934 527.3776 L 58.8129 524.3527 L 64.126 520.6052 L 69.2884 516.793 L 74.4736 512.6453 L 78.2023 509.3887 L 82.4941 505.2849 L 85.7323 501.868 L 89.6401 497.2808 L 92.3995 493.6737 L 95.5878 489.1286 L 98.2511 485.0705 L 101.2107 480.3659 L 103.5448 476.4906 L 106.418 471.3068 L 108.5851 466.9262 L 110.9386 461.4713 L 112.5036 457.2086 L 114.267 451.5374 L 115.3616 447.4851 L 116.8161 441.6735 L 117.9615 437.1904 L 119.4893 431.6497 L 122.6356 421.519 L 126.3784 410.92 L 130.6961 400.8265 L 136.1521 390.8573 L 142.2173 382.2883 L 146.3553 377.5298 L 150.5486 373.3547 L 158.989 366.1499 L 167.6577 359.83 L 177.0888 354.031 L 187.3397 349.2094 L 197.6324 346.0207 L 203.5558 344.8145 L 209.5319 343.9402 L 215.5372 343.4161 L 221.1964 343.2764 L 226.8411 343.4987 L 232.4538 344.0688 L 236.9984 344.7548 L 242.9272 345.9182 L 247.4447 347.0161 L 253.316 348.7185 L 257.7663 350.2183 L 263.5282 352.4318 L 267.9061 354.2939 L 273.2771 356.7477 L 278.995 359.4937 L 284.403 362.174 L 290.196 365.088" stroke-width="12" stroke="#e73323" fill="none" id="S1"/><path d="M 291.2261 365.6056 L 296.0647 368.0103 L 301.6743 370.6964 L 306.6393 372.9285 L 312.3471 375.2451 L 318.3838 377.3109 L 323.6723 378.7379 L 328.2027 379.643 L 333.7033 380.3354 L 338.4218 380.6 L 343.6899 380.5837 L 348.8132 380.2785 L 353.7977 379.7141 L 357.4651 379.1328 L 362.5772 378.093 L 366.4342 377.1335 L 371.4126 375.6712 L 375.4789 374.2818 L 380.086 372.4781 L 383.7789 370.8186 L 386.5801 369.4067 L 389.3312 367.8635 L 392.8093 365.6512 L 397.1941 362.4352 L 400.454 359.7717 L 404.4063 356.2921 L 407.6048 353.3109 L 411.7903 349.2335 L 415.2262 345.7237 L 419.3435 341.2572 L 422.1857 337.9594 L 426.0683 333.1013 L 428.9173 329.2484 L 432.5242 324.076 L 435.2368 320.084 L 438.6042 315.2892 L 442.2982 310.5216 L 445.9471 306.4378 L 450.0383 302.6052 L 454.3397 299.3308 L 458.2991 296.8691 L 462.6758 294.6224 L 466.3319 293.0481 L 470.9367 291.4132 L 475.6349 290.1449 L 480.6864 289.248 L 485.1519 288.8614 L 493.7236 289.1248 L 502.4369 290.7091 L 510.7504 293.6996 L 514.9292 295.8675 L 519.1638 298.543 L 523.229 301.5013 L 526.9615 304.4647 L 530.6765 307.5537 L 534.6921 310.8609 L 538.595 313.9246 L 542.8752 317.0353 L 546.2051 319.2248 L 550.3461 321.6305 L 554.0024 323.4514 L 558.2257 325.2106 L 561.7251 326.4356 L 566.1185 327.7391 L 570.0407 328.7212 L 574.9282 329.7317 L 578.7596 330.3704 L 583.9116 331.0355 L 588.2842 331.4292 L 593.7371 331.6637 L 597.6674 331.6396 L 603.2772 331.2929 L 607.5373 330.7495 L 613.0645 329.708 L 617.3012 328.731 L 622.2278 327.505 L 626.549 326.4357 L 632.27 325.0663 L 636.3581 324.109 L 642.2288 322.7312 L 646.7904 321.6296 L 652.869 320.0954 L 657.6113 318.8445 L 663.9261 317.0958 L 668.8449 315.6619 L 675.0024 313.7787 L 680.0945 312.1581 L 686.8702 309.9311 L 692.1438 308.1471 L 699.1475 305.7 L 704.5807 303.7303 L 711.7704 301.0101 L 718.171 298.4434 L 725.0026 295.5068 L 730.4705 292.9586 L 736.9665 289.5998 L 742.406 286.4581 L 748.7574 282.4204 L 753.4684 279.1974 L 759.1453 275.1338 L 764.7292 271.002 L 770.2016 266.7843 L 775.8519 262.1652 L 790.5353 248.6755 L 794.6437 244.534 L 799.6984 239.2288 L 803.7896 234.7535 L 808.8001 229.0412 L 813.7728 223.1053 L 819.0299 216.5643 L 824.3 209.8012 L 828.9883 203.6466 L 833.0864 198.1607 L 838.4986 190.7938 L 843.0424 184.5872 L 848.7126 176.9517 L 854.2486 169.6853 L 862.5379 159.1291 L 868.8502 151.2095 L 875.2878 143.1656 L 881.4656 135.4669 L 886.585 129.1033 L 893.0114 121.1337 L 898.7533 114.0186 L 905.8867 105.1507 L 911.8234 97.7542 L 918.7147 89.1803 L 924.2772 82.2755 L 930.7429 74.2737 L 935.5558 68.3371 L 940.95 61.7055 L 945.8666 55.6843 L 950.753 49.7246 L 955.4404 44.01 L 959.0089 39.6284 L 962.4763 35.3165 L 965.2156 31.8576 L 968.2281 27.9919 L 970.5712 24.9242 L 973.0688 21.5703 L 975.4976 18.1762 L 977.65 14.9853 L 979.0305 12.8033 L 980.7909 9.8054 L 981.9767 7.5809 L 983.844 3.469 L 984.384 2.0508 L 985.1675 -.4016 L 985.6403 -2.3494 L 986.0295 -4.7175 L 986.1771 -6.2107 L 986.3132 -9.143 L 986.2986 -11.9192 L 986.0999 -14.8326 L 985.6404 -17.7532 L 984.0786 -22.5622 L 981.5695 -26.7857 L 978.0431 -30.6799 L 974.1486 -33.6144 L 971.59 -35.0044 L 968.9966 -36.05 L 966.5382 -36.7433 L 963.8779 -37.2227 L 961.1147 -37.5322 L 958.1654 -37.7668 L 955.196 -37.9021 L 951.6143 -37.918 L 948.874 -37.8178 L 945.3427 -37.5363 L 941.4239 -37.0207 L 937.5988 -36.3084 L 934.4117 -35.5526 L 931.9157 -34.8602 L 927.834 -33.5859 L 923.3168 -32.0516 L 919.7102 -30.7847 L 914.7819 -29.0147 L 910.5247 -27.4502 L 905.4262 -25.5449 L 900.7615 -23.7911 L 894.8459 -21.5529 L 888.6679 -19.199 L 879.5046 -15.7322 L 871.4734 -12.7548 L 868.9966 -11.8449 L 862.2408 -9.3685 L 854.8436 -6.6565 L 847.6763 -4.0384 L 839.8484 -1.2118 L 835.6183 .2992 L 829.4095 2.497 L 820.625 5.5674 L 812.6367 8.3218 L 804.4995 11.1091 L 798.3011 13.2345 L 789.9241 16.1167 L 780.878 19.2205 L 768.394 23.451 L 763.4387 25.1081 L 753.9571 28.2316 L 746.6031 30.6051 L 737.4416 33.5058 L 729.3261 36.0312 L 719.9472 38.9131 L 711.6498 41.4354 L 702.031 44.3291 L 694.0983 46.6918 L 683.573 49.7948 L 675.4066 52.1776 L 665.2236 55.119 L 654.2499 58.253 L 643.127 61.3948 L 634.5336 63.8168 L 623.8654 66.8437 L 612.4319 70.1236 L 601.5786 73.2526 L 589.2574 76.7868 L 580.2869 79.315 L 569.1541 82.3657 L 559.3328 84.9696 L 547.3026 88.0537 L 538.0292 90.3712 L 526.5492 93.2275 L 514.2784 96.3332 L 502.6596 99.3096 L 493.8892 101.5332 L 482.0998 104.4401 L 472.4722 106.7424 L 460.5288 109.5389 L 450.0127 111.9725 L 437.9168 114.7532 L 427.2871 117.18 L 413.5239 120.2956 L 403.5195 122.5323 L 390.3533 125.422 L 379.4545 127.7612 L 366.1291 130.5501 L 353.5101 133.0934 L 340.8088 135.5526 L 330.456 137.5053 L 316.8539 140.0276 L 305.6093 142.1008 L 292.7229 144.4684 L 282.2173 146.3705 L 269.2404 148.667 L 258.6617 150.498 L 245.5874 152.7214 L 231.6167 155.0564 L 217.4512 157.3845 L 205.6684 159.294 L 192.0987 161.4748 L 181.021 163.2475 L 167.3217 165.4318 L 157.0118 167.0619 L 142.438 169.317 L 130.4873 171.1075 L 116.0784 173.2058 L 105.9962 174.642 L 91.8476 176.6085 L 81.1387 178.0526 L 68.0924 179.7485 L 57.6344 181.0485 L 45.8303 182.4654 L 33.5665 183.9161 L 25.264 184.9095 L 7.3817 187.122 L -17.798 190.2793 L -37.7569 192.6927 L -55.636 194.8168 L -71.3987 196.7575 L -84.8754 198.4864 L -96.8182 200.041 L -112.5575 202.0494 L -117.0145 202.6205 L -125.7015 203.8259 L -133.7165 205.3259 L -140.9691 207.3785 L -147.0204 209.8743 L -151.6852 212.6124 L -155.3328 215.4395 L -158.6984 218.7067 L -161.2672 221.8945 L -162.5596 223.8588 L -163.8236 226.1901 L -164.6055 227.9517 L -165.4053 230.1952 L -166.0302 232.6096 L -166.4011 234.8647 L -166.594 237.1263 L -166.6265 239.4069 L -166.5563 241.4237 L -166.3762 243.7802 L -166.1155 245.8978 L -165.6394 248.5329 L -165.1735 250.4048 L -164.379 252.8869 L -163.5851 254.8905 L -162.3589 257.4972 L -161.1903 259.6924 L -159.5868 262.48 L -158.2184 264.7166 L -156.7339 267.0463 L -154.9945 269.643 L -152.64 272.8651 L -150.6376 275.355 L -147.9217 278.4143 L -145.5081 280.8768 L -142.3043 283.8901 L -138.8857 286.9482 L -135.0308 290.3517 L -131.1832 293.7604 L -126.8108 297.6347 L -122.1522 301.7268 L -117.5321 305.7194 L -113.6329 309.0377 L -108.7083 313.1941 L -104.6551 316.6382 L -99.7064 321.0022" stroke-width="12" stroke="#4fafdf" fill="none" id="S2"/><path d="M -95.795 324.6871 L -90.8756 329.7091 L -86.4419 334.6214 L -82.1761 339.6894 L -78.1016 344.9178 L -74.2772 350.3035 L -71.1994 355.1053 L -68.2571 360.285 L -65.6319 365.72 L -63.6611 370.771 L -62.5202 374.4901 L -61.544 378.7183 L -61.002 382.0258 L -60.6225 386.1848 L -60.5896 389.2269 L -60.8525 392.792 L -61.3472 395.7315 L -62.1877 398.8705 L -63.2573 401.8067 L -64.5896 404.7956 L -66.1078 407.6465 L -68.9496 411.7768 L -72.7431 415.8563 L -77.1315 419.3936 L -82.3065 422.4211 L -87.7952 424.6526 L -94.0989 426.3573 L -97.6982 426.9948 L -101.4434 427.3852 L -105.803 427.4778 L -110.0358 427.1982 L -114.0938 426.6139 L -118.1989 425.7283 L -121.5535 424.7987 L -125.9412 423.3115 L -129.019 422.0732 L -133.324 420.039 L -136.5531 418.2623 L -140.6727 415.6482 L -143.9549 413.2463 L -147.5507 410.2267 L -150.3421 407.5679 L -153.8111 403.8268 L -156.3288 400.7743 L -159.2935 396.8061 L -161.453 393.6761 L -164.6447 388.7466 L -166.965 385.0328 L -169.8585 380.3077 L -172.9609 375.0976 L -175.8893 370.0092 L -179.0229 364.38 L -182.0135 358.8948 L -185.2739 352.8994 L -188.4418 347.2007 L -191.2879 342.3383 L -194.6513 337.0333 L -197.4967 332.9495 L -201.1544 328.226 L -204.2484 324.6423 L -208.4322 320.3161 L -211.6422 317.338 L -215.5242 314.0716 L -218.8932 311.4952 L -222.7192 308.8425 L -226.684 306.4283 L -231.7958 303.8996 L -236.092 302.3815 L -239.2922 301.6085 L -242.1932 301.1555 L -245.1171 300.9044 L -247.8689 300.8263 L -250.5036 300.8881 L -252.4913 301.0195 L -255.0719 301.3186 L -257.4799 301.7549 L -259.9904 302.4228 L -262.2742 303.2582 L -264.5901 304.3661 L -266.6571 305.5985 L -270.2747 308.3895 L -272.1601 310.2427 L -273.8928 312.2812 L -275.353 314.362 L -276.6367 316.5974 L -277.5476 318.532 L -278.4944 321.0447 L -279.1111 323.1744 L -279.7056 326.0695 L -280.0298 328.8959 L -280.1017 331.5871 L -279.9613 334.0988 L -279.5443 337.154 L -278.8944 340.2908 L -278.076 343.3955 L -277.0501 346.6465 L -275.6219 350.4664 L -273.9761 354.1952 L -272.0371 358.0171 L -269.8726 361.947 L -268.0982 365.0334 L -265.6342 369.1633 L -263.1248 373.1184 L -260.3848 377.1013 L -257.9782 380.343 L -254.7959 384.3445 L -252.23 387.3792 L -248.3295 391.7541 L -244.4226 395.9669 L -240.3404 400.3073 L -235.8762 405.0698 L -228.7247 412.8654 L -224.8506 417.2783 L -221.3545 421.4591 L -217.2942 426.633 L -213.4454 431.9134 L -210.2121 436.6659 L -207.54 440.8655 L -204.6124 445.8227 L -201.5228 451.5855 L -198.8622 457.1533 L -196.319 463.2118 L -194.0954 469.4209 L -192.2162 475.7592 L -190.7092 482.2172 L -189.6393 488.3838 L -189.0524 493.0518 L -188.5122 499.7146 L -188.336 504.4425 L -188.385 511.1554 L -188.6598 516.2957 L -189.3389 523.0027 L -190.0991 528.1082 L -191.3196 534.356 L -194.3546 545.5126 L -198.5861 556.7427 L -203.9164 567.5471 L -210.075 577.4848 L -217.4085 587.1567 L -225.6274 596.1376 L -234.3571 604.0621 L -239.1743 607.8179 L -243.845 611.1002 L -249.3748 614.5865 L -254.364 617.4047 L -260.5832 620.5552 L -266.574 623.2752 L -278.0182 627.7887 L -289.4247 631.4108 L -300.7191 633.9319 L -311.6082 635.262 L -323.2126 635.4766 L -334.0336 634.7709 L -345.2355 633.3622 L -356.0484 631.3592 L -366.7786 628.5746 L -372.6253 626.6291 L -377.3226 624.8217 L -383.3771 622.158 L -387.9365 619.8935 L -393.4741 616.8426 L -397.9266 614.158 L -403.3605 610.6244 L -408.7525 606.8654 L -414.4089 602.6089 L -419.6158 598.3254 L -428.6807 589.8713 L -437.467 580.2549 L -445.7714 569.9909 L -453.5945 559.2659 L -460.5144 548.5243 L -464.0034 542.45 L -467.2918 536.2902 L -470.6462 529.6846 L -473.7905 523.4661 L -476.4165 518.4451 L -479.9948 511.9624 L -483.0749 506.7044 L -486.9822 500.4313 L -490.8359 494.6421 L -494.6067 489.3141 L -497.9989 484.7784 L -502.6063 478.9857 L -506.2638 474.6664 L -510.9302 469.5014 L -515.7744 464.5517 L -521.1037 459.5782 L -525.2894 456.0059 L -530.8961 451.7117 L -535.2745 448.8066 L -540.7764 445.7761 L -544.9654 443.9179 L -550.9402 441.8446 L -556.2289 440.3953 L -562.2246 438.9866 L -566.4531 438.088 L -572.0908 437.0836 L -577.0166 436.4716 L -582.2842 436.1609 L -586.8115 436.2354 L -592.3054 436.7491 L -596.3831 437.3807 L -602.1507 438.5323 L -606.9208 439.6668 L -612.412 441.132 L -617.9432 442.7826 L -623.826 444.8003 L -629.3533 446.9538 L -634.8588 449.3359 L -640.7036 452.0924 L -646.2527 454.8612 L -652.2488 457.9497 L -658.4058 461.1817 L -664.3935 464.3461 L -676.1899 470.4536 L -688.8164 476.5811 L -701.7737 482.6704 L -716.3738 489.3984 L -731.0509 496.0361 L -739.2805 499.7316 L -747.0051 503.1935 L -753.5877 506.1423 L -760.1699 509.0984 L -766.418 511.9266 L -771.939 514.4601 L -776.6024 516.6446 L -780.9673 518.7476 L -784.7169 520.6314 L -788.666 522.7267 L -791.7283 524.4863 L -794.4083 526.1591 L -796.2256 527.3842 L -799.141 529.5543 L -801.2297 531.3167 L -803.7486 533.7792 L -806.0364 536.4413 L -808.1398 539.3263 L -809.9617 542.2561 L -811.7053 545.5848 L -813.2039 549.0977 L -814.4226 552.7616 L -815.3092 556.5381 L -815.771 559.9053 L -815.9132 563.4431 L -815.662 567.0052 L -815.3839 568.8043 L -815.1078 570.1736 L -814.2607 573.4208 L -812.2676 579.0526 L -811.1074 581.677 L -809.5673 584.6411 L -808.2565 586.8045 L -806.1791 589.7737 L -804.2835 592.1314 L -801.9231 594.7481 L -799.8503 596.8334 L -796.918 599.5264 L -794.5091 601.5723 L -791.1441 604.266 L -788.4183 606.3785 L -784.6763 609.2358 L -781.6815 611.4996 L -777.8434 614.3768 L -773.8359 617.36 L -769.6475 620.4619 L -765.7969 623.287 L -760.8774 626.86 L -757.252 629.4792 L -751.9036 633.3324 L -747.6189 636.4128 L -741.716 640.6483 L -736.9277 644.0779 L -730.2508 648.8495 L -724.8506 652.698 L -717.8501 657.6734" stroke-width="12" stroke="#f7d347" fill="none" id="S3"/></svg>