<?xml version="1.0" standalone="no"?>
<svg xmlns:xlink="http://www.w3.org/1999/xlink" id="s2" class="track" xmlns="http://www.w3.org/2000/svg" width="800" height="600" viewBox="-500 -500 2000 2000">
        <path d="M -716.4059 658.3954 L -715.3903 659.1042 L -714.3718 659.8162 L -713.0109 660.7697 L -711.9869 661.4885 L -710.9586 662.2119 L -709.9235 662.941 L -708.8856 663.6738 L -707.4885 664.6611 L -706.4356 665.4067 L -705.3745 666.1589 L -703.9505 667.1708 L -702.8754 667.9357 L -701.793 668.7069 L -700.3418 669.7433 L -699.2458 670.5272 L -697.7784 671.578 L -696.6701 672.3732 L -695.5566 673.173 L -694.0655 674.2462 L -692.9402 675.0574 L -691.8121 675.8723 L -690.6775 676.6925 L -689.5383 677.5165 L -688.3937 678.3452 L -686.8631 679.4545 L -685.7083 680.2919 L -684.5504 681.1327 L -682.998 682.2603 L -681.8315 683.1071 L -680.2691 684.2421 L -679.092 685.0976 L -677.52 686.239 L -676.3341 687.1005 L -674.754 688.2477 L -673.5626 689.1139 L -672.3722 689.9791 L -671.1763 690.8488 L -669.9807 691.7189 L -668.7816 692.592 L -667.1781 693.76 L -665.9769 694.637 L -664.7719 695.5171 L -663.1652 696.6931 L -661.9556 697.5782 L -660.7475 698.4639 L -659.1332 699.6475 L -657.9194 700.5385 L -656.7065 701.4301 L -655.4916 702.324 L -653.8691 703.5171 L -652.6513 704.4136 L -651.429 705.313 L -650.2109 706.2104 L -648.5781 707.4116 L -647.3553 708.312 L -646.1278 709.2144 L -644.4924 710.4184 L -643.2615 711.3227 L -642.033 712.227 L -640.7996 713.1331 L -639.5652 714.0403 L -638.3279 714.9492 L -636.6805 716.1601 L -635.4412 717.0703 L -634.201 717.9824 L -632.9531 718.8994 L -631.3036 720.1132 L -630.061 721.0272 L -628.394 722.2537 L -627.1434 723.1743 L -625.8914 724.0977 L -624.6365 725.0233 L -623.381 725.949 L -622.1212 726.8784 L -620.4454 728.1147 L -619.1852 729.0446 L -617.9205 729.9772 L -616.2326 731.2231 L -614.9664 732.1567 L -613.6981 733.0922 L -612.0017 734.3432 L -610.7302 735.2807 L -609.4568 736.2202 L -608.1802 737.1606 L -606.9035 738.1024 L -605.1955 739.3621 L -603.9152 740.307 L -602.632 741.2543 L -600.9196 742.5187 L -599.6335 743.4698 L -598.3432 744.4231 L -596.6225 745.6956 L -595.3266 746.6545 L -593.6086 747.9274 L -592.3137 748.8857 L -590.5822 750.1689 L -589.2843 751.1299 L -587.5475 752.415 L -586.2425 753.3799 L -584.9379 754.3428 L -583.6289 755.3086 L -582.3145 756.2783 L -580.5703 757.5635 L -579.2535 758.5312 L -577.4971 759.8223 L -576.1784 760.792 L -574.8552 761.7643 L -573.0934 763.0621 L -571.7702 764.0372 L -570.446 765.0148 L -568.6776 766.3204 L -567.3511 767.3026 L -566.024 768.2865 L -564.6939 769.2748 L -563.3477 770.2761 L -561.5942 771.5833 L -560.2642 772.5764 L -558.9321 773.5715 L -557.1548 774.9022 L -555.8222 775.9011 L -554.4872 776.9031 L -553.1503 777.906 L -551.3674 779.2457 L -550.0276 780.2515 L -548.2421 781.5947 L -546.9003 782.6035 L -545.5556 783.6161 L -544.2101 784.6298 L -542.4184 785.9785 L -541.0727 786.9922 L -539.7227 788.0102 L -538.3735 789.0271 L -537.0239 790.0457 L -535.2212 791.407 L -533.868 792.4285 L -532.5125 793.4519 L -530.7068 794.8162 L -529.3484 795.8425 L -527.5369 797.2126 L -526.176 798.2411 L -524.8137 799.2714 L -523.4524 800.3019 L -522.0881 801.3351 L -520.7209 802.3712 L -518.8958 803.755 L -517.5317 804.7882 L -516.1622 805.8263 L -514.795 806.8632 L -513.4219 807.9042 L -511.5897 809.2921 L -510.2144 810.3341 L -508.8365 811.3761 L -506.9988 812.7648 L -505.6158 813.8077 L -504.2324 814.8494 L -502.3835 816.2401 L -500.9951 817.283 L -499.1402 818.6727 L -497.7441 819.7166 L -496.3477 820.7596 L -494.9511 821.8006 L -493.0865 823.1893 L -491.6845 824.2313 L -490.2788 825.2752 L -488.8747 826.3173 L -486.9965 827.7098 L -485.5875 828.7535 L -484.1749 829.7994 L -482.7611 830.8463 L -480.8773 832.2398 L -479.4572 833.2906 L -477.5704 834.6861 L -476.1543 835.7339 L -474.732 836.7867 L -473.3127 837.8383 L -471.4155 839.2437 L -469.9935 840.2975 L -468.5697 841.3531 L -467.1423 842.4127 L -465.718 843.47 L -463.8147 844.8834 L -462.386 845.9449 L -460.4833 847.359 L -459.0527 848.4234 L -457.1456 849.8427 L -455.7132 850.9091 L -453.8054 852.331 L -452.3713 853.3996 L -450.9383 854.4689 L -449.0272 855.8963 L -447.592 856.9684 L -446.1555 858.0407 L -444.243 859.4704 L -442.8041 860.5466 L -441.3666 861.6227 L -439.452 863.0563 L -438.0121 864.1354 L -436.0946 865.5729 L -434.6542 866.653 L -433.2152 867.7321 L -431.7753 868.8132 L -430.3329 869.8972 L -428.4147 871.3395 L -426.9743 872.4232 L -425.5324 873.5082 L -424.0905 874.5941 L -422.6501 875.6791 L -421.2062 876.767 L -419.2858 878.2147 L -417.843 879.3035 L -415.9208 880.7547 L -414.4794 881.8436 L -413.0347 882.9354 L -411.1123 884.3885 L -409.669 885.4803 L -408.2251 886.5731 L -406.7832 887.6649 L -405.3139 888.7783 L -403.4165 890.2158 L -401.9754 891.3096 L -400.0501 892.7715 L -398.6082 893.8662 L -396.6859 895.3262 L -395.244 896.4219 L -393.3216 897.8848 L -391.8783 898.9834 L -390.4383 900.0801 L -388.9969 901.1777 L -387.5555 902.2773 L -385.6346 903.7412 L -384.1937 904.8408 L -382.7533 905.9395 L -380.8285 907.4082 L -379.3929 908.5039 L -377.474 909.9687 L -376.0321 911.0693 L -374.1146 912.5332 L -372.6761 913.6309 L -371.2337 914.7324 L -369.3167 916.1963 L -367.8773 917.2959 L -366.44 918.3926 L -364.52 919.8594 L -363.0849 920.9541 L -361.6474 922.0508 L -359.7295 923.5146 L -358.2924 924.6113 L -356.8554 925.7079 L -354.9404 927.1689 L -353.5034 928.2656 L -352.0664 929.3622 L -350.1544 930.8212 L -348.7199 931.916 L -346.8092 933.374 L -345.3756 934.4677 L -343.9416 935.5615 L -342.5094 936.6552 L -341.0764 937.749 L -339.6451 938.8427 L -337.7388 940.2997 L -336.3111 941.3925 L -334.8821 942.4872 L -333.4557 943.581 L -332.0309 944.6757 L -330.131 946.137 L -328.71 947.2318 L -327.2886 948.3265 L -325.3974 949.7855 L -323.9797 950.8812 L -322.0912 952.3421 L -320.6786 953.4349 L -319.2661 954.5286 L -317.3889 955.9837 L -315.9808 957.0765 L -314.117 958.5236 L -312.7231 959.6056 L -311.3326 960.6855 L -309.4926 962.1141 L -308.1196 963.1793 L -306.7505 964.2413 L -304.9372 965.6468 L -303.5842 966.6948 L -302.2364 967.7382 L -300.8959 968.7752 L -299.5615 969.8066 L -298.2312 970.834 L -296.9093 971.8543 L -295.1542 973.207 L -293.8447 974.2158 L -292.541 975.2191 L -291.2423 976.2177 L -289.9517 977.2092 L -288.2411 978.5225 L -286.9628 979.5031 L -285.268 980.8018 L -284.0057 981.7689 L -282.3295 983.0522 L -281.0803 984.0082 L -279.8376 984.9587 L -278.6001 985.905 L -276.9603 987.1579 L -275.7364 988.0923 L -274.5199 989.021 L -273.3087 989.9444 L -271.7048 991.1649 L -270.5162 992.0674 L -269.3387 992.96 L -267.7903 994.1304 L -266.645 994.9935 L -265.5157 995.8419 L -264.401 996.6767 L -262.9384 997.7679 L -261.86 998.5695 L -260.7985 999.3558 L -259.7516 1000.1283 L -258.7202 1000.8867 L -257.7056 1001.6302 L -256.3683 1002.6061 L -255.3773 1003.3262 L -254.3952 1004.0372 L -253.4212 1004.7402 L -252.4524 1005.437 L -251.4903 1006.1265 L -250.2187 1007.0344 L -249.2685 1007.7096 L -248.3284 1008.3745 L -247.3921 1009.0326 L -246.4596 1009.6833 L -245.5338 1010.324 L -244.6085 1010.9582 L -243.3856 1011.7858 L -242.4723 1012.3953 L -241.257 1013.1946 L -240.3538 1013.7793 L -239.4503 1014.356 L -238.5509 1014.9218 L -237.3565 1015.6599 L -236.4648 1016.201 L -235.5754 1016.732 L -234.6895 1017.2525 L -233.5132 1017.9304 L -232.6339 1018.4273 L -231.7587 1018.9135 L -230.8843 1019.3908 L -230.0158 1019.856 L -229.1474 1020.3119 L -228.2837 1020.7561 L -227.1361 1021.3312 L -226.2766 1021.7506 L -225.1366 1022.2908 L -224.2845 1022.6824 L -223.4339 1023.063 L -222.5872 1023.4308 L -221.4613 1023.9032 L -220.6199 1024.2437 L -219.779 1024.5734 L -218.9378 1024.8928 L -218.1047 1025.1986 L -217.0032 1025.5863 L -216.183 1025.8616 L -215.3682 1026.1227 L -214.5599 1026.3691 L -213.7556 1026.6021 L -212.693 1026.8883 L -211.904 1027.0842 L -211.1187 1027.2648 L -210.3407 1027.4287 L -209.5673 1027.5769 L -208.5477 1027.7499 L -207.7901 1027.8612 L -206.7896 1027.986 L -206.0478 1028.0618 L -205.0703 1028.1389 L -204.3452 1028.1799 L -203.6266 1028.2068 L -202.6843 1028.2211 L -201.9854 1028.2164 L -201.2956 1028.1992 L -200.6116 1028.1697 L -199.7164 1028.1122 L -199.054 1028.0557 L -198.4 1027.9877 L -197.7549 1027.9084 L -197.1188 1027.8177 L -196.4915 1027.7157 L -195.6709 1027.5614 L -195.0659 1027.4324 L -194.4716 1027.2919 L -193.6954 1027.087 L -193.1251 1026.9197 L -192.3826 1026.6791 L -191.838 1026.4865 L -191.3038 1026.2833 L -190.6091 1025.9971 L -190.1 1025.7717 L -189.603 1025.5374 L -188.9587 1025.212 L -188.4885 1024.9585 L -187.8796 1024.6113 L -187.4356 1024.3445 L -187.0018 1024.073 L -186.4408 1023.7048 L -186.0311 1023.4253 L -185.6309 1023.144 L -185.2399 1022.8604 L -184.7323 1022.4815 L -184.3623 1022.1973 L -183.9996 1021.9131 L -183.6451 1021.628 L -183.1864 1021.2493 L -182.8517 1020.9651 L -182.4191 1020.5859 L -182.1036 1020.2994 L -181.7972 1020.0133 L -181.499 1019.726 L -181.1134 1019.3402 L -180.8329 1019.0502 L -180.4703 1018.6609 L -180.2044 1018.3664 L -179.8596 1017.9713 L -179.6069 1017.6729 L -179.3587 1017.3711 L -179.0356 1016.9664 L -178.7979 1016.6586 L -178.5656 1016.3499 L -178.337 1016.0374 L -178.1135 1015.7232 L -177.8941 1015.4064 L -177.6779 1015.0851 L -177.3979 1014.6564 L -177.1922 1014.3295 L -176.9912 1014.0001 L -176.7308 1013.5577 L -176.5412 1013.2221 L -176.3563 1012.8839 L -176.1164 1012.4277 L -175.9416 1012.082 L -175.7713 1011.7334 L -175.5517 1011.2646 L -175.3914 1010.9078 L -175.2351 1010.547 L -175.0331 1010.0597 L -174.8857 1009.6885 L -174.7419 1009.3121 L -174.6013 1008.9301 L -174.4644 1008.5426 L -174.2878 1008.0185 L -174.1595 1007.6183 L -174.0351 1007.2129 L -173.8751 1006.663 L -173.7603 1006.2461 L -173.6124 1005.6796 L -173.5062 1005.2491 L -173.4038 1004.8127 L -173.3056 1004.3701 L -173.2116 1003.9217 L -173.1227 1003.4703 L -173.0114 1002.8596 L -172.9337 1002.395 L -172.8383 1001.7689 L -172.773 1001.2933 L -172.7132 1000.8129 L -172.6594 1000.3285 L -172.6114 999.8383 L -172.5697 999.3453 L -172.5238 998.6805 L -172.4968 998.1761 L -172.4713 997.4982 L -172.46 996.9846 L -172.4553 996.2954 L -172.4595 995.7729 L -172.4754 995.0717 L -172.4948 994.5415 L -172.5306 993.8291 L -172.565 993.2894 L -172.6056 992.7461 L -172.6523 992.1989 L -172.7051 991.6462 L -172.7846 990.9028 L -172.8507 990.3389 L -172.9221 989.7702 L -172.9983 989.1969 L -173.0792 988.6184 L -173.1646 988.036 L -173.2855 987.2526 L -173.3814 986.6597 L -173.4819 986.0625 L -173.587 985.4619 L -173.6972 984.8551 L -173.8508 984.043 L -173.9713 983.4268 L -174.0962 982.8052 L -174.269 981.9688 L -174.4031 981.3358 L -174.5411 980.6975 L -174.6832 980.0536 L -174.8293 979.4056 L -174.9793 978.7527 L -175.1861 977.8732 L -175.3461 977.2084 L -175.5109 976.5375 L -175.6804 975.8615 L -175.8549 975.1805 L -176.0962 974.2651 L -176.2843 973.5721 L -176.4784 972.875 L -176.6796 972.1719 L -176.8904 971.4548 L -177.1743 970.5172 L -177.3982 969.8002 L -177.6296 969.0786 L -177.95 968.1093 L -178.1991 967.3786 L -178.5436 966.3975 L -178.8114 965.6562 L -179.1812 964.663 L -179.4681 963.913 L -179.7626 963.1603 L -180.0659 962.4025 L -180.4814 961.3889 L -180.8021 960.6239 L -181.1303 959.856 L -181.4659 959.0841 L -181.9254 958.048 L -182.2773 957.2706 L -182.6367 956.4879 L -183.0036 955.6998 L -183.3766 954.9095 L -183.8828 953.8529 L -184.2694 953.0565 L -184.663 952.2543 L -185.061 951.4505 L -185.6009 950.3713 L -186.0119 949.5578 L -186.4279 948.7398 L -186.9899 947.6429 L -187.4168 946.8152 L -187.8477 945.9841 L -188.2834 945.1476 L -188.8718 944.0246 L -189.3164 943.1797 L -189.9175 942.0433 L -190.3742 941.1838 L -190.8354 940.319 L -191.3026 939.4464 L -191.7731 938.571 L -192.409 937.3924 L -192.8908 936.5034 L -193.541 935.3083 L -194.0341 934.4059 L -194.5318 933.4982 L -195.2034 932.277 L -195.7107 931.3564 L -196.222 930.4304 L -196.909 929.1872 L -197.4291 928.2457 L -198.1256 926.9847 L -198.6516 926.0312 L -199.1799 925.0727 L -199.7129 924.1028 L -200.4271 922.7979 L -200.9624 921.8146 L -201.5013 920.8207 L -202.039 919.8237 L -202.7585 918.4818 L -203.2988 917.4669 L -203.8376 916.4474 L -204.5563 915.0753 L -205.0934 914.0391 L -205.6292 912.9954 L -206.1641 911.9428 L -206.8704 910.5338 L -207.3969 909.4686 L -207.9198 908.3964 L -208.4379 907.3192 L -209.1218 905.873 L -209.6281 904.7827 L -210.2942 903.3221 L -210.7871 902.22 L -211.4337 900.746 L -211.9111 899.6362 L -212.5361 898.1543 L -212.9971 897.0382 L -213.4511 895.92 L -213.8983 894.799 L -214.4834 893.3016 L -214.9144 892.1755 L -215.3385 891.0476 L -215.7559 889.9177 L -216.302 888.408 L -216.7036 887.2737 L -217.0989 886.137 L -217.4868 885.0003 L -217.994 883.4798 L -218.3668 882.3372 L -218.8514 880.814 L -219.2065 879.6685 L -219.5532 878.5239 L -219.8922 877.3755 L -220.2225 876.2265 L -220.6484 874.6959 L -220.9576 873.5455 L -221.2575 872.3945 L -221.5482 871.2423 L -221.8293 870.0883 L -222.1005 868.9351 L -222.3621 867.7808 L -222.6955 866.2408 L -222.9342 865.0855 L -223.1627 863.9307 L -223.4523 862.3881 L -223.658 861.2299 L -223.8532 860.0737 L -224.0975 858.5307 L -224.269 857.3705 L -224.4809 855.8246 L -224.6272 854.6645 L -224.7626 853.5034 L -224.8866 852.3412 L -224.999 851.1791 L -225.1305 849.6284 L -225.2153 848.4633 L -225.2884 847.3012 L -225.3673 845.7475 L -225.4124 844.5844 L -225.4455 843.4203 L -225.4661 842.2543 L -225.4733 840.7016 L -225.4632 839.5375 L -225.4396 838.3725 L -225.3876 836.8241 L -225.3332 835.661 L -225.2406 834.1102 L -225.1569 832.9465 L -225.0267 831.3947 L -224.9153 830.2258 L -224.7933 829.0598 L -224.6599 827.8883 L -224.5161 826.7174 L -224.3081 825.1529 L -224.1401 823.9769 L -223.9005 822.4071 L -223.7093 821.2264 L -223.4402 819.6532 L -223.228 818.4716 L -223.0075 817.288 L -222.7793 816.1044 L -222.5432 814.9182 L -222.2997 813.7307 L -222.0493 812.5452 L -221.7917 811.3586 L -221.5267 810.1711 L -221.1622 808.5892 L -220.88 807.4039 L -220.589 806.219 L -220.1892 804.65 L -219.8778 803.4731 L -219.5575 802.3017 L -219.2272 801.1337 L -218.8864 799.9695 L -218.5345 798.8084 L -218.0486 797.2664 L -217.6711 796.1155 L -217.1496 794.5856 L -216.7441 793.4402 L -216.1849 791.9195 L -215.7515 790.7828 L -215.3053 789.6475 L -214.8472 788.5163 L -214.3766 787.3873 L -213.7303 785.8883 L -213.2316 784.7692 L -212.5478 783.2838 L -212.0204 782.1736 L -211.4805 781.0674 L -210.9296 779.9683 L -210.1748 778.5074 L -209.5955 777.4186 L -209.0039 776.3339 L -208.1978 774.8964 L -207.5793 773.8238 L -206.7368 772.402 L -206.0913 771.3414 L -205.2141 769.9367 L -204.5424 768.8875 L -203.8601 767.8439 L -203.168 766.8063 L -202.465 765.7717 L -201.5127 764.3997 L -200.7868 763.3753 L -199.8069 762.0185 L -199.0617 761.0046 L -198.055 759.6579 L -197.2912 758.6526 L -196.5199 757.6497 L -195.4809 756.3157 L -194.6947 755.3188 L -193.9029 754.3227 L -193.1065 753.3295 L -192.0364 752.0073 L -191.2278 751.0175 L -190.4133 750.0283 L -189.3221 748.7173 L -188.494 747.7339 L -187.384 746.4343 L -186.5418 745.4637 L -185.6924 744.4986 L -184.5497 743.2227 L -183.6833 742.2733 L -182.5146 741.0171 L -181.6303 740.0853 L -180.4365 738.8527 L -179.5318 737.9375 L -178.6153 737.0267 L -177.3877 735.8318 L -176.4545 734.9424 L -175.2005 733.7725 L -174.2479 732.9027 L -172.9664 731.7574 L -171.9946 730.9075 L -171.0165 730.068 L -169.699 728.9615 L -168.7016 728.1419 L -167.6976 727.332 L -166.6847 726.53 L -165.6639 725.7368 L -164.6367 724.9534 L -163.6012 724.1784 L -162.5585 723.4127 L -161.16 722.4081 L -160.101 721.6642 L -159.035 720.9297 L -157.604 719.9655 L -156.5233 719.2532 L -155.4351 718.5493 L -153.9734 717.6241 L -152.8705 716.9408 L -151.7617 716.2662 L -150.2696 715.3771 L -149.1461 714.7206 L -147.6389 713.8561 L -146.5017 713.2151 L -145.3583 712.5791 L -144.2096 711.9478 L -142.6729 711.1128 L -141.5145 710.4893 L -140.3533 709.8682 L -138.7987 709.0421 L -137.6284 708.4229 L -136.4555 707.8035 L -135.2772 707.1814 L -134.0983 706.5601 L -132.5177 705.729 L -131.3303 705.104 L -129.7411 704.2681 L -128.5422 703.6372 L -127.3415 703.0054 L -126.1353 702.3705 L -124.925 701.7338 L -123.7092 701.0932 L -122.0868 700.2394 L -120.8648 699.5959 L -119.2301 698.7346 L -117.9987 698.0851 L -116.7635 697.4338 L -115.5231 696.7796 L -113.8669 695.9063 L -112.6203 695.2489 L -110.9493 694.3671 L -109.6926 693.7039 L -108.0127 692.8171 L -106.7477 692.1494 L -105.4798 691.4799 L -104.2095 690.8085 L -102.932 690.1332 L -101.6544 689.4564 L -99.9463 688.5497 L -98.6608 687.8646 L -96.9446 686.9458 L -95.6523 686.251 L -94.3636 685.555 L -92.6406 684.6185 L -91.3454 683.9095 L -90.0539 683.1983 L -88.7622 682.4814 L -87.4714 681.7593 L -85.7565 680.7915 L -84.4721 680.0591 L -83.193 679.3231 L -81.9198 678.5835 L -80.6517 677.8397 L -79.3914 677.0926 L -77.7217 676.0908 L -76.4818 675.3369 L -74.84 674.3255 L -73.6206 673.5629 L -72.4096 672.796 L -71.2067 672.0235 L -70.0193 671.2504 L -68.4496 670.2107 L -67.2868 669.4261 L -66.137 668.6375 L -64.6231 667.5765 L -63.5023 666.7738 L -62.3954 665.9663 L -61.302 665.1528 L -60.2207 664.3327 L -58.8024 663.232 L -57.7535 662.4004 L -56.7176 661.5635 L -55.6939 660.7205 L -54.3521 659.5909 L -53.3599 658.7372 L -52.0569 657.5906 L -51.098 656.7276 L -50.1525 655.8603 L -48.9097 654.6929 L -47.9963 653.8149 L -47.0946 652.931 L -46.2072 652.043 L -45.0434 650.8517 L -44.1866 649.9548 L -43.0648 648.754 L -42.2359 647.8467 L -41.4189 646.9357 L -40.3478 645.7162 L -39.5566 644.7973 L -38.7748 643.8735 L -38.0032 642.9471 L -37.2396 642.0166 L -36.2356 640.7705 L -35.4922 639.832 L -34.7548 638.8887 L -34.0251 637.9444 L -33.0592 636.6797 L -32.3403 635.7276 L -31.389 634.4561 L -30.6813 633.502 L -29.7427 632.2247 L -29.0453 631.2659 L -28.3517 630.305 L -27.4337 629.0208 L -26.7491 628.0535 L -26.0697 627.0858 L -25.393 626.1146 L -24.7207 625.1429 L -23.8287 623.8423 L -23.1655 622.8668 L -22.5053 621.8882 L -21.8454 620.9025 L -20.9753 619.5902 L -20.3227 618.597 L -19.4631 617.2741 L -18.8227 616.2771 L -18.1858 615.2751 L -17.5545 614.2711 L -16.9276 613.2623 L -16.0997 611.9097 L -15.485 610.8902 L -14.8761 609.8671 L -14.2722 608.8399 L -13.474 607.4629 L -12.8814 606.4261 L -12.0983 605.0367 L -11.515 603.9879 L -10.7443 602.5858 L -10.1709 601.5309 L -9.5999 600.4709 L -9.0328 599.4097 L -8.4666 598.3423 L -7.7157 596.9176 L -7.154 595.848 L -6.5913 594.7737 L -6.0296 593.7015 L -5.4659 592.6273 L -4.7108 591.1938 L -4.1405 590.1186 L -3.3756 588.6889 L -2.7967 587.6159 L -2.2138 586.5456 L -1.6262 585.4786 L -.8345 584.0589 L -.2339 582.9974 L .5754 581.5901 L 1.19 580.54 L 1.8118 579.4939 L 2.4391 578.4562 L 3.2866 577.0826 L 3.9306 576.0605 L 4.8 574.711 L 5.4601 573.7097 L 6.1269 572.7184 L 7.0267 571.4117 L 7.7105 570.4417 L 8.6312 569.1652 L 9.3295 568.2189 L 10.035 567.2815 L 10.9844 566.0476 L 11.7044 565.1323 L 12.4305 564.2271 L 13.1635 563.3307 L 13.9039 562.4429 L 14.6506 561.5649 L 15.4045 560.6959 L 16.4211 559.5515 L 17.192 558.704 L 17.9709 557.8652 L 18.7562 557.0371 L 19.8164 555.9461 L 20.6201 555.1389 L 21.4311 554.3409 L 22.2497 553.5508 L 23.0771 552.7674 L 23.9119 551.9909 L 24.7541 551.2203 L 25.6031 550.4548 L 26.4588 549.6945 L 27.3213 548.9377 L 28.1881 548.1839 L 29.0611 547.4319 L 29.9378 546.6822 L 31.1129 545.687 L 32.0001 544.9405 L 32.891 544.1944 L 34.0827 543.2003 L 34.9813 542.4542 L 36.1828 541.4581 L 37.0868 540.711 L 37.9949 539.9639 L 38.9077 539.2159 L 40.1307 538.2188 L 41.0521 537.4737 L 41.9784 536.7314 L 43.2224 535.7441 L 44.1596 535.0086 L 45.1041 534.2742 L 46.053 533.5446 L 47.0069 532.8195 L 47.9675 532.0972 L 48.9323 531.3795 L 49.9036 530.6656 L 51.2055 529.7205 L 52.1867 529.0153 L 53.1737 528.3112 L 54.4934 527.3776 L 55.4876 526.6789 L 56.8156 525.7482 L 57.8142 525.05 L 58.8129 524.3527 L 60.1453 523.4211 L 61.1434 522.7209 L 62.1401 522.0187 L 63.1343 521.3132 L 64.126 520.6052 L 65.1091 519.8964 L 66.088 519.1841 L 67.3798 518.232 L 68.3391 517.5137 L 69.2884 516.793 L 70.5401 515.827 L 71.4645 515.1 L 72.6841 514.1223 L 73.584 513.3865 L 74.4736 512.6453 L 75.3532 511.8998 L 76.2207 511.1512 L 77.077 510.3988 L 78.2023 509.3887 L 79.0314 508.6284 L 79.8507 507.863 L 80.924 506.8369 L 81.7147 506.0631 L 82.4941 505.2849 L 83.2619 504.502 L 84.2651 503.4543 L 85.0038 502.664 L 85.7323 501.868 L 86.6833 500.8026 L 87.3841 499.9975 L 88.0734 499.1881 L 88.9761 498.101 L 89.6401 497.2808 L 90.2937 496.4555 L 90.937 495.6253 L 91.5719 494.7891 L 92.3995 493.6737 L 93.0121 492.8301 L 93.6178 491.9814 L 94.2157 491.1303 L 95.0036 489.9888 L 95.5878 489.1286 L 96.3584 487.9767 L 96.9313 487.1082 L 97.6875 485.9463 L 98.2511 485.0705 L 98.8112 484.1931 L 99.5541 483.0202 L 100.109 482.1373 L 100.661 481.2531 L 101.2107 480.3659 L 101.7567 479.4771 L 102.4786 478.2874 L 103.0147 477.3905 L 103.5448 476.4906 L 104.2428 475.2826 L 104.7569 474.374 L 105.2645 473.4592 L 105.9297 472.2314 L 106.418 471.3068 L 107.0572 470.0645 L 107.5255 469.1293 L 108.1367 467.8743 L 108.5851 466.9262 L 109.0234 465.9755 L 109.5934 464.6998 L 110.0094 463.737 L 110.547 462.4472 L 110.9386 461.4713 L 111.3174 460.4957 L 111.8062 459.1859 L 112.1602 458.1992 L 112.5036 457.2086 L 112.9457 455.8817 L 113.2656 454.8841 L 113.6774 453.5494 L 113.9765 452.5439 L 114.267 451.5374 L 114.5503 450.5276 L 114.8265 449.5159 L 115.0965 448.5022 L 115.3616 447.4851 L 115.6224 446.4651 L 115.88 445.4418 L 116.2198 444.0757 L 116.4748 443.0466 L 116.8161 441.6735 L 117.0749 440.6408 L 117.3365 439.6068 L 117.6015 438.5721 L 117.9615 437.1904 L 118.2369 436.1533 L 118.5173 435.115 L 118.8034 434.074 L 119.1917 432.6892 L 119.4893 431.6497 L 119.7928 430.6078 L 120.1013 429.5658 L 120.4152 428.5219 L 120.7344 427.4758 L 121.0589 426.4276 L 121.4983 425.0303 L 121.8343 423.9782 L 122.1746 422.9255 L 122.6356 421.519 L 122.9866 420.4619 L 123.4617 419.0498 L 123.8236 417.9888 L 124.19 416.9283 L 124.6875 415.5128 L 125.0671 414.4517 L 125.4525 413.3922 L 125.9774 411.9776 L 126.3784 410.92 L 126.7872 409.8631 L 127.2041 408.8074 L 127.6285 407.7557 L 128.0624 406.705 L 128.6537 405.3123 L 129.1084 404.2709 L 129.5737 403.2315 L 130.048 402.198 L 130.6961 400.8265 L 131.1945 399.8025 L 131.7043 398.7813 L 132.3974 397.4333 L 132.9313 396.426 L 133.6584 395.095 L 134.2162 394.1045 L 134.7847 393.1211 L 135.5587 391.8224 L 136.1521 390.8573 L 136.7567 389.8999 L 137.3713 388.9527 L 137.9978 388.0129 L 138.8497 386.7747 L 139.5015 385.857 L 140.1646 384.9488 L 140.837 384.0529 L 141.5217 383.1655 L 142.2173 382.2883 L 143.1603 381.1371 L 143.8797 380.2869 L 144.6106 379.4466 L 145.3512 378.6181 L 146.3553 377.5298 L 147.1215 376.7245 L 147.8972 375.9302 L 148.9451 374.8883 L 149.7431 374.1165 L 150.5486 373.3547 L 151.3637 372.5999 L 152.4601 371.6082 L 153.2924 370.8719 L 154.1297 370.1443 L 155.2564 369.1849 L 156.1089 368.473 L 156.9659 367.7687 L 157.829 367.0706 L 158.989 366.1499 L 159.8639 365.4686 L 160.7458 364.7928 L 161.6323 364.1242 L 162.8209 363.2432 L 163.719 362.5887 L 164.6198 361.9419 L 165.8296 361.0881 L 166.7421 360.4553 L 167.6577 359.83 L 168.8873 359.0064 L 169.8155 358.3974 L 170.747 357.7975 L 171.9988 357.0098 L 172.9415 356.4306 L 173.8908 355.8598 L 174.8459 355.2982 L 176.1232 354.5676 L 177.0888 354.031 L 178.0584 353.5059 L 179.3601 352.8226 L 180.3406 352.3247 L 181.6574 351.6793 L 182.65 351.2108 L 183.9798 350.6076 L 184.9834 350.1711 L 186.3279 349.6114 L 187.3397 349.2094 L 188.6942 348.6968 L 189.7145 348.33 L 190.7393 347.9781 L 191.7653 347.6423 L 193.1389 347.218 L 194.1729 346.9172 L 195.554 346.5397 L 196.5928 346.2733 L 197.6324 346.0207 L 198.6733 345.7812 L 200.0641 345.4806 L 201.112 345.2679 L 202.5066 345.002 L 203.5558 344.8145 L 204.6062 344.637 L 206.0101 344.4154 L 207.065 344.2607 L 208.4731 344.0706 L 209.5319 343.9402 L 210.9437 343.7837 L 212.0016 343.6795 L 213.0624 343.5867 L 214.476 343.4813 L 215.5372 343.4161 L 216.5992 343.3632 L 218.014 343.3115 L 219.0755 343.2871 L 220.1362 343.2753 L 221.1964 343.2764 L 222.2567 343.2903 L 223.6698 343.3289 L 224.7274 343.3728 L 225.7838 343.4294 L 226.8411 343.4987 L 227.8955 343.5804 L 228.9487 343.674 L 230.0024 343.7793 L 231.4057 343.9377 L 232.4538 344.0688 L 233.505 344.2109 L 234.5521 344.3626 L 235.9508 344.5805 L 236.9984 344.7548 L 238.3944 345.0016 L 239.4422 345.1977 L 240.8362 345.4732 L 241.883 345.6912 L 242.9272 345.9182 L 244.3194 346.2366 L 245.3615 346.4866 L 246.4034 346.7465 L 247.4447 347.0161 L 248.4832 347.2948 L 249.8673 347.6812 L 250.905 347.982 L 251.9382 348.2912 L 253.316 348.7185 L 254.3457 349.0492 L 255.7169 349.5048 L 256.7429 349.8571 L 257.7663 350.2183 L 259.1273 350.7141 L 260.1474 351.0972 L 261.1631 351.4879 L 262.5166 352.0224 L 263.5282 352.4318 L 264.5411 352.8499 L 265.8881 353.4181 L 266.8993 353.8533 L 267.9061 354.2939 L 268.9154 354.742 L 269.94 355.2041 L 271.2644 355.81 L 272.2707 356.2765 L 273.2771 356.7477 L 274.2854 357.2238 L 275.2932 357.7033 L 276.6371 358.3485 L 277.6474 358.8372 L 278.995 359.4937 L 280.0066 359.9899 L 281.0193 360.4891 L 282.0339 360.992 L 283.3857 361.6652 L 284.403 362.174 L 285.4223 362.6851 L 286.7803 363.3681 L 287.8037 363.8835 L 289.1687 364.5709 L 290.196 365.088 L 291.2261 365.6056 L 292.6017 366.2941 L 293.6383 366.8107 L 295.0232 367.4976 L 296.0647 368.0103 L 297.1108 368.5215 L 298.5087 369.1977 L 299.5613 369.7013 L 300.6168 370.2012 L 301.6743 370.6964 L 302.7364 371.1877 L 304.152 371.8315 L 305.2175 372.307 L 306.6393 372.9285 L 307.7086 373.3854 L 308.7784 373.8327 L 309.8483 374.2695 L 311.2765 374.835 L 312.3471 375.2451 L 313.4162 375.6419 L 314.4831 376.025 L 315.904 376.5148 L 316.9694 376.8661 L 318.3838 377.3109 L 319.4465 377.6283 L 320.5036 377.929 L 321.5617 378.2148 L 322.617 378.4843 L 323.6723 378.7379 L 325.0678 379.0489 L 326.1166 379.2638 L 327.1608 379.4617 L 328.2027 379.643 L 329.2409 379.8077 L 330.2779 379.9561 L 331.6529 380.1283 L 332.6809 380.2395 L 333.7033 380.3354 L 335.0622 380.441 L 336.0779 380.504 L 337.4212 380.5672 L 338.4218 380.6 L 339.4203 380.621 L 340.4143 380.6305 L 341.4025 380.6288 L 342.3857 380.6164 L 343.6899 380.5837 L 344.6619 380.5474 L 345.6281 380.5012 L 346.5901 380.4453 L 347.5457 380.3801 L 348.8132 380.2785 L 349.7568 380.1918 L 350.6973 380.096 L 351.6324 379.9915 L 352.8722 379.8387 L 353.7977 379.7141 L 354.7211 379.5808 L 355.6385 379.4397 L 356.5541 379.2901 L 357.4651 379.1328 L 358.6783 378.9101 L 359.5813 378.7346 L 360.483 378.5512 L 361.383 378.3596 L 362.5772 378.093 L 363.4711 377.8838 L 364.363 377.6673 L 365.547 377.3674 L 366.4342 377.1335 L 367.6102 376.8113 L 368.4911 376.5606 L 369.3692 376.3027 L 370.5386 375.9467 L 371.4126 375.6712 L 372.5771 375.2917 L 373.4496 374.9977 L 374.3199 374.6961 L 375.4789 374.2818 L 376.3475 373.9615 L 377.2132 373.6336 L 378.0783 373.297 L 379.2271 372.8352 L 380.086 372.4781 L 380.9433 372.1112 L 382.0803 371.6079 L 382.9308 371.2185 L 383.7789 370.8186 L 384.9035 370.2692 L 385.7436 369.8438 L 386.5801 369.4067 L 387.6879 368.8055 L 388.5126 368.3405 L 389.3312 367.8635 L 390.1438 367.374 L 391.2176 366.7016 L 392.0173 366.1819 L 392.8093 365.6512 L 393.8551 364.9263 L 394.6341 364.3689 L 395.4083 363.8004 L 396.4317 363.0268 L 397.1941 362.4352 L 398.2048 361.6319 L 398.9572 361.0203 L 399.7076 360.3995 L 400.454 359.7717 L 401.1976 359.1364 L 401.9402 358.4926 L 402.9282 357.622 L 403.6679 356.9608 L 404.4063 356.2921 L 405.3907 355.3889 L 406.1295 354.7025 L 406.8668 354.0102 L 407.6048 353.3109 L 408.3431 352.6054 L 409.3275 351.6556 L 410.0682 350.9342 L 411.0516 349.9671 L 411.7903 349.2335 L 412.5295 348.4928 L 413.5134 347.4952 L 414.2479 346.7408 L 415.2262 345.7237 L 415.9591 344.9515 L 416.9321 343.9121 L 417.6601 343.1231 L 418.6237 342.0624 L 419.3435 341.2572 L 420.0605 340.4435 L 420.7719 339.6243 L 421.4812 338.7953 L 422.1857 337.9594 L 423.1145 336.8369 L 423.8051 335.9868 L 424.4913 335.1284 L 425.3961 333.9747 L 426.0683 333.1013 L 426.7349 332.2215 L 427.3952 331.3366 L 428.2685 330.1465 L 428.9173 329.2484 L 429.7753 328.0435 L 430.4155 327.1329 L 431.262 325.915 L 431.8941 324.9969 L 432.5242 324.076 L 433.3599 322.8469 L 433.9868 321.9226 L 434.6114 321.0022 L 435.2368 320.084 L 436.0724 318.8668 L 436.7012 317.9604 L 437.333 317.0604 L 437.9665 316.1706 L 438.6042 315.2892 L 439.4597 314.1313 L 440.1057 313.2776 L 440.7571 312.4355 L 441.6336 311.3333 L 442.2982 310.5216 L 443.1925 309.462 L 443.871 308.6833 L 444.5564 307.9192 L 445.248 307.1709 L 445.9471 306.4378 L 446.8888 305.4873 L 447.6041 304.7933 L 448.3266 304.1162 L 449.0549 303.4576 L 450.0383 302.6052 L 450.7817 301.9882 L 451.532 301.3882 L 452.5434 300.6139 L 453.3079 300.0539 L 454.3397 299.3308 L 455.12 298.8079 L 455.9058 298.3011 L 456.6986 297.8085 L 457.4962 297.3315 L 458.2991 296.8691 L 459.3782 296.2739 L 460.1953 295.842 L 461.0164 295.4237 L 461.8431 295.0173 L 462.6758 294.6224 L 463.5108 294.2404 L 464.3527 293.8691 L 465.198 293.5096 L 466.3319 293.0481 L 467.1877 292.7151 L 468.0462 292.3941 L 469.1983 291.9849 L 470.0658 291.6928 L 470.9367 291.4132 L 471.8105 291.1465 L 472.6891 290.8925 L 473.5687 290.6523 L 474.7479 290.3528 L 475.6349 290.1449 L 476.821 289.8904 L 477.7103 289.7171 L 478.6004 289.5589 L 479.4955 289.415 L 480.6864 289.248 L 481.5809 289.1406 L 482.474 289.0486 L 483.3674 288.9714 L 484.26 288.9091 L 485.1519 288.8614 L 486.0435 288.828 L 486.9352 288.809 L 487.825 288.8042 L 489.0088 288.8197 L 489.8961 288.8474 L 490.782 288.889 L 491.6668 288.9442 L 492.8427 289.0385 L 493.7236 289.1248 L 494.895 289.2604 L 495.7718 289.3774 L 496.649 289.5078 L 497.8145 289.7011 L 498.6866 289.8611 L 499.5568 290.0341 L 500.4234 290.2201 L 501.5762 290.4901 L 502.4369 290.7091 L 503.5772 291.0232 L 504.428 291.276 L 505.5534 291.6358 L 506.3917 291.9233 L 507.2225 292.225 L 508.3202 292.6499 L 509.1361 292.9855 L 509.9473 293.336 L 510.7504 293.6996 L 511.8127 294.2064 L 512.601 294.6019 L 513.3838 295.0112 L 514.1605 295.4335 L 514.9292 295.8675 L 515.9446 296.4656 L 516.6982 296.9274 L 517.4449 297.4002 L 518.4313 298.0469 L 519.1638 298.543 L 519.8928 299.0491 L 520.6144 299.5615 L 521.5728 300.2576 L 522.2847 300.7866 L 523.229 301.5013 L 523.9337 302.0449 L 524.6359 302.5942 L 525.337 303.15 L 526.0343 303.7101 L 526.9615 304.4647 L 527.6578 305.037 L 528.3531 305.6132 L 529.2818 306.3872 L 529.9782 306.9696 L 530.6765 307.5537 L 531.6105 308.3319 L 532.3156 308.9168 L 533.0246 309.5021 L 533.9743 310.2789 L 534.6921 310.8609 L 535.4147 311.4417 L 536.3834 312.2109 L 537.1161 312.7854 L 537.8534 313.3569 L 538.595 313.9246 L 539.5903 314.6739 L 540.3427 315.2305 L 541.3518 315.9633 L 541.8562 316.3229 L 542.8752 317.0353 L 543.6389 317.5569 L 544.4084 318.0708 L 545.1776 318.5727 L 546.2051 319.2248 L 546.9795 319.7016 L 548.0146 320.3191 L 548.7881 320.7666 L 549.5664 321.2049 L 550.3461 321.6305 L 551.3871 322.1788 L 552.1703 322.5753 L 552.9555 322.9596 L 554.0024 323.4514 L 554.7885 323.8057 L 555.5771 324.1479 L 556.3687 324.479 L 557.4272 324.9037 L 558.2257 325.2106 L 559.0274 325.5081 L 559.8348 325.7972 L 560.912 326.1674 L 561.7251 326.4356 L 562.5415 326.6958 L 563.3625 326.9486 L 564.4602 327.274 L 565.2875 327.5099 L 566.1185 327.7391 L 567.2315 328.034 L 568.0706 328.2476 L 569.193 328.5222 L 570.0407 328.7212 L 571.1791 328.9771 L 572.0365 329.1615 L 572.899 329.3398 L 574.0564 329.5681 L 574.9282 329.7317 L 575.8067 329.8894 L 576.6884 330.041 L 577.8683 330.2332 L 578.7596 330.3704 L 579.9575 330.5444 L 580.86 330.6677 L 582.0737 330.8228 L 582.9904 330.9323 L 583.9116 331.0355 L 584.8408 331.1326 L 586.083 331.2514 L 587.023 331.3327 L 588.2842 331.4292 L 589.2349 331.4918 L 590.5124 331.5617 L 591.4742 331.6034 L 592.4418 331.6358 L 593.7371 331.6637 L 594.714 331.673 L 595.6947 331.6723 L 596.6801 331.6612 L 597.6674 331.6396 L 598.6741 331.6063 L 599.9783 331.545 L 600.9686 331.4842 L 601.9588 331.4107 L 603.2772 331.2929 L 604.2636 331.1893 L 605.5764 331.0306 L 606.5568 330.8965 L 607.5373 330.7495 L 608.8389 330.5351 L 609.8135 330.3609 L 610.7891 330.176 L 611.7637 329.9814 L 613.0645 329.708 L 614.0401 329.4935 L 615.0176 329.2715 L 616.321 328.9663 L 617.3012 328.731 L 618.2822 328.4913 L 619.2666 328.2476 L 620.2509 328.0015 L 621.2376 327.7535 L 622.2278 327.505 L 623.221 327.2565 L 624.2152 327.0094 L 625.2123 326.7633 L 626.549 326.4357 L 627.5513 326.1923 L 628.5582 325.9496 L 629.9029 325.6271 L 630.9165 325.3859 L 632.27 325.0663 L 633.2902 324.8265 L 634.3077 324.5882 L 635.3312 324.3489 L 636.3581 324.109 L 637.3858 323.8694 L 638.7628 323.5476 L 639.7969 323.3052 L 640.8372 323.0606 L 642.2288 322.7312 L 643.2767 322.4814 L 644.3264 322.2293 L 645.7336 321.8884 L 646.7904 321.6296 L 648.2026 321.2798 L 649.2717 321.0124 L 650.3464 320.7413 L 651.4265 320.4664 L 652.869 320.0954 L 653.9579 319.8125 L 655.4127 319.4306 L 656.5101 319.1394 L 657.6113 318.8445 L 658.7173 318.5456 L 660.1964 318.1409 L 661.3103 317.8325 L 662.8048 317.4138 L 663.9261 317.0958 L 665.4321 316.6636 L 666.5645 316.3347 L 667.7022 316.0008 L 668.8449 315.6619 L 669.9893 315.3191 L 671.5242 314.8541 L 672.6801 314.4999 L 673.8389 314.1415 L 675.0024 313.7787 L 676.1711 313.4113 L 677.346 313.0392 L 678.9113 312.539 L 680.0945 312.1581 L 681.6758 311.6451 L 682.8677 311.2558 L 684.0639 310.8627 L 685.6645 310.3329 L 686.8702 309.9311 L 688.0809 309.5254 L 689.6998 308.9792 L 690.9196 308.5651 L 692.1438 308.1471 L 693.3713 307.7251 L 694.6063 307.2979 L 696.2499 306.7242 L 697.4875 306.2887 L 699.1475 305.7 L 700.395 305.2535 L 701.6486 304.8013 L 703.3209 304.1928 L 704.5807 303.7303 L 706.2643 303.1063 L 707.5307 302.6321 L 708.8 302.1525 L 710.4954 301.5038 L 711.7704 301.0101 L 713.0482 300.5097 L 714.3256 300.0038 L 715.6061 299.4906 L 716.8887 298.9704 L 718.171 298.4434 L 719.4532 297.9097 L 720.7383 297.3673 L 722.4451 296.634 L 723.7255 296.0742 L 725.0026 295.5068 L 726.2735 294.9326 L 727.543 294.349 L 729.221 293.5603 L 730.4705 292.9586 L 732.1206 292.1431 L 733.3502 291.5194 L 734.5654 290.8891 L 735.774 290.2476 L 736.9665 289.5998 L 738.5424 288.7209 L 739.713 288.0512 L 741.2576 287.1464 L 742.406 286.4581 L 743.9233 285.5288 L 745.052 284.8227 L 746.1719 284.1103 L 747.6542 283.1489 L 748.7574 282.4204 L 749.8547 281.6849 L 750.9474 280.9427 L 752.3897 279.9493 L 753.4684 279.1974 L 754.5421 278.4418 L 755.6105 277.6831 L 756.6748 276.9215 L 757.7354 276.1573 L 759.1453 275.1338 L 760.1977 274.3646 L 761.2495 273.5917 L 762.297 272.8176 L 763.6895 271.7819 L 764.7292 271.002 L 766.109 269.9578 L 767.1395 269.1702 L 768.1646 268.3796 L 769.1856 267.5842 L 770.2016 266.7843 L 771.212 265.9799 L 772.5501 264.9008 L 773.5472 264.0861 L 774.5394 263.2657 L 775.8519 262.1652 L 776.831 261.3332 L 777.8036 260.4971 L 779.0945 259.3723 L 780.0583 258.5207 L 781.019 257.6627 L 782.2964 256.5076 L 783.2505 255.6339 L 784.2043 254.7516 L 785.4728 253.5641 L 786.423 252.6639 L 787.3732 251.7559 L 788.3205 250.8423 L 789.5871 249.6083 L 790.5353 248.6755 L 791.4846 247.7321 L 792.4318 246.7826 L 793.6965 245.5026 L 794.6437 244.534 L 795.9094 243.2285 L 796.8566 242.2415 L 797.8049 241.2453 L 798.7521 240.2409 L 799.6984 239.2288 L 800.6437 238.2096 L 801.5891 237.1811 L 802.5328 236.1467 L 803.7896 234.7535 L 804.731 233.6995 L 805.6712 232.6386 L 806.6116 231.5685 L 807.5511 230.4902 L 808.8001 229.0412 L 809.7357 227.9446 L 810.6683 226.8421 L 811.9114 225.3576 L 812.8431 224.235 L 813.7728 223.1053 L 814.7025 221.9663 L 815.6292 220.8224 L 816.8665 219.2839 L 817.7943 218.1228 L 819.0299 216.5643 L 819.9586 215.3846 L 821.1959 213.8061 L 822.1246 212.6141 L 823.0557 211.4137 L 824.3 209.8012 L 825.2336 208.5855 L 826.1692 207.3623 L 827.1074 206.1307 L 828.0469 204.8926 L 828.9883 203.6466 L 830.2456 201.9732 L 831.1899 200.711 L 832.1401 199.4364 L 833.0864 198.1607 L 834.3544 196.4455 L 835.3065 195.1521 L 836.2606 193.8529 L 837.5377 192.1091 L 838.4986 190.7938 L 839.7869 189.0307 L 840.7562 187.7051 L 842.0562 185.9302 L 843.0424 184.5872 L 844.0265 183.2511 L 845.0197 181.9068 L 846.3527 180.1094 L 847.3592 178.7585 L 848.7126 176.9517 L 849.7362 175.5927 L 851.1115 173.7777 L 852.1483 172.4179 L 853.1951 171.0521 L 854.2486 169.6853 L 855.309 168.3168 L 856.3771 166.9449 L 857.8099 165.1139 L 858.8918 163.7375 L 860.342 161.8996 L 861.4396 160.5132 L 862.5379 159.1291 L 863.6438 157.7379 L 865.1222 155.8809 L 866.2345 154.4859 L 867.7267 152.6166 L 868.8502 151.2095 L 870.3541 149.3289 L 871.4869 147.9123 L 872.6232 146.4926 L 874.1425 144.5952 L 875.2878 143.1656 L 876.4382 141.7304 L 877.5904 140.2936 L 878.7486 138.8504 L 880.2977 136.9209 L 881.4656 135.4669 L 882.6398 134.006 L 883.8168 132.5423 L 885.3945 130.5814 L 886.585 129.1033 L 887.778 127.6223 L 888.9771 126.1344 L 890.5844 124.1416 L 891.7949 122.6411 L 893.0114 121.1337 L 894.6385 119.1184 L 895.8672 117.5961 L 897.1016 116.0664 L 898.7533 114.0186 L 900.0002 112.4712 L 901.2473 110.9226 L 902.9181 108.8454 L 904.1796 107.2757 L 905.8867 105.1507 L 907.1357 103.5942 L 908.8347 101.478 L 910.1128 99.8855 L 911.8234 97.7542 L 913.1104 96.1523 L 914.4006 94.5457 L 915.6932 92.9372 L 917.4188 90.7905 L 918.7147 89.1803 L 920.0086 87.5722 L 921.726 85.4401 L 923.009 83.8481 L 924.2772 82.2755 L 925.5312 80.7214 L 926.7688 79.1885 L 928.3899 77.1824 L 929.5762 75.7154 L 930.7429 74.2737 L 931.8896 72.8576 L 933.3828 71.0151 L 934.4799 69.6627 L 935.5558 68.3371 L 936.6109 67.0379 L 937.6466 65.7638 L 938.6611 64.5165 L 939.9847 62.8906 L 940.95 61.7055 L 941.8991 60.5413 L 942.8331 59.3964 L 944.0601 57.8935 L 944.9692 56.7813 L 945.8666 55.6843 L 947.0479 54.2417 L 947.9205 53.1766 L 949.0684 51.7768 L 949.9156 50.7446 L 950.753 49.7246 L 951.848 48.3908 L 952.6517 47.4118 L 953.6995 46.1349 L 954.4592 45.2082 L 955.4404 44.01 L 956.1501 43.1419 L 956.84 42.2969 L 957.508 41.4769 L 958.1595 40.6755 L 959.0089 39.6284 L 959.6345 38.8551 L 960.2538 38.0878 L 961.0687 37.0749 L 961.6746 36.3194 L 962.4763 35.3165 L 963.0712 34.569 L 963.8577 33.5781 L 964.443 32.8381 L 965.2156 31.8576 L 965.7906 31.1256 L 966.3602 30.3978 L 966.9263 29.6724 L 967.4868 28.9509 L 968.2281 27.9919 L 968.7803 27.2738 L 969.3259 26.5617 L 970.0425 25.6218 L 970.5712 24.9242 L 971.0924 24.233 L 971.6039 23.5505 L 972.1052 22.8774 L 972.5941 22.2168 L 973.0688 21.5703 L 973.6783 20.7333 L 974.1188 20.1232 L 974.6832 19.3336 L 975.0939 18.7527 L 975.4976 18.1762 L 976.0249 17.4138 L 976.4115 16.8474 L 976.7917 16.2839 L 977.1642 15.7251 L 977.65 14.9853 L 978.0067 14.4332 L 978.3546 13.8871 L 978.6961 13.3435 L 979.0305 12.8033 L 979.4653 12.0885 L 979.7834 11.5554 L 980.196 10.8508 L 980.4968 10.327 L 980.7909 9.8054 L 981.171 9.1155 L 981.4479 8.6003 L 981.7163 8.0891 L 981.9767 7.5809 L 982.3118 6.9076 L 982.5546 6.4051 L 982.8656 5.7407 L 983.0894 5.2473 L 983.376 4.5948 L 983.5815 4.1103 L 983.844 3.469 L 984.0315 2.9935 L 984.2117 2.52 L 984.384 2.0508 L 984.5481 1.5847 L 984.7045 1.121 L 984.8525 .6612 L 984.993 .2034 L 985.1675 -.4016 L 985.2898 -.8538 L 985.4041 -1.3047 L 985.5441 -1.9027 L 985.6403 -2.3494 L 985.7286 -2.7946 L 985.8095 -3.2379 L 985.9065 -3.8291 L 985.9712 -4.2724 L 986.0295 -4.7175 L 986.0811 -5.1627 L 986.1398 -5.7592 L 986.1771 -6.2107 L 986.2189 -6.8171 L 986.2451 -7.2755 L 986.2675 -7.7369 L 986.2864 -8.2009 L 986.3018 -8.6698 L 986.3132 -9.143 L 986.3224 -9.7821 L 986.3242 -10.2672 L 986.3203 -10.9212 L 986.312 -11.4178 L 986.2986 -11.9192 L 986.2796 -12.4258 L 986.2446 -13.107 L 986.21 -13.6223 L 986.1524 -14.3135 L 986.0999 -14.8326 L 986.0392 -15.352 L 985.9453 -16.0434 L 985.8646 -16.5596 L 985.7747 -17.074 L 985.6404 -17.7532 L 985.5283 -18.2579 L 985.3638 -18.9237 L 985.2292 -19.4166 L 985.034 -20.0674 L 984.8764 -20.5481 L 984.7087 -21.0231 L 984.531 -21.4924 L 984.2789 -22.1078 L 984.0786 -22.5622 L 983.8685 -23.011 L 983.5744 -23.5987 L 983.3426 -24.0326 L 983.0199 -24.6008 L 982.7674 -25.0203 L 982.5057 -25.4348 L 982.2352 -25.8447 L 981.8609 -26.3845 L 981.5695 -26.7857 L 981.1674 -27.3144 L 980.8553 -27.7068 L 980.4262 -28.2226 L 980.0935 -28.6051 L 979.6366 -29.1073 L 979.2833 -29.4791 L 978.921 -29.8458 L 978.4251 -30.3266 L 978.0431 -30.6799 L 977.6533 -31.0269 L 977.1231 -31.4779 L 976.7177 -31.8073 L 976.3055 -32.1287 L 975.8854 -32.4428 L 975.4604 -32.7482 L 975.0286 -33.0456 L 974.5911 -33.3344 L 974.1486 -33.6144 L 973.5552 -33.9712 L 973.105 -34.2273 L 972.5011 -34.5526 L 972.046 -34.784 L 971.59 -35.0044 L 971.133 -35.2139 L 970.675 -35.4125 L 970.0649 -35.6605 L 969.607 -35.8343 L 968.9966 -36.05 L 968.5377 -36.2004 L 967.9245 -36.3859 L 967.4645 -36.5139 L 967.0021 -36.6329 L 966.5382 -36.7433 L 965.9182 -36.8774 L 965.4513 -36.9687 L 964.8253 -37.0791 L 964.353 -37.1539 L 963.8779 -37.2227 L 963.2396 -37.3062 L 962.7565 -37.3637 L 962.2693 -37.4176 L 961.6143 -37.4846 L 961.1147 -37.5322 L 960.4398 -37.5928 L 959.9257 -37.6363 L 959.4051 -37.6781 L 958.8781 -37.7178 L 958.1654 -37.7668 L 957.6238 -37.7999 L 957.0748 -37.8295 L 956.3333 -37.8634 L 955.7671 -37.8847 L 955.196 -37.9021 L 954.4224 -37.9192 L 953.8331 -37.9272 L 953.038 -37.931 L 952.4324 -37.9286 L 951.6143 -37.918 L 950.9932 -37.9042 L 950.3646 -37.8851 L 949.5173 -37.8506 L 948.874 -37.8178 L 948.2245 -37.7789 L 947.5698 -37.7339 L 946.9088 -37.6824 L 946.2404 -37.6242 L 945.3427 -37.5363 L 944.6638 -37.4623 L 943.7491 -37.3524 L 943.0578 -37.2617 L 942.1263 -37.129 L 941.4239 -37.0207 L 940.478 -36.864 L 940.0029 -36.7805 L 939.2861 -36.6486 L 938.5655 -36.5084 L 937.5988 -36.3084 L 936.8685 -36.1483 L 936.1361 -35.9799 L 935.3989 -35.8026 L 934.4117 -35.5526 L 933.6676 -35.3549 L 932.6686 -35.0777 L 931.9157 -34.8602 L 931.16 -34.6355 L 930.1453 -34.3249 L 929.3799 -34.0847 L 928.6081 -33.8379 L 927.834 -33.5859 L 927.053 -33.3275 L 926.2645 -33.0633 L 925.204 -32.7028 L 924.3994 -32.4263 L 923.3168 -32.0516 L 922.496 -31.7657 L 921.3914 -31.3784 L 920.5544 -31.0834 L 919.7102 -30.7847 L 918.8577 -30.4817 L 917.7111 -30.0722 L 916.8412 -29.7598 L 915.9639 -29.4434 L 914.7819 -29.0147 L 913.8844 -28.6875 L 912.6758 -28.2447 L 911.7592 -27.9071 L 910.5247 -27.4502 L 909.5876 -27.1019 L 908.6422 -26.7492 L 907.3672 -26.2725 L 906.4014 -25.9106 L 905.4262 -25.5449 L 904.112 -25.0515 L 903.1166 -24.6774 L 902.1137 -24.3002 L 900.7615 -23.7911 L 899.7393 -23.4057 L 898.3599 -22.8849 L 897.3156 -22.4898 L 895.9088 -21.9566 L 894.8459 -21.5529 L 893.7747 -21.1454 L 892.3332 -20.5964 L 891.2432 -20.1807 L 890.1432 -19.7613 L 888.6679 -19.199 L 887.5507 -18.7736 L 886.0475 -18.202 L 884.9119 -17.7711 L 883.7672 -17.3375 L 882.2307 -16.757 L 881.0667 -16.3186 L 879.5046 -15.7322 L 878.3236 -15.2906 L 876.7357 -14.6991 L 875.5353 -14.2536 L 874.3255 -13.806 L 873.1071 -13.3564 L 871.4734 -12.7548 L 870.2399 -12.3014 L 868.9966 -11.8449 L 867.7454 -11.386 L 866.4886 -10.9252 L 864.7993 -10.3061 L 863.5255 -9.8393 L 862.2408 -9.3685 L 860.9544 -8.897 L 859.2247 -8.263 L 857.9183 -7.7839 L 856.5923 -7.2976 L 854.8436 -6.6565 L 853.5153 -6.1698 L 851.7336 -5.5179 L 850.3879 -5.0263 L 849.036 -4.5333 L 847.6763 -4.0384 L 845.8546 -3.3771 L 844.4774 -2.8785 L 842.6356 -2.2136 L 841.2444 -1.713 L 839.8484 -1.2118 L 838.4442 -.709 L 837.0336 -.2051 L 835.6183 .2992 L 834.1942 .8053 L 832.7642 1.3124 L 830.8516 1.9886 L 829.4095 2.497 L 827.476 3.1768 L 826.019 3.6875 L 824.0679 4.3696 L 822.5945 4.883 L 820.625 5.5674 L 819.1389 6.0823 L 817.1485 6.77 L 815.6514 7.2859 L 814.1474 7.803 L 812.6367 8.3218 L 811.1233 8.8408 L 809.6026 9.3619 L 807.569 10.0584 L 806.0365 10.583 L 804.4995 11.1091 L 802.9561 11.6377 L 801.4095 12.1679 L 799.8581 12.6999 L 798.3011 13.2345 L 796.7401 13.771 L 795.1744 14.3094 L 793.6038 14.8499 L 792.0278 15.3924 L 789.9241 16.1167 L 788.3367 16.6628 L 786.7468 17.2095 L 784.6198 17.9394 L 783.0192 18.4881 L 780.878 19.2205 L 779.2645 19.7711 L 777.6473 20.322 L 776.0264 20.8729 L 774.4003 21.4246 L 772.2222 22.1614 L 770.5874 22.7131 L 768.394 23.451 L 766.7491 24.0028 L 765.0953 24.5558 L 763.4387 25.1081 L 761.7751 25.661 L 760.108 26.2131 L 757.879 26.9479 L 756.1999 27.4991 L 753.9571 28.2316 L 752.268 28.7806 L 750.5751 29.3285 L 748.8462 29.8857 L 746.6031 30.6051 L 744.8926 31.1512 L 743.1743 31.6975 L 740.8923 32.42 L 739.1696 32.9632 L 737.4416 33.5058 L 735.1309 34.2285 L 733.3939 34.7698 L 731.6508 35.3113 L 729.3261 36.0312 L 727.5743 36.5722 L 725.8214 37.1123 L 724.0587 37.6539 L 721.712 38.3733 L 719.9472 38.9131 L 717.5868 39.6332 L 715.8116 40.1734 L 714.0288 40.7147 L 711.6498 41.4354 L 709.8564 41.9773 L 707.4605 42.6997 L 705.6556 43.2424 L 703.8445 43.7859 L 702.031 44.3291 L 700.2095 44.8734 L 698.382 45.4185 L 695.938 46.1457 L 694.0983 46.6918 L 691.6369 47.4207 L 689.7852 47.9677 L 687.3058 48.6985 L 685.4431 49.2461 L 683.573 49.7948 L 681.6965 50.3442 L 679.8125 50.8946 L 677.3006 51.6268 L 675.4066 52.1776 L 673.509 52.7282 L 671.6069 53.279 L 669.695 53.8314 L 667.7477 54.393 L 665.2236 55.119 L 663.2959 55.6723 L 661.3657 56.2251 L 658.7842 56.9626 L 656.8455 57.5151 L 654.2499 58.253 L 652.2972 58.8068 L 650.3401 59.3605 L 647.7241 60.0992 L 645.7563 60.6541 L 643.127 61.3948 L 641.1481 61.9522 L 638.5094 62.6955 L 636.5225 63.2556 L 634.5336 63.8168 L 632.5418 64.3796 L 630.5452 64.9448 L 627.8773 65.7015 L 625.8749 66.271 L 623.8654 66.8437 L 621.8571 67.4174 L 619.1715 68.1863 L 617.1531 68.7655 L 615.1326 69.3463 L 612.4319 70.1236 L 610.4061 70.7073 L 608.3741 71.2932 L 606.3393 71.88 L 603.6232 72.6633 L 601.5786 73.2526 L 598.8477 74.0391 L 596.7999 74.6282 L 594.0616 75.4142 L 592.0069 76.0025 L 589.2574 76.7868 L 587.1925 77.3734 L 585.1225 77.9588 L 582.3618 78.7352 L 580.2869 79.315 L 578.2057 79.8932 L 576.1246 80.4679 L 573.3391 81.2313 L 571.2484 81.7999 L 569.1541 82.3657 L 566.3562 83.1158 L 564.2526 83.6755 L 561.4422 84.4172 L 559.3328 84.9696 L 556.509 85.7031 L 554.3923 86.2489 L 552.2701 86.7928 L 549.4327 87.515 L 547.3026 88.0537 L 544.4549 88.7695 L 542.3173 89.304 L 540.1751 89.8376 L 538.0292 90.3712 L 535.882 90.9042 L 533.7321 91.438 L 530.8617 92.1515 L 528.7084 92.688 L 526.5492 93.2275 L 523.6687 93.9502 L 521.5034 94.4962 L 519.3395 95.044 L 517.1721 95.5948 L 514.2784 96.3332 L 512.1069 96.8889 L 509.2045 97.6329 L 507.0251 98.1918 L 504.8442 98.7506 L 502.6596 99.3096 L 500.4722 99.8678 L 498.2815 100.4247 L 496.0877 100.9798 L 493.8892 101.5332 L 490.9549 102.2666 L 488.7463 102.8143 L 486.5393 103.3578 L 484.3265 103.8991 L 482.0998 104.4401 L 479.8864 104.9744 L 476.9277 105.6837 L 474.7016 106.214 L 472.4722 106.7424 L 470.2393 107.2692 L 468.0035 107.7946 L 465.019 108.4931 L 462.7732 109.0168 L 460.5288 109.5389 L 457.5262 110.2356 L 455.277 110.7565 L 453.025 111.2771 L 450.0127 111.9725 L 447.7545 112.4932 L 445.487 113.0153 L 443.1778 113.5462 L 440.1957 114.2309 L 437.9168 114.7532 L 434.8905 115.4458 L 432.6122 115.9664 L 429.5706 116.6601 L 427.2871 117.18 L 424.2366 117.8733 L 421.9424 118.3939 L 418.8855 119.0861 L 416.5916 119.6043 L 413.5239 120.2956 L 411.2203 120.8131 L 408.9127 121.3302 L 405.8342 122.0175 L 403.5195 122.5323 L 400.4308 123.2162 L 398.1105 123.7277 L 395.7902 124.237 L 392.6868 124.915 L 390.3533 125.422 L 387.2496 126.0931 L 384.9142 126.5955 L 382.5753 127.0964 L 379.4545 127.7612 L 377.1079 128.2584 L 373.9785 128.9178 L 371.6266 129.4104 L 369.2723 129.9006 L 366.1291 130.5501 L 363.7699 131.0337 L 361.4075 131.5144 L 358.246 132.1516 L 355.8815 132.6237 L 353.5101 133.0934 L 351.1334 133.5604 L 348.7554 134.0243 L 345.5835 134.638 L 343.1989 135.096 L 340.8088 135.5526 L 337.629 136.1564 L 335.2438 136.6069 L 332.848 137.0574 L 330.456 137.5053 L 328.0205 137.9598 L 324.8614 138.5469 L 322.4606 138.9917 L 320.0564 139.4363 L 316.8539 140.0276 L 314.4455 140.4717 L 311.2328 141.064 L 308.8217 141.5083 L 305.6093 142.1008 L 303.199 142.5452 L 300.782 142.9902 L 297.5592 143.5826 L 295.1407 144.0262 L 292.7229 144.4684 L 290.3008 144.9099 L 287.8755 145.3503 L 284.6445 145.9342 L 282.2173 146.3705 L 279.7854 146.8056 L 276.5388 147.3829 L 274.1082 147.8126 L 271.6751 148.2407 L 269.2404 148.667 L 265.9886 149.2334 L 263.5498 149.656 L 261.106 150.0778 L 258.6617 150.498 L 255.4016 151.0561 L 252.9551 151.4733 L 250.4569 151.8978 L 248.0565 152.3044 L 245.5874 152.7214 L 242.3297 153.2697 L 239.8656 153.6828 L 237.3969 154.0954 L 234.9234 154.5075 L 231.6167 155.0564 L 229.1319 155.4675 L 225.8012 156.0168 L 223.3039 156.4274 L 219.9612 156.9748 L 217.4512 157.3845 L 214.0949 157.9303 L 211.5713 158.3398 L 209.0372 158.75 L 205.6684 159.294 L 203.13 159.7031 L 200.592 160.1115 L 197.2004 160.6564 L 194.6528 161.0654 L 192.0987 161.4748 L 189.5493 161.8833 L 186.1425 162.4284 L 183.5802 162.8383 L 181.021 163.2475 L 178.4565 163.6572 L 175.8884 164.0671 L 173.3233 164.4762 L 169.8964 165.0221 L 167.3217 165.4318 L 164.7492 165.8402 L 162.1727 166.2483 L 159.596 166.6552 L 157.0118 167.0619 L 153.586 167.5983 L 151.0088 167.9995 L 147.5779 168.5301 L 145.0088 168.9247 L 142.438 169.317 L 139.0195 169.8345 L 136.4558 170.2198 L 133.0431 170.7289 L 130.4873 171.1075 L 127.9338 171.4837 L 124.5371 171.9809 L 121.9949 172.351 L 119.4558 172.7189 L 116.0784 173.2058 L 113.5517 173.5682 L 111.0244 173.9291 L 108.5113 174.2863 L 105.9962 174.642 L 103.4872 174.9952 L 100.1509 175.4619 L 97.6529 175.8092 L 95.1631 176.1533 L 91.8476 176.6085 L 89.3687 176.9464 L 86.894 177.2816 L 84.4196 177.6146 L 81.1387 178.0526 L 78.6808 178.378 L 76.2287 178.7 L 72.9685 179.1239 L 70.5271 179.4381 L 68.0924 179.7485 L 65.666 180.0548 L 62.4418 180.4573 L 60.8324 180.6564 L 57.6344 181.0485 L 55.2496 181.3383 L 52.8722 181.6251 L 50.5135 181.908 L 48.1663 182.188 L 45.8303 182.4654 L 43.5114 182.74 L 40.4358 183.1034 L 38.1376 183.375 L 35.8426 183.6463 L 33.5665 183.9161 L 30.5394 184.2762 L 28.2722 184.5474 L 25.264 184.9095 L 23.0118 185.1822 L 19.9925 185.5508 L 17.7729 185.8239 L 15.5304 186.1017 L 12.5679 186.4709 L 10.3371 186.7504 L 7.3817 187.122 L 5.1697 187.4011 L 2.9627 187.6799 L .7603 187.9581 L -1.4294 188.2345 L -3.6073 188.5091 L -5.7752 188.7819 L -8.6459 189.142 L -10.7807 189.4089 L -13.6088 189.761 L -15.7107 190.0215 L -17.798 190.2793 L -19.8718 190.5344 L -22.6118 190.8698 L -24.6473 191.1177 L -27.3346 191.4433 L -29.3303 191.6841 L -31.3063 191.9216 L -33.2699 192.1571 L -35.8468 192.4651 L -37.7569 192.6927 L -39.6462 192.9172 L -42.1287 193.2117 L -43.9638 193.429 L -45.7801 193.6441 L -47.5715 193.8563 L -49.9248 194.1355 L -51.6671 194.3426 L -53.3829 194.5471 L -55.636 194.8168 L -57.3069 195.0178 L -59.4908 195.282 L -61.1036 195.4782 L -62.7013 195.6738 L -64.278 195.8677 L -65.8378 196.0607 L -67.89 196.3163 L -69.4058 196.5063 L -71.3987 196.7575 L -72.8728 196.9442 L -74.8134 197.1911 L -76.2472 197.3743 L -77.6674 197.5564 L -79.0663 197.7361 L -80.4427 197.9133 L -82.2468 198.1462 L -83.5739 198.3178 L -84.8754 198.4864 L -86.5718 198.7065 L -87.8133 198.8679 L -89.4324 199.0786 L -90.6156 199.2328 L -91.7695 199.3832 L -93.2655 199.5784 L -94.3577 199.7208 L -95.4245 199.8597 L -96.8182 200.041 L -97.8494 200.175 L -98.8741 200.3078 L -100.2363 200.4837 L -101.2552 200.6149 L -102.2699 200.7452 L -103.2814 200.8749 L -104.6255 201.0465 L -105.6279 201.1741 L -106.9611 201.3432 L -107.9572 201.469 L -109.2787 201.6358 L -110.267 201.7603 L -111.5771 201.9253 L -112.5575 202.0494 L -113.8555 202.2142 L -114.8198 202.3374 L -116.0841 202.5 L -117.0145 202.6205 L -117.9295 202.7399 L -118.8288 202.8584 L -120.0065 203.0154 L -120.8787 203.1334 L -121.7444 203.2522 L -122.8877 203.4122 L -123.7385 203.534 L -124.8642 203.6993 L -125.7015 203.8259 L -126.533 203.9554 L -127.6311 204.1333 L -128.4472 204.2715 L -129.258 204.4145 L -130.061 204.5622 L -131.1218 204.7676 L -131.9077 204.9279 L -132.6877 205.0943 L -133.7165 205.3259 L -134.4789 205.5067 L -135.2366 205.6943 L -136.2295 205.9526 L -136.9674 206.1536 L -137.9369 206.4287 L -138.6528 206.64 L -139.3601 206.8559 L -140.2858 207.1506 L -140.9691 207.3785 L -141.8643 207.6915 L -142.5216 207.9325 L -143.1689 208.1795 L -143.8059 208.4322 L -144.4323 208.6905 L -145.0475 208.9542 L -145.6525 209.224 L -146.4412 209.5918 L -147.0204 209.8743 L -147.5849 210.1603 L -148.1346 210.4494 L -148.6651 210.7388 L -149.3406 211.1229 L -149.8214 211.4077 L -150.2807 211.6893 L -150.863 212.0603 L -151.2804 212.3364 L -151.6852 212.6124 L -152.2083 212.9809 L -152.5908 213.2589 L -153.0914 213.6327 L -153.4588 213.9137 L -153.8211 214.1963 L -154.1781 214.4804 L -154.5294 214.7656 L -154.991 215.149 L -155.3328 215.4395 L -155.7815 215.8297 L -156.1127 216.1253 L -156.5473 216.5241 L -156.8677 216.8266 L -157.2876 217.2345 L -157.5971 217.5436 L -158.0039 217.9613 L -158.3044 218.2786 L -158.6984 218.7067 L -158.9898 219.0326 L -159.2774 219.3623 L -159.5613 219.6958 L -159.841 220.0327 L -160.1175 220.3741 L -160.4792 220.8342 L -160.7462 221.184 L -161.009 221.5376 L -161.2672 221.8945 L -161.6044 222.3764 L -161.8512 222.7416 L -162.093 223.1107 L -162.3293 223.4832 L -162.5596 223.8588 L -162.8579 224.3655 L -163.075 224.7497 L -163.356 225.268 L -163.5603 225.6609 L -163.8236 226.1901 L -164.0143 226.5913 L -164.2592 227.1316 L -164.4352 227.5394 L -164.6055 227.9517 L -164.8224 228.5057 L -164.9782 228.9249 L -165.1272 229.347 L -165.2701 229.7706 L -165.4053 230.1952 L -165.5345 230.6259 L -165.6925 231.1915 L -165.8029 231.6183 L -165.9053 232.0439 L -166.0302 232.6096 L -166.1147 233.0332 L -166.1922 233.456 L -166.2625 233.8784 L -166.3261 234.3014 L -166.4011 234.8647 L -166.4502 235.2876 L -166.4935 235.7122 L -166.5416 236.2766 L -166.5708 236.7014 L -166.594 237.1263 L -166.6113 237.552 L -166.6229 237.9787 L -166.6304 238.5485 L -166.6306 238.9771 L -166.6265 239.4069 L -166.6183 239.8367 L -166.6015 240.4116 L -166.5845 240.845 L -166.5563 241.4237 L -166.5309 241.8596 L -166.5018 242.2984 L -166.4569 242.8869 L -166.4187 243.3318 L -166.3762 243.7802 L -166.3127 244.3798 L -166.2593 244.8326 L -166.1804 245.4401 L -166.1155 245.8978 L -166.0453 246.3589 L -165.9435 246.9759 L -165.8602 247.4414 L -165.7702 247.9088 L -165.6394 248.5329 L -165.5331 249.0016 L -165.4201 249.4695 L -165.3004 249.9368 L -165.1735 250.4048 L -164.9937 251.0269 L -164.8506 251.4927 L -164.7005 251.9579 L -164.5433 252.4227 L -164.379 252.8869 L -164.2073 253.3508 L -163.9674 253.9679 L -163.7797 254.4293 L -163.5851 254.8905 L -163.3156 255.5036 L -163.1059 255.9623 L -162.8887 256.4232 L -162.5907 257.0352 L -162.3589 257.4972 L -162.0394 258.1169 L -161.7921 258.585 L -161.452 259.2158 L -161.1903 259.6924 L -160.9223 260.1737 L -160.5551 260.8228 L -160.2728 261.3139 L -159.9831 261.8108 L -159.5868 262.48 L -159.2815 262.9879 L -158.9694 263.5013 L -158.5446 264.1917 L -158.2184 264.7166 L -157.8866 265.2458 L -157.5478 265.7812 L -157.0874 266.5005 L -156.7339 267.0463 L -156.3747 267.5957 L -155.8845 268.3353 L -155.5081 268.8945 L -154.9945 269.643 L -154.5991 270.208 L -154.0591 270.9632 L -153.6443 271.5321 L -153.0763 272.2927 L -152.64 272.8651 L -152.1938 273.4388 L -151.7387 274.0129 L -151.2722 274.5891 L -150.6376 275.355 L -150.1505 275.9287 L -149.653 276.5034 L -149.1449 277.0779 L -148.6264 277.652 L -147.9217 278.4143 L -147.3805 278.9852 L -146.6453 279.7428 L -146.0816 280.3099 L -145.5081 280.8768 L -144.9256 281.4423 L -144.3338 282.0078 L -143.7346 282.5717 L -142.9218 283.3251 L -142.3043 283.8901 L -141.4688 284.6467 L -140.8345 285.2162 L -140.193 285.7889 L -139.5429 286.3664 L -138.8857 286.9482 L -137.9997 287.7307 L -137.3262 288.3249 L -136.6459 288.9255 L -135.7276 289.7361 L -135.0308 290.3517 L -134.3264 290.9747 L -133.6154 291.6042 L -132.6544 292.4559 L -131.9236 293.1038 L -131.1832 293.7604 L -130.1813 294.6489 L -129.419 295.3249 L -128.647 296.0092 L -127.6033 296.9336 L -126.8108 297.6347 L -125.7389 298.5811 L -124.9248 299.298 L -123.8274 300.2619 L -122.9947 300.9912 L -122.1522 301.7268 L -121.3018 302.467 L -120.1576 303.4592 L -119.2898 304.2088 L -118.4142 304.9626 L -117.5321 305.7194 L -116.6424 306.4801 L -115.4472 307.4985 L -114.5433 308.2663 L -113.6329 309.0377 L -112.7191 309.8104 L -111.4931 310.8454 L -110.5666 311.6268 L -109.6389 312.4089 L -108.7083 313.1941 L -107.4618 314.2475 L -106.527 315.0399 L -105.5904 315.8374 L -104.6551 316.6382 L -103.7199 317.4446 L -102.4775 318.527 L -101.5491 319.3459 L -100.6237 320.1721 L -99.7064 321.0022 L -98.4891 322.1227 L -97.584 322.9706 L -96.6834 323.8279 L -95.795 324.6871 L -94.6161 325.8491 L -93.7411 326.7282 L -92.8738 327.6138 L -92.0121 328.5081 L -90.8756 329.7091 L -90.0299 330.6187 L -89.193 331.5317 L -88.361 332.4519 L -87.5341 333.3787 L -86.4419 334.6214 L -85.6289 335.5601 L -84.8223 336.5035 L -84.0209 337.4531 L -82.9626 338.727 L -82.1761 339.6894 L -81.1379 340.9811 L -80.3673 341.9566 L -79.6041 342.9377 L -78.8484 343.9253 L -78.1016 344.9178 L -77.1196 346.25 L -76.3934 347.256 L -75.6777 348.2664 L -74.9722 349.2824 L -74.2772 350.3035 L -73.3687 351.6703 L -72.702 352.6985 L -72.0482 353.7298 L -71.1994 355.1053 L -70.5794 356.1396 L -69.9756 357.1737 L -69.3868 358.2094 L -68.8138 359.2469 L -68.2571 360.285 L -67.7186 361.3219 L -67.1994 362.3551 L -66.7026 363.3781 L -66.2285 364.3895 L -65.6319 365.72 L -65.2123 366.7008 L -64.8151 367.6696 L -64.3225 368.9346 L -63.9805 369.8617 L -63.6611 370.771 L -63.3639 371.6599 L -63.0007 372.8146 L -62.7509 373.6614 L -62.5202 374.4901 L -62.3071 375.302 L -62.1091 376.1028 L -61.9254 376.8938 L -61.7538 377.6801 L -61.544 378.7183 L -61.4001 379.4909 L -61.2674 380.2589 L -61.1082 381.2724 L -61.002 382.0258 L -60.9073 382.7744 L -60.7994 383.7625 L -60.7324 384.4958 L -60.6616 385.4649 L -60.6225 386.1848 L -60.5888 387.1335 L -60.5773 387.8379 L -60.5775 388.5358 L -60.5896 389.2269 L -60.6136 389.9108 L -60.664 390.8129 L -60.7153 391.4791 L -60.7781 392.1389 L -60.8525 392.792 L -60.9692 393.6497 L -61.0699 394.2838 L -61.2214 395.117 L -61.3472 395.7315 L -61.4838 396.339 L -61.6305 396.937 L -61.8413 397.7209 L -62.0101 398.2993 L -62.1877 398.8705 L -62.3728 399.4324 L -62.5655 399.9884 L -62.8335 400.7218 L -63.0422 401.2664 L -63.2573 401.8067 L -63.5538 402.5209 L -63.7833 403.0522 L -64.098 403.7543 L -64.3408 404.2766 L -64.5896 404.7956 L -64.9295 405.4799 L -65.1911 405.9884 L -65.4586 406.4921 L -65.7328 406.9912 L -66.1078 407.6465 L -66.3969 408.1314 L -66.693 408.6098 L -66.9955 409.0814 L -67.3047 409.5464 L -67.6202 410.0045 L -67.9421 410.4563 L -68.2708 410.9019 L -68.6069 411.3422 L -68.9496 411.7768 L -69.4178 412.3491 L -69.7765 412.7722 L -70.142 413.1906 L -70.6407 413.742 L -71.0212 414.1493 L -71.4086 414.5521 L -71.9342 415.0806 L -72.3362 415.4716 L -72.7431 415.8563 L -73.2956 416.3615 L -73.7171 416.7344 L -74.1433 417.1011 L -74.7209 417.5815 L -75.1609 417.9349 L -75.6064 418.2821 L -76.0576 418.623 L -76.5147 418.9578 L -77.1315 419.3936 L -77.601 419.7133 L -78.2364 420.1303 L -78.7217 420.4373 L -79.3791 420.8375 L -79.8799 421.1309 L -80.5586 421.5133 L -81.0754 421.793 L -81.7746 422.1561 L -82.3065 422.4211 L -82.8465 422.6806 L -83.3918 422.933 L -83.944 423.1791 L -84.691 423.4973 L -85.2592 423.7282 L -85.8332 423.9521 L -86.6092 424.2406 L -87.199 424.4498 L -87.7952 424.6526 L -88.3992 424.8499 L -89.2109 425.1028 L -89.8284 425.2862 L -90.4528 425.464 L -91.2934 425.6917 L -91.9314 425.8556 L -92.5753 426.0135 L -93.4415 426.214 L -94.0989 426.3573 L -94.7614 426.4935 L -95.654 426.6637 L -96.3311 426.7824 L -97.0113 426.8926 L -97.6982 426.9948 L -98.3896 427.0883 L -99.3193 427.1987 L -100.0225 427.2705 L -100.7306 427.3328 L -101.4434 427.3852 L -102.3999 427.4393 L -103.1224 427.4676 L -104.0913 427.4884 L -104.8227 427.4912 L -105.803 427.4778 L -106.5427 427.4547 L -107.5343 427.406 L -108.2805 427.3566 L -109.2825 427.2733 L -110.0358 427.1982 L -110.791 427.1122 L -111.5508 427.015 L -112.3106 426.9073 L -113.0745 426.7885 L -114.0938 426.6139 L -114.8599 426.4706 L -115.6285 426.3166 L -116.3985 426.1521 L -117.4267 425.9167 L -118.1989 425.7283 L -118.9725 425.5298 L -119.7461 425.3217 L -120.5205 425.104 L -121.5535 424.7987 L -122.3284 424.5585 L -123.1027 424.3089 L -124.1358 423.9611 L -124.9091 423.6894 L -125.9412 423.3115 L -126.7123 423.0173 L -127.4827 422.7129 L -128.2517 422.3982 L -129.019 422.0732 L -130.0386 421.6241 L -130.8003 421.2755 L -131.5609 420.9163 L -132.5702 420.4218 L -133.324 420.039 L -134.075 419.646 L -134.8219 419.2431 L -135.8141 418.6891 L -136.5531 418.2623 L -137.2903 417.8242 L -138.2642 417.2262 L -138.9923 416.7643 L -139.9555 416.1332 L -140.6727 415.6482 L -141.6223 414.9851 L -142.3273 414.4765 L -143.0282 413.9565 L -143.9549 413.2463 L -144.6413 412.7029 L -145.3244 412.1469 L -146.2228 411.3924 L -146.89 410.8143 L -147.5507 410.2267 L -148.4215 409.4285 L -149.0685 408.8174 L -149.708 408.1979 L -150.3421 407.5679 L -150.9696 406.9286 L -151.7953 406.0629 L -152.4081 405.402 L -153.2142 404.5076 L -153.8111 403.8268 L -154.4025 403.1361 L -154.988 402.4366 L -155.5658 401.7305 L -156.3288 400.7743 L -156.8941 400.0482 L -157.4551 399.3132 L -158.0117 398.5699 L -158.5634 397.8196 L -159.2935 396.8061 L -159.8366 396.0372 L -160.3773 395.2592 L -161.0995 394.2015 L -161.453 393.6761 L -162.1629 392.6064 L -162.6951 391.7929 L -163.4041 390.6958 L -163.9361 389.8642 L -164.6447 388.7466 L -165.1789 387.8984 L -165.8914 386.76 L -166.4269 385.9001 L -166.965 385.0328 L -167.5052 384.1588 L -168.0455 383.281 L -168.7691 382.0999 L -169.3136 381.2064 L -169.8585 380.3077 L -170.5889 379.0962 L -171.1346 378.1852 L -171.6815 377.267 L -172.4128 376.0305 L -172.9609 375.0976 L -173.5102 374.1563 L -174.0573 373.2132 L -174.6042 372.2636 L -175.3381 370.9803 L -175.8893 370.0092 L -176.6244 368.704 L -177.1766 367.7169 L -177.9135 366.3911 L -178.468 365.3881 L -179.0229 364.38 L -179.58 363.3642 L -180.1383 362.343 L -180.8857 360.9714 L -181.4487 359.9355 L -182.0135 358.8948 L -182.7718 357.4968 L -183.3432 356.4437 L -183.9185 355.3848 L -184.6908 353.9666 L -185.2739 352.8994 L -185.8615 351.828 L -186.6483 350.4018 L -187.2427 349.3322 L -187.841 348.2637 L -188.4418 347.2007 L -189.2489 345.7908 L -189.8558 344.7458 L -190.4676 343.707 L -191.2879 342.3383 L -191.908 341.3224 L -192.5331 340.3157 L -193.1637 339.3175 L -193.7967 338.3331 L -194.6513 337.0333 L -195.2979 336.0722 L -196.1689 334.8087 L -196.8313 333.8712 L -197.4967 332.9495 L -198.3942 331.7378 L -199.0756 330.8412 L -199.7619 329.9582 L -200.4553 329.0859 L -201.1544 328.226 L -201.8588 327.3788 L -202.5698 326.5428 L -203.5242 325.4497 L -204.2484 324.6423 L -205.2203 323.5869 L -205.9556 322.8095 L -206.9433 321.7929 L -207.6859 321.0482 L -208.4322 320.3161 L -209.1762 319.6016 L -209.9188 318.9033 L -210.9048 317.9985 L -211.6422 317.338 L -212.6205 316.4823 L -213.3505 315.8586 L -214.078 315.249 L -214.8023 314.6537 L -215.5242 314.0716 L -216.4824 313.3159 L -217.2041 312.759 L -218.17 312.0295 L -218.8932 311.4952 L -219.8549 310.8005 L -220.5725 310.2942 L -221.2896 309.7987 L -222.0051 309.3148 L -222.7192 308.8425 L -223.4325 308.3819 L -224.3763 307.7899 L -225.0778 307.3628 L -225.7723 306.9512 L -226.684 306.4283 L -227.3571 306.0553 L -228.2385 305.5842 L -228.8876 305.2503 L -229.5276 304.932 L -230.3647 304.5331 L -230.9837 304.2513 L -231.7958 303.8996 L -232.3962 303.653 L -232.991 303.42 L -233.5793 303.2005 L -234.1641 302.993 L -234.7462 302.7967 L -235.5168 302.5524 L -236.092 302.3815 L -236.6653 302.221 L -237.423 302.0238 L -237.988 301.8876 L -238.7358 301.7216 L -239.2922 301.6085 L -239.8452 301.5045 L -240.3951 301.4095 L -240.94 301.3234 L -241.6593 301.222 L -242.1932 301.1555 L -242.896 301.0789 L -243.4178 301.029 L -244.1046 300.9717 L -244.6131 300.9353 L -245.1171 300.9044 L -245.7791 300.8718 L -246.27 300.8533 L -246.7556 300.8397 L -247.3941 300.8291 L -247.8689 300.8263 L -248.4951 300.8293 L -248.9612 300.8364 L -249.5798 300.8519 L -250.0419 300.868 L -250.5036 300.8881 L -251.1161 300.9207 L -251.5746 300.9496 L -252.0345 300.9826 L -252.4913 301.0195 L -253.1012 301.0759 L -253.5567 301.1235 L -254.1637 301.1948 L -254.6179 301.2541 L -255.0719 301.3186 L -255.5247 301.3882 L -255.9783 301.4634 L -256.5799 301.5719 L -257.0307 301.6603 L -257.4799 301.7549 L -257.9282 301.8563 L -258.5233 302.0025 L -258.9662 302.1203 L -259.4078 302.2455 L -259.9904 302.4228 L -260.4252 302.5642 L -261.0004 302.7637 L -261.4284 302.9215 L -261.8533 303.0864 L -262.2742 303.2582 L -262.6921 303.4375 L -263.2424 303.6873 L -263.651 303.883 L -264.0568 304.086 L -264.5901 304.3661 L -264.9863 304.584 L -265.3778 304.8077 L -265.7655 305.0377 L -266.1507 305.2744 L -266.6571 305.5985 L -267.0334 305.8491 L -267.4068 306.1063 L -267.8992 306.4586 L -268.265 306.7307 L -268.6277 307.009 L -269.1057 307.3894 L -269.4607 307.6822 L -269.9279 308.0819 L -270.2747 308.3895 L -270.6169 308.7022 L -271.0675 309.1292 L -271.4008 309.4567 L -271.8377 309.902 L -272.1601 310.2427 L -272.4781 310.5894 L -272.8942 311.06 L -273.2007 311.4201 L -273.5997 311.9079 L -273.8928 312.2812 L -274.1796 312.6597 L -274.5528 313.1726 L -274.8257 313.5638 L -275.0926 313.9604 L -275.353 314.362 L -275.6074 314.7696 L -275.9369 315.3211 L -276.1764 315.7409 L -276.4097 316.166 L -276.6367 316.5974 L -276.9297 317.1811 L -277.142 317.6256 L -277.3482 318.0762 L -277.5476 318.532 L -277.7407 318.9944 L -277.9265 319.4601 L -278.1052 319.9305 L -278.3325 320.5643 L -278.4944 321.0447 L -278.6488 321.5296 L -278.8434 322.1823 L -278.9811 322.6766 L -279.1111 323.1744 L -279.2336 323.6769 L -279.3854 324.3521 L -279.4904 324.8631 L -279.5879 325.3784 L -279.7056 326.0695 L -279.7845 326.5924 L -279.8554 327.1193 L -279.9178 327.6489 L -279.9717 328.1818 L -280.0298 328.8959 L -280.0627 329.4327 L -280.0864 329.9712 L -280.1008 330.5093 L -280.1059 331.048 L -280.1017 331.5871 L -280.0816 332.305 L -280.0559 332.8429 L -280.0211 333.3812 L -279.9613 334.0988 L -279.9064 334.6371 L -279.8205 335.3544 L -279.7465 335.8934 L -279.6648 336.433 L -279.5443 337.154 L -279.4454 337.6983 L -279.3036 338.4263 L -279.1891 338.9795 L -279.0256 339.7248 L -278.8944 340.2908 L -278.7562 340.8613 L -278.611 341.438 L -278.4587 342.0194 L -278.2446 342.8027 L -278.076 343.3955 L -277.84 344.1945 L -277.6542 344.8 L -277.4604 345.4112 L -277.2593 346.0257 L -277.0501 346.6465 L -276.7586 347.4824 L -276.5308 348.1137 L -276.2138 348.9625 L -275.966 349.6044 L -275.6219 350.4664 L -275.3528 351.1183 L -274.9809 351.9897 L -274.6905 352.6483 L -274.2887 353.5303 L -273.9761 354.1952 L -273.6539 354.8629 L -273.3228 355.5332 L -272.8674 356.4323 L -272.5165 357.1098 L -272.0371 358.0171 L -271.6692 358.7018 L -271.1682 359.6217 L -270.7863 360.3145 L -270.268 361.2449 L -269.8726 361.947 L -269.4716 362.6532 L -268.929 363.6005 L -268.5162 364.3149 L -268.0982 365.0334 L -267.6758 365.7549 L -267.1048 366.7221 L -266.6701 367.4519 L -266.0825 368.428 L -265.6342 369.1633 L -265.1791 369.9016 L -264.7172 370.6418 L -264.2478 371.384 L -263.6116 372.3738 L -263.1248 373.1184 L -262.6295 373.864 L -262.1258 374.6106 L -261.6137 375.3578 L -260.9174 376.3539 L -260.3848 377.1013 L -259.8432 377.8489 L -259.2939 378.5965 L -258.7352 379.3455 L -257.9782 380.343 L -257.4005 381.0921 L -256.8139 381.8416 L -256.0192 382.8405 L -255.4131 383.5908 L -254.7959 384.3445 L -254.1701 385.0988 L -253.5332 385.8568 L -252.8869 386.6164 L -252.23 387.3792 L -251.3386 388.4007 L -250.6591 389.1699 L -249.7385 390.1999 L -249.038 390.9756 L -248.3295 391.7541 L -247.612 392.5368 L -246.8878 393.3218 L -246.1558 394.111 L -245.1702 395.1682 L -244.4226 395.9669 L -243.6716 396.7676 L -242.912 397.5759 L -242.1458 398.3901 L -241.1164 399.4831 L -240.3404 400.3073 L -239.2987 401.4148 L -238.5134 402.2509 L -237.7248 403.0919 L -236.6702 404.219 L -235.8762 405.0698 L -234.8156 406.2094 L -234.0174 407.0695 L -232.9539 408.2195 L -232.1561 409.0861 L -231.3606 409.954 L -230.5667 410.8249 L -229.5122 411.9894 L -228.7247 412.8654 L -227.9405 413.7439 L -227.162 414.6229 L -226.3873 415.5049 L -225.6169 416.3897 L -224.8506 417.2783 L -224.0913 418.1678 L -223.0871 419.3593 L -222.3395 420.2583 L -221.3545 421.4591 L -220.6214 422.3658 L -219.6567 423.5767 L -218.9404 424.4893 L -218.2306 425.4056 L -217.2942 426.633 L -216.6009 427.5559 L -215.6851 428.7939 L -215.0062 429.7255 L -214.3338 430.66 L -213.4454 431.9134 L -212.7871 432.8559 L -212.1332 433.804 L -211.4868 434.7537 L -210.8467 435.7073 L -210.2121 436.6659 L -209.5846 437.6276 L -208.9629 438.5947 L -208.3398 439.5789 L -207.54 440.8655 L -206.9405 441.8478 L -206.3481 442.8345 L -205.762 443.8265 L -205.1831 444.8231 L -204.6124 445.8227 L -203.8626 447.1641 L -203.3074 448.1794 L -202.5835 449.5337 L -202.0487 450.5577 L -201.5228 451.5855 L -201.0045 452.6202 L -200.3264 454.0084 L -199.8313 455.0482 L -199.3421 456.0988 L -198.8622 457.1533 L -198.2373 458.564 L -197.7787 459.6287 L -197.3287 460.6999 L -196.7452 462.132 L -196.319 463.2118 L -195.9021 464.2984 L -195.3633 465.7511 L -194.9709 466.8467 L -194.464 468.3137 L -194.0954 469.4209 L -193.7379 470.5309 L -193.2786 472.0146 L -192.947 473.1325 L -192.6262 474.2557 L -192.2162 475.7592 L -191.9223 476.8911 L -191.549 478.4059 L -191.2831 479.5453 L -191.0288 480.6901 L -190.7092 482.2172 L -190.483 483.3675 L -190.2682 484.5228 L -190.0663 485.6758 L -189.8755 486.8343 L -189.6393 488.3838 L -189.5267 489.1762 L -189.3239 490.7128 L -189.1827 491.8822 L -189.0524 493.0518 L -188.9324 494.2271 L -188.7892 495.7897 L -188.694 496.9655 L -188.583 498.5363 L -188.5122 499.7146 L -188.4519 500.8952 L -188.4024 502.0774 L -188.3637 503.2592 L -188.336 504.4425 L -188.3192 505.6266 L -188.3137 507.2042 L -188.3224 508.3902 L -188.3509 509.9703 L -188.385 511.1554 L -188.4301 512.3425 L -188.507 513.9236 L -188.5777 515.1091 L -188.6598 516.2957 L -188.7531 517.4812 L -188.8952 519.0603 L -189.015 520.2429 L -189.1465 521.4275 L -189.3389 523.0027 L -189.4958 524.1814 L -189.664 525.3611 L -189.8431 526.5389 L -190.0991 528.1082 L -190.3038 529.285 L -190.5201 530.4616 L -190.8244 532.0201 L -191.0663 533.189 L -191.3196 534.356 L -191.5846 535.523 L -191.8606 536.6857 L -192.148 537.8458 L -192.4469 539.0036 L -192.8635 540.5439 L -193.1887 541.6943 L -193.6411 543.2284 L -193.9921 544.371 L -194.3546 545.5126 L -194.7282 546.6509 L -195.113 547.7856 L -195.6449 549.3001 L -196.0543 550.4252 L -196.6181 551.9224 L -197.0538 553.0414 L -197.6522 554.528 L -197.9586 555.2682 L -198.5861 556.7427 L -199.0698 557.8449 L -199.5643 558.9417 L -200.0705 560.0351 L -200.587 561.1226 L -201.2934 562.5671 L -201.8353 563.6429 L -202.5752 565.0705 L -203.1424 566.1346 L -203.9164 567.5471 L -204.5085 568.5985 L -205.3148 569.9933 L -205.9324 571.0339 L -206.5608 572.0696 L -207.1964 573.0956 L -207.8526 574.1318 L -208.7231 575.473 L -209.3942 576.4821 L -210.075 577.4848 L -210.7652 578.4811 L -211.4656 579.4716 L -212.414 580.7817 L -213.1364 581.7566 L -214.1156 583.0478 L -214.8602 584.0073 L -215.6135 584.9594 L -216.6337 586.2202 L -217.4085 587.1567 L -218.1929 588.087 L -218.986 589.0103 L -219.7875 589.9259 L -220.8688 591.1353 L -221.69 592.0352 L -222.5184 592.927 L -223.636 594.1059 L -224.4847 594.9826 L -225.6274 596.1376 L -226.4938 596.994 L -227.369 597.8428 L -228.2529 598.6835 L -229.1452 599.5156 L -230.3464 600.6104 L -231.2584 601.4224 L -232.1782 602.225 L -233.1062 603.0184 L -234.3571 604.0621 L -235.3033 604.8323 L -236.259 605.5936 L -237.2247 606.3465 L -238.1956 607.0871 L -239.1743 607.8179 L -240.4924 608.778 L -241.49 609.4864 L -242.8312 610.4155 L -243.845 611.1002 L -244.8673 611.7759 L -246.241 612.6611 L -247.2783 613.3126 L -248.3226 613.9543 L -249.3748 614.5865 L -250.7866 615.4136 L -251.8531 616.0225 L -253.2836 616.8185 L -254.364 617.4047 L -255.4489 617.9811 L -256.9049 618.7362 L -258.0018 619.2916 L -259.1068 619.8398 L -260.5832 620.5552 L -261.6969 621.0825 L -262.8162 621.6021 L -264.3134 622.2814 L -265.4425 622.7823 L -266.574 623.2752 L -268.0881 623.9207 L -269.2274 624.3964 L -270.3687 624.8644 L -271.5122 625.325 L -272.6603 625.779 L -274.1891 626.3704 L -275.3376 626.8054 L -276.487 627.2325 L -278.0182 627.7887 L -279.1637 628.1949 L -280.3097 628.5928 L -281.4554 628.9816 L -282.5973 629.3599 L -284.1173 629.8486 L -285.2569 630.2031 L -286.7756 630.6594 L -287.9113 630.9886 L -289.4247 631.4108 L -290.5603 631.7148 L -291.6927 632.007 L -293.2008 632.3786 L -294.3307 632.6442 L -295.8354 632.9803 L -296.9639 633.2193 L -298.4661 633.5197 L -299.5921 633.7314 L -300.7191 633.9319 L -301.8445 634.1207 L -303.348 634.3549 L -304.4739 634.5165 L -305.5999 634.6664 L -306.7283 634.8044 L -308.2293 634.9695 L -309.3558 635.0792 L -310.4832 635.1768 L -311.6082 635.262 L -313.1092 635.3571 L -314.2322 635.4144 L -315.7315 635.4727 L -316.8556 635.5032 L -318.3533 635.5265 L -319.4764 635.5316 L -320.9715 635.5227 L -322.0931 635.5043 L -323.2126 635.4766 L -324.3331 635.4396 L -325.454 635.3936 L -326.5726 635.3389 L -328.0658 635.2531 L -329.183 635.1794 L -330.3031 635.0975 L -331.4261 635.0077 L -332.9139 634.8771 L -334.0336 634.7709 L -335.154 634.6578 L -336.6474 634.4975 L -337.768 634.3696 L -339.2622 634.1902 L -340.3818 634.0486 L -341.5031 633.9005 L -342.6227 633.7466 L -344.1173 633.5312 L -345.2355 633.3622 L -346.3556 633.1863 L -347.4767 633.0034 L -348.5954 632.8136 L -350.0871 632.5495 L -351.2052 632.343 L -352.3238 632.1291 L -353.8145 631.8317 L -354.9307 631.5999 L -356.0484 631.3592 L -357.5352 631.0259 L -358.6495 630.7662 L -359.7631 630.4977 L -361.2447 630.1259 L -362.3552 629.8357 L -363.4636 629.5358 L -364.5724 629.2252 L -365.6763 628.9051 L -366.7786 628.5746 L -367.8809 628.2328 L -368.9792 627.8809 L -370.0764 627.5179 L -371.1712 627.1439 L -372.6253 626.6291 L -373.7141 626.23 L -375.1617 625.6808 L -376.244 625.2564 L -377.3226 624.8217 L -378.3993 624.3759 L -379.8281 623.7661 L -380.8969 623.2958 L -381.9628 622.8149 L -383.3771 622.158 L -384.4345 621.653 L -385.4896 621.1369 L -386.8897 620.4335 L -387.9365 619.8935 L -388.9797 619.3439 L -390.0216 618.7831 L -391.0594 618.213 L -392.4409 617.4365 L -393.4741 616.8426 L -394.5039 616.2394 L -395.5342 615.6254 L -396.9019 614.7935 L -397.9266 614.158 L -398.9497 613.5132 L -399.9688 612.8613 L -401.3281 611.9769 L -402.3444 611.3051 L -403.3605 610.6244 L -404.3747 609.9363 L -405.7253 609.007 L -406.7365 608.3007 L -407.7464 607.5864 L -408.7525 606.8654 L -409.7583 606.1346 L -411.0942 605.1475 L -412.0925 604.3969 L -413.0887 603.636 L -414.4089 602.6089 L -415.3947 601.827 L -416.3771 601.0347 L -417.3538 600.2336 L -418.328 599.4211 L -419.6158 598.3254 L -420.5771 597.4916 L -421.5345 596.6473 L -422.8014 595.5083 L -423.7449 594.6433 L -424.6832 593.7686 L -425.6162 592.8842 L -426.8499 591.6918 L -427.769 590.7857 L -428.6807 589.8713 L -429.8885 588.6356 L -430.7862 587.6989 L -431.6762 586.7549 L -432.8551 585.481 L -433.7306 584.5178 L -434.6013 583.546 L -435.4679 582.5653 L -436.6127 581.2501 L -437.467 580.2549 L -438.3167 579.2531 L -439.1612 578.246 L -440.0033 577.2307 L -441.1166 575.872 L -441.9488 574.8445 L -443.0503 573.4683 L -443.8715 572.4311 L -444.9611 571.0387 L -445.7714 569.9909 L -446.5774 568.9379 L -447.3801 567.8781 L -448.1754 566.8176 L -449.2291 565.3947 L -450.0136 564.3215 L -451.0501 562.8862 L -451.821 561.8036 L -452.838 560.3568 L -453.5945 559.2659 L -454.3442 558.1708 L -455.0862 557.0732 L -455.8217 555.9703 L -456.7897 554.4942 L -457.5061 553.3829 L -458.2148 552.267 L -458.9144 551.149 L -459.6057 550.0267 L -460.5144 548.5243 L -461.1856 547.3944 L -462.0686 545.8802 L -462.7213 544.7401 L -463.3665 543.5955 L -464.0034 542.45 L -464.6331 541.3009 L -465.2574 540.1476 L -465.8735 538.9952 L -466.687 537.4523 L -467.2918 536.2902 L -468.0899 534.7404 L -468.6837 533.5762 L -469.275 532.4092 L -470.0591 530.8535 L -470.6462 529.6846 L -471.2326 528.5176 L -471.8198 527.3506 L -472.4082 526.1836 L -473.1961 524.6299 L -473.7905 523.4661 L -474.3899 522.3019 L -475.1939 520.7572 L -475.8027 519.5999 L -476.4165 518.4451 L -477.0349 517.2952 L -477.6599 516.1454 L -478.5 514.6201 L -479.1378 513.4775 L -479.9948 511.9624 L -480.6449 510.8289 L -481.5195 509.324 L -482.1822 508.1994 L -483.0749 506.7044 L -483.7505 505.5888 L -484.4324 504.4763 L -485.3514 502.9977 L -486.0466 501.8948 L -486.9822 500.4313 L -487.6908 499.3385 L -488.6469 497.8847 L -489.3707 496.7996 L -490.1006 495.7183 L -490.8359 494.6421 L -491.5784 493.5679 L -492.3264 492.4986 L -493.0811 491.4323 L -493.8405 490.3717 L -494.6067 489.3141 L -495.3795 488.2599 L -496.4187 486.8618 L -497.2047 485.8191 L -497.9989 484.7784 L -499.0636 483.4034 L -499.8712 482.3753 L -500.9561 481.0138 L -501.7785 479.9967 L -502.6063 478.9857 L -503.4398 477.9803 L -504.2794 476.9802 L -505.4092 475.6542 L -506.2638 474.6664 L -507.4138 473.3578 L -508.2827 472.3847 L -509.1589 471.4167 L -510.0415 470.4552 L -510.9302 469.5014 L -511.8251 468.5553 L -512.7264 467.6172 L -513.9377 466.3791 L -514.8528 465.4613 L -515.7744 464.5517 L -517.0133 463.3526 L -517.9473 462.4659 L -518.887 461.5886 L -520.1511 460.4327 L -521.1037 459.5782 L -522.0605 458.7354 L -523.025 457.9017 L -524.3148 456.811 L -525.2894 456.0059 L -526.2689 455.2138 L -527.5807 454.1799 L -528.5709 453.4203 L -529.5641 452.6773 L -530.8961 451.7117 L -531.8985 451.0092 L -532.907 450.3246 L -533.9187 449.6603 L -535.2745 448.8066 L -536.2974 448.1907 L -537.3239 447.5967 L -538.3557 447.0239 L -539.3917 446.4736 L -540.7764 445.7761 L -541.8205 445.2777 L -542.8661 444.8024 L -543.9143 444.3495 L -544.9654 443.9179 L -546.3668 443.3768 L -547.4224 442.9938 L -548.4752 442.6307 L -549.8826 442.1715 L -550.9402 441.8446 L -551.9968 441.532 L -553.0551 441.2315 L -554.1136 440.9426 L -555.1703 440.6647 L -556.2289 440.3953 L -557.642 440.0474 L -558.6985 439.7948 L -559.7588 439.5466 L -561.168 439.2236 L -562.2246 438.9866 L -563.2832 438.7538 L -564.3398 438.5261 L -565.3965 438.3037 L -566.4531 438.088 L -567.5107 437.8795 L -568.9199 437.6149 L -569.9766 437.4273 L -571.0322 437.2502 L -572.0908 437.0836 L -573.1465 436.9292 L -574.5537 436.7422 L -575.6113 436.6171 L -577.0166 436.4716 L -578.074 436.3783 L -579.1277 436.3 L -580.1817 436.2371 L -581.2335 436.1905 L -582.2842 436.1609 L -583.3327 436.1489 L -584.3786 436.1544 L -585.4224 436.1775 L -586.8115 436.2354 L -587.8464 436.2981 L -588.8817 436.3771 L -589.9135 436.4717 L -590.9413 436.5812 L -592.3054 436.7491 L -593.3285 436.8905 L -594.347 437.0432 L -595.3646 437.2067 L -596.3831 437.3807 L -597.7386 437.6271 L -598.7557 437.8221 L -599.7726 438.0257 L -601.1302 438.3098 L -602.1507 438.5323 L -603.1702 438.7622 L -604.5335 439.0808 L -605.555 439.3274 L -606.9208 439.6668 L -607.9462 439.9285 L -608.9755 440.1968 L -610.0048 440.4706 L -611.0361 440.7503 L -612.412 441.132 L -613.4462 441.4254 L -614.4833 441.7256 L -615.5204 442.0332 L -616.5576 442.3488 L -617.9432 442.7826 L -618.9803 443.1179 L -620.366 443.5791 L -621.4031 443.9348 L -622.7889 444.424 L -623.826 444.8003 L -624.8631 445.1855 L -625.9012 445.5799 L -626.9363 445.9822 L -628.3192 446.5323 L -629.3533 446.9538 L -630.3891 447.3843 L -631.4203 447.8209 L -632.4536 448.2665 L -633.8295 448.8728 L -634.8588 449.3359 L -636.2338 449.9656 L -637.2641 450.4452 L -638.2934 450.9312 L -639.6713 451.5912 L -640.7036 452.0924 L -641.7387 452.5996 L -642.7768 453.1134 L -644.1622 453.8053 L -645.2059 454.3308 L -646.2527 454.8612 L -647.6523 455.5747 L -648.7067 456.1156 L -650.1172 456.8431 L -651.1797 457.3937 L -652.2488 457.9497 L -653.6788 458.6964 L -654.7614 459.2635 L -655.847 459.8333 L -657.3044 460.6005 L -658.4058 461.1817 L -659.5132 461.7668 L -661.001 462.5536 L -662.1236 463.1472 L -663.2543 463.7447 L -664.3935 464.3461 L -665.9214 465.1514 L -667.0768 465.7589 L -668.6279 466.5715 L -669.4102 466.9797 L -670.9819 467.7966 L -672.1694 468.4097 L -673.3672 469.0235 L -674.9747 469.8409 L -676.1899 470.4536 L -677.8261 471.271 L -679.0605 471.8818 L -680.3057 472.4931 L -681.5583 473.104 L -683.2423 473.9189 L -684.5157 474.5317 L -686.2258 475.3495 L -687.5165 475.9643 L -688.8164 476.5811 L -690.1255 477.2008 L -691.4398 477.8216 L -693.2082 478.6552 L -694.5381 479.2808 L -695.8778 479.9101 L -697.2269 480.5432 L -698.5822 481.1781 L -700.4003 482.0288 L -701.7737 482.6704 L -703.6144 483.5284 L -705.0063 484.1755 L -706.8664 485.0377 L -708.2725 485.6874 L -710.1607 486.5569 L -711.5812 487.209 L -713.0109 487.8638 L -714.4496 488.5213 L -716.3738 489.3984 L -717.8252 490.0588 L -719.2827 490.7204 L -721.2342 491.6057 L -722.705 492.2717 L -724.665 493.1578 L -726.1406 493.8239 L -728.1055 494.71 L -729.5791 495.3737 L -731.0509 496.0361 L -733.0085 496.916 L -734.4704 497.5729 L -735.9288 498.2278 L -737.8525 499.0911 L -739.2805 499.7316 L -740.6931 500.365 L -742.5441 501.1945 L -743.9087 501.8061 L -745.2524 502.4081 L -747.0051 503.1935 L -748.2938 503.7709 L -749.5557 504.3362 L -751.1992 505.0724 L -752.4043 505.6122 L -753.5877 506.1423 L -755.1491 506.842 L -756.3209 507.3676 L -757.4805 507.8886 L -759.0217 508.5815 L -760.1699 509.0984 L -761.3101 509.6125 L -762.8149 510.2923 L -763.9218 510.7932 L -765.3638 511.4473 L -766.418 511.9266 L -767.4485 512.3964 L -768.4543 512.8561 L -769.7579 513.4537 L -770.7072 513.8906 L -771.939 514.4601 L -772.8409 514.8787 L -774.0253 515.4314 L -774.9017 515.8422 L -775.7614 516.2468 L -776.6024 516.6446 L -777.4222 517.0342 L -778.4799 517.5405 L -779.2474 517.9102 L -779.9941 518.2723 L -780.9673 518.7476 L -781.6871 519.1021 L -782.3997 519.4566 L -783.1034 519.8101 L -784.0298 520.2798 L -784.7169 520.6314 L -785.6188 521.0982 L -786.286 521.4474 L -787.1646 521.9122 L -787.8132 522.2609 L -788.666 522.7267 L -789.2947 523.0763 L -789.9163 523.4279 L -790.5281 523.7794 L -791.1323 524.132 L -791.7283 524.4863 L -792.3163 524.8417 L -793.0881 525.3173 L -793.6595 525.6772 L -794.4083 526.1591 L -794.9624 526.5234 L -795.6894 527.0135 L -796.2256 527.3842 L -796.9301 527.8832 L -797.4507 528.2619 L -798.1351 528.7729 L -798.6409 529.1608 L -799.141 529.5543 L -799.7975 530.0862 L -800.282 530.4909 L -800.759 530.9006 L -801.2297 531.3167 L -801.8447 531.879 L -802.2977 532.3085 L -802.8882 532.8887 L -803.322 533.3307 L -803.7486 533.7792 L -804.1669 534.2332 L -804.7148 534.8493 L -805.1181 535.3188 L -805.6462 535.9552 L -806.0364 536.4413 L -806.4196 536.9335 L -806.9233 537.6016 L -807.2947 538.1111 L -807.6603 538.627 L -808.1398 539.3263 L -808.4937 539.86 L -808.8413 540.4 L -809.1838 540.9481 L -809.632 541.6904 L -809.9617 542.2561 L -810.3907 543.0192 L -810.7054 543.6004 L -811.0135 544.1882 L -811.4136 544.9819 L -811.7053 545.5848 L -812.0814 546.3959 L -812.3548 547.012 L -812.619 547.6311 L -812.9589 548.4661 L -813.2039 549.0977 L -813.5168 549.9465 L -813.7413 550.5891 L -814.0266 551.4531 L -814.2294 552.1048 L -814.4226 552.7616 L -814.6057 553.4218 L -814.8324 554.3064 L -814.9892 554.9739 L -815.1343 555.6426 L -815.3092 556.5381 L -815.4262 557.211 L -815.5308 557.8839 L -815.623 558.5587 L -815.7031 559.2325 L -815.771 559.9053 L -815.8265 560.5762 L -815.8686 561.2452 L -815.9042 562.1311 L -815.9155 562.7907 L -815.9132 563.4431 L -815.8976 564.0884 L -815.869 564.7269 L -815.8119 565.5671 L -815.7552 566.1887 L -815.662 567.0052 L -815.5797 567.609 L -815.4869 568.2086 L -815.3839 568.8043 L -815.2322 569.5886 L -815.1078 570.1736 L -814.9294 570.9463 L -814.7866 571.5216 L -814.6365 572.0942 L -814.4261 572.8534 L -814.2607 573.4208 L -814.0892 573.9875 L -813.8512 574.7405 L -813.6651 575.3049 L -813.4083 576.0545 L -813.2085 576.617 L -813.0018 577.1795 L -812.7175 577.9266 L -812.496 578.4891 L -812.2676 579.0526 L -812.0297 579.6218 L -811.7076 580.366 L -811.4555 580.9285 L -811.1074 581.677 L -810.8368 582.2381 L -810.5577 582.7977 L -810.173 583.5386 L -809.8743 584.0914 L -809.5673 584.6411 L -809.2521 585.187 L -808.9285 585.73 L -808.5961 586.2699 L -808.2565 586.8045 L -807.9081 587.337 L -807.4322 588.0405 L -807.0654 588.5648 L -806.5639 589.2581 L -806.1791 589.7737 L -805.6537 590.4559 L -805.2516 590.962 L -804.8419 591.4648 L -804.2835 592.1314 L -803.8576 592.6265 L -803.4238 593.1201 L -802.9818 593.6109 L -802.3821 594.2618 L -801.9231 594.7481 L -801.3004 595.3926 L -800.8242 595.8752 L -800.3409 596.3549 L -799.8503 596.8334 L -799.3513 597.3109 L -798.6733 597.9467 L -798.1559 598.4213 L -797.4542 599.0538 L -796.918 599.5264 L -796.3745 599.9991 L -795.8234 600.4717 L -795.0779 601.1006 L -794.5091 601.5723 L -793.9322 602.0455 L -793.1531 602.6754 L -792.5591 603.15 L -791.9573 603.6266 L -791.1441 604.266 L -790.5256 604.7488 L -789.901 605.2341 L -789.0586 605.8854 L -788.4183 606.3785 L -787.5564 607.0398 L -786.9026 607.5399 L -786.0204 608.2129 L -785.3513 608.7224 L -784.6763 609.2358 L -783.7655 609.926 L -783.0767 610.447 L -782.3817 610.9714 L -781.6815 611.4996 L -780.9744 612.0319 L -780.2615 612.567 L -779.3016 613.2867 L -778.5751 613.8304 L -777.8434 614.3768 L -777.1044 614.9284 L -776.3608 615.4824 L -775.3585 616.2285 L -774.6005 616.7921 L -773.8359 617.36 L -773.0653 617.9325 L -772.0288 618.7014 L -771.2428 619.2834 L -770.4486 619.8706 L -769.6475 620.4619 L -768.8372 621.0585 L -767.7448 621.8611 L -766.9153 622.4692 L -765.7969 623.287 L -764.947 623.9069 L -764.0899 624.5304 L -762.9329 625.3704 L -762.0574 626.0054 L -760.8774 626.86 L -759.9838 627.5063 L -759.0801 628.1596 L -758.1691 628.8177 L -757.252 629.4792 L -756.327 630.1465 L -755.393 630.8199 L -754.1368 631.7249 L -753.1825 632.412 L -751.9036 633.3324 L -750.9316 634.0317 L -749.9489 634.7385 L -748.9576 635.451 L -747.6189 636.4128 L -746.6042 637.1415 L -745.2338 638.1252 L -744.1918 638.8729 L -742.786 639.8812 L -741.716 640.6483 L -740.6341 641.4236 L -739.5374 642.2094 L -738.0562 643.2701 L -736.9277 644.0779 L -735.7833 644.8966 L -734.2363 646.0028 L -733.0547 646.8473 L -731.4611 647.9857 L -730.2508 648.8495 L -729.0282 649.7217 L -727.7912 650.6037 L -726.5402 651.4951 L -724.8506 652.698 L -723.5676 653.6111 L -722.2599 654.5411 L -720.521 655.777 L -719.1936 656.7197 L -717.8501 657.6734" stroke-width="28" stroke="grey" fill="none" id="Track"/></svg>