<?xml version="1.0" standalone="no"?>
<svg xmlns:xlink="http://www.w3.org/1999/xlink" id="s2" class="track" xmlns="http://www.w3.org/2000/svg" preserveAspectRatio="xMinYMid meet" height="800px" width="600px" viewBox="-1200 -700 3000 3000">
            <path d="M 333.7429 95.7193 L 330.3205 104.444 L 327.3084 112.0922 L 323.8603 120.8451 L 321.0619 127.9761 L 317.6433 136.7632 L 314.8896 143.8982 L 311.5107 152.6903 L 307.9277 162.0403 L 304.3491 171.4065 L 300.7651 180.8185 L 294.4212 197.5518 L 291.0301 206.5393 L 287.4238 216.13 L 281.2693 232.5785 L 274.9264 249.6399 L 268.6295 266.6528 L 262.3951 283.4569 L 256.7041 298.6815 L 251.2581 313.1329 L 248.6667 319.955 L 245.8909 327.2137 L 243.7638 332.7365 L 241.624 338.2574 L 237.6954 348.3234 L 233.878 358.053 L 229.7891 367.7325 L 227.5954 372.4057 L 225.5915 376.368 L 222.7815 381.3939 L 220.444 385.0849 L 217.2834 389.3882 L 214.456 392.6256 L 210.1626 396.6716 L 206.8175 399.2508 L 202.74 401.8408 L 199.9111 403.321 L 197.0094 404.5927 L 189.2168 406.9075 L 183.9949 407.6944 L 178.7562 407.8903 L 173.9146 407.4809 L 168.9919 406.3742 L 164.4015 404.5874 L 160.2344 402.1845 L 156.7428 399.4476 L 153.6398 396.3526 L 151.2022 393.4172 L 148.7402 389.8354 L 147.0259 386.7537 L 145.1806 382.5025 L 144.0438 379.1048 L 142.8404 374.4965 L 142.1642 371.1349 L 141.4749 366.2233 L 141.192 362.362 L 141.1604 357.5075 L 141.4215 353.1809 L 142.0431 348.1683 L 142.7819 344.0468 L 143.9494 338.9134 L 144.9965 335.0159 L 146.7197 329.4329 L 148.212 325.102 L 149.4388 321.7258 L 153.3164 311.688 L 158.0331 300.5736 L 163.1664 289.4438 L 168.6357 277.3761 L 173.514 265.5214 L 178.2997 253.0647 L 180.4902 246.8447 L 182.8222 239.3999 L 184.2931 234.0237 L 185.9637 226.9557 L 187.0599 221.4871 L 188.192 214.6765 L 189.1194 207.3571 L 189.7435 200.3866 L 190.1738 192.8784 L 190.4137 185.2634 L 190.5392 178.9276 L 190.729 171.2073 L 190.9748 165.336 L 191.4701 158.2133 L 192.2162 151.2251 L 193.1154 144.9486 L 193.9939 140.0218 L 195.2687 134.3339 L 196.3886 130.3384 L 198.0055 125.5954 L 199.9176 121.0676 L 202.2892 116.5193 L 204.8254 112.4679 L 207.8096 108.3599 L 210.8504 104.6561 L 216.8463 98.2648 L 223.6731 91.9282 L 227.3599 88.8737 L 231.7956 85.575 L 236.2189 82.683 L 241.1487 79.8589 L 245.9591 77.3466 L 251.1299 74.7416 L 256.3657 72.0692 L 261.3027 69.508 L 265.61 67.2803 L 270.3965 64.8395 L 273.981 63.0414 L 278.1393 60.9824 L 282.0311 59.0333 L 288.1206 55.6659 L 291.1929 53.672 L 294.0637 51.4842 L 297.8851 47.6028 L 299.4734 45.3354 L 300.7805 42.8689 L 301.3835 41.3943 L 302.1442 38.8604 L 302.6129 36.2559 L 302.7965 33.5771 L 302.6983 31.0185 L 302.3396 28.4517 L 301.6579 25.6021 L 300.8175 22.9949 L 299.8103 20.4883 L 298.7078 18.2381 L 297.6919 16.5014 L 296.2827 14.4597 L 294.9005 12.755 L 293.0299 10.794 L 291.4543 9.3849 L 289.1953 7.6726 L 287.449 6.5527 L 284.6238 5.0402 L 282.7803 4.2158 L 279.9237 3.1601 L 276.8606 2.2875 L 273.5899 1.594 L 270.5618 1.1298 L 266.9403 .7621 L 263.8969 .5857 L 260.0398 .5182 L 255.819 .6407 L 251.7369 .9348 L 248.0836 1.3482 L 243.8185 2.004 L 239.4665 2.8574 L 234.7441 3.9724 L 229.8949 5.2788 L 224.8618 6.7729 L 219.9234 8.3666 L 214.778 10.1503 L 209.4012 12.112 L 204.4965 13.9465 L 198.6334 16.1271 L 193.2709 18.0744 L 186.4745 20.4692 L 181.0912 22.3282 L 176.8655 23.7697 L 169.9869 26.0693 L 163.0196 28.3009 L 157.3121 30.0168 L 150.2375 31.9628 L 144.0122 33.489 L 136.4267 35.1025 L 130.6239 36.1675 L 123.0319 37.3393 L 116.3321 38.1561 L 109.6305 38.7601 L 102.4791 39.1733 L 95.317 39.3795 L 89.0321 39.4108 L 81.7981 39.2736 L 74.0013 38.9164 L 66.0352 38.34 L 59.3419 37.7095 L 51.5625 36.8116 L 44.6467 35.8682 L 36.1237 34.5346 L 29.5173 33.3877 L 20.2696 31.6558 L 13.5339 30.3533 L 4.7068 28.7046 L -2.0197 27.5624 L -10.7688 26.2585 L -18.9406 25.2149 L -27.048 24.3503 L -33.5809 23.8028 L -41.5634 23.3503 L -49.9615 23.1728 L -64.5132 23.7369 L -72.1131 24.5432 L -80.0688 25.7788 L -87.4627 27.2486 L -94.8052 28.9231 L -100.739 30.3929 L -108.4543 32.4566 L -114.3086 34.173 L -121.8818 36.6532 L -127.5972 38.7526 L -134.9444 41.7862 L -140.4457 44.336 L -147.5082 47.9679 L -152.8458 50.9403 L -159.8099 55.0302 L -165.1609 58.2714 L -171.811 62.3624 L -177.2725 65.7379 L -184.4848 70.1296 L -190.0335 73.3829 L -196.8902 77.1845 L -202.9242 80.304 L -210.2975 83.8108 L -217.2842 86.8246 L -224.7473 89.7384 L -230.9284 91.9398 L -238.5152 94.3962 L -244.3807 96.1186 L -251.6757 98.0604 L -257.661 99.4982 L -264.6312 100.9939 L -270.7183 102.1385 L -278.3054 103.3598 L -284.4595 104.1853 L -292.6154 105.0574 L -300.3561 105.6802 L -308.6644 106.1721 L -315.0844 106.4474 L -323.0685 106.6663 L -331.6356 106.7327 L -339.7583 106.6347 L -348.402 106.3848 L -357.4217 105.9837 L -363.554 105.6319 L -370.467 105.1566 L -376.6352 104.6731 L -382.5595 104.1936 L -388.027 103.7518 L -397.5582 102.8444 L -402.9752 102.153 L -408.3596 101.2771 L -413.9527 100.1363 L -419.375 98.7731 L -424.7308 97.1545 L -429.7035 95.3815 L -434.8835 93.1982 L -439.6268 90.8376 L -444.4959 87.9922 L -448.9099 85.0235 L -450.5283 83.8496 L -455.0226 80.3752 L -468.3023 68.4678 L -475.1325 60.9396 L -480.9687 52.9972 L -486.0835 44.0679 L -488.5986 38.7288 L -489.8196 35.8314 L -491.08 32.5593 L -492.2334 29.2324 L -493.9328 23.4668 L -495.2317 17.9321 L -496.3185 11.9695 L -497.135 5.9353 L -497.6896 -.1696 L -497.9474 -5.9614 L -497.8931 -12.1509 L -497.4681 -18.368 L -496.708 -24.2261 L -495.6942 -29.7098 L -492.8308 -40.6555 L -489.3022 -50.487 L -487.3126 -55.223 L -484.9787 -60.3179 L -481.8828 -66.511 L -479.3058 -71.2332 L -475.655 -77.3518 L -472.6426 -81.9451 L -468.6768 -87.4568 L -464.9941 -92.1486 L -460.6138 -97.3994 L -456.7775 -102.0271 L -452.5689 -107.49 L -449.0824 -112.4486 L -445.5078 -117.9177 L -443.1865 -121.6326 L -439.2897 -128.0434 L -434.1327 -136.904 L -427.7446 -149.2348 L -422.3417 -161.9287 L -419.5677 -169.3687 L -417.1956 -175.9793 L -414.8013 -182.545 L -412.3026 -189.0278 L -410.1506 -194.2174 L -407.116 -200.8624 L -404.6018 -205.8076 L -401.0372 -212.0592 L -397.8502 -216.9839 L -393.906 -222.3033 L -390.4577 -226.3154 L -386.0009 -230.7785 L -382.2967 -234.0561 L -377.3861 -238.0559 L -373.5899 -240.9729 L -368.8682 -244.3836 L -363.7521 -247.7007 L -359.1324 -250.2862 L -354.7274 -252.3575 L -349.5745 -254.3534 L -345.2862 -255.7566 L -339.8729 -257.2855 L -335.0088 -258.4535 L -329.3145 -259.5984 L -324.5887 -260.3771 L -318.2844 -261.141 L -312.9977 -261.4938 L -306.8889 -261.5195 L -301.9104 -261.2251 L -295.3962 -260.4853 L -283.906 -258.5125 L -280.0779 -257.7193 L -274.3467 -256.3947 L -263.3526 -253.2739 L -252.5079 -249.4041 L -246.6058 -246.9694 L -240.4012 -244.1542 L -235.3353 -241.6734 L -229.604 -238.66 L -224.6572 -235.862 L -218.7615 -232.2781 L -214.3643 -229.4164 L -208.8925 -225.5779 L -205.0282 -222.6397 L -200.6973 -219.0393 L -196.6595 -215.2602 L -193.5928 -211.9543 L -191.0914 -208.8213 L -188.4166 -204.871 L -186.242 -201.0111 L -184.3421 -196.7881 L -183.1906 -193.493 L -182.0579 -189.1285 L -181.4482 -185.7584 L -180.9707 -181.5687 L -180.8021 -177.8681 L -180.949 -173.6711 L -181.3596 -170.3309 L -182.3576 -165.8514 L -183.6965 -161.7725 L -185.2236 -158.0247 L -187.1083 -154.1477 L -189.0218 -150.847 L -190.8856 -148.0626 L -193.6096 -144.5047 L -196.0889 -141.657 L -199.1907 -138.5221 L -201.9242 -136.0984 L -205.5454 -133.2881 L -208.9411 -131.0006 L -213.072 -128.5911 L -217.4575 -126.3867 L -222.0727 -124.369 L -226.2789 -122.7597 L -231.2458 -121.1614 L -235.6936 -120.0367 L -240.8616 -119.083 L -244.7877 -118.5864 L -250.1127 -118.1668 L -255.9233 -117.9572 L -266.9243 -117.7909 L -277.701 -117.3342 L -289.6941 -116.3798 L -301.0365 -114.8549 L -312.3714 -112.2904 L -318.1232 -110.4212 L -323.6218 -108.1732 L -329.4642 -105.2093 L -334.6317 -102.0359 L -338.3587 -99.4002 L -342.9379 -95.7139 L -346.4517 -92.4985 L -350.1682 -88.6389 L -352.9365 -85.3663 L -356.0037 -81.204 L -358.3559 -77.4618 L -360.5965 -73.1115 L -362.3072 -68.7239 L -363.4202 -64.6158 L -364.0438 -60.8253 L -364.3246 -56.2709 L -364.2632 -53.0966 L -363.9095 -48.9314 L -363.4163 -45.6149 L -362.4854 -41.3898 L -361.2261 -37.3098 L -359.6502 -33.405 L -358.1216 -30.3266 L -356.1285 -26.9518 L -354.3262 -24.3245 L -352.0512 -21.4213 L -349.9155 -19.0221 L -346.8967 -16.0578 L -344.4175 -13.9256 L -339.7131 -10.4354 L -338.2083 -9.439 L -334.4333 -7.1281 L -332.3709 -5.9594 L -328.5974 -3.9687 L -324.4447 -1.9837 L -320.6538 -.3664 L -317.2697 .9026 L -312.7274 2.3213 L -308.8813 3.2648 L -304.1533 4.1227 L -299.2835 4.7563 L -294.2848 5.2679 L -289.4649 5.7024 L -283.9046 6.1172 L -280.1186 6.3269 L -274.635 6.5119 L -269.3246 6.5635 L -263.8191 6.5079 L -259.1833 6.3844 L -253.2662 6.1256 L -248.2909 5.8194 L -241.9489 5.3319 L -235.3472 4.7603 L -228.032 4.1169 L -220.8481 3.4941 L -212.893 2.7972 L -205.107 2.0768 L -196.0013 1.1663 L -188.1587 .3218 L -181.1604 -.4764 L -171.7384 -1.6198 L -164.3839 -2.5778 L -155.1553 -3.8934 L -146.9274 -5.1761 L -136.7449 -6.87 L -128.2012 -8.3534 L -118.2657 -10.1557 L -110.6641 -11.6024 L -99.8251 -13.7655 L -91.3895 -15.5309 L -80.2042 -18.0102 L -71.5534 -20.0497 L -62.1574 -22.3876 L -49.3086 -25.7892 L -38.5936 -28.8079 L -29.9331 -31.3661 L -19.3997 -34.6272 L -10.9673 -37.3748 L -.7568 -40.9042 L 7.3983 -43.8951 L 17.8698 -47.9701 L 26.3469 -51.4454 L 35.8927 -55.503 L 44.7242 -59.3428 L 53.9984 -63.4454 L 61.4176 -66.7961 L 70.8175 -71.1697 L 77.1574 -74.2306 L 85.1122 -78.2338 L 91.1361 -81.3854 L 97.9342 -85.0045 L 102.9641 -87.6541 L 108.588 -90.5276 L 113.2678 -92.8427 L 117.7654 -95.0384 L 121.5921 -96.9137 L 125.8913 -99.026 L 129.3403 -100.6919 L 133.8182 -102.7266 L 137.2448 -104.1051 L 141.6867 -105.6112 L 144.9739 -106.504 L 148.8935 -107.291 L 152.5284 -107.7442 L 156.5895 -107.9183 L 160.5474 -107.7181 L 164.362 -107.1566 L 167.3926 -106.4585 L 170.5448 -105.5007 L 173.2056 -104.5034 L 176.6088 -102.9852 L 179.149 -101.6737 L 182.1787 -99.8795 L 184.7296 -98.1501 L 187.6948 -95.8746 L 190.3961 -93.6096 L 193.085 -91.3097 L 195.3062 -89.4716 L 198.1066 -87.2861 L 200.4304 -85.6138 L 203.5302 -83.6062 L 206.1372 -82.1432 L 208.9859 -80.8224 L 212.2731 -79.6668 L 215.5937 -78.9105 L 218.719 -78.583 L 221.8055 -78.6193 L 224.4373 -78.9292 L 227.4909 -79.6351 L 230.0129 -80.5337 L 234.7568 -83.121 L 238.6296 -86.2354 L 242.3303 -90.3012 L 244.1081 -92.7592 L 245.8403 -95.5773 L 247.3326 -98.3978 L 248.792 -101.5678 L 250.0375 -104.7098 L 251.1896 -108.2193 L 251.8785 -110.8098 L 252.6982 -114.8819 L 253.102 -117.7235 L 253.4667 -121.9071 L 253.581 -125.2212 L 253.5233 -129.6903 L 253.3516 -132.9359 L 252.9546 -137.3783 L 252.3534 -142.2382 L 251.6373 -146.9339 L 250.6386 -152.359 L 249.5569 -157.3223 L 248.2944 -162.4377 L 246.7656 -168.0748 L 245.0647 -173.9294 L 243.3298 -179.6407 L 241.2788 -186.3126 L 239.4336 -192.4635 L 237.4847 -199.2393 L 235.9819 -204.575 L 233.9632 -211.7347 L 231.8745 -219.0912 L 229.8832 -226.1999 L 227.7916 -233.9401 L 225.9854 -240.9105 L 224.4537 -247.0354 L 222.7111 -254.2158 L 220.7545 -262.5041 L 218.9312 -270.426 L 217.0291 -278.8995 L 215.5114 -285.8332 L 213.9597 -293.1671 L 212.3281 -301.2502 L 210.9309 -308.5566 L 209.9035 -314.1951 L 208.7718 -320.6418 L 207.9573 -325.4395 L 207.1123 -330.7104 L 206.5558 -334.7086 L 206.0996 -338.981 L 205.8423 -342.2887 L 205.6482 -345.7794 L 205.5438 -349.4658 L 205.5813 -353.1281 L 205.7422 -356.0876 L 206.1511 -359.9283 L 206.623 -362.8574 L 207.4645 -366.7129 L 208.3506 -369.9346 L 209.5036 -373.4364 L 210.6799 -376.5031 L 212.3627 -380.2975 L 214.0554 -383.6186 L 216.2472 -387.3922 L 218.3934 -390.6577 L 221.2836 -394.5572 L 223.7014 -397.4718 L 226.92 -400.9437 L 229.9494 -403.8256 L 233.8991 -407.101 L 238.1809 -410.1488 L 242.5211 -412.7942 L 249.5684 -416.2973 L 253.6578 -417.9699 L 257.9349 -419.5015 L 264.1553 -421.3864 L 268.4819 -422.4626 L 274.8149 -423.6991 L 279.7789 -424.402 L 286.4102 -425.0836 L 291.9936 -425.5072 L 298.5014 -425.9154 L 304.3059 -426.1837 L 311.5133 -426.3278 L 317.1266 -426.2439 L 324.5301 -425.8587 L 330.2302 -425.3884 L 337.7319 -424.6068 L 343.499 -423.8734 L 351.0434 -422.6616 L 357.209 -421.4011 L 364.1664 -419.6654 L 369.7257 -418.0355 L 376.8516 -415.5973 L 382.1501 -413.486 L 388.074 -410.7745 L 394.501 -407.3273 L 405.1524 -400.4439 L 415.4696 -392.6907 L 422.9064 -386.2228 L 427.7424 -381.265 L 431.9392 -376.3262 L 434.4157 -373.1392 L 439.7867 -365.6212 L 446.2024 -355.5421 L 451.546 -345.425 L 456.2328 -334.1952 L 459.871 -323.2365 L 461.6414 -317.0057 L 463.1948 -310.6597 L 465.3117 -298.473 L 466.2495 -286.4148 L 466.0864 -273.3599 L 465.1814 -260.6625 L 464.2257 -252.1983 L 463.1215 -245.0202 L 462.0714 -239.5338 L 460.5165 -232.7852 L 457.8153 -223.0887 L 453.6736 -210.3613 L 449.0598 -197.2393 L 446.5698 -190.3655 L 443.9325 -183.2362 L 437.9623 -167.646 L 434.4027 -158.5761 L 430.6842 -149.125 L 427.7467 -141.6382 L 424.0177 -132.1275 L 420.6581 -123.5549 L 416.9714 -114.1414 L 413.5077 -105.2819 L 409.5517 -95.1328 L 406.3369 -86.879 L 402.3393 -76.6417 L 398.7352 -67.454 L 394.2254 -56.0144 L 389.8419 -44.9651 L 385.3388 -33.6601 L 381.3246 -23.5462 L 376.6774 -11.7419 L 372.5457 -1.205 L 367.4236 11.8261 L 363.426 21.9578 L 358.741 33.8117 L 350.55 54.5366 L 341.0987 78.4983 z" stroke-width="28" stroke="black" fill="none" id="Track"/><path d="M 333.7429 95.7193 L 330.3205 104.444 L 327.3084 112.0922 L 323.8603 120.8451 L 321.0619 127.9761 L 317.6433 136.7632 L 314.8896 143.8982 L 311.5107 152.6903 L 307.9277 162.0403 L 304.3491 171.4065 L 300.7651 180.8185 L 294.4212 197.5518 L 291.0301 206.5393 L 287.4238 216.13 L 281.2693 232.5785 L 274.9264 249.6399 L 268.6295 266.6528 L 262.3951 283.4569 L 256.7041 298.6815 L 251.2581 313.1329 L 248.6667 319.955 L 245.8909 327.2137 L 243.7638 332.7365 L 241.624 338.2574 L 237.6954 348.3234 L 233.878 358.053 L 229.7891 367.7325 L 227.5954 372.4057 L 225.5915 376.368 L 222.7815 381.3939 L 220.444 385.0849 L 217.2834 389.3882 L 214.456 392.6256 L 210.1626 396.6716 L 206.8175 399.2508 L 202.74 401.8408 L 199.9111 403.321 L 197.0094 404.5927 L 189.2168 406.9075 L 183.9949 407.6944 L 178.7562 407.8903 L 173.9146 407.4809 L 168.9919 406.3742 L 164.4015 404.5874 L 160.2344 402.1845 L 156.7428 399.4476 L 153.6398 396.3526 L 151.2022 393.4172 L 148.7402 389.8354 L 147.0259 386.7537 L 145.1806 382.5025 L 144.0438 379.1048 L 142.8404 374.4965 L 142.1642 371.1349 L 141.4749 366.2233 L 141.192 362.362 L 141.1604 357.5075 L 141.4215 353.1809 L 142.0431 348.1683 L 142.7819 344.0468 L 143.9494 338.9134 L 144.9965 335.0159 L 146.7197 329.4329 L 148.212 325.102 L 149.4388 321.7258 L 153.3164 311.688 L 158.0331 300.5736 L 163.1664 289.4438 L 168.6357 277.3761 L 173.514 265.5214 L 178.2997 253.0647 L 180.4902 246.8447 L 182.8222 239.3999 L 184.2931 234.0237 L 185.9637 226.9557 L 187.0599 221.4871 L 188.192 214.6765 L 189.1194 207.3571 L 189.7435 200.3866 L 190.1738 192.8784 L 190.4137 185.2634 L 190.5392 178.9276 L 190.729 171.2073 L 190.9748 165.336 L 191.4701 158.2133 L 192.2162 151.2251 L 193.1154 144.9486 L 193.9939 140.0218 L 195.2687 134.3339 L 196.3886 130.3384 L 198.0055 125.5954 L 199.9176 121.0676 L 202.2892 116.5193 L 204.8254 112.4679 L 207.8096 108.3599 L 210.8504 104.6561 L 216.8463 98.2648 L 223.6731 91.9282 L 227.3599 88.8737 L 231.7956 85.575 L 236.2189 82.683 L 241.1487 79.8589 L 245.9591 77.3466 L 251.1299 74.7416 L 256.3657 72.0692 L 261.3027 69.508 L 265.61 67.2803 L 270.3965 64.8395 L 273.981 63.0414 L 278.1393 60.9824 L 282.0311 59.0333 L 288.1206 55.6659 L 291.1929 53.672 L 294.0637 51.4842 L 297.8851 47.6028 L 299.4734 45.3354 L 300.7805 42.8689 L 301.3835 41.3943 L 302.1442 38.8604 L 302.6129 36.2559 L 302.7965 33.5771 L 302.6983 31.0185 L 302.3396 28.4517 L 301.6579 25.6021 L 300.8175 22.9949 L 299.8103 20.4883 L 298.7078 18.2381 L 297.6919 16.5014 L 296.2827 14.4597 L 294.9005 12.755 L 293.0299 10.794 L 291.4543 9.3849 L 289.1953 7.6726 L 287.449 6.5527 L 284.6238 5.0402 L 282.7803 4.2158 L 279.9237 3.1601 L 276.8606 2.2875 L 273.5899 1.594 L 270.5618 1.1298 L 266.9403 .7621 L 263.8969 .5857 L 260.0398 .5182 L 255.819 .6407 L 251.7369 .9348 L 248.0836 1.3482 L 243.8185 2.004 L 239.4665 2.8574 L 234.7441 3.9724 L 229.8949 5.2788 L 224.8618 6.7729 L 219.9234 8.3666 L 214.778 10.1503 L 209.4012 12.112 L 204.4965 13.9465 L 198.6334 16.1271 L 193.2709 18.0744 L 186.4745 20.4692 L 181.0912 22.3282 L 176.8655 23.7697 L 169.9869 26.0693 L 163.0196 28.3009 L 157.3121 30.0168 L 150.2375 31.9628 L 144.0122 33.489 L 136.4267 35.1025 L 130.6239 36.1675 L 123.0319 37.3393 L 116.3321 38.1561 L 109.6305 38.7601 L 102.4791 39.1733 L 95.317 39.3795 L 89.0321 39.4108 L 81.7981 39.2736 L 74.0013 38.9164 L 66.0352 38.34 L 59.3419 37.7095 L 51.5625 36.8116 L 44.6467 35.8682 L 36.1237 34.5346 L 29.5173 33.3877 L 20.2696 31.6558 L 13.5339 30.3533 L 4.7068 28.7046 L -2.0197 27.5624 L -10.7688 26.2585 L -18.9406 25.2149 L -27.048 24.3503 L -33.5809 23.8028 L -41.5634 23.3503 L -49.9615 23.1728 L -64.5132 23.7369 L -72.1131 24.5432 L -80.0688 25.7788 L -87.4627 27.2486 L -94.8052 28.9231 L -100.739 30.3929 L -108.4543 32.4566 L -114.3086 34.173 L -121.8818 36.6532 L -127.5972 38.7526 L -134.9444 41.7862 L -140.4457 44.336 L -147.5082 47.9679 L -152.8458 50.9403 L -159.8099 55.0302 L -165.1609 58.2714 L -171.811 62.3624 L -177.2725 65.7379 L -184.4848 70.1296 L -190.0335 73.3829 L -196.8902 77.1845 L -202.9242 80.304 L -210.2975 83.8108 L -217.2842 86.8246 L -224.7473 89.7384 L -230.9284 91.9398 L -238.5152 94.3962 L -244.3807 96.1186 L -251.6757 98.0604 L -257.661 99.4982 L -264.6312 100.9939 L -270.7183 102.1385 L -278.3054 103.3598 L -284.4595 104.1853 L -292.6154 105.0574" stroke-width="12" stroke="#e73323" fill="none" id="S1"/><path d="M -298.4156 105.5405 L -306.7017 106.0704 L -313.5966 106.3913 L -321.5627 106.6362 L -330.1184 106.734 L -338.2339 106.6638 L -346.8776 106.4385 L -355.4531 106.0832 L -362.1755 105.7165 L -368.8111 105.2783 L -375.5337 104.7617 L -381.5317 104.2764 L -387.0029 103.836 L -392.4582 103.3643 L -396.5389 102.9565 L -401.9629 102.2957 L -407.353 101.4565 L -412.9793 100.3535 L -418.1057 99.1162 L -423.7879 97.4602 L -428.7769 95.7338 L -433.6766 93.7411 L -438.4544 91.4565 L -441.6552 89.7076 L -446.4461 86.7247 L -452.3945 82.4445 L -456.836 78.887 L -459.3967 76.7142 L -461.9249 74.4946 L -464.4167 72.2248 L -467.5847 69.1849 L -471.3452 65.2875 L -474.4822 61.7223 L -477.8557 57.4634 L -480.406 53.8505 L -483.2955 49.2136 L -485.6115 44.9909 L -487.1523 41.8904 L -489.4215 36.802 L -490.7131 33.5461 L -491.8992 30.2356 L -492.9737 26.8746 L -494.4534 21.4004 L -495.6478 15.8366 L -497.01 7.0041 L -497.6112 .9131 L -497.9207 -4.8718 L -497.9288 -11.0563 L -497.6031 -16.9036 L -496.877 -23.1262 L -495.9197 -28.6115 L -494.4981 -34.821 L -493.1682 -39.562 L -491.1077 -45.7538 L -487.7882 -54.1287 L -485.4953 -59.2248 L -482.451 -65.4183 L -479.9176 -70.1451 L -476.323 -76.2784 L -473.5893 -80.5416 L -469.441 -86.4371 L -466.0649 -90.8194 L -461.4424 -96.4172 L -457.8609 -100.6973 L -453.3399 -106.4476 L -450.062 -111.0155 L -446.2117 -116.8134 L -441.576 -124.2585 L -437.6986 -130.7163 L -434.791 -135.7347 L -431.1439 -142.4197 L -428.3232 -148.0224 L -425.182 -154.9345 L -422.8239 -160.6914 L -420.1698 -167.7147 L -417.639 -174.7412 L -415.2569 -181.3175 L -412.7815 -187.8211 L -410.6587 -193.0276 L -407.6722 -199.7023 L -405.1986 -204.6764 L -401.6899 -210.9763 L -398.5533 -215.9475 L -394.6703 -221.3362 L -391.2702 -225.4192 L -386.8475 -229.9824 L -383.1552 -233.3216 L -378.5496 -237.1347 L -374.4679 -240.3101 L -369.7594 -243.7623 L -364.9667 -246.9544 L -360.0646 -249.7984 L -355.6781 -251.942 L -350.5517 -254.0043 L -346.6151 -255.3419 L -340.8983 -257.0148 L -336.4104 -258.1358 L -330.392 -259.3991 L -325.6859 -260.2107 L -319.4081 -261.0305 L -314.1351 -261.4421 L -308.0373 -261.5481 L -303.0583 -261.3161 L -296.9285 -260.6902 L -291.5671 -259.9058 L -287.7366 -259.2435 L -275.4917 -256.6741 L -269.7808 -255.1977 L -264.8608 -253.7504 L -258.4709 -251.6261 L -253.6232 -249.8374 L -247.7078 -247.4426 L -241.8573 -244.837 L -230.6728 -239.2401 L -219.7911 -232.9241 L -209.8257 -226.2569 L -201.732 -219.9352 L -197.5553 -216.1443 L -194.1719 -212.6179 L -189.0131 -205.8157 L -186.622 -201.7426 L -184.7485 -197.791 L -183.4337 -194.2572 L -182.2887 -190.1607 L -181.5705 -186.5379 L -181.038 -182.3578 L -180.8242 -178.9255 L -180.8917 -174.4511 L -181.2415 -171.0948 L -182.0942 -166.8305 L -183.3531 -162.7222 L -184.9196 -158.7207 L -186.7558 -154.8201 L -188.6193 -151.4981 L -190.4386 -148.6998 L -193.1062 -145.125 L -195.5395 -142.2603 L -198.5869 -139.0982 L -201.0636 -136.8306 L -204.8445 -133.8003 L -207.9506 -131.6364 L -212.2772 -129.0268 L -216.338 -126.9199 L -221.1906 -124.7337 L -225.0616 -123.2029 L -230.3042 -121.437 L -234.4152 -120.3302 L -239.5636 -119.2887 L -243.8 -118.6948 L -249.1044 -118.2267 L -254.542 -117.9893 L -260.8287 -117.8902 L -265.4751 -117.8224 L -271.3237 -117.6531 L -276.5634 -117.4011 L -283.0701 -116.9652 L -288.1285 -116.5337 L -294.7954 -115.7951 L -299.8725 -115.0523 L -306.0218 -113.8809 L -311.2681 -112.5992 L -317.0637 -110.8004 L -322.6102 -108.6239 L -328.1968 -105.907 L -333.4452 -102.8125 L -337.5158 -100.0233 L -342.1532 -96.3837 L -345.4706 -93.4338 L -349.4971 -89.3769 L -352.3185 -86.1318 L -355.4582 -81.9941 L -357.8804 -78.2698 L -360.2165 -73.9307 L -362.0279 -69.5467 L -363.2351 -65.4353 L -363.9046 -61.9027 L -364.3004 -57.3365 L -364.2962 -53.8859 L -364.0248 -49.9643 L -362.6735 -42.125 L -361.4721 -38.0188 L -359.9507 -34.0804 L -358.4662 -30.9757 L -356.5213 -27.5725 L -354.7561 -24.9216 L -352.5224 -21.9903 L -350.4219 -19.566 L -347.4485 -16.5668 L -345.0023 -14.4076 L -341.8051 -11.9097 L -336.6745 -8.4703 L -329.3159 -4.3337 L -325.4356 -2.438 L -321.4213 -.6778 L -313.8065 2.0144 L -305.0011 3.9902 L -300.1518 4.6563 L -295.1767 5.1824 L -290.378 5.6245 L -285.1529 6.034 L -281.0721 6.2803 L -275.9392 6.4806 L -270.6656 6.5611 L -264.8675 6.526 L -260.2661 6.4194 L -254.7531 6.2015 L -249.8384 5.923 L -243.1565 5.4313 L -236.6043 4.8712 L -229.3466 4.2317 L -222.218 3.6125 L -214.3188 2.9243 L -206.588 2.2177 L -198.0618 1.379 L -189.7493 .4973 L -182.7915 -.2865 L -173.4257 -1.4091 L -166.0931 -2.3487 L -157.4763 -3.5495 L -149.2909 -4.7982 L -138.5564 -6.5621 L -130.657 -7.9216 L -120.7658 -9.6931 L -112.6006 -11.2281 L -101.7559 -13.372 L -93.3442 -15.1145 L -82.8472 -17.4087 L -73.5586 -19.5672 L -57.4447 -23.6074 L -51.3704 -25.2271 L -40.605 -28.229 L -31.924 -30.7685 L -21.3642 -34.0057 L -12.9014 -36.7322 L -2.655 -40.2302 L 5.5255 -43.1944 L 16.0384 -47.2388 L 23.9345 -50.4421 L 34.111 -54.7368 L 42.966 -58.5735" stroke-width="12" stroke="#4fafdf" fill="none" id="S2"/><path d="M 48.7992 -61.1356 L 57.4369 -64.9892 L 65.3399 -68.6007 L 74.0238 -72.7048 L 80.2083 -75.7434 L 87.9458 -79.7047 L 93.7688 -82.7853 L 100.6955 -86.4662 L 105.1479 -88.7829 L 110.5308 -91.4952 L 115.2686 -93.8204 L 119.6866 -95.9783 L 123.2121 -97.7105 L 127.7516 -99.9307 L 131.1843 -101.5545 L 135.6628 -103.4914 L 139.0898 -104.7697 L 143.2176 -106.052 L 146.6991 -106.8886 L 150.3512 -107.5049 L 154.2098 -107.8607 L 158.2337 -107.8812 L 162.1365 -107.5283 L 168.6655 -106.1006 L 171.781 -105.0593 L 174.6173 -103.9059 L 177.7886 -102.3959 L 180.2991 -101.0241 L 183.4669 -99.0321 L 185.967 -97.2346 L 188.8825 -94.8933 L 191.402 -92.7473 L 196.5229 -88.5025 L 201.5173 -84.8804 L 207.2693 -81.5825 L 210.3337 -80.3013 L 213.6375 -79.3057 L 216.7675 -78.7437 L 219.8826 -78.5556 L 222.566 -78.6822 L 225.7159 -79.1772 L 228.52 -79.9651 L 231.1331 -81.0338 L 233.1336 -82.0949 L 235.6187 -83.7282 L 237.2914 -85.0415 L 239.5354 -87.1213 L 241.1489 -88.8672 L 243.0141 -91.2002 L 244.7372 -93.7307 L 246.4148 -96.6166 L 247.8621 -99.4973 L 249.2754 -102.7284 L 250.5347 -106.1327 L 251.5479 -109.5023 L 252.228 -112.3666 L 252.9146 -116.2901 L 253.2821 -119.4237 L 253.537 -123.4249 L 253.5843 -127.0415 L 253.451 -131.303 L 253.2013 -134.8618 L 252.7614 -139.079 L 252.0581 -144.279 L 251.275 -149.0244 L 250.2549 -154.2045 L 249.1035 -159.2236 L 247.6868 -164.732 L 246.0853 -170.4584 L 244.3193 -176.4045 L 242.5408 -182.2031 L 240.5871 -188.5915 L 238.745 -194.8262 L 235.1592 -207.4996 L 233.233 -214.3083 L 231.1276 -221.7373 L 229.0176 -229.3629 L 227.0647 -236.7121 L 225.6297 -242.3152 L 223.7541 -249.893 L 221.9036 -257.6099 L 220.0688 -265.4614 L 218.1424 -273.9143 L 216.2648 -282.3672 L 214.8798 -288.7842 L 213.2705 -296.5286 L 211.6998 -304.4869 L 210.3658 -311.6313 L 209.3905 -317.0884 L 208.3205 -323.2797 L 207.5639 -327.8353 L 206.8107 -332.7801 L 206.3442 -336.5168 L 205.9606 -340.6457 L 205.7551 -343.6889 L 205.5946 -347.166 L 205.5392 -350.8419 L 205.6522 -354.7243 L 205.8605 -357.4481 L 206.351 -361.28 L 206.9386 -364.4396 L 207.8852 -368.3178 L 208.7858 -371.329 L 210.0257 -374.8488 L 211.28 -377.925 L 213.1833 -381.9591 L 214.8447 -385.037 L 217.2938 -389.0308 L 219.3779 -392.043 L 222.3779 -395.9112 L 224.8764 -398.7916 L 228.4097 -402.4049 L 230.6239 -404.421 L 234.6308 -407.656 L 238.9718 -410.662 L 243.6511 -413.4174 L 246.5552 -414.9062 L 254.9534 -418.4553 L 260.3125 -420.2691 L 265.2241 -421.67 L 271.0656 -423.0157 L 275.9523 -423.8785 L 282.4908 -424.709 L 287.5977 -425.1826 L 294.4187 -425.6696 L 300.1484 -426.0025 L 306.8298 -426.2618 L 312.8036 -426.325 L 320.1705 -426.1205 L 325.8421 -425.7618 L 333.3135 -425.0873 L 339.0605 -424.4499 L 346.6094 -423.4129 L 352.8114 -422.3269 L 359.8312 -420.7861 L 365.4571 -419.3069 L 372.6854 -417.0737 L 378.0887 -415.1285 L 384.5462 -412.4378 L 390.7593 -409.4026 L 397.0584 -405.8015 L 401.6866 -402.8295 L 407.5347 -398.737 L 411.8782 -395.4982 L 417.7034 -390.8603 L 424.0803 -385.0854 L 428.8223 -380.0527 L 437.5011 -368.9149 L 441.3481 -363.2974 L 444.1519 -358.9402 L 447.5767 -353.1344 L 449.808 -348.9567 L 452.6946 -342.9272 L 454.6817 -338.2332 L 457.0341 -331.9658 L 458.8004 -326.6865 L 460.5567 -320.9146 L 462.2525 -314.637 L 463.7881 -307.8484 L 464.7308 -302.5732 L 465.5995 -295.9953 L 466.0567 -290.5959 L 466.306 -283.4753 L 466.2477 -277.583 L 465.9256 -270.3993 L 465.5449 -264.8984 L 465.0163 -258.9669 L 464.599 -255.1595 L 463.8067 -249.2407 L 462.6592 -242.4884 L 461.5234 -237.0026 L 459.0493 -227.3047 L 457.0347 -220.5552 L 455.1147 -214.6244 L 452.6365 -207.3545 L 450.6479 -201.6904 L 448.08 -194.5191 L 445.5319 -187.5412 L 442.6465 -179.8164 L 440.1614 -173.3109 L 436.5179 -163.9564 L 432.8901 -154.7334 L 429.3386 -145.6972 L 426.1302 -137.5168 L 422.3495 -127.8709 L 419.1909 -119.81 L 415.2396 -109.7153 L 412.0243 -101.4785 L 408.0683 -91.3226 L 404.8499 -83.0659 L 400.5491 -72.0733 L 396.8963 -62.7812 L 392.5976 -51.9024 L 388.1667 -40.7587 L 383.3388 -28.6295 L 379.2997 -18.4135 L 374.6199 -6.4952 L 370.4497 4.1343 L 365.586 16.4868 L 361.5602 26.6793 L 356.8549 38.5819 L 353.7043 46.5531 L 348.6563 59.3316 L 344.2477 70.5097 L 338.8966 84.089 L 334.8075 94.4708" stroke-width="12" stroke="#f7d347" fill="none" id="S3"/></svg>