<svg class="track" xmlns="http://www.w3.org/2000/svg" preserveAspectRatio="xMinYMid meet" height="450" width="530" viewBox="-540 -450 1 900">
  <path d="m333.743 95.72-3.423 8.724-3.012 7.648-3.448 8.753-2.798 7.131-3.419 8.787-2.753 7.135-3.38 8.792-3.582 9.35-3.579 9.367-3.584 9.411-6.344 16.734-3.39 8.987-3.607 9.591-6.155 16.448-6.343 17.062-6.296 17.013-6.235 16.804-5.69 15.225-5.447 14.45-2.591 6.823-2.776 7.259-2.127 5.522-2.14 5.521-3.929 10.066-3.817 9.73-4.089 9.68-2.194 4.673-2.004 3.962-2.81 5.026-2.337 3.69-3.16 4.304-2.828 3.238-4.293 4.046-3.346 2.579-4.077 2.59-2.829 1.48-2.902 1.272-7.792 2.315-5.222.786-5.239.196-4.841-.41-4.923-1.106-4.59-1.787-4.168-2.402-3.491-2.737-3.103-3.095-2.438-2.936-2.462-3.582-1.714-3.081-1.845-4.252-1.137-3.397-1.204-4.608-.676-3.362-.69-4.912-.282-3.861-.032-4.855.262-4.326.621-5.013.739-4.121 1.167-5.134 1.047-3.897 1.724-5.583 1.492-4.331 1.227-3.376 3.877-10.038 4.717-11.114 5.133-11.13 5.47-12.068 4.878-11.855 4.786-12.456 2.19-6.22 2.332-7.445 1.471-5.376 1.67-7.068 1.097-5.469 1.132-6.81.927-7.32.625-6.97.43-7.509.24-7.615.125-6.335.19-7.72.246-5.872.495-7.123.746-6.988.9-6.276.878-4.927 1.275-5.688 1.12-3.996 1.617-4.743 1.912-4.527 2.371-4.549 2.536-4.051 2.985-4.108 3.04-3.704 5.996-6.391 6.827-6.337 3.687-3.054 4.436-3.299 4.423-2.892 4.93-2.824 4.81-2.512 5.17-2.605 5.237-2.673 4.937-2.561 4.307-2.228 4.786-2.44 3.585-1.799 4.158-2.059 3.892-1.949 6.09-3.367 3.072-1.994 2.87-2.188 3.822-3.881 1.588-2.268 1.308-2.466.603-1.475.76-2.534.469-2.604.183-2.679-.098-2.558-.358-2.567-.682-2.85-.84-2.607-1.008-2.507-1.102-2.25-1.016-1.737-1.41-2.041-1.381-1.705-1.871-1.961-1.576-1.41-2.259-1.711-1.746-1.12-2.825-1.513-1.844-.824-2.856-1.056-3.063-.873-3.271-.693-3.028-.464-3.622-.368-3.043-.176-3.857-.068-4.221.123-4.082.294-3.653.413-4.266.656-4.352.853-4.722 1.115-4.85 1.307-5.032 1.494-4.939 1.594-5.145 1.783-5.377 1.962-4.905 1.835-5.863 2.18-5.362 1.947-6.796 2.395-5.384 1.86-4.226 1.44-6.878 2.3-6.967 2.232-5.708 1.716-7.075 1.946-6.225 1.526-7.585 1.614-5.803 1.064-7.592 1.172-6.7.817-6.701.604-7.152.413-7.162.206-6.285.032-7.234-.137-7.797-.358-7.966-.576-6.693-.63-7.78-.898-6.915-.944-8.523-1.333-6.607-1.147-9.247-1.732-6.736-1.303-8.827-1.648-6.727-1.143-8.749-1.303-8.172-1.044-8.107-.865-6.533-.547-7.982-.453-8.398-.177-14.552.564-7.6.806-7.956 1.236-7.394 1.47-7.342 1.674-5.934 1.47-7.715 2.064-5.855 1.716-7.573 2.48-5.715 2.1-7.347 3.033-5.502 2.55-7.062 3.632-5.338 2.972-6.964 4.09-5.35 3.241-6.651 4.091-5.462 3.376-7.212 4.392-5.548 3.253-6.857 3.802-6.034 3.119-7.374 3.507-6.986 3.014-7.463 2.913-6.181 2.202-7.587 2.456-5.866 1.723-7.295 1.941-5.985 1.438-6.97 1.496-6.087 1.144-7.587 1.222-6.154.825-8.156.872-7.741.623-8.308.492-6.42.275-7.984.22-8.568.066-8.122-.098-8.644-.25-9.02-.401-6.132-.352-6.913-.475-6.168-.484-5.925-.48-5.467-.441-9.531-.908-5.417-.691-5.385-.876-5.593-1.14-5.422-1.364-5.356-1.618-4.973-1.773-5.18-2.184-4.743-2.36-4.869-2.846-4.414-2.969-1.618-1.173-4.495-3.475-13.28-11.907-6.83-7.528-5.836-7.943-5.115-8.93-2.515-5.338-1.22-2.898-1.261-3.272-1.153-3.327-1.7-5.765-1.299-5.535-1.086-5.962-.817-6.035-.555-6.105-.257-5.791.054-6.19.425-6.217.76-5.858 1.014-5.484 2.863-10.946 3.529-9.831 1.99-4.736 2.333-5.095 3.096-6.193 2.577-4.722 3.651-6.119 3.012-4.593 3.966-5.512 3.683-4.692 4.38-5.25 3.837-4.628 4.208-5.463 3.487-4.959 3.574-5.469 2.321-3.715 3.897-6.41 5.157-8.861 6.388-12.33 5.403-12.695 2.774-7.44 2.372-6.61 2.395-6.566 2.498-6.483 2.152-5.19 3.035-6.644 2.514-4.946 3.565-6.251 3.187-4.925 3.944-5.32 3.448-4.011 4.457-4.464 3.704-3.277 4.91-4 3.797-2.917 4.722-3.41 5.116-3.318 4.62-2.585 4.405-2.071 5.152-1.996 4.289-1.404 5.413-1.529 4.864-1.168 5.695-1.144 4.725-.78 6.305-.763 5.286-.353 6.11-.025 4.978.294 6.514.74 11.49 1.973 3.828.793 5.731 1.324 10.994 3.121 10.845 3.87 5.902 2.435 6.205 2.815 5.066 2.48 5.731 3.014 4.947 2.798 5.895 3.584 4.398 2.862 5.471 3.838 3.865 2.938 4.33 3.6 4.038 3.78 3.067 3.306 2.502 3.133 2.674 3.95 2.175 3.86 1.9 4.223 1.151 3.295 1.133 4.364.61 3.37.477 4.19.169 3.7-.147 4.198-.41 3.34-.999 4.48-1.338 4.078-1.528 3.748-1.884 3.877-1.914 3.301-1.864 2.784-2.724 3.558-2.479 2.848-3.102 3.135-2.733 2.424-3.621 2.81-3.396 2.287-4.131 2.41-4.386 2.204-4.615 2.018-4.206 1.61-4.967 1.598-4.448 1.124-5.168.954-3.926.497-5.325.42-5.81.209-11.001.166-10.777.457-11.993.954-11.342 1.525-11.335 2.565-5.752 1.869-5.499 2.248-5.842 2.964-5.168 3.173-3.727 2.636-4.579 3.686-3.514 3.215-3.716 3.86-2.769 3.273-3.067 4.162-2.352 3.742-2.24 4.35-1.711 4.388-1.113 4.108-.624 3.79-.28 4.555.06 3.174.355 4.166.493 3.316.93 4.225 1.26 4.08 1.576 3.905 1.528 3.078 1.994 3.375 1.802 2.628 2.275 2.903 2.135 2.399 3.02 2.964 2.478 2.132 4.705 3.49 1.505.997 3.775 2.31 2.062 1.17 3.774 1.99 4.152 1.985 3.791 1.618 3.384 1.269 4.543 1.418 3.846.944 4.728.858 4.87.633 4.998.512 4.82.434 5.56.415 3.786.21 5.484.185 5.31.052 5.506-.056 4.636-.124 5.917-.258 4.975-.307 6.342-.487 6.602-.572 7.315-.643 7.184-.623 7.955-.697 7.786-.72 9.106-.91 7.842-.845 6.999-.798 9.422-1.144 7.354-.958 9.229-1.315 8.228-1.283 10.182-1.694 8.544-1.483 9.935-1.803 7.602-1.446 10.839-2.163 8.436-1.766 11.185-2.48 8.65-2.039 9.397-2.338 12.848-3.401 10.715-3.019 8.66-2.558 10.534-3.261 8.433-2.748 10.21-3.53 8.155-2.99L17.87-47.97l8.477-3.475 9.546-4.058 8.831-3.84 9.274-4.102 7.42-3.351 9.4-4.374 6.34-3.06 7.954-4.004 6.024-3.151 6.798-3.62 5.03-2.65 5.624-2.873 4.68-2.315 4.497-2.195 3.827-1.876 4.3-2.112 3.448-1.666 4.478-2.035 3.427-1.378 4.442-1.506 3.287-.893 3.92-.787 3.634-.453 4.061-.174 3.958.2 3.815.561 3.03.698 3.153.958 2.66.998 3.404 1.518 2.54 1.311 3.03 1.795 2.55 1.729 2.966 2.275 2.701 2.265 2.689 2.3 2.221 1.838 2.8 2.186 2.324 1.672 3.1 2.008 2.607 1.463 2.849 1.32 3.287 1.156 3.32.757 3.126.327 3.087-.036 2.631-.31 3.054-.706 2.522-.899 4.744-2.587 3.873-3.114 3.7-4.066 1.778-2.458 1.732-2.818 1.493-2.82 1.459-3.17 1.245-3.143 1.153-3.51.689-2.59.82-4.072.403-2.841.365-4.184.114-3.314-.058-4.47-.171-3.245-.397-4.442-.602-4.86-.716-4.696-.998-5.425-1.082-4.963-1.263-5.116-1.528-5.637-1.701-5.854-1.735-5.712-2.051-6.672-1.845-6.15-1.95-6.776-1.502-5.336-2.019-7.16-2.088-7.356-1.992-7.109-2.091-7.74-1.807-6.97-1.531-6.125-1.743-7.18-1.957-8.29-1.823-7.921-1.902-8.474-1.518-6.933-1.551-7.334-1.632-8.083-1.397-7.307-1.028-5.638-1.131-6.447-.815-4.798-.845-5.27-.556-3.999-.456-4.272-.258-3.308-.194-3.49-.104-3.687.037-3.662.161-2.96.41-3.84.471-2.93.841-3.855.887-3.222 1.153-3.501 1.176-3.067 1.683-3.795 1.692-3.32 2.192-3.774 2.146-3.266 2.89-3.9 2.418-2.914 3.219-3.472 3.03-2.882 3.95-3.275 4.28-3.048 4.341-2.645 7.047-3.503 4.09-1.673 4.277-1.531 6.22-1.885 4.327-1.077 6.333-1.236 4.964-.703 6.631-.682 5.584-.423 6.507-.408 5.805-.269 7.207-.144 5.614.084 7.403.385 5.7.47 7.502.782 5.767.734 7.544 1.211 6.166 1.26 6.957 1.737 5.56 1.63 7.126 2.438 5.298 2.111 5.924 2.712 6.427 3.447 10.651 6.883 10.318 7.753 7.436 6.468 4.836 4.958 4.197 4.939 2.477 3.187 5.37 7.518 6.416 10.079 5.344 10.117 4.687 11.23 3.638 10.959 1.77 6.23 1.554 6.346 2.117 12.187.938 12.058-.164 13.055-.905 12.697-.955 8.465-1.104 7.178-1.05 5.486-1.555 6.749-2.702 9.696-4.141 12.728-4.614 13.122-2.49 6.874-2.637 7.129-5.97 15.59-3.56 9.07-3.719 9.451-2.937 7.487-3.73 9.51-3.359 8.573-3.687 9.414-3.463 8.86-3.956 10.148-3.215 8.254-3.998 10.237-3.604 9.188-4.51 11.44-4.383 11.049-4.503 11.305-4.014 10.114-4.648 11.804-4.131 10.537-5.122 13.031-3.998 10.132-4.685 11.854-8.191 20.725-9.451 23.961z" stroke-width="28" stroke="#000" fill="none"/>
  <path d="m333.743 95.72-3.423 8.724-3.012 7.648-3.448 8.753-2.798 7.131-3.419 8.787-2.753 7.135-3.38 8.792-3.582 9.35-3.579 9.367-3.584 9.411-6.344 16.734-3.39 8.987-3.607 9.591-6.155 16.448-6.343 17.062-6.296 17.013-6.235 16.804-5.69 15.225-5.447 14.45-2.591 6.823-2.776 7.259-2.127 5.522-2.14 5.521-3.929 10.066-3.817 9.73-4.089 9.68-2.194 4.673-2.004 3.962-2.81 5.026-2.337 3.69-3.16 4.304-2.828 3.238-4.293 4.046-3.346 2.579-4.077 2.59-2.829 1.48-2.902 1.272-7.792 2.315-5.222.786-5.239.196-4.841-.41-4.923-1.106-4.59-1.787-4.168-2.402-3.491-2.737-3.103-3.095-2.438-2.936-2.462-3.582-1.714-3.081-1.845-4.252-1.137-3.397-1.204-4.608-.676-3.362-.69-4.912-.282-3.861-.032-4.855.262-4.326.621-5.013.739-4.121 1.167-5.134 1.047-3.897 1.724-5.583 1.492-4.331 1.227-3.376 3.877-10.038 4.717-11.114 5.133-11.13 5.47-12.068 4.878-11.855 4.786-12.456 2.19-6.22 2.332-7.445 1.471-5.376 1.67-7.068 1.097-5.469 1.132-6.81.927-7.32.625-6.97.43-7.509.24-7.615.125-6.335.19-7.72.246-5.872.495-7.123.746-6.988.9-6.276.878-4.927 1.275-5.688 1.12-3.996 1.617-4.743 1.912-4.527 2.371-4.549 2.536-4.051 2.985-4.108 3.04-3.704 5.996-6.391 6.827-6.337 3.687-3.054 4.436-3.299 4.423-2.892 4.93-2.824 4.81-2.512 5.17-2.605 5.237-2.673 4.937-2.561 4.307-2.228 4.786-2.44 3.585-1.799 4.158-2.059 3.892-1.949 6.09-3.367 3.072-1.994 2.87-2.188 3.822-3.881 1.588-2.268 1.308-2.466.603-1.475.76-2.534.469-2.604.183-2.679-.098-2.558-.358-2.567-.682-2.85-.84-2.607-1.008-2.507-1.102-2.25-1.016-1.737-1.41-2.041-1.381-1.705-1.871-1.961-1.576-1.41-2.259-1.711-1.746-1.12-2.825-1.513-1.844-.824-2.856-1.056-3.063-.873-3.271-.693-3.028-.464-3.622-.368-3.043-.176-3.857-.068-4.221.123-4.082.294-3.653.413-4.266.656-4.352.853-4.722 1.115-4.85 1.307-5.032 1.494-4.939 1.594-5.145 1.783-5.377 1.962-4.905 1.835-5.863 2.18-5.362 1.947-6.796 2.395-5.384 1.86-4.226 1.44-6.878 2.3-6.967 2.232-5.708 1.716-7.075 1.946-6.225 1.526-7.585 1.614-5.803 1.064-7.592 1.172-6.7.817-6.701.604-7.152.413-7.162.206-6.285.032-7.234-.137-7.797-.358-7.966-.576-6.693-.63-7.78-.898-6.915-.944-8.523-1.333-6.607-1.147-9.247-1.732-6.736-1.303-8.827-1.648-6.727-1.143-8.749-1.303-8.172-1.044-8.107-.865-6.533-.547-7.982-.453-8.398-.177-14.552.564-7.6.806-7.956 1.236-7.394 1.47-7.342 1.674-5.934 1.47-7.715 2.064-5.855 1.716-7.573 2.48-5.715 2.1-7.347 3.033-5.502 2.55-7.062 3.632-5.338 2.972-6.964 4.09-5.35 3.241-6.651 4.091-5.462 3.376-7.212 4.392-5.548 3.253-6.857 3.802-6.034 3.119-7.374 3.507-6.986 3.014-7.463 2.913-6.181 2.202-7.587 2.456-5.866 1.723-7.295 1.941-5.985 1.438-6.97 1.496-6.087 1.144-7.587 1.222-6.154.825-8.156.872" stroke-width="12" stroke="#e73323" fill="none"/>
  <path d="m-298.416 105.54-8.286.53-6.895.321-7.966.245-8.555.098-8.116-.07-8.644-.225-8.575-.356-6.723-.367-6.635-.438-6.723-.516-5.998-.486-5.47-.44-5.456-.472-4.08-.407-5.425-.661-5.39-.84-5.626-1.103-5.127-1.237-5.682-1.656-4.989-1.726-4.9-1.993-4.777-2.284-3.201-1.75-4.791-2.982-5.948-4.28-4.442-3.558-2.56-2.173-2.529-2.22-2.492-2.27-3.168-3.04-3.76-3.897-3.137-3.565-3.374-4.259-2.55-3.613-2.89-4.636-2.315-4.223-1.541-3.1-2.27-5.089-1.291-3.256-1.186-3.31-1.075-3.361-1.48-5.475-1.194-5.563-1.362-8.833-.601-6.09-.31-5.786-.008-6.184.326-5.848.726-6.222.957-5.485 1.422-6.21 1.33-4.741 2.06-6.192 3.32-8.375 2.293-5.096 3.044-6.193 2.533-4.727 3.595-6.133 2.734-4.264 4.148-5.895 3.376-4.382 4.623-5.598 3.581-4.28 4.521-5.75 3.278-4.569 3.85-5.797 4.636-7.445 3.877-6.458 2.908-5.019 3.647-6.685 2.82-5.602 3.142-6.913 2.358-5.756 2.654-7.024 2.531-7.026 2.382-6.576 2.476-6.504 2.122-5.207 2.987-6.674 2.473-4.974 3.51-6.3 3.136-4.971 3.883-5.39 3.4-4.082 4.422-4.563 3.693-3.34 4.605-3.813 4.082-3.175 4.709-3.452 4.792-3.192 4.902-2.844 4.387-2.144 5.126-2.062 3.937-1.338 5.717-1.673 4.488-1.12 6.018-1.264 4.706-.812 6.278-.82 5.273-.411 6.098-.106 4.979.232 6.13.626 5.36.784 3.831.663 12.245 2.569 5.711 1.476 4.92 1.448 6.39 2.124 4.848 1.789 5.915 2.394 5.85 2.606 11.185 5.597 10.882 6.316 9.965 6.667 8.094 6.322 4.177 3.79 3.383 3.527 5.159 6.802 2.391 4.073 1.874 3.952 1.314 3.534 1.145 4.096.718 3.623.533 4.18.214 3.433-.068 4.474-.35 3.356-.852 4.264-1.26 4.109-1.566 4.001-1.836 3.9-1.863 3.323-1.82 2.798-2.667 3.575-2.434 2.865-3.047 3.162-2.477 2.267-3.78 3.03-3.107 2.165-4.326 2.61-4.061 2.106-4.853 2.186-3.87 1.531-5.243 1.766-4.111 1.107-5.149 1.041-4.236.594-5.304.468-5.438.238-6.287.099-4.646.068-5.849.169-5.24.252-6.506.436-5.058.431-6.667.739-5.077.743-6.15 1.171-5.246 1.282-5.796 1.799-5.546 2.176-5.587 2.717-5.248 3.094-4.07 2.79-4.638 3.64-3.318 2.95-4.026 4.056-2.821 3.245-3.14 4.138-2.422 3.724-2.337 4.34-1.81 4.383-1.208 4.112-.67 3.532-.395 4.566.004 3.451.271 3.922 1.351 7.839 1.202 4.106 1.521 3.939 1.485 3.104 1.945 3.403 1.765 2.651 2.234 2.932 2.1 2.424 2.974 3 2.446 2.158 3.197 2.498 5.13 3.44 7.36 4.136 3.88 1.896 4.014 1.76 7.614 2.692L-305 3.99l4.85.666 4.974.526 4.799.442 5.225.41 4.08.246 5.134.2 5.273.081 5.798-.035 4.602-.107 5.513-.217 4.915-.279 6.681-.492 6.553-.56 7.257-.64 7.129-.619 7.9-.688 7.73-.706 8.526-.839 8.313-.882 6.957-.783 9.366-1.123 7.333-.94 8.617-1.2 8.185-1.25 10.735-1.763 7.899-1.36 9.891-1.771 8.165-1.535 10.845-2.144 8.412-1.742 10.497-2.295 9.288-2.158 16.114-4.04 6.075-1.62 10.765-3.002 8.681-2.54 10.56-3.237 8.463-2.726 10.246-3.498 8.18-2.964 10.513-4.045 7.896-3.203 10.177-4.295 8.855-3.837" stroke-width="12" stroke="#4fafdf" fill="none"/>
  <path d="m48.8-61.136 8.637-3.853 7.903-3.612 8.684-4.104 6.184-3.038 7.738-3.962 5.823-3.08 6.926-3.681 4.453-2.317 5.383-2.712 4.738-2.325 4.418-2.158 3.525-1.733 4.54-2.22 3.432-1.624 4.479-1.936 3.427-1.279 4.128-1.282 3.481-.837 3.652-.616 3.859-.356 4.024-.02 3.903.353 6.529 1.427 3.115 1.042 2.836 1.153 3.172 1.51 2.51 1.372 3.168 1.992 2.5 1.797 2.915 2.342 2.52 2.146 5.12 4.245 4.995 3.622 5.752 3.297 3.065 1.282 3.303.995 3.13.562 3.116.188 2.683-.126 3.15-.495 2.804-.788 2.613-1.069 2-1.06 2.486-1.634 1.672-1.314 2.244-2.08 1.614-1.745 1.865-2.333 1.723-2.53 1.678-2.887 1.447-2.88 1.413-3.231 1.26-3.405 1.013-3.37.68-2.864.687-3.923.367-3.134.255-4 .047-3.617-.133-4.262-.25-3.559-.44-4.217-.703-5.2-.783-4.745-1.02-5.18-1.151-5.02-1.417-5.508-1.602-5.726-1.766-5.947-1.778-5.798-1.954-6.388-1.842-6.235-3.586-12.674-1.926-6.808-2.105-7.43-2.11-7.625-1.953-7.35-1.435-5.602-1.876-7.578-1.85-7.717-1.835-7.851-1.927-8.453-1.877-8.453-1.385-6.417-1.61-7.745-1.57-7.958-1.334-7.144-.976-5.457-1.07-6.192-.756-4.555-.753-4.945-.467-3.737-.383-4.129-.206-3.043-.16-3.477-.056-3.676.113-3.882.209-2.724.49-3.832.588-3.16.946-3.878.9-3.011 1.24-3.52 1.255-3.076 1.903-4.034 1.662-3.078 2.449-3.994 2.084-3.012 3-3.868 2.498-2.88 3.534-3.614 2.214-2.016 4.007-3.235 4.34-3.006 4.68-2.755 2.904-1.49 8.398-3.548 5.36-1.814 4.911-1.401 5.842-1.346 4.886-.862 6.539-.831 5.107-.474 6.82-.487 5.73-.332 6.682-.26 5.974-.063 7.367.204 5.671.36 7.471.674 5.748.637 7.548 1.037 6.202 1.086 7.02 1.54 5.626 1.48 7.228 2.233 5.404 1.946 6.457 2.69 6.213 3.035 6.3 3.602 4.628 2.971 5.848 4.093 4.343 3.239 5.825 4.638 6.377 5.775 4.742 5.032 8.68 11.138 3.846 5.618 2.804 4.357 3.425 5.806 2.231 4.177 2.887 6.03 1.987 4.694 2.352 6.267 1.766 5.28 1.757 5.771 1.695 6.278 1.536 6.789.943 5.275.868 6.578.458 5.4.249 7.12-.058 5.892-.322 7.184-.381 5.5-.529 5.932-.417 3.807-.792 5.92-1.148 6.752-1.136 5.485-2.474 9.698-2.014 6.75-1.92 5.93-2.478 7.27-1.99 5.665-2.567 7.17-2.548 6.979-2.885 7.725-2.486 6.505-3.643 9.355-3.628 9.223-3.551 9.036-3.209 8.18-3.78 9.646-3.16 8.061-3.95 10.095-3.216 8.237-3.956 10.155-3.218 8.257-4.3 10.993-3.654 9.292-4.298 10.879-4.431 11.143-4.828 12.13-4.04 10.216-4.68 11.918-4.17 10.63-4.863 12.352-4.026 10.192-4.705 11.903-3.15 7.971-5.049 12.779-4.408 11.178-5.351 13.579-4.09 10.382" stroke-width="12" stroke="#f7d347" fill="none"/>
</svg>
