<?xml version="1.0" standalone="no"?>
<svg xmlns:xlink="http://www.w3.org/1999/xlink" id="s2" class="track" xmlns="http://www.w3.org/2000/svg" width="800" height="400" viewBox="-1000 -1000 2000 2000">
        <path d="M 261.1706 -420.8471 L 263.0436 -421.3289 L 264.4612 -421.6673 L 266.3676 -422.0898 L 267.8101 -422.3869 L 269.2617 -422.6678 L 271.2128 -423.0191 L 272.6882 -423.266 L 274.1717 -423.4982 L 275.6642 -423.7159 L 277.1667 -423.9197 L 279.1821 -424.1716 L 280.7028 -424.3463 L 282.2321 -424.5098 L 283.7675 -424.6622 L 285.3102 -424.8034 L 286.8614 -424.934 L 288.4206 -425.0545 L 289.9818 -425.1638 L 292.0807 -425.2906 L 293.6619 -425.3687 L 295.2517 -425.4338 L 296.8503 -425.4873 L 298.4551 -425.531 L 300.6057 -425.5754 L 302.2238 -425.5989 L 303.8513 -425.6155 L 306.0247 -425.6264 L 307.6627 -425.6255 L 309.3062 -425.6157 L 311.5022 -425.5875 L 313.1528 -425.5543 L 314.8127 -425.5115 L 316.4688 -425.459 L 318.1351 -425.3963 L 319.8043 -425.3233 L 322.0358 -425.208 L 323.7141 -425.1078 L 325.9569 -424.9543 L 327.6426 -424.8244 L 329.3337 -424.6822 L 331.5927 -424.4737 L 333.293 -424.3026 L 334.9933 -424.1193 L 337.2684 -423.8549 L 338.9819 -423.6415 L 341.2613 -423.3391 L 342.9774 -423.0977 L 344.6943 -422.8447 L 346.4128 -422.5798 L 348.7072 -422.208 L 350.427 -421.9151 L 352.7195 -421.5049 L 354.4412 -421.1807 L 356.1529 -420.8436 L 358.435 -420.3692 L 360.1369 -419.9955 L 361.8347 -419.6046 L 363.5255 -419.1964 L 365.7664 -418.6244 L 367.4373 -418.1732 L 369.0968 -417.703 L 370.7473 -417.2122 L 372.3859 -416.7015 L 374.0158 -416.1696 L 375.6357 -415.6165 L 377.7734 -414.8476 L 379.3649 -414.2452 L 380.9436 -413.6216 L 383.0272 -412.7578 L 384.5773 -412.0837 L 386.1107 -411.3897 L 387.6306 -410.6747 L 389.137 -409.939 L 391.1243 -408.9265 L 392.598 -408.1452 L 394.0594 -407.3448 L 395.5072 -406.527 L 396.9444 -405.6911 L 398.8362 -404.5541 L 400.2428 -403.6819 L 402.0992 -402.4951 L 403.4785 -401.5865 L 405.2961 -400.3533 L 406.643 -399.4124 L 407.9801 -398.455 L 409.741 -397.1569 L 411.0475 -396.1655 L 412.7644 -394.8245 L 414.0376 -393.8002 L 415.7149 -392.4102 L 416.9552 -391.3516 L 418.5893 -389.9165 L 419.802 -388.821 L 421.3951 -387.3413 L 422.5764 -386.2133 L 423.7426 -385.0732 L 425.2785 -383.5285 L 426.4128 -382.3544 L 427.5311 -381.1675 L 429.0027 -379.5587 L 430.0838 -378.3406 L 431.1512 -377.1054 L 432.1995 -375.8588 L 433.232 -374.5963 L 434.2467 -373.3202 L 435.5711 -371.5995 L 436.5453 -370.2921 L 437.5012 -368.9734 L 438.4399 -367.6427 L 439.6653 -365.8504 L 440.5667 -364.4903 L 441.4497 -363.1221 L 442.317 -361.7431 L 443.1689 -360.3524 L 444.0038 -358.954 L 445.0936 -357.073 L 445.893 -355.6522 L 446.6772 -354.2233 L 447.4476 -352.7855 L 448.2046 -351.3388 L 449.1899 -349.4043 L 449.915 -347.942 L 450.8589 -345.9852 L 451.5505 -344.5096 L 452.2279 -343.027 L 452.8899 -341.5392 L 453.5377 -340.0442 L 454.3784 -338.0434 L 454.9923 -336.536 L 455.5917 -335.0227 L 456.1761 -333.5031 L 456.7437 -331.9802 L 457.2952 -330.4529 L 457.832 -328.9186 L 458.5228 -326.8678 L 459.0222 -325.324 L 459.5146 -323.7452 L 460.1216 -321.7097 L 460.5646 -320.1534 L 460.9903 -318.5934 L 461.5307 -316.5081 L 461.9158 -314.9439 L 462.2857 -313.372 L 462.751 -311.2794 L 463.079 -309.7066 L 463.3884 -308.1304 L 463.7708 -306.031 L 464.0365 -304.4504 L 464.283 -302.8726 L 464.5838 -300.7617 L 464.7878 -299.1783 L 464.9731 -297.5967 L 465.1924 -295.4796 L 465.3352 -293.8933 L 465.46 -292.3029 L 465.5663 -290.7116 L 465.6545 -289.1213 L 465.7253 -287.5295 L 465.7924 -285.407 L 465.8226 -283.8132 L 465.8364 -281.6921 L 465.8272 -280.1013 L 465.8014 -278.5081 L 465.7415 -276.3878 L 465.6775 -274.7975 L 465.567 -272.6793 L 465.4653 -271.0909 L 465.3051 -268.9769 L 465.1673 -267.3936 L 465.0145 -265.8092 L 464.848 -264.2302 L 464.6674 -262.6497 L 464.4058 -260.5472 L 464.1942 -258.973 L 463.9698 -257.3988 L 463.7337 -255.8302 L 463.4007 -253.7391 L 463.1386 -252.1732 L 462.7743 -250.0885 L 462.4912 -248.5265 L 462.2013 -246.9667 L 461.9049 -245.4066 L 461.502 -243.3316 L 461.1937 -241.7761 L 460.8801 -240.2213 L 460.5615 -238.6696 L 460.1278 -236.6041 L 459.7955 -235.0587 L 459.4564 -233.5155 L 459.11 -231.9758 L 458.7552 -230.4375 L 458.3913 -228.9027 L 458.018 -227.3743 L 457.6333 -225.848 L 457.2376 -224.3273 L 456.6924 -222.3067 L 456.2705 -220.7956 L 455.8382 -219.2914 L 455.394 -217.7902 L 454.7854 -215.7984 L 454.3167 -214.3092 L 453.6782 -212.3325 L 453.1897 -210.855 L 452.6952 -209.3833 L 452.0284 -207.4267 L 451.5247 -205.9622 L 450.8509 -204.0154 L 450.3456 -202.558 L 449.8412 -201.1044 L 449.3375 -199.6537 L 448.8348 -198.2039 L 448.1679 -196.2777 L 447.6686 -194.8334 L 447.0055 -192.9147 L 446.5089 -191.479 L 446.0107 -190.0447 L 445.346 -188.1404 L 444.8443 -186.7136 L 444.3393 -185.2881 L 443.8318 -183.8664 L 443.1495 -181.9747 L 442.7953 -181.0017 L 442.1175 -179.1577 L 441.5957 -177.755 L 440.894 -175.8911 L 440.3654 -174.5043 L 439.8319 -173.1193 L 439.295 -171.7399 L 438.7545 -170.3649 L 438.2101 -168.9927 L 437.4792 -167.1691 L 436.9307 -165.8108 L 436.1951 -164.0008 L 435.6443 -162.6506 L 435.0911 -161.2974 L 434.3568 -159.5053 L 433.8058 -158.1608 L 433.2565 -156.82 L 432.7086 -155.4793 L 431.9801 -153.6927 L 431.4367 -152.354 L 430.7152 -150.5686 L 430.1779 -149.2322 L 429.4643 -147.4477 L 428.9321 -146.1096 L 428.4026 -144.7719 L 427.8747 -143.4348 L 427.3486 -142.0999 L 426.8221 -140.7617 L 426.1223 -138.9842 L 425.5965 -137.6482 L 425.0721 -136.3152 L 424.547 -134.9829 L 423.8454 -133.2063 L 423.3189 -131.876 L 422.7906 -130.544 L 422.085 -128.7713 L 421.5533 -127.4388 L 420.8433 -125.6659 L 420.3082 -124.3328 L 419.772 -123.0014 L 419.234 -121.6682 L 418.5162 -119.8913 L 417.9755 -118.5553 L 417.436 -117.2222 L 416.8954 -115.8868 L 416.1738 -114.1048 L 415.6318 -112.765 L 415.0912 -111.4261 L 414.5502 -110.0854 L 414.0067 -108.7362 L 413.29 -106.9542 L 412.7504 -105.6082 L 412.2123 -104.2633 L 411.6756 -102.9175 L 410.9602 -101.1171 L 410.4257 -99.7666 L 409.8926 -98.4141 L 409.3614 -97.0605 L 408.6548 -95.2524 L 408.1265 -93.8932 L 407.4258 -92.083 L 406.9009 -90.721 L 406.3774 -89.3595 L 405.8535 -87.9937 L 405.1572 -86.1742 L 404.6348 -84.8068 L 403.9392 -82.987 L 403.4157 -81.6185 L 402.8908 -80.2469 L 402.1921 -78.4232 L 401.666 -77.0531 L 401.1385 -75.6828 L 400.6097 -74.3129 L 399.9021 -72.4835 L 399.3699 -71.1124 L 398.8358 -69.7398 L 398.2996 -68.3628 L 397.763 -66.987 L 397.0456 -65.1471 L 396.507 -63.7664 L 395.9665 -62.3814 L 395.2453 -60.5321 L 394.7038 -59.1433 L 394.1607 -57.7504 L 393.6172 -56.3556 L 393.0622 -54.932 L 392.3443 -53.0906 L 391.7966 -51.6862 L 391.0642 -49.8078 L 390.5132 -48.3964 L 389.9602 -46.9804 L 389.4046 -45.5589 L 388.6619 -43.6612 L 388.1028 -42.2337 L 387.5413 -40.8025 L 386.7894 -38.8897 L 386.2231 -37.452 L 385.6543 -36.0105 L 384.892 -34.084 L 384.3188 -32.6375 L 383.7427 -31.1852 L 383.1648 -29.7302 L 382.3917 -27.7861 L 381.8095 -26.323 L 381.2265 -24.859 L 380.4466 -22.9013 L 379.8587 -21.4254 L 379.2713 -19.9509 L 378.4867 -17.9802 L 377.8956 -16.4965 L 377.1056 -14.5127 L 376.5122 -13.0231 L 375.9169 -11.5293 L 375.3202 -10.0329 L 374.7224 -8.5341 L 373.9225 -6.529 L 373.3212 -5.0232 L 372.5163 -3.0094 L 371.9118 -1.4975 L 371.3049 .0194 L 370.6954 1.5413 L 370.0863 3.0613 L 369.4734 4.5898 L 368.6599 6.6191 L 368.0457 8.1516 L 367.4319 9.6842 L 366.6121 11.734 L 365.9973 13.2721 L 365.3816 14.8161 L 364.7659 16.363 L 363.9471 18.4259 L 363.3323 19.9783 L 362.7171 21.5344 L 362.1026 23.0922 L 361.4874 24.6555 L 360.8746 26.2164 L 360.2608 27.782 L 359.4424 29.8737 L 358.8297 31.4425 L 358.0103 33.5429 L 357.3961 35.1184 L 356.7798 36.6996 L 356.1651 38.279 L 355.3435 40.3889 L 354.7263 41.9737 L 354.108 43.5607 L 353.2818 45.6816 L 352.6609 47.274 L 352.0399 48.8661 L 351.2098 50.9938 L 350.5862 52.5913 L 349.9627 54.189 L 349.1287 56.3253 L 348.5029 57.9269 L 347.8737 59.536 L 347.0378 61.6747 L 346.4081 63.2851 L 345.5697 65.4287 L 344.9388 67.041 L 344.3075 68.6554 L 343.674 70.2753 L 342.8341 72.4223 L 342.2013 74.0401 L 341.569 75.6589 L 340.9367 77.2786 L 340.3034 78.9008 L 339.4601 81.0613 L 338.8268 82.685 L 337.9821 84.8511 L 337.3477 86.4789 L 336.502 88.6498 L 335.8663 90.2813 L 335.2305 91.9111 L 334.3815 94.0858 L 333.7429 95.7193 L 332.8905 97.8969 L 332.2491 99.5333 L 331.6076 101.168 L 330.965 102.8045 L 330.3205 104.444 L 329.6702 106.0975 L 328.8163 108.266 L 328.1707 109.9042 L 327.3084 112.0922 L 326.662 113.7322 L 326.0158 115.3726 L 325.3674 117.0181 L 324.507 119.203 L 323.8603 120.8451 L 323.2119 122.4935 L 322.5649 124.1411 L 321.707 126.3282 L 321.0619 127.9761 L 320.4198 129.6197 L 319.778 131.2662 L 318.9236 133.4625 L 318.2835 135.1111 L 317.6433 136.7632 L 316.7957 138.9551 L 316.16 140.6021 L 315.5246 142.2498 L 314.8896 143.8982 L 314.2553 145.5464 L 313.6214 147.1954 L 312.9833 148.8553 L 312.142 151.0453 L 311.5107 152.6903 L 310.6669 154.8901 L 310.0366 156.5339 L 309.1948 158.7314 L 308.5615 160.3844 L 307.9277 162.0403 L 307.0878 164.236 L 306.456 165.8887 L 305.8237 167.5437 L 304.9814 169.7495 L 304.3491 171.4065 L 303.7172 173.064 L 302.8735 175.278 L 302.2411 176.939 L 301.3974 179.1556 L 300.7651 180.8185 L 299.9203 183.0405 L 299.2866 184.7094 L 298.6534 186.3773 L 297.8067 188.6091 L 297.1724 190.2818 L 296.5381 191.9563 L 295.9029 193.6334 L 295.2674 195.3129 L 294.4212 197.5518 L 293.7859 199.2338 L 292.9378 201.4796 L 292.3025 203.1634 L 291.6658 204.8514 L 291.0301 206.5393 L 290.3936 208.229 L 289.5451 210.4837 L 288.9084 212.1771 L 288.2711 213.8724 L 287.4238 216.13 L 286.7866 217.8273 L 286.1494 219.5272 L 285.5127 221.2257 L 284.8755 222.926 L 284.2368 224.6322 L 283.3901 226.8979 L 282.7534 228.6027 L 281.9052 230.8744 L 281.2693 232.5785 L 280.6335 234.2844 L 279.7859 236.5596 L 279.1511 238.2652 L 278.5164 239.9717 L 277.8812 241.6797 L 277.2362 243.4161 L 276.403 245.6597 L 275.7697 247.3662 L 274.9264 249.6399 L 274.2951 251.3435 L 273.6637 253.0482 L 272.8229 255.3182 L 272.1936 257.0181 L 271.5628 258.7227 L 270.7234 260.9917 L 270.0963 262.688 L 269.258 264.9552 L 268.6295 266.6528 L 267.7926 268.9153 L 267.1657 270.6082 L 266.5382 272.3026 L 265.9107 273.9954 L 265.0777 276.2409 L 264.4538 277.9214 L 263.8322 279.5943 L 263.009 281.808 L 262.3951 283.4569 L 261.5834 285.6355 L 260.9792 287.2554 L 260.3799 288.8611 L 259.7859 290.4511 L 259.1966 292.0276 L 258.6117 293.591 L 257.8423 295.6455 L 257.2701 297.1725 L 256.7041 298.6815 L 256.1425 300.1778 L 255.4007 302.1521 L 254.8499 303.6168 L 254.3013 305.074 L 253.7569 306.519 L 253.035 308.4329 L 252.4985 309.8535 L 251.7876 311.734 L 251.2581 313.1329 L 250.733 314.5184 L 250.2101 315.8968 L 249.6909 317.2635 L 249.1767 318.6158 L 248.6667 319.955 L 247.9953 321.7159 L 247.4987 323.0159 L 246.8465 324.721 L 246.3656 325.9763 L 245.8909 327.2137 L 245.2685 328.8332 L 244.8091 330.0267 L 244.3552 331.2045 L 243.7638 332.7365 L 243.3253 333.8708 L 242.893 334.9874 L 242.4659 336.0894 L 242.0427 337.1798 L 241.624 338.2574 L 241.2084 339.3259 L 240.6592 340.7356 L 240.2501 341.7842 L 239.8427 342.8278 L 239.3024 344.2106 L 238.8983 345.2444 L 238.496 346.2738 L 238.0952 347.2997 L 237.6954 348.3234 L 237.1653 349.6815 L 236.7687 350.6971 L 236.3727 351.7108 L 235.9783 352.7199 L 235.5844 353.7266 L 235.1901 354.7318 L 234.6664 356.0636 L 234.2729 357.0596 L 233.878 358.053 L 233.3498 359.3697 L 232.9512 360.3524 L 232.4156 361.6562 L 232.01 362.6298 L 231.4651 363.9177 L 231.0518 364.8789 L 230.6353 365.8341 L 230.2145 366.7851 L 229.7891 367.7325 L 229.3597 368.6746 L 228.9258 369.6131 L 228.4871 370.5479 L 228.0438 371.4785 L 227.5954 372.4057 L 226.9894 373.6356 L 226.5296 374.5504 L 226.0637 375.4615 L 225.5915 376.368 L 224.9518 377.5686 L 224.4642 378.4616 L 223.8018 379.644 L 223.2961 380.5222 L 222.7815 381.3939 L 222.258 382.2587 L 221.5456 383.3998 L 221.0001 384.2464 L 220.444 385.0849 L 219.8768 385.915 L 219.299 386.7344 L 218.5101 387.8103 L 217.9035 388.6048 L 217.2834 389.3882 L 216.4399 390.4093 L 215.7906 391.1623 L 215.1296 391.9007 L 214.456 392.6256 L 213.5386 393.5703 L 212.8363 394.2622 L 211.8814 395.162 L 211.1518 395.8194 L 210.1626 396.6716 L 209.4069 397.2939 L 208.3839 398.0985 L 207.6061 398.6823 L 206.8175 399.2508 L 206.02 399.8026 L 205.213 400.338 L 204.3973 400.8563 L 203.573 401.3572 L 202.74 401.8408 L 201.6182 402.4571 L 200.7675 402.8986 L 199.9111 403.321 L 198.7574 403.8557 L 197.886 404.2338 L 197.0094 404.5927 L 195.8307 405.0417 L 194.9426 405.3552 L 193.7502 405.7436 L 192.8504 406.0129 L 191.646 406.3426 L 191.0413 406.4955 L 190.1286 406.7108 L 189.2168 406.9075 L 187.9946 407.1431 L 187.074 407.2997 L 186.1526 407.4388 L 184.9209 407.5968 L 183.9949 407.6944 L 183.0696 407.7736 L 181.8343 407.8502 L 180.9087 407.8852 L 179.6777 407.9014 L 178.7562 407.8903 L 177.534 407.8438 L 176.6208 407.7848 L 175.7122 407.7048 L 174.8107 407.6037 L 173.9146 407.4809 L 172.7324 407.2835 L 171.8542 407.1099 L 170.6963 406.8445 L 169.8393 406.6202 L 168.9919 406.3742 L 168.1542 406.1068 L 167.056 405.7179 L 166.2442 405.4016 L 165.4456 405.0656 L 164.4015 404.5874 L 163.6331 404.2058 L 162.6297 403.6678 L 161.8944 403.2433 L 160.9357 402.6494 L 160.2344 402.1845 L 159.5476 401.7029 L 158.8753 401.2056 L 158.0037 400.5211 L 157.3661 399.9909 L 156.7428 399.4476 L 156.1337 398.892 L 155.3411 398.1316 L 154.7626 397.5497 L 154.1949 396.9558 L 153.6398 396.3526 L 153.0964 395.7402 L 152.3897 394.9089 L 151.873 394.2751 L 151.2022 393.4172 L 150.7129 392.7637 L 150.0799 391.8795 L 149.6198 391.2064 L 149.1734 390.5255 L 148.7402 389.8354 L 148.3215 389.1383 L 147.7844 388.1954 L 147.3981 387.4788 L 147.0259 386.7537 L 146.6676 386.0199 L 146.2126 385.0319 L 145.8874 384.2815 L 145.475 383.2701 L 145.1806 382.5025 L 144.899 381.7289 L 144.6294 380.9492 L 144.2876 379.8992 L 144.0438 379.1048 L 143.7342 378.0365 L 143.513 377.2281 L 143.301 376.4151 L 143.0316 375.3213 L 142.8404 374.4965 L 142.6577 373.6647 L 142.4838 372.8268 L 142.3194 371.9839 L 142.1642 371.1349 L 141.9724 369.9944 L 141.84 369.1327 L 141.7178 368.2661 L 141.5715 367.1013 L 141.4749 366.2233 L 141.3897 365.3402 L 141.3162 364.4518 L 141.2371 363.2612 L 141.192 362.362 L 141.1594 361.461 L 141.1351 360.2518 L 141.1313 359.3398 L 141.1397 358.4259 L 141.1604 357.5075 L 141.1936 356.5857 L 141.2571 355.3524 L 141.3193 354.4235 L 141.4215 353.1809 L 141.5123 352.2464 L 141.6154 351.3081 L 141.7301 350.3694 L 141.9014 349.1128 L 142.0431 348.1683 L 142.1961 347.2204 L 142.4165 345.9543 L 142.594 345.002 L 142.7819 344.0468 L 142.9799 343.0898 L 143.1878 342.1299 L 143.4052 341.1682 L 143.6325 340.2026 L 143.9494 338.9134 L 144.1979 337.9425 L 144.4552 336.9695 L 144.7212 335.9947 L 144.9965 335.0159 L 145.2798 334.0369 L 145.5722 333.0549 L 145.9759 331.742 L 146.2892 330.7534 L 146.7197 329.4329 L 147.0521 328.4389 L 147.3921 327.4414 L 147.8559 326.1081 L 148.212 325.102 L 148.6952 323.7575 L 149.0641 322.7444 L 149.4388 321.7258 L 149.9466 320.3604 L 150.3316 319.3362 L 150.854 317.9611 L 151.252 316.9247 L 151.655 315.8842 L 152.0625 314.8412 L 152.4754 313.7939 L 152.8931 312.743 L 153.3164 311.688 L 153.753 310.6105 L 154.326 309.2116 L 154.7684 308.1439 L 155.3676 306.7148 L 155.8244 305.6376 L 156.4415 304.1996 L 156.9124 303.1152 L 157.5489 301.6651 L 158.0331 300.5736 L 158.6883 299.1117 L 159.1858 298.0125 L 159.69 296.9072 L 160.1988 295.8005 L 160.8866 294.3164 L 161.4072 293.1993 L 162.1065 291.7044 L 162.6357 290.5756 L 163.1664 289.4438 L 163.6997 288.3045 L 164.4113 286.7785 L 164.9452 285.6264 L 165.6573 284.0773 L 166.1871 282.9135 L 166.8929 281.3459 L 167.4196 280.1618 L 167.9426 278.9728 L 168.6357 277.3761 L 169.1517 276.1712 L 169.6653 274.9585 L 170.1749 273.7422 L 170.6825 272.5187 L 171.3544 270.8831 L 171.8563 269.6505 L 172.5219 268.0029 L 173.0185 266.7643 L 173.514 265.5214 L 174.17 263.865 L 174.6605 262.6187 L 175.1478 261.3724 L 175.632 260.1263 L 176.2722 258.4647 L 176.7481 257.2171 L 177.3754 255.5559 L 177.8405 254.3095 L 178.2997 253.0647 L 178.7528 251.8205 L 179.1995 250.5754 L 179.6376 249.333 L 180.0681 248.0891 L 180.4902 246.8447 L 181.0376 245.19 L 181.4388 243.9455 L 181.9565 242.2934 L 182.3342 241.0523 L 182.8222 239.3999 L 183.1773 238.1594 L 183.6363 236.5051 L 183.969 235.2657 L 184.2931 234.0237 L 184.6084 232.7797 L 184.914 231.5379 L 185.3152 229.8486 L 185.5952 228.6261 L 185.9637 226.9557 L 186.2304 225.6995 L 186.5734 224.0182 L 186.821 222.7534 L 187.0599 221.4871 L 187.2906 220.217 L 187.5129 218.9444 L 187.7962 217.2419 L 187.9983 215.9629 L 188.192 214.6765 L 188.4353 212.9641 L 188.608 211.6721 L 188.7716 210.3804 L 188.9263 209.0868 L 189.1194 207.3571 L 189.2542 206.0563 L 189.3806 204.7526 L 189.5364 203.0103 L 189.6439 201.6993 L 189.7435 200.3866 L 189.8358 199.0688 L 189.9474 197.3096 L 190.0231 195.9835 L 190.0919 194.6564 L 190.1738 192.8784 L 190.2278 191.5439 L 190.2763 190.2042 L 190.3329 188.4118 L 190.37 187.0654 L 190.4137 185.2634 L 190.4429 183.9101 L 190.4789 182.1013 L 190.5046 180.7425 L 190.5392 178.9276 L 190.5662 177.5662 L 190.6053 175.7486 L 190.638 174.3858 L 190.6742 173.0201 L 190.729 171.2073 L 190.7757 169.8462 L 190.8465 168.0404 L 190.9072 166.6865 L 190.9748 165.336 L 191.0766 163.5449 L 191.1623 162.2038 L 191.2562 160.8694 L 191.3588 159.5374 L 191.4701 158.2133 L 191.5907 156.89 L 191.72 155.5764 L 191.859 154.2614 L 192.0572 152.5239 L 192.2162 151.2251 L 192.3835 149.933 L 192.558 148.6556 L 192.7388 147.3957 L 192.9249 146.1584 L 193.1154 144.9486 L 193.3107 143.7652 L 193.5103 142.6105 L 193.7835 141.1136 L 193.9939 140.0218 L 194.2799 138.6129 L 194.4996 137.5864 L 194.7238 136.5856 L 194.9568 135.593 L 195.2687 134.3339 L 195.5133 133.3969 L 195.7657 132.471 L 196.1156 131.2485 L 196.3886 130.3384 L 196.6708 129.4346 L 196.9622 128.5378 L 197.2635 127.6467 L 197.5751 126.7618 L 198.0055 125.5954 L 198.3404 124.7295 L 198.6866 123.87 L 199.1644 122.7379 L 199.5357 121.898 L 199.9176 121.0676 L 200.4446 119.9724 L 200.8519 119.1621 L 201.4131 118.0931 L 201.8467 117.3008 L 202.2892 116.5193 L 202.7429 115.744 L 203.2069 114.9762 L 203.8405 113.9647 L 204.3275 113.214 L 204.8254 112.4679 L 205.3338 111.7266 L 206.0203 110.7551 L 206.5478 110.0296 L 207.2629 109.0724 L 207.8096 108.3599 L 208.5509 107.4183 L 209.1156 106.7189 L 209.686 106.0271 L 210.2649 105.3388 L 210.8504 104.6561 L 211.4436 103.977 L 212.244 103.0796 L 212.8518 102.4115 L 213.4659 101.7474 L 214.0863 101.0872 L 214.7132 100.4302 L 215.5587 99.5595 L 216.1987 98.9115 L 216.8463 98.2648 L 217.4993 97.6215 L 218.1595 96.9797 L 219.0482 96.1288 L 219.7224 95.4928 L 220.4034 94.8587 L 221.3222 94.0159 L 222.0198 93.3859 L 222.7239 92.7589 L 223.6731 91.9282 L 224.3942 91.3088 L 225.1235 90.6928 L 225.8607 90.0816 L 226.6059 89.4752 L 227.3599 88.8737 L 228.3788 88.0798 L 229.1524 87.4916 L 229.936 86.9085 L 230.9927 86.1421 L 231.7956 85.575 L 232.6076 85.0148 L 233.7023 84.2809 L 234.5338 83.7394 L 235.3729 83.2067 L 236.2189 82.683 L 237.3597 81.9968 L 238.2229 81.492 L 239.3844 80.8306 L 240.2637 80.3418 L 241.1487 79.8589 L 242.3345 79.2236 L 243.2304 78.7515 L 244.1294 78.2837 L 245.3416 77.6609 L 245.9591 77.3466 L 247.1556 76.7415 L 248.0681 76.2821 L 248.9846 75.8214 L 249.9036 75.3593 L 251.1299 74.7416 L 252.0522 74.2755 L 253.282 73.6511 L 254.2057 73.1796 L 255.1314 72.7051 L 256.3657 72.0692 L 257.291 71.5908 L 258.2177 71.1105 L 259.1435 70.6298 L 260.3789 69.9881 L 261.3027 69.508 L 262.228 69.0277 L 263.4609 68.3891 L 264.3855 67.9112 L 265.61 67.2803 L 266.5276 66.8092 L 267.7397 66.189 L 268.6389 65.7307 L 269.5253 65.2805 L 270.3965 64.8395 L 271.2528 64.4076 L 272.366 63.8484 L 273.1811 63.4405 L 273.981 63.0414 L 275.007 62.5312 L 275.7615 62.1573 L 276.4975 61.7934 L 277.4478 61.3241 L 278.1393 60.9824 L 279.036 60.5385 L 279.6949 60.2111 L 280.5554 59.7811 L 281.1919 59.4606 L 282.0311 59.0333 L 282.6539 58.7122 L 283.4822 58.279 L 284.099 57.9511 L 284.9163 57.5091 L 285.5255 57.1731 L 286.1321 56.8324 L 286.7336 56.4881 L 287.3312 56.1389 L 288.1206 55.6659 L 288.7086 55.3041 L 289.2908 54.9374 L 290.0596 54.4392 L 290.6295 54.0586 L 291.1929 53.672 L 291.7494 53.2786 L 292.299 52.8776 L 293.0177 52.3313 L 293.5469 51.9112 L 294.0637 51.4842 L 294.5708 51.0477 L 295.2273 50.454 L 295.7017 50.0023 L 296.1587 49.547 L 296.5962 49.0909 L 297.0104 48.6383 L 297.5256 48.0428 L 297.8851 47.6028 L 298.3273 47.0301 L 298.6351 46.6073 L 298.9266 46.1863 L 299.2057 45.7627 L 299.4734 45.3354 L 299.8129 44.7616 L 300.0546 44.3278 L 300.2852 43.8925 L 300.5757 43.3086 L 300.7805 42.8689 L 300.9741 42.4278 L 301.1569 41.9853 L 301.3835 41.3943 L 301.5411 40.9501 L 301.7353 40.356 L 301.8692 39.9086 L 301.9931 39.4609 L 302.1442 38.8604 L 302.2471 38.4071 L 302.3709 37.7981 L 302.4537 37.3387 L 302.5278 36.8761 L 302.6129 36.2559 L 302.6666 35.7878 L 302.7112 35.3172 L 302.7564 34.687 L 302.7798 34.2122 L 302.7965 33.5771 L 302.7982 33.0992 L 302.7905 32.62 L 302.7736 32.1404 L 302.7368 31.4999 L 302.6983 31.0185 L 302.6506 30.537 L 302.5939 30.0554 L 302.5042 29.413 L 302.4263 28.9322 L 302.3396 28.4517 L 302.2108 27.8121 L 302.1051 27.3355 L 301.9525 26.7013 L 301.8304 26.2288 L 301.6579 25.6021 L 301.5219 25.135 L 301.3323 24.5168 L 301.1839 24.0563 L 300.9781 23.4478 L 300.8175 22.9949 L 300.6516 22.5442 L 300.423 21.9499 L 300.2453 21.5073 L 300.0623 21.068 L 299.8103 20.4883 L 299.6151 20.0575 L 299.415 19.6311 L 299.2093 19.2082 L 298.9264 18.6506 L 298.7078 18.2381 L 298.483 17.8299 L 298.2518 17.4253 L 297.9359 16.895 L 297.6919 16.5014 L 297.4414 16.1112 L 297.1842 15.7236 L 296.8325 15.214 L 296.5609 14.8353 L 296.2827 14.4597 L 295.902 13.9645 L 295.6086 13.5968 L 295.3096 13.2337 L 294.9005 12.755 L 294.5858 12.4001 L 294.1565 11.933 L 293.826 11.5863 L 293.4893 11.2441 L 293.0299 10.794 L 292.6771 10.461 L 292.317 10.1318 L 291.8284 9.7018 L 291.4543 9.3849 L 291.0727 9.072 L 290.5533 8.6624 L 290.1545 8.3599 L 289.7487 8.0622 L 289.1953 7.6726 L 288.7706 7.3855 L 288.3389 7.1036 L 287.8976 6.8256 L 287.449 6.5527 L 286.8416 6.1988 L 286.3791 5.9408 L 285.7504 5.6044 L 285.2726 5.3592 L 284.6238 5.0402 L 284.296 4.8848 L 283.7973 4.6559 L 283.2919 4.4327 L 282.7803 4.2158 L 282.2605 4.0043 L 281.7338 3.7991 L 281.0199 3.535 L 280.4756 3.3443 L 279.9237 3.1601 L 279.3657 2.9827 L 278.61 2.7561 L 278.0345 2.5937 L 277.4502 2.4372 L 276.8606 2.2875 L 276.2642 2.1442 L 275.6589 2.0069 L 275.0461 1.8756 L 274.2191 1.7107 L 273.5899 1.594 L 272.9533 1.4834 L 272.0941 1.3454 L 271.4416 1.2489 L 270.5618 1.1298 L 269.8942 1.0475 L 269.2207 .9714 L 268.5429 .9016 L 267.6299 .8179 L 266.9403 .7621 L 266.2458 .712 L 265.3119 .654 L 264.6063 .617 L 263.8969 .5857 L 263.1822 .5602 L 262.4644 .5404 L 261.7412 .5265 L 261.0155 .5188 L 260.0398 .5182 L 259.3041 .5251 L 258.5648 .5385 L 257.5721 .5661 L 256.823 .5942 L 255.819 .6407 L 255.0611 .6825 L 254.3014 .73 L 253.2807 .8032 L 252.5103 .8657 L 251.7369 .9348 L 250.7012 1.0375 L 249.9196 1.1226 L 248.8709 1.2471 L 248.0836 1.3482 L 247.2905 1.4565 L 246.2285 1.6114 L 245.4285 1.7354 L 244.6248 1.8663 L 243.8185 2.004 L 243.0095 2.1485 L 242.1949 2.3006 L 241.1085 2.5137 L 240.2891 2.6821 L 239.4665 2.8574 L 238.3658 3.1014 L 237.5355 3.2922 L 236.7023 3.489 L 235.5854 3.7613 L 234.7441 3.9724 L 233.616 4.2635 L 232.7649 4.4887 L 231.9083 4.7197 L 230.7618 5.0354 L 229.8949 5.2788 L 229.021 5.5284 L 227.8482 5.8699 L 226.9604 6.1334 L 226.0648 6.4035 L 224.8618 6.7729 L 223.9505 7.0577 L 223.0339 7.3484 L 222.1083 7.6462 L 220.8651 8.0532 L 219.9234 8.3666 L 218.9755 8.6864 L 217.6992 9.1238 L 216.733 9.4598 L 215.7588 9.802 L 214.778 10.1503 L 213.7877 10.5053 L 212.4542 10.9879 L 211.4465 11.3563 L 210.4289 11.7311 L 209.4012 12.112 L 208.0219 12.6258 L 206.974 13.0178 L 205.5646 13.546 L 204.4965 13.9465 L 203.4166 14.3508 L 202.308 14.7649 L 200.8622 15.3031 L 199.7539 15.7138 L 198.6334 16.1271 L 197.123 16.6808 L 195.979 17.0975 L 194.4385 17.6549 L 193.2709 18.0744 L 191.7 18.6346 L 190.5066 19.0571 L 188.908 19.6194 L 187.6955 20.0436 L 186.4745 20.4692 L 185.2452 20.896 L 184.0063 21.3247 L 182.3463 21.897 L 181.0912 22.3282 L 179.8309 22.7598 L 178.1395 23.3368 L 176.8655 23.7697 L 175.5849 24.2029 L 174.2984 24.6361 L 172.5796 25.2112 L 171.2846 25.6414 L 169.9869 26.0693 L 168.6844 26.4955 L 167.3823 26.9178 L 166.0774 27.3369 L 164.3317 27.8906 L 163.0196 28.3009 L 161.7065 28.7061 L 159.9522 29.238 L 158.6323 29.6307 L 157.3121 30.0168 L 155.9874 30.3972 L 154.6606 30.771 L 152.897 31.2564 L 151.5677 31.6134 L 150.2375 31.9628 L 148.9055 32.3047 L 147.1283 32.748 L 145.7934 33.0711 L 144.0122 33.489 L 142.6743 33.7928 L 141.3347 34.0885 L 139.5488 34.4698 L 138.2125 34.7458 L 136.4267 35.1025 L 135.0873 35.3611 L 133.7483 35.612 L 131.964 35.9344 L 130.6239 36.1675 L 129.2838 36.3928 L 127.9408 36.6108 L 126.157 36.888 L 124.8187 37.0866 L 123.0319 37.3393 L 121.6933 37.5191 L 120.3529 37.691 L 119.0115 37.8546 L 117.6721 38.0095 L 116.3321 38.1561 L 114.9913 38.2942 L 113.6526 38.4235 L 112.311 38.5444 L 110.9707 38.6566 L 109.6305 38.7601 L 108.29 38.8551 L 106.9494 38.9417 L 105.6092 39.0201 L 104.2674 39.0908 L 102.4791 39.1733 L 101.1364 39.2267 L 99.79 39.2732 L 98.0055 39.3243 L 96.6611 39.3551 L 95.317 39.3795 L 93.524 39.4023 L 92.1731 39.4123 L 90.3815 39.4157 L 89.0321 39.4108 L 87.2298 39.3942 L 85.8755 39.3741 L 84.519 39.3473 L 83.1603 39.3139 L 81.7981 39.2736 L 80.4335 39.2267 L 78.6091 39.1535 L 77.2301 39.0903 L 75.3905 38.9956 L 74.0013 38.9164 L 72.1445 38.8002 L 70.7429 38.705 L 69.3378 38.6031 L 67.9244 38.4945 L 66.0352 38.34 L 64.6104 38.2166 L 62.7023 38.0422 L 61.2663 37.9041 L 59.3419 37.7095 L 57.8954 37.5561 L 56.4422 37.3957 L 54.9557 37.2251 L 53.0328 36.9948 L 51.5625 36.8116 L 50.089 36.6217 L 48.1175 36.3581 L 46.6319 36.1524 L 44.6467 35.8682 L 43.153 35.6476 L 41.1521 35.343 L 39.6499 35.1077 L 38.1418 34.8662 L 36.1237 34.5346 L 34.606 34.2793 L 32.5751 33.9298 L 31.0504 33.6618 L 29.5173 33.3877 L 27.4737 33.0155 L 25.933 32.7303 L 23.8798 32.345 L 22.3327 32.0513 L 20.2696 31.6558 L 18.7197 31.3566 L 17.1643 31.0555 L 15.61 30.7544 L 13.5339 30.3533 L 11.9757 30.0542 L 10.4184 29.7577 L 8.3396 29.3673 L 6.7816 29.0798 L 4.7068 28.7046 L 3.1524 28.4301 L 1.6001 28.1621 L -.4686 27.815 L -2.0197 27.5624 L -4.084 27.2364 L -5.6309 26.9996 L -7.1745 26.7698 L -9.2295 26.4734 L -10.7688 26.2585 L -12.8179 25.9817 L -14.352 25.7811 L -15.8838 25.5864 L -17.4121 25.3978 L -18.9406 25.2149 L -20.4686 25.038 L -22.4959 24.8128 L -23.5347 24.7018 L -25.5315 24.4975 L -27.048 24.3503 L -28.558 24.2109 L -30.0676 24.079 L -32.076 23.9156 L -33.5809 23.8028 L -35.0838 23.6986 L -36.5828 23.6031 L -38.5789 23.4895 L -40.0725 23.4151 L -41.5634 23.3503 L -43.0515 23.2954 L -45.032 23.2375 L -46.5134 23.206 L -48.4841 23.18 L -49.9615 23.1728 L -51.9199 23.1798 L -53.3867 23.198 L -55.3378 23.2401 L -56.7974 23.2855 L -58.2516 23.3431 L -60.1865 23.4392 L -61.6347 23.526 L -63.0785 23.6254 L -64.5132 23.7369 L -65.9471 23.8613 L -67.8522 24.0466 L -69.2769 24.2001 L -70.6964 24.3655 L -72.1131 24.5432 L -73.9957 24.799 L -75.402 25.005 L -76.806 25.2234 L -78.2055 25.4536 L -80.0688 25.7788 L -81.4598 26.0345 L -82.8496 26.3002 L -84.699 26.6689 L -86.0816 26.9549 L -87.4627 27.2486 L -88.8435 27.5497 L -90.2219 27.857 L -92.0562 28.2759 L -93.4311 28.5968 L -94.8052 28.9231 L -96.6352 29.3661 L -98.0029 29.7032 L -99.3707 30.0454 L -100.739 30.3929 L -102.5585 30.863 L -103.9257 31.2225 L -105.7386 31.7081 L -107.0969 32.0791 L -108.4543 32.4566 L -109.8091 32.8404 L -111.6132 33.3635 L -112.9631 33.7645 L -114.3086 34.173 L -116.1001 34.7312 L -117.4408 35.1601 L -119.2219 35.7453 L -120.5541 36.1948 L -121.8818 36.6532 L -123.2079 37.1217 L -124.5296 37.5996 L -126.2852 38.2518 L -127.5972 38.7526 L -129.3382 39.4356 L -130.6409 39.9608 L -132.3678 40.6763 L -133.6581 41.2257 L -134.9444 41.7862 L -136.6468 42.5483 L -137.9184 43.1332 L -139.1852 43.7294 L -140.4457 44.336 L -141.7017 44.9535 L -143.3702 45.7936 L -144.6146 46.4342 L -145.8576 47.0857 L -147.5082 47.9679 L -148.7424 48.6398 L -150.3859 49.5495 L -151.6163 50.241 L -152.8458 50.9403 L -154.0749 51.6472 L -155.7123 52.6001 L -156.9406 53.3224 L -158.5792 54.2945 L -159.8099 55.0302 L -161.0411 55.7703 L -162.6861 56.7649 L -163.9225 57.5161 L -165.1609 58.2714 L -166.4011 59.0303 L -168.0596 60.0484 L -169.3077 60.8169 L -170.5573 61.5878 L -171.811 62.3624 L -173.0673 63.1392 L -174.326 63.9177 L -176.0067 64.9567 L -177.2725 65.7379 L -178.9628 66.778 L -180.2343 67.557 L -181.5072 68.3331 L -183.2085 69.3632 L -184.4848 70.1296 L -185.7631 70.8911 L -187.0438 71.6472 L -188.3244 72.3959 L -190.0335 73.3829 L -191.3167 74.1141 L -192.6002 74.8365 L -193.8864 75.5514 L -195.6034 76.4914 L -196.8902 77.1845 L -198.6118 78.097 L -199.9035 78.7699 L -201.1953 79.4328 L -202.9242 80.304 L -204.2227 80.9462 L -205.9533 81.7858 L -207.2554 82.4052 L -208.9927 83.2149 L -210.2975 83.8108 L -211.6055 84.3976 L -212.9132 84.9737 L -214.2226 85.5402 L -215.5362 86.098 L -217.2842 86.8246 L -218.6018 87.3608 L -220.3545 88.0591 L -221.6701 88.5725 L -223.4292 89.2448 L -224.7473 89.7384 L -226.5086 90.3846 L -227.8311 90.8597 L -229.1575 91.3279 L -230.9284 91.9398 L -232.2607 92.3904 L -234.0397 92.9792 L -235.3789 93.4128 L -236.7216 93.8392 L -238.5152 94.3962 L -239.8637 94.8054 L -241.2149 95.2075 L -243.0211 95.7326 L -244.3807 96.1186 L -245.7415 96.4971 L -247.1061 96.8691 L -248.9304 97.3545 L -250.3016 97.7107 L -251.6757 98.0604 L -253.0527 98.4035 L -254.4317 98.7397 L -256.2757 99.1778 L -257.661 99.4982 L -259.0498 99.8117 L -260.4414 100.1182 L -261.8353 100.4174 L -263.2314 100.7092 L -264.6312 100.9939 L -266.4995 101.3613 L -267.9024 101.6278 L -269.3101 101.8871 L -270.7183 102.1385 L -272.1305 102.3827 L -273.5431 102.6193 L -275.4312 102.9233 L -276.852 103.1431 L -278.3054 103.3598 L -280.1715 103.6259 L -281.6017 103.8205 L -283.0288 104.0067 L -284.4595 104.1853 L -285.8952 104.3564 L -287.8087 104.5725 L -289.2478 104.7262 L -290.6893 104.8728 L -292.6154 105.0574 L -294.0605 105.1876 L -295.5094 105.3115 L -296.959 105.4289 L -298.4156 105.5405 L -300.3561 105.6802 L -301.815 105.7786 L -303.2787 105.8721 L -305.231 105.9886 L -306.7017 106.0704 L -308.6644 106.1721 L -310.1393 106.2431 L -311.6207 106.3096 L -313.5966 106.3913 L -315.0844 106.4474 L -316.5733 106.4989 L -318.0667 106.5459 L -319.564 106.588 L -321.5627 106.6362 L -323.0685 106.6663 L -324.5733 106.691 L -326.5862 106.7154 L -328.0988 106.7271 L -330.1184 106.734 L -331.6356 106.7327 L -333.157 106.7259 L -335.186 106.7082 L -336.709 106.6884 L -338.2339 106.6638 L -339.7583 106.6347 L -341.7921 106.5884 L -343.3185 106.5483 L -345.3507 106.4884 L -346.8776 106.4385 L -348.402 106.3848 L -350.4269 106.307 L -351.9439 106.2441 L -353.9565 106.1545 L -355.4531 106.0832 L -357.4217 105.9837 L -358.8733 105.906 L -360.7777 105.7989 L -362.1755 105.7165 L -363.554 105.6319 L -364.9066 105.5458 L -366.2346 105.4581 L -367.5351 105.3688 L -368.8111 105.2783 L -370.467 105.1566 L -371.6802 105.0647 L -372.8669 104.9729 L -374.4077 104.8515 L -375.5337 104.7617 L -376.6352 104.6731 L -378.0671 104.5573 L -379.119 104.4719 L -380.1593 104.3875 L -381.5317 104.2764 L -382.5595 104.1936 L -383.9277 104.0838 L -384.9536 104.0015 L -385.9795 103.919 L -387.0029 103.836 L -388.027 103.7518 L -389.3921 103.637 L -390.414 103.5487 L -391.436 103.4578 L -392.4582 103.3643 L -393.4789 103.2677 L -394.4997 103.1678 L -395.5204 103.0641 L -396.5389 102.9565 L -397.5582 102.8444 L -398.5771 102.7271 L -399.9321 102.5625 L -400.9478 102.4322 L -401.9629 102.2957 L -402.9752 102.153 L -403.9893 102.0033 L -404.9991 101.8474 L -406.0093 101.6844 L -407.353 101.4565 L -408.3596 101.2771 L -409.693 101.0279 L -410.6881 100.8329 L -412.0014 100.5634 L -412.9793 100.3535 L -413.9527 100.1363 L -414.9172 99.9132 L -416.1966 99.6045 L -417.1526 99.3642 L -418.1057 99.1162 L -419.375 98.7731 L -420.3251 98.5064 L -421.5869 98.1389 L -422.5321 97.8534 L -423.7879 97.4602 L -424.7308 97.1545 L -425.6672 96.8419 L -426.9141 96.4109 L -427.8477 96.0766 L -428.7769 95.7338 L -429.7035 95.3815 L -430.9345 94.8964 L -431.8528 94.5212 L -432.7657 94.1367 L -433.6766 93.7411 L -434.8835 93.1982 L -435.7825 92.7792 L -436.6778 92.3492 L -437.5687 91.9083 L -438.4544 91.4565 L -439.6268 90.8376 L -440.5001 90.3605 L -441.6552 89.7076 L -442.5148 89.2052 L -443.6507 88.5191 L -444.4959 87.9922 L -445.614 87.2742 L -446.4461 86.7247 L -447.2728 86.166 L -448.0931 85.5993 L -448.9099 85.0235 L -449.7218 84.4399 L -450.5283 83.8496 L -451.5975 83.0512 L -452.3945 82.4445 L -453.1884 81.8305 L -454.2391 81.0031 L -455.0226 80.3752 L -456.0616 79.5283 L -456.836 78.887 L -457.8635 78.0242 L -458.6308 77.3719 L -459.3967 76.7142 L -460.4112 75.8326 L -461.1696 75.1658 L -461.9249 74.4946 L -462.6766 73.8193 L -463.6742 72.9109 L -464.4167 72.2248 L -465.4019 71.2999 L -466.1339 70.6011 L -466.8621 69.8957 L -467.5847 69.1849 L -468.3023 68.4678 L -469.0146 67.7446 L -469.7216 67.0144 L -470.421 66.2795 L -471.3452 65.2875 L -472.03 64.5366 L -472.9337 63.5231 L -473.6015 62.7568 L -474.4822 61.7223 L -475.1325 60.9396 L -475.775 60.1497 L -476.4101 59.3513 L -477.036 58.5466 L -477.8557 57.4634 L -478.4606 56.6414 L -479.2516 55.5351 L -479.8337 54.6966 L -480.406 53.8505 L -480.9687 52.9972 L -481.5214 52.1366 L -482.0649 51.2679 L -482.7739 50.0995 L -483.2955 49.2136 L -483.9767 48.0218 L -484.4771 47.1203 L -484.9695 46.2111 L -485.6115 44.9909 L -486.0835 44.0679 L -486.6996 42.828 L -487.1523 41.8904 L -487.7422 40.6328 L -488.1747 39.6835 L -488.5986 38.7288 L -489.0142 37.7685 L -489.4215 36.802 L -489.8196 35.8314 L -490.3361 34.5294 L -490.7131 33.5461 L -491.08 32.5593 L -491.5544 31.2355 L -491.8992 30.2356 L -492.2334 29.2324 L -492.6635 27.8873 L -492.9737 26.8746 L -493.3715 25.5161 L -493.6577 24.4926 L -493.9328 23.4668 L -494.198 22.436 L -494.4534 21.4004 L -494.7774 20.0183 L -495.0093 18.9772 L -495.2317 17.9321 L -495.4444 16.8854 L -495.6478 15.8366 L -495.905 14.4343 L -496.088 13.3791 L -496.3185 11.9695 L -496.4817 10.9099 L -496.6864 9.4933 L -496.8305 8.4279 L -497.01 7.0041 L -497.135 5.9353 L -497.2894 4.5038 L -497.3955 3.4291 L -497.4935 2.3515 L -497.6112 .9131 L -497.6896 -.1696 L -497.7588 -1.2511 L -497.8188 -2.3353 L -497.8837 -3.7841 L -497.9207 -4.8718 L -497.9474 -5.9614 L -497.9664 -7.4149 L -497.9681 -8.5071 L -497.9531 -9.9645 L -497.9288 -11.0563 L -497.8931 -12.1509 L -497.8459 -13.2461 L -497.7648 -14.7089 L -497.6901 -15.8048 L -497.6031 -16.9036 L -497.4681 -18.368 L -497.3524 -19.4657 L -497.2242 -20.5645 L -497.0338 -22.0288 L -496.877 -23.1262 L -496.708 -24.2261 L -496.528 -25.3218 L -496.3365 -26.4184 L -496.1335 -27.5156 L -495.9197 -28.6115 L -495.6942 -29.7098 L -495.3773 -31.1692 L -495.1264 -32.2657 L -494.7747 -33.7265 L -494.4981 -34.821 L -494.21 -35.9161 L -493.9108 -37.0098 L -493.5997 -38.1053 L -493.1682 -39.562 L -492.8308 -40.6555 L -492.3631 -42.1129 L -491.9991 -43.2057 L -491.6242 -44.2981 L -491.1077 -45.7538 L -490.708 -46.8457 L -490.2979 -47.9383 L -489.8775 -49.0312 L -489.3022 -50.487 L -488.8587 -51.5803 L -488.2537 -53.0356 L -487.7882 -54.1287 L -487.3126 -55.223 L -486.6655 -56.6784 L -486.1703 -57.7685 L -485.4953 -59.2248 L -484.9787 -60.3179 L -484.2766 -61.7749 L -483.7393 -62.8687 L -483.0092 -64.3263 L -482.451 -65.4183 L -481.8828 -66.511 L -481.3054 -67.6017 L -480.7162 -68.6946 L -479.9176 -70.1451 L -479.3058 -71.2332 L -478.4759 -72.6787 L -477.8413 -73.762 L -477.1949 -74.8469 L -476.323 -76.2784 L -475.655 -77.3518 L -474.9763 -78.4208 L -474.2874 -79.484 L -473.5893 -80.5416 L -472.6426 -81.9451 L -471.921 -82.9913 L -471.1884 -84.0332 L -470.4467 -85.0671 L -469.441 -86.4371 L -468.6768 -87.4568 L -467.903 -88.4722 L -466.8579 -89.8177 L -466.0649 -90.8194 L -464.9941 -92.1486 L -464.1841 -93.1386 L -463.3665 -94.126 L -462.2698 -95.4355 L -461.4424 -96.4172 L -460.6138 -97.3994 L -459.7775 -98.393 L -458.6822 -99.7037 L -457.8609 -100.6973 L -456.7775 -102.0271 L -455.9709 -103.0342 L -455.1719 -104.0488 L -454.1187 -105.4147 L -453.3399 -106.4476 L -452.5689 -107.49 L -451.8078 -108.5385 L -450.805 -109.9491 L -450.062 -111.0155 L -449.0824 -112.4486 L -448.3556 -113.5312 L -447.6358 -114.6188 L -446.9212 -115.713 L -446.2117 -116.8134 L -445.5078 -117.9177 L -444.8065 -119.0294 L -443.8783 -120.5155 L -443.1865 -121.6326 L -442.4941 -122.7568 L -441.576 -124.2585 L -440.8884 -125.3901 L -439.9743 -126.9034 L -439.2897 -128.0434 L -438.6072 -129.1857 L -437.6986 -130.7163 L -437.0208 -131.8681 L -436.3474 -133.0223 L -435.6772 -134.182 L -434.791 -135.7347 L -434.1327 -136.904 L -433.4798 -138.0784 L -432.6206 -139.6484 L -431.9816 -140.8357 L -431.1439 -142.4197 L -430.5239 -143.6136 L -429.7109 -145.2088 L -429.1091 -146.4139 L -428.3232 -148.0224 L -427.7446 -149.2348 L -427.1765 -150.4503 L -426.4345 -152.0779 L -425.8913 -153.2999 L -425.182 -154.9345 L -424.6601 -156.166 L -423.9798 -157.8077 L -423.4791 -159.0422 L -422.8239 -160.6914 L -422.3417 -161.9287 L -421.7086 -163.5815 L -421.2413 -164.8203 L -420.6263 -166.4729 L -420.1698 -167.7147 L -419.5677 -169.3687 L -419.1194 -170.61 L -418.6739 -171.85 L -418.2298 -173.0896 L -417.639 -174.7412 L -417.1956 -175.9793 L -416.6039 -177.6251 L -416.1577 -178.8577 L -415.7086 -180.0891 L -415.2569 -181.3175 L -414.8013 -182.545 L -414.19 -184.1716 L -413.7251 -185.3919 L -413.2563 -186.607 L -412.7815 -187.8211 L -412.3026 -189.0278 L -411.8164 -190.2339 L -411.1599 -191.8319 L -410.6587 -193.0276 L -410.1506 -194.2174 L -409.6349 -195.4022 L -408.9338 -196.9757 L -408.3988 -198.1481 L -407.6722 -199.7023 L -407.116 -200.8624 L -406.3617 -202.3966 L -405.785 -203.5398 L -405.1986 -204.6764 L -404.6018 -205.8076 L -403.7925 -207.3015 L -403.1737 -208.4135 L -402.5445 -209.5177 L -401.6899 -210.9763 L -401.0372 -212.0592 L -400.1512 -213.4876 L -399.4731 -214.5495 L -398.5533 -215.9475 L -397.8502 -216.9839 L -397.1352 -218.0101 L -396.1654 -219.3572 L -395.4235 -220.354 L -394.6703 -221.3362 L -393.906 -222.3033 L -393.1289 -223.2565 L -392.3395 -224.1948 L -391.2702 -225.4192 L -390.4577 -226.3154 L -389.3591 -227.4832 L -388.5291 -228.3339 L -387.6901 -229.1683 L -386.8475 -229.9824 L -386.0009 -230.7785 L -384.8642 -231.817 L -384.0115 -232.5755 L -383.1552 -233.3216 L -382.2967 -234.0561 L -381.4361 -234.78 L -380.2849 -235.7319 L -379.4183 -236.4371 L -378.5496 -237.1347 L -377.3861 -238.0559 L -376.5126 -238.7388 L -375.6377 -239.4157 L -374.4679 -240.3101 L -373.5899 -240.9729 L -372.7101 -241.6292 L -371.8274 -242.2787 L -370.9433 -242.9198 L -369.7594 -243.7623 L -368.8682 -244.3836 L -367.9745 -244.9948 L -366.7767 -245.7937 L -365.8732 -246.3803 L -364.9667 -246.9544 L -363.7521 -247.7007 L -362.8369 -248.2454 L -361.917 -248.7773 L -360.9931 -249.2951 L -360.0646 -249.7984 L -359.1324 -250.2862 L -357.8818 -250.9129 L -356.9386 -251.3649 L -355.6781 -251.942 L -354.7274 -252.3575 L -353.7723 -252.7587 L -352.8126 -253.1464 L -351.8464 -253.5221 L -350.5517 -254.0043 L -349.5745 -254.3534 L -348.5928 -254.6921 L -347.6066 -255.0213 L -346.6151 -255.3419 L -345.2862 -255.7566 L -344.2833 -256.0588 L -343.2723 -256.3545 L -341.9211 -256.7361 L -340.8983 -257.0148 L -339.8729 -257.2855 L -338.4954 -257.6354 L -337.4554 -257.8893 L -336.4104 -258.1358 L -335.0088 -258.4535 L -333.9512 -258.6835 L -332.8891 -258.9064 L -331.8223 -259.1222 L -330.392 -259.3991 L -329.3145 -259.5984 L -327.8685 -259.8534 L -326.7804 -260.0358 L -325.6859 -260.2107 L -324.5887 -260.3771 L -323.1186 -260.5854 L -322.0085 -260.731 L -320.5257 -260.9092 L -319.4081 -261.0305 L -318.2844 -261.141 L -316.7826 -261.2698 L -315.6508 -261.3521 L -314.1351 -261.4421 L -312.9977 -261.4938 L -311.473 -261.5407 L -310.3304 -261.5584 L -309.1844 -261.561 L -308.0373 -261.5481 L -306.8889 -261.5195 L -305.3577 -261.4577 L -304.2063 -261.3938 L -303.0583 -261.3161 L -301.9104 -261.2251 L -300.761 -261.1212 L -299.2273 -260.9637 L -298.0793 -260.8325 L -296.9285 -260.6902 L -295.3962 -260.4853 L -294.2454 -260.3209 L -293.0974 -260.1484 L -291.5671 -259.9058 L -290.4172 -259.7152 L -289.2688 -259.5176 L -287.7366 -259.2435 L -286.5876 -259.031 L -285.0549 -258.7383 L -283.906 -258.5125 L -282.7571 -258.2814 L -281.2256 -257.9641 L -280.0779 -257.7193 L -278.9299 -257.4683 L -277.7824 -257.2106 L -276.6374 -256.9462 L -275.4917 -256.6741 L -274.3467 -256.3947 L -273.2046 -256.108 L -272.0625 -255.8128 L -270.9204 -255.5094 L -269.7808 -255.1977 L -268.6434 -254.8776 L -267.1268 -254.4375 L -265.9936 -254.0984 L -264.8608 -253.7504 L -263.3526 -253.2739 L -262.2233 -252.9068 L -261.0968 -252.5318 L -259.9689 -252.1483 L -258.4709 -251.6261 L -257.3504 -251.2263 L -256.2285 -250.8179 L -254.7376 -250.2624 L -253.6232 -249.8374 L -252.5079 -249.4041 L -251.3985 -248.9648 L -250.288 -248.5166 L -249.1807 -248.0613 L -247.7078 -247.4426 L -246.6058 -246.9694 L -245.1402 -246.3274 L -244.0422 -245.8368 L -242.9479 -245.3398 L -241.8573 -244.837 L -240.4012 -244.1542 L -239.3134 -243.635 L -237.8643 -242.9322 L -236.7788 -242.397 L -235.3353 -241.6734 L -234.2548 -241.1232 L -232.8183 -240.3792 L -231.7446 -239.8133 L -230.6728 -239.2401 L -229.604 -238.66 L -228.1837 -237.8757 L -227.122 -237.2795 L -225.7118 -236.4743 L -224.6572 -235.862 L -223.2581 -235.0364 L -222.2137 -234.41 L -220.827 -233.5651 L -219.7911 -232.9241 L -218.7615 -232.2781 L -217.7358 -231.6262 L -216.3762 -230.7482 L -215.369 -230.0863 L -214.3643 -229.4164 L -213.041 -228.5183 L -212.0603 -227.8406 L -211.0928 -227.1619 L -209.8257 -226.2569 L -208.8925 -225.5779 L -207.9735 -224.8984 L -206.7748 -223.9946 L -205.8935 -223.3169 L -205.0282 -222.6397 L -204.1786 -221.9623 L -203.3462 -221.2859 L -202.532 -220.6114 L -201.732 -219.9352 L -200.6973 -219.0393 L -199.942 -218.3689 L -199.2041 -217.6994 L -198.2491 -216.8093 L -197.5553 -216.1443 L -196.6595 -215.2602 L -196.0097 -214.5988 L -195.3784 -213.938 L -194.7663 -213.2781 L -194.1719 -212.6179 L -193.5928 -211.9543 L -192.8474 -211.0685 L -192.3048 -210.3995 L -191.7758 -209.7259 L -191.0914 -208.8213 L -190.5925 -208.1368 L -189.9452 -207.2153 L -189.4738 -206.5186 L -189.0131 -205.8157 L -188.4166 -204.871 L -187.9827 -204.1567 L -187.4228 -203.1978 L -187.0168 -202.4735 L -186.622 -201.7426 L -186.242 -201.0111 L -185.8743 -200.2739 L -185.4057 -199.286 L -185.0703 -198.5406 L -184.7485 -197.791 L -184.3421 -196.7881 L -184.0532 -196.0311 L -183.7787 -195.2727 L -183.4337 -194.2572 L -183.1906 -193.493 L -182.8874 -192.4717 L -182.6753 -191.7031 L -182.4759 -190.9328 L -182.2887 -190.1607 L -182.0579 -189.1285 L -181.8985 -188.3532 L -181.7505 -187.5761 L -181.5705 -186.5379 L -181.4482 -185.7584 L -181.3363 -184.9764 L -181.2033 -183.9317 L -181.1156 -183.1464 L -181.038 -182.3578 L -180.9707 -181.5687 L -180.9138 -180.777 L -180.855 -179.7197 L -180.8242 -178.9255 L -180.8021 -177.8681 L -180.8003 -177.0749 L -180.8186 -176.0225 L -180.8482 -175.2353 L -180.8917 -174.4511 L -180.949 -173.6711 L -181.0473 -172.6357 L -181.1375 -171.8625 L -181.2415 -171.0948 L -181.3596 -170.3309 L -181.539 -169.319 L -181.6898 -168.565 L -181.9117 -167.5711 L -182.0942 -166.8305 L -182.3576 -165.8514 L -182.5697 -165.1218 L -182.869 -164.1582 L -183.106 -163.4389 L -183.3531 -162.7222 L -183.6965 -161.7725 L -183.9646 -161.0634 L -184.3364 -160.1203 L -184.6233 -159.4204 L -184.9196 -158.7207 L -185.2236 -158.0247 L -185.6421 -157.1006 L -185.9659 -156.4117 L -186.2979 -155.7278 L -186.7558 -154.8201 L -187.1083 -154.1477 L -187.4712 -153.4783 L -187.8443 -152.813 L -188.2267 -152.1534 L -188.6193 -151.4981 L -189.0218 -150.847 L -189.5746 -149.984 L -190.0016 -149.34 L -190.4386 -148.6998 L -190.8856 -148.0626 L -191.343 -147.428 L -191.9684 -146.5862 L -192.4497 -145.9576 L -193.1062 -145.125 L -193.6096 -144.5047 L -194.2959 -143.6832 L -194.8227 -143.0704 L -195.5395 -142.2603 L -196.0889 -141.657 L -196.6492 -141.0571 L -197.2184 -140.4634 L -197.9934 -139.6799 L -198.5869 -139.0982 L -199.1907 -138.5221 L -199.8047 -137.9521 L -200.4288 -137.3883 L -201.0636 -136.8306 L -201.9242 -136.0984 L -202.5812 -135.5571 L -203.2565 -135.0158 L -204.1539 -134.3193 L -204.8445 -133.8003 L -205.5454 -133.2881 L -206.4943 -132.6175 L -207.217 -132.1235 L -207.9506 -131.6364 L -208.9411 -131.0006 L -209.6946 -130.533 L -210.4587 -130.0722 L -211.491 -129.4702 L -212.2772 -129.0268 L -213.072 -128.5911 L -213.8749 -128.1631 L -214.6874 -127.7417 L -215.5094 -127.3269 L -216.338 -126.9199 L -217.4575 -126.3867 L -218.3069 -125.9943 L -219.1651 -125.6079 L -220.3173 -125.1043 L -221.1906 -124.7337 L -222.0727 -124.369 L -222.9612 -124.0111 L -224.1561 -123.5446 L -225.0616 -123.2029 L -226.2789 -122.7597 L -227.198 -122.4379 L -228.1244 -122.125 L -229.3666 -121.7244 L -230.3042 -121.437 L -231.2458 -121.1614 L -232.5079 -120.8126 L -233.4592 -120.5653 L -234.4152 -120.3302 L -235.6936 -120.0367 L -236.6583 -119.8308 L -237.6228 -119.6381 L -238.5916 -119.4574 L -239.5636 -119.2887 L -240.8616 -119.083 L -241.8385 -118.9425 L -242.8172 -118.8134 L -243.8 -118.6948 L -244.7877 -118.5864 L -246.1049 -118.4575 L -247.1006 -118.3715 L -248.1007 -118.2947 L -249.1044 -118.2267 L -250.1127 -118.1668 L -251.1271 -118.1145 L -252.4859 -118.0559 L -253.5112 -118.0196 L -254.542 -117.9893 L -255.9233 -117.9572 L -256.9655 -117.9383 L -258.3628 -117.9184 L -259.4175 -117.9059 L -260.8287 -117.8902 L -261.8925 -117.8778 L -263.3193 -117.8588 L -264.3959 -117.842 L -265.4751 -117.8224 L -266.9243 -117.7909 L -268.015 -117.7628 L -269.1121 -117.7306 L -270.2136 -117.6941 L -271.3237 -117.6531 L -272.8068 -117.5915 L -273.9278 -117.5398 L -275.4298 -117.4636 L -276.5634 -117.4011 L -277.701 -117.3342 L -278.845 -117.2629 L -280.3748 -117.1612 L -281.5274 -117.08 L -283.0701 -116.9652 L -284.2339 -116.8738 L -285.3978 -116.778 L -286.9565 -116.6421 L -288.1285 -116.5337 L -289.6941 -116.3798 L -290.8713 -116.2568 L -292.0479 -116.1271 L -293.2256 -115.99 L -294.7954 -115.7951 L -295.9709 -115.6391 L -297.1458 -115.4739 L -298.7057 -115.2395 L -299.8725 -115.0523 L -301.0365 -114.8549 L -302.1947 -114.6476 L -303.7318 -114.3551 L -304.8805 -114.1231 L -306.0218 -113.8809 L -307.5357 -113.5404 L -308.6645 -113.2716 L -309.7971 -112.9884 L -311.2681 -112.5992 L -312.3714 -112.2904 L -313.831 -111.8584 L -314.9176 -111.5187 L -315.9948 -111.1662 L -317.0637 -110.8004 L -318.1232 -110.4212 L -319.5221 -109.8949 L -320.5619 -109.4841 L -321.5913 -109.0603 L -322.6102 -108.6239 L -323.6218 -108.1732 L -324.9507 -107.5542 L -325.9366 -107.0746 L -327.2354 -106.4154 L -328.1968 -105.907 L -329.4642 -105.2093 L -330.3987 -104.6749 L -331.6321 -103.9433 L -332.5438 -103.383 L -333.4452 -102.8125 L -334.6317 -102.0359 L -335.5087 -101.443 L -336.3774 -100.8394 L -337.5158 -100.0233 L -338.3587 -99.4002 L -339.4665 -98.5561 L -340.285 -97.9134 L -341.093 -97.2628 L -342.1532 -96.3837 L -342.9379 -95.7139 L -343.7098 -95.0384 L -344.7231 -94.1261 L -345.4706 -93.4338 L -346.4517 -92.4985 L -347.1742 -91.7892 L -347.8839 -91.0743 L -348.5837 -90.3507 L -349.4971 -89.3769 L -350.1682 -88.6389 L -350.8279 -87.8939 L -351.4747 -87.1431 L -352.3185 -86.1318 L -352.9365 -85.3663 L -353.5402 -84.597 L -354.3243 -83.5636 L -354.8982 -82.781 L -355.4582 -81.9941 L -356.0037 -81.204 L -356.7099 -80.1424 L -357.2223 -79.3413 L -357.8804 -78.2698 L -358.3559 -77.4618 L -358.8153 -76.6503 L -359.2565 -75.8376 L -359.6803 -75.0216 L -360.2165 -73.9307 L -360.5965 -73.1115 L -360.9584 -72.2896 L -361.4112 -71.1938 L -361.7287 -70.3712 L -362.0279 -69.5467 L -362.3072 -68.7239 L -362.5676 -67.9006 L -362.8091 -67.0773 L -363.0316 -66.2556 L -363.2351 -65.4353 L -363.4202 -64.6158 L -363.6379 -63.5283 L -363.78 -62.7149 L -363.9046 -61.9027 L -364.0438 -60.8253 L -364.1289 -60.0174 L -364.2175 -58.9432 L -364.2662 -58.1386 L -364.3004 -57.3365 L -364.3246 -56.2709 L -364.3275 -55.4731 L -364.3179 -54.6788 L -364.2962 -53.8859 L -364.2632 -53.0966 L -364.2193 -52.3097 L -364.1648 -51.5251 L -364.0998 -50.7426 L -364.0248 -49.9643 L -363.9095 -48.9314 L -363.8117 -48.1609 L -363.7045 -47.3932 L -363.5876 -46.6282 L -363.4163 -45.6149 L -363.2761 -44.8598 L -363.073 -43.8592 L -362.9088 -43.1137 L -362.6735 -42.125 L -362.4854 -41.3898 L -362.2869 -40.6585 L -362.006 -39.69 L -361.784 -38.9707 L -361.4721 -38.0188 L -361.2261 -37.3098 L -360.8835 -36.375 L -360.6151 -35.6802 L -360.3365 -34.9901 L -359.9507 -34.0804 L -359.6502 -33.405 L -359.2346 -32.5133 L -358.9117 -31.8509 L -358.4662 -30.9757 L -358.1216 -30.3266 L -357.6472 -29.4685 L -357.2812 -28.8316 L -356.9057 -28.1993 L -356.5213 -27.5725 L -356.1285 -26.9518 L -355.5906 -26.132 L -355.1776 -25.5242 L -354.7561 -24.9216 L -354.3262 -24.3245 L -353.8875 -23.7323 L -353.4402 -23.1454 L -352.9854 -22.565 L -352.5224 -21.9903 L -352.0512 -21.4213 L -351.5711 -20.857 L -351.0839 -20.2997 L -350.4219 -19.566 L -349.9155 -19.0221 L -349.2288 -18.3073 L -348.7037 -17.7777 L -348.1708 -17.2543 L -347.4485 -16.5668 L -346.8967 -16.0578 L -346.3374 -15.5555 L -345.5796 -14.8954 L -345.0023 -14.4076 L -344.4175 -13.9256 L -343.6269 -13.2928 L -343.027 -12.8262 L -342.4198 -12.3652 L -341.8051 -11.9097 L -340.9771 -11.3127 L -340.3486 -10.8715 L -339.7131 -10.4354 L -338.8578 -9.8629 L -338.2083 -9.439 L -337.3357 -8.8824 L -336.6745 -8.4703 L -336.0072 -8.0621 L -335.1111 -7.5255 L -334.4333 -7.1281 L -333.7508 -6.7346 L -333.063 -6.3449 L -332.3709 -5.9594 L -331.6743 -5.5779 L -330.972 -5.1999 L -330.2654 -4.826 L -329.3159 -4.3337 L -328.5974 -3.9687 L -327.6347 -3.4897 L -326.906 -3.1347 L -326.1733 -2.7842 L -325.4356 -2.438 L -324.4447 -1.9837 L -323.6958 -1.6488 L -322.9429 -1.3196 L -322.1847 -.9958 L -321.4213 -.6778 L -320.6538 -.3664 L -319.88 -.0609 L -319.1027 .2369 L -318.3197 .5276 L -317.2697 .9026 L -316.4772 1.174 L -315.4136 1.5224 L -314.6119 1.773 L -313.8065 2.0144 L -312.7274 2.3213 L -311.9138 2.5404 L -310.8246 2.8172 L -310.0026 3.0138 L -308.8813 3.2648 L -308.0721 3.4339 L -306.9626 3.6498 L -306.1232 3.8016 L -305.0011 3.9902 L -304.1533 4.1227 L -303.019 4.2882 L -302.1636 4.4049 L -301.3041 4.5159 L -300.1518 4.6563 L -299.2835 4.7563 L -298.1194 4.8841 L -297.2407 4.9765 L -296.359 5.0661 L -295.1767 5.1824 L -294.2848 5.2679 L -293.3892 5.3521 L -292.4903 5.4354 L -291.2866 5.5445 L -290.378 5.6245 L -289.4649 5.7024 L -288.2421 5.803 L -287.3203 5.8757 L -286.0844 5.9681 L -285.1529 6.034 L -283.9046 6.1172 L -282.9652 6.1756 L -282.0205 6.23 L -281.0721 6.2803 L -280.1186 6.3269 L -278.8437 6.3826 L -277.8811 6.4194 L -276.9129 6.452 L -275.9392 6.4806 L -274.635 6.5119 L -273.6547 6.5302 L -272.6652 6.5443 L -271.6682 6.5547 L -270.6656 6.5611 L -269.3246 6.5635 L -268.3072 6.561 L -267.2848 6.5548 L -266.2516 6.5448 L -264.8675 6.526 L -263.8191 6.5079 L -262.7622 6.4859 L -261.3416 6.4505 L -260.2661 6.4194 L -259.1833 6.3844 L -258.0919 6.3453 L -256.992 6.302 L -255.8821 6.2542 L -254.7531 6.2015 L -253.2662 6.1256 L -252.1324 6.0628 L -250.9892 5.9952 L -249.8384 5.923 L -248.2909 5.8194 L -247.121 5.7366 L -245.9411 5.6494 L -244.3563 5.5273 L -243.1565 5.4313 L -241.9489 5.3319 L -240.7302 5.2294 L -239.5006 5.1241 L -237.8316 4.9789 L -236.6043 4.8712 L -235.3472 4.7603 L -234.0797 4.6483 L -232.3741 4.4976 L -231.0812 4.3837 L -229.3466 4.2317 L -228.032 4.1169 L -226.7068 4.0015 L -224.9266 3.8469 L -223.5769 3.73 L -222.218 3.6125 L -220.8481 3.4941 L -219.0049 3.3346 L -217.6125 3.2136 L -216.2073 3.0908 L -214.3188 2.9243 L -212.893 2.7972 L -211.4546 2.6677 L -209.52 2.4911 L -208.0588 2.3558 L -206.588 2.2177 L -205.107 2.0768 L -203.1154 1.8842 L -201.6068 1.7358 L -199.5885 1.5341 L -198.0618 1.379 L -196.0013 1.1663 L -194.4591 1.0045 L -192.8991 .8387 L -191.3288 .6696 L -189.7493 .4973 L -188.1587 .3218 L -186.5594 .1432 L -184.9484 -.039 L -182.7915 -.2865 L -181.1604 -.4764 L -178.9693 -.7352 L -177.3184 -.933 L -175.6562 -1.1347 L -173.4257 -1.4091 L -171.7384 -1.6198 L -170.0511 -1.8336 L -167.7953 -2.1247 L -166.0931 -2.3487 L -164.3839 -2.5778 L -162.6671 -2.8122 L -160.9434 -3.0522 L -159.2156 -3.2976 L -157.4763 -3.5495 L -155.1553 -3.8934 L -153.3994 -4.1591 L -151.0585 -4.5203 L -149.2909 -4.7982 L -146.9274 -5.1761 L -145.1442 -5.4655 L -142.7592 -5.8578 L -140.9619 -6.1571 L -138.5564 -6.5621 L -136.7449 -6.87 L -134.3192 -7.286 L -132.4909 -7.6022 L -130.657 -7.9216 L -128.2012 -8.3534 L -126.3507 -8.682 L -124.4959 -9.0145 L -122.6306 -9.3521 L -120.7658 -9.6931 L -118.2657 -10.1557 L -116.3843 -10.508 L -114.497 -10.8653 L -112.6006 -11.2281 L -110.6641 -11.6024 L -108.1607 -12.092 L -106.2465 -12.4705 L -103.687 -12.9821 L -101.7559 -13.372 L -99.8251 -13.7655 L -97.8881 -14.1639 L -95.2968 -14.7032 L -93.3442 -15.1145 L -91.3895 -15.5309 L -89.4257 -15.954 L -86.8021 -16.5271 L -84.8296 -16.9641 L -82.8472 -17.4087 L -80.2042 -18.0102 L -78.2152 -18.4694 L -76.2132 -18.9375 L -73.5586 -19.5672 L -71.5534 -20.0497 L -69.5455 -20.5387 L -66.8618 -21.2013 L -64.8516 -21.7044 L -62.1574 -22.3876 L -60.1342 -22.9074 L -57.4447 -23.6074 L -55.4209 -24.141 L -53.3968 -24.6807 L -51.3704 -25.2271 L -49.3086 -25.7892 L -47.3269 -26.3352 L -44.6352 -27.0859 L -42.6163 -27.6557 L -40.605 -28.229 L -38.5936 -28.8079 L -36.5896 -29.3904 L -34.5868 -29.9782 L -31.924 -30.7685 L -29.9331 -31.3661 L -27.9449 -31.9686 L -25.9625 -32.5753 L -23.9845 -33.1866 L -21.3642 -34.0057 L -19.3997 -34.6272 L -17.4447 -35.2523 L -14.8447 -36.0943 L -12.9014 -36.7322 L -10.9673 -37.3748 L -9.0382 -38.0237 L -7.1163 -38.6782 L -4.5632 -39.5608 L -2.655 -40.2302 L -.7568 -40.9042 L 1.1388 -41.5856 L 3.6501 -42.5011 L 5.5255 -43.1944 L 7.3983 -43.8951 L 9.8789 -44.8365 L 11.7358 -45.5511 L 14.1969 -46.5111 L 16.0384 -47.2388 L 17.8698 -47.9701 L 20.3025 -48.9526 L 22.1224 -49.6956 L 23.9345 -50.4421 L 26.3469 -51.4454 L 28.143 -52.1989 L 29.9369 -52.9566 L 31.7267 -53.7171 L 34.111 -54.7368 L 35.8927 -55.503 L 37.6709 -56.2709 L 39.4428 -57.0389 L 41.2062 -57.8058 L 42.966 -58.5735 L 44.7242 -59.3428 L 47.0548 -60.3664 L 48.7992 -61.1356 L 50.5387 -61.9054 L 52.2708 -62.6748 L 53.9984 -63.4454 L 55.722 -64.2174 L 57.4369 -64.9892 L 59.7152 -66.0205 L 61.4176 -66.7961 L 63.1067 -67.57 L 65.3399 -68.6007 L 67.0004 -69.373 L 69.1911 -70.4004 L 70.8175 -71.1697 L 72.4655 -71.9556 L 74.0238 -72.7048 L 75.6 -73.469 L 77.1574 -74.2306 L 78.6942 -74.9891 L 80.2083 -75.7434 L 81.7057 -76.4962 L 83.6659 -77.4919 L 85.1122 -78.2338 L 86.5398 -78.972 L 87.9458 -79.7047 L 89.3303 -80.4313 L 91.1361 -81.3854 L 92.4632 -82.0902 L 93.7688 -82.7853 L 95.4667 -83.6905 L 96.7134 -84.3549 L 97.9342 -85.0045 L 99.5278 -85.8498 L 100.6955 -86.4662 L 101.8403 -87.0673 L 102.9641 -87.6541 L 104.066 -88.2255 L 105.1479 -88.7829 L 106.2066 -89.3246 L 107.582 -90.022 L 108.588 -90.5276 L 109.5705 -91.0182 L 110.5308 -91.4952 L 111.4654 -91.9569 L 112.3781 -92.406 L 113.2678 -92.8427 L 114.4206 -93.4064 L 115.2686 -93.8204 L 116.105 -94.2283 L 116.9369 -94.634 L 117.7654 -95.0384 L 118.8657 -95.5763 L 119.6866 -95.9783 L 120.5057 -96.3801 L 121.5921 -96.9137 L 122.4035 -97.3126 L 123.2121 -97.7105 L 124.0201 -98.108 L 125.09 -98.6336 L 125.8913 -99.026 L 126.9549 -99.5446 L 127.7516 -99.9307 L 128.5456 -100.3129 L 129.3403 -100.6919 L 130.1303 -101.0647 L 131.1843 -101.5545 L 131.9766 -101.9156 L 133.0281 -102.384 L 133.8182 -102.7266 L 134.6086 -103.0606 L 135.6628 -103.4914 L 136.4536 -103.8031 L 137.2448 -104.1051 L 138.0368 -104.3971 L 139.0898 -104.7697 L 139.874 -105.0357 L 140.9137 -105.3727 L 141.6867 -105.6112 L 142.4551 -105.8378 L 143.2176 -106.052 L 144.2238 -106.3183 L 144.9739 -106.504 L 145.715 -106.6766 L 146.6991 -106.8886 L 147.4315 -107.0337 L 148.1628 -107.1678 L 148.8935 -107.291 L 149.623 -107.4033 L 150.3512 -107.5049 L 151.0781 -107.5956 L 151.803 -107.6753 L 152.5284 -107.7442 L 153.4893 -107.8183 L 154.2098 -107.8607 L 154.926 -107.8915 L 155.8783 -107.9146 L 156.5895 -107.9183 L 157.2964 -107.9102 L 158.2337 -107.8812 L 158.9332 -107.8458 L 159.8582 -107.7806 L 160.5474 -107.7181 L 161.4584 -107.6171 L 162.1365 -107.5283 L 162.8116 -107.4284 L 163.7002 -107.2797 L 164.362 -107.1566 L 165.2374 -106.9776 L 165.8889 -106.8324 L 166.5361 -106.6782 L 167.3926 -106.4585 L 168.0316 -106.2835 L 168.6655 -106.1006 L 169.2956 -105.9089 L 169.9225 -105.7086 L 170.5448 -105.5007 L 171.1649 -105.2842 L 171.781 -105.0593 L 172.5966 -104.747 L 173.2056 -104.5034 L 174.0138 -104.1669 L 174.6173 -103.9059 L 175.4175 -103.5469 L 176.0146 -103.2694 L 176.6088 -102.9852 L 177.2 -102.694 L 177.7886 -102.3959 L 178.5688 -101.9876 L 179.149 -101.6737 L 179.7267 -101.3521 L 180.2991 -101.0241 L 180.8683 -100.6886 L 181.62 -100.2308 L 182.1787 -99.8795 L 182.9173 -99.4001 L 183.4669 -99.0321 L 184.1912 -98.5325 L 184.7296 -98.1501 L 185.263 -97.7616 L 185.967 -97.2346 L 186.4901 -96.8326 L 187.0088 -96.4254 L 187.6948 -95.8746 L 188.2058 -95.4562 L 188.8825 -94.8933 L 189.389 -94.4668 L 189.8927 -94.0393 L 190.3961 -93.6096 L 190.899 -93.1789 L 191.402 -92.7473 L 191.9056 -92.3151 L 192.5785 -91.7397 L 193.085 -91.3097 L 193.5939 -90.8814 L 194.105 -90.4553 L 194.7896 -89.8915 L 195.3062 -89.4716 L 195.8273 -89.0531 L 196.5229 -88.5025 L 197.0493 -88.0923 L 197.5766 -87.6871 L 198.1066 -87.2861 L 198.6385 -86.8907 L 199.3526 -86.3716 L 199.8903 -85.9897 L 200.4304 -85.6138 L 200.9732 -85.2438 L 201.5173 -84.8804 L 202.2466 -84.4057 L 202.795 -84.0581 L 203.5302 -83.6062 L 204.0843 -83.2763 L 204.8268 -82.85 L 205.3869 -82.5404 L 206.1372 -82.1432 L 206.7022 -81.8576 L 207.2693 -81.5825 L 207.839 -81.318 L 208.4117 -81.0644 L 208.9859 -80.8224 L 209.5628 -80.5916 L 210.3337 -80.3013 L 210.914 -80.0964 L 211.6897 -79.8425 L 212.2731 -79.6668 L 212.8574 -79.5038 L 213.6375 -79.3057 L 214.2239 -79.1718 L 215.0057 -79.0139 L 215.5937 -78.9105 L 216.1799 -78.8206 L 216.7675 -78.7437 L 217.5486 -78.6619 L 218.1338 -78.6159 L 218.719 -78.583 L 219.3018 -78.563 L 219.8826 -78.5556 L 220.4623 -78.5605 L 221.2313 -78.5861 L 221.8055 -78.6193 L 222.566 -78.6822 L 223.1324 -78.7428 L 223.8808 -78.8416 L 224.4373 -78.9292 L 224.9898 -79.0283 L 225.7159 -79.1772 L 226.2558 -79.3021 L 226.7901 -79.4379 L 227.4909 -79.6351 L 228.0093 -79.7952 L 228.52 -79.9651 L 229.0243 -80.145 L 229.5216 -80.3344 L 230.0129 -80.5337 L 230.4971 -80.7418 L 231.1331 -81.0338 L 231.6037 -81.2637 L 232.2226 -81.5843 L 232.6805 -81.8351 L 233.1336 -82.0949 L 233.7302 -82.4547 L 234.1733 -82.7348 L 234.7568 -83.121 L 235.1898 -83.4204 L 235.6187 -83.7282 L 236.0436 -84.0445 L 236.4636 -84.3684 L 236.8796 -84.7008 L 237.2914 -85.0415 L 237.8332 -85.5086 L 238.2335 -85.8679 L 238.6296 -86.2354 L 239.1502 -86.7369 L 239.5354 -87.1213 L 239.916 -87.5127 L 240.2915 -87.9107 L 240.7846 -88.4526 L 241.1489 -88.8672 L 241.6273 -89.4309 L 241.9813 -89.8628 L 242.3303 -90.3012 L 242.6747 -90.7472 L 243.0141 -91.2002 L 243.3482 -91.6595 L 243.6777 -92.1266 L 244.1081 -92.7592 L 244.4252 -93.2419 L 244.7372 -93.7307 L 245.146 -94.3931 L 245.4465 -94.8966 L 245.8403 -95.5773 L 246.1297 -96.0937 L 246.4148 -96.6166 L 246.7872 -97.3209 L 247.0622 -97.857 L 247.3326 -98.3978 L 247.5993 -98.9449 L 247.8621 -99.4973 L 248.2069 -100.2428 L 248.4606 -100.8071 L 248.792 -101.5678 L 249.0358 -102.1453 L 249.2754 -102.7284 L 249.5872 -103.5135 L 249.8151 -104.1092 L 250.0375 -104.7098 L 250.3255 -105.5194 L 250.5347 -106.1327 L 250.8048 -106.9596 L 251.0005 -107.587 L 251.1896 -108.2193 L 251.3721 -108.8578 L 251.5479 -109.5023 L 251.7167 -110.1531 L 251.8785 -110.8098 L 252.083 -111.6949 L 252.228 -112.3666 L 252.4099 -113.2709 L 252.5381 -113.9572 L 252.6982 -114.8819 L 252.8101 -115.5836 L 252.9146 -116.2901 L 253.0119 -117.0033 L 253.102 -117.7235 L 253.21 -118.691 L 253.2821 -119.4237 L 253.3465 -120.1626 L 253.4202 -121.1556 L 253.4667 -121.9071 L 253.5056 -122.6639 L 253.537 -123.4249 L 253.561 -124.1918 L 253.581 -125.2212 L 253.5873 -125.998 L 253.5843 -127.0415 L 253.5739 -127.831 L 253.5494 -128.8897 L 253.5233 -129.6903 L 253.4906 -130.4933 L 253.451 -131.303 L 253.4048 -132.1158 L 253.3516 -132.9359 L 253.2703 -134.0331 L 253.2013 -134.8618 L 253.1252 -135.6972 L 253.043 -136.5344 L 252.9546 -137.3783 L 252.8606 -138.2265 L 252.7614 -139.079 L 252.621 -140.2217 L 252.5095 -141.0844 L 252.3534 -142.2382 L 252.2299 -143.1133 L 252.0581 -144.279 L 251.9231 -145.1598 L 251.7831 -146.0437 L 251.6373 -146.9339 L 251.4344 -148.1246 L 251.275 -149.0244 L 251.0535 -150.2294 L 250.8797 -151.1408 L 250.6386 -152.359 L 250.4499 -153.2793 L 250.2549 -154.2045 L 250.0534 -155.1333 L 249.8449 -156.0687 L 249.5569 -157.3223 L 249.3335 -158.2694 L 249.1035 -159.2236 L 248.7881 -160.4996 L 248.5442 -161.4668 L 248.2944 -162.4377 L 247.9504 -163.7466 L 247.6868 -164.732 L 247.4167 -165.7271 L 247.0485 -167.0634 L 246.7656 -168.0748 L 246.4776 -169.0911 L 246.0853 -170.4584 L 245.7848 -171.4924 L 245.4792 -172.5329 L 245.0647 -173.9294 L 244.7478 -174.9867 L 244.3193 -176.4045 L 243.9932 -177.4758 L 243.6629 -178.5558 L 243.3298 -179.6407 L 242.8806 -181.1003 L 242.5408 -182.2031 L 242.0842 -183.6855 L 241.7404 -184.8044 L 241.2788 -186.3126 L 241.0485 -187.0685 L 240.5871 -188.5915 L 240.2407 -189.7436 L 239.8938 -190.9062 L 239.4336 -192.4635 L 239.0887 -193.642 L 238.745 -194.8262 L 238.2865 -196.4211 L 237.9432 -197.6236 L 237.4847 -199.2393 L 237.1393 -200.4616 L 236.679 -202.0957 L 236.3308 -203.3335 L 235.9819 -204.575 L 235.5134 -206.2414 L 235.1592 -207.4996 L 234.8031 -208.763 L 234.3245 -210.4579 L 233.9632 -211.7347 L 233.5992 -213.0188 L 233.233 -214.3083 L 232.7415 -216.0372 L 232.3698 -217.3449 L 231.8745 -219.0912 L 231.5015 -220.4102 L 231.1276 -221.7373 L 230.7543 -223.0677 L 230.3808 -224.4054 L 229.8832 -226.1999 L 229.5109 -227.554 L 229.0176 -229.3629 L 228.6477 -230.7313 L 228.1579 -232.5599 L 227.7916 -233.9401 L 227.4267 -235.3256 L 227.0647 -236.7121 L 226.7037 -238.106 L 226.3439 -239.5055 L 225.9854 -240.9105 L 225.6297 -242.3152 L 225.1573 -244.1973 L 224.8049 -245.614 L 224.4537 -247.0354 L 224.1037 -248.4608 L 223.7541 -249.893 L 223.4057 -251.329 L 223.0578 -252.7711 L 222.7111 -254.2158 L 222.3647 -255.6675 L 221.9036 -257.6099 L 221.5579 -259.0741 L 221.0992 -261.0283 L 220.7545 -262.5041 L 220.4108 -263.9826 L 220.0688 -265.4614 L 219.6118 -267.4466 L 219.2713 -268.9337 L 218.9312 -270.426 L 218.5919 -271.9221 L 218.1424 -273.9143 L 217.8068 -275.4094 L 217.4726 -276.9047 L 217.0291 -278.8995 L 216.7005 -280.3847 L 216.2648 -282.3672 L 215.9401 -283.8547 L 215.5114 -285.8332 L 215.1945 -287.3083 L 214.8798 -288.7842 L 214.5694 -290.2507 L 214.2627 -291.7113 L 213.9597 -293.1671 L 213.5632 -295.0923 L 213.2705 -296.5286 L 212.9821 -297.9576 L 212.6055 -299.8448 L 212.3281 -301.2502 L 212.0555 -302.6457 L 211.6998 -304.4869 L 211.4381 -305.857 L 211.1821 -307.2122 L 210.9309 -308.5566 L 210.6048 -310.3227 L 210.3658 -311.6313 L 210.132 -312.9226 L 209.9035 -314.1951 L 209.6065 -315.8641 L 209.3905 -317.0884 L 209.1791 -318.2946 L 208.9731 -319.4779 L 208.7718 -320.6418 L 208.5101 -322.1659 L 208.3205 -323.2797 L 208.136 -324.372 L 207.9573 -325.4395 L 207.7283 -326.8255 L 207.5639 -327.8353 L 207.4063 -328.8189 L 207.2556 -329.7772 L 207.1123 -330.7104 L 206.9343 -331.9101 L 206.8107 -332.7801 L 206.6594 -333.8988 L 206.5558 -334.7086 L 206.4301 -335.7529 L 206.3442 -336.5168 L 206.2641 -337.2706 L 206.1669 -338.2524 L 206.0996 -338.981 L 206.0173 -339.9367 L 205.9606 -340.6457 L 205.9076 -341.3513 L 205.8423 -342.2887 L 205.797 -342.9903 L 205.7551 -343.6889 L 205.7162 -344.3873 L 205.6805 -345.0845 L 205.6482 -345.7794 L 205.6195 -346.4734 L 205.5946 -347.166 L 205.5682 -348.0874 L 205.5536 -348.7774 L 205.5438 -349.4658 L 205.5388 -350.1538 L 205.5392 -350.8419 L 205.545 -351.528 L 205.5565 -352.2145 L 205.5813 -353.1281 L 205.6073 -353.8127 L 205.6522 -354.7243 L 205.6937 -355.406 L 205.7422 -356.0876 L 205.7979 -356.7693 L 205.8605 -357.4481 L 205.955 -358.3508 L 206.0343 -359.0276 L 206.1511 -359.9283 L 206.2472 -360.6032 L 206.351 -361.28 L 206.501 -362.1804 L 206.623 -362.8574 L 206.753 -363.535 L 206.9386 -364.4396 L 207.0872 -365.1197 L 207.2436 -365.8008 L 207.4645 -366.7129 L 207.6396 -367.4 L 207.8852 -368.3178 L 208.0796 -369.011 L 208.3506 -369.9346 L 208.564 -370.6307 L 208.7858 -371.329 L 209.0162 -372.0291 L 209.2555 -372.7318 L 209.5036 -373.4364 L 209.7602 -374.142 L 210.0257 -374.8488 L 210.3934 -375.7931 L 210.6799 -376.5031 L 210.9751 -377.213 L 211.28 -377.925 L 211.7005 -378.8737 L 212.0268 -379.5856 L 212.3627 -380.2975 L 212.8253 -381.2472 L 213.1833 -381.9591 L 213.6754 -382.9076 L 214.0554 -383.6186 L 214.4451 -384.328 L 214.8447 -385.037 L 215.2541 -385.7453 L 215.6731 -386.4523 L 216.2472 -387.3922 L 216.6888 -388.0954 L 217.2938 -389.0308 L 217.7585 -389.7294 L 218.3934 -390.6577 L 218.8809 -391.3516 L 219.3779 -392.043 L 220.0561 -392.9619 L 220.5754 -393.6469 L 221.2836 -394.5572 L 221.8259 -395.2358 L 222.3779 -395.9112 L 223.1275 -396.8051 L 223.7014 -397.4718 L 224.2843 -398.1341 L 224.8764 -398.7916 L 225.4791 -399.4448 L 226.0904 -400.0914 L 226.92 -400.9437 L 227.5525 -401.5747 L 228.4097 -402.4049 L 229.0637 -403.019 L 229.9494 -403.8256 L 230.6239 -404.421 L 231.3087 -405.0095 L 232.2346 -405.7807 L 232.9415 -406.3516 L 233.8991 -407.101 L 234.6308 -407.656 L 235.6203 -408.3836 L 236.3761 -408.9218 L 237.1431 -409.4529 L 238.1809 -410.1488 L 238.9718 -410.662 L 239.7745 -411.1683 L 240.8596 -411.83 L 241.6846 -412.3161 L 242.5211 -412.7942 L 243.6511 -413.4174 L 244.511 -413.8748 L 245.6715 -414.4696 L 246.5552 -414.9062 L 247.7481 -415.4745 L 248.6523 -415.8897 L 249.5684 -416.2973 L 250.4953 -416.6968 L 251.7464 -417.2164 L 252.6968 -417.5969 L 253.6578 -417.9699 L 254.9534 -418.4553 L 255.9378 -418.8114 L 256.931 -419.1599 L 257.9349 -419.5015 L 259.289 -419.9458 L 260.3125 -420.2691 L 261.696 -420.6891 L 262.7436 -420.9939 L 264.1553 -421.3864 L 265.2241 -421.67 L 266.3018 -421.9441 L 267.3877 -422.2084 L 268.4819 -422.4626 L 269.586 -422.7072 L 271.0656 -423.0157 L 272.1835 -423.2343 L 273.6833 -423.5076 L 274.8149 -423.6991 L 275.9523 -423.8785 L 277.4765 -424.1011 L 278.6246 -424.2563 L 279.7789 -424.402 L 281.3266 -424.5828 L 282.4908 -424.709 L 283.6603 -424.8286 L 285.2293 -424.9782 L 286.4102 -425.0836 L 287.5977 -425.1826 L 289.1886 -425.3058 L 290.3881 -425.3941 L 291.9936 -425.5072 L 293.2033 -425.5896 L 294.4187 -425.6696 L 296.0457 -425.7721 L 297.2705 -425.8453 L 298.5014 -425.9154 L 300.1484 -426.0025 L 301.3914 -426.0628 L 302.6355 -426.1182 L 304.3059 -426.1837 L 305.563 -426.2258 L 306.8298 -426.2618 L 308.5238 -426.2983 L 309.8012 -426.3166 L 311.5133 -426.3278 L 312.8036 -426.325 L 314.5306 -426.3062 L 315.8309 -426.2802 L 317.1266 -426.2439 L 318.864 -426.18 L 320.1705 -426.1205 L 321.9118 -426.0272 L 323.2193 -425.9474 L 324.5301 -425.8587 L 325.8421 -425.7618 L 327.1571 -425.6577 L 328.9122 -425.5078 L 330.2302 -425.3884 L 331.5524 -425.2628 L 333.3135 -425.0873 L 334.6372 -424.9497 L 335.9632 -424.8065 L 337.7319 -424.6068 L 339.0605 -424.4499 L 340.3954 -424.2856 L 342.1655 -424.0559 L 343.499 -423.8734 L 345.2749 -423.6167 L 346.6094 -423.4129 L 348.3834 -423.1268 L 349.7155 -422.8994 L 351.0434 -422.6616 L 352.8114 -422.3269 L 354.1351 -422.0622 L 355.4551 -421.7862 L 357.209 -421.4011 L 358.5227 -421.0988 L 359.8312 -420.7861 L 361.5712 -420.3519 L 362.8715 -420.0136 L 364.1664 -419.6654 L 365.4571 -419.3069 L 366.7441 -418.9377 L 368.0233 -418.5587 L 369.7257 -418.0355 L 370.9979 -417.6303 L 372.6854 -417.0737 L 373.9427 -416.6441 L 375.1938 -416.2032 L 376.8516 -415.5973 L 378.0887 -415.1285 L 379.3153 -414.6495 L 380.5364 -414.1581 L 382.1501 -413.486 L 383.352 -412.968 L 384.5462 -412.4378 L 385.7334 -411.8947 L 386.9074 -411.3413 L 388.074 -410.7745 L 389.2324 -410.1945 L 390.7593 -409.4026 L 391.8931 -408.794 L 393.39 -407.9633 L 394.501 -407.3273 L 395.6046 -406.6794 L 397.0584 -405.8015 L 398.1412 -405.13 L 399.5696 -404.2217 L 400.6322 -403.5296 L 401.6866 -402.8295 L 402.735 -402.1208 L 404.1196 -401.1675 L 405.1524 -400.4439 L 406.1769 -399.7162 L 407.5347 -398.737 L 408.5468 -397.9965 L 409.5524 -397.252 L 410.886 -396.2519 L 411.8782 -395.4982 L 413.1939 -394.4856 L 414.1736 -393.7202 L 415.4696 -392.6907 L 416.4331 -391.9107 L 417.7034 -390.8603 L 418.6453 -390.0632 L 419.8858 -388.9872 L 420.8054 -388.1684 L 422.0132 -387.0634 L 422.9064 -386.2228 L 424.0803 -385.0854 L 424.9457 -384.2213 L 426.0812 -383.052 L 426.9174 -382.164 L 427.7424 -381.265 L 428.8223 -380.0527 L 429.6175 -379.1338 L 430.4017 -378.2057 L 431.1758 -377.2691 L 431.9392 -376.3262 L 432.6926 -375.3771 L 433.6835 -374.1013 L 434.4157 -373.1392 L 435.1404 -372.171 L 436.0953 -370.8724 L 436.8011 -369.8963 L 437.5011 -368.9149 L 438.1952 -367.9287 L 439.1078 -366.613 L 439.7867 -365.6212 L 440.6829 -364.2949 L 441.3481 -363.2974 L 442.007 -362.2977 L 442.6593 -361.2945 L 443.3048 -360.287 L 444.1519 -358.9402 L 444.7779 -357.9248 L 445.5979 -356.5662 L 446.2024 -355.5421 L 446.7979 -354.5126 L 447.5767 -353.1344 L 448.1496 -352.0952 L 448.7119 -351.0536 L 449.2653 -350.0066 L 449.808 -348.9567 L 450.517 -347.5483 L 451.0367 -346.4886 L 451.546 -345.425 L 452.045 -344.3574 L 452.6946 -342.9272 L 453.1694 -341.8507 L 453.7867 -340.4095 L 454.239 -339.323 L 454.6817 -338.2332 L 455.2584 -336.7727 L 455.6815 -335.671 L 456.2328 -334.1952 L 456.6374 -333.0826 L 457.0341 -331.9658 L 457.5529 -330.4675 L 457.9337 -329.3401 L 458.3088 -328.2068 L 458.8004 -326.6865 L 459.1627 -325.5408 L 459.5194 -324.3912 L 459.871 -323.2365 L 460.2169 -322.0775 L 460.5567 -320.9146 L 460.8907 -319.7456 L 461.3247 -318.182 L 461.6414 -317.0057 L 461.9509 -315.8235 L 462.2525 -314.637 L 462.5454 -313.4489 L 462.9225 -311.8588 L 463.1948 -310.6597 L 463.541 -309.0565 L 463.7881 -307.8484 L 464.024 -306.6377 L 464.2492 -305.4221 L 464.5319 -303.7968 L 464.7308 -302.5732 L 464.9183 -301.3464 L 465.1506 -299.7059 L 465.3117 -298.473 L 465.4614 -297.2365 L 465.5995 -295.9953 L 465.7255 -294.7537 L 465.8393 -293.5087 L 465.9717 -291.8468 L 466.0567 -290.5959 L 466.1505 -288.9257 L 466.2061 -287.6711 L 466.2495 -286.4148 L 466.2892 -284.737 L 466.306 -283.4753 L 466.3116 -281.7957 L 466.3038 -280.5334 L 466.286 -279.2675 L 466.2477 -277.583 L 466.2088 -276.3169 L 466.144 -274.6273 L 466.0864 -273.3599 L 466.0217 -272.0916 L 465.9256 -270.3993 L 465.8468 -269.1312 L 465.7624 -267.8618 L 465.6726 -266.5912 L 465.5449 -264.8984 L 465.4426 -263.6269 L 465.2974 -261.933 L 465.1814 -260.6625 L 465.0163 -258.9669 L 464.8848 -257.699 L 464.7456 -256.428 L 464.599 -255.1595 L 464.4442 -253.8887 L 464.2257 -252.1983 L 464.0518 -250.9295 L 463.8067 -249.2407 L 463.6121 -247.9729 L 463.338 -246.2846 L 463.1215 -245.0202 L 462.8951 -243.754 L 462.6592 -242.4884 L 462.3298 -240.8002 L 462.0714 -239.5338 L 461.8027 -238.2684 L 461.5234 -237.0026 L 461.1346 -235.3153 L 460.8307 -234.0504 L 460.5165 -232.7852 L 460.1928 -231.5208 L 459.747 -229.8343 L 459.4026 -228.5701 L 459.0493 -227.3047 L 458.6885 -226.0413 L 458.1949 -224.3553 L 457.8153 -223.0887 L 457.4286 -221.8225 L 457.0347 -220.5552 L 456.4996 -218.8647 L 456.0907 -217.5937 L 455.5368 -215.8983 L 455.1147 -214.6244 L 454.6837 -213.337 L 454.1114 -211.6445 L 453.6736 -210.3613 L 453.2318 -209.0755 L 452.6365 -207.3545 L 452.1843 -206.0557 L 451.5757 -204.3188 L 451.1136 -203.0069 L 450.6479 -201.6904 L 450.1767 -200.3638 L 449.7007 -199.0292 L 449.0598 -197.2393 L 448.5723 -195.8835 L 448.08 -194.5191 L 447.5824 -193.1449 L 447.0788 -191.7598 L 446.5698 -190.3655 L 446.0546 -188.9605 L 445.5319 -187.5412 L 445.0062 -186.1201 L 444.4717 -184.6813 L 443.9325 -183.2362 L 443.1996 -181.2829 L 442.6465 -179.8164 L 442.085 -178.3349 L 441.3244 -176.3392 L 440.747 -174.8323 L 440.1614 -173.3109 L 439.3723 -171.2702 L 438.7715 -169.7227 L 437.9623 -167.646 L 437.347 -166.0717 L 436.5179 -163.9564 L 435.8884 -162.3532 L 435.0441 -160.2057 L 434.4027 -158.5761 L 433.7474 -156.9112 L 432.8901 -154.7334 L 432.2327 -153.0631 L 431.5726 -151.3851 L 430.6842 -149.125 L 430.0142 -147.4189 L 429.3386 -145.6972 L 428.6599 -143.9664 L 427.7467 -141.6382 L 427.0566 -139.879 L 426.1302 -137.5168 L 425.4307 -135.7327 L 424.7274 -133.9384 L 424.0177 -132.1275 L 423.3031 -130.3041 L 422.3495 -127.8709 L 421.6268 -126.0268 L 420.6581 -123.5549 L 419.9267 -121.6884 L 419.1909 -119.81 L 418.4532 -117.9274 L 417.7123 -116.0351 L 416.9714 -114.1414 L 416.2308 -112.249 L 415.2396 -109.7153 L 414.4984 -107.8178 L 413.5077 -105.2819 L 412.7664 -103.3817 L 412.0243 -101.4785 L 411.2821 -99.5759 L 410.2929 -97.0358 L 409.5517 -95.1328 L 408.81 -93.2279 L 408.0683 -91.3226 L 407.0791 -88.7829 L 406.3369 -86.879 L 405.5938 -84.9725 L 404.8499 -83.0659 L 404.1016 -81.1493 L 403.3345 -79.186 L 402.3393 -76.6417 L 401.5752 -74.6904 L 400.5491 -72.0733 L 399.7731 -70.096 L 398.7352 -67.454 L 397.9506 -65.4587 L 396.8963 -62.7812 L 396.1006 -60.7626 L 395.2993 -58.7322 L 394.2254 -56.0144 L 393.414 -53.9633 L 392.5976 -51.9024 L 391.7749 -49.8281 L 390.9511 -47.7539 L 389.8419 -44.9651 L 389.0079 -42.8702 L 388.1667 -40.7587 L 387.3227 -38.6404 L 386.1917 -35.802 L 385.3388 -33.6601 L 384.198 -30.7925 L 383.3388 -28.6295 L 382.1895 -25.732 L 381.3246 -23.5462 L 380.4596 -21.3561 L 379.2997 -18.4135 L 378.4284 -16.1999 L 377.5539 -13.9746 L 376.6774 -11.7419 L 375.5034 -8.7487 L 374.6199 -6.4952 L 373.4368 -3.4772 L 372.5457 -1.205 L 371.6487 1.0809 L 370.4497 4.1343 L 369.544 6.4385 L 368.3353 9.5107 L 367.4236 11.8261 L 366.5057 14.155 L 365.586 16.4868 L 364.3532 19.6101 L 363.426 21.9578 L 362.4945 24.3153 L 361.5602 26.6793 L 360.3044 29.8565 L 359.6819 31.4314 L 358.741 33.8117 L 357.7987 36.1952 L 356.8549 38.5819 L 355.9094 40.9739 L 354.6501 44.1595 L 353.7043 46.5531 L 352.758 48.947 L 351.4963 52.1409 L 350.55 54.5366 L 349.2794 57.7532 L 348.6563 59.3316 L 347.3971 62.5223 L 346.4532 64.9156 L 345.5079 67.3119 L 344.2477 70.5097 L 343.3014 72.9088 L 342.044 76.0988 L 341.0987 78.4983 L 339.8409 81.6916 L 338.8966 84.089 L 337.6346 87.2928 L 336.6952 89.6783 L 335.7513 92.0748 L 334.8075 94.4708 L 333.5491 97.6681 L 332.6072 100.0599 L 331.6654 102.4523 L 330.7265 104.8373 L 329.4669 108.0374 L 328.8587 109.5827 L 327.6517 112.6498 L 326.7515 114.9375 L 325.8585 117.2072 L 324.6866 120.1868 L 323.8265 122.3745 L 322.9757 124.539 L 322.1367 126.6743 L 321.3012 128.8013" stroke-width="28" stroke="grey" fill="none" id="Track"/></svg>